<?xml version="1.0" encoding="UTF-8" standalone="no"?><!DOCTYPE svg PUBLIC "-//W3C//DTD SVG 1.1//EN" "http://www.w3.org/Graphics/SVG/1.1/DTD/svg11.dtd"><!-- Generated by graphviz version 2.40.1 (20161225.0304)
 --><!-- Title: MinimisedDFA Pages: 1 --><svg xmlns="http://www.w3.org/2000/svg" xmlns:xlink="http://www.w3.org/1999/xlink" width="442pt" height="130pt" viewBox="0.00 0.00 442.30 130.07">
<g id="graph0" class="graph" transform="scale(1 1) rotate(0) translate(4 126.0737)">
<title>MinimisedDFA</title>
<polygon fill="#ffffff" stroke="transparent" points="-4,4 -4,-126.0737 438.3033,-126.0737 438.3033,4 -4,4"/>
<!-- start -->
<g id="node1" class="node">
<title>start</title>
<text text-anchor="middle" x="20.0505" y="-48.8737" font-family="Times,serif" font-size="14.00" fill="#000000">start</text>
</g>
<!-- S_12 -->
<g id="node2" class="node">
<title>S_12</title>
<ellipse fill="none" stroke="#000000" cx="104.1285" cy="-53.0737" rx="27.0551" ry="27.0551"/>
<text text-anchor="middle" x="104.1285" y="-48.8737" font-family="Times,serif" font-size="14.00" fill="#000000">{1,2}</text>
</g>
<!-- start&#45;&gt;S_12 -->
<g id="edge1" class="edge">
<title>start-&gt;S_12</title>
<path fill="none" stroke="#000000" d="M40.4034,-53.0737C48.3837,-53.0737 57.7997,-53.0737 66.9097,-53.0737"/>
<polygon fill="#000000" stroke="#000000" points="66.9723,-56.5738 76.9723,-53.0737 66.9723,-49.5738 66.9723,-56.5738"/>
</g>
<!-- S_3 -->
<g id="node3" class="node">
<title>S_3</title>
<ellipse fill="none" stroke="#000000" cx="199.156" cy="-97.0737" rx="25" ry="25"/>
<text text-anchor="middle" x="199.156" y="-92.8737" font-family="Times,serif" font-size="14.00" fill="#000000">{3}</text>
</g>
<!-- S_12&#45;&gt;S_3 -->
<g id="edge3" class="edge">
<title>S_12-&gt;S_3</title>
<path fill="none" stroke="#000000" d="M123.8378,-71.7325C131.2643,-77.819 140.1131,-84.0416 149.156,-88.0737 153.8685,-90.1749 159.0383,-91.7857 164.2101,-93.0206"/>
<polygon fill="#000000" stroke="#000000" points="163.5502,-96.4578 174.0389,-94.9621 164.9067,-89.5905 163.5502,-96.4578"/>
<text text-anchor="middle" x="152.656" y="-94.2737" font-family="Times,serif" font-size="14.00" fill="#000000">b</text>
</g>
<!-- S_567 -->
<g id="node5" class="node">
<title>S_567</title>
<ellipse fill="none" stroke="#000000" cx="304.2297" cy="-37.0737" rx="33.1395" ry="33.1395"/>
<ellipse fill="none" stroke="#000000" cx="304.2297" cy="-37.0737" rx="37.1475" ry="37.1475"/>
<text text-anchor="middle" x="304.2297" y="-32.8737" font-family="Times,serif" font-size="14.00" fill="#000000">{5,6,7}</text>
</g>
<!-- S_12&#45;&gt;S_567 -->
<g id="edge2" class="edge">
<title>S_12-&gt;S_567</title>
<path fill="none" stroke="#000000" d="M131.0491,-50.2933C144.0638,-48.9916 159.9148,-47.4685 174.156,-46.2737 201.5939,-43.9716 232.3203,-41.7803 257.0174,-40.1142"/>
<polygon fill="#000000" stroke="#000000" points="257.4611,-43.5924 267.2055,-39.4335 256.9944,-36.608 257.4611,-43.5924"/>
<text text-anchor="middle" x="199.156" y="-50.2737" font-family="Times,serif" font-size="14.00" fill="#000000">a</text>
</g>
<!-- S_3&#45;&gt;S_12 -->
<g id="edge4" class="edge">
<title>S_3-&gt;S_12</title>
<path fill="none" stroke="#000000" d="M179.4551,-81.3292C172.4158,-76.2832 164.2235,-71.0346 156.156,-67.2737 151.1705,-64.9494 145.7331,-62.9441 140.3138,-61.2338"/>
<polygon fill="#000000" stroke="#000000" points="141.2578,-57.8635 130.6802,-58.4685 139.3264,-64.5917 141.2578,-57.8635"/>
<text text-anchor="middle" x="152.656" y="-71.2737" font-family="Times,serif" font-size="14.00" fill="#000000">a</text>
</g>
<!-- S_3&#45;&gt;S_567 -->
<g id="edge5" class="edge">
<title>S_3-&gt;S_567</title>
<path fill="none" stroke="#000000" d="M220.9274,-84.6416C233.0735,-77.7058 248.607,-68.8357 262.9625,-60.6384"/>
<polygon fill="#000000" stroke="#000000" points="264.7594,-63.6428 271.7078,-55.6446 261.2883,-57.564 264.7594,-63.6428"/>
<text text-anchor="middle" x="245.656" y="-76.2737" font-family="Times,serif" font-size="14.00" fill="#000000">b</text>
</g>
<!-- S_4 -->
<g id="node4" class="node">
<title>S_4</title>
<ellipse fill="none" stroke="#000000" cx="409.3033" cy="-37.0737" rx="25" ry="25"/>
<text text-anchor="middle" x="409.3033" y="-32.8737" font-family="Times,serif" font-size="14.00" fill="#000000">{4}</text>
</g>
<!-- S_4&#45;&gt;S_4 -->
<g id="edge6" class="edge">
<title>S_4-&gt;S_4</title>
<path fill="none" stroke="#000000" d="M400.7815,-60.9519C400.0838,-71.2535 402.9244,-80.0737 409.3033,-80.0737 413.3898,-80.0737 416.0242,-76.4539 417.2064,-71.1437"/>
<polygon fill="#000000" stroke="#000000" points="420.7127,-71.1457 417.8252,-60.9519 413.7255,-70.7214 420.7127,-71.1457"/>
<text text-anchor="middle" x="409.3033" y="-84.2737" font-family="Times,serif" font-size="14.00" fill="#000000">a</text>
</g>
<!-- S_4&#45;&gt;S_567 -->
<g id="edge7" class="edge">
<title>S_4-&gt;S_567</title>
<path fill="none" stroke="#000000" d="M387.1207,-25.3064C380.5957,-22.4208 373.3215,-19.7408 366.3033,-18.2737 360.0829,-16.9733 353.5882,-17.16 347.2426,-18.2413"/>
<polygon fill="#000000" stroke="#000000" points="346.3608,-14.8534 337.4544,-20.5917 347.9952,-21.66 346.3608,-14.8534"/>
<text text-anchor="middle" x="362.8033" y="-22.2737" font-family="Times,serif" font-size="14.00" fill="#000000">b</text>
</g>
<!-- S_567&#45;&gt;S_12 -->
<g id="edge9" class="edge">
<title>S_567-&gt;S_12</title>
<path fill="none" stroke="#000000" d="M268.6026,-26.3997C242.2953,-20.0496 205.7276,-14.441 174.156,-21.2737 161.4116,-24.0318 148.2001,-29.3131 136.7324,-34.7913"/>
<polygon fill="#000000" stroke="#000000" points="134.9307,-31.7792 127.5582,-39.3881 138.0666,-38.0375 134.9307,-31.7792"/>
<text text-anchor="middle" x="199.156" y="-25.2737" font-family="Times,serif" font-size="14.00" fill="#000000">b</text>
</g>
<!-- S_567&#45;&gt;S_4 -->
<g id="edge8" class="edge">
<title>S_567-&gt;S_4</title>
<path fill="none" stroke="#000000" d="M341.5706,-37.0737C352.1882,-37.0737 363.7118,-37.0737 374.1921,-37.0737"/>
<polygon fill="#000000" stroke="#000000" points="374.2524,-40.5738 384.2524,-37.0737 374.2524,-33.5738 374.2524,-40.5738"/>
<text text-anchor="middle" x="362.8033" y="-41.2737" font-family="Times,serif" font-size="14.00" fill="#000000">a</text>
</g>
</g>
</svg>