<?xml version="1.0" encoding="UTF-8" standalone="no"?><!DOCTYPE svg PUBLIC "-//W3C//DTD SVG 1.1//EN" "http://www.w3.org/Graphics/SVG/1.1/DTD/svg11.dtd"><!-- Generated by graphviz version 2.40.1 (20161225.0304)
 --><!-- Title: Moore_anb Pages: 1 --><svg xmlns="http://www.w3.org/2000/svg" xmlns:xlink="http://www.w3.org/1999/xlink" width="522pt" height="181pt" viewBox="0.00 0.00 521.60 181.10">
<g id="graph0" class="graph" transform="scale(1 1) rotate(0) translate(4 177.1041)">
<title>Moore_anb</title>
<polygon fill="#ffffff" stroke="transparent" points="-4,4 -4,-177.1041 517.6023,-177.1041 517.6023,4 -4,4"/>
<!-- start -->
<g id="node1" class="node">
<title>start</title>
<text text-anchor="middle" x="20.0505" y="-31.352" font-family="Times,serif" font-size="14.00" fill="#000000">start</text>
</g>
<!-- q0 -->
<g id="node2" class="node">
<title>q0</title>
<ellipse fill="none" stroke="#000000" cx="110.9648" cy="-35.552" rx="33.7281" ry="33.7281"/>
<text text-anchor="middle" x="110.9648" y="-31.352" font-family="Times,serif" font-size="14.00" fill="#000000">q0 / 0</text>
</g>
<!-- start&#45;&gt;q0 -->
<g id="edge1" class="edge">
<title>start-&gt;q0</title>
<path fill="none" stroke="#000000" d="M40.2273,-35.552C48.1412,-35.552 57.5541,-35.552 66.8892,-35.552"/>
<polygon fill="#000000" stroke="#000000" points="66.9137,-39.0521 76.9136,-35.552 66.9136,-32.0521 66.9137,-39.0521"/>
</g>
<!-- q1 -->
<g id="node3" class="node">
<title>q1</title>
<ellipse fill="none" stroke="#000000" cx="220.9069" cy="-81.552" rx="33.7281" ry="33.7281"/>
<text text-anchor="middle" x="220.9069" y="-77.352" font-family="Times,serif" font-size="14.00" fill="#000000">q1 / 0</text>
</g>
<!-- q0&#45;&gt;q1 -->
<g id="edge2" class="edge">
<title>q0-&gt;q1</title>
<path fill="none" stroke="#000000" d="M142.4698,-48.7338C154.2006,-53.642 167.6865,-59.2845 180.1306,-64.4912"/>
<polygon fill="#000000" stroke="#000000" points="178.8213,-67.7373 189.3973,-68.3684 181.5232,-61.2797 178.8213,-67.7373"/>
<text text-anchor="middle" x="165.9358" y="-62.752" font-family="Times,serif" font-size="14.00" fill="#000000">a</text>
</g>
<!-- q_dead -->
<g id="node5" class="node">
<title>q_dead</title>
<ellipse fill="none" stroke="#000000" cx="461.0502" cy="-52.552" rx="52.6041" ry="52.6041"/>
<text text-anchor="middle" x="461.0502" y="-48.352" font-family="Times,serif" font-size="14.00" fill="#000000">q_dead / 0</text>
</g>
<!-- q0&#45;&gt;q_dead -->
<g id="edge3" class="edge">
<title>q0-&gt;q_dead</title>
<path fill="none" stroke="#000000" d="M145.2014,-34.5067C194.1349,-33.3417 286.8576,-32.3554 365.4982,-38.552 376.3755,-39.4091 387.8974,-40.7352 399.0333,-42.2364"/>
<polygon fill="#000000" stroke="#000000" points="398.7319,-45.7284 409.1221,-43.6558 399.7073,-38.7966 398.7319,-45.7284"/>
<text text-anchor="middle" x="276.2707" y="-38.752" font-family="Times,serif" font-size="14.00" fill="#000000">b</text>
</g>
<!-- q1&#45;&gt;q1 -->
<g id="edge4" class="edge">
<title>q1-&gt;q1</title>
<path fill="none" stroke="#000000" d="M210.7819,-113.9669C210.7819,-124.7718 214.1569,-133.4158 220.9069,-133.4158 225.3366,-133.4158 228.3128,-129.6932 229.8355,-124.0801"/>
<polygon fill="#000000" stroke="#000000" points="233.3328,-124.3089 231.0319,-113.9669 226.3812,-123.4864 233.3328,-124.3089"/>
<text text-anchor="middle" x="220.9069" y="-137.6158" font-family="Times,serif" font-size="14.00" fill="#000000">a</text>
</g>
<!-- q2 -->
<g id="node4" class="node">
<title>q2</title>
<ellipse fill="none" stroke="#000000" cx="331.6344" cy="-81.552" rx="33.7281" ry="33.7281"/>
<text text-anchor="middle" x="331.6344" y="-77.352" font-family="Times,serif" font-size="14.00" fill="#000000">q2 / 1</text>
</g>
<!-- q1&#45;&gt;q2 -->
<g id="edge5" class="edge">
<title>q1-&gt;q2</title>
<path fill="none" stroke="#000000" d="M255.0323,-81.552C265.241,-81.552 276.5853,-81.552 287.3473,-81.552"/>
<polygon fill="#000000" stroke="#000000" points="287.4311,-85.0521 297.4311,-81.552 287.4311,-78.0521 287.4311,-85.0521"/>
<text text-anchor="middle" x="276.2707" y="-85.752" font-family="Times,serif" font-size="14.00" fill="#000000">b</text>
</g>
<!-- q2&#45;&gt;q_dead -->
<g id="edge6" class="edge">
<title>q2-&gt;q_dead</title>
<path fill="none" stroke="#000000" d="M365.0204,-75.7037C373.3628,-74.1351 382.2752,-72.3673 390.4982,-70.552 393.6459,-69.8572 396.8665,-69.1221 400.1143,-68.3618"/>
<polygon fill="#000000" stroke="#000000" points="400.9835,-71.7527 409.8934,-66.02 399.3533,-64.9452 400.9835,-71.7527"/>
<text text-anchor="middle" x="386.9982" y="-76.752" font-family="Times,serif" font-size="14.00" fill="#000000">a</text>
</g>
<!-- q2&#45;&gt;q_dead -->
<g id="edge7" class="edge">
<title>q2-&gt;q_dead</title>
<path fill="none" stroke="#000000" d="M358.8474,-61.0393C366.4405,-56.4133 374.9596,-52.1613 383.4982,-49.752 388.3971,-48.3698 393.5391,-47.4565 398.7458,-46.9038"/>
<polygon fill="#000000" stroke="#000000" points="399.037,-50.3924 408.7915,-46.2572 398.5872,-43.4069 399.037,-50.3924"/>
<text text-anchor="middle" x="386.9982" y="-54.752" font-family="Times,serif" font-size="14.00" fill="#000000">b</text>
</g>
<!-- q_dead&#45;&gt;q_dead -->
<g id="edge8" class="edge">
<title>q_dead-&gt;q_dead</title>
<path fill="none" stroke="#000000" d="M454.3774,-104.8572C455.1043,-115.4901 457.3286,-123.1041 461.0502,-123.1041 463.4344,-123.1041 465.2041,-119.9793 466.3593,-114.9378"/>
<polygon fill="#000000" stroke="#000000" points="469.8507,-115.2362 467.7231,-104.8572 462.9139,-114.2977 469.8507,-115.2362"/>
<text text-anchor="middle" x="461.0502" y="-127.3041" font-family="Times,serif" font-size="14.00" fill="#000000">a</text>
</g>
<!-- q_dead&#45;&gt;q_dead -->
<g id="edge9" class="edge">
<title>q_dead-&gt;q_dead</title>
<path fill="none" stroke="#000000" d="M447.2599,-103.5109C446.4808,-123.9493 451.0776,-141.1041 461.0502,-141.1041 469.3088,-141.1041 473.8807,-129.3395 474.7659,-113.688"/>
<polygon fill="#000000" stroke="#000000" points="478.267,-113.5364 474.8406,-103.5109 471.2672,-113.485 478.267,-113.5364"/>
<text text-anchor="middle" x="461.0502" y="-145.3041" font-family="Times,serif" font-size="14.00" fill="#000000">b</text>
</g>
</g>
</svg>