<?xml version="1.0" encoding="UTF-8" standalone="no"?><!DOCTYPE svg PUBLIC "-//W3C//DTD SVG 1.1//EN" "http://www.w3.org/Graphics/SVG/1.1/DTD/svg11.dtd"><!-- Generated by graphviz version 2.40.1 (20161225.0304)
 --><!-- Title: Mealy_anb Pages: 1 --><svg xmlns="http://www.w3.org/2000/svg" xmlns:xlink="http://www.w3.org/1999/xlink" width="474pt" height="156pt" viewBox="0.00 0.00 474.07 155.80">
<g id="graph0" class="graph" transform="scale(1 1) rotate(0) translate(4 151.8029)">
<title>Mealy_anb</title>
<polygon fill="#ffffff" stroke="transparent" points="-4,4 -4,-151.8029 470.0696,-151.8029 470.0696,4 -4,4"/>
<!-- start -->
<g id="node1" class="node">
<title>start</title>
<text text-anchor="middle" x="20.0505" y="-18.7015" font-family="Times,serif" font-size="14.00" fill="#000000">start</text>
</g>
<!-- q0 -->
<g id="node2" class="node">
<title>q0</title>
<ellipse fill="none" stroke="#000000" cx="98.3142" cy="-22.9015" rx="21.4286" ry="21.4286"/>
<text text-anchor="middle" x="98.3142" y="-18.7015" font-family="Times,serif" font-size="14.00" fill="#000000">q0</text>
</g>
<!-- start&#45;&gt;q0 -->
<g id="edge1" class="edge">
<title>start-&gt;q0</title>
<path fill="none" stroke="#000000" d="M40.2053,-22.9015C48.2785,-22.9015 57.7734,-22.9015 66.7217,-22.9015"/>
<polygon fill="#000000" stroke="#000000" points="66.8572,-26.4016 76.8571,-22.9015 66.8571,-19.4016 66.8572,-26.4016"/>
</g>
<!-- q1 -->
<g id="node3" class="node">
<title>q1</title>
<ellipse fill="none" stroke="#000000" cx="200.8458" cy="-55.9015" rx="21.4286" ry="21.4286"/>
<text text-anchor="middle" x="200.8458" y="-51.7015" font-family="Times,serif" font-size="14.00" fill="#000000">q1</text>
</g>
<!-- q0&#45;&gt;q1 -->
<g id="edge2" class="edge">
<title>q0-&gt;q1</title>
<path fill="none" stroke="#000000" d="M118.5711,-29.4212C133.4569,-34.2122 153.9297,-40.8014 170.7287,-46.2082"/>
<polygon fill="#000000" stroke="#000000" points="170.0395,-49.6632 180.6309,-49.3953 172.1842,-42.9998 170.0395,-49.6632"/>
<text text-anchor="middle" x="149.58" y="-47.1015" font-family="Times,serif" font-size="14.00" fill="#000000">a / 0</text>
</g>
<!-- q_dead -->
<g id="node5" class="node">
<title>q_dead</title>
<ellipse fill="none" stroke="#000000" cx="426.1681" cy="-39.9015" rx="39.8032" ry="39.8032"/>
<text text-anchor="middle" x="426.1681" y="-35.7015" font-family="Times,serif" font-size="14.00" fill="#000000">q_dead</text>
</g>
<!-- q0&#45;&gt;q_dead -->
<g id="edge3" class="edge">
<title>q0-&gt;q_dead</title>
<path fill="none" stroke="#000000" d="M119.6296,-22.4536C159.8858,-21.7696 249.8402,-21.0127 325.376,-25.9015 344.5275,-27.141 349.25,-28.3161 368.2666,-30.9015 370.9615,-31.2679 373.725,-31.6559 376.5134,-32.057"/>
<polygon fill="#000000" stroke="#000000" points="376.2373,-35.5541 386.6412,-33.5517 377.2594,-28.6291 376.2373,-35.5541"/>
<text text-anchor="middle" x="252.5043" y="-28.1015" font-family="Times,serif" font-size="14.00" fill="#000000">b / 0</text>
</g>
<!-- q1&#45;&gt;q1 -->
<g id="edge4" class="edge">
<title>q1-&gt;q1</title>
<path fill="none" stroke="#000000" d="M191.8576,-75.2703C190.3302,-85.6544 193.3263,-95.1147 200.8458,-95.1147 205.7805,-95.1147 208.7671,-91.0405 209.8056,-85.3047"/>
<polygon fill="#000000" stroke="#000000" points="213.3056,-85.2802 209.834,-75.2703 206.3056,-85.2603 213.3056,-85.2802"/>
<text text-anchor="middle" x="200.8458" y="-99.3147" font-family="Times,serif" font-size="14.00" fill="#000000">a / 0</text>
</g>
<!-- q2 -->
<g id="node4" class="node">
<title>q2</title>
<ellipse fill="none" stroke="#000000" cx="304.1628" cy="-55.9015" rx="21.4286" ry="21.4286"/>
<text text-anchor="middle" x="304.1628" y="-51.7015" font-family="Times,serif" font-size="14.00" fill="#000000">q2</text>
</g>
<!-- q1&#45;&gt;q2 -->
<g id="edge5" class="edge">
<title>q1-&gt;q2</title>
<path fill="none" stroke="#000000" d="M222.2532,-55.9015C236.7987,-55.9015 256.2849,-55.9015 272.6018,-55.9015"/>
<polygon fill="#000000" stroke="#000000" points="272.7829,-59.4016 282.7829,-55.9015 272.7829,-52.4016 272.7829,-59.4016"/>
<text text-anchor="middle" x="252.5043" y="-60.1015" font-family="Times,serif" font-size="14.00" fill="#000000">b / 1</text>
</g>
<!-- q2&#45;&gt;q_dead -->
<g id="edge6" class="edge">
<title>q2-&gt;q_dead</title>
<path fill="none" stroke="#000000" d="M325.7289,-57.1992C331.4622,-57.4901 337.6519,-57.7556 343.376,-57.9015 354.4349,-58.1833 357.3295,-59.5623 368.2666,-57.9015 371.7011,-57.3799 375.2123,-56.6938 378.7233,-55.894"/>
<polygon fill="#000000" stroke="#000000" points="379.7317,-59.2489 388.5539,-53.3821 377.9987,-52.4668 379.7317,-59.2489"/>
<text text-anchor="middle" x="355.8213" y="-63.1015" font-family="Times,serif" font-size="14.00" fill="#000000">a / 0</text>
</g>
<!-- q2&#45;&gt;q_dead -->
<g id="edge7" class="edge">
<title>q2-&gt;q_dead</title>
<path fill="none" stroke="#000000" d="M322.6865,-44.9327C329.0273,-41.7535 336.3085,-38.7081 343.376,-37.1015 353.8973,-34.7097 365.3624,-33.9603 376.3145,-34.096"/>
<polygon fill="#000000" stroke="#000000" points="376.489,-37.6046 386.6103,-34.4726 376.7449,-30.6093 376.489,-37.6046"/>
<text text-anchor="middle" x="355.8213" y="-42.1015" font-family="Times,serif" font-size="14.00" fill="#000000">b / 0</text>
</g>
<!-- q_dead&#45;&gt;q_dead -->
<g id="edge8" class="edge">
<title>q_dead-&gt;q_dead</title>
<path fill="none" stroke="#000000" d="M419.6633,-79.413C420.035,-89.8773 422.2032,-97.8029 426.1681,-97.8029 428.7081,-97.8029 430.5107,-94.5503 431.5761,-89.4612"/>
<polygon fill="#000000" stroke="#000000" points="435.067,-89.7338 432.6729,-79.413 428.1084,-88.9741 435.067,-89.7338"/>
<text text-anchor="middle" x="426.1681" y="-102.0029" font-family="Times,serif" font-size="14.00" fill="#000000">a / 0</text>
</g>
<!-- q_dead&#45;&gt;q_dead -->
<g id="edge9" class="edge">
<title>q_dead-&gt;q_dead</title>
<path fill="none" stroke="#000000" d="M413.5438,-77.7833C411.501,-97.7286 415.7091,-115.8029 426.1681,-115.8029 434.8294,-115.8029 439.204,-103.4077 439.2917,-87.8195"/>
<polygon fill="#000000" stroke="#000000" points="442.7851,-87.597 438.7924,-77.7833 435.7937,-87.9449 442.7851,-87.597"/>
<text text-anchor="middle" x="426.1681" y="-120.0029" font-family="Times,serif" font-size="14.00" fill="#000000">b / 0</text>
</g>
</g>
</svg>