<?xml version="1.0" encoding="UTF-8" standalone="no"?><!DOCTYPE svg PUBLIC "-//W3C//DTD SVG 1.1//EN" "http://www.w3.org/Graphics/SVG/1.1/DTD/svg11.dtd"><!-- Generated by graphviz version 2.40.1 (20161225.0304)
 --><!-- Title: DFA_anb Pages: 1 --><svg xmlns="http://www.w3.org/2000/svg" xmlns:xlink="http://www.w3.org/1999/xlink" width="428pt" height="156pt" viewBox="0.00 0.00 428.40 155.80">
<g id="graph0" class="graph" transform="scale(1 1) rotate(0) translate(4 151.8029)">
<title>DFA_anb</title>
<polygon fill="#ffffff" stroke="transparent" points="-4,4 -4,-151.8029 424.3978,-151.8029 424.3978,4 -4,4"/>
<!-- start -->
<g id="node1" class="node">
<title>start</title>
<text text-anchor="middle" x="20.0505" y="-18.7015" font-family="Times,serif" font-size="14.00" fill="#000000">start</text>
</g>
<!-- q0 -->
<g id="node2" class="node">
<title>q0</title>
<ellipse fill="none" stroke="#000000" cx="98.3142" cy="-22.9015" rx="21.4286" ry="21.4286"/>
<text text-anchor="middle" x="98.3142" y="-18.7015" font-family="Times,serif" font-size="14.00" fill="#000000">q0</text>
</g>
<!-- start&#45;&gt;q0 -->
<g id="edge1" class="edge">
<title>start-&gt;q0</title>
<path fill="none" stroke="#000000" d="M40.2053,-22.9015C48.2785,-22.9015 57.7734,-22.9015 66.7217,-22.9015"/>
<polygon fill="#000000" stroke="#000000" points="66.8572,-26.4016 76.8571,-22.9015 66.8571,-19.4016 66.8572,-26.4016"/>
</g>
<!-- q1 -->
<g id="node3" class="node">
<title>q1</title>
<ellipse fill="none" stroke="#000000" cx="182.9552" cy="-57.9015" rx="21.4286" ry="21.4286"/>
<text text-anchor="middle" x="182.9552" y="-53.7015" font-family="Times,serif" font-size="14.00" fill="#000000">q1</text>
</g>
<!-- q0&#45;&gt;q1 -->
<g id="edge2" class="edge">
<title>q0-&gt;q1</title>
<path fill="none" stroke="#000000" d="M117.9453,-31.0191C128.5518,-35.405 141.8578,-40.9072 153.6645,-45.7894"/>
<polygon fill="#000000" stroke="#000000" points="152.5588,-49.1196 163.1374,-49.7066 155.2338,-42.6508 152.5588,-49.1196"/>
<text text-anchor="middle" x="140.6347" y="-46.1015" font-family="Times,serif" font-size="14.00" fill="#000000">a</text>
</g>
<!-- q_dead -->
<g id="node4" class="node">
<title>q_dead</title>
<ellipse fill="none" stroke="#000000" cx="380.4963" cy="-39.9015" rx="39.8032" ry="39.8032"/>
<text text-anchor="middle" x="380.4963" y="-35.7015" font-family="Times,serif" font-size="14.00" fill="#000000">q_dead</text>
</g>
<!-- q0&#45;&gt;q_dead -->
<g id="edge3" class="edge">
<title>q0-&gt;q_dead</title>
<path fill="none" stroke="#000000" d="M119.6055,-22.1621C156.1171,-21.131 232.9869,-19.9945 297.5948,-25.9015 308.5012,-26.8986 320.1359,-28.5139 331.1351,-30.2993"/>
<polygon fill="#000000" stroke="#000000" points="330.5744,-33.7541 341.0186,-31.9739 331.7438,-26.8525 330.5744,-33.7541"/>
<text text-anchor="middle" x="225.6684" y="-27.1015" font-family="Times,serif" font-size="14.00" fill="#000000">b</text>
</g>
<!-- q1&#45;&gt;q1 -->
<g id="edge4" class="edge">
<title>q1-&gt;q1</title>
<path fill="none" stroke="#000000" d="M175.3128,-78.0775C174.2554,-88.1395 176.8029,-97.1147 182.9552,-97.1147 186.8966,-97.1147 189.3585,-93.4313 190.3409,-88.1384"/>
<polygon fill="#000000" stroke="#000000" points="193.8413,-88.1635 190.5976,-78.0775 186.8436,-87.9849 193.8413,-88.1635"/>
<text text-anchor="middle" x="182.9552" y="-101.3147" font-family="Times,serif" font-size="14.00" fill="#000000">a</text>
</g>
<!-- q2 -->
<g id="node5" class="node">
<title>q2</title>
<ellipse fill="none" stroke="#000000" cx="272.3816" cy="-59.9015" rx="21.3941" ry="21.3941"/>
<ellipse fill="none" stroke="#000000" cx="272.3816" cy="-59.9015" rx="25.4282" ry="25.4282"/>
<text text-anchor="middle" x="272.3816" y="-55.7015" font-family="Times,serif" font-size="14.00" fill="#000000">q2</text>
</g>
<!-- q1&#45;&gt;q2 -->
<g id="edge5" class="edge">
<title>q1-&gt;q2</title>
<path fill="none" stroke="#000000" d="M204.6028,-58.3856C214.3176,-58.6029 226.0328,-58.8649 236.9708,-59.1095"/>
<polygon fill="#000000" stroke="#000000" points="237.0533,-62.6121 247.1291,-59.3367 237.2099,-55.6139 237.0533,-62.6121"/>
<text text-anchor="middle" x="225.6684" y="-63.1015" font-family="Times,serif" font-size="14.00" fill="#000000">b</text>
</g>
<!-- q_dead&#45;&gt;q_dead -->
<g id="edge8" class="edge">
<title>q_dead-&gt;q_dead</title>
<path fill="none" stroke="#000000" d="M374.9207,-79.413C375.2393,-89.8773 377.0979,-97.8029 380.4963,-97.8029 382.6734,-97.8029 384.2186,-94.5503 385.1317,-89.4612"/>
<polygon fill="#000000" stroke="#000000" points="388.625,-89.6956 386.0719,-79.413 381.6554,-89.0434 388.625,-89.6956"/>
<text text-anchor="middle" x="380.4963" y="-102.0029" font-family="Times,serif" font-size="14.00" fill="#000000">a</text>
</g>
<!-- q_dead&#45;&gt;q_dead -->
<g id="edge9" class="edge">
<title>q_dead-&gt;q_dead</title>
<path fill="none" stroke="#000000" d="M369.6095,-78.5645C368.0197,-98.1981 371.6486,-115.8029 380.4963,-115.8029 387.7541,-115.8029 391.5002,-103.9564 391.7346,-88.8614"/>
<polygon fill="#000000" stroke="#000000" points="395.2223,-88.4392 391.3831,-78.5645 388.2264,-88.6781 395.2223,-88.4392"/>
<text text-anchor="middle" x="380.4963" y="-120.0029" font-family="Times,serif" font-size="14.00" fill="#000000">b</text>
</g>
<!-- q2&#45;&gt;q_dead -->
<g id="edge6" class="edge">
<title>q2-&gt;q_dead</title>
<path fill="none" stroke="#000000" d="M297.8042,-60.177C305.7856,-59.9196 314.5988,-59.279 322.5948,-57.9015 326.0183,-57.3117 329.5212,-56.5748 333.0263,-55.7387"/>
<polygon fill="#000000" stroke="#000000" points="334.0635,-59.085 342.8459,-53.1587 332.2847,-52.3148 334.0635,-59.085"/>
<text text-anchor="middle" x="319.0948" y="-63.1015" font-family="Times,serif" font-size="14.00" fill="#000000">a</text>
</g>
<!-- q2&#45;&gt;q_dead -->
<g id="edge7" class="edge">
<title>q2-&gt;q_dead</title>
<path fill="none" stroke="#000000" d="M293.5367,-46.1284C300.3082,-42.4495 308.0197,-38.9773 315.5948,-37.1015 320.3398,-35.9265 325.3386,-35.2296 330.3691,-34.8826"/>
<polygon fill="#000000" stroke="#000000" points="330.7607,-38.3739 340.6685,-34.6209 330.5827,-31.3762 330.7607,-38.3739"/>
<text text-anchor="middle" x="319.0948" y="-42.1015" font-family="Times,serif" font-size="14.00" fill="#000000">b</text>
</g>
</g>
</svg>