<?xml version="1.0" encoding="UTF-8" standalone="no"?>
<!-- Created with Inkscape (http://www.inkscape.org/) -->

<svg
   version="1.1"
   id="svg1"
   width="440.34668"
   height="193.70667"
   viewBox="0 0 440.34668 193.70667"
   sodipodi:docname="24-25-2-形式语言与自动机-期中-题图5.pdf"
   xmlns:inkscape="http://www.inkscape.org/namespaces/inkscape"
   xmlns:sodipodi="http://sodipodi.sourceforge.net/DTD/sodipodi-0.dtd"
   xmlns="http://www.w3.org/2000/svg"
   xmlns:svg="http://www.w3.org/2000/svg">
  <defs
     id="defs1" />
  <sodipodi:namedview
     id="namedview1"
     pagecolor="#ffffff"
     bordercolor="#000000"
     borderopacity="0.25"
     inkscape:showpageshadow="2"
     inkscape:pageopacity="0.0"
     inkscape:pagecheckerboard="0"
     inkscape:deskcolor="#d1d1d1">
    <inkscape:page
       x="0"
       y="0"
       inkscape:label="1"
       id="page1"
       width="440.34668"
       height="193.70667"
       margin="0"
       bleed="0" />
  </sodipodi:namedview>
  <g
     id="g1"
     inkscape:groupmode="layer"
     inkscape:label="1">
    <path
       id="path1"
       d="M -61.22328,-60.6783 V 84.60648 H 269.03659 V -60.6783 Z"
       style="fill:#ffffff;fill-opacity:1;fill-rule:nonzero;stroke:none"
       transform="matrix(1.3333333,0,0,-1.3333333,81.629333,112.80267)" />
    <path
       id="path2"
       d="M 8.80498,0 C 8.80498,4.86292 4.86292,8.80498 0,8.80498 -4.86292,8.80498 -8.80498,4.86292 -8.80498,0 c 0,-4.86292 3.94206,-8.80498 8.80498,-8.80498 4.86292,0 8.80498,3.94206 8.80498,8.80498 z"
       style="fill:none;stroke:#000000;stroke-width:0.3985;stroke-linecap:butt;stroke-linejoin:miter;stroke-miterlimit:10;stroke-dasharray:none;stroke-opacity:1"
       transform="matrix(1.3333333,0,0,-1.3333333,81.629333,112.80267)" />
    <path
       id="path3"
       d="M 4.1723203,-7.8125e-5 V -0.30476562 H 3.8559141 c -0.9023438,0 -0.9257813,-0.1171875 -0.9257813,-0.48046875 V -6.3750781 c 0,-0.234375 0,-0.2578125 -0.234375,-0.2578125 -0.609375,0.6328125 -1.4882812,0.6328125 -1.80468749,0.6328125 v 0.3164062 c 0.19921879,0 0.78515629,0 1.30078129,-0.2578125 v 5.15625003 c 0,0.3515625 -0.035156,0.48046875 -0.9257813,0.48046875 H 0.94966406 V -7.8125e-5 C 1.3012266,-0.03523437 2.1566953,-0.03523437 2.5551328,-0.03523437 c 0.3984375,0 1.265625,0 1.6171875,0.035156245 z m 0,0"
       style="fill:#000000;fill-opacity:1;fill-rule:nonzero;stroke:none"
       aria-label="1"
       transform="matrix(1.3333333,0,0,1.3333333,78.308,117.22667)" />
    <path
       id="path4"
       d="m 72.68454,-42.52022 c 0,4.91772 -3.9865,8.90422 -8.90422,8.90422 -4.91772,0 -8.90422,-3.9865 -8.90422,-8.90422 0,-4.91771 3.9865,-8.90422 8.90422,-8.90422 4.91772,0 8.90422,3.98651 8.90422,8.90422 z"
       style="fill:none;stroke:#000000;stroke-width:0.3985;stroke-linecap:butt;stroke-linejoin:miter;stroke-miterlimit:10;stroke-dasharray:none;stroke-opacity:1"
       transform="matrix(1.3333333,0,0,-1.3333333,81.629333,112.80267)" />
    <path
       id="path5"
       d="m 4.5456172,-1.6991406 c 0,-0.8203125 -0.6210938,-1.59375 -1.6523438,-1.8046875 0.8085938,-0.2695313 1.3945313,-0.9726563 1.3945313,-1.7578125 0,-0.8203125 -0.8789063,-1.3710938 -1.8398438,-1.3710938 -1.0078125,0 -1.75781246,0.5976563 -1.75781246,1.3476563 0,0.3398437 0.2109375,0.5273437 0.50390626,0.5273437 0.3046875,0 0.5039062,-0.2226562 0.5039062,-0.515625 0,-0.4921875 -0.46875,-0.4921875 -0.609375,-0.4921875 0.3046875,-0.4921875 0.9609375,-0.6210937 1.3242188,-0.6210937 0.4101562,0 0.9492187,0.2226562 0.9492187,1.1132812 0,0.1289063 -0.011719,0.703125 -0.2695312,1.1367188 -0.3046875,0.4804687 -0.6445313,0.515625 -0.890625,0.515625 -0.082031,0.011719 -0.3164063,0.035156 -0.3867188,0.035156 -0.082031,0.011719 -0.1523437,0.023437 -0.1523437,0.1171875 0,0.1171875 0.070312,0.1171875 0.234375,0.1171875 h 0.4453125 c 0.8085937,0 1.1835937,0.6679688 1.1835937,1.6523438 0,1.34765623 -0.6914062,1.64062498 -1.125,1.64062498 -0.4335937,0 -1.171875,-0.17578125 -1.52343746,-0.76171875 0.35156246,0.0585938 0.65624996,-0.1640625 0.65624996,-0.53906253 0,-0.3632812 -0.2695312,-0.5625 -0.56249996,-0.5625 -0.234375,0 -0.55078125,0.140625 -0.55078125,0.5742188 0,0.91406248 0.92578121,1.57031248 2.00390621,1.57031248 1.21875,0 2.1210938,-0.9140625 2.1210938,-1.92187478 z m 0,0"
       style="fill:#000000;fill-opacity:1;fill-rule:nonzero;stroke:none"
       aria-label="3"
       transform="matrix(1.3333333,0,0,1.3333333,163.34933,173.77333)" />
    <path
       id="path6"
       d="m 72.68454,42.52022 c 0,4.91771 -3.9865,8.90422 -8.90422,8.90422 -4.91772,0 -8.90422,-3.98651 -8.90422,-8.90422 0,-4.91772 3.9865,-8.90422 8.90422,-8.90422 4.91772,0 8.90422,3.9865 8.90422,8.90422 z"
       style="fill:none;stroke:#000000;stroke-width:1.39478;stroke-linecap:butt;stroke-linejoin:miter;stroke-miterlimit:10;stroke-dasharray:none;stroke-opacity:1"
       transform="matrix(1.3333333,0,0,-1.3333333,81.629333,112.80267)" />
    <path
       id="path7"
       d="m 72.68454,42.52022 c 0,4.91771 -3.9865,8.90422 -8.90422,8.90422 -4.91772,0 -8.90422,-3.98651 -8.90422,-8.90422 0,-4.91772 3.9865,-8.90422 8.90422,-8.90422 4.91772,0 8.90422,3.9865 8.90422,8.90422 z"
       style="fill:none;stroke:#ffffff;stroke-width:0.59776;stroke-linecap:butt;stroke-linejoin:miter;stroke-miterlimit:10;stroke-dasharray:none;stroke-opacity:1"
       transform="matrix(1.3333333,0,0,-1.3333333,81.629333,112.80267)" />
    <path
       id="path8"
       d="m 4.5456172,-2.0273047 c 0,-1.265625 -0.8789063,-2.2265625 -1.9921875,-2.2265625 -0.6679688,0 -1.0429688,0.5039063 -1.2421875,0.984375 v -0.234375 c 0,-2.5195312 1.2421875,-2.8828125 1.7460937,-2.8828125 0.234375,0 0.65625,0.058594 0.8789063,0.3984375 -0.1523438,0 -0.5507813,0 -0.5507813,0.4453125 0,0.3164063 0.234375,0.4570313 0.4570313,0.4570313 0.1640625,0 0.4570312,-0.082031 0.4570312,-0.46875 0,-0.5976563 -0.4335937,-1.078125 -1.265625,-1.078125 -1.2773437,0 -2.61328121,1.2890625 -2.61328121,3.4804687 0,2.66015626 1.14843751,3.37500001 2.07421871,3.37500001 1.1132813,0 2.0507813,-0.9375 2.0507813,-2.25000001 z m -0.890625,-0.011719 c 0,0.4804687 0,0.9726562 -0.1640625,1.33593746 -0.3046875,0.59765625 -0.7617188,0.64453125 -0.9960938,0.64453125 -0.6210937,0 -0.9257812,-0.59765625 -0.984375,-0.75 C 1.3346797,-1.2773047 1.3346797,-2.0741797 1.3346797,-2.2499609 c 0,-0.7734375 0.3164062,-1.7695313 1.21875,-1.7695313 0.1523437,0 0.609375,0 0.9257812,0.609375 0.1757813,0.375 0.1757813,0.8789063 0.1757813,1.3710935 z m 0,0"
       style="fill:#000000;fill-opacity:1;fill-rule:nonzero;stroke:none"
       aria-label="6"
       transform="matrix(1.3333333,0,0,1.3333333,163.34933,60.386667)" />
    <path
       id="path9"
       d="m 136.46489,0 c 0,4.91771 -3.98651,8.90422 -8.90424,8.90422 -4.91771,0 -8.90422,-3.98651 -8.90422,-8.90422 0,-4.91771 3.98651,-8.90422 8.90422,-8.90422 4.91773,0 8.90424,3.98651 8.90424,8.90422 z"
       style="fill:none;stroke:#000000;stroke-width:1.39478;stroke-linecap:butt;stroke-linejoin:miter;stroke-miterlimit:10;stroke-dasharray:none;stroke-opacity:1"
       transform="matrix(1.3333333,0,0,-1.3333333,81.629333,112.80267)" />
    <path
       id="path10"
       d="m 136.46489,0 c 0,4.91771 -3.98651,8.90422 -8.90424,8.90422 -4.91771,0 -8.90422,-3.98651 -8.90422,-8.90422 0,-4.91771 3.98651,-8.90422 8.90422,-8.90422 4.91773,0 8.90424,3.98651 8.90424,8.90422 z"
       style="fill:none;stroke:#ffffff;stroke-width:0.59776;stroke-linecap:butt;stroke-linejoin:miter;stroke-miterlimit:10;stroke-dasharray:none;stroke-opacity:1"
       transform="matrix(1.3333333,0,0,-1.3333333,81.629333,112.80267)" />
    <path
       id="path11"
       d="m 4.4775312,-2.0053125 c 0,-1.1835937 -0.8203125,-2.1796875 -1.8984375,-2.1796875 -0.4804687,0 -0.9023437,0.1640625 -1.265625,0.5039063 v -1.9335938 c 0.1992188,0.058594 0.5273438,0.1289063 0.84375,0.1289063 1.2304688,0 1.9335938,-0.9140625 1.9335938,-1.0429688 0,-0.058594 -0.035156,-0.1054687 -0.1054688,-0.1054687 0,0 -0.035156,0 -0.082031,0.023437 -0.1992188,0.09375 -0.6796875,0.2929687 -1.3476563,0.2929687 -0.3984375,0 -0.8554687,-0.070312 -1.3242187,-0.28125 C 1.1494062,-6.6225 1.1025312,-6.6225 1.1025312,-6.6225 c -0.09375,0 -0.09375,0.082031 -0.09375,0.234375 V -3.435 c 0,0.1757813 0,0.2578125 0.140625,0.2578125 0.070312,0 0.082031,-0.035156 0.1289063,-0.09375 0.1054687,-0.1523437 0.4804687,-0.6914062 1.2773437,-0.6914062 0.5273438,0 0.7734375,0.4570312 0.8554688,0.6328125 0.1523437,0.375 0.1757812,0.7617187 0.1757812,1.2539062 0,0.3515625 0,0.9492188 -0.234375,1.37109375 C 3.1064375,-0.3178125 2.7431562,-0.06 2.286125,-0.06 c -0.7265625,0 -1.30078125,-0.52734375 -1.46484375,-1.1132812 0.0234375,0.011719 0.0585938,0.011719 0.1640625,0.011719 0.32812495,0 0.50390625,-0.2460937 0.50390625,-0.4804687 0,-0.2460938 -0.1757813,-0.4921875 -0.50390625,-0.4921875 -0.140625,0 -0.48046875,0.070312 -0.48046875,0.5273437 0,0.85546875 0.6796875,1.828125 1.7929687,1.828125 1.1601563,0 2.1796875,-0.9609375 2.1796875,-2.2265628 z m 0,0"
       style="fill:#000000;fill-opacity:1;fill-rule:nonzero;stroke:none"
       aria-label="5"
       transform="matrix(1.3333333,0,0,1.3333333,248.38933,117.08)" />
    <path
       id="path12"
       d="m 200.14597,-42.52022 c 0,4.86292 -3.94207,8.80499 -8.80498,8.80499 -4.86292,0 -8.80499,-3.94207 -8.80499,-8.80499 0,-4.86291 3.94207,-8.80498 8.80499,-8.80498 4.86291,0 8.80498,3.94207 8.80498,8.80498 z"
       style="fill:none;stroke:#000000;stroke-width:0.3985;stroke-linecap:butt;stroke-linejoin:miter;stroke-miterlimit:10;stroke-dasharray:none;stroke-opacity:1"
       transform="matrix(1.3333333,0,0,-1.3333333,81.629333,112.80267)" />
    <path
       id="path13"
       d="M 4.4768281,-1.7329687 H 4.2190156 c -0.046875,0.3046875 -0.1171875,0.7382812 -0.2109375,0.89062495 -0.070312,0.0820313 -0.7265625,0.0820313 -0.9492187,0.0820313 H 1.2658906 L 2.3205781,-1.7915624 c 1.5585938,-1.3710938 2.15625,-1.9101563 2.15625,-2.90625 0,-1.1367187 -0.9023437,-1.9335937 -2.1210937,-1.9335937 -1.125,0 -1.85156253,0.9140625 -1.85156253,1.8046875 0,0.5507812 0.4921875,0.5507812 0.52734373,0.5507812 0.1640625,0 0.515625,-0.1171875 0.515625,-0.5273437 0,-0.2578125 -0.1875,-0.515625 -0.5273437,-0.515625 -0.0820313,0 -0.10546878,0 -0.12890628,0.011719 0.22265628,-0.6445312 0.76171878,-1.0195312 1.33593748,-1.0195312 0.9140625,0 1.3359375,0.8085937 1.3359375,1.6289062 0,0.796875 -0.4921875,1.5820312 -1.0429687,2.203125 L 0.60964062,-0.361875 C 0.50417187,-0.25640625 0.50417187,-0.23296875 0.50417187,0.00140625 H 4.1955781 Z m 0,0"
       style="fill:#000000;fill-opacity:1;fill-rule:nonzero;stroke:none"
       aria-label="2"
       transform="matrix(1.3333333,0,0,1.3333333,333.42933,173.92)" />
    <path
       id="path14"
       d="m 200.17273,42.52022 c 0,4.87768 -3.95406,8.83174 -8.83174,8.83174 -4.8777,0 -8.83174,-3.95406 -8.83174,-8.83174 0,-4.8777 3.95404,-8.83174 8.83174,-8.83174 4.87768,0 8.83174,3.95404 8.83174,8.83174 z"
       style="fill:none;stroke:#000000;stroke-width:0.3985;stroke-linecap:butt;stroke-linejoin:miter;stroke-miterlimit:10;stroke-dasharray:none;stroke-opacity:1"
       transform="matrix(1.3333333,0,0,-1.3333333,81.629333,112.80267)" />
    <path
       id="path15"
       d="M 4.6877656,-1.6405234 V -1.9569297 H 3.6916719 v -4.5234375 c 0,-0.1992187 0,-0.2578125 -0.1523438,-0.2578125 -0.09375,0 -0.1171875,0 -0.1992187,0.1171875 l -3.05859378,4.6640625 v 0.3164063 H 2.9299531 v 0.86718746 c 0,0.3515625 -0.023437,0.46875 -0.7617187,0.46875 H 1.9572969 V 1.015625e-4 C 2.3674531,-0.03505469 2.8947969,-0.03505469 3.3049531,-0.03505469 c 0.421875,0 0.9492188,0 1.359375,0.0351562525 V -0.30458594 H 4.4533906 c -0.7382812,0 -0.7617187,-0.1171875 -0.7617187,-0.46875 V -1.6405234 Z M 2.9885469,-1.9569297 H 0.56276562 L 2.9885469,-5.6717734 Z m 0,0"
       style="fill:#000000;fill-opacity:1;fill-rule:nonzero;stroke:none"
       aria-label="4"
       transform="matrix(1.3333333,0,0,1.3333333,333.42933,60.605333)" />
    <path
       id="path16"
       d="m 264.04526,0 c 0,4.92859 -3.99533,8.92392 -8.92394,8.92392 -4.9286,0 -8.92392,-3.99533 -8.92392,-8.92392 0,-4.92859 3.99532,-8.92392 8.92392,-8.92392 4.92861,0 8.92394,3.99533 8.92394,8.92392 z"
       style="fill:none;stroke:#000000;stroke-width:1.39478;stroke-linecap:butt;stroke-linejoin:miter;stroke-miterlimit:10;stroke-dasharray:none;stroke-opacity:1"
       transform="matrix(1.3333333,0,0,-1.3333333,81.629333,112.80267)" />
    <path
       id="path17"
       d="m 264.04526,0 c 0,4.92859 -3.99533,8.92392 -8.92394,8.92392 -4.9286,0 -8.92392,-3.99533 -8.92392,-8.92392 0,-4.92859 3.99532,-8.92392 8.92392,-8.92392 4.92861,0 8.92394,3.99533 8.92394,8.92392 z"
       style="fill:none;stroke:#ffffff;stroke-width:0.59776;stroke-linecap:butt;stroke-linejoin:miter;stroke-miterlimit:10;stroke-dasharray:none;stroke-opacity:1"
       transform="matrix(1.3333333,0,0,-1.3333333,81.629333,112.80267)" />
    <path
       id="path18"
       d="M 4.8266875,-6.4088281 H 2.412625 c -1.21875,0 -1.2421875,-0.1289063 -1.2773437,-0.328125 H 0.8891875 l -0.328125,2.0507812 h 0.24609375 c 0.0234375,-0.1523437 0.1171875,-0.7851562 0.24609375,-0.9023437 0.070312,-0.058594 0.84375,-0.058594 0.9726563,-0.058594 h 2.0625 L 2.975125,-4.0767969 c -0.890625,1.3476563 -1.21875,2.7304688 -1.21875,3.75000003 0,0.09375 0,0.55078125 0.4570313,0.55078125 0.4570312,0 0.4570312,-0.45703125 0.4570312,-0.55078125 v -0.50390625 c 0,-0.55078128 0.023437,-1.10156248 0.1054688,-1.64062498 0.046875,-0.2226563 0.1757812,-1.078125 0.6210937,-1.6992188 l 1.3476563,-1.8984375 c 0.082031,-0.1171875 0.082031,-0.140625 0.082031,-0.3398437 z m 0,0"
       style="fill:#000000;fill-opacity:1;fill-rule:nonzero;stroke:none"
       aria-label="7"
       transform="matrix(1.3333333,0,0,1.3333333,418.47067,117.14667)" />
    <path
       id="path19"
       d="M -42.52022,0 H -9.40274"
       style="fill:none;stroke:#000000;stroke-width:0.3985;stroke-linecap:butt;stroke-linejoin:miter;stroke-miterlimit:10;stroke-dasharray:none;stroke-opacity:1"
       transform="matrix(1.3333333,0,0,-1.3333333,81.629333,112.80267)" />
    <path
       id="path20"
       d="M -2.07224,2.39104 C -1.69365,0.95639 -0.84999,0.27895 0,0 -0.84999,-0.27895 -1.69365,-0.95639 -2.07224,-2.39104"
       style="fill:none;stroke:#000000;stroke-width:0.3985;stroke-linecap:round;stroke-linejoin:round;stroke-miterlimit:10;stroke-dasharray:none;stroke-opacity:1"
       transform="matrix(1.3333333,0,0,-1.3333333,69.358027,112.80267)" />
    <path
       id="path21"
       d="m 4.9700078,-1.8522578 c 0,-0.9960938 -0.65625,-1.8164063 -1.4882812,-2.015625 L 2.2043828,-4.1725703 c -0.6210937,-0.1523438 -1.0078125,-0.6914063 -1.0078125,-1.265625 0,-0.703125 0.5390625,-1.3007813 1.3125,-1.3007813 1.6640625,0 1.8867188,1.6289063 1.9453125,2.0742188 0.011719,0.058594 0.011719,0.1171875 0.1171875,0.1171875 0.1289063,0 0.1289063,-0.046875 0.1289063,-0.234375 v -2.0039063 c 0,-0.1640625 0,-0.234375 -0.1054688,-0.234375 -0.070312,0 -0.082031,0.011719 -0.1523437,0.1289063 l -0.3515625,0.5625 c -0.2929688,-0.28125 -0.703125,-0.6914063 -1.59375,-0.6914063 -1.1015625,0 -1.93359379,0.8789063 -1.93359379,1.9335938 0,0.8203125 0.52734379,1.546875 1.30078129,1.8164062 0.1054687,0.046875 0.6210937,0.1640625 1.3125,0.328125 0.2695312,0.070312 0.5742187,0.140625 0.84375,0.515625 0.2109375,0.2578125 0.3164062,0.5859375 0.3164062,0.9140625 0,0.70312504 -0.5039062,1.41796879 -1.3359375,1.41796879 -0.2929687,0 -1.0429687,-0.046875 -1.5703125,-0.5390625 C 0.84500781,-1.1608516 0.82157031,-1.8053828 0.80985156,-2.1569453 c -0.0117188,-0.1054688 -0.09375,-0.1054688 -0.1171875,-0.1054688 -0.12890625,0 -0.12890625,0.070312 -0.12890625,0.2460938 v 1.99218749 c 0,0.17578125 0,0.24609375 0.10546875,0.24609375 0.0703125,0 0.0820313,-0.0234375 0.15234375,-0.12890625 0,0 0.0234375,-0.046875 0.35156249,-0.57421875 0.3164063,0.33984375 0.9492188,0.703125 1.8398438,0.703125 1.1601562,0 1.9570312,-0.984375 1.9570312,-2.07421874 z m 3.8730469,0.6210937 V -1.8053828 H 8.5969609 v 0.5507812 c 0,0.73828129 -0.3046875,1.11328129 -0.6679687,1.11328129 -0.6679688,0 -0.6679688,-0.90234379 -0.6679688,-1.07812499 v -2.765625 H 8.6907109 V -4.2897578 H 7.2610234 V -6.1296016 H 7.0149297 c -0.011719,0.8203125 -0.3164063,1.8867188 -1.2890625,1.921875 v 0.2226563 h 0.84375 v 2.7539062 c 0,1.21875004 0.9257812,1.33593754 1.2890625,1.33593754 0.703125,0 0.984375,-0.703125 0.984375,-1.33593754 z M 14.23075,-0.89132031 V -1.4421016 h -0.257812 v 0.55078129 c 0,0.5859375 -0.246094,0.64453125 -0.351563,0.64453125 -0.328125,0 -0.375,-0.45703125 -0.375,-0.50390625 V -2.7428828 c 0,-0.4101563 0,-0.8085938 -0.351562,-1.171875 -0.386719,-0.3867188 -0.890625,-0.5507813 -1.371094,-0.5507813 -0.808594,0 -1.5,0.46875 -1.5,1.125 0,0.3046875 0.199219,0.46875 0.457031,0.46875 0.28125,0 0.457031,-0.1992187 0.457031,-0.4570312 0,-0.1171875 -0.04687,-0.4453125 -0.503906,-0.4570313 0.269531,-0.3515625 0.75,-0.4570312 1.078125,-0.4570312 0.480469,0 1.054688,0.3867187 1.054688,1.2773437 v 0.3632813 c -0.515625,0.035156 -1.207032,0.058594 -1.839844,0.3632812 -0.7500002,0.3398438 -0.996094,0.8554688 -0.996094,1.28906254 0,0.80859375 0.972656,1.0546875 1.59375,1.0546875 0.65625,0 1.113281,-0.3984375 1.3125,-0.8671875 0.03516,0.3984375 0.304688,0.8203125 0.773438,0.8203125 0.210937,0 0.820312,-0.140625 0.820312,-0.94921875 z M 12.566688,-1.3952266 c 0,0.94921879 -0.726563,1.28906254 -1.171875,1.28906254 -0.480469,0 -0.890625,-0.3515625 -0.890625,-0.85546875 0,-0.53906249 0.410156,-1.37109379 2.0625,-1.42968749 z m 5.449218,-2.4023437 c 0,-0.3164063 -0.304687,-0.609375 -0.726562,-0.609375 -0.738282,0 -1.089844,0.6679687 -1.230469,1.1015625 v -1.1015625 l -1.382812,0.1171875 v 0.3046875 c 0.691406,0 0.773437,0.070312 0.773437,0.5625 v 2.66015624 c 0,0.45703125 -0.105469,0.45703125 -0.773437,0.45703125 V -6.953125e-4 L 15.812781,-0.03585156 c 0.398438,0 0.867188,0 1.265625,0.0351562475 V -0.30538281 h -0.210937 c -0.738282,0 -0.761719,-0.1171875 -0.761719,-0.46875 V -2.3092891 c 0,-0.984375 0.421875,-1.875 1.183594,-1.875 0.05859,0 0.08203,0 0.105468,0.011719 -0.03516,0.011719 -0.234375,0.1289062 -0.234375,0.3867187 0,0.28125 0.210938,0.4335938 0.433594,0.4335938 0.175781,0 0.421875,-0.1289063 0.421875,-0.4453127 z m 3.588867,2.5664062 V -1.8053828 H 21.35868 v 0.5507812 c 0,0.73828129 -0.304688,1.11328129 -0.667969,1.11328129 -0.667969,0 -0.667969,-0.90234379 -0.667969,-1.07812499 v -2.765625 h 1.429688 v -0.3046875 h -1.429688 v -1.8398438 h -0.246094 c -0.01172,0.8203125 -0.316406,1.8867188 -1.289062,1.921875 v 0.2226563 h 0.84375 v 2.7539062 c 0,1.21875004 0.925781,1.33593754 1.289062,1.33593754 0.703125,0 0.984375,-0.703125 0.984375,-1.33593754 z m 0,0"
       style="fill:#000000;fill-opacity:1;fill-rule:nonzero;stroke:none"
       aria-label="Start"
       transform="matrix(1.3333333,0,0,1.3333333,10.150667,107.81733)" />
    <path
       id="path22"
       d="m 4.50197,7.79778 c 11.84939,20.52417 26.1808,34.56446 49.77531,34.72106"
       style="fill:none;stroke:#000000;stroke-width:0.3985;stroke-linecap:butt;stroke-linejoin:miter;stroke-miterlimit:10;stroke-dasharray:none;stroke-opacity:1"
       transform="matrix(1.3333333,0,0,-1.3333333,81.629333,112.80267)" />
    <path
       id="path23"
       d="M -2.07224,2.39104 C -1.69365,0.95639 -0.84999,0.27895 0,0 -0.84999,-0.27895 -1.69365,-0.95639 -2.07224,-2.39104"
       style="fill:none;stroke:#000000;stroke-width:0.3985;stroke-linecap:round;stroke-linejoin:round;stroke-miterlimit:10;stroke-dasharray:none;stroke-opacity:1"
       transform="matrix(1.3333333,0,0,-1.3333333,154.26611,56.10904)" />
    <path
       id="path24"
       d="M 4.8149922,-0.89138281 V -1.4421641 H 4.5571797 v 0.55078129 c 0,0.5859375 -0.2460938,0.64453125 -0.3515625,0.64453125 -0.328125,0 -0.375,-0.45703125 -0.375,-0.50390625 V -2.7429453 c 0,-0.4101563 0,-0.8085938 -0.3515625,-1.171875 -0.3867188,-0.3867188 -0.890625,-0.5507813 -1.3710938,-0.5507813 -0.8085937,0 -1.49999996,0.46875 -1.49999996,1.125 0,0.3046875 0.19921875,0.46875 0.45703126,0.46875 0.28125,0 0.4570312,-0.1992187 0.4570312,-0.4570312 0,-0.1171875 -0.046875,-0.4453125 -0.5039062,-0.4570313 0.2695312,-0.3515625 0.75,-0.4570312 1.078125,-0.4570312 0.4804687,0 1.0546875,0.3867187 1.0546875,1.2773437 v 0.3632813 c -0.515625,0.035156 -1.2070313,0.058594 -1.8398438,0.3632812 -0.74999996,0.3398438 -0.99609371,0.8554688 -0.99609371,1.28906254 0,0.80859375 0.97265621,1.0546875 1.59375001,1.0546875 0.65625,0 1.1132812,-0.3984375 1.3125,-0.8671875 0.035156,0.3984375 0.3046875,0.8203125 0.7734375,0.8203125 0.2109375,0 0.8203125,-0.140625 0.8203125,-0.94921875 z M 3.1509297,-1.3952891 c 0,0.94921879 -0.7265625,1.28906254 -1.171875,1.28906254 -0.4804688,0 -0.890625,-0.3515625 -0.890625,-0.85546875 0,-0.53906249 0.4101562,-1.37109379 2.0625,-1.42968749 z m 0,0"
       style="fill:#000000;fill-opacity:1;fill-rule:nonzero;stroke:none"
       aria-label="a"
       transform="matrix(1.3333333,0,0,1.3333333,111.80267,64.098667)" />
    <path
       id="path25"
       d="M 56.807,36.66858 C 39.32631,22.00029 27.80905,16.04694 8.14175,4.70047"
       style="fill:none;stroke:#000000;stroke-width:0.3985;stroke-linecap:butt;stroke-linejoin:miter;stroke-miterlimit:10;stroke-dasharray:none;stroke-opacity:1"
       transform="matrix(1.3333333,0,0,-1.3333333,81.629333,112.80267)" />
    <path
       id="path26"
       d="M -2.07224,2.39104 C -1.69365,0.95639 -0.84999,0.27895 0,0 -0.84999,-0.27895 -1.69365,-0.95639 -2.07224,-2.39104"
       style="fill:none;stroke:#000000;stroke-width:0.3985;stroke-linecap:round;stroke-linejoin:round;stroke-miterlimit:10;stroke-dasharray:none;stroke-opacity:1"
       transform="matrix(-1.15468,0.66664,0.66664,1.15468,92.2564,106.6672)" />
    <path
       id="path27"
       d="m 5.1906641,-2.1565625 c 0,-1.265625 -0.9726563,-2.25 -2.109375,-2.25 -0.7851563,0 -1.2070313,0.46875 -1.3710938,0.65625 V -6.914375 L 0.28050781,-6.8089062 V -6.4925 c 0.69140625,0 0.77343749,0.070312 0.77343749,0.5507813 v 5.9414062 h 0.2460938 l 0.3632812,-0.62109375 c 0.1523438,0.234375 0.5625,0.7265625 1.3007813,0.7265625 1.1835937,0 2.2265625,-0.97265625 2.2265625,-2.26171875 z m -0.8320313,0 c 0,0.3632813 -0.011719,0.9609375 -0.3046875,1.40625 -0.2109375,0.31640625 -0.5859375,0.64453125 -1.125,0.64453125 -0.4453125,0 -0.8085937,-0.24609375 -1.0429687,-0.609375 C 1.7453516,-0.92609375 1.7453516,-0.96125 1.7453516,-1.1370312 v -2.0507813 c 0,-0.1875 0,-0.1992187 0.1054687,-0.3632812 0.3867188,-0.5507813 0.9375,-0.6328125 1.171875,-0.6328125 0.4570313,0 0.8085938,0.2578125 1.0546875,0.6328125 0.2578125,0.4101562 0.28125,0.984375 0.28125,1.3945312 z m 0,0"
       style="fill:#000000;fill-opacity:1;fill-rule:nonzero;stroke:none"
       aria-label="b"
       transform="matrix(1.3333333,0,0,1.3333333,122.15333,100.90667)" />
    <path
       id="path28"
       d="M 7.79778,-4.50197 C 27.56033,-15.91164 39.09076,-21.84612 56.5025,-36.41344"
       style="fill:none;stroke:#000000;stroke-width:0.3985;stroke-linecap:butt;stroke-linejoin:miter;stroke-miterlimit:10;stroke-dasharray:none;stroke-opacity:1"
       transform="matrix(1.3333333,0,0,-1.3333333,81.629333,112.80267)" />
    <path
       id="path29"
       d="M -2.07224,2.39104 C -1.69365,0.95639 -0.84999,0.27895 0,0 -0.84999,-0.27895 -1.69365,-0.95639 -2.07224,-2.39104"
       style="fill:none;stroke:#000000;stroke-width:0.3985;stroke-linecap:round;stroke-linejoin:round;stroke-miterlimit:10;stroke-dasharray:none;stroke-opacity:1"
       transform="matrix(1.02136,0.85704,0.85704,-1.02136,157.16849,161.52335)" />
    <path
       id="path30"
       d="m 5.1906641,-2.1551719 c 0,-1.265625 -0.9726563,-2.25 -2.109375,-2.25 -0.7851563,0 -1.2070313,0.46875 -1.3710938,0.65625 v -3.1640625 l -1.42968749,0.1054688 v 0.3164062 c 0.69140625,0 0.77343749,0.070312 0.77343749,0.5507813 v 5.94140623 h 0.2460938 l 0.3632812,-0.62109375 c 0.1523438,0.234375 0.5625,0.7265625 1.3007813,0.7265625 1.1835937,0 2.2265625,-0.97265625 2.2265625,-2.26171878 z m -0.8320313,0 c 0,0.3632813 -0.011719,0.9609375 -0.3046875,1.40625003 -0.2109375,0.31640625 -0.5859375,0.64453125 -1.125,0.64453125 -0.4453125,0 -0.8085937,-0.24609375 -1.0429687,-0.609375 -0.140625,-0.2109375 -0.140625,-0.24609375 -0.140625,-0.42187498 v -2.0507813 c 0,-0.1875 0,-0.1992187 0.1054687,-0.3632812 0.3867188,-0.5507813 0.9375,-0.6328125 1.171875,-0.6328125 0.4570313,0 0.8085938,0.2578125 1.0546875,0.6328125 0.2578125,0.4101562 0.28125,0.984375 0.28125,1.3945312 z m 0,0"
       style="fill:#000000;fill-opacity:1;fill-rule:nonzero;stroke:none"
       aria-label="b"
       transform="matrix(1.3333333,0,0,1.3333333,122.15333,133.772)" />
    <path
       id="path31"
       d="M 54.67683,-42.52022 C 30.97775,-42.5202 16.57996,-28.5948 4.70235,-8.14384"
       style="fill:none;stroke:#000000;stroke-width:0.3985;stroke-linecap:butt;stroke-linejoin:miter;stroke-miterlimit:10;stroke-dasharray:none;stroke-opacity:1"
       transform="matrix(1.3333333,0,0,-1.3333333,81.629333,112.80267)" />
    <path
       id="path32"
       d="M -2.07224,2.39104 C -1.69365,0.95639 -0.84999,0.27895 0,0 -0.84999,-0.27895 -1.69365,-0.95639 -2.07224,-2.39104"
       style="fill:none;stroke:#000000;stroke-width:0.3985;stroke-linecap:round;stroke-linejoin:round;stroke-miterlimit:10;stroke-dasharray:none;stroke-opacity:1"
       transform="matrix(-0.66664,-1.15468,-1.15468,0.66664,87.7648,123.42973)" />
    <path
       id="path33"
       d="M 4.8149922,-0.89025 V -1.4410312 H 4.5571797 V -0.89025 c 0,0.5859375 -0.2460938,0.64453125 -0.3515625,0.64453125 -0.328125,0 -0.375,-0.45703125 -0.375,-0.50390625 v -1.9921875 c 0,-0.4101562 0,-0.8085937 -0.3515625,-1.171875 -0.3867188,-0.3867187 -0.890625,-0.5507812 -1.3710938,-0.5507812 -0.8085937,0 -1.49999996,0.46875 -1.49999996,1.125 0,0.3046875 0.19921875,0.46875 0.45703126,0.46875 0.28125,0 0.4570312,-0.1992188 0.4570312,-0.4570313 0,-0.1171875 -0.046875,-0.4453125 -0.5039062,-0.4570312 0.2695312,-0.3515625 0.75,-0.4570313 1.078125,-0.4570313 0.4804687,0 1.0546875,0.3867188 1.0546875,1.2773438 v 0.3632812 c -0.515625,0.035156 -1.2070313,0.058594 -1.8398438,0.3632813 -0.74999996,0.3398437 -0.99609371,0.8554687 -0.99609371,1.28906245 0,0.80859375 0.97265621,1.0546875 1.59375001,1.0546875 0.65625,0 1.1132812,-0.3984375 1.3125,-0.8671875 0.035156,0.3984375 0.3046875,0.8203125 0.7734375,0.8203125 0.2109375,0 0.8203125,-0.140625 0.8203125,-0.94921875 z M 3.1509297,-1.3941562 c 0,0.9492187 -0.7265625,1.28906245 -1.171875,1.28906245 -0.4804688,0 -0.890625,-0.3515625 -0.890625,-0.85546875 0,-0.5390625 0.4101562,-1.3710937 2.0625,-1.4296875 z m 0,0"
       style="fill:#000000;fill-opacity:1;fill-rule:nonzero;stroke:none"
       aria-label="a"
       transform="matrix(1.3333333,0,0,1.3333333,111.80267,167.312)" />
    <path
       id="path34"
       d="m 71.35455,-37.47076 48.30033,32.20028"
       style="fill:none;stroke:#000000;stroke-width:0.3985;stroke-linecap:butt;stroke-linejoin:miter;stroke-miterlimit:10;stroke-dasharray:none;stroke-opacity:1"
       transform="matrix(1.3333333,0,0,-1.3333333,81.629333,112.80267)" />
    <path
       id="path35"
       d="M -2.07224,2.39104 C -1.69365,0.95639 -0.84999,0.27895 0,0 -0.84999,-0.27895 -1.69365,-0.95639 -2.07224,-2.39104"
       style="fill:none;stroke:#000000;stroke-width:0.3985;stroke-linecap:round;stroke-linejoin:round;stroke-miterlimit:10;stroke-dasharray:none;stroke-opacity:1"
       transform="matrix(1.10936,-0.73956,-0.73956,-1.10936,241.3902,119.68261)" />
    <path
       id="path36"
       d="m 5.1904766,-2.154875 c 0,-1.265625 -0.9726563,-2.25 -2.109375,-2.25 -0.7851563,0 -1.2070313,0.46875 -1.3710938,0.65625 v -3.1640625 l -1.42968749,0.1054687 v 0.3164063 c 0.69140625,0 0.77343749,0.070312 0.77343749,0.5507812 V 0.001375 h 0.2460938 l 0.3632812,-0.62109375 c 0.1523438,0.234375 0.5625,0.7265625 1.3007813,0.7265625 1.1835937,0 2.2265625,-0.97265625 2.2265625,-2.26171875 z m -0.8320313,0 c 0,0.3632812 -0.011719,0.9609375 -0.3046875,1.40625 -0.2109375,0.31640625 -0.5859375,0.64453125 -1.125,0.64453125 -0.4453125,0 -0.8085937,-0.24609375 -1.0429687,-0.609375 -0.140625,-0.2109375 -0.140625,-0.24609375 -0.140625,-0.42187505 V -3.186125 c 0,-0.1875 0,-0.1992188 0.1054687,-0.3632813 0.3867188,-0.5507812 0.9375,-0.6328125 1.171875,-0.6328125 0.4570313,0 0.8085938,0.2578125 1.0546875,0.6328125 0.2578125,0.4101563 0.28125,0.984375 0.28125,1.3945313 z m 0,0"
       style="fill:#000000;fill-opacity:1;fill-rule:nonzero;stroke:none"
       aria-label="b"
       transform="matrix(1.3333333,0,0,1.3333333,205.49733,136.31067)" />
    <path
       id="path37"
       d="M 135.13489,5.04944 183.4955,37.28995"
       style="fill:none;stroke:#000000;stroke-width:0.3985;stroke-linecap:butt;stroke-linejoin:miter;stroke-miterlimit:10;stroke-dasharray:none;stroke-opacity:1"
       transform="matrix(1.3333333,0,0,-1.3333333,81.629333,112.80267)" />
    <path
       id="path38"
       d="M -2.07224,2.39104 C -1.69365,0.95639 -0.84999,0.27895 0,0 -0.84999,-0.27895 -1.69365,-0.95639 -2.07224,-2.39104"
       style="fill:none;stroke:#000000;stroke-width:0.3985;stroke-linecap:round;stroke-linejoin:round;stroke-miterlimit:10;stroke-dasharray:none;stroke-opacity:1"
       transform="matrix(1.10936,-0.73956,-0.73956,-1.10936,326.51105,62.935373)" />
    <path
       id="path39"
       d="M 4.8163203,-0.88996094 V -1.4407422 H 4.5585078 v 0.55078126 c 0,0.5859375 -0.2460937,0.64453125 -0.3515625,0.64453125 -0.328125,0 -0.375,-0.45703125 -0.375,-0.50390625 V -2.7415234 c 0,-0.4101563 0,-0.8085938 -0.3515625,-1.171875 -0.3867187,-0.3867188 -0.890625,-0.5507813 -1.3710937,-0.5507813 -0.8085938,0 -1.50000004,0.46875 -1.50000004,1.125 0,0.3046875 0.19921875,0.46875 0.45703124,0.46875 0.28125,0 0.4570313,-0.1992187 0.4570313,-0.4570312 0,-0.1171875 -0.046875,-0.4453125 -0.5039063,-0.4570313 0.2695313,-0.3515625 0.75,-0.4570312 1.078125,-0.4570312 0.4804688,0 1.0546875,0.3867187 1.0546875,1.2773437 v 0.3632813 c -0.515625,0.035156 -1.2070312,0.058594 -1.8398437,0.3632812 -0.75000004,0.3398438 -0.99609379,0.8554688 -0.99609379,1.28906251 0,0.80859375 0.97265629,1.0546875 1.59374999,1.0546875 0.65625,0 1.1132813,-0.3984375 1.3125,-0.8671875 0.035156,0.3984375 0.3046875,0.8203125 0.7734375,0.8203125 0.2109375,0 0.8203125,-0.140625 0.8203125,-0.94921875 z M 3.1522578,-1.3938672 c 0,0.94921876 -0.7265625,1.28906251 -1.171875,1.28906251 -0.4804687,0 -0.890625,-0.3515625 -0.890625,-0.85546875 0,-0.53906246 0.4101563,-1.37109376 2.0625,-1.42968746 z m 0,0"
       style="fill:#000000;fill-opacity:1;fill-rule:nonzero;stroke:none"
       aria-label="a"
       transform="matrix(1.3333333,0,0,1.3333333,290.94933,95.073333)" />
    <path
       id="path40"
       d="m 71.66403,47.07181 c 37.58415,21.69894 70.08722,13.47568 110.81822,-1.32755"
       style="fill:none;stroke:#000000;stroke-width:0.3985;stroke-linecap:butt;stroke-linejoin:miter;stroke-miterlimit:10;stroke-dasharray:none;stroke-opacity:1"
       transform="matrix(1.3333333,0,0,-1.3333333,81.629333,112.80267)" />
    <path
       id="path41"
       d="M -2.07224,2.39104 C -1.69365,0.95639 -0.84999,0.27895 0,0 -0.84999,-0.27895 -1.69365,-0.95639 -2.07224,-2.39104"
       style="fill:none;stroke:#000000;stroke-width:0.3985;stroke-linecap:round;stroke-linejoin:round;stroke-miterlimit:10;stroke-dasharray:none;stroke-opacity:1"
       transform="matrix(1.2529067,0.45601333,0.45601333,-1.2529067,325.186,51.899933)" />
    <path
       id="path42"
       d="M 4.8155156,-0.89188281 V -1.4426641 H 4.5577031 v 0.55078129 c 0,0.5859375 -0.2460937,0.64453125 -0.3515625,0.64453125 -0.328125,0 -0.375,-0.45703125 -0.375,-0.50390625 V -2.7434453 c 0,-0.4101563 0,-0.8085938 -0.3515625,-1.171875 -0.3867187,-0.3867188 -0.890625,-0.5507813 -1.3710937,-0.5507813 -0.8085938,0 -1.50000002,0.46875 -1.50000002,1.125 0,0.3046875 0.19921875,0.46875 0.45703122,0.46875 0.28125,0 0.4570313,-0.1992187 0.4570313,-0.4570312 0,-0.1171875 -0.046875,-0.4453125 -0.5039063,-0.4570313 0.2695313,-0.3515625 0.75,-0.4570312 1.078125,-0.4570312 0.4804688,0 1.0546875,0.3867187 1.0546875,1.2773437 v 0.3632813 c -0.515625,0.035156 -1.2070312,0.058594 -1.8398437,0.3632812 -0.75000002,0.3398438 -0.99609377,0.8554688 -0.99609377,1.28906254 0,0.80859375 0.97265627,1.0546875 1.59374997,1.0546875 0.65625,0 1.1132813,-0.3984375 1.3125,-0.8671875 0.035156,0.3984375 0.3046875,0.8203125 0.7734375,0.8203125 0.2109375,0 0.8203125,-0.140625 0.8203125,-0.94921875 z M 3.1514531,-1.3957891 c 0,0.94921879 -0.7265625,1.28906254 -1.171875,1.28906254 -0.4804687,0 -0.890625,-0.3515625 -0.890625,-0.85546875 0,-0.53906249 0.4101563,-1.37109379 2.0625,-1.42968749 z m 0,0"
       style="fill:#000000;fill-opacity:1;fill-rule:nonzero;stroke:none"
       aria-label="a"
       transform="matrix(1.3333333,0,0,1.3333333,246.384,27.849333)" />
    <path
       id="path43"
       d="M 182.44725,40.95218 C 140.44934,33.547 115.03726,33.51111 73.14412,40.86935"
       style="fill:none;stroke:#000000;stroke-width:0.3985;stroke-linecap:butt;stroke-linejoin:miter;stroke-miterlimit:10;stroke-dasharray:none;stroke-opacity:1"
       transform="matrix(1.3333333,0,0,-1.3333333,81.629333,112.80267)" />
    <path
       id="path44"
       d="M -2.07224,2.39104 C -1.69365,0.95639 -0.84999,0.27895 0,0 -0.84999,-0.27895 -1.69365,-0.95639 -2.07224,-2.39104"
       style="fill:none;stroke:#000000;stroke-width:0.3985;stroke-linecap:round;stroke-linejoin:round;stroke-miterlimit:10;stroke-dasharray:none;stroke-opacity:1"
       transform="matrix(-1.3130667,-0.23150667,-0.23150667,1.3130667,178.88487,58.262667)" />
    <path
       id="path45"
       d="m 5.1922109,-2.1551641 c 0,-1.265625 -0.9726562,-2.25 -2.109375,-2.25 -0.7851562,0 -1.2070312,0.46875 -1.3710937,0.65625 v -3.1640625 l -1.42968751,0.1054688 v 0.3164062 c 0.69140625,0 0.77343751,0.070312 0.77343751,0.5507813 v 5.94140624 h 0.2460937 l 0.3632813,-0.62109375 c 0.1523437,0.234375 0.5625,0.7265625 1.3007812,0.7265625 1.1835938,0 2.2265625,-0.97265625 2.2265625,-2.26171879 z m -0.8320312,0 c 0,0.3632813 -0.011719,0.9609375 -0.3046875,1.40625004 -0.2109375,0.31640625 -0.5859375,0.64453125 -1.125,0.64453125 -0.4453125,0 -0.8085938,-0.24609375 -1.0429688,-0.609375 -0.140625,-0.2109375 -0.140625,-0.24609375 -0.140625,-0.42187499 v -2.0507813 c 0,-0.1875 0,-0.1992187 0.1054688,-0.3632812 0.3867187,-0.5507813 0.9375,-0.6328125 1.171875,-0.6328125 0.4570312,0 0.8085937,0.2578125 1.0546875,0.6328125 0.2578125,0.4101562 0.28125,0.984375 0.28125,1.3945312 z m 0,0"
       style="fill:#000000;fill-opacity:1;fill-rule:nonzero;stroke:none"
       aria-label="b"
       transform="matrix(1.3333333,0,0,1.3333333,248.06533,79.549333)" />
    <path
       id="path46"
       d="m 200.06425,40.18309 c 28.7394,-7.70076 1.59693,39.5007 -6.28016,11.44688"
       style="fill:none;stroke:#000000;stroke-width:0.3985;stroke-linecap:butt;stroke-linejoin:miter;stroke-miterlimit:10;stroke-dasharray:none;stroke-opacity:1"
       transform="matrix(1.3333333,0,0,-1.3333333,81.629333,112.80267)" />
    <path
       id="path47"
       d="M -2.07224,2.39104 C -1.69365,0.95639 -0.84999,0.27895 0,0 -0.84999,-0.27895 -1.69365,-0.95639 -2.07224,-2.39104"
       style="fill:none;stroke:#000000;stroke-width:0.3985;stroke-linecap:round;stroke-linejoin:round;stroke-miterlimit:10;stroke-dasharray:none;stroke-opacity:1"
       transform="matrix(-0.34505333,1.2879067,1.2879067,0.34505333,339.93555,44.221413)" />
    <path
       id="path48"
       d="M 4.8172266,-0.89 V -1.4407812 H 4.5594141 V -0.89 c 0,0.5859375 -0.2460938,0.64453125 -0.3515625,0.64453125 -0.328125,0 -0.375,-0.45703125 -0.375,-0.50390625 v -1.9921875 c 0,-0.4101562 0,-0.8085937 -0.3515625,-1.171875 -0.3867188,-0.3867187 -0.890625,-0.5507812 -1.3710938,-0.5507812 -0.8085937,0 -1.49999999,0.46875 -1.49999999,1.125 0,0.3046875 0.19921875,0.46875 0.45703129,0.46875 0.28125,0 0.4570312,-0.1992188 0.4570312,-0.4570313 0,-0.1171875 -0.046875,-0.4453125 -0.5039062,-0.4570312 0.2695312,-0.3515625 0.75,-0.4570313 1.078125,-0.4570313 0.4804687,0 1.0546875,0.3867188 1.0546875,1.2773438 v 0.3632812 c -0.515625,0.035156 -1.2070313,0.058594 -1.8398438,0.3632813 -0.74999999,0.3398437 -0.99609374,0.8554687 -0.99609374,1.28906245 0,0.80859375 0.97265624,1.0546875 1.59375004,1.0546875 0.65625,0 1.1132812,-0.3984375 1.3125,-0.8671875 0.035156,0.3984375 0.3046875,0.8203125 0.7734375,0.8203125 0.2109375,0 0.8203125,-0.140625 0.8203125,-0.94921875 z M 3.1531641,-1.3939062 c 0,0.9492187 -0.7265625,1.28906245 -1.171875,1.28906245 -0.4804688,0 -0.890625,-0.3515625 -0.890625,-0.85546875 0,-0.5390625 0.4101562,-1.3710937 2.0625,-1.4296875 z m 0,0"
       style="fill:#000000;fill-opacity:1;fill-rule:nonzero;stroke:none"
       aria-label="a"
       transform="matrix(1.3333333,0,0,1.3333333,367.12,44.186667)" />
    <path
       id="path49"
       d="m 135.13489,-5.04944 48.38289,-32.25534"
       style="fill:none;stroke:#000000;stroke-width:0.3985;stroke-linecap:butt;stroke-linejoin:miter;stroke-miterlimit:10;stroke-dasharray:none;stroke-opacity:1"
       transform="matrix(1.3333333,0,0,-1.3333333,81.629333,112.80267)" />
    <path
       id="path50"
       d="M -2.07224,2.39104 C -1.69365,0.95639 -0.84999,0.27895 0,0 -0.84999,-0.27895 -1.69365,-0.95639 -2.07224,-2.39104"
       style="fill:none;stroke:#000000;stroke-width:0.3985;stroke-linecap:round;stroke-linejoin:round;stroke-miterlimit:10;stroke-dasharray:none;stroke-opacity:1"
       transform="matrix(1.10936,0.73956,0.73956,-1.10936,326.54073,162.68973)" />
    <path
       id="path51"
       d="m 5.1927188,-2.1555078 c 0,-1.265625 -0.9726563,-2.25 -2.109375,-2.25 -0.7851563,0 -1.2070313,0.46875 -1.3710938,0.65625 v -3.1640625 l -1.4296875,0.1054687 v 0.3164063 c 0.69140625,0 0.7734375,0.070312 0.7734375,0.5507812 V 7.421875e-4 H 1.3020938 L 1.665375,-0.62035156 c 0.1523438,0.234375 0.5625,0.7265625 1.3007813,0.7265625 1.1835937,0 2.2265625,-0.97265625 2.2265625,-2.26171874 z m -0.8320313,0 c 0,0.3632812 -0.011719,0.9609375 -0.3046875,1.40624999 -0.2109375,0.31640625 -0.5859375,0.64453125 -1.125,0.64453125 -0.4453125,0 -0.8085937,-0.24609375 -1.0429687,-0.609375 -0.140625,-0.2109375 -0.140625,-0.24609375 -0.140625,-0.42187504 v -2.0507812 c 0,-0.1875 0,-0.1992188 0.1054687,-0.3632813 0.3867188,-0.5507812 0.9375,-0.6328125 1.171875,-0.6328125 0.4570313,0 0.8085938,0.2578125 1.0546875,0.6328125 0.2578125,0.4101563 0.28125,0.984375 0.28125,1.3945313 z m 0,0"
       style="fill:#000000;fill-opacity:1;fill-rule:nonzero;stroke:none"
       aria-label="b"
       transform="matrix(1.3333333,0,0,1.3333333,290.592,136.34667)" />
    <path
       id="path52"
       d="M 182.33675,-42.52022 H 73.2823"
       style="fill:none;stroke:#000000;stroke-width:0.3985;stroke-linecap:butt;stroke-linejoin:miter;stroke-miterlimit:10;stroke-dasharray:none;stroke-opacity:1"
       transform="matrix(1.3333333,0,0,-1.3333333,81.629333,112.80267)" />
    <path
       id="path53"
       d="M -2.07224,2.39104 C -1.69365,0.95639 -0.84999,0.27895 0,0 -0.84999,-0.27895 -1.69365,-0.95639 -2.07224,-2.39104"
       style="fill:none;stroke:#000000;stroke-width:0.3985;stroke-linecap:round;stroke-linejoin:round;stroke-miterlimit:10;stroke-dasharray:none;stroke-opacity:1"
       transform="matrix(-1.3333333,0,0,1.3333333,179.0734,169.49629)" />
    <path
       id="path54"
       d="m 5.1928594,-2.1575625 c 0,-1.265625 -0.9726563,-2.25 -2.109375,-2.25 -0.7851563,0 -1.2070313,0.46875 -1.3710938,0.65625 V -6.915375 L 0.28270313,-6.8099062 V -6.4935 c 0.69140625,0 0.77343747,0.070312 0.77343747,0.5507813 v 5.9414062 h 0.2460938 l 0.3632812,-0.62109375 c 0.1523438,0.234375 0.5625,0.7265625 1.3007813,0.7265625 1.1835937,0 2.2265625,-0.97265625 2.2265625,-2.26171875 z m -0.8320313,0 c 0,0.3632813 -0.011719,0.9609375 -0.3046875,1.40625 -0.2109375,0.31640625 -0.5859375,0.64453125 -1.125,0.64453125 -0.4453125,0 -0.8085937,-0.24609375 -1.0429687,-0.609375 C 1.7475469,-0.92709375 1.7475469,-0.96225 1.7475469,-1.1380312 v -2.0507813 c 0,-0.1875 0,-0.1992187 0.1054687,-0.3632812 0.3867188,-0.5507813 0.9375,-0.6328125 1.171875,-0.6328125 0.4570313,0 0.8085938,0.2578125 1.0546875,0.6328125 0.2578125,0.4101562 0.28125,0.984375 0.28125,1.3945312 z m 0,0"
       style="fill:#000000;fill-opacity:1;fill-rule:nonzero;stroke:none"
       aria-label="b"
       transform="matrix(1.3333333,0,0,1.3333333,248.084,183.408)" />
    <path
       id="path55"
       d="m 195.84296,-34.72244 c 11.6414,20.16397 27.6649,26.23216 50.08148,32.25831"
       style="fill:none;stroke:#000000;stroke-width:0.3985;stroke-linecap:butt;stroke-linejoin:miter;stroke-miterlimit:10;stroke-dasharray:none;stroke-opacity:1"
       transform="matrix(1.3333333,0,0,-1.3333333,81.629333,112.80267)" />
    <path
       id="path56"
       d="M -2.07224,2.39104 C -1.69365,0.95639 -0.84999,0.27895 0,0 -0.84999,-0.27895 -1.69365,-0.95639 -2.07224,-2.39104"
       style="fill:none;stroke:#000000;stroke-width:0.3985;stroke-linecap:round;stroke-linejoin:round;stroke-miterlimit:10;stroke-dasharray:none;stroke-opacity:1"
       transform="matrix(1.2879067,-0.34505333,-0.34505333,-1.2879067,409.78475,116.01936)" />
    <path
       id="path57"
       d="M 4.8162266,-0.89196094 V -1.4427422 H 4.5584141 v 0.55078126 c 0,0.5859375 -0.2460938,0.64453125 -0.3515625,0.64453125 -0.328125,0 -0.375,-0.45703125 -0.375,-0.50390625 V -2.7435234 c 0,-0.4101563 0,-0.8085938 -0.3515625,-1.171875 -0.3867188,-0.3867188 -0.890625,-0.5507813 -1.3710938,-0.5507813 -0.8085937,0 -1.49999999,0.46875 -1.49999999,1.125 0,0.3046875 0.19921875,0.46875 0.45703129,0.46875 0.28125,0 0.4570312,-0.1992187 0.4570312,-0.4570312 0,-0.1171875 -0.046875,-0.4453125 -0.5039062,-0.4570313 0.2695312,-0.3515625 0.75,-0.4570312 1.078125,-0.4570312 0.4804687,0 1.0546875,0.3867187 1.0546875,1.2773437 v 0.3632813 c -0.515625,0.035156 -1.2070313,0.058594 -1.8398438,0.3632812 -0.74999999,0.3398438 -0.99609374,0.8554688 -0.99609374,1.28906251 0,0.80859375 0.97265624,1.0546875 1.59375004,1.0546875 0.65625,0 1.1132812,-0.3984375 1.3125,-0.8671875 0.035156,0.3984375 0.3046875,0.8203125 0.7734375,0.8203125 0.2109375,0 0.8203125,-0.140625 0.8203125,-0.94921875 z M 3.1521641,-1.3958672 c 0,0.94921876 -0.7265625,1.28906251 -1.171875,1.28906251 -0.4804688,0 -0.890625,-0.3515625 -0.890625,-0.85546875 0,-0.53906246 0.4101562,-1.37109376 2.0625,-1.42968746 z m 0,0"
       style="fill:#000000;fill-opacity:1;fill-rule:nonzero;stroke:none"
       aria-label="a"
       transform="matrix(1.3333333,0,0,1.3333333,367.62133,125.576)" />
    <path
       id="path58"
       d="M 252.76035,-8.8123 C 246.49997,-32.17613 224.90184,-42.40881 200.7413,-42.51926"
       style="fill:none;stroke:#000000;stroke-width:0.3985;stroke-linecap:butt;stroke-linejoin:miter;stroke-miterlimit:10;stroke-dasharray:none;stroke-opacity:1"
       transform="matrix(1.3333333,0,0,-1.3333333,81.629333,112.80267)" />
    <path
       id="path59"
       d="M -2.07224,2.39104 C -1.69365,0.95639 -0.84999,0.27895 0,0 -0.84999,-0.27895 -1.69365,-0.95639 -2.07224,-2.39104"
       style="fill:none;stroke:#000000;stroke-width:0.3985;stroke-linecap:round;stroke-linejoin:round;stroke-miterlimit:10;stroke-dasharray:none;stroke-opacity:1"
       transform="matrix(-1.3333333,0,0,1.3333333,349.02197,169.49629)" />
    <path
       id="path60"
       d="m 5.1910547,-2.1555547 c 0,-1.265625 -0.9726563,-2.25 -2.109375,-2.25 -0.7851563,0 -1.2070313,0.46875 -1.3710938,0.65625 v -3.1640625 l -1.42968746,0.1054688 v 0.3164062 c 0.69140625,0 0.77343746,0.070312 0.77343746,0.5507813 V 6.953125e-4 H 1.3004297 L 1.6637109,-0.62039844 c 0.1523438,0.234375 0.5625,0.7265625 1.3007813,0.7265625 1.1835937,0 2.2265625,-0.97265625 2.2265625,-2.26171876 z m -0.8320313,0 c 0,0.3632813 -0.011719,0.9609375 -0.3046875,1.40625001 -0.2109375,0.31640625 -0.5859375,0.64453125 -1.125,0.64453125 -0.4453125,0 -0.8085937,-0.24609375 -1.0429687,-0.609375 -0.140625,-0.2109375 -0.140625,-0.24609375 -0.140625,-0.42187496 v -2.0507813 c 0,-0.1875 0,-0.1992187 0.1054687,-0.3632812 0.3867188,-0.5507813 0.9375,-0.6328125 1.171875,-0.6328125 0.4570313,0 0.8085938,0.2578125 1.0546875,0.6328125 0.2578125,0.4101562 0.28125,0.984375 0.28125,1.3945312 z m 0,0"
       style="fill:#000000;fill-opacity:1;fill-rule:nonzero;stroke:none"
       aria-label="b"
       transform="matrix(1.3333333,0,0,1.3333333,389.02,172.68267)" />
    <path
       id="path61"
       d="M 247.5307,5.06036 199.18646,37.28995"
       style="fill:none;stroke:#000000;stroke-width:0.3985;stroke-linecap:butt;stroke-linejoin:miter;stroke-miterlimit:10;stroke-dasharray:none;stroke-opacity:1"
       transform="matrix(1.3333333,0,0,-1.3333333,81.629333,112.80267)" />
    <path
       id="path62"
       d="M -2.07224,2.39104 C -1.69365,0.95639 -0.84999,0.27895 0,0 -0.84999,-0.27895 -1.69365,-0.95639 -2.07224,-2.39104"
       style="fill:none;stroke:#000000;stroke-width:0.3985;stroke-linecap:round;stroke-linejoin:round;stroke-miterlimit:10;stroke-dasharray:none;stroke-opacity:1"
       transform="matrix(-1.10936,-0.73956,-0.73956,1.10936,346.99025,62.935373)" />
    <path
       id="path63"
       d="M 4.8162344,-0.89110156 V -1.4418828 H 4.5584219 v 0.55078124 c 0,0.5859375 -0.2460938,0.64453125 -0.3515625,0.64453125 -0.328125,0 -0.375,-0.45703125 -0.375,-0.50390625 V -2.7426641 c 0,-0.4101562 0,-0.8085937 -0.3515625,-1.171875 -0.3867188,-0.3867187 -0.890625,-0.5507812 -1.3710938,-0.5507812 -0.8085937,0 -1.49999997,0.46875 -1.49999997,1.125 0,0.3046875 0.19921875,0.46875 0.45703127,0.46875 0.28125,0 0.4570312,-0.1992188 0.4570312,-0.4570313 0,-0.1171875 -0.046875,-0.4453125 -0.5039062,-0.4570312 0.2695312,-0.3515625 0.75,-0.4570313 1.078125,-0.4570313 0.4804687,0 1.0546875,0.3867188 1.0546875,1.2773438 v 0.3632812 c -0.515625,0.035156 -1.2070313,0.058594 -1.8398438,0.3632813 -0.74999997,0.3398437 -0.99609372,0.8554687 -0.99609372,1.28906249 0,0.80859375 0.97265622,1.0546875 1.59375002,1.0546875 0.65625,0 1.1132812,-0.3984375 1.3125,-0.8671875 0.035156,0.3984375 0.3046875,0.8203125 0.7734375,0.8203125 0.2109375,0 0.8203125,-0.140625 0.8203125,-0.94921875 z M 3.1521719,-1.3950078 c 0,0.94921874 -0.7265625,1.28906249 -1.171875,1.28906249 -0.4804688,0 -0.890625,-0.3515625 -0.890625,-0.85546875 0,-0.53906254 0.4101562,-1.37109374 2.0625,-1.42968754 z m 0,0"
       style="fill:#000000;fill-opacity:1;fill-rule:nonzero;stroke:none"
       aria-label="a"
       transform="matrix(1.3333333,0,0,1.3333333,375.89867,79.582667)" />
  </g>
</svg>
