<?xml version="1.0" encoding="UTF-8" standalone="no"?>
<!-- Created with Inkscape (http://www.inkscape.org/) -->

<svg
   version="1.1"
   id="svg1"
   width="249.90668"
   height="93.90667"
   viewBox="0 0 249.90668 93.90667"
   sodipodi:docname="24-25-1-微波工程基础-期末-题图7.pdf"
   xmlns:inkscape="http://www.inkscape.org/namespaces/inkscape"
   xmlns:sodipodi="http://sodipodi.sourceforge.net/DTD/sodipodi-0.dtd"
   xmlns="http://www.w3.org/2000/svg"
   xmlns:svg="http://www.w3.org/2000/svg">
  <defs
     id="defs1" />
  <sodipodi:namedview
     id="namedview1"
     pagecolor="#ffffff"
     bordercolor="#000000"
     borderopacity="0.25"
     inkscape:showpageshadow="2"
     inkscape:pageopacity="0.0"
     inkscape:pagecheckerboard="0"
     inkscape:deskcolor="#d1d1d1">
    <inkscape:page
       x="0"
       y="0"
       inkscape:label="1"
       id="page1"
       width="249.90668"
       height="93.90667"
       margin="0"
       bleed="0" />
  </sodipodi:namedview>
  <g
     id="g1"
     inkscape:groupmode="layer"
     inkscape:label="1">
    <path
       id="path1"
       d="m -8.67755,-49.00597 v 70.43514 h 187.436 v -70.43514 z"
       style="fill:#ffffff;fill-opacity:1;fill-rule:nonzero;stroke:none"
       transform="matrix(1.3333333,0,0,-1.3333333,11.569333,28.566667)" />
    <path
       id="path2"
       d="m 28.57236,0 c 0,1.92581 1.56114,3.48697 3.48697,3.48697 1.92581,0 3.48697,-1.56116 3.48697,-3.48697 0,1.92581 1.56114,3.48697 3.48696,3.48697 1.92582,0 3.48697,-1.56116 3.48697,-3.48697 0,1.92581 1.56115,3.48697 3.48697,3.48697 1.92581,0 3.48697,-1.56116 3.48697,-3.48697 0,1.92581 1.56114,3.48697 3.48697,3.48697 1.92581,0 3.48697,-1.56116 3.48697,-3.48697 v 0"
       style="fill:none;stroke:#000000;stroke-width:0.3985;stroke-linecap:round;stroke-linejoin:miter;stroke-miterlimit:10;stroke-dasharray:none;stroke-opacity:1"
       transform="matrix(1.3333333,0,0,-1.3333333,11.569333,28.566667)" />
    <path
       id="path3"
       d="m 3.7262031,-6.0244453 c 0.09375,-0.3632813 0.1171875,-0.46875 1.0546875,-0.46875 0.3046875,0 0.375,0 0.375,-0.1875 0,-0.1289063 -0.1054687,-0.1289063 -0.1523437,-0.1289063 -0.328125,0 -1.1484375,0.035156 -1.4765625,0.035156 -0.3046875,0 -1.03125,-0.035156 -1.3242188,-0.035156 -0.070312,0 -0.1875,0 -0.1875,0.1992188 0,0.1171875 0.082031,0.1171875 0.28125,0.1171875 0.011719,0 0.1992188,0 0.375,0.011719 0.1757813,0.023437 0.2695313,0.035156 0.2695313,0.1640625 0,0.035156 -0.011719,0.070312 -0.046875,0.1875 l -1.3359375,5.35546879 c -0.09375,0.38671875 -0.1171875,0.46875 -0.90234378,0.46875 -0.1640625,0 -0.26953125,0 -0.26953125,0.19921875 0,0.10546875 0.09375,0.10546875 0.26953125,0.10546875 H 5.2730781 c 0.234375,0 0.2460938,0 0.3046875,-0.1640625 L 6.3629219,-2.3213203 c 0.046875,-0.1054688 0.046875,-0.1289063 0.046875,-0.140625 0,-0.035156 -0.035156,-0.1054688 -0.1289063,-0.1054688 -0.082031,0 -0.09375,0.046875 -0.1640625,0.2109375 -0.3398437,0.9140625 -0.7734375,2.05078129 -2.4960937,2.05078129 h -0.9375 c -0.140625,0 -0.1640625,0 -0.2226563,-0.0117188 -0.1054687,-0.0117188 -0.1289062,-0.0234375 -0.1289062,-0.10546875 0,-0.0234375 0,-0.046875 0.046875,-0.22265625 z m 0,0"
       style="fill:#000000;fill-opacity:1;fill-rule:nonzero;stroke:none"
       aria-label="L"
       transform="matrix(1.3333333,0,0,1.3333333,63.742667,19.224)" />
    <path
       id="path4"
       d="m 0,0 h 28.57236 m 27.89575,0 h 113.6129 v 0"
       style="fill:none;stroke:#000000;stroke-width:0.3985;stroke-linecap:butt;stroke-linejoin:miter;stroke-miterlimit:10;stroke-dasharray:none;stroke-opacity:1"
       transform="matrix(1.3333333,0,0,-1.3333333,11.569333,28.566667)" />
    <path
       id="path5"
       d="m -0.19925,0 c 0,1.10046 -0.89207,1.99255 -1.99255,1.99255 -1.10047,0 -1.99256,-0.89209 -1.99256,-1.99255 0,-1.10046 0.89209,-1.99255 1.99256,-1.99255 1.10048,0 1.99255,0.89209 1.99255,1.99255 z"
       style="fill:none;stroke:#000000;stroke-width:0.3985;stroke-linecap:butt;stroke-linejoin:miter;stroke-miterlimit:10;stroke-dasharray:none;stroke-opacity:1"
       transform="matrix(1.3333333,0,0,-1.3333333,11.569333,28.566667)" />
    <path
       id="path6"
       d="m 174.26526,0 c 0,1.10046 -0.89209,1.99255 -1.99256,1.99255 -1.10047,0 -1.99255,-0.89209 -1.99255,-1.99255 0,-1.10046 0.89208,-1.99255 1.99255,-1.99255 1.10047,0 1.99256,0.89209 1.99256,1.99255 z"
       style="fill:none;stroke:#000000;stroke-width:0.3985;stroke-linecap:butt;stroke-linejoin:miter;stroke-miterlimit:10;stroke-dasharray:none;stroke-opacity:1"
       transform="matrix(1.3333333,0,0,-1.3333333,11.569333,28.566667)" />
    <path
       id="path7"
       d="M 0,-42.52022 H 170.0809"
       style="fill:none;stroke:#000000;stroke-width:0.3985;stroke-linecap:butt;stroke-linejoin:miter;stroke-miterlimit:10;stroke-dasharray:none;stroke-opacity:1"
       transform="matrix(1.3333333,0,0,-1.3333333,11.569333,28.566667)" />
    <path
       id="path8"
       d="m -0.19925,-42.52022 c 0,1.10048 -0.89207,1.99256 -1.99255,1.99256 -1.10047,0 -1.99256,-0.89208 -1.99256,-1.99256 0,-1.10046 0.89209,-1.99255 1.99256,-1.99255 1.10048,0 1.99255,0.89209 1.99255,1.99255 z"
       style="fill:none;stroke:#000000;stroke-width:0.3985;stroke-linecap:butt;stroke-linejoin:miter;stroke-miterlimit:10;stroke-dasharray:none;stroke-opacity:1"
       transform="matrix(1.3333333,0,0,-1.3333333,11.569333,28.566667)" />
    <path
       id="path9"
       d="m 174.26526,-42.52022 c 0,1.10048 -0.89209,1.99256 -1.99256,1.99256 -1.10047,0 -1.99255,-0.89208 -1.99255,-1.99256 0,-1.10046 0.89208,-1.99255 1.99255,-1.99255 1.10047,0 1.99256,0.89209 1.99256,1.99255 z"
       style="fill:none;stroke:#000000;stroke-width:0.3985;stroke-linecap:butt;stroke-linejoin:miter;stroke-miterlimit:10;stroke-dasharray:none;stroke-opacity:1"
       transform="matrix(1.3333333,0,0,-1.3333333,11.569333,28.566667)" />
    <path
       id="path10"
       d="m 106.41333,-19.51666 h 13.94787 m -13.94787,-3.48697 h 13.94787"
       style="fill:none;stroke:#000000;stroke-width:0.3985;stroke-linecap:butt;stroke-linejoin:miter;stroke-miterlimit:10;stroke-dasharray:none;stroke-opacity:1"
       transform="matrix(1.3333333,0,0,-1.3333333,11.569333,28.566667)" />
    <path
       id="path11"
       d="m 7.5691719,-6.9249375 c 0,-0.023437 -0.023437,-0.09375 -0.1054688,-0.09375 -0.035156,0 -0.046875,0.011719 -0.1523437,0.1171875 l -0.703125,0.7617188 c -0.082031,-0.140625 -0.5390625,-0.8789063 -1.6523438,-0.8789063 -2.2148437,0 -4.45312498,2.203125 -4.45312498,4.5117188 0,1.64062495 1.17187498,2.7304687 2.69531248,2.7304687 0.8671875,0 1.6171875,-0.3984375 2.1445313,-0.85546875 0.9375,-0.82031245 1.1015625,-1.72265625 1.1015625,-1.75781245 0,-0.1054688 -0.1054688,-0.1054688 -0.1171875,-0.1054688 -0.058594,0 -0.1171875,0.023437 -0.1289063,0.1054688 -0.09375,0.2929687 -0.3164062,0.9960937 -1.0078125,1.57031245 -0.6914062,0.5625 -1.3125,0.7265625 -1.8398437,0.7265625 -0.890625,0 -1.9453125,-0.515625 -1.9453125,-2.06249995 0,-0.5742188 0.2109375,-2.1914063 1.2070312,-3.3515625 C 3.2215156,-6.2100937 4.1472969,-6.714 5.0379219,-6.714 c 1.0195312,0 1.6054687,0.7734375 1.6054687,1.921875 0,0.3984375 -0.035156,0.4101563 -0.035156,0.5039063 0,0.1054687 0.1171875,0.1054687 0.1523437,0.1054687 0.1289063,0 0.1289063,-0.023437 0.1757813,-0.1992187 z m 0,0"
       style="fill:#000000;fill-opacity:1;fill-rule:nonzero;stroke:none"
       aria-label="C"
       transform="matrix(1.3333333,0,0,1.3333333,177.00933,61.452)" />
    <path
       id="path12"
       d="m 113.38727,0 v -19.3174 m 0,-3.88548 1e-4,-19.31734 v 0"
       style="fill:none;stroke:#000000;stroke-width:0.3985;stroke-linecap:butt;stroke-linejoin:miter;stroke-miterlimit:10;stroke-dasharray:none;stroke-opacity:1"
       transform="matrix(1.3333333,0,0,-1.3333333,11.569333,28.566667)" />
    <path
       id="path13"
       d="m 115.13075,0 c 0,0.9629 -0.78058,1.74348 -1.74348,1.74348 -0.96292,0 -1.74349,-0.78058 -1.74349,-1.74348 0,-0.9629 0.78057,-1.74348 1.74349,-1.74348 0.9629,0 1.74348,0.78058 1.74348,1.74348 z"
       style="fill:#000000;fill-opacity:1;fill-rule:nonzero;stroke:#000000;stroke-width:0.3985;stroke-linecap:butt;stroke-linejoin:miter;stroke-miterlimit:10;stroke-dasharray:none;stroke-opacity:1"
       transform="matrix(1.3333333,0,0,-1.3333333,11.569333,28.566667)" />
    <path
       id="path14"
       d="m 115.13075,-42.52022 c 0,0.96291 -0.78058,1.74349 -1.74348,1.74349 -0.96292,0 -1.74349,-0.78058 -1.74349,-1.74349 0,-0.9629 0.78057,-1.74348 1.74349,-1.74348 0.9629,0 1.74348,0.78058 1.74348,1.74348 z"
       style="fill:#000000;fill-opacity:1;fill-rule:nonzero;stroke:#000000;stroke-width:0.3985;stroke-linecap:butt;stroke-linejoin:miter;stroke-miterlimit:10;stroke-dasharray:none;stroke-opacity:1"
       transform="matrix(1.3333333,0,0,-1.3333333,11.569333,28.566667)" />
  </g>
</svg>
