<?xml version="1.0" encoding="UTF-8" standalone="no"?>
<!-- Created with Inkscape (http://www.inkscape.org/) -->

<svg
   version="1.1"
   id="svg1"
   width="294.33334"
   height="209.12"
   viewBox="0 0 294.33334 209.12"
   sodipodi:docname="24-25-1-微波工程基础-期末-题图5.pdf"
   xmlns:inkscape="http://www.inkscape.org/namespaces/inkscape"
   xmlns:sodipodi="http://sodipodi.sourceforge.net/DTD/sodipodi-0.dtd"
   xmlns="http://www.w3.org/2000/svg"
   xmlns:svg="http://www.w3.org/2000/svg">
  <defs
     id="defs1" />
  <sodipodi:namedview
     id="namedview1"
     pagecolor="#ffffff"
     bordercolor="#000000"
     borderopacity="0.25"
     inkscape:showpageshadow="2"
     inkscape:pageopacity="0.0"
     inkscape:pagecheckerboard="0"
     inkscape:deskcolor="#d1d1d1">
    <inkscape:page
       x="0"
       y="0"
       inkscape:label="1"
       id="page1"
       width="294.33334"
       height="209.12"
       margin="0"
       bleed="0" />
  </sodipodi:namedview>
  <g
     id="g1"
     inkscape:groupmode="layer"
     inkscape:label="1">
    <path
       id="path1"
       d="M -25.33374,-132.05386 V 24.78333 h 220.74838 v -156.83719 z"
       style="fill:#ffffff;fill-opacity:1;fill-rule:nonzero;stroke:none"
       transform="matrix(1.3333333,0,0,-1.3333333,33.777333,33.050667)" />
    <path
       id="path2"
       d="M 14.39897,-3.48697 H 42.29472 V 3.48697 H 14.39897 Z"
       style="fill:none;stroke:#000000;stroke-width:0.3985;stroke-linecap:butt;stroke-linejoin:miter;stroke-miterlimit:10;stroke-dasharray:none;stroke-opacity:1"
       transform="matrix(1.3333333,0,0,-1.3333333,33.777333,33.050667)" />
    <g
       id="g2"
       aria-label="0.24λ"
       transform="matrix(1.3333333,0,0,1.3333333,55.890667,23.442667)">
      <path
         id="path3"
         d="m 4.582,-3.1884453 c 0,-0.796875 -0.046875,-1.59375 -0.3984375,-2.3320313 -0.4570312,-0.9609375 -1.2773437,-1.1132812 -1.6875,-1.1132812 -0.5976562,0 -1.3359375,0.2578125 -1.734375,1.1835937 -0.328125,0.6914063 -0.375,1.4648438 -0.375,2.2617188 0,0.75 0.046875,1.640625 0.4453125,2.40234374 0.4335938,0.80859375 1.1601563,1.0078125 1.6523438,1.0078125 0.5390625,0 1.2890625,-0.2109375 1.734375,-1.16015625 C 4.535125,-1.6298516 4.582,-2.4032891 4.582,-3.1884453 Z M 2.4843438,-9.453125e-4 c -0.3867188,0 -0.984375,-0.2460937475 -1.1601563,-1.2070312875 -0.1054687,-0.5976562 -0.1054687,-1.5117187 -0.1054687,-2.0976562 0,-0.6445313 0,-1.3007813 0.082031,-1.8398438 0.1875,-1.1835937 0.9257813,-1.265625 1.1835938,-1.265625 0.328125,0 0.984375,0.1757813 1.171875,1.1601563 0.09375,0.5625 0.09375,1.3125 0.09375,1.9453125 0,0.75 0,1.4179687 -0.1054688,2.0625 -0.1523437,0.93749999 -0.7148437,1.2421874875 -1.160156,1.2421874875 z m 0,0"
         style="fill:#000000;fill-opacity:1;fill-rule:nonzero;stroke:none" />
      <path
         id="path4"
         d="m 6.8935234,-0.52828906 c 0,-0.29296875 -0.234375,-0.52734374 -0.5273437,-0.52734374 -0.28125,0 -0.5273438,0.23437499 -0.5273438,0.52734374 0,0.29296875 0.2460938,0.5273437475 0.5273438,0.5273437475 0.2929687,0 0.5273437,-0.2343749975 0.5273437,-0.5273437475 z m 0,0"
         style="fill:#000000;fill-opacity:1;fill-rule:nonzero;stroke:none" />
      <path
         id="path5"
         d="M 9.0146172,-0.76266406 10.069305,-1.7939141 c 1.558593,-1.3710937 2.15625,-1.9101562 2.15625,-2.90625 0,-1.1367187 -0.902344,-1.9335937 -2.121094,-1.9335937 -1.1250001,0 -1.8515626,0.9140625 -1.8515626,1.8046875 0,0.5507812 0.4921875,0.5507812 0.5273438,0.5507812 0.1640625,0 0.515625,-0.1171875 0.515625,-0.5273437 0,-0.2578125 -0.1875,-0.515625 -0.5273438,-0.515625 -0.082031,0 -0.1054687,0 -0.1289062,0.011719 C 8.8622734,-5.95407 9.4013359,-6.32907 9.9755547,-6.32907 c 0.9140623,0 1.3359373,0.8085937 1.3359373,1.6289062 0,0.796875 -0.492187,1.5820313 -1.042969,2.203125 L 8.3583672,-0.36422656 C 8.2528984,-0.25875781 8.2528984,-0.23532031 8.2528984,-9.453125e-4 H 11.944305 L 12.225555,-1.7353203 h -0.257813 c -0.04687,0.3046875 -0.117187,0.73828124 -0.210937,0.89062499 -0.07031,0.0820313 -0.726563,0.0820313 -0.949219,0.0820313 z M 15.659148,-1.6415703 v 0.86718749 c 0,0.3515625 -0.02344,0.46875 -0.761718,0.46875 h -0.210938 v 0.3046874975 c 0.410156,-0.0351562475 0.9375,-0.0351562475 1.347656,-0.0351562475 0.421875,0 0.949219,0 1.359375,0.0351562475 V -0.30563281 h -0.210937 c -0.738281,0 -0.761719,-0.1171875 -0.761719,-0.46875 V -1.6415703 h 0.996094 v -0.3164063 h -0.996094 v -4.5234375 c 0,-0.1992187 0,-0.2578125 -0.152344,-0.2578125 -0.09375,0 -0.117187,0 -0.199218,0.1171875 l -3.058594,4.6640625 v 0.3164063 z m 0.05859,-0.3164063 h -2.425781 l 2.425781,-3.7148437 z m 0,0"
         style="fill:#000000;fill-opacity:1;fill-rule:nonzero;stroke:none" />
      <path
         id="path6"
         d="m 21.263641,-2.9071953 c 0.410156,1.0429687 0.890625,2.56640624 1.054687,2.80078124 0.152344,0.2109375 0.257813,0.2109375 0.527344,0.2109375 h 0.210937 c 0.105469,0 0.117188,-0.0703125 0.117188,-0.09375 0,-0.03515625 -0.02344,-0.046875 -0.04687,-0.09375 -0.105469,-0.10546875 -0.164063,-0.2578125 -0.234375,-0.45703125 L 20.865203,-6.2118828 c -0.210937,-0.5742188 -0.75,-0.703125 -1.21875,-0.703125 -0.04687,0 -0.175781,0 -0.175781,0.1054687 0,0.082031 0.07031,0.1054688 0.08203,0.1054688 0.328125,0.058594 0.398438,0.1171875 0.65625,0.796875 l 0.960938,2.7070312 -2.753907,2.73046879 c -0.117187,0.1171875 -0.175781,0.17578125 -0.175781,0.3046875 0,0.17578125 0.140625,0.29296875 0.304688,0.29296875 0.152343,0 0.246093,-0.10546875 0.328125,-0.2109375 z m 0,0"
         style="fill:#000000;fill-opacity:1;fill-rule:nonzero;stroke:none" />
    </g>
    <path
       id="path7"
       d="M 71.09265,-3.48697 H 98.9884 V 3.48697 H 71.09265 Z"
       style="fill:none;stroke:#000000;stroke-width:0.3985;stroke-linecap:butt;stroke-linejoin:miter;stroke-miterlimit:10;stroke-dasharray:none;stroke-opacity:1"
       transform="matrix(1.3333333,0,0,-1.3333333,33.777333,33.050667)" />
    <g
       id="g7"
       aria-label="λ/8"
       transform="matrix(1.3333333,0,0,1.3333333,136.648,20.121333)">
      <path
         id="path8"
         d="m 3.5511094,-2.9064297 c 0.4101562,1.0429688 0.890625,2.56640626 1.0546875,2.80078126 0.1523437,0.2109375 0.2578125,0.2109375 0.5273437,0.2109375 h 0.2109375 c 0.1054688,0 0.1171875,-0.0703125 0.1171875,-0.09375 0,-0.03515625 -0.023437,-0.046875 -0.046875,-0.09375 -0.1054687,-0.10546875 -0.1640625,-0.2578125 -0.234375,-0.45703125 L 3.1526719,-6.2111172 c -0.2109375,-0.5742187 -0.75,-0.703125 -1.21875,-0.703125 -0.046875,0 -0.1757813,0 -0.1757813,0.1054688 0,0.082031 0.070312,0.1054687 0.082031,0.1054687 0.328125,0.058594 0.3984375,0.1171875 0.65625,0.796875 l 0.9609375,2.7070313 -2.75390627,2.73046871 c -0.1171875,0.1171875 -0.17578125,0.17578125 -0.17578125,0.3046875 0,0.17578125 0.140625,0.29296875 0.3046875,0.29296875 0.15234375,0 0.24609372,-0.10546875 0.32812502,-0.2109375 z m 0,0"
         style="fill:#000000;fill-opacity:1;fill-rule:nonzero;stroke:none" />
      <path
         id="path9"
         d="m 10.172203,-7.0900234 c 0.05859,-0.1289063 0.05859,-0.1640625 0.05859,-0.1875 0,-0.1054688 -0.09375,-0.1992188 -0.199219,-0.1992188 -0.1406249,0 -0.1874999,0.1054688 -0.2109374,0.1992188 L 6.4222031,2.1091953 c -0.046875,0.1289063 -0.046875,0.1640625 -0.046875,0.1875 0,0.1054688 0.082031,0.1992188 0.1992188,0.1992188 0.140625,0 0.1757812,-0.1054688 0.1992187,-0.1992188 z m 2.25,2.5429687 c -0.46875,-0.3046875 -0.503906,-0.6445312 -0.503906,-0.8085937 0,-0.609375 0.644531,-1.03125 1.359375,-1.03125 0.726562,0 1.359375,0.515625 1.359375,1.2421875 0,0.5625 -0.386719,1.0429687 -0.984375,1.3945312 z m 1.453125,0.9375 c 0.714844,-0.3632812 1.207031,-0.8789062 1.207031,-1.5351562 0,-0.9257813 -0.890625,-1.4882813 -1.792968,-1.4882813 -0.996094,0 -1.804688,0.7382813 -1.804688,1.6640625 0,0.1757813 0.01172,0.6210938 0.433594,1.0898438 0.105469,0.1289062 0.480469,0.375 0.726562,0.5390625 -0.574218,0.2929687 -1.429687,0.84375 -1.429687,1.8398437 0,1.05468751 1.007812,1.72265626 2.0625,1.72265626 1.125,0 2.0625,-0.83203125 2.0625,-1.89843746 0,-0.3515625 -0.105469,-0.8085938 -0.480469,-1.21875 -0.1875,-0.2109375 -0.351562,-0.3164063 -0.984375,-0.7148438 z m -0.996094,0.421875 1.21875,0.7734375 c 0.28125,0.1875 0.75,0.4921875 0.75,1.1015625 0,0.73828126 -0.75,1.25390626 -1.558593,1.25390626 -0.867188,0 -1.582032,-0.62109375 -1.582032,-1.44140626 0,-0.5859375 0.316407,-1.21875 1.171875,-1.6875 z m 0,0"
         style="fill:#000000;fill-opacity:1;fill-rule:nonzero;stroke:none" />
    </g>
    <path
       id="path10"
       d="m 127.78629,-3.48697 h 27.89575 v 6.97394 h -27.89575 z"
       style="fill:none;stroke:#000000;stroke-width:0.3985;stroke-linecap:butt;stroke-linejoin:miter;stroke-miterlimit:10;stroke-dasharray:none;stroke-opacity:1"
       transform="matrix(1.3333333,0,0,-1.3333333,33.777333,33.050667)" />
    <g
       id="g10"
       aria-label="0.12λ"
       transform="matrix(1.3333333,0,0,1.3333333,207.07467,23.442667)">
      <path
         id="path11"
         d="m 4.5816953,-3.1884453 c 0,-0.796875 -0.046875,-1.59375 -0.3984375,-2.3320313 -0.4570312,-0.9609375 -1.2773437,-1.1132812 -1.6875,-1.1132812 -0.5976562,0 -1.3359375,0.2578125 -1.73437499,1.1835937 -0.328125,0.6914063 -0.375,1.4648438 -0.375,2.2617188 0,0.75 0.046875,1.640625 0.4453125,2.40234374 0.43359379,0.80859375 1.16015629,1.0078125 1.65234379,1.0078125 0.5390625,0 1.2890625,-0.2109375 1.734375,-1.16015625 C 4.5348203,-1.6298516 4.5816953,-2.4032891 4.5816953,-3.1884453 Z M 2.4840391,-9.453125e-4 c -0.3867188,0 -0.984375,-0.2460937475 -1.1601563,-1.2070312875 -0.1054687,-0.5976562 -0.1054687,-1.5117187 -0.1054687,-2.0976562 0,-0.6445313 0,-1.3007813 0.082031,-1.8398438 0.1875,-1.1835937 0.9257813,-1.265625 1.1835938,-1.265625 0.328125,0 0.984375,0.1757813 1.171875,1.1601563 0.09375,0.5625 0.09375,1.3125 0.09375,1.9453125 0,0.75 0,1.4179687 -0.1054688,2.0625 -0.1523437,0.93749999 -0.7148437,1.2421874875 -1.160156,1.2421874875 z m 0,0"
         style="fill:#000000;fill-opacity:1;fill-rule:nonzero;stroke:none" />
      <path
         id="path12"
         d="m 6.8932188,-0.52828906 c 0,-0.29296875 -0.234375,-0.52734374 -0.5273438,-0.52734374 -0.28125,0 -0.5273437,0.23437499 -0.5273437,0.52734374 0,0.29296875 0.2460937,0.5273437475 0.5273437,0.5273437475 0.2929688,0 0.5273438,-0.2343749975 0.5273438,-0.5273437475 z m 0,0"
         style="fill:#000000;fill-opacity:1;fill-rule:nonzero;stroke:none" />
      <path
         id="path13"
         d="m 10.678375,-6.3759453 c 0,-0.234375 0,-0.2578125 -0.234375,-0.2578125 -0.609375,0.6328125 -1.4882812,0.6328125 -1.8046875,0.6328125 v 0.3164062 c 0.1992188,0 0.7851563,0 1.3007813,-0.2578125 v 5.15625004 c 0,0.3515625 -0.035156,0.48046875 -0.9257813,0.48046875 H 8.6979063 V -9.453125e-4 C 9.0494688,-0.03610156 9.9049375,-0.03610156 10.303375,-0.03610156 c 0.398438,0 1.265625,0 1.617188,0.0351562475 V -0.30563281 h -0.316407 c -0.902343,0 -0.925781,-0.1171875 -0.925781,-0.48046875 z m 3.316406,5.61328124 1.054688,-1.03125004 c 1.558594,-1.3710937 2.15625,-1.9101562 2.15625,-2.90625 0,-1.1367187 -0.902344,-1.9335937 -2.121094,-1.9335937 -1.125,0 -1.851562,0.9140625 -1.851562,1.8046875 0,0.5507812 0.492187,0.5507812 0.527343,0.5507812 0.164063,0 0.515625,-0.1171875 0.515625,-0.5273437 0,-0.2578125 -0.1875,-0.515625 -0.527343,-0.515625 -0.08203,0 -0.105469,0 -0.128907,0.011719 C 13.842438,-5.95407 14.3815,-6.32907 14.955719,-6.32907 c 0.914062,0 1.335937,0.8085937 1.335937,1.6289062 0,0.796875 -0.492187,1.5820313 -1.042968,2.203125 l -1.910157,2.13281254 c -0.105468,0.10546875 -0.105468,0.12890625 -0.105468,0.3632812475 h 3.691406 L 17.205719,-1.7353203 h -0.257813 c -0.04687,0.3046875 -0.117187,0.73828124 -0.210937,0.89062499 -0.07031,0.0820313 -0.726563,0.0820313 -0.949219,0.0820313 z m 0,0"
         style="fill:#000000;fill-opacity:1;fill-rule:nonzero;stroke:none" />
      <path
         id="path14"
         d="m 21.263336,-2.9071953 c 0.410156,1.0429687 0.890625,2.56640624 1.054687,2.80078124 0.152344,0.2109375 0.257813,0.2109375 0.527344,0.2109375 h 0.210938 c 0.105468,0 0.117187,-0.0703125 0.117187,-0.09375 0,-0.03515625 -0.02344,-0.046875 -0.04687,-0.09375 -0.105469,-0.10546875 -0.164062,-0.2578125 -0.234375,-0.45703125 L 20.864898,-6.2118828 c -0.210937,-0.5742188 -0.75,-0.703125 -1.21875,-0.703125 -0.04687,0 -0.175781,0 -0.175781,0.1054687 0,0.082031 0.07031,0.1054688 0.08203,0.1054688 0.328125,0.058594 0.398438,0.1171875 0.65625,0.796875 l 0.960938,2.7070312 -2.753906,2.73046879 c -0.117188,0.1171875 -0.175782,0.17578125 -0.175782,0.3046875 0,0.17578125 0.140625,0.29296875 0.304688,0.29296875 0.152344,0 0.246094,-0.10546875 0.328125,-0.2109375 z m 0,0"
         style="fill:#000000;fill-opacity:1;fill-rule:nonzero;stroke:none" />
    </g>
    <path
       id="path15"
       d="M 0,0 H 14.19972 M 42.49397,0 H 56.69374 V 0 H 70.8934 m 28.29425,0 h 14.19972 v 0 h 14.19967 m 28.29425,0 h 14.19972 v 0"
       style="fill:none;stroke:#000000;stroke-width:0.3985;stroke-linecap:butt;stroke-linejoin:miter;stroke-miterlimit:10;stroke-dasharray:none;stroke-opacity:1"
       transform="matrix(1.3333333,0,0,-1.3333333,33.777333,33.050667)" />
    <path
       id="path16"
       d="m -0.19925,0 c 0,1.10046 -0.89207,1.99255 -1.99255,1.99255 -1.10047,0 -1.99256,-0.89209 -1.99256,-1.99255 0,-1.10046 0.89209,-1.99255 1.99256,-1.99255 1.10048,0 1.99255,0.89209 1.99255,1.99255 z"
       style="fill:none;stroke:#000000;stroke-width:0.3985;stroke-linecap:butt;stroke-linejoin:miter;stroke-miterlimit:10;stroke-dasharray:none;stroke-opacity:1"
       transform="matrix(1.3333333,0,0,-1.3333333,33.777333,33.050667)" />
    <path
       id="path17"
       d="m 174.26526,0 c 0,1.10046 -0.89209,1.99255 -1.99256,1.99255 -1.10047,0 -1.99255,-0.89209 -1.99255,-1.99255 0,-1.10046 0.89208,-1.99255 1.99255,-1.99255 1.10047,0 1.99256,0.89209 1.99256,1.99255 z"
       style="fill:none;stroke:#000000;stroke-width:0.3985;stroke-linecap:butt;stroke-linejoin:miter;stroke-miterlimit:10;stroke-dasharray:none;stroke-opacity:1"
       transform="matrix(1.3333333,0,0,-1.3333333,33.777333,33.050667)" />
    <path
       id="path18"
       d="m 14.39897,-88.5274 h 27.89575 v 6.97394 H 14.39897 Z"
       style="fill:none;stroke:#000000;stroke-width:0.3985;stroke-linecap:butt;stroke-linejoin:miter;stroke-miterlimit:10;stroke-dasharray:none;stroke-opacity:1"
       transform="matrix(1.3333333,0,0,-1.3333333,33.777333,33.050667)" />
    <path
       id="path19"
       d="M 71.09265,-88.5274 H 98.9884 v 6.97394 H 71.09265 Z"
       style="fill:none;stroke:#000000;stroke-width:0.3985;stroke-linecap:butt;stroke-linejoin:miter;stroke-miterlimit:10;stroke-dasharray:none;stroke-opacity:1"
       transform="matrix(1.3333333,0,0,-1.3333333,33.777333,33.050667)" />
    <path
       id="path20"
       d="m 127.78629,-88.5274 h 27.89575 v 6.97394 h -27.89575 z"
       style="fill:none;stroke:#000000;stroke-width:0.3985;stroke-linecap:butt;stroke-linejoin:miter;stroke-miterlimit:10;stroke-dasharray:none;stroke-opacity:1"
       transform="matrix(1.3333333,0,0,-1.3333333,33.777333,33.050667)" />
    <path
       id="path21"
       d="m 0,-85.04044 h 14.19972 m 28.29425,0 h 14.19977 v 0 H 70.8934 m 28.29425,0 h 14.19972 v 0 h 14.19967 m 28.29425,0 h 14.19972 v 0"
       style="fill:none;stroke:#000000;stroke-width:0.3985;stroke-linecap:butt;stroke-linejoin:miter;stroke-miterlimit:10;stroke-dasharray:none;stroke-opacity:1"
       transform="matrix(1.3333333,0,0,-1.3333333,33.777333,33.050667)" />
    <path
       id="path22"
       d="m -0.19925,-85.04044 c 0,1.10047 -0.89207,1.99256 -1.99255,1.99256 -1.10047,0 -1.99256,-0.89209 -1.99256,-1.99256 0,-1.10047 0.89209,-1.99255 1.99256,-1.99255 1.10048,0 1.99255,0.89208 1.99255,1.99255 z"
       style="fill:none;stroke:#000000;stroke-width:0.3985;stroke-linecap:butt;stroke-linejoin:miter;stroke-miterlimit:10;stroke-dasharray:none;stroke-opacity:1"
       transform="matrix(1.3333333,0,0,-1.3333333,33.777333,33.050667)" />
    <path
       id="path23"
       d="m 174.26526,-85.04044 c 0,1.10047 -0.89209,1.99256 -1.99256,1.99256 -1.10047,0 -1.99255,-0.89209 -1.99255,-1.99256 0,-1.10047 0.89208,-1.99255 1.99255,-1.99255 1.10047,0 1.99256,0.89208 1.99256,1.99255 z"
       style="fill:none;stroke:#000000;stroke-width:0.3985;stroke-linecap:butt;stroke-linejoin:miter;stroke-miterlimit:10;stroke-dasharray:none;stroke-opacity:1"
       transform="matrix(1.3333333,0,0,-1.3333333,33.777333,33.050667)" />
    <path
       id="path24"
       d="m 66.77649,-14.2322 20.35016,-19.07829 4.76956,5.08753 -20.35016,19.07829 z"
       style="fill:none;stroke:#000000;stroke-width:0.3985;stroke-linecap:butt;stroke-linejoin:miter;stroke-miterlimit:10;stroke-dasharray:none;stroke-opacity:1"
       transform="matrix(1.3333333,0,0,-1.3333333,33.777333,33.050667)" />
    <g
       id="g24"
       aria-label="l&#10;2"
       transform="matrix(1.3333333,0,0,1.3333333,121.58267,78.857333)">
      <path
         id="path25"
         d="m 2.5659297,-6.8099922 c 0,0 0,-0.1054687 -0.1289063,-0.1054687 -0.2226562,0 -0.9492187,0.082031 -1.2070312,0.1054687 -0.082031,0 -0.1992188,0.011719 -0.1992188,0.1992188 0,0.1171875 0.1054688,0.1171875 0.2578125,0.1171875 0.46875,0 0.4804688,0.082031 0.4804688,0.1640625 l -0.023437,0.1992187 -1.25390626,4.9804688 c -0.0351563,0.1171875 -0.0585938,0.18749996 -0.0585938,0.33984371 0,0.57421875 0.4453125,0.9140625 0.91406246,0.9140625 0.328125,0 0.5742187,-0.19921875 0.75,-0.55078125 0.1757812,-0.38671875 0.2929687,-0.96093746 0.2929687,-0.98437496 0,-0.09375 -0.09375,-0.09375 -0.1171875,-0.09375 -0.1054687,0 -0.1171875,0.035156 -0.140625,0.1757812 -0.1757812,0.64453126 -0.3632812,1.24218751 -0.7617187,1.24218751 -0.2929688,0 -0.2929688,-0.328125 -0.2929688,-0.45703125 0,-0.24609375 0.011719,-0.29296875 0.058594,-0.48046876 z m 0,0"
         style="fill:#000000;fill-opacity:1;fill-rule:nonzero;stroke:none" />
      <path
         id="path26"
         d="m 6.4887813,0.22711719 h -0.234375 c -0.023437,0.15234375 -0.082031,0.5625 -0.1757813,0.6328125 -0.058594,0.0351563 -0.5976562,0.0351563 -0.6914062,0.0351563 H 4.0981563 c 0.7382812,-0.64453125 0.984375,-0.84375 1.3945312,-1.171875 0.515625,-0.41015625 0.9960938,-0.84375009 0.9960938,-1.50000009 0,-0.84375 -0.7382813,-1.359375 -1.6289063,-1.359375 -0.8671875,0 -1.453125,0.609375 -1.453125,1.2421875 0,0.3632813 0.3046875,0.3984375 0.375,0.3984375 0.1640625,0 0.375,-0.1171875 0.375,-0.375 0,-0.1289062 -0.058594,-0.3632812 -0.421875,-0.3632812 0.2226563,-0.5039063 0.6914063,-0.65625 1.0195313,-0.65625 0.703125,0 1.0664062,0.5507812 1.0664062,1.1132813 0,0.609375 -0.4335937,1.08984374 -0.65625,1.33593749 L 3.4770625,1.223211 C 3.40675,1.2818047 3.40675,1.2935234 3.40675,1.4927422 h 2.8828125 z m 0,0"
         style="fill:#000000;fill-opacity:1;fill-rule:nonzero;stroke:none" />
    </g>
    <path
       id="path27"
       d="m 66.84612,-99.33769 20.35015,-19.0783 4.76957,5.08753 -20.35016,19.07829 z"
       style="fill:none;stroke:#000000;stroke-width:0.3985;stroke-linecap:butt;stroke-linejoin:miter;stroke-miterlimit:10;stroke-dasharray:none;stroke-opacity:1"
       transform="matrix(1.3333333,0,0,-1.3333333,33.777333,33.050667)" />
    <path
       id="path28"
       d="m 56.69363,0 12.32312,-11.55295 m 20.63919,-19.34925 12.3892,-11.6146 0.004,-0.0034 -1.1e-4,-85.04043 -12.32299,11.5531 m -20.63919,19.34925 -12.38913,11.61445 -0.0037,0.0034"
       style="fill:none;stroke:#000000;stroke-width:0.3985;stroke-linecap:butt;stroke-linejoin:miter;stroke-miterlimit:10;stroke-dasharray:none;stroke-opacity:1"
       transform="matrix(1.3333333,0,0,-1.3333333,33.777333,33.050667)" />
    <path
       id="path29"
       d="m 123.47012,-14.2322 20.35016,-19.07829 4.76956,5.08753 -20.35015,19.07829 z"
       style="fill:none;stroke:#000000;stroke-width:0.3985;stroke-linecap:butt;stroke-linejoin:miter;stroke-miterlimit:10;stroke-dasharray:none;stroke-opacity:1"
       transform="matrix(1.3333333,0,0,-1.3333333,33.777333,33.050667)" />
    <g
       id="g29"
       aria-label="l&#10;1"
       transform="matrix(1.3333333,0,0,1.3333333,197.17333,78.857333)">
      <path
         id="path30"
         d="m 2.5653125,-6.8099922 c 0,0 0,-0.1054687 -0.1289062,-0.1054687 -0.2226563,0 -0.9492188,0.082031 -1.2070313,0.1054687 -0.082031,0 -0.1992187,0.011719 -0.1992187,0.1992188 0,0.1171875 0.1054687,0.1171875 0.2578125,0.1171875 0.46875,0 0.4804687,0.082031 0.4804687,0.1640625 L 1.745,-6.1303047 0.49109375,-1.1498359 C 0.4559375,-1.0326484 0.4325,-0.96233594 0.4325,-0.80999219 c 0,0.57421875 0.4453125,0.9140625 0.9140625,0.9140625 0.328125,0 0.5742188,-0.19921875 0.75,-0.55078125 0.1757813,-0.38671875 0.2929688,-0.96093746 0.2929688,-0.98437496 0,-0.09375 -0.09375,-0.09375 -0.1171875,-0.09375 -0.1054688,0 -0.1171875,0.035156 -0.140625,0.1757812 C 1.9559375,-0.70452344 1.7684375,-0.10686719 1.37,-0.10686719 c -0.2929687,0 -0.2929687,-0.328125 -0.2929687,-0.45703125 0,-0.24609375 0.011719,-0.29296875 0.058594,-0.48046876 z m 0,0"
         style="fill:#000000;fill-opacity:1;fill-rule:nonzero;stroke:none" />
      <path
         id="path31"
         d="m 5.3045703,-2.9369453 c 0,-0.1875 -0.011719,-0.1992188 -0.2109375,-0.1992188 -0.4453125,0.4335938 -1.078125,0.4453125 -1.359375,0.4453125 v 0.2460938 c 0.1640625,0 0.6210938,0 1.0078125,-0.1875 v 3.55078124 c 0,0.23437496 0,0.32812496 -0.6914062,0.32812496 H 3.7811328 v 0.2460938 c 0.1289063,-0.011719 0.984375,-0.023437 1.2421875,-0.023437 0.2109375,0 1.0898438,0.011719 1.2421875,0.023437 V 1.2466484 H 6.0076953 c -0.703125,0 -0.703125,-0.09375 -0.703125,-0.32812496 z m 0,0"
         style="fill:#000000;fill-opacity:1;fill-rule:nonzero;stroke:none" />
    </g>
    <path
       id="path32"
       d="m 123.53975,-99.33769 20.35016,-19.0783 4.76956,5.08753 -20.35016,19.07829 z"
       style="fill:none;stroke:#000000;stroke-width:0.3985;stroke-linecap:butt;stroke-linejoin:miter;stroke-miterlimit:10;stroke-dasharray:none;stroke-opacity:1"
       transform="matrix(1.3333333,0,0,-1.3333333,33.777333,33.050667)" />
    <path
       id="path33"
       d="m 113.38727,0 12.32301,-11.55309 m 20.6393,-19.34911 12.38919,-11.6146 0.004,-0.0034 -1.1e-4,-85.04043 -12.32312,11.55293 m -20.63907,19.34942 -12.38913,11.61445 -0.004,0.0034"
       style="fill:none;stroke:#000000;stroke-width:0.3985;stroke-linecap:butt;stroke-linejoin:miter;stroke-miterlimit:10;stroke-dasharray:none;stroke-opacity:1"
       transform="matrix(1.3333333,0,0,-1.3333333,33.777333,33.050667)" />
    <path
       id="path34"
       d="m 58.43712,0 c 0,0.9629 -0.78058,1.74348 -1.74349,1.74348 -0.96292,0 -1.74348,-0.78058 -1.74348,-1.74348 0,-0.9629 0.78056,-1.74348 1.74348,-1.74348 0.96291,0 1.74349,0.78058 1.74349,1.74348 z"
       style="fill:#000000;fill-opacity:1;fill-rule:nonzero;stroke:#000000;stroke-width:0.3985;stroke-linecap:butt;stroke-linejoin:miter;stroke-miterlimit:10;stroke-dasharray:none;stroke-opacity:1"
       transform="matrix(1.3333333,0,0,-1.3333333,33.777333,33.050667)" />
    <path
       id="path35"
       d="m 115.13075,0 c 0,0.9629 -0.78058,1.74348 -1.74348,1.74348 -0.96292,0 -1.74349,-0.78058 -1.74349,-1.74348 0,-0.9629 0.78057,-1.74348 1.74349,-1.74348 0.9629,0 1.74348,0.78058 1.74348,1.74348 z"
       style="fill:#000000;fill-opacity:1;fill-rule:nonzero;stroke:#000000;stroke-width:0.3985;stroke-linecap:butt;stroke-linejoin:miter;stroke-miterlimit:10;stroke-dasharray:none;stroke-opacity:1"
       transform="matrix(1.3333333,0,0,-1.3333333,33.777333,33.050667)" />
    <path
       id="path36"
       d="m 58.43712,-85.04044 c 0,0.96291 -0.78058,1.74349 -1.74349,1.74349 -0.96292,0 -1.74348,-0.78058 -1.74348,-1.74349 0,-0.9629 0.78056,-1.74348 1.74348,-1.74348 0.96291,0 1.74349,0.78058 1.74349,1.74348 z"
       style="fill:#000000;fill-opacity:1;fill-rule:nonzero;stroke:#000000;stroke-width:0.3985;stroke-linecap:butt;stroke-linejoin:miter;stroke-miterlimit:10;stroke-dasharray:none;stroke-opacity:1"
       transform="matrix(1.3333333,0,0,-1.3333333,33.777333,33.050667)" />
    <path
       id="path37"
       d="m 115.13075,-85.04044 c 0,0.96291 -0.78058,1.74349 -1.74348,1.74349 -0.96292,0 -1.74349,-0.78058 -1.74349,-1.74349 0,-0.9629 0.78057,-1.74348 1.74349,-1.74348 0.9629,0 1.74348,0.78058 1.74348,1.74348 z"
       style="fill:#000000;fill-opacity:1;fill-rule:nonzero;stroke:#000000;stroke-width:0.3985;stroke-linecap:butt;stroke-linejoin:miter;stroke-miterlimit:10;stroke-dasharray:none;stroke-opacity:1"
       transform="matrix(1.3333333,0,0,-1.3333333,33.777333,33.050667)" />
    <g
       id="g37"
       aria-label="P1"
       transform="matrix(1.3333333,0,0,1.3333333,10.152,94.282667)">
      <path
         id="path38"
         d="m 3.0236953,-3.1534063 h 1.6875 c 1.4179688,0 2.8007813,-1.03125 2.8007813,-2.1445312 0,-0.7734375 -0.65625,-1.5117188 -1.96875,-1.5117188 H 2.3205703 c -0.1875,0 -0.2929687,0 -0.2929687,0.1992188 0,0.1171875 0.082031,0.1171875 0.28125,0.1171875 0.1289062,0 0.3164062,0.011719 0.4335937,0.011719 0.1523438,0.023437 0.2109375,0.058594 0.2109375,0.1640625 0,0.035156 0,0.070312 -0.035156,0.1875 L 1.5822891,-0.7745 c -0.09375,0.38671875 -0.1171875,0.46875 -0.90234379,0.46875 -0.17578125,0 -0.28125,0 -0.28125,0.1875 0,0.1171875 0.1171875,0.1171875 0.15234375,0.1171875 0.28125,0 0.98437504,-0.03515625 1.26562504,-0.03515625 0.2109375,0 0.421875,0.01171875 0.6328125,0.01171875 0.2226562,0 0.4453125,0.0234375 0.6445312,0.0234375 0.070312,0 0.1992188,0 0.1992188,-0.19921875 0,-0.10546875 -0.082031,-0.10546875 -0.2695313,-0.10546875 -0.375,0 -0.65625,0 -0.65625,-0.1875 0,-0.0585937 0.023437,-0.10546875 0.035156,-0.1640625 z M 3.7385391,-6.11825 c 0.082031,-0.3515625 0.1054687,-0.375 0.5390625,-0.375 h 0.9492187 c 0.8320313,0 1.359375,0.2695312 1.359375,0.9492187 0,0.3984375 -0.1992187,1.2539063 -0.5859375,1.6054688 -0.5039062,0.4453125 -1.1015625,0.5273437 -1.5351562,0.5273437 h -1.40625 z m 0,0"
         style="fill:#000000;fill-opacity:1;fill-rule:nonzero;stroke:none" />
      <path
         id="path39"
         d="m 10.708266,-6.3760625 c 0,-0.234375 0,-0.2578125 -0.234375,-0.2578125 -0.6093754,0.6328125 -1.4882816,0.6328125 -1.8046879,0.6328125 v 0.3164062 c 0.1992188,0 0.7851563,0 1.3007813,-0.2578125 v 5.15625005 c 0,0.3515625 -0.035156,0.48046875 -0.9257813,0.48046875 H 8.7277969 v 0.3046875 c 0.3515625,-0.03515625 1.2070312,-0.03515625 1.6054691,-0.03515625 0.398437,0 1.265625,0 1.617187,0.03515625 V -0.30575 h -0.316406 c -0.902344,0 -0.925781,-0.1171875 -0.925781,-0.48046875 z m 0,0"
         style="fill:#000000;fill-opacity:1;fill-rule:nonzero;stroke:none" />
    </g>
    <g
       id="g39"
       aria-label="P2"
       transform="matrix(1.3333333,0,0,1.3333333,267.16267,94.282667)">
      <path
         id="path40"
         d="m 3.0244844,-3.1534063 h 1.6875 c 1.4179687,0 2.8007812,-1.03125 2.8007812,-2.1445312 0,-0.7734375 -0.65625,-1.5117188 -1.96875,-1.5117188 H 2.3213594 c -0.1875,0 -0.2929688,0 -0.2929688,0.1992188 0,0.1171875 0.082031,0.1171875 0.28125,0.1171875 0.1289063,0 0.3164063,0.011719 0.4335938,0.011719 0.1523437,0.023437 0.2109375,0.058594 0.2109375,0.1640625 0,0.035156 0,0.070312 -0.035156,0.1875 L 1.5830781,-0.7745 c -0.09375,0.38671875 -0.1171875,0.46875 -0.90234372,0.46875 -0.17578125,0 -0.28125,0 -0.28125,0.1875 0,0.1171875 0.1171875,0.1171875 0.15234375,0.1171875 0.28125,0 0.98437497,-0.03515625 1.26562497,-0.03515625 0.2109375,0 0.421875,0.01171875 0.6328125,0.01171875 0.2226563,0 0.4453125,0.0234375 0.6445313,0.0234375 0.070312,0 0.1992187,0 0.1992187,-0.19921875 0,-0.10546875 -0.082031,-0.10546875 -0.2695312,-0.10546875 -0.375,0 -0.65625,0 -0.65625,-0.1875 0,-0.0585937 0.023437,-0.10546875 0.035156,-0.1640625 z M 3.7393281,-6.11825 c 0.082031,-0.3515625 0.1054688,-0.375 0.5390625,-0.375 h 0.9492188 c 0.8320312,0 1.359375,0.2695312 1.359375,0.9492187 0,0.3984375 -0.1992188,1.2539063 -0.5859375,1.6054688 -0.5039063,0.4453125 -1.1015625,0.5273437 -1.5351563,0.5273437 h -1.40625 z m 0,0"
         style="fill:#000000;fill-opacity:1;fill-rule:nonzero;stroke:none" />
      <path
         id="path41"
         d="M 9.0449922,-0.76278125 10.09968,-1.7940313 c 1.558593,-1.3710937 2.15625,-1.9101562 2.15625,-2.90625 0,-1.1367187 -0.902344,-1.9335937 -2.121094,-1.9335937 -1.1250001,0 -1.8515626,0.9140625 -1.8515626,1.8046875 0,0.5507812 0.4921875,0.5507812 0.5273438,0.5507812 0.1640625,0 0.515625,-0.1171875 0.515625,-0.5273437 0,-0.2578125 -0.1875,-0.515625 -0.5273438,-0.515625 -0.082031,0 -0.1054687,0 -0.1289062,0.011719 0.2226562,-0.6445312 0.7617187,-1.0195312 1.3359378,-1.0195312 0.914062,0 1.335937,0.8085937 1.335937,1.6289062 0,0.796875 -0.492187,1.5820313 -1.042969,2.203125 L 8.3887422,-0.36434375 C 8.2832734,-0.258875 8.2832734,-0.2354375 8.2832734,-0.0010625 H 11.97468 l 0.28125,-1.734375 h -0.257813 c -0.04687,0.3046875 -0.117187,0.73828125 -0.210937,0.890625 -0.07031,0.0820313 -0.726563,0.0820313 -0.949219,0.0820313 z m 0,0"
         style="fill:#000000;fill-opacity:1;fill-rule:nonzero;stroke:none" />
    </g>
  </g>
</svg>
