<?xml version="1.0" encoding="UTF-8" standalone="no"?>
<!-- Created with Inkscape (http://www.inkscape.org/) -->

<svg
   version="1.1"
   id="svg1"
   width="488.76001"
   height="217.62666"
   viewBox="0 0 488.76001 217.62666"
   sodipodi:docname="24-25-1-人工智能原理-期末-答案4.pdf"
   xmlns:inkscape="http://www.inkscape.org/namespaces/inkscape"
   xmlns:sodipodi="http://sodipodi.sourceforge.net/DTD/sodipodi-0.dtd"
   xmlns="http://www.w3.org/2000/svg"
   xmlns:svg="http://www.w3.org/2000/svg">
  <defs
     id="defs1" />
  <sodipodi:namedview
     id="namedview1"
     pagecolor="#ffffff"
     bordercolor="#000000"
     borderopacity="0.25"
     inkscape:showpageshadow="2"
     inkscape:pageopacity="0.0"
     inkscape:pagecheckerboard="0"
     inkscape:deskcolor="#d1d1d1">
    <inkscape:page
       x="0"
       y="0"
       inkscape:label="1"
       id="page1"
       width="488.76001"
       height="217.62666"
       margin="0"
       bleed="0" />
  </sodipodi:namedview>
  <g
     id="g1"
     inkscape:groupmode="layer"
     inkscape:label="1">
    <path
       id="path1"
       d="M -211.62582,-149.90172 V 13.32494 h 366.57786 v -163.22666 z"
       style="fill:#ffffff;fill-opacity:1;fill-rule:nonzero;stroke:none"
       transform="matrix(1.3333333,0,0,-1.3333333,282.164,17.76)" />
    <path
       id="path2"
       d="M 8.83174,0 C 8.83174,4.87769 4.87769,8.83174 0,8.83174 -4.87769,8.83174 -8.83174,4.87769 -8.83174,0 c 0,-4.87769 3.95405,-8.83174 8.83174,-8.83174 4.87769,0 8.83174,3.95405 8.83174,8.83174 z"
       style="fill:none;stroke:#000000;stroke-width:0.3985;stroke-linecap:butt;stroke-linejoin:miter;stroke-miterlimit:10;stroke-dasharray:none;stroke-opacity:1"
       transform="matrix(1.3333333,0,0,-1.3333333,282.164,17.76)" />
    <path
       id="path3"
       d="M 4.6883125,-1.6392656 V -1.9556719 H 3.6922187 v -4.5234375 c 0,-0.1992187 0,-0.2578125 -0.1523437,-0.2578125 -0.09375,0 -0.1171875,0 -0.1992188,0.1171875 l -3.0585937,4.6640625 v 0.3164063 H 2.9305 v 0.86718747 c 0,0.3515625 -0.023437,0.46875 -0.7617188,0.46875 H 1.9578437 v 0.3046875 C 2.368,-0.03379688 2.8953437,-0.03379688 3.3055,-0.03379688 c 0.421875,0 0.9492187,0 1.359375,0.03515625 v -0.3046875 H 4.4539375 c -0.7382813,0 -0.7617188,-0.1171875 -0.7617188,-0.46875 V -1.6392656 Z M 2.9890937,-1.9556719 H 0.5633125 l 2.4257812,-3.7148437 z m 0,0"
       style="fill:#000000;fill-opacity:1;fill-rule:nonzero;stroke:none"
       aria-label="4"
       transform="matrix(1.3333333,0,0,1.3333333,278.84267,22.256)" />
    <path
       id="path4"
       d="m -118.72891,-42.52022 c 0,4.8777 -3.95406,8.83174 -8.83174,8.83174 -4.8777,0 -8.83175,-3.95404 -8.83175,-8.83174 0,-4.87768 3.95405,-8.83174 8.83175,-8.83174 4.87768,0 8.83174,3.95406 8.83174,8.83174 z"
       style="fill:none;stroke:#000000;stroke-width:0.3985;stroke-linecap:butt;stroke-linejoin:miter;stroke-miterlimit:10;stroke-dasharray:none;stroke-opacity:1"
       transform="matrix(1.3333333,0,0,-1.3333333,282.164,17.76)" />
    <path
       id="path5"
       d="M 4.6867891,-1.6417109 V -1.9581172 H 3.6906953 v -4.5234375 c 0,-0.1992187 0,-0.2578125 -0.1523437,-0.2578125 -0.09375,0 -0.1171875,0 -0.1992188,0.1171875 l -3.05859374,4.6640625 v 0.3164063 H 2.9289766 v 0.86718746 c 0,0.3515625 -0.023437,0.46875 -0.7617188,0.46875 H 1.9563203 v 0.3046875 c 0.4101563,-0.03515625 0.9375,-0.03515625 1.3476563,-0.03515625 0.421875,0 0.9492187,0 1.359375,0.03515625 v -0.3046875 H 4.4524141 c -0.7382813,0 -0.7617188,-0.1171875 -0.7617188,-0.46875 V -1.6417109 Z M 2.9875703,-1.9581172 H 0.56178906 L 2.9875703,-5.6729609 Z m 0,0"
       style="fill:#000000;fill-opacity:1;fill-rule:nonzero;stroke:none"
       aria-label="4"
       transform="matrix(1.3333333,0,0,1.3333333,108.76267,78.950667)" />
    <path
       id="path6"
       d="m -8.56714,-2.85565 -110.42638,-36.8089"
       style="fill:none;stroke:#000000;stroke-width:0.3985;stroke-linecap:butt;stroke-linejoin:miter;stroke-miterlimit:10;stroke-dasharray:none;stroke-opacity:1"
       transform="matrix(1.3333333,0,0,-1.3333333,282.164,17.76)" />
    <path
       id="path7"
       d="m -175.35004,-85.04044 c 0,4.91773 -3.98651,8.90422 -8.90422,8.90422 -4.91772,0 -8.90424,-3.98649 -8.90424,-8.90422 0,-4.91772 3.98652,-8.90422 8.90424,-8.90422 4.91771,0 8.90422,3.9865 8.90422,8.90422 z"
       style="fill:none;stroke:#000000;stroke-width:0.3985;stroke-linecap:butt;stroke-linejoin:miter;stroke-miterlimit:10;stroke-dasharray:none;stroke-opacity:1"
       transform="matrix(1.3333333,0,0,-1.3333333,282.164,17.76)" />
    <path
       id="path8"
       d="m 4.4774687,-2.0025703 c 0,-1.1835938 -0.8203125,-2.1796875 -1.8984375,-2.1796875 -0.4804687,0 -0.9023437,0.1640625 -1.265625,0.5039062 v -1.9335937 c 0.1992188,0.058594 0.5273438,0.1289062 0.84375,0.1289062 1.2304688,0 1.9335938,-0.9140625 1.9335938,-1.0429687 0,-0.058594 -0.035156,-0.1054688 -0.1054688,-0.1054688 0,0 -0.035156,0 -0.082031,0.023437 -0.1992188,0.09375 -0.6796875,0.2929688 -1.3476563,0.2929688 -0.3984375,0 -0.8554687,-0.070312 -1.3242187,-0.28125 -0.082031,-0.023437 -0.1289063,-0.023437 -0.1289063,-0.023437 -0.09375,0 -0.09375,0.082031 -0.09375,0.234375 v 2.953125 c 0,0.1757812 0,0.2578125 0.140625,0.2578125 0.070312,0 0.082031,-0.035156 0.1289063,-0.09375 0.1054687,-0.1523438 0.4804687,-0.6914063 1.2773437,-0.6914063 0.5273438,0 0.7734375,0.4570313 0.8554688,0.6328125 0.1523437,0.375 0.1757812,0.7617188 0.1757812,1.2539063 0,0.3515625 0,0.9492187 -0.234375,1.37109374 -0.2460937,0.38671875 -0.609375,0.64453125 -1.0664062,0.64453125 -0.7265625,0 -1.30078125,-0.52734375 -1.46484375,-1.11328129 0.0234375,0.011719 0.0585938,0.011719 0.1640625,0.011719 0.32812495,0 0.50390625,-0.2460938 0.50390625,-0.4804688 0,-0.2460937 -0.1757813,-0.4921875 -0.50390625,-0.4921875 -0.140625,0 -0.48046875,0.070312 -0.48046875,0.5273438 0,0.85546874 0.6796875,1.82812499 1.7929687,1.82812499 1.1601563,0 2.1796875,-0.9609375 2.1796873,-2.22656269 z m 0,0"
       style="fill:#000000;fill-opacity:1;fill-rule:nonzero;stroke:none"
       aria-label="5"
       transform="matrix(1.3333333,0,0,1.3333333,33.170667,135.424)" />
    <path
       id="path9"
       d="m -134.7852,-47.93872 -42.18654,-31.63973"
       style="fill:none;stroke:#000000;stroke-width:0.3985;stroke-linecap:butt;stroke-linejoin:miter;stroke-miterlimit:10;stroke-dasharray:none;stroke-opacity:1"
       transform="matrix(1.3333333,0,0,-1.3333333,282.164,17.76)" />
    <path
       id="path10"
       d="m -193.73132,-127.56065 c 0,2.59372 -2.10259,4.6963 -4.69632,4.6963 -2.59374,0 -4.69632,-2.10258 -4.69632,-4.6963 0,-2.59374 2.10258,-4.69632 4.69632,-4.69632 2.59373,0 4.69632,2.10258 4.69632,4.69632 z"
       style="fill:none;stroke:#000000;stroke-width:0.3985;stroke-linecap:butt;stroke-linejoin:miter;stroke-miterlimit:10;stroke-dasharray:none;stroke-opacity:1"
       transform="matrix(1.3333333,0,0,-1.3333333,282.164,17.76)" />
    <path
       id="path11"
       d="m -187.13284,-93.67635 -9.74678,-29.2402"
       style="fill:none;stroke:#000000;stroke-width:0.3985;stroke-linecap:butt;stroke-linejoin:miter;stroke-miterlimit:10;stroke-dasharray:none;stroke-opacity:1"
       transform="matrix(1.3333333,0,0,-1.3333333,282.164,17.76)" />
    <path
       id="path12"
       d="m 4.4766406,-2.0025469 c 0,-1.1835937 -0.8203125,-2.1796875 -1.8984375,-2.1796875 -0.4804687,0 -0.9023437,0.1640625 -1.265625,0.5039063 v -1.9335938 c 0.1992188,0.058594 0.5273438,0.1289063 0.84375,0.1289063 1.2304688,0 1.9335938,-0.9140625 1.9335938,-1.0429688 0,-0.058594 -0.035156,-0.1054687 -0.1054688,-0.1054687 0,0 -0.035156,0 -0.082031,0.023437 -0.1992188,0.09375 -0.6796875,0.2929687 -1.3476563,0.2929687 -0.3984375,0 -0.8554687,-0.070312 -1.3242187,-0.28125 -0.082031,-0.023437 -0.1289063,-0.023437 -0.1289063,-0.023437 -0.09375,0 -0.09375,0.082031 -0.09375,0.234375 v 2.953125 c 0,0.1757813 0,0.2578125 0.140625,0.2578125 0.070312,0 0.082031,-0.035156 0.1289063,-0.09375 0.1054687,-0.1523437 0.4804687,-0.6914062 1.2773437,-0.6914062 0.5273438,0 0.7734375,0.4570312 0.8554688,0.6328125 0.1523437,0.375 0.1757812,0.7617187 0.1757812,1.2539062 0,0.3515625 0,0.9492188 -0.234375,1.37109378 -0.2460937,0.38671875 -0.609375,0.64453125 -1.0664062,0.64453125 -0.7265625,0 -1.30078127,-0.52734375 -1.46484377,-1.11328123 0.0234375,0.011719 0.0585938,0.011719 0.1640625,0.011719 0.32812497,0 0.50390627,-0.2460937 0.50390627,-0.4804687 0,-0.2460938 -0.1757813,-0.4921875 -0.50390627,-0.4921875 -0.140625,0 -0.48046875,0.070312 -0.48046875,0.5273437 0,0.85546878 0.67968752,1.82812503 1.79296872,1.82812503 1.1601563,0 2.1796875,-0.9609375 2.1796873,-2.22656283 z m 0,0"
       style="fill:#000000;fill-opacity:1;fill-rule:nonzero;stroke:none"
       aria-label="5"
       transform="matrix(1.3333333,0,0,1.3333333,14.273333,204.256)" />
    <path
       id="path13"
       d="m -165.38452,-127.56065 c 0,2.59372 -2.10258,4.6963 -4.69632,4.6963 -2.59372,0 -4.69632,-2.10258 -4.69632,-4.6963 0,-2.59374 2.1026,-4.69632 4.69632,-4.69632 2.59374,0 4.69632,2.10258 4.69632,4.69632 z"
       style="fill:none;stroke:#000000;stroke-width:0.3985;stroke-linecap:butt;stroke-linejoin:miter;stroke-miterlimit:10;stroke-dasharray:none;stroke-opacity:1"
       transform="matrix(1.3333333,0,0,-1.3333333,282.164,17.76)" />
    <path
       id="path14"
       d="m -181.37567,-93.67635 9.74681,-29.2402"
       style="fill:none;stroke:#000000;stroke-width:0.3985;stroke-linecap:butt;stroke-linejoin:miter;stroke-miterlimit:10;stroke-dasharray:none;stroke-opacity:1"
       transform="matrix(1.3333333,0,0,-1.3333333,282.164,17.76)" />
    <path
       id="path15"
       d="m 4.5456797,-1.6978594 c 0,-0.8203125 -0.6210938,-1.59375 -1.6523438,-1.8046875 0.8085938,-0.2695312 1.3945313,-0.9726562 1.3945313,-1.7578125 0,-0.8203125 -0.8789063,-1.3710937 -1.8398438,-1.3710937 -1.0078125,0 -1.75781246,0.5976562 -1.75781246,1.3476562 0,0.3398438 0.2109375,0.5273438 0.50390626,0.5273438 0.3046875,0 0.5039062,-0.2226563 0.5039062,-0.515625 0,-0.4921875 -0.46875,-0.4921875 -0.609375,-0.4921875 0.3046875,-0.4921875 0.9609375,-0.6210938 1.3242188,-0.6210938 0.4101562,0 0.9492187,0.2226563 0.9492187,1.1132813 0,0.1289062 -0.011719,0.703125 -0.2695312,1.1367187 -0.3046875,0.4804688 -0.6445313,0.515625 -0.890625,0.515625 -0.082031,0.011719 -0.3164063,0.035156 -0.3867188,0.035156 -0.082031,0.011719 -0.1523437,0.023437 -0.1523437,0.1171875 0,0.1171875 0.070312,0.1171875 0.234375,0.1171875 h 0.4453125 c 0.8085937,0 1.1835937,0.6679687 1.1835937,1.6523437 0,1.34765628 -0.6914062,1.64062503 -1.125,1.64062503 -0.4335937,0 -1.171875,-0.17578125 -1.52343746,-0.76171875 0.35156246,0.0585938 0.65624996,-0.1640625 0.65624996,-0.53906248 0,-0.3632813 -0.2695312,-0.5625 -0.56249996,-0.5625 -0.234375,0 -0.55078125,0.140625 -0.55078125,0.5742187 0,0.91406253 0.92578121,1.57031253 2.00390621,1.57031253 1.21875,0 2.1210938,-0.9140625 2.1210938,-1.92187473 z m 0,0"
       style="fill:#000000;fill-opacity:1;fill-rule:nonzero;stroke:none"
       aria-label="3"
       transform="matrix(1.3333333,0,0,1.3333333,52.068,204.256)" />
    <path
       id="path16"
       d="m -118.72888,-85.04044 c 0,4.87769 -3.95406,8.83174 -8.83174,8.83174 -4.8777,0 -8.83174,-3.95405 -8.83174,-8.83174 0,-4.87768 3.95404,-8.83174 8.83174,-8.83174 4.87768,0 8.83174,3.95406 8.83174,8.83174 z"
       style="fill:none;stroke:#000000;stroke-width:0.3985;stroke-linecap:butt;stroke-linejoin:miter;stroke-miterlimit:10;stroke-dasharray:none;stroke-opacity:1"
       transform="matrix(1.3333333,0,0,-1.3333333,282.164,17.76)" />
    <path
       id="path17"
       d="M 4.6867891,-1.6402266 V -1.9566328 H 3.6906953 v -4.5234375 c 0,-0.1992188 0,-0.2578125 -0.1523437,-0.2578125 -0.09375,0 -0.1171875,0 -0.1992188,0.1171875 l -3.05859374,4.6640625 v 0.3164062 H 2.9289766 v 0.86718754 c 0,0.3515625 -0.023437,0.46875 -0.7617188,0.46875 H 1.9563203 V 3.984375e-4 C 2.3664766,-0.03475781 2.8938203,-0.03475781 3.3039766,-0.03475781 c 0.421875,0 0.9492187,0 1.359375,0.0351562475 V -0.30428906 H 4.4524141 c -0.7382813,0 -0.7617188,-0.1171875 -0.7617188,-0.46875 V -1.6402266 Z M 2.9875703,-1.9566328 H 0.56178906 L 2.9875703,-5.6714766 Z m 0,0"
       style="fill:#000000;fill-opacity:1;fill-rule:nonzero;stroke:none"
       aria-label="4"
       transform="matrix(1.3333333,0,0,1.3333333,108.76267,135.644)" />
    <path
       id="path18"
       d="m -127.56065,-51.55121 3e-5,-24.45824"
       style="fill:none;stroke:#000000;stroke-width:0.3985;stroke-linecap:butt;stroke-linejoin:miter;stroke-miterlimit:10;stroke-dasharray:none;stroke-opacity:1"
       transform="matrix(1.3333333,0,0,-1.3333333,282.164,17.76)" />
    <path
       id="path19"
       d="m -151.21109,-127.56065 c 0,2.59372 -2.10258,4.6963 -4.69632,4.6963 -2.59373,0 -4.69632,-2.10258 -4.69632,-4.6963 0,-2.59374 2.10259,-4.69632 4.69632,-4.69632 2.59374,0 4.69632,2.10258 4.69632,4.69632 z"
       style="fill:none;stroke:#000000;stroke-width:0.3985;stroke-linecap:butt;stroke-linejoin:miter;stroke-miterlimit:10;stroke-dasharray:none;stroke-opacity:1"
       transform="matrix(1.3333333,0,0,-1.3333333,282.164,17.76)" />
    <path
       id="path20"
       d="m -132.56987,-92.55437 -20.62212,-30.9331"
       style="fill:none;stroke:#000000;stroke-width:0.3985;stroke-linecap:butt;stroke-linejoin:miter;stroke-miterlimit:10;stroke-dasharray:none;stroke-opacity:1"
       transform="matrix(1.3333333,0,0,-1.3333333,282.164,17.76)" />
    <path
       id="path21"
       d="m 4.5455078,-1.6978594 c 0,-0.8203125 -0.6210937,-1.59375 -1.6523437,-1.8046875 0.8085937,-0.2695312 1.3945312,-0.9726562 1.3945312,-1.7578125 0,-0.8203125 -0.8789062,-1.3710937 -1.8398437,-1.3710937 -1.0078125,0 -1.75781254,0.5976562 -1.75781254,1.3476562 0,0.3398438 0.2109375,0.5273438 0.50390624,0.5273438 0.3046875,0 0.5039063,-0.2226563 0.5039063,-0.515625 0,-0.4921875 -0.46875,-0.4921875 -0.609375,-0.4921875 0.3046875,-0.4921875 0.9609375,-0.6210938 1.3242187,-0.6210938 0.4101563,0 0.9492188,0.2226563 0.9492188,1.1132813 0,0.1289062 -0.011719,0.703125 -0.2695313,1.1367187 -0.3046875,0.4804688 -0.6445312,0.515625 -0.890625,0.515625 -0.082031,0.011719 -0.3164062,0.035156 -0.3867187,0.035156 -0.082031,0.011719 -0.1523438,0.023437 -0.1523438,0.1171875 0,0.1171875 0.070312,0.1171875 0.234375,0.1171875 h 0.4453125 c 0.8085938,0 1.1835938,0.6679687 1.1835938,1.6523437 0,1.34765628 -0.6914063,1.64062503 -1.125,1.64062503 -0.4335938,0 -1.171875,-0.17578125 -1.52343754,-0.76171875 0.35156254,0.0585938 0.65625004,-0.1640625 0.65625004,-0.53906248 0,-0.3632813 -0.2695313,-0.5625 -0.56250004,-0.5625 -0.234375,0 -0.55078125,0.140625 -0.55078125,0.5742187 0,0.91406253 0.92578129,1.57031253 2.00390629,1.57031253 1.21875,0 2.1210937,-0.9140625 2.1210937,-1.92187473 z m 0,0"
       style="fill:#000000;fill-opacity:1;fill-rule:nonzero;stroke:none"
       aria-label="3"
       transform="matrix(1.3333333,0,0,1.3333333,70.966667,204.256)" />
    <path
       id="path22"
       d="m -122.86429,-127.56065 c 0,2.59372 -2.10258,4.6963 -4.69631,4.6963 -2.59373,0 -4.69631,-2.10258 -4.69631,-4.6963 0,-2.59374 2.10258,-4.69632 4.69631,-4.69632 2.59373,0 4.69631,2.10258 4.69631,4.69632 z"
       style="fill:none;stroke:#000000;stroke-width:0.3985;stroke-linecap:butt;stroke-linejoin:miter;stroke-miterlimit:10;stroke-dasharray:none;stroke-opacity:1"
       transform="matrix(1.3333333,0,0,-1.3333333,282.164,17.76)" />
    <path
       id="path23"
       d="m -127.56062,-94.07143 2e-5,-28.59365"
       style="fill:none;stroke:#000000;stroke-width:0.3985;stroke-linecap:butt;stroke-linejoin:miter;stroke-miterlimit:10;stroke-dasharray:none;stroke-opacity:1"
       transform="matrix(1.3333333,0,0,-1.3333333,282.164,17.76)" />
    <path
       id="path24"
       d="M 4.1711641,1.484375e-4 V -0.30453906 H 3.8547578 c -0.9023437,0 -0.9257812,-0.1171875 -0.9257812,-0.48046875 V -6.3748516 c 0,-0.234375 0,-0.2578125 -0.234375,-0.2578125 -0.609375,0.6328125 -1.4882813,0.6328125 -1.80468754,0.6328125 v 0.3164063 c 0.19921874,0 0.78515624,0 1.30078124,-0.2578125 v 5.15624999 c 0,0.3515625 -0.035156,0.48046875 -0.9257812,0.48046875 H 0.94850781 V 1.484375e-4 C 1.3000703,-0.03500781 2.1555391,-0.03500781 2.5539766,-0.03500781 c 0.3984375,0 1.265625,0 1.6171875,0.0351562475 z m 0,0"
       style="fill:#000000;fill-opacity:1;fill-rule:nonzero;stroke:none"
       aria-label="1"
       transform="matrix(1.3333333,0,0,1.3333333,108.76267,204.26933)" />
    <path
       id="path25"
       d="m -94.51747,-127.56065 c 0,2.59372 -2.10259,4.6963 -4.69632,4.6963 -2.59374,0 -4.69632,-2.10258 -4.69632,-4.6963 0,-2.59374 2.10258,-4.69632 4.69632,-4.69632 2.59373,0 4.69632,2.10258 4.69632,4.69632 z"
       style="fill:none;stroke:#000000;stroke-width:0.3985;stroke-linecap:butt;stroke-linejoin:miter;stroke-miterlimit:10;stroke-dasharray:none;stroke-opacity:1"
       transform="matrix(1.3333333,0,0,-1.3333333,282.164,17.76)" />
    <path
       id="path26"
       d="m -122.55139,-92.55437 20.62218,-30.9331"
       style="fill:none;stroke:#000000;stroke-width:0.3985;stroke-linecap:butt;stroke-linejoin:miter;stroke-miterlimit:10;stroke-dasharray:none;stroke-opacity:1"
       transform="matrix(1.3333333,0,0,-1.3333333,282.164,17.76)" />
    <path
       id="path27"
       d="M 4.6874453,-1.6404453 V -1.9568516 H 3.6913516 v -4.5234375 c 0,-0.1992187 0,-0.2578125 -0.1523438,-0.2578125 -0.09375,0 -0.1171875,0 -0.1992187,0.1171875 l -3.05859379,4.6640625 v 0.3164063 H 2.9296328 v 0.86718749 c 0,0.3515625 -0.023437,0.46875 -0.7617187,0.46875 H 1.9569766 V 1.796875e-4 C 2.3671328,-0.03497656 2.8944766,-0.03497656 3.3046328,-0.03497656 c 0.421875,0 0.9492188,0 1.359375,0.0351562475 V -0.30450781 H 4.4530703 c -0.7382812,0 -0.7617187,-0.1171875 -0.7617187,-0.46875 V -1.6404453 Z M 2.9882266,-1.9568516 H 0.56244531 L 2.9882266,-5.6716953 Z m 0,0"
       style="fill:#000000;fill-opacity:1;fill-rule:nonzero;stroke:none"
       aria-label="4"
       transform="matrix(1.3333333,0,0,1.3333333,146.55867,204.37867)" />
    <path
       id="path28"
       d="m -61.96277,-85.04044 c 0,4.91773 -3.98651,8.90422 -8.90422,8.90422 -4.91772,0 -8.90423,-3.98649 -8.90423,-8.90422 0,-4.91772 3.98651,-8.90422 8.90423,-8.90422 4.91771,0 8.90422,3.9865 8.90422,8.90422 z"
       style="fill:none;stroke:#000000;stroke-width:0.3985;stroke-linecap:butt;stroke-linejoin:miter;stroke-miterlimit:10;stroke-dasharray:none;stroke-opacity:1"
       transform="matrix(1.3333333,0,0,-1.3333333,282.164,17.76)" />
    <path
       id="path29"
       d="m 4.5455469,-2.0260078 c 0,-1.265625 -0.8789063,-2.2265625 -1.9921875,-2.2265625 -0.6679688,0 -1.0429688,0.5039062 -1.2421875,0.984375 v -0.234375 c 0,-2.5195313 1.2421875,-2.8828125 1.7460937,-2.8828125 0.234375,0 0.65625,0.058594 0.8789063,0.3984375 -0.1523438,0 -0.5507813,0 -0.5507813,0.4453125 0,0.3164062 0.234375,0.4570312 0.4570313,0.4570312 0.1640625,0 0.4570312,-0.082031 0.4570312,-0.46875 0,-0.5976562 -0.4335937,-1.078125 -1.265625,-1.078125 -1.2773437,0 -2.61328123,1.2890625 -2.61328123,3.4804688 0,2.66015624 1.14843753,3.37499999 2.07421873,3.37499999 1.1132813,0 2.0507813,-0.9375 2.0507813,-2.24999999 z m -0.890625,-0.011719 c 0,0.4804688 0,0.9726563 -0.1640625,1.33593754 -0.3046875,0.59765625 -0.7617188,0.64453125 -0.9960938,0.64453125 -0.6210937,0 -0.9257812,-0.59765625 -0.984375,-0.75 C 1.3346094,-1.2760078 1.3346094,-2.0728828 1.3346094,-2.2486641 c 0,-0.7734375 0.3164062,-1.7695312 1.21875,-1.7695312 0.1523437,0 0.609375,0 0.9257812,0.609375 0.1757813,0.375 0.1757813,0.8789062 0.1757813,1.3710935 z m 0,0"
       style="fill:#000000;fill-opacity:1;fill-rule:nonzero;stroke:none"
       aria-label="6"
       transform="matrix(1.3333333,0,0,1.3333333,184.35333,135.424)" />
    <path
       id="path30"
       d="m -120.33612,-47.93872 42.1866,-31.63973"
       style="fill:none;stroke:#000000;stroke-width:0.3985;stroke-linecap:butt;stroke-linejoin:miter;stroke-miterlimit:10;stroke-dasharray:none;stroke-opacity:1"
       transform="matrix(1.3333333,0,0,-1.3333333,282.164,17.76)" />
    <path
       id="path31"
       d="m -80.34406,-127.56065 c 0,2.59372 -2.10258,4.6963 -4.69631,4.6963 -2.59374,0 -4.69633,-2.10258 -4.69633,-4.6963 0,-2.59374 2.10259,-4.69632 4.69633,-4.69632 2.59373,0 4.69631,2.10258 4.69631,4.69632 z"
       style="fill:none;stroke:#000000;stroke-width:0.3985;stroke-linecap:butt;stroke-linejoin:miter;stroke-miterlimit:10;stroke-dasharray:none;stroke-opacity:1"
       transform="matrix(1.3333333,0,0,-1.3333333,282.164,17.76)" />
    <path
       id="path32"
       d="m -73.74557,-93.67635 -9.74679,-29.2402"
       style="fill:none;stroke:#000000;stroke-width:0.3985;stroke-linecap:butt;stroke-linejoin:miter;stroke-miterlimit:10;stroke-dasharray:none;stroke-opacity:1"
       transform="matrix(1.3333333,0,0,-1.3333333,282.164,17.76)" />
    <path
       id="path33"
       d="m 4.5476484,-2.0259844 c 0,-1.265625 -0.8789062,-2.2265625 -1.9921875,-2.2265625 -0.6679687,0 -1.0429687,0.5039063 -1.2421875,0.984375 v -0.234375 c 0,-2.5195312 1.2421875,-2.8828125 1.7460938,-2.8828125 0.234375,0 0.65625,0.058594 0.8789062,0.3984375 -0.1523437,0 -0.5507812,0 -0.5507812,0.4453125 0,0.3164063 0.234375,0.4570313 0.4570312,0.4570313 0.1640625,0 0.4570313,-0.082031 0.4570313,-0.46875 0,-0.5976563 -0.4335938,-1.078125 -1.265625,-1.078125 -1.2773438,0 -2.61328126,1.2890625 -2.61328126,3.4804687 0,2.66015628 1.14843746,3.37500003 2.07421876,3.37500003 1.1132812,0 2.0507812,-0.9375 2.0507812,-2.25000003 z m -0.890625,-0.011719 c 0,0.4804687 0,0.9726562 -0.1640625,1.33593748 -0.3046875,0.59765625 -0.7617187,0.64453125 -0.9960937,0.64453125 -0.6210938,0 -0.9257813,-0.59765625 -0.984375,-0.75 C 1.3367109,-1.2759844 1.3367109,-2.0728594 1.3367109,-2.2486406 c 0,-0.7734375 0.3164063,-1.7695313 1.21875,-1.7695313 0.1523438,0 0.609375,0 0.9257813,0.609375 0.1757812,0.375 0.1757812,0.8789063 0.1757812,1.3710935 z m 0,0"
       style="fill:#000000;fill-opacity:1;fill-rule:nonzero;stroke:none"
       aria-label="6"
       transform="matrix(1.3333333,0,0,1.3333333,165.456,204.256)" />
    <path
       id="path34"
       d="m -51.99725,-127.56065 c 0,2.59372 -2.10259,4.6963 -4.69632,4.6963 -2.59373,0 -4.69631,-2.10258 -4.69631,-4.6963 0,-2.59374 2.10258,-4.69632 4.69631,-4.69632 2.59373,0 4.69632,2.10258 4.69632,4.69632 z"
       style="fill:none;stroke:#000000;stroke-width:0.3985;stroke-linecap:butt;stroke-linejoin:miter;stroke-miterlimit:10;stroke-dasharray:none;stroke-opacity:1"
       transform="matrix(1.3333333,0,0,-1.3333333,282.164,17.76)" />
    <path
       id="path35"
       d="m -67.9884,-93.67635 9.74682,-29.2402"
       style="fill:none;stroke:#000000;stroke-width:0.3985;stroke-linecap:butt;stroke-linejoin:miter;stroke-miterlimit:10;stroke-dasharray:none;stroke-opacity:1"
       transform="matrix(1.3333333,0,0,-1.3333333,282.164,17.76)" />
    <path
       id="path36"
       d="M 4.4779922,-1.7342266 H 4.2201797 c -0.046875,0.3046875 -0.1171875,0.73828129 -0.2109375,0.89062504 -0.070312,0.0820313 -0.7265625,0.0820313 -0.9492188,0.0820313 H 1.2670547 L 2.3217422,-1.7928203 c 1.5585937,-1.3710938 2.15625,-1.9101563 2.15625,-2.90625 0,-1.1367188 -0.9023438,-1.9335938 -2.1210938,-1.9335938 -1.125,0 -1.85156246,0.9140625 -1.85156246,1.8046875 0,0.5507813 0.4921875,0.5507813 0.52734376,0.5507813 0.1640625,0 0.515625,-0.1171875 0.515625,-0.5273438 0,-0.2578125 -0.1875,-0.515625 -0.5273438,-0.515625 -0.0820312,0 -0.10546871,0 -0.12890621,0.011719 0.22265621,-0.6445313 0.76171871,-1.0195313 1.33593751,-1.0195313 0.9140625,0 1.3359375,0.8085938 1.3359375,1.6289063 0,0.796875 -0.4921875,1.5820312 -1.0429688,2.203125 L 0.61080469,-0.36313281 C 0.50533594,-0.25766406 0.50533594,-0.23422656 0.50533594,1.484375e-4 H 4.1967422 Z m 0,0"
       style="fill:#000000;fill-opacity:1;fill-rule:nonzero;stroke:none"
       aria-label="2"
       transform="matrix(1.3333333,0,0,1.3333333,203.252,204.26933)" />
    <path
       id="path37"
       d="m 8.90425,-42.52022 c 0,4.91772 -3.98651,8.90422 -8.90423,8.90422 -4.9177,0 -8.90421,-3.9865 -8.90421,-8.90422 0,-4.91771 3.98651,-8.90422 8.90421,-8.90422 4.91772,0 8.90423,3.98651 8.90423,8.90422 z"
       style="fill:none;stroke:#000000;stroke-width:0.3985;stroke-linecap:butt;stroke-linejoin:miter;stroke-miterlimit:10;stroke-dasharray:none;stroke-opacity:1"
       transform="matrix(1.3333333,0,0,-1.3333333,282.164,17.76)" />
    <path
       id="path38"
       d="m 4.5476875,-1.6993672 c 0,-0.8203125 -0.6210938,-1.59375 -1.6523438,-1.8046875 0.8085938,-0.2695312 1.3945313,-0.9726562 1.3945313,-1.7578125 0,-0.8203125 -0.8789063,-1.3710937 -1.8398438,-1.3710937 -1.0078125,0 -1.75781245,0.5976562 -1.75781245,1.3476562 0,0.3398438 0.2109375,0.5273438 0.50390625,0.5273438 0.3046875,0 0.5039062,-0.2226563 0.5039062,-0.515625 0,-0.4921875 -0.46875,-0.4921875 -0.609375,-0.4921875 0.3046875,-0.4921875 0.9609375,-0.6210938 1.3242188,-0.6210938 0.4101562,0 0.9492187,0.2226563 0.9492187,1.1132813 0,0.1289062 -0.011719,0.703125 -0.2695312,1.1367187 -0.3046875,0.4804688 -0.6445313,0.515625 -0.890625,0.515625 -0.082031,0.011719 -0.3164063,0.035156 -0.3867188,0.035156 -0.082031,0.011719 -0.1523437,0.023437 -0.1523437,0.1171875 0,0.1171875 0.070312,0.1171875 0.234375,0.1171875 h 0.4453125 c 0.8085937,0 1.1835937,0.6679687 1.1835937,1.6523437 0,1.34765626 -0.6914062,1.64062501 -1.125,1.64062501 -0.4335937,0 -1.171875,-0.17578125 -1.52343745,-0.76171875 0.35156245,0.0585938 0.65624995,-0.1640625 0.65624995,-0.53906246 0,-0.3632813 -0.2695312,-0.5625 -0.56249995,-0.5625 -0.234375,0 -0.55078125,0.140625 -0.55078125,0.5742187 0,0.91406251 0.9257812,1.57031251 2.0039062,1.57031251 1.21875,0 2.1210938,-0.9140625 2.1210938,-1.92187471 z m 0,0"
       style="fill:#000000;fill-opacity:1;fill-rule:nonzero;stroke:none"
       aria-label="3"
       transform="matrix(1.3333333,0,0,1.3333333,278.84267,78.730667)" />
    <path
       id="path39"
       d="M 0,-9.03099 2e-5,-33.41673"
       style="fill:none;stroke:#000000;stroke-width:0.3985;stroke-linecap:butt;stroke-linejoin:miter;stroke-miterlimit:10;stroke-dasharray:none;stroke-opacity:1"
       transform="matrix(1.3333333,0,0,-1.3333333,282.164,17.76)" />
    <path
       id="path40"
       d="m -19.44254,-85.04044 c 0,4.91773 -3.98649,8.90422 -8.90422,8.90422 -4.91772,0 -8.90422,-3.98649 -8.90422,-8.90422 0,-4.91772 3.9865,-8.90422 8.90422,-8.90422 4.91773,0 8.90422,3.9865 8.90422,8.90422 z"
       style="fill:none;stroke:#000000;stroke-width:0.3985;stroke-linecap:butt;stroke-linejoin:miter;stroke-miterlimit:10;stroke-dasharray:none;stroke-opacity:1"
       transform="matrix(1.3333333,0,0,-1.3333333,282.164,17.76)" />
    <path
       id="path41"
       d="m 4.5460312,-1.6978828 c 0,-0.8203125 -0.6210937,-1.59375 -1.6523437,-1.8046875 0.8085937,-0.2695313 1.3945312,-0.9726563 1.3945312,-1.7578125 0,-0.8203125 -0.8789062,-1.3710938 -1.8398437,-1.3710938 -1.0078125,0 -1.7578125,0.5976563 -1.7578125,1.3476563 0,0.3398437 0.2109375,0.5273437 0.5039062,0.5273437 0.3046875,0 0.5039063,-0.2226562 0.5039063,-0.515625 0,-0.4921875 -0.46875,-0.4921875 -0.609375,-0.4921875 0.3046875,-0.4921875 0.9609375,-0.6210937 1.3242187,-0.6210937 0.4101563,0 0.9492188,0.2226562 0.9492188,1.1132812 0,0.1289063 -0.011719,0.703125 -0.2695313,1.1367188 -0.3046875,0.4804687 -0.6445312,0.515625 -0.890625,0.515625 -0.082031,0.011719 -0.3164062,0.035156 -0.3867187,0.035156 -0.082031,0.011719 -0.1523438,0.023437 -0.1523438,0.1171875 0,0.1171875 0.070312,0.1171875 0.234375,0.1171875 h 0.4453125 c 0.8085938,0 1.1835938,0.6679688 1.1835938,1.6523438 0,1.34765624 -0.6914063,1.64062499 -1.125,1.64062499 -0.4335938,0 -1.171875,-0.17578125 -1.5234375,-0.76171875 0.3515625,0.0585938 0.65625,-0.1640625 0.65625,-0.53906254 0,-0.3632812 -0.2695313,-0.5625 -0.5625,-0.5625 -0.234375,0 -0.55078125,0.140625 -0.55078125,0.5742188 0,0.91406249 0.92578125,1.57031249 2.00390625,1.57031249 1.21875,0 2.1210937,-0.9140625 2.1210937,-1.92187479 z m 0,0"
       style="fill:#000000;fill-opacity:1;fill-rule:nonzero;stroke:none"
       aria-label="3"
       transform="matrix(1.3333333,0,0,1.3333333,241.048,135.424)" />
    <path
       id="path42"
       d="M -5.04941,-50.09445 -23.29732,-77.4662"
       style="fill:none;stroke:#000000;stroke-width:0.3985;stroke-linecap:butt;stroke-linejoin:miter;stroke-miterlimit:10;stroke-dasharray:none;stroke-opacity:1"
       transform="matrix(1.3333333,0,0,-1.3333333,282.164,17.76)" />
    <path
       id="path43"
       d="m -37.82382,-127.56065 c 0,2.59372 -2.10258,4.6963 -4.69632,4.6963 -2.59374,0 -4.69632,-2.10258 -4.69632,-4.6963 0,-2.59374 2.10258,-4.69632 4.69632,-4.69632 2.59374,0 4.69632,2.10258 4.69632,4.69632 z"
       style="fill:none;stroke:#000000;stroke-width:0.3985;stroke-linecap:butt;stroke-linejoin:miter;stroke-miterlimit:10;stroke-dasharray:none;stroke-opacity:1"
       transform="matrix(1.3333333,0,0,-1.3333333,282.164,17.76)" />
    <path
       id="path44"
       d="m -31.22534,-93.67635 -9.74678,-29.2402"
       style="fill:none;stroke:#000000;stroke-width:0.3985;stroke-linecap:butt;stroke-linejoin:miter;stroke-miterlimit:10;stroke-dasharray:none;stroke-opacity:1"
       transform="matrix(1.3333333,0,0,-1.3333333,282.164,17.76)" />
    <path
       id="path45"
       d="M 4.1712031,1.484375e-4 V -0.30453906 H 3.8547969 c -0.9023438,0 -0.9257813,-0.1171875 -0.9257813,-0.48046875 V -6.3748516 c 0,-0.234375 0,-0.2578125 -0.234375,-0.2578125 -0.609375,0.6328125 -1.4882812,0.6328125 -1.80468748,0.6328125 v 0.3164063 c 0.19921878,0 0.78515628,0 1.30078128,-0.2578125 v 5.15624999 c 0,0.3515625 -0.035156,0.48046875 -0.9257813,0.48046875 H 0.94854687 V 1.484375e-4 C 1.3001094,-0.03500781 2.1555781,-0.03500781 2.5540156,-0.03500781 c 0.3984375,0 1.265625,0 1.6171875,0.0351562475 z m 0,0"
       style="fill:#000000;fill-opacity:1;fill-rule:nonzero;stroke:none"
       aria-label="1"
       transform="matrix(1.3333333,0,0,1.3333333,222.14933,204.26933)" />
    <path
       id="path46"
       d="m -9.477,-127.56065 c 0,2.59372 -2.1026,4.6963 -4.69632,4.6963 -2.59374,0 -4.69632,-2.10258 -4.69632,-4.6963 0,-2.59374 2.10258,-4.69632 4.69632,-4.69632 2.59372,0 4.69632,2.10258 4.69632,4.69632 z"
       style="fill:none;stroke:#000000;stroke-width:0.3985;stroke-linecap:butt;stroke-linejoin:miter;stroke-miterlimit:10;stroke-dasharray:none;stroke-opacity:1"
       transform="matrix(1.3333333,0,0,-1.3333333,282.164,17.76)" />
    <path
       id="path47"
       d="m -25.46817,-93.67635 9.74683,-29.2402"
       style="fill:none;stroke:#000000;stroke-width:0.3985;stroke-linecap:butt;stroke-linejoin:miter;stroke-miterlimit:10;stroke-dasharray:none;stroke-opacity:1"
       transform="matrix(1.3333333,0,0,-1.3333333,282.164,17.76)" />
    <path
       id="path48"
       d="m 4.5468594,-1.6978594 c 0,-0.8203125 -0.6210938,-1.59375 -1.6523438,-1.8046875 0.8085938,-0.2695312 1.3945313,-0.9726562 1.3945313,-1.7578125 0,-0.8203125 -0.8789063,-1.3710937 -1.8398438,-1.3710937 -1.0078125,0 -1.75781248,0.5976562 -1.75781248,1.3476562 0,0.3398438 0.2109375,0.5273438 0.50390628,0.5273438 0.3046875,0 0.5039062,-0.2226563 0.5039062,-0.515625 0,-0.4921875 -0.46875,-0.4921875 -0.609375,-0.4921875 0.3046875,-0.4921875 0.9609375,-0.6210938 1.3242188,-0.6210938 0.4101562,0 0.9492187,0.2226563 0.9492187,1.1132813 0,0.1289062 -0.011719,0.703125 -0.2695312,1.1367187 -0.3046875,0.4804688 -0.6445313,0.515625 -0.890625,0.515625 -0.082031,0.011719 -0.3164063,0.035156 -0.3867188,0.035156 -0.082031,0.011719 -0.1523437,0.023437 -0.1523437,0.1171875 0,0.1171875 0.070312,0.1171875 0.234375,0.1171875 h 0.4453125 c 0.8085937,0 1.1835937,0.6679687 1.1835937,1.6523437 0,1.34765628 -0.6914062,1.64062503 -1.125,1.64062503 -0.4335937,0 -1.171875,-0.17578125 -1.52343748,-0.76171875 0.35156248,0.0585938 0.65624998,-0.1640625 0.65624998,-0.53906248 0,-0.3632813 -0.2695312,-0.5625 -0.56249998,-0.5625 -0.234375,0 -0.55078125,0.140625 -0.55078125,0.5742187 0,0.91406253 0.92578123,1.57031253 2.00390623,1.57031253 1.21875,0 2.1210938,-0.9140625 2.1210938,-1.92187473 z m 0,0"
       style="fill:#000000;fill-opacity:1;fill-rule:nonzero;stroke:none"
       aria-label="3"
       transform="matrix(1.3333333,0,0,1.3333333,259.94533,204.256)" />
    <path
       id="path49"
       d="m 33.04318,-85.04044 c 0,2.59374 -2.10258,4.69632 -4.69632,4.69632 -2.59373,0 -4.69632,-2.10258 -4.69632,-4.69632 0,-2.59373 2.10259,-4.69632 4.69632,-4.69632 2.59374,0 4.69632,2.10259 4.69632,4.69632 z"
       style="fill:none;stroke:#000000;stroke-width:0.3985;stroke-linecap:butt;stroke-linejoin:miter;stroke-miterlimit:10;stroke-dasharray:none;stroke-opacity:1"
       transform="matrix(1.3333333,0,0,-1.3333333,282.164,17.76)" />
    <path
       id="path50"
       d="m 5.04947,-50.09445 20.58197,-30.8728"
       style="fill:none;stroke:#000000;stroke-width:0.3985;stroke-linecap:butt;stroke-linejoin:miter;stroke-miterlimit:10;stroke-dasharray:none;stroke-opacity:1"
       transform="matrix(1.3333333,0,0,-1.3333333,282.164,17.76)" />
    <path
       id="path51"
       d="m 18.8698,-127.56065 c 0,2.59372 -2.10259,4.6963 -4.69632,4.6963 -2.59374,0 -4.69632,-2.10258 -4.69632,-4.6963 0,-2.59374 2.10258,-4.69632 4.69632,-4.69632 2.59373,0 4.69632,2.10258 4.69632,4.69632 z"
       style="fill:none;stroke:#000000;stroke-width:0.3985;stroke-linecap:butt;stroke-linejoin:miter;stroke-miterlimit:10;stroke-dasharray:none;stroke-opacity:1"
       transform="matrix(1.3333333,0,0,-1.3333333,282.164,17.76)" />
    <path
       id="path52"
       d="M 26.79884,-89.68456 15.7215,-122.91655"
       style="fill:none;stroke:#000000;stroke-width:0.3985;stroke-linecap:butt;stroke-linejoin:miter;stroke-miterlimit:10;stroke-dasharray:none;stroke-opacity:1"
       transform="matrix(1.3333333,0,0,-1.3333333,282.164,17.76)" />
    <path
       id="path53"
       d="M 4.6881406,-1.6404453 V -1.9568516 H 3.6920469 v -4.5234375 c 0,-0.1992187 0,-0.2578125 -0.1523438,-0.2578125 -0.09375,0 -0.1171875,0 -0.1992187,0.1171875 l -3.05859377,4.6640625 v 0.3164063 H 2.9303281 v 0.86718749 c 0,0.3515625 -0.023437,0.46875 -0.7617187,0.46875 H 1.9576719 V 1.796875e-4 C 2.3678281,-0.03497656 2.8951719,-0.03497656 3.3053281,-0.03497656 c 0.421875,0 0.9492188,0 1.359375,0.0351562475 V -0.30450781 H 4.4537656 c -0.7382812,0 -0.7617187,-0.1171875 -0.7617187,-0.46875 V -1.6404453 Z M 2.9889219,-1.9568516 H 0.56314063 L 2.9889219,-5.6716953 Z m 0,0"
       style="fill:#000000;fill-opacity:1;fill-rule:nonzero;stroke:none"
       aria-label="4"
       transform="matrix(1.3333333,0,0,1.3333333,297.74133,204.37867)" />
    <path
       id="path54"
       d="m 47.21661,-127.56065 c 0,2.59372 -2.10258,4.6963 -4.69631,4.6963 -2.59374,0 -4.69633,-2.10258 -4.69633,-4.6963 0,-2.59374 2.10259,-4.69632 4.69633,-4.69632 2.59373,0 4.69631,2.10258 4.69631,4.69632 z"
       style="fill:none;stroke:#000000;stroke-width:0.3985;stroke-linecap:butt;stroke-linejoin:miter;stroke-miterlimit:10;stroke-dasharray:none;stroke-opacity:1"
       transform="matrix(1.3333333,0,0,-1.3333333,282.164,17.76)" />
    <path
       id="path55"
       d="m 29.89488,-89.68456 11.07739,-33.23199"
       style="fill:none;stroke:#000000;stroke-width:0.3985;stroke-linecap:butt;stroke-linejoin:miter;stroke-miterlimit:10;stroke-dasharray:none;stroke-opacity:1"
       transform="matrix(1.3333333,0,0,-1.3333333,282.164,17.76)" />
    <path
       id="path56"
       d="m 4.5833281,-3.1861406 c 0,-0.796875 -0.046875,-1.59375 -0.3984375,-2.3320313 -0.4570312,-0.9609375 -1.2773437,-1.1132812 -1.6875,-1.1132812 -0.5976562,0 -1.3359375,0.2578125 -1.73437497,1.1835937 -0.328125,0.6914063 -0.375,1.4648438 -0.375,2.2617188 0,0.75 0.046875,1.640625 0.4453125,2.40234373 0.43359377,0.80859375 1.16015627,1.0078125 1.65234377,1.0078125 0.5390625,0 1.2890625,-0.2109375 1.734375,-1.16015625 C 4.5364531,-1.6275469 4.5833281,-2.4009844 4.5833281,-3.1861406 Z M 3.7512969,-3.3033281 c 0,0.75 0,1.4179687 -0.1054688,2.0625 -0.1523437,0.93749998 -0.7148437,1.24218748 -1.1601562,1.24218748 -0.3867188,0 -0.984375,-0.24609375 -1.1601563,-1.20703128 -0.1054687,-0.5976562 -0.1054687,-1.5117187 -0.1054687,-2.0976562 0,-0.6445313 0,-1.3007813 0.082031,-1.8398438 0.1875,-1.1835937 0.9257813,-1.265625 1.1835938,-1.265625 0.328125,0 0.984375,0.1757813 1.171875,1.1601563 0.09375,0.5625 0.09375,1.3125 0.09375,1.9453125 z m 0,0"
       style="fill:#000000;fill-opacity:1;fill-rule:nonzero;stroke:none"
       aria-label="0"
       transform="matrix(1.3333333,0,0,1.3333333,335.53733,204.256)" />
    <path
       id="path57"
       d="m 108.01888,-42.52022 c 0,4.86292 -3.94207,8.80499 -8.80498,8.80499 -4.86292,0 -8.805,-3.94207 -8.805,-8.80499 0,-4.86291 3.94208,-8.80498 8.805,-8.80498 4.86291,0 8.80498,3.94207 8.80498,8.80498 z"
       style="fill:none;stroke:#000000;stroke-width:0.3985;stroke-linecap:butt;stroke-linejoin:miter;stroke-miterlimit:10;stroke-dasharray:none;stroke-opacity:1"
       transform="matrix(1.3333333,0,0,-1.3333333,282.164,17.76)" />
    <path
       id="path58"
       d="M 4.4772422,-1.7331953 H 4.2194297 c -0.046875,0.3046875 -0.1171875,0.73828124 -0.2109375,0.89062499 -0.070312,0.0820313 -0.7265625,0.0820313 -0.9492188,0.0820313 H 1.2663047 L 2.3209922,-1.7917891 c 1.5585937,-1.3710937 2.15625,-1.9101562 2.15625,-2.90625 0,-1.1367187 -0.9023438,-1.9335937 -2.1210938,-1.9335937 -1.125,0 -1.85156246,0.9140625 -1.85156246,1.8046875 0,0.5507812 0.4921875,0.5507812 0.52734376,0.5507812 0.1640625,0 0.515625,-0.1171875 0.515625,-0.5273437 0,-0.2578125 -0.1875,-0.515625 -0.5273438,-0.515625 -0.0820312,0 -0.10546871,0 -0.12890621,0.011719 C 1.1139609,-5.951945 1.6530234,-6.326945 2.2272422,-6.326945 c 0.9140625,0 1.3359375,0.8085937 1.3359375,1.6289062 0,0.796875 -0.4921875,1.5820313 -1.0429688,2.203125 L 0.61005469,-0.36210156 C 0.50458594,-0.25663281 0.50458594,-0.23319531 0.50458594,0.00117969 H 4.1959922 Z m 0,0"
       style="fill:#000000;fill-opacity:1;fill-rule:nonzero;stroke:none"
       aria-label="2"
       transform="matrix(1.3333333,0,0,1.3333333,411.128,78.877333)" />
    <path
       id="path59"
       d="m 8.30049,-3.5572 82.6375,-35.41633"
       style="fill:none;stroke:#000000;stroke-width:0.3985;stroke-linecap:butt;stroke-linejoin:miter;stroke-miterlimit:10;stroke-dasharray:none;stroke-opacity:1"
       transform="matrix(1.3333333,0,0,-1.3333333,282.164,17.76)" />
    <path
       id="path60"
       d="m 79.67209,-85.04044 c 0,4.86292 -3.94208,8.80498 -8.80499,8.80498 -4.86292,0 -8.80498,-3.94206 -8.80498,-8.80498 0,-4.86291 3.94206,-8.80499 8.80498,-8.80499 4.86291,0 8.80499,3.94208 8.80499,8.80499 z"
       style="fill:none;stroke:#000000;stroke-width:0.3985;stroke-linecap:butt;stroke-linejoin:miter;stroke-miterlimit:10;stroke-dasharray:none;stroke-opacity:1"
       transform="matrix(1.3333333,0,0,-1.3333333,282.164,17.76)" />
    <path
       id="path61"
       d="M 4.4765859,-1.7346406 H 4.2187734 c -0.046875,0.3046875 -0.1171875,0.73828123 -0.2109375,0.89062498 -0.070312,0.0820313 -0.7265625,0.0820313 -0.9492187,0.0820313 H 1.2656484 L 2.3203359,-1.7932344 c 1.5585938,-1.3710937 2.15625,-1.9101562 2.15625,-2.90625 0,-1.1367187 -0.9023437,-1.9335937 -2.1210937,-1.9335937 -1.125,0 -1.85156251,0.9140625 -1.85156251,1.8046875 0,0.5507812 0.4921875,0.5507812 0.52734371,0.5507812 0.1640625,0 0.515625,-0.1171875 0.515625,-0.5273437 0,-0.2578125 -0.1875,-0.515625 -0.5273437,-0.515625 -0.0820313,0 -0.10546876,0 -0.12890626,0.011719 0.22265626,-0.6445312 0.76171876,-1.0195312 1.33593746,-1.0195312 0.9140625,0 1.3359375,0.8085937 1.3359375,1.6289062 0,0.796875 -0.4921875,1.5820313 -1.0429687,2.203125 L 0.60939844,-0.36354687 C 0.50392969,-0.25807812 0.50392969,-0.23464062 0.50392969,-2.65625e-4 H 4.1953359 Z m 0,0"
       style="fill:#000000;fill-opacity:1;fill-rule:nonzero;stroke:none"
       aria-label="2"
       transform="matrix(1.3333333,0,0,1.3333333,373.332,135.57067)" />
    <path
       id="path62"
       d="M 94.2195,-50.01187 75.8615,-77.54878"
       style="fill:none;stroke:#000000;stroke-width:0.3985;stroke-linecap:butt;stroke-linejoin:miter;stroke-miterlimit:10;stroke-dasharray:none;stroke-opacity:1"
       transform="matrix(1.3333333,0,0,-1.3333333,282.164,17.76)" />
    <path
       id="path63"
       d="m 61.39003,-127.56065 c 0,2.59372 -2.10258,4.6963 -4.6963,4.6963 -2.59374,0 -4.69633,-2.10258 -4.69633,-4.6963 0,-2.59374 2.10259,-4.69632 4.69633,-4.69632 2.59372,0 4.6963,2.10258 4.6963,4.69632 z"
       style="fill:none;stroke:#000000;stroke-width:0.3985;stroke-linecap:butt;stroke-linejoin:miter;stroke-miterlimit:10;stroke-dasharray:none;stroke-opacity:1"
       transform="matrix(1.3333333,0,0,-1.3333333,282.164,17.76)" />
    <path
       id="path64"
       d="m 68.0199,-93.5822 -9.77817,-29.33435"
       style="fill:none;stroke:#000000;stroke-width:0.3985;stroke-linecap:butt;stroke-linejoin:miter;stroke-miterlimit:10;stroke-dasharray:none;stroke-opacity:1"
       transform="matrix(1.3333333,0,0,-1.3333333,282.164,17.76)" />
    <path
       id="path65"
       d="M 4.4757578,-1.7342266 H 4.2179453 c -0.046875,0.3046875 -0.1171875,0.73828129 -0.2109375,0.89062504 -0.070313,0.0820313 -0.7265625,0.0820313 -0.9492187,0.0820313 H 1.2648203 L 2.3195078,-1.7928203 c 1.5585938,-1.3710938 2.15625,-1.9101563 2.15625,-2.90625 0,-1.1367188 -0.9023437,-1.9335938 -2.1210937,-1.9335938 -1.125,0 -1.85156254,0.9140625 -1.85156254,1.8046875 0,0.5507813 0.4921875,0.5507813 0.52734374,0.5507813 0.1640625,0 0.515625,-0.1171875 0.515625,-0.5273438 0,-0.2578125 -0.1875,-0.515625 -0.5273437,-0.515625 -0.0820313,0 -0.10546879,0 -0.12890629,0.011719 0.22265629,-0.6445313 0.76171879,-1.0195313 1.33593749,-1.0195313 0.9140625,0 1.3359375,0.8085938 1.3359375,1.6289063 0,0.796875 -0.4921875,1.5820312 -1.0429687,2.203125 L 0.60857031,-0.36313281 C 0.50310156,-0.25766406 0.50310156,-0.23422656 0.50310156,1.484375e-4 H 4.1945078 Z m 0,0"
       style="fill:#000000;fill-opacity:1;fill-rule:nonzero;stroke:none"
       aria-label="2"
       transform="matrix(1.3333333,0,0,1.3333333,354.43467,204.26933)" />
    <path
       id="path66"
       d="m 89.73685,-127.56065 c 0,2.59372 -2.10259,4.6963 -4.69632,4.6963 -2.59373,0 -4.69632,-2.10258 -4.69632,-4.6963 0,-2.59374 2.10259,-4.69632 4.69632,-4.69632 2.59373,0 4.69632,2.10258 4.69632,4.69632 z"
       style="fill:none;stroke:#000000;stroke-width:0.3985;stroke-linecap:butt;stroke-linejoin:miter;stroke-miterlimit:10;stroke-dasharray:none;stroke-opacity:1"
       transform="matrix(1.3333333,0,0,-1.3333333,282.164,17.76)" />
    <path
       id="path67"
       d="m 73.71431,-93.5822 9.7782,-29.33435"
       style="fill:none;stroke:#000000;stroke-width:0.3985;stroke-linecap:butt;stroke-linejoin:miter;stroke-miterlimit:10;stroke-dasharray:none;stroke-opacity:1"
       transform="matrix(1.3333333,0,0,-1.3333333,282.164,17.76)" />
    <path
       id="path68"
       d="M 4.1717266,1.484375e-4 V -0.30453906 H 3.8553203 c -0.9023437,0 -0.9257812,-0.1171875 -0.9257812,-0.48046875 V -6.3748516 c 0,-0.234375 0,-0.2578125 -0.234375,-0.2578125 -0.609375,0.6328125 -1.4882813,0.6328125 -1.80468754,0.6328125 v 0.3164063 c 0.19921874,0 0.78515624,0 1.30078124,-0.2578125 v 5.15624999 c 0,0.3515625 -0.035156,0.48046875 -0.9257812,0.48046875 H 0.94907031 V 1.484375e-4 C 1.3006328,-0.03500781 2.1561016,-0.03500781 2.5545391,-0.03500781 c 0.3984375,0 1.265625,0 1.6171875,0.0351562475 z m 0,0"
       style="fill:#000000;fill-opacity:1;fill-rule:nonzero;stroke:none"
       aria-label="1"
       transform="matrix(1.3333333,0,0,1.3333333,392.23067,204.26933)" />
    <path
       id="path69"
       d="m 132.25705,-85.04044 c 0,2.59374 -2.10259,4.69632 -4.69632,4.69632 -2.59372,0 -4.6963,-2.10258 -4.6963,-4.69632 0,-2.59373 2.10258,-4.69632 4.6963,-4.69632 2.59373,0 4.69632,2.10259 4.69632,4.69632 z"
       style="fill:none;stroke:#000000;stroke-width:0.3985;stroke-linecap:butt;stroke-linejoin:miter;stroke-miterlimit:10;stroke-dasharray:none;stroke-opacity:1"
       transform="matrix(1.3333333,0,0,-1.3333333,282.164,17.76)" />
    <path
       id="path70"
       d="m 104.2083,-50.01187 20.637,-30.95538"
       style="fill:none;stroke:#000000;stroke-width:0.3985;stroke-linecap:butt;stroke-linejoin:miter;stroke-miterlimit:10;stroke-dasharray:none;stroke-opacity:1"
       transform="matrix(1.3333333,0,0,-1.3333333,282.164,17.76)" />
    <path
       id="path71"
       d="m 118.08366,-127.56065 c 0,2.59372 -2.10258,4.6963 -4.6963,4.6963 -2.59374,0 -4.69632,-2.10258 -4.69632,-4.6963 0,-2.59374 2.10258,-4.69632 4.69632,-4.69632 2.59372,0 4.6963,2.10258 4.6963,4.69632 z"
       style="fill:none;stroke:#000000;stroke-width:0.3985;stroke-linecap:butt;stroke-linejoin:miter;stroke-miterlimit:10;stroke-dasharray:none;stroke-opacity:1"
       transform="matrix(1.3333333,0,0,-1.3333333,282.164,17.76)" />
    <path
       id="path72"
       d="m 126.01271,-89.68456 -11.07735,-33.23199"
       style="fill:none;stroke:#000000;stroke-width:0.3985;stroke-linecap:butt;stroke-linejoin:miter;stroke-miterlimit:10;stroke-dasharray:none;stroke-opacity:1"
       transform="matrix(1.3333333,0,0,-1.3333333,282.164,17.76)" />
    <path
       id="path73"
       d="m 4.4770703,-2.0025469 c 0,-1.1835937 -0.8203125,-2.1796875 -1.8984375,-2.1796875 -0.4804687,0 -0.9023437,0.1640625 -1.265625,0.5039063 v -1.9335938 c 0.1992188,0.058594 0.5273438,0.1289063 0.84375,0.1289063 1.2304688,0 1.9335938,-0.9140625 1.9335938,-1.0429688 0,-0.058594 -0.035156,-0.1054687 -0.1054688,-0.1054687 0,0 -0.035156,0 -0.082031,0.023437 -0.1992188,0.09375 -0.6796875,0.2929687 -1.3476563,0.2929687 -0.3984375,0 -0.8554687,-0.070312 -1.3242187,-0.28125 -0.082031,-0.023437 -0.1289063,-0.023437 -0.1289063,-0.023437 -0.09375,0 -0.09375,0.082031 -0.09375,0.234375 v 2.953125 c 0,0.1757813 0,0.2578125 0.140625,0.2578125 0.070312,0 0.082031,-0.035156 0.1289063,-0.09375 0.1054687,-0.1523437 0.4804687,-0.6914062 1.2773437,-0.6914062 0.5273438,0 0.7734375,0.4570312 0.8554688,0.6328125 0.1523437,0.375 0.1757812,0.7617187 0.1757812,1.2539062 0,0.3515625 0,0.9492188 -0.234375,1.37109378 -0.2460937,0.38671875 -0.609375,0.64453125 -1.0664062,0.64453125 -0.7265625,0 -1.30078129,-0.52734375 -1.46484379,-1.11328123 0.0234375,0.011719 0.0585938,0.011719 0.1640625,0.011719 0.32812499,0 0.50390629,-0.2460937 0.50390629,-0.4804687 0,-0.2460938 -0.1757813,-0.4921875 -0.50390629,-0.4921875 -0.140625,0 -0.48046875,0.070312 -0.48046875,0.5273437 0,0.85546878 0.67968754,1.82812503 1.79296874,1.82812503 1.1601563,0 2.1796875,-0.9609375 2.1796873,-2.22656283 z m 0,0"
       style="fill:#000000;fill-opacity:1;fill-rule:nonzero;stroke:none"
       aria-label="5"
       transform="matrix(1.3333333,0,0,1.3333333,430.02667,204.256)" />
    <path
       id="path74"
       d="m 146.43048,-127.56065 c 0,2.59372 -2.10258,4.6963 -4.69632,4.6963 -2.59373,0 -4.69632,-2.10258 -4.69632,-4.6963 0,-2.59374 2.10259,-4.69632 4.69632,-4.69632 2.59374,0 4.69632,2.10258 4.69632,4.69632 z"
       style="fill:none;stroke:#000000;stroke-width:0.3985;stroke-linecap:butt;stroke-linejoin:miter;stroke-miterlimit:10;stroke-dasharray:none;stroke-opacity:1"
       transform="matrix(1.3333333,0,0,-1.3333333,282.164,17.76)" />
    <path
       id="path75"
       d="m 129.10875,-89.68456 11.07739,-33.23199"
       style="fill:none;stroke:#000000;stroke-width:0.3985;stroke-linecap:butt;stroke-linejoin:miter;stroke-miterlimit:10;stroke-dasharray:none;stroke-opacity:1"
       transform="matrix(1.3333333,0,0,-1.3333333,282.164,17.76)" />
    <path
       id="path76"
       d="M 4.8273594,-6.4114141 H 2.4132969 c -1.21875,0 -1.2421875,-0.1289062 -1.2773438,-0.328125 H 0.88985938 l -0.328125,2.0507813 h 0.24609375 c 0.0234375,-0.1523438 0.1171875,-0.7851563 0.24609377,-0.9023438 0.070312,-0.058594 0.84375,-0.058594 0.9726562,-0.058594 h 2.0625 l -1.1132812,1.5703125 c -0.890625,1.3476562 -1.21875,2.7304687 -1.21875,3.74999999 0,0.09375 0,0.55078125 0.4570312,0.55078125 0.4570313,0 0.4570313,-0.45703125 0.4570313,-0.55078125 v -0.50390625 c 0,-0.55078124 0.023437,-1.10156254 0.1054687,-1.64062504 0.046875,-0.2226562 0.1757813,-1.078125 0.6210938,-1.6992187 l 1.3476562,-1.8984375 c 0.082031,-0.1171875 0.082031,-0.140625 0.082031,-0.3398435 z m 0,0"
       style="fill:#000000;fill-opacity:1;fill-rule:nonzero;stroke:none"
       aria-label="7"
       transform="matrix(1.3333333,0,0,1.3333333,467.82133,204.34933)" />
    <path
       id="path77"
       d="m -67.74684,-109.59045 7.97023,7.97024"
       style="fill:none;stroke:#ff0000;stroke-width:0.3985;stroke-linecap:butt;stroke-linejoin:miter;stroke-miterlimit:10;stroke-dasharray:none;stroke-opacity:1"
       transform="matrix(1.3333333,0,0,-1.3333333,282.164,17.76)" />
    <path
       id="path78"
       d="m 9.96277,-69.73938 7.97023,7.97025"
       style="fill:none;stroke:#ff0000;stroke-width:0.3985;stroke-linecap:butt;stroke-linejoin:miter;stroke-miterlimit:10;stroke-dasharray:none;stroke-opacity:1"
       transform="matrix(1.3333333,0,0,-1.3333333,282.164,17.76)" />
    <path
       id="path79"
       d="m 109.59045,-69.73938 7.97023,7.97025"
       style="fill:none;stroke:#ff0000;stroke-width:0.3985;stroke-linecap:butt;stroke-linejoin:miter;stroke-miterlimit:10;stroke-dasharray:none;stroke-opacity:1"
       transform="matrix(1.3333333,0,0,-1.3333333,282.164,17.76)" />
  </g>
</svg>
