<?xml version="1.0" encoding="UTF-8" standalone="no"?>
<!-- Created with Inkscape (http://www.inkscape.org/) -->

<svg
   version="1.1"
   id="svg1"
   width="488.76001"
   height="212.12"
   viewBox="0 0 488.76001 212.12"
   sodipodi:docname="24-25-1-人工智能原理-期末-题图4.pdf"
   xmlns:inkscape="http://www.inkscape.org/namespaces/inkscape"
   xmlns:sodipodi="http://sodipodi.sourceforge.net/DTD/sodipodi-0.dtd"
   xmlns="http://www.w3.org/2000/svg"
   xmlns:svg="http://www.w3.org/2000/svg">
  <defs
     id="defs1" />
  <sodipodi:namedview
     id="namedview1"
     pagecolor="#ffffff"
     bordercolor="#000000"
     borderopacity="0.25"
     inkscape:showpageshadow="2"
     inkscape:pageopacity="0.0"
     inkscape:pagecheckerboard="0"
     inkscape:deskcolor="#d1d1d1">
    <inkscape:page
       x="0"
       y="0"
       inkscape:label="1"
       id="page1"
       width="488.76001"
       height="212.12"
       margin="0"
       bleed="0" />
  </sodipodi:namedview>
  <g
     id="g1"
     inkscape:groupmode="layer"
     inkscape:label="1">
    <path
       id="path1"
       d="M -211.62582,-149.90172 V 9.18951 h 366.57786 v -159.09123 z"
       style="fill:#ffffff;fill-opacity:1;fill-rule:nonzero;stroke:none"
       transform="matrix(1.3333333,0,0,-1.3333333,282.164,12.253333)" />
    <path
       id="path2"
       d="M 4.6963,0 C 4.6963,2.59372 2.59372,4.6963 0,4.6963 -2.59372,4.6963 -4.6963,2.59372 -4.6963,0 c 0,-2.59372 2.10258,-4.6963 4.6963,-4.6963 2.59372,0 4.6963,2.10258 4.6963,4.6963 z"
       style="fill:none;stroke:#000000;stroke-width:0.3985;stroke-linecap:butt;stroke-linejoin:miter;stroke-miterlimit:10;stroke-dasharray:none;stroke-opacity:1"
       transform="matrix(1.3333333,0,0,-1.3333333,282.164,12.253333)" />
    <path
       id="path3"
       d="m -122.86435,-42.52022 c 0,2.59374 -2.10258,4.69632 -4.6963,4.69632 -2.59374,0 -4.69632,-2.10258 -4.69632,-4.69632 0,-2.59373 2.10258,-4.69632 4.69632,-4.69632 2.59372,0 4.6963,2.10259 4.6963,4.69632 z"
       style="fill:none;stroke:#000000;stroke-width:0.3985;stroke-linecap:butt;stroke-linejoin:miter;stroke-miterlimit:10;stroke-dasharray:none;stroke-opacity:1"
       transform="matrix(1.3333333,0,0,-1.3333333,282.164,12.253333)" />
    <path
       id="path4"
       d="M -4.6441,-1.548 -122.91655,-40.9722"
       style="fill:none;stroke:#000000;stroke-width:0.3985;stroke-linecap:butt;stroke-linejoin:miter;stroke-miterlimit:10;stroke-dasharray:none;stroke-opacity:1"
       transform="matrix(1.3333333,0,0,-1.3333333,282.164,12.253333)" />
    <path
       id="path5"
       d="m -179.55795,-85.04044 c 0,2.59374 -2.10259,4.69632 -4.69631,4.69632 -2.59373,0 -4.69632,-2.10258 -4.69632,-4.69632 0,-2.59373 2.10259,-4.69632 4.69632,-4.69632 2.59372,0 4.69631,2.10259 4.69631,4.69632 z"
       style="fill:none;stroke:#000000;stroke-width:0.3985;stroke-linecap:butt;stroke-linejoin:miter;stroke-miterlimit:10;stroke-dasharray:none;stroke-opacity:1"
       transform="matrix(1.3333333,0,0,-1.3333333,282.164,12.253333)" />
    <path
       id="path6"
       d="m -131.47697,-45.4575 -48.86098,-36.64563"
       style="fill:none;stroke:#000000;stroke-width:0.3985;stroke-linecap:butt;stroke-linejoin:miter;stroke-miterlimit:10;stroke-dasharray:none;stroke-opacity:1"
       transform="matrix(1.3333333,0,0,-1.3333333,282.164,12.253333)" />
    <path
       id="path7"
       d="m -193.73132,-127.56065 c 0,2.59372 -2.10259,4.6963 -4.69632,4.6963 -2.59374,0 -4.69632,-2.10258 -4.69632,-4.6963 0,-2.59374 2.10258,-4.69632 4.69632,-4.69632 2.59373,0 4.69632,2.10258 4.69632,4.69632 z"
       style="fill:none;stroke:#000000;stroke-width:0.3985;stroke-linecap:butt;stroke-linejoin:miter;stroke-miterlimit:10;stroke-dasharray:none;stroke-opacity:1"
       transform="matrix(1.3333333,0,0,-1.3333333,282.164,12.253333)" />
    <path
       id="path8"
       d="m -185.80228,-89.68456 -11.07734,-33.23199"
       style="fill:none;stroke:#000000;stroke-width:0.3985;stroke-linecap:butt;stroke-linejoin:miter;stroke-miterlimit:10;stroke-dasharray:none;stroke-opacity:1"
       transform="matrix(1.3333333,0,0,-1.3333333,282.164,12.253333)" />
    <path
       id="path9"
       d="m 4.4766406,-2.0034063 c 0,-1.1835937 -0.8203125,-2.1796875 -1.8984375,-2.1796875 -0.4804687,0 -0.9023437,0.1640625 -1.265625,0.5039063 v -1.9335938 c 0.1992188,0.058594 0.5273438,0.1289063 0.84375,0.1289063 1.2304688,0 1.9335938,-0.9140625 1.9335938,-1.0429688 0,-0.058594 -0.035156,-0.1054687 -0.1054688,-0.1054687 0,0 -0.035156,0 -0.082031,0.023437 -0.1992188,0.09375 -0.6796875,0.2929687 -1.3476563,0.2929687 -0.3984375,0 -0.8554687,-0.070312 -1.3242187,-0.28125 -0.082031,-0.023437 -0.1289063,-0.023437 -0.1289063,-0.023437 -0.09375,0 -0.09375,0.082031 -0.09375,0.234375 v 2.953125 c 0,0.1757813 0,0.2578125 0.140625,0.2578125 0.070312,0 0.082031,-0.035156 0.1289063,-0.09375 0.1054687,-0.1523437 0.4804687,-0.6914062 1.2773437,-0.6914062 0.5273438,0 0.7734375,0.4570312 0.8554688,0.6328125 0.1523437,0.375 0.1757812,0.7617187 0.1757812,1.2539062 0,0.3515625 0,0.9492188 -0.234375,1.3710938 -0.2460937,0.38671875 -0.609375,0.64453125 -1.0664062,0.64453125 -0.7265625,0 -1.30078127,-0.52734375 -1.46484377,-1.11328125 0.0234375,0.011719 0.0585938,0.011719 0.1640625,0.011719 0.32812497,0 0.50390627,-0.2460937 0.50390627,-0.4804687 0,-0.2460938 -0.1757813,-0.4921875 -0.50390627,-0.4921875 -0.140625,0 -0.48046875,0.070312 -0.48046875,0.5273437 0,0.8554688 0.67968752,1.82812505 1.79296872,1.82812505 1.1601563,0 2.1796875,-0.9609375 2.1796873,-2.22656285 z m 0,0"
       style="fill:#000000;fill-opacity:1;fill-rule:nonzero;stroke:none"
       aria-label="5"
       transform="matrix(1.3333333,0,0,1.3333333,14.273333,198.74933)" />
    <path
       id="path10"
       d="m -165.38452,-127.56065 c 0,2.59372 -2.10258,4.6963 -4.69632,4.6963 -2.59372,0 -4.69632,-2.10258 -4.69632,-4.6963 0,-2.59374 2.1026,-4.69632 4.69632,-4.69632 2.59374,0 4.69632,2.10258 4.69632,4.69632 z"
       style="fill:none;stroke:#000000;stroke-width:0.3985;stroke-linecap:butt;stroke-linejoin:miter;stroke-miterlimit:10;stroke-dasharray:none;stroke-opacity:1"
       transform="matrix(1.3333333,0,0,-1.3333333,282.164,12.253333)" />
    <path
       id="path11"
       d="m -182.70625,-89.68456 11.07739,-33.23199"
       style="fill:none;stroke:#000000;stroke-width:0.3985;stroke-linecap:butt;stroke-linejoin:miter;stroke-miterlimit:10;stroke-dasharray:none;stroke-opacity:1"
       transform="matrix(1.3333333,0,0,-1.3333333,282.164,12.253333)" />
    <path
       id="path12"
       d="m 4.5456797,-1.6987188 c 0,-0.8203125 -0.6210938,-1.59375 -1.6523438,-1.8046875 0.8085938,-0.2695312 1.3945313,-0.9726562 1.3945313,-1.7578125 0,-0.8203125 -0.8789063,-1.3710937 -1.8398438,-1.3710937 -1.0078125,0 -1.75781246,0.5976562 -1.75781246,1.3476562 0,0.3398438 0.2109375,0.5273438 0.50390626,0.5273438 0.3046875,0 0.5039062,-0.2226563 0.5039062,-0.515625 0,-0.4921875 -0.46875,-0.4921875 -0.609375,-0.4921875 0.3046875,-0.4921875 0.9609375,-0.6210938 1.3242188,-0.6210938 0.4101562,0 0.9492187,0.2226563 0.9492187,1.1132813 0,0.1289062 -0.011719,0.703125 -0.2695312,1.1367187 -0.3046875,0.4804688 -0.6445313,0.515625 -0.890625,0.515625 -0.082031,0.011719 -0.3164063,0.035156 -0.3867188,0.035156 -0.082031,0.011719 -0.1523437,0.023437 -0.1523437,0.1171875 0,0.1171875 0.070312,0.1171875 0.234375,0.1171875 h 0.4453125 c 0.8085937,0 1.1835937,0.6679687 1.1835937,1.6523437 0,1.3476563 -0.6914062,1.64062505 -1.125,1.64062505 -0.4335937,0 -1.171875,-0.17578125 -1.52343746,-0.76171875 0.35156246,0.0585938 0.65624996,-0.1640625 0.65624996,-0.5390625 0,-0.3632813 -0.2695312,-0.5625 -0.56249996,-0.5625 -0.234375,0 -0.55078125,0.140625 -0.55078125,0.5742187 0,0.91406255 0.92578121,1.57031255 2.00390621,1.57031255 1.21875,0 2.1210938,-0.9140625 2.1210938,-1.92187475 z m 0,0"
       style="fill:#000000;fill-opacity:1;fill-rule:nonzero;stroke:none"
       aria-label="3"
       transform="matrix(1.3333333,0,0,1.3333333,52.068,198.74933)" />
    <path
       id="path13"
       d="m -122.86432,-85.04044 c 0,2.59374 -2.10258,4.69632 -4.6963,4.69632 -2.59374,0 -4.69632,-2.10258 -4.69632,-4.69632 0,-2.59373 2.10258,-4.69632 4.69632,-4.69632 2.59372,0 4.6963,2.10259 4.6963,4.69632 z"
       style="fill:none;stroke:#000000;stroke-width:0.3985;stroke-linecap:butt;stroke-linejoin:miter;stroke-miterlimit:10;stroke-dasharray:none;stroke-opacity:1"
       transform="matrix(1.3333333,0,0,-1.3333333,282.164,12.253333)" />
    <path
       id="path14"
       d="m -127.56065,-47.41579 3e-5,-32.72908"
       style="fill:none;stroke:#000000;stroke-width:0.3985;stroke-linecap:butt;stroke-linejoin:miter;stroke-miterlimit:10;stroke-dasharray:none;stroke-opacity:1"
       transform="matrix(1.3333333,0,0,-1.3333333,282.164,12.253333)" />
    <path
       id="path15"
       d="m -151.21109,-127.56065 c 0,2.59372 -2.10258,4.6963 -4.69632,4.6963 -2.59373,0 -4.69632,-2.10258 -4.69632,-4.6963 0,-2.59374 2.10259,-4.69632 4.69632,-4.69632 2.59374,0 4.69632,2.10258 4.69632,4.69632 z"
       style="fill:none;stroke:#000000;stroke-width:0.3985;stroke-linecap:butt;stroke-linejoin:miter;stroke-miterlimit:10;stroke-dasharray:none;stroke-opacity:1"
       transform="matrix(1.3333333,0,0,-1.3333333,282.164,12.253333)" />
    <path
       id="path16"
       d="m -130.27605,-89.11363 -22.91594,-34.37384"
       style="fill:none;stroke:#000000;stroke-width:0.3985;stroke-linecap:butt;stroke-linejoin:miter;stroke-miterlimit:10;stroke-dasharray:none;stroke-opacity:1"
       transform="matrix(1.3333333,0,0,-1.3333333,282.164,12.253333)" />
    <path
       id="path17"
       d="m 4.5455078,-1.6987188 c 0,-0.8203125 -0.6210937,-1.59375 -1.6523437,-1.8046875 0.8085937,-0.2695312 1.3945312,-0.9726562 1.3945312,-1.7578125 0,-0.8203125 -0.8789062,-1.3710937 -1.8398437,-1.3710937 -1.0078125,0 -1.75781254,0.5976562 -1.75781254,1.3476562 0,0.3398438 0.2109375,0.5273438 0.50390624,0.5273438 0.3046875,0 0.5039063,-0.2226563 0.5039063,-0.515625 0,-0.4921875 -0.46875,-0.4921875 -0.609375,-0.4921875 0.3046875,-0.4921875 0.9609375,-0.6210938 1.3242187,-0.6210938 0.4101563,0 0.9492188,0.2226563 0.9492188,1.1132813 0,0.1289062 -0.011719,0.703125 -0.2695313,1.1367187 -0.3046875,0.4804688 -0.6445312,0.515625 -0.890625,0.515625 -0.082031,0.011719 -0.3164062,0.035156 -0.3867187,0.035156 -0.082031,0.011719 -0.1523438,0.023437 -0.1523438,0.1171875 0,0.1171875 0.070312,0.1171875 0.234375,0.1171875 h 0.4453125 c 0.8085938,0 1.1835938,0.6679687 1.1835938,1.6523437 0,1.3476563 -0.6914063,1.64062505 -1.125,1.64062505 -0.4335938,0 -1.171875,-0.17578125 -1.52343754,-0.76171875 0.35156254,0.0585938 0.65625004,-0.1640625 0.65625004,-0.5390625 0,-0.3632813 -0.2695313,-0.5625 -0.56250004,-0.5625 -0.234375,0 -0.55078125,0.140625 -0.55078125,0.5742187 0,0.91406255 0.92578129,1.57031255 2.00390629,1.57031255 1.21875,0 2.1210937,-0.9140625 2.1210937,-1.92187475 z m 0,0"
       style="fill:#000000;fill-opacity:1;fill-rule:nonzero;stroke:none"
       aria-label="3"
       transform="matrix(1.3333333,0,0,1.3333333,70.966667,198.74933)" />
    <path
       id="path18"
       d="m -122.86429,-127.56065 c 0,2.59372 -2.10258,4.6963 -4.69631,4.6963 -2.59373,0 -4.69631,-2.10258 -4.69631,-4.6963 0,-2.59374 2.10258,-4.69632 4.69631,-4.69632 2.59373,0 4.69631,2.10258 4.69631,4.69632 z"
       style="fill:none;stroke:#000000;stroke-width:0.3985;stroke-linecap:butt;stroke-linejoin:miter;stroke-miterlimit:10;stroke-dasharray:none;stroke-opacity:1"
       transform="matrix(1.3333333,0,0,-1.3333333,282.164,12.253333)" />
    <path
       id="path19"
       d="m -127.56062,-89.936 2e-5,-32.72908"
       style="fill:none;stroke:#000000;stroke-width:0.3985;stroke-linecap:butt;stroke-linejoin:miter;stroke-miterlimit:10;stroke-dasharray:none;stroke-opacity:1"
       transform="matrix(1.3333333,0,0,-1.3333333,282.164,12.253333)" />
    <path
       id="path20"
       d="M 4.1711641,-7.109375e-4 V -0.30539844 H 3.8547578 c -0.9023437,0 -0.9257812,-0.1171875 -0.9257812,-0.48046875 V -6.3757109 c 0,-0.234375 0,-0.2578125 -0.234375,-0.2578125 -0.609375,0.6328125 -1.4882813,0.6328125 -1.80468754,0.6328125 v 0.3164062 c 0.19921874,0 0.78515624,0 1.30078124,-0.2578125 v 5.15625001 c 0,0.3515625 -0.035156,0.48046875 -0.9257812,0.48046875 H 0.94850781 V -7.109375e-4 C 1.3000703,-0.03586719 2.1555391,-0.03586719 2.5539766,-0.03586719 c 0.3984375,0 1.265625,0 1.6171875,0.0351562525 z m 0,0"
       style="fill:#000000;fill-opacity:1;fill-rule:nonzero;stroke:none"
       aria-label="1"
       transform="matrix(1.3333333,0,0,1.3333333,108.76267,198.76267)" />
    <path
       id="path21"
       d="m -94.51747,-127.56065 c 0,2.59372 -2.10259,4.6963 -4.69632,4.6963 -2.59374,0 -4.69632,-2.10258 -4.69632,-4.6963 0,-2.59374 2.10258,-4.69632 4.69632,-4.69632 2.59373,0 4.69632,2.10258 4.69632,4.69632 z"
       style="fill:none;stroke:#000000;stroke-width:0.3985;stroke-linecap:butt;stroke-linejoin:miter;stroke-miterlimit:10;stroke-dasharray:none;stroke-opacity:1"
       transform="matrix(1.3333333,0,0,-1.3333333,282.164,12.253333)" />
    <path
       id="path22"
       d="m -124.8452,-89.11363 22.91599,-34.37384"
       style="fill:none;stroke:#000000;stroke-width:0.3985;stroke-linecap:butt;stroke-linejoin:miter;stroke-miterlimit:10;stroke-dasharray:none;stroke-opacity:1"
       transform="matrix(1.3333333,0,0,-1.3333333,282.164,12.253333)" />
    <path
       id="path23"
       d="M 4.6874453,-1.6413047 V -1.9577109 H 3.6913516 v -4.5234375 c 0,-0.1992188 0,-0.2578125 -0.1523438,-0.2578125 -0.09375,0 -0.1171875,0 -0.1992187,0.1171875 l -3.05859379,4.6640625 v 0.3164062 H 2.9296328 v 0.86718751 c 0,0.3515625 -0.023437,0.46875 -0.7617187,0.46875 H 1.9569766 V -6.796875e-4 C 2.3671328,-0.03583594 2.8944766,-0.03583594 3.3046328,-0.03583594 c 0.421875,0 0.9492188,0 1.359375,0.0351562525 V -0.30536719 H 4.4530703 c -0.7382812,0 -0.7617187,-0.1171875 -0.7617187,-0.46875 V -1.6413047 Z M 2.9882266,-1.9577109 H 0.56244531 L 2.9882266,-5.6725547 Z m 0,0"
       style="fill:#000000;fill-opacity:1;fill-rule:nonzero;stroke:none"
       aria-label="4"
       transform="matrix(1.3333333,0,0,1.3333333,146.55867,198.872)" />
    <path
       id="path24"
       d="m -66.17068,-85.04044 c 0,2.59374 -2.10259,4.69632 -4.69631,4.69632 -2.59373,0 -4.69632,-2.10258 -4.69632,-4.69632 0,-2.59373 2.10259,-4.69632 4.69632,-4.69632 2.59372,0 4.69631,2.10259 4.69631,4.69632 z"
       style="fill:none;stroke:#000000;stroke-width:0.3985;stroke-linecap:butt;stroke-linejoin:miter;stroke-miterlimit:10;stroke-dasharray:none;stroke-opacity:1"
       transform="matrix(1.3333333,0,0,-1.3333333,282.164,12.253333)" />
    <path
       id="path25"
       d="m -123.64435,-45.4575 48.86104,-36.64563"
       style="fill:none;stroke:#000000;stroke-width:0.3985;stroke-linecap:butt;stroke-linejoin:miter;stroke-miterlimit:10;stroke-dasharray:none;stroke-opacity:1"
       transform="matrix(1.3333333,0,0,-1.3333333,282.164,12.253333)" />
    <path
       id="path26"
       d="m -80.34406,-127.56065 c 0,2.59372 -2.10258,4.6963 -4.69631,4.6963 -2.59374,0 -4.69633,-2.10258 -4.69633,-4.6963 0,-2.59374 2.10259,-4.69632 4.69633,-4.69632 2.59373,0 4.69631,2.10258 4.69631,4.69632 z"
       style="fill:none;stroke:#000000;stroke-width:0.3985;stroke-linecap:butt;stroke-linejoin:miter;stroke-miterlimit:10;stroke-dasharray:none;stroke-opacity:1"
       transform="matrix(1.3333333,0,0,-1.3333333,282.164,12.253333)" />
    <path
       id="path27"
       d="m -72.41501,-89.68456 -11.07735,-33.23199"
       style="fill:none;stroke:#000000;stroke-width:0.3985;stroke-linecap:butt;stroke-linejoin:miter;stroke-miterlimit:10;stroke-dasharray:none;stroke-opacity:1"
       transform="matrix(1.3333333,0,0,-1.3333333,282.164,12.253333)" />
    <path
       id="path28"
       d="m 4.5476484,-2.0268438 c 0,-1.265625 -0.8789062,-2.2265625 -1.9921875,-2.2265625 -0.6679687,0 -1.0429687,0.5039063 -1.2421875,0.984375 v -0.234375 c 0,-2.5195312 1.2421875,-2.8828125 1.7460938,-2.8828125 0.234375,0 0.65625,0.058594 0.8789062,0.3984375 -0.1523437,0 -0.5507812,0 -0.5507812,0.4453125 0,0.3164063 0.234375,0.4570313 0.4570312,0.4570313 0.1640625,0 0.4570313,-0.082031 0.4570313,-0.46875 0,-0.5976563 -0.4335938,-1.078125 -1.265625,-1.078125 -1.2773438,0 -2.61328126,1.2890625 -2.61328126,3.4804687 0,2.6601563 1.14843746,3.37500005 2.07421876,3.37500005 1.1132812,0 2.0507812,-0.9375 2.0507812,-2.25000005 z m -0.890625,-0.011719 c 0,0.4804687 0,0.9726562 -0.1640625,1.3359375 -0.3046875,0.59765625 -0.7617187,0.64453125 -0.9960937,0.64453125 -0.6210938,0 -0.9257813,-0.59765625 -0.984375,-0.75 C 1.3367109,-1.2768438 1.3367109,-2.0737188 1.3367109,-2.2495 c 0,-0.7734375 0.3164063,-1.7695313 1.21875,-1.7695313 0.1523438,0 0.609375,0 0.9257813,0.609375 0.1757812,0.375 0.1757812,0.8789063 0.1757812,1.3710935 z m 0,0"
       style="fill:#000000;fill-opacity:1;fill-rule:nonzero;stroke:none"
       aria-label="6"
       transform="matrix(1.3333333,0,0,1.3333333,165.456,198.74933)" />
    <path
       id="path29"
       d="m -51.99725,-127.56065 c 0,2.59372 -2.10259,4.6963 -4.69632,4.6963 -2.59373,0 -4.69631,-2.10258 -4.69631,-4.6963 0,-2.59374 2.10258,-4.69632 4.69631,-4.69632 2.59373,0 4.69632,2.10258 4.69632,4.69632 z"
       style="fill:none;stroke:#000000;stroke-width:0.3985;stroke-linecap:butt;stroke-linejoin:miter;stroke-miterlimit:10;stroke-dasharray:none;stroke-opacity:1"
       transform="matrix(1.3333333,0,0,-1.3333333,282.164,12.253333)" />
    <path
       id="path30"
       d="m -69.31897,-89.68456 11.07739,-33.23199"
       style="fill:none;stroke:#000000;stroke-width:0.3985;stroke-linecap:butt;stroke-linejoin:miter;stroke-miterlimit:10;stroke-dasharray:none;stroke-opacity:1"
       transform="matrix(1.3333333,0,0,-1.3333333,282.164,12.253333)" />
    <path
       id="path31"
       d="M 4.4779922,-1.7350859 H 4.2201797 c -0.046875,0.3046875 -0.1171875,0.73828121 -0.2109375,0.89062496 -0.070312,0.0820313 -0.7265625,0.0820313 -0.9492188,0.0820313 H 1.2670547 L 2.3217422,-1.7936797 c 1.5585937,-1.3710937 2.15625,-1.9101562 2.15625,-2.90625 0,-1.1367187 -0.9023438,-1.9335937 -2.1210938,-1.9335937 -1.125,0 -1.85156246,0.9140625 -1.85156246,1.8046875 0,0.5507812 0.4921875,0.5507812 0.52734376,0.5507812 0.1640625,0 0.515625,-0.1171875 0.515625,-0.5273437 0,-0.2578125 -0.1875,-0.515625 -0.5273438,-0.515625 -0.0820312,0 -0.10546871,0 -0.12890621,0.011719 0.22265621,-0.6445312 0.76171871,-1.0195312 1.33593751,-1.0195312 0.9140625,0 1.3359375,0.8085937 1.3359375,1.6289062 0,0.796875 -0.4921875,1.5820313 -1.0429688,2.203125 L 0.61080469,-0.36399219 C 0.50533594,-0.25852344 0.50533594,-0.23508594 0.50533594,-7.109375e-4 H 4.1967422 Z m 0,0"
       style="fill:#000000;fill-opacity:1;fill-rule:nonzero;stroke:none"
       aria-label="2"
       transform="matrix(1.3333333,0,0,1.3333333,203.252,198.76267)" />
    <path
       id="path32"
       d="m 4.69633,-42.52022 c 0,2.59374 -2.10258,4.69632 -4.69631,4.69632 -2.59371,0 -4.69629,-2.10258 -4.69629,-4.69632 0,-2.59373 2.10258,-4.69632 4.69629,-4.69632 2.59373,0 4.69631,2.10259 4.69631,4.69632 z"
       style="fill:none;stroke:#000000;stroke-width:0.3985;stroke-linecap:butt;stroke-linejoin:miter;stroke-miterlimit:10;stroke-dasharray:none;stroke-opacity:1"
       transform="matrix(1.3333333,0,0,-1.3333333,282.164,12.253333)" />
    <path
       id="path33"
       d="M 0,-4.89557 2e-5,-37.62465"
       style="fill:none;stroke:#000000;stroke-width:0.3985;stroke-linecap:butt;stroke-linejoin:miter;stroke-miterlimit:10;stroke-dasharray:none;stroke-opacity:1"
       transform="matrix(1.3333333,0,0,-1.3333333,282.164,12.253333)" />
    <path
       id="path34"
       d="m -23.65044,-85.04044 c 0,2.59374 -2.10258,4.69632 -4.69632,4.69632 -2.59373,0 -4.69632,-2.10258 -4.69632,-4.69632 0,-2.59373 2.10259,-4.69632 4.69632,-4.69632 2.59374,0 4.69632,2.10259 4.69632,4.69632 z"
       style="fill:none;stroke:#000000;stroke-width:0.3985;stroke-linecap:butt;stroke-linejoin:miter;stroke-miterlimit:10;stroke-dasharray:none;stroke-opacity:1"
       transform="matrix(1.3333333,0,0,-1.3333333,282.164,12.253333)" />
    <path
       id="path35"
       d="M -2.71538,-46.5934 -25.63133,-80.96725"
       style="fill:none;stroke:#000000;stroke-width:0.3985;stroke-linecap:butt;stroke-linejoin:miter;stroke-miterlimit:10;stroke-dasharray:none;stroke-opacity:1"
       transform="matrix(1.3333333,0,0,-1.3333333,282.164,12.253333)" />
    <path
       id="path36"
       d="m -37.82382,-127.56065 c 0,2.59372 -2.10258,4.6963 -4.69632,4.6963 -2.59374,0 -4.69632,-2.10258 -4.69632,-4.6963 0,-2.59374 2.10258,-4.69632 4.69632,-4.69632 2.59374,0 4.69632,2.10258 4.69632,4.69632 z"
       style="fill:none;stroke:#000000;stroke-width:0.3985;stroke-linecap:butt;stroke-linejoin:miter;stroke-miterlimit:10;stroke-dasharray:none;stroke-opacity:1"
       transform="matrix(1.3333333,0,0,-1.3333333,282.164,12.253333)" />
    <path
       id="path37"
       d="m -29.89478,-89.68456 -11.07734,-33.23199"
       style="fill:none;stroke:#000000;stroke-width:0.3985;stroke-linecap:butt;stroke-linejoin:miter;stroke-miterlimit:10;stroke-dasharray:none;stroke-opacity:1"
       transform="matrix(1.3333333,0,0,-1.3333333,282.164,12.253333)" />
    <path
       id="path38"
       d="M 4.1712031,-7.109375e-4 V -0.30539844 H 3.8547969 c -0.9023438,0 -0.9257813,-0.1171875 -0.9257813,-0.48046875 V -6.3757109 c 0,-0.234375 0,-0.2578125 -0.234375,-0.2578125 -0.609375,0.6328125 -1.4882812,0.6328125 -1.80468748,0.6328125 v 0.3164062 c 0.19921878,0 0.78515628,0 1.30078128,-0.2578125 v 5.15625001 c 0,0.3515625 -0.035156,0.48046875 -0.9257813,0.48046875 H 0.94854687 V -7.109375e-4 C 1.3001094,-0.03586719 2.1555781,-0.03586719 2.5540156,-0.03586719 c 0.3984375,0 1.265625,0 1.6171875,0.0351562525 z m 0,0"
       style="fill:#000000;fill-opacity:1;fill-rule:nonzero;stroke:none"
       aria-label="1"
       transform="matrix(1.3333333,0,0,1.3333333,222.14933,198.76267)" />
    <path
       id="path39"
       d="m -9.477,-127.56065 c 0,2.59372 -2.1026,4.6963 -4.69632,4.6963 -2.59374,0 -4.69632,-2.10258 -4.69632,-4.6963 0,-2.59374 2.10258,-4.69632 4.69632,-4.69632 2.59372,0 4.69632,2.10258 4.69632,4.69632 z"
       style="fill:none;stroke:#000000;stroke-width:0.3985;stroke-linecap:butt;stroke-linejoin:miter;stroke-miterlimit:10;stroke-dasharray:none;stroke-opacity:1"
       transform="matrix(1.3333333,0,0,-1.3333333,282.164,12.253333)" />
    <path
       id="path40"
       d="m -26.79874,-89.68456 11.0774,-33.23199"
       style="fill:none;stroke:#000000;stroke-width:0.3985;stroke-linecap:butt;stroke-linejoin:miter;stroke-miterlimit:10;stroke-dasharray:none;stroke-opacity:1"
       transform="matrix(1.3333333,0,0,-1.3333333,282.164,12.253333)" />
    <path
       id="path41"
       d="m 4.5468594,-1.6987188 c 0,-0.8203125 -0.6210938,-1.59375 -1.6523438,-1.8046875 0.8085938,-0.2695312 1.3945313,-0.9726562 1.3945313,-1.7578125 0,-0.8203125 -0.8789063,-1.3710937 -1.8398438,-1.3710937 -1.0078125,0 -1.75781248,0.5976562 -1.75781248,1.3476562 0,0.3398438 0.2109375,0.5273438 0.50390628,0.5273438 0.3046875,0 0.5039062,-0.2226563 0.5039062,-0.515625 0,-0.4921875 -0.46875,-0.4921875 -0.609375,-0.4921875 0.3046875,-0.4921875 0.9609375,-0.6210938 1.3242188,-0.6210938 0.4101562,0 0.9492187,0.2226563 0.9492187,1.1132813 0,0.1289062 -0.011719,0.703125 -0.2695312,1.1367187 -0.3046875,0.4804688 -0.6445313,0.515625 -0.890625,0.515625 -0.082031,0.011719 -0.3164063,0.035156 -0.3867188,0.035156 -0.082031,0.011719 -0.1523437,0.023437 -0.1523437,0.1171875 0,0.1171875 0.070312,0.1171875 0.234375,0.1171875 h 0.4453125 c 0.8085937,0 1.1835937,0.6679687 1.1835937,1.6523437 0,1.3476563 -0.6914062,1.64062505 -1.125,1.64062505 -0.4335937,0 -1.171875,-0.17578125 -1.52343748,-0.76171875 0.35156248,0.0585938 0.65624998,-0.1640625 0.65624998,-0.5390625 0,-0.3632813 -0.2695312,-0.5625 -0.56249998,-0.5625 -0.234375,0 -0.55078125,0.140625 -0.55078125,0.5742187 0,0.91406255 0.92578123,1.57031255 2.00390623,1.57031255 1.21875,0 2.1210938,-0.9140625 2.1210938,-1.92187475 z m 0,0"
       style="fill:#000000;fill-opacity:1;fill-rule:nonzero;stroke:none"
       aria-label="3"
       transform="matrix(1.3333333,0,0,1.3333333,259.94533,198.74933)" />
    <path
       id="path42"
       d="m 33.04318,-85.04044 c 0,2.59374 -2.10258,4.69632 -4.69632,4.69632 -2.59373,0 -4.69632,-2.10258 -4.69632,-4.69632 0,-2.59373 2.10259,-4.69632 4.69632,-4.69632 2.59374,0 4.69632,2.10259 4.69632,4.69632 z"
       style="fill:none;stroke:#000000;stroke-width:0.3985;stroke-linecap:butt;stroke-linejoin:miter;stroke-miterlimit:10;stroke-dasharray:none;stroke-opacity:1"
       transform="matrix(1.3333333,0,0,-1.3333333,282.164,12.253333)" />
    <path
       id="path43"
       d="m 2.71544,-46.5934 22.916,-34.37385"
       style="fill:none;stroke:#000000;stroke-width:0.3985;stroke-linecap:butt;stroke-linejoin:miter;stroke-miterlimit:10;stroke-dasharray:none;stroke-opacity:1"
       transform="matrix(1.3333333,0,0,-1.3333333,282.164,12.253333)" />
    <path
       id="path44"
       d="m 18.8698,-127.56065 c 0,2.59372 -2.10259,4.6963 -4.69632,4.6963 -2.59374,0 -4.69632,-2.10258 -4.69632,-4.6963 0,-2.59374 2.10258,-4.69632 4.69632,-4.69632 2.59373,0 4.69632,2.10258 4.69632,4.69632 z"
       style="fill:none;stroke:#000000;stroke-width:0.3985;stroke-linecap:butt;stroke-linejoin:miter;stroke-miterlimit:10;stroke-dasharray:none;stroke-opacity:1"
       transform="matrix(1.3333333,0,0,-1.3333333,282.164,12.253333)" />
    <path
       id="path45"
       d="M 26.79884,-89.68456 15.7215,-122.91655"
       style="fill:none;stroke:#000000;stroke-width:0.3985;stroke-linecap:butt;stroke-linejoin:miter;stroke-miterlimit:10;stroke-dasharray:none;stroke-opacity:1"
       transform="matrix(1.3333333,0,0,-1.3333333,282.164,12.253333)" />
    <path
       id="path46"
       d="M 4.6881406,-1.6413047 V -1.9577109 H 3.6920469 v -4.5234375 c 0,-0.1992188 0,-0.2578125 -0.1523438,-0.2578125 -0.09375,0 -0.1171875,0 -0.1992187,0.1171875 l -3.05859377,4.6640625 v 0.3164062 H 2.9303281 v 0.86718751 c 0,0.3515625 -0.023437,0.46875 -0.7617187,0.46875 H 1.9576719 V -6.796875e-4 C 2.3678281,-0.03583594 2.8951719,-0.03583594 3.3053281,-0.03583594 c 0.421875,0 0.9492188,0 1.359375,0.0351562525 V -0.30536719 H 4.4537656 c -0.7382812,0 -0.7617187,-0.1171875 -0.7617187,-0.46875 V -1.6413047 Z M 2.9889219,-1.9577109 H 0.56314063 L 2.9889219,-5.6725547 Z m 0,0"
       style="fill:#000000;fill-opacity:1;fill-rule:nonzero;stroke:none"
       aria-label="4"
       transform="matrix(1.3333333,0,0,1.3333333,297.74133,198.872)" />
    <path
       id="path47"
       d="m 47.21661,-127.56065 c 0,2.59372 -2.10258,4.6963 -4.69631,4.6963 -2.59374,0 -4.69633,-2.10258 -4.69633,-4.6963 0,-2.59374 2.10259,-4.69632 4.69633,-4.69632 2.59373,0 4.69631,2.10258 4.69631,4.69632 z"
       style="fill:none;stroke:#000000;stroke-width:0.3985;stroke-linecap:butt;stroke-linejoin:miter;stroke-miterlimit:10;stroke-dasharray:none;stroke-opacity:1"
       transform="matrix(1.3333333,0,0,-1.3333333,282.164,12.253333)" />
    <path
       id="path48"
       d="m 29.89488,-89.68456 11.07739,-33.23199"
       style="fill:none;stroke:#000000;stroke-width:0.3985;stroke-linecap:butt;stroke-linejoin:miter;stroke-miterlimit:10;stroke-dasharray:none;stroke-opacity:1"
       transform="matrix(1.3333333,0,0,-1.3333333,282.164,12.253333)" />
    <path
       id="path49"
       d="m 4.5833281,-3.187 c 0,-0.796875 -0.046875,-1.59375 -0.3984375,-2.3320313 -0.4570312,-0.9609375 -1.2773437,-1.1132812 -1.6875,-1.1132812 -0.5976562,0 -1.3359375,0.2578125 -1.73437497,1.1835937 -0.328125,0.6914063 -0.375,1.4648438 -0.375,2.2617188 0,0.75 0.046875,1.640625 0.4453125,2.40234375 0.43359377,0.80859375 1.16015627,1.0078125 1.65234377,1.0078125 0.5390625,0 1.2890625,-0.2109375 1.734375,-1.16015625 0.3164062,-0.6914063 0.3632812,-1.4648438 0.3632812,-2.25 z M 3.7512969,-3.3041875 c 0,0.75 0,1.4179687 -0.1054688,2.0625 C 3.4934844,-0.3041875 2.9309844,5e-4 2.4856719,5e-4 2.0989531,5e-4 1.5012969,-0.24559375 1.3255156,-1.2065313 1.2200469,-1.8041875 1.2200469,-2.71825 1.2200469,-3.3041875 c 0,-0.6445313 0,-1.3007813 0.082031,-1.8398438 0.1875,-1.1835937 0.9257813,-1.265625 1.1835938,-1.265625 0.328125,0 0.984375,0.1757813 1.171875,1.1601563 0.09375,0.5625 0.09375,1.3125 0.09375,1.9453125 z m 0,0"
       style="fill:#000000;fill-opacity:1;fill-rule:nonzero;stroke:none"
       aria-label="0"
       transform="matrix(1.3333333,0,0,1.3333333,335.53733,198.74933)" />
    <path
       id="path50"
       d="m 103.91022,-42.52022 c 0,2.59374 -2.10259,4.69632 -4.69632,4.69632 -2.59374,0 -4.69632,-2.10258 -4.69632,-4.69632 0,-2.59373 2.10258,-4.69632 4.69632,-4.69632 2.59373,0 4.69632,2.10259 4.69632,4.69632 z"
       style="fill:none;stroke:#000000;stroke-width:0.3985;stroke-linecap:butt;stroke-linejoin:miter;stroke-miterlimit:10;stroke-dasharray:none;stroke-opacity:1"
       transform="matrix(1.3333333,0,0,-1.3333333,282.164,12.253333)" />
    <path
       id="path51"
       d="M 4.49957,-1.9283 94.71432,-40.5919"
       style="fill:none;stroke:#000000;stroke-width:0.3985;stroke-linecap:butt;stroke-linejoin:miter;stroke-miterlimit:10;stroke-dasharray:none;stroke-opacity:1"
       transform="matrix(1.3333333,0,0,-1.3333333,282.164,12.253333)" />
    <path
       id="path52"
       d="m 75.56342,-85.04044 c 0,2.59374 -2.10259,4.69632 -4.69632,4.69632 -2.59372,0 -4.69632,-2.10258 -4.69632,-4.69632 0,-2.59373 2.1026,-4.69632 4.69632,-4.69632 2.59373,0 4.69632,2.10259 4.69632,4.69632 z"
       style="fill:none;stroke:#000000;stroke-width:0.3985;stroke-linecap:butt;stroke-linejoin:miter;stroke-miterlimit:10;stroke-dasharray:none;stroke-opacity:1"
       transform="matrix(1.3333333,0,0,-1.3333333,282.164,12.253333)" />
    <path
       id="path53"
       d="M 96.49847,-46.5934 73.58252,-80.96725"
       style="fill:none;stroke:#000000;stroke-width:0.3985;stroke-linecap:butt;stroke-linejoin:miter;stroke-miterlimit:10;stroke-dasharray:none;stroke-opacity:1"
       transform="matrix(1.3333333,0,0,-1.3333333,282.164,12.253333)" />
    <path
       id="path54"
       d="m 61.39003,-127.56065 c 0,2.59372 -2.10258,4.6963 -4.6963,4.6963 -2.59374,0 -4.69633,-2.10258 -4.69633,-4.6963 0,-2.59374 2.10259,-4.69632 4.69633,-4.69632 2.59372,0 4.6963,2.10258 4.6963,4.69632 z"
       style="fill:none;stroke:#000000;stroke-width:0.3985;stroke-linecap:butt;stroke-linejoin:miter;stroke-miterlimit:10;stroke-dasharray:none;stroke-opacity:1"
       transform="matrix(1.3333333,0,0,-1.3333333,282.164,12.253333)" />
    <path
       id="path55"
       d="M 69.31908,-89.68456 58.24173,-122.91655"
       style="fill:none;stroke:#000000;stroke-width:0.3985;stroke-linecap:butt;stroke-linejoin:miter;stroke-miterlimit:10;stroke-dasharray:none;stroke-opacity:1"
       transform="matrix(1.3333333,0,0,-1.3333333,282.164,12.253333)" />
    <path
       id="path56"
       d="M 4.4757578,-1.7350859 H 4.2179453 c -0.046875,0.3046875 -0.1171875,0.73828121 -0.2109375,0.89062496 -0.070313,0.0820313 -0.7265625,0.0820313 -0.9492187,0.0820313 H 1.2648203 L 2.3195078,-1.7936797 c 1.5585938,-1.3710937 2.15625,-1.9101562 2.15625,-2.90625 0,-1.1367187 -0.9023437,-1.9335937 -2.1210937,-1.9335937 -1.125,0 -1.85156254,0.9140625 -1.85156254,1.8046875 0,0.5507812 0.4921875,0.5507812 0.52734374,0.5507812 0.1640625,0 0.515625,-0.1171875 0.515625,-0.5273437 0,-0.2578125 -0.1875,-0.515625 -0.5273437,-0.515625 -0.0820313,0 -0.10546879,0 -0.12890629,0.011719 0.22265629,-0.6445312 0.76171879,-1.0195312 1.33593749,-1.0195312 0.9140625,0 1.3359375,0.8085937 1.3359375,1.6289062 0,0.796875 -0.4921875,1.5820313 -1.0429687,2.203125 L 0.60857031,-0.36399219 C 0.50310156,-0.25852344 0.50310156,-0.23508594 0.50310156,-7.109375e-4 H 4.1945078 Z m 0,0"
       style="fill:#000000;fill-opacity:1;fill-rule:nonzero;stroke:none"
       aria-label="2"
       transform="matrix(1.3333333,0,0,1.3333333,354.43467,198.76267)" />
    <path
       id="path57"
       d="m 89.73685,-127.56065 c 0,2.59372 -2.10259,4.6963 -4.69632,4.6963 -2.59373,0 -4.69632,-2.10258 -4.69632,-4.6963 0,-2.59374 2.10259,-4.69632 4.69632,-4.69632 2.59373,0 4.69632,2.10258 4.69632,4.69632 z"
       style="fill:none;stroke:#000000;stroke-width:0.3985;stroke-linecap:butt;stroke-linejoin:miter;stroke-miterlimit:10;stroke-dasharray:none;stroke-opacity:1"
       transform="matrix(1.3333333,0,0,-1.3333333,282.164,12.253333)" />
    <path
       id="path58"
       d="m 72.41512,-89.68456 11.07739,-33.23199"
       style="fill:none;stroke:#000000;stroke-width:0.3985;stroke-linecap:butt;stroke-linejoin:miter;stroke-miterlimit:10;stroke-dasharray:none;stroke-opacity:1"
       transform="matrix(1.3333333,0,0,-1.3333333,282.164,12.253333)" />
    <path
       id="path59"
       d="M 4.1717266,-7.109375e-4 V -0.30539844 H 3.8553203 c -0.9023437,0 -0.9257812,-0.1171875 -0.9257812,-0.48046875 V -6.3757109 c 0,-0.234375 0,-0.2578125 -0.234375,-0.2578125 -0.609375,0.6328125 -1.4882813,0.6328125 -1.80468754,0.6328125 v 0.3164062 c 0.19921874,0 0.78515624,0 1.30078124,-0.2578125 v 5.15625001 c 0,0.3515625 -0.035156,0.48046875 -0.9257812,0.48046875 H 0.94907031 V -7.109375e-4 C 1.3006328,-0.03586719 2.1561016,-0.03586719 2.5545391,-0.03586719 c 0.3984375,0 1.265625,0 1.6171875,0.0351562525 z m 0,0"
       style="fill:#000000;fill-opacity:1;fill-rule:nonzero;stroke:none"
       aria-label="1"
       transform="matrix(1.3333333,0,0,1.3333333,392.23067,198.76267)" />
    <path
       id="path60"
       d="m 132.25705,-85.04044 c 0,2.59374 -2.10259,4.69632 -4.69632,4.69632 -2.59372,0 -4.6963,-2.10258 -4.6963,-4.69632 0,-2.59373 2.10258,-4.69632 4.6963,-4.69632 2.59373,0 4.69632,2.10259 4.69632,4.69632 z"
       style="fill:none;stroke:#000000;stroke-width:0.3985;stroke-linecap:butt;stroke-linejoin:miter;stroke-miterlimit:10;stroke-dasharray:none;stroke-opacity:1"
       transform="matrix(1.3333333,0,0,-1.3333333,282.164,12.253333)" />
    <path
       id="path61"
       d="M 101.92932,-46.5934 124.8453,-80.96725"
       style="fill:none;stroke:#000000;stroke-width:0.3985;stroke-linecap:butt;stroke-linejoin:miter;stroke-miterlimit:10;stroke-dasharray:none;stroke-opacity:1"
       transform="matrix(1.3333333,0,0,-1.3333333,282.164,12.253333)" />
    <path
       id="path62"
       d="m 118.08366,-127.56065 c 0,2.59372 -2.10258,4.6963 -4.6963,4.6963 -2.59374,0 -4.69632,-2.10258 -4.69632,-4.6963 0,-2.59374 2.10258,-4.69632 4.69632,-4.69632 2.59372,0 4.6963,2.10258 4.6963,4.69632 z"
       style="fill:none;stroke:#000000;stroke-width:0.3985;stroke-linecap:butt;stroke-linejoin:miter;stroke-miterlimit:10;stroke-dasharray:none;stroke-opacity:1"
       transform="matrix(1.3333333,0,0,-1.3333333,282.164,12.253333)" />
    <path
       id="path63"
       d="m 126.01271,-89.68456 -11.07735,-33.23199"
       style="fill:none;stroke:#000000;stroke-width:0.3985;stroke-linecap:butt;stroke-linejoin:miter;stroke-miterlimit:10;stroke-dasharray:none;stroke-opacity:1"
       transform="matrix(1.3333333,0,0,-1.3333333,282.164,12.253333)" />
    <path
       id="path64"
       d="m 4.4770703,-2.0034063 c 0,-1.1835937 -0.8203125,-2.1796875 -1.8984375,-2.1796875 -0.4804687,0 -0.9023437,0.1640625 -1.265625,0.5039063 v -1.9335938 c 0.1992188,0.058594 0.5273438,0.1289063 0.84375,0.1289063 1.2304688,0 1.9335938,-0.9140625 1.9335938,-1.0429688 0,-0.058594 -0.035156,-0.1054687 -0.1054688,-0.1054687 0,0 -0.035156,0 -0.082031,0.023437 -0.1992188,0.09375 -0.6796875,0.2929687 -1.3476563,0.2929687 -0.3984375,0 -0.8554687,-0.070312 -1.3242187,-0.28125 -0.082031,-0.023437 -0.1289063,-0.023437 -0.1289063,-0.023437 -0.09375,0 -0.09375,0.082031 -0.09375,0.234375 v 2.953125 c 0,0.1757813 0,0.2578125 0.140625,0.2578125 0.070312,0 0.082031,-0.035156 0.1289063,-0.09375 0.1054687,-0.1523437 0.4804687,-0.6914062 1.2773437,-0.6914062 0.5273438,0 0.7734375,0.4570312 0.8554688,0.6328125 0.1523437,0.375 0.1757812,0.7617187 0.1757812,1.2539062 0,0.3515625 0,0.9492188 -0.234375,1.3710938 -0.2460937,0.38671875 -0.609375,0.64453125 -1.0664062,0.64453125 -0.7265625,0 -1.30078129,-0.52734375 -1.46484379,-1.11328125 0.0234375,0.011719 0.0585938,0.011719 0.1640625,0.011719 0.32812499,0 0.50390629,-0.2460937 0.50390629,-0.4804687 0,-0.2460938 -0.1757813,-0.4921875 -0.50390629,-0.4921875 -0.140625,0 -0.48046875,0.070312 -0.48046875,0.5273437 0,0.8554688 0.67968754,1.82812505 1.79296874,1.82812505 1.1601563,0 2.1796875,-0.9609375 2.1796873,-2.22656285 z m 0,0"
       style="fill:#000000;fill-opacity:1;fill-rule:nonzero;stroke:none"
       aria-label="5"
       transform="matrix(1.3333333,0,0,1.3333333,430.02667,198.74933)" />
    <path
       id="path65"
       d="m 146.43048,-127.56065 c 0,2.59372 -2.10258,4.6963 -4.69632,4.6963 -2.59373,0 -4.69632,-2.10258 -4.69632,-4.6963 0,-2.59374 2.10259,-4.69632 4.69632,-4.69632 2.59374,0 4.69632,2.10258 4.69632,4.69632 z"
       style="fill:none;stroke:#000000;stroke-width:0.3985;stroke-linecap:butt;stroke-linejoin:miter;stroke-miterlimit:10;stroke-dasharray:none;stroke-opacity:1"
       transform="matrix(1.3333333,0,0,-1.3333333,282.164,12.253333)" />
    <path
       id="path66"
       d="m 129.10875,-89.68456 11.07739,-33.23199"
       style="fill:none;stroke:#000000;stroke-width:0.3985;stroke-linecap:butt;stroke-linejoin:miter;stroke-miterlimit:10;stroke-dasharray:none;stroke-opacity:1"
       transform="matrix(1.3333333,0,0,-1.3333333,282.164,12.253333)" />
    <path
       id="path67"
       d="M 4.8273594,-6.4093438 H 2.4132969 c -1.21875,0 -1.2421875,-0.1289062 -1.2773438,-0.328125 H 0.88985938 l -0.328125,2.0507813 h 0.24609375 c 0.0234375,-0.1523438 0.1171875,-0.7851563 0.24609377,-0.9023438 0.070312,-0.058594 0.84375,-0.058594 0.9726562,-0.058594 h 2.0625 l -1.1132812,1.5703125 c -0.890625,1.3476562 -1.21875,2.7304687 -1.21875,3.75 0,0.09375 0,0.55078125 0.4570312,0.55078125 0.4570313,0 0.4570313,-0.45703125 0.4570313,-0.55078125 v -0.50390625 c 0,-0.55078125 0.023437,-1.10156255 0.1054687,-1.64062505 0.046875,-0.2226562 0.1757813,-1.078125 0.6210938,-1.6992187 L 4.7453281,-6.0695 c 0.082031,-0.1171875 0.082031,-0.140625 0.082031,-0.3398438 z m 0,0"
       style="fill:#000000;fill-opacity:1;fill-rule:nonzero;stroke:none"
       aria-label="7"
       transform="matrix(1.3333333,0,0,1.3333333,467.82133,198.84267)" />
  </g>
</svg>
