<svg width="77" height="67" viewBox="0 0 77 67" fill="none" xmlns="http://www.w3.org/2000/svg">
<rect x="8" y="5" width="60" height="43" rx="3" fill="#5583F9"/>
<path d="M8.89945 51.7586C9.27879 51.2794 9.85639 51 10.4675 51H19H38H57H65.5325C66.1436 51 66.7212 51.2794 67.1006 51.7586L73.4339 59.7586C74.4719 61.0697 73.5381 63 71.8658 63H4.1342C2.46193 63 1.52813 61.0697 2.56611 59.7586L8.89945 51.7586Z" fill="#5583F9"/>
<path d="M30.5 57H33H38H43H45.5L48 60H28L30.5 57Z" fill="white"/>
<path d="M11 0L38 3.27907V10.1105V22.407V47L11 43.7209V34.7035V22.407V10.1105V0Z" fill="#5583F9"/>
<path d="M13 2L38 5V11.25V22.5V45L13 42V33.75V22.5V11.25V2Z" fill="white"/>
<path d="M65 0L38 3.27907V10.1105V22.407V47L65 43.7209V34.7035V22.407V10.1105V0Z" fill="#5583F9"/>
<path d="M63 2L38 5V11.25V22.5V45L63 42V33.75V22.5V11.25V2Z" fill="white"/>
<path d="M34.28 37.96C34.2533 38.0667 34.1067 38.12 33.84 38.12C33.5733 38.12 33.4267 38.0667 33.4 37.96L23.28 16.32C22.72 15.1467 22.24 14.3867 21.84 14.04C21.4667 13.6667 20.8933 13.48 20.12 13.48C20.04 13.48 20 13.4 20 13.24C20 13.08 20.04 13 20.12 13L21.16 13.04C21.8 13.0933 22.4667 13.12 23.16 13.12C24.68 13.12 26.0267 13.0933 27.2 13.04C27.5733 13.0133 28.04 13 28.6 13C28.68 13 28.72 13.08 28.72 13.24C28.72 13.4 28.68 13.48 28.6 13.48C27.9067 13.48 27.4 13.56 27.08 13.72C26.76 13.8533 26.6 14.1067 26.6 14.48C26.6 14.88 26.8533 15.6267 27.36 16.72L35.36 33.8L33.76 36.28L38.56 23.8L39.28 24.84L34.28 37.96ZM56.92 13C56.9733 13 57 13.08 57 13.24C57 13.4 56.9733 13.48 56.92 13.48C55.96 13.48 55.08 13.84 54.28 14.56C53.48 15.28 52.8133 16.32 52.28 17.68L44.52 37.96C44.4933 38.0667 44.3467 38.12 44.08 38.12C43.8133 38.12 43.6667 38.0667 43.64 37.96L33.52 16.32C33.0667 15.36 32.6267 14.6533 32.2 14.2C31.7733 13.72 31.28 13.48 30.72 13.48C30.64 13.48 30.6 13.4 30.6 13.24C30.6 13.08 30.64 13 30.72 13L31.68 13.04C32.2667 13.0933 32.8533 13.12 33.44 13.12C34.6933 13.12 35.8 13.0933 36.76 13.04C37.0267 13.0133 37.3733 13 37.8 13C37.88 13 37.92 13.08 37.92 13.24C37.92 13.4 37.88 13.48 37.8 13.48C37.4 13.48 37.1067 13.5333 36.92 13.64C36.7333 13.72 36.64 13.8933 36.64 14.16C36.64 14.3733 36.72 14.7067 36.88 15.16C37.0667 15.6133 37.2933 16.1333 37.56 16.72L45.64 33.8L44.04 36.28L51.12 17.8C51.3867 17.1067 51.52 16.4533 51.52 15.84C51.52 15.0933 51.2933 14.52 50.84 14.12C50.4133 13.6933 49.8 13.48 49 13.48C48.92 13.48 48.88 13.4 48.88 13.24C48.88 13.08 48.92 13 49 13L50.76 13.04C51.72 13.0933 52.5867 13.12 53.36 13.12C53.8933 13.12 54.5067 13.0933 55.2 13.04L56.92 13ZM41.2 17.52C41.68 16.2667 41.92 15.32 41.92 14.68C41.92 13.88 41.52 13.48 40.72 13.48C40.64 13.48 40.6 13.4 40.6 13.24C40.6 13.08 40.64 13 40.72 13C40.96 13 41.24 13.0267 41.56 13.08C41.88 13.1067 42.4667 13.12 43.32 13.12C43.8 13.12 44.36 13.0933 45 13.04L46.56 13C46.6133 13 46.64 13.08 46.64 13.24C46.64 13.4 46.6133 13.48 46.56 13.48C45.6533 13.48 44.8533 13.8133 44.16 14.48C43.4667 15.1467 42.84 16.2133 42.28 17.68L39.52 24.84L38.8 23.8L41.2 17.52Z" fill="#494949"/>
</svg>
