<?xml version="1.0" encoding="UTF-8" standalone="no"?>
<!-- Created with Inkscape (http://www.inkscape.org/) -->

<svg
   version="1.1"
   id="svg1"
   width="309.45334"
   height="109.6"
   viewBox="0 0 309.45334 109.6"
   sodipodi:docname="24-25-1-信号与系统-期末（B卷）-题图3.4.pdf"
   xmlns:inkscape="http://www.inkscape.org/namespaces/inkscape"
   xmlns:sodipodi="http://sodipodi.sourceforge.net/DTD/sodipodi-0.dtd"
   xmlns="http://www.w3.org/2000/svg"
   xmlns:svg="http://www.w3.org/2000/svg">
  <defs
     id="defs1" />
  <sodipodi:namedview
     id="namedview1"
     pagecolor="#ffffff"
     bordercolor="#000000"
     borderopacity="0.25"
     inkscape:showpageshadow="2"
     inkscape:pageopacity="0.0"
     inkscape:pagecheckerboard="0"
     inkscape:deskcolor="#d1d1d1">
    <inkscape:page
       x="0"
       y="0"
       inkscape:label="1"
       id="page1"
       width="309.45334"
       height="109.6"
       margin="0"
       bleed="0" />
  </sodipodi:namedview>
  <g
     id="g1"
     inkscape:groupmode="layer"
     inkscape:label="1">
    <path
       id="path1"
       d="M -113.38727,0 H 112.98875"
       style="fill:none;stroke:#000000;stroke-width:0.3985;stroke-linecap:butt;stroke-linejoin:miter;stroke-miterlimit:10;stroke-dasharray:none;stroke-opacity:1"
       transform="matrix(1.3333333,0,0,-1.3333333,151.44667,86.665333)" />
    <path
       id="path2"
       d="M -2.07224,2.39104 C -1.69365,0.95639 -0.84999,0.27895 0,0 -0.84999,-0.27895 -1.69365,-0.95639 -2.07224,-2.39104"
       style="fill:none;stroke:#000000;stroke-width:0.3985;stroke-linecap:round;stroke-linejoin:round;stroke-miterlimit:10;stroke-dasharray:none;stroke-opacity:1"
       transform="matrix(1.3333333,0,0,-1.3333333,302.364,86.665333)" />
    <path
       id="path3"
       d="m 2.0506328,-3.9829375 h 0.9375 c 0.1992188,0 0.3046875,0 0.3046875,-0.1992187 0,-0.1054688 -0.1054687,-0.1054688 -0.28125,-0.1054688 H 2.1326641 c 0.3632812,-1.4179687 0.4101562,-1.6171875 0.4101562,-1.6757812 0,-0.1757813 -0.1171875,-0.2695313 -0.2929687,-0.2695313 -0.023437,0 -0.3046875,0.011719 -0.3984375,0.3515625 l -0.3867188,1.59375 H 0.52719531 c -0.19921875,0 -0.29296875,0 -0.29296875,0.1875 0,0.1171875 0.0703125,0.1171875 0.26953125,0.1171875 H 1.3826641 c -0.71484379,2.8242188 -0.75000004,3 -0.75000004,3.17578125 0,0.5390625 0.37500004,0.9140625 0.91406254,0.9140625 1.0078125,0 1.5820312,-1.45312495 1.5820312,-1.53515625 0,-0.09375 -0.082031,-0.09375 -0.1171875,-0.09375 -0.09375,0 -0.1054687,0.023437 -0.1523437,0.140625 -0.4335938,1.03125 -0.9609375,1.27734375 -1.3007813,1.27734375 -0.1992187,0 -0.3046875,-0.12890625 -0.3046875,-0.45703125 0,-0.24609375 0.023437,-0.31640625 0.058594,-0.4804687 z m 0,0"
       style="fill:#000000;fill-opacity:1;fill-rule:nonzero;stroke:none"
       aria-label="t"
       transform="matrix(1.3333333,0,0,1.3333333,300.23067,99.529333)" />
    <path
       id="path4"
       d="M 0,0 V 56.29512"
       style="fill:none;stroke:#000000;stroke-width:0.3985;stroke-linecap:butt;stroke-linejoin:miter;stroke-miterlimit:10;stroke-dasharray:none;stroke-opacity:1"
       transform="matrix(1.3333333,0,0,-1.3333333,151.44667,86.665333)" />
    <path
       id="path5"
       d="M -2.07224,2.39104 C -1.69365,0.95639 -0.84999,0.27895 0,0 -0.84999,-0.27895 -1.69365,-0.95639 -2.07224,-2.39104"
       style="fill:none;stroke:#000000;stroke-width:0.3985;stroke-linecap:round;stroke-linejoin:round;stroke-miterlimit:10;stroke-dasharray:none;stroke-opacity:1"
       transform="matrix(0,-1.3333333,-1.3333333,0,151.44667,11.339507)" />
    <g
       id="g5"
       aria-label="f(t)"
       transform="matrix(1.3333333,0,0,1.3333333,156.14,14.394667)">
      <path
         id="path6"
         d="m 3.6567188,-3.9844766 h 0.8554687 c 0.1992188,0 0.3046875,0 0.3046875,-0.1992187 0,-0.1054688 -0.1054687,-0.1054688 -0.2695312,-0.1054688 H 3.7153125 L 3.92625,-5.4258828 c 0.035156,-0.2109375 0.1757813,-0.9140625 0.234375,-1.0429688 0.09375,-0.1875 0.2578125,-0.3398437 0.46875,-0.3398437 0.046875,0 0.3046875,0 0.4921875,0.1875 C 4.6879688,-6.5860391 4.5825,-6.2344766 4.5825,-6.0821328 c 0,0.2226562 0.1757813,0.3398437 0.3632813,0.3398437 0.2695312,0 0.5507812,-0.2109375 0.5507812,-0.5976562 0,-0.4570313 -0.4570312,-0.6796875 -0.8671875,-0.6796875 -0.3398437,0 -0.9609375,0.1757812 -1.265625,1.1601562 -0.058594,0.2109375 -0.082031,0.3164063 -0.328125,1.5703125 H 2.3559375 c -0.1992187,0 -0.3046875,0 -0.3046875,0.1875 0,0.1171875 0.09375,0.1171875 0.28125,0.1171875 h 0.65625 l -0.75,3.93750004 C 2.0629688,0.91396094 1.8989063,1.8280234 1.3715625,1.8280234 c -0.035156,0 -0.28125,0 -0.46875,-0.1875 0.4570313,-0.023437 0.5390625,-0.3867187 0.5390625,-0.5390625 0,-0.22265621 -0.1757812,-0.33984371 -0.3632812,-0.33984371 -0.25781255,0 -0.5507813,0.2109375 -0.5507813,0.59765621 0,0.4453125 0.43359375,0.6796875 0.84375,0.6796875 0.5507813,0 0.9492188,-0.5859375 1.125,-0.9609375 0.328125,-0.63281246 0.5507813,-1.83984371 0.5625,-1.91015621 z m 0,0"
         style="fill:#000000;fill-opacity:1;fill-rule:nonzero;stroke:none" />
      <path
         id="path7"
         d="m 9.2436328,2.3905234 c 0,-0.035156 0,-0.046875 -0.1640625,-0.2226562 -1.2421875,-1.25390626 -1.5703125,-3.12890626 -1.5703125,-4.6640625 0,-1.7226563 0.3867188,-3.4570313 1.6054688,-4.7109375 0.1289062,-0.1171875 0.1289062,-0.1289063 0.1289062,-0.1640625 0,-0.070312 -0.035156,-0.1054688 -0.09375,-0.1054688 -0.1054687,0 -0.9960937,0.6796875 -1.5820312,1.9453125 -0.515625,1.1015625 -0.6328125,2.203125 -0.6328125,3.0351563 0,0.7851562 0.1171875,1.99218749 0.65625,3.11718749 0.5976562,1.21875001 1.453125,1.87500001 1.5585937,1.87500001 0.058594,0 0.09375,-0.035156 0.09375,-0.1054688 z m 0,0"
         style="fill:#000000;fill-opacity:1;fill-rule:nonzero;stroke:none" />
      <path
         id="path8"
         d="m 11.874492,-3.9844766 h 0.9375 c 0.199219,0 0.304688,0 0.304688,-0.1992187 0,-0.1054688 -0.105469,-0.1054688 -0.28125,-0.1054688 h -0.878907 c 0.363282,-1.4179687 0.410157,-1.6171875 0.410157,-1.6757812 0,-0.1757813 -0.117188,-0.2695313 -0.292969,-0.2695313 -0.02344,0 -0.304688,0.011719 -0.398438,0.3515625 l -0.386718,1.59375 h -0.9375 c -0.199219,0 -0.292969,0 -0.292969,0.1875 0,0.1171875 0.07031,0.1171875 0.269531,0.1171875 h 0.878906 c -0.714843,2.8242188 -0.75,3.00000004 -0.75,3.17578129 0,0.5390625 0.375,0.9140625 0.914063,0.9140625 1.007812,0 1.582031,-1.45312499 1.582031,-1.53515629 0,-0.09375 -0.08203,-0.09375 -0.117187,-0.09375 -0.09375,0 -0.105469,0.023437 -0.152344,0.140625 -0.433594,1.03125004 -0.960938,1.27734379 -1.300781,1.27734379 -0.199219,0 -0.304688,-0.12890625 -0.304688,-0.45703125 0,-0.24609375 0.02344,-0.31640625 0.05859,-0.48046874 z m 0,0"
         style="fill:#000000;fill-opacity:1;fill-rule:nonzero;stroke:none" />
      <path
         id="path9"
         d="m 16.30418,-2.4961953 c 0,-0.7734375 -0.117188,-1.9804688 -0.65625,-3.1054688 -0.597657,-1.21875 -1.464844,-1.875 -1.558594,-1.875 -0.05859,0 -0.105469,0.046875 -0.105469,0.1054688 0,0.035156 0,0.046875 0.199219,0.234375 0.972656,0.984375 1.535156,2.5664062 1.535156,4.640625 0,1.71093749 -0.363281,3.45703124 -1.59375,4.7226562 -0.140625,0.1171875 -0.140625,0.1289063 -0.140625,0.1640625 0,0.058594 0.04687,0.1054688 0.105469,0.1054688 0.09375,0 0.996094,-0.6796875 1.582031,-1.94531251 0.503906,-1.1015625 0.632813,-2.20312499 0.632813,-3.04687499 z m 0,0"
         style="fill:#000000;fill-opacity:1;fill-rule:nonzero;stroke:none" />
    </g>
    <path
       id="path10"
       d="m 1.9095,-0.52760937 c 0,-0.29296875 -0.234375,-0.52734373 -0.5273438,-0.52734373 -0.28125,0 -0.5273437,0.23437498 -0.5273437,0.52734373 0,0.29296875 0.2460937,0.527343745 0.5273437,0.527343745 0.2929688,0 0.5273438,-0.234374995 0.5273438,-0.527343745 z m 4.4150391,0 c 0,-0.29296875 -0.234375,-0.52734373 -0.5273438,-0.52734373 -0.28125,0 -0.5273437,0.23437498 -0.5273437,0.52734373 0,0.29296875 0.2460937,0.527343745 0.5273437,0.527343745 0.2929688,0 0.5273438,-0.234374995 0.5273438,-0.527343745 z m 4.4238279,0 c 0,-0.29296875 -0.234375,-0.52734373 -0.527344,-0.52734373 -0.2812496,0 -0.5273433,0.23437498 -0.5273433,0.52734373 0,0.29296875 0.2460937,0.527343745 0.5273433,0.527343745 0.292969,0 0.527344,-0.234374995 0.527344,-0.527343745 z m 0,0"
       style="fill:#000000;fill-opacity:1;fill-rule:nonzero;stroke:none"
       aria-label="..."
       transform="matrix(1.3333333,0,0,1.3333333,29.204,49.570667)" />
    <path
       id="path11"
       d="m 1.9115078,-0.52760937 c 0,-0.29296875 -0.234375,-0.52734373 -0.5273437,-0.52734373 -0.28125,0 -0.52734379,0.23437498 -0.52734379,0.52734373 0,0.29296875 0.24609379,0.527343745 0.52734379,0.527343745 0.2929687,0 0.5273437,-0.234374995 0.5273437,-0.527343745 z m 4.4121094,0 c 0,-0.29296875 -0.234375,-0.52734373 -0.5273438,-0.52734373 -0.28125,0 -0.5273437,0.23437498 -0.5273437,0.52734373 0,0.29296875 0.2460937,0.527343745 0.5273437,0.527343745 0.2929688,0 0.5273438,-0.234374995 0.5273438,-0.527343745 z m 4.4238278,0 c 0,-0.29296875 -0.234375,-0.52734373 -0.527343,-0.52734373 -0.2812504,0 -0.5273442,0.23437498 -0.5273442,0.52734373 0,0.29296875 0.2460938,0.527343745 0.5273442,0.527343745 0.292968,0 0.527343,-0.234374995 0.527343,-0.527343745 z m 0,0"
       style="fill:#000000;fill-opacity:1;fill-rule:nonzero;stroke:none"
       aria-label="..."
       transform="matrix(1.3333333,0,0,1.3333333,255.97867,49.570667)" />
    <path
       id="path12"
       d="m -75.5912,0 v 39.68535 h 37.79516 V 0"
       style="fill:none;stroke:#000000;stroke-width:0.3985;stroke-linecap:butt;stroke-linejoin:miter;stroke-miterlimit:10;stroke-dasharray:none;stroke-opacity:1"
       transform="matrix(1.3333333,0,0,-1.3333333,151.44667,86.665333)" />
    <path
       id="path13"
       d="M -18.89757,0 V 39.68535 H 18.89758 V 0"
       style="fill:none;stroke:#000000;stroke-width:0.3985;stroke-linecap:butt;stroke-linejoin:miter;stroke-miterlimit:10;stroke-dasharray:none;stroke-opacity:1"
       transform="matrix(1.3333333,0,0,-1.3333333,151.44667,86.665333)" />
    <path
       id="path14"
       d="M 37.79605,0 V 39.68535 H 75.59122 V 0"
       style="fill:none;stroke:#000000;stroke-width:0.3985;stroke-linecap:butt;stroke-linejoin:miter;stroke-miterlimit:10;stroke-dasharray:none;stroke-opacity:1"
       transform="matrix(1.3333333,0,0,-1.3333333,151.44667,86.665333)" />
    <path
       id="path15"
       d="M -56.69363,5.6697 V 0"
       style="fill:none;stroke:#000000;stroke-width:0.3985;stroke-linecap:butt;stroke-linejoin:miter;stroke-miterlimit:10;stroke-dasharray:none;stroke-opacity:1"
       transform="matrix(1.3333333,0,0,-1.3333333,151.44667,86.665333)" />
    <g
       id="g15"
       aria-label="−T"
       transform="matrix(1.3333333,0,0,1.3333333,65.885333,100.436)">
      <path
         id="path16"
         d="m 6.5635391,-2.29575 c 0.1757812,0 0.3515625,0 0.3515625,-0.1992187 0,-0.1992188 -0.1757813,-0.1992188 -0.3515625,-0.1992188 h -5.390625 c -0.1640625,0 -0.33984379,0 -0.33984379,0.1992188 0,0.1992187 0.17578129,0.1992187 0.33984379,0.1992187 z m 0,0"
         style="fill:#000000;fill-opacity:1;fill-rule:nonzero;stroke:none" />
      <path
         id="path17"
         d="m 12.003969,-6.04575 c 0.07031,-0.28125 0.105468,-0.3398437 0.234375,-0.3632812 0.08203,-0.023437 0.410156,-0.023437 0.621093,-0.023437 1.007813,0 1.453125,0.035156 1.453125,0.8203125 0,0.140625 -0.03516,0.5273437 -0.08203,0.796875 0,0.035156 -0.02344,0.1523437 -0.02344,0.1875 0,0.058594 0.02344,0.1289062 0.117187,0.1289062 0.105469,0 0.128906,-0.082031 0.152344,-0.234375 l 0.269531,-1.734375 c 0.01172,-0.035156 0.01172,-0.140625 0.01172,-0.1640625 0,-0.1054687 -0.09375,-0.1054687 -0.269531,-0.1054687 H 8.9688125 c -0.2460938,0 -0.2578125,0 -0.3164063,0.1992187 L 8.05475,-4.7918437 c -0.011719,0.023437 -0.070312,0.1640625 -0.070312,0.1757812 0,0.070312 0.058594,0.1171875 0.1289062,0.1171875 0.09375,0 0.1054688,-0.046875 0.1640625,-0.2109375 0.5390625,-1.546875 0.796875,-1.7226562 2.2734383,-1.7226562 h 0.386718 c 0.28125,0 0.28125,0.035156 0.28125,0.1171875 0,0.058594 -0.03516,0.1757812 -0.04687,0.2109375 L 9.8477187,-0.78403125 C 9.7539687,-0.42075 9.7188125,-0.3035625 8.6524062,-0.3035625 c -0.3515625,0 -0.4101562,0 -0.4101562,0.1875 0,0.1171875 0.1054687,0.1171875 0.1640625,0.1171875 0.2695312,0 0.5507812,-0.0234375 0.8203125,-0.0234375 0.28125,0 0.5625,-0.01171875 0.84375,-0.01171875 0.28125,0 0.5625,0.01171875 0.832031,0.01171875 0.28125,0 0.585938,0.0234375 0.867188,0.0234375 0.09375,0 0.210937,0 0.210937,-0.19921875 0,-0.10546875 -0.08203,-0.10546875 -0.339844,-0.10546875 -0.246093,0 -0.375,0 -0.632812,-0.0234375 -0.292969,-0.0351563 -0.363281,-0.0585938 -0.363281,-0.22265625 0,-0.0117188 0,-0.0585938 0.03516,-0.2109375 z m 0,0"
         style="fill:#000000;fill-opacity:1;fill-rule:nonzero;stroke:none" />
    </g>
    <path
       id="path18"
       d="M 56.69363,5.6697 V 0"
       style="fill:none;stroke:#000000;stroke-width:0.3985;stroke-linecap:butt;stroke-linejoin:miter;stroke-miterlimit:10;stroke-dasharray:none;stroke-opacity:1"
       transform="matrix(1.3333333,0,0,-1.3333333,151.44667,86.665333)" />
    <path
       id="path19"
       d="M 4.2536875,-6.04575 C 4.324,-6.327 4.3591563,-6.3855937 4.4880625,-6.4090312 c 0.082031,-0.023437 0.4101563,-0.023437 0.6210938,-0.023437 1.0078125,0 1.453125,0.035156 1.453125,0.8203125 0,0.140625 -0.035156,0.5273437 -0.082031,0.796875 0,0.035156 -0.023437,0.1523437 -0.023437,0.1875 0,0.058594 0.023437,0.1289062 0.1171875,0.1289062 0.1054688,0 0.1289063,-0.082031 0.1523438,-0.234375 L 6.995875,-6.467625 c 0.011719,-0.035156 0.011719,-0.140625 0.011719,-0.1640625 0,-0.1054687 -0.09375,-0.1054687 -0.2695313,-0.1054687 H 1.2185313 c -0.2460938,0 -0.25781255,0 -0.3164063,0.1992187 l -0.59765625,1.7460938 c -0.0117188,0.023437 -0.0703125,0.1640625 -0.0703125,0.1757812 0,0.070312 0.0585938,0.1171875 0.12890625,0.1171875 0.09375,0 0.10546875,-0.046875 0.1640625,-0.2109375 0.5390625,-1.546875 0.796875,-1.7226562 2.2734375,-1.7226562 h 0.3867188 c 0.28125,0 0.28125,0.035156 0.28125,0.1171875 0,0.058594 -0.035156,0.1757812 -0.046875,0.2109375 L 2.0974375,-0.78403125 C 2.0036875,-0.42075 1.9685313,-0.3035625 0.902125,-0.3035625 c -0.3515625,0 -0.41015625,0 -0.41015625,0.1875 0,0.1171875 0.10546875,0.1171875 0.1640625,0.1171875 0.26953125,0 0.55078125,-0.0234375 0.82031255,-0.0234375 0.28125,0 0.5625,-0.01171875 0.84375,-0.01171875 0.28125,0 0.5625,0.01171875 0.8320312,0.01171875 0.28125,0 0.5859375,0.0234375 0.8671875,0.0234375 0.09375,0 0.2109375,0 0.2109375,-0.19921875 0,-0.10546875 -0.082031,-0.10546875 -0.3398437,-0.10546875 -0.2460938,0 -0.375,0 -0.6328125,-0.0234375 -0.2929688,-0.0351563 -0.3632813,-0.0585938 -0.3632813,-0.22265625 0,-0.0117188 0,-0.0585938 0.035156,-0.2109375 z m 0,0"
       style="fill:#000000;fill-opacity:1;fill-rule:nonzero;stroke:none"
       aria-label="T"
       transform="matrix(1.3333333,0,0,1.3333333,222.23467,100.436)" />
    <g
       id="g19"
       aria-label="−&#10;τ"
       transform="matrix(1.3333333,0,0,1.3333333,116.50267,100.592)">
      <path
         id="path20"
         d="m 6.5634297,-2.2955625 c 0.1757812,0 0.3515625,0 0.3515625,-0.1992187 C 6.9149922,-2.694 6.7392109,-2.694 6.5634297,-2.694 h -5.390625 c -0.1640625,0 -0.33984376,0 -0.33984376,0.1992188 0,0.1992187 0.17578126,0.1992187 0.33984376,0.1992187 z m 0,0"
         style="fill:#000000;fill-opacity:1;fill-rule:nonzero;stroke:none" />
      <path
         id="path21"
         d="m 11.335891,-6.4527891 h 1.300781 c 0.07031,0 0.363281,0 0.363281,-0.28125 0,-0.1875 -0.175781,-0.1875 -0.292969,-0.1875 h -2.203125 c -0.199218,0 -0.421875,0.011719 -0.7851559,0.3398438 -0.1992187,0.1875 -0.4570312,0.5507812 -0.4570312,0.609375 0,0.082031 0.09375,0.082031 0.1171875,0.082031 0.070312,0 0.082031,-0.011719 0.1289062,-0.070312 0.3515625,-0.4921875 0.7734374,-0.4921875 0.9375004,-0.4921875 h 0.621093 l -0.691406,2.2265625 c -0.03516,0.1171875 -0.03516,0.1289063 -0.03516,0.1640625 0,0.1875 0.175781,0.2226563 0.234375,0.2226563 0.257812,0 0.304687,-0.2460938 0.328125,-0.3515625 z m 0,0"
         style="fill:#000000;fill-opacity:1;fill-rule:nonzero;stroke:none" />
    </g>
    <path
       id="path22"
       d="m 50.529,9.496 h 4.48"
       style="fill:none;stroke:#000000;stroke-width:0.3985;stroke-linecap:butt;stroke-linejoin:miter;stroke-miterlimit:10;stroke-dasharray:none;stroke-opacity:1"
       transform="matrix(1.3333333,0,0,-1.3333333,61.056,109.932)" />
    <path
       id="path23"
       d="M 3.5167734,-1.2657187 H 3.2823984 C 3.2589609,-1.113375 3.2003672,-0.70321875 3.1066172,-0.63290625 3.0480234,-0.59775 2.5089609,-0.59775 2.4152109,-0.59775 H 1.1261484 c 0.7382813,-0.6445312 0.984375,-0.84375 1.3945313,-1.171875 0.515625,-0.4101562 0.9960937,-0.84375 0.9960937,-1.5 0,-0.84375 -0.7382812,-1.359375 -1.6289062,-1.359375 -0.8671875,0 -1.45312501,0.609375 -1.45312501,1.2421875 0,0.3632813 0.3046875,0.3984375 0.375,0.3984375 0.1640625,0 0.37500001,-0.1171875 0.37500001,-0.375 0,-0.1289062 -0.058594,-0.3632812 -0.42187501,-0.3632812 0.22265625,-0.5039063 0.69140621,-0.65625 1.01953121,-0.65625 0.703125,0 1.0664063,0.5507812 1.0664063,1.1132812 0,0.609375 -0.4335938,1.0898438 -0.65625,1.3359375 L 0.50505469,-0.269625 c -0.0703125,0.0585938 -0.0703125,0.0703125 -0.0703125,0.26953125 H 3.3175547 Z m 0,0"
       style="fill:#000000;fill-opacity:1;fill-rule:nonzero;stroke:none"
       aria-label="2"
       transform="matrix(1.3333333,0,0,1.3333333,128.768,105.172)" />
    <path
       id="path24"
       d="m 2.3898125,-2.5297891 h 1.3007813 c 0.070312,0 0.3632812,0 0.3632812,-0.28125 0,-0.1875 -0.1757812,-0.1875 -0.2929687,-0.1875 h -2.203125 c -0.1992188,0 -0.421875,0.011719 -0.7851563,0.3398438 -0.19921875,0.1875 -0.45703125,0.5507812 -0.45703125,0.609375 0,0.082031 0.09375,0.082031 0.1171875,0.082031 0.0703125,0 0.0820313,-0.011719 0.12890625,-0.070312 0.3515625,-0.4921875 0.7734375,-0.4921875 0.9375,-0.4921875 H 2.1202813 L 1.428875,-0.30322656 c -0.035156,0.1171875 -0.035156,0.12890625 -0.035156,0.1640625 0,0.1875 0.1757812,0.22265625 0.234375,0.22265625 0.2578125,0 0.3046875,-0.24609375 0.328125,-0.3515625 z m 0,0"
       style="fill:#000000;fill-opacity:1;fill-rule:nonzero;stroke:none"
       aria-label="τ"
       transform="matrix(1.3333333,0,0,1.3333333,173.65733,95.361333)" />
    <path
       id="path25"
       d="m 42.781,9.496 h 4.48"
       style="fill:none;stroke:#000000;stroke-width:0.3985;stroke-linecap:butt;stroke-linejoin:miter;stroke-miterlimit:10;stroke-dasharray:none;stroke-opacity:1"
       transform="matrix(1.3333333,0,0,-1.3333333,116.616,109.932)" />
    <path
       id="path26"
       d="M 3.5156953,-1.2657187 H 3.2813203 C 3.2578828,-1.113375 3.1992891,-0.70321875 3.1055391,-0.63290625 3.0469453,-0.59775 2.5078828,-0.59775 2.4141328,-0.59775 H 1.1250703 c 0.7382813,-0.6445312 0.984375,-0.84375 1.3945313,-1.171875 0.515625,-0.4101562 0.9960937,-0.84375 0.9960937,-1.5 0,-0.84375 -0.7382812,-1.359375 -1.6289062,-1.359375 -0.8671875,0 -1.45312504,0.609375 -1.45312504,1.2421875 0,0.3632813 0.3046875,0.3984375 0.375,0.3984375 0.1640625,0 0.37500004,-0.1171875 0.37500004,-0.375 0,-0.1289062 -0.058594,-0.3632812 -0.42187504,-0.3632812 0.22265625,-0.5039063 0.69140624,-0.65625 1.01953124,-0.65625 0.703125,0 1.0664063,0.5507812 1.0664063,1.1132812 0,0.609375 -0.4335938,1.0898438 -0.65625,1.3359375 L 0.50397656,-0.269625 c -0.0703125,0.0585938 -0.0703125,0.0703125 -0.0703125,0.26953125 H 3.3164766 Z m 0,0"
       style="fill:#000000;fill-opacity:1;fill-rule:nonzero;stroke:none"
       aria-label="2"
       transform="matrix(1.3333333,0,0,1.3333333,173.996,105.172)" />
    <path
       id="path27"
       d="m 7.3705781,-4.3465312 c 0,-1.59375 -1.0546875,-2.671875 -2.5429687,-2.671875 -2.1445313,0 -4.33593752,2.2617187 -4.33593752,4.5820312 0,1.65234375 1.11328122,2.66015625 2.54296872,2.66015625 2.109375,0 4.3359375,-2.17968745 4.3359375,-4.57031245 z m -4.2773437,4.31249995 c -0.984375,0 -1.6757813,-0.80859375 -1.6757813,-2.12109375 0,-0.4453125 0.140625,-1.8984375 0.9023438,-3.0585937 0.6914062,-1.0429688 1.6640625,-1.5585938 2.4492187,-1.5585938 0.8203125,0 1.7109375,0.5625 1.7109375,2.0390625 0,0.7148438 -0.2695312,2.2734375 -1.2539062,3.5039063 -0.4804688,0.5976562 -1.2890625,1.19531245 -2.1328125,1.19531245 z m 0,0"
       style="fill:#000000;fill-opacity:1;fill-rule:nonzero;stroke:none"
       aria-label="O"
       transform="matrix(1.3333333,0,0,1.3333333,146.196,100.436)" />
    <path
       id="path28"
       d="m 7.0553828,-2.3203672 c 0.023437,-0.046875 0.046875,-0.1171875 0.046875,-0.140625 0,-0.011719 0,-0.1054687 -0.1171875,-0.1054687 -0.09375,0 -0.1054687,0.058594 -0.1289062,0.1171875 -0.6445313,1.47656246 -1.0195313,2.14453121 -2.71875,2.14453121 h -1.453125 c -0.140625,0 -0.1640625,0 -0.2226563,-0.0117188 -0.1054687,-0.0117188 -0.1289062,-0.0234375 -0.1289062,-0.10546875 0,-0.0234375 0,-0.046875 0.046875,-0.22265625 L 3.0592891,-3.3633359 h 0.984375 c 0.84375,0 0.84375,0.2109375 0.84375,0.4570312 0,0.070312 0,0.1875 -0.070312,0.4804688 -0.011719,0.058594 -0.023437,0.082031 -0.023437,0.1171875 0,0.046875 0.035156,0.1054687 0.1289062,0.1054687 0.082031,0 0.1054688,-0.046875 0.1523438,-0.1992187 l 0.5625,-2.3320313 c 0,-0.058594 -0.046875,-0.1054687 -0.1171875,-0.1054687 -0.09375,0 -0.1054688,0.058594 -0.140625,0.1757812 -0.2109375,0.7617188 -0.3867188,0.984375 -1.3007813,0.984375 h -0.9375 l 0.5976563,-2.4023437 c 0.082031,-0.3398438 0.09375,-0.3867188 0.5390625,-0.3867188 h 1.40625 c 1.2070312,0 1.5117187,0.2929688 1.5117187,1.1132813 0,0.234375 0,0.2578125 -0.046875,0.5273437 0,0.058594 -0.011719,0.1289063 -0.011719,0.1757813 0,0.046875 0.035156,0.1171875 0.1289062,0.1171875 0.1054688,0 0.1171875,-0.058594 0.140625,-0.2460938 L 7.6061641,-6.5039609 C 7.6296016,-6.7734922 7.5827266,-6.7734922 7.3366328,-6.7734922 H 2.2975703 c -0.1992187,0 -0.2929687,0 -0.2929687,0.1992188 0,0.1054687 0.09375,0.1054687 0.28125,0.1054687 0.3632812,0 0.6445312,0 0.6445312,0.1875 0,0.035156 0,0.058594 -0.046875,0.234375 l -1.3242187,5.27343751 c -0.09375,0.38671875 -0.1171875,0.46875 -0.90234379,0.46875 -0.1640625,0 -0.28125,0 -0.28125,0.1875 0,0.1171875025 0.09375,0.1171875025 0.28125,0.1171875025 H 5.8249141 c 0.234375,0 0.2460937,-0.0117187525 0.3164062,-0.1640625025 z m 0,0"
       style="fill:#000000;fill-opacity:1;fill-rule:nonzero;stroke:none"
       aria-label="E"
       transform="matrix(1.3333333,0,0,1.3333333,136.18267,29.058667)" />
  </g>
</svg>
