<?xml version="1.0" encoding="UTF-8" standalone="no"?>
<!-- Created with Inkscape (http://www.inkscape.org/) -->

<svg
   version="1.1"
   id="svg1"
   width="233.86667"
   height="162.52"
   viewBox="0 0 233.86667 162.52"
   sodipodi:docname="24-25-1-信号与系统-期末（B卷）-题图2.4.pdf"
   xmlns:inkscape="http://www.inkscape.org/namespaces/inkscape"
   xmlns:sodipodi="http://sodipodi.sourceforge.net/DTD/sodipodi-0.dtd"
   xmlns="http://www.w3.org/2000/svg"
   xmlns:svg="http://www.w3.org/2000/svg">
  <defs
     id="defs1" />
  <sodipodi:namedview
     id="namedview1"
     pagecolor="#ffffff"
     bordercolor="#000000"
     borderopacity="0.25"
     inkscape:showpageshadow="2"
     inkscape:pageopacity="0.0"
     inkscape:pagecheckerboard="0"
     inkscape:deskcolor="#d1d1d1">
    <inkscape:page
       x="0"
       y="0"
       inkscape:label="1"
       id="page1"
       width="233.86667"
       height="162.52"
       margin="0"
       bleed="0" />
  </sodipodi:namedview>
  <g
     id="g1"
     inkscape:groupmode="layer"
     inkscape:label="1">
    <path
       id="path1"
       d="M -85.04044,0 H 84.64194"
       style="fill:none;stroke:#000000;stroke-width:0.3985;stroke-linecap:butt;stroke-linejoin:miter;stroke-miterlimit:10;stroke-dasharray:none;stroke-opacity:1"
       transform="matrix(1.3333333,0,0,-1.3333333,113.652,124.45867)" />
    <path
       id="path2"
       d="M -2.07224,2.39104 C -1.69365,0.95639 -0.84999,0.27895 0,0 -0.84999,-0.27895 -1.69365,-0.95639 -2.07224,-2.39104"
       style="fill:none;stroke:#000000;stroke-width:0.3985;stroke-linecap:round;stroke-linejoin:round;stroke-miterlimit:10;stroke-dasharray:none;stroke-opacity:1"
       transform="matrix(1.3333333,0,0,-1.3333333,226.77359,124.45867)" />
    <path
       id="path3"
       d="m 2.05025,-3.9832109 h 0.9375 c 0.1992188,0 0.3046875,0 0.3046875,-0.1992188 0,-0.1054687 -0.1054687,-0.1054687 -0.28125,-0.1054687 H 2.1322813 c 0.3632812,-1.4179688 0.4101562,-1.6171875 0.4101562,-1.6757813 0,-0.1757812 -0.1171875,-0.2695312 -0.2929687,-0.2695312 -0.023437,0 -0.3046875,0.011719 -0.3984375,0.3515625 l -0.3867188,1.59375 h -0.9375 c -0.19921875,0 -0.29296875,0 -0.29296875,0.1875 0,0.1171875 0.0703125,0.1171875 0.26953125,0.1171875 h 0.8789063 c -0.7148438,2.8242187 -0.75000005,2.99999996 -0.75000005,3.17578121 0,0.5390625 0.37500005,0.9140625 0.91406255,0.9140625 1.0078125,0 1.5820312,-1.45312501 1.5820312,-1.53515621 0,-0.09375 -0.082031,-0.09375 -0.1171875,-0.09375 -0.09375,0 -0.1054687,0.023437 -0.1523437,0.140625 -0.4335938,1.03124996 -0.9609375,1.27734371 -1.3007813,1.27734371 -0.1992187,0 -0.3046875,-0.12890625 -0.3046875,-0.45703125 0,-0.24609375 0.023437,-0.31640625 0.058594,-0.48046876 z m 0,0"
       style="fill:#000000;fill-opacity:1;fill-rule:nonzero;stroke:none"
       aria-label="t"
       transform="matrix(1.3333333,0,0,1.3333333,224.64133,137.32267)" />
    <path
       id="path4"
       d="M 0,-28.3468 V 84.64194"
       style="fill:none;stroke:#000000;stroke-width:0.3985;stroke-linecap:butt;stroke-linejoin:miter;stroke-miterlimit:10;stroke-dasharray:none;stroke-opacity:1"
       transform="matrix(1.3333333,0,0,-1.3333333,113.652,124.45867)" />
    <path
       id="path5"
       d="M -2.07224,2.39104 C -1.69365,0.95639 -0.84999,0.27895 0,0 -0.84999,-0.27895 -1.69365,-0.95639 -2.07224,-2.39104"
       style="fill:none;stroke:#000000;stroke-width:0.3985;stroke-linecap:round;stroke-linejoin:round;stroke-miterlimit:10;stroke-dasharray:none;stroke-opacity:1"
       transform="matrix(0,-1.3333333,-1.3333333,0,113.652,11.33708)" />
    <g
       id="g5"
       aria-label="f(t)"
       transform="matrix(1.3333333,0,0,1.3333333,118.34533,14.392)">
      <path
         id="path6"
         d="m 3.6550625,-3.9854062 h 0.8554687 c 0.1992188,0 0.3046875,0 0.3046875,-0.1992188 0,-0.1054687 -0.1054687,-0.1054687 -0.2695312,-0.1054687 H 3.7136562 L 3.9245937,-5.4268125 C 3.95975,-5.63775 4.100375,-6.340875 4.1589687,-6.4697812 c 0.09375,-0.1875 0.2578125,-0.3398438 0.46875,-0.3398438 0.046875,0 0.3046875,0 0.4921875,0.1875 -0.4335937,0.035156 -0.5390625,0.3867188 -0.5390625,0.5390625 0,0.2226563 0.1757813,0.3398438 0.3632813,0.3398438 0.2695312,0 0.5507812,-0.2109375 0.5507812,-0.5976563 0,-0.4570312 -0.4570312,-0.6796875 -0.8671875,-0.6796875 -0.3398437,0 -0.9609375,0.1757813 -1.265625,1.1601563 C 3.3035,-5.6494687 3.2800625,-5.544 3.0339687,-4.2900937 H 2.3542812 c -0.1992187,0 -0.3046875,0 -0.3046875,0.1875 0,0.1171875 0.09375,0.1171875 0.28125,0.1171875 h 0.65625 l -0.75,3.93749995 C 2.0613125,0.91303125 1.89725,1.8270938 1.3699062,1.8270938 c -0.035156,0 -0.28125,0 -0.46874995,-0.1875 C 1.3581875,1.6161563 1.4402187,1.252875 1.4402187,1.1005313 c 0,-0.2226563 -0.1757812,-0.3398438 -0.3632812,-0.3398438 -0.2578125,0 -0.55078125,0.2109375 -0.55078125,0.5976563 0,0.4453125 0.43359375,0.6796875 0.84374995,0.6796875 0.5507813,0 0.9492188,-0.5859375 1.125,-0.9609375 0.328125,-0.63281255 0.5507813,-1.8398438 0.5625,-1.9101563 z m 0,0"
         style="fill:#000000;fill-opacity:1;fill-rule:nonzero;stroke:none" />
      <path
         id="path7"
         d="m 9.2419766,2.3895938 c 0,-0.035156 0,-0.046875 -0.1640625,-0.2226563 C 7.8357266,0.91303125 7.5076016,-0.96196875 7.5076016,-2.497125 c 0,-1.7226562 0.3867187,-3.4570312 1.6054687,-4.7109375 0.1289063,-0.1171875 0.1289063,-0.1289062 0.1289063,-0.1640625 0,-0.070312 -0.035156,-0.1054687 -0.09375,-0.1054687 -0.1054688,0 -0.9960938,0.6796875 -1.5820313,1.9453125 -0.515625,1.1015625 -0.6328125,2.203125 -0.6328125,3.0351562 0,0.7851563 0.1171875,1.9921875 0.65625,3.1171875 0.5976563,1.21875 1.453125,1.875 1.5585938,1.875 0.058594,0 0.09375,-0.035156 0.09375,-0.1054687 z m 0,0"
         style="fill:#000000;fill-opacity:1;fill-rule:nonzero;stroke:none" />
      <path
         id="path8"
         d="m 11.875766,-3.9854062 h 0.9375 c 0.199218,0 0.304687,0 0.304687,-0.1992188 0,-0.1054687 -0.105469,-0.1054687 -0.28125,-0.1054687 h -0.878906 c 0.363281,-1.4179688 0.410156,-1.6171875 0.410156,-1.6757813 0,-0.1757812 -0.117187,-0.2695312 -0.292969,-0.2695312 -0.02344,0 -0.304687,0.011719 -0.398437,0.3515625 l -0.386719,1.59375 h -0.9375 c -0.199219,0 -0.292969,0 -0.292969,0.1875 0,0.1171875 0.07031,0.1171875 0.269532,0.1171875 h 0.878906 c -0.714844,2.8242187 -0.75,2.99999995 -0.75,3.1757812 0,0.5390625 0.375,0.9140625 0.914062,0.9140625 1.007813,0 1.582032,-1.453125 1.582032,-1.5351562 0,-0.09375 -0.08203,-0.09375 -0.117188,-0.09375 -0.09375,0 -0.105469,0.023437 -0.152344,0.140625 -0.433593,1.03124995 -0.960937,1.2773437 -1.300781,1.2773437 -0.199219,0 -0.304687,-0.12890625 -0.304687,-0.45703125 0,-0.24609375 0.02344,-0.31640625 0.05859,-0.48046875 z m 0,0"
         style="fill:#000000;fill-opacity:1;fill-rule:nonzero;stroke:none" />
      <path
         id="path9"
         d="m 16.305453,-2.497125 c 0,-0.7734375 -0.117187,-1.9804687 -0.65625,-3.1054687 -0.597656,-1.21875 -1.464844,-1.875 -1.558594,-1.875 -0.05859,0 -0.105468,0.046875 -0.105468,0.1054687 0,0.035156 0,0.046875 0.199218,0.234375 0.972657,0.984375 1.535157,2.5664063 1.535157,4.640625 0,1.7109375 -0.363282,3.45703125 -1.59375,4.7226563 -0.140625,0.1171875 -0.140625,0.1289062 -0.140625,0.1640625 0,0.058594 0.04687,0.1054687 0.105468,0.1054687 0.09375,0 0.996094,-0.6796875 1.582032,-1.9453125 0.503906,-1.1015625 0.632812,-2.203125 0.632812,-3.046875 z m 0,0"
         style="fill:#000000;fill-opacity:1;fill-rule:nonzero;stroke:none" />
    </g>
    <path
       id="path10"
       d="M -56.69363,0 V 56.69363 H 56.69363 V 0"
       style="fill:none;stroke:#000000;stroke-width:0.3985;stroke-linecap:butt;stroke-linejoin:miter;stroke-miterlimit:10;stroke-dasharray:none;stroke-opacity:1"
       transform="matrix(1.3333333,0,0,-1.3333333,113.652,124.45867)" />
    <g
       id="g10"
       aria-label="−&#10;τ"
       transform="matrix(1.3333333,0,0,1.3333333,28.313333,138.38533)">
      <path
         id="path11"
         d="m 6.561875,-2.2958359 c 0.1757813,0 0.3515625,0 0.3515625,-0.1992188 0,-0.1992187 -0.1757812,-0.1992187 -0.3515625,-0.1992187 H 1.17125 c -0.1640625,0 -0.33984375,0 -0.33984375,0.1992187 0,0.1992188 0.17578125,0.1992188 0.33984375,0.1992188 z m 0,0"
         style="fill:#000000;fill-opacity:1;fill-rule:nonzero;stroke:none" />
      <path
         id="path12"
         d="m 11.334336,-6.4530625 h 1.300781 c 0.07031,0 0.363281,0 0.363281,-0.28125 0,-0.1875 -0.175781,-0.1875 -0.292968,-0.1875 h -2.203125 c -0.199219,0 -0.421875,0.011719 -0.7851566,0.3398437 -0.1992187,0.1875 -0.4570312,0.5507813 -0.4570312,0.609375 0,0.082031 0.09375,0.082031 0.1171875,0.082031 0.070312,0 0.082031,-0.011719 0.1289062,-0.070312 0.3515625,-0.4921875 0.7734371,-0.4921875 0.9375001,-0.4921875 h 0.621094 L 10.373398,-4.2265 c -0.03516,0.1171875 -0.03516,0.1289062 -0.03516,0.1640625 0,0.1875 0.175781,0.2226562 0.234375,0.2226562 0.257813,0 0.304688,-0.2460937 0.328125,-0.3515625 z m 0,0"
         style="fill:#000000;fill-opacity:1;fill-rule:nonzero;stroke:none" />
    </g>
    <path
       id="path13"
       d="m 22.183,-18.851 h 4.48"
       style="fill:none;stroke:#000000;stroke-width:0.3985;stroke-linecap:butt;stroke-linejoin:miter;stroke-miterlimit:10;stroke-dasharray:none;stroke-opacity:1"
       transform="matrix(1.3333333,0,0,-1.3333333,10.661333,109.93067)" />
    <path
       id="path14"
       d="m 3.5162188,-1.2669922 h -0.234375 c -0.023437,0.1523438 -0.082031,0.56250001 -0.1757813,0.63281251 -0.058594,0.0351563 -0.5976562,0.0351563 -0.6914062,0.0351563 H 1.1255938 C 1.863875,-1.2435547 2.1099688,-1.4427734 2.520125,-1.7708984 c 0.515625,-0.4101563 0.9960938,-0.84375 0.9960938,-1.5 0,-0.84375 -0.7382813,-1.359375 -1.6289063,-1.359375 -0.8671875,0 -1.453125,0.609375 -1.453125,1.2421875 0,0.3632812 0.3046875,0.3984375 0.375,0.3984375 0.1640625,0 0.375,-0.1171875 0.375,-0.375 0,-0.1289063 -0.058594,-0.3632813 -0.421875,-0.3632813 0.22265625,-0.5039062 0.6914063,-0.65625 1.0195313,-0.65625 0.703125,0 1.0664062,0.5507813 1.0664062,1.1132813 0,0.609375 -0.4335937,1.0898437 -0.65625,1.3359375 l -1.6875,1.66406246 c -0.0703125,0.0585938 -0.0703125,0.0703125 -0.0703125,0.26953125 H 3.317 Z m 0,0"
       style="fill:#000000;fill-opacity:1;fill-rule:nonzero;stroke:none"
       aria-label="2"
       transform="matrix(1.3333333,0,0,1.3333333,40.577333,142.96667)" />
    <path
       id="path15"
       d="m 2.3919844,-2.5310625 h 1.3007812 c 0.070312,0 0.3632813,0 0.3632813,-0.28125 0,-0.1875 -0.1757813,-0.1875 -0.2929688,-0.1875 h -2.203125 c -0.1992187,0 -0.421875,0.011719 -0.78515623,0.3398438 -0.19921875,0.1875 -0.45703125,0.5507812 -0.45703125,0.609375 0,0.082031 0.09375,0.082031 0.1171875,0.082031 0.0703125,0 0.0820312,-0.011719 0.12890625,-0.070312 0.3515625,-0.4921875 0.77343753,-0.4921875 0.93750003,-0.4921875 H 2.1224531 L 1.4310469,-0.3045 c -0.035156,0.1171875 -0.035156,0.12890625 -0.035156,0.1640625 0,0.1875 0.1757813,0.22265625 0.234375,0.22265625 0.2578125,0 0.3046875,-0.24609375 0.328125,-0.3515625 z m 0,0"
       style="fill:#000000;fill-opacity:1;fill-rule:nonzero;stroke:none"
       aria-label="τ"
       transform="matrix(1.3333333,0,0,1.3333333,186.256,133.156)" />
    <path
       id="path16"
       d="m 14.434,-18.851 h 4.48"
       style="fill:none;stroke:#000000;stroke-width:0.3985;stroke-linecap:butt;stroke-linejoin:miter;stroke-miterlimit:10;stroke-dasharray:none;stroke-opacity:1"
       transform="matrix(1.3333333,0,0,-1.3333333,167.01067,109.93067)" />
    <path
       id="path17"
       d="m 3.5168672,-1.2669922 h -0.234375 c -0.023437,0.1523438 -0.082031,0.56250001 -0.1757813,0.63281251 -0.058594,0.0351563 -0.5976562,0.0351563 -0.6914062,0.0351563 H 1.1262422 c 0.7382812,-0.64453131 0.984375,-0.84374991 1.3945312,-1.17187491 0.515625,-0.4101564 0.9960938,-0.8437501 0.9960938,-1.5000001 0,-0.8437499 -0.7382813,-1.3593749 -1.6289063,-1.3593749 -0.8671875,0 -1.45312496,0.609375 -1.45312496,1.2421875 0,0.3632812 0.3046875,0.3984375 0.375,0.3984375 0.1640625,0 0.37499996,-0.1171875 0.37499996,-0.375 0,-0.1289063 -0.058594,-0.3632813 -0.42187496,-0.3632813 0.22265625,-0.5039062 0.69140626,-0.65625 1.01953126,-0.65625 0.703125,0 1.0664062,0.5507812 1.0664062,1.1132812 0,0.609375 -0.4335937,1.0898437 -0.65625,1.3359375 l -1.68749996,1.66406251 c -0.0703125,0.0585938 -0.0703125,0.0703125 -0.0703125,0.26953125 H 3.3176484 Z m 0,0"
       style="fill:#000000;fill-opacity:1;fill-rule:nonzero;stroke:none"
       aria-label="2"
       transform="matrix(1.3333333,0,0,1.3333333,186.596,142.96667)" />
    <path
       id="path18"
       d="m 7.0537266,-2.3194766 c 0.023437,-0.046875 0.046875,-0.1171875 0.046875,-0.140625 0,-0.011719 0,-0.1054687 -0.1171875,-0.1054687 -0.09375,0 -0.1054688,0.058594 -0.1289063,0.1171875 -0.6445312,1.47656249 -1.0195312,2.14453124 -2.71875,2.14453124 h -1.453125 c -0.140625,0 -0.1640625,0 -0.2226562,-0.0117188 -0.1054688,-0.0117188 -0.1289063,-0.0234375 -0.1289063,-0.10546875 0,-0.0234375 0,-0.046875 0.046875,-0.22265625 L 3.0576328,-3.3624453 h 0.984375 c 0.84375,0 0.84375,0.2109375 0.84375,0.4570312 0,0.070312 0,0.1875 -0.070312,0.4804688 -0.011719,0.058594 -0.023437,0.082031 -0.023437,0.1171875 0,0.046875 0.035156,0.1054687 0.1289063,0.1054687 0.082031,0 0.1054687,-0.046875 0.1523437,-0.1992187 l 0.5625,-2.3320313 c 0,-0.058594 -0.046875,-0.1054687 -0.1171875,-0.1054687 -0.09375,0 -0.1054687,0.058594 -0.140625,0.1757812 -0.2109375,0.7617188 -0.3867187,0.984375 -1.3007812,0.984375 h -0.9375 l 0.5976562,-2.4023437 c 0.082031,-0.3398438 0.09375,-0.3867188 0.5390625,-0.3867188 h 1.40625 c 1.2070313,0 1.5117188,0.2929688 1.5117188,1.1132813 0,0.234375 0,0.2578125 -0.046875,0.5273437 0,0.058594 -0.011719,0.1289063 -0.011719,0.1757813 0,0.046875 0.035156,0.1171875 0.1289063,0.1171875 0.1054687,0 0.1171875,-0.058594 0.140625,-0.2460938 L 7.6045078,-6.5030703 C 7.6279453,-6.7726016 7.5810703,-6.7726016 7.3349766,-6.7726016 H 2.2959141 c -0.1992188,0 -0.2929688,0 -0.2929688,0.1992188 0,0.1054687 0.09375,0.1054687 0.28125,0.1054687 0.3632813,0 0.6445313,0 0.6445313,0.1875 0,0.035156 0,0.058594 -0.046875,0.234375 l -1.3242188,5.27343754 c -0.09375,0.38671875 -0.1171875,0.46875 -0.90234374,0.46875 -0.1640625,0 -0.28125,0 -0.28125,0.1875 0,0.1171874975 0.09375,0.1171874975 0.28125,0.1171874975 H 5.8232578 c 0.234375,0 0.2460938,-0.0117187475 0.3164063,-0.1640624975 z m 0,0"
       style="fill:#000000;fill-opacity:1;fill-rule:nonzero;stroke:none"
       aria-label="E"
       transform="matrix(1.3333333,0,0,1.3333333,98.388,44.174667)" />
    <path
       id="path19"
       d="m 7.3708672,-4.3468047 c 0,-1.59375 -1.0546875,-2.671875 -2.5429688,-2.671875 -2.1445312,0 -4.33593746,2.2617188 -4.33593746,4.5820313 0,1.65234371 1.11328126,2.66015621 2.54296876,2.66015621 2.109375,0 4.3359375,-2.17968751 4.3359375,-4.57031251 z m -4.2773438,4.31250001 c -0.984375,0 -1.6757812,-0.80859375 -1.6757812,-2.12109371 0,-0.4453125 0.140625,-1.8984375 0.9023437,-3.0585938 0.6914063,-1.0429687 1.6640625,-1.5585937 2.4492188,-1.5585937 0.8203125,0 1.7109375,0.5625 1.7109375,2.0390625 0,0.7148437 -0.2695313,2.2734375 -1.2539063,3.5039062 -0.4804687,0.59765626 -1.2890625,1.19531251 -2.1328125,1.19531251 z m 0,0"
       style="fill:#000000;fill-opacity:1;fill-rule:nonzero;stroke:none"
       aria-label="O"
       transform="matrix(1.3333333,0,0,1.3333333,98.457333,138.22933)" />
  </g>
</svg>
