<?xml version="1.0" encoding="UTF-8" standalone="no"?>
<!-- Created with Inkscape (http://www.inkscape.org/) -->

<svg
   version="1.1"
   id="svg1"
   width="489.73334"
   height="121.96"
   viewBox="0 0 489.73334 121.96"
   sodipodi:docname="24-25-1-信号与系统-期末（B卷）-题图9.1.pdf"
   xmlns:inkscape="http://www.inkscape.org/namespaces/inkscape"
   xmlns:sodipodi="http://sodipodi.sourceforge.net/DTD/sodipodi-0.dtd"
   xmlns="http://www.w3.org/2000/svg"
   xmlns:svg="http://www.w3.org/2000/svg">
  <defs
     id="defs1" />
  <sodipodi:namedview
     id="namedview1"
     pagecolor="#ffffff"
     bordercolor="#000000"
     borderopacity="0.25"
     inkscape:showpageshadow="2"
     inkscape:pageopacity="0.0"
     inkscape:pagecheckerboard="0"
     inkscape:deskcolor="#d1d1d1">
    <inkscape:page
       x="0"
       y="0"
       inkscape:label="1"
       id="page1"
       width="489.73334"
       height="121.96"
       margin="0"
       bleed="0" />
  </sodipodi:namedview>
  <g
     id="g1"
     inkscape:groupmode="layer"
     inkscape:label="1">
    <path
       id="path1"
       d="M 0,-34.01608 V 34.01608 H 340.18262 V -34.01608 Z"
       style="fill:none;stroke:#000000;stroke-width:0.3985;stroke-linecap:butt;stroke-linejoin:miter;stroke-miterlimit:10;stroke-dasharray:none;stroke-opacity:1"
       transform="matrix(1.3333333,0,0,-1.3333333,19.926667,46.644)" />
    <path
       id="path2"
       d="M 0,-34.01608 V 34.01608"
       style="fill:none;stroke:#000000;stroke-width:0.00995;stroke-linecap:butt;stroke-linejoin:miter;stroke-miterlimit:10;stroke-dasharray:2.98883, 2.98883;stroke-dashoffset:0;stroke-opacity:1"
       transform="matrix(1.3333333,0,0,-1.3333333,19.926667,46.644)" />
    <path
       id="path3"
       d="m 4.5819219,-3.1865625 c 0,-0.796875 -0.046875,-1.59375 -0.3984375,-2.3320313 -0.4570313,-0.9609375 -1.2773438,-1.1132812 -1.6875,-1.1132812 -0.5976563,0 -1.3359375,0.2578125 -1.73437503,1.1835937 -0.328125,0.6914063 -0.375,1.4648438 -0.375,2.2617188 0,0.75 0.046875,1.640625 0.4453125,2.40234375 0.43359373,0.80859375 1.16015623,1.0078125 1.65234373,1.0078125 0.5390625,0 1.2890625,-0.2109375 1.734375,-1.16015625 0.3164063,-0.6914063 0.3632813,-1.4648438 0.3632813,-2.25 z M 3.7498906,-3.30375 c 0,0.75 0,1.4179687 -0.1054687,2.0625 -0.1523438,0.9375 -0.7148438,1.2421875 -1.1601563,1.2421875 -0.3867187,0 -0.984375,-0.24609375 -1.1601562,-1.2070313 C 1.2186406,-1.80375 1.2186406,-2.7178125 1.2186406,-3.30375 c 0,-0.6445313 0,-1.3007813 0.082031,-1.8398438 0.1875,-1.1835937 0.9257812,-1.265625 1.1835937,-1.265625 0.328125,0 0.984375,0.1757813 1.171875,1.1601563 0.09375,0.5625 0.09375,1.3125 0.09375,1.9453125 z m 3.140625,2.77734375 c 0,-0.29296875 -0.234375,-0.52734375 -0.5273437,-0.52734375 -0.28125,0 -0.5273438,0.234375 -0.5273438,0.52734375 0,0.29296875 0.2460938,0.52734375 0.5273438,0.52734375 0.2929687,0 0.5273437,-0.234375 0.5273437,-0.52734375 z M 12.333875,-3.1865625 c 0,-0.796875 -0.04687,-1.59375 -0.398438,-2.3320313 -0.457031,-0.9609375 -1.277343,-1.1132812 -1.6875,-1.1132812 -0.5976558,0 -1.335937,0.2578125 -1.7343745,1.1835937 -0.328125,0.6914063 -0.375,1.4648438 -0.375,2.2617188 0,0.75 0.046875,1.640625 0.4453125,2.40234375 0.4335937,0.80859375 1.1601562,1.0078125 1.652344,1.0078125 0.539062,0 1.289062,-0.2109375 1.734375,-1.16015625 0.316406,-0.6914063 0.363281,-1.4648438 0.363281,-2.25 z M 11.501844,-3.30375 c 0,0.75 0,1.4179687 -0.105469,2.0625 -0.152344,0.9375 -0.714844,1.2421875 -1.160156,1.2421875 -0.386719,0 -0.9843753,-0.24609375 -1.1601565,-1.2070313 C 8.9705937,-1.80375 8.9705937,-2.7178125 8.9705937,-3.30375 c 0,-0.6445313 0,-1.3007813 0.082031,-1.8398438 0.1875,-1.1835937 0.9257812,-1.265625 1.1835943,-1.265625 0.328125,0 0.984375,0.1757813 1.171875,1.1601563 0.09375,0.5625 0.09375,1.3125 0.09375,1.9453125 z m 5.8125,0.1171875 c 0,-0.796875 -0.04687,-1.59375 -0.398438,-2.3320313 -0.457031,-0.9609375 -1.277344,-1.1132812 -1.6875,-1.1132812 -0.597656,0 -1.335937,0.2578125 -1.734375,1.1835937 -0.328125,0.6914063 -0.375,1.4648438 -0.375,2.2617188 0,0.75 0.04687,1.640625 0.445313,2.40234375 0.433593,0.80859375 1.160156,1.0078125 1.652343,1.0078125 0.539063,0 1.289063,-0.2109375 1.734375,-1.16015625 0.316407,-0.6914063 0.363282,-1.4648438 0.363282,-2.25 z M 16.482312,-3.30375 c 0,0.75 0,1.4179687 -0.105468,2.0625 C 16.2245,-0.30375 15.662,9.375e-4 15.216687,9.375e-4 c -0.386718,0 -0.984375,-0.24609375 -1.160156,-1.2070313 -0.105469,-0.5976562 -0.105469,-1.5117187 -0.105469,-2.0976562 0,-0.6445313 0,-1.3007813 0.08203,-1.8398438 0.1875,-1.1835937 0.925781,-1.265625 1.183593,-1.265625 0.328125,0 0.984375,0.1757813 1.171875,1.1601563 0.09375,0.5625 0.09375,1.3125 0.09375,1.9453125 z m 0,0"
       style="fill:#000000;fill-opacity:1;fill-rule:nonzero;stroke:none"
       aria-label="0.00"
       transform="matrix(1.3333333,0,0,1.3333333,8.1173333,105.28)" />
    <path
       id="path4"
       d="M 68.04689,-34.01608 V 34.01608"
       style="fill:none;stroke:#000000;stroke-width:0.00995;stroke-linecap:butt;stroke-linejoin:miter;stroke-miterlimit:10;stroke-dasharray:2.98883, 2.98883;stroke-dashoffset:0;stroke-opacity:1"
       transform="matrix(1.3333333,0,0,-1.3333333,19.926667,46.644)" />
    <path
       id="path5"
       d="m 4.5827734,-3.1865625 c 0,-0.796875 -0.046875,-1.59375 -0.3984375,-2.3320313 -0.4570312,-0.9609375 -1.2773437,-1.1132812 -1.6875,-1.1132812 -0.5976562,0 -1.3359375,0.2578125 -1.73437496,1.1835937 -0.328125,0.6914063 -0.375,1.4648438 -0.375,2.2617188 0,0.75 0.046875,1.640625 0.4453125,2.40234375 0.43359376,0.80859375 1.16015626,1.0078125 1.65234376,1.0078125 0.5390625,0 1.2890625,-0.2109375 1.734375,-1.16015625 0.3164062,-0.6914063 0.3632812,-1.4648438 0.3632812,-2.25 z M 3.7507422,-3.30375 c 0,0.75 0,1.4179687 -0.1054688,2.0625 -0.1523437,0.9375 -0.7148437,1.2421875 -1.1601562,1.2421875 -0.3867188,0 -0.984375,-0.24609375 -1.1601563,-1.2070313 C 1.2194922,-1.80375 1.2194922,-2.7178125 1.2194922,-3.30375 c 0,-0.6445313 0,-1.3007813 0.082031,-1.8398438 0.1875,-1.1835937 0.9257813,-1.265625 1.1835938,-1.265625 0.328125,0 0.984375,0.1757813 1.171875,1.1601563 0.09375,0.5625 0.09375,1.3125 0.09375,1.9453125 z m 3.140625,2.77734375 c 0,-0.29296875 -0.234375,-0.52734375 -0.5273438,-0.52734375 -0.28125,0 -0.5273437,0.234375 -0.5273437,0.52734375 0,0.29296875 0.2460937,0.52734375 0.5273437,0.52734375 0.2929688,0 0.5273438,-0.234375 0.5273438,-0.52734375 z M 12.331797,-3.1865625 c 0,-0.796875 -0.04687,-1.59375 -0.398438,-2.3320313 -0.457031,-0.9609375 -1.277343,-1.1132812 -1.6875,-1.1132812 -0.5976559,0 -1.3359371,0.2578125 -1.7343746,1.1835937 -0.328125,0.6914063 -0.375,1.4648438 -0.375,2.2617188 0,0.75 0.046875,1.640625 0.4453125,2.40234375 0.4335937,0.80859375 1.1601562,1.0078125 1.6523441,1.0078125 0.539062,0 1.289062,-0.2109375 1.734375,-1.16015625 0.316406,-0.6914063 0.363281,-1.4648438 0.363281,-2.25 z M 11.499766,-3.30375 c 0,0.75 0,1.4179687 -0.105469,2.0625 -0.152344,0.9375 -0.714844,1.2421875 -1.160156,1.2421875 -0.3867191,0 -0.9843754,-0.24609375 -1.1601566,-1.2070313 C 8.9685156,-1.80375 8.9685156,-2.7178125 8.9685156,-3.30375 c 0,-0.6445313 0,-1.3007813 0.082031,-1.8398438 0.1875,-1.1835937 0.9257812,-1.265625 1.1835944,-1.265625 0.328125,0 0.984375,0.1757813 1.171875,1.1601563 0.09375,0.5625 0.09375,1.3125 0.09375,1.9453125 z m 5.709961,1.5703125 h -0.257813 c -0.04687,0.3046875 -0.117187,0.73828125 -0.210937,0.890625 -0.07031,0.0820313 -0.726563,0.0820313 -0.949219,0.0820313 h -1.792969 l 1.054688,-1.03125 c 1.558593,-1.3710938 2.15625,-1.9101563 2.15625,-2.90625 0,-1.1367187 -0.902344,-1.9335937 -2.121094,-1.9335937 -1.125,0 -1.851563,0.9140625 -1.851563,1.8046875 0,0.5507812 0.492188,0.5507812 0.527344,0.5507812 0.164063,0 0.515625,-0.1171875 0.515625,-0.5273437 0,-0.2578125 -0.1875,-0.515625 -0.527344,-0.515625 -0.08203,0 -0.105468,0 -0.128906,0.011719 0.222656,-0.6445313 0.761719,-1.0195313 1.335938,-1.0195313 0.914062,0 1.335937,0.8085938 1.335937,1.6289063 0,0.7968749 -0.492187,1.5820312 -1.042969,2.2031249 l -1.910156,2.1328126 C 13.23707,-0.256875 13.23707,-0.2334375 13.23707,9.375e-4 h 3.691407 z m 0,0"
       style="fill:#000000;fill-opacity:1;fill-rule:nonzero;stroke:none"
       aria-label="0.02"
       transform="matrix(1.3333333,0,0,1.3333333,98.846667,105.28)" />
    <path
       id="path6"
       d="M 136.04189,-34.01608 V 34.01608"
       style="fill:none;stroke:#000000;stroke-width:0.00995;stroke-linecap:butt;stroke-linejoin:miter;stroke-miterlimit:10;stroke-dasharray:2.98883, 2.98883;stroke-dashoffset:0;stroke-opacity:1"
       transform="matrix(1.3333333,0,0,-1.3333333,19.926667,46.644)" />
    <path
       id="path7"
       d="m 4.5828906,-3.1871641 c 0,-0.796875 -0.046875,-1.59375 -0.3984375,-2.3320312 -0.4570312,-0.9609375 -1.2773437,-1.1132813 -1.6875,-1.1132813 -0.5976562,0 -1.3359375,0.2578125 -1.73437497,1.1835938 -0.328125,0.6914062 -0.375,1.4648437 -0.375,2.2617187 0,0.75 0.046875,1.640625 0.4453125,2.40234379 0.43359377,0.80859375 1.16015627,1.0078125 1.65234377,1.0078125 0.5390625,0 1.2890625,-0.2109375 1.734375,-1.16015625 C 4.5360156,-1.6285703 4.5828906,-2.4020078 4.5828906,-3.1871641 Z M 3.7508594,-3.3043516 c 0,0.75 0,1.4179688 -0.1054688,2.0625 -0.1523437,0.93750004 -0.7148437,1.2421875375 -1.1601562,1.2421875375 -0.3867188,0 -0.984375,-0.2460937475 -1.1601563,-1.2070312375 -0.1054687,-0.5976563 -0.1054687,-1.5117188 -0.1054687,-2.0976563 0,-0.6445312 0,-1.3007812 0.082031,-1.8398437 0.1875,-1.1835938 0.9257813,-1.265625 1.1835938,-1.265625 0.328125,0 0.984375,0.1757812 1.171875,1.1601562 0.09375,0.5625 0.09375,1.3125 0.09375,1.9453125 z m 3.140625,2.77734379 c 0,-0.29296875 -0.234375,-0.52734379 -0.5273438,-0.52734379 -0.28125,0 -0.5273437,0.23437504 -0.5273437,0.52734379 0,0.29296875 0.2460937,0.5273437475 0.5273437,0.5273437475 0.2929688,0 0.5273438,-0.2343749975 0.5273438,-0.5273437475 z M 12.331914,-3.1871641 c 0,-0.796875 -0.04687,-1.59375 -0.398437,-2.3320312 -0.457032,-0.9609375 -1.277344,-1.1132813 -1.6875,-1.1132813 -0.5976567,0 -1.3359379,0.2578125 -1.7343754,1.1835938 -0.328125,0.6914062 -0.375,1.4648437 -0.375,2.2617187 0,0.75 0.046875,1.640625 0.4453125,2.40234379 0.4335937,0.80859375 1.1601562,1.0078125 1.6523439,1.0078125 0.539062,0 1.289062,-0.2109375 1.734375,-1.16015625 0.316406,-0.69140624 0.363281,-1.46484374 0.363281,-2.25000004 z m -0.832031,-0.1171875 c 0,0.75 0,1.4179688 -0.105469,2.0625 -0.152344,0.93750004 -0.714844,1.2421875375 -1.160156,1.2421875375 -0.3867189,0 -0.9843752,-0.2460937475 -1.1601564,-1.2070312375 -0.1054688,-0.5976563 -0.1054688,-1.5117188 -0.1054688,-2.0976563 0,-0.6445312 0,-1.3007812 0.082031,-1.8398437 0.1875,-1.1835938 0.9257812,-1.265625 1.1835942,-1.265625 0.328125,0 0.984375,0.1757812 1.171875,1.1601562 0.09375,0.5625 0.09375,1.3125 0.09375,1.9453125 z m 5.920898,1.6640625 v -0.3164062 h -0.996093 v -4.5234375 c 0,-0.1992188 0,-0.2578125 -0.152344,-0.2578125 -0.09375,0 -0.117188,0 -0.199219,0.1171875 l -3.058594,4.6640625 v 0.3164062 h 2.648438 v 0.86718754 c 0,0.3515625 -0.02344,0.46875 -0.761719,0.46875 H 14.690313 V 3.359375e-4 c 0.410156,-0.0351562475 0.9375,-0.0351562475 1.347656,-0.0351562475 0.421875,0 0.949219,0 1.359375,0.0351562475 V -0.30435156 h -0.210938 c -0.738281,0 -0.761718,-0.1171875 -0.761718,-0.46875 V -1.6402891 Z m -1.699218,-0.3164062 h -2.425782 l 2.425782,-3.7148438 z m 0,0"
       style="fill:#000000;fill-opacity:1;fill-rule:nonzero;stroke:none"
       aria-label="0.04"
       transform="matrix(1.3333333,0,0,1.3333333,189.50667,105.42533)" />
    <path
       id="path8"
       d="M 204.0888,-34.01608 V 34.01608"
       style="fill:none;stroke:#000000;stroke-width:0.00995;stroke-linecap:butt;stroke-linejoin:miter;stroke-miterlimit:10;stroke-dasharray:2.98883, 2.98883;stroke-dashoffset:0;stroke-opacity:1"
       transform="matrix(1.3333333,0,0,-1.3333333,19.926667,46.644)" />
    <path
       id="path9"
       d="m 4.5808125,-3.1865625 c 0,-0.796875 -0.046875,-1.59375 -0.3984375,-2.3320313 -0.4570312,-0.9609375 -1.2773437,-1.1132812 -1.6875,-1.1132812 -0.5976562,0 -1.3359375,0.2578125 -1.734375,1.1835937 -0.328125,0.6914063 -0.375,1.4648438 -0.375,2.2617188 0,0.75 0.046875,1.640625 0.4453125,2.40234375 0.4335938,0.80859375 1.1601563,1.0078125 1.6523438,1.0078125 0.5390625,0 1.2890625,-0.2109375 1.734375,-1.16015625 0.3164062,-0.6914063 0.3632812,-1.4648438 0.3632812,-2.25 z M 3.7487813,-3.30375 c 0,0.75 0,1.4179687 -0.1054688,2.0625 C 3.4909688,-0.30375 2.9284688,9.375e-4 2.4831563,9.375e-4 2.0964375,9.375e-4 1.4987813,-0.24515625 1.323,-1.2060938 1.2175313,-1.80375 1.2175313,-2.7178125 1.2175313,-3.30375 c 0,-0.6445313 0,-1.3007813 0.082031,-1.8398438 0.1875,-1.1835937 0.9257813,-1.265625 1.1835938,-1.265625 0.328125,0 0.984375,0.1757813 1.171875,1.1601563 0.09375,0.5625 0.09375,1.3125 0.09375,1.9453125 z m 3.1435546,2.77734375 c 0,-0.29296875 -0.234375,-0.52734375 -0.5273437,-0.52734375 -0.28125,0 -0.5273438,0.234375 -0.5273438,0.52734375 0,0.29296875 0.2460938,0.52734375 0.5273438,0.52734375 0.2929687,0 0.5273437,-0.234375 0.5273437,-0.52734375 z M 12.332766,-3.1865625 c 0,-0.796875 -0.04687,-1.59375 -0.398438,-2.3320313 -0.457031,-0.9609375 -1.277344,-1.1132812 -1.6875,-1.1132812 -0.5976561,0 -1.3359374,0.2578125 -1.7343749,1.1835937 -0.328125,0.6914063 -0.375,1.4648438 -0.375,2.2617188 0,0.75 0.046875,1.640625 0.4453125,2.40234375 0.4335938,0.80859375 1.1601563,1.0078125 1.6523434,1.0078125 0.539063,0 1.289063,-0.2109375 1.734375,-1.16015625 0.316407,-0.6914063 0.363282,-1.4648438 0.363282,-2.25 z M 11.500734,-3.30375 c 0,0.75 0,1.4179687 -0.105468,2.0625 -0.152344,0.9375 -0.714844,1.2421875 -1.160157,1.2421875 -0.3867184,0 -0.9843746,-0.24609375 -1.1601559,-1.2070313 C 8.9694844,-1.80375 8.9694844,-2.7178125 8.9694844,-3.30375 c 0,-0.6445313 0,-1.3007813 0.082031,-1.8398438 0.1875,-1.1835937 0.9257813,-1.265625 1.1835936,-1.265625 0.328125,0 0.984375,0.1757813 1.171875,1.1601563 0.09375,0.5625 0.09375,1.3125 0.09375,1.9453125 z m 5.777344,1.2773437 c 0,-1.265625 -0.878906,-2.2265625 -1.992187,-2.2265625 -0.667969,0 -1.042969,0.5039063 -1.242188,0.984375 v -0.234375 c 0,-2.5195312 1.242188,-2.8828125 1.746094,-2.8828125 0.234375,0 0.65625,0.058594 0.878906,0.3984375 -0.152344,0 -0.550781,0 -0.550781,0.4453125 0,0.3164063 0.234375,0.4570313 0.457031,0.4570313 0.164063,0 0.457031,-0.082031 0.457031,-0.46875 0,-0.5976563 -0.433593,-1.078125 -1.265625,-1.078125 -1.277343,0 -2.613281,1.2890625 -2.613281,3.4804687 0,2.6601563 1.148438,3.37500005 2.074219,3.37500005 1.113281,0 2.050781,-0.9375 2.050781,-2.25000005 z m -0.890625,-0.011719 c 0,0.4804687 0,0.9726562 -0.164062,1.3359375 -0.304688,0.59765625 -0.761719,0.64453125 -0.996094,0.64453125 -0.621094,0 -0.925781,-0.59765625 -0.984375,-0.75 -0.175781,-0.46875005 -0.175781,-1.26562505 -0.175781,-1.44140625 0,-0.7734375 0.316406,-1.7695313 1.21875,-1.7695313 0.152343,0 0.609375,0 0.925781,0.609375 0.175781,0.375 0.175781,0.8789063 0.175781,1.3710938 z m 0,0"
       style="fill:#000000;fill-opacity:1;fill-rule:nonzero;stroke:none"
       aria-label="0.06"
       transform="matrix(1.3333333,0,0,1.3333333,280.236,105.28)" />
    <path
       id="path10"
       d="M 272.1357,-34.01608 V 34.01608"
       style="fill:none;stroke:#000000;stroke-width:0.00995;stroke-linecap:butt;stroke-linejoin:miter;stroke-miterlimit:10;stroke-dasharray:2.98883, 2.98883;stroke-dashoffset:0;stroke-opacity:1"
       transform="matrix(1.3333333,0,0,-1.3333333,19.926667,46.644)" />
    <path
       id="path11"
       d="m 4.5816641,-3.1865625 c 0,-0.796875 -0.046875,-1.59375 -0.3984375,-2.3320313 -0.4570313,-0.9609375 -1.2773438,-1.1132812 -1.6875,-1.1132812 -0.5976563,0 -1.3359375,0.2578125 -1.73437504,1.1835937 -0.328125,0.6914063 -0.375,1.4648438 -0.375,2.2617188 0,0.75 0.046875,1.640625 0.4453125,2.40234375 0.43359374,0.80859375 1.16015624,1.0078125 1.65234374,1.0078125 0.5390625,0 1.2890625,-0.2109375 1.734375,-1.16015625 0.3164063,-0.6914063 0.3632813,-1.4648438 0.3632813,-2.25 z M 3.7496328,-3.30375 c 0,0.75 0,1.4179687 -0.1054687,2.0625 -0.1523438,0.9375 -0.7148438,1.2421875 -1.1601563,1.2421875 -0.3867187,0 -0.984375,-0.24609375 -1.1601562,-1.2070313 C 1.2183828,-1.80375 1.2183828,-2.7178125 1.2183828,-3.30375 c 0,-0.6445313 0,-1.3007813 0.082031,-1.8398438 0.1875,-1.1835937 0.9257812,-1.265625 1.1835937,-1.265625 0.328125,0 0.984375,0.1757813 1.171875,1.1601563 0.09375,0.5625 0.09375,1.3125 0.09375,1.9453125 z m 3.140625,2.77734375 c 0,-0.29296875 -0.234375,-0.52734375 -0.5273437,-0.52734375 -0.28125,0 -0.5273438,0.234375 -0.5273438,0.52734375 0,0.29296875 0.2460938,0.52734375 0.5273438,0.52734375 0.2929687,0 0.5273437,-0.234375 0.5273437,-0.52734375 z M 12.333617,-3.1865625 c 0,-0.796875 -0.04687,-1.59375 -0.398437,-2.3320313 -0.457032,-0.9609375 -1.277344,-1.1132812 -1.6875,-1.1132812 -0.5976566,0 -1.3359378,0.2578125 -1.7343753,1.1835937 -0.328125,0.6914063 -0.375,1.4648438 -0.375,2.2617188 0,0.75 0.046875,1.640625 0.4453125,2.40234375 0.4335937,0.80859375 1.1601562,1.0078125 1.6523438,1.0078125 0.539062,0 1.289062,-0.2109375 1.734375,-1.16015625 0.316406,-0.6914063 0.363281,-1.4648438 0.363281,-2.25 z M 11.501586,-3.30375 c 0,0.75 0,1.4179687 -0.105469,2.0625 -0.152344,0.9375 -0.714844,1.2421875 -1.160156,1.2421875 -0.3867188,0 -0.9843751,-0.24609375 -1.1601563,-1.2070313 C 8.9703359,-1.80375 8.9703359,-2.7178125 8.9703359,-3.30375 c 0,-0.6445313 0,-1.3007813 0.082031,-1.8398438 0.1875,-1.1835937 0.9257812,-1.265625 1.1835941,-1.265625 0.328125,0 0.984375,0.1757813 1.171875,1.1601563 0.09375,0.5625 0.09375,1.3125 0.09375,1.9453125 z m 5.777344,1.6289062 c 0,-0.3515625 -0.105469,-0.8085937 -0.480469,-1.21875 -0.1875,-0.2109375 -0.351563,-0.3164062 -0.984375,-0.7148437 0.714844,-0.3632813 1.207031,-0.8789063 1.207031,-1.5351563 0,-0.9257812 -0.890625,-1.4882812 -1.792969,-1.4882812 -0.996093,0 -1.804687,0.7382812 -1.804687,1.6640625 0,0.1757812 0.01172,0.6210937 0.433594,1.0898437 0.105468,0.1289063 0.480468,0.375 0.726562,0.5390625 -0.574219,0.2929688 -1.429687,0.84375 -1.429687,1.8398438 0,1.0546875 1.007812,1.72265625 2.0625,1.72265625 1.125,0 2.0625,-0.83203125 2.0625,-1.89843755 z m -0.703125,-3.46875 c 0,0.5625 -0.386719,1.0429688 -0.984375,1.3945313 l -1.230469,-0.796875 c -0.46875,-0.3046875 -0.503906,-0.6445313 -0.503906,-0.8085938 0,-0.609375 0.644531,-1.03125 1.359375,-1.03125 0.726562,0 1.359375,0.515625 1.359375,1.2421875 z m 0.210937,3.8320313 c 0,0.73828125 -0.75,1.25390625 -1.558594,1.25390625 -0.867187,0 -1.582031,-0.62109375 -1.582031,-1.44140625 0,-0.5859375 0.316406,-1.21875 1.171875,-1.6875 l 1.21875,0.7734375 c 0.28125,0.1875 0.75,0.4921875 0.75,1.1015625 z m 0,0"
       style="fill:#000000;fill-opacity:1;fill-rule:nonzero;stroke:none"
       aria-label="0.08"
       transform="matrix(1.3333333,0,0,1.3333333,370.96533,105.28)" />
    <path
       id="path12"
       d="M 340.18262,-34.01608 V 34.01608"
       style="fill:none;stroke:#000000;stroke-width:0.00995;stroke-linecap:butt;stroke-linejoin:miter;stroke-miterlimit:10;stroke-dasharray:2.98883, 2.98883;stroke-dashoffset:0;stroke-opacity:1"
       transform="matrix(1.3333333,0,0,-1.3333333,19.926667,46.644)" />
    <path
       id="path13"
       d="m 4.5825156,-3.1865625 c 0,-0.796875 -0.046875,-1.59375 -0.3984375,-2.3320313 -0.4570312,-0.9609375 -1.2773437,-1.1132812 -1.6875,-1.1132812 -0.5976562,0 -1.3359375,0.2578125 -1.73437497,1.1835937 -0.328125,0.6914063 -0.375,1.4648438 -0.375,2.2617188 0,0.75 0.046875,1.640625 0.4453125,2.40234375 0.43359377,0.80859375 1.16015627,1.0078125 1.65234377,1.0078125 0.5390625,0 1.2890625,-0.2109375 1.734375,-1.16015625 0.3164062,-0.6914063 0.3632812,-1.4648438 0.3632812,-2.25 z M 3.7504844,-3.30375 c 0,0.75 0,1.4179687 -0.1054688,2.0625 -0.1523437,0.9375 -0.7148437,1.2421875 -1.1601562,1.2421875 -0.3867188,0 -0.984375,-0.24609375 -1.1601563,-1.2070313 C 1.2192344,-1.80375 1.2192344,-2.7178125 1.2192344,-3.30375 c 0,-0.6445313 0,-1.3007813 0.082031,-1.8398438 0.1875,-1.1835937 0.9257813,-1.265625 1.1835938,-1.265625 0.328125,0 0.984375,0.1757813 1.171875,1.1601563 0.09375,0.5625 0.09375,1.3125 0.09375,1.9453125 z m 3.140625,2.77734375 c 0,-0.29296875 -0.234375,-0.52734375 -0.5273438,-0.52734375 -0.28125,0 -0.5273437,0.234375 -0.5273437,0.52734375 0,0.29296875 0.2460937,0.52734375 0.5273437,0.52734375 0.2929688,0 0.5273438,-0.234375 0.5273438,-0.52734375 z M 11.921383,9.375e-4 V -0.30375 h -0.316406 c -0.902344,0 -0.925782,-0.1171875 -0.925782,-0.48046875 V -6.3740625 c 0,-0.234375 0,-0.2578125 -0.234375,-0.2578125 -0.6093747,0.6328125 -1.4882809,0.6328125 -1.8046872,0.6328125 v 0.3164062 c 0.1992188,0 0.7851563,0 1.3007813,-0.2578125 v 5.15625005 c 0,0.3515625 -0.035156,0.48046875 -0.9257813,0.48046875 H 8.6987266 V 9.375e-4 c 0.3515625,-0.03515625 1.2070312,-0.03515625 1.6054684,-0.03515625 0.398438,0 1.265625,0 1.617188,0.03515625 z m 5.393555,-3.1875 c 0,-0.796875 -0.04687,-1.59375 -0.398438,-2.3320313 -0.457031,-0.9609375 -1.277344,-1.1132812 -1.6875,-1.1132812 -0.597656,0 -1.335937,0.2578125 -1.734375,1.1835937 -0.328125,0.6914063 -0.375,1.4648438 -0.375,2.2617188 0,0.75 0.04687,1.640625 0.445313,2.40234375 0.433593,0.80859375 1.160156,1.0078125 1.652343,1.0078125 0.539063,0 1.289063,-0.2109375 1.734375,-1.16015625 0.316407,-0.6914063 0.363282,-1.4648438 0.363282,-2.25 z M 16.482906,-3.30375 c 0,0.75 0,1.4179687 -0.105468,2.0625 -0.152344,0.9375 -0.714844,1.2421875 -1.160157,1.2421875 -0.386718,0 -0.984375,-0.24609375 -1.160156,-1.2070313 -0.105469,-0.5976562 -0.105469,-1.5117187 -0.105469,-2.0976562 0,-0.6445313 0,-1.3007813 0.08203,-1.8398438 0.1875,-1.1835937 0.925781,-1.265625 1.183593,-1.265625 0.328125,0 0.984375,0.1757813 1.171875,1.1601563 0.09375,0.5625 0.09375,1.3125 0.09375,1.9453125 z m 0,0"
       style="fill:#000000;fill-opacity:1;fill-rule:nonzero;stroke:none"
       aria-label="0.10"
       transform="matrix(1.3333333,0,0,1.3333333,461.69467,105.28)" />
    <g
       id="g13"
       aria-label="时间（s）"
       transform="matrix(1.3333333,0,0,1.3333333,221.74133,114.87733)">
      <path
         id="path14"
         d="m 0.90298438,-6.5261641 0.046875,1.0898438 v 4.83984374 l -0.09375,1.16015625 C 1.0670469,0.50508594 1.1959531,0.45821094 1.2779844,0.42305469 1.3365781,0.36446094 1.4186094,0.31758594 1.5006406,0.25899219 v -0.71484375 h 1.8046875 v 0.71484375 c 0.234375,-0.0703125 0.4453125,-0.1640625 0.609375,-0.29296875 l -0.023437,-0.7265625 V -5.7175703 l 0.1992188,-0.140625 c 0.09375,-0.058594 0.140625,-0.09375 0.1289062,-0.1171875 0,-0.023437 -0.023437,-0.046875 -0.082031,-0.09375 l -0.65625,-0.4570313 -0.3164063,0.4570313 H 1.6295469 Z M 1.5006406,-0.69022656 V -3.2683516 h 1.8046875 v 2.57812504 z m 0,-2.82421874 v -2.34375 h 1.8046875 v 2.34375 z M 7.3365781,-4.9089766 H 4.9225156 l -0.7734375,-0.035156 0.3046875,0.3515625 c 0.2929688,-0.058594 0.515625,-0.09375 0.6914063,-0.09375 h 2.1914062 v 5.02734374 c 0,0.12890625 -0.035156,0.22265625 -0.1054687,0.29296875 -0.058594,0.0703125 -0.2109375,0.0820313 -0.4335938,0.0703125 -0.2460937,-0.046875 -0.4570312,-0.0703125 -0.65625,-0.10546875 -0.2109375,-0.0351563 -0.375,-0.0585938 -0.4921875,-0.0820313 l -0.035156,0.1171875 0.4335937,0.1640625 c 0.2929688,0.10546875 0.4921875,0.22265626 0.5859375,0.30468756 0.1171875,0.09375 0.1875,0.1875 0.234375,0.2929687 0.035156,0.1054688 0.070312,0.234375 0.09375,0.3632813 0.46875,-0.1523438 0.7617188,-0.328125 0.84375,-0.4921875 0.09375,-0.1640625 0.140625,-0.38671881 0.140625,-0.63281256 V -4.6863203 h 1.6289063 c 0.082031,0 0.1289062,0 0.140625,-0.035156 0.011719,-0.023437 0,-0.058594 -0.046875,-0.09375 l -0.7382813,-0.7382812 -0.515625,0.6445312 h -0.46875 v -2.015625 l 0.2578125,-0.1757812 c 0.070312,-0.046875 0.1054688,-0.082031 0.1054688,-0.09375 -0.011719,-0.011719 -0.046875,-0.046875 -0.140625,-0.082031 l -0.9023438,-0.3867187 0.070312,1.2304687 z m -2.5664062,1.4179688 0.3164062,0.421875 c 0.058594,0.082031 0.1171875,0.2109375 0.1992188,0.375 0.058594,0.1875 0.1171875,0.3632812 0.1523437,0.5390625 0.046875,0.1757812 0.058594,0.3398437 0.058594,0.4921875 0.011719,0.1523437 0.035156,0.2460937 0.058594,0.3046875 0.035156,0.046875 0.082031,0.070312 0.1523438,0.082031 0.1054687,0.035156 0.2109375,-0.023437 0.3046875,-0.1523437 0.1054682,-0.1289061 0.164062,-0.2695311 0.1757807,-0.4101561 C 6.2115781,-2.1316328 6.1061094,-2.4128828 5.8834531,-2.6706953 5.6607969,-2.9167891 5.3092344,-3.2214766 4.8287656,-3.5496016 Z m 6.2460941,3.05859374 -0.07031,2.13281246 c 0.269531,-0.058594 0.503906,-0.140625 0.691406,-0.2695312 l -0.04687,-1.61718751 V -5.5652266 l 0.316407,-0.2226562 c 0.04687,-0.023437 0.08203,-0.070312 0.08203,-0.09375 0,-0.035156 -0.02344,-0.058594 -0.07031,-0.082031 l -0.972656,-0.4101562 0.07031,1.828125 z m 0.890625,-6.98437504 c 0.269531,0.3398438 0.421875,0.5742188 0.46875,0.6679688 0.05859,0.082031 0.105468,0.2109375 0.175781,0.375 0.05859,0.1640625 0.105469,0.2929687 0.105469,0.4101562 0.01172,0.1054688 0.03516,0.1875 0.05859,0.234375 0.03516,0.046875 0.09375,0.070312 0.175782,0.082031 0.08203,0.011719 0.164062,-0.035156 0.234375,-0.1054688 0.08203,-0.070312 0.140625,-0.1640625 0.1875,-0.2578125 0.04687,-0.1289062 0.05859,-0.2578125 0.01172,-0.3867187 -0.02344,-0.1171875 -0.175781,-0.28125 -0.457031,-0.4921875 -0.257812,-0.2109375 -0.5625,-0.421875 -0.890625,-0.6328125 z m 1.183593,7.31250004 c 0.246094,-0.09375 0.46875,-0.17578125 0.632813,-0.24609375 v -0.41015625 h 2.15625 v 0.5390625 c 0.339844,-0.10546875 0.5625,-0.2109375 0.65625,-0.3046875 l -0.07031,-0.92578124 v -2.8242188 l 0.234375,-0.1992187 c 0.07031,-0.058594 0.09375,-0.1054688 0.09375,-0.140625 -0.01172,-0.023437 -0.03516,-0.070312 -0.09375,-0.09375 l -0.65625,-0.4101563 -0.28125,0.4453125 -1.96875,-0.011719 -0.679687,-0.3984375 0.04687,1.265625 v 2.25 z m 0.632813,-0.890625 V -2.6706953 h 2.15625 v 1.67578124 z m 0,-1.89843754 v -1.546875 h 2.15625 v 1.5351563 z m 1.183594,-3.7148437 -1.195313,-0.011719 0.46875,0.4101563 0.222656,-0.058594 c 0.128907,-0.023437 0.503907,-0.070312 1.136719,-0.1054687 h 2.542969 v 6.76171874 c 0,0.1640625 -0.03516,0.28125 -0.09375,0.3515625 -0.05859,0.0703125 -0.175781,0.09375 -0.351563,0.0820313 l -1.183593,-0.1171875 v 0.1640625 l 0.46875,0.1171875 c 0.210937,0.046875 0.363281,0.11718746 0.457031,0.21093746 0.105469,0.082031 0.175781,0.1640625 0.1875,0.2578125 0.04687,0.1054687 0.05859,0.1992187 0.07031,0.3046875 0.339844,-0.1289063 0.597657,-0.2578125 0.738282,-0.375 0.152343,-0.1054688 0.234375,-0.2226563 0.269531,-0.3046875 0.02344,-0.0937499 0.04687,-0.24609371 0.04687,-0.45703121 V -6.1746016 l 0.28125,-0.2578125 c 0.05859,-0.046875 0.08203,-0.070312 0.09375,-0.09375 0,-0.011719 -0.03516,-0.058594 -0.117188,-0.1054687 l -0.679687,-0.4804688 -0.375,0.5039063 z m 11.334961,3.6210937 c 0,0.7734375 0.105468,1.9804688 0.65625,3.10546879 0.597656,1.23046871 1.453125,1.87500001 1.558593,1.87500001 0.05859,0 0.09375,-0.035156 0.09375,-0.09375 0,-0.035156 0,-0.058594 -0.164062,-0.2226563 -1.253906,-1.25390621 -1.570313,-3.140625 -1.570313,-4.6640625 0,-1.734375 0.386719,-3.46875 1.605469,-4.7109375 0.128906,-0.1171875 0.128906,-0.140625 0.128906,-0.1757812 0,-0.058594 -0.03516,-0.09375 -0.09375,-0.09375 -0.105468,0 -0.996093,0.6796875 -1.59375,1.9453125 -0.503906,1.0898437 -0.621093,2.203125 -0.621093,3.0351562 z m 0,0"
         style="fill:#000000;fill-opacity:1;fill-rule:nonzero;stroke:none" />
      <path
         id="path15"
         d="m 33.47525,-1.2761641 c 0,-0.5273437 -0.292969,-0.8203125 -0.421875,-0.9492187 -0.328125,-0.3164063 -0.714844,-0.3984375 -1.136719,-0.46875 -0.550781,-0.1171875 -1.21875,-0.2460938 -1.21875,-0.8203125 0,-0.3515625 0.257813,-0.7617188 1.113282,-0.7617188 1.101562,0 1.148437,0.9023438 1.171875,1.2070313 0,0.09375 0.117187,0.09375 0.117187,0.09375 0.128906,0 0.128906,-0.046875 0.128906,-0.2460938 v -0.9960937 c 0,-0.1757813 0,-0.2460938 -0.117187,-0.2460938 -0.04687,0 -0.07031,0 -0.199219,0.1171875 -0.02344,0.046875 -0.128906,0.1289063 -0.164062,0.1640625 -0.375,-0.28125 -0.785157,-0.28125 -0.9375,-0.28125 -1.21875,0 -1.59375,0.6679688 -1.59375,1.2304688 0,0.3398437 0.164062,0.6210937 0.433593,0.84375 0.316407,0.2578125 0.597657,0.3164062 1.3125,0.4570312 0.222657,0.035156 1.03125,0.1992188 1.03125,0.9140625 0,0.51562504 -0.351562,0.91406254 -1.125,0.91406254 -0.832031,0 -1.195312,-0.57421875 -1.382812,-1.41796874 -0.03516,-0.1289063 -0.03516,-0.1757813 -0.140625,-0.1757813 -0.128906,0 -0.128906,0.070312 -0.128906,0.2578125 v 1.31250004 c 0,0.1640625 0,0.234375 0.105468,0.234375 0.05859,0 0.07031,0 0.257813,-0.19921875 0.01172,-0.01171875 0.01172,-0.03515625 0.199219,-0.22265625 0.433593,0.421875 0.878906,0.421875 1.089843,0.421875 1.148438,0 1.605469,-0.66796875 1.605469,-1.38281254 z m 0,0"
         style="fill:#000000;fill-opacity:1;fill-rule:nonzero;stroke:none" />
      <path
         id="path16"
         d="m 35.148102,1.8996172 c 0,0.058594 0.03516,0.09375 0.09375,0.09375 0.105468,0 0.996093,-0.6796875 1.59375,-1.94531251 0.503906,-1.08984379 0.621093,-2.20312499 0.621093,-3.03515629 0,-0.7734375 -0.105468,-1.9804687 -0.65625,-3.1054687 -0.597656,-1.2304688 -1.453125,-1.875 -1.558593,-1.875 -0.05859,0 -0.09375,0.035156 -0.09375,0.09375 0,0.035156 0,0.058594 0.1875,0.234375 0.972656,0.984375 1.546875,2.5664062 1.546875,4.6523437 0,1.6992188 -0.375,3.45703129 -1.605469,4.7109375 -0.128906,0.1171875 -0.128906,0.140625 -0.128906,0.1757813 z m 0,0"
         style="fill:#000000;fill-opacity:1;fill-rule:nonzero;stroke:none" />
    </g>
    <path
       id="path17"
       d="M 0,-28.3468 H 340.18262"
       style="fill:none;stroke:#000000;stroke-width:0.00995;stroke-linecap:butt;stroke-linejoin:miter;stroke-miterlimit:10;stroke-dasharray:2.98883, 2.98883;stroke-dashoffset:0;stroke-opacity:1"
       transform="matrix(1.3333333,0,0,-1.3333333,19.926667,46.644)" />
    <path
       id="path18"
       d="M 2.7532422,-1.8628203 V -2.4370391 H 0.10480469 v 0.5742188 z M 7.4905469,4.609375e-4 V -0.30422656 H 7.1741406 c -0.9023437,0 -0.9257812,-0.1171875 -0.9257812,-0.48046875 V -6.3745391 c 0,-0.234375 0,-0.2578125 -0.234375,-0.2578125 -0.609375,0.6328125 -1.4882813,0.6328125 -1.8046875,0.6328125 v 0.3164063 c 0.1992187,0 0.7851562,0 1.3007812,-0.2578125 v 5.15624999 c 0,0.3515625 -0.035156,0.48046875 -0.9257812,0.48046875 H 4.2678906 V 4.609375e-4 C 4.6194531,-0.03469531 5.4749219,-0.03469531 5.8733594,-0.03469531 c 0.3984375,0 1.265625,0 1.6171875,0.0351562475 z m 0,0"
       style="fill:#000000;fill-opacity:1;fill-rule:nonzero;stroke:none"
       aria-label="-1"
       transform="matrix(1.3333333,0,0,1.3333333,4.4266667,88.862667)" />
    <path
       id="path19"
       d="M 0,0 H 340.18262"
       style="fill:none;stroke:#000000;stroke-width:0.00995;stroke-linecap:butt;stroke-linejoin:miter;stroke-miterlimit:10;stroke-dasharray:2.98883, 2.98883;stroke-dashoffset:0;stroke-opacity:1"
       transform="matrix(1.3333333,0,0,-1.3333333,19.926667,46.644)" />
    <path
       id="path20"
       d="m 4.5827031,-3.1870937 c 0,-0.796875 -0.046875,-1.59375 -0.3984375,-2.3320313 -0.4570312,-0.9609375 -1.2773437,-1.1132812 -1.6875,-1.1132812 -0.5976562,0 -1.3359375,0.2578125 -1.73437498,1.1835937 -0.328125,0.6914063 -0.375,1.4648438 -0.375,2.2617188 0,0.75 0.046875,1.640625 0.4453125,2.4023437 0.43359378,0.80859375 1.16015628,1.0078125 1.65234378,1.0078125 0.5390625,0 1.2890625,-0.2109375 1.734375,-1.16015625 C 4.5358281,-1.6285 4.5827031,-2.4019375 4.5827031,-3.1870937 Z M 3.7506719,-3.3042812 c 0,0.75 0,1.4179687 -0.1054688,2.0625 -0.1523437,0.93749995 -0.7148437,1.24218745 -1.1601562,1.24218745 -0.3867188,0 -0.984375,-0.24609375 -1.1601563,-1.20703125 -0.1054687,-0.5976562 -0.1054687,-1.5117187 -0.1054687,-2.0976562 0,-0.6445313 0,-1.3007813 0.082031,-1.8398438 0.1875,-1.1835937 0.9257813,-1.265625 1.1835938,-1.265625 0.328125,0 0.984375,0.1757813 1.171875,1.1601563 0.09375,0.5625 0.09375,1.3125 0.09375,1.9453125 z m 0,0"
       style="fill:#000000;fill-opacity:1;fill-rule:nonzero;stroke:none"
       aria-label="0"
       transform="matrix(1.3333333,0,0,1.3333333,8.8506667,50.921333)" />
    <path
       id="path21"
       d="M 0,28.3468 H 340.18262"
       style="fill:none;stroke:#000000;stroke-width:0.00995;stroke-linecap:butt;stroke-linejoin:miter;stroke-miterlimit:10;stroke-dasharray:2.98883, 2.98883;stroke-dashoffset:0;stroke-opacity:1"
       transform="matrix(1.3333333,0,0,-1.3333333,19.926667,46.644)" />
    <path
       id="path22"
       d="m 4.1725469,0.00107813 v -0.3046875 H 3.8561406 c -0.9023437,0 -0.9257812,-0.1171875 -0.9257812,-0.48046875 V -6.3739219 c 0,-0.234375 0,-0.2578125 -0.234375,-0.2578125 -0.609375,0.6328125 -1.4882813,0.6328125 -1.80468753,0.6328125 v 0.3164063 c 0.19921873,0 0.78515623,0 1.30078123,-0.2578125 v 5.15624998 c 0,0.3515625 -0.035156,0.48046875 -0.9257812,0.48046875 H 0.94989062 v 0.3046875 C 1.3014531,-0.03407812 2.1569219,-0.03407812 2.5553594,-0.03407812 c 0.3984375,0 1.265625,0 1.6171875,0.03515625 z m 0,0"
       style="fill:#000000;fill-opacity:1;fill-rule:nonzero;stroke:none"
       aria-label="1"
       transform="matrix(1.3333333,0,0,1.3333333,8.8506667,13.272)" />
    <path
       id="path23"
       d="m 0,28.3468 h 33.99748 v -56.6936 h 33.9975 v 56.6936 h 33.99748 v -56.6936 h 33.9975 v 56.6936 h 33.9975 v -56.6936 h 33.99748 v 56.6936 h 33.9975 v -56.6936 h 33.99748 v 56.6936 h 33.9975 v -56.6936 h 33.99749 v 56.6936"
       style="fill:none;stroke:#0000ff;stroke-width:0.59776;stroke-linecap:butt;stroke-linejoin:miter;stroke-miterlimit:10;stroke-dasharray:none;stroke-opacity:1"
       transform="matrix(1.3333333,0,0,-1.3333333,19.926667,46.644)" />
  </g>
</svg>
