<?xml version="1.0" encoding="UTF-8" standalone="no"?>
<!-- Created with Inkscape (http://www.inkscape.org/) -->

<svg
   version="1.1"
   id="svg1"
   width="94.32"
   height="103.54667"
   viewBox="0 0 94.32 103.54667"
   sodipodi:docname="25-26-1-概率论与随机过程-期末（计算机学院101班）-题图4.pdf"
   xmlns:inkscape="http://www.inkscape.org/namespaces/inkscape"
   xmlns:sodipodi="http://sodipodi.sourceforge.net/DTD/sodipodi-0.dtd"
   xmlns="http://www.w3.org/2000/svg"
   xmlns:svg="http://www.w3.org/2000/svg">
  <defs
     id="defs1" />
  <sodipodi:namedview
     id="namedview1"
     pagecolor="#ffffff"
     bordercolor="#111111"
     borderopacity="1"
     inkscape:showpageshadow="0"
     inkscape:pageopacity="0"
     inkscape:pagecheckerboard="1"
     inkscape:deskcolor="#d1d1d1">
    <inkscape:page
       x="0"
       y="0"
       inkscape:label="1"
       id="page1"
       width="94.32"
       height="103.54667"
       margin="0"
       bleed="0" />
  </sodipodi:namedview>
  <g
     id="g1"
     inkscape:groupmode="layer"
     inkscape:label="1">
    <path
       id="path1"
       d="M 28.3468,56.69363 V 28.3468 L 0,0 H 56.69363 L 28.3468,28.3468"
       style="fill:none;stroke:#000000;stroke-width:0.3985;stroke-linecap:butt;stroke-linejoin:miter;stroke-miterlimit:10;stroke-dasharray:none;stroke-opacity:1"
       transform="matrix(1.3333333,0,0,-1.3333333,9.2226667,84.769333)" />
    <path
       id="path2"
       d="m 2.83484,0 c 0,1.56564 -1.2692,2.83484 -2.83484,2.83484 -1.56564,0 -2.83484,-1.2692 -2.83484,-2.83484 0,-1.56564 1.2692,-2.83484 2.83484,-2.83484 1.56564,0 2.83484,1.2692 2.83484,2.83484 z"
       style="fill:#ffffff;fill-opacity:1;fill-rule:nonzero;stroke:#000000;stroke-width:0.3985;stroke-linecap:butt;stroke-linejoin:miter;stroke-miterlimit:10;stroke-dasharray:none;stroke-opacity:1"
       transform="matrix(1.3333333,0,0,-1.3333333,9.2226667,84.769333)" />
    <path
       id="path3"
       d="m 6.6204297,-2.3202187 c 0,-0.1054688 0,-0.1757813 -0.1289063,-0.1757813 -0.1054687,0 -0.1054687,0.070312 -0.1171875,0.1640625 -0.082031,1.4296875 -1.1484375,2.23828125 -2.2265625,2.23828125 -0.609375,0 -2.5664062,-0.33984375 -2.5664062,-3.30468745 0,-2.9765625 1.9453125,-3.3164063 2.5546875,-3.3164063 1.078125,0 1.96875,0.9023438 2.1679687,2.3671875 0.023437,0.1289063 0.023437,0.1640625 0.1640625,0.1640625 0.1523438,0 0.1523438,-0.035156 0.1523438,-0.234375 v -2.3671875 c 0,-0.1640625 0,-0.234375 -0.1054688,-0.234375 -0.035156,0 -0.082031,0 -0.1640625,0.1171875 l -0.4921875,0.7382813 c -0.375,-0.3632813 -0.8789062,-0.8554688 -1.8398437,-0.8554688 -1.8632813,0 -3.45703126,1.5820313 -3.45703126,3.609375 0,2.0625 1.60546876,3.6328125 3.45703126,3.6328125 1.6289062,0 2.6015625,-1.3828125 2.6015625,-2.5429687 z m 0,0"
       style="fill:#000000;fill-opacity:1;fill-rule:nonzero;stroke:none"
       aria-label="C"
       transform="matrix(1.3333333,0,0,1.3333333,4.4266667,98.828)" />
    <path
       id="path4"
       d="m 59.52847,0 c 0,1.56564 -1.26919,2.83484 -2.83484,2.83484 -1.56565,0 -2.83485,-1.2692 -2.83485,-2.83484 0,-1.56564 1.2692,-2.83484 2.83485,-2.83484 1.56565,0 2.83484,1.2692 2.83484,2.83484 z"
       style="fill:#ffffff;fill-opacity:1;fill-rule:nonzero;stroke:#000000;stroke-width:0.3985;stroke-linecap:butt;stroke-linejoin:miter;stroke-miterlimit:10;stroke-dasharray:none;stroke-opacity:1"
       transform="matrix(1.3333333,0,0,-1.3333333,9.2226667,84.769333)" />
    <path
       id="path5"
       d="m 7.0416797,-3.3511953 c 0,-1.8867188 -1.3476563,-3.4570313 -3.046875,-3.4570313 H 0.35027344 v 0.3164063 h 0.234375 c 0.77343746,0 0.78515626,0.1054687 0.78515626,0.46875 v 5.24999999 c 0,0.3515625 -0.011719,0.46875 -0.78515626,0.46875 h -0.234375 V 3.671875e-4 H 3.9948047 c 1.6757812,0 3.046875,-1.4765624875 3.046875,-3.3515624875 z m -0.9960938,0 c 0,1.1132812 -0.1875,1.7109375 -0.5507812,2.1914062 -0.1992188,0.26953129 -0.7617188,0.85546879 -1.7695313,0.85546879 H 2.7174609 c -0.46875,0 -0.4921875,-0.0703125 -0.4921875,-0.3984375 V -6.0933828 c 0,-0.328125 0.023437,-0.3984375 0.4921875,-0.3984375 h 0.9960938 c 0.6210937,0 1.3007812,0.2109375 1.8164062,0.9257812 0.421875,0.5859375 0.515625,1.4414063 0.515625,2.2148438 z m 0,0"
       style="fill:#000000;fill-opacity:1;fill-rule:nonzero;stroke:none"
       aria-label="D"
       transform="matrix(1.3333333,0,0,1.3333333,79.74,98.534667)" />
    <path
       id="path6"
       d="m 31.18166,28.3468 c 0,1.56566 -1.2692,2.83486 -2.83486,2.83486 -1.56566,0 -2.83485,-1.2692 -2.83485,-2.83486 0,-1.56566 1.26919,-2.83485 2.83485,-2.83485 1.56566,0 2.83486,1.26919 2.83486,2.83485 z"
       style="fill:#ffffff;fill-opacity:1;fill-rule:nonzero;stroke:#000000;stroke-width:0.3985;stroke-linecap:butt;stroke-linejoin:miter;stroke-miterlimit:10;stroke-dasharray:none;stroke-opacity:1"
       transform="matrix(1.3333333,0,0,-1.3333333,9.2226667,84.769333)" />
    <path
       id="path7"
       d="m 6.4796719,-1.8292656 c 0,-0.8671875 -0.8085938,-1.6054688 -1.921875,-1.7226563 0.9726562,-0.1992187 1.6523437,-0.8320312 1.6523437,-1.5703125 0,-0.8671875 -0.9140625,-1.6875 -2.203125,-1.6875 H 0.36248438 v 0.3164063 h 0.234375 c 0.76171872,0 0.78515622,0.1054687 0.78515622,0.46875 v 5.24999998 c 0,0.3515625 -0.023437,0.46875 -0.78515622,0.46875 h -0.234375 v 0.3046875 H 4.2648281 c 1.3242188,0 2.2148438,-0.890625 2.2148438,-1.82812498 z M 5.2492031,-5.1222344 c 0,0.6328125 -0.4921875,1.4765625 -1.59375,1.4765625 H 2.2140469 v -2.4492187 c 0,-0.328125 0.011719,-0.3984375 0.4804687,-0.3984375 h 1.2421875 c 0.9609375,0 1.3125,0.84375 1.3125,1.3710937 z m 0.234375,3.2929688 c 0,0.703125 -0.515625,1.52343748 -1.5351562,1.52343748 H 2.6945156 c -0.46875,0 -0.4804687,-0.0703125 -0.4804687,-0.3984375 V -3.4230156 h 1.875 c 0.984375,0 1.3945312,0.9257812 1.3945312,1.59375 z m 0,0"
       style="fill:#000000;fill-opacity:1;fill-rule:nonzero;stroke:none"
       aria-label="B"
       transform="matrix(1.3333333,0,0,1.3333333,51.712,51.509333)" />
    <path
       id="path8"
       d="m 31.18166,56.69363 c 0,1.56565 -1.2692,2.83484 -2.83486,2.83484 -1.56566,0 -2.83485,-1.26919 -2.83485,-2.83484 0,-1.56565 1.26919,-2.83485 2.83485,-2.83485 1.56566,0 2.83486,1.2692 2.83486,2.83485 z"
       style="fill:#ffffff;fill-opacity:1;fill-rule:nonzero;stroke:#000000;stroke-width:0.3985;stroke-linecap:butt;stroke-linejoin:miter;stroke-miterlimit:10;stroke-dasharray:none;stroke-opacity:1"
       transform="matrix(1.3333333,0,0,-1.3333333,9.2226667,84.769333)" />
    <path
       id="path9"
       d="M 7.1359219,1.953125e-4 V -0.30449219 H 6.9601406 c -0.5976562,0 -0.7382812,-0.0703125 -0.84375,-0.3984375 l -2.15625,-6.23437501 c -0.046875,-0.1289062 -0.070312,-0.1992187 -0.2226562,-0.1992187 -0.1640625,0 -0.1875,0.058594 -0.2460938,0.1992187 l -2.0625,5.96484376 c -0.1757812,0.50390625 -0.57421872,0.65625 -1.11328122,0.66796875 V 1.953125e-4 L 1.3351406,-0.03496094 2.4835781,1.953125e-4 V -0.30449219 c -0.5039062,0 -0.75,-0.2578125 -0.75,-0.515625 0,-0.0234375 0.011719,-0.12890625 0.023437,-0.140625 L 2.2140469,-2.2732422 h 2.4609375 l 0.5273437,1.52343751 c 0.011719,0.046875 0.023437,0.10546875 0.023437,0.140625 0,0.3046875 -0.5507812,0.3046875 -0.8203125,0.3046875 V 1.953125e-4 C 4.7570156,-0.03496094 5.4601406,-0.03496094 5.8351406,-0.03496094 Z M 4.5577969,-2.5779297 H 2.3195156 l 1.1132813,-3.234375 z m 0,0"
       style="fill:#000000;fill-opacity:1;fill-rule:nonzero;stroke:none"
       aria-label="A"
       transform="matrix(1.3333333,0,0,1.3333333,51.712,13.933333)" />
  </g>
</svg>
