<svg class="typst-doc" viewBox="0 0 484.72440944881896 187.54861417322834" width="484.72440944881896pt" height="187.54861417322834pt" xmlns="http://www.w3.org/2000/svg" xmlns:xlink="http://www.w3.org/1999/xlink" xmlns:h5="http://www.w3.org/1999/xhtml">
    <path class="typst-shape" fill="#ffffff" fill-rule="nonzero" d="M 0 0v 187.54861 h 484.7244 v -187.54861 Z "/>
    <g>
        <g class="typst-group">
            <g>
                <path class="typst-shape" fill="#dddddd" fill-rule="nonzero" stroke="#000000" stroke-width="1" stroke-linecap="butt" stroke-linejoin="miter" stroke-miterlimit="4" transform="matrix(1 0 0 1 0 186.23961417322832)" d="M 0 0m 0 -170.75739 v 14.173233 h 68.031494 v -14.173233 h -68.031494 Z "/>
                <path class="typst-shape" fill="none" stroke="#000000" stroke-width="1" stroke-linecap="butt" stroke-linejoin="miter" stroke-miterlimit="4" transform="matrix(1 0 0 1 0 214.5860708661417)" d="M 0 0m 0 -199.10384 v 42.519684 h 68.031494 v -42.519684 h -68.031494 Z "/>
                <path class="typst-shape" fill="none" transform="matrix(1 0 0 1 0 172.12138582677164)" d="M 0 0m 0 -170.86739 h 34.015747 v 14.283234 h -34.015747 v -14.283234 Z "/>
                <g class="typst-group">
                    <g>
                        <g class="typst-group" transform="matrix(1 0 0 1 0 1.2539999370078798)">
                            <g>
                                <g class="typst-text" transform="matrix(1 0 0 -1 0 7.095000000000001)">
                                    <use xlink:href="#gAB0B934FD23F5525DDF15E05532F1B7A" x="0" y="0" fill="#000000" fill-rule="nonzero"/>
                                    <use xlink:href="#gECBFE7802F8CB7569219B9A17A45B0B9" x="5.731" y="0" fill="#000000" fill-rule="nonzero"/>
                                    <use xlink:href="#gE4F8D1D19FDA27B90E9B4EC46D86C03A" x="10.417" y="0" fill="#000000" fill-rule="nonzero"/>
                                    <use xlink:href="#gAA27F950F7E729E438D05B87BE57B339" x="16.555" y="0" fill="#000000" fill-rule="nonzero"/>
                                    <use xlink:href="#g9BBCFE8B899DC9619A4AD6910EEB56EE" x="23.309" y="0" fill="#000000" fill-rule="nonzero"/>
                                    <use xlink:href="#gB7DEA5C1DB205C8269CB5B7146D78241" x="28.083000000000002" y="0" fill="#000000" fill-rule="nonzero"/>
                                </g>
                            </g>
                        </g>
                    </g>
                </g>
                <path class="typst-shape" fill="none" transform="matrix(1 0 0 1 2.834645669291341 188.22725984251966)" d="M 0 0m 0 -169.06339 h 68.031494 v 12.479233 h -68.031494 v -12.479233 Z "/>
                <g class="typst-group">
                    <g>
                        <g class="typst-group" transform="matrix(1 0 0 1 2.8346456692913384 19.16387393700788)">
                            <g>
                                <g class="typst-text" transform="matrix(1 0 0 -1 0 7.095000000000001)">
                                    <use xlink:href="#gFF2BD9A390CCBC7D49864056A3EFB23E" x="0" y="0" fill="#000000" fill-rule="nonzero"/>
                                    <use xlink:href="#g73D8E8D5476C84205E1AA6C888B476B1" x="5.258" y="0" fill="#000000" fill-rule="nonzero"/>
                                    <use xlink:href="#gC3C41308C43958A3F8E8DAB157CD222E" x="9.185" y="0" fill="#000000" fill-rule="nonzero"/>
                                    <use xlink:href="#gC1F663E5398C66179F439BCFD6000543" x="14.531" y="0" fill="#000000" fill-rule="nonzero"/>
                                    <use xlink:href="#g8AEAE95EEFFFD294FD8750EA185873E4" x="20.229" y="0" fill="#000000" fill-rule="nonzero"/>
                                    <use xlink:href="#g5605CDCE397FD5B6AD63660D12DCD27A" x="24.508" y="0" fill="#000000" fill-rule="nonzero"/>
                                    <use xlink:href="#gEC852F802DBE8EBEA8B4462E3EB86B29" x="30.217" y="0" fill="#000000" fill-rule="nonzero"/>
                                    <use xlink:href="#gC1F663E5398C66179F439BCFD6000543" x="35.563" y="0" fill="#000000" fill-rule="nonzero"/>
                                    <use xlink:href="#gC3C41308C43958A3F8E8DAB157CD222E" x="41.261" y="0" fill="#000000" fill-rule="nonzero"/>
                                    <use xlink:href="#g7E5073E4AAFF3FB7C8956106D841E6FA" x="46.607" y="0" fill="#000000" fill-rule="nonzero"/>
                                    <use xlink:href="#gF75547BE99603B1DD0971ADBDA2B3B99" x="55.22" y="0" fill="#000000" fill-rule="nonzero"/>
                                </g>
                            </g>
                        </g>
                    </g>
                </g>
                <path class="typst-shape" fill="none" transform="matrix(1 0 0 1 2.834645669291341 230.30694488188973)" d="M 0 0m 0 -196.52985 h 68.031494 v 39.945694 h -68.031494 v -39.945694 Z "/>
                <g class="typst-group">
                    <g>
                        <g class="typst-group" transform="matrix(1 0 0 1 2.8346456692913384 33.77710236220473)">
                            <g>
                                <g class="typst-text" transform="matrix(1 0 0 -1 0 7.095000000000001)">
                                    <use xlink:href="#gFF2BD9A390CCBC7D49864056A3EFB23E" x="0" y="0" fill="#000000" fill-rule="nonzero"/>
                                    <use xlink:href="#g73D8E8D5476C84205E1AA6C888B476B1" x="5.258" y="0" fill="#000000" fill-rule="nonzero"/>
                                    <use xlink:href="#gC3C41308C43958A3F8E8DAB157CD222E" x="9.185" y="0" fill="#000000" fill-rule="nonzero"/>
                                    <use xlink:href="#gC1F663E5398C66179F439BCFD6000543" x="14.531" y="0" fill="#000000" fill-rule="nonzero"/>
                                    <use xlink:href="#g8AEAE95EEFFFD294FD8750EA185873E4" x="20.229" y="0" fill="#000000" fill-rule="nonzero"/>
                                    <use xlink:href="#g5605CDCE397FD5B6AD63660D12DCD27A" x="24.508" y="0" fill="#000000" fill-rule="nonzero"/>
                                    <use xlink:href="#gEC852F802DBE8EBEA8B4462E3EB86B29" x="30.217" y="0" fill="#000000" fill-rule="nonzero"/>
                                    <use xlink:href="#g8AEAE95EEFFFD294FD8750EA185873E4" x="35.563" y="0" fill="#000000" fill-rule="nonzero"/>
                                    <use xlink:href="#g73A8D12E11493F3872B02EC7EFA2870C" x="39.842" y="0" fill="#000000" fill-rule="nonzero"/>
                                    <use xlink:href="#g8BF920FA9392613154C7CBB67768990" x="42.878" y="0" fill="#000000" fill-rule="nonzero"/>
                                    <use xlink:href="#g5A74B5F5671A7B3F14E2428BE69F72D7" x="46.255" y="0" fill="#000000" fill-rule="nonzero"/>
                                </g>
                                <g class="typst-text" transform="matrix(1 0 0 -1 0 21.340000000000003)">
                                    <use xlink:href="#gC3C41308C43958A3F8E8DAB157CD222E" x="0" y="0" fill="#000000" fill-rule="nonzero"/>
                                    <use xlink:href="#gCC202CA88F72F45EA8105B24877E8E3C" x="5.346" y="0" fill="#000000" fill-rule="nonzero"/>
                                    <use xlink:href="#gCC202CA88F72F45EA8105B24877E8E3C" x="9.229" y="0" fill="#000000" fill-rule="nonzero"/>
                                    <use xlink:href="#gF75547BE99603B1DD0971ADBDA2B3B99" x="13.111999999999998" y="0" fill="#000000" fill-rule="nonzero"/>
                                    <use xlink:href="#g8BF920FA9392613154C7CBB67768990" x="17.522999999999996" y="0" fill="#000000" fill-rule="nonzero"/>
                                    <use xlink:href="#gCC202CA88F72F45EA8105B24877E8E3C" x="20.899999999999995" y="0" fill="#000000" fill-rule="nonzero"/>
                                </g>
                            </g>
                        </g>
                    </g>
                </g>
                <path class="typst-shape" fill="#dddddd" fill-rule="nonzero" stroke="#000000" stroke-width="1" stroke-linecap="butt" stroke-linejoin="miter" stroke-miterlimit="4" transform="matrix(1 0 0 1 113.38582677165354 186.23961417322832)" d="M 0 0m 0 -170.75739 v 14.173233 h 85.03937 v -14.173233 h -85.03937 Z "/>
                <path class="typst-shape" fill="none" stroke="#000000" stroke-width="1" stroke-linecap="butt" stroke-linejoin="miter" stroke-miterlimit="4" transform="matrix(1 0 0 1 113.38582677165354 214.5860708661417)" d="M 0 0m 0 -199.10384 v 42.519684 h 85.03937 v -42.519684 h -85.03937 Z "/>
                <path class="typst-shape" fill="none" transform="matrix(1 0 0 1 113.38582677165354 172.12138582677164)" d="M 0 0m 0 -170.86739 h 42.519684 v 14.283234 h -42.519684 v -14.283234 Z "/>
                <g class="typst-group">
                    <g>
                        <g class="typst-group" transform="matrix(1 0 0 1 113.38582677165354 1.2539999370078798)">
                            <g>
                                <g class="typst-text" transform="matrix(1 0 0 -1 0 7.095000000000001)">
                                    <use xlink:href="#gE4F8D1D19FDA27B90E9B4EC46D86C03A" x="0" y="0" fill="#000000" fill-rule="nonzero"/>
                                    <use xlink:href="#g9BBCFE8B899DC9619A4AD6910EEB56EE" x="6.138000000000001" y="0" fill="#000000" fill-rule="nonzero"/>
                                    <use xlink:href="#g9BBCFE8B899DC9619A4AD6910EEB56EE" x="10.912" y="0" fill="#000000" fill-rule="nonzero"/>
                                    <use xlink:href="#gDA35DFB2A8A9A6C23B7BD4BEED825C8" x="15.686" y="0" fill="#000000" fill-rule="nonzero"/>
                                    <use xlink:href="#g611281ABBD3C83A07C9CA389686D05D5" x="20.955" y="0" fill="#000000" fill-rule="nonzero"/>
                                    <use xlink:href="#gAA27F950F7E729E438D05B87BE57B339" x="28.061" y="0" fill="#000000" fill-rule="nonzero"/>
                                    <use xlink:href="#g991F9E5D89BF869A4F6992C162B36D39" x="34.815" y="0" fill="#000000" fill-rule="nonzero"/>
                                </g>
                            </g>
                        </g>
                    </g>
                </g>
                <path class="typst-shape" fill="none" transform="matrix(1 0 0 1 116.22047244094487 188.22725984251966)" d="M 0 0m 0 -169.06339 h 85.03937 v 12.479233 h -85.03937 v -12.479233 Z "/>
                <g class="typst-group">
                    <g>
                        <g class="typst-group" transform="matrix(1 0 0 1 116.22047244094489 19.16387393700788)">
                            <g>
                                <g class="typst-text" transform="matrix(1 0 0 -1 0 7.095000000000001)">
                                    <use xlink:href="#gC3C41308C43958A3F8E8DAB157CD222E" x="0" y="0" fill="#000000" fill-rule="nonzero"/>
                                    <use xlink:href="#g8AEAE95EEFFFD294FD8750EA185873E4" x="5.346" y="0" fill="#000000" fill-rule="nonzero"/>
                                    <use xlink:href="#g8AEAE95EEFFFD294FD8750EA185873E4" x="9.625" y="0" fill="#000000" fill-rule="nonzero"/>
                                    <use xlink:href="#gDC833568159F82F22753BA6B2079418C" x="13.904" y="0" fill="#000000" fill-rule="nonzero"/>
                                    <use xlink:href="#g108D0C5DDD9074B28C78056ECEDBF758" x="18.821" y="0" fill="#000000" fill-rule="nonzero"/>
                                    <use xlink:href="#gC1F663E5398C66179F439BCFD6000543" x="24.552" y="0" fill="#000000" fill-rule="nonzero"/>
                                    <use xlink:href="#g8BF920FA9392613154C7CBB67768990" x="30.25" y="0" fill="#000000" fill-rule="nonzero"/>
                                    <use xlink:href="#gEC852F802DBE8EBEA8B4462E3EB86B29" x="33.627" y="0" fill="#000000" fill-rule="nonzero"/>
                                    <use xlink:href="#gC1F663E5398C66179F439BCFD6000543" x="38.973" y="0" fill="#000000" fill-rule="nonzero"/>
                                    <use xlink:href="#g108D0C5DDD9074B28C78056ECEDBF758" x="44.671" y="0" fill="#000000" fill-rule="nonzero"/>
                                    <use xlink:href="#g7E5073E4AAFF3FB7C8956106D841E6FA" x="50.402" y="0" fill="#000000" fill-rule="nonzero"/>
                                    <use xlink:href="#gFF2BD9A390CCBC7D49864056A3EFB23E" x="59.015" y="0" fill="#000000" fill-rule="nonzero"/>
                                    <use xlink:href="#gF75547BE99603B1DD0971ADBDA2B3B99" x="64.383" y="0" fill="#000000" fill-rule="nonzero"/>
                                    <use xlink:href="#g73D8E8D5476C84205E1AA6C888B476B1" x="68.794" y="0" fill="#000000" fill-rule="nonzero"/>
                                </g>
                            </g>
                        </g>
                    </g>
                </g>
                <path class="typst-shape" fill="none" transform="matrix(1 0 0 1 116.22047244094487 230.74694488188973)" d="M 0 0m 0 -197.40984 h 85.03937 v 40.825684 h -85.03937 v -40.825684 Z "/>
                <g class="typst-group">
                    <g>
                        <g class="typst-group" transform="matrix(1 0 0 1 116.22047244094489 33.33710228346458)">
                            <g>
                                <g class="typst-text" transform="matrix(1 0 0 -1 0 7.095000000000001)">
                                    <use xlink:href="#gFF2BD9A390CCBC7D49864056A3EFB23E" x="0" y="0" fill="#000000" fill-rule="nonzero"/>
                                    <use xlink:href="#g73D8E8D5476C84205E1AA6C888B476B1" x="5.258" y="0" fill="#000000" fill-rule="nonzero"/>
                                    <use xlink:href="#gC3C41308C43958A3F8E8DAB157CD222E" x="9.185" y="0" fill="#000000" fill-rule="nonzero"/>
                                    <use xlink:href="#gC1F663E5398C66179F439BCFD6000543" x="14.531" y="0" fill="#000000" fill-rule="nonzero"/>
                                    <use xlink:href="#g8AEAE95EEFFFD294FD8750EA185873E4" x="20.229" y="0" fill="#000000" fill-rule="nonzero"/>
                                    <use xlink:href="#g5605CDCE397FD5B6AD63660D12DCD27A" x="24.508" y="0" fill="#000000" fill-rule="nonzero"/>
                                    <use xlink:href="#gEC852F802DBE8EBEA8B4462E3EB86B29" x="30.217" y="0" fill="#000000" fill-rule="nonzero"/>
                                    <use xlink:href="#gC1F663E5398C66179F439BCFD6000543" x="35.563" y="0" fill="#000000" fill-rule="nonzero"/>
                                    <use xlink:href="#gC3C41308C43958A3F8E8DAB157CD222E" x="41.261" y="0" fill="#000000" fill-rule="nonzero"/>
                                    <use xlink:href="#g7E5073E4AAFF3FB7C8956106D841E6FA" x="46.607" y="0" fill="#000000" fill-rule="nonzero"/>
                                    <use xlink:href="#gF75547BE99603B1DD0971ADBDA2B3B99" x="55.22" y="0" fill="#000000" fill-rule="nonzero"/>
                                </g>
                                <g class="typst-text" transform="matrix(1 0 0 -1 0 21.340000000000003)">
                                    <use xlink:href="#gFF2BD9A390CCBC7D49864056A3EFB23E" x="0" y="0" fill="#000000" fill-rule="nonzero"/>
                                    <use xlink:href="#gC3C41308C43958A3F8E8DAB157CD222E" x="5.258" y="0" fill="#000000" fill-rule="nonzero"/>
                                    <use xlink:href="#g847A914B5BA525A636000295D1E6037C" x="10.604" y="0" fill="#000000" fill-rule="nonzero"/>
                                    <use xlink:href="#gC3C41308C43958A3F8E8DAB157CD222E" x="13.53" y="0" fill="#000000" fill-rule="nonzero"/>
                                    <use xlink:href="#gC1F663E5398C66179F439BCFD6000543" x="18.875999999999998" y="0" fill="#000000" fill-rule="nonzero"/>
                                    <use xlink:href="#g8AEAE95EEFFFD294FD8750EA185873E4" x="24.573999999999998" y="0" fill="#000000" fill-rule="nonzero"/>
                                    <use xlink:href="#gF75547BE99603B1DD0971ADBDA2B3B99" x="28.852999999999998" y="0" fill="#000000" fill-rule="nonzero"/>
                                </g>
                            </g>
                        </g>
                    </g>
                </g>
                <path class="typst-shape" fill="#dddddd" fill-rule="nonzero" stroke="#000000" stroke-width="1" stroke-linecap="butt" stroke-linejoin="miter" stroke-miterlimit="4" transform="matrix(1 0 0 1 170.07874015748033 299.62544094488186)" d="M 0 0m 0 -170.75739 v 14.173233 h 68.031494 v -14.173233 h -68.031494 Z "/>
                <path class="typst-shape" fill="none" stroke="#000000" stroke-width="1" stroke-linecap="butt" stroke-linejoin="miter" stroke-miterlimit="4" transform="matrix(1 0 0 1 170.07874015748033 327.9718976377952)" d="M 0 0m 0 -199.10384 v 42.519684 h 68.031494 v -42.519684 h -68.031494 Z "/>
                <path class="typst-shape" fill="none" transform="matrix(1 0 0 1 170.07874015748033 285.5072125984252)" d="M 0 0m 0 -170.86739 h 34.015747 v 14.283234 h -34.015747 v -14.283234 Z "/>
                <g class="typst-group">
                    <g>
                        <g class="typst-group" transform="matrix(1 0 0 1 170.07874001574805 114.63982670866142)">
                            <g>
                                <g class="typst-text" transform="matrix(1 0 0 -1 0 7.095000000000001)">
                                    <use xlink:href="#gAA152474AB5BBA1DF99101F55130C27" x="0" y="0" fill="#000000" fill-rule="nonzero"/>
                                    <use xlink:href="#gDA35DFB2A8A9A6C23B7BD4BEED825C8" x="3.564" y="0" fill="#000000" fill-rule="nonzero"/>
                                    <use xlink:href="#gE4F8D1D19FDA27B90E9B4EC46D86C03A" x="8.833" y="0" fill="#000000" fill-rule="nonzero"/>
                                    <use xlink:href="#gAA27F950F7E729E438D05B87BE57B339" x="14.971" y="0" fill="#000000" fill-rule="nonzero"/>
                                </g>
                            </g>
                        </g>
                    </g>
                </g>
                <path class="typst-shape" fill="none" transform="matrix(1 0 0 1 172.91338582677164 301.6130866141732)" d="M 0 0m 0 -169.06339 h 68.031494 v 12.479233 h -68.031494 v -12.479233 Z "/>
                <g class="typst-group">
                    <g>
                        <g class="typst-group" transform="matrix(1 0 0 1 172.91338568503937 132.5497007086614)">
                            <g>
                                <g class="typst-text" transform="matrix(1 0 0 -1 0 7.095000000000001)">
                                    <use xlink:href="#g847A914B5BA525A636000295D1E6037C" x="0" y="0" fill="#000000" fill-rule="nonzero"/>
                                    <use xlink:href="#gDC833568159F82F22753BA6B2079418C" x="2.926" y="0" fill="#000000" fill-rule="nonzero"/>
                                    <use xlink:href="#gC3C41308C43958A3F8E8DAB157CD222E" x="7.843000000000001" y="0" fill="#000000" fill-rule="nonzero"/>
                                    <use xlink:href="#gC1F663E5398C66179F439BCFD6000543" x="13.189" y="0" fill="#000000" fill-rule="nonzero"/>
                                    <use xlink:href="#gEC852F802DBE8EBEA8B4462E3EB86B29" x="18.887" y="0" fill="#000000" fill-rule="nonzero"/>
                                    <use xlink:href="#gC1F663E5398C66179F439BCFD6000543" x="24.233" y="0" fill="#000000" fill-rule="nonzero"/>
                                    <use xlink:href="#g108D0C5DDD9074B28C78056ECEDBF758" x="29.931" y="0" fill="#000000" fill-rule="nonzero"/>
                                    <use xlink:href="#g7E5073E4AAFF3FB7C8956106D841E6FA" x="35.662" y="0" fill="#000000" fill-rule="nonzero"/>
                                    <use xlink:href="#gFF2BD9A390CCBC7D49864056A3EFB23E" x="44.275" y="0" fill="#000000" fill-rule="nonzero"/>
                                    <use xlink:href="#gF75547BE99603B1DD0971ADBDA2B3B99" x="49.643" y="0" fill="#000000" fill-rule="nonzero"/>
                                    <use xlink:href="#g73D8E8D5476C84205E1AA6C888B476B1" x="54.054" y="0" fill="#000000" fill-rule="nonzero"/>
                                </g>
                            </g>
                        </g>
                    </g>
                </g>
                <path class="typst-shape" fill="none" transform="matrix(1 0 0 1 172.91338582677164 344.1327716535433)" d="M 0 0m 0 -197.40984 h 68.031494 v 40.825684 h -68.031494 v -40.825684 Z "/>
                <g class="typst-group">
                    <g>
                        <g class="typst-group" transform="matrix(1 0 0 1 172.91338568503937 146.7229290551181)">
                            <g>
                                <g class="typst-text" transform="matrix(1 0 0 -1 0 7.095000000000001)">
                                    <use xlink:href="#gFF2BD9A390CCBC7D49864056A3EFB23E" x="0" y="0" fill="#000000" fill-rule="nonzero"/>
                                    <use xlink:href="#g73D8E8D5476C84205E1AA6C888B476B1" x="5.258" y="0" fill="#000000" fill-rule="nonzero"/>
                                    <use xlink:href="#gC3C41308C43958A3F8E8DAB157CD222E" x="9.185" y="0" fill="#000000" fill-rule="nonzero"/>
                                    <use xlink:href="#gC1F663E5398C66179F439BCFD6000543" x="14.531" y="0" fill="#000000" fill-rule="nonzero"/>
                                    <use xlink:href="#g8AEAE95EEFFFD294FD8750EA185873E4" x="20.229" y="0" fill="#000000" fill-rule="nonzero"/>
                                    <use xlink:href="#g5605CDCE397FD5B6AD63660D12DCD27A" x="24.508" y="0" fill="#000000" fill-rule="nonzero"/>
                                    <use xlink:href="#gEC852F802DBE8EBEA8B4462E3EB86B29" x="30.217" y="0" fill="#000000" fill-rule="nonzero"/>
                                    <use xlink:href="#gC1F663E5398C66179F439BCFD6000543" x="35.563" y="0" fill="#000000" fill-rule="nonzero"/>
                                    <use xlink:href="#gC3C41308C43958A3F8E8DAB157CD222E" x="41.261" y="0" fill="#000000" fill-rule="nonzero"/>
                                    <use xlink:href="#g7E5073E4AAFF3FB7C8956106D841E6FA" x="46.607" y="0" fill="#000000" fill-rule="nonzero"/>
                                    <use xlink:href="#gF75547BE99603B1DD0971ADBDA2B3B99" x="55.22" y="0" fill="#000000" fill-rule="nonzero"/>
                                </g>
                                <g class="typst-text" transform="matrix(1 0 0 -1 0 21.340000000000003)">
                                    <use xlink:href="#gC3C41308C43958A3F8E8DAB157CD222E" x="0" y="0" fill="#000000" fill-rule="nonzero"/>
                                    <use xlink:href="#g7E5073E4AAFF3FB7C8956106D841E6FA" x="5.346" y="0" fill="#000000" fill-rule="nonzero"/>
                                    <use xlink:href="#gDC833568159F82F22753BA6B2079418C" x="13.959000000000001" y="0" fill="#000000" fill-rule="nonzero"/>
                                    <use xlink:href="#g108D0C5DDD9074B28C78056ECEDBF758" x="18.876" y="0" fill="#000000" fill-rule="nonzero"/>
                                    <use xlink:href="#gC1F663E5398C66179F439BCFD6000543" x="24.607" y="0" fill="#000000" fill-rule="nonzero"/>
                                    <use xlink:href="#g8BF920FA9392613154C7CBB67768990" x="30.305" y="0" fill="#000000" fill-rule="nonzero"/>
                                </g>
                            </g>
                        </g>
                    </g>
                </g>
                <path class="typst-shape" fill="#dddddd" fill-rule="nonzero" stroke="#000000" stroke-width="1" stroke-linecap="butt" stroke-linejoin="miter" stroke-miterlimit="4" transform="matrix(1 0 0 1 396.8503937007874 186.23961417322832)" d="M 0 0m 0 -170.75739 v 14.173233 h 85.03937 v -14.173233 h -85.03937 Z "/>
                <path class="typst-shape" fill="none" stroke="#000000" stroke-width="1" stroke-linecap="butt" stroke-linejoin="miter" stroke-miterlimit="4" transform="matrix(1 0 0 1 396.8503937007874 214.5860708661417)" d="M 0 0m 0 -199.10384 v 42.519684 h 85.03937 v -42.519684 h -85.03937 Z "/>
                <path class="typst-shape" fill="none" transform="matrix(1 0 0 1 396.8503937007874 172.12138582677164)" d="M 0 0m 0 -170.86739 h 42.519684 v 14.283234 h -42.519684 v -14.283234 Z "/>
                <g class="typst-group">
                    <g>
                        <g class="typst-group" transform="matrix(1 0 0 1 396.8503937007874 1.2539999370078798)">
                            <g>
                                <g class="typst-text" transform="matrix(1 0 0 -1 0 7.095000000000001)">
                                    <use xlink:href="#g9BBCFE8B899DC9619A4AD6910EEB56EE" x="0" y="0" fill="#000000" fill-rule="nonzero"/>
                                    <use xlink:href="#g611281ABBD3C83A07C9CA389686D05D5" x="4.774" y="0" fill="#000000" fill-rule="nonzero"/>
                                    <use xlink:href="#g9FFBE5D12BB4198D62F5942CD020C717" x="11.879999999999999" y="0" fill="#000000" fill-rule="nonzero"/>
                                    <use xlink:href="#g991F9E5D89BF869A4F6992C162B36D39" x="16.467" y="0" fill="#000000" fill-rule="nonzero"/>
                                    <use xlink:href="#gDA35DFB2A8A9A6C23B7BD4BEED825C8" x="20.503999999999998" y="0" fill="#000000" fill-rule="nonzero"/>
                                    <use xlink:href="#g730AA816E68E8843FB15BD2C4BC525D0" x="25.772999999999996" y="0" fill="#000000" fill-rule="nonzero"/>
                                    <use xlink:href="#g6CAD7208C3DDC77AFD4D65215EC117D9" x="35.497" y="0" fill="#000000" fill-rule="nonzero"/>
                                    <use xlink:href="#gECBFE7802F8CB7569219B9A17A45B0B9" x="39.996" y="0" fill="#000000" fill-rule="nonzero"/>
                                </g>
                            </g>
                        </g>
                    </g>
                </g>
                <path class="typst-shape" fill="none" transform="matrix(1 0 0 1 399.6850393700788 188.22725984251966)" d="M 0 0m 0 -169.06339 h 85.03937 v 12.479233 h -85.03937 v -12.479233 Z "/>
                <g class="typst-group">
                    <g>
                        <g class="typst-group" transform="matrix(1 0 0 1 399.6850392283465 19.16387393700788)">
                            <g>
                                <g class="typst-text" transform="matrix(1 0 0 -1 0 7.095000000000001)">
                                    <use xlink:href="#g8AEAE95EEFFFD294FD8750EA185873E4" x="0" y="0" fill="#000000" fill-rule="nonzero"/>
                                    <use xlink:href="#g108D0C5DDD9074B28C78056ECEDBF758" x="4.279" y="0" fill="#000000" fill-rule="nonzero"/>
                                    <use xlink:href="#gCC202CA88F72F45EA8105B24877E8E3C" x="10.01" y="0" fill="#000000" fill-rule="nonzero"/>
                                    <use xlink:href="#g8BF920FA9392613154C7CBB67768990" x="13.892999999999999" y="0" fill="#000000" fill-rule="nonzero"/>
                                    <use xlink:href="#gDC833568159F82F22753BA6B2079418C" x="17.27" y="0" fill="#000000" fill-rule="nonzero"/>
                                    <use xlink:href="#g7E5073E4AAFF3FB7C8956106D841E6FA" x="22.187" y="0" fill="#000000" fill-rule="nonzero"/>
                                    <use xlink:href="#gF75547BE99603B1DD0971ADBDA2B3B99" x="30.800000000000004" y="0" fill="#000000" fill-rule="nonzero"/>
                                    <use xlink:href="#g73D8E8D5476C84205E1AA6C888B476B1" x="35.211000000000006" y="0" fill="#000000" fill-rule="nonzero"/>
                                    <use xlink:href="#gEC852F802DBE8EBEA8B4462E3EB86B29" x="39.138000000000005" y="0" fill="#000000" fill-rule="nonzero"/>
                                    <use xlink:href="#gC1F663E5398C66179F439BCFD6000543" x="44.48400000000001" y="0" fill="#000000" fill-rule="nonzero"/>
                                    <use xlink:href="#gC3C41308C43958A3F8E8DAB157CD222E" x="50.18200000000001" y="0" fill="#000000" fill-rule="nonzero"/>
                                    <use xlink:href="#g7E5073E4AAFF3FB7C8956106D841E6FA" x="55.528000000000006" y="0" fill="#000000" fill-rule="nonzero"/>
                                    <use xlink:href="#gF75547BE99603B1DD0971ADBDA2B3B99" x="64.141" y="0" fill="#000000" fill-rule="nonzero"/>
                                </g>
                            </g>
                        </g>
                    </g>
                </g>
                <path class="typst-shape" fill="none" transform="matrix(1 0 0 1 399.6850393700788 230.30694488188973)" d="M 0 0m 0 -196.52985 h 85.03937 v 39.945694 h -85.03937 v -39.945694 Z "/>
                <g class="typst-group">
                    <g>
                        <g class="typst-group" transform="matrix(1 0 0 1 399.6850392283465 33.77710236220473)">
                            <g>
                                <g class="typst-text" transform="matrix(1 0 0 -1 0 7.095000000000001)">
                                    <use xlink:href="#g8AEAE95EEFFFD294FD8750EA185873E4" x="0" y="0" fill="#000000" fill-rule="nonzero"/>
                                    <use xlink:href="#g108D0C5DDD9074B28C78056ECEDBF758" x="4.279" y="0" fill="#000000" fill-rule="nonzero"/>
                                    <use xlink:href="#gCC202CA88F72F45EA8105B24877E8E3C" x="10.01" y="0" fill="#000000" fill-rule="nonzero"/>
                                    <use xlink:href="#g8BF920FA9392613154C7CBB67768990" x="13.892999999999999" y="0" fill="#000000" fill-rule="nonzero"/>
                                    <use xlink:href="#gDC833568159F82F22753BA6B2079418C" x="17.27" y="0" fill="#000000" fill-rule="nonzero"/>
                                    <use xlink:href="#g7E5073E4AAFF3FB7C8956106D841E6FA" x="22.187" y="0" fill="#000000" fill-rule="nonzero"/>
                                    <use xlink:href="#gF75547BE99603B1DD0971ADBDA2B3B99" x="30.800000000000004" y="0" fill="#000000" fill-rule="nonzero"/>
                                    <use xlink:href="#g73D8E8D5476C84205E1AA6C888B476B1" x="35.211000000000006" y="0" fill="#000000" fill-rule="nonzero"/>
                                    <use xlink:href="#gEC852F802DBE8EBEA8B4462E3EB86B29" x="39.138000000000005" y="0" fill="#000000" fill-rule="nonzero"/>
                                    <use xlink:href="#gCC202CA88F72F45EA8105B24877E8E3C" x="44.48400000000001" y="0" fill="#000000" fill-rule="nonzero"/>
                                    <use xlink:href="#g8BF920FA9392613154C7CBB67768990" x="48.36700000000001" y="0" fill="#000000" fill-rule="nonzero"/>
                                    <use xlink:href="#g73D8E8D5476C84205E1AA6C888B476B1" x="51.744000000000014" y="0" fill="#000000" fill-rule="nonzero"/>
                                    <use xlink:href="#gF75547BE99603B1DD0971ADBDA2B3B99" x="55.58300000000001" y="0" fill="#000000" fill-rule="nonzero"/>
                                    <use xlink:href="#gF75547BE99603B1DD0971ADBDA2B3B99" x="60.07100000000001" y="0" fill="#000000" fill-rule="nonzero"/>
                                    <use xlink:href="#g8BF920FA9392613154C7CBB67768990" x="64.48200000000001" y="0" fill="#000000" fill-rule="nonzero"/>
                                </g>
                                <g class="typst-text" transform="matrix(1 0 0 -1 0 21.340000000000003)">
                                    <use xlink:href="#g8AEAE95EEFFFD294FD8750EA185873E4" x="0" y="0" fill="#000000" fill-rule="nonzero"/>
                                    <use xlink:href="#g108D0C5DDD9074B28C78056ECEDBF758" x="4.279" y="0" fill="#000000" fill-rule="nonzero"/>
                                    <use xlink:href="#gCC202CA88F72F45EA8105B24877E8E3C" x="10.01" y="0" fill="#000000" fill-rule="nonzero"/>
                                    <use xlink:href="#g8BF920FA9392613154C7CBB67768990" x="13.892999999999999" y="0" fill="#000000" fill-rule="nonzero"/>
                                    <use xlink:href="#gDC833568159F82F22753BA6B2079418C" x="17.27" y="0" fill="#000000" fill-rule="nonzero"/>
                                    <use xlink:href="#g7E5073E4AAFF3FB7C8956106D841E6FA" x="22.187" y="0" fill="#000000" fill-rule="nonzero"/>
                                    <use xlink:href="#gF75547BE99603B1DD0971ADBDA2B3B99" x="30.800000000000004" y="0" fill="#000000" fill-rule="nonzero"/>
                                    <use xlink:href="#g73D8E8D5476C84205E1AA6C888B476B1" x="35.211000000000006" y="0" fill="#000000" fill-rule="nonzero"/>
                                    <use xlink:href="#gEC852F802DBE8EBEA8B4462E3EB86B29" x="39.138000000000005" y="0" fill="#000000" fill-rule="nonzero"/>
                                    <use xlink:href="#g8AEAE95EEFFFD294FD8750EA185873E4" x="44.48400000000001" y="0" fill="#000000" fill-rule="nonzero"/>
                                    <use xlink:href="#g73A8D12E11493F3872B02EC7EFA2870C" x="48.763000000000005" y="0" fill="#000000" fill-rule="nonzero"/>
                                    <use xlink:href="#g8BF920FA9392613154C7CBB67768990" x="51.79900000000001" y="0" fill="#000000" fill-rule="nonzero"/>
                                    <use xlink:href="#g5A74B5F5671A7B3F14E2428BE69F72D7" x="55.17600000000001" y="0" fill="#000000" fill-rule="nonzero"/>
                                </g>
                            </g>
                        </g>
                    </g>
                </g>
                <path class="typst-shape" fill="none" stroke="#000000" stroke-width="1" stroke-linecap="butt" stroke-linejoin="miter" stroke-miterlimit="4" transform="matrix(1 0 0 1 255.11811023622047 214.5860708661417)" d="M 0 0m 0 -199.10384 v 42.519684 h 85.03937 v -42.519684 h -85.03937 Z "/>
                <path class="typst-shape" fill="none" transform="matrix(1 0 0 1 255.11811023622047 173.37538582677163)" d="M 0 0m 0 -173.37538 h 42.519684 v 16.79123 h -42.519684 v -16.79123 Z "/>
                <g class="typst-group">
                    <g>
                        <g class="typst-group" transform="matrix(1 0 0 1 255.11811023622047 -0.00000011023621303274563)">
                            <g>
                                <g class="typst-text" transform="matrix(1 0 0 -1 0 7.095000000000001)">
                                    <use xlink:href="#gDEFDE252C18CFC7861F981D2D05F01C9" x="0" y="0" fill="#000000" fill-rule="nonzero"/>
                                    <use xlink:href="#g6CAD7208C3DDC77AFD4D65215EC117D9" x="6.171000000000001" y="0" fill="#000000" fill-rule="nonzero"/>
                                    <use xlink:href="#g648BF8DE3DC83A37D75C6F3C02C1CAFA" x="10.670000000000002" y="0" fill="#000000" fill-rule="nonzero"/>
                                    <use xlink:href="#gDA35DFB2A8A9A6C23B7BD4BEED825C8" x="16.786" y="0" fill="#000000" fill-rule="nonzero"/>
                                    <use xlink:href="#g9FFBE5D12BB4198D62F5942CD020C717" x="22.055" y="0" fill="#000000" fill-rule="nonzero"/>
                                    <use xlink:href="#gD5FB893CF72C0E598F48294A1C1A3DB" x="26.642" y="0" fill="#000000" fill-rule="nonzero"/>
                                    <use xlink:href="#g991F9E5D89BF869A4F6992C162B36D39" x="30.404" y="0" fill="#000000" fill-rule="nonzero"/>
                                    <use xlink:href="#gDA35DFB2A8A9A6C23B7BD4BEED825C8" x="34.441" y="0" fill="#000000" fill-rule="nonzero"/>
                                    <use xlink:href="#gECBFE7802F8CB7569219B9A17A45B0B9" x="39.71" y="0" fill="#000000" fill-rule="nonzero"/>
                                </g>
                            </g>
                        </g>
                    </g>
                </g>
                <path class="typst-shape" fill="none" transform="matrix(1 0 0 1 257.9527559055118 188.22725984251966)" d="M 0 0m 0 -169.06339 h 85.03937 v 12.479233 h -85.03937 v -12.479233 Z "/>
                <g class="typst-group">
                    <g>
                        <g class="typst-group" transform="matrix(1 0 0 1 257.9527559055118 19.16387393700788)">
                            <g>
                                <g class="typst-text" transform="matrix(1 0 0 -1 0 7.095000000000001)">
                                    <use xlink:href="#g8AEAE95EEFFFD294FD8750EA185873E4" x="0" y="0" fill="#000000" fill-rule="nonzero"/>
                                    <use xlink:href="#g108D0C5DDD9074B28C78056ECEDBF758" x="4.279" y="0" fill="#000000" fill-rule="nonzero"/>
                                    <use xlink:href="#gCC202CA88F72F45EA8105B24877E8E3C" x="10.01" y="0" fill="#000000" fill-rule="nonzero"/>
                                    <use xlink:href="#g8BF920FA9392613154C7CBB67768990" x="13.892999999999999" y="0" fill="#000000" fill-rule="nonzero"/>
                                    <use xlink:href="#gDC833568159F82F22753BA6B2079418C" x="17.27" y="0" fill="#000000" fill-rule="nonzero"/>
                                    <use xlink:href="#g7E5073E4AAFF3FB7C8956106D841E6FA" x="22.187" y="0" fill="#000000" fill-rule="nonzero"/>
                                    <use xlink:href="#gF75547BE99603B1DD0971ADBDA2B3B99" x="30.800000000000004" y="0" fill="#000000" fill-rule="nonzero"/>
                                    <use xlink:href="#g73D8E8D5476C84205E1AA6C888B476B1" x="35.211000000000006" y="0" fill="#000000" fill-rule="nonzero"/>
                                    <use xlink:href="#gEC852F802DBE8EBEA8B4462E3EB86B29" x="39.138000000000005" y="0" fill="#000000" fill-rule="nonzero"/>
                                    <use xlink:href="#gC1F663E5398C66179F439BCFD6000543" x="44.48400000000001" y="0" fill="#000000" fill-rule="nonzero"/>
                                    <use xlink:href="#gC3C41308C43958A3F8E8DAB157CD222E" x="50.18200000000001" y="0" fill="#000000" fill-rule="nonzero"/>
                                    <use xlink:href="#g7E5073E4AAFF3FB7C8956106D841E6FA" x="55.528000000000006" y="0" fill="#000000" fill-rule="nonzero"/>
                                    <use xlink:href="#gF75547BE99603B1DD0971ADBDA2B3B99" x="64.141" y="0" fill="#000000" fill-rule="nonzero"/>
                                </g>
                                <g class="typst-text" transform="matrix(1 0 0 -1 0 21.340000000000003)">
                                    <use xlink:href="#gC3C41308C43958A3F8E8DAB157CD222E" x="0" y="0" fill="#000000" fill-rule="nonzero"/>
                                    <use xlink:href="#g8AEAE95EEFFFD294FD8750EA185873E4" x="5.346" y="0" fill="#000000" fill-rule="nonzero"/>
                                    <use xlink:href="#g8AEAE95EEFFFD294FD8750EA185873E4" x="9.625" y="0" fill="#000000" fill-rule="nonzero"/>
                                    <use xlink:href="#gDC833568159F82F22753BA6B2079418C" x="13.904" y="0" fill="#000000" fill-rule="nonzero"/>
                                    <use xlink:href="#g108D0C5DDD9074B28C78056ECEDBF758" x="18.821" y="0" fill="#000000" fill-rule="nonzero"/>
                                    <use xlink:href="#gC1F663E5398C66179F439BCFD6000543" x="24.552" y="0" fill="#000000" fill-rule="nonzero"/>
                                    <use xlink:href="#g8BF920FA9392613154C7CBB67768990" x="30.25" y="0" fill="#000000" fill-rule="nonzero"/>
                                    <use xlink:href="#gEC852F802DBE8EBEA8B4462E3EB86B29" x="33.627" y="0" fill="#000000" fill-rule="nonzero"/>
                                    <use xlink:href="#gC1F663E5398C66179F439BCFD6000543" x="38.973" y="0" fill="#000000" fill-rule="nonzero"/>
                                    <use xlink:href="#g108D0C5DDD9074B28C78056ECEDBF758" x="44.671" y="0" fill="#000000" fill-rule="nonzero"/>
                                    <use xlink:href="#g7E5073E4AAFF3FB7C8956106D841E6FA" x="50.402" y="0" fill="#000000" fill-rule="nonzero"/>
                                    <use xlink:href="#gFF2BD9A390CCBC7D49864056A3EFB23E" x="59.015" y="0" fill="#000000" fill-rule="nonzero"/>
                                    <use xlink:href="#gF75547BE99603B1DD0971ADBDA2B3B99" x="64.383" y="0" fill="#000000" fill-rule="nonzero"/>
                                    <use xlink:href="#g73D8E8D5476C84205E1AA6C888B476B1" x="68.794" y="0" fill="#000000" fill-rule="nonzero"/>
                                </g>
                            </g>
                        </g>
                    </g>
                </g>
                <path class="typst-shape" fill="none" stroke="#000000" stroke-width="1" stroke-linecap="butt" stroke-linejoin="miter" stroke-miterlimit="4" transform="matrix(1 0 0 1 340.15748031496065 327.9718976377952)" d="M 0 0m 0 -199.10384 v 42.519684 h 85.03937 v -42.519684 h -85.03937 Z "/>
                <path class="typst-shape" fill="none" transform="matrix(1 0 0 1 340.15748031496065 285.5237125984252)" d="M 0 0m 0 -170.90039 h 42.519684 v 14.316238 h -42.519684 v -14.316238 Z "/>
                <g class="typst-group">
                    <g>
                        <g class="typst-group" transform="matrix(1 0 0 1 340.15748031496065 114.62332666141734)">
                            <g>
                                <g class="typst-text" transform="matrix(1 0 0 -1 0 7.095000000000001)">
                                    <use xlink:href="#gAB0B934FD23F5525DDF15E05532F1B7A" x="0" y="0" fill="#000000" fill-rule="nonzero"/>
                                    <use xlink:href="#gDA35DFB2A8A9A6C23B7BD4BEED825C8" x="5.841" y="0" fill="#000000" fill-rule="nonzero"/>
                                    <use xlink:href="#gECBFE7802F8CB7569219B9A17A45B0B9" x="11.11" y="0" fill="#000000" fill-rule="nonzero"/>
                                    <use xlink:href="#gECBFE7802F8CB7569219B9A17A45B0B9" x="15.796" y="0" fill="#000000" fill-rule="nonzero"/>
                                    <use xlink:href="#gDA35DFB2A8A9A6C23B7BD4BEED825C8" x="20.394" y="0" fill="#000000" fill-rule="nonzero"/>
                                    <use xlink:href="#gF0BEF8912AF16015CED49040D5B45ACF" x="25.586" y="0" fill="#000000" fill-rule="nonzero"/>
                                    <use xlink:href="#g6CAD7208C3DDC77AFD4D65215EC117D9" x="33.516999999999996" y="0" fill="#000000" fill-rule="nonzero"/>
                                    <use xlink:href="#gECBFE7802F8CB7569219B9A17A45B0B9" x="38.016" y="0" fill="#000000" fill-rule="nonzero"/>
                                </g>
                            </g>
                        </g>
                    </g>
                </g>
                <path class="typst-shape" fill="none" transform="matrix(1 0 0 1 342.99212598425197 301.6130866141732)" d="M 0 0m 0 -169.06339 h 85.03937 v 12.479233 h -85.03937 v -12.479233 Z "/>
                <g class="typst-group">
                    <g>
                        <g class="typst-group" transform="matrix(1 0 0 1 342.99212598425197 132.5497007086614)">
                            <g>
                                <g class="typst-text" transform="matrix(1 0 0 -1 0 7.095000000000001)">
                                    <use xlink:href="#g8AEAE95EEFFFD294FD8750EA185873E4" x="0" y="0" fill="#000000" fill-rule="nonzero"/>
                                    <use xlink:href="#g108D0C5DDD9074B28C78056ECEDBF758" x="4.279" y="0" fill="#000000" fill-rule="nonzero"/>
                                    <use xlink:href="#gCC202CA88F72F45EA8105B24877E8E3C" x="10.01" y="0" fill="#000000" fill-rule="nonzero"/>
                                    <use xlink:href="#g8BF920FA9392613154C7CBB67768990" x="13.892999999999999" y="0" fill="#000000" fill-rule="nonzero"/>
                                    <use xlink:href="#gDC833568159F82F22753BA6B2079418C" x="17.27" y="0" fill="#000000" fill-rule="nonzero"/>
                                    <use xlink:href="#g7E5073E4AAFF3FB7C8956106D841E6FA" x="22.187" y="0" fill="#000000" fill-rule="nonzero"/>
                                    <use xlink:href="#gF75547BE99603B1DD0971ADBDA2B3B99" x="30.800000000000004" y="0" fill="#000000" fill-rule="nonzero"/>
                                    <use xlink:href="#g73D8E8D5476C84205E1AA6C888B476B1" x="35.211000000000006" y="0" fill="#000000" fill-rule="nonzero"/>
                                    <use xlink:href="#gEC852F802DBE8EBEA8B4462E3EB86B29" x="39.138000000000005" y="0" fill="#000000" fill-rule="nonzero"/>
                                    <use xlink:href="#gC1F663E5398C66179F439BCFD6000543" x="44.48400000000001" y="0" fill="#000000" fill-rule="nonzero"/>
                                    <use xlink:href="#gC3C41308C43958A3F8E8DAB157CD222E" x="50.18200000000001" y="0" fill="#000000" fill-rule="nonzero"/>
                                    <use xlink:href="#g7E5073E4AAFF3FB7C8956106D841E6FA" x="55.528000000000006" y="0" fill="#000000" fill-rule="nonzero"/>
                                    <use xlink:href="#gF75547BE99603B1DD0971ADBDA2B3B99" x="64.141" y="0" fill="#000000" fill-rule="nonzero"/>
                                </g>
                                <g class="typst-text" transform="matrix(1 0 0 -1 0 21.340000000000003)">
                                    <use xlink:href="#g847A914B5BA525A636000295D1E6037C" x="0" y="0" fill="#000000" fill-rule="nonzero"/>
                                    <use xlink:href="#gDC833568159F82F22753BA6B2079418C" x="2.926" y="0" fill="#000000" fill-rule="nonzero"/>
                                    <use xlink:href="#gC3C41308C43958A3F8E8DAB157CD222E" x="7.843000000000001" y="0" fill="#000000" fill-rule="nonzero"/>
                                    <use xlink:href="#gC1F663E5398C66179F439BCFD6000543" x="13.189" y="0" fill="#000000" fill-rule="nonzero"/>
                                    <use xlink:href="#gEC852F802DBE8EBEA8B4462E3EB86B29" x="18.887" y="0" fill="#000000" fill-rule="nonzero"/>
                                    <use xlink:href="#gC1F663E5398C66179F439BCFD6000543" x="24.233" y="0" fill="#000000" fill-rule="nonzero"/>
                                    <use xlink:href="#g108D0C5DDD9074B28C78056ECEDBF758" x="29.931" y="0" fill="#000000" fill-rule="nonzero"/>
                                    <use xlink:href="#g7E5073E4AAFF3FB7C8956106D841E6FA" x="35.662" y="0" fill="#000000" fill-rule="nonzero"/>
                                    <use xlink:href="#gFF2BD9A390CCBC7D49864056A3EFB23E" x="44.275" y="0" fill="#000000" fill-rule="nonzero"/>
                                    <use xlink:href="#gF75547BE99603B1DD0971ADBDA2B3B99" x="49.643" y="0" fill="#000000" fill-rule="nonzero"/>
                                    <use xlink:href="#g73D8E8D5476C84205E1AA6C888B476B1" x="54.054" y="0" fill="#000000" fill-rule="nonzero"/>
                                </g>
                            </g>
                        </g>
                    </g>
                </g>
                <path class="typst-shape" fill="none" stroke="#000000" stroke-width="1" stroke-linecap="butt" stroke-linejoin="miter" stroke-miterlimit="4" transform="matrix(1 0 0 1 75.12479275020645 193.32622834645667)" d="M 0 0m 38.261036 -156.58415 h -22.677166 l 0.0000038146973 -14.173233 h -15.583874 "/>
                <path class="typst-shape" fill="#000000" fill-rule="nonzero" stroke="#000000" stroke-width="1" stroke-linecap="butt" stroke-linejoin="miter" stroke-miterlimit="4" stroke-dashoffset="0" stroke-dasharray="" transform="matrix(1 0 0 1 69.45550141322833 181.27898425196847)" d="M 0 0m 0 -158.71014 l 5.6692915 -2.1259766 v 4.2519684 l -5.6692915 -2.1259918 Z "/>
                <path class="typst-shape" fill="none" stroke="#000000" stroke-width="1" stroke-linecap="butt" stroke-linejoin="miter" stroke-miterlimit="4" transform="matrix(1 0 0 1 205.51847936439023 193.32622834645667)" d="M 0 0m 49.599632 -156.58415 h -28.346457 l -0.000011444092 -14.173233 h -21.253164 "/>
                <path class="typst-shape" fill="#000000" fill-rule="nonzero" stroke="#000000" stroke-width="1" stroke-linecap="butt" stroke-linejoin="miter" stroke-miterlimit="4" stroke-dashoffset="0" stroke-dasharray="" transform="matrix(1 0 0 1 199.84918802740157 181.27898425196847)" d="M 0 0m 0 -158.71014 l 5.6692915 -2.1259766 v 4.2519684 l -5.6692915 -2.1259918 Z "/>
                <path class="typst-shape" fill="none" stroke="#000000" stroke-width="1" stroke-linecap="butt" stroke-linejoin="miter" stroke-miterlimit="4" transform="matrix(1 0 0 1 340.1574792650974 179.15299999999996)" d="M 0 0m 0 -156.58415 h 49.599632 "/>
                <path class="typst-shape" fill="#000000" fill-rule="nonzero" stroke="#000000" stroke-width="1" stroke-linecap="butt" stroke-linejoin="miter" stroke-miterlimit="4" stroke-dashoffset="0" stroke-dasharray="" transform="matrix(1 0 0 1 389.75711118519683 181.27898425196847)" d="M 0 0m 5.6692915 -158.71014 l -5.6692915 2.1259918 v -4.2519684 l 5.6692915 2.1259766 Z "/>
                <path class="typst-shape" fill="none" stroke="#000000" stroke-width="1" stroke-linecap="butt" stroke-linejoin="miter" stroke-miterlimit="4" transform="matrix(1 0 0 1 73.48071861562593 306.7120551181102)" d="M 0 0m 96.59802 -156.58415 h -85.03937 l 0.0000038146973 -110.55119 l -11.558656 -9.632202 "/>
                <path class="typst-shape" fill="#000000" fill-rule="nonzero" stroke="#000000" stroke-width="1" stroke-linecap="butt" stroke-linejoin="miter" stroke-miterlimit="4" stroke-dashoffset="0" stroke-dasharray="" transform="matrix(1 0 0 1 69.12544837039371 188.16188686957477)" d="M 0 0m 0 -161.84677 l 5.7162924 1.9961548 l -2.722044 3.2664642 l -2.9942484 -5.262619 Z "/>
                <path class="typst-shape" fill="none" stroke="#000000" stroke-width="1" stroke-linecap="butt" stroke-linejoin="miter" stroke-miterlimit="4" transform="matrix(1 0 0 1 379.8425186351761 306.7120551181102)" d="M 0 0m 45.354332 -156.58415 h 14.173225 v -56.692917 h -59.527557 v -51.02362 l 0.000010498669 -2.8346558 l 11.558656 -9.632202 "/>
                <path class="typst-shape" fill="#000000" fill-rule="nonzero" stroke="#000000" stroke-width="1" stroke-linecap="butt" stroke-linejoin="miter" stroke-miterlimit="4" stroke-dashoffset="0" stroke-dasharray="" transform="matrix(1 0 0 1 390.04016336794484 188.16188686957477)" d="M 0 0m 5.7162924 -161.84677 l -2.9942484 5.262619 l -2.722044 -3.2664642 l 5.7162924 -1.9961548 Z "/>
                <path class="typst-shape" fill="none" stroke="#000000" stroke-width="1" stroke-linecap="butt" stroke-linejoin="miter" stroke-miterlimit="4" transform="matrix(1 0 0 1 245.20353290768682 306.7120551181102)" d="M 0 0m 94.95395 -156.58415 h -51.023624 l 0.0000038146973 -14.173233 h -43.93033 "/>
                <path class="typst-shape" fill="#000000" fill-rule="nonzero" stroke="#000000" stroke-width="1" stroke-linecap="butt" stroke-linejoin="miter" stroke-miterlimit="4" stroke-dashoffset="0" stroke-dasharray="" transform="matrix(1 0 0 1 239.53424157070867 294.66481102362206)" d="M 0 0m 0 -158.71014 l 5.6692915 -2.1259766 v 4.2519684 l -5.6692915 -2.1259918 Z "/>
            </g>
        </g>
    </g>
    <defs id="glyph">
        <symbol id="gAB0B934FD23F5525DDF15E05532F1B7A" overflow="visible">
            <path d="M 0 0m 3.069 3.696 l 0.605 2.717 c 0.0769999 0.36299992 0.16499996 0.6819997 0.16499996 0.90199995 c 0 0.23099995 -0.0769999 0.36299992 -0.32999992 0.36299992 c -0.34100008 0 -1.3530002 -0.20900011 -1.8260001 -0.28599977 c -0.065999985 -0.13200045 -0.08799994 -0.2750001 -0.054999948 -0.37400007 c 0.6819999 0 0.85800004 -0.065999985 0.6819999 -0.8250003 l -1.111 -4.895 c -0.15400004 -0.69299996 0.12099993 -1.408 1.111 -1.408 c 0.6600001 0 1.529 0.143 2.387 0.924 c 0.90199995 0.814 1.3639998 1.6609999 1.3639998 2.7940001 c 0 0.45099998 -0.14300013 1.221 -1.1219997 1.221 c -0.7590003 0 -1.463 -0.69299984 -1.848 -1.144 Z m -0.14300013 -0.638 c 0.5170002 0.58299994 0.8360002 0.8139999 1.3529999 0.8139999 c 0.3300004 0 0.3630004 -0.36299992 0.3630004 -0.5610001 c 0 -1.5949999 -0.9350002 -2.9589999 -1.7710001 -2.9589999 c -0.39600015 0 -0.47300005 0.297 -0.3080001 1.045 Z "/>
        </symbol>
        <symbol id="gECBFE7802F8CB7569219B9A17A45B0B9" overflow="visible">
            <path d="M 0 0m 2.97 2.508 c 0.5279999 0.957 0.83599997 1.3530002 1.1439998 1.3530002 c 0.13199997 0 0.19799995 -0.065999985 0.2750001 -0.16499996 c 0.09899998 -0.11000013 0.26399994 -0.286 0.4510002 -0.286 c 0.35199976 0 0.59399986 0.3959999 0.59399986 0.76999974 c 0 0.28600025 -0.19799995 0.64900017 -0.68200016 0.64900017 c -0.4949999 0 -1.122 -0.40700006 -1.606 -1.4300001 l -0.032999992 0.022000074 c 0.09899998 0.4619999 0.14300013 0.9130001 0.14300013 1.1110001 c 0 0.1539998 -0.12100005 0.26399994 -0.26399994 0.26399994 c -0.35200024 0 -1.3090001 -0.07700014 -1.8260001 -0.14300013 c -0.07700002 -0.08799982 -0.08800006 -0.31899977 -0.021999955 -0.41799974 l 0.43999994 -0.032999992 c 0.15400004 -0.011000156 0.19799995 -0.19799995 0.19799995 -0.33000016 c 0 -0.12100005 -0.010999918 -0.47300005 -0.16499996 -1.1989999 l -0.40699995 -1.881 c -0.04400003 -0.21999997 -0.143 -0.495 -0.143 -0.605 c 0 -0.176 0.110000014 -0.297 0.72599995 -0.297 c 0.671 0 0.6489999 0.473 0.75900006 0.902 Z "/>
        </symbol>
        <symbol id="gE4F8D1D19FDA27B90E9B4EC46D86C03A" overflow="visible">
            <path d="M 0 0m 5.588 4.796 c -0.19799995 0 -0.45099974 -0.05499983 -0.6489997 -0.05499983 c -0.065999985 0 -0.12100029 0.01099968 -0.17600012 0.021999836 c -0.29699993 0.032999992 -0.2750001 0.065999985 -0.71500015 0.065999985 c -0.9239998 0 -1.8039999 -0.5830002 -2.409 -1.3529999 c -0.4949999 -0.6270001 -0.81399995 -1.3640001 -0.81399995 -2.178 c 0 -0.759 0.374 -1.408 1.177 -1.408 c 0.4729998 0 1.155 0.528 1.8149998 1.507 l 0.04400015 -0.021999955 l -0.055000067 -0.19799995 c -0.055000067 -0.23100007 -0.08800006 -0.47300005 -0.08800006 -0.66 c 0 -0.09900004 0.011000156 -0.19800001 0.032999992 -0.26400003 c 0.08800006 -0.22 0.22000003 -0.36299998 0.5500002 -0.36299998 c 0.77 0 1.4519997 0.36299998 1.9579997 1.012 c -0.032999992 0.09900004 -0.16499996 0.30800003 -0.31899977 0.30800003 c -0.28600025 -0.33000004 -0.6600003 -0.517 -0.77 -0.517 c -0.0880003 0 -0.12100029 0.088 -0.12100029 0.19799995 c 0 0.14300007 0.04400015 0.31900007 0.07700014 0.473 l 0.4619999 2.1560001 c 0.09899998 0.44000006 0.23099995 0.8579998 0.23099995 1.0450001 c 0 0.1539998 -0.08799982 0.23099995 -0.23099995 0.23099995 Z m -1.573 -2.31 c -0.5389998 -0.99 -0.97899985 -1.5510001 -1.3309999 -1.5510001 c -0.34100008 0 -0.48399997 0.25299996 -0.48399997 0.583 c 0 0.6379999 0.22000003 1.3749999 0.5609999 1.9469999 c 0.319 0.5280001 0.75900006 0.9020002 1.2320001 0.9020002 c 0.23099995 0 0.35199976 -0.065999985 0.37400007 -0.20900011 c 0 0 -0.07700014 -0.96799994 -0.35200024 -1.6719999 Z "/>
        </symbol>
        <symbol id="gAA27F950F7E729E438D05B87BE57B339" overflow="visible">
            <path d="M 0 0m 1.54 2.673 l -0.41799998 -1.881 c -0.054999948 -0.21999997 -0.143 -0.495 -0.143 -0.605 c 0 -0.176 0.110000014 -0.297 0.7260001 -0.297 c 0.6709999 0 0.64900005 0.473 0.75899994 0.902 l 0.41799998 1.7159998 c 0.6930001 0.9020002 1.2540002 1.5510001 1.6500001 1.5510001 c 0.23099995 0 0.38499975 -0.05499983 0.38499975 -0.39600015 c 0 -0.1539998 -0.01099968 -0.26399994 -0.09899998 -0.6379998 l -0.40700006 -1.7600001 c -0.08799982 -0.352 -0.14299965 -0.814 -0.076999664 -1.012 c 0.08799982 -0.22 0.20899963 -0.36299998 0.53900003 -0.36299998 c 0.77 0 1.5289998 0.36299998 2.0349998 1.012 c -0.032999992 0.09900004 -0.16499996 0.30800003 -0.31900024 0.30800003 c -0.28599977 -0.33000004 -0.65999985 -0.517 -0.77 -0.517 c -0.1869998 0 -0.10999966 0.38499993 -0.043999672 0.67099994 l 0.41799974 1.749 c 0.0880003 0.385 0.14300013 0.638 0.14300013 0.83599997 c 0 0.6600003 -0.5500002 0.8800001 -0.9790001 0.8800001 c -0.704 0 -1.2869997 -0.2420001 -2.2989998 -1.4300001 l -0.022000074 0.022000074 c 0.09899998 0.4619999 0.14299989 0.9239998 0.14299989 1.1110001 c 0 0.1539998 -0.12099981 0.26399994 -0.26399994 0.26399994 c -0.352 0 -1.309 -0.07700014 -1.826 -0.14300013 c -0.07700002 -0.08799982 -0.08799994 -0.31899977 -0.021999955 -0.41799974 l 0.43999994 -0.032999992 c 0.15400004 -0.011000156 0.19800007 -0.19799995 0.19800007 -0.33000016 c 0 -0.12100005 0 -0.47300005 -0.16500008 -1.1989999 Z "/>
        </symbol>
        <symbol id="g9BBCFE8B899DC9619A4AD6910EEB56EE" overflow="visible">
            <path d="M 0 0m 4.631 0.957 c 0 0.09899998 -0.13199997 0.34099996 -0.23099995 0.34099996 c -0.49500012 -0.407 -0.8470001 -0.57199997 -1.2210002 -0.57199997 c -0.671 0 -1.122 0.682 -0.86899996 1.8699999 c 0.26399994 1.221 0.75900006 1.826 1.2980001 1.826 c 0.37399983 0 0.43999982 -0.4289999 0.39600015 -0.7809999 c -0.03300023 -0.29700017 0.1869998 -0.51699996 0.5169997 -0.51699996 c 0.32999992 0 0.6160002 0.27499986 0.69299984 0.61599994 c 0.12100029 0.5940001 -0.3079996 1.1439998 -1.4189997 1.1439998 c -1.21 0 -2.5960002 -1.0449998 -2.937 -2.6729999 c -0.15399998 -0.7149999 -0.055000007 -1.3529999 0.25299996 -1.749 c 0.319 -0.407 0.748 -0.572 1.4740001 -0.572 c 0.671 0 1.5289998 0.462 2.046 1.067 Z "/>
        </symbol>
        <symbol id="gB7DEA5C1DB205C8269CB5B7146D78241" overflow="visible">
            <path d="M 0 0m 2.486 0.792 l 0.385 1.76 c 0.6819999 0.8799999 1.2320001 1.507 1.6169999 1.507 c 0.23099995 0 0.38500023 -0.05499983 0.38500023 -0.39600015 c 0 -0.1539998 -0.011000156 -0.26399994 -0.09899998 -0.6379998 l -0.40700006 -1.7600001 c -0.0880003 -0.352 -0.14300013 -0.814 -0.07700014 -1.012 c 0.08799982 -0.22 0.20900011 -0.36299998 0.53900003 -0.36299998 c 0.77 0 1.5289998 0.36299998 2.0349998 1.012 c -0.032999992 0.09900004 -0.16499996 0.30800003 -0.31899977 0.30800003 c -0.28600025 -0.33000004 -0.6600003 -0.517 -0.77 -0.517 c -0.18700027 0 -0.11000013 0.38499993 -0.04400015 0.67099994 l 0.41800022 1.749 c 0.08799982 0.385 0.14299965 0.638 0.14299965 0.83599997 c 0 0.6600003 -0.5499997 0.8800001 -0.9789996 0.8800001 c -0.56100035 0 -1.2650003 -0.21999979 -2.2330003 -1.3310001 l 0.638 2.9150002 c 0.07700014 0.36299992 0.16499996 0.6819997 0.16499996 0.90199995 c 0 0.23099995 -0.0769999 0.36299992 -0.32999992 0.36299992 c -0.34100008 0 -1.3529999 -0.20900011 -1.826 -0.28599977 c -0.065999985 -0.13200045 -0.08800006 -0.2750001 -0.055000067 -0.37400007 c 0.68200016 0 0.85800004 -0.065999985 0.68200016 -0.8250003 l -1.21 -5.401 c -0.055000067 -0.264 -0.143 -0.495 -0.143 -0.605 c 0 -0.176 0.109999895 -0.297 0.72599995 -0.297 c 0.671 0 0.6600001 0.473 0.75900006 0.902 Z "/>
        </symbol>
        <symbol id="gFF2BD9A390CCBC7D49864056A3EFB23E" overflow="visible">
            <path d="M 0 0m 3.135 6.413 c 0.16499996 0.7149997 0.2750001 1.1549997 0.2750001 1.1549997 c 0 0.07700014 -0.032999992 0.11000013 -0.13200021 0.11000013 c -0.29699993 -0.11000013 -1.089 -0.25299978 -1.5399998 -0.28599977 l -0.032999992 -0.26400042 c 0 -0.032999992 0.010999918 -0.05499983 0.054999948 -0.05499983 l 0.34100008 -0.021999836 c 0.14299989 0 0.23099995 -0.065999985 0.23099995 -0.3080001 c 0 -0.12100029 -0.022000074 -0.3080001 -0.07700014 -0.5500002 l -1.1329999 -5.027 c -0.15399998 -0.68200004 0.13199997 -1.276 1.122 -1.276 c 0.34100008 0 0.77 0.143 1.155 0.407 c 1.0010002 0.693 2.0130002 2.101 2.0130002 3.223 c 0 0.74800014 -0.15400028 1.309 -1.1550002 1.309 c -0.75900006 0 -1.3199999 -0.69299984 -1.7049999 -1.144 l -0.022000074 0.011000156 Z m 1.3749998 -3.1020002 c 0 -1.5949999 -1.3749998 -3.0359998 -2.2109997 -3.0359998 c -0.39600003 0 -0.462 0.429 -0.286 1.177 l 0.37400007 1.584 c 0.51699996 0.605 1.0119998 1.2759998 1.54 1.2759998 c 0.32999992 0 0.5829997 -0.25299978 0.5829997 -1.0009999 Z "/>
        </symbol>
        <symbol id="g73D8E8D5476C84205E1AA6C888B476B1" overflow="visible">
            <path d="M 0 0m 2.431 3.135 l 0.08800006 0.385 c 0.09899998 0.4289999 0.19799995 0.8140001 0.19799995 1.0009999 c 0 0.16499996 -0.09899998 0.2750001 -0.2420001 0.2750001 c -0.352 0 -0.803 -0.07700014 -1.3199999 -0.14300013 c -0.07700002 -0.08799982 -0.054999948 -0.20900011 0.011000037 -0.3080001 l 0.43999994 -0.032999992 c 0.13200009 -0.01099968 0.19800007 -0.10999966 0.19800007 -0.21999979 c 0 -0.09899998 0 -0.25300002 -0.07700002 -0.5610001 l -0.605 -2.7389998 c -0.054999948 -0.231 -0.143 -0.429 -0.143 -0.605 c 0 -0.176 0.09899998 -0.297 0.41799998 -0.297 c 0.385 0 0.39600003 0.473 0.50600004 0.902 l 0.3189999 1.287 c 0.5280001 0.957 1.144 1.98 1.3970001 1.98 c 0.11000013 0 0.16499996 -0.05499983 0.23099995 -0.13199997 c 0.07700014 -0.08800006 0.22000027 -0.23099995 0.37400007 -0.23099995 c 0.29699993 0 0.4949999 0.31899977 0.4949999 0.6159997 c 0 0.23099995 -0.16499996 0.5170002 -0.572 0.5170002 c -0.54999995 0 -1.188 -0.68200016 -1.6719999 -1.7049999 Z "/>
        </symbol>
        <symbol id="gC3C41308C43958A3F8E8DAB157CD222E" overflow="visible">
            <path d="M 0 0m 4.5099998 4.763 c -0.29699993 0.032999992 -0.43999958 0.065999985 -0.8799999 0.065999985 c -1.1769998 0 -2.7719998 -1.727 -2.7719998 -3.454 c 0 -0.616 0.14300007 -1.485 1.0669999 -1.485 c 0.58299994 0 1.1990001 0.605 1.859 1.584 l 0.022000074 -0.021999955 l -0.14300013 -0.462 c -0.0769999 -0.25300002 -0.109999895 -0.473 -0.109999895 -0.605 c 0 -0.20899999 0.0769999 -0.495 0.4510002 -0.495 c 0.6819997 0 1.1219997 0.44 1.408 1.067 c -0.055000305 0.09899998 -0.11000013 0.176 -0.25300026 0.176 c -0.29699993 -0.407 -0.50600004 -0.583 -0.6160002 -0.583 c -0.032999992 0 -0.13199997 0.022000015 -0.13199997 0.15399998 c 0 0.09899998 0.065999985 0.40699995 0.11000013 0.61599994 l 0.7589998 3.4210002 c -0.076999664 0 -0.14299965 0 -0.21999979 0 c -0.19799995 -0.011000156 -0.38499975 -0.022000313 -0.5500002 0.021999836 Z m -0.5499997 -2.354 c -0.53900003 -0.9899999 -1.3860002 -1.9139999 -1.7380002 -1.9139999 c -0.37399983 0 -0.48399985 0.44 -0.48399985 1.056 c 0 1.166 0.913 2.9369998 1.9249998 2.9369998 c 0.23100019 0 0.4730003 -0.07700014 0.6819999 -0.20900011 c 0 0 -0.10999966 -1.1659999 -0.38499975 -1.8699999 Z "/>
        </symbol>
        <symbol id="gC1F663E5398C66179F439BCFD6000543" overflow="visible">
            <path d="M 0 0m 4.763 1.364 l 0.41799974 1.749 c 0.0880003 0.385 0.14300013 0.638 0.14300013 0.83599997 c 0 0.6600003 -0.29699993 0.8800001 -0.72599983 0.8800001 c -0.572 0 -1.0450001 -0.23099995 -2.0570002 -1.4189999 l -0.010999918 0.010999918 l 0.032999992 0.09899998 c 0.14300013 0.40700006 0.2420001 0.8800001 0.2420001 1.0450001 c 0 0.1539998 -0.08800006 0.23099995 -0.23100019 0.23099995 c -0.352 0 -0.86899984 -0.065999985 -1.3859999 -0.14300013 c -0.07700002 -0.08799982 -0.054999948 -0.20900011 0.011000037 -0.3080001 l 0.43999994 -0.032999992 c 0.13200009 -0.01099968 0.19800007 -0.10999966 0.19800007 -0.21999979 c 0 -0.08799982 -0.032999992 -0.25300002 -0.09899998 -0.5610001 l -0.61600006 -2.7389998 c -0.054999948 -0.21999997 -0.143 -0.495 -0.143 -0.605 c 0 -0.176 0.12100005 -0.297 0.47300005 -0.297 c 0.41799998 0 0.40699995 0.48400003 0.5059999 0.902 l 0.41799998 1.826 c 0.6930001 0.90199995 1.2980001 1.5510001 1.6940002 1.5510001 c 0.23099995 0 0.38499975 -0.055000305 0.38499975 -0.39600015 c 0 -0.13199997 -0.065999985 -0.44000006 -0.14300013 -0.7479999 l -0.41799974 -1.7600001 c -0.08800006 -0.352 -0.18700004 -0.803 -0.18700004 -1.012 c 0 -0.20899999 0.12100005 -0.36299998 0.45099998 -0.36299998 c 0.5279999 0 1.0559998 0.374 1.5619998 1.023 c -0.032999992 0.09899998 -0.09899998 0.18700004 -0.25299978 0.18700004 c -0.28600025 -0.33000004 -0.605 -0.55 -0.71500015 -0.55 c -0.076999664 0 -0.10999966 0.055000007 -0.10999966 0.18699998 c 0 0.09899998 0.05499983 0.34099996 0.12099981 0.627 Z "/>
        </symbol>
        <symbol id="g8AEAE95EEFFFD294FD8750EA185873E4" overflow="visible">
            <path d="M 0 0m 2.299 -0.11 c 0.79200006 0 1.507 0.572 2.035 1.309 c -0.032999992 0.110000014 -0.14300013 0.18700004 -0.2420001 0.18700004 c -0.42900014 -0.48400003 -0.86899996 -0.84700006 -1.4520001 -0.84700006 c -0.1869998 0 -0.3959999 0.04400003 -0.54999995 0.25300002 c -0.16499996 0.20900005 -0.27499998 0.42899996 -0.27499998 1.089 c 0 1.6389999 0.7700001 2.6069999 1.617 2.6069999 c 0.15400004 0 0.46200013 -0.05499983 0.46200013 -0.41799974 c 0 -0.065999985 -0.022000074 -0.15400028 -0.055000067 -0.20900011 c -0.032999992 -0.04400015 -0.055000067 -0.16499996 -0.055000067 -0.23100019 c 0 -0.17599988 0.11000013 -0.352 0.29699993 -0.352 c 0.29699993 0 0.572 0.22000003 0.572 0.49500012 c 0 0.42900014 -0.032999992 1.056 -1.2319999 1.056 c -0.44000006 0 -1.144 -0.28600025 -1.6060001 -0.77 c -0.5389999 -0.58299994 -0.90199995 -1.4300001 -0.90199995 -2.42 c 0 -0.36299992 0.07700002 -0.8579999 0.33000004 -1.221 c 0.23099995 -0.31899998 0.605 -0.528 1.056 -0.528 Z "/>
        </symbol>
        <symbol id="g5605CDCE397FD5B6AD63660D12DCD27A" overflow="visible">
            <path d="M 0 0m 1.936 0.792 l 0.4180001 1.826 c 0.69299984 0.90199995 1.408 1.5510001 1.8039999 1.5510001 c 0.23099995 0 0.38499975 -0.065999985 0.38499975 -0.40700006 c 0 -0.15400004 -0.021999836 -0.36300015 -0.10999966 -0.737 l -0.41800022 -1.7600001 c -0.08799982 -0.352 -0.1869998 -0.803 -0.1869998 -1.012 c 0 -0.20899999 0.12099981 -0.36299998 0.45099974 -0.36299998 c 0.52800035 0 1.0230002 0.374 1.5290003 1.023 c -0.032999992 0.09899998 -0.09899998 0.18700004 -0.25300026 0.18700004 c -0.28599977 -0.33000004 -0.605 -0.55 -0.7149997 -0.55 c -0.07700014 0 -0.11000013 0.055000007 -0.11000013 0.18699998 c 0 0.09899998 0.05499983 0.34099996 0.12099981 0.627 l 0.41800022 1.749 c 0.08799982 0.385 0.14300013 0.638 0.14300013 0.83599997 c 0 0.6600003 -0.2970004 0.8800001 -0.7260003 0.8800001 c -0.572 0 -1.1439998 -0.23099995 -2.156 -1.3970001 l 0.671 2.9810002 c 0.16499996 0.7149997 0.2750001 1.1549997 0.2750001 1.1549997 c 0 0.07700014 -0.032999992 0.11000013 -0.13200021 0.11000013 c -0.29699993 -0.11000013 -1.089 -0.25299978 -1.5399998 -0.28599977 l -0.032999992 -0.26400042 c 0 -0.032999992 0.010999918 -0.05499983 0.054999948 -0.05499983 l 0.34100008 -0.021999836 c 0.14299989 0 0.23099995 -0.065999985 0.23099995 -0.3080001 c 0 -0.12100029 -0.022000074 -0.3080001 -0.0769999 -0.5500002 l -1.1990001 -5.401 c -0.054999948 -0.21999997 -0.143 -0.495 -0.143 -0.605 c 0 -0.176 0.09899998 -0.297 0.45099998 -0.297 c 0.4180001 0 0.40700006 0.48400003 0.50600004 0.902 Z "/>
        </symbol>
        <symbol id="gEC852F802DBE8EBEA8B4462E3EB86B29" overflow="visible">
            <path d="M 0 0m 5.093 -1.21 h -5.258 l -0.07700001 -0.48399997 h 5.247 Z "/>
        </symbol>
        <symbol id="g7E5073E4AAFF3FB7C8956106D841E6FA" overflow="visible">
            <path d="M 0 0m 2.002 3.531 l -0.6270001 -2.7389998 c -0.055000067 -0.21999997 -0.143 -0.495 -0.143 -0.605 c 0 -0.176 0.09899998 -0.297 0.45099998 -0.297 c 0.4180001 0 0.39600003 0.48400003 0.5059999 0.902 l 0.44000006 1.7709999 c 0.85800004 1.243 1.4740002 1.6060002 1.826 1.6060002 c 0.22000027 0 0.28600025 -0.07700014 0.28600025 -0.40700006 c 0 -0.13200021 -0.011000156 -0.39600015 -0.0880003 -0.737 l -0.5279999 -2.233 c -0.05499983 -0.21999997 -0.14300013 -0.495 -0.14300013 -0.605 c 0 -0.176 0.09899998 -0.297 0.4510002 -0.297 c 0.41799974 0 0.40700006 0.48400003 0.50600004 0.902 l 0.41799974 1.727 c 0.93499994 1.309 1.3640003 1.6500001 1.7160001 1.6500001 c 0.20900011 0 0.31900024 -0.07700014 0.31900024 -0.40700006 c 0 -0.12100005 -0.011000156 -0.44000006 -0.099000454 -0.78100014 l -0.4289999 -1.727 c -0.10999966 -0.45099998 -0.19799995 -0.90199995 -0.19799995 -1.0009999 c 0 -0.22 0.19799995 -0.36299998 0.35200024 -0.36299998 c 0.6489997 0 1.2540002 0.319 1.6279998 1.221 c -0.022000313 0.0990001 -0.09899998 0.15400004 -0.24199963 0.15400004 c -0.26399994 -0.41799998 -0.5720005 -0.715 -0.77000046 -0.715 c -0.05499983 0 -0.076999664 0.065999985 -0.076999664 0.12099999 c 0 0.04399997 0.021999836 0.319 0.05499983 0.43999994 l 0.5169997 1.9580001 c 0.065999985 0.25300002 0.11000061 0.59399986 0.11000061 0.803 c 0 0.6930001 -0.3300004 0.957 -0.6710005 0.957 c -0.78099966 0 -1.3859997 -0.671 -2.0239997 -1.474 c 0.032999992 0.17599988 0.043999672 0.37400007 0.043999672 0.51699996 c 0 0.7700002 -0.32999992 0.957 -0.638 0.957 c -0.7919998 0 -1.5069997 -0.5830002 -2.156 -1.4189999 l -0.021999836 0.010999918 l 0.021999836 0.09899998 c 0.11000013 0.4289999 0.25300002 0.8579998 0.25300002 1.0450001 c 0 0.1539998 -0.08800006 0.23099995 -0.23099995 0.23099995 c -0.352 0 -0.847 -0.07700014 -1.364 -0.14300013 c -0.07700002 -0.08799982 -0.055000067 -0.20900011 0.010999918 -0.3080001 l 0.44000006 -0.032999992 c 0.13200009 -0.01099968 0.19800007 -0.10999966 0.19800007 -0.21999979 c 0 -0.09899998 -0.032999992 -0.25300002 -0.09899998 -0.5610001 Z "/>
        </symbol>
        <symbol id="gF75547BE99603B1DD0971ADBDA2B3B99" overflow="visible">
            <path d="M 0 0m 1.837 2.189 c 2.8270001 0.5500002 2.8270001 1.3860002 2.8270001 1.8040001 c 0 0.011000156 0 0.011000156 0 0.021999836 c 0 0.2750001 -0.25300026 0.8140001 -1.0450001 0.8140001 c -1.9139999 0 -2.7059999 -1.8700001 -2.7059999 -3.267 c 0 -0.93500006 0.44000006 -1.672 1.353 -1.672 c 0.737 0 1.408 0.385 2.057 1.221 c -0.05499983 0.12100005 -0.12099981 0.176 -0.25299978 0.176 c -0.6270001 -0.63799995 -0.8800001 -0.7369999 -1.4080002 -0.7369999 c -0.4949999 0 -0.83599997 0.264 -0.83599997 1.2649999 c 0 0.055000067 0 0.28600013 0.011000037 0.37399995 Z m 2.0679998 1.8810003 c 0 -0.99000025 -1.155 -1.3530002 -1.9909999 -1.4630003 c 0.385 1.5620003 0.99 1.881 1.4519999 1.881 c 0.39600015 0 0.53900003 -0.09899998 0.53900003 -0.41799974 Z "/>
        </symbol>
        <symbol id="g73A8D12E11493F3872B02EC7EFA2870C" overflow="visible">
            <path d="M 0 0m 2.695 3.52 c 0.09899998 0.4289999 0.23099995 0.8579998 0.23099995 1.0450001 c 0 0.1539998 -0.08799982 0.23099995 -0.23099995 0.23099995 c -0.352 0 -0.8469999 -0.07700014 -1.364 -0.14300013 c -0.07700002 -0.08799982 -0.054999948 -0.20900011 0.011000037 -0.3080001 l 0.43999994 -0.032999992 c 0.13200009 -0.01099968 0.19800007 -0.10999966 0.19800007 -0.21999979 c 0 -0.09899998 -0.022000074 -0.25300002 -0.09899998 -0.5610001 l -0.5170001 -2.2659998 c -0.07700002 -0.352 -0.18699992 -0.803 -0.18699992 -1.012 c 0 -0.20899999 0.12099993 -0.36299998 0.45099998 -0.36299998 c 0.5279999 0 1.023 0.374 1.529 1.023 c -0.032999992 0.09899998 -0.09899998 0.18700004 -0.25300002 0.18700004 c -0.286 -0.33000004 -0.605 -0.55 -0.71500015 -0.55 c -0.0769999 0 -0.109999895 0.055000007 -0.109999895 0.18699998 c 0 0.09899998 0.055000067 0.34099996 0.12100005 0.627 Z m -0.48399997 2.75 c 0 -0.28599977 0.2420001 -0.5279999 0.5280001 -0.5279999 c 0.286 0 0.5279999 0.2420001 0.5279999 0.5279999 c 0 0.28599977 -0.24199986 0.5279999 -0.5279999 0.5279999 c -0.286 0 -0.5280001 -0.2420001 -0.5280001 -0.5279999 Z "/>
        </symbol>
        <symbol id="g8BF920FA9392613154C7CBB67768990" overflow="visible">
            <path d="M 0 0m 2.046 4.719 l -0.58300006 -0.032999992 c -0.20899999 -0.01099968 -0.2859999 -0.09899998 -0.30799997 -0.1869998 c -0.010999918 -0.032999992 -0.04400003 -0.16499996 -0.04400003 -0.18700027 c 0 -0.021999836 0.03300011 -0.021999836 0.066000104 -0.021999836 h 0.77 l -0.671 -2.992 c -0.07700002 -0.352 -0.15400004 -0.69299996 -0.15400004 -0.90199995 c 0 -0.396 0.19799995 -0.506 0.53900003 -0.506 c 0.4949999 0 1.221 0.45099998 1.595 1.133 c -0.032999992 0.143 -0.11000013 0.20899999 -0.2420001 0.20899999 c -0.50600004 -0.572 -0.704 -0.682 -0.8799999 -0.682 c -0.032999992 0 -0.14300013 0.022000015 -0.14300013 0.15399998 c 0 0.09899998 0.032999992 0.319 0.12100005 0.69299996 l 0.6489999 2.8930001 h 1.0780001 c 0.13199997 0.05499983 0.23100019 0.34100008 0.109999895 0.4289999 h -1.089 l 0.11000013 0.4949999 c 0.04399991 0.20900011 0.14299989 0.52800035 0.14299989 0.6600003 c 0 0.1869998 -0.08799982 0.29699993 -0.43999982 0.29699993 c -0.39600015 0 -0.37400007 -0.4949999 -0.4840002 -0.90199995 Z "/>
        </symbol>
        <symbol id="g5A74B5F5671A7B3F14E2428BE69F72D7" overflow="visible">
            <path d="M 0 0m 3.883 0 c 0.20900011 0.352 1.5510001 2.409 1.8590002 3.135 c 0.16499996 0.385 0.29699993 0.7809999 0.29699993 1.1769998 c 0 0.3080001 -0.14300013 0.5170002 -0.572 0.5170002 c -0.31900024 0 -0.50600004 -0.14300013 -0.50600004 -0.40700006 c 0 -0.065999985 0.021999836 -0.17600012 0.05499983 -0.21999979 c 0.16499996 -0.25300026 0.23099995 -0.4840002 0.23099995 -0.6600001 c 0 -0.48399997 -0.45099974 -1.309 -0.8249998 -1.9030001 c 0 0 -0.572 -0.92399997 -0.8469999 -1.331 l -0.07700014 0.032999992 c -0.065999985 1.276 -0.14299989 2.31 -0.4729998 3.6739998 c -0.15400004 0.5830002 -0.29700017 0.8140001 -0.572 0.8140001 c -0.25300002 0 -1.067 -0.4510002 -1.452 -0.737 c 0.010999918 -0.12100005 0.054999948 -0.25300002 0.143 -0.34100008 c 0.13199997 0.065999985 0.4949999 0.2420001 0.72599995 0.2420001 c 0.143 0 0.2529999 -0.032999992 0.30799997 -0.13199997 c 0.04399991 -0.08800006 0.11000013 -0.26400018 0.16499996 -0.46200013 c 0.34100008 -1.122 0.671 -3.7949998 0.53900003 -4.081 c -0.45099998 -0.73700005 -0.913 -1.221 -1.067 -1.221 c -0.109999895 0 -0.3189999 0.143 -0.385 0.19799995 c -0.0769999 0.066000104 -0.29699993 0.15400004 -0.385 0.15400004 c -0.23099995 0 -0.506 -0.22000003 -0.506 -0.561 c 0 -0.36299992 0.48400003 -0.4619999 0.67100006 -0.4619999 c 0.58299994 0 1.463 0.7149999 2.167 1.8039999 Z "/>
        </symbol>
        <symbol id="gCC202CA88F72F45EA8105B24877E8E3C" overflow="visible">
            <path d="M 0 0m 1.914 -0.11 h 0.16499996 c 1.0780001 0 1.727 0.594 1.727 1.408 c 0 0.51699996 -0.29699993 1.0230001 -1.309 1.6940001 c -0.32999992 0.21999979 -0.44000006 0.41799998 -0.44000006 0.69299984 c 0 0.38500023 0.22000003 0.78100014 0.6930001 0.78100014 c 0.2750001 0 0.4619999 -0.0880003 0.4949999 -0.31900024 c 0.032999992 -0.26399994 0.22000003 -0.5719998 0.50600004 -0.5719998 c 0.3080001 0 0.3959999 0.19799995 0.3959999 0.37399983 c 0 0.3959999 -0.5719998 0.8800001 -1.254 0.8800001 c -0.9569999 0 -1.5399998 -0.704 -1.5399998 -1.375 c 0 -0.44000006 0.24199998 -0.9130001 0.9569999 -1.3970001 c 0.58299994 -0.3959999 0.671 -0.75899994 0.671 -0.9899999 c 0 -0.605 -0.44000006 -0.814 -0.93499994 -0.814 c -0.286 0 -0.44000006 0.055000007 -0.47300005 0.29700002 c -0.032999992 0.25299996 -0.18699992 0.583 -0.51699996 0.583 c -0.319 0 -0.407 -0.264 -0.407 -0.385 c 0 -0.40700004 0.506 -0.814 1.2650001 -0.85800004 Z "/>
        </symbol>
        <symbol id="gDA35DFB2A8A9A6C23B7BD4BEED825C8" overflow="visible">
            <path d="M 0 0m 0.737 1.782 c 0 -0.704 0.286 -1.892 1.6830001 -1.892 c 0.45099998 0 1.0009999 0.099 1.3309999 0.264 c 0.95700026 0.48400003 1.7490001 1.4519999 1.7490001 2.937 c 0 0.7919998 -0.40700006 1.7379999 -1.76 1.7379999 c -0.50600004 0 -0.96799994 -0.1539998 -1.3529999 -0.37400007 c -1.034 -0.572 -1.6500001 -1.7159998 -1.6500001 -2.6729999 Z m 1.4189999 0.08800006 c 0 1.1 0.1980002 2.4970002 1.309 2.4970002 c 0.58299994 0 0.61599994 -0.8690002 0.61599994 -1.5070002 c 0 -0.91299987 -0.13199997 -2.508 -1.2759998 -2.508 c -0.319 0 -0.64900017 0.286 -0.64900017 1.518 Z "/>
        </symbol>
        <symbol id="g611281ABBD3C83A07C9CA389686D05D5" overflow="visible">
            <path d="M 0 0m 4.741 1.177 c -0.04400015 -0.23100007 -0.0880003 -0.47300005 -0.0880003 -0.66 c 0 -0.09900004 0.011000156 -0.19800001 0.032999992 -0.26400003 c 0.0880003 -0.22 0.22000027 -0.36299998 0.5500002 -0.36299998 c 0.77 0 1.4519997 0.36299998 1.9579997 1.012 c -0.032999992 0.09900004 -0.16499996 0.30800003 -0.31899977 0.30800003 c -0.28600025 -0.33000004 -0.65999985 -0.517 -0.77 -0.517 c -0.08799982 0 -0.12099981 0.088 -0.12099981 0.19799995 c 0 0.14300007 0.043999672 0.31900007 0.076999664 0.473 l 0.572 2.6069999 c 0.04400015 0.22000003 0.14300013 0.49500012 0.14300013 0.60500026 c 0 0.1869998 -0.11000013 0.29699993 -0.72599983 0.29699993 c -0.671 0 -0.6600003 -0.47300005 -0.7590003 -0.9020002 l -0.41799974 -1.7160001 c -0.6930003 -0.90199983 -1.0890002 -1.4189999 -1.4850001 -1.4189999 c -0.40700006 0 -0.45099998 0.45099998 -0.34100008 0.90200007 l 0.40700006 1.7599999 c 0.0769999 0.352 0.14299989 0.8139999 0.0769999 1.0119998 c -0.08799982 0.23100042 -0.20899987 0.3630004 -0.5389998 0.3630004 c -0.7700002 0 -1.5290002 -0.3630004 -2.035 -1.0120001 c 0.032999992 -0.09899998 0.16499996 -0.3080001 0.319 -0.3080001 c 0.286 0.32999992 0.65999997 0.5170002 0.77 0.5170002 c 0.18700004 0 0.109999895 -0.38500023 0.04399991 -0.67100024 l -0.41799998 -1.749 c -0.08799994 -0.37399995 -0.08799994 -0.605 -0.08799994 -0.792 c 0 -0.010999978 0 -0.010999978 0 -0.022000015 c 0 -0.65999997 0.5500001 -0.90199995 0.979 -0.90199995 c 0.572 0 1.177 0.242 2.189 1.43 l 0.022000313 -0.021999955 c -0.09899998 -0.462 -0.032999992 -0.16499996 -0.032999992 -0.16499996 Z "/>
        </symbol>
        <symbol id="g991F9E5D89BF869A4F6992C162B36D39" overflow="visible">
            <path d="M 0 0m 1.298 1.298 c -0.054999948 -0.25300002 -0.110000014 -0.54999995 -0.110000014 -0.78099996 c 0 -0.374 0.16500008 -0.62700003 0.561 -0.62700003 c 0.7700001 0 1.4959999 0.44 2.046 1.045 c -0.032999992 0.09900004 -0.1650002 0.30800003 -0.319 0.30800003 c -0.286 -0.33000004 -0.6600001 -0.517 -0.77 -0.517 c -0.08800006 0 -0.12100005 0.088 -0.12100005 0.19800001 c 0 0.143 0.04399991 0.319 0.0769999 0.47299993 l 0.6600001 2.8050003 h 1.0780001 c 0.13199997 0.05499983 0.2420001 0.4289999 0.12099981 0.5169997 h -1.089 l 0.11000013 0.4949999 c 0.04399991 0.19800043 0.22000003 0.8580003 0.22000003 0.99000025 c 0 0.1869998 -0.71500015 0.05499983 -1.056 -0.032999992 c -0.385 -0.09899998 -0.37400007 -0.4840002 -0.4840002 -0.90199995 l -0.14299989 -0.5500002 l -0.58299994 -0.032999992 c -0.20900011 -0.01099968 -0.286 -0.09899998 -0.3080001 -0.1869998 c -0.010999918 -0.032999992 -0.054999948 -0.25300026 -0.054999948 -0.2750001 c 0 -0.021999836 0.032999992 -0.021999836 0.065999985 -0.021999836 h 0.77 Z "/>
        </symbol>
        <symbol id="gDC833568159F82F22753BA6B2079418C" overflow="visible">
            <path d="M 0 0m 0.858 1.782 c 0 -0.58299994 0.14300007 -1.892 1.54 -1.892 c 0.352 0 0.6930001 0.044 1.0120001 0.20899999 c 0.957 0.484 1.7049997 1.65 1.7049997 2.948 c 0 0.79200006 -0.19799995 1.7820001 -1.5509999 1.7820001 c -1.8369999 0 -2.7059999 -1.727 -2.7059999 -3.047 Z m 0.91300005 0.08800006 c 0 0.9899999 0.42900002 2.5960002 1.5949999 2.5960002 c 0.33000016 0 0.50600004 -0.17600012 0.67100024 -0.4840002 c 0.13199997 -0.27499986 0.16499996 -0.6819999 0.16499996 -1.0119998 c 0 -0.44000006 -0.065999985 -1.386 -0.47300005 -2.002 c -0.3080001 -0.473 -0.74800014 -0.671 -1.1660001 -0.671 c -0.319 0 -0.79199994 0.41799998 -0.79199994 1.573 Z "/>
        </symbol>
        <symbol id="g108D0C5DDD9074B28C78056ECEDBF758" overflow="visible">
            <path d="M 0 0m 5.566 3.872 c 0.04400015 0.1980002 0.14300013 0.5280001 0.14300013 0.6600001 c 0 0.1869998 -0.11000013 0.29699993 -0.46200037 0.29699993 c -0.41799974 0 -0.3959999 -0.4840002 -0.50599957 -0.90199995 l -0.31900024 -1.21 c -0.8139999 -1.386 -1.3529999 -2.167 -1.9029999 -2.167 c -0.19799995 0 -0.33000016 0.109999955 -0.33000016 0.407 c 0 0.176 0.022000074 0.40699995 0.099000216 0.704 l 0.4729998 1.793 c 0.08800006 0.352 0.23100019 0.803 0.23100019 1.0120001 c 0 0.20900011 -0.06600022 0.36299992 -0.39600015 0.36299992 c -0.5279999 0 -1.155 -0.37400007 -1.661 -1.023 c 0.032999992 -0.09899998 0.09900004 -0.18700004 0.25299996 -0.18700004 c 0.286 0.32999992 0.64900005 0.5500002 0.75900006 0.5500002 c 0.0769999 0 0.109999895 -0.055000305 0.109999895 -0.18700027 c 0 -0.09899998 -0.065999985 -0.34099984 -0.14299989 -0.62699986 l -0.4840001 -1.848 c -0.0769999 -0.286 -0.110000014 -0.528 -0.110000014 -0.737 c 0 -0.627 0.352 -0.88 0.737 -0.88 c 0.85800004 0 1.408 0.68200004 2.189 1.826 l 0.032999992 -0.021999955 l -0.12099981 -0.42900002 c -0.09899998 -0.352 -0.18700004 -0.803 -0.18700004 -1.012 c 0 -0.20899999 0.0769999 -0.36299998 0.40699983 -0.36299998 c 0.52800035 0 1.0230002 0.374 1.5290003 1.023 c -0.032999992 0.09899998 -0.09899998 0.18700004 -0.25300026 0.18700004 c -0.28599977 -0.33000004 -0.605 -0.55 -0.7149997 -0.55 c -0.07700014 0 -0.11000013 0.055000007 -0.11000013 0.18699998 c 0 0.09899998 0.05499983 0.34099996 0.12099981 0.627 Z "/>
        </symbol>
        <symbol id="g847A914B5BA525A636000295D1E6037C" overflow="visible">
            <path d="M 0 0m 3.146 6.413 c 0.16499996 0.7149997 0.2750001 1.1549997 0.2750001 1.1549997 c 0 0.07700014 -0.032999992 0.11000013 -0.13199997 0.11000013 c -0.29699993 -0.11000013 -1.089 -0.25299978 -1.5400001 -0.28599977 l -0.032999992 -0.26400042 c 0 -0.032999992 0.011000037 -0.05499983 0.055000067 -0.05499983 l 0.34099996 -0.021999836 c 0.14299989 0 0.23099995 -0.065999985 0.23099995 -0.3080001 c 0 -0.12100029 -0.021999836 -0.3080001 -0.0769999 -0.5500002 l -1.089 -4.884 c -0.07700002 -0.352 -0.15400004 -0.726 -0.15400004 -0.935 c 0 -0.20900002 0.054999948 -0.48400003 0.462 -0.48400003 c 0.495 0 1.1 0.286 1.5949999 1.1110001 c -0.04399991 0.109999895 -0.09899998 0.18699992 -0.24199986 0.18699992 c -0.33000016 -0.39599997 -0.68200016 -0.63799995 -0.8140001 -0.63799995 c -0.08799994 0 -0.13199997 0.065999985 -0.13199997 0.15399998 c 0 0.088 0.032999992 0.25300002 0.13199997 0.69299996 Z "/>
        </symbol>
        <symbol id="gAA152474AB5BBA1DF99101F55130C27" overflow="visible">
            <path d="M 0 0m 2.288 6.193 l -1.1110001 -4.895 c -0.055000067 -0.25300002 -0.110000014 -0.54999995 -0.110000014 -0.78099996 c 0 -0.374 0.16499996 -0.62700003 0.561 -0.62700003 c 0.77 0 1.496 0.44 2.046 1.045 c -0.032999992 0.09900004 -0.16499996 0.30800003 -0.319 0.30800003 c -0.286 -0.33000004 -0.6600001 -0.517 -0.77 -0.517 c -0.08800006 0 -0.12100005 0.088 -0.12100005 0.19800001 c 0 0.143 0.04399991 0.319 0.0769999 0.47299993 l 1.1110001 5.0160003 c 0.07700014 0.36299992 0.16499996 0.6819997 0.16499996 0.90199995 c 0 0.23099995 -0.0769999 0.36299992 -0.32999992 0.36299992 c -0.34100008 0 -1.3529999 -0.20900011 -1.826 -0.28599977 c -0.065999985 -0.13200045 -0.08800006 -0.2750001 -0.055000067 -0.37400007 c 0.68200016 0 0.85800004 -0.065999985 0.68200016 -0.8250003 Z "/>
        </symbol>
        <symbol id="g9FFBE5D12BB4198D62F5942CD020C717" overflow="visible">
            <path d="M 0 0m 4.686 3.905 c -0.05499983 0.5389998 -0.737 0.924 -1.4189999 0.924 c -0.75900006 0 -1.925 -0.2420001 -1.925 -1.408 c 0 -0.47300005 0.528 -1.0120001 1.254 -1.4300001 c 0.46200013 -0.26399994 0.704 -0.58299994 0.704 -1.0999999 c 0 -0.297 -0.30799985 -0.539 -0.572 -0.539 c -0.34099984 0 -0.671 0.15399998 -0.83599997 0.528 c -0.16499996 0.385 -0.37399995 0.638 -0.704 0.638 c -0.176 0 -0.473 -0.20899999 -0.473 -0.561 c 0 -0.748 0.902 -1.067 1.7820001 -1.067 c 1.3859999 0 1.958 0.847 1.958 1.54 c 0 0.5170001 -0.4289999 1.0230001 -1.243 1.452 c -0.286 0.15400004 -0.83599997 0.44000006 -0.83599997 1.0009999 c 0 0.26399994 0.286 0.4840002 0.5940001 0.4840002 c 0.47300005 0 0.58299994 -0.4510002 0.7260001 -0.82500005 c 0.08799982 -0.22000003 0.34100008 -0.3080001 0.5829997 -0.2420001 c 0.15400028 0.04399991 0.4510002 0.25300002 0.40700006 0.605 Z "/>
        </symbol>
        <symbol id="g730AA816E68E8843FB15BD2C4BC525D0" overflow="visible">
            <path d="M 0 0m 1.606 2.673 l -0.41799998 -1.881 c -0.054999948 -0.21999997 -0.143 -0.495 -0.143 -0.605 c 0 -0.176 0.110000014 -0.297 0.7260001 -0.297 c 0.6709999 0 0.65999997 0.48400003 0.75899994 0.902 l 0.41799998 1.7159998 c 0.6930001 0.9020002 1.1989999 1.5510001 1.5949998 1.5510001 c 0.12100029 0 0.22000027 -0.05499983 0.22000027 -0.286 c 0 -0.20900011 -0.011000156 -0.37400007 -0.09899998 -0.7479999 l -0.4949999 -2.233 c -0.055000305 -0.21999997 -0.14300013 -0.495 -0.14300013 -0.605 c 0 -0.176 0.11000013 -0.297 0.72599983 -0.297 c 0.671 0 0.6600003 0.48400003 0.7590003 0.902 l 0.4619999 2.046 c 0.5829997 0.72599983 1.0559998 1.221 1.507 1.221 c 0.12099981 0 0.2750001 -0.05499983 0.2750001 -0.39600015 c 0 -0.1539998 -0.011000156 -0.26399994 -0.09899998 -0.6379998 l -0.40700006 -1.7600001 c -0.0880003 -0.352 -0.14300013 -0.814 -0.07700014 -1.012 c 0.08799982 -0.22 0.20900011 -0.36299998 0.53900003 -0.36299998 c 0.77 0 1.5289998 0.36299998 2.0350003 1.012 c -0.032999992 0.09900004 -0.16499996 0.30800003 -0.31900024 0.30800003 c -0.28600025 -0.33000004 -0.65999985 -0.517 -0.77000046 -0.517 c -0.18699932 0 -0.10999966 0.38499993 -0.043999672 0.67099994 l 0.41800022 1.749 c 0.087999344 0.385 0.14299965 0.638 0.14299965 0.83599997 c 0 0.6600003 -0.5500002 0.8800001 -0.9790001 0.8800001 c -0.5169997 0 -1.2209997 -0.1869998 -2.0239997 -1.0780001 c 0.011000156 0.065999985 0.011000156 0.13199997 0.011000156 0.19799995 c 0 0.6600003 -0.5500002 0.8800001 -0.9790001 0.8800001 c -0.572 0 -1.0780001 -0.23099995 -2.0900002 -1.4189999 l -0.010999918 0.010999918 c 0.09899998 0.4619999 0.14299989 0.9239998 0.14299989 1.1110001 c 0 0.1539998 -0.12099981 0.26399994 -0.26399994 0.26399994 c -0.352 0 -1.309 -0.07700014 -1.826 -0.14300013 c -0.07700002 -0.08799982 -0.08799994 -0.31899977 -0.021999955 -0.41799974 l 0.43999994 -0.032999992 c 0.15400004 -0.011000156 0.19800007 -0.19799995 0.19800007 -0.33000016 c 0 -0.12100005 0 -0.47300005 -0.16500008 -1.1989999 Z "/>
        </symbol>
        <symbol id="g6CAD7208C3DDC77AFD4D65215EC117D9" overflow="visible">
            <path d="M 0 0m 2.123 2.189 c 1.3860002 0.29700017 2.1780002 0.6160002 2.5520003 0.9790001 c 0.3409996 0.319 0.3409996 0.6930001 0.3409996 0.89100003 c 0 0.38499975 -0.45099974 0.77 -1.3419998 0.77 c -2.134 0 -2.981 -1.8700001 -2.981 -3.267 c 0 -0.93500006 0.28599995 -1.672 1.606 -1.672 c 0.737 0 1.595 0.36299998 2.2439997 1.199 c -0.05499983 0.12100005 -0.21999979 0.27499998 -0.35199976 0.27499998 c -0.6270001 -0.63799995 -0.96799994 -0.81399995 -1.496 -0.81399995 c -0.4289999 0 -0.58299994 0.52799994 -0.58299994 1.2649999 c 0 0.055000067 0 0.28600013 0.010999918 0.37399995 Z m 1.6500001 1.8810003 c 0 -0.99000025 -0.99 -1.3640001 -1.573 -1.4630003 c 0.37399983 1.5510001 0.79200006 1.7709999 1.221 1.7709999 c 0.23099995 0 0.352 -0.08799982 0.352 -0.3079996 Z "/>
        </symbol>
        <symbol id="gDEFDE252C18CFC7861F981D2D05F01C9" overflow="visible">
            <path d="M 0 0m 4.895 6.193 l -0.4510002 -1.9689999 c -0.13199997 0.32999992 -0.45099974 0.605 -0.8689997 0.605 c -0.58299994 0 -1.0120001 -0.1539998 -1.507 -0.5500002 c -0.9460001 -0.7479999 -1.4300001 -1.9359999 -1.4300001 -2.915 c 0 -0.803 0.352 -1.474 1.3199999 -1.474 c 0.6270001 0 1.144 0.44 1.8040001 1.408 l 0.021999836 -0.011000037 c -0.05499983 -0.24199998 -0.109999895 -0.54999995 -0.109999895 -0.7699999 c 0 -0.374 0.16499996 -0.62700003 0.5610001 -0.62700003 c 0.77 0 1.4959998 0.44 2.046 1.045 c -0.032999992 0.09900004 -0.16499996 0.30800003 -0.31900024 0.30800003 c -0.28599977 -0.33000004 -0.65999985 -0.517 -0.77 -0.517 c -0.08799982 0 -0.12099981 0.088 -0.12099981 0.19800001 c 0 0.143 0.043999672 0.319 0.076999664 0.47299993 l 1.1110001 5.0160003 c 0.07700014 0.36299992 0.16499996 0.6819997 0.16499996 0.90199995 c 0 0.23099995 -0.076999664 0.36299992 -0.32999992 0.36299992 c -0.34100008 0 -1.3529997 -0.20900011 -1.8259997 -0.28599977 c -0.065999985 -0.13200045 -0.0880003 -0.2750001 -0.055000305 -0.37400007 c 0.68200016 0 0.8580003 -0.065999985 0.68200016 -0.8250003 Z m -0.74800014 -3.2889998 c -0.076999664 -0.22000003 -0.1869998 -0.48399997 -0.34099984 -0.77 c -0.53900003 -0.99 -0.957 -1.5180001 -1.3859999 -1.5180001 c -0.319 0 -0.4510001 0.41800004 -0.4510001 1.0339999 c 0 1.166 0.69299996 2.6729999 1.639 2.6729999 c 0.41799998 0 0.6600001 -0.4619999 0.6600001 -0.8469999 c 0 -0.011000156 0 -0.032999992 0 -0.055000067 Z m 0.065999985 0.19799995 l 0.032999992 0.19799995 c 0 -0.065999985 -0.021999836 -0.13199997 -0.032999992 -0.19799995 Z "/>
        </symbol>
        <symbol id="g648BF8DE3DC83A37D75C6F3C02C1CAFA" overflow="visible">
            <path d="M 0 0m 3.476 4.444 c 0.04399991 0.19800043 0.14299989 0.52800035 0.14299989 0.6600003 c 0 0.1869998 -0.109999895 0.29699993 -0.4619999 0.29699993 c -0.41799998 0 -0.8800001 -0.4840002 -0.9790001 -0.90199995 l -0.13199997 -0.53900003 c -0.54999995 -0.39600015 -0.957 -0.7260001 -1.265 -1.1110001 c 0.04399997 -0.15400004 0.109999955 -0.3959999 0.30799997 -0.3959999 c 0.24199998 0.319 0.48399997 0.51699996 0.79200006 0.77 l -1.056 -4.884 c -0.065999985 -0.30799997 -0.231 -0.44000006 -0.583 -0.4949999 l -0.20899999 -0.032999992 c -0.055 -0.011000156 -0.11 -0.022000074 -0.11 -0.08800006 v -0.319 l 0.022 -0.022000074 c 0 0 1.221 0.055000067 1.617 0.055000067 c 0.4289999 0 1.177 -0.022000074 1.177 -0.022000074 l 0.021999836 0.022000074 v 0.32999992 c 0 0.055000067 -0.021999836 0.07700014 -0.065999985 0.08800006 l -0.20899987 0.032999992 c -0.16499996 0.022000074 -0.45099998 0.0769999 -0.36300015 0.45099998 l 0.42900014 1.914 c 0.16499996 -0.176 0.385 -0.36299998 0.7809999 -0.36299998 c 0.605 0 1.1990001 0.22 1.6499999 0.605 c 0.8470001 0.72599995 1.342 1.9250001 1.342 2.684 c 0 0.92400026 -0.48399973 1.6500001 -1.5839996 1.6500001 c -0.56100035 0 -0.9680002 -0.20900011 -1.2650001 -0.38500023 Z m 1.4409997 -1.4409997 c 0 -0.7260001 -0.4949999 -2.651 -1.4519999 -2.651 c -0.286 0 -0.58299994 0.15399998 -0.8139999 0.473 l 0.704 3.069 c 0.27499986 0.17600012 0.59399986 0.37400007 1.0120001 0.37400007 c 0.4619999 0 0.5499997 -0.7260001 0.5499997 -1.2650001 Z "/>
        </symbol>
        <symbol id="gD5FB893CF72C0E598F48294A1C1A3DB" overflow="visible">
            <path d="M 0 0m 3.223 3.52 c 0.09899998 0.44000006 0.23099995 0.8579998 0.23099995 1.0450001 c 0 0.1539998 -0.08800006 0.23099995 -0.23099995 0.23099995 c -0.352 0 -1.375 -0.07700014 -1.8920001 -0.14300013 c -0.07700002 -0.08799982 -0.08799994 -0.31899977 -0.021999955 -0.41799974 l 0.43999994 -0.032999992 c 0.13200009 -0.011000156 0.19800007 -0.11000013 0.19800007 -0.22000027 c 0 -0.09899998 0 -0.16499996 -0.065999985 -0.45099998 l -0.4840001 -2.2659998 c -0.07700002 -0.352 -0.143 -0.814 -0.07700002 -1.012 c 0.08800006 -0.22 0.20900011 -0.36299998 0.53900003 -0.36299998 c 0.77 0 1.529 0.36299998 2.035 1.012 c -0.032999992 0.09900004 -0.16499996 0.30800003 -0.319 0.30800003 c -0.286 -0.33000004 -0.6600001 -0.517 -0.77 -0.517 c -0.18700004 0 -0.11000013 0.38499993 -0.04400015 0.67099994 Z m -1.0340002 3.0359998 c 0 -0.36299992 0.26400018 -0.72599983 0.704 -0.72599983 c 0.49500012 0 0.78100014 0.3959999 0.78100014 0.68200016 c 0 0.32999992 -0.25300002 0.72599983 -0.71500015 0.72599983 c -0.51699996 0 -0.77 -0.35199976 -0.77 -0.68200016 Z "/>
        </symbol>
        <symbol id="gF0BEF8912AF16015CED49040D5B45ACF" overflow="visible">
            <path d="M 0 0m 4.851 2.398 l 0.32999992 -1.76 c 0.07700014 -0.39600003 0.15400028 -0.77 0.44000006 -0.77 c 0.5170002 0 1.4300003 1.188 1.6940002 1.551 c 0.23099995 0.32999992 0.6159997 0.9899999 0.92400026 1.716 c 0.16499996 0.385 0.29699993 0.7809999 0.29699993 1.1769998 c 0 0.3080001 -0.26399994 0.5170002 -0.6600003 0.5170002 c -0.36299992 0 -0.65999985 -0.08799982 -0.65999985 -0.3959999 c 0 -0.055000305 0.021999836 -0.17600012 0.05499983 -0.22000027 c 0.19799995 -0.29699993 0.25300026 -0.5609999 0.23099995 -0.7589998 c -0.08799982 -0.6600001 -0.47300005 -1.793 -1.0889997 -2.288 l -0.04400015 0.021999955 c -0.1539998 0.803 -0.47300005 2.266 -0.68200016 2.794 c -0.1869998 0 -0.41799974 -0.04399991 -0.737 -0.17599988 c -0.47300005 -1.0780001 -1.0559998 -1.98 -1.3859999 -2.299 l -0.04399991 0.022000074 l -0.09899998 1.8699999 c -0.032999992 0.6600001 -0.20900011 1.4300001 -0.704 1.4300001 c -0.46200013 0 -1.331 -0.5830002 -1.881 -1.243 c 0.055000007 -0.15400004 0.16500008 -0.26399994 0.352 -0.3080001 c 0.27499998 0.352 0.605 0.53900003 0.6930001 0.53900003 c 0.065999985 0 0.15400004 -0.065999985 0.19799995 -0.5609999 l 0.23099995 -2.618 c 0.032999992 -0.39600003 0.14300013 -0.77 0.44000006 -0.77 c 0.51699996 -0.011000007 1.507 1.485 2.0679998 2.541 Z "/>
        </symbol>
    </defs>
</svg>
