<?xml version="1.0" encoding="UTF-8" standalone="no"?>
<!-- Created with Inkscape (http://www.inkscape.org/) -->

<svg
   version="1.1"
   id="svg1"
   width="344.50668"
   height="56.333332"
   viewBox="0 0 344.50668 56.333332"
   sodipodi:docname="25-26-1-信号与系統-期末-题图6.pdf"
   xmlns:inkscape="http://www.inkscape.org/namespaces/inkscape"
   xmlns:sodipodi="http://sodipodi.sourceforge.net/DTD/sodipodi-0.dtd"
   xmlns="http://www.w3.org/2000/svg"
   xmlns:svg="http://www.w3.org/2000/svg">
  <defs
     id="defs1" />
  <sodipodi:namedview
     id="namedview1"
     pagecolor="#ffffff"
     bordercolor="#000000"
     borderopacity="0.25"
     inkscape:showpageshadow="2"
     inkscape:pageopacity="0.0"
     inkscape:pagecheckerboard="0"
     inkscape:deskcolor="#d1d1d1">
    <inkscape:page
       x="0"
       y="0"
       inkscape:label="1"
       id="page1"
       width="344.50668"
       height="56.333332"
       margin="0"
       bleed="0" />
  </sodipodi:namedview>
  <g
     id="g1"
     inkscape:groupmode="layer"
     inkscape:label="1">
    <path
       id="path1"
       d="M 1.41731,0 C 1.41731,0.78276 0.78276,1.41731 0,1.41731 -0.78276,1.41731 -1.41731,0.78276 -1.41731,0 c 0,-0.78276 0.63455,-1.41731 1.41731,-1.41731 0.78276,0 1.41731,0.63455 1.41731,1.41731 z"
       style="fill:#000000;fill-opacity:1;fill-rule:nonzero;stroke:none"
       transform="matrix(1.3333333,0,0,-1.3333333,30.434667,24.928)" />
    <path
       id="path2"
       d="m 43.93755,0 c 0,0.78276 -0.63457,1.41731 -1.41733,1.41731 -0.78276,0 -1.41733,-0.63455 -1.41733,-1.41731 0,-0.78276 0.63457,-1.41731 1.41733,-1.41731 0.78276,0 1.41733,0.63455 1.41733,1.41731 z"
       style="fill:#000000;fill-opacity:1;fill-rule:nonzero;stroke:none"
       transform="matrix(1.3333333,0,0,-1.3333333,30.434667,24.928)" />
    <path
       id="path3"
       d="m 86.45776,0 c 0,0.78276 -0.63456,1.41731 -1.41732,1.41731 -0.78276,0 -1.41733,-0.63455 -1.41733,-1.41731 0,-0.78276 0.63457,-1.41731 1.41733,-1.41731 0.78276,0 1.41732,0.63455 1.41732,1.41731 z"
       style="fill:#000000;fill-opacity:1;fill-rule:nonzero;stroke:none"
       transform="matrix(1.3333333,0,0,-1.3333333,30.434667,24.928)" />
    <path
       id="path4"
       d="m 128.97798,0 c 0,0.78276 -0.63455,1.41731 -1.41733,1.41731 -0.78275,0 -1.41731,-0.63455 -1.41731,-1.41731 0,-0.78276 0.63456,-1.41731 1.41731,-1.41731 0.78278,0 1.41733,0.63455 1.41733,1.41731 z"
       style="fill:#000000;fill-opacity:1;fill-rule:nonzero;stroke:none"
       transform="matrix(1.3333333,0,0,-1.3333333,30.434667,24.928)" />
    <path
       id="path5"
       d="m 171.49821,0 c 0,0.78276 -0.63456,1.41731 -1.41732,1.41731 -0.78278,0 -1.41733,-0.63455 -1.41733,-1.41731 0,-0.78276 0.63455,-1.41731 1.41733,-1.41731 0.78276,0 1.41732,0.63455 1.41732,1.41731 z"
       style="fill:#000000;fill-opacity:1;fill-rule:nonzero;stroke:none"
       transform="matrix(1.3333333,0,0,-1.3333333,30.434667,24.928)" />
    <path
       id="path6"
       d="m 214.01843,0 c 0,0.78276 -0.63456,1.41731 -1.41733,1.41731 -0.78276,0 -1.41732,-0.63455 -1.41732,-1.41731 0,-0.78276 0.63456,-1.41731 1.41732,-1.41731 0.78277,0 1.41733,0.63455 1.41733,1.41731 z"
       style="fill:#000000;fill-opacity:1;fill-rule:nonzero;stroke:none"
       transform="matrix(1.3333333,0,0,-1.3333333,30.434667,24.928)" />
    <g
       id="g6"
       aria-label="e(t)"
       transform="matrix(1.3333333,0,0,1.3333333,4.428,28.249333)">
      <path
         id="path7"
         d="m 1.8645469,-2.296375 c 0.2929687,0 1.03125,-0.023437 1.5234375,-0.234375 0.703125,-0.2929687 0.75,-0.890625 0.75,-1.0195312 0,-0.4453125 -0.3867188,-0.8554688 -1.0664063,-0.8554688 -1.1132812,0 -2.61328123,0.9726563 -2.61328123,2.7070313 0,1.0195312 0.58593753,1.80468745 1.57031253,1.80468745 1.4179687,0 2.2617187,-1.0546875 2.2617187,-1.17187495 0,-0.058594 -0.070312,-0.1289063 -0.1289062,-0.1289063 -0.046875,0 -0.070312,0.023437 -0.1289063,0.09375 -0.7851562,0.99609375 -1.875,0.99609375 -1.9921875,0.99609375 -0.7734375,0 -0.8671875,-0.84375 -0.8671875,-1.16015625 0,-0.1171875 0.011719,-0.4335937 0.1640625,-1.03125 z m -0.46875,-0.2226562 c 0.3867187,-1.5117188 1.4179687,-1.6640625 1.6757812,-1.6640625 0.46875,0 0.7382813,0.2929687 0.7382813,0.6328125 0,1.03125 -1.59375,1.03125 -2.0039063,1.03125 z m 0,0"
         style="fill:#000000;fill-opacity:1;fill-rule:nonzero;stroke:none" />
      <path
         id="path8"
         d="m 7.9319297,2.391125 c 0,-0.035156 0,-0.046875 -0.1640625,-0.2226562 -1.2421875,-1.2539063 -1.5703125,-3.1289063 -1.5703125,-4.6640625 0,-1.7226563 0.3867187,-3.4570313 1.6054687,-4.7109375 0.1289063,-0.1171875 0.1289063,-0.1289063 0.1289063,-0.1640625 0,-0.070312 -0.035156,-0.1054688 -0.09375,-0.1054688 -0.1054688,0 -0.9960938,0.6796875 -1.5820313,1.9453125 -0.515625,1.1015625 -0.6328125,2.203125 -0.6328125,3.0351563 0,0.7851562 0.1171875,1.99218745 0.65625,3.11718745 0.5976563,1.21875005 1.453125,1.87500005 1.5585938,1.87500005 0.058594,0 0.09375,-0.035156 0.09375,-0.1054688 z m 0,0"
         style="fill:#000000;fill-opacity:1;fill-rule:nonzero;stroke:none" />
      <path
         id="path9"
         d="m 10.562789,-3.983875 h 0.9375 c 0.199219,0 0.304688,0 0.304688,-0.1992187 0,-0.1054688 -0.105469,-0.1054688 -0.28125,-0.1054688 H 10.64482 c 0.363282,-1.4179687 0.410157,-1.6171875 0.410157,-1.6757812 0,-0.1757813 -0.117188,-0.2695313 -0.292969,-0.2695313 -0.02344,0 -0.304688,0.011719 -0.398438,0.3515625 l -0.3867184,1.59375 h -0.9375 c -0.1992188,0 -0.2929688,0 -0.2929688,0.1875 0,0.1171875 0.070312,0.1171875 0.2695313,0.1171875 h 0.8789062 c -0.7148437,2.8242188 -0.75,3 -0.75,3.17578125 0,0.5390625 0.375,0.9140625 0.9140627,0.9140625 1.007812,0 1.582031,-1.45312495 1.582031,-1.53515625 0,-0.09375 -0.08203,-0.09375 -0.117187,-0.09375 -0.09375,0 -0.105469,0.023437 -0.152344,0.140625 -0.433594,1.03125 -0.960938,1.27734375 -1.300781,1.27734375 -0.1992192,0 -0.3046879,-0.12890625 -0.3046879,-0.45703125 0,-0.24609375 0.023437,-0.31640625 0.058594,-0.4804687 z m 0,0"
         style="fill:#000000;fill-opacity:1;fill-rule:nonzero;stroke:none" />
      <path
         id="path10"
         d="m 14.992477,-2.4955937 c 0,-0.7734375 -0.117188,-1.9804688 -0.65625,-3.1054688 -0.597657,-1.21875 -1.464844,-1.875 -1.558594,-1.875 -0.05859,0 -0.105469,0.046875 -0.105469,0.1054688 0,0.035156 0,0.046875 0.199219,0.234375 0.972656,0.984375 1.535156,2.5664062 1.535156,4.640625 0,1.71093745 -0.363281,3.4570312 -1.59375,4.7226562 -0.140625,0.1171875 -0.140625,0.1289063 -0.140625,0.1640625 0,0.058594 0.04687,0.1054688 0.105469,0.1054688 0.09375,0 0.996094,-0.6796875 1.582031,-1.94531255 0.503906,-1.1015625 0.632813,-2.20312495 0.632813,-3.04687495 z m 0,0"
         style="fill:#000000;fill-opacity:1;fill-rule:nonzero;stroke:none" />
    </g>
    <g
       id="g10"
       aria-label="r(t)"
       transform="matrix(1.3333333,0,0,1.3333333,318.596,28.249333)">
      <path
         id="path11"
         d="m 0.88014844,-0.5854375 c -0.0351563,0.15234375 -0.09375,0.375 -0.09375,0.421875 0,0.1875 0.140625,0.26953125 0.29296876,0.26953125 0.1171875,0 0.2929687,-0.0703125 0.3632812,-0.26953125 0.023437,-0.046875 0.3632813,-1.3945312 0.3984375,-1.5820312 0.082031,-0.328125 0.2578125,-1.0195313 0.3164063,-1.2890625 0.046875,-0.1289063 0.328125,-0.5976563 0.5625,-0.8203125 0.082031,-0.070312 0.375,-0.328125 0.796875,-0.328125 0.2578125,0 0.4101562,0.1171875 0.421875,0.1171875 -0.3046875,0.046875 -0.515625,0.2929687 -0.515625,0.5507812 0,0.1640625 0.1054687,0.3515625 0.375,0.3515625 0.2695312,0 0.5507812,-0.234375 0.5507812,-0.5859375 0,-0.3515625 -0.328125,-0.65625 -0.8320312,-0.65625 -0.6445313,0 -1.0898438,0.4921875 -1.2773438,0.7734375 C 2.1574922,-4.0893437 1.8059297,-4.40575 1.3371797,-4.40575 c -0.45703126,0 -0.64453126,0.3867188 -0.73828126,0.5742188 -0.17578125,0.3398437 -0.3046875,0.9375 -0.3046875,0.9609375 0,0.1054687 0.09375,0.1054687 0.1171875,0.1054687 0.09375,0 0.10546875,-0.011719 0.1640625,-0.234375 0.17578125,-0.703125 0.375,-1.1835937 0.72656246,-1.1835937 0.1757813,0 0.3164063,0.082031 0.3164063,0.4570312 0,0.2109375 -0.035156,0.3164063 -0.1640625,0.8320313 z m 0,0"
         style="fill:#000000;fill-opacity:1;fill-rule:nonzero;stroke:none" />
      <path
         id="path12"
         d="m 8.0637422,2.391125 c 0,-0.035156 0,-0.046875 -0.1640625,-0.2226562 -1.2421875,-1.2539063 -1.5703125,-3.1289063 -1.5703125,-4.6640625 0,-1.7226563 0.3867187,-3.4570313 1.6054687,-4.7109375 0.1289063,-0.1171875 0.1289063,-0.1289063 0.1289063,-0.1640625 0,-0.070312 -0.035156,-0.1054688 -0.09375,-0.1054688 -0.1054688,0 -0.9960938,0.6796875 -1.5820313,1.9453125 -0.515625,1.1015625 -0.6328125,2.203125 -0.6328125,3.0351563 0,0.7851562 0.1171875,1.99218745 0.65625,3.11718745 0.5976563,1.21875005 1.453125,1.87500005 1.5585938,1.87500005 0.058594,0 0.09375,-0.035156 0.09375,-0.1054688 z m 0,0"
         style="fill:#000000;fill-opacity:1;fill-rule:nonzero;stroke:none" />
      <path
         id="path13"
         d="m 10.694602,-3.983875 h 0.9375 c 0.199218,0 0.304687,0 0.304687,-0.1992187 0,-0.1054688 -0.105469,-0.1054688 -0.28125,-0.1054688 h -0.878906 c 0.363281,-1.4179687 0.410156,-1.6171875 0.410156,-1.6757812 0,-0.1757813 -0.117187,-0.2695313 -0.292969,-0.2695313 -0.02344,0 -0.304687,0.011719 -0.398437,0.3515625 l -0.386719,1.59375 H 9.1711641 c -0.1992188,0 -0.2929688,0 -0.2929688,0.1875 0,0.1171875 0.070312,0.1171875 0.2695313,0.1171875 h 0.8789064 c -0.7148439,2.8242188 -0.7500002,3 -0.7500002,3.17578125 0,0.5390625 0.375,0.9140625 0.9140622,0.9140625 1.007813,0 1.582032,-1.45312495 1.582032,-1.53515625 0,-0.09375 -0.08203,-0.09375 -0.117188,-0.09375 -0.09375,0 -0.105469,0.023437 -0.152344,0.140625 -0.433593,1.03125 -0.960937,1.27734375 -1.300781,1.27734375 -0.199219,0 -0.3046874,-0.12890625 -0.3046874,-0.45703125 0,-0.24609375 0.023437,-0.31640625 0.058594,-0.4804687 z m 0,0"
         style="fill:#000000;fill-opacity:1;fill-rule:nonzero;stroke:none" />
      <path
         id="path14"
         d="m 15.127219,-2.4955937 c 0,-0.7734375 -0.117188,-1.9804688 -0.65625,-3.1054688 -0.597657,-1.21875 -1.464844,-1.875 -1.558594,-1.875 -0.05859,0 -0.105469,0.046875 -0.105469,0.1054688 0,0.035156 0,0.046875 0.199219,0.234375 0.972656,0.984375 1.535156,2.5664062 1.535156,4.640625 0,1.71093745 -0.363281,3.4570312 -1.59375,4.7226562 -0.140625,0.1171875 -0.140625,0.1289063 -0.140625,0.1640625 0,0.058594 0.04687,0.1054688 0.105469,0.1054688 0.09375,0 0.996094,-0.6796875 1.582031,-1.94531255 0.503906,-1.1015625 0.632813,-2.20312495 0.632813,-3.04687495 z m 0,0"
         style="fill:#000000;fill-opacity:1;fill-rule:nonzero;stroke:none" />
    </g>
    <path
       id="path15"
       d="M 1.61658,0 H 40.90364"
       style="fill:none;stroke:#000000;stroke-width:0.3985;stroke-linecap:butt;stroke-linejoin:miter;stroke-miterlimit:10;stroke-dasharray:none;stroke-opacity:1"
       transform="matrix(1.3333333,0,0,-1.3333333,30.434667,24.928)" />
    <path
       id="path16"
       d="M -2.07224,2.39104 C -1.69365,0.95639 -0.84999,0.27895 0,0 -0.84999,-0.27895 -1.69365,-0.95639 -2.07224,-2.39104"
       style="fill:none;stroke:#000000;stroke-width:0.3985;stroke-linecap:round;stroke-linejoin:round;stroke-miterlimit:10;stroke-dasharray:none;stroke-opacity:1"
       transform="matrix(1.3333333,0,0,-1.3333333,58.51576,24.928)" />
    <path
       id="path17"
       d="m 2.9303906,-6.3752188 c 0,-0.234375 0,-0.2578125 -0.234375,-0.2578125 -0.609375,0.6328125 -1.4882812,0.6328125 -1.80468747,0.6328125 v 0.3164063 c 0.19921877,0 0.78515627,0 1.30078127,-0.2578125 v 5.15625 c 0,0.3515625 -0.035156,0.48046875 -0.9257813,0.48046875 H 0.94992188 v 0.3046875 C 1.3014844,-0.035375 2.1569531,-0.035375 2.5553906,-0.035375 c 0.3984375,0 1.265625,0 1.6171875,0.03515625 v -0.3046875 H 3.8561719 c -0.9023438,0 -0.9257813,-0.1171875 -0.9257813,-0.48046875 z m 0,0"
       style="fill:#000000;fill-opacity:1;fill-rule:nonzero;stroke:none"
       aria-label="1"
       transform="matrix(1.3333333,0,0,1.3333333,55.46,20.234667)" />
    <path
       id="path18"
       d="M 44.1368,0 H 83.42386"
       style="fill:none;stroke:#000000;stroke-width:0.3985;stroke-linecap:butt;stroke-linejoin:miter;stroke-miterlimit:10;stroke-dasharray:none;stroke-opacity:1"
       transform="matrix(1.3333333,0,0,-1.3333333,30.434667,24.928)" />
    <path
       id="path19"
       d="M -2.07224,2.39104 C -1.69365,0.95639 -0.84999,0.27895 0,0 -0.84999,-0.27895 -1.69365,-0.95639 -2.07224,-2.39104"
       style="fill:none;stroke:#000000;stroke-width:0.3985;stroke-linecap:round;stroke-linejoin:round;stroke-miterlimit:10;stroke-dasharray:none;stroke-opacity:1"
       transform="matrix(1.3333333,0,0,-1.3333333,115.2094,24.928)" />
    <path
       id="path20"
       d="m 2.333125,-4.4283516 c 0,-0.1875 -0.011719,-0.1992187 -0.2109375,-0.1992187 -0.4453125,0.4335937 -1.078125,0.4453125 -1.359375,0.4453125 v 0.2460937 c 0.1640625,0 0.6210937,0 1.0078125,-0.1875 v 3.55078129 c 0,0.234375 0,0.328125 -0.6914063,0.328125 H 0.8096875 v 0.24609375 c 0.12890625,-0.01171875 0.984375,-0.0234375 1.2421875,-0.0234375 0.2109375,0 1.0898437,0.01171875 1.2421875,0.0234375 V -0.24475781 H 3.03625 c -0.703125,0 -0.703125,-0.09375 -0.703125,-0.328125 z m 0,0"
       style="fill:#000000;fill-opacity:1;fill-rule:nonzero;stroke:none"
       aria-label="1"
       transform="matrix(1.3333333,0,0,1.3333333,112.82667,10.424)" />
    <path
       id="path21"
       d="m -47.979,55.798 h 3.971"
       style="fill:none;stroke:#000000;stroke-width:0.3985;stroke-linecap:butt;stroke-linejoin:miter;stroke-miterlimit:10;stroke-dasharray:none;stroke-opacity:1"
       transform="matrix(1.3333333,0,0,-1.3333333,176.79867,86.730667)" />
    <path
       id="path22"
       d="m 3.0005625,-2.6252187 c -0.1757812,0.046875 -0.2929687,0.1875 -0.2929687,0.328125 0,0.1640625 0.140625,0.2226562 0.234375,0.2226562 0.070312,0 0.3398437,-0.035156 0.3398437,-0.3984375 0,-0.4453125 -0.5039062,-0.5976562 -0.9257812,-0.5976562 -1.0898438,0 -1.2890625,0.796875 -1.2890625,1.0078125 0,0.2578125 0.1523437,0.4335937 0.2460937,0.515625 0.1757813,0.140625 0.3046875,0.1640625 0.7851563,0.2460937 0.1523437,0.035156 0.5976562,0.1171875 0.5976562,0.46875 0,0.1171875 -0.082031,0.375 -0.375,0.55078125 C 2.0513438,-0.129125 1.7115,-0.129125 1.6294688,-0.129125 c -0.28125,0 -0.67968755,-0.0585938 -0.84375005,-0.29296875 0.23437505,-0.0234375 0.38671875,-0.19921875 0.38671875,-0.3984375 0,-0.1640625 -0.1289062,-0.25781245 -0.26953125,-0.25781245 -0.19921875,0 -0.41015625,0.16406245 -0.41015625,0.46874995 0,0.421875 0.4453125,0.6796875 1.125,0.6796875 1.2890625,0 1.5234375,-0.87890625 1.5234375,-1.14843745 0,-0.6445313 -0.703125,-0.7734375 -0.9609375,-0.8203125 C 2.1099375,-1.910375 1.9341563,-1.9338125 1.899,-1.95725 1.6411875,-2.004125 1.5122813,-2.14475 1.5122813,-2.2970937 c 0,-0.1640625 0.1289062,-0.3515625 0.28125,-0.4453125 0.1875,-0.1289063 0.4335937,-0.140625 0.5507812,-0.140625 0.140625,0 0.5039063,0.023437 0.65625,0.2578125 z m 0,0"
       style="fill:#000000;fill-opacity:1;fill-rule:nonzero;stroke:none"
       aria-label="s"
       transform="matrix(1.3333333,0,0,1.3333333,112.968,20.234667)" />
    <path
       id="path23"
       d="m 86.65701,0 h 39.28707"
       style="fill:none;stroke:#000000;stroke-width:0.3985;stroke-linecap:butt;stroke-linejoin:miter;stroke-miterlimit:10;stroke-dasharray:none;stroke-opacity:1"
       transform="matrix(1.3333333,0,0,-1.3333333,30.434667,24.928)" />
    <path
       id="path24"
       d="M -2.07224,2.39104 C -1.69365,0.95639 -0.84999,0.27895 0,0 -0.84999,-0.27895 -1.69365,-0.95639 -2.07224,-2.39104"
       style="fill:none;stroke:#000000;stroke-width:0.3985;stroke-linecap:round;stroke-linejoin:round;stroke-miterlimit:10;stroke-dasharray:none;stroke-opacity:1"
       transform="matrix(1.3333333,0,0,-1.3333333,171.90303,24.928)" />
    <path
       id="path25"
       d="m 2.9294297,-6.3752188 c 0,-0.234375 0,-0.2578125 -0.234375,-0.2578125 -0.609375,0.6328125 -1.4882813,0.6328125 -1.80468751,0.6328125 v 0.3164063 c 0.19921871,0 0.78515621,0 1.30078121,-0.2578125 v 5.15625 c 0,0.3515625 -0.035156,0.48046875 -0.9257812,0.48046875 H 0.94896094 v 0.3046875 C 1.3005234,-0.035375 2.1559922,-0.035375 2.5544297,-0.035375 c 0.3984375,0 1.265625,0 1.6171875,0.03515625 v -0.3046875 H 3.8552109 c -0.9023437,0 -0.9257812,-0.1171875 -0.9257812,-0.48046875 z m 0,0"
       style="fill:#000000;fill-opacity:1;fill-rule:nonzero;stroke:none"
       aria-label="1"
       transform="matrix(1.3333333,0,0,1.3333333,168.848,20.234667)" />
    <path
       id="path26"
       d="m 129.17723,0 h 39.28708"
       style="fill:none;stroke:#000000;stroke-width:0.3985;stroke-linecap:butt;stroke-linejoin:miter;stroke-miterlimit:10;stroke-dasharray:none;stroke-opacity:1"
       transform="matrix(1.3333333,0,0,-1.3333333,30.434667,24.928)" />
    <path
       id="path27"
       d="M -2.07224,2.39104 C -1.69365,0.95639 -0.84999,0.27895 0,0 -0.84999,-0.27895 -1.69365,-0.95639 -2.07224,-2.39104"
       style="fill:none;stroke:#000000;stroke-width:0.3985;stroke-linecap:round;stroke-linejoin:round;stroke-miterlimit:10;stroke-dasharray:none;stroke-opacity:1"
       transform="matrix(1.3333333,0,0,-1.3333333,228.59665,24.928)" />
    <path
       id="path28"
       d="m 2.3321641,-4.4283516 c 0,-0.1875 -0.011719,-0.1992187 -0.2109375,-0.1992187 -0.4453125,0.4335937 -1.078125,0.4453125 -1.35937504,0.4453125 v 0.2460937 c 0.1640625,0 0.62109374,0 1.00781254,-0.1875 v 3.55078129 c 0,0.234375 0,0.328125 -0.6914063,0.328125 H 0.80872656 v 0.24609375 c 0.12890625,-0.01171875 0.98437504,-0.0234375 1.24218754,-0.0234375 0.2109375,0 1.0898437,0.01171875 1.2421875,0.0234375 V -0.24475781 H 3.0352891 c -0.703125,0 -0.703125,-0.09375 -0.703125,-0.328125 z m 0,0"
       style="fill:#000000;fill-opacity:1;fill-rule:nonzero;stroke:none"
       aria-label="1"
       transform="matrix(1.3333333,0,0,1.3333333,226.21467,10.424)" />
    <path
       id="path29"
       d="m -47.979,55.798 h 3.971"
       style="fill:none;stroke:#000000;stroke-width:0.3985;stroke-linecap:butt;stroke-linejoin:miter;stroke-miterlimit:10;stroke-dasharray:none;stroke-opacity:1"
       transform="matrix(1.3333333,0,0,-1.3333333,290.18667,86.730667)" />
    <path
       id="path30"
       d="m 2.9996016,-2.6252187 c -0.1757813,0.046875 -0.2929688,0.1875 -0.2929688,0.328125 0,0.1640625 0.140625,0.2226562 0.234375,0.2226562 0.070312,0 0.3398438,-0.035156 0.3398438,-0.3984375 0,-0.4453125 -0.5039063,-0.5976562 -0.9257813,-0.5976562 -1.0898437,0 -1.2890625,0.796875 -1.2890625,1.0078125 0,0.2578125 0.1523438,0.4335937 0.2460938,0.515625 0.1757812,0.140625 0.3046875,0.1640625 0.7851562,0.2460937 0.1523438,0.035156 0.5976563,0.1171875 0.5976563,0.46875 0,0.1171875 -0.082031,0.375 -0.375,0.55078125 C 2.0503828,-0.129125 1.7105391,-0.129125 1.6285078,-0.129125 c -0.28125,0 -0.67968749,-0.0585938 -0.84374999,-0.29296875 0.23437499,-0.0234375 0.38671879,-0.19921875 0.38671879,-0.3984375 0,-0.1640625 -0.1289063,-0.25781245 -0.26953129,-0.25781245 -0.19921875,0 -0.41015625,0.16406245 -0.41015625,0.46874995 0,0.421875 0.4453125,0.6796875 1.12500004,0.6796875 1.2890625,0 1.5234375,-0.87890625 1.5234375,-1.14843745 0,-0.6445313 -0.703125,-0.7734375 -0.9609375,-0.8203125 -0.070312,-0.011719 -0.2460938,-0.035156 -0.28125,-0.058594 -0.2578125,-0.046875 -0.3867188,-0.1875 -0.3867188,-0.3398437 0,-0.1640625 0.1289063,-0.3515625 0.28125,-0.4453125 0.1875,-0.1289063 0.4335938,-0.140625 0.5507813,-0.140625 0.140625,0 0.5039062,0.023437 0.65625,0.2578127 z m 0,0"
       style="fill:#000000;fill-opacity:1;fill-rule:nonzero;stroke:none"
       aria-label="s"
       transform="matrix(1.3333333,0,0,1.3333333,226.356,20.234667)" />
    <path
       id="path31"
       d="m 171.69746,0 h 39.28707"
       style="fill:none;stroke:#000000;stroke-width:0.3985;stroke-linecap:butt;stroke-linejoin:miter;stroke-miterlimit:10;stroke-dasharray:none;stroke-opacity:1"
       transform="matrix(1.3333333,0,0,-1.3333333,30.434667,24.928)" />
    <path
       id="path32"
       d="M -2.07224,2.39104 C -1.69365,0.95639 -0.84999,0.27895 0,0 -0.84999,-0.27895 -1.69365,-0.95639 -2.07224,-2.39104"
       style="fill:none;stroke:#000000;stroke-width:0.3985;stroke-linecap:round;stroke-linejoin:round;stroke-miterlimit:10;stroke-dasharray:none;stroke-opacity:1"
       transform="matrix(1.3333333,0,0,-1.3333333,285.29029,24.928)" />
    <path
       id="path33"
       d="m 2.9294688,-6.3752188 c 0,-0.234375 0,-0.2578125 -0.234375,-0.2578125 -0.609375,0.6328125 -1.4882813,0.6328125 -1.80468755,0.6328125 v 0.3164063 c 0.19921875,0 0.78515625,0 1.30078125,-0.2578125 v 5.15625 c 0,0.3515625 -0.035156,0.48046875 -0.9257812,0.48046875 H 0.949 v 0.3046875 C 1.3005625,-0.035375 2.1560313,-0.035375 2.5544688,-0.035375 c 0.3984375,0 1.265625,0 1.6171875,0.03515625 v -0.3046875 H 3.85525 c -0.9023437,0 -0.9257812,-0.1171875 -0.9257812,-0.48046875 z m 0,0"
       style="fill:#000000;fill-opacity:1;fill-rule:nonzero;stroke:none"
       aria-label="1"
       transform="matrix(1.3333333,0,0,1.3333333,282.23467,20.234667)" />
    <path
       id="path34"
       d="m 83.89735,-1.14308 c -11.09454,-11.09453 -29.13951,-11.09453 -40.23405,0"
       style="fill:none;stroke:#000000;stroke-width:0.3985;stroke-linecap:butt;stroke-linejoin:miter;stroke-miterlimit:10;stroke-dasharray:none;stroke-opacity:1"
       transform="matrix(1.3333333,0,0,-1.3333333,30.434667,24.928)" />
    <path
       id="path35"
       d="M -2.07224,2.39104 C -1.69365,0.95639 -0.84999,0.27895 0,0 -0.84999,-0.27895 -1.69365,-0.95639 -2.07224,-2.39104"
       style="fill:none;stroke:#000000;stroke-width:0.3985;stroke-linecap:round;stroke-linejoin:round;stroke-miterlimit:10;stroke-dasharray:none;stroke-opacity:1"
       transform="matrix(-1.3333333,0,0,1.3333333,115.73983,37.546587)" />
    <g
       id="g35"
       aria-label="−2"
       transform="matrix(1.3333333,0,0,1.3333333,106.988,50.8)">
      <path
         id="path36"
         d="m 6.5627109,-2.2962891 c 0.1757813,0 0.3515625,0 0.3515625,-0.1992187 0,-0.1992188 -0.1757812,-0.1992188 -0.3515625,-0.1992188 h -5.390625 c -0.1640625,0 -0.33984371,0 -0.33984371,0.1992188 0,0.1992187 0.17578121,0.1992187 0.33984371,0.1992187 z m 0,0"
         style="fill:#000000;fill-opacity:1;fill-rule:nonzero;stroke:none" />
      <path
         id="path37"
         d="M 9.0148594,-0.76113281 10.069547,-1.7923828 c 1.558594,-1.3710938 2.15625,-1.9101563 2.15625,-2.90625 0,-1.1367188 -0.902344,-1.9335938 -2.121094,-1.9335938 -1.1249999,0 -1.8515624,0.9140625 -1.8515624,1.8046875 0,0.5507813 0.4921875,0.5507813 0.5273438,0.5507813 0.1640625,0 0.515625,-0.1171875 0.515625,-0.5273438 0,-0.2578125 -0.1875,-0.515625 -0.5273438,-0.515625 -0.082031,0 -0.1054687,0 -0.1289062,0.011719 0.2226562,-0.6445313 0.7617187,-1.0195313 1.3359375,-1.0195313 0.9140621,0 1.3359371,0.8085938 1.3359371,1.6289063 0,0.796875 -0.492187,1.5820312 -1.042968,2.203125 L 8.3586094,-0.36269531 C 8.2531406,-0.25722656 8.2531406,-0.23378906 8.2531406,5.859375e-4 H 11.944547 L 12.225797,-1.7337891 h -0.257813 c -0.04687,0.3046875 -0.117187,0.73828129 -0.210937,0.89062504 -0.07031,0.0820313 -0.726563,0.0820313 -0.949219,0.0820313 z m 0,0"
         style="fill:#000000;fill-opacity:1;fill-rule:nonzero;stroke:none" />
    </g>
    <path
       id="path38"
       d="m 168.9378,-1.14308 c -11.09454,-11.09453 -29.13952,-11.09453 -40.23406,0"
       style="fill:none;stroke:#000000;stroke-width:0.3985;stroke-linecap:butt;stroke-linejoin:miter;stroke-miterlimit:10;stroke-dasharray:none;stroke-opacity:1"
       transform="matrix(1.3333333,0,0,-1.3333333,30.434667,24.928)" />
    <path
       id="path39"
       d="M -2.07224,2.39104 C -1.69365,0.95639 -0.84999,0.27895 0,0 -0.84999,-0.27895 -1.69365,-0.95639 -2.07224,-2.39104"
       style="fill:none;stroke:#000000;stroke-width:0.3985;stroke-linecap:round;stroke-linejoin:round;stroke-miterlimit:10;stroke-dasharray:none;stroke-opacity:1"
       transform="matrix(-1.3333333,0,0,1.3333333,229.12709,37.546587)" />
    <g
       id="g39"
       aria-label="−3"
       transform="matrix(1.3333333,0,0,1.3333333,220.376,50.8)">
      <path
         id="path40"
         d="m 6.56175,-2.2962891 c 0.1757813,0 0.3515625,0 0.3515625,-0.1992187 0,-0.1992188 -0.1757812,-0.1992188 -0.3515625,-0.1992188 H 1.171125 c -0.1640625,0 -0.33984375,0 -0.33984375,0.1992188 0,0.1992187 0.17578125,0.1992187 0.33984375,0.1992187 z m 0,0"
         style="fill:#000000;fill-opacity:1;fill-rule:nonzero;stroke:none" />
      <path
         id="path41"
         d="m 10.642805,-3.5033203 c 0.808593,-0.2695313 1.394531,-0.9726563 1.394531,-1.7578125 0,-0.8203125 -0.878906,-1.3710938 -1.839844,-1.3710938 -1.0078123,0 -1.7578123,0.5976563 -1.7578123,1.3476563 0,0.3398437 0.2109375,0.5273437 0.5039062,0.5273437 0.3046875,0 0.5039063,-0.2226562 0.5039063,-0.515625 0,-0.4921875 -0.46875,-0.4921875 -0.609375,-0.4921875 0.3046875,-0.4921875 0.9609375,-0.6210937 1.3242188,-0.6210937 0.410156,0 0.949219,0.2226562 0.949219,1.1132812 0,0.1289063 -0.01172,0.703125 -0.269532,1.1367188 -0.304687,0.4804687 -0.644531,0.515625 -0.8906246,0.515625 -0.082031,0.011719 -0.3164062,0.035156 -0.3867187,0.035156 -0.082031,0.011719 -0.1523438,0.023437 -0.1523438,0.1171875 0,0.1171875 0.070312,0.1171875 0.234375,0.1171875 h 0.4453121 c 0.808594,0 1.183594,0.6679688 1.183594,1.6523438 0,1.34765624 -0.691406,1.64062499 -1.125,1.64062499 -0.4335936,0 -1.1718748,-0.17578125 -1.5234373,-0.76171875 0.3515625,0.0585938 0.65625,-0.1640625 0.65625,-0.53906254 0,-0.3632812 -0.2695313,-0.5625 -0.5625,-0.5625 -0.234375,0 -0.5507813,0.140625 -0.5507813,0.5742188 0,0.91406249 0.9257813,1.57031249 2.0039066,1.57031249 1.21875,0 2.121093,-0.9140625 2.121093,-1.92187499 0,-0.8203125 -0.621093,-1.59375 -1.652343,-1.8046873 z m 0,0"
         style="fill:#000000;fill-opacity:1;fill-rule:nonzero;stroke:none" />
    </g>
  </g>
</svg>
