<?xml version="1.0" encoding="UTF-8" standalone="no"?>
<!-- Created with Inkscape (http://www.inkscape.org/) -->

<svg
   version="1.1"
   id="svg1"
   width="355.58667"
   height="102.57333"
   viewBox="0 0 355.58667 102.57333"
   sodipodi:docname="25-26-1-信号与系统-期末-题图1.9.pdf"
   xmlns:inkscape="http://www.inkscape.org/namespaces/inkscape"
   xmlns:sodipodi="http://sodipodi.sourceforge.net/DTD/sodipodi-0.dtd"
   xmlns="http://www.w3.org/2000/svg"
   xmlns:svg="http://www.w3.org/2000/svg">
  <defs
     id="defs1" />
  <sodipodi:namedview
     id="namedview1"
     pagecolor="#ffffff"
     bordercolor="#000000"
     borderopacity="0.25"
     inkscape:showpageshadow="2"
     inkscape:pageopacity="0.0"
     inkscape:pagecheckerboard="0"
     inkscape:deskcolor="#d1d1d1">
    <inkscape:page
       x="0"
       y="0"
       inkscape:label="1"
       id="page1"
       width="355.58667"
       height="102.57333"
       margin="0"
       bleed="0" />
  </sodipodi:namedview>
  <g
     id="g1"
     inkscape:groupmode="layer"
     inkscape:label="1">
    <path
       id="path1"
       d="M 1.41731,0 C 1.41731,0.78276 0.78276,1.41731 0,1.41731 -0.78276,1.41731 -1.41731,0.78276 -1.41731,0 c 0,-0.78276 0.63455,-1.41731 1.41731,-1.41731 0.78276,0 1.41731,0.63455 1.41731,1.41731 z"
       style="fill:none;stroke:#000000;stroke-width:0.3985;stroke-linecap:butt;stroke-linejoin:miter;stroke-miterlimit:10;stroke-dasharray:none;stroke-opacity:1"
       transform="matrix(1.3333333,0,0,-1.3333333,36.250667,19.928)" />
    <path
       id="path2"
       d="m 43.93755,0 c 0,0.78276 -0.63457,1.41731 -1.41733,1.41731 -0.78276,0 -1.41733,-0.63455 -1.41733,-1.41731 0,-0.78276 0.63457,-1.41731 1.41733,-1.41731 0.78276,0 1.41733,0.63455 1.41733,1.41731 z"
       style="fill:none;stroke:#000000;stroke-width:0.3985;stroke-linecap:butt;stroke-linejoin:miter;stroke-miterlimit:10;stroke-dasharray:none;stroke-opacity:1"
       transform="matrix(1.3333333,0,0,-1.3333333,36.250667,19.928)" />
    <path
       id="path3"
       d="m 86.45776,0 c 0,0.78276 -0.63456,1.41731 -1.41732,1.41731 -0.78276,0 -1.41733,-0.63455 -1.41733,-1.41731 0,-0.78276 0.63457,-1.41731 1.41733,-1.41731 0.78276,0 1.41732,0.63455 1.41732,1.41731 z"
       style="fill:none;stroke:#000000;stroke-width:0.3985;stroke-linecap:butt;stroke-linejoin:miter;stroke-miterlimit:10;stroke-dasharray:none;stroke-opacity:1"
       transform="matrix(1.3333333,0,0,-1.3333333,36.250667,19.928)" />
    <path
       id="path4"
       d="m 128.97798,0 c 0,0.78276 -0.63455,1.41731 -1.41733,1.41731 -0.78275,0 -1.41731,-0.63455 -1.41731,-1.41731 0,-0.78276 0.63456,-1.41731 1.41731,-1.41731 0.78278,0 1.41733,0.63455 1.41733,1.41731 z"
       style="fill:none;stroke:#000000;stroke-width:0.3985;stroke-linecap:butt;stroke-linejoin:miter;stroke-miterlimit:10;stroke-dasharray:none;stroke-opacity:1"
       transform="matrix(1.3333333,0,0,-1.3333333,36.250667,19.928)" />
    <path
       id="path5"
       d="m 171.49821,0 c 0,0.78276 -0.63456,1.41731 -1.41732,1.41731 -0.78278,0 -1.41733,-0.63455 -1.41733,-1.41731 0,-0.78276 0.63455,-1.41731 1.41733,-1.41731 0.78276,0 1.41732,0.63455 1.41732,1.41731 z"
       style="fill:none;stroke:#000000;stroke-width:0.3985;stroke-linecap:butt;stroke-linejoin:miter;stroke-miterlimit:10;stroke-dasharray:none;stroke-opacity:1"
       transform="matrix(1.3333333,0,0,-1.3333333,36.250667,19.928)" />
    <path
       id="path6"
       d="m 214.01843,0 c 0,0.78276 -0.63456,1.41731 -1.41733,1.41731 -0.78276,0 -1.41732,-0.63455 -1.41732,-1.41731 0,-0.78276 0.63456,-1.41731 1.41732,-1.41731 0.78277,0 1.41733,0.63455 1.41733,1.41731 z"
       style="fill:none;stroke:#000000;stroke-width:0.3985;stroke-linecap:butt;stroke-linejoin:miter;stroke-miterlimit:10;stroke-dasharray:none;stroke-opacity:1"
       transform="matrix(1.3333333,0,0,-1.3333333,36.250667,19.928)" />
    <path
       id="path7"
       d="m 56.69374,-42.52022 c 0,0.78276 -0.63457,1.41733 -1.41733,1.41733 -0.78277,0 -1.41732,-0.63457 -1.41732,-1.41733 0,-0.78276 0.63455,-1.41733 1.41732,-1.41733 0.78276,0 1.41733,0.63457 1.41733,1.41733 z"
       style="fill:none;stroke:#000000;stroke-width:0.3985;stroke-linecap:butt;stroke-linejoin:miter;stroke-miterlimit:10;stroke-dasharray:none;stroke-opacity:1"
       transform="matrix(1.3333333,0,0,-1.3333333,36.250667,19.928)" />
    <path
       id="path8"
       d="m 90.71004,-42.52022 c 0,0.78276 -0.63457,1.41733 -1.41733,1.41733 -0.78278,0 -1.41733,-0.63457 -1.41733,-1.41733 0,-0.78276 0.63455,-1.41733 1.41733,-1.41733 0.78276,0 1.41733,0.63457 1.41733,1.41733 z"
       style="fill:none;stroke:#000000;stroke-width:0.3985;stroke-linecap:butt;stroke-linejoin:miter;stroke-miterlimit:10;stroke-dasharray:none;stroke-opacity:1"
       transform="matrix(1.3333333,0,0,-1.3333333,36.250667,19.928)" />
    <path
       id="path9"
       d="m 124.72571,-42.52022 c 0,0.78276 -0.63457,1.41733 -1.41733,1.41733 -0.78276,0 -1.41733,-0.63457 -1.41733,-1.41733 0,-0.78276 0.63457,-1.41733 1.41733,-1.41733 0.78276,0 1.41733,0.63457 1.41733,1.41733 z"
       style="fill:none;stroke:#000000;stroke-width:0.3985;stroke-linecap:butt;stroke-linejoin:miter;stroke-miterlimit:10;stroke-dasharray:none;stroke-opacity:1"
       transform="matrix(1.3333333,0,0,-1.3333333,36.250667,19.928)" />
    <path
       id="path10"
       d="m 158.742,-42.52022 c 0,0.78276 -0.63456,1.41733 -1.41732,1.41733 -0.78276,0 -1.41733,-0.63457 -1.41733,-1.41733 0,-0.78276 0.63457,-1.41733 1.41733,-1.41733 0.78276,0 1.41732,0.63457 1.41732,1.41733 z"
       style="fill:none;stroke:#000000;stroke-width:0.3985;stroke-linecap:butt;stroke-linejoin:miter;stroke-miterlimit:10;stroke-dasharray:none;stroke-opacity:1"
       transform="matrix(1.3333333,0,0,-1.3333333,36.250667,19.928)" />
    <g
       id="g10"
       aria-label="E(s)"
       transform="matrix(1.3333333,0,0,1.3333333,4.428,23.249333)">
      <path
         id="path11"
         d="m 7.0559531,-2.3198125 c 0.023437,-0.046875 0.046875,-0.1171875 0.046875,-0.140625 0,-0.011719 0,-0.1054688 -0.1171875,-0.1054688 -0.09375,0 -0.1054687,0.058594 -0.1289062,0.1171875 -0.6445313,1.47656255 -1.0195313,2.1445313 -2.71875,2.1445313 h -1.453125 c -0.140625,0 -0.1640625,0 -0.2226563,-0.0117188 -0.1054687,-0.0117187 -0.1289062,-0.0234375 -0.1289062,-0.1054687 0,-0.0234375 0,-0.046875 0.046875,-0.22265625 L 3.0598594,-3.3627813 h 0.984375 c 0.84375,0 0.84375,0.2109375 0.84375,0.4570313 0,0.070312 0,0.1875 -0.070312,0.4804687 -0.011719,0.058594 -0.023437,0.082031 -0.023437,0.1171875 0,0.046875 0.035156,0.1054688 0.1289062,0.1054688 0.082031,0 0.1054688,-0.046875 0.1523438,-0.1992188 l 0.5625,-2.3320312 c 0,-0.058594 -0.046875,-0.1054688 -0.1171875,-0.1054688 -0.09375,0 -0.1054688,0.058594 -0.140625,0.1757813 -0.2109375,0.7617187 -0.3867188,0.984375 -1.3007813,0.984375 h -0.9375 L 3.7395469,-6.0815313 C 3.8215781,-6.421375 3.8332969,-6.46825 4.2786094,-6.46825 h 1.40625 c 1.2070312,0 1.5117187,0.2929687 1.5117187,1.1132812 0,0.234375 0,0.2578125 -0.046875,0.5273438 0,0.058594 -0.011719,0.1289062 -0.011719,0.1757812 0,0.046875 0.035156,0.1171875 0.1289062,0.1171875 0.1054688,0 0.1171875,-0.058594 0.140625,-0.2460937 L 7.6067344,-6.5034063 C 7.6301719,-6.7729375 7.5832969,-6.7729375 7.3372031,-6.7729375 H 2.2981406 c -0.1992187,0 -0.2929687,0 -0.2929687,0.1992187 0,0.1054688 0.09375,0.1054688 0.28125,0.1054688 0.3632812,0 0.6445312,0 0.6445312,0.1875 0,0.035156 0,0.058594 -0.046875,0.234375 l -1.3242187,5.2734375 c -0.09375,0.38671875 -0.1171875,0.46875 -0.90234378,0.46875 -0.1640625,0 -0.28125,0 -0.28125,0.1875 0,0.1171875 0.09375,0.1171875 0.28125,0.1171875 H 5.8254844 c 0.234375,0 0.2460937,-0.01171875 0.3164062,-0.1640625 z m 0,0"
         style="fill:#000000;fill-opacity:1;fill-rule:nonzero;stroke:none" />
      <path
         id="path12"
         d="m 11.221969,2.391125 c 0,-0.035156 0,-0.046875 -0.164063,-0.2226563 -1.2421873,-1.2539062 -1.5703123,-3.1289062 -1.5703123,-4.6640625 0,-1.7226562 0.3867188,-3.4570312 1.6054683,-4.7109375 0.128907,-0.1171875 0.128907,-0.1289062 0.128907,-0.1640625 0,-0.070312 -0.03516,-0.1054687 -0.09375,-0.1054687 -0.105469,0 -0.996094,0.6796875 -1.5820315,1.9453125 -0.515625,1.1015625 -0.6328125,2.203125 -0.6328125,3.0351562 0,0.7851563 0.1171875,1.99218755 0.65625,3.11718755 0.597656,1.21874995 1.453125,1.87499995 1.558594,1.87499995 0.05859,0 0.09375,-0.035156 0.09375,-0.1054687 z m 0,0"
         style="fill:#000000;fill-opacity:1;fill-rule:nonzero;stroke:none" />
      <path
         id="path13"
         d="m 15.692672,-3.7260625 c -0.269531,0.011719 -0.46875,0.234375 -0.46875,0.4453125 0,0.140625 0.08203,0.2929687 0.304687,0.2929687 0.222657,0 0.457032,-0.1640625 0.457032,-0.5625 0,-0.4453125 -0.433594,-0.8554687 -1.183594,-0.8554687 -1.3125,0 -1.6875,1.0195312 -1.6875,1.453125 0,0.7851562 0.738281,0.9257812 1.03125,0.9960937 0.515625,0.09375 1.03125,0.1992188 1.03125,0.75 0,0.25781255 -0.222656,1.10156255 -1.417969,1.10156255 -0.140625,0 -0.914062,0 -1.136719,-0.52734375 0.375,0.046875 0.621094,-0.2578125 0.621094,-0.5273438 0,-0.234375 -0.152344,-0.3515625 -0.363281,-0.3515625 -0.257813,0 -0.5625,0.2109375 -0.5625,0.65625005 0,0.5625 0.574219,0.9609375 1.429687,0.9609375 1.605469,0 2.003907,-1.20703125 2.003907,-1.65234375 0,-0.3515625 -0.199219,-0.609375 -0.316407,-0.7265625 -0.269531,-0.28125 -0.550781,-0.328125 -0.996093,-0.421875 -0.351563,-0.070312 -0.75,-0.140625 -0.75,-0.5976563 0,-0.28125 0.234375,-0.890625 1.113281,-0.890625 0.246094,0 0.75,0.070312 0.890625,0.4570313 z m 0,0"
         style="fill:#000000;fill-opacity:1;fill-rule:nonzero;stroke:none" />
      <path
         id="path14"
         d="m 19.354781,-2.4955938 c 0,-0.7734375 -0.117187,-1.9804687 -0.65625,-3.1054687 -0.597656,-1.21875 -1.464844,-1.875 -1.558594,-1.875 -0.05859,0 -0.105468,0.046875 -0.105468,0.1054687 0,0.035156 0,0.046875 0.199218,0.234375 0.972657,0.984375 1.535157,2.5664063 1.535157,4.640625 0,1.71093755 -0.363282,3.4570313 -1.59375,4.7226563 -0.140625,0.1171875 -0.140625,0.1289062 -0.140625,0.1640625 0,0.058594 0.04687,0.1054687 0.105468,0.1054687 0.09375,0 0.996094,-0.6796875 1.582032,-1.94531245 0.503906,-1.1015625 0.632812,-2.20312505 0.632812,-3.04687505 z m 0,0"
         style="fill:#000000;fill-opacity:1;fill-rule:nonzero;stroke:none" />
    </g>
    <g
       id="g14"
       aria-label="R(s)"
       transform="matrix(1.3333333,0,0,1.3333333,324.412,23.249333)">
      <path
         id="path15"
         d="m 3.7368984,-6.1166875 c 0.058594,-0.234375 0.082031,-0.3398438 0.28125,-0.3632813 0.082031,-0.011719 0.3984375,-0.011719 0.5976563,-0.011719 0.7148437,0 1.8164062,0 1.8164062,0.984375 0,0.3398437 -0.1523437,1.0195312 -0.5507812,1.4179687 C 5.6236172,-3.8315313 5.0962734,-3.515125 4.2056484,-3.515125 H 3.0923672 Z m 1.4296875,2.7304687 c 1.0078125,-0.2226562 2.1914063,-0.9140625 2.1914063,-1.921875 0,-0.8554687 -0.890625,-1.5 -2.203125,-1.5 H 2.3189297 c -0.1992188,0 -0.2929688,0 -0.2929688,0.1992188 0,0.1171875 0.09375,0.1171875 0.28125,0.1171875 0.023437,0 0.2109375,0 0.3867188,0.011719 0.1757812,0.023437 0.2578125,0.035156 0.2578125,0.1640625 0,0.035156 0,0.070312 -0.035156,0.1875 l -1.3359375,5.3554688 c -0.09375,0.38671875 -0.1171875,0.46875 -0.90234371,0.46875 -0.17578125,0 -0.26953125,0 -0.26953125,0.19921875 C 0.40877344,5e-4 0.52596094,5e-4 0.54939844,5e-4 c 0.28125,0 0.97265626,-0.03515625 1.25390626,-0.03515625 0.28125,0 0.984375,0.03515625 1.265625,0.03515625 0.082031,0 0.1992187,0 0.1992187,-0.19921875 0,-0.10546875 -0.09375,-0.10546875 -0.28125,-0.10546875 -0.3632812,0 -0.6445312,0 -0.6445312,-0.1875 0,-0.0585938 0.011719,-0.10546875 0.023437,-0.1640625 l 0.65625,-2.6367188 h 1.1953125 c 0.9023437,0 1.078125,0.5507813 1.078125,0.9023438 0,0.1523437 -0.082031,0.4570312 -0.140625,0.6914062 -0.070312,0.2695313 -0.1523438,0.6445313 -0.1523438,0.84375005 0,1.078125 1.1953125,1.078125 1.3242188,1.078125 0.84375,0 1.1953125,-1.0078125 1.1953125,-1.1484375 0,-0.11718755 -0.1171875,-0.11718755 -0.1171875,-0.11718755 -0.09375,0 -0.1171875,0.0703125 -0.1289063,0.14062505 C 7.0181484,-0.1635625 6.5962734,5e-4 6.3618984,5e-4 c -0.328125,0 -0.3984375,-0.22265625 -0.3984375,-0.609375 0,-0.3046875 0.058594,-0.8203125 0.1054688,-1.1367188 0.011719,-0.140625 0.035156,-0.328125 0.035156,-0.46875 0,-0.7617187 -0.6679687,-1.078125 -0.9374998,-1.171875 z m 0,0"
         style="fill:#000000;fill-opacity:1;fill-rule:nonzero;stroke:none" />
      <path
         id="path16"
         d="m 10.935141,2.391125 c 0,-0.035156 0,-0.046875 -0.164063,-0.2226563 -1.2421874,-1.2539062 -1.5703124,-3.1289062 -1.5703124,-4.6640625 0,-1.7226562 0.3867188,-3.4570312 1.6054684,-4.7109375 0.128907,-0.1171875 0.128907,-0.1289062 0.128907,-0.1640625 0,-0.070312 -0.03516,-0.1054687 -0.09375,-0.1054687 -0.105469,0 -0.9960941,0.6796875 -1.5820316,1.9453125 -0.515625,1.1015625 -0.6328125,2.203125 -0.6328125,3.0351562 0,0.7851563 0.1171875,1.99218755 0.65625,3.11718755 0.5976562,1.21874995 1.4531251,1.87499995 1.5585941,1.87499995 0.05859,0 0.09375,-0.035156 0.09375,-0.1054687 z m 0,0"
         style="fill:#000000;fill-opacity:1;fill-rule:nonzero;stroke:none" />
      <path
         id="path17"
         d="m 15.405844,-3.7260625 c -0.269532,0.011719 -0.46875,0.234375 -0.46875,0.4453125 0,0.140625 0.08203,0.2929687 0.304687,0.2929687 0.222656,0 0.457031,-0.1640625 0.457031,-0.5625 0,-0.4453125 -0.433593,-0.8554687 -1.183593,-0.8554687 -1.3125,0 -1.6875,1.0195312 -1.6875,1.453125 0,0.7851562 0.738281,0.9257812 1.03125,0.9960937 0.515625,0.09375 1.03125,0.1992188 1.03125,0.75 0,0.25781255 -0.222657,1.10156255 -1.417969,1.10156255 -0.140625,0 -0.914063,0 -1.136719,-0.52734375 0.375,0.046875 0.621094,-0.2578125 0.621094,-0.5273438 0,-0.234375 -0.152344,-0.3515625 -0.363281,-0.3515625 -0.257813,0 -0.5625,0.2109375 -0.5625,0.65625005 0,0.5625 0.574218,0.9609375 1.429687,0.9609375 1.605469,0 2.003906,-1.20703125 2.003906,-1.65234375 0,-0.3515625 -0.199218,-0.609375 -0.316406,-0.7265625 -0.269531,-0.28125 -0.550781,-0.328125 -0.996094,-0.421875 -0.351562,-0.070312 -0.75,-0.140625 -0.75,-0.5976563 0,-0.28125 0.234375,-0.890625 1.113282,-0.890625 0.246093,0 0.75,0.070312 0.890625,0.4570313 z m 0,0"
         style="fill:#000000;fill-opacity:1;fill-rule:nonzero;stroke:none" />
      <path
         id="path18"
         d="m 19.067953,-2.4955938 c 0,-0.7734375 -0.117187,-1.9804687 -0.65625,-3.1054687 -0.597656,-1.21875 -1.464844,-1.875 -1.558594,-1.875 -0.05859,0 -0.105468,0.046875 -0.105468,0.1054687 0,0.035156 0,0.046875 0.199218,0.234375 0.972657,0.984375 1.535157,2.5664063 1.535157,4.640625 0,1.71093755 -0.363282,3.4570313 -1.59375,4.7226563 -0.140625,0.1171875 -0.140625,0.1289062 -0.140625,0.1640625 0,0.058594 0.04687,0.1054687 0.105468,0.1054687 0.09375,0 0.996094,-0.6796875 1.582032,-1.94531245 0.503906,-1.1015625 0.632812,-2.20312505 0.632812,-3.04687505 z m 0,0"
         style="fill:#000000;fill-opacity:1;fill-rule:nonzero;stroke:none" />
    </g>
    <path
       id="path19"
       d="M 1.61658,0 H 40.90364"
       style="fill:none;stroke:#000000;stroke-width:0.3985;stroke-linecap:butt;stroke-linejoin:miter;stroke-miterlimit:10;stroke-dasharray:none;stroke-opacity:1"
       transform="matrix(1.3333333,0,0,-1.3333333,36.250667,19.928)" />
    <path
       id="path20"
       d="M -2.07224,2.39104 C -1.69365,0.95639 -0.84999,0.27895 0,0 -0.84999,-0.27895 -1.69365,-0.95639 -2.07224,-2.39104"
       style="fill:none;stroke:#000000;stroke-width:0.3985;stroke-linecap:round;stroke-linejoin:round;stroke-miterlimit:10;stroke-dasharray:none;stroke-opacity:1"
       transform="matrix(1.3333333,0,0,-1.3333333,64.33176,19.928)" />
    <path
       id="path21"
       d="m 2.9306953,-6.3752188 c 0,-0.234375 0,-0.2578125 -0.234375,-0.2578125 -0.609375,0.6328125 -1.4882812,0.6328125 -1.80468749,0.6328125 v 0.3164063 c 0.19921879,0 0.78515629,0 1.30078129,-0.2578125 v 5.15625 c 0,0.3515625 -0.035156,0.48046875 -0.9257813,0.48046875 H 0.95022656 v 0.3046875 C 1.3017891,-0.035375 2.1572578,-0.035375 2.5556953,-0.035375 c 0.3984375,0 1.265625,0 1.6171875,0.03515625 v -0.3046875 H 3.8564766 c -0.9023438,0 -0.9257813,-0.1171875 -0.9257813,-0.48046875 z m 0,0"
       style="fill:#000000;fill-opacity:1;fill-rule:nonzero;stroke:none"
       aria-label="1"
       transform="matrix(1.3333333,0,0,1.3333333,61.276,15.234667)" />
    <path
       id="path22"
       d="M 44.1368,0 H 83.42386"
       style="fill:none;stroke:#000000;stroke-width:0.3985;stroke-linecap:butt;stroke-linejoin:miter;stroke-miterlimit:10;stroke-dasharray:none;stroke-opacity:1"
       transform="matrix(1.3333333,0,0,-1.3333333,36.250667,19.928)" />
    <path
       id="path23"
       d="M -2.07224,2.39104 C -1.69365,0.95639 -0.84999,0.27895 0,0 -0.84999,-0.27895 -1.69365,-0.95639 -2.07224,-2.39104"
       style="fill:none;stroke:#000000;stroke-width:0.3985;stroke-linecap:round;stroke-linejoin:round;stroke-miterlimit:10;stroke-dasharray:none;stroke-opacity:1"
       transform="matrix(1.3333333,0,0,-1.3333333,121.0254,19.928)" />
    <path
       id="path24"
       d="m 86.65701,0 h 39.28707"
       style="fill:none;stroke:#000000;stroke-width:0.3985;stroke-linecap:butt;stroke-linejoin:miter;stroke-miterlimit:10;stroke-dasharray:none;stroke-opacity:1"
       transform="matrix(1.3333333,0,0,-1.3333333,36.250667,19.928)" />
    <path
       id="path25"
       d="M -2.07224,2.39104 C -1.69365,0.95639 -0.84999,0.27895 0,0 -0.84999,-0.27895 -1.69365,-0.95639 -2.07224,-2.39104"
       style="fill:none;stroke:#000000;stroke-width:0.3985;stroke-linecap:round;stroke-linejoin:round;stroke-miterlimit:10;stroke-dasharray:none;stroke-opacity:1"
       transform="matrix(1.3333333,0,0,-1.3333333,177.71903,19.928)" />
    <g
       id="g25"
       aria-label="s&#10;−1"
       transform="matrix(1.3333333,0,0,1.3333333,167.74,15.234667)">
      <path
         id="path26"
         d="m 3.8893359,-3.7267813 c -0.2695312,0.011719 -0.46875,0.234375 -0.46875,0.4453125 0,0.140625 0.082031,0.2929688 0.3046875,0.2929688 0.2226563,0 0.4570313,-0.1640625 0.4570313,-0.5625 0,-0.4453125 -0.4335938,-0.8554688 -1.1835938,-0.8554688 -1.3125,0 -1.6875,1.0195313 -1.6875,1.453125 0,0.7851563 0.7382813,0.9257813 1.03125,0.9960938 0.515625,0.09375 1.03125,0.1992187 1.03125,0.75 0,0.2578125 -0.2226562,1.1015625 -1.4179687,1.1015625 -0.140625,0 -0.9140625,0 -1.13671876,-0.52734375 0.37499996,0.046875 0.62109376,-0.2578125 0.62109376,-0.52734375 0,-0.234375 -0.1523438,-0.3515625 -0.3632813,-0.3515625 -0.25781246,0 -0.56249996,0.2109375 -0.56249996,0.65625 0,0.5625 0.57421876,0.9609375 1.42968746,0.9609375 1.6054688,0 2.0039063,-1.2070313 2.0039063,-1.6523438 0,-0.3515625 -0.1992188,-0.609375 -0.3164063,-0.7265625 -0.2695312,-0.28125 -0.5507812,-0.328125 -0.9960937,-0.421875 -0.3515625,-0.070312 -0.75,-0.140625 -0.75,-0.5976562 0,-0.28125 0.234375,-0.890625 1.1132812,-0.890625 0.2460938,0 0.75,0.070312 0.890625,0.4570312 z m 0,0"
         style="fill:#000000;fill-opacity:1;fill-rule:nonzero;stroke:none" />
      <path
         id="path27"
         d="m 9.8600391,-5.1857656 c 0.1054687,0 0.2695309,0 0.2695309,-0.1757813 0,-0.1757812 -0.1523434,-0.1757812 -0.2695309,-0.1757812 H 5.6998828 c -0.1054687,0 -0.28125,0 -0.28125,0.1757812 0,0.1757813 0.1640625,0.1757813 0.28125,0.1757813 z m 0,0"
         style="fill:#000000;fill-opacity:1;fill-rule:nonzero;stroke:none" />
      <path
         id="path28"
         d="m 13.22918,-8.0451406 c 0,-0.1875 -0.01172,-0.1992188 -0.210938,-0.1992188 -0.445312,0.4335938 -1.078125,0.4453125 -1.359375,0.4453125 v 0.2460938 c 0.164063,0 0.621094,0 1.007813,-0.1875 v 3.5507812 c 0,0.234375 0,0.328125 -0.691407,0.328125 h -0.269531 v 0.2460938 c 0.128906,-0.011719 0.984375,-0.023437 1.242188,-0.023437 0.210937,0 1.089843,0.011719 1.242187,0.023437 v -0.2460938 h -0.257812 c -0.703125,0 -0.703125,-0.09375 -0.703125,-0.328125 z m 0,0"
         style="fill:#000000;fill-opacity:1;fill-rule:nonzero;stroke:none" />
    </g>
    <path
       id="path29"
       d="m 129.17723,0 h 39.28708"
       style="fill:none;stroke:#000000;stroke-width:0.3985;stroke-linecap:butt;stroke-linejoin:miter;stroke-miterlimit:10;stroke-dasharray:none;stroke-opacity:1"
       transform="matrix(1.3333333,0,0,-1.3333333,36.250667,19.928)" />
    <path
       id="path30"
       d="M -2.07224,2.39104 C -1.69365,0.95639 -0.84999,0.27895 0,0 -0.84999,-0.27895 -1.69365,-0.95639 -2.07224,-2.39104"
       style="fill:none;stroke:#000000;stroke-width:0.3985;stroke-linecap:round;stroke-linejoin:round;stroke-miterlimit:10;stroke-dasharray:none;stroke-opacity:1"
       transform="matrix(1.3333333,0,0,-1.3333333,234.41265,19.928)" />
    <path
       id="path31"
       d="m 1.2642266,-0.7619375 1.0546875,-1.03125 c 1.5585937,-1.3710938 2.15625,-1.9101563 2.15625,-2.90625 0,-1.1367188 -0.9023438,-1.9335938 -2.1210938,-1.9335938 -1.125,0 -1.85156249,0.9140625 -1.85156249,1.8046875 0,0.5507813 0.4921875,0.5507813 0.52734379,0.5507813 0.1640625,0 0.515625,-0.1171875 0.515625,-0.5273438 0,-0.2578125 -0.1875,-0.515625 -0.5273438,-0.515625 -0.0820312,0 -0.10546874,0 -0.12890624,0.011719 0.22265624,-0.6445313 0.76171874,-1.0195313 1.33593754,-1.0195313 0.9140625,0 1.3359375,0.8085938 1.3359375,1.6289063 0,0.796875 -0.4921875,1.5820312 -1.0429688,2.203125 L 0.60797656,-0.3635 C 0.50250781,-0.25803125 0.50250781,-0.23459375 0.50250781,-2.1875e-4 H 4.1939141 l 0.28125,-1.73437505 H 4.2173516 c -0.046875,0.3046875 -0.1171875,0.7382813 -0.2109375,0.89062505 -0.070312,0.0820313 -0.7265625,0.0820313 -0.9492188,0.0820313 z m 0,0"
       style="fill:#000000;fill-opacity:1;fill-rule:nonzero;stroke:none"
       aria-label="2"
       transform="matrix(1.3333333,0,0,1.3333333,231.35733,15.234667)" />
    <path
       id="path32"
       d="m 171.69746,0 h 39.28707"
       style="fill:none;stroke:#000000;stroke-width:0.3985;stroke-linecap:butt;stroke-linejoin:miter;stroke-miterlimit:10;stroke-dasharray:none;stroke-opacity:1"
       transform="matrix(1.3333333,0,0,-1.3333333,36.250667,19.928)" />
    <path
       id="path33"
       d="M -2.07224,2.39104 C -1.69365,0.95639 -0.84999,0.27895 0,0 -0.84999,-0.27895 -1.69365,-0.95639 -2.07224,-2.39104"
       style="fill:none;stroke:#000000;stroke-width:0.3985;stroke-linecap:round;stroke-linejoin:round;stroke-miterlimit:10;stroke-dasharray:none;stroke-opacity:1"
       transform="matrix(1.3333333,0,0,-1.3333333,291.10629,19.928)" />
    <path
       id="path34"
       d="M 42.14838,-1.57312 C 38.4146,-17.36755 42.28854,-30.28076 54.1,-41.41156"
       style="fill:none;stroke:#000000;stroke-width:0.3985;stroke-linecap:butt;stroke-linejoin:miter;stroke-miterlimit:10;stroke-dasharray:none;stroke-opacity:1"
       transform="matrix(1.3333333,0,0,-1.3333333,36.250667,19.928)" />
    <path
       id="path35"
       d="M -2.07224,2.39104 C -1.69365,0.95639 -0.84999,0.27895 0,0 -0.84999,-0.27895 -1.69365,-0.95639 -2.07224,-2.39104"
       style="fill:none;stroke:#000000;stroke-width:0.3985;stroke-linecap:round;stroke-linejoin:round;stroke-miterlimit:10;stroke-dasharray:none;stroke-opacity:1"
       transform="matrix(0.38312,1.27704,1.27704,-0.38312,92.56748,50.662573)" />
    <path
       id="path36"
       d="M 56.89299,-42.52022 H 87.67613"
       style="fill:none;stroke:#000000;stroke-width:0.3985;stroke-linecap:butt;stroke-linejoin:miter;stroke-miterlimit:10;stroke-dasharray:none;stroke-opacity:1"
       transform="matrix(1.3333333,0,0,-1.3333333,36.250667,19.928)" />
    <path
       id="path37"
       d="M -2.07224,2.39104 C -1.69365,0.95639 -0.84999,0.27895 0,0 -0.84999,-0.27895 -1.69365,-0.95639 -2.07224,-2.39104"
       style="fill:none;stroke:#000000;stroke-width:0.3985;stroke-linecap:round;stroke-linejoin:round;stroke-miterlimit:10;stroke-dasharray:none;stroke-opacity:1"
       transform="matrix(1.3333333,0,0,-1.3333333,132.36437,76.621627)" />
    <g
       id="g37"
       aria-label="s&#10;−1"
       transform="matrix(1.3333333,0,0,1.3333333,122.38533,71.928)">
      <path
         id="path38"
         d="m 3.8916641,-3.7252969 c -0.2695313,0.011719 -0.46875,0.234375 -0.46875,0.4453125 0,0.140625 0.082031,0.2929688 0.3046875,0.2929688 0.2226562,0 0.4570312,-0.1640625 0.4570312,-0.5625 0,-0.4453125 -0.4335937,-0.8554688 -1.1835937,-0.8554688 -1.3125,0 -1.6875,1.0195313 -1.6875,1.453125 0,0.7851563 0.7382812,0.9257813 1.03125,0.9960938 0.515625,0.09375 1.03125,0.1992187 1.03125,0.75 0,0.25781248 -0.2226563,1.10156248 -1.4179688,1.10156248 -0.140625,0 -0.9140625,0 -1.13671874,-0.52734375 0.37500004,0.046875 0.62109374,-0.2578125 0.62109374,-0.52734373 0,-0.234375 -0.1523437,-0.3515625 -0.3632812,-0.3515625 -0.25781254,0 -0.56250004,0.2109375 -0.56250004,0.65624998 0,0.5625 0.57421874,0.9609375 1.42968754,0.9609375 1.6054687,0 2.0039062,-1.20703128 2.0039062,-1.65234378 0,-0.3515625 -0.1992187,-0.609375 -0.3164062,-0.7265625 -0.2695313,-0.28125 -0.5507813,-0.328125 -0.9960938,-0.421875 -0.3515625,-0.070312 -0.75,-0.140625 -0.75,-0.5976562 0,-0.28125 0.234375,-0.890625 1.1132813,-0.890625 0.2460937,0 0.75,0.070312 0.890625,0.4570312 z m 0,0"
         style="fill:#000000;fill-opacity:1;fill-rule:nonzero;stroke:none" />
      <path
         id="path39"
         d="m 9.8623672,-5.1842812 c 0.1054687,0 0.2695308,0 0.2695308,-0.1757813 0,-0.1757812 -0.1523433,-0.1757812 -0.2695308,-0.1757812 H 5.7022109 c -0.1054687,0 -0.28125,0 -0.28125,0.1757812 0,0.1757813 0.1640625,0.1757813 0.28125,0.1757813 z m 0,0"
         style="fill:#000000;fill-opacity:1;fill-rule:nonzero;stroke:none" />
      <path
         id="path40"
         d="m 13.228578,-8.0436562 c 0,-0.1875 -0.01172,-0.1992188 -0.210937,-0.1992188 -0.445313,0.4335938 -1.078125,0.4453125 -1.359375,0.4453125 v 0.2460938 c 0.164062,0 0.621093,0 1.007812,-0.1875 v 3.5507812 c 0,0.234375 0,0.328125 -0.691406,0.328125 h -0.269531 v 0.2460938 c 0.128906,-0.011719 0.984375,-0.023437 1.242187,-0.023437 0.210938,0 1.089844,0.011719 1.242188,0.023437 v -0.2460938 h -0.257813 c -0.703125,0 -0.703125,-0.09375 -0.703125,-0.328125 z m 0,0"
         style="fill:#000000;fill-opacity:1;fill-rule:nonzero;stroke:none" />
    </g>
    <path
       id="path41"
       d="M 90.90929,-42.52022 H 121.6918"
       style="fill:none;stroke:#000000;stroke-width:0.3985;stroke-linecap:butt;stroke-linejoin:miter;stroke-miterlimit:10;stroke-dasharray:none;stroke-opacity:1"
       transform="matrix(1.3333333,0,0,-1.3333333,36.250667,19.928)" />
    <path
       id="path42"
       d="M -2.07224,2.39104 C -1.69365,0.95639 -0.84999,0.27895 0,0 -0.84999,-0.27895 -1.69365,-0.95639 -2.07224,-2.39104"
       style="fill:none;stroke:#000000;stroke-width:0.3985;stroke-linecap:round;stroke-linejoin:round;stroke-miterlimit:10;stroke-dasharray:none;stroke-opacity:1"
       transform="matrix(1.3333333,0,0,-1.3333333,177.71903,76.621627)" />
    <path
       id="path43"
       d="M 124.92496,-42.52022 H 155.7081"
       style="fill:none;stroke:#000000;stroke-width:0.3985;stroke-linecap:butt;stroke-linejoin:miter;stroke-miterlimit:10;stroke-dasharray:none;stroke-opacity:1"
       transform="matrix(1.3333333,0,0,-1.3333333,36.250667,19.928)" />
    <path
       id="path44"
       d="M -2.07224,2.39104 C -1.69365,0.95639 -0.84999,0.27895 0,0 -0.84999,-0.27895 -1.69365,-0.95639 -2.07224,-2.39104"
       style="fill:none;stroke:#000000;stroke-width:0.3985;stroke-linecap:round;stroke-linejoin:round;stroke-miterlimit:10;stroke-dasharray:none;stroke-opacity:1"
       transform="matrix(1.3333333,0,0,-1.3333333,223.07367,76.621627)" />
    <g
       id="g44"
       aria-label="s&#10;−1"
       transform="matrix(1.3333333,0,0,1.3333333,213.09467,71.928)">
      <path
         id="path45"
         d="m 3.8899375,-3.7252969 c -0.2695312,0.011719 -0.46875,0.234375 -0.46875,0.4453125 0,0.140625 0.082031,0.2929688 0.3046875,0.2929688 0.2226563,0 0.4570313,-0.1640625 0.4570313,-0.5625 0,-0.4453125 -0.4335938,-0.8554688 -1.1835938,-0.8554688 -1.3125,0 -1.6875,1.0195313 -1.6875,1.453125 0,0.7851563 0.7382813,0.9257813 1.03125,0.9960938 0.515625,0.09375 1.03125,0.1992187 1.03125,0.75 0,0.25781248 -0.2226562,1.10156248 -1.4179687,1.10156248 -0.140625,0 -0.9140625,0 -1.1367188,-0.52734375 0.375,0.046875 0.6210938,-0.2578125 0.6210938,-0.52734373 0,-0.234375 -0.1523438,-0.3515625 -0.3632813,-0.3515625 -0.2578125,0 -0.5625,0.2109375 -0.5625,0.65624998 0,0.5625 0.5742188,0.9609375 1.4296875,0.9609375 1.6054688,0 2.0039063,-1.20703128 2.0039063,-1.65234378 0,-0.3515625 -0.1992188,-0.609375 -0.3164063,-0.7265625 -0.2695312,-0.28125 -0.5507812,-0.328125 -0.9960937,-0.421875 -0.3515625,-0.070312 -0.75,-0.140625 -0.75,-0.5976562 0,-0.28125 0.234375,-0.890625 1.1132812,-0.890625 0.2460938,0 0.75,0.070312 0.890625,0.4570312 z m 0,0"
         style="fill:#000000;fill-opacity:1;fill-rule:nonzero;stroke:none" />
      <path
         id="path46"
         d="m 9.8606406,-5.1842812 c 0.1054688,0 0.2695314,0 0.2695314,-0.1757813 0,-0.1757812 -0.1523439,-0.1757812 -0.2695314,-0.1757812 H 5.7004844 c -0.1054688,0 -0.28125,0 -0.28125,0.1757812 0,0.1757813 0.1640625,0.1757813 0.28125,0.1757813 z m 0,0"
         style="fill:#000000;fill-opacity:1;fill-rule:nonzero;stroke:none" />
      <path
         id="path47"
         d="m 13.226852,-8.0436562 c 0,-0.1875 -0.01172,-0.1992188 -0.210938,-0.1992188 -0.445312,0.4335938 -1.078125,0.4453125 -1.359375,0.4453125 v 0.2460938 c 0.164063,0 0.621094,0 1.007813,-0.1875 v 3.5507812 c 0,0.234375 0,0.328125 -0.691407,0.328125 h -0.269531 v 0.2460938 c 0.128906,-0.011719 0.984375,-0.023437 1.242188,-0.023437 0.210937,0 1.089843,0.011719 1.242187,0.023437 v -0.2460938 h -0.257812 c -0.703125,0 -0.703125,-0.09375 -0.703125,-0.328125 z m 0,0"
         style="fill:#000000;fill-opacity:1;fill-rule:nonzero;stroke:none" />
    </g>
    <path
       id="path48"
       d="m 158.50108,-41.41158 c 11.81147,11.1308 15.68542,24.04403 11.95165,39.83846"
       style="fill:none;stroke:#000000;stroke-width:0.3985;stroke-linecap:butt;stroke-linejoin:miter;stroke-miterlimit:10;stroke-dasharray:none;stroke-opacity:1"
       transform="matrix(1.3333333,0,0,-1.3333333,36.250667,19.928)" />
    <path
       id="path49"
       d="M -2.07224,2.39104 C -1.69365,0.95639 -0.84999,0.27895 0,0 -0.84999,-0.27895 -1.69365,-0.95639 -2.07224,-2.39104"
       style="fill:none;stroke:#000000;stroke-width:0.3985;stroke-linecap:round;stroke-linejoin:round;stroke-miterlimit:10;stroke-dasharray:none;stroke-opacity:1"
       transform="matrix(0.38312,-1.27704,-1.27704,-0.38312,263.2492,51.171467)" />
    <g
       id="g49"
       aria-label="−1"
       transform="matrix(1.3333333,0,0,1.3333333,268.01867,54.642667)">
      <path
         id="path50"
         d="m 6.5631484,-2.2954766 c 0.1757813,0 0.3515625,0 0.3515625,-0.1992187 0,-0.1992188 -0.1757812,-0.1992188 -0.3515625,-0.1992188 h -5.390625 c -0.1640625,0 -0.33984371,0 -0.33984371,0.1992188 0,0.1992187 0.17578121,0.1992187 0.33984371,0.1992187 z m 0,0"
         style="fill:#000000;fill-opacity:1;fill-rule:nonzero;stroke:none" />
      <path
         id="path51"
         d="m 10.67643,-6.3736016 c 0,-0.234375 0,-0.2578125 -0.234375,-0.2578125 -0.6093753,0.6328125 -1.4882816,0.6328125 -1.8046878,0.6328125 v 0.3164063 c 0.1992187,0 0.7851562,0 1.3007812,-0.2578125 v 5.15624999 c 0,0.3515625 -0.035156,0.48046875 -0.9257812,0.48046875 H 8.6959609 v 0.3046875 c 0.3515625,-0.03515625 1.2070313,-0.03515625 1.6054691,-0.03515625 0.398437,0 1.265625,0 1.617187,0.03515625 v -0.3046875 h -0.316406 c -0.902344,0 -0.925781,-0.1171875 -0.925781,-0.48046875 z m 0,0"
         style="fill:#000000;fill-opacity:1;fill-rule:nonzero;stroke:none" />
    </g>
    <path
       id="path52"
       d="m 126.16069,-0.80829 c -13.41449,-7.74484 -26.30579,-7.74484 -39.72029,0"
       style="fill:none;stroke:#000000;stroke-width:0.3985;stroke-linecap:butt;stroke-linejoin:miter;stroke-miterlimit:10;stroke-dasharray:none;stroke-opacity:1"
       transform="matrix(1.3333333,0,0,-1.3333333,36.250667,19.928)" />
    <path
       id="path53"
       d="M -2.07224,2.39104 C -1.69365,0.95639 -0.84999,0.27895 0,0 -0.84999,-0.27895 -1.69365,-0.95639 -2.07224,-2.39104"
       style="fill:none;stroke:#000000;stroke-width:0.3985;stroke-linecap:round;stroke-linejoin:round;stroke-miterlimit:10;stroke-dasharray:none;stroke-opacity:1"
       transform="matrix(-1.3333333,0,0,1.3333333,178.25035,28.750533)" />
    <g
       id="g53"
       aria-label="−1"
       transform="matrix(1.3333333,0,0,1.3333333,169.49733,42.004)">
      <path
         id="path54"
         d="m 6.5615703,-2.2969453 c 0.1757813,0 0.3515625,0 0.3515625,-0.1992188 0,-0.1992187 -0.1757812,-0.1992187 -0.3515625,-0.1992187 h -5.390625 c -0.1640625,0 -0.33984374,0 -0.33984374,0.1992187 0,0.1992188 0.17578124,0.1992188 0.33984374,0.1992188 z m 0,0"
         style="fill:#000000;fill-opacity:1;fill-rule:nonzero;stroke:none" />
      <path
         id="path55"
         d="m 10.677781,-6.3750703 c 0,-0.234375 0,-0.2578125 -0.234375,-0.2578125 -0.6093748,0.6328125 -1.488281,0.6328125 -1.8046873,0.6328125 v 0.3164062 c 0.1992188,0 0.7851563,0 1.3007813,-0.2578125 v 5.15625004 c 0,0.3515625 -0.035156,0.48046875 -0.9257813,0.48046875 H 8.6973125 V -7.03125e-5 C 9.048875,-0.03522656 9.9043437,-0.03522656 10.302781,-0.03522656 c 0.398438,0 1.265625,0 1.617188,0.0351562475 V -0.30475781 h -0.316407 c -0.902343,0 -0.925781,-0.1171875 -0.925781,-0.48046875 z m 0,0"
         style="fill:#000000;fill-opacity:1;fill-rule:nonzero;stroke:none" />
    </g>
    <path
       id="path56"
       d="m 87.89275,-43.32848 c -10.54252,-6.0867 -20.67386,-6.0867 -31.21637,0"
       style="fill:none;stroke:#000000;stroke-width:0.3985;stroke-linecap:butt;stroke-linejoin:miter;stroke-miterlimit:10;stroke-dasharray:none;stroke-opacity:1"
       transform="matrix(1.3333333,0,0,-1.3333333,36.250667,19.928)" />
    <path
       id="path57"
       d="M -2.07224,2.39104 C -1.69365,0.95639 -0.84999,0.27895 0,0 -0.84999,-0.27895 -1.69365,-0.95639 -2.07224,-2.39104"
       style="fill:none;stroke:#000000;stroke-width:0.3985;stroke-linecap:round;stroke-linejoin:round;stroke-miterlimit:10;stroke-dasharray:none;stroke-opacity:1"
       transform="matrix(-1.3333333,0,0,1.3333333,132.89632,83.785947)" />
    <g
       id="g57"
       aria-label="−2"
       transform="matrix(1.3333333,0,0,1.3333333,124.14267,97.04)">
      <path
         id="path58"
         d="m 6.5638984,-2.2975781 c 0.1757813,0 0.3515625,0 0.3515625,-0.1992188 0,-0.1992187 -0.1757812,-0.1992187 -0.3515625,-0.1992187 h -5.390625 c -0.1640625,0 -0.33984371,0 -0.33984371,0.1992187 0,0.1992188 0.17578121,0.1992188 0.33984371,0.1992188 z m 0,0"
         style="fill:#000000;fill-opacity:1;fill-rule:nonzero;stroke:none" />
      <path
         id="path59"
         d="M 9.0131172,-0.76242188 10.067805,-1.7936719 c 1.558593,-1.3710937 2.15625,-1.9101562 2.15625,-2.90625 0,-1.1367187 -0.902344,-1.9335937 -2.121094,-1.9335937 -1.1250001,0 -1.8515626,0.9140625 -1.8515626,1.8046875 0,0.5507812 0.4921875,0.5507812 0.5273438,0.5507812 0.1640625,0 0.515625,-0.1171875 0.515625,-0.5273437 0,-0.2578125 -0.1875,-0.515625 -0.5273438,-0.515625 -0.082031,0 -0.1054687,0 -0.1289062,0.011719 0.2226562,-0.6445312 0.7617187,-1.0195312 1.3359375,-1.0195312 0.9140623,0 1.3359373,0.8085937 1.3359373,1.6289062 0,0.796875 -0.492187,1.5820313 -1.042969,2.203125 L 8.3568672,-0.36398438 C 8.2513984,-0.25851563 8.2513984,-0.23507813 8.2513984,-7.03125e-4 h 3.6914066 l 0.28125,-1.734374975 h -0.257813 c -0.04687,0.3046875 -0.117187,0.73828122 -0.210937,0.89062497 -0.07031,0.0820313 -0.726563,0.0820313 -0.949219,0.0820313 z m 0,0"
         style="fill:#000000;fill-opacity:1;fill-rule:nonzero;stroke:none" />
    </g>
    <path
       id="path60"
       d="m 155.92471,-43.32848 c -10.54251,-6.0867 -20.67386,-6.0867 -31.21637,0"
       style="fill:none;stroke:#000000;stroke-width:0.3985;stroke-linecap:butt;stroke-linejoin:miter;stroke-miterlimit:10;stroke-dasharray:none;stroke-opacity:1"
       transform="matrix(1.3333333,0,0,-1.3333333,36.250667,19.928)" />
    <path
       id="path61"
       d="M -2.07224,2.39104 C -1.69365,0.95639 -0.84999,0.27895 0,0 -0.84999,-0.27895 -1.69365,-0.95639 -2.07224,-2.39104"
       style="fill:none;stroke:#000000;stroke-width:0.3985;stroke-linecap:round;stroke-linejoin:round;stroke-miterlimit:10;stroke-dasharray:none;stroke-opacity:1"
       transform="matrix(-1.3333333,0,0,1.3333333,223.6056,83.785947)" />
    <g
       id="g61"
       aria-label="−2"
       transform="matrix(1.3333333,0,0,1.3333333,214.852,97.04)">
      <path
         id="path62"
         d="m 6.5621719,-2.2975781 c 0.1757812,0 0.3515625,0 0.3515625,-0.1992188 0,-0.1992187 -0.1757813,-0.1992187 -0.3515625,-0.1992187 h -5.390625 c -0.1640625,0 -0.33984378,0 -0.33984378,0.1992187 0,0.1992188 0.17578128,0.1992188 0.33984378,0.1992188 z m 0,0"
         style="fill:#000000;fill-opacity:1;fill-rule:nonzero;stroke:none" />
      <path
         id="path63"
         d="M 9.0143203,-0.76242188 10.069008,-1.7936719 c 1.558594,-1.3710937 2.15625,-1.9101562 2.15625,-2.90625 0,-1.1367187 -0.902344,-1.9335937 -2.121094,-1.9335937 -1.1249999,0 -1.8515624,0.9140625 -1.8515624,1.8046875 0,0.5507812 0.4921875,0.5507812 0.5273437,0.5507812 0.1640625,0 0.515625,-0.1171875 0.515625,-0.5273437 0,-0.2578125 -0.1875,-0.515625 -0.5273437,-0.515625 -0.082031,0 -0.1054688,0 -0.1289063,0.011719 0.2226563,-0.6445312 0.7617188,-1.0195312 1.3359375,-1.0195312 0.9140622,0 1.3359372,0.8085937 1.3359372,1.6289062 0,0.796875 -0.492187,1.5820313 -1.042968,2.203125 L 8.3580703,-0.36398438 C 8.2526016,-0.25851563 8.2526016,-0.23507813 8.2526016,-7.03125e-4 h 3.6914064 l 0.28125,-1.734374975 h -0.257813 c -0.04687,0.3046875 -0.117187,0.73828122 -0.210937,0.89062497 -0.07031,0.0820313 -0.726563,0.0820313 -0.949219,0.0820313 z m 0,0"
         style="fill:#000000;fill-opacity:1;fill-rule:nonzero;stroke:none" />
    </g>
    <path
       id="path64"
       d="M 124.50447,-41.43285 168.8848,-1.08736"
       style="fill:none;stroke:#000000;stroke-width:0.3985;stroke-linecap:butt;stroke-linejoin:miter;stroke-miterlimit:10;stroke-dasharray:none;stroke-opacity:1"
       transform="matrix(1.3333333,0,0,-1.3333333,36.250667,19.928)" />
    <path
       id="path65"
       d="M -2.07224,2.39104 C -1.69365,0.95639 -0.84999,0.27895 0,0 -0.84999,-0.27895 -1.69365,-0.95639 -2.07224,-2.39104"
       style="fill:none;stroke:#000000;stroke-width:0.3985;stroke-linecap:round;stroke-linejoin:round;stroke-miterlimit:10;stroke-dasharray:none;stroke-opacity:1"
       transform="matrix(0.98653333,-0.89685333,-0.89685333,-0.98653333,231.61608,48.48128)" />
    <g
       id="g65"
       aria-label="−2"
       transform="matrix(1.3333333,0,0,1.3333333,210.17733,52.001333)">
      <path
         id="path66"
         d="m 6.5613359,-2.297875 c 0.1757813,0 0.3515625,0 0.3515625,-0.1992188 0,-0.1992187 -0.1757812,-0.1992187 -0.3515625,-0.1992187 h -5.390625 c -0.1640625,0 -0.33984371,0 -0.33984371,0.1992187 0,0.1992188 0.17578121,0.1992188 0.33984371,0.1992188 z m 0,0"
         style="fill:#000000;fill-opacity:1;fill-rule:nonzero;stroke:none" />
      <path
         id="path67"
         d="M 9.0134844,-0.76271875 10.068172,-1.7939688 c 1.558594,-1.3710937 2.15625,-1.9101562 2.15625,-2.90625 0,-1.1367187 -0.902344,-1.9335937 -2.121094,-1.9335937 -1.1249999,0 -1.8515624,0.9140625 -1.8515624,1.8046875 0,0.5507812 0.4921875,0.5507812 0.5273438,0.5507812 0.1640625,0 0.515625,-0.1171875 0.515625,-0.5273437 0,-0.2578125 -0.1875,-0.515625 -0.5273438,-0.515625 -0.082031,0 -0.1054687,0 -0.1289062,0.011719 0.2226562,-0.6445312 0.7617187,-1.0195312 1.3359375,-1.0195312 0.9140621,0 1.3359371,0.8085937 1.3359371,1.6289062 0,0.796875 -0.492187,1.5820313 -1.042968,2.203125 L 8.3572344,-0.36428125 C 8.2517656,-0.2588125 8.2517656,-0.235375 8.2517656,-0.001 h 3.6914064 l 0.28125,-1.734375 h -0.257813 c -0.04687,0.3046875 -0.117187,0.73828125 -0.210937,0.890625 -0.07031,0.0820313 -0.726563,0.0820313 -0.949219,0.0820313 z m 0,0"
         style="fill:#000000;fill-opacity:1;fill-rule:nonzero;stroke:none" />
    </g>
  </g>
</svg>
