<?xml version="1.0" encoding="UTF-8" standalone="no"?>
<!-- Created with Inkscape (http://www.inkscape.org/) -->

<svg
   version="1.1"
   id="svg1"
   width="157.96001"
   height="103.89333"
   viewBox="0 0 157.96001 103.89333"
   sodipodi:docname="25-26-1-信号与系統-期末-题图3.pdf"
   xmlns:inkscape="http://www.inkscape.org/namespaces/inkscape"
   xmlns:sodipodi="http://sodipodi.sourceforge.net/DTD/sodipodi-0.dtd"
   xmlns="http://www.w3.org/2000/svg"
   xmlns:svg="http://www.w3.org/2000/svg">
  <defs
     id="defs1" />
  <sodipodi:namedview
     id="namedview1"
     pagecolor="#ffffff"
     bordercolor="#000000"
     borderopacity="0.25"
     inkscape:showpageshadow="2"
     inkscape:pageopacity="0.0"
     inkscape:pagecheckerboard="0"
     inkscape:deskcolor="#d1d1d1">
    <inkscape:page
       x="0"
       y="0"
       inkscape:label="1"
       id="page1"
       width="157.96001"
       height="103.89333"
       margin="0"
       bleed="0" />
  </sodipodi:namedview>
  <g
     id="g1"
     inkscape:groupmode="layer"
     inkscape:label="1">
    <path
       id="path1"
       d="M -55.27641,0 H 54.8779"
       style="fill:none;stroke:#000000;stroke-width:0.3985;stroke-linecap:butt;stroke-linejoin:miter;stroke-miterlimit:10;stroke-dasharray:none;stroke-opacity:1"
       transform="matrix(1.3333333,0,0,-1.3333333,75.465333,84.766667)" />
    <path
       id="path2"
       d="M -2.07224,2.39104 C -1.69365,0.95639 -0.84999,0.27895 0,0 -0.84999,-0.27895 -1.69365,-0.95639 -2.07224,-2.39104"
       style="fill:none;stroke:#000000;stroke-width:0.3985;stroke-linecap:round;stroke-linejoin:round;stroke-miterlimit:10;stroke-dasharray:none;stroke-opacity:1"
       transform="matrix(1.3333333,0,0,-1.3333333,148.90153,84.766667)" />
    <path
       id="path3"
       d="m 6.0221641,-3.7023594 c 0,-0.4453125 -0.1757813,-0.703125 -0.3984375,-0.703125 -0.2578125,0 -0.5273438,0.2460938 -0.5273438,0.46875 0,0.1054688 0.046875,0.2109375 0.1523438,0.3046875 0.1640625,0.140625 0.3515625,0.4101563 0.3515625,0.8320313 0,0.3984375 -0.1875,0.9726562 -0.5039063,1.4296875 -0.2929687,0.42187498 -0.6679687,0.76171873 -1.1367187,0.76171873 -0.5625,0 -0.8671875,-0.3515625 -0.9609375,-0.89062503 0.1054687,-0.2578125 0.3398437,-0.9023437 0.3398437,-1.1835937 0,-0.1171875 -0.046875,-0.2109375 -0.1875,-0.2109375 -0.070312,0 -0.1875,0.011719 -0.2578125,0.1640625 -0.1171875,0.1992187 -0.234375,0.84375 -0.234375,1.2070312 -0.328125,0.46875 -0.7265625,0.91406253 -1.359375,0.91406253 -0.65624999,0 -0.86718749,-0.58593753 -0.86718749,-1.14843753 0,-1.2421875 1.01953129,-2.2851562 1.01953129,-2.4140625 0,-0.1171875 -0.082031,-0.1875 -0.1875,-0.1875 -0.1289063,0 -0.1992188,0.1289063 -0.2578125,0.2109375 -0.50390629,0.7382813 -0.89062504,1.921875 -0.89062504,2.8359375 0,0.67968753 0.234375,1.41796878 1.04296874,1.41796878 0.7148438,0 1.1835938,-0.4921875 1.5351563,-1.04296875 0.09375,0.57421875 0.4804687,1.04296875 1.1015625,1.04296875 0.7734375,0 1.2539062,-0.609375 1.6171875,-1.34765628 0.234375,-0.4921875 0.609375,-1.8515625 0.609375,-2.4609375 z m 0,0"
       style="fill:#000000;fill-opacity:1;fill-rule:nonzero;stroke:none"
       aria-label="ω"
       transform="matrix(1.3333333,0,0,1.3333333,144.79467,95.178667)" />
    <path
       id="path4"
       d="M 0,0 V 54.8779"
       style="fill:none;stroke:#000000;stroke-width:0.3985;stroke-linecap:butt;stroke-linejoin:miter;stroke-miterlimit:10;stroke-dasharray:none;stroke-opacity:1"
       transform="matrix(1.3333333,0,0,-1.3333333,75.465333,84.766667)" />
    <path
       id="path5"
       d="M -2.07224,2.39104 C -1.69365,0.95639 -0.84999,0.27895 0,0 -0.84999,-0.27895 -1.69365,-0.95639 -2.07224,-2.39104"
       style="fill:none;stroke:#000000;stroke-width:0.3985;stroke-linecap:round;stroke-linejoin:round;stroke-miterlimit:10;stroke-dasharray:none;stroke-opacity:1"
       transform="matrix(0,-1.3333333,-1.3333333,0,75.465333,11.330467)" />
    <path
       id="path6"
       d="m 7.3712266,-4.3463594 c 0,-1.59375 -1.0546875,-2.671875 -2.5429688,-2.671875 -2.1445312,0 -4.33593749,2.2617188 -4.33593749,4.5820313 0,1.65234372 1.11328129,2.66015622 2.54296879,2.66015622 2.109375,0 4.3359375,-2.17968752 4.3359375,-4.57031252 z m -4.2773438,4.31250002 c -0.984375,0 -1.6757812,-0.80859375 -1.6757812,-2.12109372 0,-0.4453125 0.140625,-1.8984375 0.9023437,-3.0585938 0.6914063,-1.0429687 1.6640625,-1.5585937 2.4492188,-1.5585937 0.8203125,0 1.7109375,0.5625 1.7109375,2.0390625 0,0.7148437 -0.2695313,2.2734375 -1.2539063,3.5039062 -0.4804687,0.59765627 -1.2890625,1.19531252 -2.1328125,1.19531252 z m 0,0"
       style="fill:#000000;fill-opacity:1;fill-rule:nonzero;stroke:none"
       aria-label="O"
       transform="matrix(1.3333333,0,0,1.3333333,70.214667,98.537333)" />
    <g
       id="g6"
       aria-label="X(ω)"
       transform="matrix(1.3333333,0,0,1.3333333,80.158667,14.385333)">
      <path
         id="path7"
         d="M 4.8292422,-4.0888047 3.9972109,-6.0809922 c -0.035156,-0.070312 -0.046875,-0.1171875 -0.046875,-0.1289062 0,-0.058594 0.1640625,-0.2460938 0.5859375,-0.28125 0.09375,-0.011719 0.1992188,-0.023437 0.1992188,-0.1875 0,-0.1289063 -0.1171875,-0.1289063 -0.1523438,-0.1289063 -0.4101562,0 -0.8320312,0.035156 -1.2539062,0.035156 -0.2460938,0 -0.8671875,-0.035156 -1.1132813,-0.035156 -0.058594,0 -0.1875,0 -0.1875,0.1992188 0,0.1171875 0.1054688,0.1171875 0.234375,0.1171875 0.5976563,0 0.65625,0.09375 0.75,0.3164062 l 1.171875,2.7773438 -2.0976562,2.2617187 -0.1289063,0.1054688 c -0.4921875,0.52734371 -0.96093746,0.69140621 -1.46484371,0.72656246 -0.12890625,0 -0.22265625,0 -0.22265625,0.19921875 0,0 0,0.10546875 0.12890625,0.10546875 0.3046875,0 0.63281251,-0.03515625 0.93750001,-0.03515625 0.3632812,0 0.7617187,0.03515625 1.1132812,0.03515625 0.058594,0 0.1757813,0 0.1757813,-0.19921875 0,-0.10546875 -0.09375,-0.10546875 -0.1171875,-0.10546875 -0.082031,-0.0117188 -0.3984375,-0.0351563 -0.3984375,-0.31640625 0,-0.15234375 0.1523437,-0.31640625 0.2695312,-0.44531251 l 1.0195313,-1.078125 0.890625,-0.9726562 1.0078125,2.37890621 c 0.046875,0.10546875 0.046875,0.1171875 0.046875,0.140625 0,0.0820313 -0.1875,0.24609375 -0.5742188,0.29296875 -0.1054687,0 -0.1992187,0.0117188 -0.1992187,0.1875 0,0.1171875 0.1171875,0.1171875 0.1523437,0.1171875 0.28125,0 0.9726563,-0.03515625 1.2539063,-0.03515625 0.2460937,0 0.8554687,0.03515625 1.1015625,0.03515625 0.070312,0 0.1992187,0 0.1992187,-0.1875 0,-0.1171875 -0.1054687,-0.1171875 -0.1875,-0.1171875 -0.6679687,-0.0117188 -0.6796875,-0.046875 -0.8554687,-0.4453125 C 5.8487734,-1.6747422 5.1808047,-3.2216172 4.9464297,-3.8192734 c 0.6796875,-0.703125 1.734375,-1.8867188 2.0507812,-2.1679688 0.28125,-0.234375 0.6679688,-0.4804687 1.265625,-0.5039062 0.1289063,-0.011719 0.2109375,-0.011719 0.2109375,-0.1992188 0,-0.011719 0,-0.1171875 -0.1289062,-0.1171875 -0.2929688,0 -0.6210938,0.035156 -0.9375,0.035156 -0.3632813,0 -0.7382813,-0.035156 -1.1015625,-0.035156 -0.058594,0 -0.1875,0 -0.1875,0.1992188 0,0.070312 0.046875,0.1054687 0.1171875,0.1171875 0.09375,0.011719 0.3984375,0.023437 0.3984375,0.3046875 0,0.140625 -0.1054688,0.2695312 -0.1875,0.3632812 z m 0,0"
         style="fill:#000000;fill-opacity:1;fill-rule:nonzero;stroke:none" />
      <path
         id="path8"
         d="m 12.329242,2.3916641 c 0,-0.035156 0,-0.046875 -0.164062,-0.2226563 -1.242188,-1.25390624 -1.570313,-3.12890624 -1.570313,-4.6640625 0,-1.7226562 0.386719,-3.4570312 1.605469,-4.7109375 0.128906,-0.1171875 0.128906,-0.1289062 0.128906,-0.1640625 0,-0.070312 -0.03516,-0.1054687 -0.09375,-0.1054687 -0.105469,0 -0.996094,0.6796875 -1.582031,1.9453125 -0.515625,1.1015625 -0.632813,2.203125 -0.632813,3.0351562 0,0.7851563 0.117188,1.99218751 0.65625,3.11718751 0.597657,1.21874999 1.453125,1.87499999 1.558594,1.87499999 0.05859,0 0.09375,-0.035156 0.09375,-0.1054687 z m 0,0"
         style="fill:#000000;fill-opacity:1;fill-rule:nonzero;stroke:none" />
      <path
         id="path9"
         d="m 18.932758,-3.7020859 c 0,-0.4453125 -0.175781,-0.703125 -0.398438,-0.703125 -0.257812,0 -0.527343,0.2460937 -0.527343,0.46875 0,0.1054687 0.04687,0.2109375 0.152343,0.3046875 0.164063,0.140625 0.351563,0.4101562 0.351563,0.8320312 0,0.3984375 -0.1875,0.9726563 -0.503906,1.4296875 -0.292969,0.42187501 -0.667969,0.76171876 -1.136719,0.76171876 -0.5625,0 -0.867188,-0.3515625 -0.960938,-0.89062496 0.105469,-0.2578125 0.339844,-0.9023438 0.339844,-1.1835938 0,-0.1171875 -0.04687,-0.2109375 -0.1875,-0.2109375 -0.07031,0 -0.1875,0.011719 -0.257812,0.1640625 -0.117188,0.1992188 -0.234375,0.84375 -0.234375,1.2070313 -0.328125,0.46875 -0.726563,0.91406246 -1.359375,0.91406246 -0.65625,0 -0.867188,-0.58593746 -0.867188,-1.14843746 0,-1.2421875 1.019531,-2.2851563 1.019531,-2.4140625 0,-0.1171875 -0.08203,-0.1875 -0.1875,-0.1875 -0.128906,0 -0.199218,0.1289062 -0.257812,0.2109375 -0.503906,0.7382812 -0.890625,1.921875 -0.890625,2.8359375 0,0.67968746 0.234375,1.41796871 1.042969,1.41796871 0.714843,0 1.183593,-0.4921875 1.535156,-1.04296875 0.09375,0.57421875 0.480469,1.04296875 1.101562,1.04296875 0.773438,0 1.253907,-0.609375 1.617188,-1.34765621 0.234375,-0.4921875 0.609375,-1.8515625 0.609375,-2.4609375 z m 0,0"
         style="fill:#000000;fill-opacity:1;fill-rule:nonzero;stroke:none" />
      <path
         id="path10"
         d="m 22.351703,-2.4950547 c 0,-0.7734375 -0.117187,-1.9804687 -0.65625,-3.1054687 -0.597656,-1.21875 -1.464844,-1.875 -1.558594,-1.875 -0.05859,0 -0.105468,0.046875 -0.105468,0.1054687 0,0.035156 0,0.046875 0.199218,0.234375 0.972657,0.984375 1.535157,2.5664063 1.535157,4.640625 0,1.71093751 -0.363282,3.45703126 -1.59375,4.7226563 -0.140625,0.1171875 -0.140625,0.1289062 -0.140625,0.1640625 0,0.058594 0.04687,0.1054687 0.105468,0.1054687 0.09375,0 0.996094,-0.6796875 1.582032,-1.94531249 0.503906,-1.1015625 0.632812,-2.20312501 0.632812,-3.04687501 z m 0,0"
         style="fill:#000000;fill-opacity:1;fill-rule:nonzero;stroke:none" />
    </g>
    <path
       id="path11"
       d="M -42.52022,0 0,42.52022 42.52022,0"
       style="fill:none;stroke:#000000;stroke-width:0.79701;stroke-linecap:butt;stroke-linejoin:miter;stroke-miterlimit:10;stroke-dasharray:none;stroke-opacity:1"
       transform="matrix(1.3333333,0,0,-1.3333333,75.465333,84.766667)" />
    <g
       id="g11"
       aria-label="−ω&#10;m"
       transform="matrix(1.3333333,0,0,1.3333333,4.4266667,97.474667)">
      <path
         id="path12"
         d="m 6.5618359,-2.2954531 c 0.1757813,0 0.3515625,0 0.3515625,-0.1992188 0,-0.1992187 -0.1757812,-0.1992187 -0.3515625,-0.1992187 h -5.390625 c -0.1640625,0 -0.33984371,0 -0.33984371,0.1992187 0,0.1992188 0.17578121,0.1992188 0.33984371,0.1992188 z m 0,0"
         style="fill:#000000;fill-opacity:1;fill-rule:nonzero;stroke:none" />
      <path
         id="path13"
         d="m 13.771797,-3.7017031 c 0,-0.4453125 -0.175781,-0.703125 -0.398438,-0.703125 -0.257812,0 -0.527343,0.2460937 -0.527343,0.46875 0,0.1054687 0.04687,0.2109375 0.152343,0.3046875 0.164063,0.140625 0.351563,0.4101562 0.351563,0.8320312 0,0.3984375 -0.1875,0.9726563 -0.503906,1.4296875 -0.292969,0.42187503 -0.667969,0.76171878 -1.136719,0.76171878 -0.5625,0 -0.867188,-0.3515625 -0.960938,-0.89062498 0.105469,-0.2578125 0.339844,-0.9023438 0.339844,-1.1835938 0,-0.1171875 -0.04687,-0.2109375 -0.1875,-0.2109375 -0.07031,0 -0.1875,0.011719 -0.257812,0.1640625 -0.117188,0.1992188 -0.234375,0.84375 -0.234375,1.2070313 -0.328125,0.46875 -0.7265629,0.91406248 -1.3593754,0.91406248 -0.65625,0 -0.8671875,-0.58593748 -0.8671875,-1.14843748 0,-1.2421875 1.0195313,-2.2851563 1.0195313,-2.4140625 0,-0.1171875 -0.082031,-0.1875 -0.1875,-0.1875 -0.1289063,0 -0.1992188,0.1289062 -0.2578125,0.2109375 -0.5039063,0.7382812 -0.890625,1.921875 -0.890625,2.8359375 0,0.67968748 0.234375,1.41796873 1.0429687,1.41796873 0.7148438,0 1.1835934,-0.4921875 1.5351564,-1.04296875 0.09375,0.57421875 0.480469,1.04296875 1.101562,1.04296875 0.773438,0 1.253907,-0.609375 1.617188,-1.34765623 0.234375,-0.4921875 0.609375,-1.8515625 0.609375,-2.4609375 z m 0,0"
         style="fill:#000000;fill-opacity:1;fill-rule:nonzero;stroke:none" />
      <path
         id="path14"
         d="m 16.973945,0.93013281 c -0.03516,0.14062499 -0.09375,0.37499999 -0.09375,0.41015629 0,0.1523437 0.128907,0.2226562 0.234375,0.2226562 0.128907,0 0.234375,-0.09375 0.269532,-0.1523437 0.03516,-0.058594 0.09375,-0.2929688 0.128906,-0.43359379 0.03516,-0.12890625 0.117187,-0.45703125 0.152344,-0.6328125 0.04687,-0.15234375 0.08203,-0.3046875 0.117187,-0.45703125 0.08203,-0.3046875 0.08203,-0.31640625 0.222656,-0.5390625 0.222657,-0.33984375 0.5625,-0.73828126 1.113282,-0.73828126 0.386718,0 0.410156,0.328125 0.410156,0.49218751 0,0.421875 -0.304688,1.1953125 -0.410156,1.48828125 -0.08203,0.1875 -0.105469,0.2578125 -0.105469,0.375 0,0.36328124 0.304687,0.59765624 0.65625,0.59765624 0.703125,0 1.007812,-0.96093749 1.007812,-1.06640624 0,-0.09375 -0.09375,-0.09375 -0.105468,-0.09375 -0.105469,0 -0.105469,0.046875 -0.140625,0.1171875 -0.152344,0.56250004 -0.457032,0.84375004 -0.738282,0.84375004 -0.140625,0 -0.175781,-0.09375 -0.175781,-0.2460938 0,-0.15234374 0.03516,-0.24609374 0.164063,-0.56249999 0.08203,-0.2109375 0.375,-0.94921875 0.375,-1.34765625 0,-0.10546875 0,-0.39843746 -0.257813,-0.59765626 -0.128906,-0.09375 -0.328125,-0.1875 -0.65625,-0.1875 -0.621094,0 -1.007812,0.4101563 -1.230469,0.70312501 -0.05859,-0.59765621 -0.550781,-0.70312501 -0.902343,-0.70312501 -0.585938,0 -0.972657,0.3515625 -1.183594,0.63281251 -0.04687,-0.48046871 -0.457031,-0.63281251 -0.75,-0.63281251 -0.292969,0 -0.457031,0.2109375 -0.550781,0.375 -0.152344,0.25781251 -0.246094,0.65625001 -0.246094,0.69140626 0,0.0820312 0.09375,0.0820312 0.117187,0.0820312 0.09375,0 0.105469,-0.0117188 0.152344,-0.19921875 0.105469,-0.42187491 0.234375,-0.76171881 0.515625,-0.76171881 0.175781,0 0.222656,0.1523438 0.222656,0.3398438 0,0.14062501 -0.05859,0.39843751 -0.105468,0.58593751 -0.04687,0.1875 -0.117188,0.46875 -0.152344,0.62109375 L 14.805977,1.0590391 c -0.03516,0.082031 -0.07031,0.2578125 -0.07031,0.28125 0,0.1523437 0.117188,0.2226562 0.234375,0.2226562 0.128906,0 0.234375,-0.09375 0.269531,-0.1523437 0.03516,-0.058594 0.09375,-0.2929688 0.128907,-0.43359379 0.03516,-0.12890625 0.105468,-0.45703125 0.152343,-0.6328125 0.03516,-0.15234375 0.08203,-0.3046875 0.117188,-0.45703125 0.08203,-0.29296875 0.09375,-0.3515625 0.292969,-0.6328125 0.199218,-0.28124996 0.527343,-0.64453126 1.042968,-0.64453126 0.410157,0 0.410157,0.3632813 0.410157,0.49218751 0,0.17578125 -0.01172,0.26953125 -0.117188,0.65625 z m 0,0"
         style="fill:#000000;fill-opacity:1;fill-rule:nonzero;stroke:none" />
    </g>
    <path
       id="path15"
       d="m 2.9310781,-6.3760391 c 0,-0.234375 0,-0.2578125 -0.234375,-0.2578125 -0.609375,0.6328125 -1.4882812,0.6328125 -1.80468748,0.6328125 v 0.3164063 c 0.19921878,0 0.78515628,0 1.30078128,-0.2578125 v 5.15624999 c 0,0.3515625 -0.035156,0.48046875 -0.9257813,0.48046875 H 0.95060937 v 0.3046875 C 1.3021719,-0.03619531 2.1576406,-0.03619531 2.5560781,-0.03619531 c 0.3984375,0 1.265625,0 1.6171875,0.03515625 v -0.3046875 H 3.8568594 c -0.9023438,0 -0.9257813,-0.1171875 -0.9257813,-0.48046875 z m 0,0"
       style="fill:#000000;fill-opacity:1;fill-rule:nonzero;stroke:none"
       aria-label="1"
       transform="matrix(1.3333333,0,0,1.3333333,63.865333,23.114667)" />
    <g
       id="g15"
       aria-label="ω&#10;m"
       transform="matrix(1.3333333,0,0,1.3333333,122.98,95.445333)">
      <path
         id="path16"
         d="m 6.0237891,-3.7031406 c 0,-0.4453125 -0.1757813,-0.703125 -0.3984375,-0.703125 -0.2578125,0 -0.5273438,0.2460937 -0.5273438,0.46875 0,0.1054687 0.046875,0.2109375 0.1523438,0.3046875 0.1640625,0.140625 0.3515625,0.4101562 0.3515625,0.8320312 0,0.3984375 -0.1875,0.9726563 -0.5039063,1.4296875 -0.2929687,0.42187502 -0.6679687,0.76171877 -1.1367187,0.76171877 -0.5625,0 -0.8671875,-0.3515625 -0.9609375,-0.89062497 0.1054687,-0.2578125 0.3398437,-0.9023438 0.3398437,-1.1835938 0,-0.1171875 -0.046875,-0.2109375 -0.1875,-0.2109375 -0.070312,0 -0.1875,0.011719 -0.2578125,0.1640625 -0.1171875,0.1992188 -0.234375,0.84375 -0.234375,1.2070313 -0.328125,0.46875 -0.7265625,0.91406247 -1.359375,0.91406247 -0.65624999,0 -0.86718749,-0.58593747 -0.86718749,-1.14843747 0,-1.2421875 1.01953129,-2.2851563 1.01953129,-2.4140625 0,-0.1171875 -0.082031,-0.1875 -0.1875,-0.1875 -0.1289063,0 -0.1992188,0.1289062 -0.2578125,0.2109375 -0.50390629,0.7382812 -0.89062504,1.921875 -0.89062504,2.8359375 0,0.67968747 0.234375,1.41796872 1.04296874,1.41796872 0.7148438,0 1.1835938,-0.4921875 1.5351563,-1.04296875 0.09375,0.57421875 0.4804687,1.04296875 1.1015625,1.04296875 0.7734375,0 1.2539062,-0.609375 1.6171875,-1.34765622 0.234375,-0.4921875 0.609375,-1.8515625 0.609375,-2.4609375 z m 0,0"
         style="fill:#000000;fill-opacity:1;fill-rule:nonzero;stroke:none" />
      <path
         id="path17"
         d="m 9.2230078,0.931625 c -0.035156,0.140625 -0.09375,0.375 -0.09375,0.4101562 0,0.1523438 0.1289063,0.2226563 0.234375,0.2226563 0.1289063,0 0.234375,-0.09375 0.2695313,-0.1523438 C 9.6683203,1.3535 9.7269141,1.119125 9.7620703,0.9785 9.7972266,0.84959375 9.8792578,0.52146875 9.9144141,0.3456875 9.9612891,0.19334375 9.9964453,0.041 10.031602,-0.11134375 c 0.08203,-0.3046875 0.08203,-0.31640625 0.222656,-0.5390625 0.222656,-0.33984375 0.5625,-0.73828125 1.113281,-0.73828125 0.386719,0 0.410156,0.328125 0.410156,0.4921875 0,0.421875 -0.304687,1.1953125 -0.410156,1.48828125 -0.08203,0.1875 -0.105469,0.2578125 -0.105469,0.375 0,0.36328125 0.304688,0.59765625 0.65625,0.59765625 0.703125,0 1.007813,-0.9609375 1.007813,-1.06640625 0,-0.09375 -0.09375,-0.09375 -0.105469,-0.09375 -0.105469,0 -0.105469,0.046875 -0.140625,0.1171875 -0.152344,0.56249995 -0.457031,0.84374995 -0.738281,0.84374995 -0.140625,0 -0.175781,-0.09375 -0.175781,-0.2460937 0,-0.15234375 0.03516,-0.24609375 0.164062,-0.5625 0.08203,-0.2109375 0.375,-0.94921875 0.375,-1.34765625 0,-0.10546875 0,-0.39843755 -0.257812,-0.59765625 -0.128907,-0.09375 -0.328125,-0.1875 -0.65625,-0.1875 -0.621094,0 -1.007813,0.4101562 -1.230469,0.703125 -0.05859,-0.5976563 -0.5507814,-0.703125 -0.9023439,-0.703125 -0.5859375,0 -0.9726563,0.3515625 -1.1835938,0.6328125 -0.046875,-0.4804688 -0.4570312,-0.6328125 -0.75,-0.6328125 -0.2929687,0 -0.4570312,0.2109375 -0.5507812,0.375 -0.1523438,0.2578125 -0.2460938,0.65625 -0.2460938,0.69140625 0,0.0820312 0.09375,0.0820312 0.1171875,0.0820312 0.09375,0 0.1054688,-0.0117188 0.1523438,-0.19921875 0.1054687,-0.4218751 0.234375,-0.7617188 0.515625,-0.7617188 0.1757812,0 0.2226562,0.1523437 0.2226562,0.3398437 0,0.1406251 -0.058594,0.3984376 -0.1054687,0.5859376 -0.046875,0.1875 -0.1171875,0.46875 -0.1523438,0.62109375 L 7.0550391,1.0605312 c -0.035156,0.082031 -0.070312,0.2578125 -0.070312,0.28125 0,0.1523438 0.1171875,0.2226563 0.234375,0.2226563 0.1289062,0 0.234375,-0.09375 0.2695312,-0.1523438 C 7.5237891,1.3535 7.5823828,1.119125 7.6175391,0.9785 7.6526953,0.84959375 7.7230078,0.52146875 7.7698828,0.3456875 7.8050391,0.19334375 7.8519141,0.041 7.8870703,-0.11134375 c 0.082031,-0.29296875 0.09375,-0.3515625 0.2929688,-0.6328125 0.1992187,-0.28125005 0.5273437,-0.64453125 1.0429687,-0.64453125 0.4101563,0 0.4101563,0.3632812 0.4101563,0.4921875 0,0.17578125 -0.011719,0.26953125 -0.1171875,0.65625 z m 0,0"
         style="fill:#000000;fill-opacity:1;fill-rule:nonzero;stroke:none" />
    </g>
  </g>
</svg>
