<?xml version="1.0" encoding="UTF-8"?>
<svg width="840" height="200" viewBox="0 0 840 200" xmlns="http://www.w3.org/2000/svg">
  <style>
    .grid { stroke: #cccccc; stroke-width: 1; stroke-dasharray: 4 2; }
    .waveform { stroke: #000000; stroke-width: 3; fill: none; }
    .arrow { stroke: #000000; stroke-width: 2.5; fill: none; stroke-linecap: round; }
    .label { font-family: 'Arial', sans-serif; font-size: 32px; text-anchor: middle; fill: #000000; }
  </style>

  <title>Manchester Encoding for 10010111</title>

  <!-- 网格线 -->
  <g class="grid">
    <!-- 水平中心线 -->
    <line x1="0" y1="100" x2="840" y2="100" />
    <!-- 垂直比特分隔线 -->
    <line x1="20" y1="40" x2="20" y2="160" />
    <line x1="120" y1="40" x2="120" y2="160" />
    <line x1="220" y1="40" x2="220" y2="160" />
    <line x1="320" y1="40" x2="320" y2="160" />
    <line x1="420" y1="40" x2="420" y2="160" />
    <line x1="520" y1="40" x2="520" y2="160" />
    <line x1="620" y1="40" x2="620" y2="160" />
    <line x1="720" y1="40" x2="720" y2="160" />
    <line x1="820" y1="40" x2="820" y2="160" />
  </g>

  <!-- 波形路径 -->
  <path class="waveform" d="
    M 20,50  L 70,50  L 70,150 L 120,150  
    L 170,150 L 170,50  L 220,50   
    L 220,150 L 270,150 L 270,50  L 320,50   
    L 370,50  L 370,150 L 420,150  
    L 420,50  L 470,50  L 470,150 L 520,150  
    L 520,50  L 570,50  L 570,150 L 620,150  
    L 670,150 L 670,50  L 720,50
    L 720,150 L 770,150 L 770,50  L 820,50
  "/>
  <!-- 在原图中，最后一位1后面也有一条线，如果需要可以加上 -->
  <!-- L 820,150 L 870,150 L 870,50  L 920,50 -->
  

  <!-- 箭头 -->
  <g class="arrow">
    <!-- 1: 向下 -->
    <path d="M 65,90 L 70,100 L 75,90" />
    <!-- 0: 向上 -->
    <path d="M 165,110 L 170,100 L 175,110" />
    <!-- 0: 向上 -->
    <path d="M 265,110 L 270,100 L 275,110" />
    <!-- 1: 向下 -->
    <path d="M 365,90 L 370,100 L 375,90" />
    <!-- 0: 向上 -->
    <path d="M 465,110 L 470,100 L 475,110" />
    <!-- 1: 向下 -->
    <path d="M 565,90 L 570,100 L 575,90" />
    <!-- 1: 向下 -->
    <path d="M 665,90 L 670,100 L 675,90" />
    <!-- 1: 向下 -->
    <path d="M 765,90 L 770,100 L 775,90" />
  </g>

  <!-- 二进制数字标签 -->
  <g class="label">
    <text x="70" y="30">1</text>
    <text x="170" y="30">0</text>
    <text x="270" y="30">0</text>
    <text x="370" y="30">1</text>
    <text x="470" y="30">0</text>
    <text x="570" y="30">1</text>
    <text x="670" y="30">1</text>
    <text x="770" y="30">1</text>
  </g>
</svg>