<?xml version="1.0" encoding="UTF-8" standalone="no"?>
<!-- Created with Inkscape (http://www.inkscape.org/) -->

<svg
   version="1.1"
   id="svg1"
   width="150.88"
   height="138.50667"
   viewBox="0 0 150.88 138.50667"
   sodipodi:docname="24-25-2-电路与电子学基础-期中-解答7-等效电路.pdf"
   xmlns:inkscape="http://www.inkscape.org/namespaces/inkscape"
   xmlns:sodipodi="http://sodipodi.sourceforge.net/DTD/sodipodi-0.dtd"
   xmlns="http://www.w3.org/2000/svg"
   xmlns:svg="http://www.w3.org/2000/svg">
  <defs
     id="defs1" />
  <sodipodi:namedview
     id="namedview1"
     pagecolor="#ffffff"
     bordercolor="#000000"
     borderopacity="0.25"
     inkscape:showpageshadow="2"
     inkscape:pageopacity="0.0"
     inkscape:pagecheckerboard="0"
     inkscape:deskcolor="#d1d1d1">
    <inkscape:page
       x="0"
       y="0"
       inkscape:label="1"
       id="page1"
       width="150.88"
       height="138.50667"
       margin="0"
       bleed="0" />
  </sodipodi:namedview>
  <g
     id="g1"
     inkscape:groupmode="layer"
     inkscape:label="1">
    <path
       id="path1"
       d="m 0,0 v 23.52779 m 0,23.81144 v 23.5278 l 31.46503,-1e-5 m 7.93695,0 31.46505,1e-5 M 70.86703,0 H 0"
       style="fill:none;stroke:#000000;stroke-width:0.3985;stroke-linecap:butt;stroke-linejoin:miter;stroke-miterlimit:10;stroke-dasharray:none;stroke-opacity:1"
       transform="matrix(1.3333333,0,0,-1.3333333,37.312,129.544)" />
    <path
       id="path2"
       d="m -11.90572,35.4335 c 0,-6.5754 5.33031,-11.90571 11.90572,-11.90571 6.57541,0 11.90572,5.33031 11.90572,11.90571 0,6.57543 -5.33031,11.90573 -11.90572,11.90573 -6.57541,0 -11.90572,-5.3303 -11.90572,-11.90573 z"
       style="fill:none;stroke:#000000;stroke-width:0.797;stroke-linecap:butt;stroke-linejoin:miter;stroke-miterlimit:10;stroke-dasharray:none;stroke-opacity:1"
       transform="matrix(1.3333333,0,0,-1.3333333,37.312,129.544)" />
    <path
       id="path3"
       d="M 0,23.52779 V 47.33923"
       style="fill:none;stroke:#000000;stroke-width:0.797;stroke-linecap:butt;stroke-linejoin:miter;stroke-miterlimit:10;stroke-dasharray:none;stroke-opacity:1"
       transform="matrix(1.3333333,0,0,-1.3333333,37.312,129.544)" />
    <path
       id="path4"
       d="m 6.5620547,-2.2968125 c 0.1757812,0 0.3515625,0 0.3515625,-0.1992187 0,-0.1992188 -0.1757813,-0.1992188 -0.3515625,-0.1992188 h -5.390625 c -0.1640625,0 -0.33984376,0 -0.33984376,0.1992188 0,0.1992187 0.17578126,0.1992187 0.33984376,0.1992187 z m 0,0"
       style="fill:#000000;fill-opacity:1;fill-rule:nonzero;stroke:none"
       aria-label="−"
       transform="matrix(1.3333333,0,0,1.3333333,11.192,97.718667)" />
    <path
       id="path5"
       d="m 4.0776797,-2.2982266 h 2.7773437 c 0.140625,0 0.328125,0 0.328125,-0.1992187 0,-0.1992188 -0.1875,-0.1992188 -0.328125,-0.1992188 H 4.0776797 v -2.7890625 c 0,-0.1289062 0,-0.328125 -0.1992188,-0.328125 -0.1992187,0 -0.1992187,0.1992188 -0.1992187,0.328125 v 2.7890625 H 0.89017969 c -0.140625,0 -0.328125,0 -0.328125,0.1992188 0,0.1992187 0.1875,0.1992187 0.328125,0.1992187 H 3.6792422 v 2.80078129 c 0,0.12890625 0,0.328125 0.1992187,0.328125 0.1992188,0 0.1992188,-0.19921875 0.1992188,-0.328125 z m 0,0"
       style="fill:#000000;fill-opacity:1;fill-rule:nonzero;stroke:none"
       aria-label="+"
       transform="matrix(1.3333333,0,0,1.3333333,11.192,73.521333)" />
    <path
       id="path6"
       d="m 3.492375,-0.56138281 c 0.1054687,0.41015625 0.4570312,0.66796875 0.8789062,0.66796875 0.3515625,0 0.5742188,-0.22265625 0.7382813,-0.5390625 C 5.2853437,-0.79575781 5.41425,-1.4051328 5.41425,-1.4285703 c 0,-0.09375 -0.09375,-0.09375 -0.1289063,-0.09375 -0.09375,0 -0.1054687,0.035156 -0.140625,0.1757812 -0.1289062,0.56250004 -0.328125,1.24218754 -0.7382812,1.24218754 -0.2109375,0 -0.3164063,-0.12890625 -0.3164063,-0.45703125 0,-0.22265625 0.1289063,-0.69140629 0.1992188,-1.04296879 l 0.28125,-1.078125 c 0.035156,-0.140625 0.1289062,-0.5273437 0.1757812,-0.6679687 0.046875,-0.234375 0.140625,-0.609375 0.140625,-0.6679688 0,-0.1875 -0.140625,-0.2695312 -0.28125,-0.2695312 -0.058594,0 -0.3164062,0 -0.3867187,0.3398437 -0.1992188,0.7265625 -0.6328125,2.4726563 -0.75,3.00000004 -0.011719,0.046875 -0.4101563,0.84375 -1.1367188,0.84375 -0.515625,0 -0.6210937,-0.45703125 -0.6210937,-0.8203125 0,-0.56250004 0.28125,-1.34765624 0.5390625,-2.02734374 0.1171875,-0.3046875 0.1757812,-0.4453125 0.1757812,-0.6328125 0,-0.4453125 -0.328125,-0.8203125 -0.8203125,-0.8203125 -0.9492187,0 -1.31249995,1.453125 -1.31249995,1.5351562 0,0.1054688 0.09375,0.1054688 0.1171875,0.1054688 0.09375,0 0.10546875,-0.023437 0.15234375,-0.1875 C 0.8205,-3.8191953 1.1955,-4.1824766 1.5705,-4.1824766 c 0.09375,0 0.2578125,0.011719 0.2578125,0.328125 0,0.234375 -0.1171875,0.5273438 -0.1757813,0.6796875 -0.3632812,0.984375 -0.5742187,1.6054688 -0.5742187,2.0859375 0,0.94921879 0.6796875,1.19531254 1.21875,1.19531254 0.65625,0 1.0195312,-0.4453125 1.1953125,-0.66796875 z m 0,0"
       style="fill:#000000;fill-opacity:1;fill-rule:nonzero;stroke:none"
       aria-label="u"
       transform="matrix(1.3333333,0,0,1.3333333,2.656,85.158667)" />
    <path
       id="path7"
       d="M 31.46503,82.77274 V 58.9613 m 7.93695,23.81144 V 58.9613"
       style="fill:none;stroke:#000000;stroke-width:0.797;stroke-linecap:butt;stroke-linejoin:miter;stroke-miterlimit:10;stroke-dasharray:none;stroke-opacity:1"
       transform="matrix(1.3333333,0,0,-1.3333333,37.312,129.544)" />
    <g
       id="g7"
       aria-label="25&#10;µ&#10;F"
       transform="matrix(1.3333333,0,0,1.3333333,68.469333,13.298667)">
      <path
         id="path8"
         d="m 1.2651875,-0.7630625 1.0546875,-1.03125 c 1.5585937,-1.3710938 2.15625,-1.9101563 2.15625,-2.90625 0,-1.1367188 -0.9023438,-1.9335938 -2.1210938,-1.9335938 -1.125,0 -1.85156245,0.9140625 -1.85156245,1.8046875 0,0.5507813 0.4921875,0.5507813 0.52734375,0.5507813 0.1640625,0 0.515625,-0.1171875 0.515625,-0.5273438 0,-0.2578125 -0.1875,-0.515625 -0.5273438,-0.515625 -0.0820312,0 -0.1054687,0 -0.1289062,0.011719 0.2226562,-0.6445313 0.7617187,-1.0195313 1.3359375,-1.0195313 0.9140625,0 1.3359375,0.8085938 1.3359375,1.6289063 0,0.796875 -0.4921875,1.5820312 -1.0429688,2.203125 L 0.6089375,-0.364625 C 0.50346875,-0.25915625 0.50346875,-0.23571875 0.50346875,-0.00134375 H 4.194875 L 4.476125,-1.7357188 H 4.2183125 C 4.1714375,-1.4310313 4.101125,-0.9974375 4.007375,-0.84509375 3.9370625,-0.7630625 3.2808125,-0.7630625 3.0581562,-0.7630625 Z M 9.4565937,-2.00525 c 0,-1.1835938 -0.8203125,-2.1796875 -1.8984375,-2.1796875 -0.4804687,0 -0.9023437,0.1640625 -1.265625,0.5039062 V -5.614625 c 0.1992188,0.058594 0.5273438,0.1289062 0.84375,0.1289062 1.2304688,0 1.9335938,-0.9140625 1.9335938,-1.0429687 0,-0.058594 -0.035156,-0.1054688 -0.1054688,-0.1054688 -0.011719,0 -0.035156,0 -0.082031,0.023437 -0.1992188,0.09375 -0.6796875,0.2929688 -1.3476563,0.2929688 -0.3984375,0 -0.8554687,-0.070312 -1.3242187,-0.28125 -0.082031,-0.023437 -0.1054688,-0.023437 -0.1289063,-0.023437 -0.09375,0 -0.09375,0.082031 -0.09375,0.234375 v 2.953125 c 0,0.1757812 0,0.2578125 0.140625,0.2578125 0.070312,0 0.082031,-0.035156 0.1289063,-0.09375 0.1054687,-0.1523438 0.4804687,-0.6914063 1.2773437,-0.6914063 0.5273438,0 0.7734375,0.4570313 0.8554688,0.6328125 0.1523437,0.375 0.1757812,0.7617188 0.1757812,1.2539063 0,0.3515625 0,0.9492187 -0.234375,1.37109375 C 8.0855,-0.31775 7.7222187,-0.0599375 7.2651875,-0.0599375 c -0.7265625,0 -1.3007813,-0.52734375 -1.4648438,-1.1132813 0.023437,0.011719 0.058594,0.011719 0.1640625,0.011719 0.328125,0 0.5039063,-0.2460938 0.5039063,-0.4804688 0,-0.2460937 -0.1757813,-0.4921875 -0.5039063,-0.4921875 -0.140625,0 -0.4804687,0.070312 -0.4804687,0.5273438 0,0.85546875 0.6796875,1.828125 1.7929687,1.828125 1.1601563,0 2.1796875,-0.9609375 2.1796875,-2.2265627 z m 0,0"
         style="fill:#000000;fill-opacity:1;fill-rule:nonzero;stroke:none" />
      <path
         id="path9"
         d="m 13.918508,-3.4935313 c 0.05859,-0.2109375 0.152344,-0.5976562 0.152344,-0.6445312 0,-0.1640625 -0.117188,-0.2695313 -0.292969,-0.2695313 -0.02344,0 -0.304688,0.011719 -0.398438,0.3632813 l -1.429687,5.765625 C 11.92632,1.8385 11.92632,1.8619375 11.92632,1.885375 c 0,0.140625 0.105469,0.2695312 0.269532,0.2695312 0.210937,0 0.328125,-0.1875 0.351562,-0.2109375 0.03516,-0.09375 0.175781,-0.609375 0.550781,-2.1445312 0.316407,0.26953125 0.761719,0.3046875 0.960938,0.3046875 0.703125,0 1.089844,-0.4453125 1.324219,-0.7265625 0.09375,0.45703125 0.457031,0.7265625 0.902343,0.7265625 0.351563,0 0.574219,-0.22265625 0.738282,-0.5390625 0.164062,-0.36328125 0.292968,-0.9726563 0.292968,-0.9960938 0,-0.09375 -0.08203,-0.09375 -0.117187,-0.09375 -0.09375,0 -0.105469,0.035156 -0.140625,0.1757813 -0.164063,0.64453125 -0.351563,1.2421875 -0.75,1.2421875 -0.269531,0 -0.304688,-0.2578125 -0.304688,-0.45703125 0,-0.22265625 0.117188,-0.69140625 0.199219,-1.04296875 l 0.28125,-1.078125 c 0.02344,-0.140625 0.128906,-0.5273438 0.164063,-0.6679688 0.05859,-0.234375 0.152343,-0.609375 0.152343,-0.6679687 0,-0.1875 -0.140625,-0.2695313 -0.292968,-0.2695313 -0.04687,0 -0.304688,0 -0.386719,0.3398438 l -0.46875,1.8632812 C 15.535695,-1.583375 15.430227,-1.1615 15.39507,-1.06775 c -0.01172,0.046875 -0.480468,0.9609375 -1.289062,0.9609375 -0.503906,0 -0.738281,-0.328125 -0.738281,-0.8671875 0,-0.2929688 0.07031,-0.5742188 0.140625,-0.8554688 z m 0,0"
         style="fill:#000000;fill-opacity:1;fill-rule:nonzero;stroke:none" />
      <path
         id="path10"
         d="m 23.706594,-4.5365 -0.28125,-2.2382813 h -5.472657 v 0.3046875 h 0.234375 c 0.773438,0 0.796875,0.1171875 0.796875,0.46875 v 5.22656255 c 0,0.3515625 -0.02344,0.46875 -0.796875,0.46875 h -0.234375 v 0.3046875 C 18.30425,-0.0365 19.077687,-0.0365 19.464406,-0.0365 c 0.410156,0 1.3125,0 1.675781,0.03515625 v -0.3046875 h -0.328125 c -0.949218,0 -0.949218,-0.12890625 -0.949218,-0.48046875 v -2.4492188 h 0.855468 c 0.960938,0 1.054688,0.3164063 1.054688,1.1601563 h 0.257812 V -4.7122813 H 21.773 c 0,0.8320313 -0.09375,1.1601563 -1.054688,1.1601563 h -0.855468 v -2.5195313 c 0,-0.328125 0.02344,-0.3984375 0.492187,-0.3984375 h 1.195313 c 1.488281,0 1.746093,0.5625 1.898437,1.9335938 z m 0,0"
         style="fill:#000000;fill-opacity:1;fill-rule:nonzero;stroke:none" />
    </g>
    <path
       id="path11"
       d="M 7.1377891,0.001375 V -0.3033125 H 6.9620078 c -0.5976562,0 -0.7382812,-0.0703125 -0.84375,-0.3984375 l -2.15625,-6.234375 c -0.046875,-0.1289063 -0.070312,-0.1992188 -0.2226562,-0.1992188 -0.1640625,0 -0.1875,0.058594 -0.2460938,0.1992188 l -2.0625,5.96484375 C 1.2549766,-0.467375 0.85653906,-0.31503125 0.31747656,-0.3033125 V 0.001375 L 1.3370078,-0.03378125 2.4854453,0.001375 v -0.3046875 c -0.5039062,0 -0.75,-0.2578125 -0.75,-0.515625 0,-0.0234375 0.011719,-0.12890625 0.023437,-0.140625 l 0.4570313,-1.3125 h 2.4609375 l 0.5273437,1.5234375 c 0.011719,0.046875 0.023437,0.10546875 0.023437,0.140625 0,0.3046875 -0.5507812,0.3046875 -0.8203125,0.3046875 V 0.001375 C 4.7588828,-0.03378125 5.4620078,-0.03378125 5.8370078,-0.03378125 Z M 4.5596641,-2.57675 H 2.3213828 l 1.1132813,-3.234375 z m 0,0"
       style="fill:#000000;fill-opacity:1;fill-rule:nonzero;stroke:none"
       aria-label="A"
       transform="matrix(1.3333333,0,0,1.3333333,136.49467,39.810667)" />
    <path
       id="path12"
       d="m 72.4542,70.86703 c 0,0.87657 -0.7106,1.58717 -1.58717,1.58717 -0.87655,0 -1.58714,-0.7106 -1.58714,-1.58717 0,-0.87655 0.71059,-1.58714 1.58714,-1.58714 0.87657,0 1.58717,0.71059 1.58717,1.58714 z"
       style="fill:#ffffff;fill-opacity:1;fill-rule:nonzero;stroke:#000000;stroke-width:0.3985;stroke-linecap:butt;stroke-linejoin:miter;stroke-miterlimit:10;stroke-dasharray:none;stroke-opacity:1"
       transform="matrix(1.3333333,0,0,-1.3333333,37.312,129.544)" />
    <path
       id="path13"
       d="m 72.4542,0 c 0,0.87656 -0.7106,1.58714 -1.58717,1.58714 -0.87655,0 -1.58714,-0.71058 -1.58714,-1.58714 0,-0.87656 0.71059,-1.58714 1.58714,-1.58714 0.87657,0 1.58717,0.71058 1.58717,1.58714 z"
       style="fill:#ffffff;fill-opacity:1;fill-rule:nonzero;stroke:#000000;stroke-width:0.3985;stroke-linecap:butt;stroke-linejoin:miter;stroke-miterlimit:10;stroke-dasharray:none;stroke-opacity:1"
       transform="matrix(1.3333333,0,0,-1.3333333,37.312,129.544)" />
    <path
       id="path14"
       d="m 6.4815391,-1.8295312 c 0,-0.8671875 -0.8085938,-1.6054688 -1.921875,-1.7226563 0.9726562,-0.1992187 1.6523437,-0.8320312 1.6523437,-1.5703125 0,-0.8671875 -0.9140625,-1.6875 -2.203125,-1.6875 H 0.36435156 v 0.3164063 h 0.234375 c 0.76171874,0 0.78515624,0.1054687 0.78515624,0.46875 v 5.24999995 c 0,0.3515625 -0.023437,0.46875 -0.78515624,0.46875 h -0.234375 v 0.3046875 H 4.2666953 c 1.3242188,0 2.2148438,-0.890625 2.2148438,-1.82812495 z M 5.2510703,-5.1225 c 0,0.6328125 -0.4921875,1.4765625 -1.59375,1.4765625 H 2.2159141 v -2.4492187 c 0,-0.328125 0.011719,-0.3984375 0.4804687,-0.3984375 h 1.2421875 c 0.9609375,0 1.3125,0.84375 1.3125,1.3710937 z m 0.234375,3.2929688 c 0,0.703125 -0.515625,1.52343745 -1.5351562,1.52343745 H 2.6963828 c -0.46875,0 -0.4804687,-0.0703125 -0.4804687,-0.3984375 V -3.4232812 h 1.875 c 0.984375,0 1.3945312,0.9257812 1.3945312,1.59375 z m 0,0"
       style="fill:#000000;fill-opacity:1;fill-rule:nonzero;stroke:none"
       aria-label="B"
       transform="matrix(1.3333333,0,0,1.3333333,136.49467,134.08)" />
    <g
       id="g14"
       aria-label="˙&#10;U&#10;m&#10;=8&#10;√"
       transform="matrix(1.3333333,0,0,1.3333333,59.96,84.058667)">
      <path
         id="path15"
         d="m 1.9108594,-6.1406797 c 0,-0.2695312 -0.2226563,-0.5273437 -0.5273438,-0.5273437 -0.3398437,0 -0.53906247,0.28125 -0.53906247,0.5273437 0,0.2695313 0.23437497,0.5273438 0.52734377,0.5273438 0.3398437,0 0.5390625,-0.2695313 0.5390625,-0.5273438 z m 0,0"
         style="fill:#000000;fill-opacity:1;fill-rule:nonzero;stroke:none" />
      <path
         id="path16"
         d="m 3.4899609,-3.2344297 c 0.09375,-0.4101562 0.28125,-0.7148437 1.078125,-0.7382812 0.046875,0 0.1640625,-0.011719 0.1640625,-0.1992188 0,-0.011719 0,-0.1171875 -0.1289062,-0.1171875 -0.328125,0 -0.6796875,0.035156 -1.0195313,0.035156 -0.3398437,0 -0.703125,-0.035156 -1.03125,-0.035156 -0.058594,0 -0.1757812,0 -0.1757812,0.1992188 0,0.1171875 0.09375,0.1171875 0.1757812,0.1171875 0.5625,0.011719 0.6796875,0.2109375 0.6796875,0.4335937 0,0.035156 -0.023437,0.1757813 -0.035156,0.2109375 L 2.3063672,0.22260156 C 1.9665234,1.5585391 0.81808594,2.4257266 -0.17800781,2.4257266 c -0.6796875,0 -1.21874999,-0.4335938 -1.21874999,-1.2890625 0,-0.023437 0,-0.33984379 0.1171875,-0.77343754 l 0.96093749,-3.87890626 c 0.09375,-0.3632812 0.10546875,-0.4570312 0.83203125,-0.4570312 0.26953125,0 0.33984375,0 0.33984375,-0.1992188 0,-0.1171875 -0.10546875,-0.1171875 -0.140625,-0.1171875 -0.26953125,0 -0.99609375,0.035156 -1.265625,0.035156 -0.29296875,0 -0.99609379,-0.035156 -1.28906249,-0.035156 -0.082031,0 -0.1875,0 -0.1875,0.1992188 0,0.1171875 0.09375,0.1171875 0.28125,0.1171875 0.011719,0 0.2109375,0 0.375,0.011719 0.1757812,0.023437 0.2695312,0.035156 0.2695312,0.1640625 0,0.058594 -0.1054687,0.4804688 -0.1757812,0.703125 l -0.2109375,0.8789063 c -0.09375,0.3867187 -0.5742188,2.27343746 -0.609375,2.46093746 -0.070312,0.28125 -0.070312,0.43359375 -0.070312,0.57421875 0,1.21874999 0.9023437,1.92187499 1.95703124,1.92187499 1.25390626,0 2.48437496,-1.125 2.81249996,-2.44921874 z m 0,0"
         style="fill:#000000;fill-opacity:1;fill-rule:nonzero;stroke:none" />
      <path
         id="path17"
         d="m 6.9880078,3.4511172 c -0.035156,0.140625 -0.09375,0.375 -0.09375,0.4101562 0,0.1523438 0.1289063,0.2226563 0.234375,0.2226563 0.1289063,0 0.234375,-0.09375 0.2695313,-0.1523438 0.035156,-0.058594 0.09375,-0.2929687 0.1289062,-0.4335937 0.035156,-0.1289063 0.1171875,-0.4570313 0.1523438,-0.6328125 0.046875,-0.1523438 0.082031,-0.3046875 0.1171875,-0.4570313 0.082031,-0.3046875 0.082031,-0.3164062 0.2226562,-0.5390625 0.2226563,-0.3398437 0.5625,-0.7382812 1.1132813,-0.7382812 0.3867187,0 0.4101562,0.328125 0.4101562,0.4921875 0,0.421875 -0.3046875,1.1953125 -0.4101562,1.4882812 -0.082031,0.1875 -0.1054688,0.2578125 -0.1054688,0.375 0,0.3632813 0.3046875,0.5976563 0.65625,0.5976563 0.7031247,0 1.0078127,-0.9609375 1.0078127,-1.0664063 0,-0.09375 -0.09375,-0.09375 -0.105469,-0.09375 -0.105469,0 -0.105469,0.046875 -0.140625,0.1171875 -0.152344,0.5625 -0.4570312,0.84375 -0.7382812,0.84375 -0.140625,0 -0.1757812,-0.09375 -0.1757812,-0.2460937 0,-0.1523438 0.035156,-0.2460938 0.1640625,-0.5625 0.082031,-0.2109375 0.3749999,-0.9492188 0.3749999,-1.3476563 0,-0.1054687 0,-0.3984375 -0.2578124,-0.5976562 -0.1289063,-0.09375 -0.328125,-0.18750001 -0.65625,-0.18750001 -0.6210938,0 -1.0078125,0.41015621 -1.2304688,0.70312501 C 7.8669141,1.0487734 7.3747266,0.94330469 7.0231641,0.94330469 c -0.5859375,0 -0.9726563,0.35156251 -1.1835938,0.63281251 -0.046875,-0.4804688 -0.4570312,-0.63281251 -0.75,-0.63281251 -0.2929687,0 -0.4570312,0.21093751 -0.5507812,0.37500001 -0.1523438,0.2578125 -0.2460938,0.65625 -0.2460938,0.6914062 0,0.082031 0.09375,0.082031 0.1171875,0.082031 0.09375,0 0.1054688,-0.011719 0.1523438,-0.1992188 0.1054687,-0.421875 0.234375,-0.7617187 0.515625,-0.7617187 0.1757812,0 0.2226562,0.1523437 0.2226562,0.3398437 0,0.140625 -0.058594,0.3984375 -0.1054687,0.5859375 -0.046875,0.1875 -0.1171875,0.46875 -0.1523438,0.6210938 l -0.2226562,0.902344 c -0.035156,0.082031 -0.070312,0.2578125 -0.070312,0.28125 0,0.1523438 0.1171875,0.2226563 0.234375,0.2226563 0.1289062,0 0.234375,-0.09375 0.2695312,-0.1523438 0.035156,-0.058594 0.09375,-0.2929687 0.1289063,-0.4335937 0.035156,-0.1289063 0.1054687,-0.4570313 0.1523437,-0.6328125 0.035156,-0.1523438 0.082031,-0.3046875 0.1171875,-0.4570313 0.082031,-0.2929687 0.09375,-0.3515625 0.2929688,-0.6328125 0.1992187,-0.28125 0.5273437,-0.6445312 1.0429687,-0.6445312 0.4101563,0 0.4101563,0.3632812 0.4101563,0.4921875 0,0.1757812 -0.011719,0.2695312 -0.1171875,0.65625 z m 0,0"
         style="fill:#000000;fill-opacity:1;fill-rule:nonzero;stroke:none" />
      <path
         id="path18"
         d="m 21.144258,-0.73833594 c 0.152344,0 0.339844,0 0.339844,-0.19921875 0,-0.19921871 -0.1875,-0.19921871 -0.328125,-0.19921871 h -5.964844 c -0.140625,0 -0.328125,0 -0.328125,0.19921871 0,0.19921875 0.1875,0.19921875 0.339844,0.19921875 z m 0.01172,1.93359374 c 0.140625,0 0.328125,0 0.328125,-0.19921874 0,-0.19921875 -0.1875,-0.19921875 -0.339844,-0.19921875 h -5.941406 c -0.152344,0 -0.339844,0 -0.339844,0.19921875 0,0.19921874 0.1875,0.19921874 0.328125,0.19921874 z m 5.273437,-3.2226562 c -0.46875,-0.3046875 -0.503906,-0.6445313 -0.503906,-0.8085938 0,-0.609375 0.644531,-1.03125 1.359375,-1.03125 0.726562,0 1.359375,0.515625 1.359375,1.2421875 0,0.5625 -0.386719,1.0429688 -0.984375,1.3945313 z m 1.453125,0.9375 c 0.714844,-0.3632813 1.207031,-0.8789063 1.207031,-1.5351563 0,-0.9257812 -0.890625,-1.4882812 -1.792968,-1.4882812 -0.996094,0 -1.804688,0.7382812 -1.804688,1.6640625 0,0.1757812 0.01172,0.6210937 0.433594,1.0898437 0.105469,0.1289063 0.480469,0.37500001 0.726562,0.53906251 -0.574218,0.29296875 -1.429687,0.84375 -1.429687,1.83984379 0,1.0546875 1.007812,1.7226562 2.0625,1.7226562 1.125,0 2.0625,-0.8320312 2.0625,-1.89843749 0,-0.3515625 -0.105469,-0.80859375 -0.480469,-1.21875 -0.1875,-0.2109375 -0.351562,-0.31640625 -0.984375,-0.71484371 z m -0.996094,0.42187496 1.21875,0.7734375 c 0.28125,0.1875 0.75,0.4921875 0.75,1.10156254 0,0.7382812 -0.75,1.2539062 -1.558593,1.2539062 -0.867188,0 -1.582032,-0.6210937 -1.582032,-1.4414062 0,-0.58593754 0.316407,-1.21875004 1.171875,-1.68750004 z m 0,0"
         style="fill:#000000;fill-opacity:1;fill-rule:nonzero;stroke:none" />
      <path
         id="path19"
         d="m 33.677461,2.7977969 -1.757813,-3.8789063 c -0.07031,-0.1523437 -0.117187,-0.1523437 -0.152343,-0.1523437 -0.01172,0 -0.05859,0 -0.164063,0.070312 l -0.949219,0.72656248 c -0.128906,0.09375 -0.128906,0.12890625 -0.128906,0.15234375 0,0.046875 0.03516,0.10546875 0.105469,0.10546875 0.05859,0 0.222656,-0.12890625 0.328125,-0.2109375 0.07031,-0.046875 0.210937,-0.1640625 0.328125,-0.24609375 l 1.957031,4.31249997 c 0.07031,0.1640625 0.117188,0.1640625 0.210938,0.1640625 0.152343,0 0.175781,-0.058594 0.246093,-0.1992187 l 4.523438,-9.3632813 c 0.07031,-0.140625 0.07031,-0.1757812 0.07031,-0.1992187 0,-0.1054688 -0.08203,-0.1992188 -0.199218,-0.1992188 -0.08203,0 -0.152344,0.046875 -0.222657,0.2109375 z m 0,0"
         style="fill:#000000;fill-opacity:1;fill-rule:nonzero;stroke:none" />
    </g>
    <path
       id="path20"
       d="M -3.079,-16.721 H 1.902"
       style="fill:none;stroke:#000000;stroke-width:0.3985;stroke-linecap:butt;stroke-linejoin:miter;stroke-miterlimit:10;stroke-dasharray:none;stroke-opacity:1"
       transform="matrix(1.3333333,0,0,-1.3333333,114.86533,53.868)" />
    <g
       id="g20"
       aria-label="2&#10;∠&#10;0&#10;◦"
       transform="matrix(1.3333333,0,0,1.3333333,110.76,87.417333)">
      <path
         id="path21"
         d="M 1.2669141,-0.76124219 2.3216016,-1.7924922 c 1.5585937,-1.3710937 2.15625,-1.9101562 2.15625,-2.90625 0,-1.1367187 -0.9023438,-1.9335937 -2.1210938,-1.9335937 -1.125,0 -1.85156249,0.9140625 -1.85156249,1.8046875 0,0.5507812 0.4921875,0.5507812 0.52734379,0.5507812 0.1640625,0 0.515625,-0.1171875 0.515625,-0.5273437 0,-0.2578125 -0.1875,-0.515625 -0.5273438,-0.515625 -0.0820312,0 -0.10546874,0 -0.12890624,0.011719 0.22265624,-0.6445312 0.76171874,-1.0195312 1.33593754,-1.0195312 0.9140625,0 1.3359375,0.8085937 1.3359375,1.6289062 0,0.796875 -0.4921875,1.5820313 -1.0429688,2.203125 L 0.61066406,-0.36280469 C 0.50519531,-0.25733594 0.50519531,-0.23389844 0.50519531,4.765625e-4 H 4.1966016 L 4.4778516,-1.7338984 H 4.2200391 c -0.046875,0.3046875 -0.1171875,0.73828121 -0.2109375,0.89062496 -0.070312,0.0820313 -0.7265625,0.0820313 -0.9492188,0.0820313 z m 0,0"
         style="fill:#000000;fill-opacity:1;fill-rule:nonzero;stroke:none" />
      <path
         id="path22"
         d="m 11.497383,-6.5063594 c 0.105469,-0.1171875 0.105469,-0.1757812 0.105469,-0.2109375 0,-0.1054687 -0.08203,-0.1992187 -0.199219,-0.1992187 -0.05859,0 -0.117188,0.035156 -0.210938,0.140625 l -5.5312497,6.36328123 c -0.09375,0.10546875 -0.1171875,0.12890625 -0.1171875,0.2109375 0,0.19921875 0.1875,0.19921875 0.3515625,0.19921875 h 5.3671877 c 0.164062,0 0.339844,0 0.339844,-0.19921875 0,-0.19921875 -0.175782,-0.19921875 -0.339844,-0.19921875 H 6.1770703 Z m 0,0"
         style="fill:#000000;fill-opacity:1;fill-rule:nonzero;stroke:none" />
      <path
         id="path23"
         d="m 16.759102,-3.1870234 c 0,-0.796875 -0.04687,-1.59375 -0.398438,-2.3320313 -0.457031,-0.9609375 -1.277344,-1.1132812 -1.6875,-1.1132812 -0.597656,0 -1.335937,0.2578125 -1.734375,1.1835937 -0.328125,0.6914063 -0.375,1.4648438 -0.375,2.2617188 0,0.75 0.04687,1.640625 0.445313,2.40234371 0.433593,0.80859375 1.160156,1.0078125 1.652343,1.0078125 0.539063,0 1.289063,-0.2109375 1.734375,-1.16015625 0.316407,-0.69140626 0.363282,-1.46484376 0.363282,-2.24999996 z M 14.661445,4.765625e-4 c -0.386718,0 -0.984375,-0.2460937525 -1.160156,-1.2070312625 -0.105469,-0.5976562 -0.105469,-1.5117187 -0.105469,-2.0976562 0,-0.6445313 0,-1.3007813 0.08203,-1.8398438 0.1875,-1.1835937 0.925781,-1.265625 1.183593,-1.265625 0.328125,0 0.984375,0.1757813 1.171875,1.1601563 0.09375,0.5625 0.09375,1.3125 0.09375,1.9453125 0,0.75 0,1.4179687 -0.105468,2.0625 -0.152344,0.93749996 -0.714844,1.2421874625 -1.160157,1.2421874625 z m 0,0"
         style="fill:#000000;fill-opacity:1;fill-rule:nonzero;stroke:none" />
      <path
         id="path24"
         d="m 20.696602,-5.3608516 c 0,-0.84375 -0.679688,-1.5 -1.5,-1.5 -0.84375,0 -1.5,0.6796875 -1.5,1.5 0,0.84375 0.679687,1.5 1.5,1.5 0.832031,0 1.5,-0.6796875 1.5,-1.5 z m -1.5,1.1484375 c -0.65625,0 -1.160157,-0.5273437 -1.160157,-1.1484375 0,-0.6445312 0.515625,-1.1601562 1.160157,-1.1601562 0.65625,0 1.160156,0.5390625 1.160156,1.1601562 0,0.6445313 -0.527344,1.1484375 -1.160156,1.1484375 z m 0,0"
         style="fill:#000000;fill-opacity:1;fill-rule:nonzero;stroke:none" />
    </g>
  </g>
</svg>
