<?xml version="1.0" encoding="UTF-8" standalone="no"?>
<!-- Created with Inkscape (http://www.inkscape.org/) -->

<svg
   version="1.1"
   id="svg1"
   width="177.22667"
   height="138.50667"
   viewBox="0 0 177.22667 138.50667"
   sodipodi:docname="24-25-2-电路与电子学基础-期中-解答7-相量模型.pdf"
   xmlns:inkscape="http://www.inkscape.org/namespaces/inkscape"
   xmlns:sodipodi="http://sodipodi.sourceforge.net/DTD/sodipodi-0.dtd"
   xmlns="http://www.w3.org/2000/svg"
   xmlns:svg="http://www.w3.org/2000/svg">
  <defs
     id="defs1" />
  <sodipodi:namedview
     id="namedview1"
     pagecolor="#ffffff"
     bordercolor="#000000"
     borderopacity="0.25"
     inkscape:showpageshadow="2"
     inkscape:pageopacity="0.0"
     inkscape:pagecheckerboard="0"
     inkscape:deskcolor="#d1d1d1">
    <inkscape:page
       x="0"
       y="0"
       inkscape:label="1"
       id="page1"
       width="177.22667"
       height="138.50667"
       margin="0"
       bleed="0" />
  </sodipodi:namedview>
  <g
     id="g1"
     inkscape:groupmode="layer"
     inkscape:label="1">
    <path
       id="path1"
       d="m 70.86703,70.86703 -31.46505,-1e-5 m -7.93695,0 L 0,70.86703 V 47.33923 M 0,23.52779 V 0 h 70.86703 17.71676 m 0,0 h 17.71676"
       style="fill:none;stroke:#000000;stroke-width:0.3985;stroke-linecap:butt;stroke-linejoin:miter;stroke-miterlimit:10;stroke-dasharray:none;stroke-opacity:1"
       transform="matrix(1.3333333,0,0,-1.3333333,16.405333,129.544)" />
    <path
       id="path2"
       d="M 39.40198,58.9613 V 82.77274 M 31.46503,58.9613 v 23.81144"
       style="fill:none;stroke:#000000;stroke-width:0.797;stroke-linecap:butt;stroke-linejoin:miter;stroke-miterlimit:10;stroke-dasharray:none;stroke-opacity:1"
       transform="matrix(1.3333333,0,0,-1.3333333,16.405333,129.544)" />
    <g
       id="g2"
       aria-label="−&#10;2&#10;j&#10;Ω"
       transform="matrix(1.3333333,0,0,1.3333333,47.226667,13.298667)">
      <path
         id="path3"
         d="m 6.5624219,-2.2982188 c 0.1757812,0 0.3515625,0 0.3515625,-0.1992187 0,-0.1992188 -0.1757813,-0.1992188 -0.3515625,-0.1992188 h -5.390625 c -0.1640625,0 -0.33984378,0 -0.33984378,0.1992188 0,0.1992187 0.17578128,0.1992187 0.33984378,0.1992187 z m 0,0"
         style="fill:#000000;fill-opacity:1;fill-rule:nonzero;stroke:none" />
      <path
         id="path4"
         d="m 9.0145703,-0.7630625 1.0546877,-1.03125 c 1.558594,-1.3710938 2.15625,-1.9101563 2.15625,-2.90625 0,-1.1367188 -0.902344,-1.9335938 -2.121094,-1.9335938 -1.1249999,0 -1.8515624,0.9140625 -1.8515624,1.8046875 0,0.5507813 0.4921875,0.5507813 0.5273437,0.5507813 0.1640625,0 0.515625,-0.1171875 0.515625,-0.5273438 0,-0.2578125 -0.1875,-0.515625 -0.5273437,-0.515625 -0.082031,0 -0.1054688,0 -0.1289063,0.011719 0.2226563,-0.6445313 0.7617188,-1.0195313 1.3359375,-1.0195313 0.9140622,0 1.3359372,0.8085938 1.3359372,1.6289063 0,0.796875 -0.492187,1.5820312 -1.042968,2.203125 L 8.3583203,-0.364625 c -0.1054687,0.10546875 -0.1054687,0.12890625 -0.1054687,0.36328125 h 3.6914064 l 0.28125,-1.73437505 h -0.257813 c -0.04687,0.3046875 -0.117187,0.7382813 -0.210937,0.89062505 -0.07031,0.0820313 -0.726563,0.0820313 -0.949219,0.0820313 z m 0,0"
         style="fill:#000000;fill-opacity:1;fill-rule:nonzero;stroke:none" />
      <path
         id="path5"
         d="m 14.82707,0.5025625 v -4.9101563 l -1.523437,0.1171875 v 0.3046875 c 0.773437,0 0.855469,0.070312 0.855469,0.5625 v 3.93750005 c 0,0.4453125 -0.08203,1.31249995 -0.726563,1.31249995 -0.04687,0 -0.269531,0 -0.539062,-0.1289062 0.152343,-0.046875 0.351562,-0.1875 0.351562,-0.4570313 0,-0.25781245 -0.175781,-0.4570312 -0.457031,-0.4570312 -0.28125,0 -0.457031,0.19921875 -0.457031,0.4570312 0,0.515625 0.5625,0.796875 1.125,0.796875 0.75,0 1.371093,-0.6328125 1.371093,-1.5351562 z m 0,-6.515625 c 0,-0.2695313 -0.234375,-0.5273438 -0.539062,-0.5273438 -0.328125,0 -0.527344,0.2695313 -0.527344,0.5273438 0,0.2695312 0.222656,0.5273437 0.527344,0.5273437 0.339844,0 0.539062,-0.28125 0.539062,-0.5273437 z m 0,0"
         style="fill:#000000;fill-opacity:1;fill-rule:nonzero;stroke:none" />
      <path
         id="path6"
         d="m 24.178633,-1.6185313 h -0.246094 c -0.04687,0.2578125 -0.08203,0.4921875 -0.175781,0.72656255 -0.04687,0.1640625 -0.08203,0.24609375 -0.65625,0.24609375 h -0.796875 c 0.128906,-0.5625 0.433594,-1.0429688 0.878906,-1.6992188 0.46875,-0.703125 0.878906,-1.3945312 0.878906,-2.1796875 0,-1.3828125 -1.335937,-2.4960937 -3.023437,-2.4960937 -1.710938,0 -3.035156,1.1367187 -3.035156,2.4960937 0,0.7851563 0.398437,1.4765625 0.867187,2.1796875 0.445313,0.65625 0.761719,1.1367188 0.890625,1.6992188 h -0.796875 c -0.574219,0 -0.609375,-0.0820313 -0.65625,-0.234375 -0.08203,-0.2226563 -0.128906,-0.4804688 -0.175781,-0.7382813 h -0.257813 l 0.328125,1.61718755 h 1.59375 c 0.222657,0 0.257813,0 0.257813,-0.2109375 0,-0.69140625 -0.316406,-1.57031255 -0.539063,-2.21484375 -0.210937,-0.5742188 -0.492187,-1.359375 -0.492187,-2.109375 0,-1.59375 1.101562,-2.2734375 2.003906,-2.2734375 0.960938,0 2.015625,0.7265625 2.015625,2.2734375 0,0.75 -0.269531,1.5117187 -0.5625,2.3203125 -0.152344,0.421875 -0.46875,1.3125 -0.46875,2.00390625 0,0.2109375 0.03516,0.2109375 0.257813,0.2109375 h 1.582031 z m 0,0"
         style="fill:#000000;fill-opacity:1;fill-rule:nonzero;stroke:none" />
    </g>
    <path
       id="path7"
       d="m 11.90572,35.4335 c 0,6.57543 -5.33031,11.90573 -11.90572,11.90573 -6.57541,0 -11.90572,-5.3303 -11.90572,-11.90573 0,-6.5754 5.33031,-11.90571 11.90572,-11.90571 6.57541,0 11.90572,5.33031 11.90572,11.90571 z"
       style="fill:none;stroke:#000000;stroke-width:0.797;stroke-linecap:butt;stroke-linejoin:miter;stroke-miterlimit:10;stroke-dasharray:none;stroke-opacity:1"
       transform="matrix(1.3333333,0,0,-1.3333333,16.405333,129.544)" />
    <path
       id="path8"
       d="M 0,47.33923 V 23.52779"
       style="fill:none;stroke:#000000;stroke-width:0.797;stroke-linecap:butt;stroke-linejoin:miter;stroke-miterlimit:10;stroke-dasharray:none;stroke-opacity:1"
       transform="matrix(1.3333333,0,0,-1.3333333,16.405333,129.544)" />
    <path
       id="path9"
       d="m 4.0766797,-2.2982266 h 2.7773437 c 0.140625,0 0.328125,0 0.328125,-0.1992187 0,-0.1992188 -0.1875,-0.1992188 -0.328125,-0.1992188 H 4.0766797 v -2.7890625 c 0,-0.1289062 0,-0.328125 -0.1992188,-0.328125 -0.1992187,0 -0.1992187,0.1992188 -0.1992187,0.328125 v 2.7890625 H 0.88917969 c -0.140625,0 -0.328125,0 -0.328125,0.1992188 0,0.1992187 0.1875,0.1992187 0.328125,0.1992187 H 3.6782422 v 2.80078129 c 0,0.12890625 0,0.328125 0.1992187,0.328125 0.1992188,0 0.1992188,-0.19921875 0.1992188,-0.328125 z m 0,0"
       style="fill:#000000;fill-opacity:1;fill-rule:nonzero;stroke:none"
       aria-label="+"
       transform="matrix(1.3333333,0,0,1.3333333,32.193333,73.521333)" />
    <path
       id="path10"
       d="m 6.5610547,-2.2968125 c 0.1757812,0 0.3515625,0 0.3515625,-0.1992187 0,-0.1992188 -0.1757813,-0.1992188 -0.3515625,-0.1992188 h -5.390625 c -0.1640625,0 -0.33984376,0 -0.33984376,0.1992188 0,0.1992187 0.17578126,0.1992187 0.33984376,0.1992187 z m 0,0"
       style="fill:#000000;fill-opacity:1;fill-rule:nonzero;stroke:none"
       aria-label="−"
       transform="matrix(1.3333333,0,0,1.3333333,32.193333,97.718667)" />
    <g
       id="g10"
       aria-label="u&#10;s"
       transform="matrix(1.3333333,0,0,1.3333333,43.456,84.162667)">
      <path
         id="path11"
         d="m 3.4929609,-0.56145312 c 0.1054688,0.41015625 0.4570313,0.66796875 0.8789063,0.66796875 0.3515625,0 0.5742187,-0.22265625 0.7382812,-0.5390625 0.1757813,-0.36328125 0.3046875,-0.97265623 0.3046875,-0.99609373 0,-0.09375 -0.09375,-0.09375 -0.1289062,-0.09375 -0.09375,0 -0.1054688,0.035156 -0.140625,0.1757812 -0.1289063,0.56250003 -0.328125,1.24218753 -0.7382813,1.24218753 -0.2109375,0 -0.3164062,-0.12890625 -0.3164062,-0.45703125 0,-0.22265625 0.1289062,-0.69140628 0.1992187,-1.04296878 l 0.28125,-1.078125 c 0.035156,-0.140625 0.1289063,-0.5273437 0.1757813,-0.6679687 0.046875,-0.234375 0.140625,-0.609375 0.140625,-0.6679688 0,-0.1875 -0.140625,-0.2695312 -0.28125,-0.2695312 -0.058594,0 -0.3164063,0 -0.3867188,0.3398437 -0.1992187,0.7265625 -0.6328125,2.4726563 -0.75,3.00000003 -0.011719,0.046875 -0.4101562,0.84375 -1.1367187,0.84375 -0.515625,0 -0.6210938,-0.45703125 -0.6210938,-0.8203125 0,-0.56250003 0.28125,-1.34765623 0.5390625,-2.02734373 0.1171875,-0.3046875 0.1757813,-0.4453125 0.1757813,-0.6328125 0,-0.4453125 -0.328125,-0.8203125 -0.8203125,-0.8203125 -0.94921876,0 -1.31250001,1.453125 -1.31250001,1.5351562 0,0.1054688 0.09375,0.1054688 0.1171875,0.1054688 0.09375,0 0.10546875,-0.023437 0.15234375,-0.1875 0.2578125,-0.8671875 0.63281246,-1.2304688 1.00781246,-1.2304688 0.09375,0 0.2578125,0.011719 0.2578125,0.328125 0,0.234375 -0.1171875,0.5273438 -0.1757812,0.6796875 -0.3632813,0.984375 -0.5742188,1.6054688 -0.5742188,2.0859375 0,0.94921878 0.6796875,1.19531253 1.21875,1.19531253 0.65625,0 1.0195313,-0.4453125 1.1953125,-0.66796875 z m 0,0"
         style="fill:#000000;fill-opacity:1;fill-rule:nonzero;stroke:none" />
      <path
         id="path12"
         d="m 8.7019453,-1.1298125 c -0.1757812,0.046875 -0.2929687,0.1875 -0.2929687,0.328125 0,0.1640625 0.140625,0.22265625 0.234375,0.22265625 0.070312,0 0.3398437,-0.0351563 0.3398437,-0.3984375 0,-0.44531245 -0.5039062,-0.59765625 -0.9257812,-0.59765625 -1.0898438,0 -1.2890625,0.796875 -1.2890625,1.0078125 0,0.2578125 0.1523437,0.43359375 0.2460937,0.515625 0.1757813,0.140625 0.3046875,0.1640625 0.7851563,0.24609375 0.1523437,0.0351563 0.5976562,0.1171875 0.5976562,0.46875 0,0.1171875 -0.082031,0.37500005 -0.375,0.55078125 -0.2695312,0.1523438 -0.609375,0.1523438 -0.6914062,0.1523438 -0.28125,0 -0.6796875,-0.058594 -0.84375,-0.2929688 0.234375,-0.023437 0.3867187,-0.19921875 0.3867187,-0.3984375 0,-0.1640625 -0.1289062,-0.2578125 -0.2695312,-0.2578125 -0.1992188,0 -0.4101563,0.1640625 -0.4101563,0.46875 0,0.421875 0.4453125,0.6796875 1.125,0.6796875 1.2890625,0 1.5234375,-0.87890625 1.5234375,-1.1484375 0,-0.64453125 -0.703125,-0.7734375 -0.9609375,-0.8203125 -0.070312,-0.0117188 -0.2460937,-0.0351563 -0.28125,-0.0585938 -0.2578125,-0.046875 -0.3867187,-0.1875 -0.3867187,-0.33984375 0,-0.1640625 0.1289062,-0.35156245 0.28125,-0.44531245 0.1875,-0.1289063 0.4335937,-0.140625 0.5507812,-0.140625 0.140625,0 0.5039063,0.023437 0.65625,0.2578125 z m 0,0"
         style="fill:#000000;fill-opacity:1;fill-rule:nonzero;stroke:none" />
    </g>
    <path
       id="path13"
       d="m 72.4542,0 c 0,0.87656 -0.7106,1.58714 -1.58717,1.58714 -0.87655,0 -1.58714,-0.71058 -1.58714,-1.58714 0,-0.87656 0.71059,-1.58714 1.58714,-1.58714 0.87657,0 1.58717,0.71058 1.58717,1.58714 z"
       style="fill:#000000;fill-opacity:1;fill-rule:nonzero;stroke:#000000;stroke-width:0.3985;stroke-linecap:butt;stroke-linejoin:miter;stroke-miterlimit:10;stroke-dasharray:none;stroke-opacity:1"
       transform="matrix(1.3333333,0,0,-1.3333333,16.405333,129.544)" />
    <path
       id="path14"
       d="m 107.88771,0 c 0,0.87656 -0.71059,1.58714 -1.58716,1.58714 -0.87655,0 -1.58714,-0.71058 -1.58714,-1.58714 0,-0.87656 0.71059,-1.58714 1.58714,-1.58714 0.87657,0 1.58716,0.71058 1.58716,1.58714 z"
       style="fill:#ffffff;fill-opacity:1;fill-rule:nonzero;stroke:#000000;stroke-width:0.3985;stroke-linecap:butt;stroke-linejoin:miter;stroke-miterlimit:10;stroke-dasharray:none;stroke-opacity:1"
       transform="matrix(1.3333333,0,0,-1.3333333,16.405333,129.544)" />
    <path
       id="path15"
       d="m 6.4804922,-1.8295312 c 0,-0.8671875 -0.8085938,-1.6054688 -1.921875,-1.7226563 0.9726562,-0.1992187 1.6523437,-0.8320312 1.6523437,-1.5703125 0,-0.8671875 -0.9140625,-1.6875 -2.203125,-1.6875 H 0.36330469 v 0.3164063 h 0.234375 c 0.76171871,0 0.78515621,0.1054687 0.78515621,0.46875 v 5.24999995 c 0,0.3515625 -0.023437,0.46875 -0.78515621,0.46875 h -0.234375 v 0.3046875 H 4.2656484 c 1.3242188,0 2.2148438,-0.890625 2.2148438,-1.82812495 z M 5.2500234,-5.1225 c 0,0.6328125 -0.4921875,1.4765625 -1.59375,1.4765625 H 2.2148672 v -2.4492187 c 0,-0.328125 0.011719,-0.3984375 0.4804687,-0.3984375 h 1.2421875 c 0.9609375,0 1.3125,0.84375 1.3125,1.3710937 z m 0.234375,3.2929688 c 0,0.703125 -0.515625,1.52343745 -1.5351562,1.52343745 H 2.6953359 c -0.46875,0 -0.4804687,-0.0703125 -0.4804687,-0.3984375 V -3.4232812 h 1.875 c 0.984375,0 1.3945312,0.9257812 1.3945312,1.59375 z m 0,0"
       style="fill:#000000;fill-opacity:1;fill-rule:nonzero;stroke:none"
       aria-label="B"
       transform="matrix(1.3333333,0,0,1.3333333,162.832,134.08)" />
    <path
       id="path16"
       d="m 70.86703,0 -1e-5,19.55931 m 0,31.7484 1e-5,19.55932 17.71676,-1e-5 m 0,0 17.71676,1e-5"
       style="fill:none;stroke:#000000;stroke-width:0.3985;stroke-linecap:butt;stroke-linejoin:miter;stroke-miterlimit:10;stroke-dasharray:none;stroke-opacity:1"
       transform="matrix(1.3333333,0,0,-1.3333333,16.405333,129.544)" />
    <path
       id="path17"
       d="m 71.02641,19.16081 c -3.28755,0 -5.95256,1.82137 -5.95256,4.06816 0,2.24681 2.66501,4.06818 5.95256,4.06818 -3.28755,0 -5.95256,1.82137 -5.95256,4.06818 0,2.24679 2.66501,4.06816 5.95256,4.06816 -3.28755,0 -5.95256,1.82136 -5.95256,4.06817 0,2.24681 2.66501,4.06818 5.95256,4.06818 -3.28755,0 -5.95256,1.82136 -5.95256,4.06816 0,2.24681 2.66501,4.06818 5.95256,4.06818"
       style="fill:none;stroke:#000000;stroke-width:0.797;stroke-linecap:butt;stroke-linejoin:bevel;stroke-miterlimit:10;stroke-dasharray:none;stroke-opacity:1"
       transform="matrix(1.3333333,0,0,-1.3333333,16.405333,129.544)" />
    <g
       id="g17"
       aria-label="4&#10;j&#10;Ω"
       transform="matrix(1.3333333,0,0,1.3333333,115.952,85.161333)">
      <path
         id="path18"
         d="m 2.9305313,-1.6415078 v 0.86718749 c 0,0.3515625 -0.023437,0.46875 -0.7617188,0.46875 H 1.957875 V -8.828125e-4 C 2.3680313,-0.03603906 2.895375,-0.03603906 3.3055313,-0.03603906 c 0.421875,0 0.9492187,0 1.359375,0.0351562475 V -0.30557031 H 4.4539688 c -0.7382813,0 -0.7617188,-0.1171875 -0.7617188,-0.46875 V -1.6415078 H 4.6883438 V -1.9579141 H 3.69225 v -4.5234375 c 0,-0.1992187 0,-0.2578125 -0.1523437,-0.2578125 -0.09375,0 -0.1171875,0 -0.1992188,0.1171875 l -3.05859375,4.6640625 v 0.3164063 z M 2.989125,-1.9579141 H 0.56334375 L 2.989125,-5.6727578 Z m 0,0"
         style="fill:#000000;fill-opacity:1;fill-rule:nonzero;stroke:none" />
      <path
         id="path19"
         d="M 7.0789688,0.50302344 V -4.4071328 l -1.5234375,0.1171875 v 0.3046875 c 0.7734375,0 0.8554687,0.070312 0.8554687,0.5625 v 3.93749999 c 0,0.4453125 -0.082031,1.31250001 -0.7265625,1.31250001 -0.046875,0 -0.2695312,0 -0.5390625,-0.1289063 0.1523438,-0.046875 0.3515625,-0.1875 0.3515625,-0.4570312 0,-0.25781251 -0.1757812,-0.45703126 -0.4570312,-0.45703126 -0.28125,0 -0.4570313,0.19921875 -0.4570313,0.45703126 0,0.515625 0.5625,0.796875 1.125,0.796875 0.75,0 1.3710938,-0.6328125 1.3710938,-1.53515626 z m 0,-6.51562504 c 0,-0.2695312 -0.234375,-0.5273437 -0.5390625,-0.5273437 -0.328125,0 -0.5273438,0.2695312 -0.5273438,0.5273437 0,0.2695313 0.2226563,0.5273438 0.5273438,0.5273438 0.3398437,0 0.5390625,-0.28125 0.5390625,-0.5273438 z m 0,0"
         style="fill:#000000;fill-opacity:1;fill-rule:nonzero;stroke:none" />
      <path
         id="path20"
         d="m 16.427602,-1.6180703 h -0.246094 c -0.04687,0.2578125 -0.08203,0.4921875 -0.175781,0.72656249 -0.04687,0.1640625 -0.08203,0.24609375 -0.65625,0.24609375 h -0.796875 c 0.128906,-0.56250004 0.433593,-1.04296874 0.878906,-1.69921874 0.46875,-0.703125 0.878906,-1.3945313 0.878906,-2.1796875 0,-1.3828125 -1.335937,-2.4960938 -3.023437,-2.4960938 -1.710938,0 -3.035157,1.1367188 -3.035157,2.4960938 0,0.7851562 0.398438,1.4765625 0.867188,2.1796875 0.445312,0.65625 0.761719,1.1367187 0.890625,1.69921874 h -0.796875 c -0.574219,0 -0.609375,-0.0820313 -0.65625,-0.234375 -0.08203,-0.22265624 -0.128906,-0.48046874 -0.175781,-0.73828124 h -0.257813 l 0.328125,1.6171874875 h 1.59375 c 0.222656,0 0.257813,0 0.257813,-0.2109374975 0,-0.69140625 -0.316407,-1.57031249 -0.539063,-2.21484379 -0.210937,-0.5742187 -0.492187,-1.359375 -0.492187,-2.109375 0,-1.59375 1.101562,-2.2734375 2.003906,-2.2734375 0.960937,0 2.015625,0.7265625 2.015625,2.2734375 0,0.75 -0.269531,1.5117188 -0.5625,2.3203125 -0.152344,0.421875 -0.46875,1.31250004 -0.46875,2.00390629 0,0.2109374975 0.03516,0.2109374975 0.257812,0.2109374975 h 1.582032 z m 0,0"
         style="fill:#000000;fill-opacity:1;fill-rule:nonzero;stroke:none" />
    </g>
    <path
       id="path21"
       d="m 72.4542,70.86703 c 0,0.87657 -0.7106,1.58717 -1.58717,1.58717 -0.87655,0 -1.58714,-0.7106 -1.58714,-1.58717 0,-0.87655 0.71059,-1.58714 1.58714,-1.58714 0.87657,0 1.58717,0.71059 1.58717,1.58714 z"
       style="fill:#000000;fill-opacity:1;fill-rule:nonzero;stroke:#000000;stroke-width:0.3985;stroke-linecap:butt;stroke-linejoin:miter;stroke-miterlimit:10;stroke-dasharray:none;stroke-opacity:1"
       transform="matrix(1.3333333,0,0,-1.3333333,16.405333,129.544)" />
    <path
       id="path22"
       d="m 107.88771,70.86703 c 0,0.87657 -0.71059,1.58717 -1.58716,1.58717 -0.87655,0 -1.58714,-0.7106 -1.58714,-1.58717 0,-0.87655 0.71059,-1.58714 1.58714,-1.58714 0.87657,0 1.58716,0.71059 1.58716,1.58714 z"
       style="fill:#ffffff;fill-opacity:1;fill-rule:nonzero;stroke:#000000;stroke-width:0.3985;stroke-linecap:butt;stroke-linejoin:miter;stroke-miterlimit:10;stroke-dasharray:none;stroke-opacity:1"
       transform="matrix(1.3333333,0,0,-1.3333333,16.405333,129.544)" />
    <path
       id="path23"
       d="M 7.1367422,0.001375 V -0.3033125 H 6.9609609 c -0.5976562,0 -0.7382812,-0.0703125 -0.84375,-0.3984375 l -2.15625,-6.234375 c -0.046875,-0.1289063 -0.070312,-0.1992188 -0.2226562,-0.1992188 -0.1640625,0 -0.1875,0.058594 -0.2460938,0.1992188 l -2.0625,5.96484375 C 1.2539297,-0.467375 0.85549219,-0.31503125 0.31642969,-0.3033125 V 0.001375 L 1.3359609,-0.03378125 2.4843984,0.001375 v -0.3046875 c -0.5039062,0 -0.75,-0.2578125 -0.75,-0.515625 0,-0.0234375 0.011719,-0.12890625 0.023437,-0.140625 l 0.4570313,-1.3125 h 2.4609375 l 0.5273437,1.5234375 c 0.011719,0.046875 0.023437,0.10546875 0.023437,0.140625 0,0.3046875 -0.5507812,0.3046875 -0.8203125,0.3046875 V 0.001375 C 4.7578359,-0.03378125 5.4609609,-0.03378125 5.8359609,-0.03378125 Z M 4.5586172,-2.57675 H 2.3203359 l 1.1132813,-3.234375 z m 0,0"
       style="fill:#000000;fill-opacity:1;fill-rule:nonzero;stroke:none"
       aria-label="A"
       transform="matrix(1.3333333,0,0,1.3333333,162.832,39.810667)" />
  </g>
</svg>
