<?xml version="1.0" encoding="UTF-8" standalone="no"?>
<!-- Created with Inkscape (http://www.inkscape.org/) -->

<svg
   version="1.1"
   id="svg1"
   width="297"
   height="228.32001"
   viewBox="0 0 297 228.32001"
   sodipodi:docname="24-25-2-电路与电子学基础-期中-题图6.pdf"
   xmlns:inkscape="http://www.inkscape.org/namespaces/inkscape"
   xmlns:sodipodi="http://sodipodi.sourceforge.net/DTD/sodipodi-0.dtd"
   xmlns="http://www.w3.org/2000/svg"
   xmlns:svg="http://www.w3.org/2000/svg">
  <defs
     id="defs1" />
  <sodipodi:namedview
     id="namedview1"
     pagecolor="#ffffff"
     bordercolor="#000000"
     borderopacity="0.25"
     inkscape:showpageshadow="2"
     inkscape:pageopacity="0.0"
     inkscape:pagecheckerboard="0"
     inkscape:deskcolor="#d1d1d1">
    <inkscape:page
       x="0"
       y="0"
       inkscape:label="1"
       id="page1"
       width="297"
       height="228.32001"
       margin="0"
       bleed="0" />
  </sodipodi:namedview>
  <g
     id="g1"
     inkscape:groupmode="layer"
     inkscape:label="1">
    <path
       id="path1"
       d="M -56.69363,-56.69363 V 56.69363 H 56.69363 V -56.69363 Z"
       style="fill:none;stroke:#000000;stroke-width:0.3985;stroke-linecap:butt;stroke-linejoin:miter;stroke-miterlimit:10;stroke-dasharray:none;stroke-opacity:1"
       transform="matrix(1.3333333,0,0,-1.3333333,152.468,152.46267)" />
    <g
       id="g2"
       aria-label="N&#10;R"
       transform="matrix(1.3333333,0,0,1.3333333,142.77467,156.00533)">
      <path
         id="path2"
         d="m 7.5342344,-5.7549766 c 0.09375,-0.3984375 0.2695312,-0.7148437 1.0664062,-0.7382812 0.058594,0 0.1757813,-0.011719 0.1757813,-0.1992188 0,-0.011719 0,-0.1171875 -0.1289063,-0.1171875 -0.328125,0 -0.6796875,0.035156 -1.0078125,0.035156 -0.3398437,0 -0.6914062,-0.035156 -1.0195312,-0.035156 -0.058594,0 -0.1757813,0 -0.1757813,0.1992188 0,0.1171875 0.09375,0.1171875 0.1757813,0.1171875 0.5742187,0.011719 0.6796875,0.2109375 0.6796875,0.4335937 0,0.035156 -0.023437,0.1757813 -0.023437,0.2109375 l -1.125,4.4296875 -2.203125,-5.1914062 c -0.070312,-0.1875 -0.082031,-0.1992188 -0.3164063,-0.1992188 h -1.335938 c -0.1992187,0 -0.28125,0 -0.28125,0.1992188 0,0.1171875 0.082031,0.1171875 0.28125,0.1171875 0.046875,0 0.6679688,0 0.6679688,0.082031 L 1.6279844,-1.055758 c -0.09375,0.39843749 -0.2695313,0.71484374 -1.06640627,0.74999999 -0.0585938,0 -0.17578125,0 -0.17578125,0.19921875 0,0.0703125 0.046875,0.10546875 0.12890625,0.10546875 0.31640625,0 0.66796877,-0.03515625 0.99609377,-0.03515625 0.3398437,0 0.703125,0.03515625 1.03125,0.03515625 0.046875,0 0.1757812,0 0.1757812,-0.19921875 0,-0.10546875 -0.09375,-0.10546875 -0.1992187,-0.10546875 -0.5742188,-0.0234375 -0.65625,-0.24609375 -0.65625,-0.4453125 0,-0.0703125 0.011719,-0.1171875 0.035156,-0.22265625 l 1.324219,-5.26171854 c 0.035156,0.058594 0.035156,0.082031 0.082031,0.1757812 l 2.484375,5.87109379 c 0.070312,0.1640625 0.09375,0.1875 0.1875,0.1875 0.1054688,0 0.1054688,-0.03515625 0.1640625,-0.2109375 z m 0,0"
         style="fill:#000000;fill-opacity:1;fill-rule:nonzero;stroke:none" />
      <path
         id="path3"
         d="m 10.888727,-2.7813437 c 0.04687,-0.1875 0.05859,-0.2109375 0.210937,-0.234375 h 0.445313 c 0.65625,0 1.453125,0 1.453125,0.7148437 0,0.2929688 -0.128907,0.7265625 -0.457032,0.984375 -0.292968,0.2226563 -0.726562,0.328125 -1.207031,0.328125 h -0.890625 z m 1.253906,1.9101562 c 0.832031,-0.1992187 1.570312,-0.703125 1.570312,-1.3242187 0,-0.5976563 -0.703125,-1.0664063 -1.722656,-1.0664063 H 9.8574766 c -0.140625,0 -0.2226563,0 -0.2226563,0.1523438 0,0.09375 0.082031,0.09375 0.2226563,0.09375 0,0 0.140625,0 0.2578124,0.011719 0.152344,0.011719 0.164063,0.035156 0.164063,0.1054688 0,0.011719 0,0.046875 -0.02344,0.1523437 l -0.9374999,3.703125 c -0.046875,0.234375 -0.058594,0.2929688 -0.609375,0.2929688 -0.1171875,0 -0.2109375,0 -0.2109375,0.140625 0,0.070312 0.046875,0.1054687 0.1171875,0.1054687 0.1289062,0 0.2929687,-0.023437 0.4335937,-0.023437 0.1289063,0 0.328125,0 0.4570313,0 0.140625,0 0.3046875,0 0.4453125,0 0.1523434,0 0.3164064,0.023437 0.4687504,0.023437 0.03516,0 0.140625,0 0.140625,-0.140625 0,-0.1054687 -0.07031,-0.1054687 -0.222657,-0.1054687 -0.117187,0 -0.140625,0 -0.269531,-0.023437 C 9.9160703,1.21475 9.9160703,1.1913125 9.9160703,1.121 c 0,0 0,-0.046875 0.023437,-0.15234375 l 0.4453117,-1.7578125 h 0.949219 c 0.597656,0 0.855469,0.29296875 0.855469,0.62109375 0,0.09375 -0.05859,0.328125 -0.09375,0.4921875 -0.08203,0.31640625 -0.117188,0.421875 -0.117188,0.5390625 0,0.5507813 0.515625,0.7734375 1.03125,0.7734375 0.632813,0 0.914063,-0.6796875 0.914063,-0.80859375 0,-0.0234375 -0.01172,-0.09375 -0.117188,-0.09375 -0.09375,0 -0.105468,0.046875 -0.128906,0.1171875 -0.09375,0.30468755 -0.351562,0.58593755 -0.644531,0.58593755 -0.175781,0 -0.316406,-0.070312 -0.316406,-0.44531255 0,-0.17578125 0.04687,-0.5390625 0.07031,-0.7265625 0.03516,-0.1875 0.03516,-0.2578125 0.03516,-0.328125 0,-0.08203125 0,-0.3046875 -0.199218,-0.515625 -0.128908,-0.15234375 -0.316408,-0.24609375 -0.48047,-0.29296875 z m 0,0"
         style="fill:#000000;fill-opacity:1;fill-rule:nonzero;stroke:none" />
    </g>
    <path
       id="path4"
       d="m -56.69363,-45.35507 h -45.35507 l 1e-5,33.44935 m 0,23.81144 -1e-5,33.44937 h 45.35507"
       style="fill:none;stroke:#000000;stroke-width:0.3985;stroke-linecap:butt;stroke-linejoin:miter;stroke-miterlimit:10;stroke-dasharray:none;stroke-opacity:1"
       transform="matrix(1.3333333,0,0,-1.3333333,152.468,152.46267)" />
    <path
       id="path5"
       d="m -113.9544,0 c 0,-6.57541 5.3303,-11.90572 11.90571,-11.90572 6.57542,0 11.90573,5.33031 11.90573,11.90572 0,6.57541 -5.33031,11.90572 -11.90573,11.90572 -6.57541,0 -11.90571,-5.33031 -11.90571,-11.90572 z m 0,0 h 23.81144"
       style="fill:none;stroke:#000000;stroke-width:0.797;stroke-linecap:butt;stroke-linejoin:miter;stroke-miterlimit:10;stroke-dasharray:none;stroke-opacity:1"
       transform="matrix(1.3333333,0,0,-1.3333333,152.468,152.46267)" />
    <path
       id="path6"
       d="m -102.04869,26.89417 h 1.98425 l -1.98425,4.21653 -1.98425,-4.21653 z"
       style="fill:#000000;fill-opacity:1;fill-rule:nonzero;stroke:#000000;stroke-width:0.3985;stroke-linecap:butt;stroke-linejoin:miter;stroke-miterlimit:10;stroke-dasharray:none;stroke-opacity:1"
       transform="matrix(1.3333333,0,0,-1.3333333,152.468,152.46267)" />
    <g
       id="g6"
       aria-label="i&#10;s"
       transform="matrix(1.3333333,0,0,1.3333333,21.096,117.67333)">
      <path
         id="path7"
         d="m 2.8254609,-6.22375 c 0,-0.1992187 -0.1289062,-0.3632812 -0.3632812,-0.3632812 -0.2695313,0 -0.5390625,0.2578125 -0.5390625,0.5273437 0,0.1875 0.140625,0.3632813 0.375,0.3632813 0.234375,0 0.5273437,-0.234375 0.5273437,-0.5273438 z m -0.75,3.7382813 c 0.1171875,-0.28125 0.1171875,-0.3046875 0.2226563,-0.5742188 0.070312,-0.1992187 0.1289062,-0.3398437 0.1289062,-0.5273437 0,-0.4453125 -0.328125,-0.8203125 -0.8203125,-0.8203125 -0.93749996,0 -1.31249996,1.453125 -1.31249996,1.5351562 0,0.1054688 0.09375,0.1054688 0.1171875,0.1054688 0.09375,0 0.10546875,-0.023437 0.15234375,-0.1875 0.26953125,-0.9375 0.66796871,-1.2304688 1.00781251,-1.2304688 0.082031,0 0.2578125,0 0.2578125,0.3164063 0,0.2109375 -0.070312,0.421875 -0.1171875,0.515625 -0.082031,0.2578125 -0.5273438,1.4179687 -0.6796875,1.8515625 -0.10546876,0.2578125 -0.23437501,0.58593745 -0.23437501,0.79687495 0,0.46875 0.33984371,0.80859375 0.82031251,0.80859375 0.9375,0 1.3007812,-1.4414062 1.3007812,-1.5351562 0,-0.09375 -0.09375,-0.09375 -0.1171875,-0.09375 -0.1054687,0 -0.1054687,0.023437 -0.1523437,0.1757812 -0.1757813,0.6328125 -0.5039063,1.2421875 -1.0195313,1.2421875 -0.1640625,0 -0.234375,-0.10546875 -0.234375,-0.328125 0,-0.2578125 0.058594,-0.3984375 0.2929688,-0.9960937 z m 0,0"
         style="fill:#000000;fill-opacity:1;fill-rule:nonzero;stroke:none" />
      <path
         id="path8"
         d="m 6.4319062,-1.1290234 c -0.1757812,0.046875 -0.2929687,0.18749996 -0.2929687,0.32812496 0,0.1640625 0.140625,0.22265625 0.234375,0.22265625 0.070312,0 0.3398437,-0.0351563 0.3398437,-0.3984375 0,-0.44531251 -0.5039062,-0.59765621 -0.9257812,-0.59765621 -1.0898438,0 -1.2890625,0.79687496 -1.2890625,1.00781246 0,0.2578125 0.1523437,0.43359375 0.2460937,0.515625 0.1757813,0.140625 0.3046875,0.1640625 0.7851563,0.24609375 0.1523437,0.0351563 0.5976562,0.1171875 0.5976562,0.46875 0,0.1171875 -0.082031,0.37499999 -0.375,0.55078129 -0.2695312,0.1523437 -0.609375,0.1523437 -0.6914062,0.1523437 -0.28125,0 -0.6796875,-0.058594 -0.84375,-0.2929687 0.234375,-0.023437 0.3867187,-0.19921879 0.3867187,-0.39843754 0,-0.1640625 -0.1289062,-0.2578125 -0.2695312,-0.2578125 -0.1992188,0 -0.4101563,0.1640625 -0.4101563,0.46875 0,0.42187504 0.4453125,0.67968754 1.125,0.67968754 1.2890625,0 1.5234375,-0.87890629 1.5234375,-1.14843754 0,-0.64453125 -0.703125,-0.7734375 -0.9609375,-0.8203125 -0.070312,-0.0117188 -0.2460937,-0.0351563 -0.28125,-0.0585938 -0.2578125,-0.046875 -0.3867187,-0.1875 -0.3867187,-0.33984375 0,-0.1640625 0.1289062,-0.35156241 0.28125,-0.44531241 0.1875,-0.1289063 0.4335937,-0.140625 0.5507812,-0.140625 0.140625,0 0.5039063,0.023437 0.65625,0.2578125 z m 0,0"
         style="fill:#000000;fill-opacity:1;fill-rule:nonzero;stroke:none" />
    </g>
    <path
       id="path9"
       d="m -45.35507,56.69363 v 45.35507 l 33.44935,-1e-5 m 23.81144,0 33.44937,1e-5 V 56.69363"
       style="fill:none;stroke:#000000;stroke-width:0.3985;stroke-linecap:butt;stroke-linejoin:miter;stroke-miterlimit:10;stroke-dasharray:none;stroke-opacity:1"
       transform="matrix(1.3333333,0,0,-1.3333333,152.468,152.46267)" />
    <path
       id="path10"
       d="m 0,113.9544 c -6.57541,0 -11.90572,-5.3303 -11.90572,-11.90571 0,-6.57542 5.33031,-11.90573 11.90572,-11.90573 6.57541,0 11.90572,5.33031 11.90572,11.90573 0,6.57541 -5.33031,11.90571 -11.90572,11.90571 z"
       style="fill:none;stroke:#000000;stroke-width:0.797;stroke-linecap:butt;stroke-linejoin:miter;stroke-miterlimit:10;stroke-dasharray:none;stroke-opacity:1"
       transform="matrix(1.3333333,0,0,-1.3333333,152.468,152.46267)" />
    <path
       id="path11"
       d="M -11.90572,102.04869 H 11.90572"
       style="fill:none;stroke:#000000;stroke-width:0.797;stroke-linecap:butt;stroke-linejoin:miter;stroke-miterlimit:10;stroke-dasharray:none;stroke-opacity:1"
       transform="matrix(1.3333333,0,0,-1.3333333,152.468,152.46267)" />
    <path
       id="path12"
       d="m 4.0774687,-2.2979687 h 2.7773438 c 0.140625,0 0.328125,0 0.328125,-0.1992188 0,-0.1992187 -0.1875,-0.1992187 -0.328125,-0.1992187 H 4.0774687 v -2.7890625 c 0,-0.1289063 0,-0.328125 -0.1992187,-0.328125 -0.1992188,0 -0.1992188,0.1992187 -0.1992188,0.328125 v 2.7890625 H 0.88996875 c -0.140625,0 -0.328125,0 -0.328125,0.1992187 0,0.1992188 0.1875,0.1992188 0.328125,0.1992188 H 3.6790312 v 2.8007812 c 0,0.12890625 0,0.328125 0.1992188,0.328125 0.1992187,0 0.1992187,-0.19921875 0.1992187,-0.328125 z m 0,0"
       style="fill:#000000;fill-opacity:1;fill-rule:nonzero;stroke:none"
       aria-label="+"
       transform="matrix(1.3333333,0,0,1.3333333,135.204,40.673333)" />
    <path
       id="path13"
       d="m 6.5613281,-2.2979687 c 0.1757813,0 0.3515625,0 0.3515625,-0.1992188 0,-0.1992187 -0.1757812,-0.1992187 -0.3515625,-0.1992187 h -5.390625 c -0.1640625,0 -0.33984372,0 -0.33984372,0.1992187 0,0.1992188 0.17578122,0.1992188 0.33984372,0.1992188 z m 0,0"
       style="fill:#000000;fill-opacity:1;fill-rule:nonzero;stroke:none"
       aria-label="−"
       transform="matrix(1.3333333,0,0,1.3333333,159.4,40.673333)" />
    <g
       id="g13"
       aria-label="u&#10;s"
       transform="matrix(1.3333333,0,0,1.3333333,145.82667,49.168)">
      <path
         id="path14"
         d="m 3.4932813,-0.56252344 c 0.1054687,0.41015625 0.4570312,0.66796875 0.8789062,0.66796875 0.3515625,0 0.5742188,-0.22265625 0.7382813,-0.5390625 0.1757812,-0.36328125 0.3046875,-0.97265621 0.3046875,-0.99609371 0,-0.09375 -0.09375,-0.09375 -0.1289063,-0.09375 -0.09375,0 -0.1054687,0.035156 -0.140625,0.1757812 -0.1289062,0.56250001 -0.328125,1.24218751 -0.7382812,1.24218751 -0.2109375,0 -0.3164063,-0.12890625 -0.3164063,-0.45703125 0,-0.22265625 0.1289063,-0.69140626 0.1992188,-1.04296876 l 0.28125,-1.078125 c 0.035156,-0.140625 0.1289062,-0.5273437 0.1757812,-0.6679687 0.046875,-0.234375 0.140625,-0.609375 0.140625,-0.6679688 0,-0.1875 -0.140625,-0.2695312 -0.28125,-0.2695312 -0.058594,0 -0.3164062,0 -0.3867187,0.3398437 -0.1992188,0.7265625 -0.6328125,2.4726563 -0.75,3.00000001 -0.011719,0.046875 -0.4101563,0.84375 -1.1367188,0.84375 -0.515625,0 -0.6210937,-0.45703125 -0.6210937,-0.8203125 0,-0.56250001 0.28125,-1.34765621 0.5390625,-2.02734371 0.1171875,-0.3046875 0.1757812,-0.4453125 0.1757812,-0.6328125 0,-0.4453125 -0.328125,-0.8203125 -0.8203125,-0.8203125 -0.94921875,0 -1.3125,1.453125 -1.3125,1.5351562 0,0.1054688 0.09375,0.1054688 0.1171875,0.1054688 0.09375,0 0.10546875,-0.023437 0.15234375,-0.1875 0.2578125,-0.8671875 0.63281255,-1.2304688 1.00781255,-1.2304688 0.09375,0 0.2578125,0.011719 0.2578125,0.328125 0,0.234375 -0.1171875,0.5273438 -0.1757813,0.6796875 -0.3632812,0.984375 -0.5742187,1.6054688 -0.5742187,2.0859375 0,0.94921876 0.6796875,1.19531251 1.21875,1.19531251 0.65625,0 1.0195312,-0.4453125 1.1953125,-0.66796875 z m 0,0"
         style="fill:#000000;fill-opacity:1;fill-rule:nonzero;stroke:none" />
      <path
         id="path15"
         d="m 8.7051953,-1.1308828 c -0.1757812,0.046875 -0.2929687,0.18749999 -0.2929687,0.32812499 0,0.1640625 0.140625,0.22265625 0.234375,0.22265625 0.070312,0 0.3398437,-0.0351563 0.3398437,-0.3984375 0,-0.44531254 -0.5039062,-0.59765624 -0.9257812,-0.59765624 -1.0898438,0 -1.2890625,0.79687499 -1.2890625,1.00781249 0,0.2578125 0.1523437,0.43359375 0.2460937,0.515625 0.1757813,0.140625 0.3046875,0.1640625 0.7851563,0.24609375 0.1523437,0.0351563 0.5976562,0.1171875 0.5976562,0.46875 0,0.1171875 -0.082031,0.37499996 -0.375,0.55078126 -0.2695312,0.1523437 -0.609375,0.1523437 -0.6914062,0.1523437 -0.28125,0 -0.6796875,-0.058594 -0.84375,-0.2929687 0.234375,-0.023437 0.3867187,-0.19921876 0.3867187,-0.39843751 0,-0.1640625 -0.1289062,-0.2578125 -0.2695312,-0.2578125 -0.1992188,0 -0.4101563,0.1640625 -0.4101563,0.46875 0,0.42187501 0.4453125,0.67968751 1.125,0.67968751 1.2890625,0 1.5234375,-0.87890626 1.5234375,-1.14843751 0,-0.64453125 -0.703125,-0.7734375 -0.9609375,-0.8203125 -0.070312,-0.0117188 -0.2460937,-0.0351563 -0.28125,-0.0585938 -0.2578125,-0.046875 -0.3867187,-0.1875 -0.3867187,-0.33984375 0,-0.1640625 0.1289062,-0.35156244 0.28125,-0.44531244 0.1875,-0.1289063 0.4335937,-0.140625 0.5507812,-0.140625 0.140625,0 0.5039063,0.023437 0.65625,0.2578125 z m 0,0"
         style="fill:#000000;fill-opacity:1;fill-rule:nonzero;stroke:none" />
    </g>
    <path
       id="path16"
       d="m 56.69363,45.35507 h 45.35507 l -1e-5,-29.48088 m 0,-31.74838 1e-5,-29.4809 H 56.69363"
       style="fill:none;stroke:#000000;stroke-width:0.3985;stroke-linecap:butt;stroke-linejoin:miter;stroke-miterlimit:10;stroke-dasharray:none;stroke-opacity:1"
       transform="matrix(1.3333333,0,0,-1.3333333,152.468,152.46267)" />
    <path
       id="path17"
       d="m 96.09583,-15.87419 v 31.74838 h 11.90571 v -31.74838 z"
       style="fill:none;stroke:#000000;stroke-width:0.797;stroke-linecap:butt;stroke-linejoin:miter;stroke-miterlimit:10;stroke-dasharray:none;stroke-opacity:1"
       transform="matrix(1.3333333,0,0,-1.3333333,152.468,152.46267)" />
    <path
       id="path18"
       d="m 4.0794219,-2.2981562 h 2.7773437 c 0.140625,0 0.328125,0 0.328125,-0.1992188 0,-0.1992187 -0.1875,-0.1992187 -0.328125,-0.1992187 H 4.0794219 v -2.7890625 c 0,-0.1289063 0,-0.328125 -0.1992188,-0.328125 -0.1992187,0 -0.1992187,0.1992187 -0.1992187,0.328125 v 2.7890625 H 0.89192188 c -0.140625,0 -0.328125,0 -0.328125,0.1992187 0,0.1992188 0.1875,0.1992188 0.328125,0.1992188 H 3.6809844 V 0.502625 c 0,0.12890625 0,0.328125 0.1992187,0.328125 0.1992188,0 0.1992188,-0.19921875 0.1992188,-0.328125 z m 0,0"
       style="fill:#000000;fill-opacity:1;fill-rule:nonzero;stroke:none"
       aria-label="+"
       transform="matrix(1.3333333,0,0,1.3333333,261.03733,113.01733)" />
    <path
       id="path19"
       d="m 6.5637969,-2.2957891 c 0.1757812,0 0.3515625,0 0.3515625,-0.1992187 0,-0.1992188 -0.1757813,-0.1992188 -0.3515625,-0.1992188 h -5.390625 c -0.1640625,0 -0.33984377,0 -0.33984377,0.1992188 0,0.1992187 0.17578127,0.1992187 0.33984377,0.1992187 z m 0,0"
       style="fill:#000000;fill-opacity:1;fill-rule:nonzero;stroke:none"
       aria-label="−"
       transform="matrix(1.3333333,0,0,1.3333333,261.03733,198.54933)" />
    <path
       id="path20"
       d="m 3.4929453,-0.56133594 c 0.1054688,0.41015625 0.4570313,0.66796875 0.8789063,0.66796875 0.3515625,0 0.5742187,-0.22265625 0.7382812,-0.5390625 0.1757813,-0.36328125 0.3046875,-0.97265621 0.3046875,-0.99609371 0,-0.09375 -0.09375,-0.09375 -0.1289062,-0.09375 -0.09375,0 -0.1054688,0.035156 -0.140625,0.1757812 -0.1289063,0.56250001 -0.328125,1.24218751 -0.7382813,1.24218751 -0.2109375,0 -0.3164062,-0.12890625 -0.3164062,-0.45703125 0,-0.22265625 0.1289062,-0.69140626 0.1992187,-1.04296876 l 0.28125,-1.078125 c 0.035156,-0.140625 0.1289063,-0.5273437 0.1757813,-0.6679687 0.046875,-0.234375 0.140625,-0.609375 0.140625,-0.6679688 0,-0.1875 -0.140625,-0.2695312 -0.28125,-0.2695312 -0.058594,0 -0.3164063,0 -0.3867188,0.3398437 -0.1992187,0.7265625 -0.6328125,2.4726563 -0.75,3.00000001 -0.011719,0.046875 -0.4101562,0.84375 -1.1367187,0.84375 -0.515625,0 -0.6210938,-0.45703125 -0.6210938,-0.8203125 0,-0.56250001 0.28125,-1.34765621 0.5390625,-2.02734371 0.1171875,-0.3046875 0.1757813,-0.4453125 0.1757813,-0.6328125 0,-0.4453125 -0.328125,-0.8203125 -0.8203125,-0.8203125 -0.94921879,0 -1.31250004,1.453125 -1.31250004,1.5351562 0,0.1054688 0.09375,0.1054688 0.1171875,0.1054688 0.09375,0 0.10546875,-0.023437 0.15234375,-0.1875 0.2578125,-0.8671875 0.63281249,-1.2304688 1.00781249,-1.2304688 0.09375,0 0.2578125,0.011719 0.2578125,0.328125 0,0.234375 -0.1171875,0.5273438 -0.1757812,0.6796875 -0.3632813,0.984375 -0.5742188,1.6054688 -0.5742188,2.0859375 0,0.94921876 0.6796875,1.19531251 1.21875,1.19531251 0.65625,0 1.0195313,-0.4453125 1.1953125,-0.66796875 z m 0,0"
       style="fill:#000000;fill-opacity:1;fill-rule:nonzero;stroke:none"
       aria-label="u"
       transform="matrix(1.3333333,0,0,1.3333333,262.40133,155.32267)" />
  </g>
</svg>
