<?xml version="1.0" encoding="UTF-8" standalone="no"?>
<!-- Created with Inkscape (http://www.inkscape.org/) -->

<svg
   version="1.1"
   id="svg1"
   width="239.53333"
   height="129.78667"
   viewBox="0 0 239.53333 129.78667"
   sodipodi:docname="24-25-2-电路与电子学基础-期中-题图3.3.pdf"
   xmlns:inkscape="http://www.inkscape.org/namespaces/inkscape"
   xmlns:sodipodi="http://sodipodi.sourceforge.net/DTD/sodipodi-0.dtd"
   xmlns="http://www.w3.org/2000/svg"
   xmlns:svg="http://www.w3.org/2000/svg">
  <defs
     id="defs1" />
  <sodipodi:namedview
     id="namedview1"
     pagecolor="#ffffff"
     bordercolor="#000000"
     borderopacity="0.25"
     inkscape:showpageshadow="2"
     inkscape:pageopacity="0.0"
     inkscape:pagecheckerboard="0"
     inkscape:deskcolor="#d1d1d1">
    <inkscape:page
       x="0"
       y="0"
       inkscape:label="1"
       id="page1"
       width="239.53333"
       height="129.78667"
       margin="0"
       bleed="0" />
  </sodipodi:namedview>
  <g
     id="g1"
     inkscape:groupmode="layer"
     inkscape:label="1">
    <path
       id="path1"
       d="m 0,0 h 35.4335 m 0,0 h 35.43353 70.86706 v 19.55931 m 0,31.7484 v 19.55932 l -35.43354,-1e-5 m 0,0 -35.43352,1e-5 -19.55932,-1e-5 m -31.7484,0 L 0,70.86703 V 47.33923 M 0,23.52779 V 0"
       style="fill:none;stroke:#000000;stroke-width:0.3985;stroke-linecap:butt;stroke-linejoin:miter;stroke-miterlimit:10;stroke-dasharray:none;stroke-opacity:1"
       transform="matrix(1.3333333,0,0,-1.3333333,19.082667,120.82267)" />
    <path
       id="path2"
       d="m 6.47975,-1.8275938 c 0,-0.8671875 -0.8085937,-1.6054687 -1.921875,-1.7226562 0.9726563,-0.1992188 1.6523438,-0.8320313 1.6523438,-1.5703125 0,-0.8671875 -0.9140625,-1.6875 -2.203125,-1.6875 H 0.3625625 v 0.3164062 h 0.234375 c 0.7617188,0 0.7851563,0.1054688 0.7851563,0.46875 v 5.25000005 c 0,0.3515625 -0.023437,0.46875 -0.7851563,0.46875 h -0.234375 v 0.3046875 h 3.9023438 c 1.3242187,0 2.2148437,-0.890625 2.2148437,-1.82812505 z M 5.2492813,-5.1205625 c 0,0.6328125 -0.4921875,1.4765625 -1.59375,1.4765625 H 2.214125 v -2.4492188 c 0,-0.328125 0.011719,-0.3984375 0.4804688,-0.3984375 h 1.2421875 c 0.9609375,0 1.3125,0.84375 1.3125,1.3710938 z m 0.234375,3.2929687 c 0,0.703125 -0.515625,1.52343755 -1.5351563,1.52343755 H 2.6945938 c -0.46875,0 -0.4804688,-0.0703125 -0.4804688,-0.3984375 V -3.4213438 h 1.875 c 0.984375,0 1.3945313,0.9257813 1.3945313,1.59375 z m 0,0"
       style="fill:#000000;fill-opacity:1;fill-rule:nonzero;stroke:none"
       aria-label="B"
       transform="matrix(1.3333333,0,0,1.3333333,4.9853333,125.35867)" />
    <path
       id="path3"
       d="m 72.4542,0 c 0,0.87656 -0.7106,1.58714 -1.58717,1.58714 -0.87655,0 -1.58714,-0.71058 -1.58714,-1.58714 0,-0.87656 0.71059,-1.58714 1.58714,-1.58714 0.87657,0 1.58717,0.71058 1.58717,1.58714 z"
       style="fill:#000000;fill-opacity:1;fill-rule:nonzero;stroke:#000000;stroke-width:0.3985;stroke-linecap:butt;stroke-linejoin:miter;stroke-miterlimit:10;stroke-dasharray:none;stroke-opacity:1"
       transform="matrix(1.3333333,0,0,-1.3333333,19.082667,120.82267)" />
    <path
       id="path4"
       d="m 147.68694,51.30771 v -31.7484 h -11.90571 v 31.7484 z"
       style="fill:none;stroke:#000000;stroke-width:0.797;stroke-linecap:butt;stroke-linejoin:miter;stroke-miterlimit:10;stroke-dasharray:none;stroke-opacity:1"
       transform="matrix(1.3333333,0,0,-1.3333333,19.082667,120.82267)" />
    <path
       id="path5"
       d="m 2.9288125,-6.3739453 c 0,-0.234375 0,-0.2578125 -0.234375,-0.2578125 -0.609375,0.6328125 -1.4882813,0.6328125 -1.8046875,0.6328125 v 0.3164062 c 0.1992187,0 0.7851562,0 1.3007812,-0.2578125 v 5.15625004 c 0,0.3515625 -0.035156,0.48046875 -0.9257812,0.48046875 H 0.94834375 v 0.3046875 C 1.2999062,-0.03410156 2.155375,-0.03410156 2.5538125,-0.03410156 c 0.3984375,0 1.265625,0 1.6171875,0.03515625 v -0.3046875 H 3.8545937 c -0.9023437,0 -0.9257812,-0.1171875 -0.9257812,-0.48046875 z m 10.4443355,4.7578125 h -0.246093 c -0.04687,0.2578125 -0.08203,0.4921875 -0.175782,0.72656249 -0.04687,0.1640625 -0.08203,0.24609375 -0.65625,0.24609375 h -0.796875 c 0.128907,-0.56250004 0.433594,-1.04296874 0.878907,-1.69921874 0.46875,-0.703125 0.878906,-1.3945313 0.878906,-2.1796875 0,-1.3828125 -1.335938,-2.4960938 -3.023438,-2.4960938 -1.7109371,0 -3.0351558,1.1367188 -3.0351558,2.4960938 0,0.7851562 0.3984375,1.4765625 0.8671875,2.1796875 0.4453125,0.65625 0.7617187,1.1367187 0.890625,1.69921874 h -0.796875 c -0.5742188,0 -0.609375,-0.0820313 -0.65625,-0.234375 C 7.4200234,-1.1005078 7.3731484,-1.3583203 7.3262734,-1.6161328 H 7.0684609 l 0.328125,1.61718749 h 1.59375 c 0.2226563,0 0.2578125,0 0.2578125,-0.2109375 0,-0.69140625 -0.3164062,-1.57031249 -0.5390625,-2.21484379 -0.2109375,-0.5742187 -0.4921875,-1.359375 -0.4921875,-2.109375 0,-1.59375 1.1015625,-2.2734375 2.0039066,-2.2734375 0.960937,0 2.015625,0.7265625 2.015625,2.2734375 0,0.75 -0.269532,1.5117188 -0.5625,2.3203125 -0.152344,0.421875 -0.46875,1.31250004 -0.46875,2.00390629 0,0.2109375 0.03516,0.2109375 0.257812,0.2109375 h 1.582031 z m 0,0"
       style="fill:#000000;fill-opacity:1;fill-rule:nonzero;stroke:none"
       aria-label="1Ω"
       transform="matrix(1.3333333,0,0,1.3333333,218.93867,76.44)" />
    <path
       id="path6"
       d="m 72.4542,70.86703 c 0,0.87657 -0.7106,1.58717 -1.58717,1.58717 -0.87655,0 -1.58714,-0.7106 -1.58714,-1.58717 0,-0.87655 0.71059,-1.58714 1.58714,-1.58714 0.87657,0 1.58717,0.71059 1.58717,1.58714 z"
       style="fill:#000000;fill-opacity:1;fill-rule:nonzero;stroke:#000000;stroke-width:0.3985;stroke-linecap:butt;stroke-linejoin:miter;stroke-miterlimit:10;stroke-dasharray:none;stroke-opacity:1"
       transform="matrix(1.3333333,0,0,-1.3333333,19.082667,120.82267)" />
    <path
       id="path7"
       d="m 19.55931,76.81987 h 31.7484 v -11.9057 h -31.7484 z"
       style="fill:none;stroke:#000000;stroke-width:0.797;stroke-linecap:butt;stroke-linejoin:miter;stroke-miterlimit:10;stroke-dasharray:none;stroke-opacity:1"
       transform="matrix(1.3333333,0,0,-1.3333333,19.082667,120.82267)" />
    <path
       id="path8"
       d="M 1.2647969,-0.76127344 2.3194844,-1.7925234 c 1.5585937,-1.3710938 2.15625,-1.9101563 2.15625,-2.90625 0,-1.1367188 -0.9023438,-1.9335938 -2.1210938,-1.9335938 -1.125,0 -1.85156247,0.9140625 -1.85156247,1.8046875 0,0.5507813 0.4921875,0.5507813 0.52734377,0.5507813 0.1640625,0 0.515625,-0.1171875 0.515625,-0.5273438 0,-0.2578125 -0.1875,-0.515625 -0.5273438,-0.515625 -0.0820312,0 -0.10546872,0 -0.12890622,0.011719 0.22265622,-0.6445313 0.76171872,-1.0195313 1.33593752,-1.0195313 0.9140625,0 1.3359375,0.8085938 1.3359375,1.6289063 0,0.796875 -0.4921875,1.5820312 -1.0429688,2.203125 L 0.60854688,-0.36283594 C 0.50307813,-0.25736719 0.50307813,-0.23392969 0.50307813,4.453125e-4 H 4.1944844 L 4.4757344,-1.7339297 H 4.2179219 c -0.046875,0.3046875 -0.1171875,0.73828126 -0.2109375,0.89062501 -0.070313,0.0820313 -0.7265625,0.0820313 -0.9492188,0.0820313 z M 13.373195,-1.6167422 h -0.246093 c -0.04687,0.2578125 -0.08203,0.4921875 -0.175782,0.72656251 -0.04687,0.1640625 -0.08203,0.24609375 -0.65625,0.24609375 h -0.796875 c 0.128907,-0.56249996 0.433594,-1.04296876 0.878907,-1.69921876 0.46875,-0.703125 0.878906,-1.3945312 0.878906,-2.1796875 0,-1.3828125 -1.335938,-2.4960937 -3.023438,-2.4960937 -1.7109372,0 -3.0351559,1.1367187 -3.0351559,2.4960937 0,0.7851563 0.3984375,1.4765625 0.8671875,2.1796875 0.4453125,0.65625 0.7617187,1.1367188 0.890625,1.69921876 h -0.796875 c -0.5742188,0 -0.609375,-0.0820313 -0.65625,-0.234375 C 7.4200703,-1.1011172 7.3731953,-1.3589297 7.3263203,-1.6167422 H 7.0685078 l 0.328125,1.6171875125 h 1.59375 c 0.2226563,0 0.2578125,0 0.2578125,-0.2109375025 0,-0.69140625 -0.3164062,-1.57031251 -0.5390625,-2.21484371 -0.2109375,-0.5742188 -0.4921875,-1.359375 -0.4921875,-2.109375 0,-1.59375 1.1015625,-2.2734375 2.0039067,-2.2734375 0.960937,0 2.015625,0.7265625 2.015625,2.2734375 0,0.75 -0.269532,1.5117187 -0.5625,2.3203125 -0.152344,0.421875 -0.46875,1.31249996 -0.46875,2.00390621 0,0.2109375025 0.03516,0.2109375025 0.257812,0.2109375025 h 1.582031 z m 0,0"
       style="fill:#000000;fill-opacity:1;fill-rule:nonzero;stroke:none"
       aria-label="2Ω"
       transform="matrix(1.3333333,0,0,1.3333333,57.102667,13.308)" />
    <path
       id="path9"
       d="M 7.1360547,3.828125e-4 V -0.30430469 H 6.9602734 c -0.5976562,0 -0.7382812,-0.0703125 -0.84375,-0.3984375 l -2.15625,-6.23437501 c -0.046875,-0.1289062 -0.070312,-0.1992187 -0.2226562,-0.1992187 -0.1640625,0 -0.1875,0.058594 -0.2460938,0.1992187 l -2.0625,5.96484376 c -0.1757812,0.50390625 -0.57421871,0.65625 -1.11328121,0.66796875 V 3.828125e-4 L 1.3352734,-0.03477344 2.4837109,3.828125e-4 V -0.30430469 c -0.5039062,0 -0.75,-0.2578125 -0.75,-0.515625 0,-0.0234375 0.011719,-0.12890625 0.023437,-0.140625 L 2.2141797,-2.2730547 h 2.4609375 l 0.5273437,1.52343751 c 0.011719,0.046875 0.023437,0.10546875 0.023437,0.140625 0,0.3046875 -0.5507812,0.3046875 -0.8203125,0.3046875 V 3.828125e-4 C 4.7571484,-0.03477344 5.4602734,-0.03477344 5.8352734,-0.03477344 Z M 4.5579297,-2.5777422 H 2.3196484 l 1.1132813,-3.234375 z m 0,0"
       style="fill:#000000;fill-opacity:1;fill-rule:nonzero;stroke:none"
       aria-label="A"
       transform="matrix(1.3333333,0,0,1.3333333,4.4266667,31.089333)" />
    <path
       id="path10"
       d="m 11.90572,35.4335 c 0,6.57543 -5.33031,11.90573 -11.90572,11.90573 -6.57541,0 -11.90572,-5.3303 -11.90572,-11.90573 0,-6.5754 5.33031,-11.90571 11.90572,-11.90571 6.57541,0 11.90572,5.33031 11.90572,11.90571 z m 0,0 h -23.81144"
       style="fill:none;stroke:#000000;stroke-width:0.797;stroke-linecap:butt;stroke-linejoin:miter;stroke-miterlimit:10;stroke-dasharray:none;stroke-opacity:1"
       transform="matrix(1.3333333,0,0,-1.3333333,19.082667,120.82267)" />
    <path
       id="path11"
       d="M 0,57.36691 H 1.98425 L 0,61.58345 -1.98425,57.36691 Z"
       style="fill:#000000;fill-opacity:1;fill-rule:nonzero;stroke:#000000;stroke-width:0.3985;stroke-linecap:butt;stroke-linejoin:miter;stroke-miterlimit:10;stroke-dasharray:none;stroke-opacity:1"
       transform="matrix(1.3333333,0,0,-1.3333333,19.082667,120.82267)" />
    <g
       id="g11"
       aria-label="I&#10;S"
       transform="matrix(1.3333333,0,0,1.3333333,23.776,45.561333)">
      <path
         id="path12"
         d="m 3.7275703,-6.0342813 c 0.09375,-0.3632812 0.1171875,-0.4570312 0.9023438,-0.4570312 0.2460937,0 0.3164062,0 0.3164062,-0.1875 0,-0.1289063 -0.1054687,-0.1289063 -0.140625,-0.1289063 -0.2929687,0 -1.03125,0.035156 -1.3125,0.035156 -0.3046875,0 -1.03125,-0.035156 -1.3359375,-0.035156 -0.058594,0 -0.1992187,0 -0.1992187,0.1992188 0,0.1171875 0.09375,0.1171875 0.28125,0.1171875 0.421875,0 0.6914062,0 0.6914062,0.1875 0,0.046875 0,0.070312 -0.023437,0.1640625 l -1.3476562,5.3671875 c -0.082031,0.36328125 -0.1171875,0.46875 -0.90234379,0.46875 -0.22265625,0 -0.31640625,0 -0.31640625,0.19921875 0,0.10546875 0.1171875,0.10546875 0.15234375,0.10546875 0.28125,0 1.00781249,-0.03515625 1.30078129,-0.03515625 0.3046875,0 1.03125,0.03515625 1.3359375,0.03515625 0.082031,0 0.1992187,0 0.1992187,-0.1875 0,-0.1171875 -0.082031,-0.1171875 -0.3046875,-0.1171875 -0.1757812,0 -0.2226562,0 -0.421875,-0.0234375 -0.2109375,-0.0234375 -0.2460937,-0.0585938 -0.2460937,-0.17578125 0,-0.0703125 0.011719,-0.15234375 0.035156,-0.22265625 z m 0,0"
         style="fill:#000000;fill-opacity:1;fill-rule:nonzero;stroke:none" />
      <path
         id="path13"
         d="m 9.3262031,-3.3213906 c 0,-0.035156 -0.011719,-0.082031 -0.082031,-0.082031 -0.046875,0 -0.046875,0 -0.140625,0.09375 l -0.3398438,0.3984375 c -0.2695312,-0.375 -0.703125,-0.4921875 -1.1367187,-0.4921875 -0.984375,0 -1.8515625,0.796875 -1.8515625,1.59375 0,0.1054688 0.023437,0.3867188 0.234375,0.6445313 0.234375,0.28124997 0.4921875,0.33984372 0.9609375,0.44531247 0.140625,0.0351563 0.4921875,0.1171875 0.5976562,0.140625 0.2226563,0.0585938 0.6445313,0.2109375 0.6445313,0.73828125 0,0.5625 -0.5859375,1.21874998 -1.3828125,1.21874998 -0.6210938,0 -1.359375,-0.2109375 -1.359375,-0.98437498 0,-0.0703125 0.023437,-0.22265625 0.046875,-0.3515625 0.011719,-0.0234375 0.011719,-0.03515625 0.011719,-0.03515625 0,-0.09375 -0.09375,-0.09375 -0.1171875,-0.09375 -0.09375,0 -0.1054687,0.01171875 -0.1289062,0.140625 L 4.9199531,1.4481406 c 0,0.023437 -0.011719,0.070312 -0.011719,0.1054688 0,0.035156 0.023437,0.082031 0.09375,0.082031 0.046875,0 0.046875,-0.011719 0.140625,-0.09375 0.070312,-0.09375 0.2578125,-0.3164062 0.328125,-0.3984375 0.375,0.4101563 0.9140625,0.4921875 1.3359375,0.4921875 1.0546875,0 1.8984375,-0.90234373 1.8984375,-1.73437498 0,-0.3046875 -0.1171875,-0.5859375 -0.2695313,-0.73828125 C 8.1894844,-1.0948281 8.0840156,-1.1182656 7.1816719,-1.3292031 c -0.140625,-0.035156 -0.375,-0.09375 -0.4335938,-0.1054688 -0.1757812,-0.070312 -0.46875,-0.2460937 -0.46875,-0.6445312 0,-0.5507813 0.6210938,-1.1015625 1.3476563,-1.1015625 0.75,0 1.1132812,0.421875 1.1132812,1.0898437 0,0.082031 -0.035156,0.2460938 -0.035156,0.3046875 0,0.1054688 0.09375,0.1054688 0.1289062,0.1054688 0.1054688,0 0.1054688,-0.035156 0.140625,-0.1523438 z m 0,0"
         style="fill:#000000;fill-opacity:1;fill-rule:nonzero;stroke:none" />
    </g>
    <path
       id="path14"
       d="m 70.86703,70.86703 -1e-5,-23.5278 m 0,-23.81144 L 70.86703,0"
       style="fill:none;stroke:#000000;stroke-width:0.3985;stroke-linecap:butt;stroke-linejoin:miter;stroke-miterlimit:10;stroke-dasharray:none;stroke-opacity:1"
       transform="matrix(1.3333333,0,0,-1.3333333,19.082667,120.82267)" />
    <path
       id="path15"
       d="m 82.77274,35.4335 c 0,6.57543 -5.3303,11.90573 -11.90572,11.90573 -6.57541,0 -11.90572,-5.3303 -11.90572,-11.90573 0,-6.5754 5.33031,-11.90571 11.90572,-11.90571 6.57542,0 11.90572,5.33031 11.90572,11.90571 z"
       style="fill:none;stroke:#000000;stroke-width:0.797;stroke-linecap:butt;stroke-linejoin:miter;stroke-miterlimit:10;stroke-dasharray:none;stroke-opacity:1"
       transform="matrix(1.3333333,0,0,-1.3333333,19.082667,120.82267)" />
    <path
       id="path16"
       d="M 70.86702,47.33923 V 23.52779"
       style="fill:none;stroke:#000000;stroke-width:0.797;stroke-linecap:butt;stroke-linejoin:miter;stroke-miterlimit:10;stroke-dasharray:none;stroke-opacity:1"
       transform="matrix(1.3333333,0,0,-1.3333333,19.082667,120.82267)" />
    <path
       id="path17"
       d="m 6.5620312,-2.2962891 c 0.1757813,0 0.3515625,0 0.3515625,-0.1992187 0,-0.1992188 -0.1757812,-0.1992188 -0.3515625,-0.1992188 h -5.390625 c -0.1640625,0 -0.3398437,0 -0.3398437,0.1992188 0,0.1992187 0.1757812,0.1992187 0.3398437,0.1992187 z m 0,0"
       style="fill:#000000;fill-opacity:1;fill-rule:nonzero;stroke:none"
       aria-label="−"
       transform="matrix(1.3333333,0,0,1.3333333,129.36,64.8)" />
    <path
       id="path18"
       d="M 4.0776562,-2.2978047 H 6.855 c 0.140625,0 0.328125,0 0.328125,-0.1992187 0,-0.1992188 -0.1875,-0.1992188 -0.328125,-0.1992188 H 4.0776562 v -2.7890625 c 0,-0.1289062 0,-0.328125 -0.1992187,-0.328125 -0.1992188,0 -0.1992188,0.1992188 -0.1992188,0.328125 v 2.7890625 H 0.89015625 c -0.140625,0 -0.328125,0 -0.328125,0.1992188 0,0.1992187 0.1875,0.1992187 0.328125,0.1992187 H 3.6792187 v 2.80078126 c 0,0.12890625 0,0.328125 0.1992188,0.328125 0.1992187,0 0.1992187,-0.19921875 0.1992187,-0.328125 z m 0,0"
       style="fill:#000000;fill-opacity:1;fill-rule:nonzero;stroke:none"
       aria-label="+"
       transform="matrix(1.3333333,0,0,1.3333333,129.36,88.997333)" />
    <g
       id="g18"
       aria-label="U&#10;S"
       transform="matrix(1.3333333,0,0,1.3333333,140.62267,77.12)">
      <path
         id="path19"
         d="m 6.3269453,-5.7530859 c 0.09375,-0.4101563 0.28125,-0.7148438 1.078125,-0.7382813 0.046875,0 0.1640625,-0.011719 0.1640625,-0.1992187 0,-0.011719 0,-0.1171875 -0.1289062,-0.1171875 -0.328125,0 -0.6796875,0.035156 -1.0195313,0.035156 -0.3398437,0 -0.703125,-0.035156 -1.03125,-0.035156 -0.058594,0 -0.1757812,0 -0.1757812,0.1992187 0,0.1171875 0.09375,0.1171875 0.1757812,0.1171875 0.5625,0.011719 0.6796875,0.2109375 0.6796875,0.4335938 0,0.035156 -0.023437,0.1757812 -0.035156,0.2109375 l -0.890625,3.5507812 c -0.3398438,1.33593751 -1.4882813,2.20312501 -2.484375,2.20312501 -0.6796875,0 -1.21875,-0.43359375 -1.21875,-1.28906251 0,-0.023437 0,-0.3398437 0.1171875,-0.7734375 l 0.9609375,-3.8789062 c 0.09375,-0.3632813 0.1054687,-0.4570313 0.8320312,-0.4570313 0.2695313,0 0.3398438,0 0.3398438,-0.1992187 0,-0.1171875 -0.1054688,-0.1171875 -0.140625,-0.1171875 -0.2695313,0 -0.9960938,0.035156 -1.265625,0.035156 -0.2929688,0 -0.9960938,-0.035156 -1.28906254,-0.035156 -0.0820313,0 -0.1875,0 -0.1875,0.1992187 0,0.1171875 0.09375,0.1171875 0.28125004,0.1171875 0.011719,0 0.2109375,0 0.375,0.011719 0.1757812,0.023437 0.2695312,0.035156 0.2695312,0.1640625 0,0.058594 -0.1054687,0.4804687 -0.1757812,0.703125 l -0.2109375,0.8789062 c -0.09375,0.3867188 -0.57421879,2.2734375 -0.60937504,2.4609375 -0.0703125,0.28125 -0.0703125,0.4335938 -0.0703125,0.5742188 0,1.21874996 0.90234374,1.92187496 1.95703124,1.92187496 1.2539063,0 2.484375,-1.125 2.8125,-2.44921876 z m 0,0"
         style="fill:#000000;fill-opacity:1;fill-rule:nonzero;stroke:none" />
      <path
         id="path20"
         d="m 11.746867,-3.3214453 c 0,-0.035156 -0.01172,-0.082031 -0.08203,-0.082031 -0.04687,0 -0.04687,0 -0.140625,0.09375 l -0.339844,0.3984375 c -0.269531,-0.375 -0.703125,-0.4921875 -1.136719,-0.4921875 -0.9843746,0 -1.8515621,0.796875 -1.8515621,1.59375 0,0.1054688 0.023437,0.3867188 0.234375,0.6445313 0.234375,0.28124999 0.4921875,0.33984374 0.9609375,0.44531249 0.140625,0.0351563 0.4921875,0.1171875 0.5976563,0.140625 0.2226563,0.0585938 0.6445313,0.2109375 0.6445313,0.73828125 0,0.5625 -0.585938,1.21874996 -1.3828126,1.21874996 -0.6210937,0 -1.359375,-0.2109375 -1.359375,-0.98437496 0,-0.0703125 0.023437,-0.22265625 0.046875,-0.3515625 0.011719,-0.0234375 0.011719,-0.03515625 0.011719,-0.03515625 0,-0.09375 -0.09375,-0.09375 -0.1171875,-0.09375 -0.09375,0 -0.1054688,0.01171875 -0.1289063,0.140625 L 7.3406172,1.4480859 c 0,0.023437 -0.011719,0.070312 -0.011719,0.1054688 0,0.035156 0.023437,0.082031 0.09375,0.082031 0.046875,0 0.046875,-0.011719 0.140625,-0.09375 0.070312,-0.09375 0.2578125,-0.3164062 0.328125,-0.3984375 0.375,0.4101563 0.9140625,0.4921875 1.3359375,0.4921875 1.0546873,0 1.8984373,-0.90234371 1.8984373,-1.73437496 0,-0.3046875 -0.117187,-0.5859375 -0.269531,-0.73828125 C 10.610148,-1.0948828 10.50468,-1.1183203 9.6023359,-1.3292578 c -0.140625,-0.035156 -0.375,-0.09375 -0.4335937,-0.1054688 -0.1757813,-0.070312 -0.46875,-0.2460937 -0.46875,-0.6445312 0,-0.5507813 0.6210937,-1.1015625 1.3476558,-1.1015625 0.75,0 1.113282,0.421875 1.113282,1.0898437 0,0.082031 -0.03516,0.2460938 -0.03516,0.3046875 0,0.1054688 0.09375,0.1054688 0.128907,0.1054688 0.105468,0 0.105468,-0.035156 0.140625,-0.1523438 z m 0,0"
         style="fill:#000000;fill-opacity:1;fill-rule:nonzero;stroke:none" />
    </g>
    <path
       id="path21"
       d="m 70.86702,60.83934 h -1.98425 l 1.98425,-4.21654 1.98425,4.21654 z"
       style="fill:#000000;fill-opacity:1;fill-rule:nonzero;stroke:#000000;stroke-width:0.3985;stroke-linecap:butt;stroke-linejoin:miter;stroke-miterlimit:10;stroke-dasharray:none;stroke-opacity:1"
       transform="matrix(1.3333333,0,0,-1.3333333,19.082667,120.82267)" />
    <path
       id="path22"
       d="m 3.7267813,-6.0342109 c 0.09375,-0.3632813 0.1171875,-0.4570313 0.9023437,-0.4570313 0.2460938,0 0.3164063,0 0.3164063,-0.1875 0,-0.1289062 -0.1054688,-0.1289062 -0.140625,-0.1289062 -0.2929688,0 -1.03125,0.035156 -1.3125,0.035156 -0.3046875,0 -1.03125,-0.035156 -1.3359375,-0.035156 -0.058594,0 -0.1992188,0 -0.1992188,0.1992187 0,0.1171875 0.09375,0.1171875 0.28125,0.1171875 0.421875,0 0.6914063,0 0.6914063,0.1875 0,0.046875 0,0.070312 -0.023437,0.1640625 L 1.558813,-0.77249219 c -0.082031,0.36328125 -0.1171875,0.46875 -0.90234375,0.46875 -0.22265625,0 -0.31640625,0 -0.31640625,0.19921875 0,0.1054687525 0.1171875,0.1054687525 0.15234375,0.1054687525 0.28125,0 1.00781255,-0.0351562525 1.30078125,-0.0351562525 0.3046875,0 1.03125,0.0351562525 1.3359375,0.0351562525 0.082031,0 0.1992188,0 0.1992188,-0.1875000025 0,-0.1171875 -0.082031,-0.1171875 -0.3046875,-0.1171875 -0.1757813,0 -0.2226563,0 -0.421875,-0.0234375 -0.2109375,-0.0234375 -0.2460938,-0.0585938 -0.2460938,-0.17578125 0,-0.0703125 0.011719,-0.15234375 0.035156,-0.22265625 z m 0,0"
       style="fill:#000000;fill-opacity:1;fill-rule:nonzero;stroke:none"
       aria-label="I"
       transform="matrix(1.3333333,0,0,1.3333333,118.26533,46.557333)" />
  </g>
</svg>
