<?xml version="1.0" encoding="UTF-8" standalone="no"?>
<!-- Created with Inkscape (http://www.inkscape.org/) -->

<svg
   version="1.1"
   id="svg1"
   width="306.33334"
   height="169.97333"
   viewBox="0 0 306.33334 169.97333"
   sodipodi:docname="24-25-2-电路与电子学基础-期中-题图3.4.pdf"
   xmlns:inkscape="http://www.inkscape.org/namespaces/inkscape"
   xmlns:sodipodi="http://sodipodi.sourceforge.net/DTD/sodipodi-0.dtd"
   xmlns="http://www.w3.org/2000/svg"
   xmlns:svg="http://www.w3.org/2000/svg">
  <defs
     id="defs1" />
  <sodipodi:namedview
     id="namedview1"
     pagecolor="#ffffff"
     bordercolor="#000000"
     borderopacity="0.25"
     inkscape:showpageshadow="2"
     inkscape:pageopacity="0.0"
     inkscape:pagecheckerboard="0"
     inkscape:deskcolor="#d1d1d1">
    <inkscape:page
       x="0"
       y="0"
       inkscape:label="1"
       id="page1"
       width="306.33334"
       height="169.97333"
       margin="0"
       bleed="0" />
  </sodipodi:namedview>
  <g
     id="g1"
     inkscape:groupmode="layer"
     inkscape:label="1">
    <path
       id="path1"
       d="m 0,0 h 35.4335 m 0,0 h 35.43353 35.43352 m 0,0 h 35.43354 70.86705"
       style="fill:none;stroke:#000000;stroke-width:0.3985;stroke-linecap:butt;stroke-linejoin:miter;stroke-miterlimit:10;stroke-dasharray:none;stroke-opacity:1"
       transform="matrix(1.3333333,0,0,-1.3333333,6.4586667,167.592)" />
    <path
       id="path2"
       d="M 1.58714,0 C 1.58714,0.87656 0.87656,1.58714 0,1.58714 -0.87656,1.58714 -1.58714,0.87656 -1.58714,0 c 0,-0.87656 0.71058,-1.58714 1.58714,-1.58714 0.87656,0 1.58714,0.71058 1.58714,1.58714 z"
       style="fill:#ffffff;fill-opacity:1;fill-rule:nonzero;stroke:#000000;stroke-width:0.3985;stroke-linecap:butt;stroke-linejoin:miter;stroke-miterlimit:10;stroke-dasharray:none;stroke-opacity:1"
       transform="matrix(1.3333333,0,0,-1.3333333,6.4586667,167.592)" />
    <path
       id="path3"
       d="m 72.4542,0 c 0,0.87656 -0.7106,1.58714 -1.58717,1.58714 -0.87655,0 -1.58714,-0.71058 -1.58714,-1.58714 0,-0.87656 0.71059,-1.58714 1.58714,-1.58714 0.87657,0 1.58717,0.71058 1.58717,1.58714 z"
       style="fill:#000000;fill-opacity:1;fill-rule:nonzero;stroke:#000000;stroke-width:0.3985;stroke-linecap:butt;stroke-linejoin:miter;stroke-miterlimit:10;stroke-dasharray:none;stroke-opacity:1"
       transform="matrix(1.3333333,0,0,-1.3333333,6.4586667,167.592)" />
    <path
       id="path4"
       d="m 143.32123,0 c 0,0.87656 -0.71059,1.58714 -1.58714,1.58714 -0.87656,0 -1.58715,-0.71058 -1.58715,-1.58714 0,-0.87656 0.71059,-1.58714 1.58715,-1.58714 0.87655,0 1.58714,0.71058 1.58714,1.58714 z"
       style="fill:#000000;fill-opacity:1;fill-rule:nonzero;stroke:#000000;stroke-width:0.3985;stroke-linecap:butt;stroke-linejoin:miter;stroke-miterlimit:10;stroke-dasharray:none;stroke-opacity:1"
       transform="matrix(1.3333333,0,0,-1.3333333,6.4586667,167.592)" />
    <path
       id="path5"
       d="m 0,113.38728 23.52779,-1e-5 m 23.81144,0 23.5278,1e-5 35.43352,-1e-5 m 0,0 35.43354,1e-5 h 70.86705"
       style="fill:none;stroke:#000000;stroke-width:0.3985;stroke-linecap:butt;stroke-linejoin:miter;stroke-miterlimit:10;stroke-dasharray:none;stroke-opacity:1"
       transform="matrix(1.3333333,0,0,-1.3333333,6.4586667,167.592)" />
    <path
       id="path6"
       d="m 35.4335,125.29298 c -6.5754,0 -11.90571,-5.3303 -11.90571,-11.90571 0,-6.57543 5.33031,-11.90573 11.90571,-11.90573 6.57543,0 11.90573,5.3303 11.90573,11.90573 0,6.57541 -5.3303,11.90571 -11.90573,11.90571 z"
       style="fill:none;stroke:#000000;stroke-width:0.797;stroke-linecap:butt;stroke-linejoin:miter;stroke-miterlimit:10;stroke-dasharray:none;stroke-opacity:1"
       transform="matrix(1.3333333,0,0,-1.3333333,6.4586667,167.592)" />
    <path
       id="path7"
       d="M 7.1377109,4.6875e-5 V -0.30464063 H 6.9619297 c -0.5976563,0 -0.7382813,-0.0703125 -0.84375,-0.3984375 l -2.15625,-6.23437497 c -0.046875,-0.1289063 -0.070312,-0.1992188 -0.2226563,-0.1992188 -0.1640625,0 -0.1875,0.058594 -0.2460937,0.1992188 l -2.0625,5.96484372 c -0.1757813,0.50390625 -0.57421876,0.65625 -1.11328126,0.66796875 V 4.6875e-5 L 1.3369297,-0.03510938 2.4853672,4.6875e-5 V -0.30464063 c -0.5039063,0 -0.75,-0.2578125 -0.75,-0.515625 0,-0.0234375 0.011719,-0.12890625 0.023437,-0.140625 L 2.2158359,-2.2733906 h 2.4609375 l 0.5273438,1.52343747 c 0.011719,0.046875 0.023437,0.10546875 0.023437,0.140625 0,0.3046875 -0.5507813,0.3046875 -0.8203125,0.3046875 V 4.6875e-5 C 4.7588047,-0.03510938 5.4619297,-0.03510938 5.8369297,-0.03510938 Z M 4.5595859,-2.5780781 H 2.3213047 l 1.1132812,-3.234375 z m 0,0"
       style="fill:#000000;fill-opacity:1;fill-rule:nonzero;stroke:none"
       aria-label="A"
       transform="matrix(1.3333333,0,0,1.3333333,48.721333,21.164)" />
    <path
       id="path8"
       d="m 1.58714,113.38728 c 0,0.87656 -0.71058,1.58715 -1.58714,1.58715 -0.87656,0 -1.58714,-0.71059 -1.58714,-1.58715 0,-0.87657 0.71058,-1.58715 1.58714,-1.58715 0.87656,0 1.58714,0.71058 1.58714,1.58715 z"
       style="fill:#ffffff;fill-opacity:1;fill-rule:nonzero;stroke:#000000;stroke-width:0.3985;stroke-linecap:butt;stroke-linejoin:miter;stroke-miterlimit:10;stroke-dasharray:none;stroke-opacity:1"
       transform="matrix(1.3333333,0,0,-1.3333333,6.4586667,167.592)" />
    <path
       id="path9"
       d="m 72.4542,113.38728 c 0,0.87656 -0.7106,1.58715 -1.58717,1.58715 -0.87655,0 -1.58714,-0.71059 -1.58714,-1.58715 0,-0.87657 0.71059,-1.58715 1.58714,-1.58715 0.87657,0 1.58717,0.71058 1.58717,1.58715 z"
       style="fill:#000000;fill-opacity:1;fill-rule:nonzero;stroke:#000000;stroke-width:0.3985;stroke-linecap:butt;stroke-linejoin:miter;stroke-miterlimit:10;stroke-dasharray:none;stroke-opacity:1"
       transform="matrix(1.3333333,0,0,-1.3333333,6.4586667,167.592)" />
    <path
       id="path10"
       d="m 143.32123,113.38728 c 0,0.87656 -0.71059,1.58715 -1.58714,1.58715 -0.87656,0 -1.58715,-0.71059 -1.58715,-1.58715 0,-0.87657 0.71059,-1.58715 1.58715,-1.58715 0.87655,0 1.58714,0.71058 1.58714,1.58715 z"
       style="fill:#000000;fill-opacity:1;fill-rule:nonzero;stroke:#000000;stroke-width:0.3985;stroke-linecap:butt;stroke-linejoin:miter;stroke-miterlimit:10;stroke-dasharray:none;stroke-opacity:1"
       transform="matrix(1.3333333,0,0,-1.3333333,6.4586667,167.592)" />
    <path
       id="path11"
       d="m 6.5622266,-2.2972891 c 0.1757812,0 0.3515625,0 0.3515625,-0.1992187 0,-0.1992188 -0.1757813,-0.1992188 -0.3515625,-0.1992188 h -5.390625 c -0.1640625,0 -0.33984379,0 -0.33984379,0.1992188 0,0.1992187 0.17578129,0.1992187 0.33984379,0.1992187 z m 0,0"
       style="fill:#000000;fill-opacity:1;fill-rule:nonzero;stroke:none"
       aria-label="−"
       transform="matrix(1.3333333,0,0,1.3333333,1.2933333,148.30133)" />
    <path
       id="path12"
       d="m 4.0778516,-2.2979922 h 2.7773437 c 0.140625,0 0.328125,0 0.328125,-0.1992187 0,-0.1992188 -0.1875,-0.1992188 -0.328125,-0.1992188 H 4.0778516 v -2.7890625 c 0,-0.1289062 0,-0.328125 -0.1992188,-0.328125 -0.1992187,0 -0.1992187,0.1992188 -0.1992187,0.328125 v 2.7890625 H 0.89035156 c -0.140625,0 -0.328125,0 -0.328125,0.1992188 0,0.1992187 0.1875,0.1992187 0.328125,0.1992187 H 3.6794141 v 2.80078126 c 0,0.12890625 0,0.328125 0.1992187,0.328125 0.1992188,0 0.1992188,-0.19921875 0.1992188,-0.328125 z m 0,0"
       style="fill:#000000;fill-opacity:1;fill-rule:nonzero;stroke:none"
       aria-label="+"
       transform="matrix(1.3333333,0,0,1.3333333,1.2933333,42.341333)" />
    <path
       id="path13"
       d="M 3.492375,-0.56296875 C 3.5978437,-0.1528125 3.9494062,0.105 4.3712812,0.105 4.7228437,0.105 4.9455,-0.11765625 5.1095625,-0.4340625 5.2853437,-0.79734375 5.41425,-1.4067188 5.41425,-1.4301563 c 0,-0.09375 -0.09375,-0.09375 -0.1289063,-0.09375 -0.09375,0 -0.1054687,0.035156 -0.140625,0.1757813 -0.1289062,0.5625 -0.328125,1.2421875 -0.7382812,1.2421875 -0.2109375,0 -0.3164063,-0.12890625 -0.3164063,-0.45703125 0,-0.22265625 0.1289063,-0.69140625 0.1992188,-1.04296875 l 0.28125,-1.078125 c 0.035156,-0.140625 0.1289062,-0.5273438 0.1757812,-0.6679688 0.046875,-0.234375 0.140625,-0.609375 0.140625,-0.6679687 0,-0.1875 -0.140625,-0.2695313 -0.28125,-0.2695313 -0.058594,0 -0.3164062,0 -0.3867187,0.3398438 -0.1992188,0.7265625 -0.6328125,2.4726562 -0.75,3 -0.011719,0.046875 -0.4101563,0.84375 -1.1367188,0.84375 -0.515625,0 -0.6210937,-0.45703125 -0.6210937,-0.8203125 0,-0.5625 0.28125,-1.3476563 0.5390625,-2.0273438 0.1171875,-0.3046875 0.1757812,-0.4453125 0.1757812,-0.6328125 0,-0.4453125 -0.328125,-0.8203125 -0.8203125,-0.8203125 -0.9492187,0 -1.31249995,1.453125 -1.31249995,1.5351563 0,0.1054687 0.09375,0.1054687 0.1171875,0.1054687 0.09375,0 0.10546875,-0.023437 0.15234375,-0.1875 C 0.8205,-3.8207813 1.1955,-4.1840625 1.5705,-4.1840625 c 0.09375,0 0.2578125,0.011719 0.2578125,0.328125 0,0.234375 -0.1171875,0.5273437 -0.1757813,0.6796875 -0.3632812,0.984375 -0.5742187,1.6054687 -0.5742187,2.0859375 0,0.94921875 0.6796875,1.1953125 1.21875,1.1953125 0.65625,0 1.0195312,-0.4453125 1.1953125,-0.66796875 z m 0,0"
       style="fill:#000000;fill-opacity:1;fill-rule:nonzero;stroke:none"
       aria-label="u"
       transform="matrix(1.3333333,0,0,1.3333333,2.656,94.86)" />
    <path
       id="path14"
       d="m 70.86703,0 -1e-5,16.44109 m 0,23.81143 1e-5,16.44111 -1e-5,12.47261 m 0,31.74839 1e-5,12.47265"
       style="fill:none;stroke:#000000;stroke-width:0.3985;stroke-linecap:butt;stroke-linejoin:miter;stroke-miterlimit:10;stroke-dasharray:none;stroke-opacity:1"
       transform="matrix(1.3333333,0,0,-1.3333333,6.4586667,167.592)" />
    <path
       id="path15"
       d="m 58.9613,28.3468 c 0,-6.57542 5.33031,-11.90571 11.90572,-11.90571 6.57542,0 11.90572,5.33029 11.90572,11.90571 0,6.57543 -5.3303,11.90572 -11.90572,11.90572 -6.57541,0 -11.90572,-5.33029 -11.90572,-11.90572 z"
       style="fill:none;stroke:#000000;stroke-width:0.797;stroke-linecap:butt;stroke-linejoin:miter;stroke-miterlimit:10;stroke-dasharray:none;stroke-opacity:1"
       transform="matrix(1.3333333,0,0,-1.3333333,6.4586667,167.592)" />
    <path
       id="path16"
       d="M 7.1361172,-9.140625e-4 V -0.30560156 H 6.9603359 c -0.5976562,0 -0.7382812,-0.0703125 -0.84375,-0.3984375 l -2.15625,-6.23437504 c -0.046875,-0.1289062 -0.070312,-0.1992187 -0.2226562,-0.1992187 -0.1640625,0 -0.1875,0.058594 -0.2460938,0.1992187 l -2.0625,5.96484379 c -0.1757812,0.50390625 -0.57421871,0.65625 -1.11328121,0.66796875 V -9.140625e-4 L 1.3353359,-0.03607031 2.4837734,-9.140625e-4 V -0.30560156 c -0.5039062,0 -0.75,-0.2578125 -0.75,-0.515625 0,-0.0234375 0.011719,-0.12890625 0.023437,-0.140625 L 2.2142422,-2.2743516 h 2.4609375 l 0.5273437,1.52343754 c 0.011719,0.046875 0.023437,0.10546875 0.023437,0.140625 0,0.3046875 -0.5507812,0.3046875 -0.8203125,0.3046875 V -9.140625e-4 C 4.7572109,-0.03607031 5.4603359,-0.03607031 5.8353359,-0.03607031 Z M 4.5579922,-2.5790391 H 2.3197109 l 1.1132813,-3.234375 z M 11.644906,-9.140625e-4 V -0.30560156 H 11.3285 c -0.902344,0 -0.925781,-0.1171875 -0.925781,-0.48046875 V -6.3759141 c 0,-0.234375 0,-0.2578125 -0.234375,-0.2578125 -0.6093753,0.6328125 -1.4882815,0.6328125 -1.8046878,0.6328125 v 0.3164063 c 0.1992188,0 0.7851563,0 1.3007813,-0.2578125 v 5.15624999 c 0,0.3515625 -0.035156,0.48046875 -0.9257813,0.48046875 H 8.42225 V -9.140625e-4 C 8.7738125,-0.03607031 9.6292812,-0.03607031 10.027719,-0.03607031 c 0.398437,0 1.265625,0 1.617187,0.0351562475 z m 0,0"
       style="fill:#000000;fill-opacity:1;fill-rule:nonzero;stroke:none"
       aria-label="A1"
       transform="matrix(1.3333333,0,0,1.3333333,92.645333,134.552)" />
    <path
       id="path17"
       d="M 76.81987,100.91463 V 69.16624 h -11.9057 v 31.74839 z"
       style="fill:none;stroke:#000000;stroke-width:0.797;stroke-linecap:butt;stroke-linejoin:miter;stroke-miterlimit:10;stroke-dasharray:none;stroke-opacity:1"
       transform="matrix(1.3333333,0,0,-1.3333333,6.4586667,167.592)" />
    <path
       id="path18"
       d="m 3.7374453,-6.1183828 c 0.058594,-0.234375 0.082031,-0.3398438 0.28125,-0.3632813 0.082031,-0.011719 0.3984375,-0.011719 0.5976563,-0.011719 0.7148437,0 1.8164062,0 1.8164062,0.984375 0,0.3398437 -0.1523437,1.0195312 -0.5507812,1.4179687 -0.2578125,0.2578125 -0.7851563,0.5742188 -1.6757813,0.5742188 H 3.0929141 Z m 1.4296875,2.7304687 c 1.0078125,-0.2226562 2.1914063,-0.9140625 2.1914063,-1.921875 0,-0.8554687 -0.890625,-1.5 -2.203125,-1.5 H 2.3194766 c -0.1992188,0 -0.2929688,0 -0.2929688,0.1992188 0,0.1171875 0.09375,0.1171875 0.28125,0.1171875 0.023437,0 0.2109375,0 0.3867188,0.011719 0.1757812,0.023437 0.2578125,0.035156 0.2578125,0.1640625 0,0.035156 0,0.070312 -0.035156,0.1875 l -1.3359375,5.35546879 c -0.09375,0.38671875 -0.1171875,0.46875 -0.90234374,0.46875 -0.17578125,0 -0.26953125,0 -0.26953125,0.19921875 0,0.10546875 0.1171875,0.10546875 0.140625,0.10546875 0.28125,0 0.97265629,-0.03515625 1.25390629,-0.03515625 0.28125,0 0.984375,0.03515625 1.265625,0.03515625 0.082031,0 0.1992187,0 0.1992187,-0.19921875 0,-0.10546875 -0.09375,-0.10546875 -0.28125,-0.10546875 -0.3632812,0 -0.6445312,0 -0.6445312,-0.1875 0,-0.0585937 0.011719,-0.10546875 0.023437,-0.1640625 l 0.65625,-2.63671879 h 1.1953125 c 0.9023437,0 1.078125,0.5507813 1.078125,0.9023438 0,0.1523437 -0.082031,0.4570312 -0.140625,0.6914062 -0.070312,0.2695313 -0.1523438,0.6445313 -0.1523438,0.84375004 0,1.078125 1.1953125,1.078125 1.3242188,1.078125 0.84375,0 1.1953125,-1.0078125 1.1953125,-1.1484375 0,-0.11718754 -0.1171875,-0.11718754 -0.1171875,-0.11718754 -0.09375,0 -0.1171875,0.0703125 -0.1289063,0.14062504 -0.2578125,0.73828125 -0.6796875,0.90234375 -0.9140625,0.90234375 -0.328125,0 -0.3984375,-0.22265625 -0.3984375,-0.609375 0,-0.3046875 0.058594,-0.82031249 0.1054688,-1.13671879 0.011719,-0.140625 0.035156,-0.328125 0.035156,-0.46875 0,-0.7617187 -0.6679687,-1.078125 -0.9374996,-1.1718753 z m 0,0"
       style="fill:#000000;fill-opacity:1;fill-rule:nonzero;stroke:none"
       aria-label="R"
       transform="matrix(1.3333333,0,0,1.3333333,111.82533,57.068)" />
    <path
       id="path19"
       d="m 141.73409,0 v 16.44109 m 0,23.81143 v 16.44111 12.47261 m 0,31.74839 v 12.47265"
       style="fill:none;stroke:#000000;stroke-width:0.3985;stroke-linecap:butt;stroke-linejoin:miter;stroke-miterlimit:10;stroke-dasharray:none;stroke-opacity:1"
       transform="matrix(1.3333333,0,0,-1.3333333,6.4586667,167.592)" />
    <path
       id="path20"
       d="m 129.82837,28.3468 c 0,-6.57542 5.33031,-11.90571 11.90572,-11.90571 6.57542,0 11.90571,5.33029 11.90571,11.90571 0,6.57543 -5.33029,11.90572 -11.90571,11.90572 -6.57541,0 -11.90572,-5.33029 -11.90572,-11.90572 z"
       style="fill:none;stroke:#000000;stroke-width:0.797;stroke-linecap:butt;stroke-linejoin:miter;stroke-miterlimit:10;stroke-dasharray:none;stroke-opacity:1"
       transform="matrix(1.3333333,0,0,-1.3333333,6.4586667,167.592)" />
    <path
       id="path21"
       d="M 7.1353281,-9.140625e-4 V -0.30560156 H 6.9595469 c -0.5976563,0 -0.7382813,-0.0703125 -0.84375,-0.3984375 l -2.15625,-6.23437504 c -0.046875,-0.1289062 -0.070312,-0.1992187 -0.2226563,-0.1992187 -0.1640625,0 -0.1875,0.058594 -0.2460937,0.1992187 l -2.0625,5.96484379 c -0.1757813,0.50390625 -0.57421877,0.65625 -1.11328127,0.66796875 V -9.140625e-4 L 1.3345469,-0.03607031 2.4829844,-9.140625e-4 V -0.30560156 c -0.5039063,0 -0.75,-0.2578125 -0.75,-0.515625 0,-0.0234375 0.011719,-0.12890625 0.023437,-0.140625 L 2.2134531,-2.2743516 h 2.4609375 l 0.5273438,1.52343754 c 0.011719,0.046875 0.023437,0.10546875 0.023437,0.140625 0,0.3046875 -0.5507813,0.3046875 -0.8203125,0.3046875 V -9.140625e-4 C 4.7564219,-0.03607031 5.4595469,-0.03607031 5.8345469,-0.03607031 Z M 4.5572031,-2.5790391 H 2.3189219 l 1.1132812,-3.234375 z m 7.3916019,0.84375 h -0.257813 c -0.04687,0.3046875 -0.117187,0.73828129 -0.210937,0.89062504 -0.07031,0.0820313 -0.726563,0.0820313 -0.949219,0.0820313 H 8.7378672 L 9.7925547,-1.7938828 c 1.5585933,-1.3710938 2.1562503,-1.9101563 2.1562503,-2.90625 0,-1.1367188 -0.902344,-1.9335938 -2.1210941,-1.9335938 -1.125,0 -1.8515625,0.9140625 -1.8515625,1.8046875 0,0.5507813 0.4921875,0.5507813 0.5273438,0.5507813 0.1640625,0 0.515625,-0.1171875 0.515625,-0.5273438 0,-0.2578125 -0.1875,-0.515625 -0.5273438,-0.515625 -0.082031,0 -0.1054687,0 -0.1289062,0.011719 0.2226562,-0.6445313 0.7617187,-1.0195313 1.3359375,-1.0195313 0.9140623,0 1.3359373,0.8085938 1.3359373,1.6289063 0,0.796875 -0.492187,1.5820312 -1.0429686,2.203125 L 8.0816172,-0.36419531 C 7.9761484,-0.25872656 7.9761484,-0.23528906 7.9761484,-9.140625e-4 h 3.6914066 z m 0,0"
       style="fill:#000000;fill-opacity:1;fill-rule:nonzero;stroke:none"
       aria-label="A2"
       transform="matrix(1.3333333,0,0,1.3333333,187.13467,134.552)" />
    <path
       id="path22"
       d="m 141.89348,68.76773 c -3.28755,0 -5.95256,1.82137 -5.95256,4.06817 0,2.24682 2.66501,4.06818 5.95256,4.06818 -3.28755,0 -5.95256,1.82137 -5.95256,4.06816 0,2.24682 2.66501,4.06818 5.95256,4.06818 -3.28755,0 -5.95256,1.82137 -5.95256,4.06818 0,2.2468 2.66501,4.06816 5.95256,4.06816 -3.28755,0 -5.95256,1.82136 -5.95256,4.06817 0,2.24681 2.66501,4.06818 5.95256,4.06818"
       style="fill:none;stroke:#000000;stroke-width:0.797;stroke-linecap:butt;stroke-linejoin:bevel;stroke-miterlimit:10;stroke-dasharray:none;stroke-opacity:1"
       transform="matrix(1.3333333,0,0,-1.3333333,6.4586667,167.592)" />
    <path
       id="path23"
       d="m 3.7272109,-6.0246328 c 0.09375,-0.3632813 0.1171875,-0.46875 1.0546875,-0.46875 0.3046875,0 0.375,0 0.375,-0.1875 0,-0.1289063 -0.1054687,-0.1289063 -0.1523437,-0.1289063 -0.328125,0 -1.1484375,0.035156 -1.4765625,0.035156 -0.3046875,0 -1.03125,-0.035156 -1.3242188,-0.035156 -0.070312,0 -0.1875,0 -0.1875,0.1992188 0,0.1171875 0.082031,0.1171875 0.28125,0.1171875 0.011719,0 0.1992188,0 0.375,0.011719 0.1757813,0.023437 0.2695313,0.035156 0.2695313,0.1640625 0,0.035156 -0.011719,0.070312 -0.046875,0.1875 l -1.3359375,5.35546879 c -0.09375,0.38671875 -0.1171875,0.46875 -0.90234376,0.46875 -0.1640625,0 -0.26953125,0 -0.26953125,0.19921875 0,0.10546875 0.09375,0.10546875 0.26953125,0.10546875 H 5.2740859 c 0.234375,0 0.2460938,0 0.3046875,-0.1640625 L 6.3639297,-2.3215078 c 0.046875,-0.1054688 0.046875,-0.1289063 0.046875,-0.140625 0,-0.035156 -0.035156,-0.1054688 -0.1289063,-0.1054688 -0.082031,0 -0.09375,0.046875 -0.1640625,0.2109375 -0.3398437,0.9140625 -0.7734375,2.05078129 -2.4960937,2.05078129 h -0.9375 c -0.140625,0 -0.1640625,0 -0.2226563,-0.0117188 -0.1054687,-0.0117188 -0.1289062,-0.0234375 -0.1289062,-0.10546875 0,-0.0234375 0,-0.046875 0.046875,-0.22265625 z m 0,0"
       style="fill:#000000;fill-opacity:1;fill-rule:nonzero;stroke:none"
       aria-label="L"
       transform="matrix(1.3333333,0,0,1.3333333,175.51867,57.068)" />
    <path
       id="path24"
       d="m 212.60114,0 -2e-5,16.44109 m 0,23.81143 2e-5,16.44111 -2e-5,24.37833 m 0,7.93695 2e-5,24.37837"
       style="fill:none;stroke:#000000;stroke-width:0.3985;stroke-linecap:butt;stroke-linejoin:miter;stroke-miterlimit:10;stroke-dasharray:none;stroke-opacity:1"
       transform="matrix(1.3333333,0,0,-1.3333333,6.4586667,167.592)" />
    <path
       id="path25"
       d="m 200.6954,28.3468 c 0,-6.57542 5.3303,-11.90571 11.90572,-11.90571 6.57542,0 11.90572,5.33029 11.90572,11.90571 0,6.57543 -5.3303,11.90572 -11.90572,11.90572 -6.57542,0 -11.90572,-5.33029 -11.90572,-11.90572 z"
       style="fill:none;stroke:#000000;stroke-width:0.797;stroke-linecap:butt;stroke-linejoin:miter;stroke-miterlimit:10;stroke-dasharray:none;stroke-opacity:1"
       transform="matrix(1.3333333,0,0,-1.3333333,6.4586667,167.592)" />
    <path
       id="path26"
       d="M 7.1374687,6.875e-4 V -0.304 H 6.9616875 c -0.5976563,0 -0.7382813,-0.0703125 -0.84375,-0.3984375 l -2.15625,-6.234375 c -0.046875,-0.1289063 -0.070312,-0.1992188 -0.2226563,-0.1992188 -0.1640625,0 -0.1875,0.058594 -0.2460937,0.1992188 l -2.0625,5.96484375 C 1.2546562,-0.4680625 0.85621875,-0.31571875 0.31715625,-0.304 V 6.875e-4 L 1.3366875,-0.03446875 2.485125,6.875e-4 V -0.304 c -0.5039063,0 -0.75,-0.2578125 -0.75,-0.515625 0,-0.0234375 0.011719,-0.12890625 0.023437,-0.140625 l 0.4570312,-1.3125 h 2.4609375 l 0.5273438,1.5234375 c 0.011719,0.046875 0.023437,0.10546875 0.023437,0.140625 C 5.2273125,-0.304 4.6765312,-0.304 4.407,-0.304 V 6.875e-4 c 0.3515625,-0.03515625 1.0546875,-0.03515625 1.4296875,-0.03515625 z m -2.578125,-2.578125 H 2.3210625 l 1.1132812,-3.234375 z m 7.4589843,0.8789062 c 0,-0.8203125 -0.621094,-1.59375 -1.652344,-1.8046875 0.808594,-0.2695312 1.394532,-0.9726562 1.394532,-1.7578125 0,-0.8203125 -0.878907,-1.3710937 -1.8398441,-1.3710937 -1.0078125,0 -1.7578125,0.5976562 -1.7578125,1.3476562 0,0.3398438 0.2109375,0.5273438 0.5039062,0.5273438 0.3046875,0 0.5039063,-0.2226563 0.5039063,-0.515625 0,-0.4921875 -0.46875,-0.4921875 -0.609375,-0.4921875 0.3046875,-0.4921875 0.9609375,-0.6210938 1.3242187,-0.6210938 0.4101564,0 0.9492184,0.2226563 0.9492184,1.1132813 0,0.1289062 -0.01172,0.703125 -0.269531,1.1367187 -0.304687,0.4804688 -0.6445311,0.515625 -0.8906249,0.515625 -0.082031,0.011719 -0.3164062,0.035156 -0.3867187,0.035156 -0.082031,0.011719 -0.1523438,0.023437 -0.1523438,0.1171875 0,0.1171875 0.070312,0.1171875 0.234375,0.1171875 h 0.4453125 c 0.8085939,0 1.1835939,0.6679687 1.1835939,1.6523437 0,1.3476563 -0.691406,1.64062505 -1.1250001,1.64062505 -0.4335938,0 -1.171875,-0.17578125 -1.5234375,-0.76171875 0.3515625,0.0585938 0.65625,-0.1640625 0.65625,-0.5390625 0,-0.3632813 -0.2695313,-0.5625 -0.5625,-0.5625 -0.234375,0 -0.5507813,0.140625 -0.5507813,0.5742187 0,0.91406255 0.9257813,1.57031255 2.0039063,1.57031255 1.2187496,0 2.1210936,-0.9140625 2.1210936,-1.92187475 z m 0,0"
       style="fill:#000000;fill-opacity:1;fill-rule:nonzero;stroke:none"
       aria-label="A3"
       transform="matrix(1.3333333,0,0,1.3333333,281.624,134.40533)" />
    <path
       id="path27"
       d="m 200.6954,81.07196 h 23.81144 m -23.81144,7.93695 h 23.81144"
       style="fill:none;stroke:#000000;stroke-width:0.797;stroke-linecap:butt;stroke-linejoin:miter;stroke-miterlimit:10;stroke-dasharray:none;stroke-opacity:1"
       transform="matrix(1.3333333,0,0,-1.3333333,6.4586667,167.592)" />
    <path
       id="path28"
       d="m 7.5715625,-6.9269766 c 0,-0.023437 -0.023437,-0.09375 -0.1054688,-0.09375 -0.035156,0 -0.046875,0.011719 -0.1523437,0.1171875 l -0.703125,0.7617188 c -0.082031,-0.140625 -0.5390625,-0.8789063 -1.6523438,-0.8789063 -2.2148437,0 -4.45312495,2.203125 -4.45312495,4.5117188 0,1.64062499 1.17187495,2.73046874 2.69531245,2.73046874 0.8671875,0 1.6171875,-0.3984375 2.1445313,-0.85546875 0.9375,-0.82031249 1.1015625,-1.72265629 1.1015625,-1.75781249 0,-0.1054688 -0.1054688,-0.1054688 -0.1171875,-0.1054688 -0.058594,0 -0.1171875,0.023437 -0.1289063,0.1054688 -0.09375,0.2929687 -0.3164062,0.9960937 -1.0078125,1.57031249 -0.6914062,0.5625 -1.3125,0.7265625 -1.8398437,0.7265625 -0.890625,0 -1.9453125,-0.515625 -1.9453125,-2.06249999 0,-0.5742188 0.2109375,-2.1914063 1.2070312,-3.3515625 0.609375,-0.703125 1.5351563,-1.2070313 2.4257813,-1.2070313 1.0195312,0 1.6054687,0.7734375 1.6054687,1.921875 0,0.3984375 -0.035156,0.4101563 -0.035156,0.5039063 0,0.1054687 0.1171875,0.1054687 0.1523437,0.1054687 0.1289063,0 0.1289063,-0.023437 0.1757813,-0.1992187 z m 0,0"
       style="fill:#000000;fill-opacity:1;fill-rule:nonzero;stroke:none"
       aria-label="C"
       transform="matrix(1.3333333,0,0,1.3333333,259.87333,57.068)" />
  </g>
</svg>
