<?xml version="1.0" encoding="UTF-8" standalone="no"?>
<!-- Created with Inkscape (http://www.inkscape.org/) -->

<svg
   version="1.1"
   id="svg1"
   width="168.53333"
   height="123.2"
   viewBox="0 0 168.53333 123.2"
   sodipodi:docname="24-25-2-电路与电子学基础-期中-题图3.6.pdf"
   xmlns:inkscape="http://www.inkscape.org/namespaces/inkscape"
   xmlns:sodipodi="http://sodipodi.sourceforge.net/DTD/sodipodi-0.dtd"
   xmlns="http://www.w3.org/2000/svg"
   xmlns:svg="http://www.w3.org/2000/svg">
  <defs
     id="defs1" />
  <sodipodi:namedview
     id="namedview1"
     pagecolor="#ffffff"
     bordercolor="#000000"
     borderopacity="0.25"
     inkscape:showpageshadow="2"
     inkscape:pageopacity="0.0"
     inkscape:pagecheckerboard="0"
     inkscape:deskcolor="#d1d1d1">
    <inkscape:page
       x="0"
       y="0"
       inkscape:label="1"
       id="page1"
       width="168.53333"
       height="123.2"
       margin="0"
       bleed="0" />
  </sodipodi:namedview>
  <g
     id="g1"
     inkscape:groupmode="layer"
     inkscape:label="1">
    <path
       id="path1"
       d="m 0,70.86703 19.55931,-1e-5 m 31.7484,0 19.55932,1e-5 h 35.43352 v -21.5437 m 0,-27.77964 V 0 H 88.58379 m 0,0 -17.71676,0 H 0"
       style="fill:none;stroke:#000000;stroke-width:0.3985;stroke-linecap:butt;stroke-linejoin:miter;stroke-miterlimit:10;stroke-dasharray:none;stroke-opacity:1"
       transform="matrix(1.3333333,0,0,-1.3333333,6.4586667,120.81733)" />
    <path
       id="path2"
       d="M 1.58714,0 C 1.58714,0.87656 0.87656,1.58714 0,1.58714 -0.87656,1.58714 -1.58714,0.87656 -1.58714,0 c 0,-0.87656 0.71058,-1.58714 1.58714,-1.58714 0.87656,0 1.58714,0.71058 1.58714,1.58714 z"
       style="fill:#ffffff;fill-opacity:1;fill-rule:nonzero;stroke:#000000;stroke-width:0.3985;stroke-linecap:butt;stroke-linejoin:miter;stroke-miterlimit:10;stroke-dasharray:none;stroke-opacity:1"
       transform="matrix(1.3333333,0,0,-1.3333333,6.4586667,120.81733)" />
    <path
       id="path3"
       d="m 1.58714,70.86703 c 0,0.87657 -0.71058,1.58717 -1.58714,1.58717 -0.87656,0 -1.58714,-0.7106 -1.58714,-1.58717 0,-0.87655 0.71058,-1.58714 1.58714,-1.58714 0.87656,0 1.58714,0.71059 1.58714,1.58714 z"
       style="fill:#ffffff;fill-opacity:1;fill-rule:nonzero;stroke:#000000;stroke-width:0.3985;stroke-linecap:butt;stroke-linejoin:miter;stroke-miterlimit:10;stroke-dasharray:none;stroke-opacity:1"
       transform="matrix(1.3333333,0,0,-1.3333333,6.4586667,120.81733)" />
    <path
       id="path4"
       d="m 6.5622266,-2.2964375 c 0.1757812,0 0.3515625,0 0.3515625,-0.1992188 0,-0.1992187 -0.1757813,-0.1992187 -0.3515625,-0.1992187 h -5.390625 c -0.1640625,0 -0.33984379,0 -0.33984379,0.1992187 0,0.1992188 0.17578129,0.1992188 0.33984379,0.1992188 z m 0,0"
       style="fill:#000000;fill-opacity:1;fill-rule:nonzero;stroke:none"
       aria-label="−"
       transform="matrix(1.3333333,0,0,1.3333333,1.2933333,110.03067)" />
    <path
       id="path5"
       d="m 4.0778516,-2.2955156 h 2.7773437 c 0.140625,0 0.328125,0 0.328125,-0.1992188 0,-0.1992187 -0.1875,-0.1992187 -0.328125,-0.1992187 H 4.0778516 v -2.7890625 c 0,-0.1289063 0,-0.328125 -0.1992188,-0.328125 -0.1992187,0 -0.1992187,0.1992187 -0.1992187,0.328125 v 2.7890625 H 0.89035156 c -0.140625,0 -0.328125,0 -0.328125,0.1992187 0,0.1992188 0.1875,0.1992188 0.328125,0.1992188 H 3.6794141 v 2.80078122 c 0,0.12890625 0,0.328125 0.1992187,0.328125 0.1992188,0 0.1992188,-0.19921875 0.1992188,-0.328125 z m 0,0"
       style="fill:#000000;fill-opacity:1;fill-rule:nonzero;stroke:none"
       aria-label="+"
       transform="matrix(1.3333333,0,0,1.3333333,1.2933333,43.756)" />
    <path
       id="path6"
       d="m 3.492375,-0.56130469 c 0.1054687,0.41015625 0.4570312,0.66796875 0.8789062,0.66796875 0.3515625,0 0.5742188,-0.22265625 0.7382813,-0.5390625 C 5.2853437,-0.79567969 5.41425,-1.4050547 5.41425,-1.4284922 c 0,-0.09375 -0.09375,-0.09375 -0.1289063,-0.09375 -0.09375,0 -0.1054687,0.035156 -0.140625,0.1757813 -0.1289062,0.56249996 -0.328125,1.24218746 -0.7382812,1.24218746 -0.2109375,0 -0.3164063,-0.12890625 -0.3164063,-0.45703125 0,-0.22265625 0.1289063,-0.69140621 0.1992188,-1.04296871 l 0.28125,-1.078125 c 0.035156,-0.140625 0.1289062,-0.5273438 0.1757812,-0.6679688 0.046875,-0.234375 0.140625,-0.609375 0.140625,-0.6679687 0,-0.1875 -0.140625,-0.2695313 -0.28125,-0.2695313 -0.058594,0 -0.3164062,0 -0.3867187,0.3398438 -0.1992188,0.7265625 -0.6328125,2.4726562 -0.75,2.99999996 -0.011719,0.046875 -0.4101563,0.84375 -1.1367188,0.84375 -0.515625,0 -0.6210937,-0.45703125 -0.6210937,-0.8203125 0,-0.56249996 0.28125,-1.34765626 0.5390625,-2.02734376 0.1171875,-0.3046875 0.1757812,-0.4453125 0.1757812,-0.6328125 0,-0.4453125 -0.328125,-0.8203125 -0.8203125,-0.8203125 -0.9492187,0 -1.31249995,1.453125 -1.31249995,1.5351563 0,0.1054687 0.09375,0.1054687 0.1171875,0.1054687 0.09375,0 0.10546875,-0.023437 0.15234375,-0.1875 C 0.8205,-3.8191172 1.1955,-4.1823984 1.5705,-4.1823984 c 0.09375,0 0.2578125,0.011719 0.2578125,0.328125 0,0.234375 -0.1171875,0.5273437 -0.1757813,0.6796875 -0.3632812,0.984375 -0.5742187,1.6054687 -0.5742187,2.0859375 0,0.94921871 0.6796875,1.19531246 1.21875,1.19531246 0.65625,0 1.0195312,-0.4453125 1.1953125,-0.66796875 z m 0,0"
       style="fill:#000000;fill-opacity:1;fill-rule:nonzero;stroke:none"
       aria-label="u"
       transform="matrix(1.3333333,0,0,1.3333333,2.656,76.432)" />
    <path
       id="path7"
       d="M 19.55931,76.81987 H 51.30769 V 64.91417 H 19.55931 Z"
       style="fill:none;stroke:#000000;stroke-width:0.797;stroke-linecap:butt;stroke-linejoin:miter;stroke-miterlimit:10;stroke-dasharray:none;stroke-opacity:1"
       transform="matrix(1.3333333,0,0,-1.3333333,6.4586667,120.81733)" />
    <path
       id="path8"
       d="m 72.4542,70.86703 c 0,0.87657 -0.7106,1.58717 -1.58717,1.58717 -0.87655,0 -1.58714,-0.7106 -1.58714,-1.58717 0,-0.87655 0.71059,-1.58714 1.58714,-1.58714 0.87657,0 1.58717,0.71059 1.58717,1.58714 z"
       style="fill:#000000;fill-opacity:1;fill-rule:nonzero;stroke:#000000;stroke-width:0.3985;stroke-linecap:butt;stroke-linejoin:miter;stroke-miterlimit:10;stroke-dasharray:none;stroke-opacity:1"
       transform="matrix(1.3333333,0,0,-1.3333333,6.4586667,120.81733)" />
    <path
       id="path9"
       d="m 4.4779141,-2.0053203 c 0,-1.1835938 -0.8203125,-2.1796875 -1.8984375,-2.1796875 -0.4804688,0 -0.9023438,0.1640625 -1.265625,0.5039062 v -1.9335937 c 0.1992187,0.058594 0.5273437,0.1289062 0.84375,0.1289062 1.2304687,0 1.9335937,-0.9140625 1.9335937,-1.0429687 0,-0.058594 -0.035156,-0.1054688 -0.1054687,-0.1054688 -0.011719,0 -0.035156,0 -0.082031,0.023437 -0.1992187,0.09375 -0.6796875,0.2929688 -1.3476562,0.2929688 -0.3984375,0 -0.8554688,-0.070312 -1.3242188,-0.28125 -0.082031,-0.023437 -0.1054687,-0.023437 -0.1289062,-0.023437 -0.09375,0 -0.09375,0.082031 -0.09375,0.234375 v 2.953125 c 0,0.1757812 0,0.2578125 0.140625,0.2578125 0.070312,0 0.082031,-0.035156 0.1289062,-0.09375 0.1054688,-0.1523438 0.4804688,-0.6914063 1.2773438,-0.6914063 0.5273437,0 0.7734375,0.4570313 0.8554687,0.6328125 0.1523438,0.375 0.1757813,0.7617188 0.1757813,1.2539063 0,0.3515625 0,0.9492187 -0.234375,1.37109374 -0.2460938,0.38671875 -0.609375,0.64453125 -1.0664063,0.64453125 -0.7265625,0 -1.30078124,-0.52734375 -1.46484374,-1.11328129 0.0234375,0.011719 0.0585938,0.011719 0.1640625,0.011719 0.32812504,0 0.50390624,-0.2460938 0.50390624,-0.4804688 0,-0.2460937 -0.1757812,-0.4921875 -0.50390624,-0.4921875 -0.140625,0 -0.48046875,0.070312 -0.48046875,0.5273438 0,0.85546874 0.67968749,1.82812499 1.79296879,1.82812499 1.1601562,0 2.1796875,-0.9609375 2.1796872,-2.22656269 z m 8.8945309,0.3867187 h -0.246093 c -0.04687,0.2578125 -0.08203,0.4921875 -0.175782,0.72656254 -0.04687,0.1640625 -0.08203,0.24609375 -0.65625,0.24609375 h -0.796875 c 0.128907,-0.56249999 0.433594,-1.04296879 0.878907,-1.69921879 0.46875,-0.703125 0.878906,-1.3945312 0.878906,-2.1796875 0,-1.3828125 -1.335938,-2.4960937 -3.023438,-2.4960937 -1.7109372,0 -3.0351559,1.1367187 -3.0351559,2.4960937 0,0.7851563 0.3984375,1.4765625 0.8671875,2.1796875 0.4453125,0.65625 0.7617187,1.1367188 0.890625,1.69921879 h -0.796875 c -0.5742188,0 -0.609375,-0.0820313 -0.65625,-0.234375 C 7.4193203,-1.1029766 7.3724453,-1.3607891 7.3255703,-1.6186016 H 7.0677578 l 0.328125,1.61718754 h 1.59375 c 0.2226563,0 0.2578125,0 0.2578125,-0.2109375 0,-0.69140625 -0.3164062,-1.57031254 -0.5390625,-2.21484374 -0.2109375,-0.5742188 -0.4921875,-1.359375 -0.4921875,-2.109375 0,-1.59375 1.1015625,-2.2734375 2.0039067,-2.2734375 0.960937,0 2.015625,0.7265625 2.015625,2.2734375 0,0.75 -0.269532,1.5117187 -0.5625,2.3203125 -0.152344,0.421875 -0.46875,1.31249999 -0.46875,2.00390624 0,0.2109375 0.03516,0.2109375 0.257812,0.2109375 h 1.582031 z m 0,0"
       style="fill:#000000;fill-opacity:1;fill-rule:nonzero;stroke:none"
       aria-label="5Ω"
       transform="matrix(1.3333333,0,0,1.3333333,44.478667,13.302667)" />
    <path
       id="path10"
       d="m 8.04344,70.86702 v -1.98425 l 4.21654,1.98425 -4.21654,1.98425 z"
       style="fill:#000000;fill-opacity:1;fill-rule:nonzero;stroke:#000000;stroke-width:0.3985;stroke-linecap:butt;stroke-linejoin:miter;stroke-miterlimit:10;stroke-dasharray:none;stroke-opacity:1"
       transform="matrix(1.3333333,0,0,-1.3333333,6.4586667,120.81733)" />
    <path
       id="path11"
       d="m 2.8254219,-6.2240469 c 0,-0.1992187 -0.1289063,-0.3632812 -0.3632813,-0.3632812 -0.2695312,0 -0.5390625,0.2578125 -0.5390625,0.5273437 0,0.1875 0.140625,0.3632813 0.375,0.3632813 0.234375,0 0.5273438,-0.234375 0.5273438,-0.5273438 z m -0.75,3.7382813 c 0.1171875,-0.28125 0.1171875,-0.3046875 0.2226562,-0.5742188 0.070312,-0.1992187 0.1289063,-0.3398437 0.1289063,-0.5273437 0,-0.4453125 -0.328125,-0.8203125 -0.8203125,-0.8203125 -0.93750003,0 -1.31250003,1.453125 -1.31250003,1.5351562 0,0.1054688 0.09375,0.1054688 0.1171875,0.1054688 0.09375,0 0.10546875,-0.023437 0.15234375,-0.1875 0.26953125,-0.9375 0.66796878,-1.2304688 1.00781248,-1.2304688 0.082031,0 0.2578125,0 0.2578125,0.3164063 0,0.2109375 -0.070312,0.421875 -0.1171875,0.515625 -0.082031,0.2578125 -0.5273437,1.4179687 -0.6796875,1.8515625 -0.10546873,0.2578125 -0.23437498,0.58593747 -0.23437498,0.79687497 0,0.46875 0.33984378,0.80859375 0.82031248,0.80859375 0.9375,0 1.3007813,-1.44140622 1.3007813,-1.53515622 0,-0.09375 -0.09375,-0.09375 -0.1171875,-0.09375 -0.1054688,0 -0.1054688,0.023437 -0.1523438,0.1757812 -0.1757812,0.63281252 -0.5039062,1.24218752 -1.0195312,1.24218752 -0.1640625,0 -0.234375,-0.10546875 -0.234375,-0.328125 0,-0.2578125 0.058594,-0.3984375 0.2929687,-0.99609372 z m 0,0"
       style="fill:#000000;fill-opacity:1;fill-rule:nonzero;stroke:none"
       aria-label="i"
       transform="matrix(1.3333333,0,0,1.3333333,17.209333,21.634667)" />
    <path
       id="path12"
       d="M 106.30055,49.32333 120.19037,35.4335 106.30055,21.54369 92.41074,35.4335 Z"
       style="fill:none;stroke:#000000;stroke-width:0.797;stroke-linecap:butt;stroke-linejoin:miter;stroke-miterlimit:10;stroke-dasharray:none;stroke-opacity:1"
       transform="matrix(1.3333333,0,0,-1.3333333,6.4586667,120.81733)" />
    <path
       id="path13"
       d="M 120.19037,35.4335 H 92.41074"
       style="fill:none;stroke:#000000;stroke-width:0.797;stroke-linecap:butt;stroke-linejoin:miter;stroke-miterlimit:10;stroke-dasharray:none;stroke-opacity:1"
       transform="matrix(1.3333333,0,0,-1.3333333,6.4586667,120.81733)" />
    <path
       id="path14"
       d="m 106.30055,12.50806 h -1.98425 l 1.98425,-4.21654 1.98425,4.21654 z"
       style="fill:#000000;fill-opacity:1;fill-rule:nonzero;stroke:#000000;stroke-width:0.3985;stroke-linecap:butt;stroke-linejoin:miter;stroke-miterlimit:10;stroke-dasharray:none;stroke-opacity:1"
       transform="matrix(1.3333333,0,0,-1.3333333,6.4586667,120.81733)" />
    <g
       id="g14"
       aria-label="3i"
       transform="matrix(1.3333333,0,0,1.3333333,152.88533,110.83467)">
      <path
         id="path15"
         d="m 2.8955703,-3.5029531 c 0.8085938,-0.2695313 1.3945313,-0.9726563 1.3945313,-1.7578125 0,-0.8203125 -0.8789063,-1.3710938 -1.8398438,-1.3710938 -1.0078125,0 -1.75781249,0.5976563 -1.75781249,1.3476563 0,0.3398437 0.2109375,0.5273437 0.50390629,0.5273437 0.3046875,0 0.5039062,-0.2226562 0.5039062,-0.515625 0,-0.4921875 -0.46875,-0.4921875 -0.609375,-0.4921875 0.3046875,-0.4921875 0.9609375,-0.6210937 1.3242188,-0.6210937 0.4101562,0 0.9492187,0.2226562 0.9492187,1.1132812 0,0.1289063 -0.011719,0.703125 -0.2695312,1.1367188 -0.3046875,0.4804687 -0.6445313,0.515625 -0.890625,0.515625 -0.082031,0.011719 -0.3164063,0.035156 -0.3867188,0.035156 -0.082031,0.011719 -0.1523437,0.023437 -0.1523437,0.1171875 0,0.1171875 0.070312,0.1171875 0.234375,0.1171875 h 0.4453125 c 0.8085937,0 1.1835937,0.6679688 1.1835937,1.6523438 0,1.34765622 -0.6914062,1.64062497 -1.125,1.64062497 -0.4335937,0 -1.171875,-0.17578125 -1.52343749,-0.76171875 0.35156249,0.0585938 0.65624999,-0.1640625 0.65624999,-0.53906252 0,-0.3632812 -0.2695312,-0.5625 -0.56249999,-0.5625 -0.234375,0 -0.55078125,0.140625 -0.55078125,0.5742188 0,0.91406247 0.92578124,1.57031247 2.00390624,1.57031247 1.21875,0 2.1210938,-0.9140625 2.1210938,-1.92187497 0,-0.8203125 -0.6210938,-1.59375 -1.6523438,-1.8046873 z m 0,0"
         style="fill:#000000;fill-opacity:1;fill-rule:nonzero;stroke:none" />
      <path
         id="path16"
         d="m 7.8057266,-6.2217031 c 0,-0.1992188 -0.1289063,-0.3632813 -0.3632813,-0.3632813 -0.2695312,0 -0.5390625,0.2578125 -0.5390625,0.5273438 0,0.1875 0.140625,0.3632812 0.375,0.3632812 0.234375,0 0.5273438,-0.234375 0.5273438,-0.5273437 z m -0.75,3.7382812 c 0.1171875,-0.28125 0.1171875,-0.3046875 0.2226562,-0.5742187 0.070312,-0.1992188 0.1289063,-0.3398438 0.1289063,-0.5273438 0,-0.4453125 -0.328125,-0.8203125 -0.8203125,-0.8203125 -0.9375,0 -1.3125,1.453125 -1.3125,1.5351563 0,0.1054687 0.09375,0.1054687 0.1171875,0.1054687 0.09375,0 0.1054687,-0.023437 0.1523437,-0.1875 0.2695313,-0.9375 0.6679688,-1.2304687 1.0078125,-1.2304687 0.082031,0 0.2578125,0 0.2578125,0.3164062 0,0.2109375 -0.070312,0.421875 -0.1171875,0.515625 -0.082031,0.2578125 -0.5273437,1.4179688 -0.6796875,1.8515625 -0.1054687,0.2578125 -0.234375,0.58593752 -0.234375,0.79687502 0,0.46875 0.3398438,0.80859375 0.8203125,0.80859375 0.9375,0 1.3007813,-1.44140627 1.3007813,-1.53515627 0,-0.09375 -0.09375,-0.09375 -0.1171875,-0.09375 -0.1054688,0 -0.1054688,0.023437 -0.1523438,0.1757813 -0.1757812,0.63281247 -0.5039062,1.24218747 -1.0195312,1.24218747 -0.1640625,0 -0.234375,-0.10546875 -0.234375,-0.328125 0,-0.2578125 0.058594,-0.3984375 0.2929687,-0.99609377 z m 0,0"
         style="fill:#000000;fill-opacity:1;fill-rule:nonzero;stroke:none" />
    </g>
    <path
       id="path17"
       d="m 72.4542,0 c 0,0.87656 -0.7106,1.58714 -1.58717,1.58714 -0.87655,0 -1.58714,-0.71058 -1.58714,-1.58714 0,-0.87656 0.71059,-1.58714 1.58714,-1.58714 0.87657,0 1.58717,0.71058 1.58717,1.58714 z"
       style="fill:#000000;fill-opacity:1;fill-rule:nonzero;stroke:#000000;stroke-width:0.3985;stroke-linecap:butt;stroke-linejoin:miter;stroke-miterlimit:10;stroke-dasharray:none;stroke-opacity:1"
       transform="matrix(1.3333333,0,0,-1.3333333,6.4586667,120.81733)" />
    <path
       id="path18"
       d="m 70.86703,0 -1e-5,19.55931 m 0,31.7484 1e-5,19.55932"
       style="fill:none;stroke:#000000;stroke-width:0.3985;stroke-linecap:butt;stroke-linejoin:miter;stroke-miterlimit:10;stroke-dasharray:none;stroke-opacity:1"
       transform="matrix(1.3333333,0,0,-1.3333333,6.4586667,120.81733)" />
    <path
       id="path19"
       d="m 76.81987,51.30771 v -31.7484 h -11.9057 v 31.7484 z"
       style="fill:none;stroke:#000000;stroke-width:0.797;stroke-linecap:butt;stroke-linejoin:miter;stroke-miterlimit:10;stroke-dasharray:none;stroke-opacity:1"
       transform="matrix(1.3333333,0,0,-1.3333333,6.4586667,120.81733)" />
    <path
       id="path20"
       d="m 2.9305078,-6.3758047 c 0,-0.234375 0,-0.2578125 -0.234375,-0.2578125 -0.609375,0.6328125 -1.4882812,0.6328125 -1.80468749,0.6328125 v 0.3164063 c 0.19921879,0 0.78515629,0 1.30078129,-0.2578125 v 5.15624996 c 0,0.3515625 -0.035156,0.48046875 -0.9257813,0.48046875 H 0.95003906 V -8.046875e-4 C 1.3016016,-0.03596094 2.1570703,-0.03596094 2.5555078,-0.03596094 c 0.3984375,0 1.265625,0 1.6171875,0.0351562525 V -0.30549219 H 3.8562891 c -0.9023438,0 -0.9257813,-0.1171875 -0.9257813,-0.48046875 z M 13.371914,-1.6179922 H 13.12582 c -0.04687,0.2578125 -0.08203,0.4921875 -0.175781,0.72656251 -0.04687,0.1640625 -0.08203,0.24609375 -0.65625,0.24609375 h -0.796875 c 0.128906,-0.56249996 0.433594,-1.04296876 0.878906,-1.69921876 0.46875,-0.703125 0.878907,-1.3945312 0.878907,-2.1796875 0,-1.3828125 -1.335938,-2.4960937 -3.023438,-2.4960937 -1.7109374,0 -3.0351562,1.1367187 -3.0351562,2.4960937 0,0.7851563 0.3984375,1.4765625 0.8671875,2.1796875 0.4453125,0.65625 0.7617188,1.1367188 0.890625,1.69921876 h -0.796875 c -0.5742187,0 -0.609375,-0.0820313 -0.65625,-0.234375 C 7.4187891,-1.1023672 7.3719141,-1.3601797 7.3250391,-1.6179922 H 7.0672266 l 0.328125,1.6171875125 h 1.59375 c 0.2226562,0 0.2578125,0 0.2578125,-0.2109375025 0,-0.69140625 -0.3164063,-1.57031251 -0.5390625,-2.21484371 -0.2109375,-0.5742188 -0.4921875,-1.359375 -0.4921875,-2.109375 0,-1.59375 1.1015625,-2.2734375 2.0039059,-2.2734375 0.960938,0 2.015625,0.7265625 2.015625,2.2734375 0,0.75 -0.269531,1.5117187 -0.5625,2.3203125 -0.152343,0.421875 -0.46875,1.31249996 -0.46875,2.00390621 0,0.2109375025 0.03516,0.2109375025 0.257813,0.2109375025 h 1.582031 z m 0,0"
       style="fill:#000000;fill-opacity:1;fill-rule:nonzero;stroke:none"
       aria-label="1Ω"
       transform="matrix(1.3333333,0,0,1.3333333,71.62,76.434667)" />
  </g>
</svg>
