<?xml version="1.0" encoding="UTF-8" standalone="no"?>
<!-- Created with Inkscape (http://www.inkscape.org/) -->

<svg
   version="1.1"
   id="svg1"
   width="177.22667"
   height="138.50667"
   viewBox="0 0 177.22667 138.50667"
   sodipodi:docname="24-25-2-电路与电子学基础-期中-题图7.pdf"
   xmlns:inkscape="http://www.inkscape.org/namespaces/inkscape"
   xmlns:sodipodi="http://sodipodi.sourceforge.net/DTD/sodipodi-0.dtd"
   xmlns="http://www.w3.org/2000/svg"
   xmlns:svg="http://www.w3.org/2000/svg">
  <defs
     id="defs1" />
  <sodipodi:namedview
     id="namedview1"
     pagecolor="#ffffff"
     bordercolor="#000000"
     borderopacity="0.25"
     inkscape:showpageshadow="2"
     inkscape:pageopacity="0.0"
     inkscape:pagecheckerboard="0"
     inkscape:deskcolor="#d1d1d1">
    <inkscape:page
       x="0"
       y="0"
       inkscape:label="1"
       id="page1"
       width="177.22667"
       height="138.50667"
       margin="0"
       bleed="0" />
  </sodipodi:namedview>
  <g
     id="g1"
     inkscape:groupmode="layer"
     inkscape:label="1">
    <path
       id="path1"
       d="m 70.86703,70.86703 -31.46505,-1e-5 m -7.93695,0 L 0,70.86703 V 47.33923 M 0,23.52779 V 0 h 70.86703 17.71676 m 0,0 h 17.71676"
       style="fill:none;stroke:#000000;stroke-width:0.3985;stroke-linecap:butt;stroke-linejoin:miter;stroke-miterlimit:10;stroke-dasharray:none;stroke-opacity:1"
       transform="matrix(1.3333333,0,0,-1.3333333,16.405333,129.544)" />
    <path
       id="path2"
       d="M 39.40198,58.9613 V 82.77274 M 31.46503,58.9613 v 23.81144"
       style="fill:none;stroke:#000000;stroke-width:0.797;stroke-linecap:butt;stroke-linejoin:miter;stroke-miterlimit:10;stroke-dasharray:none;stroke-opacity:1"
       transform="matrix(1.3333333,0,0,-1.3333333,16.405333,129.544)" />
    <g
       id="g2"
       aria-label="50&#10;µ&#10;F"
       transform="matrix(1.3333333,0,0,1.3333333,47.562667,13.298667)">
      <path
         id="path3"
         d="m 4.4764375,-2.00525 c 0,-1.1835938 -0.8203125,-2.1796875 -1.8984375,-2.1796875 -0.4804687,0 -0.9023437,0.1640625 -1.265625,0.5039062 V -5.614625 c 0.1992188,0.058594 0.5273438,0.1289062 0.84375,0.1289062 1.2304688,0 1.9335938,-0.9140625 1.9335938,-1.0429687 0,-0.058594 -0.035156,-0.1054688 -0.1054688,-0.1054688 -0.011719,0 -0.035156,0 -0.082031,0.023437 C 3.703,-6.5169688 3.2225313,-6.31775 2.5545625,-6.31775 2.156125,-6.31775 1.6990938,-6.388062 1.2303438,-6.599 1.1483128,-6.622437 1.124875,-6.622437 1.1014375,-6.622437 c -0.09375,0 -0.09375,0.082031 -0.09375,0.234375 v 2.953125 c 0,0.1757812 0,0.2578125 0.140625,0.2578125 0.070312,0 0.082031,-0.035156 0.1289063,-0.09375 0.1054687,-0.1523438 0.4804687,-0.6914063 1.2773437,-0.6914063 0.5273438,0 0.7734375,0.4570313 0.8554688,0.6328125 0.1523437,0.375 0.1757812,0.7617188 0.1757812,1.2539063 0,0.3515625 0,0.9492187 -0.234375,1.37109375 C 3.1053438,-0.31775 2.7420625,-0.0599375 2.2850313,-0.0599375 1.5584688,-0.0599375 0.98425,-0.58728125 0.8201875,-1.1732188 0.843625,-1.1615 0.87878125,-1.1615 0.98425,-1.1615 c 0.328125,0 0.5039063,-0.2460938 0.5039063,-0.4804688 0,-0.2460937 -0.1757813,-0.4921875 -0.5039063,-0.4921875 -0.140625,0 -0.48046875,0.070312 -0.48046875,0.5273438 0,0.85546875 0.67968755,1.828125 1.79296875,1.828125 1.1601563,0 2.1796875,-0.9609375 2.1796875,-2.2265625 z M 9.562375,-3.1888438 c 0,-0.796875 -0.046875,-1.59375 -0.3984375,-2.3320312 -0.4570312,-0.9609375 -1.2773437,-1.1132813 -1.6875,-1.1132813 -0.5976562,0 -1.3359375,0.2578125 -1.734375,1.1835938 -0.328125,0.6914062 -0.375,1.4648437 -0.375,2.2617187 0,0.75 0.046875,1.640625 0.4453125,2.4023438 0.4335938,0.80859375 1.1601563,1.0078125 1.6523438,1.0078125 0.5390625,0 1.2890625,-0.2109375 1.734375,-1.16015625 C 9.5155,-1.63025 9.562375,-2.4036875 9.562375,-3.1888438 Z m -2.0976562,3.18750005 c -0.3867188,0 -0.984375,-0.24609375 -1.1601563,-1.20703125 -0.1054687,-0.5976563 -0.1054687,-1.5117188 -0.1054687,-2.0976563 0,-0.6445312 0,-1.3007812 0.082031,-1.8398437 0.1875,-1.1835938 0.9257813,-1.265625 1.1835938,-1.265625 0.328125,0 0.984375,0.1757812 1.171875,1.1601562 0.09375,0.5625 0.09375,1.3125 0.09375,1.9453125 0,0.75 0,1.4179688 -0.1054688,2.0625 -0.1523437,0.93750005 -0.7148437,1.24218755 -1.160156,1.24218755 z m 0,0"
         style="fill:#000000;fill-opacity:1;fill-rule:nonzero;stroke:none" />
      <path
         id="path4"
         d="m 13.91882,-3.4935313 c 0.05859,-0.2109375 0.152344,-0.5976562 0.152344,-0.6445312 0,-0.1640625 -0.117187,-0.2695313 -0.292969,-0.2695313 -0.02344,0 -0.304687,0.011719 -0.398437,0.3632813 L 11.95007,1.7213125 C 11.92663,1.8385 11.92663,1.8619375 11.92663,1.885375 c 0,0.140625 0.105469,0.2695312 0.269531,0.2695312 0.210938,0 0.328125,-0.1875 0.351563,-0.2109375 0.03516,-0.09375 0.175781,-0.609375 0.550781,-2.1445312 0.316406,0.26953125 0.761719,0.3046875 0.960937,0.3046875 0.703125,0 1.089844,-0.4453125 1.324219,-0.7265625 0.09375,0.45703125 0.457031,0.7265625 0.902344,0.7265625 0.351562,0 0.574219,-0.22265625 0.738281,-0.5390625 0.164063,-0.36328125 0.292969,-0.9726563 0.292969,-0.9960938 0,-0.09375 -0.08203,-0.09375 -0.117188,-0.09375 -0.09375,0 -0.105468,0.035156 -0.140625,0.1757813 -0.164062,0.64453125 -0.351562,1.2421875 -0.75,1.2421875 -0.269531,0 -0.304687,-0.2578125 -0.304687,-0.45703125 0,-0.22265625 0.117187,-0.69140625 0.199219,-1.04296875 l 0.28125,-1.078125 c 0.02344,-0.140625 0.128906,-0.5273438 0.164062,-0.6679688 0.05859,-0.234375 0.152344,-0.609375 0.152344,-0.6679687 0,-0.1875 -0.140625,-0.2695313 -0.292969,-0.2695313 -0.04687,0 -0.304687,0 -0.386719,0.3398438 l -0.46875,1.8632812 C 15.536008,-1.583375 15.430539,-1.1615 15.395383,-1.06775 c -0.01172,0.046875 -0.480469,0.9609375 -1.289063,0.9609375 -0.503906,0 -0.738281,-0.328125 -0.738281,-0.8671875 0,-0.2929688 0.07031,-0.5742188 0.140625,-0.8554688 z m 0,0"
         style="fill:#000000;fill-opacity:1;fill-rule:nonzero;stroke:none" />
      <path
         id="path5"
         d="m 23.706906,-4.5365 -0.28125,-2.2382813 H 17.953 v 0.3046875 h 0.234375 c 0.773438,0 0.796875,0.1171875 0.796875,0.46875 v 5.22656255 c 0,0.3515625 -0.02344,0.46875 -0.796875,0.46875 H 17.953 v 0.3046875 C 18.304563,-0.0365 19.078,-0.0365 19.464719,-0.0365 c 0.410156,0 1.3125,0 1.675781,0.03515625 v -0.3046875 h -0.328125 c -0.949219,0 -0.949219,-0.12890625 -0.949219,-0.48046875 v -2.4492188 h 0.855469 c 0.960938,0 1.054688,0.3164063 1.054688,1.1601563 h 0.257812 v -2.6367188 h -0.257812 c 0,0.8320313 -0.09375,1.1601563 -1.054688,1.1601563 h -0.855469 v -2.5195313 c 0,-0.328125 0.02344,-0.3984375 0.492188,-0.3984375 h 1.195312 c 1.488282,0 1.746094,0.5625 1.898438,1.9335938 z m 0,0"
         style="fill:#000000;fill-opacity:1;fill-rule:nonzero;stroke:none" />
    </g>
    <path
       id="path6"
       d="m 11.90572,35.4335 c 0,6.57543 -5.33031,11.90573 -11.90572,11.90573 -6.57541,0 -11.90572,-5.3303 -11.90572,-11.90573 0,-6.5754 5.33031,-11.90571 11.90572,-11.90571 6.57541,0 11.90572,5.33031 11.90572,11.90571 z"
       style="fill:none;stroke:#000000;stroke-width:0.797;stroke-linecap:butt;stroke-linejoin:miter;stroke-miterlimit:10;stroke-dasharray:none;stroke-opacity:1"
       transform="matrix(1.3333333,0,0,-1.3333333,16.405333,129.544)" />
    <path
       id="path7"
       d="M 0,47.33923 V 23.52779"
       style="fill:none;stroke:#000000;stroke-width:0.797;stroke-linecap:butt;stroke-linejoin:miter;stroke-miterlimit:10;stroke-dasharray:none;stroke-opacity:1"
       transform="matrix(1.3333333,0,0,-1.3333333,16.405333,129.544)" />
    <path
       id="path8"
       d="m 4.0766797,-2.2982266 h 2.7773437 c 0.140625,0 0.328125,0 0.328125,-0.1992187 0,-0.1992188 -0.1875,-0.1992188 -0.328125,-0.1992188 H 4.0766797 v -2.7890625 c 0,-0.1289062 0,-0.328125 -0.1992188,-0.328125 -0.1992187,0 -0.1992187,0.1992188 -0.1992187,0.328125 v 2.7890625 H 0.88917969 c -0.140625,0 -0.328125,0 -0.328125,0.1992188 0,0.1992187 0.1875,0.1992187 0.328125,0.1992187 H 3.6782422 v 2.80078129 c 0,0.12890625 0,0.328125 0.1992187,0.328125 0.1992188,0 0.1992188,-0.19921875 0.1992188,-0.328125 z m 0,0"
       style="fill:#000000;fill-opacity:1;fill-rule:nonzero;stroke:none"
       aria-label="+"
       transform="matrix(1.3333333,0,0,1.3333333,32.193333,73.521333)" />
    <path
       id="path9"
       d="m 6.5610547,-2.2968125 c 0.1757812,0 0.3515625,0 0.3515625,-0.1992187 0,-0.1992188 -0.1757813,-0.1992188 -0.3515625,-0.1992188 h -5.390625 c -0.1640625,0 -0.33984376,0 -0.33984376,0.1992188 0,0.1992187 0.17578126,0.1992187 0.33984376,0.1992187 z m 0,0"
       style="fill:#000000;fill-opacity:1;fill-rule:nonzero;stroke:none"
       aria-label="−"
       transform="matrix(1.3333333,0,0,1.3333333,32.193333,97.718667)" />
    <g
       id="g9"
       aria-label="u&#10;s"
       transform="matrix(1.3333333,0,0,1.3333333,43.456,84.162667)">
      <path
         id="path10"
         d="m 3.4929609,-0.56145312 c 0.1054688,0.41015625 0.4570313,0.66796875 0.8789063,0.66796875 0.3515625,0 0.5742187,-0.22265625 0.7382812,-0.5390625 0.1757813,-0.36328125 0.3046875,-0.97265623 0.3046875,-0.99609373 0,-0.09375 -0.09375,-0.09375 -0.1289062,-0.09375 -0.09375,0 -0.1054688,0.035156 -0.140625,0.1757812 -0.1289063,0.56250003 -0.328125,1.24218753 -0.7382813,1.24218753 -0.2109375,0 -0.3164062,-0.12890625 -0.3164062,-0.45703125 0,-0.22265625 0.1289062,-0.69140628 0.1992187,-1.04296878 l 0.28125,-1.078125 c 0.035156,-0.140625 0.1289063,-0.5273437 0.1757813,-0.6679687 0.046875,-0.234375 0.140625,-0.609375 0.140625,-0.6679688 0,-0.1875 -0.140625,-0.2695312 -0.28125,-0.2695312 -0.058594,0 -0.3164063,0 -0.3867188,0.3398437 -0.1992187,0.7265625 -0.6328125,2.4726563 -0.75,3.00000003 -0.011719,0.046875 -0.4101562,0.84375 -1.1367187,0.84375 -0.515625,0 -0.6210938,-0.45703125 -0.6210938,-0.8203125 0,-0.56250003 0.28125,-1.34765623 0.5390625,-2.02734373 0.1171875,-0.3046875 0.1757813,-0.4453125 0.1757813,-0.6328125 0,-0.4453125 -0.328125,-0.8203125 -0.8203125,-0.8203125 -0.94921876,0 -1.31250001,1.453125 -1.31250001,1.5351562 0,0.1054688 0.09375,0.1054688 0.1171875,0.1054688 0.09375,0 0.10546875,-0.023437 0.15234375,-0.1875 0.2578125,-0.8671875 0.63281246,-1.2304688 1.00781246,-1.2304688 0.09375,0 0.2578125,0.011719 0.2578125,0.328125 0,0.234375 -0.1171875,0.5273438 -0.1757812,0.6796875 -0.3632813,0.984375 -0.5742188,1.6054688 -0.5742188,2.0859375 0,0.94921878 0.6796875,1.19531253 1.21875,1.19531253 0.65625,0 1.0195313,-0.4453125 1.1953125,-0.66796875 z m 0,0"
         style="fill:#000000;fill-opacity:1;fill-rule:nonzero;stroke:none" />
      <path
         id="path11"
         d="m 8.7019453,-1.1298125 c -0.1757812,0.046875 -0.2929687,0.1875 -0.2929687,0.328125 0,0.1640625 0.140625,0.22265625 0.234375,0.22265625 0.070312,0 0.3398437,-0.0351563 0.3398437,-0.3984375 0,-0.44531245 -0.5039062,-0.59765625 -0.9257812,-0.59765625 -1.0898438,0 -1.2890625,0.796875 -1.2890625,1.0078125 0,0.2578125 0.1523437,0.43359375 0.2460937,0.515625 0.1757813,0.140625 0.3046875,0.1640625 0.7851563,0.24609375 0.1523437,0.0351563 0.5976562,0.1171875 0.5976562,0.46875 0,0.1171875 -0.082031,0.37500005 -0.375,0.55078125 -0.2695312,0.1523438 -0.609375,0.1523438 -0.6914062,0.1523438 -0.28125,0 -0.6796875,-0.058594 -0.84375,-0.2929688 0.234375,-0.023437 0.3867187,-0.19921875 0.3867187,-0.3984375 0,-0.1640625 -0.1289062,-0.2578125 -0.2695312,-0.2578125 -0.1992188,0 -0.4101563,0.1640625 -0.4101563,0.46875 0,0.421875 0.4453125,0.6796875 1.125,0.6796875 1.2890625,0 1.5234375,-0.87890625 1.5234375,-1.1484375 0,-0.64453125 -0.703125,-0.7734375 -0.9609375,-0.8203125 -0.070312,-0.0117188 -0.2460937,-0.0351563 -0.28125,-0.0585938 -0.2578125,-0.046875 -0.3867187,-0.1875 -0.3867187,-0.33984375 0,-0.1640625 0.1289062,-0.35156245 0.28125,-0.44531245 0.1875,-0.1289063 0.4335937,-0.140625 0.5507812,-0.140625 0.140625,0 0.5039063,0.023437 0.65625,0.2578125 z m 0,0"
         style="fill:#000000;fill-opacity:1;fill-rule:nonzero;stroke:none" />
    </g>
    <path
       id="path12"
       d="m 72.4542,0 c 0,0.87656 -0.7106,1.58714 -1.58717,1.58714 -0.87655,0 -1.58714,-0.71058 -1.58714,-1.58714 0,-0.87656 0.71059,-1.58714 1.58714,-1.58714 0.87657,0 1.58717,0.71058 1.58717,1.58714 z"
       style="fill:#000000;fill-opacity:1;fill-rule:nonzero;stroke:#000000;stroke-width:0.3985;stroke-linecap:butt;stroke-linejoin:miter;stroke-miterlimit:10;stroke-dasharray:none;stroke-opacity:1"
       transform="matrix(1.3333333,0,0,-1.3333333,16.405333,129.544)" />
    <path
       id="path13"
       d="m 107.88771,0 c 0,0.87656 -0.71059,1.58714 -1.58716,1.58714 -0.87655,0 -1.58714,-0.71058 -1.58714,-1.58714 0,-0.87656 0.71059,-1.58714 1.58714,-1.58714 0.87657,0 1.58716,0.71058 1.58716,1.58714 z"
       style="fill:#ffffff;fill-opacity:1;fill-rule:nonzero;stroke:#000000;stroke-width:0.3985;stroke-linecap:butt;stroke-linejoin:miter;stroke-miterlimit:10;stroke-dasharray:none;stroke-opacity:1"
       transform="matrix(1.3333333,0,0,-1.3333333,16.405333,129.544)" />
    <path
       id="path14"
       d="m 6.4804922,-1.8295312 c 0,-0.8671875 -0.8085938,-1.6054688 -1.921875,-1.7226563 0.9726562,-0.1992187 1.6523437,-0.8320312 1.6523437,-1.5703125 0,-0.8671875 -0.9140625,-1.6875 -2.203125,-1.6875 H 0.36330469 v 0.3164063 h 0.234375 c 0.76171871,0 0.78515621,0.1054687 0.78515621,0.46875 v 5.24999995 c 0,0.3515625 -0.023437,0.46875 -0.78515621,0.46875 h -0.234375 v 0.3046875 H 4.2656484 c 1.3242188,0 2.2148438,-0.890625 2.2148438,-1.82812495 z M 5.2500234,-5.1225 c 0,0.6328125 -0.4921875,1.4765625 -1.59375,1.4765625 H 2.2148672 v -2.4492187 c 0,-0.328125 0.011719,-0.3984375 0.4804687,-0.3984375 h 1.2421875 c 0.9609375,0 1.3125,0.84375 1.3125,1.3710937 z m 0.234375,3.2929688 c 0,0.703125 -0.515625,1.52343745 -1.5351562,1.52343745 H 2.6953359 c -0.46875,0 -0.4804687,-0.0703125 -0.4804687,-0.3984375 V -3.4232812 h 1.875 c 0.984375,0 1.3945312,0.9257812 1.3945312,1.59375 z m 0,0"
       style="fill:#000000;fill-opacity:1;fill-rule:nonzero;stroke:none"
       aria-label="B"
       transform="matrix(1.3333333,0,0,1.3333333,162.832,134.08)" />
    <path
       id="path15"
       d="m 70.86703,0 -1e-5,19.55931 m 0,31.7484 1e-5,19.55932 17.71676,-1e-5 m 0,0 17.71676,1e-5"
       style="fill:none;stroke:#000000;stroke-width:0.3985;stroke-linecap:butt;stroke-linejoin:miter;stroke-miterlimit:10;stroke-dasharray:none;stroke-opacity:1"
       transform="matrix(1.3333333,0,0,-1.3333333,16.405333,129.544)" />
    <path
       id="path16"
       d="m 71.02641,19.16081 c -3.28755,0 -5.95256,1.82137 -5.95256,4.06816 0,2.24681 2.66501,4.06818 5.95256,4.06818 -3.28755,0 -5.95256,1.82137 -5.95256,4.06818 0,2.24679 2.66501,4.06816 5.95256,4.06816 -3.28755,0 -5.95256,1.82136 -5.95256,4.06817 0,2.24681 2.66501,4.06818 5.95256,4.06818 -3.28755,0 -5.95256,1.82136 -5.95256,4.06816 0,2.24681 2.66501,4.06818 5.95256,4.06818"
       style="fill:none;stroke:#000000;stroke-width:0.797;stroke-linecap:butt;stroke-linejoin:bevel;stroke-miterlimit:10;stroke-dasharray:none;stroke-opacity:1"
       transform="matrix(1.3333333,0,0,-1.3333333,16.405333,129.544)" />
    <g
       id="g16"
       aria-label="0&#10;.&#10;4&#10;mH"
       transform="matrix(1.3333333,0,0,1.3333333,115.952,85.161333)">
      <path
         id="path17"
         d="m 4.582875,-3.1883828 c 0,-0.796875 -0.046875,-1.59375 -0.3984375,-2.3320313 -0.4570312,-0.9609375 -1.2773437,-1.1132812 -1.6875,-1.1132812 -0.5976562,0 -1.3359375,0.2578125 -1.734375,1.1835937 -0.328125,0.6914063 -0.375,1.4648438 -0.375,2.2617188 0,0.75 0.046875,1.640625 0.4453125,2.40234374 0.4335938,0.80859375 1.1601563,1.0078125 1.6523438,1.0078125 0.5390625,0 1.2890625,-0.2109375 1.734375,-1.16015625 C 4.536,-1.6297891 4.582875,-2.4032266 4.582875,-3.1883828 Z M 2.4852188,-8.828125e-4 c -0.3867188,0 -0.984375,-0.2460937475 -1.1601563,-1.2070312875 -0.1054687,-0.5976562 -0.1054687,-1.5117187 -0.1054687,-2.0976562 0,-0.6445313 0,-1.3007813 0.082031,-1.8398438 0.1875,-1.1835937 0.9257813,-1.265625 1.1835938,-1.265625 0.328125,0 0.984375,0.1757813 1.171875,1.1601563 0.09375,0.5625 0.09375,1.3125 0.09375,1.9453125 0,0.75 0,1.4179687 -0.1054688,2.0625 -0.1523437,0.93749999 -0.7148437,1.2421874875 -1.160156,1.2421874875 z m 0,0"
         style="fill:#000000;fill-opacity:1;fill-rule:nonzero;stroke:none" />
      <path
         id="path18"
         d="m 6.8914688,-0.52822656 c 0,-0.29296875 -0.234375,-0.52734374 -0.5273438,-0.52734374 -0.28125,0 -0.5273437,0.23437499 -0.5273437,0.52734374 0,0.29296875 0.2460937,0.5273437475 0.5273437,0.5273437475 0.2929688,0 0.5273438,-0.2343749975 0.5273438,-0.5273437475 z m 0,0"
         style="fill:#000000;fill-opacity:1;fill-rule:nonzero;stroke:none" />
      <path
         id="path19"
         d="m 10.679555,-1.6415078 v 0.86718749 c 0,0.3515625 -0.02344,0.46875 -0.7617191,0.46875 H 9.7068984 V -8.828125e-4 C 10.117055,-0.03603906 10.644398,-0.03603906 11.054555,-0.03603906 c 0.421875,0 0.949218,0 1.359375,0.0351562475 V -0.30557031 h -0.210938 c -0.738281,0 -0.761719,-0.1171875 -0.761719,-0.46875 V -1.6415078 h 0.996094 v -0.3164063 h -0.996094 v -4.5234375 c 0,-0.1992187 0,-0.2578125 -0.152343,-0.2578125 -0.09375,0 -0.117188,0 -0.199219,0.1171875 l -3.0585938,4.6640625 v 0.3164063 z m 0.05859,-0.3164063 H 8.3123672 l 2.4257808,-3.7148437 z m 0,0"
         style="fill:#000000;fill-opacity:1;fill-rule:nonzero;stroke:none" />
      <path
         id="path20"
         d="M 22.489125,-8.828125e-4 V -0.30557031 c -0.515625,0 -0.761719,0 -0.773437,-0.3046875 V -2.5086953 c 0,-0.8554688 0,-1.171875 -0.316407,-1.5234375 -0.128906,-0.1757813 -0.46875,-0.375 -1.042968,-0.375 -0.832032,0 -1.277344,0.5976562 -1.441407,0.984375 -0.140625,-0.8671875 -0.878906,-0.984375 -1.324218,-0.984375 -0.726563,0 -1.195313,0.4335937 -1.476563,1.0546875 v -1.0546875 l -1.40625,0.1171875 v 0.3046875 c 0.703125,0 0.785156,0.070312 0.785156,0.5625 v 2.66015624 c 0,0.45703125 -0.117187,0.45703125 -0.785156,0.45703125 v 0.3046874975 l 1.125,-0.0351562475 1.113281,0.0351562475 V -0.30557031 c -0.65625,0 -0.773437,0 -0.773437,-0.45703125 V -2.5907266 c 0,-1.03125 0.714844,-1.59375 1.347656,-1.59375 0.621094,0 0.738281,0.5390625 0.738281,1.1015625 v 2.32031254 c 0,0.45703125 -0.117187,0.45703125 -0.773437,0.45703125 v 0.3046874975 l 1.125,-0.0351562475 1.113281,0.0351562475 V -0.30557031 c -0.667969,0 -0.785156,0 -0.785156,-0.45703125 V -2.5907266 c 0,-1.03125 0.714844,-1.59375 1.347656,-1.59375 0.632813,0 0.738281,0.5390625 0.738281,1.1015625 v 2.32031254 c 0,0.45703125 -0.105468,0.45703125 -0.773437,0.45703125 v 0.3046874975 l 1.125,-0.0351562475 z m 7.338867,0 V -0.30557031 h -0.246094 c -0.761718,0 -0.785156,-0.1171875 -0.785156,-0.46875 V -6.0243203 c 0,-0.3632813 0.02344,-0.46875 0.785156,-0.46875 h 0.246094 v -0.3164063 c -0.351562,0.035156 -1.089844,0.035156 -1.464844,0.035156 -0.386718,0 -1.125,0 -1.476562,-0.035156 v 0.3164063 h 0.234375 c 0.773437,0 0.785156,0.1054687 0.785156,0.46875 v 2.3320312 h -2.976562 v -2.3320312 c 0,-0.3632813 0.02344,-0.46875 0.785156,-0.46875 h 0.246094 v -0.3164063 c -0.351563,0.035156 -1.089844,0.035156 -1.464844,0.035156 -0.375,0 -1.125,0 -1.476563,-0.035156 v 0.3164063 h 0.234375 c 0.773438,0 0.796875,0.1054687 0.796875,0.46875 v 5.24999999 c 0,0.3515625 -0.02344,0.46875 -0.796875,0.46875 H 23.019398 V -8.828125e-4 C 23.370961,-0.03603906 24.109242,-0.03603906 24.484242,-0.03603906 c 0.375,0 1.125,0 1.476563,0.0351562475 V -0.30557031 h -0.246094 c -0.761719,0 -0.785156,-0.1171875 -0.785156,-0.46875 V -3.3876016 h 2.976562 v 2.61328129 c 0,0.3515625 -0.01172,0.46875 -0.785156,0.46875 H 26.886586 V -8.828125e-4 C 27.238148,-0.03603906 27.97643,-0.03603906 28.35143,-0.03603906 c 0.375,0 1.125,0 1.476562,0.0351562475 z m 0,0"
         style="fill:#000000;fill-opacity:1;fill-rule:nonzero;stroke:none" />
    </g>
    <path
       id="path21"
       d="m 72.4542,70.86703 c 0,0.87657 -0.7106,1.58717 -1.58717,1.58717 -0.87655,0 -1.58714,-0.7106 -1.58714,-1.58717 0,-0.87655 0.71059,-1.58714 1.58714,-1.58714 0.87657,0 1.58717,0.71059 1.58717,1.58714 z"
       style="fill:#000000;fill-opacity:1;fill-rule:nonzero;stroke:#000000;stroke-width:0.3985;stroke-linecap:butt;stroke-linejoin:miter;stroke-miterlimit:10;stroke-dasharray:none;stroke-opacity:1"
       transform="matrix(1.3333333,0,0,-1.3333333,16.405333,129.544)" />
    <path
       id="path22"
       d="m 107.88771,70.86703 c 0,0.87657 -0.71059,1.58717 -1.58716,1.58717 -0.87655,0 -1.58714,-0.7106 -1.58714,-1.58717 0,-0.87655 0.71059,-1.58714 1.58714,-1.58714 0.87657,0 1.58716,0.71059 1.58716,1.58714 z"
       style="fill:#ffffff;fill-opacity:1;fill-rule:nonzero;stroke:#000000;stroke-width:0.3985;stroke-linecap:butt;stroke-linejoin:miter;stroke-miterlimit:10;stroke-dasharray:none;stroke-opacity:1"
       transform="matrix(1.3333333,0,0,-1.3333333,16.405333,129.544)" />
    <path
       id="path23"
       d="M 7.1367422,0.001375 V -0.3033125 H 6.9609609 c -0.5976562,0 -0.7382812,-0.0703125 -0.84375,-0.3984375 l -2.15625,-6.234375 c -0.046875,-0.1289063 -0.070312,-0.1992188 -0.2226562,-0.1992188 -0.1640625,0 -0.1875,0.058594 -0.2460938,0.1992188 l -2.0625,5.96484375 C 1.2539297,-0.467375 0.85549219,-0.31503125 0.31642969,-0.3033125 V 0.001375 L 1.3359609,-0.03378125 2.4843984,0.001375 v -0.3046875 c -0.5039062,0 -0.75,-0.2578125 -0.75,-0.515625 0,-0.0234375 0.011719,-0.12890625 0.023437,-0.140625 l 0.4570313,-1.3125 h 2.4609375 l 0.5273437,1.5234375 c 0.011719,0.046875 0.023437,0.10546875 0.023437,0.140625 0,0.3046875 -0.5507812,0.3046875 -0.8203125,0.3046875 V 0.001375 C 4.7578359,-0.03378125 5.4609609,-0.03378125 5.8359609,-0.03378125 Z M 4.5586172,-2.57675 H 2.3203359 l 1.1132813,-3.234375 z m 0,0"
       style="fill:#000000;fill-opacity:1;fill-rule:nonzero;stroke:none"
       aria-label="A"
       transform="matrix(1.3333333,0,0,1.3333333,162.832,39.810667)" />
  </g>
</svg>
