<?xml version="1.0" encoding="UTF-8" standalone="no"?>
<!-- Created with Inkscape (http://www.inkscape.org/) -->

<svg
   version="1.1"
   id="svg1"
   width="241.73334"
   height="134.45332"
   viewBox="0 0 241.73334 134.45332"
   sodipodi:docname="24-25-2-电路与电子学基础-期中-题图5.pdf"
   xmlns:inkscape="http://www.inkscape.org/namespaces/inkscape"
   xmlns:sodipodi="http://sodipodi.sourceforge.net/DTD/sodipodi-0.dtd"
   xmlns="http://www.w3.org/2000/svg"
   xmlns:svg="http://www.w3.org/2000/svg">
  <defs
     id="defs1" />
  <sodipodi:namedview
     id="namedview1"
     pagecolor="#ffffff"
     bordercolor="#000000"
     borderopacity="0.25"
     inkscape:showpageshadow="2"
     inkscape:pageopacity="0.0"
     inkscape:pagecheckerboard="0"
     inkscape:deskcolor="#d1d1d1">
    <inkscape:page
       x="0"
       y="0"
       inkscape:label="1"
       id="page1"
       width="241.73334"
       height="134.45332"
       margin="0"
       bleed="0" />
  </sodipodi:namedview>
  <g
     id="g1"
     inkscape:groupmode="layer"
     inkscape:label="1">
    <path
       id="path1"
       d="m 0,0 v 23.52779 m 0,23.81144 v 23.5278 l 19.55931,-1e-5 m 31.7484,0 19.55932,1e-5 25.51218,-1e-5 m 19.84269,0 25.51219,1e-5 V 51.30771 m 0,-31.7484 V 0 H 70.86703 m 0,0 H 0"
       style="fill:none;stroke:#000000;stroke-width:0.3985;stroke-linecap:butt;stroke-linejoin:miter;stroke-miterlimit:10;stroke-dasharray:none;stroke-opacity:1"
       transform="matrix(1.3333333,0,0,-1.3333333,16.405333,131.54267)" />
    <path
       id="path2"
       d="m -11.90572,35.4335 c 0,-6.5754 5.33031,-11.90571 11.90572,-11.90571 6.57541,0 11.90572,5.33031 11.90572,11.90571 0,6.57543 -5.33031,11.90573 -11.90572,11.90573 -6.57541,0 -11.90572,-5.3303 -11.90572,-11.90573 z"
       style="fill:none;stroke:#000000;stroke-width:0.797;stroke-linecap:butt;stroke-linejoin:miter;stroke-miterlimit:10;stroke-dasharray:none;stroke-opacity:1"
       transform="matrix(1.3333333,0,0,-1.3333333,16.405333,131.54267)" />
    <path
       id="path3"
       d="M 0,23.52779 V 47.33923"
       style="fill:none;stroke:#000000;stroke-width:0.797;stroke-linecap:butt;stroke-linejoin:miter;stroke-miterlimit:10;stroke-dasharray:none;stroke-opacity:1"
       transform="matrix(1.3333333,0,0,-1.3333333,16.405333,131.54267)" />
    <path
       id="path4"
       d="m 6.5610547,-2.2958125 c 0.1757812,0 0.3515625,0 0.3515625,-0.1992187 0,-0.1992188 -0.1757813,-0.1992188 -0.3515625,-0.1992188 h -5.390625 c -0.1640625,0 -0.33984376,0 -0.33984376,0.1992188 0,0.1992187 0.17578126,0.1992187 0.33984376,0.1992187 z m 0,0"
       style="fill:#000000;fill-opacity:1;fill-rule:nonzero;stroke:none"
       aria-label="−"
       transform="matrix(1.3333333,0,0,1.3333333,32.193333,99.717333)" />
    <path
       id="path5"
       d="m 4.0766797,-2.2972266 h 2.7773437 c 0.140625,0 0.328125,0 0.328125,-0.1992187 0,-0.1992188 -0.1875,-0.1992188 -0.328125,-0.1992188 H 4.0766797 v -2.7890625 c 0,-0.1289062 0,-0.328125 -0.1992188,-0.328125 -0.1992187,0 -0.1992187,0.1992188 -0.1992187,0.328125 v 2.7890625 H 0.88917969 c -0.140625,0 -0.328125,0 -0.328125,0.1992188 0,0.1992187 0.1875,0.1992187 0.328125,0.1992187 H 3.6782422 v 2.80078129 c 0,0.12890625 0,0.328125 0.1992187,0.328125 0.1992188,0 0.1992188,-0.19921875 0.1992188,-0.328125 z m 0,0"
       style="fill:#000000;fill-opacity:1;fill-rule:nonzero;stroke:none"
       aria-label="+"
       transform="matrix(1.3333333,0,0,1.3333333,32.193333,75.52)" />
    <g
       id="g5"
       aria-label="U&#10;s"
       transform="matrix(1.3333333,0,0,1.3333333,43.456,87.84)">
      <path
         id="path6"
         d="m 6.3288984,-5.7540234 c 0.09375,-0.4101563 0.28125,-0.7148438 1.078125,-0.7382813 0.046875,0 0.1640625,-0.011719 0.1640625,-0.1992187 0,-0.011719 0,-0.1171875 -0.1289062,-0.1171875 -0.328125,0 -0.6796875,0.035156 -1.0195313,0.035156 -0.3398437,0 -0.703125,-0.035156 -1.03125,-0.035156 -0.058594,0 -0.1757812,0 -0.1757812,0.1992187 0,0.1171875 0.09375,0.1171875 0.1757812,0.1171875 0.5625,0.011719 0.6796875,0.2109375 0.6796875,0.4335938 0,0.035156 -0.023437,0.1757812 -0.035156,0.2109375 l -0.890625,3.5507812 c -0.3398438,1.33593751 -1.4882813,2.20312501 -2.484375,2.20312501 -0.6796875,0 -1.21875,-0.43359375 -1.21875,-1.28906251 0,-0.023437 0,-0.3398437 0.1171875,-0.7734375 l 0.9609375,-3.8789062 c 0.09375,-0.3632813 0.1054687,-0.4570313 0.8320312,-0.4570313 0.2695313,0 0.3398438,0 0.3398438,-0.1992187 0,-0.1171875 -0.1054688,-0.1171875 -0.140625,-0.1171875 -0.2695313,0 -0.9960938,0.035156 -1.265625,0.035156 -0.2929688,0 -0.9960938,-0.035156 -1.28906251,-0.035156 -0.0820313,0 -0.1875,0 -0.1875,0.1992187 0,0.1171875 0.09375,0.1171875 0.28125001,0.1171875 0.011719,0 0.2109375,0 0.375,0.011719 0.1757812,0.023437 0.2695312,0.035156 0.2695312,0.1640625 0,0.058594 -0.1054687,0.4804687 -0.1757812,0.703125 L 1.3484299,-4.734492 c -0.09375,0.3867188 -0.57421876,2.2734375 -0.60937501,2.4609375 -0.0703125,0.28125 -0.0703125,0.4335938 -0.0703125,0.5742188 0,1.21874996 0.90234371,1.92187496 1.95703121,1.92187496 1.2539063,0 2.484375,-1.125 2.8125,-2.44921876 z m 0,0"
         style="fill:#000000;fill-opacity:1;fill-rule:nonzero;stroke:none" />
      <path
         id="path7"
         d="m 9.8005781,-1.1309766 c -0.1757812,0.046875 -0.2929687,0.18750004 -0.2929687,0.32812504 0,0.1640625 0.140625,0.22265625 0.234375,0.22265625 0.070312,0 0.3398436,-0.0351563 0.3398436,-0.3984375 0,-0.44531249 -0.5039061,-0.59765629 -0.9257811,-0.59765629 -1.0898438,0 -1.2890625,0.79687504 -1.2890625,1.00781254 0,0.2578125 0.1523437,0.43359375 0.2460937,0.515625 0.1757813,0.140625 0.3046875,0.1640625 0.7851563,0.24609375 0.1523437,0.0351563 0.5976562,0.1171875 0.5976562,0.46875 0,0.1171875 -0.082031,0.37500001 -0.375,0.55078121 -0.2695312,0.1523438 -0.609375,0.1523438 -0.6914062,0.1523438 -0.28125,0 -0.6796875,-0.058594 -0.84375,-0.2929688 0.234375,-0.023437 0.3867187,-0.19921871 0.3867187,-0.39843746 0,-0.1640625 -0.1289062,-0.2578125 -0.2695312,-0.2578125 -0.1992188,0 -0.4101563,0.1640625 -0.4101563,0.46875 0,0.42187496 0.4453125,0.67968746 1.125,0.67968746 1.2890625,0 1.5234375,-0.87890621 1.5234375,-1.14843746 0,-0.64453125 -0.703125,-0.7734375 -0.9609375,-0.8203125 -0.070312,-0.0117188 -0.2460937,-0.0351563 -0.28125,-0.0585938 -0.2578125,-0.046875 -0.3867187,-0.1875 -0.3867187,-0.33984375 0,-0.1640625 0.1289062,-0.35156249 0.28125,-0.44531249 0.1875,-0.1289063 0.4335937,-0.140625 0.5507812,-0.140625 0.140625,0 0.5039063,0.023437 0.65625,0.2578125 z m 0,0"
         style="fill:#000000;fill-opacity:1;fill-rule:nonzero;stroke:none" />
    </g>
    <path
       id="path8"
       d="M 19.55931,76.81987 H 51.30769 V 64.91417 H 19.55931 Z"
       style="fill:none;stroke:#000000;stroke-width:0.797;stroke-linecap:butt;stroke-linejoin:miter;stroke-miterlimit:10;stroke-dasharray:none;stroke-opacity:1"
       transform="matrix(1.3333333,0,0,-1.3333333,16.405333,131.54267)" />
    <path
       id="path9"
       d="m 3.7372969,-6.1176797 c 0.058594,-0.234375 0.082031,-0.3398437 0.28125,-0.3632812 0.082031,-0.011719 0.3984375,-0.011719 0.5976562,-0.011719 0.7148438,0 1.8164063,0 1.8164063,0.984375 0,0.3398438 -0.1523438,1.0195313 -0.5507813,1.4179688 -0.2578125,0.2578125 -0.7851562,0.5742187 -1.6757812,0.5742187 H 3.0927656 Z m 1.4296875,2.7304688 c 1.0078125,-0.2226563 2.1914062,-0.9140625 2.1914062,-1.921875 0,-0.8554688 -0.890625,-1.5 -2.203125,-1.5 H 2.3193281 c -0.1992187,0 -0.2929687,0 -0.2929687,0.1992187 0,0.1171875 0.09375,0.1171875 0.28125,0.1171875 0.023437,0 0.2109375,0 0.3867187,0.011719 0.1757813,0.023437 0.2578125,0.035156 0.2578125,0.1640625 0,0.035156 0,0.070312 -0.035156,0.1875 l -1.3359375,5.35546871 c -0.09375,0.38671875 -0.1171875,0.46875 -0.90234378,0.46875 -0.17578125,0 -0.26953125,0 -0.26953125,0.19921875 0,0.1054687525 0.1171875,0.1054687525 0.140625,0.1054687525 0.28125,0 0.97265623,-0.0351562525 1.25390623,-0.0351562525 0.28125,0 0.984375,0.0351562525 1.265625,0.0351562525 0.082031,0 0.1992188,0 0.1992188,-0.1992187525 0,-0.10546875 -0.09375,-0.10546875 -0.28125,-0.10546875 -0.3632813,0 -0.6445313,0 -0.6445313,-0.1875 0,-0.0585938 0.011719,-0.10546875 0.023437,-0.1640625 l 0.65625,-2.63671871 h 1.1953125 c 0.9023438,0 1.078125,0.5507812 1.078125,0.9023437 0,0.1523438 -0.082031,0.4570313 -0.140625,0.6914063 -0.070312,0.2695312 -0.1523437,0.6445312 -0.1523437,0.84374996 0,1.078125 1.1953125,1.078125 1.3242187,1.078125 0.84375,0 1.1953125,-1.0078125 1.1953125,-1.1484375 0,-0.11718746 -0.1171875,-0.11718746 -0.1171875,-0.11718746 -0.09375,0 -0.1171875,0.0703125 -0.1289062,0.14062496 -0.2578125,0.73828125 -0.6796875,0.9023437525 -0.9140625,0.9023437525 -0.328125,0 -0.3984375,-0.2226562525 -0.3984375,-0.6093750025 0,-0.3046875 0.058594,-0.82031251 0.1054687,-1.13671871 0.011719,-0.140625 0.035156,-0.328125 0.035156,-0.46875 0,-0.7617188 -0.6679688,-1.078125 -0.9374994,-1.1718752 z m 0,0"
       style="fill:#000000;fill-opacity:1;fill-rule:nonzero;stroke:none"
       aria-label="R"
       transform="matrix(1.3333333,0,0,1.3333333,58.556,24.028)" />
    <path
       id="path10"
       d="M 96.37921,70.86702 116.2219,82.77274"
       style="fill:none;stroke:#000000;stroke-width:3.17429;stroke-linecap:round;stroke-linejoin:miter;stroke-miterlimit:10;stroke-dasharray:none;stroke-opacity:1"
       transform="matrix(1.3333333,0,0,-1.3333333,16.405333,131.54267)" />
    <path
       id="path11"
       d="m 100.45122,82.05466 c 4.4321,-1.61319 7.39683,-5.6351 7.79008,-10.15349"
       style="fill:none;stroke:#000000;stroke-width:0.797;stroke-linecap:butt;stroke-linejoin:miter;stroke-miterlimit:10;stroke-dasharray:none;stroke-opacity:1"
       transform="matrix(1.3333333,0,0,-1.3333333,16.405333,131.54267)" />
    <path
       id="path12"
       d="m 3.1083,0 c -1.29513,0.25902 -3.62635,0.77707 -5.1805,1.94269 1.29513,-1.42464 1.29513,-2.46074 0,-3.88538 C -0.51805,-0.77707 1.81317,-0.25902 3.1083,0 Z"
       style="fill:#000000;fill-opacity:1;fill-rule:nonzero;stroke:none"
       transform="matrix(0.05792,1.332,1.332,-0.05792,160.36401,35.669493)" />
    <path
       id="path13"
       d="m 97.96635,70.86702 c 0,0.87657 -0.71058,1.58716 -1.58714,1.58716 -0.87655,0 -1.58714,-0.71059 -1.58714,-1.58716 0,-0.87656 0.71059,-1.58714 1.58714,-1.58714 0.87656,0 1.58714,0.71058 1.58714,1.58714 z"
       style="fill:#ffffff;fill-opacity:1;fill-rule:nonzero;stroke:#000000;stroke-width:0.3985;stroke-linecap:butt;stroke-linejoin:miter;stroke-miterlimit:10;stroke-dasharray:none;stroke-opacity:1"
       transform="matrix(1.3333333,0,0,-1.3333333,16.405333,131.54267)" />
    <path
       id="path14"
       d="m 117.80905,70.86702 c 0,0.87657 -0.71059,1.58716 -1.58715,1.58716 -0.87656,0 -1.58715,-0.71059 -1.58715,-1.58716 0,-0.87656 0.71059,-1.58714 1.58715,-1.58714 0.87656,0 1.58715,0.71058 1.58715,1.58714 z"
       style="fill:#ffffff;fill-opacity:1;fill-rule:nonzero;stroke:#000000;stroke-width:0.3985;stroke-linecap:butt;stroke-linejoin:miter;stroke-miterlimit:10;stroke-dasharray:none;stroke-opacity:1"
       transform="matrix(1.3333333,0,0,-1.3333333,16.405333,131.54267)" />
    <path
       id="path15"
       d="m 141.57469,51.7062 c 3.28755,0 5.95256,-1.82136 5.95256,-4.06817 0,-2.24679 -2.66501,-4.06816 -5.95256,-4.06816 3.28755,0 5.95256,-1.82137 5.95256,-4.06817 0,-2.24682 -2.66501,-4.06818 -5.95256,-4.06818 3.28755,0 5.95256,-1.82137 5.95256,-4.06816 0,-2.24681 -2.66501,-4.06818 -5.95256,-4.06818 3.28755,0 5.95256,-1.82137 5.95256,-4.06818 0,-2.24679 -2.66501,-4.06816 -5.95256,-4.06816"
       style="fill:none;stroke:#000000;stroke-width:0.797;stroke-linecap:butt;stroke-linejoin:bevel;stroke-miterlimit:10;stroke-dasharray:none;stroke-opacity:1"
       transform="matrix(1.3333333,0,0,-1.3333333,16.405333,131.54267)" />
    <g
       id="g15"
       aria-label="2H"
       transform="matrix(1.3333333,0,0,1.3333333,181.508,87.16)">
      <path
         id="path16"
         d="M 1.2654844,-0.76160156 2.3201719,-1.7928516 c 1.5585937,-1.3710937 2.15625,-1.9101562 2.15625,-2.90625 0,-1.1367187 -0.9023438,-1.9335937 -2.1210938,-1.9335937 -1.125,0 -1.85156247,0.9140625 -1.85156247,1.8046875 0,0.5507812 0.4921875,0.5507812 0.52734377,0.5507812 0.1640625,0 0.515625,-0.1171875 0.515625,-0.5273437 0,-0.2578125 -0.1875,-0.515625 -0.5273438,-0.515625 -0.0820312,0 -0.10546872,0 -0.12890622,0.011719 0.22265622,-0.6445312 0.76171872,-1.0195312 1.33593752,-1.0195312 0.9140625,0 1.3359375,0.8085937 1.3359375,1.6289062 0,0.796875 -0.4921875,1.5820313 -1.0429688,2.203125 L 0.60923438,-0.36316406 C 0.50376563,-0.25769531 0.50376563,-0.23425781 0.50376563,1.171875e-4 H 4.1951719 L 4.4764219,-1.7342578 H 4.2186094 c -0.046875,0.3046875 -0.1171875,0.73828124 -0.2109375,0.89062499 -0.070312,0.0820313 -0.7265625,0.0820313 -0.9492188,0.0820313 z m 0,0"
         style="fill:#000000;fill-opacity:1;fill-rule:nonzero;stroke:none" />
      <path
         id="path17"
         d="M 13.77818,1.171875e-4 V -0.30457031 h -0.246094 c -0.761719,0 -0.785156,-0.1171875 -0.785156,-0.46875 V -6.0233203 c 0,-0.3632813 0.02344,-0.46875 0.785156,-0.46875 h 0.246094 v -0.3164063 c -0.351563,0.035156 -1.089844,0.035156 -1.464844,0.035156 -0.386719,0 -1.125,0 -1.476563,-0.035156 v 0.3164063 h 0.234375 c 0.773438,0 0.785157,0.1054687 0.785157,0.46875 v 2.3320312 H 8.8797422 v -2.3320312 c 0,-0.3632813 0.023437,-0.46875 0.7851562,-0.46875 h 0.2460938 v -0.3164063 c -0.3515625,0.035156 -1.0898438,0.035156 -1.4648438,0.035156 -0.375,0 -1.125,0 -1.4765625,-0.035156 v 0.3164063 h 0.234375 c 0.7734375,0 0.796875,0.1054687 0.796875,0.46875 v 5.24999999 c 0,0.3515625 -0.023437,0.46875 -0.796875,0.46875 H 6.9695859 V 1.171875e-4 C 7.3211484,-0.03503906 8.0594297,-0.03503906 8.4344297,-0.03503906 c 0.375,0 1.125,0 1.4765625,0.0351562475 V -0.30457031 H 9.6648984 c -0.7617187,0 -0.7851562,-0.1171875 -0.7851562,-0.46875 V -3.3866016 h 2.9765628 v 2.61328129 c 0,0.3515625 -0.01172,0.46875 -0.785157,0.46875 H 10.836773 V 1.171875e-4 C 11.188336,-0.03503906 11.926617,-0.03503906 12.301617,-0.03503906 c 0.375,0 1.125,0 1.476563,0.0351562475 z m 0,0"
         style="fill:#000000;fill-opacity:1;fill-rule:nonzero;stroke:none" />
    </g>
    <path
       id="path18"
       d="M 4.0782813,-2.2980703 H 6.855625 c 0.140625,0 0.328125,0 0.328125,-0.1992188 0,-0.1992187 -0.1875,-0.1992187 -0.328125,-0.1992187 H 4.0782813 v -2.7890625 c 0,-0.1289063 0,-0.328125 -0.1992188,-0.328125 -0.1992187,0 -0.1992187,0.1992187 -0.1992187,0.328125 v 2.7890625 H 0.89078125 c -0.140625,0 -0.328125,0 -0.328125,0.1992187 0,0.1992188 0.1875,0.1992188 0.328125,0.1992188 H 3.6798438 v 2.80078124 c 0,0.12890625 0,0.328125 0.1992187,0.328125 0.1992188,0 0.1992188,-0.19921875 0.1992188,-0.328125 z m 0,0"
       style="fill:#000000;fill-opacity:1;fill-rule:nonzero;stroke:none"
       aria-label="+"
       transform="matrix(1.3333333,0,0,1.3333333,222.54667,55.068)" />
    <path
       id="path19"
       d="m 6.5626563,-2.2959688 c 0.1757812,0 0.3515625,0 0.3515625,-0.1992187 0,-0.1992188 -0.1757813,-0.1992188 -0.3515625,-0.1992188 h -5.390625 c -0.1640625,0 -0.3398438,0 -0.3398438,0.1992188 0,0.1992187 0.1757813,0.1992187 0.3398438,0.1992187 z m 0,0"
       style="fill:#000000;fill-opacity:1;fill-rule:nonzero;stroke:none"
       aria-label="−"
       transform="matrix(1.3333333,0,0,1.3333333,222.54667,120.17067)" />
    <g
       id="g19"
       aria-label="u(t)"
       transform="matrix(1.3333333,0,0,1.3333333,216.34667,87.618667)">
      <path
         id="path20"
         d="m 3.4929297,-0.56360938 c 0.1054687,0.41015625 0.4570312,0.66796875 0.8789062,0.66796875 0.3515625,0 0.5742188,-0.22265625 0.7382813,-0.5390625 0.1757812,-0.36328125 0.3046875,-0.97265627 0.3046875,-0.99609377 0,-0.09375 -0.09375,-0.09375 -0.1289063,-0.09375 -0.09375,0 -0.1054687,0.035156 -0.140625,0.1757813 -0.1289062,0.56249997 -0.328125,1.24218747 -0.7382812,1.24218747 -0.2109375,0 -0.3164063,-0.12890625 -0.3164063,-0.45703125 0,-0.22265625 0.1289063,-0.69140622 0.1992188,-1.04296872 l 0.28125,-1.078125 c 0.035156,-0.140625 0.1289062,-0.5273438 0.1757812,-0.6679688 0.046875,-0.234375 0.140625,-0.609375 0.140625,-0.6679687 0,-0.1875 -0.140625,-0.2695313 -0.28125,-0.2695313 -0.058594,0 -0.3164062,0 -0.3867187,0.3398438 -0.1992188,0.7265625 -0.6328125,2.4726562 -0.75,2.99999997 -0.011719,0.046875 -0.4101563,0.84375 -1.1367188,0.84375 -0.515625,0 -0.6210937,-0.45703125 -0.6210937,-0.8203125 0,-0.56249997 0.28125,-1.34765627 0.5390625,-2.02734377 0.1171875,-0.3046875 0.1757812,-0.4453125 0.1757812,-0.6328125 0,-0.4453125 -0.328125,-0.8203125 -0.8203125,-0.8203125 -0.94921871,0 -1.31249996,1.453125 -1.31249996,1.5351563 0,0.1054687 0.09375,0.1054687 0.1171875,0.1054687 0.09375,0 0.10546875,-0.023437 0.15234375,-0.1875 0.2578125,-0.8671875 0.63281251,-1.2304687 1.00781251,-1.2304687 0.09375,0 0.2578125,0.011719 0.2578125,0.328125 0,0.234375 -0.1171875,0.5273437 -0.1757813,0.6796875 -0.3632812,0.984375 -0.5742187,1.6054687 -0.5742187,2.0859375 0,0.94921872 0.6796875,1.19531247 1.21875,1.19531247 0.65625,0 1.0195312,-0.4453125 1.1953125,-0.66796875 z m 0,0"
         style="fill:#000000;fill-opacity:1;fill-rule:nonzero;stroke:none" />
      <path
         id="path21"
         d="m 8.9948828,2.3895156 c 0,-0.035156 0,-0.046875 -0.1640625,-0.2226562 -1.2421875,-1.25390628 -1.5703125,-3.12890628 -1.5703125,-4.6640625 0,-1.7226563 0.3867188,-3.4570313 1.6054688,-4.7109375 0.1289062,-0.1171875 0.1289062,-0.1289063 0.1289062,-0.1640625 0,-0.070312 -0.035156,-0.1054688 -0.09375,-0.1054688 -0.1054687,0 -0.9960937,0.6796875 -1.5820312,1.9453125 -0.515625,1.1015625 -0.6328125,2.203125 -0.6328125,3.0351563 0,0.7851562 0.1171875,1.99218747 0.65625,3.11718747 0.5976562,1.21875003 1.453125,1.87500003 1.5585937,1.87500003 0.058594,0 0.09375,-0.035156 0.09375,-0.1054688 z m 0,0"
         style="fill:#000000;fill-opacity:1;fill-rule:nonzero;stroke:none" />
      <path
         id="path22"
         d="m 11.628672,-3.9854844 h 0.9375 c 0.199219,0 0.304687,0 0.304687,-0.1992187 0,-0.1054688 -0.105468,-0.1054688 -0.28125,-0.1054688 h -0.878906 c 0.363281,-1.4179687 0.410156,-1.6171875 0.410156,-1.6757812 0,-0.1757813 -0.117187,-0.2695313 -0.292968,-0.2695313 -0.02344,0 -0.304688,0.011719 -0.398438,0.3515625 l -0.386719,1.59375 h -0.9375 c -0.1992184,0 -0.2929684,0 -0.2929684,0.1875 0,0.1171875 0.070312,0.1171875 0.2695314,0.1171875 h 0.878906 c -0.714844,2.8242188 -0.75,3.00000002 -0.75,3.17578127 0,0.5390625 0.375,0.9140625 0.914063,0.9140625 1.007812,0 1.582031,-1.45312497 1.582031,-1.53515627 0,-0.09375 -0.08203,-0.09375 -0.117188,-0.09375 -0.09375,0 -0.105468,0.023437 -0.152343,0.140625 -0.433594,1.03125002 -0.960938,1.27734377 -1.300782,1.27734377 -0.199218,0 -0.304687,-0.12890625 -0.304687,-0.45703125 0,-0.24609375 0.02344,-0.31640625 0.05859,-0.48046872 z m 0,0"
         style="fill:#000000;fill-opacity:1;fill-rule:nonzero;stroke:none" />
      <path
         id="path23"
         d="m 16.058359,-2.4972031 c 0,-0.7734375 -0.117187,-1.9804688 -0.65625,-3.1054688 -0.597656,-1.21875 -1.464843,-1.875 -1.558593,-1.875 -0.05859,0 -0.105469,0.046875 -0.105469,0.1054688 0,0.035156 0,0.046875 0.199219,0.234375 0.972656,0.984375 1.535156,2.5664062 1.535156,4.640625 0,1.71093747 -0.363281,3.45703122 -1.59375,4.7226562 -0.140625,0.1171875 -0.140625,0.1289063 -0.140625,0.1640625 0,0.058594 0.04687,0.1054688 0.105469,0.1054688 0.09375,0 0.996093,-0.6796875 1.582031,-1.94531253 0.503906,-1.1015625 0.632812,-2.20312497 0.632812,-3.04687497 z m 0,0"
         style="fill:#000000;fill-opacity:1;fill-rule:nonzero;stroke:none" />
    </g>
    <path
       id="path24"
       d="M 72.60326,0 V 1.98425 L 68.38672,0 72.60326,-1.98425 Z"
       style="fill:#000000;fill-opacity:1;fill-rule:nonzero;stroke:#000000;stroke-width:0.3985;stroke-linecap:butt;stroke-linejoin:miter;stroke-miterlimit:10;stroke-dasharray:none;stroke-opacity:1"
       transform="matrix(1.3333333,0,0,-1.3333333,16.405333,131.54267)" />
    <g
       id="g24"
       aria-label="i(t)"
       transform="matrix(1.3333333,0,0,1.3333333,101.04267,123.528)">
      <path
         id="path25"
         d="m 2.8244453,-6.2231484 c 0,-0.1992188 -0.1289062,-0.3632813 -0.3632812,-0.3632813 -0.2695313,0 -0.5390625,0.2578125 -0.5390625,0.5273438 0,0.1875 0.140625,0.3632812 0.375,0.3632812 0.234375,0 0.5273437,-0.234375 0.5273437,-0.5273437 z m -0.75,3.7382812 c 0.1171875,-0.28125 0.1171875,-0.3046875 0.2226563,-0.5742187 0.070312,-0.1992188 0.1289062,-0.3398438 0.1289062,-0.5273438 0,-0.4453125 -0.328125,-0.8203125 -0.8203125,-0.8203125 -0.93749999,0 -1.31249999,1.453125 -1.31249999,1.5351563 0,0.1054687 0.09375,0.1054687 0.1171875,0.1054687 0.09375,0 0.10546875,-0.023437 0.15234375,-0.1875 0.26953125,-0.9375 0.66796874,-1.2304687 1.00781254,-1.2304687 0.082031,0 0.2578125,0 0.2578125,0.3164062 0,0.2109375 -0.070312,0.421875 -0.1171875,0.515625 -0.082031,0.2578125 -0.5273438,1.4179688 -0.6796875,1.8515625 -0.10546879,0.2578125 -0.23437504,0.58593751 -0.23437504,0.79687501 0,0.46875 0.33984374,0.80859375 0.82031254,0.80859375 0.9375,0 1.3007812,-1.44140626 1.3007812,-1.53515626 0,-0.09375 -0.09375,-0.09375 -0.1171875,-0.09375 -0.1054687,0 -0.1054687,0.023437 -0.1523437,0.1757813 -0.1757813,0.63281246 -0.5039063,1.24218746 -1.0195313,1.24218746 -0.1640625,0 -0.234375,-0.10546875 -0.234375,-0.328125 0,-0.2578125 0.058594,-0.3984375 0.2929688,-0.99609376 z m 0,0"
         style="fill:#000000;fill-opacity:1;fill-rule:nonzero;stroke:none" />
      <path
         id="path26"
         d="m 6.7238594,2.3901328 c 0,-0.035156 0,-0.046875 -0.1640625,-0.2226562 -1.2421875,-1.25390629 -1.5703125,-3.12890629 -1.5703125,-4.6640625 0,-1.7226563 0.3867187,-3.4570313 1.6054687,-4.7109375 0.1289063,-0.1171875 0.1289063,-0.1289063 0.1289063,-0.1640625 0,-0.070312 -0.035156,-0.1054688 -0.09375,-0.1054688 -0.1054688,0 -0.9960938,0.6796875 -1.5820313,1.9453125 -0.515625,1.1015625 -0.6328125,2.203125 -0.6328125,3.0351563 0,0.7851562 0.1171875,1.99218746 0.65625,3.11718746 0.5976563,1.21875004 1.453125,1.87500004 1.5585938,1.87500004 0.058594,0 0.09375,-0.035156 0.09375,-0.1054688 z m 0,0"
         style="fill:#000000;fill-opacity:1;fill-rule:nonzero;stroke:none" />
      <path
         id="path27"
         d="m 9.3576484,-3.9848672 h 0.9374996 c 0.199219,0 0.304688,0 0.304688,-0.1992187 0,-0.1054688 -0.105469,-0.1054688 -0.28125,-0.1054688 H 9.4396797 c 0.3632812,-1.4179687 0.4101562,-1.6171875 0.4101562,-1.6757812 0,-0.1757813 -0.1171875,-0.2695313 -0.2929687,-0.2695313 -0.023437,0 -0.3046875,0.011719 -0.3984375,0.3515625 l -0.3867188,1.59375 h -0.9375 c -0.1992187,0 -0.2929687,0 -0.2929687,0.1875 0,0.1171875 0.070312,0.1171875 0.2695312,0.1171875 h 0.8789063 c -0.7148438,2.8242188 -0.75,3.00000001 -0.75,3.17578126 0,0.5390625 0.375,0.9140625 0.9140625,0.9140625 1.0078125,0 1.5820308,-1.45312496 1.5820308,-1.53515626 0,-0.09375 -0.08203,-0.09375 -0.117187,-0.09375 -0.09375,0 -0.105469,0.023437 -0.152344,0.140625 -0.4335936,1.03125001 -0.9609373,1.27734376 -1.3007811,1.27734376 -0.1992187,0 -0.3046875,-0.12890625 -0.3046875,-0.45703125 0,-0.24609375 0.023437,-0.31640625 0.058594,-0.48046871 z m 0,0"
         style="fill:#000000;fill-opacity:1;fill-rule:nonzero;stroke:none" />
      <path
         id="path28"
         d="m 13.787336,-2.4965859 c 0,-0.7734375 -0.117188,-1.9804688 -0.65625,-3.1054688 -0.597656,-1.21875 -1.464844,-1.875 -1.558594,-1.875 -0.05859,0 -0.105469,0.046875 -0.105469,0.1054688 0,0.035156 0,0.046875 0.199219,0.234375 0.972656,0.984375 1.535156,2.5664062 1.535156,4.640625 0,1.71093746 -0.363281,3.45703121 -1.59375,4.7226562 -0.140625,0.1171875 -0.140625,0.1289063 -0.140625,0.1640625 0,0.058594 0.04687,0.1054688 0.105469,0.1054688 0.09375,0 0.996094,-0.6796875 1.582031,-1.94531254 0.503907,-1.1015625 0.632813,-2.20312496 0.632813,-3.04687496 z m 0,0"
         style="fill:#000000;fill-opacity:1;fill-rule:nonzero;stroke:none" />
    </g>
    <g
       id="g28"
       aria-label="t=0"
       transform="matrix(1.3333333,0,0,1.3333333,143.564,12.986667)">
      <path
         id="path29"
         d="m 2.0496563,-3.9831641 h 0.9375 c 0.1992187,0 0.3046875,0 0.3046875,-0.1992187 0,-0.1054688 -0.1054688,-0.1054688 -0.28125,-0.1054688 H 2.1316875 c 0.3632813,-1.4179687 0.4101563,-1.6171875 0.4101563,-1.6757812 0,-0.1757813 -0.1171875,-0.2695313 -0.2929688,-0.2695313 -0.023437,0 -0.3046875,0.011719 -0.3984375,0.3515625 l -0.3867187,1.59375 H 0.52621875 c -0.19921875,0 -0.29296875,0 -0.29296875,0.1875 0,0.1171875 0.0703125,0.1171875 0.26953125,0.1171875 H 1.3816875 c -0.71484375,2.8242188 -0.75,3.00000004 -0.75,3.17578129 0,0.5390625 0.375,0.9140625 0.9140625,0.9140625 1.0078125,0 1.5820313,-1.45312499 1.5820313,-1.53515629 0,-0.09375 -0.082031,-0.09375 -0.1171875,-0.09375 -0.09375,0 -0.1054688,0.023437 -0.1523438,0.140625 -0.4335937,1.03125004 -0.9609375,1.27734379 -1.3007812,1.27734379 -0.1992188,0 -0.3046875,-0.12890625 -0.3046875,-0.45703125 0,-0.24609375 0.023437,-0.31640625 0.058594,-0.48046874 z m 0,0"
         style="fill:#000000;fill-opacity:1;fill-rule:nonzero;stroke:none" />
      <path
         id="path30"
         d="m 13.208836,-3.2566016 c 0.152344,0 0.339844,0 0.339844,-0.1992187 0,-0.1992188 -0.1875,-0.1992188 -0.328125,-0.1992188 H 7.2557109 c -0.140625,0 -0.328125,0 -0.328125,0.1992188 0,0.1992187 0.1875,0.1992187 0.3398438,0.1992187 z m 0.01172,1.9335938 c 0.140625,0 0.328125,0 0.328125,-0.1992188 0,-0.1992187 -0.1875,-0.1992187 -0.339844,-0.1992187 H 7.2674297 c -0.1523438,0 -0.3398438,0 -0.3398438,0.1992187 0,0.1992188 0.1875,0.1992188 0.328125,0.1992188 z m 8.226562,-1.8632813 c 0,-0.796875 -0.04687,-1.59375 -0.398437,-2.3320312 -0.457032,-0.9609375 -1.277344,-1.1132813 -1.6875,-1.1132813 -0.597657,0 -1.335938,0.2578125 -1.734375,1.1835938 -0.328125,0.6914062 -0.375,1.4648437 -0.375,2.2617187 0,0.75 0.04687,1.640625 0.445312,2.40234379 0.433594,0.80859375 1.160156,1.0078125 1.652344,1.0078125 0.539062,0 1.289062,-0.2109375 1.734375,-1.16015625 0.316406,-0.69140624 0.363281,-1.46484374 0.363281,-2.25000004 z m -2.097656,3.18750004 c -0.386719,0 -0.984375,-0.24609375 -1.160156,-1.20703124 -0.105469,-0.5976563 -0.105469,-1.5117188 -0.105469,-2.0976563 0,-0.6445312 0,-1.3007812 0.08203,-1.8398437 0.1875,-1.1835938 0.925781,-1.265625 1.183594,-1.265625 0.328125,0 0.984375,0.1757812 1.171875,1.1601562 0.09375,0.5625 0.09375,1.3125 0.09375,1.9453125 0,0.75 0,1.4179688 -0.105469,2.0625 -0.152344,0.93750004 -0.714844,1.24218754 -1.160156,1.24218754 z m 0,0"
         style="fill:#000000;fill-opacity:1;fill-rule:nonzero;stroke:none" />
    </g>
  </g>
</svg>
