<?xml version="1.0" encoding="UTF-8" standalone="no"?>
<!-- Created with Inkscape (http://www.inkscape.org/) -->

<svg
   version="1.1"
   id="svg1"
   width="271.09332"
   height="136.62666"
   viewBox="0 0 271.09332 136.62666"
   sodipodi:docname="24-25-2-电路与电子学基础-期中-题图3.5.pdf"
   xmlns:inkscape="http://www.inkscape.org/namespaces/inkscape"
   xmlns:sodipodi="http://sodipodi.sourceforge.net/DTD/sodipodi-0.dtd"
   xmlns="http://www.w3.org/2000/svg"
   xmlns:svg="http://www.w3.org/2000/svg">
  <defs
     id="defs1" />
  <sodipodi:namedview
     id="namedview1"
     pagecolor="#ffffff"
     bordercolor="#000000"
     borderopacity="0.25"
     inkscape:showpageshadow="2"
     inkscape:pageopacity="0.0"
     inkscape:pagecheckerboard="0"
     inkscape:deskcolor="#d1d1d1">
    <inkscape:page
       x="0"
       y="0"
       inkscape:label="1"
       id="page1"
       width="271.09332"
       height="136.62666"
       margin="0"
       bleed="0" />
  </sodipodi:namedview>
  <g
     id="g1"
     inkscape:groupmode="layer"
     inkscape:label="1">
    <path
       id="path1"
       d="M 0,80.7181 V 52.26476 M 0,28.45332 V 0 h 31.88994 m 0,0 h 31.88995 77.9542 v 19.55931 m 0,31.7484 v 19.55932 l -28.34693,-1e-5 m 0,0 -28.34694,1e-5"
       style="fill:none;stroke:#000000;stroke-width:0.3985;stroke-linecap:butt;stroke-linejoin:miter;stroke-miterlimit:10;stroke-dasharray:none;stroke-opacity:1"
       transform="matrix(1.3333333,0,0,-1.3333333,55.168,134.24533)" />
    <path
       id="path2"
       d="m 11.90572,40.35904 c 0,6.57542 -5.33031,11.90572 -11.90572,11.90572 -6.57541,0 -11.90572,-5.3303 -11.90572,-11.90572 0,-6.57542 5.33031,-11.90572 11.90572,-11.90572 6.57541,0 11.90572,5.3303 11.90572,11.90572 z"
       style="fill:none;stroke:#000000;stroke-width:0.797;stroke-linecap:butt;stroke-linejoin:miter;stroke-miterlimit:10;stroke-dasharray:none;stroke-opacity:1"
       transform="matrix(1.3333333,0,0,-1.3333333,55.168,134.24533)" />
    <path
       id="path3"
       d="M 0,52.26476 V 28.45332"
       style="fill:none;stroke:#000000;stroke-width:0.797;stroke-linecap:butt;stroke-linejoin:miter;stroke-miterlimit:10;stroke-dasharray:none;stroke-opacity:1"
       transform="matrix(1.3333333,0,0,-1.3333333,55.168,134.24533)" />
    <path
       id="path4"
       d="M 4.0772813,-2.2966875 H 6.854625 c 0.140625,0 0.328125,0 0.328125,-0.1992188 0,-0.1992187 -0.1875,-0.1992187 -0.328125,-0.1992187 H 4.0772813 v -2.7890625 c 0,-0.1289063 0,-0.328125 -0.1992188,-0.328125 -0.1992187,0 -0.1992187,0.1992187 -0.1992187,0.328125 V -2.695125 H 0.88978125 c -0.140625,0 -0.328125,0 -0.328125,0.1992187 0,0.1992188 0.1875,0.1992188 0.328125,0.1992188 H 3.6788438 v 2.80078125 c 0,0.12890625 0,0.328125 0.1992187,0.328125 0.1992188,0 0.1992188,-0.19921875 0.1992188,-0.328125 z m 0,0"
       style="fill:#000000;fill-opacity:1;fill-rule:nonzero;stroke:none"
       aria-label="+"
       transform="matrix(1.3333333,0,0,1.3333333,29.048,71.656)" />
    <path
       id="path5"
       d="m 6.5616563,-2.2972031 c 0.1757812,0 0.3515625,0 0.3515625,-0.1992188 0,-0.1992187 -0.1757813,-0.1992187 -0.3515625,-0.1992187 h -5.390625 c -0.1640625,0 -0.3398438,0 -0.3398438,0.1992187 0,0.1992188 0.1757813,0.1992188 0.3398438,0.1992188 z m 0,0"
       style="fill:#000000;fill-opacity:1;fill-rule:nonzero;stroke:none"
       aria-label="−"
       transform="matrix(1.3333333,0,0,1.3333333,29.048,95.852)" />
    <g
       id="g5"
       aria-label="10V"
       transform="matrix(1.3333333,0,0,1.3333333,2.656,84.824)">
      <path
         id="path6"
         d="m 2.929875,-6.3748359 c 0,-0.234375 0,-0.2578125 -0.234375,-0.2578125 -0.609375,0.6328125 -1.4882813,0.6328125 -1.8046875,0.6328125 v 0.3164062 c 0.1992187,0 0.7851562,0 1.3007812,-0.2578125 v 5.15625001 c 0,0.3515625 -0.035156,0.48046875 -0.9257812,0.48046875 H 0.94940625 V 1.640625e-4 C 1.3009687,-0.03499219 2.1564375,-0.03499219 2.554875,-0.03499219 c 0.3984375,0 1.265625,0 1.6171875,0.0351562525 V -0.30452344 H 3.8556562 c -0.9023437,0 -0.9257812,-0.1171875 -0.9257812,-0.48046875 z m 6.6328125,3.1875 c 0,-0.796875 -0.046875,-1.59375 -0.3984375,-2.3320313 -0.4570313,-0.9609375 -1.2773438,-1.1132812 -1.6875,-1.1132812 -0.5976563,0 -1.3359375,0.2578125 -1.734375,1.1835937 -0.328125,0.6914063 -0.375,1.4648438 -0.375,2.2617188 0,0.75 0.046875,1.640625 0.4453125,2.40234371 0.4335937,0.80859375 1.1601562,1.0078125 1.6523437,1.0078125 0.5390625,0 1.2890625,-0.2109375 1.734375,-1.16015625 C 9.5158125,-1.6287422 9.5626875,-2.4021797 9.5626875,-3.1873359 Z M 7.4650312,1.640625e-4 c -0.3867187,0 -0.984375,-0.2460937525 -1.1601562,-1.2070312625 -0.1054688,-0.5976562 -0.1054688,-1.5117187 -0.1054688,-2.0976562 0,-0.6445313 0,-1.3007813 0.082031,-1.8398438 0.1875,-1.1835937 0.9257812,-1.265625 1.1835937,-1.265625 0.328125,0 0.984375,0.1757813 1.171875,1.1601563 0.09375,0.5625 0.09375,1.3125 0.09375,1.9453125 0,0.75 0,1.4179687 -0.1054687,2.0625 C 8.4728437,-0.30452344 7.9103437,1.640625e-4 7.4650312,1.640625e-4 Z m 0,0"
         style="fill:#000000;fill-opacity:1;fill-rule:nonzero;stroke:none" />
      <path
         id="path7"
         d="m 18.899602,-6.4920234 v -0.3164063 c -0.316407,0.023437 -0.714844,0.035156 -0.972657,0.035156 l -1.136718,-0.035156 v 0.3164063 c 0.515625,0.011719 0.726562,0.2695312 0.726562,0.4921875 0,0.082031 -0.02344,0.140625 -0.04687,0.1992187 l -1.828125,4.80468751 -1.898437,-5.02734371 c -0.05859,-0.140625 -0.05859,-0.1875 -0.05859,-0.1875 0,-0.28125 0.5625,-0.28125 0.820312,-0.28125 v -0.3164063 c -0.363281,0.035156 -1.054687,0.035156 -1.429687,0.035156 l -1.265625,-0.035156 v 0.3164063 c 0.644531,0 0.84375,0 0.972656,0.375 L 15.102727,1.640625e-4 C 15.173039,0.18766406 15.219914,0.22282031 15.34882,0.22282031 c 0.164063,0 0.1875,-0.0585938 0.234375,-0.1875 l 2.226563,-5.85937501 c 0.140625,-0.375 0.410156,-0.65625 1.089844,-0.6679687 z m 0,0"
         style="fill:#000000;fill-opacity:1;fill-rule:nonzero;stroke:none" />
    </g>
    <path
       id="path8"
       d="m 65.36703,0 c 0,0.87656 -0.71058,1.58714 -1.58714,1.58714 -0.87655,0 -1.58714,-0.71058 -1.58714,-1.58714 0,-0.87656 0.71059,-1.58714 1.58714,-1.58714 0.87656,0 1.58714,0.71058 1.58714,1.58714 z"
       style="fill:#000000;fill-opacity:1;fill-rule:nonzero;stroke:#000000;stroke-width:0.3985;stroke-linecap:butt;stroke-linejoin:miter;stroke-miterlimit:10;stroke-dasharray:none;stroke-opacity:1"
       transform="matrix(1.3333333,0,0,-1.3333333,55.168,134.24533)" />
    <path
       id="path9"
       d="m 141.89348,19.16081 c -3.28755,0 -5.95256,1.82137 -5.95256,4.06816 0,2.24681 2.66501,4.06818 5.95256,4.06818 -3.28755,0 -5.95256,1.82137 -5.95256,4.06818 0,2.24679 2.66501,4.06816 5.95256,4.06816 -3.28755,0 -5.95256,1.82136 -5.95256,4.06817 0,2.24681 2.66501,4.06818 5.95256,4.06818 -3.28755,0 -5.95256,1.82136 -5.95256,4.06816 0,2.24681 2.66501,4.06818 5.95256,4.06818"
       style="fill:none;stroke:#000000;stroke-width:0.797;stroke-linecap:butt;stroke-linejoin:bevel;stroke-miterlimit:10;stroke-dasharray:none;stroke-opacity:1"
       transform="matrix(1.3333333,0,0,-1.3333333,55.168,134.24533)" />
    <g
       id="g9"
       aria-label="1H"
       transform="matrix(1.3333333,0,0,1.3333333,214.45067,89.862667)">
      <path
         id="path10"
         d="m 2.9286016,-6.3745391 c 0,-0.234375 0,-0.2578125 -0.234375,-0.2578125 -0.609375,0.6328125 -1.4882813,0.6328125 -1.80468754,0.6328125 v 0.3164063 c 0.19921874,0 0.78515624,0 1.30078124,-0.2578125 v 5.15624999 c 0,0.3515625 -0.035156,0.48046875 -0.9257812,0.48046875 H 0.94813281 V 4.609375e-4 C 1.2996953,-0.03469531 2.1551641,-0.03469531 2.5536016,-0.03469531 c 0.3984375,0 1.265625,0 1.6171875,0.0351562475 V -0.30422656 H 3.8543828 c -0.9023437,0 -0.9257812,-0.1171875 -0.9257812,-0.48046875 z m 0,0"
         style="fill:#000000;fill-opacity:1;fill-rule:nonzero;stroke:none" />
      <path
         id="path11"
         d="M 13.780164,4.609375e-4 V -0.30422656 H 13.53407 c -0.761718,0 -0.785156,-0.1171875 -0.785156,-0.46875 V -6.0229766 c 0,-0.3632812 0.02344,-0.46875 0.785156,-0.46875 h 0.246094 v -0.3164062 c -0.351562,0.035156 -1.089844,0.035156 -1.464844,0.035156 -0.386718,0 -1.125,0 -1.476562,-0.035156 v 0.3164062 h 0.234375 c 0.773437,0 0.785156,0.1054688 0.785156,0.46875 v 2.3320313 H 8.8817266 v -2.3320313 c 0,-0.3632812 0.023437,-0.46875 0.7851562,-0.46875 h 0.2460938 v -0.3164062 c -0.3515625,0.035156 -1.0898438,0.035156 -1.4648438,0.035156 -0.375,0 -1.125,0 -1.4765625,-0.035156 v 0.3164062 h 0.234375 c 0.7734375,0 0.796875,0.1054688 0.796875,0.46875 v 5.25000004 c 0,0.3515625 -0.023437,0.46875 -0.796875,0.46875 H 6.9715703 V 4.609375e-4 C 7.3231328,-0.03469531 8.0614141,-0.03469531 8.4364141,-0.03469531 c 0.375,0 1.125,0 1.4765625,0.0351562475 V -0.30422656 H 9.6668828 c -0.7617187,0 -0.7851562,-0.1171875 -0.7851562,-0.46875 V -3.3862578 h 2.9765624 v 2.61328124 c 0,0.3515625 -0.01172,0.46875 -0.785156,0.46875 H 10.838758 V 4.609375e-4 C 11.19032,-0.03469531 11.928602,-0.03469531 12.303602,-0.03469531 c 0.375,0 1.125,0 1.476562,0.0351562475 z m 0,0"
         style="fill:#000000;fill-opacity:1;fill-rule:nonzero;stroke:none" />
    </g>
    <path
       id="path12"
       d="m 6.5617109,-2.295625 c 0.1757813,0 0.3515625,0 0.3515625,-0.1992188 0,-0.1992187 -0.1757812,-0.1992187 -0.3515625,-0.1992187 h -5.390625 c -0.1640625,0 -0.33984371,0 -0.33984371,0.1992187 0,0.1992188 0.17578121,0.1992188 0.33984371,0.1992188 z m 0,0"
       style="fill:#000000;fill-opacity:1;fill-rule:nonzero;stroke:none"
       aria-label="−"
       transform="matrix(1.3333333,0,0,1.3333333,255.48933,122.87333)" />
    <path
       id="path13"
       d="m 4.0773359,-2.2977266 h 2.7773438 c 0.140625,0 0.328125,0 0.328125,-0.1992187 0,-0.1992188 -0.1875,-0.1992188 -0.328125,-0.1992188 H 4.0773359 v -2.7890625 c 0,-0.1289062 0,-0.328125 -0.1992187,-0.328125 -0.1992188,0 -0.1992188,0.1992188 -0.1992188,0.328125 v 2.7890625 H 0.88983594 c -0.140625,0 -0.328125,0 -0.328125,0.1992188 0,0.1992187 0.1875,0.1992187 0.328125,0.1992187 H 3.6788984 v 2.80078129 c 0,0.12890625 0,0.328125 0.1992188,0.328125 0.1992187,0 0.1992187,-0.19921875 0.1992187,-0.328125 z m 0,0"
       style="fill:#000000;fill-opacity:1;fill-rule:nonzero;stroke:none"
       aria-label="+"
       transform="matrix(1.3333333,0,0,1.3333333,255.48933,57.770667)" />
    <g
       id="g13"
       aria-label="u&#10;L"
       transform="matrix(1.3333333,0,0,1.3333333,252.87733,88.864)">
      <path
         id="path14"
         d="m 3.4933672,-0.56303906 c 0.1054687,0.41015625 0.4570312,0.66796875 0.8789062,0.66796875 0.3515625,0 0.5742188,-0.22265625 0.7382813,-0.5390625 0.1757812,-0.36328125 0.3046875,-0.97265629 0.3046875,-0.99609379 0,-0.09375 -0.09375,-0.09375 -0.1289063,-0.09375 -0.09375,0 -0.1054687,0.035156 -0.140625,0.1757813 -0.1289062,0.56249999 -0.328125,1.24218749 -0.7382812,1.24218749 -0.2109375,0 -0.3164063,-0.12890625 -0.3164063,-0.45703125 0,-0.22265625 0.1289063,-0.69140624 0.1992188,-1.04296874 l 0.28125,-1.078125 c 0.035156,-0.140625 0.1289062,-0.5273438 0.1757812,-0.6679688 0.046875,-0.234375 0.140625,-0.609375 0.140625,-0.6679687 0,-0.1875 -0.140625,-0.2695313 -0.28125,-0.2695313 -0.058594,0 -0.3164062,0 -0.3867187,0.3398438 -0.1992188,0.7265625 -0.6328125,2.4726562 -0.75,2.99999999 -0.011719,0.046875 -0.4101563,0.84375 -1.1367188,0.84375 -0.515625,0 -0.6210937,-0.45703125 -0.6210937,-0.8203125 0,-0.56249999 0.28125,-1.34765629 0.5390625,-2.02734379 0.1171875,-0.3046875 0.1757812,-0.4453125 0.1757812,-0.6328125 0,-0.4453125 -0.328125,-0.8203125 -0.8203125,-0.8203125 -0.94921871,0 -1.31249996,1.453125 -1.31249996,1.5351563 0,0.1054687 0.09375,0.1054687 0.1171875,0.1054687 0.09375,0 0.10546875,-0.023437 0.15234375,-0.1875 0.2578125,-0.8671875 0.63281251,-1.2304687 1.00781251,-1.2304687 0.09375,0 0.2578125,0.011719 0.2578125,0.328125 0,0.234375 -0.1171875,0.5273437 -0.1757813,0.6796875 -0.3632812,0.984375 -0.5742187,1.6054687 -0.5742187,2.0859375 0,0.94921874 0.6796875,1.19531249 1.21875,1.19531249 0.65625,0 1.0195312,-0.4453125 1.1953125,-0.66796875 z m 0,0"
         style="fill:#000000;fill-opacity:1;fill-rule:nonzero;stroke:none" />
      <path
         id="path15"
         d="m 8.5734453,-2.7017109 c 0.058594,-0.2460938 0.082031,-0.3164063 0.7265625,-0.3164063 0.2109375,0 0.28125,0 0.28125,-0.1523437 0,-0.011719 0,-0.09375 -0.1171875,-0.09375 -0.1523437,0 -0.3398437,0.011719 -0.515625,0.011719 -0.1757812,0.011719 -0.375,0.011719 -0.5507812,0.011719 -0.1523438,0 -0.3398438,-0.011719 -0.4804688,-0.011719 -0.1523437,0 -0.3164062,-0.011719 -0.4570312,-0.011719 -0.046875,0 -0.1523438,0 -0.1523438,0.1523437 0,0.09375 0.09375,0.09375 0.2226563,0.09375 0.011719,0 0.140625,0 0.2695312,0.011719 0.1523438,0.011719 0.1640625,0.035156 0.1640625,0.1054687 0,0.011719 0,0.046875 -0.035156,0.1523438 L 7.0031328,0.95453906 C 6.9445391,1.1889141 6.9328203,1.2475078 6.3937578,1.2475078 c -0.1171875,0 -0.2109375,0 -0.2109375,0.140625 0,0.1054688 0.082031,0.1054688 0.2109375,0.1054688 h 3.5039063 c 0.1757809,0 0.1874999,-0.011719 0.2343749,-0.140625 0.07031,-0.1875 0.597656,-1.53515629 0.597656,-1.59375004 0,-0.0234375 -0.01172,-0.09375 -0.117187,-0.09375 -0.08203,0 -0.09375,0.0234375 -0.140625,0.140625 C 10.202352,0.47407031 9.8976641,1.2475078 8.6203203,1.2475078 H 7.8351641 c -0.2109375,0 -0.2226563,-0.011719 -0.2226563,-0.070312 0,-0.011719 0,-0.046875 0.023437,-0.1523437 z m 0,0"
         style="fill:#000000;fill-opacity:1;fill-rule:nonzero;stroke:none" />
    </g>
    <path
       id="path16"
       d="m 111.65094,70.86702 v -1.98425 l 4.21654,1.98425 -4.21654,1.98425 z"
       style="fill:#000000;fill-opacity:1;fill-rule:nonzero;stroke:#000000;stroke-width:0.3985;stroke-linecap:butt;stroke-linejoin:miter;stroke-miterlimit:10;stroke-dasharray:none;stroke-opacity:1"
       transform="matrix(1.3333333,0,0,-1.3333333,55.168,134.24533)" />
    <path
       id="path17"
       d="m 2.8240938,-6.2227812 c 0,-0.1992188 -0.1289063,-0.3632813 -0.3632813,-0.3632813 -0.2695312,0 -0.5390625,0.2578125 -0.5390625,0.5273438 0,0.1875 0.140625,0.3632812 0.375,0.3632812 0.234375,0 0.5273438,-0.234375 0.5273438,-0.5273437 z m -0.75,3.7382812 c 0.1171875,-0.28125 0.1171875,-0.3046875 0.2226562,-0.5742187 0.070312,-0.1992188 0.1289063,-0.3398438 0.1289063,-0.5273438 0,-0.4453125 -0.328125,-0.8203125 -0.8203125,-0.8203125 -0.93750005,0 -1.31250005,1.453125 -1.31250005,1.5351563 0,0.1054687 0.09375,0.1054687 0.1171875,0.1054687 0.09375,0 0.10546875,-0.023437 0.15234375,-0.1875 0.26953125,-0.9375 0.6679688,-1.2304687 1.0078125,-1.2304687 0.082031,0 0.2578125,0 0.2578125,0.3164062 0,0.2109375 -0.070312,0.421875 -0.1171875,0.515625 C 1.6287813,-3.093875 1.1834688,-1.9337187 1.031125,-1.500125 0.92565625,-1.2423125 0.79675,-0.9141875 0.79675,-0.70325 c 0,0.46875 0.3398438,0.80859375 0.8203125,0.80859375 0.9375,0 1.3007813,-1.44140625 1.3007813,-1.53515625 0,-0.09375 -0.09375,-0.09375 -0.1171875,-0.09375 -0.1054688,0 -0.1054688,0.023437 -0.1523438,0.1757813 -0.1757812,0.63281245 -0.5039062,1.24218745 -1.0195312,1.24218745 -0.1640625,0 -0.234375,-0.10546875 -0.234375,-0.328125 0,-0.2578125 0.058594,-0.3984375 0.2929687,-0.99609375 z m 0,0"
       style="fill:#000000;fill-opacity:1;fill-rule:nonzero;stroke:none"
       aria-label="i"
       transform="matrix(1.3333333,0,0,1.3333333,204.06267,35.062667)" />
    <path
       id="path18"
       d="M 83.45308,70.86703 65.62079,81.16249"
       style="fill:none;stroke:#000000;stroke-width:3.17429;stroke-linecap:round;stroke-linejoin:miter;stroke-miterlimit:10;stroke-dasharray:none;stroke-opacity:1"
       transform="matrix(1.3333333,0,0,-1.3333333,55.168,134.24533)" />
    <path
       id="path19"
       d="M 81.6652,81.00603 C 78.04333,80.36737 75.03635,77.84433 73.77844,74.38837 73.3087,73.09784 73.10555,71.73654 73.16893,70.38481"
       style="fill:none;stroke:#000000;stroke-width:0.797;stroke-linecap:butt;stroke-linejoin:miter;stroke-miterlimit:10;stroke-dasharray:none;stroke-opacity:1"
       transform="matrix(1.3333333,0,0,-1.3333333,55.168,134.24533)" />
    <path
       id="path20"
       d="m 3.1083,0 c -1.29513,0.25902 -3.62635,0.77707 -5.1805,1.94269 1.29513,-1.42464 1.29513,-2.46074 0,-3.88538 C -0.51805,-0.77707 1.81317,-0.25902 3.1083,0 Z"
       style="fill:#000000;fill-opacity:1;fill-rule:nonzero;stroke:none"
       transform="matrix(0.12953333,1.32696,1.32696,-0.12953333,153.13675,40.326227)" />
    <path
       id="path21"
       d="m 64.03365,60.5716 c 0,0.87655 0.71058,1.58714 1.58714,1.58714 0.87657,0 1.58714,-0.71059 1.58714,-1.58714 0,-0.87658 -0.71057,-1.58715 -1.58714,-1.58715 -0.87656,0 -1.58714,0.71057 -1.58714,1.58715 z"
       style="fill:#ffffff;fill-opacity:1;fill-rule:nonzero;stroke:#000000;stroke-width:0.3985;stroke-linecap:butt;stroke-linejoin:miter;stroke-miterlimit:10;stroke-dasharray:none;stroke-opacity:1"
       transform="matrix(1.3333333,0,0,-1.3333333,55.168,134.24533)" />
    <path
       id="path22"
       d="m 64.03365,81.16249 c 0,0.87656 0.71058,1.58714 1.58714,1.58714 0.87657,0 1.58714,-0.71058 1.58714,-1.58714 0,-0.87656 -0.71057,-1.58714 -1.58714,-1.58714 -0.87656,0 -1.58714,0.71058 -1.58714,1.58714 z"
       style="fill:#ffffff;fill-opacity:1;fill-rule:nonzero;stroke:#000000;stroke-width:0.3985;stroke-linecap:butt;stroke-linejoin:miter;stroke-miterlimit:10;stroke-dasharray:none;stroke-opacity:1"
       transform="matrix(1.3333333,0,0,-1.3333333,55.168,134.24533)" />
    <path
       id="path23"
       d="m 81.86594,70.86703 c 0,0.87657 0.71058,1.58717 1.58714,1.58717 0.87656,0 1.58714,-0.7106 1.58714,-1.58717 0,-0.87655 -0.71058,-1.58714 -1.58714,-1.58714 -0.87656,0 -1.58714,0.71059 -1.58714,1.58714 z"
       style="fill:#ffffff;fill-opacity:1;fill-rule:nonzero;stroke:#000000;stroke-width:0.3985;stroke-linecap:butt;stroke-linejoin:miter;stroke-miterlimit:10;stroke-dasharray:none;stroke-opacity:1"
       transform="matrix(1.3333333,0,0,-1.3333333,55.168,134.24533)" />
    <path
       id="path24"
       d="m 0,80.7181 16.1436,0.11222 m 31.74645,0.21991 16.1436,0.11226"
       style="fill:none;stroke:#000000;stroke-width:0.3985;stroke-linecap:butt;stroke-linejoin:miter;stroke-miterlimit:10;stroke-dasharray:none;stroke-opacity:1"
       transform="matrix(1.3333333,0,0,-1.3333333,55.168,134.24533)" />
    <path
       id="path25"
       d="M 47.93127,75.09775 16.18483,74.87784 16.10237,86.7828 47.84882,87.00273 Z"
       style="fill:none;stroke:#000000;stroke-width:0.797;stroke-linecap:butt;stroke-linejoin:miter;stroke-miterlimit:10;stroke-dasharray:none;stroke-opacity:1"
       transform="matrix(1.3333333,0,0,-1.3333333,55.168,134.24533)" />
    <path
       id="path26"
       d="m 2.9284219,-6.3744141 c 0,-0.234375 0,-0.2578125 -0.234375,-0.2578125 -0.609375,0.6328125 -1.4882813,0.6328125 -1.80468753,0.6328125 v 0.3164063 c 0.19921873,0 0.78515623,0 1.30078123,-0.2578125 v 5.15624999 c 0,0.3515625 -0.035156,0.48046875 -0.9257812,0.48046875 H 0.94795312 V 5.859375e-4 C 1.2995156,-0.03457031 2.1549844,-0.03457031 2.5534219,-0.03457031 c 0.3984375,0 1.265625,0 1.6171875,0.0351562475 V -0.30410156 H 3.8542031 c -0.9023437,0 -0.9257812,-0.1171875 -0.9257812,-0.48046875 z m 10.4443361,4.7578125 h -0.246094 c -0.04687,0.2578125 -0.08203,0.4921875 -0.175781,0.72656254 -0.04687,0.1640625 -0.08203,0.24609375 -0.65625,0.24609375 h -0.796875 c 0.128906,-0.56249999 0.433594,-1.04296879 0.878906,-1.69921879 0.46875,-0.703125 0.878906,-1.3945312 0.878906,-2.1796875 0,-1.3828125 -1.335937,-2.4960937 -3.023437,-2.4960937 -1.7109377,0 -3.0351564,1.1367187 -3.0351564,2.4960937 0,0.7851563 0.3984375,1.4765625 0.8671875,2.1796875 0.4453125,0.65625 0.7617187,1.1367188 0.890625,1.69921879 h -0.796875 c -0.5742188,0 -0.609375,-0.0820313 -0.65625,-0.234375 C 7.4196328,-1.1009766 7.3727578,-1.3587891 7.3258828,-1.6166016 H 7.0680703 l 0.328125,1.6171875375 h 1.59375 c 0.2226563,0 0.2578125,0 0.2578125,-0.2109374975 0,-0.69140625 -0.3164062,-1.57031254 -0.5390625,-2.21484374 -0.2109375,-0.5742188 -0.4921875,-1.359375 -0.4921875,-2.109375 0,-1.59375 1.1015625,-2.2734375 2.0039062,-2.2734375 0.960938,0 2.015625,0.7265625 2.015625,2.2734375 0,0.75 -0.269531,1.5117187 -0.5625,2.3203125 -0.152344,0.421875 -0.46875,1.31249999 -0.46875,2.00390624 0,0.2109374975 0.03516,0.2109374975 0.257813,0.2109374975 h 1.582031 z m 0,0"
       style="fill:#000000;fill-opacity:1;fill-rule:nonzero;stroke:none"
       aria-label="1Ω"
       transform="matrix(1.3333333,0,0,1.3333333,88.572,13.3)" />
    <path
       id="path27"
       d="M 4.1727969,-4.6875e-5 V -0.30473438 H 3.8563906 c -0.9023437,0 -0.9257812,-0.1171875 -0.9257812,-0.48046875 V -6.3750469 c 0,-0.234375 0,-0.2578125 -0.234375,-0.2578125 -0.609375,0.6328125 -1.4882813,0.6328125 -1.80468753,0.6328125 v 0.3164063 c 0.19921873,0 0.78515623,0 1.30078123,-0.2578125 v 5.15624997 c 0,0.3515625 -0.035156,0.48046875 -0.9257812,0.48046875 H 0.95014062 V -4.6875e-5 C 1.3017031,-0.03520313 2.1571719,-0.03520313 2.5556094,-0.03520313 c 0.3984375,0 1.265625,0 1.6171875,0.035156255 z m 0,0"
       style="fill:#000000;fill-opacity:1;fill-rule:nonzero;stroke:none"
       aria-label="1"
       transform="matrix(1.3333333,0,0,1.3333333,137.22533,21.336)" />
    <path
       id="path28"
       d="m 63.77989,0 0.06076,14.41232 m 0.13224,31.74694 0.06076,14.41234"
       style="fill:none;stroke:#000000;stroke-width:0.3985;stroke-linecap:butt;stroke-linejoin:miter;stroke-miterlimit:10;stroke-dasharray:none;stroke-opacity:1"
       transform="matrix(1.3333333,0,0,-1.3333333,55.168,134.24533)" />
    <path
       id="path29"
       d="M 69.92546,46.13446 69.79323,14.38753 57.88808,14.43712 58.02031,46.18404 Z"
       style="fill:none;stroke:#000000;stroke-width:0.797;stroke-linecap:butt;stroke-linejoin:miter;stroke-miterlimit:10;stroke-dasharray:none;stroke-opacity:1"
       transform="matrix(1.3333333,0,0,-1.3333333,55.168,134.24533)" />
    <path
       id="path30"
       d="m 2.9297734,-1.6400703 v 0.86718749 c 0,0.3515625 -0.023437,0.46875 -0.7617187,0.46875 H 1.9571172 V 5.546875e-4 C 2.3672734,-0.03460156 2.8946172,-0.03460156 3.3047734,-0.03460156 c 0.421875,0 0.9492188,0 1.359375,0.0351562475 V -0.30413281 H 4.4532109 c -0.7382812,0 -0.7617187,-0.1171875 -0.7617187,-0.46875 V -1.6400703 H 4.6875859 V -1.9564766 H 3.6914922 v -4.5234375 c 0,-0.1992187 0,-0.2578125 -0.1523438,-0.2578125 -0.09375,0 -0.1171875,0 -0.1992187,0.1171875 l -3.05859376,4.6640625 v 0.3164063 z m 0.058594,-0.3164063 H 0.56258594 L 2.9883672,-5.6713203 Z m 10.3857416,0.3398438 h -0.246093 c -0.04687,0.2578125 -0.08203,0.4921875 -0.175782,0.72656249 -0.04687,0.1640625 -0.08203,0.24609375 -0.65625,0.24609375 h -0.796875 c 0.128907,-0.56250004 0.433594,-1.04296874 0.878907,-1.69921874 0.46875,-0.703125 0.878906,-1.3945313 0.878906,-2.1796875 0,-1.3828125 -1.335938,-2.4960938 -3.023438,-2.4960938 -1.7109369,0 -3.0351557,1.1367188 -3.0351557,2.4960938 0,0.7851562 0.3984375,1.4765625 0.8671875,2.1796875 0.4453125,0.65625 0.7617188,1.1367187 0.890625,1.69921874 h -0.796875 c -0.5742187,0 -0.609375,-0.0820313 -0.65625,-0.234375 C 7.4209844,-1.1010078 7.3741094,-1.3588203 7.3272344,-1.6166328 H 7.0694219 l 0.328125,1.6171874875 h 1.59375 c 0.2226562,0 0.2578125,0 0.2578125,-0.2109374975 0,-0.69140625 -0.3164063,-1.57031249 -0.5390625,-2.21484379 -0.2109375,-0.5742187 -0.4921875,-1.359375 -0.4921875,-2.109375 0,-1.59375 1.1015625,-2.2734375 2.0039066,-2.2734375 0.960937,0 2.015625,0.7265625 2.015625,2.2734375 0,0.75 -0.269532,1.5117188 -0.5625,2.3203125 -0.152344,0.421875 -0.46875,1.31250004 -0.46875,2.00390629 0,0.2109374975 0.03516,0.2109374975 0.257812,0.2109374975 h 1.582031 z m 0,0"
       style="fill:#000000;fill-opacity:1;fill-rule:nonzero;stroke:none"
       aria-label="4Ω"
       transform="matrix(1.3333333,0,0,1.3333333,111.05067,96.690667)" />
    <path
       id="path31"
       d="M 4.4767656,-1.7346875 H 4.2189531 C 4.1720781,-1.43 4.1017656,-0.99640625 4.0080156,-0.8440625 3.9377026,-0.7620312 3.2814531,-0.7620312 3.0587969,-0.7620312 H 1.2658281 l 1.0546875,-1.0312501 c 1.5585938,-1.3710937 2.15625,-1.9101562 2.15625,-2.90625 0,-1.1367187 -0.9023437,-1.9335937 -2.1210937,-1.9335937 -1.125,0 -1.85156253,0.9140625 -1.85156253,1.8046875 0,0.5507812 0.4921875,0.5507812 0.52734373,0.5507812 0.1640625,0 0.515625,-0.1171875 0.515625,-0.5273437 0,-0.2578125 -0.1875,-0.515625 -0.5273437,-0.515625 -0.0820313,0 -0.10546878,0 -0.12890628,0.011719 0.22265628,-0.6445312 0.76171878,-1.0195312 1.33593748,-1.0195312 0.9140625,0 1.3359375,0.8085937 1.3359375,1.6289062 0,0.796875 -0.4921875,1.5820313 -1.0429687,2.203125 L 0.60957812,-0.36359375 C 0.50410937,-0.258125 0.50410937,-0.2346875 0.50410937,-3.125e-4 H 4.1955156 Z m 0,0"
       style="fill:#000000;fill-opacity:1;fill-rule:nonzero;stroke:none"
       aria-label="2"
       transform="matrix(1.3333333,0,0,1.3333333,129.21067,57.906667)" />
  </g>
</svg>
