<?xml version="1.0" encoding="UTF-8" standalone="no"?>
<!-- Created with Inkscape (http://www.inkscape.org/) -->

<svg
   version="1.1"
   id="svg1"
   width="129.56"
   height="132.81332"
   viewBox="0 0 129.56 132.81332"
   sodipodi:docname="24-25-2-电路与电子学基础-期中-题图4.pdf"
   xmlns:inkscape="http://www.inkscape.org/namespaces/inkscape"
   xmlns:sodipodi="http://sodipodi.sourceforge.net/DTD/sodipodi-0.dtd"
   xmlns="http://www.w3.org/2000/svg"
   xmlns:svg="http://www.w3.org/2000/svg">
  <defs
     id="defs1" />
  <sodipodi:namedview
     id="namedview1"
     pagecolor="#ffffff"
     bordercolor="#000000"
     borderopacity="0.25"
     inkscape:showpageshadow="2"
     inkscape:pageopacity="0.0"
     inkscape:pagecheckerboard="0"
     inkscape:deskcolor="#d1d1d1">
    <inkscape:page
       x="0"
       y="0"
       inkscape:label="1"
       id="page1"
       width="129.56"
       height="132.81332"
       margin="0"
       bleed="0" />
  </sodipodi:namedview>
  <g
     id="g1"
     inkscape:groupmode="layer"
     inkscape:label="1">
    <path
       id="path1"
       d="M 35.4335,0 H 0 m 0,70.86703 17.71674,-1e-5 m 0,0 17.71676,1e-5"
       style="fill:none;stroke:#000000;stroke-width:0.3985;stroke-linecap:butt;stroke-linejoin:miter;stroke-miterlimit:10;stroke-dasharray:none;stroke-opacity:1"
       transform="matrix(1.3333333,0,0,-1.3333333,6.4586667,113.64933)" />
    <path
       id="path2"
       d="M 1.58714,0 C 1.58714,0.87656 0.87656,1.58714 0,1.58714 -0.87656,1.58714 -1.58714,0.87656 -1.58714,0 c 0,-0.87656 0.71058,-1.58714 1.58714,-1.58714 0.87656,0 1.58714,0.71058 1.58714,1.58714 z"
       style="fill:#ffffff;fill-opacity:1;fill-rule:nonzero;stroke:#000000;stroke-width:0.3985;stroke-linecap:butt;stroke-linejoin:miter;stroke-miterlimit:10;stroke-dasharray:none;stroke-opacity:1"
       transform="matrix(1.3333333,0,0,-1.3333333,6.4586667,113.64933)" />
    <path
       id="path3"
       d="m 1.58714,70.86703 c 0,0.87657 -0.71058,1.58717 -1.58714,1.58717 -0.87656,0 -1.58714,-0.7106 -1.58714,-1.58717 0,-0.87655 0.71058,-1.58714 1.58714,-1.58714 0.87656,0 1.58714,0.71059 1.58714,1.58714 z"
       style="fill:#ffffff;fill-opacity:1;fill-rule:nonzero;stroke:#000000;stroke-width:0.3985;stroke-linecap:butt;stroke-linejoin:miter;stroke-miterlimit:10;stroke-dasharray:none;stroke-opacity:1"
       transform="matrix(1.3333333,0,0,-1.3333333,6.4586667,113.64933)" />
    <path
       id="path4"
       d="m 6.5622266,-2.2964141 c 0.1757812,0 0.3515625,0 0.3515625,-0.1992187 0,-0.1992188 -0.1757813,-0.1992188 -0.3515625,-0.1992188 h -5.390625 c -0.1640625,0 -0.33984379,0 -0.33984379,0.1992188 0,0.1992187 0.17578129,0.1992187 0.33984379,0.1992187 z m 0,0"
       style="fill:#000000;fill-opacity:1;fill-rule:nonzero;stroke:none"
       aria-label="−"
       transform="matrix(1.3333333,0,0,1.3333333,1.2933333,102.86267)" />
    <path
       id="path5"
       d="m 4.0778516,-2.2954922 h 2.7773437 c 0.140625,0 0.328125,0 0.328125,-0.1992187 0,-0.1992188 -0.1875,-0.1992188 -0.328125,-0.1992188 H 4.0778516 v -2.7890625 c 0,-0.1289062 0,-0.328125 -0.1992188,-0.328125 -0.1992187,0 -0.1992187,0.1992188 -0.1992187,0.328125 v 2.7890625 H 0.89035156 c -0.140625,0 -0.328125,0 -0.328125,0.1992188 0,0.1992187 0.1875,0.1992187 0.328125,0.1992187 H 3.6794141 v 2.80078126 c 0,0.12890625 0,0.328125 0.1992187,0.328125 0.1992188,0 0.1992188,-0.19921875 0.1992188,-0.328125 z m 0,0"
       style="fill:#000000;fill-opacity:1;fill-rule:nonzero;stroke:none"
       aria-label="+"
       transform="matrix(1.3333333,0,0,1.3333333,1.2933333,36.588)" />
    <path
       id="path6"
       d="M 3.492375,-0.56128125 C 3.5978437,-0.151125 3.9494062,0.1066875 4.3712812,0.1066875 c 0.3515625,0 0.5742188,-0.22265625 0.7382813,-0.5390625 0.1757812,-0.36328125 0.3046875,-0.9726562 0.3046875,-0.9960937 0,-0.09375 -0.09375,-0.09375 -0.1289063,-0.09375 -0.09375,0 -0.1054687,0.035156 -0.140625,0.1757812 -0.1289062,0.5625 -0.328125,1.2421875 -0.7382812,1.2421875 -0.2109375,0 -0.3164063,-0.12890625 -0.3164063,-0.45703125 0,-0.22265625 0.1289063,-0.69140625 0.1992188,-1.04296875 L 4.5705,-2.682375 C 4.605656,-2.823 4.6994062,-3.2097187 4.7462812,-3.3503437 c 0.046875,-0.234375 0.140625,-0.609375 0.140625,-0.6679688 0,-0.1875 -0.140625,-0.2695312 -0.28125,-0.2695312 -0.058594,0 -0.3164062,0 -0.3867187,0.3398437 -0.1992188,0.7265625 -0.6328125,2.4726563 -0.75,3 -0.011719,0.046875 -0.4101563,0.84375 -1.1367188,0.84375 -0.515625,0 -0.6210937,-0.45703125 -0.6210937,-0.8203125 0,-0.5625 0.28125,-1.3476562 0.5390625,-2.0273437 0.1171875,-0.3046875 0.1757812,-0.4453125 0.1757812,-0.6328125 0,-0.4453125 -0.328125,-0.8203125 -0.8203125,-0.8203125 -0.9492187,0 -1.31249995,1.453125 -1.31249995,1.5351562 0,0.1054688 0.09375,0.1054688 0.1171875,0.1054688 0.09375,0 0.10546875,-0.023437 0.15234375,-0.1875 C 0.8205,-3.8190937 1.1955,-4.182375 1.5705,-4.182375 c 0.09375,0 0.2578125,0.011719 0.2578125,0.328125 0,0.234375 -0.1171875,0.5273438 -0.1757813,0.6796875 -0.3632812,0.984375 -0.5742187,1.6054688 -0.5742187,2.0859375 0,0.94921875 0.6796875,1.1953125 1.21875,1.1953125 0.65625,0 1.0195312,-0.4453125 1.1953125,-0.66796875 z m 0,0"
       style="fill:#000000;fill-opacity:1;fill-rule:nonzero;stroke:none"
       aria-label="u"
       transform="matrix(1.3333333,0,0,1.3333333,2.656,69.264)" />
    <path
       id="path7"
       d="m 15.98053,70.86702 v -1.98425 l 4.21654,1.98425 -4.21654,1.98425 z"
       style="fill:#000000;fill-opacity:1;fill-rule:nonzero;stroke:#000000;stroke-width:0.3985;stroke-linecap:butt;stroke-linejoin:miter;stroke-miterlimit:10;stroke-dasharray:none;stroke-opacity:1"
       transform="matrix(1.3333333,0,0,-1.3333333,6.4586667,113.64933)" />
    <path
       id="path8"
       d="m 2.8239453,-6.2226953 c 0,-0.1992188 -0.1289062,-0.3632813 -0.3632812,-0.3632813 -0.2695313,0 -0.5390625,0.2578125 -0.5390625,0.5273438 0,0.1875 0.140625,0.3632812 0.375,0.3632812 0.234375,0 0.5273437,-0.234375 0.5273437,-0.5273437 z m -0.75,3.7382812 c 0.1171875,-0.28125 0.1171875,-0.3046875 0.2226563,-0.5742187 0.070312,-0.1992188 0.1289062,-0.3398438 0.1289062,-0.5273438 0,-0.4453125 -0.328125,-0.8203125 -0.8203125,-0.8203125 -0.93749999,0 -1.31249999,1.453125 -1.31249999,1.5351563 0,0.1054687 0.09375,0.1054687 0.1171875,0.1054687 0.09375,0 0.10546875,-0.023437 0.15234375,-0.1875 0.26953125,-0.9375 0.66796874,-1.2304687 1.00781254,-1.2304687 0.082031,0 0.2578125,0 0.2578125,0.3164062 0,0.2109375 -0.070312,0.421875 -0.1171875,0.515625 -0.082031,0.2578125 -0.5273438,1.4179688 -0.6796875,1.8515625 -0.10546879,0.2578125 -0.23437504,0.58593754 -0.23437504,0.79687504 0,0.46875 0.33984374,0.80859375 0.82031254,0.80859375 0.9375,0 1.3007812,-1.44140629 1.3007812,-1.53515629 0,-0.09375 -0.09375,-0.09375 -0.1171875,-0.09375 -0.1054687,0 -0.1054687,0.023437 -0.1523437,0.1757813 -0.1757813,0.63281249 -0.5039063,1.24218749 -1.0195313,1.24218749 -0.1640625,0 -0.234375,-0.10546875 -0.234375,-0.328125 0,-0.2578125 0.058594,-0.3984375 0.2929688,-0.99609379 z m 0,0"
       style="fill:#000000;fill-opacity:1;fill-rule:nonzero;stroke:none"
       aria-label="i"
       transform="matrix(1.3333333,0,0,1.3333333,27.793333,32.613333)" />
    <path
       id="path9"
       d="M 35.4335,-14.17317 V 85.04022 H 92.12735 V -14.17317 Z"
       style="fill:none;stroke:#000000;stroke-width:0.3985;stroke-linecap:butt;stroke-linejoin:miter;stroke-miterlimit:10;stroke-dasharray:none;stroke-opacity:1"
       transform="matrix(1.3333333,0,0,-1.3333333,6.4586667,113.64933)" />
    <path
       id="path10"
       d="m 7.1354375,-6.4921328 v -0.3164063 l -1.171875,0.035156 -1.1601563,-0.035156 v 0.3164063 c 1.0195313,0 1.0195313,0.46875 1.0195313,0.7382812 v 4.2539063 l -3.515625,-5.1796875 c -0.082031,-0.1171875 -0.09375,-0.1289063 -0.28125,-0.1289063 H 0.32684375 v 0.3164063 H 0.6198125 c 0.140625,0 0.33984375,0.011719 0.4921875,0.011719 0.234375,0.035156 0.2460937,0.046875 0.2460937,0.234375 v 5.203125 c 0,0.26953129 0,0.73828129 -1.03124995,0.73828129 V 5.46875e-5 L 1.4987187,-0.03510156 2.658875,5.46875e-5 V -0.30463281 c -1.03125,0 -1.03125,-0.46875 -1.03125,-0.73828129 v -5.1796875 c 0.058594,0.046875 0.070312,0.058594 0.1054687,0.1171875 L 5.7995,-0.12885156 c 0.082031,0.1171875 0.09375,0.1289062475 0.1640625,0.1289062475 0.140625,0 0.140625,-0.0703124975 0.140625,-0.2578124975 V -5.7538516 c 0,-0.2695312 0,-0.7382812 1.03125,-0.7382812 z m 0,0"
       style="fill:#000000;fill-opacity:1;fill-rule:nonzero;stroke:none"
       aria-label="N"
       transform="matrix(1.3333333,0,0,1.3333333,86.517333,70.941333)" />
  </g>
</svg>
