<?xml version="1.0" encoding="UTF-8" standalone="no"?>
<!-- Created with Inkscape (http://www.inkscape.org/) -->

<svg
   version="1.1"
   id="svg1"
   width="123.26667"
   height="170.61333"
   viewBox="0 0 123.26667 170.61333"
   sodipodi:docname="24-25-2-大学物理D-期末-题图1.8.pdf"
   xmlns:inkscape="http://www.inkscape.org/namespaces/inkscape"
   xmlns:sodipodi="http://sodipodi.sourceforge.net/DTD/sodipodi-0.dtd"
   xmlns="http://www.w3.org/2000/svg"
   xmlns:svg="http://www.w3.org/2000/svg">
  <defs
     id="defs1" />
  <sodipodi:namedview
     id="namedview1"
     pagecolor="#ffffff"
     bordercolor="#111111"
     borderopacity="1"
     inkscape:showpageshadow="0"
     inkscape:pageopacity="0"
     inkscape:pagecheckerboard="1"
     inkscape:deskcolor="#d1d1d1">
    <inkscape:page
       x="0"
       y="0"
       inkscape:label="1"
       id="page1"
       width="123.26667"
       height="170.61333"
       margin="0"
       bleed="0" />
  </sodipodi:namedview>
  <g
     id="g1"
     inkscape:groupmode="layer"
     inkscape:label="1">
    <path
       id="path1"
       d="M 0,0 V 127.56065 H 42.52022 V 0 Z"
       style="fill:none;stroke:#000000;stroke-width:0.3985;stroke-linecap:butt;stroke-linejoin:miter;stroke-miterlimit:10;stroke-dasharray:none;stroke-opacity:1"
       transform="matrix(1.3333333,0,0,-1.3333333,0.26533333,170.34667)" />
    <path
       id="path2"
       d="M 0.3985,63.78032 H 42.1217"
       style="fill:none;stroke:#000000;stroke-width:0.3985;stroke-linecap:butt;stroke-linejoin:miter;stroke-miterlimit:10;stroke-dasharray:none;stroke-opacity:1"
       transform="matrix(1.3333333,0,0,-1.3333333,0.26533333,170.34667)" />
    <path
       id="path3"
       d="M -2.07224,2.39104 C -1.69365,0.95639 -0.84999,0.27895 0,0 -0.84999,-0.27895 -1.69365,-0.95639 -2.07224,-2.39104"
       style="fill:none;stroke:#000000;stroke-width:0.3985;stroke-linecap:round;stroke-linejoin:round;stroke-miterlimit:10;stroke-dasharray:none;stroke-opacity:1"
       transform="matrix(-1.3333333,0,0,1.3333333,0.531,85.30624)" />
    <path
       id="path4"
       d="M -2.07224,2.39104 C -1.69365,0.95639 -0.84999,0.27895 0,0 -0.84999,-0.27895 -1.69365,-0.95639 -2.07224,-2.39104"
       style="fill:none;stroke:#000000;stroke-width:0.3985;stroke-linecap:round;stroke-linejoin:round;stroke-miterlimit:10;stroke-dasharray:none;stroke-opacity:1"
       transform="matrix(1.3333333,0,0,-1.3333333,56.693293,85.30624)" />
    <path
       id="path5"
       d="m 3.7150156,-3.7617578 c -0.1757812,-0.375 -0.46875,-0.6445313 -0.9140625,-0.6445313 -1.171875,0 -2.40234372,1.4648438 -2.40234372,2.9179688 0,0.93749999 0.55078125,1.59374999 1.32421872,1.59374999 0.1992188,0 0.703125,-0.03515625 1.3007813,-0.73828125 0.070312,0.41015625 0.421875,0.73828125 0.9023437,0.73828125 0.3515625,0 0.5742188,-0.22265625 0.7382813,-0.5390625 0.1640625,-0.36328125 0.2929687,-0.97265629 0.2929687,-0.99609379 0,-0.09375 -0.082031,-0.09375 -0.1171875,-0.09375 -0.09375,0 -0.1054687,0.035156 -0.140625,0.1757813 -0.1640625,0.64453124 -0.3515625,1.24218749 -0.75,1.24218749 -0.2695312,0 -0.3046875,-0.2578125 -0.3046875,-0.45703125 0,-0.22265625 0.023437,-0.3046875 0.1289063,-0.73828124 0.1171875,-0.421875 0.1289062,-0.5273438 0.2226562,-0.9023438 l 0.3515625,-1.3945312 c 0.070312,-0.28125 0.070312,-0.2929688 0.070312,-0.3398438 0,-0.1640625 -0.1171875,-0.2695312 -0.28125,-0.2695312 -0.2460937,0 -0.3867187,0.2226562 -0.4218745,0.4453125 z m -0.6445312,2.578125 c -0.046875,0.1757812 -0.046875,0.19921874 -0.1992188,0.36328124 -0.4453125,0.55078125 -0.84375,0.71484375 -1.125,0.71484375 -0.5039062,0 -0.6445312,-0.55078125 -0.6445312,-0.93749999 0,-0.5039063 0.328125,-1.7226563 0.5507812,-2.1796875 0.3046875,-0.5976563 0.7617188,-0.9609375 1.1601563,-0.9609375 0.6445312,0 0.7851562,0.8203125 0.7851562,0.8789062 0,0.058594 -0.023437,0.1171875 -0.035156,0.1640625 z m 0,0"
       style="fill:#000000;fill-opacity:1;fill-rule:nonzero;stroke:none"
       aria-label="a"
       transform="matrix(1.3333333,0,0,1.3333333,25.101333,80.613333)" />
    <path
       id="path6"
       d="m 21.2601,85.04044 v 20.8616"
       style="fill:none;stroke:#000000;stroke-width:0.3985;stroke-linecap:butt;stroke-linejoin:miter;stroke-miterlimit:10;stroke-dasharray:none;stroke-opacity:1"
       transform="matrix(1.3333333,0,0,-1.3333333,0.26533333,170.34667)" />
    <path
       id="path7"
       d="M -2.07224,2.39104 C -1.69365,0.95639 -0.84999,0.27895 0,0 -0.84999,-0.27895 -1.69365,-0.95639 -2.07224,-2.39104"
       style="fill:none;stroke:#000000;stroke-width:0.3985;stroke-linecap:round;stroke-linejoin:round;stroke-miterlimit:10;stroke-dasharray:none;stroke-opacity:1"
       transform="matrix(0,-1.3333333,-1.3333333,0,28.612133,28.87828)" />
    <path
       id="path8"
       d="m 3.7260781,-6.0349922 c 0.09375,-0.3632812 0.1171875,-0.4570312 0.9023438,-0.4570312 0.2460937,0 0.3164062,0 0.3164062,-0.1875 0,-0.1289063 -0.1054687,-0.1289063 -0.140625,-0.1289063 -0.2929687,0 -1.03125,0.035156 -1.3125,0.035156 -0.3046875,0 -1.03125,-0.035156 -1.3359375,-0.035156 -0.058594,0 -0.1992187,0 -0.1992187,0.1992188 0,0.1171875 0.09375,0.1171875 0.28125,0.1171875 0.421875,0 0.6914062,0 0.6914062,0.1875 0,0.046875 0,0.070312 -0.023437,0.1640625 l -1.3476562,5.36718746 c -0.082031,0.36328125 -0.1171875,0.46875 -0.90234377,0.46875 -0.22265625,0 -0.31640625,0 -0.31640625,0.19921875 0,0.1054687525 0.1171875,0.1054687525 0.15234375,0.1054687525 0.28125,0 1.00781247,-0.0351562525 1.30078127,-0.0351562525 0.3046875,0 1.03125,0.0351562525 1.3359375,0.0351562525 0.082031,0 0.1992187,0 0.1992187,-0.1875000025 0,-0.1171875 -0.082031,-0.1171875 -0.3046875,-0.1171875 -0.1757812,0 -0.2226562,0 -0.421875,-0.0234375 -0.2109375,-0.0234375 -0.2460937,-0.0585938 -0.2460937,-0.17578125 0,-0.0703125 0.011719,-0.15234375 0.035156,-0.22265625 z m 0,0"
       style="fill:#000000;fill-opacity:1;fill-rule:nonzero;stroke:none"
       aria-label="I"
       transform="matrix(1.3333333,0,0,1.3333333,33.305333,47.324)" />
    <path
       id="path9"
       d="m 42.52022,63.78032 h 42.52022 m 0.42496,0 c 0,0.23468 -0.19027,0.42496 -0.42496,0.42496 -0.23468,0 -0.42496,-0.19028 -0.42496,-0.42496 0,-0.2347 0.19028,-0.42496 0.42496,-0.42496 0.23469,0 0.42496,0.19026 0.42496,0.42496 z"
       style="fill:#000000;fill-opacity:1;fill-rule:nonzero;stroke:#000000;stroke-width:0.3985;stroke-linecap:butt;stroke-linejoin:miter;stroke-miterlimit:10;stroke-dasharray:none;stroke-opacity:1"
       transform="matrix(1.3333333,0,0,-1.3333333,0.26533333,170.34667)" />
    <path
       id="path10"
       d="m 2.37775,-6.8086328 c 0,0 0,-0.1054688 -0.1289063,-0.1054688 -0.2226562,0 -0.9492187,0.082031 -1.21875,0.1054688 -0.0703124,0 -0.18749995,0.011719 -0.18749995,0.1992187 0,0.1171875 0.09375,0.1171875 0.24609375,0.1171875 0.46875,0 0.4921875,0.070312 0.4921875,0.1640625 0,0.070312 -0.082031,0.4101563 -0.140625,0.6210938 l -0.80859375,3.2460937 c -0.12890625,0.5039063 -0.1640625,0.65625 -0.1640625,1.0078125 0,0.94921879 0.52734375,1.55859379 1.26562495,1.55859379 1.171875,0 2.4023438,-1.47656249 2.4023438,-2.91796879 0,-0.9023437 -0.5273438,-1.59375 -1.3242188,-1.59375 -0.4570312,0 -0.8671875,0.2929688 -1.171875,0.5976563 z m -0.9375,3.7734375 c 0.058594,-0.2226563 0.058594,-0.2460938 0.1523437,-0.3515625 0.4921875,-0.6445313 0.9375,-0.796875 1.1953125,-0.796875 0.3632813,0 0.6328125,0.2929687 0.6328125,0.9375 0,0.5859375 -0.328125,1.734375 -0.515625,2.109375 -0.328125,0.66796874 -0.7851562,1.03124999 -1.171875,1.03124999 -0.3398437,0 -0.6679687,-0.26953125 -0.6679687,-1.00781249 0,-0.1875 0,-0.3867188 0.1640625,-1.0078125 z m 0,0"
       style="fill:#000000;fill-opacity:1;fill-rule:nonzero;stroke:none"
       aria-label="b"
       transform="matrix(1.3333333,0,0,1.3333333,82.454667,80.613333)" />
    <path
       id="path11"
       d="m 3.0230703,-3.1536797 h 1.6875 c 1.4179688,0 2.8007813,-1.03125 2.8007813,-2.1445312 0,-0.7734375 -0.65625,-1.5117188 -1.96875,-1.5117188 H 2.3199453 c -0.1875,0 -0.2929687,0 -0.2929687,0.1992188 0,0.1171875 0.082031,0.1171875 0.28125,0.1171875 0.1289062,0 0.3164062,0.011719 0.4335937,0.011719 0.1523438,0.023437 0.2109375,0.058594 0.2109375,0.1640625 0,0.035156 0,0.070312 -0.035156,0.1875 l -1.3359375,5.35546876 c -0.09375,0.38671875 -0.1171875,0.46875 -0.90234379,0.46875 -0.17578125,0 -0.28125,0 -0.28125,0.1875 0,0.1171875 0.1171875,0.1171875 0.15234375,0.1171875 0.28125,0 0.98437504,-0.03515625 1.26562504,-0.03515625 0.2109375,0 0.421875,0.01171875 0.6328125,0.01171875 0.2226562,0 0.4453125,0.0234375 0.6445312,0.0234375 0.070312,0 0.1992188,0 0.1992188,-0.19921875 0,-0.10546875 -0.082031,-0.10546875 -0.2695313,-0.10546875 -0.375,0 -0.65625,0 -0.65625,-0.1875 0,-0.0585938 0.023437,-0.10546875 0.035156,-0.1640625 z m 0.7148438,-2.9648437 c 0.082031,-0.3515625 0.1054687,-0.375 0.5390625,-0.375 h 0.9492187 c 0.8320313,0 1.359375,0.2695312 1.359375,0.9492187 0,0.3984375 -0.1992187,1.2539063 -0.5859375,1.6054688 -0.5039062,0.4453125 -1.1015625,0.5273437 -1.5351562,0.5273437 h -1.40625 z m 0,0"
       style="fill:#000000;fill-opacity:1;fill-rule:nonzero;stroke:none"
       aria-label="P"
       transform="matrix(1.3333333,0,0,1.3333333,108.46533,99.076)" />
  </g>
</svg>
