<?xml version="1.0" encoding="UTF-8" standalone="no"?>
<!-- Created with Inkscape (http://www.inkscape.org/) -->

<svg
   version="1.1"
   id="svg1"
   width="96.306664"
   height="79.879997"
   viewBox="0 0 96.306664 79.879997"
   sodipodi:docname="24-25-2-大学物理D-期末-题图1.17.pdf"
   xmlns:inkscape="http://www.inkscape.org/namespaces/inkscape"
   xmlns:sodipodi="http://sodipodi.sourceforge.net/DTD/sodipodi-0.dtd"
   xmlns="http://www.w3.org/2000/svg"
   xmlns:svg="http://www.w3.org/2000/svg">
  <defs
     id="defs1" />
  <sodipodi:namedview
     id="namedview1"
     pagecolor="#ffffff"
     bordercolor="#111111"
     borderopacity="1"
     inkscape:showpageshadow="0"
     inkscape:pageopacity="0"
     inkscape:pagecheckerboard="1"
     inkscape:deskcolor="#d1d1d1">
    <inkscape:page
       x="0"
       y="0"
       inkscape:label="1"
       id="page1"
       width="96.306664"
       height="79.879997"
       margin="0"
       bleed="0" />
  </sodipodi:namedview>
  <g
     id="g1"
     inkscape:groupmode="layer"
     inkscape:label="1">
    <path
       id="path1"
       d="M 0,0 V -7.08713 H 70.86703 V 0 Z"
       style="fill:none;stroke:#000000;stroke-width:0.3985;stroke-linecap:butt;stroke-linejoin:miter;stroke-miterlimit:10;stroke-dasharray:none;stroke-opacity:1"
       transform="matrix(1.3333333,0,0,-1.3333333,1.556,47.509333)" />
    <path
       id="path2"
       d="m 9.92133,2.83418 c 0,1.56531 -1.26891,2.8342 -2.8342,2.8342 -1.56531,0 -2.8342,-1.26889 -2.8342,-2.8342 C 4.25293,1.26889 5.52182,0 7.08713,0 8.65242,0 9.92133,1.26889 9.92133,2.83418 Z M 68.7411,4.9612 c 0,2.74003 -2.22117,4.96121 -4.96121,4.96121 -2.74003,0 -4.96121,-2.22118 -4.96121,-4.96121 C 58.81868,2.22118 61.03986,0 63.77989,0 66.51993,0 68.7411,2.22118 68.7411,4.9612 Z"
       style="fill:#000000;fill-opacity:1;fill-rule:nonzero;stroke:#000000;stroke-width:0.3985;stroke-linecap:butt;stroke-linejoin:miter;stroke-miterlimit:10;stroke-dasharray:none;stroke-opacity:1"
       transform="matrix(1.3333333,0,0,-1.3333333,1.556,47.509333)" />
    <path
       id="path3"
       d="m -0.41148,5.22809 -0.55606,7.06497 70.64535,5.56027 0.55605,-7.06497 z"
       style="fill:none;stroke:#000000;stroke-width:0.3985;stroke-linecap:butt;stroke-linejoin:miter;stroke-miterlimit:10;stroke-dasharray:none;stroke-opacity:1"
       transform="matrix(1.3333333,0,0,-1.3333333,1.556,47.509333)" />
    <path
       id="path4"
       d="M 7.08713,2.83418 V -17.71674"
       style="fill:none;stroke:#000000;stroke-width:0.3985;stroke-linecap:butt;stroke-linejoin:miter;stroke-miterlimit:10;stroke-dasharray:none;stroke-opacity:1"
       transform="matrix(1.3333333,0,0,-1.3333333,1.556,47.509333)" />
    <path
       id="path5"
       d="M 63.77989,4.9612 V -17.71674"
       style="fill:none;stroke:#000000;stroke-width:0.3985;stroke-linecap:butt;stroke-linejoin:miter;stroke-miterlimit:10;stroke-dasharray:none;stroke-opacity:1"
       transform="matrix(1.3333333,0,0,-1.3333333,1.556,47.509333)" />
    <path
       id="path6"
       d="M 7.48563,-10.62961 H 63.3814"
       style="fill:none;stroke:#000000;stroke-width:0.3985;stroke-linecap:butt;stroke-linejoin:miter;stroke-miterlimit:10;stroke-dasharray:none;stroke-opacity:1"
       transform="matrix(1.3333333,0,0,-1.3333333,1.556,47.509333)" />
    <path
       id="path7"
       d="M -2.07224,2.39104 C -1.69365,0.95639 -0.84999,0.27895 0,0 -0.84999,-0.27895 -1.69365,-0.95639 -2.07224,-2.39104"
       style="fill:none;stroke:#000000;stroke-width:0.3985;stroke-linecap:round;stroke-linejoin:round;stroke-miterlimit:10;stroke-dasharray:none;stroke-opacity:1"
       transform="matrix(-1.3333333,0,0,1.3333333,11.271173,61.682147)" />
    <path
       id="path8"
       d="M -2.07224,2.39104 C -1.69365,0.95639 -0.84999,0.27895 0,0 -0.84999,-0.27895 -1.69365,-0.95639 -2.07224,-2.39104"
       style="fill:none;stroke:#000000;stroke-width:0.3985;stroke-linecap:round;stroke-linejoin:round;stroke-miterlimit:10;stroke-dasharray:none;stroke-opacity:1"
       transform="matrix(1.3333333,0,0,-1.3333333,86.330187,61.682147)" />
    <path
       id="path9"
       d="m 3.7275,-6.0225937 c 0.09375,-0.3632813 0.1171875,-0.46875 1.0546875,-0.46875 0.3046875,0 0.375,0 0.375,-0.1875 0,-0.1289063 -0.1054688,-0.1289063 -0.1523438,-0.1289063 -0.328125,0 -1.1484375,0.035156 -1.4765625,0.035156 -0.3046875,0 -1.03125,-0.035156 -1.3242187,-0.035156 -0.070312,0 -0.1875,0 -0.1875,0.1992188 0,0.1171875 0.082031,0.1171875 0.28125,0.1171875 0.011719,0 0.1992187,0 0.375,0.011719 0.1757812,0.023437 0.2695312,0.035156 0.2695312,0.1640625 0,0.035156 -0.011719,0.070312 -0.046875,0.1875 l -1.3359375,5.35546875 c -0.09375,0.38671875 -0.1171875,0.46875 -0.9023437,0.46875 -0.1640625,0 -0.26953125,0 -0.26953125,0.19921875 0,0.10546875 0.09375,0.10546875 0.26953125,0.10546875 H 5.274375 c 0.234375,0 0.2460937,0 0.3046875,-0.1640625 L 6.3642187,-2.3194687 c 0.046875,-0.1054688 0.046875,-0.1289063 0.046875,-0.140625 0,-0.035156 -0.035156,-0.1054688 -0.1289062,-0.1054688 -0.082031,0 -0.09375,0.046875 -0.1640625,0.2109375 -0.3398438,0.9140625 -0.7734375,2.05078125 -2.4960938,2.05078125 h -0.9375 c -0.140625,0 -0.1640625,0 -0.2226562,-0.0117188 C 2.3564062,-0.32728125 2.3329687,-0.339 2.3329687,-0.42103125 c 0,-0.0234375 0,-0.046875 0.046875,-0.22265625 z m 0,0"
       style="fill:#000000;fill-opacity:1;fill-rule:nonzero;stroke:none"
       aria-label="L"
       transform="matrix(1.3333333,0,0,1.3333333,44.28,75.452)" />
    <path
       id="path10"
       d="M 21.26031,35.4335 V 21.65883"
       style="fill:none;stroke:#000000;stroke-width:0.3985;stroke-linecap:butt;stroke-linejoin:miter;stroke-miterlimit:10;stroke-dasharray:none;stroke-opacity:1"
       transform="matrix(1.3333333,0,0,-1.3333333,1.556,47.509333)" />
    <path
       id="path11"
       d="M -2.07224,2.39104 C -1.69365,0.95639 -0.84999,0.27895 0,0 -0.84999,-0.27895 -1.69365,-0.95639 -2.07224,-2.39104"
       style="fill:none;stroke:#000000;stroke-width:0.3985;stroke-linecap:round;stroke-linejoin:round;stroke-miterlimit:10;stroke-dasharray:none;stroke-opacity:1"
       transform="matrix(0,1.3333333,1.3333333,0,29.90308,18.89656)" />
    <path
       id="path12"
       d="M 35.4335,35.4335 V 21.65883"
       style="fill:none;stroke:#000000;stroke-width:0.3985;stroke-linecap:butt;stroke-linejoin:miter;stroke-miterlimit:10;stroke-dasharray:none;stroke-opacity:1"
       transform="matrix(1.3333333,0,0,-1.3333333,1.556,47.509333)" />
    <path
       id="path13"
       d="M -2.07224,2.39104 C -1.69365,0.95639 -0.84999,0.27895 0,0 -0.84999,-0.27895 -1.69365,-0.95639 -2.07224,-2.39104"
       style="fill:none;stroke:#000000;stroke-width:0.3985;stroke-linecap:round;stroke-linejoin:round;stroke-miterlimit:10;stroke-dasharray:none;stroke-opacity:1"
       transform="matrix(0,1.3333333,1.3333333,0,48.800667,18.89656)" />
    <path
       id="path14"
       d="M 49.6067,35.4335 V 21.65883"
       style="fill:none;stroke:#000000;stroke-width:0.3985;stroke-linecap:butt;stroke-linejoin:miter;stroke-miterlimit:10;stroke-dasharray:none;stroke-opacity:1"
       transform="matrix(1.3333333,0,0,-1.3333333,1.556,47.509333)" />
    <path
       id="path15"
       d="M -2.07224,2.39104 C -1.69365,0.95639 -0.84999,0.27895 0,0 -0.84999,-0.27895 -1.69365,-0.95639 -2.07224,-2.39104"
       style="fill:none;stroke:#000000;stroke-width:0.3985;stroke-linecap:round;stroke-linejoin:round;stroke-miterlimit:10;stroke-dasharray:none;stroke-opacity:1"
       transform="matrix(0,1.3333333,1.3333333,0,67.698267,18.89656)" />
    <path
       id="path16"
       d="m 3.54975,-2.9070859 c 0.4101562,1.0429687 0.890625,2.56640621 1.0546875,2.80078121 0.1523437,0.2109375 0.2578125,0.2109375 0.5273437,0.2109375 h 0.2109375 c 0.1054688,0 0.1171875,-0.0703125 0.1171875,-0.09375 0,-0.03515625 -0.023437,-0.046875 -0.046875,-0.09375 -0.1054687,-0.10546875 -0.1640625,-0.2578125 -0.234375,-0.45703125 L 3.1513125,-6.2117734 c -0.2109375,-0.5742188 -0.75,-0.703125 -1.21875,-0.703125 -0.046875,0 -0.1757813,0 -0.1757813,0.1054687 0,0.082031 0.070312,0.1054688 0.082031,0.1054688 0.328125,0.058594 0.3984375,0.1171875 0.65625,0.796875 L 3.456,-3.2000547 0.70209375,-0.46958594 c -0.1171875,0.1171875 -0.17578125,0.17578125 -0.17578125,0.3046875 0,0.17578125 0.140625,0.29296875 0.3046875,0.29296875 0.15234375,0 0.2460937,-0.10546875 0.328125,-0.2109375 z m 0,0"
       style="fill:#000000;fill-opacity:1;fill-rule:nonzero;stroke:none"
       aria-label="λ"
       transform="matrix(1.3333333,0,0,1.3333333,72.392,14.325333)" />
  </g>
</svg>
