<?xml version="1.0" encoding="UTF-8" standalone="no"?>
<!-- Created with Inkscape (http://www.inkscape.org/) -->

<svg
   version="1.1"
   id="svg1"
   width="118.32"
   height="129.03999"
   viewBox="0 0 118.32 129.03999"
   sodipodi:docname="24-25-2-大学物理D-期末-题图3.pdf"
   xmlns:inkscape="http://www.inkscape.org/namespaces/inkscape"
   xmlns:sodipodi="http://sodipodi.sourceforge.net/DTD/sodipodi-0.dtd"
   xmlns="http://www.w3.org/2000/svg"
   xmlns:svg="http://www.w3.org/2000/svg">
  <defs
     id="defs1" />
  <sodipodi:namedview
     id="namedview1"
     pagecolor="#ffffff"
     bordercolor="#111111"
     borderopacity="1"
     inkscape:showpageshadow="0"
     inkscape:pageopacity="0"
     inkscape:pagecheckerboard="1"
     inkscape:deskcolor="#d1d1d1">
    <inkscape:page
       x="0"
       y="0"
       inkscape:label="1"
       id="page1"
       width="118.32"
       height="129.03999"
       margin="0"
       bleed="0" />
  </sodipodi:namedview>
  <g
     id="g1"
     inkscape:groupmode="layer"
     inkscape:label="1">
    <path
       id="path1"
       d="M -28.3468,68.03218 V -28.3468 m 0,0 v 56.2951"
       style="fill:none;stroke:#000000;stroke-width:0.3985;stroke-linecap:butt;stroke-linejoin:miter;stroke-miterlimit:10;stroke-dasharray:none;stroke-opacity:1"
       transform="matrix(1.3333333,0,0,-1.3333333,53.797333,90.98)" />
    <path
       id="path2"
       d="M -2.07224,2.39104 C -1.69365,0.95639 -0.84999,0.27895 0,0 -0.84999,-0.27895 -1.69365,-0.95639 -2.07224,-2.39104"
       style="fill:none;stroke:#000000;stroke-width:0.3985;stroke-linecap:round;stroke-linejoin:round;stroke-miterlimit:10;stroke-dasharray:none;stroke-opacity:1"
       transform="matrix(0,-1.3333333,-1.3333333,0,16.0016,53.449933)" />
    <path
       id="path3"
       d="m 3.7258984,-6.0351641 c 0.09375,-0.3632812 0.1171875,-0.4570312 0.9023438,-0.4570312 0.2460937,0 0.3164062,0 0.3164062,-0.1875 0,-0.1289063 -0.1054687,-0.1289063 -0.140625,-0.1289063 -0.2929687,0 -1.03125,0.035156 -1.3125,0.035156 -0.3046875,0 -1.03125,-0.035156 -1.3359375,-0.035156 -0.058594,0 -0.1992187,0 -0.1992187,0.1992188 0,0.1171875 0.09375,0.1171875 0.28125,0.1171875 0.421875,0 0.6914062,0 0.6914062,0.1875 0,0.046875 0,0.070312 -0.023437,0.1640625 l -1.3476562,5.36718749 c -0.082031,0.36328125 -0.1171875,0.46875 -0.90234376,0.46875 -0.22265625,0 -0.31640625,0 -0.31640625,0.19921875 0,0.1054687475 0.1171875,0.1054687475 0.15234375,0.1054687475 0.28125,0 1.00781246,-0.0351562475 1.30078126,-0.0351562475 0.3046875,0 1.03125,0.0351562475 1.3359375,0.0351562475 0.082031,0 0.1992187,0 0.1992187,-0.1874999975 0,-0.1171875 -0.082031,-0.1171875 -0.3046875,-0.1171875 -0.1757812,0 -0.2226562,0 -0.421875,-0.0234375 -0.2109375,-0.0234375 -0.2460937,-0.0585938 -0.2460937,-0.17578125 0,-0.0703125 0.011719,-0.15234375 0.035156,-0.22265625 z m 0,0"
       style="fill:#000000;fill-opacity:1;fill-rule:nonzero;stroke:none"
       aria-label="I"
       transform="matrix(1.3333333,0,0,1.3333333,4.4266667,57.722667)" />
    <path
       id="path4"
       d="M 0,0 V 56.69363 H 28.3468 V 0 Z"
       style="fill:none;stroke:#000000;stroke-width:0.3985;stroke-linecap:butt;stroke-linejoin:miter;stroke-miterlimit:10;stroke-dasharray:none;stroke-opacity:1"
       transform="matrix(1.3333333,0,0,-1.3333333,53.797333,90.98)" />
    <path
       id="path5"
       d="M 31.18166,28.3468 H 47.79141"
       style="fill:none;stroke:#000000;stroke-width:0.3985;stroke-linecap:butt;stroke-linejoin:miter;stroke-miterlimit:10;stroke-dasharray:none;stroke-opacity:1"
       transform="matrix(1.3333333,0,0,-1.3333333,53.797333,90.98)" />
    <path
       id="path6"
       d="M -2.07224,2.39104 C -1.69365,0.95639 -0.84999,0.27895 0,0 -0.84999,-0.27895 -1.69365,-0.95639 -2.07224,-2.39104"
       style="fill:none;stroke:#000000;stroke-width:0.3985;stroke-linecap:round;stroke-linejoin:round;stroke-miterlimit:10;stroke-dasharray:none;stroke-opacity:1"
       transform="matrix(1.3333333,0,0,-1.3333333,117.78488,53.184267)" />
    <path
       id="path7"
       d="m 4.6644922,-3.7019844 c 0,-0.5390625 -0.2578125,-0.703125 -0.4453125,-0.703125 -0.2460938,0 -0.4804688,0.2578125 -0.4804688,0.4804688 0,0.1289062 0.046875,0.1875 0.1523438,0.3046875 0.2109375,0.1992187 0.3398437,0.4570312 0.3398437,0.8085937 0,0.421875 -0.609375,2.70703128 -1.7695312,2.70703128 -0.5039063,0 -0.7382813,-0.3515625 -0.7382813,-0.8671875 0,-0.56249998 0.2695313,-1.28906248 0.5742188,-2.12109378 0.070312,-0.1640625 0.1289062,-0.3046875 0.1289062,-0.4921875 0,-0.4453125 -0.328125,-0.8203125 -0.8203125,-0.8203125 -0.93749996,0 -1.31249996,1.453125 -1.31249996,1.5351563 0,0.1054687 0.09375,0.1054687 0.1171875,0.1054687 0.09375,0 0.10546875,-0.023437 0.15234375,-0.1875 0.29296875,-0.9960937 0.72656251,-1.2304687 1.00781251,-1.2304687 0.082031,0 0.2578125,0 0.2578125,0.3164062 0,0.2460938 -0.1054688,0.515625 -0.1757813,0.703125 -0.4335937,1.1484375 -0.5625,1.6054688 -0.5625,2.0390625 0,1.07812503 0.8671875,1.23046878 1.3359375,1.23046878 1.6640625,0 2.2382813,-3.29296878 2.2382813,-3.80859378 z m 0,0"
       style="fill:#000000;fill-opacity:1;fill-rule:nonzero;stroke:none"
       aria-label="v"
       transform="matrix(1.3333333,0,0,1.3333333,103.25333,48.490667)" />
    <path
       id="path8"
       d="M -27.9483,-5.6697 H -0.3985"
       style="fill:none;stroke:#000000;stroke-width:0.3985;stroke-linecap:butt;stroke-linejoin:miter;stroke-miterlimit:10;stroke-dasharray:none;stroke-opacity:1"
       transform="matrix(1.3333333,0,0,-1.3333333,53.797333,90.98)" />
    <path
       id="path9"
       d="M -2.07224,2.39104 C -1.69365,0.95639 -0.84999,0.27895 0,0 -0.84999,-0.27895 -1.69365,-0.95639 -2.07224,-2.39104"
       style="fill:none;stroke:#000000;stroke-width:0.3985;stroke-linecap:round;stroke-linejoin:round;stroke-miterlimit:10;stroke-dasharray:none;stroke-opacity:1"
       transform="matrix(-1.3333333,0,0,1.3333333,16.267267,98.5396)" />
    <path
       id="path10"
       d="M -2.07224,2.39104 C -1.69365,0.95639 -0.84999,0.27895 0,0 -0.84999,-0.27895 -1.69365,-0.95639 -2.07224,-2.39104"
       style="fill:none;stroke:#000000;stroke-width:0.3985;stroke-linecap:round;stroke-linejoin:round;stroke-miterlimit:10;stroke-dasharray:none;stroke-opacity:1"
       transform="matrix(1.3333333,0,0,-1.3333333,53.531667,98.5396)" />
    <path
       id="path11"
       d="m 5.1435859,-6.8088203 c 0,0 0,-0.1054688 -0.1289062,-0.1054688 -0.1523438,0 -1.1015625,0.09375 -1.265625,0.1054688 -0.082031,0.011719 -0.140625,0.070312 -0.140625,0.1992187 0,0.1171875 0.082031,0.1171875 0.234375,0.1171875 0.4804687,0 0.5039062,0.070312 0.5039062,0.1640625 l -0.035156,0.1992188 -0.5976563,2.3671875 c -0.1757812,-0.375 -0.46875,-0.6445313 -0.9140625,-0.6445313 -1.171875,0 -2.40234371,1.4648438 -2.40234371,2.9179688 0,0.93749999 0.55078125,1.59374999 1.32421871,1.59374999 0.1992188,0 0.703125,-0.03515625 1.3007813,-0.73828125 0.070312,0.41015625 0.421875,0.73828125 0.9023437,0.73828125 0.3515625,0 0.5742188,-0.22265625 0.7382813,-0.5390625 0.1640625,-0.36328125 0.2929687,-0.97265629 0.2929687,-0.99609379 0,-0.09375 -0.082031,-0.09375 -0.1171875,-0.09375 -0.09375,0 -0.1054687,0.035156 -0.140625,0.1757813 -0.1640625,0.64453124 -0.3515625,1.24218749 -0.75,1.24218749 -0.2695312,0 -0.3046875,-0.2578125 -0.3046875,-0.45703125 0,-0.24609375 0.023437,-0.31640625 0.058594,-0.48046874 z m -2.0742187,5.625 c -0.046875,0.1757812 -0.046875,0.19921874 -0.1992188,0.36328124 -0.4453125,0.55078125 -0.84375,0.71484375 -1.125,0.71484375 -0.5039062,0 -0.6445312,-0.55078125 -0.6445312,-0.93749999 0,-0.5039063 0.328125,-1.7226563 0.5507812,-2.1796875 0.3046875,-0.5976563 0.7617188,-0.9609375 1.1601563,-0.9609375 0.6445312,0 0.7851562,0.8203125 0.7851562,0.8789062 0,0.058594 -0.023437,0.1171875 -0.035156,0.1640625 z m 0,0"
       style="fill:#000000;fill-opacity:1;fill-rule:nonzero;stroke:none"
       aria-label="d"
       transform="matrix(1.3333333,0,0,1.3333333,31.442667,112.45733)" />
    <path
       id="path12"
       d="M 0.3985,-5.6697 H 27.9483"
       style="fill:none;stroke:#000000;stroke-width:0.3985;stroke-linecap:butt;stroke-linejoin:miter;stroke-miterlimit:10;stroke-dasharray:none;stroke-opacity:1"
       transform="matrix(1.3333333,0,0,-1.3333333,53.797333,90.98)" />
    <path
       id="path13"
       d="M -2.07224,2.39104 C -1.69365,0.95639 -0.84999,0.27895 0,0 -0.84999,-0.27895 -1.69365,-0.95639 -2.07224,-2.39104"
       style="fill:none;stroke:#000000;stroke-width:0.3985;stroke-linecap:round;stroke-linejoin:round;stroke-miterlimit:10;stroke-dasharray:none;stroke-opacity:1"
       transform="matrix(-1.3333333,0,0,1.3333333,54.063,98.5396)" />
    <path
       id="path14"
       d="M -2.07224,2.39104 C -1.69365,0.95639 -0.84999,0.27895 0,0 -0.84999,-0.27895 -1.69365,-0.95639 -2.07224,-2.39104"
       style="fill:none;stroke:#000000;stroke-width:0.3985;stroke-linecap:round;stroke-linejoin:round;stroke-miterlimit:10;stroke-dasharray:none;stroke-opacity:1"
       transform="matrix(1.3333333,0,0,-1.3333333,91.3274,98.5396)" />
    <g
       id="g14"
       aria-label="l&#10;1"
       transform="matrix(1.3333333,0,0,1.3333333,67.733333,112.45733)">
      <path
         id="path15"
         d="m 2.5671875,-6.8088203 c 0,0 0,-0.1054688 -0.1289063,-0.1054688 -0.2226562,0 -0.9492187,0.082031 -1.2070312,0.1054688 -0.082031,0 -0.1992188,0.011719 -0.1992188,0.1992187 0,0.1171875 0.1054688,0.1171875 0.2578125,0.1171875 0.46875,0 0.4804688,0.082031 0.4804688,0.1640625 l -0.023437,0.1992188 -1.25390625,4.9804687 c -0.0351563,0.1171875 -0.0585938,0.18750004 -0.0585938,0.33984379 0,0.57421875 0.4453125,0.9140625 0.91406255,0.9140625 0.3281249,0 0.5742186,-0.19921875 0.75,-0.55078125 0.1757812,-0.38671875 0.2929687,-0.96093754 0.2929687,-0.98437504 0,-0.09375 -0.09375,-0.09375 -0.1171875,-0.09375 -0.1054687,0 -0.1171875,0.035156 -0.140625,0.1757813 -0.1757813,0.64453124 -0.3632813,1.24218749 -0.7617187,1.24218749 -0.2929688,0 -0.2929688,-0.328125 -0.2929688,-0.45703125 0,-0.24609375 0.011719,-0.29296875 0.058594,-0.48046874 z m 0,0"
         style="fill:#000000;fill-opacity:1;fill-rule:nonzero;stroke:none" />
      <path
         id="path16"
         d="m 5.3064453,-2.9357734 c 0,-0.1875 -0.011719,-0.1992188 -0.2109375,-0.1992188 -0.4453125,0.4335938 -1.078125,0.4453125 -1.359375,0.4453125 v 0.2460938 c 0.1640625,0 0.6210938,0 1.0078125,-0.1875 v 3.55078121 c 0,0.23437499 0,0.32812499 -0.6914062,0.32812499 H 3.7830078 v 0.2460938 c 0.1289063,-0.011719 0.984375,-0.023437 1.2421875,-0.023437 0.2109375,0 1.0898438,0.011719 1.2421875,0.023437 V 1.2478203 H 6.0095703 c -0.703125,0 -0.703125,-0.09375 -0.703125,-0.32812499 z m 0,0"
         style="fill:#000000;fill-opacity:1;fill-rule:nonzero;stroke:none" />
    </g>
    <path
       id="path17"
       d="M -5.6697,0.3985 V 56.29512"
       style="fill:none;stroke:#000000;stroke-width:0.3985;stroke-linecap:butt;stroke-linejoin:miter;stroke-miterlimit:10;stroke-dasharray:none;stroke-opacity:1"
       transform="matrix(1.3333333,0,0,-1.3333333,53.797333,90.98)" />
    <path
       id="path18"
       d="M -2.07224,2.39104 C -1.69365,0.95639 -0.84999,0.27895 0,0 -0.84999,-0.27895 -1.69365,-0.95639 -2.07224,-2.39104"
       style="fill:none;stroke:#000000;stroke-width:0.3985;stroke-linecap:round;stroke-linejoin:round;stroke-miterlimit:10;stroke-dasharray:none;stroke-opacity:1"
       transform="matrix(0,1.3333333,1.3333333,0,46.237733,90.714333)" />
    <path
       id="path19"
       d="M -2.07224,2.39104 C -1.69365,0.95639 -0.84999,0.27895 0,0 -0.84999,-0.27895 -1.69365,-0.95639 -2.07224,-2.39104"
       style="fill:none;stroke:#000000;stroke-width:0.3985;stroke-linecap:round;stroke-linejoin:round;stroke-miterlimit:10;stroke-dasharray:none;stroke-opacity:1"
       transform="matrix(0,-1.3333333,-1.3333333,0,46.237733,15.654173)" />
    <g
       id="g19"
       aria-label="l&#10;2"
       transform="matrix(1.3333333,0,0,1.3333333,31.621333,56.8)">
      <path
         id="path20"
         d="m 2.5662266,-6.8080078 c 0,0 0,-0.1054688 -0.1289063,-0.1054688 -0.2226562,0 -0.9492187,0.082031 -1.2070312,0.1054688 -0.082031,0 -0.1992188,0.011719 -0.1992188,0.1992187 0,0.1171875 0.1054688,0.1171875 0.2578125,0.1171875 0.46875,0 0.4804688,0.082031 0.4804688,0.1640625 l -0.023437,0.1992188 -1.25390629,4.9804687 c -0.0351563,0.1171875 -0.0585938,0.18750004 -0.0585938,0.33984379 0,0.57421875 0.4453125,0.9140625 0.91406249,0.9140625 0.328125,0 0.5742187,-0.19921875 0.75,-0.55078125 0.1757812,-0.38671875 0.2929687,-0.96093754 0.2929687,-0.98437504 0,-0.09375 -0.09375,-0.09375 -0.1171875,-0.09375 -0.1054687,0 -0.1171875,0.035156 -0.140625,0.1757813 -0.1757812,0.64453124 -0.3632812,1.24218749 -0.7617187,1.24218749 -0.2929688,0 -0.2929688,-0.328125 -0.2929688,-0.45703125 0,-0.24609375 0.011719,-0.29296875 0.058594,-0.48046874 z m 0,0"
         style="fill:#000000;fill-opacity:1;fill-rule:nonzero;stroke:none" />
      <path
         id="path21"
         d="m 6.4890781,0.22910156 h -0.234375 c -0.023437,0.15234375 -0.082031,0.5625 -0.1757812,0.6328125 -0.058594,0.0351563 -0.5976563,0.0351563 -0.6914063,0.0351563 H 4.0984531 c 0.7382813,-0.64453125 0.984375,-0.84375 1.3945313,-1.171875 0.515625,-0.41015625 0.9960937,-0.84375006 0.9960937,-1.49999996 0,-0.8437501 -0.7382812,-1.3593751 -1.6289062,-1.3593751 -0.8671875,0 -1.453125,0.609375 -1.453125,1.2421876 0,0.3632812 0.3046875,0.3984375 0.375,0.3984375 0.1640625,0 0.375,-0.1171875 0.375,-0.375 0,-0.1289063 -0.058594,-0.3632813 -0.421875,-0.3632813 0.2226562,-0.5039063 0.6914062,-0.65625 1.0195312,-0.65625 0.703125,0 1.0664063,0.5507812 1.0664063,1.1132813 0,0.609375 -0.4335938,1.08984371 -0.65625,1.33593746 l -1.6875,1.66406254 c -0.070312,0.058594 -0.070312,0.070312 -0.070312,0.2695313 h 2.8828125 z m 0,0"
         style="fill:#000000;fill-opacity:1;fill-rule:nonzero;stroke:none" />
    </g>
    <path
       id="path22"
       d="M -8.5037,56.69363 H 0 M -8.5037,0 H 0 V -8.5037 M 28.3468,0 v -8.5037"
       style="fill:none;stroke:#000000;stroke-width:0.3985;stroke-linecap:butt;stroke-linejoin:miter;stroke-miterlimit:10;stroke-dasharray:none;stroke-opacity:1"
       transform="matrix(1.3333333,0,0,-1.3333333,53.797333,90.98)" />
  </g>
</svg>
