<?xml version="1.0" encoding="UTF-8" standalone="no"?>
<!-- Created with Inkscape (http://www.inkscape.org/) -->

<svg
   version="1.1"
   id="svg1"
   width="126.41333"
   height="113.92"
   viewBox="0 0 126.41333 113.92"
   sodipodi:docname="24-25-2-大学物理D-期末-题图1.16.pdf"
   xmlns:inkscape="http://www.inkscape.org/namespaces/inkscape"
   xmlns:sodipodi="http://sodipodi.sourceforge.net/DTD/sodipodi-0.dtd"
   xmlns="http://www.w3.org/2000/svg"
   xmlns:svg="http://www.w3.org/2000/svg">
  <defs
     id="defs1" />
  <sodipodi:namedview
     id="namedview1"
     pagecolor="#ffffff"
     bordercolor="#111111"
     borderopacity="1"
     inkscape:showpageshadow="0"
     inkscape:pageopacity="0"
     inkscape:pagecheckerboard="1"
     inkscape:deskcolor="#d1d1d1">
    <inkscape:page
       x="0"
       y="0"
       inkscape:label="1"
       id="page1"
       width="126.41333"
       height="113.92"
       margin="0"
       bleed="0" />
  </sodipodi:namedview>
  <g
     id="g1"
     inkscape:groupmode="layer"
     inkscape:label="1">
    <path
       id="path1"
       d="M 0,42.52022 V -42.52022"
       style="fill:none;stroke:#000000;stroke-width:0.3985;stroke-linecap:butt;stroke-linejoin:miter;stroke-miterlimit:10;stroke-dasharray:none;stroke-opacity:1"
       transform="matrix(1.3333333,0,0,-1.3333333,106.79733,56.961333)" />
    <path
       id="path2"
       d="m 0,0 h -63.78032 m 0.85059,0 c 0,0.46974 -0.38083,0.85057 -0.85059,0.85057 -0.46976,0 -0.85058,-0.38083 -0.85058,-0.85057 0,-0.46974 0.38082,-0.85057 0.85058,-0.85057 0.46976,0 0.85059,0.38083 0.85059,0.85057 z"
       style="fill:#000000;fill-opacity:1;fill-rule:nonzero;stroke:#000000;stroke-width:0.3985;stroke-linecap:butt;stroke-linejoin:miter;stroke-miterlimit:10;stroke-dasharray:none;stroke-opacity:1"
       transform="matrix(1.3333333,0,0,-1.3333333,106.79733,56.961333)" />
    <path
       id="path3"
       d="m 7.3722344,-4.3476563 c 0,-1.59375 -1.0546875,-2.671875 -2.5429688,-2.671875 -2.1445312,0 -4.33593747,2.2617188 -4.33593747,4.5820313 0,1.65234375 1.11328127,2.66015625 2.54296877,2.66015625 2.109375,0 4.3359375,-2.17968755 4.3359375,-4.57031255 z m -4.2773438,4.31250005 c -0.984375,0 -1.6757812,-0.80859375 -1.6757812,-2.12109375 0,-0.4453125 0.140625,-1.8984375 0.9023437,-3.0585938 0.6914063,-1.0429687 1.6640625,-1.5585937 2.4492188,-1.5585937 0.8203125,0 1.7109375,0.5625 1.7109375,2.0390625 0,0.7148437 -0.2695313,2.2734375 -1.2539063,3.5039062 -0.4804687,0.5976563 -1.2890625,1.19531255 -2.1328125,1.19531255 z m 0,0"
       style="fill:#000000;fill-opacity:1;fill-rule:nonzero;stroke:none"
       aria-label="O"
       transform="matrix(1.3333333,0,0,1.3333333,111.49067,61.5)" />
    <path
       id="path4"
       d="m 6.4211328,-6.9257813 c 0,-0.023437 -0.011719,-0.09375 -0.1054687,-0.09375 -0.046875,0 -0.058594,0.011719 -0.1757813,0.140625 l -0.4804687,0.5742188 c -0.2578125,-0.46875 -0.7734375,-0.7148438 -1.4296875,-0.7148438 -1.265625,0 -2.4609375,1.1367188 -2.4609375,2.34375 0,0.8085938 0.5273437,1.265625 1.0429687,1.4179688 l 1.0664063,0.28125 c 0.3632812,0.082031 0.9140625,0.234375 0.9140625,1.0546875 0,0.890625 -0.8203125,1.828125 -1.7929688,1.828125 -0.6445312,0 -1.7460937,-0.2109375 -1.7460937,-1.453125 0,-0.234375 0.046875,-0.4804688 0.058594,-0.5390625 0.011719,-0.035156 0.023437,-0.046875 0.023437,-0.070312 0,-0.09375 -0.070312,-0.1054688 -0.1171875,-0.1054688 -0.058594,0 -0.070312,0.011719 -0.1054687,0.035156 -0.035156,0.046875 -0.59765629,2.3203125 -0.59765629,2.34375 0,0.0585938 0.046875,0.10546875 0.1171875,0.10546875 0.046875,0 0.0585938,-0.0117188 0.17578125,-0.15234375 L 1.3000391,-0.50390625 c 0.421875,0.5859375 1.1015625,0.7265625 1.6757812,0.7265625 1.359375,0 2.53125,-1.32421875 2.53125,-2.56640625 0,-0.6796875 -0.3398437,-1.0195313 -0.4921875,-1.1601563 -0.2226562,-0.234375 -0.375,-0.2695312 -1.265625,-0.5039062 -0.2109375,-0.058594 -0.5742187,-0.1523438 -0.65625,-0.1757813 -0.2695312,-0.09375 -0.609375,-0.375 -0.609375,-0.9023437 0,-0.8085938 0.796875,-1.6523438 1.734375,-1.6523438 0.8320313,0 1.4414063,0.421875 1.4414063,1.5351563 0,0.3164062 -0.046875,0.5039062 -0.046875,0.5625 0,0.011719 0,0.09375 0.1289062,0.09375 0.09375,0 0.1054688,-0.023437 0.140625,-0.1992188 z m 0,0"
       style="fill:#000000;fill-opacity:1;fill-rule:nonzero;stroke:none"
       aria-label="S"
       transform="matrix(1.3333333,0,0,1.3333333,8.1533333,61.5)" />
    <path
       id="path5"
       d="M -42.52022,-38.26793 V -29.764"
       style="fill:none;stroke:#000000;stroke-width:0.3985;stroke-linecap:butt;stroke-linejoin:miter;stroke-miterlimit:10;stroke-dasharray:none;stroke-opacity:1"
       transform="matrix(1.3333333,0,0,-1.3333333,106.79733,56.961333)" />
    <g
       id="g5"
       aria-label="S&#10;2"
       transform="matrix(1.3333333,0,0,1.3333333,31.305333,89.961333)">
      <path
         id="path6"
         d="m 6.4213906,-6.9260781 c 0,-0.023437 -0.011719,-0.09375 -0.1054687,-0.09375 -0.046875,0 -0.058594,0.011719 -0.1757813,0.140625 l -0.4804687,0.5742187 c -0.2578125,-0.46875 -0.7734375,-0.7148437 -1.4296875,-0.7148437 -1.265625,0 -2.4609375,1.1367187 -2.4609375,2.34375 0,0.8085937 0.5273437,1.265625 1.0429687,1.4179687 l 1.0664063,0.28125 c 0.3632812,0.082031 0.9140625,0.234375 0.9140625,1.0546875 0,0.890625 -0.8203125,1.82812502 -1.7929688,1.82812502 -0.6445312,0 -1.7460937,-0.2109375 -1.7460937,-1.45312502 0,-0.234375 0.046875,-0.4804687 0.058594,-0.5390625 0.011719,-0.035156 0.023437,-0.046875 0.023437,-0.070312 0,-0.09375 -0.070312,-0.1054687 -0.1171875,-0.1054687 -0.058594,0 -0.070312,0.011719 -0.1054687,0.035156 -0.035156,0.046875 -0.59765628,2.32031252 -0.59765628,2.34375002 0,0.0585938 0.046875,0.10546875 0.1171875,0.10546875 0.046875,0 0.0585938,-0.0117188 0.17578125,-0.15234375 L 1.3002969,-0.50420313 c 0.421875,0.5859375 1.1015625,0.7265625 1.6757812,0.7265625 1.359375,0 2.53125,-1.32421877 2.53125,-2.56640627 0,-0.6796875 -0.3398437,-1.0195312 -0.4921875,-1.1601562 -0.2226562,-0.234375 -0.375,-0.2695313 -1.265625,-0.5039063 -0.2109375,-0.058594 -0.5742187,-0.1523437 -0.65625,-0.1757812 -0.2695312,-0.09375 -0.609375,-0.375 -0.609375,-0.9023438 0,-0.8085937 0.796875,-1.6523437 1.734375,-1.6523437 0.8320313,0 1.4414063,0.421875 1.4414063,1.5351562 0,0.3164063 -0.046875,0.5039063 -0.046875,0.5625 0,0.011719 0,0.09375 0.1289062,0.09375 0.09375,0 0.1054688,-0.023437 0.140625,-0.1992187 z m 0,0"
         style="fill:#000000;fill-opacity:1;fill-rule:nonzero;stroke:none" />
      <path
         id="path7"
         d="m 9.6235391,0.22821875 h -0.234375 c -0.023437,0.15234375 -0.082031,0.5625 -0.1757813,0.6328125 C 9.1547891,0.8961875 8.6157266,0.8961875 8.5219766,0.8961875 H 7.2329141 c 0.7382812,-0.64453125 0.984375,-0.84375 1.3945312,-1.171875 0.515625,-0.41015625 0.9960938,-0.84375 0.9960938,-1.5 0,-0.84375 -0.7382813,-1.359375 -1.6289063,-1.359375 -0.8671875,0 -1.453125,0.609375 -1.453125,1.2421875 0,0.3632812 0.3046875,0.3984375 0.375,0.3984375 0.1640625,0 0.375,-0.1171875 0.375,-0.375 0,-0.1289063 -0.058594,-0.3632813 -0.421875,-0.3632813 0.2226563,-0.5039062 0.6914063,-0.65625 1.0195313,-0.65625 0.703125,0 1.0664062,0.5507813 1.0664062,1.1132813 0,0.609375 -0.4335937,1.08984375 -0.65625,1.3359375 l -1.6875,1.6640625 c -0.070312,0.058594 -0.070312,0.070312 -0.070312,0.2695312 h 2.8828125 z m 0,0"
         style="fill:#000000;fill-opacity:1;fill-rule:nonzero;stroke:none" />
    </g>
    <path
       id="path8"
       d="M -42.52022,-12.75618 V 12.75618"
       style="fill:none;stroke:#000000;stroke-width:0.3985;stroke-linecap:butt;stroke-linejoin:miter;stroke-miterlimit:10;stroke-dasharray:none;stroke-opacity:1"
       transform="matrix(1.3333333,0,0,-1.3333333,106.79733,56.961333)" />
    <path
       id="path9"
       d="M -42.52022,38.26793 V 29.764"
       style="fill:none;stroke:#000000;stroke-width:0.3985;stroke-linecap:butt;stroke-linejoin:miter;stroke-miterlimit:10;stroke-dasharray:none;stroke-opacity:1"
       transform="matrix(1.3333333,0,0,-1.3333333,106.79733,56.961333)" />
    <g
       id="g9"
       aria-label="S&#10;1"
       transform="matrix(1.3333333,0,0,1.3333333,31.305333,31.046667)">
      <path
         id="path10"
         d="m 6.4213906,-6.925625 c 0,-0.023437 -0.011719,-0.09375 -0.1054687,-0.09375 -0.046875,0 -0.058594,0.011719 -0.1757813,0.140625 L 5.6596719,-6.3045313 C 5.4018594,-6.7732813 4.8862344,-7.019375 4.2299844,-7.019375 c -1.265625,0 -2.4609375,1.1367187 -2.4609375,2.34375 0,0.8085937 0.5273437,1.265625 1.0429687,1.4179687 l 1.0664063,0.28125 c 0.3632812,0.082031 0.9140625,0.234375 0.9140625,1.0546875 0,0.890625 -0.8203125,1.82812505 -1.7929688,1.82812505 -0.6445312,0 -1.7460937,-0.2109375 -1.7460937,-1.45312505 0,-0.234375 0.046875,-0.4804687 0.058594,-0.5390625 0.011719,-0.035156 0.023437,-0.046875 0.023437,-0.070312 0,-0.09375 -0.070312,-0.1054687 -0.1171875,-0.1054687 -0.058594,0 -0.070312,0.011719 -0.1054687,0.035156 -0.035156,0.046875 -0.59765628,2.32031255 -0.59765628,2.34375005 0,0.0585938 0.046875,0.10546875 0.1171875,0.10546875 0.046875,0 0.0585938,-0.0117188 0.17578125,-0.15234375 L 1.3002969,-0.50375 c 0.421875,0.5859375 1.1015625,0.7265625 1.6757812,0.7265625 1.359375,0 2.53125,-1.3242188 2.53125,-2.5664063 0,-0.6796875 -0.3398437,-1.0195312 -0.4921875,-1.1601562 -0.2226562,-0.234375 -0.375,-0.2695313 -1.265625,-0.5039063 C 3.5385781,-4.06625 3.1752969,-4.16 3.0932656,-4.1834375 c -0.2695312,-0.09375 -0.609375,-0.375 -0.609375,-0.9023438 0,-0.8085937 0.796875,-1.6523437 1.734375,-1.6523437 0.8320313,0 1.4414063,0.421875 1.4414063,1.5351562 0,0.3164063 -0.046875,0.5039063 -0.046875,0.5625 0,0.011719 0,0.09375 0.1289062,0.09375 0.09375,0 0.1054688,-0.023437 0.140625,-0.1992187 z m 0,0"
         style="fill:#000000;fill-opacity:1;fill-rule:nonzero;stroke:none" />
      <path
         id="path11"
         d="m 8.4399453,-2.9353906 c 0,-0.1875 -0.011719,-0.1992188 -0.2109375,-0.1992188 -0.4453125,0.4335938 -1.078125,0.4453125 -1.359375,0.4453125 v 0.2460938 c 0.1640625,0 0.6210938,0 1.0078125,-0.1875 v 3.55078122 c 0,0.23437498 0,0.32812498 -0.6914062,0.32812498 H 6.9165078 v 0.2460938 c 0.1289063,-0.011719 0.984375,-0.023437 1.2421875,-0.023437 0.2109375,0 1.0898438,0.011719 1.2421875,0.023437 V 1.2482031 H 9.1430703 c -0.703125,0 -0.703125,-0.09375 -0.703125,-0.32812498 z m 0,0"
         style="fill:#000000;fill-opacity:1;fill-rule:nonzero;stroke:none" />
    </g>
    <path
       id="path12"
       d="m -62.92973,-25.51237 c 0,0.46975 -0.38083,0.85057 -0.85059,0.85057 -0.46976,0 -0.85058,-0.38082 -0.85058,-0.85057 0,-0.46976 0.38082,-0.85059 0.85058,-0.85059 0.46976,0 0.85059,0.38083 0.85059,0.85059 z"
       style="fill:#000000;fill-opacity:1;fill-rule:nonzero;stroke:#000000;stroke-width:0.3985;stroke-linecap:butt;stroke-linejoin:miter;stroke-miterlimit:10;stroke-dasharray:none;stroke-opacity:1"
       transform="matrix(1.3333333,0,0,-1.3333333,106.79733,56.961333)" />
    <g
       id="g12"
       aria-label="S&#10;′"
       transform="matrix(1.3333333,0,0,1.3333333,4.4253333,95.970667)">
      <path
         id="path13"
         d="m 6.4222109,-6.9272188 c 0,-0.023437 -0.011719,-0.09375 -0.1054687,-0.09375 -0.046875,0 -0.058594,0.011719 -0.1757813,0.140625 L 5.6604922,-6.306125 c -0.2578125,-0.46875 -0.7734375,-0.7148438 -1.4296875,-0.7148438 -1.265625,0 -2.4609375,1.1367188 -2.4609375,2.34375 0,0.8085938 0.5273437,1.265625 1.0429687,1.4179688 L 3.8792422,-2.978 c 0.3632812,0.082031 0.9140625,0.234375 0.9140625,1.0546875 0,0.890625 -0.8203125,1.828125 -1.7929688,1.828125 -0.6445312,0 -1.7460937,-0.2109375 -1.7460937,-1.453125 0,-0.234375 0.046875,-0.4804688 0.058594,-0.5390625 0.011719,-0.035156 0.023437,-0.046875 0.023437,-0.070312 0,-0.09375 -0.070312,-0.1054688 -0.1171875,-0.1054688 -0.058594,0 -0.070312,0.011719 -0.1054687,0.035156 -0.035156,0.046875 -0.59765626,2.3203125 -0.59765626,2.34375 0,0.0585937 0.046875,0.10546875 0.1171875,0.10546875 0.046875,0 0.0585938,-0.0117188 0.17578125,-0.15234375 L 1.3011172,-0.50534375 c 0.421875,0.5859375 1.1015625,0.7265625 1.6757812,0.7265625 1.359375,0 2.53125,-1.32421875 2.53125,-2.56640625 0,-0.6796875 -0.3398437,-1.0195313 -0.4921875,-1.1601563 -0.2226562,-0.234375 -0.375,-0.2695312 -1.265625,-0.5039062 -0.2109375,-0.058594 -0.5742187,-0.1523438 -0.65625,-0.1757813 -0.2695312,-0.09375 -0.609375,-0.375 -0.609375,-0.9023437 0,-0.8085938 0.796875,-1.6523438 1.734375,-1.6523438 0.8320313,0 1.4414063,0.421875 1.4414063,1.5351563 0,0.3164062 -0.046875,0.5039062 -0.046875,0.5625 0,0.011719 0,0.09375 0.1289062,0.09375 0.09375,0 0.1054688,-0.023437 0.140625,-0.1992188 z m 0,0"
         style="fill:#000000;fill-opacity:1;fill-rule:nonzero;stroke:none" />
      <path
         id="path14"
         d="m 8.7102969,-6.9067109 c 0.046875,-0.1171875 0.058594,-0.1757813 0.058594,-0.2226563 0,-0.2109375 -0.1992187,-0.3867187 -0.4101562,-0.3867187 -0.2695313,0 -0.3515625,0.2226562 -0.3867188,0.328125 l -0.9140625,3.0234375 c -0.011719,0.011719 -0.035156,0.1054687 -0.035156,0.1171875 0,0.082031 0.2109375,0.1523437 0.2695312,0.1523437 0.046875,0 0.058594,-0.023437 0.1054688,-0.1289062 z m 0,0"
         style="fill:#000000;fill-opacity:1;fill-rule:nonzero;stroke:none" />
    </g>
  </g>
</svg>
