<?xml version="1.0" encoding="UTF-8" standalone="no"?>
<!-- Created with Inkscape (http://www.inkscape.org/) -->

<svg
   version="1.1"
   id="svg1"
   width="153.41333"
   height="106.36"
   viewBox="0 0 153.41333 106.36"
   sodipodi:docname="24-25-2-大学物理D-期末-题图1.19.pdf"
   xmlns:inkscape="http://www.inkscape.org/namespaces/inkscape"
   xmlns:sodipodi="http://sodipodi.sourceforge.net/DTD/sodipodi-0.dtd"
   xmlns="http://www.w3.org/2000/svg"
   xmlns:svg="http://www.w3.org/2000/svg">
  <defs
     id="defs1" />
  <sodipodi:namedview
     id="namedview1"
     pagecolor="#ffffff"
     bordercolor="#111111"
     borderopacity="1"
     inkscape:showpageshadow="0"
     inkscape:pageopacity="0"
     inkscape:pagecheckerboard="1"
     inkscape:deskcolor="#d1d1d1">
    <inkscape:page
       x="0"
       y="0"
       inkscape:label="1"
       id="page1"
       width="153.41333"
       height="106.36"
       margin="0"
       bleed="0" />
  </sodipodi:namedview>
  <g
     id="g1"
     inkscape:groupmode="layer"
     inkscape:label="1">
    <path
       id="path1"
       d="M 0,0 V 56.69363 H 113.38727 V 0 Z"
       style="fill:none;stroke:#000000;stroke-width:0.3985;stroke-linecap:butt;stroke-linejoin:miter;stroke-miterlimit:10;stroke-dasharray:none;stroke-opacity:1"
       transform="matrix(1.3333333,0,0,-1.3333333,1.1186667,106.09467)" />
    <path
       id="path2"
       d="M 0,0 V 24.03786 H 56.69363 V 0 Z"
       style="fill:none;stroke:#000000;stroke-width:0.3985;stroke-linecap:butt;stroke-linejoin:miter;stroke-miterlimit:10;stroke-dasharray:none;stroke-opacity:1"
       transform="matrix(1.3333333,0,0,-1.3333333,1.1186667,106.09467)" />
    <path
       id="path3"
       d="m 56.69363,0 v 24.03786 h 56.69364 V 0 Z"
       style="fill:none;stroke:#000000;stroke-width:0.3985;stroke-linecap:butt;stroke-linejoin:miter;stroke-miterlimit:10;stroke-dasharray:none;stroke-opacity:1"
       transform="matrix(1.3333333,0,0,-1.3333333,1.1186667,106.09467)" />
    <path
       id="path4"
       d="M 0,56.69363 C 18.0663,25.4018 58.08032,14.68001 89.37215,32.74632 c 9.9431,5.74024 18.20707,14.00421 23.94731,23.94731"
       style="fill:none;stroke:#000000;stroke-width:0.3985;stroke-linecap:butt;stroke-linejoin:miter;stroke-miterlimit:10;stroke-dasharray:none;stroke-opacity:1"
       transform="matrix(1.3333333,0,0,-1.3333333,1.1186667,106.09467)" />
    <path
       id="path5"
       d="M 22.6771,79.37073 V 57.09213"
       style="fill:none;stroke:#000000;stroke-width:0.3985;stroke-linecap:butt;stroke-linejoin:miter;stroke-miterlimit:10;stroke-dasharray:none;stroke-opacity:1"
       transform="matrix(1.3333333,0,0,-1.3333333,1.1186667,106.09467)" />
    <path
       id="path6"
       d="M -2.07224,2.39104 C -1.69365,0.95639 -0.84999,0.27895 0,0 -0.84999,-0.27895 -1.69365,-0.95639 -2.07224,-2.39104"
       style="fill:none;stroke:#000000;stroke-width:0.3985;stroke-linecap:round;stroke-linejoin:round;stroke-miterlimit:10;stroke-dasharray:none;stroke-opacity:1"
       transform="matrix(0,1.3333333,1.3333333,0,31.3548,30.237493)" />
    <path
       id="path7"
       d="M 45.35507,79.37073 V 57.09213"
       style="fill:none;stroke:#000000;stroke-width:0.3985;stroke-linecap:butt;stroke-linejoin:miter;stroke-miterlimit:10;stroke-dasharray:none;stroke-opacity:1"
       transform="matrix(1.3333333,0,0,-1.3333333,1.1186667,106.09467)" />
    <path
       id="path8"
       d="M -2.07224,2.39104 C -1.69365,0.95639 -0.84999,0.27895 0,0 -0.84999,-0.27895 -1.69365,-0.95639 -2.07224,-2.39104"
       style="fill:none;stroke:#000000;stroke-width:0.3985;stroke-linecap:round;stroke-linejoin:round;stroke-miterlimit:10;stroke-dasharray:none;stroke-opacity:1"
       transform="matrix(0,1.3333333,1.3333333,0,61.592093,30.237493)" />
    <path
       id="path9"
       d="m 3.5506484,-2.9071797 c 0.4101563,1.0429688 0.890625,2.56640626 1.0546875,2.80078126 0.1523438,0.2109375 0.2578125,0.2109375 0.5273438,0.2109375 h 0.2109375 c 0.1054687,0 0.1171875,-0.0703125 0.1171875,-0.09375 0,-0.03515625 -0.023437,-0.046875 -0.046875,-0.09375 -0.1054688,-0.10546875 -0.1640625,-0.2578125 -0.234375,-0.45703125 L 3.1522109,-6.2118672 c -0.2109375,-0.5742187 -0.75,-0.703125 -1.21875,-0.703125 -0.046875,0 -0.1757812,0 -0.1757812,0.1054688 0,0.082031 0.070312,0.1054687 0.082031,0.1054687 0.328125,0.058594 0.3984375,0.1171875 0.65625,0.796875 l 0.9609375,2.7070313 -2.75390621,2.73046871 c -0.1171875,0.1171875 -0.17578125,0.17578125 -0.17578125,0.3046875 0,0.17578125 0.140625,0.29296875 0.3046875,0.29296875 0.15234375,0 0.24609376,-0.10546875 0.32812496,-0.2109375 z m 0,0"
       style="fill:#000000;fill-opacity:1;fill-rule:nonzero;stroke:none"
       aria-label="λ"
       transform="matrix(1.3333333,0,0,1.3333333,66.285333,19.997333)" />
    <path
       id="path10"
       d="M 68.03218,79.37073 V 57.09213"
       style="fill:none;stroke:#000000;stroke-width:0.3985;stroke-linecap:butt;stroke-linejoin:miter;stroke-miterlimit:10;stroke-dasharray:none;stroke-opacity:1"
       transform="matrix(1.3333333,0,0,-1.3333333,1.1186667,106.09467)" />
    <path
       id="path11"
       d="M -2.07224,2.39104 C -1.69365,0.95639 -0.84999,0.27895 0,0 -0.84999,-0.27895 -1.69365,-0.95639 -2.07224,-2.39104"
       style="fill:none;stroke:#000000;stroke-width:0.3985;stroke-linecap:round;stroke-linejoin:round;stroke-miterlimit:10;stroke-dasharray:none;stroke-opacity:1"
       transform="matrix(0,1.3333333,1.3333333,0,91.82824,30.237493)" />
    <path
       id="path12"
       d="M 90.71016,79.37073 V 57.09213"
       style="fill:none;stroke:#000000;stroke-width:0.3985;stroke-linecap:butt;stroke-linejoin:miter;stroke-miterlimit:10;stroke-dasharray:none;stroke-opacity:1"
       transform="matrix(1.3333333,0,0,-1.3333333,1.1186667,106.09467)" />
    <path
       id="path13"
       d="M -2.07224,2.39104 C -1.69365,0.95639 -0.84999,0.27895 0,0 -0.84999,-0.27895 -1.69365,-0.95639 -2.07224,-2.39104"
       style="fill:none;stroke:#000000;stroke-width:0.3985;stroke-linecap:round;stroke-linejoin:round;stroke-miterlimit:10;stroke-dasharray:none;stroke-opacity:1"
       transform="matrix(0,1.3333333,1.3333333,0,122.06555,30.237493)" />
    <path
       id="path14"
       d="m 4.1726328,-0.00122656 v -0.3046875 H 3.8562266 c -0.9023438,0 -0.9257813,-0.1171875 -0.9257813,-0.48046875 V -6.3762266 c 0,-0.234375 0,-0.2578125 -0.234375,-0.2578125 -0.609375,0.6328125 -1.4882812,0.6328125 -1.80468749,0.6328125 v 0.3164063 c 0.19921879,0 0.78515629,0 1.30078129,-0.2578125 v 5.15624999 c 0,0.3515625 -0.035156,0.48046875 -0.9257813,0.48046875 H 0.94997656 v 0.3046875 C 1.3015391,-0.03638281 2.1570078,-0.03638281 2.5554453,-0.03638281 c 0.3984375,0 1.265625,0 1.6171875,0.03515625 z m 2.71875,-0.52734375 c 0,-0.29296875 -0.234375,-0.52734379 -0.5273437,-0.52734379 -0.28125,0 -0.5273438,0.23437504 -0.5273438,0.52734379 0,0.29296875 0.2460938,0.52734375 0.5273438,0.52734375 0.2929687,0 0.5273437,-0.234375 0.5273437,-0.52734375 z M 12.226344,-2.0051328 c 0,-1.1835938 -0.820313,-2.1796875 -1.898438,-2.1796875 -0.4804685,0 -0.9023435,0.1640625 -1.2656248,0.5039062 v -1.9335937 c 0.1992188,0.058594 0.5273438,0.1289062 0.84375,0.1289062 1.2304688,0 1.9335938,-0.9140625 1.9335938,-1.0429687 0,-0.058594 -0.03516,-0.1054688 -0.105469,-0.1054688 0,0 -0.03516,0 -0.08203,0.023437 -0.199219,0.09375 -0.679688,0.2929688 -1.347656,0.2929688 -0.3984378,0 -0.855469,-0.070312 -1.324219,-0.28125 -0.082031,-0.023437 -0.1289063,-0.023437 -0.1289063,-0.023437 -0.09375,0 -0.09375,0.082031 -0.09375,0.234375 v 2.953125 c 0,0.1757812 0,0.2578125 0.140625,0.2578125 0.070312,0 0.082031,-0.035156 0.1289063,-0.09375 0.1054687,-0.1523438 0.4804687,-0.6914063 1.277344,-0.6914063 0.527343,0 0.773437,0.4570313 0.855468,0.6328125 0.152344,0.375 0.175782,0.7617188 0.175782,1.2539063 0,0.3515625 0,0.9492187 -0.234375,1.37109374 -0.246094,0.38671875 -0.609375,0.64453125 -1.066407,0.64453125 -0.726562,0 -1.3007808,-0.52734375 -1.4648433,-1.11328129 0.023437,0.011719 0.058594,0.011719 0.1640625,0.011719 0.328125,0 0.5039063,-0.2460938 0.5039063,-0.4804688 0,-0.2460937 -0.1757813,-0.4921875 -0.5039063,-0.4921875 -0.140625,0 -0.4804687,0.070312 -0.4804687,0.5273438 0,0.85546874 0.6796875,1.82812499 1.7929685,1.82812499 1.160156,0 2.179688,-0.9609375 2.179688,-2.22656249 z m 4.983398,0.2695312 H 16.95193 c -0.04687,0.3046875 -0.117188,0.73828129 -0.210938,0.89062504 -0.07031,0.0820313 -0.726562,0.0820313 -0.949219,0.0820313 h -1.792968 l 1.054687,-1.03124994 c 1.558594,-1.3710939 2.15625,-1.9101564 2.15625,-2.90625 0,-1.1367188 -0.902344,-1.9335938 -2.121094,-1.9335938 -1.125,0 -1.851562,0.9140625 -1.851562,1.8046875 0,0.5507813 0.492187,0.5507813 0.527344,0.5507813 0.164062,0 0.515625,-0.1171875 0.515625,-0.5273438 0,-0.2578125 -0.1875,-0.515625 -0.527344,-0.515625 -0.08203,0 -0.105469,0 -0.128906,0.011719 0.222656,-0.6445313 0.761718,-1.0195313 1.335937,-1.0195313 0.914063,0 1.335938,0.8085938 1.335938,1.6289063 0,0.796875 -0.492188,1.5820312 -1.042969,2.203125 l -1.910156,2.13281244 c -0.105469,0.10546875 -0.105469,0.12890625 -0.105469,0.36328125 h 3.691406 z m 0,0"
       style="fill:#000000;fill-opacity:1;fill-rule:nonzero;stroke:none"
       aria-label="1.52"
       transform="matrix(1.3333333,0,0,1.3333333,64.901333,57.458667)" />
    <path
       id="path15"
       d="m 4.1731406,-0.00133594 v -0.3046875 H 3.8567344 c -0.9023438,0 -0.9257813,-0.1171875 -0.9257813,-0.48046875 V -6.3763359 c 0,-0.234375 0,-0.2578125 -0.234375,-0.2578125 -0.609375,0.6328125 -1.4882812,0.6328125 -1.80468747,0.6328125 v 0.3164062 c 0.19921877,0 0.78515627,0 1.30078127,-0.2578125 v 5.15625001 c 0,0.3515625 -0.035156,0.48046875 -0.9257813,0.48046875 H 0.95048438 v 0.3046875 C 1.3020469,-0.03649219 2.1575156,-0.03649219 2.5559531,-0.03649219 c 0.3984375,0 1.265625,0 1.6171875,0.03515625 z m 2.71875,-0.52734375 c 0,-0.29296875 -0.234375,-0.52734371 -0.5273437,-0.52734371 -0.28125,0 -0.5273438,0.23437496 -0.5273438,0.52734371 0,0.29296875 0.2460938,0.52734375 0.5273438,0.52734375 0.2929687,0 0.5273437,-0.234375 0.5273437,-0.52734375 z M 12.297164,-2.0286797 c 0,-1.265625 -0.878906,-2.2265625 -1.992187,-2.2265625 -0.6679692,0 -1.0429692,0.5039063 -1.2421879,0.984375 v -0.234375 c 0,-2.5195312 1.2421879,-2.8828125 1.7460939,-2.8828125 0.234375,0 0.65625,0.058594 0.878906,0.3984375 -0.152344,0 -0.550781,0 -0.550781,0.4453125 0,0.3164063 0.234375,0.4570313 0.457031,0.4570313 0.164063,0 0.457031,-0.082031 0.457031,-0.46875 0,-0.5976563 -0.433593,-1.078125 -1.265625,-1.078125 -1.2773434,0 -2.6132809,1.2890625 -2.6132809,3.4804687 0,2.66015626 1.1484375,3.37500001 2.0742189,3.37500001 1.113281,0 2.050781,-0.9375 2.050781,-2.25000001 z m -0.890625,-0.011719 c 0,0.4804687 0,0.9726562 -0.164062,1.33593746 -0.304688,0.59765625 -0.761719,0.64453125 -0.996094,0.64453125 -0.6210939,0 -0.9257814,-0.59765625 -0.9843752,-0.75 C 9.0862266,-1.2786797 9.0862266,-2.0755547 9.0862266,-2.2513359 c 0,-0.7734375 0.3164062,-1.7695313 1.2187504,-1.7695313 0.152343,0 0.609375,0 0.925781,0.609375 0.175781,0.375 0.175781,0.8789063 0.175781,1.3710935 z m 5.800781,0.3046875 h -0.257812 c -0.04687,0.3046875 -0.117188,0.73828121 -0.210938,0.89062496 -0.07031,0.0820313 -0.726562,0.0820313 -0.949218,0.0820313 H 13.996383 L 15.05107,-1.7943047 c 1.558594,-1.3710937 2.15625,-1.9101562 2.15625,-2.90625 0,-1.1367187 -0.902343,-1.9335937 -2.121093,-1.9335937 -1.125,0 -1.851563,0.9140625 -1.851563,1.8046875 0,0.5507812 0.492188,0.5507812 0.527344,0.5507812 0.164062,0 0.515625,-0.1171875 0.515625,-0.5273437 0,-0.2578125 -0.1875,-0.515625 -0.527344,-0.515625 -0.08203,0 -0.105469,0 -0.128906,0.011719 0.222656,-0.6445312 0.761719,-1.0195312 1.335937,-1.0195312 0.914063,0 1.335938,0.8085937 1.335938,1.6289062 0,0.796875 -0.492188,1.5820313 -1.042969,2.203125 l -1.910156,2.13281251 c -0.105469,0.10546875 -0.105469,0.12890625 -0.105469,0.36328125 h 3.691406 z m 0,0"
       style="fill:#000000;fill-opacity:1;fill-rule:nonzero;stroke:none"
       aria-label="1.62"
       transform="matrix(1.3333333,0,0,1.3333333,4.428,72.576)" />
    <path
       id="path16"
       d="m 4.172125,-0.00133594 v -0.3046875 H 3.8557188 c -0.9023438,0 -0.9257813,-0.1171875 -0.9257813,-0.48046875 V -6.3763359 c 0,-0.234375 0,-0.2578125 -0.234375,-0.2578125 -0.609375,0.6328125 -1.4882812,0.6328125 -1.8046875,0.6328125 v 0.3164062 c 0.1992188,0 0.7851563,0 1.3007813,-0.2578125 v 5.15625001 c 0,0.3515625 -0.035156,0.48046875 -0.9257813,0.48046875 H 0.94946875 v 0.3046875 C 1.3010313,-0.03649219 2.1565,-0.03649219 2.5549375,-0.03649219 c 0.3984375,0 1.265625,0 1.6171875,0.03515625 z m 2.71875,-0.52734375 c 0,-0.29296875 -0.234375,-0.52734371 -0.5273437,-0.52734371 -0.28125,0 -0.5273438,0.23437496 -0.5273438,0.52734371 0,0.29296875 0.2460938,0.52734375 0.5273438,0.52734375 0.2929687,0 0.5273437,-0.234375 0.5273437,-0.52734375 z m 5.408203,-1.50000001 c 0,-1.265625 -0.878906,-2.2265625 -1.992187,-2.2265625 -0.6679691,0 -1.0429691,0.5039063 -1.2421879,0.984375 v -0.234375 c 0,-2.5195312 1.2421879,-2.8828125 1.7460939,-2.8828125 0.234375,0 0.65625,0.058594 0.878906,0.3984375 -0.152344,0 -0.550781,0 -0.550781,0.4453125 0,0.3164063 0.234375,0.4570313 0.457031,0.4570313 0.164063,0 0.457031,-0.082031 0.457031,-0.46875 0,-0.5976563 -0.433593,-1.078125 -1.265625,-1.078125 -1.2773434,0 -2.6132809,1.2890625 -2.6132809,3.4804687 0,2.66015626 1.1484375,3.37500001 2.0742189,3.37500001 1.113281,0 2.050781,-0.9375 2.050781,-2.25000001 z m -0.890625,-0.011719 c 0,0.4804687 0,0.9726562 -0.164062,1.33593746 -0.304688,0.59765625 -0.761719,0.64453125 -0.996094,0.64453125 -0.6210939,0 -0.9257814,-0.59765625 -0.9843751,-0.75 C 9.0881406,-1.2786797 9.0881406,-2.0755547 9.0881406,-2.2513359 c 0,-0.7734375 0.3164063,-1.7695313 1.2187504,-1.7695313 0.152343,0 0.609375,0 0.925781,0.609375 0.175781,0.375 0.175781,0.8789063 0.175781,1.3710935 z m 5.800781,0.3046875 h -0.257812 c -0.04687,0.3046875 -0.117188,0.73828121 -0.210938,0.89062496 -0.07031,0.0820313 -0.726562,0.0820313 -0.949218,0.0820313 h -1.792969 l 1.054687,-1.03124996 c 1.558594,-1.3710938 2.15625,-1.9101563 2.15625,-2.90625 0,-1.1367187 -0.902343,-1.9335937 -2.121093,-1.9335937 -1.125,0 -1.851563,0.9140625 -1.851563,1.8046875 0,0.5507812 0.492188,0.5507812 0.527344,0.5507812 0.164062,0 0.515625,-0.1171875 0.515625,-0.5273437 0,-0.2578125 -0.1875,-0.515625 -0.527344,-0.515625 -0.08203,0 -0.105469,0 -0.128906,0.011719 0.222656,-0.6445312 0.761719,-1.0195312 1.335937,-1.0195312 0.914063,0 1.335938,0.8085937 1.335938,1.6289062 0,0.796875 -0.492188,1.5820312 -1.042969,2.2031249 l -1.910156,2.13281256 c -0.105469,0.10546875 -0.105469,0.12890625 -0.105469,0.36328125 h 3.691406 z m 0,0"
       style="fill:#000000;fill-opacity:1;fill-rule:nonzero;stroke:none"
       aria-label="1.62"
       transform="matrix(1.3333333,0,0,1.3333333,125.37467,72.576)" />
    <path
       id="path17"
       d="M 4.1719766,2.34375e-4 V -0.30445312 H 3.8555703 c -0.9023437,0 -0.9257812,-0.1171875 -0.9257812,-0.48046875 V -6.3747656 c 0,-0.234375 0,-0.2578125 -0.234375,-0.2578125 -0.609375,0.6328125 -1.4882813,0.6328125 -1.80468754,0.6328125 v 0.3164062 c 0.19921874,0 0.78515624,0 1.30078124,-0.2578125 v 5.15625003 c 0,0.3515625 -0.035156,0.48046875 -0.9257812,0.48046875 H 0.94932031 V 2.34375e-4 C 1.3008828,-0.03492187 2.1563516,-0.03492187 2.5547891,-0.03492187 c 0.3984375,0 1.265625,0 1.6171875,0.035156245 z m 2.71875,-0.527343745 c 0,-0.29296875 -0.234375,-0.52734373 -0.5273438,-0.52734373 -0.28125,0 -0.5273437,0.23437498 -0.5273437,0.52734373 0,0.29296875 0.2460937,0.527343745 0.5273437,0.527343745 0.2929688,0 0.5273438,-0.234374995 0.5273438,-0.527343745 z M 12.58018,-6.4099219 h -2.414063 c -1.2187498,0 -1.2421873,-0.1289062 -1.2773436,-0.328125 H 8.6426797 l -0.328125,2.0507813 h 0.2460937 c 0.023437,-0.1523438 0.1171875,-0.7851563 0.2460938,-0.9023438 0.070312,-0.058594 0.84375,-0.058594 0.9726562,-0.058594 h 2.0624996 l -1.113281,1.5703125 c -0.8906248,1.3476562 -1.2187498,2.7304687 -1.2187498,3.74999998 0,0.09375 0,0.55078125 0.4570312,0.55078125 0.4570316,0 0.4570316,-0.45703125 0.4570316,-0.55078125 v -0.50390625 c 0,-0.55078123 0.02344,-1.10156253 0.105468,-1.64062503 0.04687,-0.2226562 0.175782,-1.078125 0.621094,-1.6992187 l 1.347656,-1.8984375 c 0.08203,-0.1171875 0.08203,-0.140625 0.08203,-0.3398438 z m 4.628906,4.40625 c 0,-1.1835937 -0.820313,-2.1796875 -1.898438,-2.1796875 -0.480468,0 -0.902343,0.1640625 -1.265625,0.5039063 v -1.9335938 c 0.199219,0.058594 0.527344,0.1289063 0.84375,0.1289063 1.230469,0 1.933594,-0.9140625 1.933594,-1.0429688 0,-0.058594 -0.03516,-0.1054687 -0.105469,-0.1054687 0,0 -0.03516,0 -0.08203,0.023437 -0.199219,0.09375 -0.679687,0.2929687 -1.347656,0.2929687 -0.398438,0 -0.855469,-0.070312 -1.324219,-0.28125 -0.08203,-0.023437 -0.128906,-0.023437 -0.128906,-0.023437 -0.09375,0 -0.09375,0.082031 -0.09375,0.234375 v 2.953125 c 0,0.1757813 0,0.2578125 0.140625,0.2578125 0.07031,0 0.08203,-0.035156 0.128906,-0.09375 0.105469,-0.1523437 0.480469,-0.6914062 1.277344,-0.6914062 0.527344,0 0.773437,0.4570312 0.855469,0.6328125 0.152343,0.375 0.175781,0.7617187 0.175781,1.2539062 0,0.3515625 0,0.9492188 -0.234375,1.37109378 -0.246094,0.38671875 -0.609375,0.64453125 -1.066406,0.64453125 -0.726563,0 -1.300782,-0.52734375 -1.464844,-1.11328123 0.02344,0.011719 0.05859,0.011719 0.164062,0.011719 0.328125,0 0.503907,-0.2460937 0.503907,-0.4804687 0,-0.2460938 -0.175782,-0.4921875 -0.503907,-0.4921875 -0.140625,0 -0.480468,0.070312 -0.480468,0.5273437 0,0.85546878 0.679687,1.82812503 1.792968,1.82812503 1.160157,0 2.179688,-0.9609375 2.179688,-2.22656253 z m 0,0"
       style="fill:#000000;fill-opacity:1;fill-rule:nonzero;stroke:none"
       aria-label="1.75"
       transform="matrix(1.3333333,0,0,1.3333333,27.105333,95.32)" />
    <path
       id="path18"
       d="M 4.1732891,2.34375e-4 V -0.30445312 H 3.8568828 c -0.9023437,0 -0.9257812,-0.1171875 -0.9257812,-0.48046875 V -6.3747656 c 0,-0.234375 0,-0.2578125 -0.234375,-0.2578125 -0.609375,0.6328125 -1.4882813,0.6328125 -1.80468754,0.6328125 v 0.3164062 c 0.19921874,0 0.78515624,0 1.30078124,-0.2578125 v 5.15625003 c 0,0.3515625 -0.035156,0.48046875 -0.9257812,0.48046875 H 0.95063281 V 2.34375e-4 C 1.3021953,-0.03492187 2.1576641,-0.03492187 2.5561016,-0.03492187 c 0.3984375,0 1.265625,0 1.6171875,0.035156245 z m 2.71875,-0.527343745 c 0,-0.29296875 -0.234375,-0.52734373 -0.5273438,-0.52734373 -0.28125,0 -0.5273437,0.23437498 -0.5273437,0.52734373 0,0.29296875 0.2460937,0.527343745 0.5273437,0.527343745 0.2929688,0 0.5273438,-0.234374995 0.5273438,-0.527343745 z M 12.578563,-6.4099219 H 10.1645 c -1.21875,0 -1.2421875,-0.1289062 -1.2773437,-0.328125 H 8.6410625 l -0.328125,2.0507813 h 0.2460938 c 0.023437,-0.1523438 0.1171875,-0.7851563 0.2460937,-0.9023438 0.070312,-0.058594 0.84375,-0.058594 0.9726563,-0.058594 H 11.840281 L 10.727,-4.0778906 c -0.890625,1.3476562 -1.21875,2.7304687 -1.21875,3.74999998 0,0.09375 0,0.55078125 0.4570313,0.55078125 0.4570317,0 0.4570317,-0.45703125 0.4570317,-0.55078125 v -0.50390625 c 0,-0.55078123 0.02344,-1.10156253 0.105468,-1.64062503 0.04687,-0.2226562 0.175782,-1.078125 0.621094,-1.6992187 l 1.347656,-1.8984375 c 0.08203,-0.1171875 0.08203,-0.140625 0.08203,-0.3398438 z m 4.628906,4.40625 c 0,-1.1835937 -0.820313,-2.1796875 -1.898438,-2.1796875 -0.480468,0 -0.902343,0.1640625 -1.265625,0.5039063 v -1.9335938 c 0.199219,0.058594 0.527344,0.1289063 0.84375,0.1289063 1.230469,0 1.933594,-0.9140625 1.933594,-1.0429688 0,-0.058594 -0.03516,-0.1054687 -0.105469,-0.1054687 0,0 -0.03516,0 -0.08203,0.023437 -0.199219,0.09375 -0.679687,0.2929687 -1.347656,0.2929687 -0.398438,0 -0.855469,-0.070312 -1.324219,-0.28125 -0.08203,-0.023437 -0.128906,-0.023437 -0.128906,-0.023437 -0.09375,0 -0.09375,0.082031 -0.09375,0.234375 v 2.953125 c 0,0.1757813 0,0.2578125 0.140625,0.2578125 0.07031,0 0.08203,-0.035156 0.128906,-0.09375 0.105469,-0.1523437 0.480469,-0.6914062 1.277344,-0.6914062 0.527344,0 0.773437,0.4570312 0.855469,0.6328125 0.152343,0.375 0.175781,0.7617187 0.175781,1.2539062 0,0.3515625 0,0.9492188 -0.234375,1.37109378 -0.246094,0.38671875 -0.609375,0.64453125 -1.066406,0.64453125 -0.726563,0 -1.300782,-0.52734375 -1.464844,-1.11328123 0.02344,0.011719 0.05859,0.011719 0.164062,0.011719 0.328125,0 0.503907,-0.2460937 0.503907,-0.4804687 0,-0.2460938 -0.175782,-0.4921875 -0.503907,-0.4921875 -0.140625,0 -0.480468,0.070312 -0.480468,0.5273437 0,0.85546878 0.679687,1.82812503 1.792968,1.82812503 1.160157,0 2.179688,-0.9609375 2.179688,-2.22656253 z m 0,0"
       style="fill:#000000;fill-opacity:1;fill-rule:nonzero;stroke:none"
       aria-label="1.75"
       transform="matrix(1.3333333,0,0,1.3333333,102.69733,95.32)" />
    <path
       id="path19"
       d="m 3.0231953,-3.1510391 h 1.6875 c 1.4179688,0 2.8007813,-1.03125 2.8007813,-2.1445312 0,-0.7734375 -0.65625,-1.5117188 -1.96875,-1.5117188 H 2.3200703 c -0.1875,0 -0.2929687,0 -0.2929687,0.1992188 0,0.1171875 0.082031,0.1171875 0.28125,0.1171875 0.1289062,0 0.3164062,0.011719 0.4335937,0.011719 0.1523438,0.023437 0.2109375,0.058594 0.2109375,0.1640625 0,0.035156 0,0.070312 -0.035156,0.1875 l -1.3359375,5.35546879 c -0.09375,0.38671875 -0.1171875,0.46875 -0.90234379,0.46875 -0.17578125,0 -0.28125,0 -0.28125,0.1875 0,0.1171875 0.1171875,0.1171875 0.15234375,0.1171875 0.28125,0 0.98437504,-0.03515625 1.26562504,-0.03515625 0.2109375,0 0.421875,0.01171875 0.6328125,0.01171875 0.2226562,0 0.4453125,0.0234375 0.6445312,0.0234375 0.070312,0 0.1992188,0 0.1992188,-0.19921875 0,-0.10546875 -0.082031,-0.10546875 -0.2695313,-0.10546875 -0.375,0 -0.65625,0 -0.65625,-0.1875 0,-0.0585938 0.023437,-0.10546875 0.035156,-0.1640625 z m 0.7148438,-2.9648437 c 0.082031,-0.3515625 0.1054687,-0.375 0.5390625,-0.375 h 0.9492187 c 0.8320313,0 1.359375,0.2695312 1.359375,0.9492187 0,0.3984375 -0.1992187,1.2539063 -0.5859375,1.6054688 -0.5039062,0.4453125 -1.1015625,0.5273437 -1.5351562,0.5273437 h -1.40625 z m 0,0"
       style="fill:#000000;fill-opacity:1;fill-rule:nonzero;stroke:none"
       aria-label="P"
       transform="matrix(1.3333333,0,0,1.3333333,81.402667,87.814667)" />
  </g>
</svg>
