<?xml version="1.0" encoding="UTF-8" standalone="no"?>
<!-- Created with Inkscape (http://www.inkscape.org/) -->

<svg
   version="1.1"
   id="svg1"
   width="325.97333"
   height="136.60001"
   viewBox="0 0 325.97333 136.60001"
   sodipodi:docname="24-25-2-大学物理D-期末-题图4.pdf"
   xmlns:inkscape="http://www.inkscape.org/namespaces/inkscape"
   xmlns:sodipodi="http://sodipodi.sourceforge.net/DTD/sodipodi-0.dtd"
   xmlns="http://www.w3.org/2000/svg"
   xmlns:svg="http://www.w3.org/2000/svg">
  <defs
     id="defs1" />
  <sodipodi:namedview
     id="namedview1"
     pagecolor="#ffffff"
     bordercolor="#111111"
     borderopacity="1"
     inkscape:showpageshadow="0"
     inkscape:pageopacity="0"
     inkscape:pagecheckerboard="1"
     inkscape:deskcolor="#d1d1d1">
    <inkscape:page
       x="0"
       y="0"
       inkscape:label="1"
       id="page1"
       width="325.97333"
       height="136.60001"
       margin="0"
       bleed="0" />
  </sodipodi:namedview>
  <g
     id="g1"
     inkscape:groupmode="layer"
     inkscape:label="1">
    <path
       id="path1"
       d="M -170.08087,0 H 67.63383"
       style="fill:none;stroke:#000000;stroke-width:0.3985;stroke-linecap:butt;stroke-linejoin:miter;stroke-miterlimit:10;stroke-dasharray:none;stroke-opacity:1"
       transform="matrix(1.3333333,0,0,-1.3333333,227.03733,68.302667)" />
    <path
       id="path2"
       d="M -2.07224,2.39104 C -1.69365,0.95639 -0.84999,0.27895 0,0 -0.84999,-0.27895 -1.69365,-0.95639 -2.07224,-2.39104"
       style="fill:none;stroke:#000000;stroke-width:0.3985;stroke-linecap:round;stroke-linejoin:round;stroke-miterlimit:10;stroke-dasharray:none;stroke-opacity:1"
       transform="matrix(1.3333333,0,0,-1.3333333,317.48144,68.302667)" />
    <path
       id="path3"
       d="m 3.3270391,-3.0115859 c 0.058594,-0.2578125 0.2929687,-1.171875 0.984375,-1.171875 0.046875,0 0.2929687,0 0.5039062,0.1289062 -0.28125,0.046875 -0.4804687,0.3046875 -0.4804687,0.5390625 0,0.1640625 0.1054687,0.3515625 0.375,0.3515625 0.2226562,0 0.5390625,-0.1875 0.5390625,-0.5859375 0,-0.515625 -0.5859375,-0.65625 -0.9257813,-0.65625 -0.5742187,0 -0.9257812,0.5273438 -1.0429687,0.7617188 -0.2578125,-0.65625 -0.7851563,-0.7617188 -1.078125,-0.7617188 -1.0429688,0 -1.60546879,1.2890625 -1.60546879,1.5351563 0,0.1054687 0.10546875,0.1054687 0.1171875,0.1054687 0.0820313,0 0.1171875,-0.023437 0.12890625,-0.1171875 0.33984374,-1.0546875 0.99609374,-1.3007812 1.33593754,-1.3007812 0.1875,0 0.5390625,0.09375 0.5390625,0.6679687 0,0.3046875 -0.1640625,0.9726563 -0.5390625,2.3671875 -0.1523438,0.62109376 -0.5039063,1.04296876 -0.9492188,1.04296876 -0.058594,0 -0.28124999,0 -0.49218749,-0.12890625 0.24609375,-0.0585938 0.46874999,-0.26953125 0.46874999,-0.5390625 0,-0.26953121 -0.22265624,-0.35156251 -0.37499999,-0.35156251 -0.29296875,0 -0.5390625,0.25781251 -0.5390625,0.57421876 0,0.45703125 0.4921875,0.65625 0.93749999,0.65625 0.65625,0 1.0078125,-0.69140625 1.0429688,-0.75 0.1171875,0.36328125 0.4804687,0.75 1.078125,0.75 1.0195312,0 1.59375,-1.27734376 1.59375,-1.53515626 0,-0.09375 -0.09375,-0.09375 -0.1289063,-0.09375 -0.082031,0 -0.1054687,0.035156 -0.1289062,0.1054688 -0.328125,1.06640621 -0.9960938,1.31249996 -1.3242188,1.31249996 -0.3867187,0 -0.5390625,-0.328125 -0.5390625,-0.65625 0,-0.22265625 0.058594,-0.44531246 0.1640625,-0.87890626 z m 0,0"
       style="fill:#000000;fill-opacity:1;fill-rule:nonzero;stroke:none"
       aria-label="x"
       transform="matrix(1.3333333,0,0,1.3333333,313.95067,78.714667)" />
    <path
       id="path4"
       d="M 0,-51.02425 V 51.02425"
       style="fill:none;stroke:#000000;stroke-width:0.3985;stroke-linecap:butt;stroke-linejoin:miter;stroke-miterlimit:10;stroke-dasharray:none;stroke-opacity:1"
       transform="matrix(1.3333333,0,0,-1.3333333,227.03733,68.302667)" />
    <path
       id="path5"
       d="m -136.0647,0 0.6836,-1.07286 0.68359,-1.07286 0.68358,-1.07027 0.68358,-1.06717 0.68358,-1.06247 0.68359,-1.05833 0.68358,-1.05057 0.68358,-1.04379 0.68359,-1.03551 0.68358,-1.02614 0.68358,-1.01526 0.68357,-1.00279 0.6836,-0.99138 0.6836,-0.97789 0.68356,-0.96386 0.68359,-0.94725 0.68358,-0.93168 0.68357,-0.91354 0.68359,-0.89534 0.68359,-0.87668 0.68359,-0.85746 0.68357,-0.83565 0.68359,-0.81335 0.68358,-0.79154 0.68358,-0.76872 0.68358,-0.74482 0.68359,-0.71888 0.68359,-0.69344 0.68357,-0.66803 0.68359,-0.64102 0.68358,-0.61351 0.68359,-0.58548 0.68358,-0.55589 0.68358,-0.52683 0.68359,-0.49777 0.68357,-0.46817 0.68359,-0.436 0.68358,-0.40487 0.68359,-0.3737 0.68358,-0.34206 0.68358,-0.30934 0.68359,-0.27769 0.68357,-0.24344 0.68359,-0.2102 0.68359,-0.17753 0.68358,-0.1443 0.68358,-0.11107 0.68358,-0.07579 0.6836,-0.04202 0.68356,-0.0094 0.68359,0.02492 0.68359,0.05864 0.68358,0.09241 0.68358,0.12717 0.68358,0.15985 0.68359,0.1936 0.6836,0.22632 0.68356,0.25952 0.68359,0.29326 0.68358,0.3244 0.68358,0.3571 0.68358,0.38825 0.68359,0.4199 0.6836,0.45211 0.68356,0.48167 0.68359,0.51177 0.68358,0.54084 0.68358,0.56938 0.68359,0.59952 0.68358,0.627 0.6836,0.65347 0.68356,0.68047 0.68359,0.7059 0.68358,0.73082 0.68358,0.75678 0.68359,0.77908 0.68358,0.80192 0.68359,0.82477 0.68357,0.84553 0.68359,0.86732 0.6836,0.8855 0.68358,0.90469 0.68357,0.92183 0.68359,0.93947 0.68359,0.95505 0.68356,0.97062 0.68359,0.9841 0.6836,0.99709 0.68358,1.00902 0.68358,1.02096 0.68357,1.03031 0.6836,1.04017 0.68357,1.04692 0.68358,1.05417 0.6836,1.06041 0.68358,1.06508 0.68357,1.06873 0.68358,1.0713 0.6836,1.07286 0.68357,1.07336 0.68358,1.07287 0.6836,1.07131 0.68358,1.06923 0.68357,1.06508 0.6836,1.06093 0.68358,1.0547 0.68359,1.04692 0.68356,1.04017 0.6836,1.03133 0.68358,1.02097 0.68357,1.00955 0.6836,0.99761 0.68357,0.98515 0.6836,0.97062 0.68356,0.9566 0.6836,0.93997 0.68358,0.92287 0.68357,0.90522 0.6836,0.88652 0.68358,0.86838 0.68359,0.84552 0.68356,0.82631 0.6836,0.80298 0.68359,0.78064 0.68357,0.75781 0.68359,0.73186 0.68358,0.70694 0.68359,0.6815 0.68356,0.65555 0.6836,0.62752 0.68359,0.60054 0.68358,0.57095 0.68358,0.54241 0.68358,0.51333 0.68359,0.48323 0.68358,0.45315 0.68358,0.42092 0.68359,0.3898 0.68358,0.3592 0.68358,0.32595 0.68358,0.29482 0.68359,0.26056 0.68358,0.22785 0.68358,0.19518 0.68359,0.16141 0.68358,0.12924 0.68358,0.09345 0.68359,0.05967 0.68358,0.027 0.68358,-0.0073 0.68358,-0.04049 0.68359,-0.07526 0.68358,-0.10899 0.68357,-0.14327 0.6836,-0.17491 0.68358,-0.20918 0.68359,-0.24187 0.68357,-0.27666 0.68359,-0.30778 0.68359,-0.33998 0.68357,-0.37216 0.68359,-0.40329 0.68358,-0.43549 0.68359,-0.4661 0.68357,-0.49621 0.68359,-0.52579 0.68359,-0.55434 0.68357,-0.58392 0.68359,-0.61301 0.68358,-0.63946 0.68359,-0.66644 0.68358,-0.6919 0.68358,-0.71888 0.68359,-0.74328 0.68357,-0.76715 0.68359,-0.79049 0.68358,-0.81231 0.68359,-0.83515 0.68358,-0.85642 0.68358,-0.87564 0.68359,-0.89482 0.68358,-0.91249 0.68358,-0.93013 0.68359,-0.94777 0.68359,-0.96231 0.68357,-0.97737 0.68358,-0.99033 0.68359,-1.00281 0.68358,-1.01524 0.68358,-1.02564 0.6836,-1.03498 0.68357,-1.04276 0.68358,-1.05107 0.68358,-1.05678 0.68359,-1.06352 0.6836,-1.06664 0.68356,-1.06974 0.68359,-1.07288 0.68358,-1.07339"
       style="fill:none;stroke:#000000;stroke-width:0.3985;stroke-linecap:butt;stroke-linejoin:miter;stroke-miterlimit:10;stroke-dasharray:none;stroke-opacity:1"
       transform="matrix(1.3333333,0,0,-1.3333333,227.03733,68.302667)" />
    <path
       id="path6"
       d="M -34.01617,0 V 3.40181"
       style="fill:none;stroke:#000000;stroke-width:0.3985;stroke-linecap:butt;stroke-linejoin:miter;stroke-miterlimit:10;stroke-dasharray:none;stroke-opacity:1"
       transform="matrix(1.3333333,0,0,-1.3333333,227.03733,68.302667)" />
    <path
       id="path7"
       d="M -68.03235,0 V 3.40181"
       style="fill:none;stroke:#000000;stroke-width:0.3985;stroke-linecap:butt;stroke-linejoin:miter;stroke-miterlimit:10;stroke-dasharray:none;stroke-opacity:1"
       transform="matrix(1.3333333,0,0,-1.3333333,227.03733,68.302667)" />
    <path
       id="path8"
       d="M -102.04852,0 V 3.40181"
       style="fill:none;stroke:#000000;stroke-width:0.3985;stroke-linecap:butt;stroke-linejoin:miter;stroke-miterlimit:10;stroke-dasharray:none;stroke-opacity:1"
       transform="matrix(1.3333333,0,0,-1.3333333,227.03733,68.302667)" />
    <path
       id="path9"
       d="M -136.0647,0 V 3.40181"
       style="fill:none;stroke:#000000;stroke-width:0.3985;stroke-linecap:butt;stroke-linejoin:miter;stroke-miterlimit:10;stroke-dasharray:none;stroke-opacity:1"
       transform="matrix(1.3333333,0,0,-1.3333333,227.03733,68.302667)" />
    <path
       id="path10"
       d="M -170.08087,0 V 3.40181"
       style="fill:none;stroke:#000000;stroke-width:0.3985;stroke-linecap:butt;stroke-linejoin:miter;stroke-miterlimit:10;stroke-dasharray:none;stroke-opacity:1"
       transform="matrix(1.3333333,0,0,-1.3333333,227.03733,68.302667)" />
    <path
       id="path11"
       d="m 7.0424531,-3.3527578 c 0,-1.8867188 -1.3476562,-3.4570313 -3.046875,-3.4570313 H 0.35104688 v 0.3164063 h 0.234375 c 0.77343752,0 0.78515622,0.1054687 0.78515622,0.46875 v 5.24999999 c 0,0.3515625 -0.011719,0.46875 -0.78515622,0.46875 h -0.234375 v 0.3046875 H 3.9955781 c 1.6757813,0 3.046875,-1.47656249 3.046875,-3.35156249 z m -0.9960937,0 c 0,1.1132812 -0.1875,1.7109375 -0.5507813,2.1914062 -0.1992187,0.26953129 -0.7617187,0.85546879 -1.7695312,0.85546879 H 2.7182344 c -0.46875,0 -0.4921875,-0.0703125 -0.4921875,-0.3984375 V -6.0949453 c 0,-0.328125 0.023437,-0.3984375 0.4921875,-0.3984375 h 0.9960937 c 0.6210938,0 1.3007813,0.2109375 1.8164063,0.9257812 0.421875,0.5859375 0.515625,1.4414063 0.515625,2.2148438 z m 0,0"
       style="fill:#000000;fill-opacity:1;fill-rule:nonzero;stroke:none"
       aria-label="D"
       transform="matrix(1.3333333,0,0,1.3333333,212.196,82.068)" />
    <path
       id="path12"
       d="m 6.4796172,-1.8280938 c 0,-0.8671875 -0.8085938,-1.6054687 -1.921875,-1.7226562 0.9726562,-0.1992188 1.6523437,-0.8320313 1.6523437,-1.5703125 0,-0.8671875 -0.9140625,-1.6875 -2.203125,-1.6875 H 0.36242969 v 0.3164062 h 0.234375 c 0.76171871,0 0.78515621,0.1054688 0.78515621,0.46875 v 5.25000005 c 0,0.3515625 -0.023437,0.46875 -0.78515621,0.46875 h -0.234375 V 3.125e-5 H 4.2647734 c 1.3242188,0 2.2148438,-0.890625 2.2148438,-1.82812505 z M 5.2491484,-5.1210625 c 0,0.6328125 -0.4921875,1.4765625 -1.59375,1.4765625 H 2.2139922 v -2.4492188 c 0,-0.328125 0.011719,-0.3984375 0.4804687,-0.3984375 h 1.2421875 c 0.9609375,0 1.3125,0.84375 1.3125,1.3710938 z m 0.234375,3.2929687 c 0,0.703125 -0.515625,1.52343755 -1.5351562,1.52343755 H 2.6944609 c -0.46875,0 -0.4804687,-0.0703125 -0.4804687,-0.3984375 V -3.4218438 h 1.875 c 0.984375,0 1.3945312,0.9257813 1.3945312,1.59375 z m 0,0"
       style="fill:#000000;fill-opacity:1;fill-rule:nonzero;stroke:none"
       aria-label="B"
       transform="matrix(1.3333333,0,0,1.3333333,86.270667,63.609333)" />
  </g>
</svg>
