<?xml version="1.0" encoding="UTF-8" standalone="no"?>
<!-- Created with Inkscape (http://www.inkscape.org/) -->

<svg
   version="1.1"
   id="svg1"
   width="170.61333"
   height="51.773335"
   viewBox="0 0 170.61333 51.773335"
   sodipodi:docname="24-25-2-大学物理D-期末-题图1.4.pdf"
   xmlns:inkscape="http://www.inkscape.org/namespaces/inkscape"
   xmlns:sodipodi="http://sodipodi.sourceforge.net/DTD/sodipodi-0.dtd"
   xmlns="http://www.w3.org/2000/svg"
   xmlns:svg="http://www.w3.org/2000/svg">
  <defs
     id="defs1" />
  <sodipodi:namedview
     id="namedview1"
     pagecolor="#ffffff"
     bordercolor="#111111"
     borderopacity="1"
     inkscape:showpageshadow="0"
     inkscape:pageopacity="0"
     inkscape:pagecheckerboard="1"
     inkscape:deskcolor="#d1d1d1">
    <inkscape:page
       x="0"
       y="0"
       inkscape:label="1"
       id="page1"
       width="170.61333"
       height="51.773335"
       margin="0"
       bleed="0" />
  </sodipodi:namedview>
  <g
     id="g1"
     inkscape:groupmode="layer"
     inkscape:label="1">
    <path
       id="path1"
       d="M 0,0 H 127.56065"
       style="fill:none;stroke:#000000;stroke-width:0.3985;stroke-linecap:butt;stroke-linejoin:miter;stroke-miterlimit:10;stroke-dasharray:none;stroke-opacity:1"
       transform="matrix(1.3333333,0,0,-1.3333333,0.26533333,46.104)" />
    <path
       id="path2"
       d="M 0,0 V -4.25226 H 127.56065 V 0 Z"
       style="fill:#808080;fill-opacity:1;fill-rule:nonzero;stroke:none"
       transform="matrix(1.3333333,0,0,-1.3333333,0.26533333,46.104)" />
    <path
       id="path3"
       d="m 25.51237,10.63004 h 2.83486 l 1.49441,2.49069 2.98883,-4.98139 2.98883,4.98139 2.98884,-4.98139 2.98883,4.98139 2.98883,-4.98139 2.98883,4.98139 2.98883,-4.98139 2.98883,4.98139 2.98883,-4.98139 2.98883,4.98139 2.98883,-4.98139 2.98883,4.98139 2.98883,-4.98139 2.98883,4.98139 2.98883,-4.98139 1.49442,2.4907 v 0 h 4.61964"
       style="fill:none;stroke:#000000;stroke-width:0.79701;stroke-linecap:butt;stroke-linejoin:miter;stroke-miterlimit:10;stroke-dasharray:none;stroke-opacity:1"
       transform="matrix(1.3333333,0,0,-1.3333333,0.26533333,46.104)" />
    <path
       id="path4"
       d="m 4.25226,0 v 21.2601 h 21.2601 V 0 Z"
       style="fill:#bfbfbf;fill-opacity:1;fill-rule:nonzero;stroke:#000000;stroke-width:0.3985;stroke-linecap:butt;stroke-linejoin:miter;stroke-miterlimit:10;stroke-dasharray:none;stroke-opacity:1"
       transform="matrix(1.3333333,0,0,-1.3333333,0.26533333,46.104)" />
    <path
       id="path5"
       d="M 7.1354688,6.25e-4 V -0.3040625 H 6.9596875 c -0.5976562,0 -0.7382812,-0.0703125 -0.84375,-0.3984375 l -2.15625,-6.234375 c -0.046875,-0.1289063 -0.070312,-0.1992188 -0.2226562,-0.1992188 -0.1640625,0 -0.1875,0.058594 -0.2460938,0.1992188 l -2.0625,5.96484375 C 1.2526563,-0.468125 0.85421875,-0.31578125 0.31515625,-0.3040625 V 6.25e-4 L 1.3346875,-0.03453125 2.483125,6.25e-4 v -0.3046875 c -0.5039062,0 -0.75,-0.2578125 -0.75,-0.515625 0,-0.0234375 0.011719,-0.12890625 0.023437,-0.140625 l 0.4570313,-1.3125 h 2.460938 L 5.201875,-0.749375 c 0.011719,0.046875 0.023437,0.10546875 0.023437,0.140625 0,0.3046875 -0.5507812,0.3046875 -0.8203125,0.3046875 V 6.25e-4 c 0.351563,-0.03515625 1.054688,-0.03515625 1.429688,-0.03515625 z M 4.5573438,-2.5775 H 2.3190625 l 1.1132813,-3.234375 z m 0,0"
       style="fill:#000000;fill-opacity:1;fill-rule:nonzero;stroke:none"
       aria-label="A"
       transform="matrix(1.3333333,0,0,1.3333333,15.126667,36.686667)" />
    <path
       id="path6"
       d="M 8.5039,21.2601 V 34.0163 H 21.2601 V 21.2601 Z"
       style="fill:#bfbfbf;fill-opacity:1;fill-rule:nonzero;stroke:#000000;stroke-width:0.3985;stroke-linecap:butt;stroke-linejoin:miter;stroke-miterlimit:10;stroke-dasharray:none;stroke-opacity:1"
       transform="matrix(1.3333333,0,0,-1.3333333,0.26533333,46.104)" />
    <path
       id="path7"
       d="m 6.6214688,-2.3205156 c 0,-0.1054688 0,-0.1757813 -0.1289063,-0.1757813 -0.1054687,0 -0.1054687,0.070312 -0.1171875,0.1640625 -0.082031,1.42968753 -1.1484375,2.23828128 -2.2265625,2.23828128 -0.609375,0 -2.5664062,-0.33984375 -2.5664062,-3.30468748 0,-2.9765625 1.9453125,-3.3164063 2.5546875,-3.3164063 1.078125,0 1.96875,0.9023438 2.1679687,2.3671875 0.023437,0.1289063 0.023437,0.1640625 0.1640625,0.1640625 0.1523438,0 0.1523438,-0.035156 0.1523438,-0.234375 v -2.3671875 c 0,-0.1640625 0,-0.234375 -0.1054688,-0.234375 -0.035156,0 -0.082031,0 -0.1640625,0.1171875 L 5.85975,-6.1642656 c -0.375,-0.3632813 -0.8789062,-0.8554688 -1.8398437,-0.8554688 -1.8632813,0 -3.4570313,1.5820313 -3.4570313,3.609375 0,2.0625 1.6054688,3.63281253 3.4570313,3.63281253 1.6289062,0 2.6015625,-1.38281253 2.6015625,-2.54296873 z m 0,0"
       style="fill:#000000;fill-opacity:1;fill-rule:nonzero;stroke:none"
       aria-label="C"
       transform="matrix(1.3333333,0,0,1.3333333,15.312,13.789333)" />
    <path
       id="path8"
       d="m 80.78816,0 v 21.2601 h 21.2601 V 0 Z"
       style="fill:#bfbfbf;fill-opacity:1;fill-rule:nonzero;stroke:#000000;stroke-width:0.3985;stroke-linecap:butt;stroke-linejoin:miter;stroke-miterlimit:10;stroke-dasharray:none;stroke-opacity:1"
       transform="matrix(1.3333333,0,0,-1.3333333,0.26533333,46.104)" />
    <path
       id="path9"
       d="m 6.4803125,-1.8294922 c 0,-0.8671875 -0.8085937,-1.6054687 -1.921875,-1.7226562 0.9726563,-0.1992188 1.6523438,-0.8320313 1.6523438,-1.5703125 0,-0.8671875 -0.9140625,-1.6875 -2.203125,-1.6875 H 0.363125 v 0.3164062 H 0.5975 c 0.7617188,0 0.7851563,0.1054688 0.7851563,0.46875 v 5.25000001 c 0,0.3515625 -0.023437,0.46875 -0.7851563,0.46875 H 0.363125 v 0.3046875 h 3.9023438 c 1.3242187,0 2.2148437,-0.890625 2.2148437,-1.82812501 z M 5.2498438,-5.1224609 c 0,0.6328125 -0.4921875,1.4765625 -1.59375,1.4765625 H 2.2146875 v -2.4492188 c 0,-0.328125 0.011719,-0.3984375 0.4804688,-0.3984375 h 1.2421875 c 0.9609375,0 1.3125,0.84375 1.3125,1.3710938 z m 0.234375,3.2929687 c 0,0.703125 -0.515625,1.52343751 -1.5351563,1.52343751 H 2.6951563 c -0.46875,0 -0.4804688,-0.0703125 -0.4804688,-0.3984375 V -3.4232422 h 1.875 c 0.984375,0 1.3945313,0.9257813 1.3945313,1.59375 z m 0,0"
       style="fill:#000000;fill-opacity:1;fill-rule:nonzero;stroke:none"
       aria-label="B"
       transform="matrix(1.3333333,0,0,1.3333333,117.45333,36.466667)" />
    <path
       id="path10"
       d="M 85.04044,21.2601 V 34.0163 H 97.79663 V 21.2601 Z"
       style="fill:#bfbfbf;fill-opacity:1;fill-rule:nonzero;stroke:#000000;stroke-width:0.3985;stroke-linecap:butt;stroke-linejoin:miter;stroke-miterlimit:10;stroke-dasharray:none;stroke-opacity:1"
       transform="matrix(1.3333333,0,0,-1.3333333,0.26533333,46.104)" />
    <path
       id="path11"
       d="m 7.0424922,-3.3517656 c 0,-1.8867188 -1.3476563,-3.4570313 -3.046875,-3.4570313 H 0.35108594 v 0.3164063 h 0.234375 c 0.77343746,0 0.78515626,0.1054687 0.78515626,0.46875 v 5.24999998 c 0,0.3515625 -0.011719,0.46875 -0.78515626,0.46875 h -0.234375 V -2.03125e-4 H 3.9956172 c 1.6757812,0 3.046875,-1.476562475 3.046875,-3.351562475 z m -0.9960938,0 c 0,1.1132812 -0.1875,1.7109375 -0.5507812,2.1914062 -0.1992188,0.26953128 -0.7617188,0.85546878 -1.7695313,0.85546878 H 2.7182734 c -0.46875,0 -0.4921875,-0.0703125 -0.4921875,-0.3984375 V -6.0939531 c 0,-0.328125 0.023437,-0.3984375 0.4921875,-0.3984375 h 0.9960938 c 0.6210937,0 1.3007812,0.2109375 1.8164062,0.9257812 0.421875,0.5859375 0.515625,1.4414063 0.515625,2.2148438 z m 0,0"
       style="fill:#000000;fill-opacity:1;fill-rule:nonzero;stroke:none"
       aria-label="D"
       transform="matrix(1.3333333,0,0,1.3333333,117.08267,13.789333)" />
  </g>
</svg>
