<?xml version="1.0" encoding="UTF-8" standalone="no"?>
<!-- Created with Inkscape (http://www.inkscape.org/) -->

<svg
   version="1.1"
   id="svg1"
   width="308.66666"
   height="140.24001"
   viewBox="0 0 308.66666 140.24001"
   sodipodi:docname="23-24-2-电路与电子学基础-期末（A卷）-题图2.1.pdf"
   xmlns:inkscape="http://www.inkscape.org/namespaces/inkscape"
   xmlns:sodipodi="http://sodipodi.sourceforge.net/DTD/sodipodi-0.dtd"
   xmlns="http://www.w3.org/2000/svg"
   xmlns:svg="http://www.w3.org/2000/svg">
  <defs
     id="defs1" />
  <sodipodi:namedview
     id="namedview1"
     pagecolor="#ffffff"
     bordercolor="#000000"
     borderopacity="0.25"
     inkscape:showpageshadow="2"
     inkscape:pageopacity="0.0"
     inkscape:pagecheckerboard="0"
     inkscape:deskcolor="#d1d1d1">
    <inkscape:page
       x="0"
       y="0"
       inkscape:label="1"
       id="page1"
       width="308.66666"
       height="140.24001"
       margin="0"
       bleed="0" />
  </sodipodi:namedview>
  <g
     id="g1"
     inkscape:groupmode="layer"
     inkscape:label="1">
    <path
       id="path1"
       d="M 70.86703,0 H 0 m 0,35.4335 35.4335,-1e-5 m 0,0 35.43353,1e-5"
       style="fill:none;stroke:#000000;stroke-width:0.3985;stroke-linecap:butt;stroke-linejoin:miter;stroke-miterlimit:10;stroke-dasharray:none;stroke-opacity:1"
       transform="matrix(1.3333333,0,0,-1.3333333,6.4586667,81.933333)" />
    <path
       id="path2"
       d="M 1.58714,0 C 1.58714,0.87656 0.87656,1.58714 0,1.58714 -0.87656,1.58714 -1.58714,0.87656 -1.58714,0 c 0,-0.87656 0.71058,-1.58714 1.58714,-1.58714 0.87656,0 1.58714,0.71058 1.58714,1.58714 z"
       style="fill:#ffffff;fill-opacity:1;fill-rule:nonzero;stroke:#000000;stroke-width:0.3985;stroke-linecap:butt;stroke-linejoin:miter;stroke-miterlimit:10;stroke-dasharray:none;stroke-opacity:1"
       transform="matrix(1.3333333,0,0,-1.3333333,6.4586667,81.933333)" />
    <path
       id="path3"
       d="m 1.58714,35.4335 c 0,0.87657 -0.71058,1.58716 -1.58714,1.58716 -0.87656,0 -1.58714,-0.71059 -1.58714,-1.58716 0,-0.87655 0.71058,-1.58714 1.58714,-1.58714 0.87656,0 1.58714,0.71059 1.58714,1.58714 z"
       style="fill:#ffffff;fill-opacity:1;fill-rule:nonzero;stroke:#000000;stroke-width:0.3985;stroke-linecap:butt;stroke-linejoin:miter;stroke-miterlimit:10;stroke-dasharray:none;stroke-opacity:1"
       transform="matrix(1.3333333,0,0,-1.3333333,6.4586667,81.933333)" />
    <path
       id="path4"
       d="m 6.5622266,-2.2960937 c 0.1757812,0 0.3515625,0 0.3515625,-0.1992188 0,-0.1992187 -0.1757813,-0.1992187 -0.3515625,-0.1992187 h -5.390625 c -0.1640625,0 -0.33984379,0 -0.33984379,0.1992187 0,0.1992188 0.17578129,0.1992188 0.33984379,0.1992188 z m 0,0"
       style="fill:#000000;fill-opacity:1;fill-rule:nonzero;stroke:none"
       aria-label="−"
       transform="matrix(1.3333333,0,0,1.3333333,1.2933333,78.233333)" />
    <path
       id="path5"
       d="m 4.0778516,-2.2964375 h 2.7773437 c 0.140625,0 0.328125,0 0.328125,-0.1992187 0,-0.1992188 -0.1875,-0.1992188 -0.328125,-0.1992188 H 4.0778516 v -2.7890625 c 0,-0.1289062 0,-0.328125 -0.1992188,-0.328125 -0.1992187,0 -0.1992187,0.1992188 -0.1992187,0.328125 V -2.694875 H 0.89035156 c -0.140625,0 -0.328125,0 -0.328125,0.1992188 0,0.1992187 0.1875,0.1992187 0.328125,0.1992187 H 3.6794141 v 2.80078125 c 0,0.12890625 0,0.328125 0.1992187,0.328125 0.1992188,0 0.1992188,-0.19921875 0.1992188,-0.328125 z m 0,0"
       style="fill:#000000;fill-opacity:1;fill-rule:nonzero;stroke:none"
       aria-label="+"
       transform="matrix(1.3333333,0,0,1.3333333,1.2933333,45.030667)" />
    <path
       id="path6"
       d="M 3.492375,-0.56159375 C 3.5978437,-0.1514375 3.9494062,0.106375 4.3712812,0.106375 c 0.3515625,0 0.5742188,-0.22265625 0.7382813,-0.5390625 0.1757812,-0.36328125 0.3046875,-0.9726562 0.3046875,-0.9960937 0,-0.09375 -0.09375,-0.09375 -0.1289063,-0.09375 -0.09375,0 -0.1054687,0.035156 -0.140625,0.1757812 -0.1289062,0.5625 -0.328125,1.2421875 -0.7382812,1.2421875 -0.2109375,0 -0.3164063,-0.12890625 -0.3164063,-0.45703125 C 4.0900312,-0.78425 4.2189375,-1.253 4.28925,-1.6045625 l 0.28125,-1.078125 c 0.035156,-0.140625 0.1289062,-0.5273438 0.1757812,-0.6679688 0.046875,-0.234375 0.140625,-0.609375 0.140625,-0.6679687 0,-0.1875 -0.140625,-0.2695312 -0.28125,-0.2695312 -0.058594,0 -0.3164062,0 -0.3867187,0.3398437 -0.1992188,0.7265625 -0.6328125,2.4726563 -0.75,3 -0.011719,0.046875 -0.4101563,0.84375 -1.1367188,0.84375 -0.515625,0 -0.6210937,-0.45703125 -0.6210937,-0.8203125 0,-0.5625 0.28125,-1.3476563 0.5390625,-2.0273438 0.1171875,-0.3046875 0.1757812,-0.4453125 0.1757812,-0.6328125 0,-0.4453124 -0.328125,-0.8203124 -0.8203125,-0.8203124 -0.9492187,0 -1.31249995,1.4531249 -1.31249995,1.5351562 0,0.1054687 0.09375,0.1054687 0.1171875,0.1054687 0.09375,0 0.10546875,-0.023437 0.15234375,-0.1875 C 0.8205,-3.8194063 1.1955,-4.1826875 1.5705,-4.1826875 c 0.09375,0 0.2578125,0.011719 0.2578125,0.328125 0,0.234375 -0.1171875,0.5273437 -0.1757813,0.6796875 -0.3632812,0.984375 -0.5742187,1.6054688 -0.5742187,2.0859375 0,0.94921875 0.6796875,1.1953125 1.21875,1.1953125 0.65625,0 1.0195312,-0.4453125 1.1953125,-0.66796875 z m 0,0"
       style="fill:#000000;fill-opacity:1;fill-rule:nonzero;stroke:none"
       aria-label="u"
       transform="matrix(1.3333333,0,0,1.3333333,2.656,61.170667)" />
    <path
       id="path7"
       d="m 37.16972,35.43349 v 1.98425 l -4.21653,-1.98425 4.21653,-1.98426 z"
       style="fill:#000000;fill-opacity:1;fill-rule:nonzero;stroke:#000000;stroke-width:0.3985;stroke-linecap:butt;stroke-linejoin:miter;stroke-miterlimit:10;stroke-dasharray:none;stroke-opacity:1"
       transform="matrix(1.3333333,0,0,-1.3333333,6.4586667,81.933333)" />
    <path
       id="path8"
       d="m 2.8237656,-6.2212578 c 0,-0.1992188 -0.1289062,-0.3632813 -0.3632812,-0.3632813 -0.2695313,0 -0.5390625,0.2578125 -0.5390625,0.5273438 0,0.1875 0.140625,0.3632812 0.375,0.3632812 0.234375,0 0.5273437,-0.234375 0.5273437,-0.5273437 z m -0.75,3.7382812 c 0.1171875,-0.28125 0.1171875,-0.3046875 0.2226563,-0.5742187 0.070312,-0.1992188 0.1289062,-0.3398438 0.1289062,-0.5273438 0,-0.4453125 -0.328125,-0.8203125 -0.8203125,-0.8203125 -0.93749998,0 -1.31249998,1.453125 -1.31249998,1.5351563 0,0.1054687 0.09375,0.1054687 0.1171875,0.1054687 0.09375,0 0.10546875,-0.023437 0.15234375,-0.1875 0.26953125,-0.9375 0.66796873,-1.2304687 1.00781253,-1.2304687 0.082031,0 0.2578125,0 0.2578125,0.3164062 0,0.2109375 -0.070312,0.421875 -0.1171875,0.515625 -0.082031,0.2578125 -0.5273438,1.4179688 -0.6796875,1.8515625 -0.10546878,0.2578125 -0.23437503,0.58593754 -0.23437503,0.79687504 0,0.46875 0.33984373,0.80859375 0.82031253,0.80859375 0.9375,0 1.3007812,-1.44140629 1.3007812,-1.53515629 0,-0.09375 -0.09375,-0.09375 -0.1171875,-0.09375 -0.1054687,0 -0.1054687,0.023437 -0.1523437,0.1757813 -0.1757813,0.63281249 -0.5039063,1.24218749 -1.0195313,1.24218749 -0.1640625,0 -0.234375,-0.10546875 -0.234375,-0.328125 0,-0.2578125 0.058594,-0.3984375 0.2929688,-0.99609379 z m 0,0"
       style="fill:#000000;fill-opacity:1;fill-rule:nonzero;stroke:none"
       aria-label="i"
       transform="matrix(1.3333333,0,0,1.3333333,51.414667,48.142667)" />
    <path
       id="path9"
       d="M 70.86703,-14.17317 V 49.6067 h 35.43352 v -63.77987 z"
       style="fill:none;stroke:#000000;stroke-width:0.3985;stroke-linecap:butt;stroke-linejoin:miter;stroke-miterlimit:10;stroke-dasharray:none;stroke-opacity:1"
       transform="matrix(1.3333333,0,0,-1.3333333,6.4586667,81.933333)" />
    <path
       id="path10"
       d="m 3.4324609,-3.3529766 -0.28125,0.3164063 c -0.2460937,0.28125 -0.6445312,0.6328125 -1.1953125,1.03125 -0.5390625,0.3984375 -1.13671871,0.7382812 -1.76953121,1.03124999 l 0.0234375,0.140625 c 0.3515625,-0.10546875 0.62109375,-0.19921879 0.82031251,-0.28124999 0.1992187,-0.09375 0.4335937,-0.1875 0.6796875,-0.3164063 V 0.76030469 L 1.6629297,1.6860859 1.9910547,1.5688984 c 0.082031,-0.011719 0.1171875,-0.011719 0.140625,-0.035156 0.023437,0 0.070312,-0.035156 0.1171875,-0.070312 V 0.73686719 H 3.7137109 V 1.4517109 c 0.2226563,-0.046875 0.3515625,-0.082031 0.3867188,-0.09375 0.046875,0 0.1171875,-0.035156 0.2226562,-0.070312 l -0.046875,-0.76171871 -0.011719,-1.76953129 0.2109375,-0.1875 c 0.046875,-0.046875 0.070312,-0.070312 0.070312,-0.082031 0,-0.023437 -0.046875,-0.058594 -0.1289063,-0.1171875 l -0.5273437,-0.3632813 -0.3046875,0.4101563 -1.265625,-0.011719 -0.140625,-0.082031 0.2460937,-0.1757813 0.4921875,-0.328125 c 0.3398438,-0.2578125 0.75,-0.65625 1.21875,-1.1835937 l 1.7578125,0.011719 0.421875,0.5507813 c 0.035156,0.058594 0.1640625,0.1757812 0.375,0.375 0.2109375,0.1757812 0.5273438,0.3867187 0.9375,0.6328125 l -0.1757812,0.1640625 h -1.3125 l -0.6445313,-0.3398438 0.046875,0.9375 V 0.58452344 L 5.4949609,1.6274922 C 5.7644922,1.5571797 5.9402734,1.4868672 6.0457422,1.3931172 V 0.73686719 h 1.546875 V 1.4165547 l 0.082031,-0.046875 0.234375,-0.070312 c 0.070312,-0.035156 0.1640625,-0.070312 0.2695313,-0.140625 L 8.1316797,0.45561719 V -1.2084453 l 0.1171875,-0.09375 c 0.023437,-0.023437 0.046875,-0.046875 0.058594,-0.058594 0.011719,-0.023437 -0.035156,-0.070312 -0.1054687,-0.1171875 0.1171875,0.046875 0.3398437,0.140625 0.703125,0.2929688 0.09375,-0.1757813 0.1640625,-0.2929688 0.2226562,-0.328125 l 0.2460938,-0.1171875 c 0.09375,-0.046875 0.1992187,-0.070312 0.2929687,-0.070312 l 0.023437,-0.1289063 C 9.0223047,-1.8998516 8.3894922,-2.0404766 7.7918359,-2.2748516 7.1824609,-2.5092266 6.7840234,-2.7201641 6.5965234,-2.8959453 6.4090234,-3.0717266 6.2449609,-3.2240703 6.1394922,-3.3529766 h 3.1289062 c 0.09375,0 0.1289063,-0.011719 0.1523438,-0.046875 0,-0.023437 -0.023437,-0.070312 -0.082031,-0.1171875 L 8.553555,-4.2084453 8.084805,-3.5873516 H 7.0887109 c 0.1171875,-0.1640625 0.1875,-0.3046875 0.1875,-0.4335937 0,-0.082031 -0.046875,-0.1875 -0.140625,-0.328125 -0.082031,-0.1171875 -0.4335937,-0.2460938 -1.0546875,-0.3632813 l -0.070312,0.09375 c 0.2109375,0.1757813 0.375,0.3164063 0.4804688,0.4453125 0.1171875,0.1289063 0.2226562,0.3164063 0.328125,0.5859375 H 4.3230859 l 0.3046875,-0.421875 0.28125,-0.3515625 c 0.035156,-0.058594 0.09375,-0.1289062 0.1757813,-0.2226562 l 0.2578125,-0.058594 c 0.082031,-0.011719 0.1289062,-0.035156 0.140625,-0.046875 0,-0.023437 -0.046875,-0.058594 -0.140625,-0.1171875 l -0.7382813,-0.46875 -0.1289062,0.328125 c -0.035156,0.1054688 -0.1289063,0.28125 -0.3164063,0.5625 -0.1523437,0.2578125 -0.3398437,0.5273438 -0.5390625,0.796875 H 1.0183984 l -0.73828121,-0.035156 0.33984375,0.421875 C 0.86605469,-3.3061016 1.2058984,-3.3529766 1.6160547,-3.3529766 Z M 2.2488672,0.52592969 V -1.3607891 h 1.4648437 v 1.88671879 z m 3.796875,-0.0234375 V -1.4076641 h 1.546875 v 1.91015629 z m -4.40625,-7.85156249 0.046875,0.7382812 v 1.5351563 l -0.046875,0.75 0.1523437,-0.035156 0.1757813,-0.058594 c 0.082031,-0.035156 0.1640625,-0.070312 0.2460937,-0.140625 v -0.5507813 h 1.5 v 0.4921875 c 0.2929688,-0.070312 0.5039063,-0.140625 0.609375,-0.2109375 l -0.046875,-0.65625 v -1.1484375 l 0.2109375,-0.2109375 c 0.058594,-0.035156 0.082031,-0.058594 0.082031,-0.09375 L 4.4519922,-7.0209453 3.9246484,-7.4311016 3.6199609,-6.9975078 H 2.2723047 Z m 0.5742187,2.0039062 v -1.4179687 h 1.5 v 1.4179687 z m 3.515625,-2.0625 0.046875,0.6914063 v 1.3125 l -0.046875,0.7148437 c 0.1875,-0.058594 0.375,-0.1289062 0.5507813,-0.2109375 v -0.2109375 h 1.640625 v 0.421875 c 0.2929687,-0.1054687 0.4570312,-0.1640625 0.4804687,-0.1757812 0.035156,-0.011719 0.070312,-0.023437 0.09375,-0.058594 l -0.046875,-0.6445312 v -1.1132813 l 0.2226563,-0.1875 c 0.058594,-0.035156 0.082031,-0.070312 0.070312,-0.09375 0,-0.035156 -0.035156,-0.070312 -0.1171875,-0.1289062 l -0.539062,-0.3632811 -0.2929688,0.4453125 -1.3476562,-0.011719 z m 0.5507813,2.0625 v -1.453125 h 1.640625 v 1.453125 z m 3.9169918,3 0.105469,0.09375 0.855469,-1.0898437 c 0.05859,-0.070312 0.234375,-0.328125 0.539062,-0.7617188 v 4.10156254 l -0.07031,1.62890626 c 0.152344,-0.058594 0.375,-0.140625 0.691406,-0.28125 l -0.0586,-1.16015626 V -4.4896953 l 0.257813,-0.1640625 c 0.117187,-0.070312 0.117187,-0.1289063 0,-0.1757813 l -0.339844,-0.1875 0.316406,-0.609375 c 0.09375,-0.2109375 0.304688,-0.65625 0.621094,-1.3710937 l 0.328125,-0.1171875 c 0.03516,-0.011719 0.05859,-0.035156 0.07031,-0.082031 0,-0.035156 -0.03516,-0.082031 -0.117188,-0.1054687 l -0.902344,-0.375 c -0.05859,0.2695312 -0.117187,0.5390625 -0.175781,0.7851562 -0.05859,0.2460938 -0.175781,0.5859375 -0.339844,1.03125 -0.164062,0.4453125 -0.292968,0.7734375 -0.386718,1.0195313 -0.105469,0.2226562 -0.234375,0.5039062 -0.398438,0.8320312 -0.175781,0.328125 -0.316406,0.609375 -0.457031,0.8203125 -0.117188,0.2109375 -0.304688,0.4921875 -0.539063,0.84375 z m 2.554688,-0.1523437 0.421875,0.3984375 0.304687,-0.070312 c 0.140625,-0.046875 0.457032,-0.070312 0.949219,-0.1054688 h 1.851563 V 0.19780519 L 16.208831,1.6978052 C 16.466644,1.6040552 16.6893,1.4985864 16.8768,1.3931177 L 16.841641,0.23296094 V -2.2748516 h 2.683593 c 0.140625,0.011719 0.140625,-0.046875 0.01172,-0.1757812 l -0.691406,-0.65625 -0.480469,0.6210937 h -1.523437 v -2.390625 h 2.308593 c 0.02344,0 0.05859,-0.011719 0.08203,-0.046875 0.03516,-0.023437 0,-0.082031 -0.07031,-0.1523437 l -0.726562,-0.6210938 -0.46875,0.5976563 h -1.125 v -1.7109375 l 0.269531,-0.2460938 c 0.05859,-0.035156 0.07031,-0.082031 0.05859,-0.1054687 0,-0.035156 -0.02344,-0.058594 -0.05859,-0.070312 l -0.914063,-0.3632813 0.08203,1.4414063 v 1.0546875 h -1.441407 l 0.351563,-0.9023438 0.246094,-0.046875 c 0.04687,-0.011719 0.07031,-0.035156 0.07031,-0.046875 -0.01172,-0.046875 -0.05859,-0.082031 -0.175781,-0.140625 l -0.703125,-0.375 c -0.09375,0.5273438 -0.175781,0.9140625 -0.222656,1.171875 -0.05859,0.234375 -0.128907,0.4921875 -0.222657,0.7265625 -0.08203,0.234375 -0.164062,0.4570313 -0.257812,0.6679688 -0.07031,0.1992187 -0.269531,0.5625 -0.5625,1.1015625 l 0.105469,0.1054687 c 0.328125,-0.4570312 0.5625,-0.7851562 0.714843,-1.0195312 0.140625,-0.234375 0.328125,-0.5625 0.550782,-1.0195313 h 1.546875 v 2.390625 h -2.460938 z m 0,0"
       style="fill:#000000;fill-opacity:1;fill-rule:nonzero;stroke:none"
       aria-label="器件"
       transform="matrix(1.3333333,0,0,1.3333333,111.28667,62.302667)" />
    <path
       id="path11"
       d="M 3.80825,2.3426797 C 3.80825,2.2958047 3.773094,2.2372109 3.773094,2.2372109 3.491844,1.9676797 2.835594,1.3583047 2.4254378,0.09267969 2.1559065,-0.70419531 2.038719,-1.6182578 2.038719,-2.4971641 c 0,-1.9570312 0.515625,-3.515625 1.6054688,-4.6289062 0.1523437,-0.1523438 0.1640625,-0.1523438 0.1640625,-0.2109375 0,-0.1054688 -0.1054688,-0.140625 -0.1875,-0.140625 -0.1640625,0 -0.5859375,0.375 -0.7617188,0.5390625 -1.5585937,1.546875 -1.78125,3.3867187 -1.78125,4.4414062 0,1.2421875 0.328125,2.33203129 0.796875,3.16406254 C 2.5309062,1.8153359 3.43325,2.4833047 3.62075,2.4833047 c 0.082031,0 0.1875,-0.035156 0.1875,-0.140625 z m 6.1523437,-2.57812501 c 0,-0.234375 -0.1289062,-0.234375 -0.2578125,-0.234375 -0.609375,-0.0117188 -0.609375,-0.140625 -0.609375,-0.36328125 V -2.9776328 c 0,-0.890625 -0.703125,-1.5351563 -2.1914062,-1.5351563 -0.5625,0 -1.78125,0.035156 -1.78125,0.9140625 0,0.4453125 0.3515625,0.6328125 0.6210937,0.6328125 0.3046875,0 0.6210938,-0.2109375 0.6210938,-0.6328125 0,-0.2929687 -0.1875,-0.46875 -0.2109375,-0.4921875 0.2695312,-0.058594 0.5976562,-0.058594 0.7148437,-0.058594 0.7382813,0 1.0898438,0.4101562 1.0898438,1.171875 v 0.3398437 c -0.703125,0.023437 -3.234375,0.1171875 -3.234375,1.5585938 0,0.96093749 1.2304687,1.13671874 1.921875,1.13671874 0.796875,0 1.265625,-0.41015625 1.4882812,-0.8203125 0,0.3046875 0,0.76171875 1.03125,0.76171875 h 0.4804688 c 0.1992187,0 0.3164062,0 0.3164062,-0.2343747 z M 7.9566875,-1.3838828 c 0,0.94921874 -0.9140625,1.07812499 -1.1601563,1.07812499 -0.515625,0 -0.9140625,-0.33984375 -0.9140625,-0.78515629 0,-1.0664062 1.5820313,-1.2070312 2.0742188,-1.2421875 z m 5.4287105,-1.1132813 c 0,-1.2421875 -0.328125,-2.3320312 -0.796875,-3.1640625 -0.65625,-1.1484375 -1.558593,-1.8164062 -1.746093,-1.8164062 -0.08203,0 -0.1875,0.035156 -0.1875,0.140625 0,0.058594 0,0.070312 0.175781,0.234375 1.253906,1.2773437 1.59375,3.0351562 1.59375,4.6054687 0,1.95703129 -0.503906,3.5273438 -1.605469,4.6289063 -0.152344,0.1523437 -0.164062,0.1640625 -0.164062,0.2109375 0,0.1054687 0.105468,0.140625 0.1875,0.140625 0.164062,0 0.585937,-0.375 0.761718,-0.5390625 1.558594,-1.54687501 1.78125,-3.375 1.78125,-4.4414063 z m 0,0"
       style="fill:#000000;fill-opacity:1;fill-rule:nonzero;stroke:none"
       aria-label="(a)"
       transform="matrix(1.3333333,0,0,1.3333333,91.297333,132.50533)" />
    <path
       id="path12"
       d="m 141.73409,17.71674 h 70.46853"
       style="fill:none;stroke:#000000;stroke-width:0.3985;stroke-linecap:butt;stroke-linejoin:miter;stroke-miterlimit:10;stroke-dasharray:none;stroke-opacity:1"
       transform="matrix(1.3333333,0,0,-1.3333333,6.4586667,81.933333)" />
    <path
       id="path13"
       d="M -2.07224,2.39104 C -1.69365,0.95639 -0.84999,0.27895 0,0 -0.84999,-0.27895 -1.69365,-0.95639 -2.07224,-2.39104"
       style="fill:none;stroke:#000000;stroke-width:0.3985;stroke-linecap:round;stroke-linejoin:round;stroke-miterlimit:10;stroke-dasharray:none;stroke-opacity:1"
       transform="matrix(1.3333333,0,0,-1.3333333,289.66116,58.311013)" />
    <g
       id="g13"
       aria-label="u(V)"
       transform="matrix(1.3333333,0,0,1.3333333,275.608,50.297333)">
      <path
         id="path14"
         d="M 3.4932187,-0.56284375 C 3.5986875,-0.1526875 3.95025,0.105125 4.372125,0.105125 c 0.3515625,0 0.5742187,-0.22265625 0.7382812,-0.5390625 0.1757813,-0.36328125 0.3046875,-0.9726562 0.3046875,-0.9960937 0,-0.09375 -0.09375,-0.09375 -0.1289062,-0.09375 -0.09375,0 -0.1054688,0.035156 -0.140625,0.1757812 -0.1289063,0.5625 -0.328125,1.2421875 -0.7382813,1.2421875 -0.2109375,0 -0.3164062,-0.12890625 -0.3164062,-0.45703125 0,-0.22265625 0.1289062,-0.69140625 0.1992187,-1.04296875 l 0.28125,-1.078125 C 4.6065,-2.8245625 4.70025,-3.2112812 4.747125,-3.3519062 4.794,-3.5862812 4.88775,-3.9612812 4.88775,-4.019875 c 0,-0.1875 -0.140625,-0.2695312 -0.28125,-0.2695312 -0.058594,0 -0.3164063,0 -0.3867188,0.3398437 -0.1992187,0.7265625 -0.6328125,2.4726563 -0.75,3 -0.011719,0.046875 -0.4101562,0.84375 -1.1367187,0.84375 -0.515625,0 -0.6210938,-0.45703125 -0.6210938,-0.8203125 0,-0.5625 0.28125,-1.3476562 0.5390625,-2.0273437 0.1171875,-0.3046875 0.1757813,-0.4453125 0.1757813,-0.6328125 0,-0.4453125 -0.328125,-0.8203125 -0.8203125,-0.8203125 -0.94921875,0 -1.3125,1.453125 -1.3125,1.5351562 0,0.1054688 0.09375,0.1054688 0.1171875,0.1054688 0.09375,0 0.10546875,-0.023437 0.15234375,-0.1875 0.2578125,-0.8671875 0.63281245,-1.2304688 1.00781245,-1.2304688 0.09375,0 0.2578125,0.011719 0.2578125,0.328125 0,0.234375 -0.1171875,0.5273438 -0.1757812,0.6796875 -0.3632813,0.984375 -0.5742188,1.6054688 -0.5742188,2.0859375 0,0.94921875 0.6796875,1.1953125 1.21875,1.1953125 0.65625,0 1.0195313,-0.4453125 1.1953125,-0.66796875 z m 0,0"
         style="fill:#000000;fill-opacity:1;fill-rule:nonzero;stroke:none" />
      <path
         id="path15"
         d="m 8.9951719,2.3902813 c 0,-0.035156 0,-0.046875 -0.1640625,-0.2226563 -1.2421875,-1.25390625 -1.5703125,-3.12890625 -1.5703125,-4.6640625 0,-1.7226562 0.3867187,-3.4570312 1.6054687,-4.7109375 0.1289063,-0.1171875 0.1289063,-0.1289062 0.1289063,-0.1640625 0,-0.070312 -0.035156,-0.1054687 -0.09375,-0.1054687 -0.1054688,0 -0.9960938,0.6796875 -1.5820313,1.9453125 -0.515625,1.1015625 -0.6328125,2.203125 -0.6328125,3.0351562 0,0.7851563 0.1171875,1.9921875 0.65625,3.1171875 0.5976563,1.21875 1.453125,1.875 1.5585938,1.875 0.058594,0 0.09375,-0.035156 0.09375,-0.1054687 z m 0,0"
         style="fill:#000000;fill-opacity:1;fill-rule:nonzero;stroke:none" />
      <path
         id="path16"
         d="m 15.835992,-5.6722187 c 0.480469,-0.7734375 0.902344,-0.8085938 1.277344,-0.8203125 0.117187,-0.011719 0.128906,-0.1875 0.128906,-0.1875 0,-0.082031 -0.05859,-0.1289063 -0.128906,-0.1289063 -0.257813,0 -0.550781,0.035156 -0.820313,0.035156 -0.328125,0 -0.667968,-0.035156 -0.984375,-0.035156 -0.05859,0 -0.1875,0 -0.1875,0.1992188 0,0.1054687 0.08203,0.1171875 0.152344,0.1171875 0.269531,0.011719 0.457031,0.1171875 0.457031,0.328125 0,0.1523437 -0.140625,0.3632812 -0.140625,0.375 l -3.058593,4.8632812 -0.679688,-5.2734375 c 0,-0.1640625 0.222656,-0.2929687 0.679688,-0.2929687 0.140625,0 0.257812,0 0.257812,-0.1992188 0,-0.09375 -0.08203,-0.1171875 -0.140625,-0.1171875 -0.398437,0 -0.832031,0.035156 -1.242187,0.035156 -0.175782,0 -0.363282,-0.011719 -0.539063,-0.011719 -0.1875,0 -0.375,-0.023437 -0.539062,-0.023437 -0.07031,0 -0.1875,0 -0.1875,0.1992188 0,0.1171875 0.08203,0.1171875 0.246093,0.1171875 0.550782,0 0.5625,0.082031 0.597657,0.3398437 l 0.785156,6.140625 c 0.03516,0.19921875 0.07031,0.234375 0.199219,0.234375 0.164062,0 0.199218,-0.0585938 0.28125,-0.1875 z m 0,0"
         style="fill:#000000;fill-opacity:1;fill-rule:nonzero;stroke:none" />
      <path
         id="path17"
         d="m 20.485406,-2.4964375 c 0,-0.7734375 -0.117187,-1.9804687 -0.65625,-3.1054687 -0.597656,-1.21875 -1.464844,-1.875 -1.558594,-1.875 -0.05859,0 -0.105468,0.046875 -0.105468,0.1054687 0,0.035156 0,0.046875 0.199218,0.234375 0.972657,0.984375 1.535157,2.5664063 1.535157,4.640625 0,1.7109375 -0.363282,3.45703125 -1.59375,4.7226563 -0.140625,0.1171875 -0.140625,0.1289062 -0.140625,0.1640625 0,0.058594 0.04687,0.1054687 0.105468,0.1054687 0.09375,0 0.996094,-0.6796875 1.582032,-1.9453125 0.503906,-1.1015625 0.632812,-2.203125 0.632812,-3.046875 z m 0,0"
         style="fill:#000000;fill-opacity:1;fill-rule:nonzero;stroke:none" />
    </g>
    <path
       id="path18"
       d="m 177.1676,-17.71675 v 70.4685"
       style="fill:none;stroke:#000000;stroke-width:0.3985;stroke-linecap:butt;stroke-linejoin:miter;stroke-miterlimit:10;stroke-dasharray:none;stroke-opacity:1"
       transform="matrix(1.3333333,0,0,-1.3333333,6.4586667,81.933333)" />
    <path
       id="path19"
       d="M -2.07224,2.39104 C -1.69365,0.95639 -0.84999,0.27895 0,0 -0.84999,-0.27895 -1.69365,-0.95639 -2.07224,-2.39104"
       style="fill:none;stroke:#000000;stroke-width:0.3985;stroke-linecap:round;stroke-linejoin:round;stroke-miterlimit:10;stroke-dasharray:none;stroke-opacity:1"
       transform="matrix(0,-1.3333333,-1.3333333,0,242.68213,11.332)" />
    <g
       id="g19"
       aria-label="i(A)"
       transform="matrix(1.3333333,0,0,1.3333333,213.11867,14.386667)">
      <path
         id="path20"
         d="m 2.8231094,-6.2226172 c 0,-0.1992187 -0.1289063,-0.3632812 -0.3632813,-0.3632812 -0.2695312,0 -0.5390625,0.2578125 -0.5390625,0.5273437 0,0.1875 0.140625,0.3632813 0.375,0.3632813 0.234375,0 0.5273438,-0.234375 0.5273438,-0.5273438 z m -0.75,3.7382813 c 0.1171875,-0.28125 0.1171875,-0.3046875 0.2226562,-0.5742188 0.070312,-0.1992187 0.1289063,-0.3398437 0.1289063,-0.5273437 0,-0.4453125 -0.328125,-0.8203125 -0.8203125,-0.8203125 -0.93750002,0 -1.31250002,1.453125 -1.31250002,1.5351562 0,0.1054688 0.09375,0.1054688 0.1171875,0.1054688 0.09375,0 0.10546875,-0.023437 0.15234375,-0.1875 0.26953125,-0.9375 0.66796877,-1.2304688 1.00781247,-1.2304688 0.082031,0 0.2578125,0 0.2578125,0.3164063 0,0.2109375 -0.070312,0.421875 -0.1171875,0.515625 -0.082031,0.2578125 -0.5273437,1.4179687 -0.6796875,1.8515625 -0.10546872,0.2578125 -0.23437497,0.58593746 -0.23437497,0.79687496 0,0.46875 0.33984377,0.80859375 0.82031247,0.80859375 0.9375,0 1.3007813,-1.44140621 1.3007813,-1.53515621 0,-0.09375 -0.09375,-0.09375 -0.1171875,-0.09375 -0.1054688,0 -0.1054688,0.023437 -0.1523438,0.1757812 -0.1757812,0.63281251 -0.5039062,1.24218751 -1.0195312,1.24218751 -0.1640625,0 -0.234375,-0.10546875 -0.234375,-0.328125 0,-0.2578125 0.058594,-0.3984375 0.2929687,-0.99609371 z m 0,0"
         style="fill:#000000;fill-opacity:1;fill-rule:nonzero;stroke:none" />
      <path
         id="path21"
         d="m 6.7254531,2.3906641 c 0,-0.035156 0,-0.046875 -0.1640625,-0.2226563 -1.2421875,-1.25390624 -1.5703125,-3.12890624 -1.5703125,-4.6640625 0,-1.7226562 0.3867188,-3.4570312 1.6054688,-4.7109375 0.1289062,-0.1171875 0.1289062,-0.1289062 0.1289062,-0.1640625 0,-0.070312 -0.035156,-0.1054687 -0.09375,-0.1054687 -0.1054687,0 -0.9960937,0.6796875 -1.5820312,1.9453125 -0.515625,1.1015625 -0.6328125,2.203125 -0.6328125,3.0351562 0,0.7851563 0.1171875,1.99218751 0.65625,3.11718751 0.5976562,1.21874999 1.453125,1.87499999 1.5585937,1.87499999 0.058594,0 0.09375,-0.035156 0.09375,-0.1054687 z m 0,0"
         style="fill:#000000;fill-opacity:1;fill-rule:nonzero;stroke:none" />
      <path
         id="path22"
         d="m 9.0897109,-1.1483984 c -0.3984375,0.66796871 -0.7851562,0.80859371 -1.21875,0.84374996 -0.1289062,0 -0.2109375,0 -0.2109375,0.19921875 0,0.05859375 0.046875,0.1054687525 0.1289063,0.1054687525 0.2695312,0 0.5742187,-0.0351562525 0.8554687,-0.0351562525 0.328125,0 0.6796875,0.0351562525 0.9960938,0.0351562525 0.058594,0 0.1875,0 0.1875,-0.1875000025 0,-0.1171875 -0.09375,-0.1171875 -0.1640625,-0.1171875 -0.2226563,-0.0234375 -0.4570313,-0.10546875 -0.4570313,-0.3515625 0,-0.1171875 0.058594,-0.234375 0.1289063,-0.37499996 l 0.7617183,-1.265625 h 2.496094 c 0.02344,0.1992187 0.164063,1.55859371 0.164063,1.66406246 0,0.29296875 -0.515625,0.328125 -0.714844,0.328125 -0.140625,0 -0.246094,0 -0.246094,0.19921875 0,0.1054687525 0.128906,0.1054687525 0.140625,0.1054687525 0.410156,0 0.84375,-0.0351562525 1.253906,-0.0351562525 0.246094,0 0.867188,0.0351562525 1.125,0.0351562525 0.05859,0 0.175782,0 0.175782,-0.1992187525 0,-0.10546875 -0.105469,-0.10546875 -0.234375,-0.10546875 -0.609375,0 -0.609375,-0.0703125 -0.644532,-0.36328125 L 13.003773,-6.8905859 c -0.01172,-0.1992188 -0.01172,-0.2460938 -0.1875,-0.2460938 -0.164062,0 -0.199218,0.070312 -0.257812,0.1757813 z m 1.1953121,-1.4648438 1.96875,-3.28125 0.316407,3.28125 z m 0,0"
         style="fill:#000000;fill-opacity:1;fill-rule:nonzero;stroke:none" />
      <path
         id="path23"
         d="m 17.661977,-2.4960547 c 0,-0.7734375 -0.117188,-1.9804687 -0.65625,-3.1054687 -0.597657,-1.21875 -1.464844,-1.875 -1.558594,-1.875 -0.05859,0 -0.105469,0.046875 -0.105469,0.1054687 0,0.035156 0,0.046875 0.199219,0.234375 0.972656,0.984375 1.535156,2.5664063 1.535156,4.640625 0,1.71093751 -0.363281,3.45703126 -1.59375,4.7226563 -0.140625,0.1171875 -0.140625,0.1289062 -0.140625,0.1640625 0,0.058594 0.04687,0.1054687 0.105469,0.1054687 0.09375,0 0.996094,-0.6796875 1.582031,-1.94531249 0.503906,-1.1015625 0.632813,-2.20312501 0.632813,-3.04687501 z m 0,0"
         style="fill:#000000;fill-opacity:1;fill-rule:nonzero;stroke:none" />
    </g>
    <path
       id="path24"
       d="M 148.82121,38.97707 H 177.1676"
       style="fill:none;stroke:#000000;stroke-width:0.3985;stroke-linecap:butt;stroke-linejoin:miter;stroke-miterlimit:10;stroke-dasharray:2.98883, 2.98883;stroke-dashoffset:0;stroke-opacity:1"
       transform="matrix(1.3333333,0,0,-1.3333333,6.4586667,81.933333)" />
    <path
       id="path25"
       d="m 2.9299375,-6.3763594 c 0,-0.234375 0,-0.2578125 -0.234375,-0.2578125 -0.609375,0.6328125 -1.4882813,0.6328125 -1.8046875,0.6328125 v 0.3164063 c 0.1992187,0 0.7851562,0 1.3007812,-0.2578125 v 5.15624998 c 0,0.3515625 -0.035156,0.48046875 -0.9257812,0.48046875 H 0.94946875 v 0.3046875 C 1.3010312,-0.03651562 2.1565,-0.03651562 2.5549375,-0.03651562 c 0.3984375,0 1.265625,0 1.6171875,0.03515625 v -0.3046875 H 3.8557187 c -0.9023437,0 -0.9257812,-0.1171875 -0.9257812,-0.48046875 z m 0,0"
       style="fill:#000000;fill-opacity:1;fill-rule:nonzero;stroke:none"
       aria-label="1"
       transform="matrix(1.3333333,0,0,1.3333333,247.37467,34.244)" />
    <path
       id="path26"
       d="M 148.82121,38.97707 V 17.71674"
       style="fill:none;stroke:#000000;stroke-width:0.3985;stroke-linecap:butt;stroke-linejoin:miter;stroke-miterlimit:10;stroke-dasharray:2.98883, 2.98883;stroke-dashoffset:0;stroke-opacity:1"
       transform="matrix(1.3333333,0,0,-1.3333333,6.4586667,81.933333)" />
    <g
       id="g26"
       aria-label="−3"
       transform="matrix(1.3333333,0,0,1.3333333,196.4,71.565333)">
      <path
         id="path27"
         d="m 6.5613281,-2.2960703 c 0.1757813,0 0.3515625,0 0.3515625,-0.1992188 0,-0.1992187 -0.1757812,-0.1992187 -0.3515625,-0.1992187 h -5.390625 c -0.1640625,0 -0.33984373,0 -0.33984373,0.1992187 0,0.1992188 0.17578123,0.1992188 0.33984373,0.1992188 z m 0,0"
         style="fill:#000000;fill-opacity:1;fill-rule:nonzero;stroke:none" />
      <path
         id="path28"
         d="m 10.642383,-3.5031016 c 0.808594,-0.2695312 1.394531,-0.9726562 1.394531,-1.7578125 0,-0.8203125 -0.878906,-1.3710937 -1.839844,-1.3710937 -1.0078122,0 -1.7578122,0.5976562 -1.7578122,1.3476562 0,0.3398438 0.2109375,0.5273438 0.5039063,0.5273438 0.3046875,0 0.5039062,-0.2226563 0.5039062,-0.515625 0,-0.4921875 -0.46875,-0.4921875 -0.609375,-0.4921875 0.3046875,-0.4921875 0.9609375,-0.6210938 1.3242187,-0.6210938 0.410156,0 0.949219,0.2226563 0.949219,1.1132813 0,0.1289062 -0.01172,0.703125 -0.269531,1.1367187 -0.304688,0.4804688 -0.644532,0.515625 -0.8906254,0.515625 -0.082031,0.011719 -0.3164063,0.035156 -0.3867188,0.035156 -0.082031,0.011719 -0.1523437,0.023437 -0.1523437,0.1171875 0,0.1171875 0.070312,0.1171875 0.234375,0.1171875 h 0.4453129 c 0.808593,0 1.183593,0.6679687 1.183593,1.6523437 0,1.34765629 -0.691406,1.64062504 -1.125,1.64062504 -0.4335934,0 -1.1718747,-0.17578125 -1.5234372,-0.76171875 0.3515625,0.0585938 0.65625,-0.1640625 0.65625,-0.53906249 0,-0.3632813 -0.2695312,-0.5625 -0.5625,-0.5625 -0.234375,0 -0.5507812,0.140625 -0.5507812,0.5742187 0,0.91406254 0.9257812,1.57031254 2.0039064,1.57031254 1.21875,0 2.121094,-0.9140625 2.121094,-1.92187504 0,-0.8203125 -0.621094,-1.59375 -1.652344,-1.8046872 z m 0,0"
         style="fill:#000000;fill-opacity:1;fill-rule:nonzero;stroke:none" />
    </g>
    <path
       id="path29"
       d="M 145.98595,41.103 205.51399,-3.54356"
       style="fill:none;stroke:#000000;stroke-width:0.3985;stroke-linecap:butt;stroke-linejoin:miter;stroke-miterlimit:10;stroke-dasharray:none;stroke-opacity:1"
       transform="matrix(1.3333333,0,0,-1.3333333,6.4586667,81.933333)" />
    <path
       id="path30"
       d="m 3.8085937,2.3426797 c 0,-0.046875 -0.035156,-0.1054688 -0.035156,-0.1054688 C 3.4921875,1.9676797 2.8359375,1.3583047 2.4257812,0.09267969 2.15625,-0.70419531 2.0390625,-1.6182578 2.0390625,-2.4971641 c 0,-1.9570312 0.515625,-3.515625 1.6054687,-4.6289062 0.1523438,-0.1523438 0.1640625,-0.1523438 0.1640625,-0.2109375 0,-0.1054688 -0.1054687,-0.140625 -0.1875,-0.140625 -0.1640625,0 -0.5859375,0.375 -0.7617187,0.5390625 -1.5585938,1.546875 -1.78125,3.3867187 -1.78125,4.4414062 0,1.2421875 0.328125,2.33203129 0.796875,3.16406254 0.65625,1.14843746 1.5585937,1.81640626 1.7460937,1.81640626 0.082031,0 0.1875,-0.035156 0.1875,-0.140625 z m 6.6210933,-4.5703125 c 0,-1.3242188 -0.9374995,-2.2617188 -2.3789058,-2.2617188 -0.7265625,0 -1.2304687,0.2929688 -1.4648437,0.4921875 v -2.9179687 l -1.7695313,0.082031 v 0.46875 c 0.6210938,0 0.6914063,0 0.6914063,0.3867188 v 5.97656249 h 0.46875 c 0.1640625,-0.1875 0.328125,-0.36328125 0.4921875,-0.5625 0.082031,0.0820313 0.5625,0.62109375 1.453125,0.62109375 1.4765625,0 2.507812,-0.890625 2.507812,-2.28515604 z m -1.2773433,0 c 0,0.46875 0,1.0195312 -0.2578125,1.40624999 -0.2929687,0.41015625 -0.75,0.515625 -1.0664062,0.515625 -0.6914063,0 -1.078125,-0.52734375 -1.1835938,-0.6796875 V -3.4932578 c 0.2695313,-0.3398438 0.75,-0.6328125 1.3007813,-0.6328125 1.2070312,0 1.2070312,1.2070312 1.2070312,1.8984375 z m 5.0302733,-0.2695313 c 0,-1.2421875 -0.328125,-2.3320312 -0.796875,-3.1640625 -0.65625,-1.1484375 -1.558594,-1.8164062 -1.746094,-1.8164062 -0.08203,0 -0.1875,0.035156 -0.1875,0.140625 0,0.058594 0,0.070312 0.175782,0.234375 1.253906,1.2773437 1.59375,3.0351562 1.59375,4.6054687 0,1.95703129 -0.503907,3.5273438 -1.605469,4.6289063 -0.152344,0.1523437 -0.164063,0.1640625 -0.164063,0.2109375 0,0.1054687 0.105469,0.140625 0.1875,0.140625 0.164063,0 0.585938,-0.375 0.761719,-0.5390625 1.558594,-1.54687501 1.78125,-3.375 1.78125,-4.4414063 z m 0,0"
       style="fill:#000000;fill-opacity:1;fill-rule:nonzero;stroke:none"
       aria-label="(b)"
       transform="matrix(1.3333333,0,0,1.3333333,232.5,132.50533)" />
  </g>
</svg>
