<?xml version="1.0" encoding="UTF-8" standalone="no"?>
<!-- Created with Inkscape (http://www.inkscape.org/) -->

<svg
   version="1.1"
   id="svg1"
   width="193.74667"
   height="123.2"
   viewBox="0 0 193.74667 123.2"
   sodipodi:docname="23-24-2-电路与电子学基础-期末（A卷）-题图2.2.pdf"
   xmlns:inkscape="http://www.inkscape.org/namespaces/inkscape"
   xmlns:sodipodi="http://sodipodi.sourceforge.net/DTD/sodipodi-0.dtd"
   xmlns="http://www.w3.org/2000/svg"
   xmlns:svg="http://www.w3.org/2000/svg">
  <defs
     id="defs1" />
  <sodipodi:namedview
     id="namedview1"
     pagecolor="#ffffff"
     bordercolor="#000000"
     borderopacity="0.25"
     inkscape:showpageshadow="2"
     inkscape:pageopacity="0.0"
     inkscape:pagecheckerboard="0"
     inkscape:deskcolor="#d1d1d1">
    <inkscape:page
       x="0"
       y="0"
       inkscape:label="1"
       id="page1"
       width="193.74667"
       height="123.2"
       margin="0"
       bleed="0" />
  </sodipodi:namedview>
  <g
     id="g1"
     inkscape:groupmode="layer"
     inkscape:label="1">
    <path
       id="path1"
       d="m 0,0 h 17.71674 m 0,0 H 35.4335 54.99283 m 31.7484,0 h 19.55932 17.71677 m 0,0 h 17.71677"
       style="fill:none;stroke:#000000;stroke-width:0.3985;stroke-linecap:butt;stroke-linejoin:miter;stroke-miterlimit:10;stroke-dasharray:none;stroke-opacity:1"
       transform="matrix(1.3333333,0,0,-1.3333333,2.3813333,26.329333)" />
    <path
       id="path2"
       d="M 1.58714,0 C 1.58714,0.87656 0.87656,1.58714 0,1.58714 -0.87656,1.58714 -1.58714,0.87656 -1.58714,0 c 0,-0.87656 0.71058,-1.58714 1.58714,-1.58714 0.87656,0 1.58714,0.71058 1.58714,1.58714 z"
       style="fill:#ffffff;fill-opacity:1;fill-rule:nonzero;stroke:#000000;stroke-width:0.3985;stroke-linecap:butt;stroke-linejoin:miter;stroke-miterlimit:10;stroke-dasharray:none;stroke-opacity:1"
       transform="matrix(1.3333333,0,0,-1.3333333,2.3813333,26.329333)" />
    <path
       id="path3"
       d="m 37.02066,0 c 0,0.87656 -0.71059,1.58714 -1.58716,1.58714 -0.87655,0 -1.58714,-0.71058 -1.58714,-1.58714 0,-0.87656 0.71059,-1.58714 1.58714,-1.58714 0.87657,0 1.58716,0.71058 1.58716,1.58714 z"
       style="fill:#000000;fill-opacity:1;fill-rule:nonzero;stroke:#000000;stroke-width:0.3985;stroke-linecap:butt;stroke-linejoin:miter;stroke-miterlimit:10;stroke-dasharray:none;stroke-opacity:1"
       transform="matrix(1.3333333,0,0,-1.3333333,2.3813333,26.329333)" />
    <path
       id="path4"
       d="M 15.98053,0 V -1.98425 L 20.19707,0 15.98053,1.98425 Z"
       style="fill:#000000;fill-opacity:1;fill-rule:nonzero;stroke:#000000;stroke-width:0.3985;stroke-linecap:butt;stroke-linejoin:miter;stroke-miterlimit:10;stroke-dasharray:none;stroke-opacity:1"
       transform="matrix(1.3333333,0,0,-1.3333333,2.3813333,26.329333)" />
    <path
       id="path5"
       d="m 2.8233516,-6.2221172 c 0,-0.1992187 -0.1289063,-0.3632812 -0.3632813,-0.3632812 -0.2695312,0 -0.5390625,0.2578125 -0.5390625,0.5273437 0,0.1875 0.140625,0.3632813 0.375,0.3632813 0.234375,0 0.5273438,-0.234375 0.5273438,-0.5273438 z m -0.75,3.7382813 c 0.1171875,-0.28125 0.1171875,-0.3046875 0.2226562,-0.5742188 0.070312,-0.1992187 0.1289063,-0.3398437 0.1289063,-0.5273437 0,-0.4453125 -0.328125,-0.8203125 -0.8203125,-0.8203125 -0.93750004,0 -1.31250004,1.453125 -1.31250004,1.5351562 0,0.1054688 0.09375,0.1054688 0.1171875,0.1054688 0.09375,0 0.10546875,-0.023437 0.15234375,-0.1875 0.26953125,-0.9375 0.66796879,-1.2304688 1.00781249,-1.2304688 0.082031,0 0.2578125,0 0.2578125,0.3164063 0,0.2109375 -0.070312,0.421875 -0.1171875,0.515625 -0.082031,0.2578125 -0.5273437,1.4179687 -0.6796875,1.8515625 -0.10546874,0.2578125 -0.23437499,0.58593746 -0.23437499,0.79687496 0,0.46875 0.33984379,0.80859375 0.82031249,0.80859375 0.9375,0 1.3007813,-1.44140621 1.3007813,-1.53515621 0,-0.09375 -0.09375,-0.09375 -0.1171875,-0.09375 -0.1054688,0 -0.1054688,0.023437 -0.1523438,0.1757812 -0.1757812,0.63281251 -0.5039062,1.24218751 -1.0195312,1.24218751 -0.1640625,0 -0.234375,-0.10546875 -0.234375,-0.328125 0,-0.2578125 0.058594,-0.3984375 0.2929687,-0.99609371 z m 0,0"
       style="fill:#000000;fill-opacity:1;fill-rule:nonzero;stroke:none"
       aria-label="i"
       transform="matrix(1.3333333,0,0,1.3333333,23.716,21.636)" />
    <path
       id="path6"
       d="M 54.99283,5.95285 H 86.74121 V -5.95285 H 54.99283 Z"
       style="fill:none;stroke:#000000;stroke-width:0.797;stroke-linecap:butt;stroke-linejoin:miter;stroke-miterlimit:10;stroke-dasharray:none;stroke-opacity:1"
       transform="matrix(1.3333333,0,0,-1.3333333,2.3813333,26.329333)" />
    <path
       id="path7"
       d="m 2.9288516,-6.3744844 c 0,-0.234375 0,-0.2578125 -0.234375,-0.2578125 -0.609375,0.6328125 -1.4882813,0.6328125 -1.80468754,0.6328125 v 0.3164063 c 0.19921874,0 0.78515624,0 1.30078124,-0.2578125 v 5.15624997 c 0,0.3515625 -0.035156,0.48046875 -0.9257812,0.48046875 H 0.94838281 V 5.15625e-4 C 1.2999453,-0.03464063 2.1554141,-0.03464063 2.5538516,-0.03464063 c 0.3984375,0 1.265625,0 1.6171875,0.035156255 V -0.30417188 H 3.8546328 c -0.9023437,0 -0.9257812,-0.1171875 -0.9257812,-0.48046875 z m 6.6357422,3.1875 c 0,-0.796875 -0.046875,-1.59375 -0.3984375,-2.3320312 -0.4570313,-0.9609375 -1.2773438,-1.1132813 -1.6875,-1.1132813 -0.5976563,0 -1.3359375,0.2578125 -1.734375,1.1835938 -0.328125,0.6914062 -0.375,1.4648437 -0.375,2.2617187 0,0.75 0.046875,1.640625 0.4453125,2.40234377 0.4335937,0.80859375 1.1601562,1.0078125 1.6523437,1.0078125 0.5390625,0 1.2890625,-0.2109375 1.734375,-1.16015625 C 9.5177188,-1.6283906 9.5645938,-2.4018281 9.5645938,-3.1869844 Z M 7.4669375,5.15625e-4 c -0.3867187,0 -0.984375,-0.246093755 -1.1601562,-1.207031225 -0.1054688,-0.5976563 -0.1054688,-1.5117188 -0.1054688,-2.0976563 0,-0.6445312 0,-1.3007812 0.082031,-1.8398437 0.1875,-1.1835938 0.9257812,-1.265625 1.1835937,-1.265625 0.328125,0 0.984375,0.1757812 1.171875,1.1601562 0.09375,0.5625 0.09375,1.3125 0.09375,1.9453125 0,0.75 0,1.4179688 -0.1054687,2.0625 C 8.47475,-0.30417188 7.91225,5.15625e-4 7.4669375,5.15625e-4 Z M 18.353656,-1.6166719 h -0.246093 c -0.04687,0.2578125 -0.08203,0.4921875 -0.175782,0.72656252 -0.04687,0.1640625 -0.08203,0.24609375 -0.65625,0.24609375 h -0.796875 c 0.128907,-0.56249997 0.433594,-1.04296877 0.878907,-1.69921877 0.46875,-0.703125 0.878906,-1.3945312 0.878906,-2.1796875 0,-1.3828125 -1.335938,-2.4960937 -3.023438,-2.4960937 -1.710937,0 -3.035156,1.1367187 -3.035156,2.4960937 0,0.7851563 0.398438,1.4765625 0.867188,2.1796875 0.445312,0.65625 0.761718,1.1367188 0.890625,1.69921877 h -0.796875 c -0.574219,0 -0.609375,-0.0820313 -0.65625,-0.234375 -0.08203,-0.22265627 -0.128907,-0.48046877 -0.175782,-0.73828127 h -0.257812 l 0.328125,1.617187525 h 1.59375 c 0.222656,0 0.257812,0 0.257812,-0.210937505 0,-0.69140625 -0.316406,-1.57031252 -0.539062,-2.21484372 -0.210938,-0.5742188 -0.492188,-1.359375 -0.492188,-2.109375 0,-1.59375 1.101563,-2.2734375 2.003907,-2.2734375 0.960937,0 2.015625,0.7265625 2.015625,2.2734375 0,0.75 -0.269532,1.5117187 -0.5625,2.3203125 -0.152344,0.421875 -0.46875,1.31249997 -0.46875,2.00390622 0,0.210937505 0.03516,0.210937505 0.257812,0.210937505 h 1.582031 z m 0,0"
       style="fill:#000000;fill-opacity:1;fill-rule:nonzero;stroke:none"
       aria-label="10Ω"
       transform="matrix(1.3333333,0,0,1.3333333,84.325333,13.304)" />
    <path
       id="path8"
       d="m 107.88771,0 c 0,0.87656 -0.71059,1.58714 -1.58716,1.58714 -0.87655,0 -1.58714,-0.71058 -1.58714,-1.58714 0,-0.87656 0.71059,-1.58714 1.58714,-1.58714 0.87657,0 1.58716,0.71058 1.58716,1.58714 z"
       style="fill:#000000;fill-opacity:1;fill-rule:nonzero;stroke:#000000;stroke-width:0.3985;stroke-linecap:butt;stroke-linejoin:miter;stroke-miterlimit:10;stroke-dasharray:none;stroke-opacity:1"
       transform="matrix(1.3333333,0,0,-1.3333333,2.3813333,26.329333)" />
    <path
       id="path9"
       d="m 143.32123,0 c 0,0.87656 -0.71059,1.58714 -1.58714,1.58714 -0.87656,0 -1.58715,-0.71058 -1.58715,-1.58714 0,-0.87656 0.71059,-1.58714 1.58715,-1.58714 0.87655,0 1.58714,0.71058 1.58714,1.58714 z"
       style="fill:#ffffff;fill-opacity:1;fill-rule:nonzero;stroke:#000000;stroke-width:0.3985;stroke-linecap:butt;stroke-linejoin:miter;stroke-miterlimit:10;stroke-dasharray:none;stroke-opacity:1"
       transform="matrix(1.3333333,0,0,-1.3333333,2.3813333,26.329333)" />
    <path
       id="path10"
       d="M 125.75354,0 V 1.98425 L 121.537,0 l 4.21654,-1.98425 z"
       style="fill:#000000;fill-opacity:1;fill-rule:nonzero;stroke:#000000;stroke-width:0.3985;stroke-linecap:butt;stroke-linejoin:miter;stroke-miterlimit:10;stroke-dasharray:none;stroke-opacity:1"
       transform="matrix(1.3333333,0,0,-1.3333333,2.3813333,26.329333)" />
    <g
       id="g10"
       aria-label="6A"
       transform="matrix(1.3333333,0,0,1.3333333,158.328,21.636)">
      <path
         id="path11"
         d="m 1.3125938,-3.2689922 v -0.234375 c 0,-2.5195312 1.2421875,-2.8828125 1.7460937,-2.8828125 0.234375,0 0.65625,0.058594 0.8789063,0.3984375 -0.1523438,0 -0.5507813,0 -0.5507813,0.4453125 0,0.3164063 0.234375,0.4570313 0.4570313,0.4570313 0.1640625,0 0.4570312,-0.082031 0.4570312,-0.46875 0,-0.5976563 -0.4335937,-1.078125 -1.265625,-1.078125 -1.2773437,0 -2.61328125,1.2890625 -2.61328125,3.4804687 0,2.66015626 1.14843755,3.37500001 2.07421875,3.37500001 1.1132813,0 2.0507813,-0.9375 2.0507813,-2.25000001 0,-1.265625 -0.8789063,-2.2265625 -1.9921875,-2.2265625 -0.6679688,0 -1.0429688,0.5039063 -1.2421875,0.984375 z m 1.1835937,3.21093751 c -0.6210937,0 -0.9257812,-0.59765625 -0.984375,-0.75 C 1.3360313,-1.2768047 1.3360313,-2.0736797 1.3360313,-2.2494609 c 0,-0.7734375 0.3164062,-1.7695313 1.21875,-1.7695313 0.1523437,0 0.609375,0 0.9257812,0.609375 0.1757813,0.375 0.1757813,0.8789063 0.1757813,1.3710938 0,0.4804687 0,0.9726562 -0.1640625,1.33593746 -0.3046875,0.59765625 -0.7617188,0.64453125 -0.9960938,0.64453125 z m 0,0"
         style="fill:#000000;fill-opacity:1;fill-rule:nonzero;stroke:none" />
      <path
         id="path12"
         d="M 13.778414,5.390625e-4 V -0.30414844 h -0.175781 c -0.597656,0 -0.738281,-0.0703125 -0.84375,-0.3984375 l -2.15625,-6.23437496 c -0.04687,-0.1289063 -0.07031,-0.1992188 -0.222656,-0.1992188 -0.164063,0 -0.1875,0.058594 -0.246094,0.1992188 l -2.0625002,5.96484371 c -0.1757812,0.50390625 -0.5742187,0.65625 -1.1132812,0.66796875 V 5.390625e-4 L 7.9776328,-0.03461719 9.1260703,5.390625e-4 V -0.30414844 c -0.5039062,0 -0.75,-0.2578125 -0.75,-0.515625 0,-0.0234375 0.011719,-0.12890625 0.023437,-0.140625 L 8.8565391,-2.2728984 h 2.4609379 l 0.527343,1.52343746 c 0.01172,0.046875 0.02344,0.10546875 0.02344,0.140625 0,0.3046875 -0.550781,0.3046875 -0.820313,0.3046875 V 5.390625e-4 C 11.399508,-0.03461719 12.102633,-0.03461719 12.477633,-0.03461719 Z M 11.200289,-2.5775859 H 8.9620078 l 1.1132812,-3.234375 z m 0,0"
         style="fill:#000000;fill-opacity:1;fill-rule:nonzero;stroke:none" />
    </g>
    <path
       id="path13"
       d="m 35.4335,0 -1e-5,-35.4335 m 0,0 1e-5,-35.43353"
       style="fill:none;stroke:#000000;stroke-width:0.3985;stroke-linecap:butt;stroke-linejoin:miter;stroke-miterlimit:10;stroke-dasharray:none;stroke-opacity:1"
       transform="matrix(1.3333333,0,0,-1.3333333,2.3813333,26.329333)" />
    <path
       id="path14"
       d="m 37.02066,-70.86703 c 0,0.87655 -0.71059,1.58714 -1.58716,1.58714 -0.87655,0 -1.58714,-0.71059 -1.58714,-1.58714 0,-0.87657 0.71059,-1.58717 1.58714,-1.58717 0.87657,0 1.58716,0.7106 1.58716,1.58717 z"
       style="fill:#ffffff;fill-opacity:1;fill-rule:nonzero;stroke:#000000;stroke-width:0.3985;stroke-linecap:butt;stroke-linejoin:miter;stroke-miterlimit:10;stroke-dasharray:none;stroke-opacity:1"
       transform="matrix(1.3333333,0,0,-1.3333333,2.3813333,26.329333)" />
    <path
       id="path15"
       d="m 35.43349,-33.6973 h -1.98426 l 1.98426,-4.21653 1.98425,4.21653 z"
       style="fill:#000000;fill-opacity:1;fill-rule:nonzero;stroke:#000000;stroke-width:0.3985;stroke-linecap:butt;stroke-linejoin:miter;stroke-miterlimit:10;stroke-dasharray:none;stroke-opacity:1"
       transform="matrix(1.3333333,0,0,-1.3333333,2.3813333,26.329333)" />
    <g
       id="g15"
       aria-label="3A"
       transform="matrix(1.3333333,0,0,1.3333333,26.114667,78.329333)">
      <path
         id="path16"
         d="m 2.8934922,-3.5048125 c 0.8085937,-0.2695313 1.3945312,-0.9726562 1.3945312,-1.7578125 0,-0.8203125 -0.8789062,-1.3710937 -1.8398437,-1.3710937 -1.0078125,0 -1.75781251,0.5976562 -1.75781251,1.3476562 0,0.3398438 0.2109375,0.5273438 0.50390621,0.5273438 0.3046875,0 0.5039063,-0.2226563 0.5039063,-0.515625 0,-0.4921875 -0.46875,-0.4921875 -0.609375,-0.4921875 0.3046875,-0.4921875 0.9609375,-0.6210938 1.3242187,-0.6210938 0.4101563,0 0.9492188,0.2226563 0.9492188,1.1132813 0,0.1289062 -0.011719,0.703125 -0.2695313,1.1367187 C 2.7880234,-3.6571563 2.4481797,-3.622 2.2020859,-3.622 c -0.082031,0.011719 -0.3164062,0.035156 -0.3867187,0.035156 -0.082031,0.011719 -0.1523438,0.023437 -0.1523438,0.1171875 0,0.1171875 0.070312,0.1171875 0.234375,0.1171875 h 0.4453125 c 0.8085938,0 1.1835938,0.6679688 1.1835938,1.6523438 0,1.34765625 -0.6914063,1.640625 -1.125,1.640625 -0.4335938,0 -1.171875,-0.17578125 -1.52343751,-0.76171875 0.35156251,0.0585938 0.65625001,-0.1640625 0.65625001,-0.53906245 0,-0.3632813 -0.2695313,-0.5625 -0.56250001,-0.5625 -0.234375,0 -0.55078125,0.140625 -0.55078125,0.5742187 0,0.9140625 0.92578126,1.5703125 2.00390626,1.5703125 1.21875,0 2.1210937,-0.9140625 2.1210937,-1.921875 0,-0.8203125 -0.6210937,-1.59375 -1.6523437,-1.8046873 z m 0,0"
         style="fill:#000000;fill-opacity:1;fill-rule:nonzero;stroke:none" />
      <path
         id="path17"
         d="m 13.777281,-9.0625e-4 v -0.3046875 H 13.6015 c -0.597656,0 -0.738281,-0.0703125 -0.84375,-0.3984375 L 10.6015,-6.9384062 c -0.04687,-0.1289063 -0.07031,-0.1992188 -0.222656,-0.1992188 -0.164063,0 -0.1875,0.058594 -0.246094,0.1992188 l -2.0625,5.9648437 c -0.1757812,0.50390625 -0.5742187,0.65625 -1.1132812,0.66796875 v 0.3046875 L 7.9765,-0.0360625 9.1249375,-9.0625e-4 v -0.3046875 c -0.5039062,0 -0.75,-0.2578125 -0.75,-0.515625 0,-0.0234375 0.011719,-0.12890625 0.023437,-0.140625 L 8.8554063,-2.2743438 h 2.4609377 l 0.527344,1.52343755 c 0.01172,0.046875 0.02344,0.10546875 0.02344,0.140625 0,0.3046875 -0.550781,0.3046875 -0.820312,0.3046875 v 0.3046875 C 11.398375,-0.0360625 12.1015,-0.0360625 12.4765,-0.0360625 Z M 11.199156,-2.5790313 H 8.960875 l 1.113281,-3.2343749 z m 0,0"
         style="fill:#000000;fill-opacity:1;fill-rule:nonzero;stroke:none" />
    </g>
    <path
       id="path18"
       d="m 106.30055,0 v -19.55931 m 0,-31.7484 v -19.55932"
       style="fill:none;stroke:#000000;stroke-width:0.3985;stroke-linecap:butt;stroke-linejoin:miter;stroke-miterlimit:10;stroke-dasharray:none;stroke-opacity:1"
       transform="matrix(1.3333333,0,0,-1.3333333,2.3813333,26.329333)" />
    <path
       id="path19"
       d="m 100.3477,-51.30771 v 31.7484 h 11.9057 v -31.7484 z"
       style="fill:none;stroke:#000000;stroke-width:0.797;stroke-linecap:butt;stroke-linejoin:miter;stroke-miterlimit:10;stroke-dasharray:none;stroke-opacity:1"
       transform="matrix(1.3333333,0,0,-1.3333333,2.3813333,26.329333)" />
    <path
       id="path20"
       d="m 107.88771,-70.86703 c 0,0.87655 -0.71059,1.58714 -1.58716,1.58714 -0.87655,0 -1.58714,-0.71059 -1.58714,-1.58714 0,-0.87657 0.71059,-1.58717 1.58714,-1.58717 0.87657,0 1.58716,0.7106 1.58716,1.58717 z"
       style="fill:#ffffff;fill-opacity:1;fill-rule:nonzero;stroke:#000000;stroke-width:0.3985;stroke-linecap:butt;stroke-linejoin:miter;stroke-miterlimit:10;stroke-dasharray:none;stroke-opacity:1"
       transform="matrix(1.3333333,0,0,-1.3333333,2.3813333,26.329333)" />
    <path
       id="path21"
       d="m 4.4757031,-2.0027812 c 0,-1.1835938 -0.8203125,-2.1796875 -1.8984375,-2.1796875 -0.4804687,0 -0.9023437,0.1640625 -1.265625,0.5039062 v -1.9335937 c 0.1992188,0.058594 0.5273438,0.1289062 0.84375,0.1289062 1.2304688,0 1.9335938,-0.9140625 1.9335938,-1.0429687 0,-0.058594 -0.035156,-0.1054688 -0.1054688,-0.1054688 -0.011719,0 -0.035156,0 -0.082031,0.023437 -0.1992188,0.09375 -0.6796875,0.2929688 -1.3476563,0.2929688 -0.3984375,0 -0.8554687,-0.070312 -1.3242187,-0.28125 -0.082031,-0.023437 -0.1054688,-0.023437 -0.1289063,-0.023437 -0.09375,0 -0.09375,0.082031 -0.09375,0.234375 v 2.953125 c 0,0.1757812 0,0.2578125 0.140625,0.2578125 0.070312,0 0.082031,-0.035156 0.1289063,-0.09375 0.1054687,-0.1523438 0.4804687,-0.6914063 1.2773437,-0.6914063 0.5273438,0 0.7734375,0.4570313 0.8554688,0.6328125 0.1523437,0.375 0.1757812,0.7617188 0.1757812,1.2539063 0,0.3515625 0,0.9492187 -0.234375,1.3710937 -0.2460937,0.38671875 -0.609375,0.64453125 -1.0664062,0.64453125 -0.7265625,0 -1.30078127,-0.52734375 -1.46484377,-1.11328125 0.0234375,0.011719 0.0585938,0.011719 0.1640625,0.011719 0.32812497,0 0.50390627,-0.2460938 0.50390627,-0.4804688 0,-0.2460937 -0.1757813,-0.4921875 -0.50390627,-0.4921875 -0.140625,0 -0.48046875,0.070312 -0.48046875,0.5273438 0,0.8554687 0.67968752,1.82812495 1.79296872,1.82812495 1.1601563,0 2.1796875,-0.9609375 2.1796873,-2.22656265 z m 8.8974609,0.3867187 H 13.12707 C 13.0802,-1.35825 13.04504,-1.123875 12.951289,-0.8895 c -0.04687,0.1640625 -0.08203,0.24609375 -0.65625,0.24609375 H 11.498164 C 11.62707,-1.2059062 11.931758,-1.686375 12.37707,-2.342625 c 0.46875,-0.703125 0.878907,-1.3945312 0.878907,-2.1796875 0,-1.3828125 -1.335938,-2.4960937 -3.023438,-2.4960937 -1.7109374,0 -3.0351562,1.1367187 -3.0351562,2.4960937 0,0.7851563 0.3984375,1.4765625 0.8671875,2.1796875 0.4453125,0.65625 0.7617188,1.1367188 0.890625,1.69921875 h -0.796875 c -0.5742187,0 -0.609375,-0.0820313 -0.65625,-0.234375 C 7.4200391,-1.1004375 7.3731641,-1.35825 7.3262891,-1.6160625 H 7.0684766 l 0.328125,1.6171875 h 1.59375 c 0.2226562,0 0.2578125,0 0.2578125,-0.2109375 0,-0.69140625 -0.3164063,-1.5703125 -0.5390625,-2.2148437 -0.2109375,-0.5742188 -0.4921875,-1.359375 -0.4921875,-2.109375 0,-1.59375 1.1015625,-2.2734375 2.0039059,-2.2734375 0.960938,0 2.015625,0.7265625 2.015625,2.2734375 0,0.75 -0.269531,1.5117187 -0.5625,2.3203125 -0.152343,0.421875 -0.46875,1.31249995 -0.46875,2.0039062 0,0.2109375 0.03516,0.2109375 0.257813,0.2109375 h 1.582031 z m 0,0"
       style="fill:#000000;fill-opacity:1;fill-rule:nonzero;stroke:none"
       aria-label="5Ω"
       transform="matrix(1.3333333,0,0,1.3333333,154.99333,76.436)" />
    <path
       id="path22"
       d="m 106.30055,-8.04344 h -1.98425 l 1.98425,-4.21654 1.98425,4.21654 z"
       style="fill:#000000;fill-opacity:1;fill-rule:nonzero;stroke:#000000;stroke-width:0.3985;stroke-linecap:butt;stroke-linejoin:miter;stroke-miterlimit:10;stroke-dasharray:none;stroke-opacity:1"
       transform="matrix(1.3333333,0,0,-1.3333333,2.3813333,26.329333)" />
    <g
       id="g22"
       aria-label="2A"
       transform="matrix(1.3333333,0,0,1.3333333,148.808,44.124)">
      <path
         id="path23"
         d="M 1.2660703,-0.76096875 2.3207578,-1.7922188 c 1.5585938,-1.3710937 2.15625,-1.9101562 2.15625,-2.90625 0,-1.1367187 -0.9023437,-1.9335937 -2.1210937,-1.9335937 -1.125,0 -1.85156254,0.9140625 -1.85156254,1.8046875 0,0.5507812 0.4921875,0.5507812 0.52734374,0.5507812 0.1640625,0 0.515625,-0.1171875 0.515625,-0.5273437 0,-0.2578125 -0.1875,-0.515625 -0.5273437,-0.515625 -0.0820313,0 -0.10546879,0 -0.12890629,0.011719 C 1.1137266,-5.952375 1.6527891,-6.327375 2.2270078,-6.327375 c 0.9140625,0 1.3359375,0.8085937 1.3359375,1.6289062 0,0.796875 -0.4921875,1.5820313 -1.0429687,2.203125 L 0.60982031,-0.36253125 C 0.50435156,-0.2570625 0.50435156,-0.233625 0.50435156,7.5e-4 H 4.1957578 l 0.28125,-1.734375 H 4.2191953 C 4.1723203,-1.4289375 4.1020078,-0.99534375 4.0082578,-0.843 3.9379458,-0.7609687 3.2816953,-0.7609687 3.0590391,-0.7609687 Z m 0,0"
         style="fill:#000000;fill-opacity:1;fill-rule:nonzero;stroke:none" />
      <path
         id="path24"
         d="m 13.778766,7.5e-4 v -0.3046875 h -0.175782 c -0.597656,0 -0.738281,-0.0703125 -0.84375,-0.3984375 l -2.15625,-6.234375 c -0.04687,-0.1289063 -0.07031,-0.1992188 -0.222656,-0.1992188 -0.164062,0 -0.1875,0.058594 -0.246094,0.1992188 L 8.0717344,-0.97190625 C 7.8959531,-0.468 7.4975156,-0.31565625 6.9584531,-0.3039375 V 7.5e-4 L 7.9779844,-0.03440625 9.1264219,7.5e-4 v -0.3046875 c -0.5039063,0 -0.75,-0.2578125 -0.75,-0.515625 0,-0.0234375 0.011719,-0.12890625 0.023437,-0.140625 l 0.4570312,-1.3125 h 2.4609379 l 0.527343,1.5234375 c 0.01172,0.046875 0.02344,0.10546875 0.02344,0.140625 0,0.3046875 -0.550782,0.3046875 -0.820312,0.3046875 V 7.5e-4 c 0.351562,-0.03515625 1.054687,-0.03515625 1.429687,-0.03515625 z M 11.200641,-2.577375 H 8.9623594 L 10.075641,-5.81175 Z m 0,0"
         style="fill:#000000;fill-opacity:1;fill-rule:nonzero;stroke:none" />
    </g>
  </g>
</svg>
