<?xml version="1.0" encoding="UTF-8" standalone="no"?>
<!-- Created with Inkscape (http://www.inkscape.org/) -->

<svg
   version="1.1"
   id="svg1"
   width="206.86667"
   height="121.08"
   viewBox="0 0 206.86667 121.08"
   sodipodi:docname="23-24-2-电路与电子学基础-期末（A卷）-题图2.4.pdf"
   xmlns:inkscape="http://www.inkscape.org/namespaces/inkscape"
   xmlns:sodipodi="http://sodipodi.sourceforge.net/DTD/sodipodi-0.dtd"
   xmlns="http://www.w3.org/2000/svg"
   xmlns:svg="http://www.w3.org/2000/svg">
  <defs
     id="defs1" />
  <sodipodi:namedview
     id="namedview1"
     pagecolor="#ffffff"
     bordercolor="#000000"
     borderopacity="0.25"
     inkscape:showpageshadow="2"
     inkscape:pageopacity="0.0"
     inkscape:pagecheckerboard="0"
     inkscape:deskcolor="#d1d1d1">
    <inkscape:page
       x="0"
       y="0"
       inkscape:label="1"
       id="page1"
       width="206.86667"
       height="121.08"
       margin="0"
       bleed="0" />
  </sodipodi:namedview>
  <g
     id="g1"
     inkscape:groupmode="layer"
     inkscape:label="1">
    <path
       id="path1"
       d="m 0,0 h 113.3877 v 31.46503 m 0,7.93695 V 70.86703 H 77.95418 l -5.38616,-1e-5 m -31.74839,0 -5.38613,1e-5 -10.7717,-1e-5 m -13.89012,0 L 0,70.86703 V 47.33923 M 0,23.52779 V 0"
       style="fill:none;stroke:#000000;stroke-width:0.3985;stroke-linecap:butt;stroke-linejoin:miter;stroke-miterlimit:10;stroke-dasharray:none;stroke-opacity:1"
       transform="matrix(1.3333333,0,0,-1.3333333,16.405333,120.81333)" />
    <path
       id="path2"
       d="m 101.48196,31.46503 h 23.81145 m -23.81145,7.93695 h 23.81145"
       style="fill:none;stroke:#000000;stroke-width:0.797;stroke-linecap:butt;stroke-linejoin:miter;stroke-miterlimit:10;stroke-dasharray:none;stroke-opacity:1"
       transform="matrix(1.3333333,0,0,-1.3333333,16.405333,120.81333)" />
    <g
       id="g2"
       aria-label="2F"
       transform="matrix(1.3333333,0,0,1.3333333,187.19733,76.430667)">
      <path
         id="path3"
         d="M 1.2670391,-0.76245313 2.3217266,-1.7937031 c 1.5585937,-1.3710938 2.15625,-1.9101563 2.15625,-2.90625 0,-1.1367188 -0.9023438,-1.9335938 -2.1210938,-1.9335938 -1.125,0 -1.85156249,0.9140625 -1.85156249,1.8046875 0,0.5507813 0.4921875,0.5507813 0.52734379,0.5507813 0.1640625,0 0.515625,-0.1171875 0.515625,-0.5273438 0,-0.2578125 -0.1875,-0.515625 -0.5273438,-0.515625 -0.0820312,0 -0.10546874,0 -0.12890624,0.011719 0.22265624,-0.6445313 0.76171874,-1.0195313 1.33593754,-1.0195313 0.9140625,0 1.3359375,0.8085938 1.3359375,1.6289063 0,0.796875 -0.4921875,1.5820312 -1.0429688,2.203125 L 0.61078906,-0.36401563 C 0.50532031,-0.25854688 0.50532031,-0.23510938 0.50532031,-7.34375e-4 H 4.1967266 L 4.4779766,-1.7351094 H 4.2201641 c -0.046875,0.3046875 -0.1171875,0.73828127 -0.2109375,0.89062502 -0.070312,0.0820313 -0.7265625,0.0820313 -0.9492188,0.0820313 z m 0,0"
         style="fill:#000000;fill-opacity:1;fill-rule:nonzero;stroke:none" />
      <path
         id="path4"
         d="m 12.725047,-4.5358906 -0.28125,-2.2382813 H 6.9711406 v 0.3046875 h 0.234375 c 0.7734375,0 0.796875,0.1171875 0.796875,0.46875 v 5.22656252 c 0,0.3515625 -0.023437,0.46875 -0.796875,0.46875 h -0.234375 v 0.304687505 c 0.3515625,-0.035156255 1.125,-0.035156255 1.5117188,-0.035156255 0.4101562,0 1.3125,0 1.6757816,0.035156255 V -0.30542188 H 9.8305156 c -0.9492187,0 -0.9492187,-0.12890625 -0.9492187,-0.48046875 V -3.2351094 h 0.8554687 c 0.9609374,0 1.0546874,0.3164063 1.0546874,1.1601563 h 0.257813 v -2.6367188 h -0.257813 c 0,0.8320313 -0.09375,1.1601563 -1.0546874,1.1601563 H 8.8812969 v -2.5195313 c 0,-0.328125 0.023437,-0.3984375 0.4921875,-0.3984375 h 1.1953126 c 1.488281,0 1.746094,0.5625 1.898437,1.9335938 z m 0,0"
         style="fill:#000000;fill-opacity:1;fill-rule:nonzero;stroke:none" />
    </g>
    <path
       id="path5"
       d="m 113.3877,56.87071 h -1.98427 l 1.98427,-4.21654 1.98425,4.21654 z"
       style="fill:#000000;fill-opacity:1;fill-rule:nonzero;stroke:#000000;stroke-width:0.3985;stroke-linecap:butt;stroke-linejoin:miter;stroke-miterlimit:10;stroke-dasharray:none;stroke-opacity:1"
       transform="matrix(1.3333333,0,0,-1.3333333,16.405333,120.81333)" />
    <g
       id="g5"
       aria-label="i&#10;C"
       transform="matrix(1.3333333,0,0,1.3333333,172.28133,50.685333)">
      <path
         id="path6"
         d="m 2.8241562,-6.2239609 c 0,-0.1992188 -0.1289062,-0.3632813 -0.3632812,-0.3632813 -0.2695313,0 -0.5390625,0.2578125 -0.5390625,0.5273438 0,0.1875 0.140625,0.3632812 0.375,0.3632812 0.234375,0 0.5273437,-0.234375 0.5273437,-0.5273437 z m -0.75,3.7382812 c 0.1171875,-0.28125 0.1171875,-0.3046875 0.2226563,-0.5742187 0.070312,-0.1992188 0.1289062,-0.3398438 0.1289062,-0.5273438 0,-0.4453125 -0.328125,-0.8203125 -0.8203125,-0.8203125 -0.93749995,0 -1.31249995,1.453125 -1.31249995,1.5351563 0,0.1054687 0.09375,0.1054687 0.1171875,0.1054687 0.09375,0 0.10546875,-0.023437 0.15234375,-0.1875 0.26953125,-0.9375 0.6679687,-1.2304687 1.0078125,-1.2304687 0.082031,0 0.2578125,0 0.2578125,0.3164062 0,0.2109375 -0.070312,0.421875 -0.1171875,0.515625 -0.082031,0.2578125 -0.5273438,1.4179688 -0.6796875,1.8515625 -0.10546875,0.2578125 -0.234375,0.58593751 -0.234375,0.79687501 0,0.46875 0.3398437,0.80859375 0.8203125,0.80859375 0.9375,0 1.3007812,-1.44140626 1.3007812,-1.53515626 0,-0.09375 -0.09375,-0.09375 -0.1171875,-0.09375 -0.1054687,0 -0.1054687,0.023437 -0.1523437,0.1757813 -0.1757813,0.63281246 -0.5039063,1.24218746 -1.0195313,1.24218746 -0.1640625,0 -0.234375,-0.10546875 -0.234375,-0.328125 0,-0.2578125 0.058594,-0.3984375 0.2929688,-0.99609376 z m 0,0"
         style="fill:#000000;fill-opacity:1;fill-rule:nonzero;stroke:none" />
      <path
         id="path7"
         d="m 9.3134141,-3.3206406 c 0,-0.035156 -0.023437,-0.082031 -0.09375,-0.082031 -0.046875,0 -0.070312,0.011719 -0.1289063,0.082031 l -0.5039062,0.5390625 c -0.070312,-0.082031 -0.4570313,-0.6210938 -1.3125,-0.6210938 -1.6992188,0 -3.3515625,1.5 -3.3515625,3.07031253 0,1.13671875 0.890625,1.96874997 2.1328125,1.96874997 0.375,0 1.0546875,-0.082031 1.7695312,-0.67968747 0.5507813,-0.46875 0.703125,-1.078125 0.703125,-1.13671875 0,-0.09375 -0.082031,-0.09375 -0.1171875,-0.09375 -0.09375,0 -0.1054687,0.0351563 -0.1289062,0.1171875 -0.28125,0.94921875 -1.265625,1.53515622 -2.109375,1.53515622 -0.7382813,0 -1.5585938,-0.38671872 -1.5585938,-1.48828122 0,-0.2109375 0.046875,-1.31249998 0.8554688,-2.19140628 0.4804687,-0.5273437 1.2070312,-0.8554687 1.875,-0.8554687 0.8085937,0 1.2773437,0.5859375 1.2773437,1.3710937 0,0.1875 -0.023437,0.2460938 -0.023437,0.28125 0,0.09375 0.09375,0.09375 0.1289063,0.09375 0.1171875,0 0.1171875,-0.023437 0.1523437,-0.1523437 z m 0,0"
         style="fill:#000000;fill-opacity:1;fill-rule:nonzero;stroke:none" />
    </g>
    <path
       id="path8"
       d="M 40.81963,76.81987 H 72.56802 V 64.91417 H 40.81963 Z"
       style="fill:none;stroke:#000000;stroke-width:0.797;stroke-linecap:butt;stroke-linejoin:miter;stroke-miterlimit:10;stroke-dasharray:none;stroke-opacity:1"
       transform="matrix(1.3333333,0,0,-1.3333333,16.405333,120.81333)" />
    <path
       id="path9"
       d="m 2.8956094,-3.50525 c 0.8085937,-0.2695313 1.3945312,-0.9726563 1.3945312,-1.7578125 0,-0.8203125 -0.8789062,-1.3710938 -1.8398437,-1.3710938 -1.0078125,0 -1.75781253,0.5976563 -1.75781253,1.3476563 0,0.3398437 0.2109375,0.5273437 0.50390623,0.5273437 0.3046875,0 0.5039063,-0.2226562 0.5039063,-0.515625 0,-0.4921875 -0.46875,-0.4921875 -0.609375,-0.4921875 0.3046875,-0.4921875 0.9609375,-0.6210937 1.3242187,-0.6210937 0.4101563,0 0.9492188,0.2226562 0.9492188,1.1132812 0,0.1289063 -0.011719,0.703125 -0.2695313,1.1367188 -0.3046875,0.4804687 -0.6445312,0.515625 -0.890625,0.515625 -0.082031,0.011719 -0.3164062,0.035156 -0.3867187,0.035156 -0.082031,0.011719 -0.1523438,0.023437 -0.1523438,0.1171875 0,0.1171875 0.070312,0.1171875 0.234375,0.1171875 h 0.4453125 c 0.8085938,0 1.1835938,0.6679688 1.1835938,1.6523438 0,1.34765625 -0.6914063,1.640625 -1.125,1.640625 -0.4335938,0 -1.171875,-0.17578125 -1.52343753,-0.76171875 0.35156253,0.0585938 0.65625003,-0.1640625 0.65625003,-0.53906255 0,-0.3632812 -0.2695313,-0.5625 -0.56250003,-0.5625 -0.234375,0 -0.55078125,0.140625 -0.55078125,0.5742188 0,0.9140625 0.92578128,1.5703125 2.00390628,1.5703125 1.21875,0 2.1210937,-0.9140625 2.1210937,-1.921875 0,-0.8203125 -0.6210937,-1.59375 -1.6523437,-1.8046873 z m 10.4765626,1.8867187 h -0.246094 c -0.04687,0.2578125 -0.08203,0.4921875 -0.175781,0.72656255 -0.04687,0.1640625 -0.08203,0.24609375 -0.65625,0.24609375 h -0.796875 c 0.128906,-0.5625 0.433594,-1.0429688 0.878906,-1.6992188 0.46875,-0.703125 0.878906,-1.3945312 0.878906,-2.1796875 0,-1.3828125 -1.335937,-2.4960937 -3.023437,-2.4960937 -1.7109376,0 -3.0351564,1.1367187 -3.0351564,2.4960937 0,0.7851563 0.3984375,1.4765625 0.8671875,2.1796875 0.4453125,0.65625 0.7617188,1.1367188 0.890625,1.6992188 h -0.796875 c -0.5742187,0 -0.609375,-0.0820313 -0.65625,-0.234375 C 7.4190469,-1.1029063 7.3721719,-1.3607188 7.3252969,-1.6185313 H 7.0674844 l 0.328125,1.61718755 h 1.59375 c 0.2226562,0 0.2578125,0 0.2578125,-0.2109375 0,-0.69140625 -0.3164063,-1.57031255 -0.5390625,-2.21484375 C 8.4971719,-3.0013438 8.2159219,-3.7865 8.2159219,-4.5365 c 0,-1.59375 1.1015625,-2.2734375 2.0039061,-2.2734375 0.960938,0 2.015625,0.7265625 2.015625,2.2734375 0,0.75 -0.269531,1.5117187 -0.5625,2.3203125 -0.152344,0.421875 -0.46875,1.3125 -0.46875,2.00390625 0,0.2109375 0.03516,0.2109375 0.257813,0.2109375 h 1.582031 z m 0,0"
       style="fill:#000000;fill-opacity:1;fill-rule:nonzero;stroke:none"
       aria-label="3Ω"
       transform="matrix(1.3333333,0,0,1.3333333,82.772,13.298667)" />
    <path
       id="path10"
       d="M 24.6618,70.86702 13.54968,63.92197"
       style="fill:none;stroke:#000000;stroke-width:0.797;stroke-linecap:butt;stroke-linejoin:miter;stroke-miterlimit:10;stroke-dasharray:none;stroke-opacity:1"
       transform="matrix(1.3333333,0,0,-1.3333333,16.405333,120.81333)" />
    <path
       id="path11"
       d="m 24.6618,62.53297 c -2.9771,0 -5.72895,1.58878 -7.21751,4.16704 -0.70515,1.22135 -1.08029,2.58573 -1.11406,3.96339"
       style="fill:none;stroke:#000000;stroke-width:0.797;stroke-linecap:butt;stroke-linejoin:bevel;stroke-miterlimit:10;stroke-dasharray:none;stroke-opacity:1"
       transform="matrix(1.3333333,0,0,-1.3333333,16.405333,120.81333)" />
    <path
       id="path12"
       d="m 3.1083,0 c -1.29513,0.25902 -3.62635,0.77707 -5.1805,1.94269 1.29513,-1.42464 1.29513,-2.46074 0,-3.88538 C -0.51805,-0.77707 1.81317,-0.25902 3.1083,0 Z"
       style="fill:#000000;fill-opacity:1;fill-rule:nonzero;stroke:none"
       transform="matrix(0.05057333,-1.3323333,-1.3323333,-0.05057333,38.68856,26.664693)" />
    <path
       id="path13"
       d="m 11.90572,35.4335 c 0,6.57543 -5.33031,11.90573 -11.90572,11.90573 -6.57541,0 -11.90572,-5.3303 -11.90572,-11.90573 0,-6.5754 5.33031,-11.90571 11.90572,-11.90571 6.57541,0 11.90572,5.33031 11.90572,11.90571 z"
       style="fill:none;stroke:#000000;stroke-width:0.797;stroke-linecap:butt;stroke-linejoin:miter;stroke-miterlimit:10;stroke-dasharray:none;stroke-opacity:1"
       transform="matrix(1.3333333,0,0,-1.3333333,16.405333,120.81333)" />
    <path
       id="path14"
       d="M 0,47.33923 V 23.52779"
       style="fill:none;stroke:#000000;stroke-width:0.797;stroke-linecap:butt;stroke-linejoin:miter;stroke-miterlimit:10;stroke-dasharray:none;stroke-opacity:1"
       transform="matrix(1.3333333,0,0,-1.3333333,16.405333,120.81333)" />
    <path
       id="path15"
       d="m 4.0766797,-2.2980781 h 2.7773437 c 0.140625,0 0.328125,0 0.328125,-0.1992188 0,-0.1992187 -0.1875,-0.1992187 -0.328125,-0.1992187 H 4.0766797 v -2.7890625 c 0,-0.1289063 0,-0.328125 -0.1992188,-0.328125 -0.1992187,0 -0.1992187,0.1992187 -0.1992187,0.328125 v 2.7890625 H 0.88917969 c -0.140625,0 -0.328125,0 -0.328125,0.1992187 0,0.1992188 0.1875,0.1992188 0.328125,0.1992188 H 3.6782422 v 2.80078122 c 0,0.12890625 0,0.328125 0.1992187,0.328125 0.1992188,0 0.1992188,-0.19921875 0.1992188,-0.328125 z m 0,0"
       style="fill:#000000;fill-opacity:1;fill-rule:nonzero;stroke:none"
       aria-label="+"
       transform="matrix(1.3333333,0,0,1.3333333,32.193333,64.790667)" />
    <path
       id="path16"
       d="m 6.5610547,-2.2966641 c 0.1757812,0 0.3515625,0 0.3515625,-0.1992187 0,-0.1992188 -0.1757813,-0.1992188 -0.3515625,-0.1992188 h -5.390625 c -0.1640625,0 -0.33984376,0 -0.33984376,0.1992188 0,0.1992187 0.17578126,0.1992187 0.33984376,0.1992187 z m 0,0"
       style="fill:#000000;fill-opacity:1;fill-rule:nonzero;stroke:none"
       aria-label="−"
       transform="matrix(1.3333333,0,0,1.3333333,32.193333,88.988)" />
    <g
       id="g16"
       aria-label="6V"
       transform="matrix(1.3333333,0,0,1.3333333,43.456,77.958667)">
      <path
         id="path17"
         d="m 1.3132734,-3.2707578 v -0.234375 c 0,-2.5195313 1.2421875,-2.8828125 1.7460938,-2.8828125 0.234375,0 0.65625,0.058594 0.8789062,0.3984375 -0.1523437,0 -0.5507812,0 -0.5507812,0.4453125 0,0.3164062 0.234375,0.4570312 0.4570312,0.4570312 0.1640625,0 0.4570313,-0.082031 0.4570313,-0.46875 0,-0.5976562 -0.4335938,-1.078125 -1.265625,-1.078125 -1.2773438,0 -2.61328126,1.2890625 -2.61328126,3.4804688 0,2.66015624 1.14843746,3.37499999 2.07421876,3.37499999 1.1132812,0 2.0507812,-0.9375 2.0507812,-2.24999999 0,-1.265625 -0.8789062,-2.2265625 -1.9921875,-2.2265625 -0.6679687,0 -1.0429687,0.5039062 -1.2421875,0.984375 z m 1.1835938,3.21093749 c -0.6210938,0 -0.9257813,-0.59765625 -0.984375,-0.75 C 1.3367109,-1.2785703 1.3367109,-2.0754453 1.3367109,-2.2512266 c 0,-0.7734375 0.3164063,-1.7695312 1.21875,-1.7695312 0.1523438,0 0.609375,0 0.9257813,0.609375 0.1757812,0.375 0.1757812,0.8789062 0.1757812,1.3710937 0,0.4804688 0,0.9726563 -0.1640625,1.33593754 -0.3046875,0.59765625 -0.7617187,0.64453125 -0.9960937,0.64453125 z m 0,0"
         style="fill:#000000;fill-opacity:1;fill-rule:nonzero;stroke:none" />
      <path
         id="path18"
         d="m 13.919719,-6.4934141 v -0.3164062 c -0.316406,0.023437 -0.714844,0.035156 -0.972656,0.035156 l -1.136719,-0.035156 v 0.3164062 c 0.515625,0.011719 0.726562,0.2695313 0.726562,0.4921875 0,0.082031 -0.02344,0.140625 -0.04687,0.1992188 l -1.82813,4.80468749 -1.8984372,-5.02734379 c -0.058594,-0.140625 -0.058594,-0.1875 -0.058594,-0.1875 0,-0.28125 0.5625,-0.28125 0.8203125,-0.28125 V -6.8098203 C 9.1619063,-6.7746641 8.4705,-6.7746641 8.0955,-6.7746641 l -1.265625,-0.035156 v 0.3164062 c 0.6445313,0 0.84375,0 0.9726563,0.375 l 2.3203127,6.11718754 c 0.07031,0.1875 0.117187,0.22265625 0.246094,0.22265625 0.164062,0 0.1875,-0.0585938 0.234375,-0.1875 l 2.226562,-5.85937499 c 0.140625,-0.375 0.410156,-0.65625 1.089844,-0.667969 z m 0,0"
         style="fill:#000000;fill-opacity:1;fill-rule:nonzero;stroke:none" />
    </g>
    <path
       id="path19"
       d="m 81.49666,0 -2e-5,19.55931 m 0,31.7484 2e-5,19.55932"
       style="fill:none;stroke:#000000;stroke-width:0.3985;stroke-linecap:butt;stroke-linejoin:miter;stroke-miterlimit:10;stroke-dasharray:none;stroke-opacity:1"
       transform="matrix(1.3333333,0,0,-1.3333333,16.405333,120.81333)" />
    <path
       id="path20"
       d="M 87.4495,51.30771 V 19.55931 H 75.5438 v 31.7484 z"
       style="fill:none;stroke:#000000;stroke-width:0.797;stroke-linecap:butt;stroke-linejoin:miter;stroke-miterlimit:10;stroke-dasharray:none;stroke-opacity:1"
       transform="matrix(1.3333333,0,0,-1.3333333,16.405333,120.81333)" />
    <path
       id="path21"
       d="m 2.8932422,-3.5046406 c 0.8085937,-0.2695313 1.3945312,-0.9726563 1.3945312,-1.7578125 0,-0.8203125 -0.8789062,-1.3710938 -1.8398437,-1.3710938 -1.0078125,0 -1.75781251,0.5976563 -1.75781251,1.3476563 0,0.3398437 0.2109375,0.5273437 0.50390621,0.5273437 0.3046875,0 0.5039063,-0.2226562 0.5039063,-0.515625 0,-0.4921875 -0.46875,-0.4921875 -0.609375,-0.4921875 0.3046875,-0.4921875 0.9609375,-0.6210937 1.3242187,-0.6210937 0.4101563,0 0.9492188,0.2226562 0.9492188,1.1132812 0,0.1289063 -0.011719,0.703125 -0.2695313,1.1367188 -0.3046875,0.4804687 -0.6445312,0.515625 -0.890625,0.515625 -0.082031,0.011719 -0.3164062,0.035156 -0.3867187,0.035156 -0.082031,0.011719 -0.1523438,0.023437 -0.1523438,0.1171875 0,0.1171875 0.070312,0.1171875 0.234375,0.1171875 h 0.4453125 c 0.8085938,0 1.1835938,0.6679688 1.1835938,1.6523438 0,1.34765622 -0.6914063,1.64062497 -1.125,1.64062497 -0.4335938,0 -1.171875,-0.17578125 -1.52343751,-0.76171875 0.35156251,0.0585938 0.65625001,-0.1640625 0.65625001,-0.53906252 0,-0.3632812 -0.2695313,-0.5625 -0.56250001,-0.5625 -0.234375,0 -0.55078125,0.140625 -0.55078125,0.5742188 0,0.91406247 0.92578126,1.57031247 2.00390626,1.57031247 1.21875,0 2.1210937,-0.9140625 2.1210937,-1.92187497 0,-0.8203125 -0.6210937,-1.59375 -1.6523437,-1.8046873 z m 10.4794918,1.8867187 h -0.246093 c -0.04687,0.2578125 -0.08203,0.4921875 -0.175782,0.72656252 -0.04687,0.1640625 -0.08203,0.24609375 -0.65625,0.24609375 h -0.796875 c 0.128907,-0.56249997 0.433594,-1.04296877 0.878907,-1.69921877 0.46875,-0.703125 0.878906,-1.3945312 0.878906,-2.1796875 0,-1.3828125 -1.335938,-2.4960937 -3.023438,-2.4960937 -1.7109371,0 -3.0351559,1.1367187 -3.0351559,2.4960937 0,0.7851563 0.3984375,1.4765625 0.8671875,2.1796875 0.4453125,0.65625 0.7617188,1.1367188 0.890625,1.69921877 h -0.796875 c -0.5742187,0 -0.609375,-0.0820313 -0.65625,-0.234375 C 7.4196094,-1.1022969 7.3727344,-1.3601094 7.3258594,-1.6179219 H 7.0680469 l 0.328125,1.617187525 h 1.59375 c 0.2226562,0 0.2578125,0 0.2578125,-0.210937505 0,-0.69140625 -0.3164063,-1.57031252 -0.5390625,-2.21484372 -0.2109375,-0.5742188 -0.4921875,-1.359375 -0.4921875,-2.109375 0,-1.59375 1.1015625,-2.2734375 2.0039066,-2.2734375 0.960937,0 2.015625,0.7265625 2.015625,2.2734375 0,0.75 -0.269532,1.5117187 -0.5625,2.3203125 -0.152344,0.421875 -0.46875,1.31249997 -0.46875,2.00390622 0,0.210937505 0.03516,0.210937505 0.257812,0.210937505 h 1.582031 z m 0,0"
       style="fill:#000000;fill-opacity:1;fill-rule:nonzero;stroke:none"
       aria-label="3Ω"
       transform="matrix(1.3333333,0,0,1.3333333,95.74,76.430667)" />
  </g>
</svg>
