<?xml version="1.0" encoding="UTF-8" standalone="no"?>
<!-- Created with Inkscape (http://www.inkscape.org/) -->
<svg version="1.1" id="svg1" width="471.32001" height="146.02667" viewBox="0 0 471.32001 146.02667" sodipodi:docname="24-25-2-电路分析基础-期中-解答4.pdf" xmlns:inkscape="http://www.inkscape.org/namespaces/inkscape" xmlns:sodipodi="http://sodipodi.sourceforge.net/DTD/sodipodi-0.dtd" xmlns="http://www.w3.org/2000/svg" xmlns:svg="http://www.w3.org/2000/svg">
  <defs id="defs1"/>
  <sodipodi:namedview id="namedview1" pagecolor="#ffffff" bordercolor="#000000" borderopacity="0.25" inkscape:showpageshadow="2" inkscape:pageopacity="0.0" inkscape:pagecheckerboard="0" inkscape:deskcolor="#d1d1d1">
    <inkscape:page x="0" y="0" inkscape:label="1" id="page1" width="471.32001" height="146.02667" margin="0" bleed="0"/>
  </sodipodi:namedview>
  <g id="g1" inkscape:groupmode="layer" inkscape:label="1">
    <path id="path1" d="M -25.24821,-14.61378 V 94.90851 H 328.242 V -14.61378 Z" style="fill:#ffffff;fill-opacity:1;fill-rule:nonzero;stroke:none" transform="matrix(1.3333333,0,0,-1.3333333,33.664,126.54133)"/>
    <path id="path2" d="m 0,0 v 23.52779 m 0,23.81144 v 23.5278" style="fill:none;stroke:#000000;stroke-width:0.3985;stroke-linecap:butt;stroke-linejoin:miter;stroke-miterlimit:10;stroke-dasharray:none;stroke-opacity:1" transform="matrix(1.3333333,0,0,-1.3333333,33.664,126.54133)"/>
    <path id="path3" d="m -11.90572,35.4335 c 0,-6.5754 5.33031,-11.90571 11.90572,-11.90571 6.57541,0 11.90572,5.33031 11.90572,11.90571 0,6.57543 -5.33031,11.90573 -11.90572,11.90573 -6.57541,0 -11.90572,-5.3303 -11.90572,-11.90573 z m 0,0 h 23.81144" style="fill:none;stroke:#000000;stroke-width:0.797;stroke-linecap:butt;stroke-linejoin:miter;stroke-miterlimit:10;stroke-dasharray:none;stroke-opacity:1" transform="matrix(1.3333333,0,0,-1.3333333,33.664,126.54133)"/>
    <path id="path4" d="M 0,57.36691 H 1.98425 L 0,61.58345 -1.98425,57.36691 Z" style="fill:#000000;fill-opacity:1;fill-rule:nonzero;stroke:#000000;stroke-width:0.3985;stroke-linecap:butt;stroke-linejoin:miter;stroke-miterlimit:10;stroke-dasharray:none;stroke-opacity:1" transform="matrix(1.3333333,0,0,-1.3333333,33.664,126.54133)"/>
    <g id="g4" aria-label="5A" transform="matrix(1.3333333,0,0,1.3333333,10.152,52.493333)">
      <path id="path5" d="m 4.4768203,-2.0047656 c 0,-1.1835938 -0.8203125,-2.1796875 -1.8984375,-2.1796875 -0.4804687,0 -0.9023437,0.1640625 -1.265625,0.5039062 v -1.9335937 c 0.1992188,0.058594 0.5273438,0.1289062 0.84375,0.1289062 1.2304688,0 1.9335938,-0.9140625 1.9335938,-1.0429687 0,-0.058594 -0.035156,-0.1054688 -0.1054688,-0.1054688 -0.011719,0 -0.035156,0 -0.082031,0.023437 -0.1992188,0.09375 -0.6796875,0.2929688 -1.3476563,0.2929688 -0.3984375,0 -0.8554687,-0.070312 -1.3242187,-0.28125 -0.082031,-0.023437 -0.1054688,-0.023437 -0.1289063,-0.023437 -0.09375,0 -0.09375,0.082031 -0.09375,0.234375 v 2.953125 c 0,0.1757812 0,0.2578125 0.140625,0.2578125 0.070312,0 0.082031,-0.035156 0.1289063,-0.09375 0.1054687,-0.1523438 0.4804687,-0.6914063 1.2773437,-0.6914063 0.5273438,0 0.7734375,0.4570313 0.8554688,0.6328125 0.1523437,0.375 0.1757812,0.7617188 0.1757812,1.2539063 0,0.3515625 0,0.9492187 -0.234375,1.37109373 -0.2460937,0.38671875 -0.609375,0.64453125 -1.0664062,0.64453125 -0.7265625,0 -1.30078129,-0.52734375 -1.46484379,-1.11328128 0.0234375,0.011719 0.0585938,0.011719 0.1640625,0.011719 0.32812499,0 0.50390629,-0.2460938 0.50390629,-0.4804688 0,-0.2460937 -0.1757813,-0.4921875 -0.50390629,-0.4921875 -0.140625,0 -0.48046875,0.070312 -0.48046875,0.5273438 0,0.85546873 0.67968754,1.82812498 1.79296874,1.82812498 1.1601563,0 2.1796875,-0.9609375 2.1796873,-2.22656268 z m 0,0" style="fill:#000000;fill-opacity:1;fill-rule:nonzero;stroke:none"/>
      <path id="path6" d="M 13.778578,-8.59375e-4 V -0.30554687 h -0.175781 c -0.597656,0 -0.738281,-0.0703125 -0.84375,-0.3984375 l -2.15625,-6.23437503 c -0.04687,-0.1289062 -0.07031,-0.1992187 -0.222656,-0.1992187 -0.164063,0 -0.1875,0.058594 -0.246094,0.1992187 l -2.0625001,5.96484378 c -0.1757813,0.50390625 -0.5742188,0.65625 -1.1132813,0.66796875 V -8.59375e-4 L 7.9777969,-0.03601562 9.1262344,-8.59375e-4 V -0.30554687 c -0.5039063,0 -0.75,-0.2578125 -0.75,-0.515625 0,-0.0234375 0.011719,-0.12890625 0.023437,-0.140625 L 8.8567031,-2.2742969 h 2.4609379 l 0.527343,1.52343753 c 0.01172,0.046875 0.02344,0.10546875 0.02344,0.140625 0,0.3046875 -0.550781,0.3046875 -0.820313,0.3046875 V -8.59375e-4 C 11.399672,-0.03601562 12.102797,-0.03601562 12.477797,-0.03601562 Z M 11.200453,-2.5789844 H 8.9621719 l 1.1132811,-3.234375 z m 0,0" style="fill:#000000;fill-opacity:1;fill-rule:nonzero;stroke:none"/>
    </g>
    <path id="path7" d="m 42.52022,0 -2e-5,19.55931 m 0,31.7484 2e-5,19.55932" style="fill:none;stroke:#000000;stroke-width:0.3985;stroke-linecap:butt;stroke-linejoin:miter;stroke-miterlimit:10;stroke-dasharray:none;stroke-opacity:1" transform="matrix(1.3333333,0,0,-1.3333333,33.664,126.54133)"/>
    <path id="path8" d="m 48.47305,51.30771 v -31.7484 h -11.9057 v 31.7484 z" style="fill:none;stroke:#000000;stroke-width:0.797;stroke-linecap:butt;stroke-linejoin:miter;stroke-miterlimit:10;stroke-dasharray:none;stroke-opacity:1" transform="matrix(1.3333333,0,0,-1.3333333,33.664,126.54133)"/>
    <path id="path9" d="m 44.10736,0 c 0,0.87656 -0.71059,1.58714 -1.58714,1.58714 -0.87657,0 -1.58715,-0.71058 -1.58715,-1.58714 0,-0.87656 0.71058,-1.58714 1.58715,-1.58714 0.87655,0 1.58714,0.71058 1.58714,1.58714 z" style="fill:#000000;fill-opacity:1;fill-rule:nonzero;stroke:#000000;stroke-width:0.3985;stroke-linecap:butt;stroke-linejoin:miter;stroke-miterlimit:10;stroke-dasharray:none;stroke-opacity:1" transform="matrix(1.3333333,0,0,-1.3333333,33.664,126.54133)"/>
    <path id="path10" d="m 44.10736,70.86703 c 0,0.87657 -0.71059,1.58717 -1.58714,1.58717 -0.87657,0 -1.58715,-0.7106 -1.58715,-1.58717 0,-0.87655 0.71058,-1.58714 1.58715,-1.58714 0.87655,0 1.58714,0.71059 1.58714,1.58714 z" style="fill:#000000;fill-opacity:1;fill-rule:nonzero;stroke:#000000;stroke-width:0.3985;stroke-linecap:butt;stroke-linejoin:miter;stroke-miterlimit:10;stroke-dasharray:none;stroke-opacity:1" transform="matrix(1.3333333,0,0,-1.3333333,33.664,126.54133)"/>
    <path id="path11" d="m 2.930125,-6.3738828 c 0,-0.234375 0,-0.2578125 -0.234375,-0.2578125 -0.609375,0.6328125 -1.4882812,0.6328125 -1.8046875,0.6328125 v 0.3164062 c 0.1992188,0 0.7851563,0 1.3007813,-0.2578125 v 5.15625004 c 0,0.3515625 -0.035156,0.48046875 -0.9257813,0.48046875 H 0.94965625 v 0.3046875 C 1.3012188,-0.03403906 2.1566875,-0.03403906 2.555125,-0.03403906 c 0.3984375,0 1.265625,0 1.6171875,0.03515625 v -0.3046875 H 3.8559063 c -0.9023438,0 -0.9257813,-0.1171875 -0.9257813,-0.48046875 z m 10.444336,4.7578125 h -0.246094 c -0.04687,0.2578125 -0.08203,0.4921875 -0.175781,0.72656249 -0.04687,0.1640625 -0.08203,0.24609375 -0.65625,0.24609375 h -0.796875 c 0.128906,-0.56250004 0.433594,-1.04296874 0.878906,-1.69921874 0.46875,-0.703125 0.878906,-1.3945313 0.878906,-2.1796875 0,-1.3828125 -1.335937,-2.4960938 -3.023437,-2.4960938 -1.7109376,0 -3.0351563,1.1367188 -3.0351563,2.4960938 0,0.7851562 0.3984375,1.4765625 0.8671875,2.1796875 0.4453125,0.65625 0.7617187,1.1367187 0.890625,1.69921874 h -0.796875 c -0.5742188,0 -0.609375,-0.0820313 -0.65625,-0.234375 C 7.4213359,-1.1004453 7.3744609,-1.3582578 7.3275859,-1.6160703 H 7.0697734 l 0.328125,1.61718749 h 1.59375 c 0.2226563,0 0.2578125,0 0.2578125,-0.2109375 0,-0.69140625 -0.3164062,-1.57031249 -0.5390625,-2.21484379 -0.2109375,-0.5742187 -0.4921875,-1.359375 -0.4921875,-2.109375 0,-1.59375 1.1015625,-2.2734375 2.0039061,-2.2734375 0.960938,0 2.015625,0.7265625 2.015625,2.2734375 0,0.75 -0.269531,1.5117188 -0.5625,2.3203125 -0.152344,0.421875 -0.46875,1.31250004 -0.46875,2.00390629 0,0.2109375 0.03516,0.2109375 0.257813,0.2109375 h 1.582031 z m 0,0" style="fill:#000000;fill-opacity:1;fill-rule:nonzero;stroke:none" aria-label="1Ω" transform="matrix(1.3333333,0,0,1.3333333,61.030667,82.158667)"/>
    <path id="path12" d="m 85.04044,0 v 19.55931 m 0,31.7484 v 19.55932" style="fill:none;stroke:#000000;stroke-width:0.3985;stroke-linecap:butt;stroke-linejoin:miter;stroke-miterlimit:10;stroke-dasharray:none;stroke-opacity:1" transform="matrix(1.3333333,0,0,-1.3333333,33.664,126.54133)"/>
    <path id="path13" d="m 90.99329,51.30771 v -31.7484 h -11.9057 v 31.7484 z" style="fill:none;stroke:#000000;stroke-width:0.797;stroke-linecap:butt;stroke-linejoin:miter;stroke-miterlimit:10;stroke-dasharray:none;stroke-opacity:1" transform="matrix(1.3333333,0,0,-1.3333333,33.664,126.54133)"/>
    <path id="path14" d="m 86.62758,0 c 0,0.87656 -0.71059,1.58714 -1.58714,1.58714 -0.87656,0 -1.58714,-0.71058 -1.58714,-1.58714 0,-0.87656 0.71058,-1.58714 1.58714,-1.58714 0.87655,0 1.58714,0.71058 1.58714,1.58714 z" style="fill:#000000;fill-opacity:1;fill-rule:nonzero;stroke:#000000;stroke-width:0.3985;stroke-linecap:butt;stroke-linejoin:miter;stroke-miterlimit:10;stroke-dasharray:none;stroke-opacity:1" transform="matrix(1.3333333,0,0,-1.3333333,33.664,126.54133)"/>
    <path id="path15" d="m 86.62758,70.86703 c 0,0.87657 -0.71059,1.58717 -1.58714,1.58717 -0.87656,0 -1.58714,-0.7106 -1.58714,-1.58717 0,-0.87655 0.71058,-1.58714 1.58714,-1.58714 0.87655,0 1.58714,0.71059 1.58714,1.58714 z" style="fill:#000000;fill-opacity:1;fill-rule:nonzero;stroke:#000000;stroke-width:0.3985;stroke-linecap:butt;stroke-linejoin:miter;stroke-miterlimit:10;stroke-dasharray:none;stroke-opacity:1" transform="matrix(1.3333333,0,0,-1.3333333,33.664,126.54133)"/>
    <path id="path16" d="m 2.9286797,-6.3738828 c 0,-0.234375 0,-0.2578125 -0.234375,-0.2578125 -0.609375,0.6328125 -1.4882813,0.6328125 -1.80468751,0.6328125 v 0.3164062 c 0.19921871,0 0.78515621,0 1.30078121,-0.2578125 v 5.15625004 c 0,0.3515625 -0.035156,0.48046875 -0.9257812,0.48046875 H 0.94821094 v 0.3046875 C 1.2997734,-0.03403906 2.1552422,-0.03403906 2.5536797,-0.03403906 c 0.3984375,0 1.265625,0 1.6171875,0.03515625 v -0.3046875 H 3.8544609 c -0.9023437,0 -0.9257812,-0.1171875 -0.9257812,-0.48046875 z m 10.4443363,4.7578125 h -0.246094 c -0.04687,0.2578125 -0.08203,0.4921875 -0.175781,0.72656249 -0.04687,0.1640625 -0.08203,0.24609375 -0.65625,0.24609375 h -0.796875 c 0.128906,-0.56250004 0.433593,-1.04296874 0.878906,-1.69921874 0.46875,-0.703125 0.878906,-1.3945313 0.878906,-2.1796875 0,-1.3828125 -1.335937,-2.4960938 -3.023437,-2.4960938 -1.7109379,0 -3.0351566,1.1367188 -3.0351566,2.4960938 0,0.7851562 0.3984375,1.4765625 0.8671875,2.1796875 0.4453125,0.65625 0.7617187,1.1367187 0.890625,1.69921874 h -0.796875 c -0.5742188,0 -0.609375,-0.0820313 -0.65625,-0.234375 C 7.4198906,-1.1004453 7.3730156,-1.3582578 7.3261406,-1.6160703 H 7.0683281 l 0.328125,1.61718749 h 1.59375 c 0.2226563,0 0.2578125,0 0.2578125,-0.2109375 0,-0.69140625 -0.3164062,-1.57031249 -0.5390625,-2.21484379 -0.2109375,-0.5742187 -0.4921875,-1.359375 -0.4921875,-2.109375 0,-1.59375 1.1015625,-2.2734375 2.0039064,-2.2734375 0.960937,0 2.015625,0.7265625 2.015625,2.2734375 0,0.75 -0.269531,1.5117188 -0.5625,2.3203125 -0.152344,0.421875 -0.46875,1.31250004 -0.46875,2.00390629 0,0.2109375 0.03516,0.2109375 0.257812,0.2109375 h 1.582032 z m 0,0" style="fill:#000000;fill-opacity:1;fill-rule:nonzero;stroke:none" aria-label="1Ω" transform="matrix(1.3333333,0,0,1.3333333,117.724,82.158667)"/>
    <path id="path17" d="m 127.56065,0 -10e-6,23.52779 m 0,23.81144 10e-6,23.5278" style="fill:none;stroke:#000000;stroke-width:0.3985;stroke-linecap:butt;stroke-linejoin:miter;stroke-miterlimit:10;stroke-dasharray:none;stroke-opacity:1" transform="matrix(1.3333333,0,0,-1.3333333,33.664,126.54133)"/>
    <path id="path18" d="m 115.65492,35.4335 c 0,-6.5754 5.33031,-11.90571 11.90572,-11.90571 6.57542,0 11.90573,5.33031 11.90573,11.90571 0,6.57543 -5.33031,11.90573 -11.90573,11.90573 -6.57541,0 -11.90572,-5.3303 -11.90572,-11.90573 z m 0,0 h 23.81145" style="fill:none;stroke:#000000;stroke-width:0.797;stroke-linecap:butt;stroke-linejoin:miter;stroke-miterlimit:10;stroke-dasharray:none;stroke-opacity:1" transform="matrix(1.3333333,0,0,-1.3333333,33.664,126.54133)"/>
    <path id="path19" d="m 129.14781,0 c 0,0.87656 -0.71058,1.58714 -1.58716,1.58714 -0.87655,0 -1.58714,-0.71058 -1.58714,-1.58714 0,-0.87656 0.71059,-1.58714 1.58714,-1.58714 0.87658,0 1.58716,0.71058 1.58716,1.58714 z" style="fill:#000000;fill-opacity:1;fill-rule:nonzero;stroke:#000000;stroke-width:0.3985;stroke-linecap:butt;stroke-linejoin:miter;stroke-miterlimit:10;stroke-dasharray:none;stroke-opacity:1" transform="matrix(1.3333333,0,0,-1.3333333,33.664,126.54133)"/>
    <path id="path20" d="m 129.14781,70.86703 c 0,0.87657 -0.71058,1.58717 -1.58716,1.58717 -0.87655,0 -1.58714,-0.7106 -1.58714,-1.58717 0,-0.87655 0.71059,-1.58714 1.58714,-1.58714 0.87658,0 1.58716,0.71059 1.58716,1.58714 z" style="fill:#000000;fill-opacity:1;fill-rule:nonzero;stroke:#000000;stroke-width:0.3985;stroke-linecap:butt;stroke-linejoin:miter;stroke-miterlimit:10;stroke-dasharray:none;stroke-opacity:1" transform="matrix(1.3333333,0,0,-1.3333333,33.664,126.54133)"/>
    <path id="path21" d="m 127.56064,57.36691 h 1.98425 l -1.98425,4.21654 -1.98425,-4.21654 z" style="fill:#000000;fill-opacity:1;fill-rule:nonzero;stroke:#000000;stroke-width:0.3985;stroke-linecap:butt;stroke-linejoin:miter;stroke-miterlimit:10;stroke-dasharray:none;stroke-opacity:1" transform="matrix(1.3333333,0,0,-1.3333333,33.664,126.54133)"/>
    <g id="g21" aria-label="5A" transform="matrix(1.3333333,0,0,1.3333333,180.23333,52.493333)">
      <path id="path22" d="m 4.4773437,-2.0047656 c 0,-1.1835938 -0.8203125,-2.1796875 -1.8984375,-2.1796875 -0.4804687,0 -0.9023437,0.1640625 -1.265625,0.5039062 v -1.9335937 c 0.1992188,0.058594 0.5273438,0.1289062 0.84375,0.1289062 1.2304688,0 1.9335938,-0.9140625 1.9335938,-1.0429687 0,-0.058594 -0.035156,-0.1054688 -0.1054688,-0.1054688 -0.011719,0 -0.035156,0 -0.082031,0.023437 -0.1992188,0.09375 -0.6796875,0.2929688 -1.3476563,0.2929688 -0.3984375,0 -0.8554687,-0.070312 -1.3242187,-0.28125 -0.082031,-0.023437 -0.1054688,-0.023437 -0.1289063,-0.023437 -0.09375,0 -0.09375,0.082031 -0.09375,0.234375 v 2.953125 c 0,0.1757812 0,0.2578125 0.140625,0.2578125 0.070312,0 0.082031,-0.035156 0.1289063,-0.09375 0.1054687,-0.1523438 0.4804687,-0.6914063 1.2773437,-0.6914063 0.5273438,0 0.7734375,0.4570313 0.8554688,0.6328125 0.1523437,0.375 0.1757812,0.7617188 0.1757812,1.2539063 0,0.3515625 0,0.9492187 -0.234375,1.37109373 -0.2460937,0.38671875 -0.609375,0.64453125 -1.0664062,0.64453125 -0.7265625,0 -1.30078125,-0.52734375 -1.46484375,-1.11328128 0.0234375,0.011719 0.0585938,0.011719 0.1640625,0.011719 0.32812495,0 0.50390625,-0.2460938 0.50390625,-0.4804688 0,-0.2460937 -0.1757813,-0.4921875 -0.50390625,-0.4921875 -0.140625,0 -0.48046875,0.070312 -0.48046875,0.5273438 0,0.85546873 0.6796875,1.82812498 1.7929687,1.82812498 1.1601563,0 2.1796875,-0.9609375 2.1796873,-2.22656268 z m 0,0" style="fill:#000000;fill-opacity:1;fill-rule:nonzero;stroke:none"/>
      <path id="path23" d="M 13.779102,-8.59375e-4 V -0.30554687 H 13.60332 c -0.597656,0 -0.738281,-0.0703125 -0.84375,-0.3984375 L 10.60332,-6.9383594 c -0.04687,-0.1289062 -0.07031,-0.1992187 -0.222656,-0.1992187 -0.164062,0 -0.1875,0.058594 -0.246094,0.1992187 l -2.0624997,5.96484378 c -0.1757812,0.50390625 -0.5742187,0.65625 -1.1132812,0.66796875 V -8.59375e-4 L 7.9783203,-0.03601562 9.1267578,-8.59375e-4 V -0.30554687 c -0.5039062,0 -0.75,-0.2578125 -0.75,-0.515625 0,-0.0234375 0.011719,-0.12890625 0.023437,-0.140625 L 8.8572266,-2.2742969 h 2.4609374 l 0.527344,1.52343753 c 0.01172,0.046875 0.02344,0.10546875 0.02344,0.140625 0,0.3046875 -0.550781,0.3046875 -0.820312,0.3046875 V -8.59375e-4 C 11.400195,-0.03601562 12.10332,-0.03601562 12.47832,-0.03601562 Z M 11.200977,-2.5789844 H 8.9626953 l 1.1132817,-3.234375 z m 0,0" style="fill:#000000;fill-opacity:1;fill-rule:nonzero;stroke:none"/>
    </g>
    <path id="path24" d="m 127.56065,70.86703 5.38591,-1e-5 m 31.7484,0 5.38593,1e-5" style="fill:none;stroke:#000000;stroke-width:0.3985;stroke-linecap:butt;stroke-linejoin:miter;stroke-miterlimit:10;stroke-dasharray:none;stroke-opacity:1" transform="matrix(1.3333333,0,0,-1.3333333,33.664,126.54133)"/>
    <path id="path25" d="m 132.94656,76.81987 h 31.74838 v -11.9057 h -31.74838 z" style="fill:none;stroke:#000000;stroke-width:0.797;stroke-linecap:butt;stroke-linejoin:miter;stroke-miterlimit:10;stroke-dasharray:none;stroke-opacity:1" transform="matrix(1.3333333,0,0,-1.3333333,33.664,126.54133)"/>
    <path id="path26" d="M 1.2660156,-0.76121094 2.3207031,-1.7924609 c 1.5585938,-1.3710938 2.15625,-1.9101563 2.15625,-2.90625 0,-1.1367188 -0.9023437,-1.9335938 -2.1210937,-1.9335938 -1.125,0 -1.85156253,0.9140625 -1.85156253,1.8046875 0,0.5507813 0.4921875,0.5507813 0.52734373,0.5507813 0.1640625,0 0.515625,-0.1171875 0.515625,-0.5273438 0,-0.2578125 -0.1875,-0.515625 -0.5273437,-0.515625 -0.0820313,0 -0.10546878,0 -0.12890628,0.011719 C 1.1136719,-5.952617 1.6527344,-6.327617 2.2269531,-6.327617 c 0.9140625,0 1.3359375,0.8085938 1.3359375,1.6289063 0,0.796875 -0.4921875,1.5820312 -1.0429687,2.203125 L 0.60976562,-0.36277344 C 0.50429687,-0.25730469 0.50429687,-0.23386719 0.50429687,5.078125e-4 H 4.1957031 L 4.4769531,-1.7338672 H 4.2191406 c -0.046875,0.3046875 -0.1171875,0.73828126 -0.2109375,0.89062501 -0.070313,0.0820313 -0.7265625,0.0820313 -0.9492187,0.0820313 z M 13.374414,-1.6166797 H 13.12832 c -0.04687,0.2578125 -0.08203,0.4921875 -0.175781,0.72656251 -0.04687,0.1640625 -0.08203,0.24609375 -0.65625,0.24609375 h -0.796875 c 0.128906,-0.56249996 0.433594,-1.04296876 0.878906,-1.69921876 0.46875,-0.703125 0.878907,-1.3945312 0.878907,-2.1796875 0,-1.3828125 -1.335938,-2.4960937 -3.023438,-2.4960937 -1.7109374,0 -3.0351562,1.1367187 -3.0351562,2.4960937 0,0.7851563 0.3984375,1.4765625 0.8671875,2.1796875 0.4453125,0.65625 0.7617188,1.1367188 0.890625,1.69921876 h -0.796875 c -0.5742187,0 -0.609375,-0.0820313 -0.65625,-0.234375 C 7.4212891,-1.1010547 7.3744141,-1.3588672 7.3275391,-1.6166797 H 7.0697266 l 0.328125,1.6171875125 h 1.59375 c 0.2226562,0 0.2578125,0 0.2578125,-0.2109375025 0,-0.69140625 -0.3164063,-1.57031251 -0.5390625,-2.21484371 -0.2109375,-0.5742188 -0.4921875,-1.359375 -0.4921875,-2.109375 0,-1.59375 1.1015625,-2.2734375 2.0039059,-2.2734375 0.960938,0 2.015625,0.7265625 2.015625,2.2734375 0,0.75 -0.269531,1.5117187 -0.5625,2.3203125 -0.152343,0.421875 -0.46875,1.31249996 -0.46875,2.00390621 0,0.2109375025 0.03516,0.2109375025 0.257813,0.2109375025 h 1.582031 z m 0,0" style="fill:#000000;fill-opacity:1;fill-rule:nonzero;stroke:none" aria-label="2Ω" transform="matrix(1.3333333,0,0,1.3333333,222.86667,19.026667)"/>
    <path id="path27" d="m 170.08089,0 v 23.52779 m 0,23.81144 v 23.5278" style="fill:none;stroke:#000000;stroke-width:0.3985;stroke-linecap:butt;stroke-linejoin:miter;stroke-miterlimit:10;stroke-dasharray:none;stroke-opacity:1" transform="matrix(1.3333333,0,0,-1.3333333,33.664,126.54133)"/>
    <path id="path28" d="m 158.17517,35.4335 c 0,-6.5754 5.33029,-11.90571 11.90572,-11.90571 6.57541,0 11.90571,5.33031 11.90571,11.90571 0,6.57543 -5.3303,11.90573 -11.90571,11.90573 -6.57543,0 -11.90572,-5.3303 -11.90572,-11.90573 z m 0,0 h 23.81143" style="fill:none;stroke:#000000;stroke-width:0.797;stroke-linecap:butt;stroke-linejoin:miter;stroke-miterlimit:10;stroke-dasharray:none;stroke-opacity:1" transform="matrix(1.3333333,0,0,-1.3333333,33.664,126.54133)"/>
    <path id="path29" d="m 171.66803,0 c 0,0.87656 -0.71059,1.58714 -1.58714,1.58714 -0.87657,0 -1.58716,-0.71058 -1.58716,-1.58714 0,-0.87656 0.71059,-1.58714 1.58716,-1.58714 0.87655,0 1.58714,0.71058 1.58714,1.58714 z" style="fill:#000000;fill-opacity:1;fill-rule:nonzero;stroke:#000000;stroke-width:0.3985;stroke-linecap:butt;stroke-linejoin:miter;stroke-miterlimit:10;stroke-dasharray:none;stroke-opacity:1" transform="matrix(1.3333333,0,0,-1.3333333,33.664,126.54133)"/>
    <path id="path30" d="m 171.66803,70.86703 c 0,0.87657 -0.71059,1.58717 -1.58714,1.58717 -0.87657,0 -1.58716,-0.7106 -1.58716,-1.58717 0,-0.87655 0.71059,-1.58714 1.58716,-1.58714 0.87655,0 1.58714,0.71059 1.58714,1.58714 z" style="fill:#000000;fill-opacity:1;fill-rule:nonzero;stroke:#000000;stroke-width:0.3985;stroke-linecap:butt;stroke-linejoin:miter;stroke-miterlimit:10;stroke-dasharray:none;stroke-opacity:1" transform="matrix(1.3333333,0,0,-1.3333333,33.664,126.54133)"/>
    <path id="path31" d="m 170.08089,57.36691 h 1.98425 l -1.98425,4.21654 -1.98426,-4.21654 z" style="fill:#000000;fill-opacity:1;fill-rule:nonzero;stroke:#000000;stroke-width:0.3985;stroke-linecap:butt;stroke-linejoin:miter;stroke-miterlimit:10;stroke-dasharray:none;stroke-opacity:1" transform="matrix(1.3333333,0,0,-1.3333333,33.664,126.54133)"/>
    <g id="g31" aria-label="5A" transform="matrix(1.3333333,0,0,1.3333333,265.132,52.493333)">
      <path id="path32" d="m 4.4771719,-2.0047656 c 0,-1.1835938 -0.8203125,-2.1796875 -1.8984375,-2.1796875 -0.4804688,0 -0.9023438,0.1640625 -1.265625,0.5039062 v -1.9335937 c 0.1992187,0.058594 0.5273437,0.1289062 0.84375,0.1289062 1.2304687,0 1.9335937,-0.9140625 1.9335937,-1.0429687 0,-0.058594 -0.035156,-0.1054688 -0.1054687,-0.1054688 -0.011719,0 -0.035156,0 -0.082031,0.023437 -0.1992187,0.09375 -0.6796875,0.2929688 -1.3476562,0.2929688 -0.3984375,0 -0.8554688,-0.070312 -1.3242188,-0.28125 -0.082031,-0.023437 -0.1054687,-0.023437 -0.1289062,-0.023437 -0.09375,0 -0.09375,0.082031 -0.09375,0.234375 v 2.953125 c 0,0.1757812 0,0.2578125 0.140625,0.2578125 0.070312,0 0.082031,-0.035156 0.1289062,-0.09375 0.1054688,-0.1523438 0.4804688,-0.6914063 1.2773438,-0.6914063 0.5273437,0 0.7734375,0.4570313 0.8554687,0.6328125 0.1523438,0.375 0.1757813,0.7617188 0.1757813,1.2539063 0,0.3515625 0,0.9492187 -0.234375,1.37109373 -0.2460938,0.38671875 -0.609375,0.64453125 -1.0664063,0.64453125 -0.7265625,0 -1.30078122,-0.52734375 -1.46484372,-1.11328128 0.0234375,0.011719 0.0585938,0.011719 0.1640625,0.011719 0.32812502,0 0.50390622,-0.2460938 0.50390622,-0.4804688 0,-0.2460937 -0.1757812,-0.4921875 -0.50390622,-0.4921875 -0.140625,0 -0.48046875,0.070312 -0.48046875,0.5273438 0,0.85546873 0.67968747,1.82812498 1.79296877,1.82812498 1.1601562,0 2.1796875,-0.9609375 2.1796872,-2.22656268 z m 0,0" style="fill:#000000;fill-opacity:1;fill-rule:nonzero;stroke:none"/>
      <path id="path33" d="M 13.77893,-8.59375e-4 V -0.30554687 h -0.175782 c -0.597656,0 -0.738281,-0.0703125 -0.84375,-0.3984375 l -2.15625,-6.23437503 c -0.04687,-0.1289062 -0.07031,-0.1992187 -0.222656,-0.1992187 -0.164062,0 -0.1875,0.058594 -0.246094,0.1992187 l -2.0624996,5.96484378 c -0.1757812,0.50390625 -0.5742187,0.65625 -1.1132812,0.66796875 V -8.59375e-4 L 7.9781484,-0.03601562 9.1265859,-8.59375e-4 V -0.30554687 c -0.5039062,0 -0.75,-0.2578125 -0.75,-0.515625 0,-0.0234375 0.011719,-0.12890625 0.023437,-0.140625 L 8.8570547,-2.2742969 h 2.4609373 l 0.527344,1.52343753 c 0.01172,0.046875 0.02344,0.10546875 0.02344,0.140625 0,0.3046875 -0.550781,0.3046875 -0.820312,0.3046875 V -8.59375e-4 C 11.400023,-0.03601562 12.103148,-0.03601562 12.478148,-0.03601562 Z M 11.200805,-2.5789844 H 8.9625234 l 1.1132816,-3.234375 z m 0,0" style="fill:#000000;fill-opacity:1;fill-rule:nonzero;stroke:none"/>
    </g>
    <path id="path34" d="m 212.6011,0 -1e-5,19.55931 m 0,31.7484 1e-5,19.55932" style="fill:none;stroke:#000000;stroke-width:0.3985;stroke-linecap:butt;stroke-linejoin:miter;stroke-miterlimit:10;stroke-dasharray:none;stroke-opacity:1" transform="matrix(1.3333333,0,0,-1.3333333,33.664,126.54133)"/>
    <path id="path35" d="m 218.55394,51.30771 v -31.7484 h -11.9057 v 31.7484 z" style="fill:none;stroke:#000000;stroke-width:0.797;stroke-linecap:butt;stroke-linejoin:miter;stroke-miterlimit:10;stroke-dasharray:none;stroke-opacity:1" transform="matrix(1.3333333,0,0,-1.3333333,33.664,126.54133)"/>
    <path id="path36" d="m 214.18825,0 c 0,0.87656 -0.71059,1.58714 -1.58715,1.58714 -0.87655,0 -1.58714,-0.71058 -1.58714,-1.58714 0,-0.87656 0.71059,-1.58714 1.58714,-1.58714 0.87656,0 1.58715,0.71058 1.58715,1.58714 z" style="fill:#000000;fill-opacity:1;fill-rule:nonzero;stroke:#000000;stroke-width:0.3985;stroke-linecap:butt;stroke-linejoin:miter;stroke-miterlimit:10;stroke-dasharray:none;stroke-opacity:1" transform="matrix(1.3333333,0,0,-1.3333333,33.664,126.54133)"/>
    <path id="path37" d="m 214.18825,70.86703 c 0,0.87657 -0.71059,1.58717 -1.58715,1.58717 -0.87655,0 -1.58714,-0.7106 -1.58714,-1.58717 0,-0.87655 0.71059,-1.58714 1.58714,-1.58714 0.87656,0 1.58715,0.71059 1.58715,1.58714 z" style="fill:#000000;fill-opacity:1;fill-rule:nonzero;stroke:#000000;stroke-width:0.3985;stroke-linecap:butt;stroke-linejoin:miter;stroke-miterlimit:10;stroke-dasharray:none;stroke-opacity:1" transform="matrix(1.3333333,0,0,-1.3333333,33.664,126.54133)"/>
    <path id="path38" d="m 2.8933906,-3.5027891 c 0.8085938,-0.2695312 1.3945313,-0.9726562 1.3945313,-1.7578125 0,-0.8203125 -0.8789063,-1.3710937 -1.8398438,-1.3710937 -1.0078125,0 -1.75781247,0.5976562 -1.75781247,1.3476562 0,0.3398438 0.2109375,0.5273438 0.50390627,0.5273438 0.3046875,0 0.5039062,-0.2226563 0.5039062,-0.515625 0,-0.4921875 -0.46875,-0.4921875 -0.609375,-0.4921875 0.3046875,-0.4921875 0.9609375,-0.6210938 1.3242188,-0.6210938 0.4101562,0 0.9492187,0.2226563 0.9492187,1.1132813 0,0.1289062 -0.011719,0.703125 -0.2695312,1.1367187 -0.3046875,0.4804688 -0.6445313,0.515625 -0.890625,0.515625 -0.082031,0.011719 -0.3164063,0.035156 -0.3867188,0.035156 -0.082031,0.011719 -0.1523437,0.023437 -0.1523437,0.1171875 0,0.1171875 0.070312,0.1171875 0.234375,0.1171875 h 0.4453125 c 0.8085937,0 1.1835937,0.6679687 1.1835937,1.6523437 0,1.34765629 -0.6914062,1.64062504 -1.125,1.64062504 -0.4335937,0 -1.171875,-0.17578125 -1.52343747,-0.76171875 0.35156247,0.0585938 0.65624997,-0.1640625 0.65624997,-0.53906249 0,-0.3632813 -0.2695312,-0.5625 -0.56249997,-0.5625 -0.234375,0 -0.55078125,0.140625 -0.55078125,0.5742187 0,0.91406254 0.92578122,1.57031254 2.00390622,1.57031254 1.21875,0 2.1210938,-0.9140625 2.1210938,-1.92187504 0,-0.8203125 -0.6210938,-1.59375 -1.6523438,-1.8046872 z m 10.4794924,1.8867188 h -0.246094 c -0.04687,0.2578125 -0.08203,0.4921875 -0.175781,0.72656249 -0.04687,0.1640625 -0.08203,0.24609375 -0.65625,0.24609375 h -0.796875 c 0.128906,-0.56250004 0.433594,-1.04296874 0.878906,-1.69921874 0.46875,-0.703125 0.878906,-1.3945313 0.878906,-2.1796875 0,-1.3828125 -1.335937,-2.4960938 -3.023437,-2.4960938 -1.7109377,0 -3.0351564,1.1367188 -3.0351564,2.4960938 0,0.7851562 0.3984375,1.4765625 0.8671875,2.1796875 0.4453125,0.65625 0.7617187,1.1367187 0.890625,1.69921874 h -0.796875 c -0.5742188,0 -0.609375,-0.0820313 -0.65625,-0.234375 C 7.4197578,-1.1004453 7.3728828,-1.3582578 7.3260078,-1.6160703 H 7.0681953 l 0.328125,1.61718749 h 1.59375 c 0.2226563,0 0.2578125,0 0.2578125,-0.2109375 0,-0.69140625 -0.3164062,-1.57031249 -0.5390625,-2.21484379 -0.2109375,-0.5742187 -0.4921875,-1.359375 -0.4921875,-2.109375 0,-1.59375 1.1015625,-2.2734375 2.0039062,-2.2734375 0.960938,0 2.015625,0.7265625 2.015625,2.2734375 0,0.75 -0.269531,1.5117188 -0.5625,2.3203125 -0.152344,0.421875 -0.46875,1.31250004 -0.46875,2.00390629 0,0.2109375 0.03516,0.2109375 0.257813,0.2109375 h 1.582031 z m 0,0" style="fill:#000000;fill-opacity:1;fill-rule:nonzero;stroke:none" aria-label="3Ω" transform="matrix(1.3333333,0,0,1.3333333,328.00933,82.158667)"/>
    <path id="path39" d="m 255.12132,0 v 19.55931 m 0,31.7484 v 19.55932" style="fill:none;stroke:#000000;stroke-width:0.3985;stroke-linecap:butt;stroke-linejoin:miter;stroke-miterlimit:10;stroke-dasharray:none;stroke-opacity:1" transform="matrix(1.3333333,0,0,-1.3333333,33.664,126.54133)"/>
    <path id="path40" d="m 261.07417,51.30771 v -31.7484 h -11.9057 v 31.7484 z" style="fill:none;stroke:#000000;stroke-width:0.797;stroke-linecap:butt;stroke-linejoin:miter;stroke-miterlimit:10;stroke-dasharray:none;stroke-opacity:1" transform="matrix(1.3333333,0,0,-1.3333333,33.664,126.54133)"/>
    <path id="path41" d="m 256.70848,0 c 0,0.87656 -0.71058,1.58714 -1.58716,1.58714 -0.87655,0 -1.58714,-0.71058 -1.58714,-1.58714 0,-0.87656 0.71059,-1.58714 1.58714,-1.58714 0.87658,0 1.58716,0.71058 1.58716,1.58714 z" style="fill:#000000;fill-opacity:1;fill-rule:nonzero;stroke:#000000;stroke-width:0.3985;stroke-linecap:butt;stroke-linejoin:miter;stroke-miterlimit:10;stroke-dasharray:none;stroke-opacity:1" transform="matrix(1.3333333,0,0,-1.3333333,33.664,126.54133)"/>
    <path id="path42" d="m 256.70848,70.86703 c 0,0.87657 -0.71058,1.58717 -1.58716,1.58717 -0.87655,0 -1.58714,-0.7106 -1.58714,-1.58717 0,-0.87655 0.71059,-1.58714 1.58714,-1.58714 0.87658,0 1.58716,0.71059 1.58716,1.58714 z" style="fill:#000000;fill-opacity:1;fill-rule:nonzero;stroke:#000000;stroke-width:0.3985;stroke-linecap:butt;stroke-linejoin:miter;stroke-miterlimit:10;stroke-dasharray:none;stroke-opacity:1" transform="matrix(1.3333333,0,0,-1.3333333,33.664,126.54133)"/>
    <path id="path43" d="m 2.893875,-3.5027891 c 0.8085938,-0.2695312 1.3945313,-0.9726562 1.3945313,-1.7578125 0,-0.8203125 -0.8789063,-1.3710937 -1.8398438,-1.3710937 -1.0078125,0 -1.7578125,0.5976562 -1.7578125,1.3476562 0,0.3398438 0.2109375,0.5273438 0.5039063,0.5273438 0.3046875,0 0.5039062,-0.2226563 0.5039062,-0.515625 0,-0.4921875 -0.46875,-0.4921875 -0.609375,-0.4921875 0.3046875,-0.4921875 0.9609375,-0.6210938 1.3242188,-0.6210938 0.4101562,0 0.9492187,0.2226563 0.9492187,1.1132813 0,0.1289062 -0.011719,0.703125 -0.2695312,1.1367187 -0.3046875,0.4804688 -0.6445313,0.515625 -0.890625,0.515625 -0.082031,0.011719 -0.3164063,0.035156 -0.3867188,0.035156 -0.082031,0.011719 -0.1523437,0.023437 -0.1523437,0.1171875 0,0.1171875 0.070312,0.1171875 0.234375,0.1171875 h 0.4453125 c 0.8085937,0 1.1835937,0.6679687 1.1835937,1.6523437 0,1.34765629 -0.6914062,1.64062504 -1.125,1.64062504 -0.4335937,0 -1.171875,-0.17578125 -1.5234375,-0.76171875 0.3515625,0.0585938 0.65625,-0.1640625 0.65625,-0.53906249 0,-0.3632813 -0.2695312,-0.5625 -0.5625,-0.5625 -0.234375,0 -0.55078125,0.140625 -0.55078125,0.5742187 0,0.91406254 0.92578125,1.57031254 2.00390625,1.57031254 1.21875,0 2.1210938,-0.9140625 2.1210938,-1.92187504 0,-0.8203125 -0.6210938,-1.59375 -1.6523438,-1.8046872 z m 10.479492,1.8867188 h -0.246094 c -0.04687,0.2578125 -0.08203,0.4921875 -0.175781,0.72656249 -0.04687,0.1640625 -0.08203,0.24609375 -0.65625,0.24609375 h -0.796875 c 0.128906,-0.56250004 0.433594,-1.04296874 0.878906,-1.69921874 0.46875,-0.703125 0.878907,-1.3945313 0.878907,-2.1796875 0,-1.3828125 -1.335938,-2.4960938 -3.023438,-2.4960938 -1.7109373,0 -3.0351561,1.1367188 -3.0351561,2.4960938 0,0.7851562 0.3984375,1.4765625 0.8671875,2.1796875 0.4453125,0.65625 0.7617188,1.1367187 0.890625,1.69921874 h -0.796875 c -0.5742187,0 -0.609375,-0.0820313 -0.65625,-0.234375 C 7.4202422,-1.1004453 7.3733672,-1.3582578 7.3264922,-1.6160703 H 7.0686797 l 0.328125,1.61718749 h 1.59375 c 0.2226562,0 0.2578125,0 0.2578125,-0.2109375 0,-0.69140625 -0.3164063,-1.57031249 -0.5390625,-2.21484379 -0.2109375,-0.5742187 -0.4921875,-1.359375 -0.4921875,-2.109375 0,-1.59375 1.1015625,-2.2734375 2.0039058,-2.2734375 0.960938,0 2.015625,0.7265625 2.015625,2.2734375 0,0.75 -0.269531,1.5117188 -0.5625,2.3203125 -0.152343,0.421875 -0.46875,1.31250004 -0.46875,2.00390629 0,0.2109375 0.03516,0.2109375 0.257813,0.2109375 h 1.582031 z m 0,0" style="fill:#000000;fill-opacity:1;fill-rule:nonzero;stroke:none" aria-label="3Ω" transform="matrix(1.3333333,0,0,1.3333333,384.704,82.158667)"/>
    <path id="path44" d="m 297.64156,0 -2e-5,23.52779 m 0,23.81144 2e-5,23.5278" style="fill:none;stroke:#000000;stroke-width:0.3985;stroke-linecap:butt;stroke-linejoin:miter;stroke-miterlimit:10;stroke-dasharray:none;stroke-opacity:1" transform="matrix(1.3333333,0,0,-1.3333333,33.664,126.54133)"/>
    <path id="path45" d="m 285.73581,35.4335 c 0,-6.5754 5.33031,-11.90571 11.90573,-11.90571 6.57541,0 11.90572,5.33031 11.90572,11.90571 0,6.57543 -5.33031,11.90573 -11.90572,11.90573 -6.57542,0 -11.90573,-5.3303 -11.90573,-11.90573 z m 0,0 h 23.81145" style="fill:none;stroke:#000000;stroke-width:0.797;stroke-linecap:butt;stroke-linejoin:miter;stroke-miterlimit:10;stroke-dasharray:none;stroke-opacity:1" transform="matrix(1.3333333,0,0,-1.3333333,33.664,126.54133)"/>
    <path id="path46" d="m 297.64154,13.5001 h -1.98425 l 1.98425,-4.21653 1.98426,4.21653 z" style="fill:#000000;fill-opacity:1;fill-rule:nonzero;stroke:#000000;stroke-width:0.3985;stroke-linecap:butt;stroke-linejoin:miter;stroke-miterlimit:10;stroke-dasharray:none;stroke-opacity:1" transform="matrix(1.3333333,0,0,-1.3333333,33.664,126.54133)"/>
    <path id="path47" d="m 2.3315469,-4.4287734 c 0,-0.1875 -0.011719,-0.1992188 -0.2109375,-0.1992188 -0.4453125,0.4335938 -1.078125,0.4453125 -1.35937503,0.4453125 v 0.2460938 c 0.1640625,0 0.62109373,0 1.00781253,-0.1875 v 3.55078121 c 0,0.234375 0,0.328125 -0.6914063,0.328125 H 0.80810937 V 9.140625e-4 C 0.93701562,-0.01080469 1.7924844,-0.02252344 2.0502969,-0.02252344 c 0.2109375,0 1.0898437,0.01171875 1.2421875,0.0234375025 V -0.24517969 H 3.0346719 c -0.703125,0 -0.703125,-0.09375 -0.703125,-0.328125 z m 3.5361328,2.0976562 c 0.5507812,0 0.9375,0.375 0.9375,1.125 0,0.86718751 -0.5039063,1.12500001 -0.9023438,1.12500001 -0.28125,0 -0.890625,-0.08203125 -1.1835937,-0.4921875 0.328125,-0.0117188 0.3984375,-0.24609375 0.3984375,-0.38671875 0,-0.22265626 -0.1640625,-0.38671876 -0.3867188,-0.38671876 -0.1875,0 -0.3867187,0.1171875 -0.3867187,0.41015626 0,0.65625 0.7265625,1.078125 1.5703125,1.078125 0.9726562,0 1.640625,-0.64453125 1.640625,-1.34765626 0,-0.5390625 -0.4453125,-1.0898437 -1.21875,-1.2421875 0.7382812,-0.2695312 0.9960937,-0.796875 0.9960937,-1.21875 0,-0.5507812 -0.6328125,-0.9609375 -1.40625,-0.9609375 -0.7734375,0 -1.359375,0.375 -1.359375,0.9375 0,0.234375 0.1523438,0.3632813 0.3632813,0.3632813 0.2109375,0 0.3515625,-0.1640625 0.3515625,-0.3515625 0,-0.1992188 -0.140625,-0.3515625 -0.3515625,-0.3632813 0.234375,-0.3046875 0.7148437,-0.3867187 0.9726562,-0.3867187 0.3164063,0 0.7617188,0.1523437 0.7617188,0.7617187 0,0.2929688 -0.1054688,0.609375 -0.28125,0.8320313 -0.234375,0.2578125 -0.421875,0.28125 -0.7734375,0.2929687 -0.1757813,0.023437 -0.1875,0.023437 -0.2226563,0.023437 -0.011719,0 -0.070312,0.011719 -0.070312,0.09375 0,0.09375 0.058594,0.09375 0.1757813,0.09375 z m 0,0" style="fill:#000000;fill-opacity:1;fill-rule:nonzero;stroke:none" aria-label="13" transform="matrix(1.3333333,0,0,1.3333333,436.80533,108.948)"/>
    <path id="path48" d="m -45.557,-20.417 h 7.943" style="fill:none;stroke:#000000;stroke-width:0.3985;stroke-linecap:butt;stroke-linejoin:miter;stroke-miterlimit:10;stroke-dasharray:none;stroke-opacity:1" transform="matrix(1.3333333,0,0,-1.3333333,497.548,83.634667)"/>
    <g id="g48" aria-label="3&#xA;A" transform="matrix(1.3333333,0,0,1.3333333,439.45333,118.75867)">
      <path id="path49" d="m 1.8982813,-2.3326719 c 0.5507812,0 0.9375,0.375 0.9375,1.125 0,0.86718753 -0.5039063,1.12500003 -0.9023438,1.12500003 -0.28125,0 -0.890625,-0.08203125 -1.18359375,-0.4921875 0.32812505,-0.0117188 0.39843755,-0.24609375 0.39843755,-0.38671875 0,-0.22265628 -0.16406255,-0.38671878 -0.3867188,-0.38671878 -0.1875,0 -0.38671875,0.1171875 -0.38671875,0.41015628 0,0.65625 0.72656255,1.078125 1.57031255,1.078125 0.9726562,0 1.640625,-0.64453125 1.640625,-1.34765628 0,-0.5390625 -0.4453125,-1.0898437 -1.21875,-1.2421875 0.7382812,-0.2695312 0.9960937,-0.796875 0.9960937,-1.21875 0,-0.5507812 -0.6328125,-0.9609375 -1.40625,-0.9609375 -0.7734375,0 -1.359375,0.375 -1.359375,0.9375 0,0.234375 0.15234375,0.3632813 0.36328125,0.3632813 0.21093755,0 0.35156255,-0.1640625 0.35156255,-0.3515625 0,-0.1992188 -0.140625,-0.3515625 -0.35156255,-0.3632813 0.23437505,-0.3046875 0.71484375,-0.3867187 0.97265625,-0.3867187 0.3164063,0 0.7617188,0.1523437 0.7617188,0.7617187 0,0.2929688 -0.1054688,0.609375 -0.28125,0.8320313 -0.234375,0.2578125 -0.421875,0.28125 -0.7734375,0.2929687 -0.1757813,0.023437 -0.1875,0.023437 -0.2226563,0.023437 -0.011719,0 -0.070312,0.011719 -0.070312,0.09375 0,0.09375 0.058594,0.09375 0.1757813,0.09375 z m 0,0" style="fill:#000000;fill-opacity:1;fill-rule:nonzero;stroke:none"/>
      <path id="path50" d="m 15.949063,-3.4371641 v -0.3046875 h -0.175782 c -0.597656,0 -0.738281,-0.070312 -0.84375,-0.3984375 l -2.15625,-6.2343749 c -0.04687,-0.128906 -0.07031,-0.199219 -0.222656,-0.199219 -0.164062,0 -0.1875,0.05859 -0.246094,0.199219 l -2.0625,5.9648437 c -0.175781,0.5039062 -0.5742185,0.65625 -1.113281,0.6679687 v 0.3046875 l 1.019531,-0.035156 1.148438,0.035156 v -0.3046875 c -0.503906,0 -0.75,-0.2578125 -0.75,-0.515625 0,-0.023437 0.01172,-0.1289062 0.02344,-0.140625 l 0.457032,-1.3125 h 2.460937 l 0.527344,1.5234375 c 0.01172,0.046875 0.02344,0.1054688 0.02344,0.140625 0,0.3046875 -0.550781,0.3046875 -0.820312,0.3046875 v 0.3046875 c 0.351562,-0.035156 1.054687,-0.035156 1.429687,-0.035156 z m -2.578125,-2.578125 h -2.238282 l 1.113282,-3.234375 z m 0,0" style="fill:#000000;fill-opacity:1;fill-rule:nonzero;stroke:none"/>
    </g>
    <path id="path51" d="M 0,0 H 297.64156" style="fill:none;stroke:#000000;stroke-width:0.3985;stroke-linecap:butt;stroke-linejoin:miter;stroke-miterlimit:10;stroke-dasharray:none;stroke-opacity:1" transform="matrix(1.3333333,0,0,-1.3333333,33.664,126.54133)"/>
    <path id="path52" d="M 0,70.86703 H 127.56065" style="fill:none;stroke:#000000;stroke-width:0.3985;stroke-linecap:butt;stroke-linejoin:miter;stroke-miterlimit:10;stroke-dasharray:none;stroke-opacity:1" transform="matrix(1.3333333,0,0,-1.3333333,33.664,126.54133)"/>
    <path id="path53" d="m 3.2926328,2.3919219 c 0,-0.035156 0,-0.046875 -0.1640625,-0.2226563 -1.2421875,-1.25390623 -1.5703125,-3.12890623 -1.5703125,-4.6640625 0,-1.7226562 0.3867188,-3.4570312 1.6054688,-4.7109375 0.1289062,-0.1171875 0.1289062,-0.1289062 0.1289062,-0.1640625 0,-0.070312 -0.035156,-0.1054687 -0.09375,-0.1054687 -0.1054687,0 -0.9960937,0.6796875 -1.5820312,1.9453125 -0.515625,1.1015625 -0.63281254,2.203125 -0.63281254,3.0351562 0,0.7851563 0.11718754,1.99218752 0.65625004,3.11718752 0.5976562,1.21874998 1.453125,1.87499998 1.5585937,1.87499998 0.058594,0 0.09375,-0.035156 0.09375,-0.1054687 z M 8.0475156,0.00129687 v -0.3046875 H 7.7311094 c -0.9023438,0 -0.9257813,-0.1171875 -0.9257813,-0.48046875 V -6.3737031 c 0,-0.234375 0,-0.2578125 -0.234375,-0.2578125 -0.609375,0.6328125 -1.4882812,0.6328125 -1.8046875,0.6328125 v 0.3164062 c 0.1992188,0 0.7851563,0 1.3007813,-0.2578125 v 5.15625002 c 0,0.3515625 -0.035156,0.48046875 -0.9257813,0.48046875 H 4.8248594 v 0.3046875 c 0.3515625,-0.03515625 1.2070312,-0.03515625 1.6054687,-0.03515625 0.3984375,0 1.265625,0 1.6171875,0.03515625 z M 11.738922,-2.4947969 c 0,-0.7734375 -0.117188,-1.9804687 -0.65625,-3.1054687 -0.597656,-1.21875 -1.4648439,-1.875 -1.5585939,-1.875 -0.058594,0 -0.1054687,0.046875 -0.1054687,0.1054687 0,0.035156 0,0.046875 0.1992187,0.234375 0.9726559,0.984375 1.5351559,2.5664063 1.5351559,4.640625 0,1.71093752 -0.363281,3.45703127 -1.5937496,4.7226563 -0.140625,0.1171875 -0.140625,0.1289062 -0.140625,0.1640625 0,0.058594 0.046875,0.1054687 0.1054687,0.1054687 0.09375,0 0.9960939,-0.6796875 1.5820309,-1.94531248 0.503907,-1.1015625 0.632813,-2.20312502 0.632813,-3.04687502 z m 0,0" style="fill:#000000;fill-opacity:1;fill-rule:nonzero;stroke:none" aria-label="(1)" transform="matrix(1.3333333,0,0,1.3333333,182.07467,24.037333)"/>
    <path id="path54" d="M 170.08089,70.86703 H 297.64156" style="fill:none;stroke:#000000;stroke-width:0.3985;stroke-linecap:butt;stroke-linejoin:miter;stroke-miterlimit:10;stroke-dasharray:none;stroke-opacity:1" transform="matrix(1.3333333,0,0,-1.3333333,33.664,126.54133)"/>
    <path id="path55" d="m 3.2935781,2.3919219 c 0,-0.035156 0,-0.046875 -0.1640625,-0.2226563 -1.2421875,-1.25390623 -1.5703125,-3.12890623 -1.5703125,-4.6640625 0,-1.7226562 0.3867188,-3.4570312 1.6054688,-4.7109375 0.1289062,-0.1171875 0.1289062,-0.1289062 0.1289062,-0.1640625 0,-0.070312 -0.035156,-0.1054687 -0.09375,-0.1054687 -0.1054687,0 -0.9960937,0.6796875 -1.5820312,1.9453125 -0.515625,1.1015625 -0.63281252,2.203125 -0.63281252,3.0351562 0,0.7851563 0.11718752,1.99218752 0.65625002,3.11718752 0.5976562,1.21874998 1.453125,1.87499998 1.5585937,1.87499998 0.058594,0 0.09375,-0.035156 0.09375,-0.1054687 z m 5.0595703,-4.125 H 8.0953359 c -0.046875,0.3046875 -0.1171875,0.73828122 -0.2109375,0.89062497 -0.070312,0.0820313 -0.7265625,0.0820313 -0.9492187,0.0820313 H 5.1422109 L 6.1968984,-1.7916719 c 1.5585938,-1.3710937 2.15625,-1.9101562 2.15625,-2.90625 0,-1.1367187 -0.9023437,-1.9335937 -2.1210937,-1.9335937 -1.125,0 -1.8515625,0.9140625 -1.8515625,1.8046875 0,0.5507812 0.4921875,0.5507812 0.5273437,0.5507812 0.1640625,0 0.515625,-0.1171875 0.515625,-0.5273437 0,-0.2578125 -0.1875,-0.515625 -0.5273437,-0.515625 -0.082031,0 -0.1054688,0 -0.1289063,0.011719 0.2226563,-0.6445312 0.7617188,-1.0195312 1.3359375,-1.0195312 0.9140625,0 1.3359375,0.8085937 1.3359375,1.6289062 0,0.796875 -0.4921875,1.5820313 -1.0429687,2.203125 L 4.4859609,-0.36198438 C 4.3804922,-0.25651563 4.3804922,-0.23307813 4.3804922,0.00129687 h 3.6914062 z m 3.3867186,-0.7617188 c 0,-0.7734375 -0.117187,-1.9804687 -0.65625,-3.1054687 -0.597656,-1.21875 -1.4648436,-1.875 -1.5585936,-1.875 -0.058594,0 -0.1054687,0.046875 -0.1054687,0.1054687 0,0.035156 0,0.046875 0.1992187,0.234375 0.9726566,0.984375 1.5351566,2.5664063 1.5351566,4.640625 0,1.71093752 -0.363282,3.45703127 -1.5937503,4.7226563 -0.140625,0.1171875 -0.140625,0.1289062 -0.140625,0.1640625 0,0.058594 0.046875,0.1054687 0.1054687,0.1054687 0.09375,0 0.9960936,-0.6796875 1.5820316,-1.94531248 0.503906,-1.1015625 0.632812,-2.20312502 0.632812,-3.04687502 z m 0,0" style="fill:#000000;fill-opacity:1;fill-rule:nonzero;stroke:none" aria-label="(2)" transform="matrix(1.3333333,0,0,1.3333333,265.132,24.037333)"/>
    <path id="path56" d="M 148.82077,0 V -9.92134" style="fill:none;stroke:#000000;stroke-width:0.3985;stroke-linecap:butt;stroke-linejoin:miter;stroke-miterlimit:10;stroke-dasharray:none;stroke-opacity:1" transform="matrix(1.3333333,0,0,-1.3333333,33.664,126.54133)"/>
    <path id="path57" d="m 142.8679,-9.92134 h 11.90572" style="fill:none;stroke:#000000;stroke-width:0.797;stroke-linecap:round;stroke-linejoin:miter;stroke-miterlimit:10;stroke-dasharray:none;stroke-opacity:1" transform="matrix(1.3333333,0,0,-1.3333333,33.664,126.54133)"/>
  </g>
</svg>