<?xml version="1.0" encoding="UTF-8" standalone="no"?>
<!-- Created with Inkscape (http://www.inkscape.org/) -->

<svg
   version="1.1"
   id="svg1"
   width="158.72"
   height="122.48"
   viewBox="0 0 158.72 122.48"
   sodipodi:docname="24-25-2-电路分析基础-期中-解答6.pdf"
   xmlns:inkscape="http://www.inkscape.org/namespaces/inkscape"
   xmlns:sodipodi="http://sodipodi.sourceforge.net/DTD/sodipodi-0.dtd"
   xmlns="http://www.w3.org/2000/svg"
   xmlns:svg="http://www.w3.org/2000/svg">
  <defs
     id="defs1" />
  <sodipodi:namedview
     id="namedview1"
     pagecolor="#ffffff"
     bordercolor="#000000"
     borderopacity="0.25"
     inkscape:showpageshadow="2"
     inkscape:pageopacity="0.0"
     inkscape:pagecheckerboard="0"
     inkscape:deskcolor="#d1d1d1">
    <inkscape:page
       x="0"
       y="0"
       inkscape:label="1"
       id="page1"
       width="158.72"
       height="122.48"
       margin="0"
       bleed="0" />
  </sodipodi:namedview>
  <g
     id="g1"
     inkscape:groupmode="layer"
     inkscape:label="1">
    <path
       id="path1"
       d="M -45.67026,-11.12639 V 80.7351 H 73.36726 v -91.86149 z"
       style="fill:#ffffff;fill-opacity:1;fill-rule:nonzero;stroke:none"
       transform="matrix(1.3333333,0,0,-1.3333333,60.893333,107.64533)" />
    <path
       id="path2"
       d="M 56.69363,0 H 28.3468 m 0,0 H 0 v 16.44109 m 0,23.81143 v 16.44111 l 12.47261,-10e-6 m 31.74839,0 12.47263,10e-6"
       style="fill:none;stroke:#000000;stroke-width:0.3985;stroke-linecap:butt;stroke-linejoin:miter;stroke-miterlimit:10;stroke-dasharray:none;stroke-opacity:1"
       transform="matrix(1.3333333,0,0,-1.3333333,60.893333,107.64533)" />
    <path
       id="path3"
       d="m 5.1902422,-2.1574844 c 0,-1.265625 -0.9726563,-2.25 -2.109375,-2.25 -0.7851563,0 -1.2070313,0.46875 -1.3710938,0.65625 v -3.1640625 l -1.42968746,0.1054688 v 0.3164062 c 0.69140625,0 0.77343746,0.070312 0.77343746,0.5507813 v 5.94140623 h 0.2460938 l 0.3632812,-0.62109375 c 0.1523438,0.234375 0.5625,0.7265625 1.3007813,0.7265625 1.1835937,0 2.2265625,-0.97265625 2.2265625,-2.26171878 z m -0.8320313,0 c 0,0.3632813 -0.011719,0.9609375 -0.3046875,1.40625003 -0.2109375,0.31640625 -0.5859375,0.64453125 -1.125,0.64453125 -0.4453125,0 -0.8085937,-0.24609375 -1.0429687,-0.609375 -0.140625,-0.2109375 -0.140625,-0.24609375 -0.140625,-0.42187498 v -2.0507813 c 0,-0.1875 0,-0.1992187 0.1054687,-0.3632812 0.3867188,-0.5507813 0.9375,-0.6328125 1.171875,-0.6328125 0.4570313,0 0.8085938,0.2578125 1.0546875,0.6328125 0.2578125,0.4101562 0.28125,0.984375 0.28125,1.3945312 z m 0,0"
       style="fill:#000000;fill-opacity:1;fill-rule:nonzero;stroke:none"
       aria-label="b"
       transform="matrix(1.3333333,0,0,1.3333333,141.17733,112.18133)" />
    <path
       id="path4"
       d="m 58.28078,0 c 0,0.87656 -0.71059,1.58714 -1.58715,1.58714 -0.87657,0 -1.58715,-0.71058 -1.58715,-1.58714 0,-0.87656 0.71058,-1.58714 1.58715,-1.58714 0.87656,0 1.58715,0.71058 1.58715,1.58714 z"
       style="fill:#ffffff;fill-opacity:1;fill-rule:nonzero;stroke:#000000;stroke-width:0.3985;stroke-linecap:butt;stroke-linejoin:miter;stroke-miterlimit:10;stroke-dasharray:none;stroke-opacity:1"
       transform="matrix(1.3333333,0,0,-1.3333333,60.893333,107.64533)" />
    <path
       id="path5"
       d="m -11.90572,28.3468 c 0,-6.57542 5.33031,-11.90571 11.90572,-11.90571 6.57541,0 11.90572,5.33029 11.90572,11.90571 0,6.57543 -5.33031,11.90572 -11.90572,11.90572 -6.57541,0 -11.90572,-5.33029 -11.90572,-11.90572 z"
       style="fill:none;stroke:#000000;stroke-width:0.797;stroke-linecap:butt;stroke-linejoin:miter;stroke-miterlimit:10;stroke-dasharray:none;stroke-opacity:1"
       transform="matrix(1.3333333,0,0,-1.3333333,60.893333,107.64533)" />
    <path
       id="path6"
       d="M 0,16.44109 V 40.25252"
       style="fill:none;stroke:#000000;stroke-width:0.797;stroke-linecap:butt;stroke-linejoin:miter;stroke-miterlimit:10;stroke-dasharray:none;stroke-opacity:1"
       transform="matrix(1.3333333,0,0,-1.3333333,60.893333,107.64533)" />
    <path
       id="path7"
       d="m 6.5625781,-2.2967266 c 0.1757813,0 0.3515625,0 0.3515625,-0.1992187 0,-0.1992188 -0.1757812,-0.1992188 -0.3515625,-0.1992188 h -5.390625 c -0.1640625,0 -0.33984372,0 -0.33984372,0.1992188 0,0.1992187 0.17578122,0.1992187 0.33984372,0.1992187 z m 0,0"
       style="fill:#000000;fill-opacity:1;fill-rule:nonzero;stroke:none"
       aria-label="−"
       transform="matrix(1.3333333,0,0,1.3333333,34.773333,85.269333)" />
    <path
       id="path8"
       d="m 4.0782031,-2.2981406 h 2.7773438 c 0.140625,0 0.328125,0 0.328125,-0.1992188 0,-0.1992187 -0.1875,-0.1992187 -0.328125,-0.1992187 H 4.0782031 v -2.7890625 c 0,-0.1289063 0,-0.328125 -0.1992187,-0.328125 -0.1992188,0 -0.1992188,0.1992187 -0.1992188,0.328125 v 2.7890625 H 0.89070313 c -0.140625,0 -0.328125,0 -0.328125,0.1992187 0,0.1992188 0.1875,0.1992188 0.328125,0.1992188 H 3.6797656 v 2.80078122 c 0,0.12890625 0,0.328125 0.1992188,0.328125 0.1992187,0 0.1992187,-0.19921875 0.1992187,-0.328125 z m 0,0"
       style="fill:#000000;fill-opacity:1;fill-rule:nonzero;stroke:none"
       aria-label="+"
       transform="matrix(1.3333333,0,0,1.3333333,34.773333,61.072)" />
    <g
       id="g8"
       aria-label="10V"
       transform="matrix(1.3333333,0,0,1.3333333,8.3813333,74.24)">
      <path
         id="path9"
         d="m 2.9307969,-6.3762891 c 0,-0.234375 0,-0.2578125 -0.234375,-0.2578125 -0.609375,0.6328125 -1.4882813,0.6328125 -1.80468753,0.6328125 v 0.3164063 c 0.19921873,0 0.78515623,0 1.30078123,-0.2578125 v 5.15624999 c 0,0.3515625 -0.035156,0.48046875 -0.9257812,0.48046875 H 0.95032812 v 0.3046875 C 1.3018906,-0.03644531 2.1573594,-0.03644531 2.5557969,-0.03644531 c 0.3984375,0 1.265625,0 1.6171875,0.03515625 v -0.3046875 H 3.8565781 c -0.9023437,0 -0.9257812,-0.1171875 -0.9257812,-0.48046875 z m 6.6328125,3.1875 c 0,-0.796875 -0.046875,-1.59375 -0.3984375,-2.3320312 -0.4570313,-0.9609375 -1.2773438,-1.1132813 -1.6875,-1.1132813 -0.5976563,0 -1.3359375,0.2578125 -1.734375,1.1835938 -0.328125,0.6914062 -0.375,1.4648437 -0.375,2.2617187 0,0.75 0.046875,1.640625 0.4453125,2.40234379 0.4335937,0.80859375 1.1601562,1.0078125 1.6523437,1.0078125 0.5390625,0 1.2890625,-0.2109375 1.734375,-1.16015625 C 9.5167344,-1.6301953 9.5636094,-2.4036328 9.5636094,-3.1887891 Z m -2.0976563,3.18750004 c -0.3867187,0 -0.984375,-0.24609375 -1.1601562,-1.20703124 -0.1054688,-0.5976563 -0.1054688,-1.5117188 -0.1054688,-2.0976563 0,-0.6445312 0,-1.3007812 0.082031,-1.8398437 0.1875,-1.1835938 0.9257812,-1.265625 1.1835937,-1.265625 0.328125,0 0.984375,0.1757812 1.171875,1.1601562 0.09375,0.5625 0.09375,1.3125 0.09375,1.9453125 0,0.75 0,1.4179688 -0.1054687,2.0625 -0.1523438,0.93750004 -0.7148438,1.24218754 -1.160156,1.24218754 z m 0,0"
         style="fill:#000000;fill-opacity:1;fill-rule:nonzero;stroke:none" />
      <path
         id="path10"
         d="m 18.900523,-6.4934766 v -0.3164062 c -0.316406,0.023437 -0.714843,0.035156 -0.972656,0.035156 l -1.136719,-0.035156 v 0.3164062 c 0.515625,0.011719 0.726563,0.2695313 0.726563,0.4921875 0,0.082031 -0.02344,0.140625 -0.04687,0.1992188 l -1.828125,4.80468749 -1.898438,-5.02734379 c -0.05859,-0.140625 -0.05859,-0.1875 -0.05859,-0.1875 0,-0.28125 0.5625,-0.28125 0.820312,-0.28125 v -0.3164062 c -0.363281,0.035156 -1.054687,0.035156 -1.429687,0.035156 l -1.265625,-0.035156 v 0.3164062 c 0.644531,0 0.84375,0 0.972656,0.375 l 2.320312,6.11718754 c 0.07031,0.1875 0.117188,0.22265625 0.246094,0.22265625 0.164063,0 0.1875,-0.0585938 0.234375,-0.1875 L 17.81068,-5.8255078 c 0.140625,-0.375 0.410156,-0.65625 1.089843,-0.6679688 z m 0,0"
         style="fill:#000000;fill-opacity:1;fill-rule:nonzero;stroke:none" />
    </g>
    <path
       id="path11"
       d="M 12.47261,62.64647 H 44.22099 V 50.74077 H 12.47261 Z"
       style="fill:none;stroke:#000000;stroke-width:0.797;stroke-linecap:butt;stroke-linejoin:miter;stroke-miterlimit:10;stroke-dasharray:none;stroke-opacity:1"
       transform="matrix(1.3333333,0,0,-1.3333333,60.893333,107.64533)" />
    <path
       id="path12"
       d="m 58.28078,56.69363 c 0,0.87656 -0.71059,1.58715 -1.58715,1.58715 -0.87657,0 -1.58715,-0.71059 -1.58715,-1.58715 0,-0.87657 0.71058,-1.58715 1.58715,-1.58715 0.87656,0 1.58715,0.71058 1.58715,1.58715 z"
       style="fill:#ffffff;fill-opacity:1;fill-rule:nonzero;stroke:#000000;stroke-width:0.3985;stroke-linecap:butt;stroke-linejoin:miter;stroke-miterlimit:10;stroke-dasharray:none;stroke-opacity:1"
       transform="matrix(1.3333333,0,0,-1.3333333,60.893333,107.64533)" />
    <path
       id="path13"
       d="m 1.6295391,-4.5454375 c -0.46875,-0.3046875 -0.5039063,-0.6445312 -0.5039063,-0.8085937 0,-0.609375 0.6445313,-1.03125 1.359375,-1.03125 0.7265625,0 1.359375,0.515625 1.359375,1.2421875 0,0.5625 -0.3867187,1.0429687 -0.984375,1.3945312 z m 1.453125,0.9375 c 0.7148437,-0.3632812 1.2070312,-0.8789062 1.2070312,-1.5351562 0,-0.9257813 -0.890625,-1.4882813 -1.7929687,-1.4882813 -0.9960938,0 -1.80468754,0.7382813 -1.80468754,1.6640625 0,0.1757813 0.0117188,0.6210938 0.43359374,1.0898438 0.1054688,0.1289062 0.4804688,0.375 0.7265625,0.5390625 -0.5742187,0.2929687 -1.42968749,0.84375 -1.42968749,1.8398437 0,1.0546875 1.00781249,1.72265625 2.06249999,1.72265625 1.125,0 2.0625,-0.83203125 2.0625,-1.89843745 0,-0.3515625 -0.1054687,-0.8085938 -0.4804687,-1.21875 -0.1875,-0.2109375 -0.3515625,-0.3164063 -0.984375,-0.7148438 z m -0.9960938,0.421875 1.21875,0.7734375 c 0.28125,0.1875 0.75,0.4921875 0.75,1.1015625 0,0.73828125 -0.75,1.25390625 -1.5585937,1.25390625 -0.8671875,0 -1.58203129,-0.62109375 -1.58203129,-1.44140625 0,-0.5859375 0.31640629,-1.21875 1.17187499,-1.6875 z M 13.374656,-1.61575 h -0.246093 c -0.04687,0.2578125 -0.08203,0.4921875 -0.175782,0.7265625 -0.04687,0.1640625 -0.08203,0.24609375 -0.65625,0.24609375 h -0.796875 c 0.128907,-0.56249995 0.433594,-1.04296875 0.878907,-1.69921875 0.46875,-0.703125 0.878906,-1.3945312 0.878906,-2.1796875 0,-1.3828125 -1.335938,-2.4960937 -3.023438,-2.4960937 -1.7109372,0 -3.035156,1.1367187 -3.035156,2.4960937 0,0.7851563 0.3984375,1.4765625 0.8671875,2.1796875 0.4453125,0.65625 0.7617188,1.1367188 0.890625,1.69921875 h -0.796875 c -0.5742187,0 -0.609375,-0.0820313 -0.65625,-0.234375 C 7.4215313,-1.100125 7.3746563,-1.3579375 7.3277813,-1.61575 H 7.0699688 l 0.328125,1.6171875 h 1.59375 c 0.2226562,0 0.2578125,0 0.2578125,-0.2109375 0,-0.69140625 -0.3164063,-1.5703125 -0.5390625,-2.2148437 -0.2109375,-0.5742188 -0.4921875,-1.359375 -0.4921875,-2.109375 0,-1.59375 1.1015625,-2.2734375 2.0039067,-2.2734375 0.960937,0 2.015625,0.7265625 2.015625,2.2734375 0,0.75 -0.269532,1.5117187 -0.5625,2.3203125 -0.152344,0.421875 -0.46875,1.31249995 -0.46875,2.0039062 0,0.2109375 0.03516,0.2109375 0.257812,0.2109375 h 1.582031 z m 0,0"
       style="fill:#000000;fill-opacity:1;fill-rule:nonzero;stroke:none"
       aria-label="8Ω"
       transform="matrix(1.3333333,0,0,1.3333333,89.464,19.029333)" />
    <path
       id="path14"
       d="M 4.8152422,-0.88985156 V -1.4406328 H 4.5574297 v 0.55078124 c 0,0.5859375 -0.2460938,0.64453125 -0.3515625,0.64453125 -0.328125,0 -0.375,-0.45703125 -0.375,-0.50390625 V -2.7414141 c 0,-0.4101562 0,-0.8085937 -0.3515625,-1.171875 -0.3867188,-0.3867187 -0.890625,-0.5507812 -1.3710938,-0.5507812 -0.8085937,0 -1.49999996,0.46875 -1.49999996,1.125 0,0.3046875 0.19921875,0.46875 0.45703126,0.46875 0.28125,0 0.4570312,-0.1992188 0.4570312,-0.4570313 0,-0.1171875 -0.046875,-0.4453125 -0.5039062,-0.4570312 0.2695312,-0.3515625 0.75,-0.4570313 1.078125,-0.4570313 0.4804687,0 1.0546875,0.3867188 1.0546875,1.2773438 v 0.3632812 c -0.515625,0.035156 -1.2070313,0.058594 -1.8398438,0.3632813 -0.74999996,0.3398437 -0.99609371,0.8554687 -0.99609371,1.28906249 0,0.80859375 0.97265621,1.0546875 1.59375001,1.0546875 0.65625,0 1.1132812,-0.3984375 1.3125,-0.8671875 0.035156,0.3984375 0.3046875,0.8203125 0.7734375,0.8203125 0.2109375,0 0.8203125,-0.140625 0.8203125,-0.94921875 z M 3.1511797,-1.3937578 c 0,0.94921874 -0.7265625,1.28906249 -1.171875,1.28906249 -0.4804688,0 -0.890625,-0.3515625 -0.890625,-0.85546875 0,-0.53906254 0.4101562,-1.37109374 2.0625,-1.42968754 z m 0,0"
       style="fill:#000000;fill-opacity:1;fill-rule:nonzero;stroke:none"
       aria-label="a"
       transform="matrix(1.3333333,0,0,1.3333333,141.17733,34.956)" />
  </g>
</svg>
