<?xml version="1.0" encoding="UTF-8" standalone="no"?>
<!-- Created with Inkscape (http://www.inkscape.org/) -->

<svg
   version="1.1"
   id="svg1"
   width="303.16"
   height="280.05334"
   viewBox="0 0 303.16 280.05334"
   sodipodi:docname="24-25-2-电路分析基础-期中-解答5.pdf"
   xmlns:inkscape="http://www.inkscape.org/namespaces/inkscape"
   xmlns:sodipodi="http://sodipodi.sourceforge.net/DTD/sodipodi-0.dtd"
   xmlns="http://www.w3.org/2000/svg"
   xmlns:svg="http://www.w3.org/2000/svg">
  <defs
     id="defs1" />
  <sodipodi:namedview
     id="namedview1"
     pagecolor="#ffffff"
     bordercolor="#000000"
     borderopacity="0.25"
     inkscape:showpageshadow="2"
     inkscape:pageopacity="0.0"
     inkscape:pagecheckerboard="0"
     inkscape:deskcolor="#d1d1d1">
    <inkscape:page
       x="0"
       y="0"
       inkscape:label="1"
       id="page1"
       width="303.16"
       height="280.05334"
       margin="0"
       bleed="0" />
  </sodipodi:namedview>
  <g
     id="g1"
     inkscape:groupmode="layer"
     inkscape:label="1">
    <path
       id="path1"
       d="M -16.59816,-6.08034 V 203.96121 H 210.76976 V -6.08034 Z"
       style="fill:#ffffff;fill-opacity:1;fill-rule:nonzero;stroke:none"
       transform="matrix(1.3333333,0,0,-1.3333333,22.130667,271.94667)" />
    <path
       id="path2"
       d="m 0,0 h 42.52022 m 0,0 h 42.52023 85.04047 v 5.3859 m 0,31.7484 v 5.38592 9.35438 m 0,23.81144 v 9.35441 85.04047 H 141.4505 m -27.77965,0 H 85.04045 54.42593 m -23.81143,0 H 0 L 0,85.04045 V 54.42593 M 0,30.6145 V 0"
       style="fill:none;stroke:#000000;stroke-width:0.3985;stroke-linecap:butt;stroke-linejoin:miter;stroke-miterlimit:10;stroke-dasharray:none;stroke-opacity:1"
       transform="matrix(1.3333333,0,0,-1.3333333,22.130667,271.94667)" />
    <path
       id="path3"
       d="m 86.6276,0 c 0,0.87656 -0.7106,1.58714 -1.58715,1.58714 -0.87655,0 -1.58714,-0.71058 -1.58714,-1.58714 0,-0.87656 0.71059,-1.58714 1.58714,-1.58714 0.87655,0 1.58715,0.71058 1.58715,1.58714 z"
       style="fill:#000000;fill-opacity:1;fill-rule:nonzero;stroke:#000000;stroke-width:0.3985;stroke-linecap:butt;stroke-linejoin:miter;stroke-miterlimit:10;stroke-dasharray:none;stroke-opacity:1"
       transform="matrix(1.3333333,0,0,-1.3333333,22.130667,271.94667)" />
    <path
       id="path4"
       d="M 176.03377,37.1343 V 5.3859 h -11.9057 v 31.7484 z"
       style="fill:none;stroke:#000000;stroke-width:0.797;stroke-linecap:butt;stroke-linejoin:miter;stroke-miterlimit:10;stroke-dasharray:none;stroke-opacity:1"
       transform="matrix(1.3333333,0,0,-1.3333333,22.130667,271.94667)" />
    <path
       id="path5"
       d="M 1.2645625,-0.76301562 2.31925,-1.7942656 c 1.5585938,-1.3710938 2.15625,-1.9101563 2.15625,-2.90625 0,-1.1367188 -0.9023437,-1.9335938 -2.1210937,-1.9335938 -1.125,0 -1.85156255,0.9140625 -1.85156255,1.8046875 0,0.5507813 0.4921875,0.5507813 0.52734375,0.5507813 0.1640625,0 0.515625,-0.1171875 0.515625,-0.5273438 0,-0.2578125 -0.1875,-0.515625 -0.5273437,-0.515625 -0.0820313,0 -0.1054688,0 -0.1289063,0.011719 0.2226563,-0.6445313 0.7617188,-1.0195313 1.3359375,-1.0195313 0.9140625,0 1.3359375,0.8085938 1.3359375,1.6289063 0,0.796875 -0.4921875,1.5820312 -1.0429687,2.203125 L 0.6083125,-0.36457812 C 0.50284375,-0.25910937 0.50284375,-0.23567187 0.50284375,-0.00129687 H 4.19425 L 4.4755,-1.7356719 H 4.2176875 C 4.1708125,-1.4309844 4.1005,-0.99739062 4.00675,-0.84504687 c -0.070313,0.0820313 -0.7265625,0.0820313 -0.9492187,0.0820313 z M 13.372961,-1.6184844 h -0.246094 c -0.04687,0.2578125 -0.08203,0.4921875 -0.175781,0.72656253 -0.04687,0.1640625 -0.08203,0.24609375 -0.65625,0.24609375 h -0.796875 c 0.128906,-0.56249998 0.433594,-1.04296878 0.878906,-1.69921878 0.46875,-0.703125 0.878906,-1.3945312 0.878906,-2.1796875 0,-1.3828125 -1.335937,-2.4960937 -3.023437,-2.4960937 -1.7109376,0 -3.0351563,1.1367187 -3.0351563,2.4960937 0,0.7851563 0.3984375,1.4765625 0.8671875,2.1796875 0.4453125,0.65625 0.7617187,1.1367188 0.890625,1.69921878 h -0.796875 c -0.5742188,0 -0.609375,-0.0820313 -0.65625,-0.234375 C 7.4198359,-1.1028594 7.3729609,-1.3606719 7.3260859,-1.6184844 H 7.0682734 l 0.328125,1.61718753 h 1.59375 c 0.2226563,0 0.2578125,0 0.2578125,-0.2109375 0,-0.69140625 -0.3164062,-1.57031253 -0.5390625,-2.21484373 -0.2109375,-0.5742188 -0.4921875,-1.359375 -0.4921875,-2.109375 0,-1.59375 1.1015625,-2.2734375 2.0039061,-2.2734375 0.960938,0 2.015625,0.7265625 2.015625,2.2734375 0,0.75 -0.269531,1.5117187 -0.5625,2.3203125 -0.152344,0.421875 -0.46875,1.31249998 -0.46875,2.00390623 0,0.2109375 0.03516,0.2109375 0.257813,0.2109375 h 1.582031 z m 0,0"
       style="fill:#000000;fill-opacity:1;fill-rule:nonzero;stroke:none"
       aria-label="2Ω"
       transform="matrix(1.3333333,0,0,1.3333333,259.78267,246.46267)" />
    <path
       id="path6"
       d="m 158.1752,63.78032 c 0,-6.57542 5.3303,-11.90572 11.90572,-11.90572 6.57541,0 11.90571,5.3303 11.90571,11.90572 0,6.57542 -5.3303,11.90572 -11.90571,11.90572 -6.57542,0 -11.90572,-5.3303 -11.90572,-11.90572 z"
       style="fill:none;stroke:#000000;stroke-width:0.797;stroke-linecap:butt;stroke-linejoin:miter;stroke-miterlimit:10;stroke-dasharray:none;stroke-opacity:1"
       transform="matrix(1.3333333,0,0,-1.3333333,22.130667,271.94667)" />
    <path
       id="path7"
       d="M 170.08092,51.8746 V 75.68604"
       style="fill:none;stroke:#000000;stroke-width:0.797;stroke-linecap:butt;stroke-linejoin:miter;stroke-miterlimit:10;stroke-dasharray:none;stroke-opacity:1"
       transform="matrix(1.3333333,0,0,-1.3333333,22.130667,271.94667)" />
    <path
       id="path8"
       d="m 171.66806,85.04045 c 0,0.87655 -0.71059,1.58715 -1.58714,1.58715 -0.87657,0 -1.58716,-0.7106 -1.58716,-1.58715 0,-0.87655 0.71059,-1.58714 1.58716,-1.58714 0.87655,0 1.58714,0.71059 1.58714,1.58714 z"
       style="fill:#000000;fill-opacity:1;fill-rule:nonzero;stroke:#000000;stroke-width:0.3985;stroke-linecap:butt;stroke-linejoin:miter;stroke-miterlimit:10;stroke-dasharray:none;stroke-opacity:1"
       transform="matrix(1.3333333,0,0,-1.3333333,22.130667,271.94667)" />
    <path
       id="path9"
       d="m 6.5610547,-2.2977109 c 0.1757812,0 0.3515625,0 0.3515625,-0.1992188 0,-0.1992187 -0.1757813,-0.1992187 -0.3515625,-0.1992187 h -5.390625 c -0.1640625,0 -0.33984376,0 -0.33984376,0.1992187 0,0.1992188 0.17578126,0.1992188 0.33984376,0.1992188 z m 0,0"
       style="fill:#000000;fill-opacity:1;fill-rule:nonzero;stroke:none"
       aria-label="−"
       transform="matrix(1.3333333,0,0,1.3333333,264.69333,202.32533)" />
    <path
       id="path10"
       d="m 4.0766797,-2.2971953 h 2.7773437 c 0.140625,0 0.328125,0 0.328125,-0.1992188 0,-0.1992187 -0.1875,-0.1992187 -0.328125,-0.1992187 H 4.0766797 v -2.7890625 c 0,-0.1289063 0,-0.328125 -0.1992188,-0.328125 -0.1992187,0 -0.1992187,0.1992187 -0.1992187,0.328125 v 2.7890625 H 0.88917969 c -0.140625,0 -0.328125,0 -0.328125,0.1992187 0,0.1992188 0.1875,0.1992188 0.328125,0.1992188 H 3.6782422 v 2.80078124 c 0,0.12890625 0,0.328125 0.1992187,0.328125 0.1992188,0 0.1992188,-0.19921875 0.1992188,-0.328125 z m 0,0"
       style="fill:#000000;fill-opacity:1;fill-rule:nonzero;stroke:none"
       aria-label="+"
       transform="matrix(1.3333333,0,0,1.3333333,264.69333,178.12933)" />
    <g
       id="g10"
       aria-label="4V"
       transform="matrix(1.3333333,0,0,1.3333333,275.956,191.296)">
      <path
         id="path11"
         d="m 2.9304609,-1.6399687 v 0.86718745 c 0,0.3515625 -0.023437,0.46875 -0.7617187,0.46875 H 1.9578047 V 6.5625e-4 C 2.3679609,-0.0345 2.8953047,-0.0345 3.3054609,-0.0345 c 0.421875,0 0.9492188,0 1.359375,0.03515625 v -0.3046875 H 4.4538984 c -0.7382812,0 -0.7617187,-0.1171875 -0.7617187,-0.46875 V -1.6399687 H 4.6882734 V -1.956375 H 3.6921797 v -4.5234375 c 0,-0.1992187 0,-0.2578125 -0.1523438,-0.2578125 -0.09375,0 -0.1171875,0 -0.1992187,0.1171875 L 0.28202344,-1.956375 v 0.3164063 z M 2.9890547,-1.956375 H 0.56327344 L 2.9890547,-5.6712187 Z m 0,0"
         style="fill:#000000;fill-opacity:1;fill-rule:nonzero;stroke:none" />
      <path
         id="path12"
         d="m 13.919719,-6.4915312 v -0.3164063 c -0.316407,0.023437 -0.714844,0.035156 -0.972657,0.035156 l -1.136718,-0.035156 v 0.3164063 c 0.515625,0.011719 0.726562,0.2695312 0.726562,0.4921875 0,0.082031 -0.02344,0.140625 -0.04687,0.1992187 l -1.828125,4.8046875 -1.8984373,-5.0273437 c -0.058594,-0.140625 -0.058594,-0.1875 -0.058594,-0.1875 0,-0.28125 0.5625,-0.28125 0.8203125,-0.28125 V -6.8079375 C 9.1619062,-6.7727812 8.4705,-6.7727812 8.0955,-6.7727812 l -1.265625,-0.035156 v 0.3164063 c 0.6445312,0 0.84375,0 0.9726562,0.375 L 10.122844,6.5625e-4 c 0.07031,0.1875 0.117187,0.22265625 0.246093,0.22265625 0.164063,0 0.1875,-0.0585938 0.234375,-0.1875 l 2.226563,-5.859375 c 0.140625,-0.375 0.410156,-0.65625 1.089844,-0.6679687 z m 0,0"
         style="fill:#000000;fill-opacity:1;fill-rule:nonzero;stroke:none" />
    </g>
    <path
       id="path13"
       d="m 141.4505,170.08092 -13.88983,-13.88983 -13.88982,13.88983 13.88982,13.88981 z"
       style="fill:none;stroke:#000000;stroke-width:0.797;stroke-linecap:butt;stroke-linejoin:miter;stroke-miterlimit:10;stroke-dasharray:none;stroke-opacity:1"
       transform="matrix(1.3333333,0,0,-1.3333333,22.130667,271.94667)" />
    <path
       id="path14"
       d="M 141.4505,170.08092 H 113.67085"
       style="fill:none;stroke:#000000;stroke-width:0.797;stroke-linecap:butt;stroke-linejoin:miter;stroke-miterlimit:10;stroke-dasharray:none;stroke-opacity:1"
       transform="matrix(1.3333333,0,0,-1.3333333,22.130667,271.94667)" />
    <path
       id="path15"
       d="m 86.6276,170.08092 c 0,0.87655 -0.7106,1.58714 -1.58715,1.58714 -0.87655,0 -1.58714,-0.71059 -1.58714,-1.58714 0,-0.87657 0.71059,-1.58716 1.58714,-1.58716 0.87655,0 1.58715,0.71059 1.58715,1.58716 z"
       style="fill:#000000;fill-opacity:1;fill-rule:nonzero;stroke:#000000;stroke-width:0.3985;stroke-linecap:butt;stroke-linejoin:miter;stroke-miterlimit:10;stroke-dasharray:none;stroke-opacity:1"
       transform="matrix(1.3333333,0,0,-1.3333333,22.130667,271.94667)" />
    <path
       id="path16"
       d="m 4.0782422,-2.2967187 h 2.7773437 c 0.140625,0 0.328125,0 0.328125,-0.1992188 0,-0.1992187 -0.1875,-0.1992187 -0.328125,-0.1992187 H 4.0782422 v -2.7890625 c 0,-0.1289063 0,-0.328125 -0.1992188,-0.328125 -0.1992187,0 -0.1992187,0.1992187 -0.1992187,0.328125 v 2.7890625 H 0.89074219 c -0.140625,0 -0.328125,0 -0.328125,0.1992187 0,0.1992188 0.1875,0.1992188 0.328125,0.1992188 H 3.6798047 v 2.8007812 c 0,0.12890625 0,0.328125 0.1992187,0.328125 0.1992188,0 0.1992188,-0.19921875 0.1992188,-0.328125 z m 0,0"
       style="fill:#000000;fill-opacity:1;fill-rule:nonzero;stroke:none"
       aria-label="+"
       transform="matrix(1.3333333,0,0,1.3333333,201.16,24.046667)" />
    <path
       id="path17"
       d="m 6.5617656,-2.2967187 c 0.1757813,0 0.3515625,0 0.3515625,-0.1992188 0,-0.1992187 -0.1757812,-0.1992187 -0.3515625,-0.1992187 h -5.390625 c -0.1640625,0 -0.33984372,0 -0.33984372,0.1992187 0,0.1992188 0.17578122,0.1992188 0.33984372,0.1992188 z m 0,0"
       style="fill:#000000;fill-opacity:1;fill-rule:nonzero;stroke:none"
       aria-label="−"
       transform="matrix(1.3333333,0,0,1.3333333,172.93067,24.046667)" />
    <path
       id="path18"
       d="m 3.4928047,-0.56132812 c 0.1054687,0.41015625 0.4570312,0.66796875 0.8789062,0.66796875 0.3515625,0 0.5742188,-0.22265625 0.7382813,-0.5390625 0.1757812,-0.36328125 0.3046875,-0.97265623 0.3046875,-0.99609373 0,-0.09375 -0.09375,-0.09375 -0.1289063,-0.09375 -0.09375,0 -0.1054687,0.035156 -0.140625,0.1757812 -0.1289062,0.56250003 -0.328125,1.24218753 -0.7382812,1.24218753 -0.2109375,0 -0.3164063,-0.12890625 -0.3164063,-0.45703125 0,-0.22265625 0.1289063,-0.69140628 0.1992188,-1.04296878 l 0.28125,-1.078125 c 0.035156,-0.140625 0.1289062,-0.5273437 0.1757812,-0.6679687 0.046875,-0.234375 0.140625,-0.609375 0.140625,-0.6679688 0,-0.1875 -0.140625,-0.2695312 -0.28125,-0.2695312 -0.058594,0 -0.3164062,0 -0.3867187,0.3398437 -0.1992188,0.7265625 -0.6328125,2.4726563 -0.75,3.00000003 -0.011719,0.046875 -0.4101563,0.84375 -1.1367188,0.84375 -0.515625,0 -0.6210937,-0.45703125 -0.6210937,-0.8203125 0,-0.56250003 0.28125,-1.34765623 0.5390625,-2.02734373 0.1171875,-0.3046875 0.1757812,-0.4453125 0.1757812,-0.6328125 0,-0.4453125 -0.328125,-0.8203125 -0.8203125,-0.8203125 -0.94921871,0 -1.31249996,1.453125 -1.31249996,1.5351562 0,0.1054688 0.09375,0.1054688 0.1171875,0.1054688 0.09375,0 0.10546875,-0.023437 0.15234375,-0.1875 0.2578125,-0.8671875 0.63281251,-1.2304688 1.00781251,-1.2304688 0.09375,0 0.2578125,0.011719 0.2578125,0.328125 0,0.234375 -0.1171875,0.5273438 -0.1757813,0.6796875 -0.3632812,0.984375 -0.5742187,1.6054688 -0.5742187,2.0859375 0,0.94921878 0.6796875,1.19531253 1.21875,1.19531253 0.65625,0 1.0195312,-0.4453125 1.1953125,-0.66796875 z m 0,0"
       style="fill:#000000;fill-opacity:1;fill-rule:nonzero;stroke:none"
       aria-label="u"
       transform="matrix(1.3333333,0,0,1.3333333,188.40933,14.1)" />
    <path
       id="path19"
       d="m 42.52022,158.1752 c 6.57541,0 11.90571,5.3303 11.90571,11.90572 0,6.57541 -5.3303,11.90571 -11.90571,11.90571 -6.57542,0 -11.90572,-5.3303 -11.90572,-11.90571 0,-6.57542 5.3303,-11.90572 11.90572,-11.90572 z m 0,0 v 23.81143"
       style="fill:none;stroke:#000000;stroke-width:0.797;stroke-linecap:butt;stroke-linejoin:miter;stroke-miterlimit:10;stroke-dasharray:none;stroke-opacity:1"
       transform="matrix(1.3333333,0,0,-1.3333333,22.130667,271.94667)" />
    <path
       id="path20"
       d="m 17.04346,170.08092 v 1.98425 l -4.21654,-1.98425 4.21654,-1.98426 z"
       style="fill:#000000;fill-opacity:1;fill-rule:nonzero;stroke:#000000;stroke-width:0.3985;stroke-linecap:butt;stroke-linejoin:miter;stroke-miterlimit:10;stroke-dasharray:none;stroke-opacity:1"
       transform="matrix(1.3333333,0,0,-1.3333333,22.130667,271.94667)" />
    <g
       id="g20"
       aria-label="2A"
       transform="matrix(1.3333333,0,0,1.3333333,33.130667,40.478667)">
      <path
         id="path21"
         d="M 1.2643047,-0.76036719 2.3189922,-1.7916172 c 1.5585937,-1.3710937 2.15625,-1.9101562 2.15625,-2.90625 0,-1.1367187 -0.9023438,-1.9335937 -2.1210938,-1.9335937 -1.125,0 -1.85156246,0.9140625 -1.85156246,1.8046875 0,0.5507812 0.4921875,0.5507812 0.52734376,0.5507812 0.1640625,0 0.515625,-0.1171875 0.515625,-0.5273437 0,-0.2578125 -0.1875,-0.515625 -0.5273438,-0.515625 -0.0820312,0 -0.10546871,0 -0.12890621,0.011719 0.22265621,-0.6445312 0.76171871,-1.0195312 1.33593751,-1.0195312 0.9140625,0 1.3359375,0.8085937 1.3359375,1.6289062 0,0.796875 -0.4921875,1.5820313 -1.0429688,2.203125 L 0.60805469,-0.36192969 C 0.50258594,-0.25646094 0.50258594,-0.23302344 0.50258594,0.00135156 H 4.1939922 l 0.28125,-1.73437496 H 4.2174297 c -0.046875,0.3046875 -0.1171875,0.73828121 -0.2109375,0.89062496 -0.070313,0.0820313 -0.7265625,0.0820313 -0.9492188,0.0820313 z m 0,0"
         style="fill:#000000;fill-opacity:1;fill-rule:nonzero;stroke:none" />
      <path
         id="path22"
         d="m 13.77993,0.00135156 v -0.3046875 h -0.175782 c -0.597656,0 -0.738281,-0.0703125 -0.84375,-0.3984375 l -2.15625,-6.23437496 c -0.04687,-0.1289063 -0.07031,-0.1992188 -0.222656,-0.1992188 -0.164062,0 -0.1875,0.058594 -0.246094,0.1992188 l -2.0624996,5.96484371 c -0.1757812,0.50390625 -0.5742187,0.65625 -1.1132812,0.66796875 v 0.3046875 l 1.0195312,-0.03515625 1.1484375,0.03515625 v -0.3046875 c -0.5039062,0 -0.75,-0.2578125 -0.75,-0.515625 0,-0.0234375 0.011719,-0.12890625 0.023437,-0.140625 L 8.8580547,-2.2720859 h 2.4609373 l 0.527344,1.52343746 c 0.01172,0.046875 0.02344,0.10546875 0.02344,0.140625 0,0.3046875 -0.550781,0.3046875 -0.820312,0.3046875 v 0.3046875 c 0.351562,-0.03515625 1.054687,-0.03515625 1.429687,-0.03515625 z M 11.201805,-2.5767734 H 8.9635234 l 1.1132816,-3.234375 z m 0,0"
         style="fill:#000000;fill-opacity:1;fill-rule:nonzero;stroke:none" />
    </g>
    <path
       id="path23"
       d="m 11.90572,42.52022 c 0,6.57541 -5.33031,11.90571 -11.90572,11.90571 -6.57541,0 -11.90572,-5.3303 -11.90572,-11.90571 0,-6.57542 5.33031,-11.90572 11.90572,-11.90572 6.57541,0 11.90572,5.3303 11.90572,11.90572 z"
       style="fill:none;stroke:#000000;stroke-width:0.797;stroke-linecap:butt;stroke-linejoin:miter;stroke-miterlimit:10;stroke-dasharray:none;stroke-opacity:1"
       transform="matrix(1.3333333,0,0,-1.3333333,22.130667,271.94667)" />
    <path
       id="path24"
       d="M 0,54.42593 V 30.6145"
       style="fill:none;stroke:#000000;stroke-width:0.797;stroke-linecap:butt;stroke-linejoin:miter;stroke-miterlimit:10;stroke-dasharray:none;stroke-opacity:1"
       transform="matrix(1.3333333,0,0,-1.3333333,22.130667,271.94667)" />
    <path
       id="path25"
       d="M 1.58714,85.04045 C 1.58714,85.917 0.87656,86.6276 0,86.6276 c -0.87656,0 -1.58714,-0.7106 -1.58714,-1.58715 0,-0.87655 0.71058,-1.58714 1.58714,-1.58714 0.87656,0 1.58714,0.71059 1.58714,1.58714 z"
       style="fill:#000000;fill-opacity:1;fill-rule:nonzero;stroke:#000000;stroke-width:0.3985;stroke-linecap:butt;stroke-linejoin:miter;stroke-miterlimit:10;stroke-dasharray:none;stroke-opacity:1"
       transform="matrix(1.3333333,0,0,-1.3333333,22.130667,271.94667)" />
    <path
       id="path26"
       d="m 4.0776016,-2.2964531 h 2.7773437 c 0.140625,0 0.328125,0 0.328125,-0.1992188 0,-0.1992187 -0.1875,-0.1992187 -0.328125,-0.1992187 H 4.0776016 v -2.7890625 c 0,-0.1289063 0,-0.328125 -0.1992188,-0.328125 -0.1992187,0 -0.1992187,0.1992187 -0.1992187,0.328125 v 2.7890625 H 0.89010156 c -0.140625,0 -0.328125,0 -0.328125,0.1992187 0,0.1992188 0.1875,0.1992188 0.328125,0.1992188 H 3.6791641 v 2.80078123 c 0,0.12890625 0,0.328125 0.1992187,0.328125 0.1992188,0 0.1992188,-0.19921875 0.1992188,-0.328125 z m 0,0"
       style="fill:#000000;fill-opacity:1;fill-rule:nonzero;stroke:none"
       aria-label="+"
       transform="matrix(1.3333333,0,0,1.3333333,37.918667,206.476)" />
    <path
       id="path27"
       d="m 6.5619766,-2.2969687 c 0.1757812,0 0.3515625,0 0.3515625,-0.1992188 0,-0.1992187 -0.1757813,-0.1992187 -0.3515625,-0.1992187 h -5.390625 c -0.1640625,0 -0.33984379,0 -0.33984379,0.1992187 0,0.1992188 0.17578129,0.1992188 0.33984379,0.1992188 z m 0,0"
       style="fill:#000000;fill-opacity:1;fill-rule:nonzero;stroke:none"
       aria-label="−"
       transform="matrix(1.3333333,0,0,1.3333333,37.918667,230.672)" />
    <g
       id="g27"
       aria-label="3V"
       transform="matrix(1.3333333,0,0,1.3333333,49.181333,219.64267)">
      <path
         id="path28"
         d="m 2.8932969,-3.5025078 c 0.8085937,-0.2695313 1.3945312,-0.9726563 1.3945312,-1.7578125 0,-0.8203125 -0.8789062,-1.3710938 -1.8398437,-1.3710938 -1.0078125,0 -1.75781252,0.5976563 -1.75781252,1.3476563 0,0.3398437 0.2109375,0.5273437 0.50390622,0.5273437 0.3046875,0 0.5039063,-0.2226562 0.5039063,-0.515625 0,-0.4921875 -0.46875,-0.4921875 -0.609375,-0.4921875 0.3046875,-0.4921875 0.9609375,-0.6210937 1.3242187,-0.6210937 0.4101563,0 0.9492188,0.2226562 0.9492188,1.1132812 0,0.1289063 -0.011719,0.703125 -0.2695313,1.1367188 -0.3046875,0.4804687 -0.6445312,0.515625 -0.890625,0.515625 -0.082031,0.011719 -0.3164062,0.035156 -0.3867187,0.035156 -0.082031,0.011719 -0.1523438,0.023437 -0.1523438,0.1171875 0,0.1171875 0.070312,0.1171875 0.234375,0.1171875 h 0.4453125 c 0.8085938,0 1.1835938,0.6679688 1.1835938,1.6523438 0,1.34765624 -0.6914063,1.64062499 -1.125,1.64062499 -0.4335938,0 -1.171875,-0.17578125 -1.52343752,-0.76171875 0.35156252,0.0585938 0.65625002,-0.1640625 0.65625002,-0.53906254 0,-0.3632812 -0.2695313,-0.5625 -0.56250002,-0.5625 -0.234375,0 -0.55078125,0.140625 -0.55078125,0.5742188 0,0.91406249 0.92578127,1.57031249 2.00390627,1.57031249 1.21875,0 2.1210937,-0.9140625 2.1210937,-1.92187499 0,-0.8203125 -0.6210937,-1.59375 -1.6523437,-1.8046873 z m 0,0"
         style="fill:#000000;fill-opacity:1;fill-rule:nonzero;stroke:none" />
      <path
         id="path29"
         d="m 13.920641,-6.4907891 v -0.3164062 c -0.316407,0.023437 -0.714844,0.035156 -0.972657,0.035156 l -1.136718,-0.035156 v 0.3164062 c 0.515625,0.011719 0.726562,0.2695313 0.726562,0.4921875 0,0.082031 -0.02344,0.140625 -0.04687,0.1992188 l -1.82813,4.80468749 -1.8984374,-5.02734379 c -0.058594,-0.140625 -0.058594,-0.1875 -0.058594,-0.1875 0,-0.28125 0.5625,-0.28125 0.8203125,-0.28125 v -0.3164062 c -0.3632813,0.035156 -1.0546875,0.035156 -1.4296875,0.035156 l -1.265625,-0.035156 v 0.3164062 c 0.6445312,0 0.84375,0 0.9726562,0.375 l 2.3203132,6.11718754 c 0.07031,0.1875 0.117187,0.22265625 0.246093,0.22265625 0.164063,0 0.1875,-0.0585938 0.234375,-0.1875 l 2.226563,-5.85937499 c 0.140625,-0.375 0.410156,-0.65625 1.089844,-0.6679688 z m 0,0"
         style="fill:#000000;fill-opacity:1;fill-rule:nonzero;stroke:none" />
    </g>
    <path
       id="path30"
       d="m 85.04045,0 -1e-5,28.6304 m 0,27.77963 1e-5,28.63042 -1e-5,26.64603 m 0,31.7484 1e-5,26.64604"
       style="fill:none;stroke:#000000;stroke-width:0.3985;stroke-linecap:butt;stroke-linejoin:miter;stroke-miterlimit:10;stroke-dasharray:none;stroke-opacity:1"
       transform="matrix(1.3333333,0,0,-1.3333333,22.130667,271.94667)" />
    <path
       id="path31"
       d="M 85.04044,28.6304 71.15062,42.52022 85.04044,56.41003 98.93025,42.52022 Z"
       style="fill:none;stroke:#000000;stroke-width:0.797;stroke-linecap:butt;stroke-linejoin:miter;stroke-miterlimit:10;stroke-dasharray:none;stroke-opacity:1"
       transform="matrix(1.3333333,0,0,-1.3333333,22.130667,271.94667)" />
    <path
       id="path32"
       d="M 85.04044,28.6304 V 56.41003"
       style="fill:none;stroke:#000000;stroke-width:0.797;stroke-linecap:butt;stroke-linejoin:miter;stroke-miterlimit:10;stroke-dasharray:none;stroke-opacity:1"
       transform="matrix(1.3333333,0,0,-1.3333333,22.130667,271.94667)" />
    <path
       id="path33"
       d="m 86.6276,85.04045 c 0,0.87655 -0.7106,1.58715 -1.58715,1.58715 -0.87655,0 -1.58714,-0.7106 -1.58714,-1.58715 0,-0.87655 0.71059,-1.58714 1.58714,-1.58714 0.87655,0 1.58715,0.71059 1.58715,1.58714 z"
       style="fill:#000000;fill-opacity:1;fill-rule:nonzero;stroke:#000000;stroke-width:0.3985;stroke-linecap:butt;stroke-linejoin:miter;stroke-miterlimit:10;stroke-dasharray:none;stroke-opacity:1"
       transform="matrix(1.3333333,0,0,-1.3333333,22.130667,271.94667)" />
    <path
       id="path34"
       d="m 6.5611562,-2.29725 c 0.1757813,0 0.3515625,0 0.3515625,-0.1992187 0,-0.1992188 -0.1757812,-0.1992188 -0.3515625,-0.1992188 h -5.390625 c -0.1640625,0 -0.3398437,0 -0.3398437,0.1992188 0,0.1992187 0.1757812,0.1992187 0.3398437,0.1992187 z m 0,0"
       style="fill:#000000;fill-opacity:1;fill-rule:nonzero;stroke:none"
       aria-label="−"
       transform="matrix(1.3333333,0,0,1.3333333,154.79867,232.688)" />
    <path
       id="path35"
       d="M 4.0767812,-2.2981016 H 6.854125 c 0.140625,0 0.328125,0 0.328125,-0.1992187 0,-0.1992188 -0.1875,-0.1992188 -0.328125,-0.1992188 H 4.0767812 v -2.7890625 c 0,-0.1289062 0,-0.328125 -0.1992187,-0.328125 -0.1992188,0 -0.1992188,0.1992188 -0.1992188,0.328125 v 2.7890625 H 0.88928125 c -0.140625,0 -0.328125,0 -0.328125,0.1992188 0,0.1992187 0.1875,0.1992187 0.328125,0.1992187 H 3.6783437 v 2.80078129 c 0,0.12890625 0,0.328125 0.1992188,0.328125 0.1992187,0 0.1992187,-0.19921875 0.1992187,-0.328125 z m 0,0"
       style="fill:#000000;fill-opacity:1;fill-rule:nonzero;stroke:none"
       aria-label="+"
       transform="matrix(1.3333333,0,0,1.3333333,154.79867,204.45867)" />
    <g
       id="g35"
       aria-label="2u"
       transform="matrix(1.3333333,0,0,1.3333333,166.59067,219.53333)">
      <path
         id="path36"
         d="M 1.2650078,-0.76035156 2.3196953,-1.7916016 c 1.5585938,-1.3710937 2.15625,-1.9101562 2.15625,-2.90625 0,-1.1367187 -0.9023437,-1.9335937 -2.1210937,-1.9335937 -1.125,0 -1.85156254,0.9140625 -1.85156254,1.8046875 0,0.5507812 0.4921875,0.5507812 0.52734374,0.5507812 0.1640625,0 0.515625,-0.1171875 0.515625,-0.5273437 0,-0.2578125 -0.1875,-0.515625 -0.5273437,-0.515625 -0.0820313,0 -0.10546879,0 -0.12890629,0.011719 0.22265629,-0.6445312 0.76171879,-1.0195312 1.33593749,-1.0195312 0.9140625,0 1.3359375,0.8085937 1.3359375,1.6289062 0,0.796875 -0.4921875,1.5820313 -1.0429687,2.203125 L 0.60875781,-0.36191406 C 0.50328906,-0.25644531 0.50328906,-0.23300781 0.50328906,0.00136719 H 4.1946953 l 0.28125,-1.73437499 H 4.2181328 c -0.046875,0.3046875 -0.1171875,0.73828124 -0.2109375,0.89062499 -0.070313,0.0820313 -0.7265625,0.0820313 -0.9492187,0.0820313 z m 0,0"
         style="fill:#000000;fill-opacity:1;fill-rule:nonzero;stroke:none" />
      <path
         id="path37"
         d="m 8.4720391,-0.56113281 c 0.1054687,0.41015625 0.4570312,0.66796875 0.8789062,0.66796875 0.3515625,0 0.5742188,-0.22265625 0.7382817,-0.5390625 0.175781,-0.36328125 0.304687,-0.97265624 0.304687,-0.99609374 0,-0.09375 -0.09375,-0.09375 -0.128906,-0.09375 -0.09375,0 -0.105469,0.035156 -0.140625,0.1757812 -0.1289064,0.56250004 -0.3281252,1.24218754 -0.7382814,1.24218754 -0.2109375,0 -0.3164063,-0.12890625 -0.3164063,-0.45703125 0,-0.22265625 0.1289063,-0.69140629 0.1992188,-1.04296879 l 0.28125,-1.078125 c 0.035156,-0.140625 0.1289062,-0.5273437 0.1757812,-0.6679687 0.046875,-0.234375 0.140625,-0.609375 0.140625,-0.6679688 0,-0.1875 -0.140625,-0.2695312 -0.28125,-0.2695312 -0.058594,0 -0.3164062,0 -0.3867187,0.3398437 -0.1992188,0.7265625 -0.6328125,2.4726563 -0.75,3.00000004 -0.011719,0.046875 -0.4101563,0.84375 -1.1367188,0.84375 -0.515625,0 -0.6210937,-0.45703125 -0.6210937,-0.8203125 0,-0.56250004 0.28125,-1.34765624 0.5390625,-2.02734374 0.1171875,-0.3046875 0.1757812,-0.4453125 0.1757812,-0.6328125 0,-0.4453125 -0.328125,-0.8203125 -0.8203125,-0.8203125 -0.9492187,0 -1.3125,1.453125 -1.3125,1.5351562 0,0.1054688 0.09375,0.1054688 0.1171875,0.1054688 0.09375,0 0.1054688,-0.023437 0.1523438,-0.1875 0.2578125,-0.8671875 0.6328125,-1.2304688 1.0078125,-1.2304688 0.09375,0 0.2578125,0.011719 0.2578125,0.328125 0,0.234375 -0.1171875,0.5273438 -0.1757813,0.6796875 -0.3632812,0.984375 -0.5742187,1.6054688 -0.5742187,2.0859375 0,0.94921879 0.6796875,1.19531254 1.21875,1.19531254 0.65625,0 1.0195312,-0.4453125 1.1953125,-0.66796875 z m 0,0"
         style="fill:#000000;fill-opacity:1;fill-rule:nonzero;stroke:none" />
    </g>
    <path
       id="path38"
       d="m 90.99329,143.43488 v -31.7484 h -11.9057 v 31.7484 z"
       style="fill:none;stroke:#000000;stroke-width:0.797;stroke-linecap:butt;stroke-linejoin:miter;stroke-miterlimit:10;stroke-dasharray:none;stroke-opacity:1"
       transform="matrix(1.3333333,0,0,-1.3333333,22.130667,271.94667)" />
    <path
       id="path39"
       d="M 1.2645234,-0.76279687 2.3192109,-1.7940469 c 1.5585938,-1.3710937 2.15625,-1.9101562 2.15625,-2.90625 0,-1.1367187 -0.9023437,-1.9335937 -2.1210937,-1.9335937 -1.125,0 -1.85156251,0.9140625 -1.85156251,1.8046875 0,0.5507812 0.4921875,0.5507812 0.52734371,0.5507812 0.1640625,0 0.515625,-0.1171875 0.515625,-0.5273437 0,-0.2578125 -0.1875,-0.515625 -0.5273437,-0.515625 -0.0820313,0 -0.10546876,0 -0.12890626,0.011719 0.22265626,-0.6445312 0.76171876,-1.0195312 1.33593746,-1.0195312 0.9140625,0 1.3359375,0.8085937 1.3359375,1.6289062 0,0.796875 -0.4921875,1.5820313 -1.0429687,2.203125 L 0.60827344,-0.36435937 C 0.50280469,-0.25889062 0.50280469,-0.23545312 0.50280469,-0.00107812 H 4.1942109 l 0.28125,-1.73437498 H 4.2176484 c -0.046875,0.3046875 -0.1171875,0.73828123 -0.2109375,0.89062498 -0.070312,0.0820313 -0.7265625,0.0820313 -0.9492187,0.0820313 z M 13.372922,-1.6182656 h -0.246094 c -0.04687,0.2578125 -0.08203,0.4921875 -0.175781,0.72656248 -0.04687,0.1640625 -0.08203,0.24609375 -0.65625,0.24609375 h -0.796875 c 0.128906,-0.56250003 0.433594,-1.04296873 0.878906,-1.69921873 0.46875,-0.703125 0.878906,-1.3945313 0.878906,-2.1796875 0,-1.3828125 -1.335937,-2.4960938 -3.023437,-2.4960938 -1.7109376,0 -3.0351564,1.1367188 -3.0351564,2.4960938 0,0.7851562 0.3984375,1.4765625 0.8671875,2.1796875 0.4453125,0.65625 0.7617188,1.1367187 0.890625,1.69921873 h -0.796875 c -0.5742187,0 -0.609375,-0.0820313 -0.65625,-0.234375 C 7.4197969,-1.1026406 7.3729219,-1.3604531 7.3260469,-1.6182656 H 7.0682344 l 0.328125,1.61718748 h 1.59375 c 0.2226562,0 0.2578125,0 0.2578125,-0.2109375 0,-0.69140625 -0.3164063,-1.57031248 -0.5390625,-2.21484378 -0.2109375,-0.5742187 -0.4921875,-1.359375 -0.4921875,-2.109375 0,-1.59375 1.1015625,-2.2734375 2.0039061,-2.2734375 0.960938,0 2.015625,0.7265625 2.015625,2.2734375 0,0.75 -0.269531,1.5117188 -0.5625,2.3203125 -0.152344,0.421875 -0.46875,1.31250003 -0.46875,2.00390628 0,0.2109375 0.03516,0.2109375 0.257813,0.2109375 h 1.582031 z m 0,0"
       style="fill:#000000;fill-opacity:1;fill-rule:nonzero;stroke:none"
       aria-label="2Ω"
       transform="matrix(1.3333333,0,0,1.3333333,146.396,104.728)" />
    <path
       id="path40"
       d="m 0,85.04045 26.64603,-1e-5 m 31.74838,0 26.64604,1e-5 26.64603,-1e-5 m 31.7484,0 26.64604,1e-5"
       style="fill:none;stroke:#000000;stroke-width:0.3985;stroke-linecap:butt;stroke-linejoin:miter;stroke-miterlimit:10;stroke-dasharray:none;stroke-opacity:1"
       transform="matrix(1.3333333,0,0,-1.3333333,22.130667,271.94667)" />
    <path
       id="path41"
       d="M 26.64603,90.99329 H 58.39441 V 79.08759 H 26.64603 Z"
       style="fill:none;stroke:#000000;stroke-width:0.797;stroke-linecap:butt;stroke-linejoin:miter;stroke-miterlimit:10;stroke-dasharray:none;stroke-opacity:1"
       transform="matrix(1.3333333,0,0,-1.3333333,22.130667,271.94667)" />
    <path
       id="path42"
       d="M 1.2667969,-0.76135156 2.3214844,-1.7926016 c 1.5585937,-1.3710937 2.15625,-1.9101562 2.15625,-2.90625 0,-1.1367187 -0.9023438,-1.9335937 -2.1210938,-1.9335937 -1.125,0 -1.85156248,0.9140625 -1.85156248,1.8046875 0,0.5507812 0.4921875,0.5507812 0.52734378,0.5507812 0.1640625,0 0.515625,-0.1171875 0.515625,-0.5273437 0,-0.2578125 -0.1875,-0.515625 -0.5273438,-0.515625 -0.0820312,0 -0.10546873,0 -0.12890623,0.011719 0.22265623,-0.6445312 0.76171873,-1.0195312 1.33593753,-1.0195312 0.9140625,0 1.3359375,0.8085937 1.3359375,1.6289062 0,0.796875 -0.4921875,1.5820313 -1.0429688,2.203125 L 0.61054687,-0.36291406 C 0.50507812,-0.25744531 0.50507812,-0.23400781 0.50507812,3.671875e-4 H 4.1964844 L 4.4777344,-1.7340078 H 4.2199219 c -0.046875,0.3046875 -0.1171875,0.73828124 -0.2109375,0.89062499 -0.070312,0.0820313 -0.7265625,0.0820313 -0.9492188,0.0820313 z M 13.372266,-1.6168203 h -0.246094 c -0.04687,0.2578125 -0.08203,0.4921875 -0.175781,0.72656249 -0.04687,0.1640625 -0.08203,0.24609375 -0.65625,0.24609375 h -0.796875 c 0.128906,-0.56250004 0.433593,-1.04296874 0.878906,-1.69921874 0.46875,-0.703125 0.878906,-1.3945313 0.878906,-2.1796875 0,-1.3828125 -1.335937,-2.4960938 -3.023437,-2.4960938 -1.7109379,0 -3.0351566,1.1367188 -3.0351566,2.4960938 0,0.7851562 0.3984375,1.4765625 0.8671875,2.1796875 0.4453125,0.65625 0.7617187,1.1367187 0.890625,1.69921874 h -0.796875 c -0.5742188,0 -0.609375,-0.0820313 -0.65625,-0.234375 C 7.4191406,-1.1011953 7.3722656,-1.3590078 7.3253906,-1.6168203 H 7.0675781 l 0.328125,1.6171874875 h 1.59375 c 0.2226563,0 0.2578125,0 0.2578125,-0.2109374975 0,-0.69140625 -0.3164062,-1.57031249 -0.5390625,-2.21484379 -0.2109375,-0.5742187 -0.4921875,-1.359375 -0.4921875,-2.109375 0,-1.59375 1.1015625,-2.2734375 2.0039064,-2.2734375 0.960937,0 2.015625,0.7265625 2.015625,2.2734375 0,0.75 -0.269531,1.5117188 -0.5625,2.3203125 -0.152344,0.421875 -0.46875,1.31250004 -0.46875,2.00390629 0,0.2109374975 0.03516,0.2109374975 0.257812,0.2109374975 h 1.582032 z m 0,0"
       style="fill:#000000;fill-opacity:1;fill-rule:nonzero;stroke:none"
       aria-label="2Ω"
       transform="matrix(1.3333333,0,0,1.3333333,69.6,145.53467)" />
    <path
       id="path43"
       d="m 4.0782422,-2.2954297 h 2.7773437 c 0.140625,0 0.328125,0 0.328125,-0.1992187 0,-0.1992188 -0.1875,-0.1992188 -0.328125,-0.1992188 H 4.0782422 v -2.7890625 c 0,-0.1289062 0,-0.328125 -0.1992188,-0.328125 -0.1992187,0 -0.1992187,0.1992188 -0.1992187,0.328125 v 2.7890625 H 0.89074219 c -0.140625,0 -0.328125,0 -0.328125,0.1992188 0,0.1992187 0.1875,0.1992187 0.328125,0.1992187 H 3.6798047 v 2.80078126 c 0,0.12890625 0,0.328125 0.1992187,0.328125 0.1992188,0 0.1992188,-0.19921875 0.1992188,-0.328125 z m 0,0"
       style="fill:#000000;fill-opacity:1;fill-rule:nonzero;stroke:none"
       aria-label="+"
       transform="matrix(1.3333333,0,0,1.3333333,33.16,170.80667)" />
    <path
       id="path44"
       d="m 6.5616875,-2.2954297 c 0.1757813,0 0.3515625,0 0.3515625,-0.1992187 0,-0.1992188 -0.1757812,-0.1992188 -0.3515625,-0.1992188 h -5.390625 c -0.1640625,0 -0.33984375,0 -0.33984375,0.1992188 0,0.1992187 0.17578125,0.1992187 0.33984375,0.1992187 z m 0,0"
       style="fill:#000000;fill-opacity:1;fill-rule:nonzero;stroke:none"
       aria-label="−"
       transform="matrix(1.3333333,0,0,1.3333333,114.15733,170.80667)" />
    <path
       id="path45"
       d="m 3.4927656,-0.56345312 c 0.1054688,0.41015625 0.4570313,0.66796875 0.8789063,0.66796875 0.3515625,0 0.5742187,-0.22265625 0.7382812,-0.5390625 0.1757813,-0.36328125 0.3046875,-0.97265623 0.3046875,-0.99609373 0,-0.09375 -0.09375,-0.09375 -0.1289062,-0.09375 -0.09375,0 -0.1054688,0.035156 -0.140625,0.1757812 -0.1289063,0.56250003 -0.328125,1.24218753 -0.7382813,1.24218753 -0.2109375,0 -0.3164062,-0.12890625 -0.3164062,-0.45703125 0,-0.22265625 0.1289062,-0.69140628 0.1992187,-1.04296878 l 0.28125,-1.078125 c 0.035156,-0.140625 0.1289063,-0.5273437 0.1757813,-0.6679687 0.046875,-0.234375 0.140625,-0.609375 0.140625,-0.6679688 0,-0.1875 -0.140625,-0.2695312 -0.28125,-0.2695312 -0.058594,0 -0.3164063,0 -0.3867188,0.3398437 -0.1992187,0.7265625 -0.6328125,2.4726563 -0.75,3.00000003 -0.011719,0.046875 -0.4101562,0.84375 -1.1367187,0.84375 -0.515625,0 -0.6210938,-0.45703125 -0.6210938,-0.8203125 0,-0.56250003 0.28125,-1.34765623 0.5390625,-2.02734373 0.1171875,-0.3046875 0.1757813,-0.4453125 0.1757813,-0.6328125 0,-0.4453125 -0.328125,-0.8203125 -0.8203125,-0.8203125 -0.94921877,0 -1.31250002,1.453125 -1.31250002,1.5351562 0,0.1054688 0.09375,0.1054688 0.1171875,0.1054688 0.09375,0 0.10546875,-0.023437 0.15234375,-0.1875 0.2578125,-0.8671875 0.63281247,-1.2304688 1.00781247,-1.2304688 0.09375,0 0.2578125,0.011719 0.2578125,0.328125 0,0.234375 -0.1171875,0.5273438 -0.1757812,0.6796875 -0.3632813,0.984375 -0.5742188,1.6054688 -0.5742188,2.0859375 0,0.94921878 0.6796875,1.19531253 1.21875,1.19531253 0.65625,0 1.0195313,-0.4453125 1.1953125,-0.66796875 z m 0,0"
       style="fill:#000000;fill-opacity:1;fill-rule:nonzero;stroke:none"
       aria-label="u"
       transform="matrix(1.3333333,0,0,1.3333333,75.022667,180.16533)" />
    <path
       id="path46"
       d="m 111.68648,90.99329 h 31.74838 v -11.9057 h -31.74838 z"
       style="fill:none;stroke:#000000;stroke-width:0.797;stroke-linecap:butt;stroke-linejoin:miter;stroke-miterlimit:10;stroke-dasharray:none;stroke-opacity:1"
       transform="matrix(1.3333333,0,0,-1.3333333,22.130667,271.94667)" />
    <path
       id="path47"
       d="m 2.9308984,-6.3746328 c 0,-0.234375 0,-0.2578125 -0.234375,-0.2578125 -0.609375,0.6328125 -1.4882812,0.6328125 -1.80468746,0.6328125 v 0.3164062 c 0.19921876,0 0.78515626,0 1.30078126,-0.2578125 v 5.15625004 c 0,0.3515625 -0.035156,0.48046875 -0.9257813,0.48046875 H 0.95042969 V 3.671875e-4 C 1.3019922,-0.03478906 2.1574609,-0.03478906 2.5558984,-0.03478906 c 0.3984375,0 1.265625,0 1.6171875,0.0351562475 V -0.30432031 H 3.8566797 c -0.9023438,0 -0.9257813,-0.1171875 -0.9257813,-0.48046875 z m 10.4414066,4.7578125 h -0.246094 c -0.04687,0.2578125 -0.08203,0.4921875 -0.175781,0.72656249 -0.04687,0.1640625 -0.08203,0.24609375 -0.65625,0.24609375 h -0.796875 c 0.128906,-0.56250004 0.433593,-1.04296874 0.878906,-1.69921874 0.46875,-0.703125 0.878906,-1.3945313 0.878906,-2.1796875 0,-1.3828125 -1.335937,-2.4960938 -3.023437,-2.4960938 -1.7109378,0 -3.0351566,1.1367188 -3.0351566,2.4960938 0,0.7851562 0.3984375,1.4765625 0.8671875,2.1796875 0.4453125,0.65625 0.7617188,1.1367187 0.890625,1.69921874 h -0.796875 c -0.5742187,0 -0.609375,-0.0820313 -0.65625,-0.234375 C 7.4191797,-1.1011953 7.3723047,-1.3590078 7.3254297,-1.6168203 H 7.0676172 l 0.328125,1.6171874875 h 1.59375 c 0.2226562,0 0.2578125,0 0.2578125,-0.2109374975 0,-0.69140625 -0.3164063,-1.57031249 -0.5390625,-2.21484379 -0.2109375,-0.5742187 -0.4921875,-1.359375 -0.4921875,-2.109375 0,-1.59375 1.1015625,-2.2734375 2.0039063,-2.2734375 0.960937,0 2.015625,0.7265625 2.015625,2.2734375 0,0.75 -0.269531,1.5117188 -0.5625,2.3203125 -0.152344,0.421875 -0.46875,1.31250004 -0.46875,2.00390629 0,0.2109374975 0.03516,0.2109374975 0.257812,0.2109374975 h 1.582032 z m 0,0"
       style="fill:#000000;fill-opacity:1;fill-rule:nonzero;stroke:none"
       aria-label="1Ω"
       transform="matrix(1.3333333,0,0,1.3333333,182.98667,145.53467)" />
  </g>
</svg>
