<?xml version="1.0" encoding="UTF-8" standalone="no"?>
<!-- Created with Inkscape (http://www.inkscape.org/) -->
<svg version="1.1" id="svg1" width="358.25333" height="207.64" viewBox="0 0 358.25333 207.64" sodipodi:docname="24-25-2-电路分析基础-期中-题图1.2.pdf" xmlns:inkscape="http://www.inkscape.org/namespaces/inkscape" xmlns:sodipodi="http://sodipodi.sourceforge.net/DTD/sodipodi-0.dtd" xmlns="http://www.w3.org/2000/svg" xmlns:svg="http://www.w3.org/2000/svg">
  <defs id="defs1"/>
  <sodipodi:namedview id="namedview1" pagecolor="#ffffff" bordercolor="#000000" borderopacity="0.25" inkscape:showpageshadow="2" inkscape:pageopacity="0.0" inkscape:pagecheckerboard="0" inkscape:deskcolor="#d1d1d1">
    <inkscape:page x="0" y="0" inkscape:label="1" id="page1" width="358.25333" height="207.64" margin="0" bleed="0"/>
  </sodipodi:namedview>
  <g id="g1" inkscape:groupmode="layer" inkscape:label="1">
    <path id="path1" d="M -25.24821,-11.12639 V 144.6049 H 243.44817 V -11.12639 Z" style="fill:#ffffff;fill-opacity:1;fill-rule:nonzero;stroke:none" transform="matrix(1.3333333,0,0,-1.3333333,33.664,192.80533)"/>
    <path id="path2" d="M 226.77454,0 H 170.0809 m 0,0 H 113.38727 85.04044 m 0,0 H 56.69363 0" style="fill:none;stroke:#000000;stroke-width:0.3985;stroke-linecap:butt;stroke-linejoin:miter;stroke-miterlimit:10;stroke-dasharray:none;stroke-opacity:1" transform="matrix(1.3333333,0,0,-1.3333333,33.664,192.80533)"/>
    <path id="path3" d="m 5.1913984,-2.1573672 c 0,-1.265625 -0.9726562,-2.25 -2.109375,-2.25 -0.7851562,0 -1.2070312,0.46875 -1.3710937,0.65625 v -3.1640625 l -1.42968751,0.1054688 v 0.3164062 c 0.69140625,0 0.77343751,0.070312 0.77343751,0.5507813 v 5.94140621 h 0.2460937 l 0.3632813,-0.62109375 c 0.1523437,0.234375 0.5625,0.7265625 1.3007812,0.7265625 1.1835938,0 2.2265625,-0.97265625 2.2265625,-2.26171876 z m -0.8320312,0 c 0,0.3632813 -0.011719,0.9609375 -0.3046875,1.40625001 -0.2109375,0.31640625 -0.5859375,0.64453125 -1.125,0.64453125 -0.4453125,0 -0.8085938,-0.24609375 -1.0429688,-0.609375 -0.140625,-0.2109375 -0.140625,-0.24609375 -0.140625,-0.42187496 v -2.0507813 c 0,-0.1875 0,-0.1992187 0.1054688,-0.3632812 0.3867187,-0.5507813 0.9375,-0.6328125 1.171875,-0.6328125 0.4570312,0 0.8085937,0.2578125 1.0546875,0.6328125 0.2578125,0.4101562 0.28125,0.984375 0.28125,1.3945312 z m 0,0" style="fill:#000000;fill-opacity:1;fill-rule:nonzero;stroke:none" aria-label="b" transform="matrix(1.3333333,0,0,1.3333333,340.72267,197.34133)"/>
    <path id="path4" d="m 228.36168,0 c 0,0.87656 -0.71058,1.58714 -1.58714,1.58714 -0.87658,0 -1.58716,-0.71058 -1.58716,-1.58714 0,-0.87656 0.71058,-1.58714 1.58716,-1.58714 0.87656,0 1.58714,0.71058 1.58714,1.58714 z" style="fill:#ffffff;fill-opacity:1;fill-rule:nonzero;stroke:#000000;stroke-width:0.3985;stroke-linecap:butt;stroke-linejoin:miter;stroke-miterlimit:10;stroke-dasharray:none;stroke-opacity:1" transform="matrix(1.3333333,0,0,-1.3333333,33.664,192.80533)"/>
    <path id="path5" d="m 114.97441,0 c 0,0.87656 -0.71059,1.58714 -1.58714,1.58714 -0.87657,0 -1.58716,-0.71058 -1.58716,-1.58714 0,-0.87656 0.71059,-1.58714 1.58716,-1.58714 0.87655,0 1.58714,0.71058 1.58714,1.58714 z" style="fill:#000000;fill-opacity:1;fill-rule:nonzero;stroke:#000000;stroke-width:0.3985;stroke-linecap:butt;stroke-linejoin:miter;stroke-miterlimit:10;stroke-dasharray:none;stroke-opacity:1" transform="matrix(1.3333333,0,0,-1.3333333,33.664,192.80533)"/>
    <path id="path6" d="m 58.28078,0 c 0,0.87656 -0.71059,1.58714 -1.58715,1.58714 -0.87657,0 -1.58715,-0.71058 -1.58715,-1.58714 0,-0.87656 0.71058,-1.58714 1.58715,-1.58714 0.87656,0 1.58715,0.71058 1.58715,1.58714 z" style="fill:#000000;fill-opacity:1;fill-rule:nonzero;stroke:#000000;stroke-width:0.3985;stroke-linecap:butt;stroke-linejoin:miter;stroke-miterlimit:10;stroke-dasharray:none;stroke-opacity:1" transform="matrix(1.3333333,0,0,-1.3333333,33.664,192.80533)"/>
    <path id="path7" d="m 0,113.38727 h 28.3468 m 0,0 h 28.34683 28.34681 m 0,0 h 28.34683 16.44108 m 23.81144,0 h 16.44111 12.47261 m 31.74839,0 h 12.47264" style="fill:none;stroke:#000000;stroke-width:0.3985;stroke-linecap:butt;stroke-linejoin:miter;stroke-miterlimit:10;stroke-dasharray:none;stroke-opacity:1" transform="matrix(1.3333333,0,0,-1.3333333,33.664,192.80533)"/>
    <path id="path8" d="m 58.28078,113.38727 c 0,0.87655 -0.71059,1.58714 -1.58715,1.58714 -0.87657,0 -1.58715,-0.71059 -1.58715,-1.58714 0,-0.87657 0.71058,-1.58716 1.58715,-1.58716 0.87656,0 1.58715,0.71059 1.58715,1.58716 z" style="fill:#000000;fill-opacity:1;fill-rule:nonzero;stroke:#000000;stroke-width:0.3985;stroke-linecap:butt;stroke-linejoin:miter;stroke-miterlimit:10;stroke-dasharray:none;stroke-opacity:1" transform="matrix(1.3333333,0,0,-1.3333333,33.664,192.80533)"/>
    <path id="path9" d="m 114.97441,113.38727 c 0,0.87655 -0.71059,1.58714 -1.58714,1.58714 -0.87657,0 -1.58716,-0.71059 -1.58716,-1.58714 0,-0.87657 0.71059,-1.58716 1.58716,-1.58716 0.87655,0 1.58714,0.71059 1.58714,1.58716 z" style="fill:#000000;fill-opacity:1;fill-rule:nonzero;stroke:#000000;stroke-width:0.3985;stroke-linecap:butt;stroke-linejoin:miter;stroke-miterlimit:10;stroke-dasharray:none;stroke-opacity:1" transform="matrix(1.3333333,0,0,-1.3333333,33.664,192.80533)"/>
    <path id="path10" d="m 141.73407,125.29298 c 6.57543,0 11.90572,-5.3303 11.90572,-11.90571 0,-6.57543 -5.33029,-11.90573 -11.90572,-11.90573 -6.57541,0 -11.90572,5.3303 -11.90572,11.90573 0,6.57541 5.33031,11.90571 11.90572,11.90571 z" style="fill:none;stroke:#000000;stroke-width:0.797;stroke-linecap:butt;stroke-linejoin:miter;stroke-miterlimit:10;stroke-dasharray:none;stroke-opacity:1" transform="matrix(1.3333333,0,0,-1.3333333,33.664,192.80533)"/>
    <path id="path11" d="m 6.5617031,-2.2964141 c 0.1757813,0 0.3515625,0 0.3515625,-0.1992187 0,-0.1992188 -0.1757812,-0.1992188 -0.3515625,-0.1992188 h -5.390625 c -0.1640625,0 -0.33984373,0 -0.33984373,0.1992188 0,0.1992187 0.17578123,0.1992187 0.33984373,0.1992187 z m 0,0" style="fill:#000000;fill-opacity:1;fill-rule:nonzero;stroke:none" aria-label="−" transform="matrix(0,-1.3333333,-1.3333333,0,212.63733,46.788)"/>
    <path id="path12" d="m 4.0773281,-2.2958047 h 2.7773438 c 0.140625,0 0.328125,0 0.328125,-0.1992187 0,-0.1992188 -0.1875,-0.1992188 -0.328125,-0.1992188 H 4.0773281 v -2.7890625 c 0,-0.1289062 0,-0.328125 -0.1992187,-0.328125 -0.1992188,0 -0.1992188,0.1992188 -0.1992188,0.328125 v 2.7890625 H 0.88982812 c -0.140625,0 -0.328125,0 -0.328125,0.1992188 0,0.1992187 0.1875,0.1992187 0.328125,0.1992187 H 3.6788906 v 2.80078126 c 0,0.12890625 0,0.328125 0.1992188,0.328125 0.1992187,0 0.1992187,-0.19921875 0.1992187,-0.328125 z m 0,0" style="fill:#000000;fill-opacity:1;fill-rule:nonzero;stroke:none" aria-label="+" transform="matrix(0,-1.3333333,-1.3333333,0,226.00533,46.788)"/>
    <g id="g12" aria-label="2V" transform="matrix(1.3333333,0,0,1.3333333,213.23333,17.453333)">
      <path id="path13" d="m 1.2664063,-0.761875 1.0546875,-1.03125 c 1.5585937,-1.3710937 2.15625,-1.9101562 2.15625,-2.90625 0,-1.1367187 -0.9023438,-1.9335937 -2.1210938,-1.9335937 -1.125,0 -1.8515625,0.9140625 -1.8515625,1.8046875 0,0.5507812 0.4921875,0.5507812 0.5273438,0.5507812 0.1640625,0 0.515625,-0.1171875 0.515625,-0.5273437 0,-0.2578125 -0.1875,-0.515625 -0.5273438,-0.515625 -0.0820313,0 -0.10546875,0 -0.12890625,0.011719 0.22265625,-0.6445312 0.76171875,-1.0195312 1.33593755,-1.0195312 0.9140625,0 1.3359375,0.8085937 1.3359375,1.6289062 0,0.796875 -0.4921875,1.5820313 -1.0429688,2.203125 L 0.61015625,-0.3634375 C 0.5046875,-0.25796875 0.5046875,-0.23453125 0.5046875,-1.5625e-4 h 3.6914063 l 0.28125,-1.73437495 H 4.2195313 C 4.1726563,-1.4298437 4.1023438,-0.99625 4.0085938,-0.84390625 3.9382813,-0.761875 3.2820313,-0.761875 3.059375,-0.761875 Z m 0,0" style="fill:#000000;fill-opacity:1;fill-rule:nonzero;stroke:none"/>
      <path id="path14" d="M 13.919727,-6.4923437 V -6.80875 c -0.316407,0.023437 -0.714844,0.035156 -0.972657,0.035156 L 11.810352,-6.80875 v 0.3164063 c 0.515625,0.011719 0.726562,0.2695312 0.726562,0.4921875 0,0.082031 -0.02344,0.140625 -0.04687,0.1992187 L 10.661914,-0.99625 8.7634766,-6.0235937 c -0.058594,-0.140625 -0.058594,-0.1875 -0.058594,-0.1875 0,-0.28125 0.5625,-0.28125 0.8203125,-0.28125 V -6.80875 C 9.1619139,-6.773594 8.4705076,-6.773594 8.0955076,-6.773594 L 6.8298828,-6.80875 v 0.3164063 c 0.6445313,0 0.84375,0 0.9726563,0.375 l 2.3203129,6.11718745 c 0.07031,0.1875 0.117187,0.22265625 0.246093,0.22265625 0.164063,0 0.1875,-0.0585938 0.234375,-0.1875 l 2.226563,-5.859375 c 0.140625,-0.375 0.410156,-0.65625 1.089844,-0.6679687 z m 0,0" style="fill:#000000;fill-opacity:1;fill-rule:nonzero;stroke:none"/>
    </g>
    <path id="path15" d="m 182.55351,119.34012 h 31.74838 v -11.9057 h -31.74838 z" style="fill:none;stroke:#000000;stroke-width:0.797;stroke-linecap:butt;stroke-linejoin:miter;stroke-miterlimit:10;stroke-dasharray:none;stroke-opacity:1" transform="matrix(1.3333333,0,0,-1.3333333,33.664,192.80533)"/>
    <path id="path16" d="m 228.36168,113.38727 c 0,0.87655 -0.71058,1.58714 -1.58714,1.58714 -0.87658,0 -1.58716,-0.71059 -1.58716,-1.58714 0,-0.87657 0.71058,-1.58716 1.58716,-1.58716 0.87656,0 1.58714,0.71059 1.58714,1.58716 z" style="fill:#ffffff;fill-opacity:1;fill-rule:nonzero;stroke:#000000;stroke-width:0.3985;stroke-linecap:butt;stroke-linejoin:miter;stroke-miterlimit:10;stroke-dasharray:none;stroke-opacity:1" transform="matrix(1.3333333,0,0,-1.3333333,33.664,192.80533)"/>
    <path id="path17" d="m 2.9285469,-6.3747578 c 0,-0.234375 0,-0.2578125 -0.234375,-0.2578125 -0.609375,0.6328125 -1.4882813,0.6328125 -1.80468752,0.6328125 v 0.3164062 c 0.19921872,0 0.78515622,0 1.30078122,-0.2578125 v 5.15625004 c 0,0.3515625 -0.035156,0.48046875 -0.9257812,0.48046875 H 0.94807813 V 2.421875e-4 C 1.2996406,-0.03491406 2.1551094,-0.03491406 2.5535469,-0.03491406 c 0.3984375,0 1.265625,0 1.6171875,0.0351562475 V -0.30444531 H 3.8543281 c -0.9023437,0 -0.9257812,-0.1171875 -0.9257812,-0.48046875 z m 10.4443361,4.7578125 h -0.246094 c -0.04687,0.2578125 -0.08203,0.4921875 -0.175781,0.72656249 -0.04687,0.1640625 -0.08203,0.24609375 -0.65625,0.24609375 h -0.796875 c 0.128906,-0.56250004 0.433594,-1.04296874 0.878906,-1.69921874 0.46875,-0.703125 0.878906,-1.3945313 0.878906,-2.1796875 0,-1.3828125 -1.335937,-2.4960938 -3.023437,-2.4960938 -1.7109377,0 -3.0351564,1.1367188 -3.0351564,2.4960938 0,0.7851562 0.3984375,1.4765625 0.8671875,2.1796875 0.4453125,0.65625 0.7617187,1.1367187 0.890625,1.69921874 h -0.796875 c -0.5742188,0 -0.609375,-0.0820313 -0.65625,-0.234375 C 7.4197578,-1.1013203 7.3728828,-1.3591328 7.3260078,-1.6169453 H 7.0681953 l 0.328125,1.6171874875 h 1.59375 c 0.2226563,0 0.2578125,0 0.2578125,-0.2109374975 0,-0.69140625 -0.3164062,-1.57031249 -0.5390625,-2.21484379 -0.2109375,-0.5742187 -0.4921875,-1.359375 -0.4921875,-2.109375 0,-1.59375 1.1015625,-2.2734375 2.0039062,-2.2734375 0.960938,0 2.015625,0.7265625 2.015625,2.2734375 0,0.75 -0.269531,1.5117188 -0.5625,2.3203125 -0.152344,0.421875 -0.46875,1.31250004 -0.46875,2.00390629 0,0.2109374975 0.03516,0.2109374975 0.257813,0.2109374975 h 1.582031 z m 0,0" style="fill:#000000;fill-opacity:1;fill-rule:nonzero;stroke:none" aria-label="1Ω" transform="matrix(1.3333333,0,0,1.3333333,289.00933,28.597333)"/>
    <path id="path18" d="M 4.8163984,-0.89204687 V -1.4428281 H 4.5585859 v 0.55078123 c 0,0.5859375 -0.2460937,0.64453125 -0.3515625,0.64453125 -0.328125,0 -0.375,-0.45703125 -0.375,-0.50390625 V -2.7436094 c 0,-0.4101562 0,-0.8085937 -0.3515625,-1.171875 -0.3867187,-0.3867187 -0.890625,-0.5507812 -1.3710937,-0.5507812 -0.8085938,0 -1.50000001,0.46875 -1.50000001,1.125 0,0.3046875 0.19921875,0.46875 0.45703121,0.46875 0.28125,0 0.4570313,-0.1992188 0.4570313,-0.4570313 0,-0.1171875 -0.046875,-0.4453125 -0.5039063,-0.4570312 0.2695313,-0.3515625 0.75,-0.4570313 1.078125,-0.4570313 0.4804688,0 1.0546875,0.3867188 1.0546875,1.2773438 v 0.3632812 c -0.515625,0.035156 -1.2070312,0.058594 -1.8398437,0.3632813 -0.75000001,0.3398437 -0.99609376,0.8554687 -0.99609376,1.28906248 0,0.80859375 0.97265626,1.0546875 1.59374996,1.0546875 0.65625,0 1.1132813,-0.3984375 1.3125,-0.8671875 0.035156,0.3984375 0.3046875,0.8203125 0.7734375,0.8203125 0.2109375,0 0.8203125,-0.140625 0.8203125,-0.94921875 z M 3.1523359,-1.3959531 c 0,0.94921873 -0.7265625,1.28906248 -1.171875,1.28906248 -0.4804687,0 -0.890625,-0.3515625 -0.890625,-0.85546875 0,-0.53906253 0.4101563,-1.37109373 2.0625,-1.42968753 z m 0,0" style="fill:#000000;fill-opacity:1;fill-rule:nonzero;stroke:none" aria-label="a" transform="matrix(1.3333333,0,0,1.3333333,340.72267,44.525333)"/>
    <path id="path19" d="m 0,0 v 44.7879 m 0,23.81145 v 44.78792" style="fill:none;stroke:#000000;stroke-width:0.3985;stroke-linecap:butt;stroke-linejoin:miter;stroke-miterlimit:10;stroke-dasharray:none;stroke-opacity:1" transform="matrix(1.3333333,0,0,-1.3333333,33.664,192.80533)"/>
    <path id="path20" d="m -11.90572,56.69363 c 0,-6.57542 5.33031,-11.90573 11.90572,-11.90573 6.57541,0 11.90572,5.33031 11.90572,11.90573 0,6.57541 -5.33031,11.90572 -11.90572,11.90572 -6.57541,0 -11.90572,-5.33031 -11.90572,-11.90572 z m 0,0 h 23.81144" style="fill:none;stroke:#000000;stroke-width:0.797;stroke-linecap:butt;stroke-linejoin:miter;stroke-miterlimit:10;stroke-dasharray:none;stroke-opacity:1" transform="matrix(1.3333333,0,0,-1.3333333,33.664,192.80533)"/>
    <path id="path21" d="M 0,89.25708 H 1.98425 L 0,93.47363 -1.98425,89.25708 Z" style="fill:#000000;fill-opacity:1;fill-rule:nonzero;stroke:#000000;stroke-width:0.3985;stroke-linecap:butt;stroke-linejoin:miter;stroke-miterlimit:10;stroke-dasharray:none;stroke-opacity:1" transform="matrix(1.3333333,0,0,-1.3333333,33.664,192.80533)"/>
    <g id="g21" aria-label="3A" transform="matrix(1.3333333,0,0,1.3333333,10.152,76.236)">
      <path id="path22" d="m 2.8947891,-3.505125 c 0.8085937,-0.2695312 1.3945312,-0.9726562 1.3945312,-1.7578125 0,-0.8203125 -0.8789062,-1.3710937 -1.8398437,-1.3710937 -1.0078125,0 -1.75781254,0.5976562 -1.75781254,1.3476562 0,0.3398438 0.2109375,0.5273438 0.50390624,0.5273438 0.3046875,0 0.5039063,-0.2226563 0.5039063,-0.515625 0,-0.4921875 -0.46875,-0.4921875 -0.609375,-0.4921875 0.3046875,-0.4921875 0.9609375,-0.6210938 1.3242187,-0.6210938 0.4101563,0 0.9492188,0.2226563 0.9492188,1.1132813 0,0.1289062 -0.011719,0.703125 -0.2695313,1.1367187 -0.3046875,0.4804688 -0.6445312,0.515625 -0.890625,0.515625 -0.082031,0.011719 -0.3164062,0.035156 -0.3867187,0.035156 -0.082031,0.011719 -0.1523438,0.023437 -0.1523438,0.1171875 0,0.1171875 0.070312,0.1171875 0.234375,0.1171875 h 0.4453125 c 0.8085938,0 1.1835938,0.6679687 1.1835938,1.6523437 0,1.34765625 -0.6914063,1.640625 -1.125,1.640625 -0.4335938,0 -1.171875,-0.17578125 -1.52343754,-0.76171875 0.35156254,0.0585938 0.65625004,-0.1640625 0.65625004,-0.53906245 0,-0.3632813 -0.2695313,-0.5625 -0.56250004,-0.5625 -0.234375,0 -0.55078125,0.140625 -0.55078125,0.5742187 0,0.9140625 0.92578129,1.5703125 2.00390629,1.5703125 1.21875,0 2.1210937,-0.9140625 2.1210937,-1.921875 0,-0.8203125 -0.6210937,-1.59375 -1.6523437,-1.8046872 z m 0,0" style="fill:#000000;fill-opacity:1;fill-rule:nonzero;stroke:none"/>
      <path id="path23" d="m 13.778578,-0.00121875 v -0.3046875 h -0.175781 c -0.597656,0 -0.738281,-0.0703125 -0.84375,-0.3984375 l -2.15625,-6.23437495 c -0.04687,-0.1289063 -0.07031,-0.1992188 -0.222656,-0.1992188 -0.164063,0 -0.1875,0.058594 -0.246094,0.1992188 L 8.0715469,-0.973875 c -0.1757813,0.50390625 -0.5742188,0.65625 -1.1132813,0.66796875 v 0.3046875 L 7.9777969,-0.036375 9.1262344,-0.00121875 v -0.3046875 c -0.5039063,0 -0.75,-0.2578125 -0.75,-0.515625 0,-0.0234375 0.011719,-0.12890625 0.023437,-0.140625 L 8.8567031,-2.2746562 h 2.4609379 l 0.527343,1.52343745 c 0.01172,0.046875 0.02344,0.10546875 0.02344,0.140625 0,0.3046875 -0.550781,0.3046875 -0.820313,0.3046875 v 0.3046875 C 11.399672,-0.036375 12.102797,-0.036375 12.477797,-0.036375 Z M 11.200453,-2.5793437 H 8.9621719 l 1.1132811,-3.234375 z m 0,0" style="fill:#000000;fill-opacity:1;fill-rule:nonzero;stroke:none"/>
    </g>
    <path id="path24" d="m 56.69363,0 -10e-6,40.81943 m 0,31.7484 10e-6,40.81944" style="fill:none;stroke:#000000;stroke-width:0.3985;stroke-linecap:butt;stroke-linejoin:miter;stroke-miterlimit:10;stroke-dasharray:none;stroke-opacity:1" transform="matrix(1.3333333,0,0,-1.3333333,33.664,192.80533)"/>
    <path id="path25" d="M 62.64647,72.56783 V 40.81943 H 50.74075 v 31.7484 z" style="fill:none;stroke:#000000;stroke-width:0.797;stroke-linecap:butt;stroke-linejoin:miter;stroke-miterlimit:10;stroke-dasharray:none;stroke-opacity:1" transform="matrix(1.3333333,0,0,-1.3333333,33.664,192.80533)"/>
    <path id="path26" d="M 1.2668906,-0.76305469 2.3215781,-1.7943047 c 1.5585938,-1.3710937 2.15625,-1.9101562 2.15625,-2.90625 0,-1.1367187 -0.9023437,-1.9335937 -2.1210937,-1.9335937 -1.125,0 -1.85156253,0.9140625 -1.85156253,1.8046875 0,0.5507812 0.4921875,0.5507812 0.52734373,0.5507812 0.1640625,0 0.515625,-0.1171875 0.515625,-0.5273437 0,-0.2578125 -0.1875,-0.515625 -0.5273437,-0.515625 -0.0820313,0 -0.10546878,0 -0.12890628,0.011719 0.22265628,-0.6445312 0.76171878,-1.0195312 1.33593748,-1.0195312 0.9140625,0 1.3359375,0.8085937 1.3359375,1.6289062 0,0.796875 -0.4921875,1.5820313 -1.0429687,2.203125 L 0.61064062,-0.36461719 C 0.50517187,-0.25914844 0.50517187,-0.23571094 0.50517187,-0.00133594 H 4.1965781 l 0.28125,-1.73437496 H 4.2200156 c -0.046875,0.3046875 -0.1171875,0.73828121 -0.2109375,0.89062496 -0.070312,0.0820313 -0.7265625,0.0820313 -0.9492187,0.0820313 z M 13.372359,-1.6185234 h -0.246093 c -0.04687,0.2578125 -0.08203,0.4921875 -0.175782,0.72656246 -0.04687,0.1640625 -0.08203,0.24609375 -0.65625,0.24609375 h -0.796875 c 0.128907,-0.56250001 0.433594,-1.04296871 0.878907,-1.69921871 0.46875,-0.703125 0.878906,-1.3945313 0.878906,-2.1796875 0,-1.3828125 -1.335938,-2.4960938 -3.023438,-2.4960938 -1.7109371,0 -3.0351559,1.1367188 -3.0351559,2.4960938 0,0.7851562 0.3984375,1.4765625 0.8671875,2.1796875 0.4453125,0.65625 0.7617188,1.1367187 0.890625,1.69921871 h -0.796875 c -0.5742187,0 -0.609375,-0.0820313 -0.65625,-0.234375 C 7.4192344,-1.1028984 7.3723594,-1.3607109 7.3254844,-1.6185234 H 7.0676719 l 0.328125,1.61718746 h 1.59375 c 0.2226562,0 0.2578125,0 0.2578125,-0.2109375 0,-0.69140625 -0.3164063,-1.57031246 -0.5390625,-2.21484376 -0.2109375,-0.5742187 -0.4921875,-1.359375 -0.4921875,-2.109375 0,-1.59375 1.1015625,-2.2734375 2.0039066,-2.2734375 0.960937,0 2.015625,0.7265625 2.015625,2.2734375 0,0.75 -0.269532,1.5117188 -0.5625,2.3203125 -0.152344,0.421875 -0.46875,1.31250001 -0.46875,2.00390626 0,0.2109375 0.03516,0.2109375 0.257812,0.2109375 h 1.582031 z m 0,0" style="fill:#000000;fill-opacity:1;fill-rule:nonzero;stroke:none" aria-label="2Ω" transform="matrix(1.3333333,0,0,1.3333333,79.928,120.076)"/>
    <path id="path27" d="m 113.38727,0 v 12.47261 m 0,31.74839 v 12.47263 16.44109 m 0,23.81143 v 16.44112" style="fill:none;stroke:#000000;stroke-width:0.3985;stroke-linecap:butt;stroke-linejoin:miter;stroke-miterlimit:10;stroke-dasharray:none;stroke-opacity:1" transform="matrix(1.3333333,0,0,-1.3333333,33.664,192.80533)"/>
    <path id="path28" d="M 119.34012,44.221 V 12.47261 h -11.9057 V 44.221 Z" style="fill:none;stroke:#000000;stroke-width:0.797;stroke-linecap:butt;stroke-linejoin:miter;stroke-miterlimit:10;stroke-dasharray:none;stroke-opacity:1" transform="matrix(1.3333333,0,0,-1.3333333,33.664,192.80533)"/>
    <path id="path29" d="M 1.2652734,-0.76239844 2.3199609,-1.7936484 c 1.5585938,-1.3710938 2.15625,-1.9101563 2.15625,-2.90625 0,-1.1367188 -0.9023437,-1.9335938 -2.1210937,-1.9335938 -1.125,0 -1.85156251,0.9140625 -1.85156251,1.8046875 0,0.5507813 0.4921875,0.5507813 0.52734371,0.5507813 0.1640625,0 0.515625,-0.1171875 0.515625,-0.5273438 0,-0.2578125 -0.1875,-0.515625 -0.5273437,-0.515625 -0.0820313,0 -0.10546876,0 -0.12890626,0.011719 0.22265626,-0.6445313 0.76171876,-1.0195313 1.33593746,-1.0195313 0.9140625,0 1.3359375,0.8085938 1.3359375,1.6289063 0,0.796875 -0.4921875,1.5820312 -1.0429687,2.203125 L 0.60902344,-0.36396094 C 0.50355469,-0.25849219 0.50355469,-0.23505469 0.50355469,-6.796875e-4 H 4.1949609 L 4.4762109,-1.7350547 H 4.2183984 c -0.046875,0.3046875 -0.1171875,0.73828126 -0.2109375,0.89062501 -0.070312,0.0820313 -0.7265625,0.0820313 -0.9492187,0.0820313 z M 13.373672,-1.6178672 h -0.246094 c -0.04687,0.2578125 -0.08203,0.4921875 -0.175781,0.72656251 -0.04687,0.1640625 -0.08203,0.24609375 -0.65625,0.24609375 h -0.796875 c 0.128906,-0.56249996 0.433594,-1.04296876 0.878906,-1.69921876 0.46875,-0.703125 0.878906,-1.3945312 0.878906,-2.1796875 0,-1.3828125 -1.335937,-2.4960937 -3.023437,-2.4960937 -1.7109376,0 -3.0351564,1.1367187 -3.0351564,2.4960937 0,0.7851563 0.3984375,1.4765625 0.8671875,2.1796875 0.4453125,0.65625 0.7617188,1.1367188 0.890625,1.69921876 h -0.796875 c -0.5742187,0 -0.609375,-0.0820313 -0.65625,-0.234375 C 7.4205469,-1.1022422 7.3736719,-1.3600547 7.3267969,-1.6178672 H 7.0689844 l 0.328125,1.6171875125 h 1.59375 c 0.2226562,0 0.2578125,0 0.2578125,-0.2109375025 0,-0.69140625 -0.3164063,-1.57031251 -0.5390625,-2.21484371 -0.2109375,-0.5742188 -0.4921875,-1.359375 -0.4921875,-2.109375 0,-1.59375 1.1015625,-2.2734375 2.0039061,-2.2734375 0.960938,0 2.015625,0.7265625 2.015625,2.2734375 0,0.75 -0.269531,1.5117187 -0.5625,2.3203125 -0.152344,0.421875 -0.46875,1.31249996 -0.46875,2.00390621 0,0.2109375025 0.03516,0.2109375025 0.257813,0.2109375025 h 1.582031 z m 0,0" style="fill:#000000;fill-opacity:1;fill-rule:nonzero;stroke:none" aria-label="2Ω" transform="matrix(1.3333333,0,0,1.3333333,155.52,157.872)"/>
    <path id="path30" d="m 101.48154,85.04044 c 0,6.57542 5.3303,11.90571 11.90573,11.90571 6.57541,0 11.90571,-5.33029 11.90571,-11.90571 0,-6.57543 -5.3303,-11.90572 -11.90571,-11.90572 -6.57543,0 -11.90573,5.33029 -11.90573,11.90572 z" style="fill:none;stroke:#000000;stroke-width:0.797;stroke-linecap:butt;stroke-linejoin:miter;stroke-miterlimit:10;stroke-dasharray:none;stroke-opacity:1" transform="matrix(1.3333333,0,0,-1.3333333,33.664,192.80533)"/>
    <path id="path31" d="m 6.5627109,-2.2974687 c 0.1757813,0 0.3515625,0 0.3515625,-0.1992188 0,-0.1992187 -0.1757812,-0.1992187 -0.3515625,-0.1992187 h -5.390625 c -0.1640625,0 -0.33984371,0 -0.33984371,0.1992187 0,0.1992188 0.17578121,0.1992188 0.33984371,0.1992188 z m 0,0" style="fill:#000000;fill-opacity:1;fill-rule:nonzero;stroke:none" aria-label="−" transform="matrix(-1.3333333,0,0,1.3333333,190.012,89.422667)"/>
    <path id="path32" d="m 4.0783359,-2.2968594 h 2.7773438 c 0.140625,0 0.328125,0 0.328125,-0.1992187 0,-0.1992188 -0.1875,-0.1992188 -0.328125,-0.1992188 H 4.0783359 v -2.7890625 c 0,-0.1289062 0,-0.328125 -0.1992187,-0.328125 -0.1992188,0 -0.1992188,0.1992188 -0.1992188,0.328125 v 2.7890625 H 0.89083594 c -0.140625,0 -0.328125,0 -0.328125,0.1992188 0,0.1992187 0.1875,0.1992187 0.328125,0.1992187 H 3.6798984 v 2.80078128 c 0,0.12890625 0,0.328125 0.1992188,0.328125 0.1992187,0 0.1992187,-0.19921875 0.1992187,-0.328125 z m 0,0" style="fill:#000000;fill-opacity:1;fill-rule:nonzero;stroke:none" aria-label="+" transform="matrix(-1.3333333,0,0,1.3333333,190.012,76.054667)"/>
    <g id="g32" aria-label="2V" transform="matrix(1.3333333,0,0,1.3333333,142.152,83.808)">
      <path id="path33" d="M 1.2658828,-0.76127344 2.3205703,-1.7925234 c 1.5585938,-1.3710938 2.15625,-1.9101563 2.15625,-2.90625 0,-1.1367188 -0.9023437,-1.9335938 -2.1210937,-1.9335938 -1.125,0 -1.85156254,0.9140625 -1.85156254,1.8046875 0,0.5507813 0.4921875,0.5507813 0.52734374,0.5507813 0.1640625,0 0.515625,-0.1171875 0.515625,-0.5273438 0,-0.2578125 -0.1875,-0.515625 -0.5273437,-0.515625 -0.0820313,0 -0.10546879,0 -0.12890629,0.011719 0.22265629,-0.6445313 0.76171879,-1.0195313 1.33593749,-1.0195313 0.9140625,0 1.3359375,0.8085938 1.3359375,1.6289063 0,0.796875 -0.4921875,1.5820312 -1.0429687,2.203125 L 0.60963281,-0.36283594 C 0.50416406,-0.25736719 0.50416406,-0.23392969 0.50416406,4.453125e-4 H 4.1955703 L 4.4768203,-1.7339297 H 4.2190078 c -0.046875,0.3046875 -0.1171875,0.73828126 -0.2109375,0.89062501 -0.070312,0.0820313 -0.7265625,0.0820313 -0.9492187,0.0820313 z m 0,0" style="fill:#000000;fill-opacity:1;fill-rule:nonzero;stroke:none"/>
      <path id="path34" d="m 13.919203,-6.4917422 v -0.3164062 c -0.316406,0.023437 -0.714844,0.035156 -0.972656,0.035156 l -1.136719,-0.035156 v 0.3164062 c 0.515625,0.011719 0.726563,0.2695313 0.726563,0.4921875 0,0.082031 -0.02344,0.140625 -0.04687,0.1992188 l -1.82813,4.80468746 -1.8984379,-5.02734376 c -0.058594,-0.140625 -0.058594,-0.1875 -0.058594,-0.1875 0,-0.28125 0.5625,-0.28125 0.8203125,-0.28125 v -0.3164062 c -0.3632813,0.035156 -1.0546875,0.035156 -1.4296875,0.035156 l -1.265625,-0.035156 v 0.3164062 c 0.6445312,0 0.84375,0 0.9726562,0.375 L 10.122328,4.453125e-4 c 0.07031,0.1874999975 0.117188,0.2226562475 0.246094,0.2226562475 0.164062,0 0.1875,-0.0585938 0.234375,-0.1875 l 2.226562,-5.85937496 c 0.140625,-0.375 0.410157,-0.65625 1.089844,-0.6679688 z m 0,0" style="fill:#000000;fill-opacity:1;fill-rule:nonzero;stroke:none"/>
    </g>
  </g>
</svg>