<?xml version="1.0" encoding="UTF-8" standalone="no"?>
<!-- Created with Inkscape (http://www.inkscape.org/) -->
<svg version="1.1" id="svg1" width="312.82666" height="167.39999" viewBox="0 0 312.82666 167.39999" sodipodi:docname="24-25-2-电路分析基础-期中-题图1.1.pdf" xmlns:inkscape="http://www.inkscape.org/namespaces/inkscape" xmlns:sodipodi="http://sodipodi.sourceforge.net/DTD/sodipodi-0.dtd" xmlns="http://www.w3.org/2000/svg" xmlns:svg="http://www.w3.org/2000/svg">
  <defs id="defs1"/>
  <sodipodi:namedview id="namedview1" pagecolor="#ffffff" bordercolor="#000000" borderopacity="0.25" inkscape:showpageshadow="2" inkscape:pageopacity="0.0" inkscape:pagecheckerboard="0" inkscape:deskcolor="#d1d1d1">
    <inkscape:page x="0" y="0" inkscape:label="1" id="page1" width="312.82666" height="167.39999" margin="0" bleed="0"/>
  </sodipodi:namedview>
  <g id="g1" inkscape:groupmode="layer" inkscape:label="1">
    <path id="path1" d="M -26.23927,-6.08034 V 119.4676 H 208.38867 V -6.08034 Z" style="fill:#ffffff;fill-opacity:1;fill-rule:nonzero;stroke:none" transform="matrix(1.3333333,0,0,-1.3333333,34.985333,159.29333)"/>
    <path id="path2" d="m 0,0 v 40.81943 m 0,31.7484 v 40.81944 h 42.52022 m 0,0 h 42.52023 85.04047 V 68.59935 m 0,-23.81145 V 0 h -42.52025 m 0,0 H 85.04045 0" style="fill:none;stroke:#000000;stroke-width:0.3985;stroke-linecap:butt;stroke-linejoin:miter;stroke-miterlimit:10;stroke-dasharray:none;stroke-opacity:1" transform="matrix(1.3333333,0,0,-1.3333333,34.985333,159.29333)"/>
    <path id="path3" d="m 5.95285,72.56783 v -31.7484 h -11.9057 v 31.7484 z" style="fill:none;stroke:#000000;stroke-width:0.797;stroke-linecap:butt;stroke-linejoin:miter;stroke-miterlimit:10;stroke-dasharray:none;stroke-opacity:1" transform="matrix(1.3333333,0,0,-1.3333333,34.985333,159.29333)"/>
    <path id="path4" d="m 2.9290078,-1.64175 v 0.8671875 c 0,0.3515625 -0.023437,0.46875 -0.7617187,0.46875 H 1.9563516 v 0.3046875 c 0.4101562,-0.03515625 0.9375,-0.03515625 1.3476562,-0.03515625 0.421875,0 0.9492188,0 1.359375,0.03515625 V -0.3058125 H 4.4524453 c -0.7382812,0 -0.7617187,-0.1171875 -0.7617187,-0.46875 V -1.64175 H 4.6868203 V -1.9581562 H 3.6907266 v -4.5234375 c 0,-0.1992188 0,-0.2578125 -0.1523438,-0.2578125 -0.09375,0 -0.1171875,0 -0.1992187,0.1171875 L 0.28057031,-1.9581562 V -1.64175 Z m 0.058594,-0.3164062 H 0.56182031 L 2.9876016,-5.673 Z M 11.721,-1.6183125 h -0.246094 c -0.04687,0.2578125 -0.08203,0.4921875 -0.175781,0.7265625 -0.04687,0.1640625 -0.08203,0.24609375 -0.65625,0.24609375 H 9.846 C 9.9749063,-1.2081562 10.279594,-1.688625 10.724906,-2.344875 c 0.46875,-0.703125 0.878907,-1.3945312 0.878907,-2.1796875 0,-1.3828125 -1.335938,-2.4960937 -3.023438,-2.4960937 -1.7109375,0 -3.0351563,1.1367187 -3.0351563,2.4960937 0,0.7851563 0.3984375,1.4765625 0.8671875,2.1796875 0.4453125,0.65625 0.7617188,1.1367188 0.890625,1.69921875 h -0.796875 c -0.5742187,0 -0.609375,-0.0820313 -0.65625,-0.234375 C 5.767875,-1.1026875 5.721,-1.3605 5.674125,-1.6183125 H 5.4163125 l 0.328125,1.6171875 h 1.59375 c 0.2226562,0 0.2578125,0 0.2578125,-0.2109375 0,-0.69140625 -0.3164063,-1.5703125 -0.5390625,-2.2148437 C 6.846,-3.001125 6.56475,-3.7862812 6.56475,-4.5362812 c 0,-1.59375 1.1015625,-2.2734375 2.0039063,-2.2734375 0.9609375,0 2.0156247,0.7265625 2.0156247,2.2734375 0,0.75 -0.269531,1.5117187 -0.5625,2.3203125 -0.1523435,0.421875 -0.4687497,1.31249995 -0.4687497,2.0039062 0,0.2109375 0.035156,0.2109375 0.2578125,0.2109375 h 1.5820312 z m 0,0" style="fill:#000000;fill-opacity:1;fill-rule:nonzero;stroke:none" aria-label="4Ω" transform="matrix(1.3333333,0,0,1.3333333,7.872,86.564)"/>
    <path id="path5" d="m 86.6276,113.38727 c 0,0.87655 -0.7106,1.58714 -1.58715,1.58714 -0.87655,0 -1.58714,-0.71059 -1.58714,-1.58714 0,-0.87657 0.71059,-1.58716 1.58714,-1.58716 0.87655,0 1.58715,0.71059 1.58715,1.58716 z" style="fill:#000000;fill-opacity:1;fill-rule:nonzero;stroke:#000000;stroke-width:0.3985;stroke-linecap:butt;stroke-linejoin:miter;stroke-miterlimit:10;stroke-dasharray:none;stroke-opacity:1" transform="matrix(1.3333333,0,0,-1.3333333,34.985333,159.29333)"/>
    <path id="path6" d="m 181.98663,56.69363 c 0,6.57541 -5.3303,11.90572 -11.90571,11.90572 -6.57542,0 -11.90572,-5.33031 -11.90572,-11.90572 0,-6.57542 5.3303,-11.90573 11.90572,-11.90573 6.57541,0 11.90571,5.33031 11.90571,11.90573 z" style="fill:none;stroke:#000000;stroke-width:0.797;stroke-linecap:butt;stroke-linejoin:miter;stroke-miterlimit:10;stroke-dasharray:none;stroke-opacity:1" transform="matrix(1.3333333,0,0,-1.3333333,34.985333,159.29333)"/>
    <path id="path7" d="m 6.5618125,-2.2966016 c 0.1757813,0 0.3515625,0 0.3515625,-0.1992187 0,-0.1992188 -0.1757812,-0.1992188 -0.3515625,-0.1992188 h -5.390625 c -0.1640625,0 -0.33984375,0 -0.33984375,0.1992188 0,0.1992187 0.17578125,0.1992187 0.33984375,0.1992187 z m 0,0" style="fill:#000000;fill-opacity:1;fill-rule:nonzero;stroke:none" aria-label="−" transform="matrix(1.3333333,0,0,1.3333333,256.59467,93.706667)"/>
    <path id="path8" d="m 4.0774375,-2.2959922 h 2.7773438 c 0.140625,0 0.328125,0 0.328125,-0.1992187 0,-0.1992188 -0.1875,-0.1992188 -0.328125,-0.1992188 H 4.0774375 v -2.7890625 c 0,-0.1289062 0,-0.328125 -0.1992187,-0.328125 C 3.679,-5.8116172 3.679,-5.6123984 3.679,-5.4834922 v 2.7890625 H 0.8899375 c -0.140625,0 -0.328125,0 -0.328125,0.1992188 0,0.1992187 0.1875,0.1992187 0.328125,0.1992187 H 3.679 v 2.80078126 c 0,0.12890625 0,0.328125 0.1992188,0.328125 0.1992187,0 0.1992187,-0.19921875 0.1992187,-0.328125 z m 0,0" style="fill:#000000;fill-opacity:1;fill-rule:nonzero;stroke:none" aria-label="+" transform="matrix(1.3333333,0,0,1.3333333,256.59467,80.338667)"/>
    <g id="g8" aria-label="2V" transform="matrix(1.3333333,0,0,1.3333333,285.636,88.092)">
      <path id="path9" d="M 1.2661641,-0.76040625 2.3208516,-1.7916562 c 1.5585937,-1.3710938 2.15625,-1.9101563 2.15625,-2.90625 0,-1.1367188 -0.9023438,-1.9335938 -2.1210938,-1.9335938 -1.125,0 -1.85156249,0.9140625 -1.85156249,1.8046875 0,0.5507813 0.4921875,0.5507813 0.52734379,0.5507813 0.1640625,0 0.515625,-0.1171875 0.515625,-0.5273438 0,-0.2578125 -0.1875,-0.515625 -0.5273438,-0.515625 -0.0820312,0 -0.10546874,0 -0.12890624,0.011719 0.22265624,-0.6445313 0.76171874,-1.0195313 1.33593754,-1.0195313 0.9140625,0 1.3359375,0.8085938 1.3359375,1.6289063 0,0.796875 -0.4921875,1.5820312 -1.0429688,2.203125 L 0.60991406,-0.36196875 C 0.50444531,-0.2565 0.50444531,-0.2330625 0.50444531,0.0013125 H 4.1958516 l 0.28125,-1.734375 H 4.2192891 c -0.046875,0.3046875 -0.1171875,0.73828125 -0.2109375,0.890625 -0.070312,0.0820313 -0.7265625,0.0820313 -0.9492188,0.0820313 z m 0,0" style="fill:#000000;fill-opacity:1;fill-rule:nonzero;stroke:none"/>
      <path id="path10" d="m 13.919484,-6.490875 v -0.3164062 c -0.316406,0.023437 -0.714843,0.035156 -0.972656,0.035156 l -1.136719,-0.035156 v 0.3164062 c 0.515625,0.011719 0.726563,0.2695313 0.726563,0.4921875 0,0.082031 -0.02344,0.140625 -0.04687,0.1992188 L 10.661672,-0.99478125 8.7632344,-6.022125 c -0.058594,-0.140625 -0.058594,-0.1875 -0.058594,-0.1875 0,-0.28125 0.5625,-0.28125 0.8203125,-0.28125 v -0.3164062 c -0.3632812,0.035156 -1.0546875,0.035156 -1.4296875,0.035156 l -1.265625,-0.035156 v 0.3164062 c 0.6445313,0 0.84375,0 0.9726563,0.375 l 2.3203123,6.1171875 c 0.07031,0.1875 0.117188,0.22265625 0.246094,0.22265625 0.164063,0 0.1875,-0.0585938 0.234375,-0.1875 l 2.226563,-5.85937495 c 0.140625,-0.375 0.410156,-0.65625 1.089843,-0.6679688 z m 0,0" style="fill:#000000;fill-opacity:1;fill-rule:nonzero;stroke:none"/>
    </g>
    <path id="path11" d="m 86.6276,0 c 0,0.87656 -0.7106,1.58714 -1.58715,1.58714 -0.87655,0 -1.58714,-0.71058 -1.58714,-1.58714 0,-0.87656 0.71059,-1.58714 1.58714,-1.58714 0.87655,0 1.58715,0.71058 1.58715,1.58714 z" style="fill:#000000;fill-opacity:1;fill-rule:nonzero;stroke:#000000;stroke-width:0.3985;stroke-linecap:butt;stroke-linejoin:miter;stroke-miterlimit:10;stroke-dasharray:none;stroke-opacity:1" transform="matrix(1.3333333,0,0,-1.3333333,34.985333,159.29333)"/>
    <path id="path12" d="m 85.04045,0 -1e-5,16.44109 m 0,23.81143 1e-5,16.44111 -1e-5,12.47261 m 0,31.74839 1e-5,12.47264" style="fill:none;stroke:#000000;stroke-width:0.3985;stroke-linecap:butt;stroke-linejoin:miter;stroke-miterlimit:10;stroke-dasharray:none;stroke-opacity:1" transform="matrix(1.3333333,0,0,-1.3333333,34.985333,159.29333)"/>
    <path id="path13" d="m 73.13472,28.3468 c 0,-6.57542 5.33029,-11.90571 11.90572,-11.90571 6.57542,0 11.90571,5.33029 11.90571,11.90571 0,6.57543 -5.33029,11.90572 -11.90571,11.90572 -6.57543,0 -11.90572,-5.33029 -11.90572,-11.90572 z m 0,0 h 23.81143" style="fill:none;stroke:#000000;stroke-width:0.797;stroke-linecap:butt;stroke-linejoin:miter;stroke-miterlimit:10;stroke-dasharray:none;stroke-opacity:1" transform="matrix(1.3333333,0,0,-1.3333333,34.985333,159.29333)"/>
    <path id="path14" d="m 85.04044,46.73685 h 1.98425 l -1.98425,4.21653 -1.98426,-4.21653 z" style="fill:#000000;fill-opacity:1;fill-rule:nonzero;stroke:#000000;stroke-width:0.3985;stroke-linecap:butt;stroke-linejoin:miter;stroke-miterlimit:10;stroke-dasharray:none;stroke-opacity:1" transform="matrix(1.3333333,0,0,-1.3333333,34.985333,159.29333)"/>
    <g id="g14" aria-label="4A" transform="matrix(1.3333333,0,0,1.3333333,124.86133,99.418667)">
      <path id="path15" d="m 2.9311484,-1.6411484 v 0.86718746 c 0,0.3515625 -0.023437,0.46875 -0.7617187,0.46875 H 1.9584922 V -5.234375e-4 C 2.3686484,-0.03567969 2.8959922,-0.03567969 3.3061484,-0.03567969 c 0.421875,0 0.9492188,0 1.359375,0.0351562525 V -0.30521094 H 4.4545859 c -0.7382812,0 -0.7617187,-0.1171875 -0.7617187,-0.46875 V -1.6411484 H 4.6889609 V -1.9575547 H 3.6928672 v -4.5234375 c 0,-0.1992187 0,-0.2578125 -0.1523438,-0.2578125 -0.09375,0 -0.1171875,0 -0.1992187,0.1171875 l -3.05859376,4.6640625 v 0.3164063 z m 0.058594,-0.3164063 H 0.56396094 L 2.9897422,-5.6723984 Z m 0,0" style="fill:#000000;fill-opacity:1;fill-rule:nonzero;stroke:none"/>
      <path id="path16" d="M 13.779781,-5.234375e-4 V -0.30521094 H 13.604 c -0.597656,0 -0.738281,-0.0703125 -0.84375,-0.3984375 L 10.604,-6.9380234 c -0.04687,-0.1289063 -0.07031,-0.1992188 -0.222656,-0.1992188 -0.164063,0 -0.1875,0.058594 -0.246094,0.1992188 l -2.0625,5.96484371 c -0.1757813,0.50390625 -0.5742188,0.65625 -1.1132813,0.66796875 V -5.234375e-4 L 7.979,-0.03567969 9.1274375,-5.234375e-4 V -0.30521094 c -0.5039063,0 -0.75,-0.2578125 -0.75,-0.515625 0,-0.0234375 0.011719,-0.12890625 0.023437,-0.140625 L 8.8579062,-2.2739609 h 2.4609378 l 0.527343,1.52343746 c 0.01172,0.046875 0.02344,0.10546875 0.02344,0.140625 0,0.3046875 -0.550781,0.3046875 -0.820313,0.3046875 V -5.234375e-4 C 11.400875,-0.03567969 12.104,-0.03567969 12.479,-0.03567969 Z M 11.201656,-2.5786484 H 8.963375 l 1.113281,-3.234375 z m 0,0" style="fill:#000000;fill-opacity:1;fill-rule:nonzero;stroke:none"/>
    </g>
    <path id="path17" d="M 90.99329,100.91463 V 69.16624 h -11.9057 v 31.74839 z" style="fill:none;stroke:#000000;stroke-width:0.797;stroke-linecap:butt;stroke-linejoin:miter;stroke-miterlimit:10;stroke-dasharray:none;stroke-opacity:1" transform="matrix(1.3333333,0,0,-1.3333333,34.985333,159.29333)"/>
    <path id="path18" d="M 1.2649844,-0.76157031 2.3196719,-1.7928203 c 1.5585937,-1.3710938 2.15625,-1.9101563 2.15625,-2.90625 0,-1.1367188 -0.9023438,-1.9335938 -2.1210938,-1.9335938 -1.125,0 -1.85156247,0.9140625 -1.85156247,1.8046875 0,0.5507813 0.4921875,0.5507813 0.52734377,0.5507813 0.1640625,0 0.515625,-0.1171875 0.515625,-0.5273438 0,-0.2578125 -0.1875,-0.515625 -0.5273438,-0.515625 -0.0820312,0 -0.10546872,0 -0.12890622,0.011719 0.22265622,-0.6445313 0.76171872,-1.0195313 1.33593752,-1.0195313 0.9140625,0 1.3359375,0.8085938 1.3359375,1.6289063 0,0.796875 -0.4921875,1.5820312 -1.0429688,2.203125 L 0.60873438,-0.36313281 C 0.50326563,-0.25766406 0.50326563,-0.23422656 0.50326563,1.484375e-4 H 4.1946719 L 4.4759219,-1.7342266 H 4.2181094 c -0.046875,0.3046875 -0.1171875,0.73828129 -0.2109375,0.89062504 -0.070313,0.0820313 -0.7265625,0.0820313 -0.9492188,0.0820313 z M 11.721039,-1.6170391 h -0.246094 c -0.04687,0.2578125 -0.08203,0.4921875 -0.175781,0.72656254 -0.04687,0.1640625 -0.08203,0.24609375 -0.65625,0.24609375 H 9.8460391 C 9.9749453,-1.2068828 10.279633,-1.6873516 10.724945,-2.3436016 c 0.46875,-0.703125 0.878907,-1.3945312 0.878907,-2.1796875 0,-1.3828125 -1.335938,-2.4960937 -3.0234379,-2.4960937 -1.7109375,0 -3.0351563,1.1367187 -3.0351563,2.4960937 0,0.7851563 0.3984375,1.4765625 0.8671875,2.1796875 0.4453125,0.65625 0.7617188,1.1367188 0.890625,1.69921879 h -0.796875 c -0.5742187,0 -0.609375,-0.0820313 -0.65625,-0.234375 C 5.7679141,-1.1014141 5.7210391,-1.3592266 5.6741641,-1.6170391 H 5.4163516 l 0.328125,1.6171875375 h 1.59375 c 0.2226562,0 0.2578125,0 0.2578125,-0.2109374975 0,-0.69140625 -0.3164063,-1.57031254 -0.5390625,-2.21484374 -0.2109375,-0.5742188 -0.4921875,-1.359375 -0.4921875,-2.109375 0,-1.59375 1.1015625,-2.2734375 2.0039062,-2.2734375 0.9609375,0 2.0156247,0.7265625 2.0156247,2.2734375 0,0.75 -0.269531,1.5117187 -0.5625,2.3203125 -0.1523434,0.421875 -0.4687497,1.31249999 -0.4687497,2.00390624 0,0.2109374975 0.035156,0.2109374975 0.2578125,0.2109374975 h 1.5820312 z m 0,0" style="fill:#000000;fill-opacity:1;fill-rule:nonzero;stroke:none" aria-label="2Ω" transform="matrix(1.3333333,0,0,1.3333333,121.25867,48.769333)"/>
  </g>
</svg>