<?xml version="1.0" encoding="UTF-8" standalone="no"?>
<!-- Created with Inkscape (http://www.inkscape.org/) -->

<svg
   version="1.1"
   id="svg1"
   width="452.64001"
   height="317.85333"
   viewBox="0 0 452.64001 317.85333"
   sodipodi:docname="24-25-2-电路分析基础-期中-题图5.pdf"
   xmlns:inkscape="http://www.inkscape.org/namespaces/inkscape"
   xmlns:sodipodi="http://sodipodi.sourceforge.net/DTD/sodipodi-0.dtd"
   xmlns="http://www.w3.org/2000/svg"
   xmlns:svg="http://www.w3.org/2000/svg">
  <defs
     id="defs1" />
  <sodipodi:namedview
     id="namedview1"
     pagecolor="#ffffff"
     bordercolor="#000000"
     borderopacity="0.25"
     inkscape:showpageshadow="2"
     inkscape:pageopacity="0.0"
     inkscape:pagecheckerboard="0"
     inkscape:deskcolor="#d1d1d1">
    <inkscape:page
       x="0"
       y="0"
       inkscape:label="1"
       id="page1"
       width="452.64001"
       height="317.85333"
       margin="0"
       bleed="0" />
  </sodipodi:namedview>
  <g
     id="g1"
     inkscape:groupmode="layer"
     inkscape:label="1">
    <path
       id="path1"
       d="M -16.59816,-6.08034 V 232.30804 H 322.88982 V -6.08034 Z"
       style="fill:#ffffff;fill-opacity:1;fill-rule:nonzero;stroke:none"
       transform="matrix(1.3333333,0,0,-1.3333333,22.130667,309.74667)" />
    <path
       id="path2"
       d="m 85.04045,99.21387 -42.52023,-2e-5 m 0,0 L 0,99.21387 V 61.51263 M 0,37.7012 V 0 h 42.52022 m 0,0 h 42.52023 42.52022 m 0,0 h 42.52025 42.52022 m 0,0 h 42.52023 42.52023 v 17.85873 m 0,23.81144 v 17.85875 l -21.26013,-2e-5 m 0,0 -21.2601,2e-5"
       style="fill:none;stroke:#000000;stroke-width:0.3985;stroke-linecap:butt;stroke-linejoin:miter;stroke-miterlimit:10;stroke-dasharray:none;stroke-opacity:1"
       transform="matrix(1.3333333,0,0,-1.3333333,22.130667,309.74667)" />
    <path
       id="path3"
       d="m 86.6276,99.21387 c 0,0.87655 -0.7106,1.58714 -1.58715,1.58714 -0.87655,0 -1.58714,-0.71059 -1.58714,-1.58714 0,-0.87656 0.71059,-1.58715 1.58714,-1.58715 0.87655,0 1.58715,0.71059 1.58715,1.58715 z"
       style="fill:#000000;fill-opacity:1;fill-rule:nonzero;stroke:#000000;stroke-width:0.3985;stroke-linecap:butt;stroke-linejoin:miter;stroke-miterlimit:10;stroke-dasharray:none;stroke-opacity:1"
       transform="matrix(1.3333333,0,0,-1.3333333,22.130667,309.74667)" />
    <path
       id="path4"
       d="m 11.90572,49.60692 c 0,6.57542 -5.33031,11.90571 -11.90572,11.90571 -6.57541,0 -11.90572,-5.33029 -11.90572,-11.90571 0,-6.57541 5.33031,-11.90572 11.90572,-11.90572 6.57541,0 11.90572,5.33031 11.90572,11.90572 z"
       style="fill:none;stroke:#000000;stroke-width:0.797;stroke-linecap:butt;stroke-linejoin:miter;stroke-miterlimit:10;stroke-dasharray:none;stroke-opacity:1"
       transform="matrix(1.3333333,0,0,-1.3333333,22.130667,309.74667)" />
    <path
       id="path5"
       d="M 0,61.51263 V 37.7012"
       style="fill:none;stroke:#000000;stroke-width:0.797;stroke-linecap:butt;stroke-linejoin:miter;stroke-miterlimit:10;stroke-dasharray:none;stroke-opacity:1"
       transform="matrix(1.3333333,0,0,-1.3333333,22.130667,309.74667)" />
    <path
       id="path6"
       d="m 4.0776016,-2.2957813 h 2.7773437 c 0.140625,0 0.328125,0 0.328125,-0.1992187 0,-0.1992188 -0.1875,-0.1992188 -0.328125,-0.1992188 H 4.0776016 v -2.7890625 c 0,-0.1289062 0,-0.328125 -0.1992188,-0.328125 -0.1992187,0 -0.1992187,0.1992188 -0.1992187,0.328125 v 2.7890625 H 0.89010156 c -0.140625,0 -0.328125,0 -0.328125,0.1992188 0,0.1992187 0.1875,0.1992187 0.328125,0.1992187 H 3.6791641 V 0.505 c 0,0.12890625 0,0.328125 0.1992187,0.328125 0.1992188,0 0.1992188,-0.19921875 0.1992188,-0.328125 z m 0,0"
       style="fill:#000000;fill-opacity:1;fill-rule:nonzero;stroke:none"
       aria-label="+"
       transform="matrix(1.3333333,0,0,1.3333333,37.918667,234.82667)" />
    <path
       id="path7"
       d="m 6.5619766,-2.2972969 c 0.1757812,0 0.3515625,0 0.3515625,-0.1992187 0,-0.1992188 -0.1757813,-0.1992188 -0.3515625,-0.1992188 h -5.390625 c -0.1640625,0 -0.33984379,0 -0.33984379,0.1992188 0,0.1992187 0.17578129,0.1992187 0.33984379,0.1992187 z m 0,0"
       style="fill:#000000;fill-opacity:1;fill-rule:nonzero;stroke:none"
       aria-label="−"
       transform="matrix(1.3333333,0,0,1.3333333,37.918667,259.024)" />
    <g
       id="g7"
       aria-label="3V"
       transform="matrix(1.3333333,0,0,1.3333333,49.181333,247.99467)">
      <path
         id="path8"
         d="m 2.8932969,-3.5028359 c 0.8085937,-0.2695313 1.3945312,-0.9726563 1.3945312,-1.7578125 0,-0.8203125 -0.8789062,-1.3710938 -1.8398437,-1.3710938 -1.0078125,0 -1.75781252,0.5976563 -1.75781252,1.3476563 0,0.3398437 0.2109375,0.5273437 0.50390622,0.5273437 0.3046875,0 0.5039063,-0.2226562 0.5039063,-0.515625 0,-0.4921875 -0.46875,-0.4921875 -0.609375,-0.4921875 0.3046875,-0.4921875 0.9609375,-0.6210937 1.3242187,-0.6210937 0.4101563,0 0.9492188,0.2226562 0.9492188,1.1132812 0,0.1289063 -0.011719,0.703125 -0.2695313,1.1367188 -0.3046875,0.4804687 -0.6445312,0.515625 -0.890625,0.515625 -0.082031,0.011719 -0.3164062,0.035156 -0.3867187,0.035156 -0.082031,0.011719 -0.1523438,0.023437 -0.1523438,0.1171875 0,0.1171875 0.070312,0.1171875 0.234375,0.1171875 h 0.4453125 c 0.8085938,0 1.1835938,0.6679688 1.1835938,1.6523438 0,1.34765621 -0.6914063,1.64062496 -1.125,1.64062496 -0.4335938,0 -1.171875,-0.17578125 -1.52343752,-0.76171875 0.35156252,0.0585938 0.65625002,-0.1640625 0.65625002,-0.53906251 0,-0.3632812 -0.2695313,-0.5625 -0.56250002,-0.5625 -0.234375,0 -0.55078125,0.140625 -0.55078125,0.5742188 0,0.91406246 0.92578127,1.57031246 2.00390627,1.57031246 1.21875,0 2.1210937,-0.9140625 2.1210937,-1.92187496 0,-0.8203125 -0.6210937,-1.59375 -1.6523437,-1.8046873 z m 0,0"
         style="fill:#000000;fill-opacity:1;fill-rule:nonzero;stroke:none" />
      <path
         id="path9"
         d="m 13.920641,-6.4911172 v -0.3164062 c -0.316407,0.023437 -0.714844,0.035156 -0.972657,0.035156 l -1.136718,-0.035156 v 0.3164062 c 0.515625,0.011719 0.726562,0.2695313 0.726562,0.4921875 0,0.082031 -0.02344,0.140625 -0.04687,0.1992188 l -1.82813,4.80468746 -1.8984374,-5.02734376 c -0.058594,-0.140625 -0.058594,-0.1875 -0.058594,-0.1875 0,-0.28125 0.5625,-0.28125 0.8203125,-0.28125 v -0.3164062 c -0.3632813,0.035156 -1.0546875,0.035156 -1.4296875,0.035156 l -1.265625,-0.035156 v 0.3164062 c 0.6445312,0 0.84375,0 0.9726562,0.375 l 2.3203132,6.11718751 c 0.07031,0.1875 0.117187,0.22265625 0.246093,0.22265625 0.164063,0 0.1875,-0.0585938 0.234375,-0.1875 l 2.226563,-5.85937496 c 0.140625,-0.375 0.410156,-0.65625 1.089844,-0.6679688 z m 0,0"
         style="fill:#000000;fill-opacity:1;fill-rule:nonzero;stroke:none" />
    </g>
    <path
       id="path10"
       d="m 86.6276,0 c 0,0.87656 -0.7106,1.58714 -1.58715,1.58714 -0.87655,0 -1.58714,-0.71058 -1.58714,-1.58714 0,-0.87656 0.71059,-1.58714 1.58714,-1.58714 0.87655,0 1.58715,0.71058 1.58715,1.58714 z"
       style="fill:#000000;fill-opacity:1;fill-rule:nonzero;stroke:#000000;stroke-width:0.3985;stroke-linecap:butt;stroke-linejoin:miter;stroke-miterlimit:10;stroke-dasharray:none;stroke-opacity:1"
       transform="matrix(1.3333333,0,0,-1.3333333,22.130667,309.74667)" />
    <path
       id="path11"
       d="m 171.66806,0 c 0,0.87656 -0.71059,1.58714 -1.58714,1.58714 -0.87657,0 -1.58716,-0.71058 -1.58716,-1.58714 0,-0.87656 0.71059,-1.58714 1.58716,-1.58714 0.87655,0 1.58714,0.71058 1.58714,1.58714 z"
       style="fill:#000000;fill-opacity:1;fill-rule:nonzero;stroke:#000000;stroke-width:0.3985;stroke-linecap:butt;stroke-linejoin:miter;stroke-miterlimit:10;stroke-dasharray:none;stroke-opacity:1"
       transform="matrix(1.3333333,0,0,-1.3333333,22.130667,309.74667)" />
    <path
       id="path12"
       d="m 256.70853,0 c 0,0.87656 -0.71059,1.58714 -1.58716,1.58714 -0.87656,0 -1.58714,-0.71058 -1.58714,-1.58714 0,-0.87656 0.71058,-1.58714 1.58714,-1.58714 0.87657,0 1.58716,0.71058 1.58716,1.58714 z"
       style="fill:#000000;fill-opacity:1;fill-rule:nonzero;stroke:#000000;stroke-width:0.3985;stroke-linecap:butt;stroke-linejoin:miter;stroke-miterlimit:10;stroke-dasharray:none;stroke-opacity:1"
       transform="matrix(1.3333333,0,0,-1.3333333,22.130667,309.74667)" />
    <path
       id="path13"
       d="m 285.73587,29.76445 c 0,-6.57542 5.33031,-11.90572 11.90573,-11.90572 6.57541,0 11.90572,5.3303 11.90572,11.90572 0,6.57541 -5.33031,11.90572 -11.90572,11.90572 -6.57542,0 -11.90573,-5.33031 -11.90573,-11.90572 z m 0,0 h 23.81145"
       style="fill:none;stroke:#000000;stroke-width:0.797;stroke-linecap:butt;stroke-linejoin:miter;stroke-miterlimit:10;stroke-dasharray:none;stroke-opacity:1"
       transform="matrix(1.3333333,0,0,-1.3333333,22.130667,309.74667)" />
    <path
       id="path14"
       d="m 297.6416,48.86331 h 1.98425 l -1.98425,4.21655 -1.98425,-4.21655 z"
       style="fill:#000000;fill-opacity:1;fill-rule:nonzero;stroke:#000000;stroke-width:0.3985;stroke-linecap:butt;stroke-linejoin:miter;stroke-miterlimit:10;stroke-dasharray:none;stroke-opacity:1"
       transform="matrix(1.3333333,0,0,-1.3333333,22.130667,309.74667)" />
    <g
       id="g14"
       aria-label="2A"
       transform="matrix(1.3333333,0,0,1.3333333,423.67867,247.036)">
      <path
         id="path15"
         d="M 1.2663906,-0.76235156 2.3210781,-1.7936016 c 1.5585938,-1.3710937 2.15625,-1.9101562 2.15625,-2.90625 0,-1.1367187 -0.9023437,-1.9335937 -2.1210937,-1.9335937 -1.125,0 -1.85156253,0.9140625 -1.85156253,1.8046875 0,0.5507812 0.4921875,0.5507812 0.52734373,0.5507812 0.1640625,0 0.515625,-0.1171875 0.515625,-0.5273437 0,-0.2578125 -0.1875,-0.515625 -0.5273437,-0.515625 -0.0820313,0 -0.10546878,0 -0.12890628,0.011719 0.22265628,-0.6445312 0.76171878,-1.0195312 1.33593748,-1.0195312 0.9140625,0 1.3359375,0.8085937 1.3359375,1.6289062 0,0.796875 -0.4921875,1.5820313 -1.0429687,2.203125 L 0.61014062,-0.36391406 C 0.50467187,-0.25844531 0.50467187,-0.23500781 0.50467187,-6.328125e-4 H 4.1960781 L 4.4773281,-1.7350078 H 4.2195156 c -0.046875,0.3046875 -0.1171875,0.73828124 -0.2109375,0.89062499 -0.070313,0.0820313 -0.7265625,0.0820313 -0.9492187,0.0820313 z m 0,0"
         style="fill:#000000;fill-opacity:1;fill-rule:nonzero;stroke:none" />
      <path
         id="path16"
         d="M 13.779086,-6.328125e-4 V -0.30532031 h -0.175781 c -0.597657,0 -0.738282,-0.0703125 -0.84375,-0.3984375 l -2.15625,-6.23437499 c -0.04687,-0.1289063 -0.07031,-0.1992188 -0.222657,-0.1992188 -0.164062,0 -0.1875,0.058594 -0.246093,0.1992188 l -2.0625003,5.96484374 c -0.1757813,0.50390625 -0.5742188,0.65625 -1.1132813,0.66796875 V -6.328125e-4 L 7.9783047,-0.03578906 9.1267422,-6.328125e-4 V -0.30532031 c -0.5039063,0 -0.75,-0.2578125 -0.75,-0.515625 0,-0.0234375 0.011719,-0.12890625 0.023437,-0.140625 L 8.8572109,-2.2740703 h 2.4609371 l 0.527344,1.52343749 c 0.01172,0.046875 0.02344,0.10546875 0.02344,0.140625 0,0.3046875 -0.550782,0.3046875 -0.820313,0.3046875 V -6.328125e-4 C 11.40018,-0.03578906 12.103305,-0.03578906 12.478305,-0.03578906 Z M 11.200961,-2.5787578 H 8.9626797 l 1.1132813,-3.234375 z m 0,0"
         style="fill:#000000;fill-opacity:1;fill-rule:nonzero;stroke:none" />
    </g>
    <path
       id="path17"
       d="m 256.70853,59.52892 c 0,0.87655 -0.71059,1.58714 -1.58716,1.58714 -0.87656,0 -1.58714,-0.71059 -1.58714,-1.58714 0,-0.87656 0.71058,-1.58715 1.58714,-1.58715 0.87657,0 1.58716,0.71059 1.58716,1.58715 z"
       style="fill:#000000;fill-opacity:1;fill-rule:nonzero;stroke:#000000;stroke-width:0.3985;stroke-linecap:butt;stroke-linejoin:miter;stroke-miterlimit:10;stroke-dasharray:none;stroke-opacity:1"
       transform="matrix(1.3333333,0,0,-1.3333333,22.130667,309.74667)" />
    <path
       id="path18"
       d="m 85.04045,0 -1e-5,33.73273 m 0,31.74838 1e-5,33.73276 v 99.21386 h 30.6145 m 23.81145,0 h 30.61452 28.6304 m 27.77963,0 h 28.63042 l -2e-5,-49.60693 m 0,0 2e-5,-49.60693 -2e-5,-19.84249 m 0,0 2e-5,-19.84246 -2e-5,-13.89028 m 0,-31.74838 L 255.12137,0"
       style="fill:none;stroke:#000000;stroke-width:0.3985;stroke-linecap:butt;stroke-linejoin:miter;stroke-miterlimit:10;stroke-dasharray:none;stroke-opacity:1"
       transform="matrix(1.3333333,0,0,-1.3333333,22.130667,309.74667)" />
    <path
       id="path19"
       d="M 90.99329,65.48111 V 33.73273 h -11.9057 v 31.74838 z"
       style="fill:none;stroke:#000000;stroke-width:0.797;stroke-linecap:butt;stroke-linejoin:miter;stroke-miterlimit:10;stroke-dasharray:none;stroke-opacity:1"
       transform="matrix(1.3333333,0,0,-1.3333333,22.130667,309.74667)" />
    <path
       id="path20"
       d="M 1.2645234,-0.76308594 2.3192109,-1.7943359 c 1.5585938,-1.3710938 2.15625,-1.9101563 2.15625,-2.90625 0,-1.1367188 -0.9023437,-1.9335938 -2.1210937,-1.9335938 -1.125,0 -1.85156251,0.9140625 -1.85156251,1.8046875 0,0.5507813 0.4921875,0.5507813 0.52734371,0.5507813 0.1640625,0 0.515625,-0.1171875 0.515625,-0.5273438 0,-0.2578125 -0.1875,-0.515625 -0.5273437,-0.515625 -0.0820313,0 -0.10546876,0 -0.12890626,0.011719 C 1.1121797,-5.954492 1.6512422,-6.329492 2.2254609,-6.329492 c 0.9140625,0 1.3359375,0.8085938 1.3359375,1.6289063 0,0.796875 -0.4921875,1.5820312 -1.0429687,2.203125 L 0.60827344,-0.36464844 C 0.50280469,-0.25917969 0.50280469,-0.23574219 0.50280469,-0.00136719 H 4.1942109 l 0.28125,-1.73437501 H 4.2176484 c -0.046875,0.3046875 -0.1171875,0.73828126 -0.2109375,0.89062501 -0.070312,0.0820313 -0.7265625,0.0820313 -0.9492187,0.0820313 z M 13.372922,-1.6185547 h -0.246094 c -0.04687,0.2578125 -0.08203,0.4921875 -0.175781,0.72656251 -0.04687,0.1640625 -0.08203,0.24609375 -0.65625,0.24609375 h -0.796875 c 0.128906,-0.56249996 0.433594,-1.04296876 0.878906,-1.69921876 0.46875,-0.703125 0.878906,-1.3945312 0.878906,-2.1796875 0,-1.3828125 -1.335937,-2.4960937 -3.023437,-2.4960937 -1.7109376,0 -3.0351564,1.1367187 -3.0351564,2.4960937 0,0.7851563 0.3984375,1.4765625 0.8671875,2.1796875 0.4453125,0.65625 0.7617188,1.1367188 0.890625,1.69921876 h -0.796875 c -0.5742187,0 -0.609375,-0.0820313 -0.65625,-0.234375 C 7.4197969,-1.1029297 7.3729219,-1.3607422 7.3260469,-1.6185547 H 7.0682344 l 0.328125,1.61718751 h 1.59375 c 0.2226562,0 0.2578125,0 0.2578125,-0.2109375 0,-0.69140625 -0.3164063,-1.57031251 -0.5390625,-2.21484371 -0.2109375,-0.5742188 -0.4921875,-1.359375 -0.4921875,-2.109375 0,-1.59375 1.1015625,-2.2734375 2.0039061,-2.2734375 0.960938,0 2.015625,0.7265625 2.015625,2.2734375 0,0.75 -0.269531,1.5117187 -0.5625,2.3203125 -0.152344,0.421875 -0.46875,1.31249996 -0.46875,2.00390621 0,0.2109375 0.03516,0.2109375 0.257813,0.2109375 h 1.582031 z m 0,0"
       style="fill:#000000;fill-opacity:1;fill-rule:nonzero;stroke:none"
       aria-label="2Ω"
       transform="matrix(1.3333333,0,0,1.3333333,146.396,246.46667)" />
    <path
       id="path21"
       d="m 127.56067,210.33345 c -6.57541,0 -11.90572,-5.33029 -11.90572,-11.90572 0,-6.5754 5.33031,-11.90571 11.90572,-11.90571 6.57543,0 11.90573,5.33031 11.90573,11.90571 0,6.57543 -5.3303,11.90572 -11.90573,11.90572 z m 0,0 v -23.81143"
       style="fill:none;stroke:#000000;stroke-width:0.797;stroke-linecap:butt;stroke-linejoin:miter;stroke-miterlimit:10;stroke-dasharray:none;stroke-opacity:1"
       transform="matrix(1.3333333,0,0,-1.3333333,22.130667,309.74667)" />
    <path
       id="path22"
       d="m 171.66806,198.42773 c 0,0.87657 -0.71059,1.58715 -1.58714,1.58715 -0.87657,0 -1.58716,-0.71058 -1.58716,-1.58715 0,-0.87655 0.71059,-1.58714 1.58716,-1.58714 0.87655,0 1.58714,0.71059 1.58714,1.58714 z"
       style="fill:#000000;fill-opacity:1;fill-rule:nonzero;stroke:#000000;stroke-width:0.3985;stroke-linecap:butt;stroke-linejoin:miter;stroke-miterlimit:10;stroke-dasharray:none;stroke-opacity:1"
       transform="matrix(1.3333333,0,0,-1.3333333,22.130667,309.74667)" />
    <path
       id="path23"
       d="m 6.5620469,-2.2971406 c 0.1757812,0 0.3515625,0 0.3515625,-0.1992188 0,-0.1992187 -0.1757813,-0.1992187 -0.3515625,-0.1992187 h -5.390625 c -0.1640625,0 -0.33984378,0 -0.33984378,0.1992187 0,0.1992188 0.17578128,0.1992188 0.33984378,0.1992188 z m 0,0"
       style="fill:#000000;fill-opacity:1;fill-rule:nonzero;stroke:none"
       aria-label="−"
       transform="matrix(1.3333333,0,0,1.3333333,152.41467,39.570667)" />
    <path
       id="path24"
       d="m 4.0779609,-2.2971406 h 2.7773438 c 0.140625,0 0.328125,0 0.328125,-0.1992188 0,-0.1992187 -0.1875,-0.1992187 -0.328125,-0.1992187 H 4.0779609 v -2.7890625 c 0,-0.1289063 0,-0.328125 -0.1992187,-0.328125 -0.1992188,0 -0.1992188,0.1992187 -0.1992188,0.328125 v 2.7890625 H 0.89046094 c -0.140625,0 -0.328125,0 -0.328125,0.1992187 0,0.1992188 0.1875,0.1992188 0.328125,0.1992188 H 3.6795234 v 2.80078122 c 0,0.12890625 0,0.328125 0.1992188,0.328125 0.1992187,0 0.1992187,-0.19921875 0.1992187,-0.328125 z m 0,0"
       style="fill:#000000;fill-opacity:1;fill-rule:nonzero;stroke:none"
       aria-label="+"
       transform="matrix(1.3333333,0,0,1.3333333,221.676,39.570667)" />
    <g
       id="g24"
       aria-label="u&#10;1"
       transform="matrix(1.3333333,0,0,1.3333333,185.42933,18.566667)">
      <path
         id="path25"
         d="m 3.4924531,-0.56269531 c 0.1054688,0.41015625 0.4570313,0.66796875 0.8789063,0.66796875 0.3515625,0 0.5742187,-0.22265625 0.7382812,-0.5390625 0.1757813,-0.36328125 0.3046875,-0.97265624 0.3046875,-0.99609374 0,-0.09375 -0.09375,-0.09375 -0.1289062,-0.09375 -0.09375,0 -0.1054688,0.035156 -0.140625,0.1757812 -0.1289063,0.56250004 -0.328125,1.24218754 -0.7382813,1.24218754 -0.2109375,0 -0.3164062,-0.12890625 -0.3164062,-0.45703125 0,-0.22265625 0.1289062,-0.69140629 0.1992187,-1.04296879 l 0.28125,-1.078125 c 0.035156,-0.140625 0.1289063,-0.5273437 0.1757813,-0.6679687 0.046875,-0.234375 0.140625,-0.609375 0.140625,-0.6679688 0,-0.1875 -0.140625,-0.2695312 -0.28125,-0.2695312 -0.058594,0 -0.3164063,0 -0.3867188,0.3398437 -0.1992187,0.7265625 -0.6328125,2.4726563 -0.75,3.00000004 -0.011719,0.046875 -0.4101562,0.84375 -1.1367187,0.84375 -0.515625,0 -0.6210938,-0.45703125 -0.6210938,-0.8203125 0,-0.56250004 0.28125,-1.34765624 0.5390625,-2.02734374 0.1171875,-0.3046875 0.1757813,-0.4453125 0.1757813,-0.6328125 0,-0.4453125 -0.328125,-0.8203125 -0.8203125,-0.8203125 -0.94921878,0 -1.31250003,1.453125 -1.31250003,1.5351562 0,0.1054688 0.09375,0.1054688 0.1171875,0.1054688 0.09375,0 0.10546875,-0.023437 0.15234375,-0.1875 0.2578125,-0.8671875 0.63281248,-1.2304688 1.00781248,-1.2304688 0.09375,0 0.2578125,0.011719 0.2578125,0.328125 0,0.234375 -0.1171875,0.5273438 -0.1757812,0.6796875 -0.3632813,0.984375 -0.5742188,1.6054688 -0.5742188,2.0859375 0,0.94921879 0.6796875,1.19531254 1.21875,1.19531254 0.65625,0 1.0195313,-0.4453125 1.1953125,-0.66796875 z m 0,0"
         style="fill:#000000;fill-opacity:1;fill-rule:nonzero;stroke:none" />
      <path
         id="path26"
         d="m 8.0363984,-2.9357422 c 0,-0.1875 -0.011719,-0.1992187 -0.2109375,-0.1992187 -0.4453125,0.4335937 -1.078125,0.4453125 -1.359375,0.4453125 v 0.2460937 c 0.1640625,0 0.6210938,0 1.0078125,-0.1875 v 3.55078126 c 0,0.23437504 0,0.32812504 -0.6914062,0.32812504 H 6.5129609 v 0.2460937 c 0.1289063,-0.011719 0.984375,-0.023437 1.2421875,-0.023437 0.2109375,0 1.0898438,0.011719 1.2421875,0.023437 V 1.2478516 H 8.7395234 c -0.703125,0 -0.703125,-0.09375 -0.703125,-0.32812504 z m 0,0"
         style="fill:#000000;fill-opacity:1;fill-rule:nonzero;stroke:none" />
    </g>
    <path
       id="path27"
       d="m 102.08391,198.42773 v 1.98426 l -4.21654,-1.98426 4.21654,-1.98425 z"
       style="fill:#000000;fill-opacity:1;fill-rule:nonzero;stroke:#000000;stroke-width:0.3985;stroke-linecap:butt;stroke-linejoin:miter;stroke-miterlimit:10;stroke-dasharray:none;stroke-opacity:1"
       transform="matrix(1.3333333,0,0,-1.3333333,22.130667,309.74667)" />
    <g
       id="g27"
       aria-label="2A"
       transform="matrix(1.3333333,0,0,1.3333333,146.51867,59.38)">
      <path
         id="path28"
         d="M 1.2662734,-0.76253906 2.3209609,-1.7937891 c 1.5585938,-1.3710937 2.15625,-1.9101562 2.15625,-2.90625 0,-1.1367187 -0.9023437,-1.9335937 -2.1210937,-1.9335937 -1.125,0 -1.85156251,0.9140625 -1.85156251,1.8046875 0,0.5507812 0.4921875,0.5507812 0.52734371,0.5507812 0.1640625,0 0.515625,-0.1171875 0.515625,-0.5273437 0,-0.2578125 -0.1875,-0.515625 -0.5273437,-0.515625 -0.0820313,0 -0.10546876,0 -0.12890626,0.011719 C 1.1139297,-5.953945 1.6529922,-6.328945 2.2272109,-6.328945 c 0.9140625,0 1.3359375,0.8085937 1.3359375,1.6289062 0,0.796875 -0.4921875,1.5820313 -1.0429687,2.203125 L 0.61002344,-0.36410156 C 0.50455469,-0.25863281 0.50455469,-0.23519531 0.50455469,-8.203125e-4 H 4.1959609 L 4.4772109,-1.7351953 H 4.2193984 c -0.046875,0.3046875 -0.1171875,0.73828124 -0.2109375,0.89062499 -0.070312,0.0820313 -0.7265625,0.0820313 -0.9492187,0.0820313 z m 0,0"
         style="fill:#000000;fill-opacity:1;fill-rule:nonzero;stroke:none" />
      <path
         id="path29"
         d="M 13.778969,-8.203125e-4 V -0.30550781 h -0.175781 c -0.597657,0 -0.738282,-0.0703125 -0.84375,-0.3984375 l -2.15625,-6.23437499 c -0.04687,-0.1289063 -0.07031,-0.1992188 -0.222657,-0.1992188 -0.164062,0 -0.1875,0.058594 -0.246093,0.1992188 l -2.0625005,5.96484374 c -0.1757812,0.50390625 -0.5742187,0.65625 -1.1132812,0.66796875 V -8.203125e-4 L 7.9781875,-0.03597656 9.126625,-8.203125e-4 V -0.30550781 c -0.5039062,0 -0.75,-0.2578125 -0.75,-0.515625 0,-0.0234375 0.011719,-0.12890625 0.023437,-0.140625 L 8.8570938,-2.2742578 h 2.4609372 l 0.527344,1.52343749 c 0.01172,0.046875 0.02344,0.10546875 0.02344,0.140625 0,0.3046875 -0.550782,0.3046875 -0.820313,0.3046875 V -8.203125e-4 C 11.400063,-0.03597656 12.103188,-0.03597656 12.478188,-0.03597656 Z M 11.200844,-2.5789453 H 8.9625625 l 1.1132815,-3.234375 z m 0,0"
         style="fill:#000000;fill-opacity:1;fill-rule:nonzero;stroke:none" />
    </g>
    <path
       id="path30"
       d="m 198.71132,198.42773 13.88982,13.88982 13.88981,-13.88982 -13.88981,-13.88981 z"
       style="fill:none;stroke:#000000;stroke-width:0.797;stroke-linecap:butt;stroke-linejoin:miter;stroke-miterlimit:10;stroke-dasharray:none;stroke-opacity:1"
       transform="matrix(1.3333333,0,0,-1.3333333,22.130667,309.74667)" />
    <path
       id="path31"
       d="m 198.71132,198.42773 h 27.77963"
       style="fill:none;stroke:#000000;stroke-width:0.797;stroke-linecap:butt;stroke-linejoin:miter;stroke-miterlimit:10;stroke-dasharray:none;stroke-opacity:1"
       transform="matrix(1.3333333,0,0,-1.3333333,22.130667,309.74667)" />
    <path
       id="path32"
       d="m 6.5637344,-2.2967891 c 0.1757812,0 0.3515625,0 0.3515625,-0.1992187 0,-0.1992188 -0.1757813,-0.1992188 -0.3515625,-0.1992188 h -5.390625 c -0.1640625,0 -0.33984378,0 -0.33984378,0.1992188 0,0.1992187 0.17578128,0.1992187 0.33984378,0.1992187 z m 0,0"
       style="fill:#000000;fill-opacity:1;fill-rule:nonzero;stroke:none"
       aria-label="−"
       transform="matrix(1.3333333,0,0,1.3333333,286.31867,24.050667)" />
    <path
       id="path33"
       d="M 4.0772812,-2.2967891 H 6.854625 c 0.140625,0 0.328125,0 0.328125,-0.1992187 0,-0.1992188 -0.1875,-0.1992188 -0.328125,-0.1992188 H 4.0772812 v -2.7890625 c 0,-0.1289062 0,-0.328125 -0.1992187,-0.328125 -0.1992188,0 -0.1992188,0.1992188 -0.1992188,0.328125 v 2.7890625 H 0.88978125 c -0.140625,0 -0.328125,0 -0.328125,0.1992188 0,0.1992187 0.1875,0.1992187 0.328125,0.1992187 H 3.6788437 v 2.80078129 c 0,0.12890625 0,0.328125 0.1992188,0.328125 0.1992187,0 0.1992187,-0.19921875 0.1992187,-0.328125 z m 0,0"
       style="fill:#000000;fill-opacity:1;fill-rule:nonzero;stroke:none"
       aria-label="+"
       transform="matrix(1.3333333,0,0,1.3333333,314.548,24.050667)" />
    <path
       id="path34"
       d="m 3.4928438,-0.56139844 c 0.1054687,0.41015625 0.4570312,0.66796875 0.8789062,0.66796875 0.3515625,0 0.5742188,-0.22265625 0.7382813,-0.5390625 0.1757812,-0.36328125 0.3046875,-0.97265621 0.3046875,-0.99609371 0,-0.09375 -0.09375,-0.09375 -0.1289063,-0.09375 -0.09375,0 -0.1054687,0.035156 -0.140625,0.1757812 -0.1289062,0.56250001 -0.328125,1.24218751 -0.7382812,1.24218751 -0.2109375,0 -0.3164063,-0.12890625 -0.3164063,-0.45703125 0,-0.22265625 0.1289063,-0.69140626 0.1992188,-1.04296876 l 0.28125,-1.078125 c 0.035156,-0.140625 0.1289062,-0.5273437 0.1757812,-0.6679687 0.046875,-0.234375 0.140625,-0.609375 0.140625,-0.6679688 0,-0.1875 -0.140625,-0.2695312 -0.28125,-0.2695312 -0.058594,0 -0.3164062,0 -0.3867187,0.3398437 -0.1992188,0.7265625 -0.6328125,2.4726563 -0.75,3.00000001 -0.011719,0.046875 -0.4101563,0.84375 -1.1367188,0.84375 -0.515625,0 -0.6210937,-0.45703125 -0.6210937,-0.8203125 0,-0.56250001 0.28125,-1.34765621 0.5390625,-2.02734371 0.1171875,-0.3046875 0.1757812,-0.4453125 0.1757812,-0.6328125 0,-0.4453125 -0.328125,-0.8203125 -0.8203125,-0.8203125 -0.94921875,0 -1.3125,1.453125 -1.3125,1.5351562 0,0.1054688 0.09375,0.1054688 0.1171875,0.1054688 0.09375,0 0.10546875,-0.023437 0.15234375,-0.1875 0.2578125,-0.8671875 0.63281255,-1.2304688 1.00781255,-1.2304688 0.09375,0 0.2578125,0.011719 0.2578125,0.328125 0,0.234375 -0.1171875,0.5273438 -0.1757813,0.6796875 -0.3632812,0.984375 -0.5742187,1.6054688 -0.5742187,2.0859375 0,0.94921876 0.6796875,1.19531251 1.21875,1.19531251 0.65625,0 1.0195312,-0.4453125 1.1953125,-0.66796875 z m 0,0"
       style="fill:#000000;fill-opacity:1;fill-rule:nonzero;stroke:none"
       aria-label="u"
       transform="matrix(1.3333333,0,0,1.3333333,301.796,14.104)" />
    <path
       id="path35"
       d="m 239.06993,198.42773 v -1.98425 l 4.21655,1.98425 -4.21655,1.98426 z"
       style="fill:#000000;fill-opacity:1;fill-rule:nonzero;stroke:#000000;stroke-width:0.3985;stroke-linecap:butt;stroke-linejoin:miter;stroke-miterlimit:10;stroke-dasharray:none;stroke-opacity:1"
       transform="matrix(1.3333333,0,0,-1.3333333,22.130667,309.74667)" />
    <g
       id="g35"
       aria-label="i&#10;4"
       transform="matrix(1.3333333,0,0,1.3333333,337.93733,58.630667)">
      <path
         id="path36"
         d="m 2.8243437,-6.2239766 c 0,-0.1992187 -0.1289062,-0.3632812 -0.3632812,-0.3632812 -0.2695313,0 -0.5390625,0.2578125 -0.5390625,0.5273437 0,0.1875 0.140625,0.3632813 0.375,0.3632813 0.234375,0 0.5273437,-0.234375 0.5273437,-0.5273438 z m -0.75,3.7382813 c 0.1171875,-0.28125 0.1171875,-0.3046875 0.2226563,-0.5742188 0.070312,-0.1992187 0.1289062,-0.3398437 0.1289062,-0.5273437 0,-0.4453125 -0.328125,-0.8203125 -0.8203125,-0.8203125 -0.93749995,0 -1.31249995,1.453125 -1.31249995,1.5351562 0,0.1054688 0.09375,0.1054688 0.1171875,0.1054688 0.09375,0 0.10546875,-0.023437 0.15234375,-0.1875 0.26953125,-0.9375 0.6679687,-1.2304688 1.0078125,-1.2304688 0.082031,0 0.2578125,0 0.2578125,0.3164063 0,0.2109375 -0.070312,0.421875 -0.1171875,0.515625 C 1.6290312,-3.0950703 1.1837187,-1.9349141 1.031375,-1.5013203 0.92590625,-1.2435078 0.797,-0.91538281 0.797,-0.70444531 c 0,0.46875 0.3398437,0.80859375 0.8203125,0.80859375 0.9375,0 1.3007812,-1.44140624 1.3007812,-1.53515624 0,-0.09375 -0.09375,-0.09375 -0.1171875,-0.09375 -0.1054687,0 -0.1054687,0.023437 -0.1523437,0.1757812 -0.1757813,0.63281254 -0.5039063,1.24218754 -1.0195313,1.24218754 -0.1640625,0 -0.234375,-0.10546875 -0.234375,-0.328125 0,-0.2578125 0.058594,-0.3984375 0.2929688,-0.99609374 z m 0,0"
         style="fill:#000000;fill-opacity:1;fill-rule:nonzero;stroke:none" />
      <path
         id="path37"
         d="M 7.1221953,0.34438281 V 0.09828906 H 6.3487578 V -3.0071797 c 0,-0.1523437 0,-0.1992187 -0.1523437,-0.1992187 -0.09375,0 -0.1171875,0 -0.1875,0.09375 L 3.7003203,0.09828906 v 0.24609375 h 2.0507813 v 0.57421875 c 0,0.23437504 0,0.32812504 -0.5625,0.32812504 h -0.1875 v 0.2460937 c 0.3515625,-0.011719 0.796875,-0.023437 1.0429687,-0.023437 0.2578125,0 0.703125,0.011719 1.0546875,0.023437 V 1.2467266 h -0.1875 c -0.5625,0 -0.5625,-0.09375 -0.5625,-0.32812504 V 0.34438281 Z M 5.7979766,-2.4563984 V 0.09828906 H 3.9581328 Z m 0,0"
         style="fill:#000000;fill-opacity:1;fill-rule:nonzero;stroke:none" />
    </g>
    <path
       id="path38"
       d="m 256.70853,99.21387 c 0,0.87655 -0.71059,1.58714 -1.58716,1.58714 -0.87656,0 -1.58714,-0.71059 -1.58714,-1.58714 0,-0.87656 0.71058,-1.58715 1.58714,-1.58715 0.87657,0 1.58716,0.71059 1.58716,1.58715 z"
       style="fill:#000000;fill-opacity:1;fill-rule:nonzero;stroke:#000000;stroke-width:0.3985;stroke-linecap:butt;stroke-linejoin:miter;stroke-miterlimit:10;stroke-dasharray:none;stroke-opacity:1"
       transform="matrix(1.3333333,0,0,-1.3333333,22.130667,309.74667)" />
    <path
       id="path39"
       d="m 255.12135,81.10759 h -1.98425 l 1.98425,-4.21654 1.98425,4.21654 z"
       style="fill:#000000;fill-opacity:1;fill-rule:nonzero;stroke:#000000;stroke-width:0.3985;stroke-linecap:butt;stroke-linejoin:miter;stroke-miterlimit:10;stroke-dasharray:none;stroke-opacity:1"
       transform="matrix(1.3333333,0,0,-1.3333333,22.130667,309.74667)" />
    <g
       id="g39"
       aria-label="i&#10;3"
       transform="matrix(1.3333333,0,0,1.3333333,366.98533,207.30267)">
      <path
         id="path40"
         d="m 2.8235,-6.2240703 c 0,-0.1992188 -0.1289063,-0.3632813 -0.3632813,-0.3632813 -0.2695312,0 -0.5390625,0.2578125 -0.5390625,0.5273438 0,0.1875 0.140625,0.3632812 0.375,0.3632812 0.234375,0 0.5273438,-0.234375 0.5273438,-0.5273437 z m -0.75,3.7382812 c 0.1171875,-0.28125 0.1171875,-0.3046875 0.2226562,-0.5742187 0.070312,-0.1992188 0.1289063,-0.3398438 0.1289063,-0.5273438 0,-0.4453125 -0.328125,-0.8203125 -0.8203125,-0.8203125 -0.9375,0 -1.3125,1.453125 -1.3125,1.5351563 0,0.1054687 0.09375,0.1054687 0.1171875,0.1054687 0.09375,0 0.10546875,-0.023437 0.15234375,-0.1875 0.26953125,-0.9375 0.66796875,-1.2304687 1.00781245,-1.2304687 0.082031,0 0.2578125,0 0.2578125,0.3164062 0,0.2109375 -0.070312,0.421875 -0.1171875,0.515625 -0.082031,0.2578125 -0.5273437,1.4179688 -0.6796875,1.8515625 -0.1054687,0.2578125 -0.23437495,0.58593754 -0.23437495,0.79687504 0,0.46875 0.33984375,0.80859375 0.82031245,0.80859375 0.9375,0 1.3007813,-1.44140629 1.3007813,-1.53515629 0,-0.09375 -0.09375,-0.09375 -0.1171875,-0.09375 -0.1054688,0 -0.1054688,0.023437 -0.1523438,0.1757813 -0.1757812,0.63281249 -0.5039062,1.24218749 -1.0195312,1.24218749 -0.1640625,0 -0.234375,-0.10546875 -0.234375,-0.328125 0,-0.2578125 0.058594,-0.3984375 0.2929687,-0.99609379 z m 0,0"
         style="fill:#000000;fill-opacity:1;fill-rule:nonzero;stroke:none" />
      <path
         id="path41"
         d="m 5.3313125,-0.83930469 c 0.5507812,0 0.9375,0.375 0.9375,1.125 0,0.86718749 -0.5039063,1.12499999 -0.9023438,1.12499999 -0.28125,0 -0.890625,-0.082031 -1.1835937,-0.49218749 C 4.511,0.90678906 4.5813125,0.67241406 4.5813125,0.53178906 c 0,-0.22265625 -0.1640625,-0.38671875 -0.3867188,-0.38671875 -0.1875,0 -0.3867187,0.1171875 -0.3867187,0.41015625 0,0.65625004 0.7265625,1.07812504 1.5703125,1.07812504 0.9726562,0 1.640625,-0.64453129 1.640625,-1.34765629 0,-0.5390625 -0.4453125,-1.08984375 -1.21875,-1.2421875 0.7382812,-0.26953121 0.9960937,-0.79687501 0.9960937,-1.21875001 0,-0.5507812 -0.6328125,-0.9609375 -1.40625,-0.9609375 -0.7734375,0 -1.359375,0.375 -1.359375,0.9375 0,0.234375 0.1523438,0.3632813 0.3632813,0.3632813 0.2109375,0 0.3515625,-0.1640625 0.3515625,-0.3515625 0,-0.1992188 -0.140625,-0.3515625 -0.3515625,-0.3632813 0.234375,-0.3046875 0.7148437,-0.3867187 0.9726562,-0.3867187 0.3164063,0 0.7617188,0.1523437 0.7617188,0.7617187 0,0.2929688 -0.1054688,0.609375 -0.28125,0.8320313 -0.234375,0.2578125 -0.421875,0.28125 -0.7734375,0.2929687 -0.1757813,0.023437 -0.1875,0.023437 -0.2226563,0.023437 -0.011719,0 -0.070312,0.011719 -0.070312,0.09375 0,0.09375 0.058594,0.09375 0.1757813,0.09375 z m 0,0"
         style="fill:#000000;fill-opacity:1;fill-rule:nonzero;stroke:none" />
    </g>
    <path
       id="path42"
       d="m 249.1685,13.89026 v 31.74838 h 11.9057 V 13.89026 Z"
       style="fill:none;stroke:#000000;stroke-width:0.797;stroke-linecap:butt;stroke-linejoin:miter;stroke-miterlimit:10;stroke-dasharray:none;stroke-opacity:1"
       transform="matrix(1.3333333,0,0,-1.3333333,22.130667,309.74667)" />
    <path
       id="path43"
       d="M 1.2652578,-0.76038281 2.3199453,-1.7916328 c 1.5585938,-1.3710938 2.15625,-1.9101563 2.15625,-2.90625 0,-1.1367188 -0.9023437,-1.9335938 -2.1210937,-1.9335938 -1.125,0 -1.85156254,0.9140625 -1.85156254,1.8046875 0,0.5507813 0.4921875,0.5507813 0.52734374,0.5507813 0.1640625,0 0.515625,-0.1171875 0.515625,-0.5273438 0,-0.2578125 -0.1875,-0.515625 -0.5273437,-0.515625 -0.0820313,0 -0.10546879,0 -0.12890629,0.011719 0.22265629,-0.6445313 0.76171879,-1.0195313 1.33593749,-1.0195313 0.9140625,0 1.3359375,0.8085938 1.3359375,1.6289063 0,0.796875 -0.4921875,1.5820312 -1.0429687,2.203125 L 0.60900781,-0.36194531 C 0.50353906,-0.25647656 0.50353906,-0.23303906 0.50353906,0.00133594 H 4.1949453 l 0.28125,-1.73437504 H 4.2183828 c -0.046875,0.3046875 -0.1171875,0.73828129 -0.2109375,0.89062504 -0.070312,0.0820313 -0.7265625,0.0820313 -0.9492187,0.0820313 z M 13.373656,-1.6158516 h -0.246093 c -0.04687,0.2578125 -0.08203,0.4921875 -0.175782,0.72656254 -0.04687,0.1640625 -0.08203,0.24609375 -0.65625,0.24609375 h -0.796875 c 0.128907,-0.56249999 0.433594,-1.04296879 0.878907,-1.69921879 0.46875,-0.703125 0.878906,-1.3945312 0.878906,-2.1796875 0,-1.3828125 -1.335938,-2.4960937 -3.023438,-2.4960937 -1.7109372,0 -3.035156,1.1367187 -3.035156,2.4960937 0,0.7851563 0.3984375,1.4765625 0.8671875,2.1796875 0.4453125,0.65625 0.7617188,1.1367188 0.890625,1.69921879 h -0.796875 c -0.5742187,0 -0.609375,-0.0820313 -0.65625,-0.234375 C 7.4205313,-1.1002266 7.3736563,-1.3580391 7.3267813,-1.6158516 H 7.0689688 l 0.328125,1.61718754 h 1.59375 c 0.2226562,0 0.2578125,0 0.2578125,-0.2109375 0,-0.69140625 -0.3164063,-1.57031254 -0.5390625,-2.21484374 -0.2109375,-0.5742188 -0.4921875,-1.359375 -0.4921875,-2.109375 0,-1.59375 1.1015625,-2.2734375 2.0039067,-2.2734375 0.960937,0 2.015625,0.7265625 2.015625,2.2734375 0,0.75 -0.269532,1.5117187 -0.5625,2.3203125 -0.152344,0.421875 -0.46875,1.31249999 -0.46875,2.00390624 0,0.2109375 0.03516,0.2109375 0.257812,0.2109375 h 1.582031 z m 0,0"
       style="fill:#000000;fill-opacity:1;fill-rule:nonzero;stroke:none"
       aria-label="2Ω"
       transform="matrix(1.3333333,0,0,1.3333333,332.96533,272.924)" />
    <path
       id="path44"
       d="m 85.04045,99.21387 26.64603,-2e-5 m 31.7484,0 26.64604,2e-5 26.64602,-2e-5 m 31.74839,0 26.64604,2e-5"
       style="fill:none;stroke:#000000;stroke-width:0.3985;stroke-linecap:butt;stroke-linejoin:miter;stroke-miterlimit:10;stroke-dasharray:none;stroke-opacity:1"
       transform="matrix(1.3333333,0,0,-1.3333333,22.130667,309.74667)" />
    <path
       id="path45"
       d="m 111.68648,105.1667 h 31.74838 V 93.261 h -31.74838 z"
       style="fill:none;stroke:#000000;stroke-width:0.797;stroke-linecap:butt;stroke-linejoin:miter;stroke-miterlimit:10;stroke-dasharray:none;stroke-opacity:1"
       transform="matrix(1.3333333,0,0,-1.3333333,22.130667,309.74667)" />
    <path
       id="path46"
       d="m 171.66806,99.21387 c 0,0.87655 -0.71059,1.58714 -1.58714,1.58714 -0.87657,0 -1.58716,-0.71059 -1.58716,-1.58714 0,-0.87656 0.71059,-1.58715 1.58716,-1.58715 0.87655,0 1.58714,0.71059 1.58714,1.58715 z"
       style="fill:#000000;fill-opacity:1;fill-rule:nonzero;stroke:#000000;stroke-width:0.3985;stroke-linecap:butt;stroke-linejoin:miter;stroke-miterlimit:10;stroke-dasharray:none;stroke-opacity:1"
       transform="matrix(1.3333333,0,0,-1.3333333,22.130667,309.74667)" />
    <path
       id="path47"
       d="M 1.2668359,-0.76159375 2.3215234,-1.7928438 c 1.5585938,-1.3710937 2.15625,-1.9101562 2.15625,-2.90625 0,-1.1367187 -0.9023437,-1.9335937 -2.1210937,-1.9335937 -1.125,0 -1.85156251,0.9140625 -1.85156251,1.8046875 0,0.5507812 0.4921875,0.5507812 0.52734371,0.5507812 0.1640625,0 0.515625,-0.1171875 0.515625,-0.5273437 0,-0.2578125 -0.1875,-0.515625 -0.5273437,-0.515625 -0.0820313,0 -0.10546876,0 -0.12890626,0.011719 C 1.1144922,-5.953 1.6535547,-6.328 2.2277734,-6.328 c 0.9140625,0 1.3359375,0.8085937 1.3359375,1.6289062 0,0.796875 -0.4921875,1.5820313 -1.0429687,2.203125 L 0.61058594,-0.36315625 C 0.50511719,-0.2576875 0.50511719,-0.23425 0.50511719,1.25e-4 H 4.1965234 l 0.28125,-1.734375 H 4.2199609 c -0.046875,0.3046875 -0.1171875,0.73828125 -0.2109375,0.890625 -0.070313,0.0820313 -0.7265625,0.0820313 -0.9492187,0.0820313 z M 13.372305,-1.6170625 H 13.126211 C 13.079336,-1.35925 13.04418,-1.124875 12.95043,-0.8905 c -0.04687,0.1640625 -0.08203,0.24609375 -0.65625,0.24609375 h -0.796875 c 0.128906,-0.56250005 0.433593,-1.04296875 0.878906,-1.69921875 0.46875,-0.703125 0.878906,-1.3945313 0.878906,-2.1796875 0,-1.3828125 -1.335937,-2.4960938 -3.023437,-2.4960938 -1.7109378,0 -3.0351566,1.1367188 -3.0351566,2.4960938 0,0.7851562 0.3984375,1.4765625 0.8671875,2.1796875 0.4453125,0.65625 0.7617188,1.1367187 0.890625,1.69921875 h -0.796875 c -0.5742187,0 -0.609375,-0.0820313 -0.65625,-0.234375 C 7.4191797,-1.1014375 7.3723047,-1.35925 7.3254297,-1.6170625 H 7.0676172 L 7.3957422,1.25e-4 h 1.59375 c 0.2226562,0 0.2578125,0 0.2578125,-0.2109375 0,-0.69140625 -0.3164063,-1.5703125 -0.5390625,-2.2148438 -0.2109375,-0.5742187 -0.4921875,-1.359375 -0.4921875,-2.109375 0,-1.59375 1.1015625,-2.2734375 2.0039063,-2.2734375 0.960937,0 2.015625,0.7265625 2.015625,2.2734375 0,0.75 -0.269531,1.5117188 -0.5625,2.3203125 -0.152344,0.421875 -0.46875,1.31250005 -0.46875,2.0039063 0,0.2109375 0.03516,0.2109375 0.257812,0.2109375 h 1.582032 z m 0,0"
       style="fill:#000000;fill-opacity:1;fill-rule:nonzero;stroke:none"
       aria-label="2Ω"
       transform="matrix(1.3333333,0,0,1.3333333,182.98667,164.43733)" />
    <path
       id="path48"
       d="M 4.0782812,-2.2956719 H 6.855625 c 0.140625,0 0.328125,0 0.328125,-0.1992187 0,-0.1992188 -0.1875,-0.1992188 -0.328125,-0.1992188 H 4.0782812 v -2.7890625 c 0,-0.1289062 0,-0.328125 -0.1992187,-0.328125 -0.1992188,0 -0.1992188,0.1992188 -0.1992188,0.328125 v 2.7890625 H 0.89078125 c -0.140625,0 -0.328125,0 -0.328125,0.1992188 0,0.1992187 0.1875,0.1992187 0.328125,0.1992187 H 3.6798437 v 2.80078127 c 0,0.12890625 0,0.328125 0.1992188,0.328125 0.1992187,0 0.1992187,-0.19921875 0.1992187,-0.328125 z m 0,0"
       style="fill:#000000;fill-opacity:1;fill-rule:nonzero;stroke:none"
       aria-label="+"
       transform="matrix(1.3333333,0,0,1.3333333,146.54667,189.70933)" />
    <path
       id="path49"
       d="m 6.5617266,-2.2956719 c 0.1757812,0 0.3515625,0 0.3515625,-0.1992187 0,-0.1992188 -0.1757813,-0.1992188 -0.3515625,-0.1992188 h -5.390625 c -0.1640625,0 -0.33984379,0 -0.33984379,0.1992188 0,0.1992187 0.17578129,0.1992187 0.33984379,0.1992187 z m 0,0"
       style="fill:#000000;fill-opacity:1;fill-rule:nonzero;stroke:none"
       aria-label="−"
       transform="matrix(1.3333333,0,0,1.3333333,227.544,189.70933)" />
    <path
       id="path50"
       d="m 3.4928047,-0.56369531 c 0.1054687,0.41015625 0.4570312,0.66796875 0.8789062,0.66796875 0.3515625,0 0.5742188,-0.22265625 0.7382813,-0.5390625 0.1757812,-0.36328125 0.3046875,-0.97265624 0.3046875,-0.99609374 0,-0.09375 -0.09375,-0.09375 -0.1289063,-0.09375 -0.09375,0 -0.1054687,0.035156 -0.140625,0.1757812 -0.1289062,0.56250004 -0.328125,1.24218754 -0.7382812,1.24218754 -0.2109375,0 -0.3164063,-0.12890625 -0.3164063,-0.45703125 0,-0.22265625 0.1289063,-0.69140629 0.1992188,-1.04296879 l 0.28125,-1.078125 c 0.035156,-0.140625 0.1289062,-0.5273437 0.1757812,-0.6679687 0.046875,-0.234375 0.140625,-0.609375 0.140625,-0.6679688 0,-0.1875 -0.140625,-0.2695312 -0.28125,-0.2695312 -0.058594,0 -0.3164062,0 -0.3867187,0.3398437 -0.1992188,0.7265625 -0.6328125,2.4726563 -0.75,3.00000004 -0.011719,0.046875 -0.4101563,0.84375 -1.1367188,0.84375 -0.515625,0 -0.6210937,-0.45703125 -0.6210937,-0.8203125 0,-0.56250004 0.28125,-1.34765624 0.5390625,-2.02734374 0.1171875,-0.3046875 0.1757812,-0.4453125 0.1757812,-0.6328125 0,-0.4453125 -0.328125,-0.8203125 -0.8203125,-0.8203125 -0.94921871,0 -1.31249996,1.453125 -1.31249996,1.5351562 0,0.1054688 0.09375,0.1054688 0.1171875,0.1054688 0.09375,0 0.10546875,-0.023437 0.15234375,-0.1875 0.2578125,-0.8671875 0.63281251,-1.2304688 1.00781251,-1.2304688 0.09375,0 0.2578125,0.011719 0.2578125,0.328125 0,0.234375 -0.1171875,0.5273438 -0.1757813,0.6796875 -0.3632812,0.984375 -0.5742187,1.6054688 -0.5742187,2.0859375 0,0.94921879 0.6796875,1.19531254 1.21875,1.19531254 0.65625,0 1.0195312,-0.4453125 1.1953125,-0.66796875 z m 0,0"
       style="fill:#000000;fill-opacity:1;fill-rule:nonzero;stroke:none"
       aria-label="u"
       transform="matrix(1.3333333,0,0,1.3333333,188.40933,199.068)" />
    <path
       id="path51"
       d="M 155.02167,99.21385 V 97.2296 l 4.21653,1.98425 -4.21653,1.98425 z"
       style="fill:#000000;fill-opacity:1;fill-rule:nonzero;stroke:#000000;stroke-width:0.3985;stroke-linecap:butt;stroke-linejoin:miter;stroke-miterlimit:10;stroke-dasharray:none;stroke-opacity:1"
       transform="matrix(1.3333333,0,0,-1.3333333,22.130667,309.74667)" />
    <g
       id="g51"
       aria-label="i&#10;1"
       transform="matrix(1.3333333,0,0,1.3333333,225.87333,170.776)">
      <path
         id="path52"
         d="m 2.8254687,-6.2216484 c 0,-0.1992188 -0.1289062,-0.3632813 -0.3632812,-0.3632813 -0.2695313,0 -0.5390625,0.2578125 -0.5390625,0.5273438 0,0.1875 0.140625,0.3632812 0.375,0.3632812 0.234375,0 0.5273437,-0.234375 0.5273437,-0.5273437 z m -0.75,3.7382812 c 0.1171875,-0.28125 0.1171875,-0.3046875 0.2226563,-0.5742187 0.070312,-0.1992188 0.1289062,-0.3398438 0.1289062,-0.5273438 0,-0.4453125 -0.328125,-0.8203125 -0.8203125,-0.8203125 -0.93749995,0 -1.31249995,1.453125 -1.31249995,1.5351563 0,0.1054687 0.09375,0.1054687 0.1171875,0.1054687 0.09375,0 0.10546875,-0.023437 0.15234375,-0.1875 0.26953125,-0.9375 0.6679687,-1.2304687 1.0078125,-1.2304687 0.082031,0 0.2578125,0 0.2578125,0.3164062 0,0.2109375 -0.070312,0.421875 -0.1171875,0.515625 -0.082031,0.2578125 -0.5273438,1.4179688 -0.6796875,1.8515625 -0.10546875,0.2578125 -0.234375,0.58593751 -0.234375,0.79687501 0,0.46875 0.3398437,0.80859375 0.8203125,0.80859375 0.9375,0 1.3007812,-1.44140626 1.3007812,-1.53515626 0,-0.09375 -0.09375,-0.09375 -0.1171875,-0.09375 -0.1054687,0 -0.1054687,0.023437 -0.1523437,0.1757813 -0.1757813,0.63281246 -0.5039063,1.24218746 -1.0195313,1.24218746 -0.1640625,0 -0.234375,-0.10546875 -0.234375,-0.328125 0,-0.2578125 0.058594,-0.3984375 0.2929688,-0.99609376 z m 0,0"
         style="fill:#000000;fill-opacity:1;fill-rule:nonzero;stroke:none" />
      <path
         id="path53"
         d="m 5.7639453,-2.9345391 c 0,-0.1875 -0.011719,-0.1992187 -0.2109375,-0.1992187 -0.4453125,0.4335937 -1.078125,0.4453125 -1.359375,0.4453125 v 0.2460937 c 0.1640625,0 0.6210938,0 1.0078125,-0.1875 v 3.55078129 c 0,0.23437501 0,0.32812501 -0.6914062,0.32812501 H 4.2405078 v 0.2460937 c 0.1289063,-0.011719 0.984375,-0.023437 1.2421875,-0.023437 0.2109375,0 1.0898438,0.011719 1.2421875,0.023437 V 1.2490547 H 6.4670703 c -0.703125,0 -0.703125,-0.09375 -0.703125,-0.32812501 z m 0,0"
         style="fill:#000000;fill-opacity:1;fill-rule:nonzero;stroke:none" />
    </g>
    <path
       id="path54"
       d="m 196.72694,105.1667 h 31.74838 V 93.261 h -31.74838 z"
       style="fill:none;stroke:#000000;stroke-width:0.797;stroke-linecap:butt;stroke-linejoin:miter;stroke-miterlimit:10;stroke-dasharray:none;stroke-opacity:1"
       transform="matrix(1.3333333,0,0,-1.3333333,22.130667,309.74667)" />
    <path
       id="path55"
       d="m 2.9299375,-6.374875 c 0,-0.234375 0,-0.2578125 -0.234375,-0.2578125 C 2.0861875,-5.999875 1.2072812,-5.999875 0.890875,-5.999875 v 0.3164062 c 0.1992187,0 0.7851562,0 1.3007812,-0.2578125 v 5.15625005 c 0,0.3515625 -0.035156,0.48046875 -0.9257812,0.48046875 H 0.94946875 V 1.25e-4 C 1.3010312,-0.03503125 2.1565,-0.03503125 2.5549375,-0.03503125 c 0.3984375,0 1.265625,0 1.6171875,0.03515625 V -0.3045625 H 3.8557187 c -0.9023437,0 -0.9257812,-0.1171875 -0.9257812,-0.48046875 z M 13.374273,-1.6170625 H 13.12818 C 13.08131,-1.35925 13.04615,-1.124875 12.952398,-0.8905 c -0.04687,0.1640625 -0.08203,0.24609375 -0.65625,0.24609375 H 11.499273 C 11.62818,-1.2069063 11.932867,-1.687375 12.37818,-2.343625 c 0.46875,-0.703125 0.878906,-1.3945313 0.878906,-2.1796875 0,-1.3828125 -1.335938,-2.4960938 -3.023438,-2.4960938 -1.7109371,0 -3.0351558,1.1367188 -3.0351558,2.4960938 0,0.7851562 0.3984375,1.4765625 0.8671875,2.1796875 0.4453125,0.65625 0.7617187,1.1367187 0.890625,1.69921875 h -0.796875 c -0.5742188,0 -0.609375,-0.0820313 -0.65625,-0.234375 C 7.4211484,-1.1014375 7.3742734,-1.35925 7.3273984,-1.6170625 H 7.0695859 L 7.3977109,1.25e-4 h 1.59375 c 0.2226563,0 0.2578125,0 0.2578125,-0.2109375 0,-0.69140625 -0.3164062,-1.5703125 -0.5390625,-2.2148438 -0.2109375,-0.5742187 -0.4921875,-1.359375 -0.4921875,-2.109375 0,-1.59375 1.1015625,-2.2734375 2.0039066,-2.2734375 0.960937,0 2.015625,0.7265625 2.015625,2.2734375 0,0.75 -0.269532,1.5117188 -0.5625,2.3203125 -0.152344,0.421875 -0.46875,1.31250005 -0.46875,2.0039063 0,0.2109375 0.03516,0.2109375 0.257812,0.2109375 h 1.582031 z m 0,0"
       style="fill:#000000;fill-opacity:1;fill-rule:nonzero;stroke:none"
       aria-label="1Ω"
       transform="matrix(1.3333333,0,0,1.3333333,296.37467,164.43733)" />
    <path
       id="path56"
       d="M 240.06212,99.21385 V 97.2296 l 4.21655,1.98425 -4.21655,1.98425 z"
       style="fill:#000000;fill-opacity:1;fill-rule:nonzero;stroke:#000000;stroke-width:0.3985;stroke-linecap:butt;stroke-linejoin:miter;stroke-miterlimit:10;stroke-dasharray:none;stroke-opacity:1"
       transform="matrix(1.3333333,0,0,-1.3333333,22.130667,309.74667)" />
    <g
       id="g56"
       aria-label="i&#10;2"
       transform="matrix(1.3333333,0,0,1.3333333,339.26,170.776)">
      <path
         id="path57"
         d="m 2.8255078,-6.2216484 c 0,-0.1992188 -0.1289062,-0.3632813 -0.3632812,-0.3632813 -0.2695313,0 -0.5390625,0.2578125 -0.5390625,0.5273438 0,0.1875 0.140625,0.3632812 0.375,0.3632812 0.234375,0 0.5273437,-0.234375 0.5273437,-0.5273437 z m -0.75,3.7382812 c 0.1171875,-0.28125 0.1171875,-0.3046875 0.2226563,-0.5742187 0.070312,-0.1992188 0.1289062,-0.3398438 0.1289062,-0.5273438 0,-0.4453125 -0.328125,-0.8203125 -0.8203125,-0.8203125 -0.93749999,0 -1.31249999,1.453125 -1.31249999,1.5351563 0,0.1054687 0.09375,0.1054687 0.1171875,0.1054687 0.09375,0 0.10546875,-0.023437 0.15234375,-0.1875 0.26953125,-0.9375 0.66796874,-1.2304687 1.00781254,-1.2304687 0.082031,0 0.2578125,0 0.2578125,0.3164062 0,0.2109375 -0.070312,0.421875 -0.1171875,0.515625 -0.082031,0.2578125 -0.5273438,1.4179688 -0.6796875,1.8515625 -0.10546879,0.2578125 -0.23437504,0.58593751 -0.23437504,0.79687501 0,0.46875 0.33984374,0.80859375 0.82031254,0.80859375 0.9375,0 1.3007812,-1.44140626 1.3007812,-1.53515626 0,-0.09375 -0.09375,-0.09375 -0.1171875,-0.09375 -0.1054687,0 -0.1054687,0.023437 -0.1523437,0.1757813 -0.1757813,0.63281246 -0.5039063,1.24218746 -1.0195313,1.24218746 -0.1640625,0 -0.234375,-0.10546875 -0.234375,-0.328125 0,-0.2578125 0.058594,-0.3984375 0.2929688,-0.99609376 z m 0,0"
         style="fill:#000000;fill-opacity:1;fill-rule:nonzero;stroke:none" />
      <path
         id="path58"
         d="m 6.9475781,0.22952344 h -0.234375 c -0.023437,0.15234375 -0.082031,0.5625 -0.1757812,0.6328125 -0.058594,0.0351563 -0.5976563,0.0351563 -0.6914063,0.0351563 H 4.5569531 c 0.7382813,-0.64453125 0.984375,-0.84375 1.3945313,-1.171875 0.515625,-0.41015625 0.9960937,-0.84374994 0.9960937,-1.49999994 0,-0.8437501 -0.7382812,-1.3593751 -1.6289062,-1.3593751 -0.8671875,0 -1.453125,0.609375 -1.453125,1.2421876 0,0.3632812 0.3046875,0.3984375 0.375,0.3984375 0.1640625,0 0.375,-0.1171875 0.375,-0.375 0,-0.1289063 -0.058594,-0.3632814 -0.421875,-0.3632814 0.2226562,-0.5039062 0.6914062,-0.65625 1.0195312,-0.65625 0.703125,0 1.0664063,0.5507813 1.0664063,1.1132813 0,0.609375 -0.4335938,1.08984379 -0.65625,1.33593754 l -1.6875,1.66406246 c -0.070312,0.058594 -0.070312,0.070312 -0.070312,0.2695312 h 2.8828125 z m 0,0"
         style="fill:#000000;fill-opacity:1;fill-rule:nonzero;stroke:none" />
    </g>
    <path
       id="path59"
       d="m 170.08092,198.42773 v -33.73274 m 0,-31.74839 V 99.21387 63.49673 m 0,-27.77963 V 0"
       style="fill:none;stroke:#000000;stroke-width:0.3985;stroke-linecap:butt;stroke-linejoin:miter;stroke-miterlimit:10;stroke-dasharray:none;stroke-opacity:1"
       transform="matrix(1.3333333,0,0,-1.3333333,22.130667,309.74667)" />
    <path
       id="path60"
       d="m 164.12807,132.9466 v 31.74839 h 11.9057 V 132.9466 Z"
       style="fill:none;stroke:#000000;stroke-width:0.797;stroke-linecap:butt;stroke-linejoin:miter;stroke-miterlimit:10;stroke-dasharray:none;stroke-opacity:1"
       transform="matrix(1.3333333,0,0,-1.3333333,22.130667,309.74667)" />
    <path
       id="path61"
       d="M 1.2662188,-0.76295313 2.3209063,-1.7942031 c 1.5585937,-1.3710938 2.15625,-1.9101563 2.15625,-2.90625 0,-1.1367188 -0.9023438,-1.9335938 -2.1210938,-1.9335938 -1.125,0 -1.8515625,0.9140625 -1.8515625,1.8046875 0,0.5507813 0.4921875,0.5507813 0.5273438,0.5507813 0.1640625,0 0.515625,-0.1171875 0.515625,-0.5273438 0,-0.2578125 -0.1875,-0.515625 -0.5273438,-0.515625 -0.0820313,0 -0.10546875,0 -0.12890625,0.011719 0.22265625,-0.6445313 0.76171875,-1.0195313 1.33593755,-1.0195313 0.9140625,0 1.3359375,0.8085938 1.3359375,1.6289063 0,0.796875 -0.4921875,1.5820312 -1.0429688,2.203125 L 0.60996875,-0.36451563 C 0.5045,-0.25904688 0.5045,-0.23560938 0.5045,-0.00123438 h 3.6914063 l 0.28125,-1.73437502 H 4.2193438 c -0.046875,0.3046875 -0.1171875,0.73828127 -0.2109375,0.89062502 -0.070312,0.0820313 -0.7265625,0.0820313 -0.9492188,0.0820313 z M 13.374617,-1.6184219 h -0.246094 c -0.04687,0.2578125 -0.08203,0.4921875 -0.175781,0.72656252 -0.04687,0.1640625 -0.08203,0.24609375 -0.65625,0.24609375 h -0.796875 c 0.128906,-0.56249997 0.433594,-1.04296877 0.878906,-1.69921877 0.46875,-0.703125 0.878907,-1.3945312 0.878907,-2.1796875 0,-1.3828125 -1.335938,-2.4960937 -3.023438,-2.4960937 -1.7109373,0 -3.0351561,1.1367187 -3.0351561,2.4960937 0,0.7851563 0.3984375,1.4765625 0.8671875,2.1796875 0.4453125,0.65625 0.7617188,1.1367188 0.890625,1.69921877 h -0.796875 c -0.5742187,0 -0.609375,-0.0820313 -0.65625,-0.234375 C 7.4214922,-1.1027969 7.3746172,-1.3606094 7.3277422,-1.6184219 H 7.0699297 l 0.328125,1.61718752 h 1.59375 c 0.2226562,0 0.2578125,0 0.2578125,-0.2109375 0,-0.69140625 -0.3164063,-1.57031252 -0.5390625,-2.21484372 -0.2109375,-0.5742188 -0.4921875,-1.359375 -0.4921875,-2.109375 0,-1.59375 1.1015625,-2.2734375 2.0039058,-2.2734375 0.960938,0 2.015625,0.7265625 2.015625,2.2734375 0,0.75 -0.269531,1.5117187 -0.5625,2.3203125 -0.152343,0.421875 -0.46875,1.31249997 -0.46875,2.00390622 0,0.2109375 0.03516,0.2109375 0.257813,0.2109375 h 1.582031 z m 0,0"
       style="fill:#000000;fill-opacity:1;fill-rule:nonzero;stroke:none"
       aria-label="2Ω"
       transform="matrix(1.3333333,0,0,1.3333333,219.57733,114.18133)" />
    <path
       id="path62"
       d="m 170.08092,183.29758 h -1.98426 l 1.98426,-4.21656 1.98425,4.21656 z"
       style="fill:#000000;fill-opacity:1;fill-rule:nonzero;stroke:#000000;stroke-width:0.3985;stroke-linecap:butt;stroke-linejoin:miter;stroke-miterlimit:10;stroke-dasharray:none;stroke-opacity:1"
       transform="matrix(1.3333333,0,0,-1.3333333,22.130667,309.74667)" />
    <g
       id="g62"
       aria-label="i&#10;6"
       transform="matrix(1.3333333,0,0,1.3333333,253.59867,71.049333)">
      <path
         id="path63"
         d="m 2.8234609,-6.2215703 c 0,-0.1992188 -0.1289062,-0.3632813 -0.3632812,-0.3632813 -0.2695313,0 -0.5390625,0.2578125 -0.5390625,0.5273438 0,0.1875 0.140625,0.3632812 0.375,0.3632812 0.234375,0 0.5273437,-0.234375 0.5273437,-0.5273437 z m -0.75,3.7382812 c 0.1171875,-0.28125 0.1171875,-0.3046875 0.2226563,-0.5742187 0.070312,-0.1992188 0.1289062,-0.3398438 0.1289062,-0.5273438 0,-0.4453125 -0.328125,-0.8203125 -0.8203125,-0.8203125 -0.93749996,0 -1.31249996,1.453125 -1.31249996,1.5351563 0,0.1054687 0.09375,0.1054687 0.1171875,0.1054687 0.09375,0 0.10546875,-0.023437 0.15234375,-0.1875 0.26953125,-0.9375 0.66796871,-1.2304687 1.00781251,-1.2304687 0.082031,0 0.2578125,0 0.2578125,0.3164062 0,0.2109375 -0.070312,0.421875 -0.1171875,0.515625 -0.082031,0.2578125 -0.5273438,1.4179688 -0.6796875,1.8515625 -0.10546876,0.2578125 -0.23437501,0.58593754 -0.23437501,0.79687504 0,0.46875 0.33984371,0.80859375 0.82031251,0.80859375 0.9375,0 1.3007812,-1.44140629 1.3007812,-1.53515629 0,-0.09375 -0.09375,-0.09375 -0.1171875,-0.09375 -0.1054687,0 -0.1054687,0.023437 -0.1523437,0.1757813 -0.1757813,0.63281249 -0.5039063,1.24218749 -1.0195313,1.24218749 -0.1640625,0 -0.234375,-0.10546875 -0.234375,-0.328125 0,-0.2578125 0.058594,-0.3984375 0.2929688,-0.99609379 z m 0,0"
         style="fill:#000000;fill-opacity:1;fill-rule:nonzero;stroke:none" />
      <path
         id="path64"
         d="m 4.4758047,-0.78992969 c 0,-0.56250001 0.046875,-1.07812501 0.3164062,-1.51171871 0.234375,-0.375 0.609375,-0.6328125 1.0546875,-0.6328125 0.2109375,0 0.4921875,0.058594 0.6328125,0.2460937 -0.1757812,0.011719 -0.3164062,0.1289063 -0.3164062,0.3398438 0,0.1640625 0.1171875,0.328125 0.328125,0.328125 0.1992187,0 0.328125,-0.140625 0.328125,-0.3515625 0,-0.3984375 -0.2929688,-0.7617188 -0.984375,-0.7617188 -0.9960938,0 -2.0273438,0.9140625 -2.0273438,2.41406251 0,1.80468749 0.8554688,2.35546879 1.6171875,2.35546879 0.8554688,0 1.59375,-0.64453129 1.59375,-1.55859379 0,-0.890625 -0.703125,-1.54687501 -1.5234375,-1.54687501 -0.5507812,0 -0.8671875,0.375 -1.0195312,0.67968751 z M 5.4250234,1.4131953 c -0.3515625,0 -0.6210937,-0.1992187 -0.7617187,-0.51562499 C 4.5578359,0.69835156 4.4992422,0.34678906 4.4992422,-0.07508594 c 0,-0.6796875 0.4101562,-1.19531246 0.9609375,-1.19531246 0.328125,0 0.5390625,0.1171875 0.7148437,0.38671871 0.1640625,0.2578125 0.1757813,0.55078125 0.1757813,0.9609375 0,0.3984375 0,0.69140625 -0.1875,0.96093749 -0.1757813,0.2460938 -0.3984375,0.375 -0.7382813,0.375 z m 0,0"
         style="fill:#000000;fill-opacity:1;fill-rule:nonzero;stroke:none" />
    </g>
    <path
       id="path65"
       d="M 170.08092,63.49673 183.97073,49.60692 170.08092,35.7171 156.19109,49.60692 Z"
       style="fill:none;stroke:#000000;stroke-width:0.797;stroke-linecap:butt;stroke-linejoin:miter;stroke-miterlimit:10;stroke-dasharray:none;stroke-opacity:1"
       transform="matrix(1.3333333,0,0,-1.3333333,22.130667,309.74667)" />
    <path
       id="path66"
       d="M 170.08092,63.49673 V 35.7171"
       style="fill:none;stroke:#000000;stroke-width:0.797;stroke-linecap:butt;stroke-linejoin:miter;stroke-miterlimit:10;stroke-dasharray:none;stroke-opacity:1"
       transform="matrix(1.3333333,0,0,-1.3333333,22.130667,309.74667)" />
    <path
       id="path67"
       d="m 4.0778516,-2.2955 h 2.7773437 c 0.140625,0 0.328125,0 0.328125,-0.1992188 0,-0.1992187 -0.1875,-0.1992187 -0.328125,-0.1992187 H 4.0778516 V -5.483 c 0,-0.1289063 0,-0.328125 -0.1992188,-0.328125 -0.1992187,0 -0.1992187,0.1992187 -0.1992187,0.328125 v 2.7890625 H 0.89035156 c -0.140625,0 -0.328125,0 -0.328125,0.1992187 0,0.1992188 0.1875,0.1992188 0.328125,0.1992188 H 3.6794141 v 2.80078125 c 0,0.12890625 0,0.328125 0.1992187,0.328125 0.1992188,0 0.1992188,-0.19921875 0.1992188,-0.328125 z m 0,0"
       style="fill:#000000;fill-opacity:1;fill-rule:nonzero;stroke:none"
       aria-label="+"
       transform="matrix(1.3333333,0,0,1.3333333,219.29333,232.81067)" />
    <path
       id="path68"
       d="m 6.5622266,-2.2975781 c 0.1757812,0 0.3515625,0 0.3515625,-0.1992188 0,-0.1992187 -0.1757813,-0.1992187 -0.3515625,-0.1992187 h -5.390625 c -0.1640625,0 -0.33984379,0 -0.33984379,0.1992187 0,0.1992188 0.17578129,0.1992188 0.33984379,0.1992188 z m 0,0"
       style="fill:#000000;fill-opacity:1;fill-rule:nonzero;stroke:none"
       aria-label="−"
       transform="matrix(1.3333333,0,0,1.3333333,219.29333,261.04)" />
    <g
       id="g68"
       aria-label="2u"
       transform="matrix(1.3333333,0,0,1.3333333,203.58667,247.884)">
      <path
         id="path69"
         d="M 1.2650781,-0.76260938 2.3197656,-1.7938594 c 1.5585938,-1.3710937 2.15625,-1.9101562 2.15625,-2.90625 0,-1.1367187 -0.9023437,-1.9335937 -2.1210937,-1.9335937 -1.125,0 -1.85156253,0.9140625 -1.85156253,1.8046875 0,0.5507812 0.4921875,0.5507812 0.52734373,0.5507812 0.1640625,0 0.515625,-0.1171875 0.515625,-0.5273437 0,-0.2578125 -0.1875,-0.515625 -0.5273437,-0.515625 -0.0820313,0 -0.10546878,0 -0.12890628,0.011719 0.22265628,-0.6445312 0.76171878,-1.0195312 1.33593748,-1.0195312 0.9140625,0 1.3359375,0.8085937 1.3359375,1.6289062 0,0.796875 -0.4921875,1.5820313 -1.0429687,2.203125 L 0.60882812,-0.36417188 C 0.50335937,-0.25870313 0.50335937,-0.23526563 0.50335937,-8.90625e-4 H 4.1947656 L 4.4760156,-1.7352656 H 4.2182031 c -0.046875,0.3046875 -0.1171875,0.73828122 -0.2109375,0.89062497 -0.070312,0.0820313 -0.7265625,0.0820313 -0.9492187,0.0820313 z m 0,0"
         style="fill:#000000;fill-opacity:1;fill-rule:nonzero;stroke:none" />
      <path
         id="path70"
         d="m 8.4721094,-0.56339063 c 0.1054687,0.41015625 0.4570312,0.66796875 0.8789062,0.66796875 0.3515625,0 0.5742188,-0.22265625 0.7382814,-0.5390625 0.175781,-0.36328125 0.304687,-0.97265622 0.304687,-0.99609372 0,-0.09375 -0.09375,-0.09375 -0.128906,-0.09375 -0.09375,0 -0.105469,0.035156 -0.140625,0.1757812 -0.1289061,0.56250002 -0.3281249,1.24218752 -0.7382811,1.24218752 -0.2109375,0 -0.3164063,-0.12890625 -0.3164063,-0.45703125 0,-0.22265625 0.1289063,-0.69140627 0.1992188,-1.04296877 l 0.28125,-1.078125 c 0.035156,-0.140625 0.1289062,-0.5273437 0.1757812,-0.6679687 0.046875,-0.234375 0.140625,-0.609375 0.140625,-0.6679688 0,-0.1875 -0.140625,-0.2695312 -0.28125,-0.2695312 -0.058594,0 -0.3164062,0 -0.3867187,0.3398437 -0.1992188,0.7265625 -0.6328125,2.4726563 -0.75,3.00000002 -0.011719,0.046875 -0.4101563,0.84375 -1.1367188,0.84375 -0.515625,0 -0.6210937,-0.45703125 -0.6210937,-0.8203125 0,-0.56250002 0.28125,-1.34765622 0.5390625,-2.02734372 0.1171875,-0.3046875 0.1757812,-0.4453125 0.1757812,-0.6328125 0,-0.4453125 -0.328125,-0.8203125 -0.8203125,-0.8203125 -0.9492187,0 -1.3125,1.453125 -1.3125,1.5351562 0,0.1054688 0.09375,0.1054688 0.1171875,0.1054688 0.09375,0 0.1054688,-0.023437 0.1523438,-0.1875 0.2578125,-0.8671875 0.6328125,-1.2304688 1.0078125,-1.2304688 0.09375,0 0.2578125,0.011719 0.2578125,0.328125 0,0.234375 -0.1171875,0.5273438 -0.1757813,0.6796875 -0.3632812,0.984375 -0.5742187,1.6054688 -0.5742187,2.0859375 0,0.94921877 0.6796875,1.19531252 1.21875,1.19531252 0.65625,0 1.0195312,-0.4453125 1.1953125,-0.66796875 z m 0,0"
         style="fill:#000000;fill-opacity:1;fill-rule:nonzero;stroke:none" />
    </g>
    <path
       id="path71"
       d="m 170.08092,83.0915 h -1.98426 l 1.98426,-4.21653 1.98425,4.21653 z"
       style="fill:#000000;fill-opacity:1;fill-rule:nonzero;stroke:#000000;stroke-width:0.3985;stroke-linecap:butt;stroke-linejoin:miter;stroke-miterlimit:10;stroke-dasharray:none;stroke-opacity:1"
       transform="matrix(1.3333333,0,0,-1.3333333,22.130667,309.74667)" />
    <g
       id="g71"
       aria-label="i&#10;5"
       transform="matrix(1.3333333,0,0,1.3333333,253.59867,204.65733)">
      <path
         id="path72"
         d="m 2.8234609,-6.2234687 c 0,-0.1992188 -0.1289062,-0.3632813 -0.3632812,-0.3632813 -0.2695313,0 -0.5390625,0.2578125 -0.5390625,0.5273438 0,0.1875 0.140625,0.3632812 0.375,0.3632812 0.234375,0 0.5273437,-0.234375 0.5273437,-0.5273437 z m -0.75,3.7382812 C 2.1906484,-2.7664375 2.1906484,-2.789875 2.2961172,-3.0594062 2.3664297,-3.258625 2.4250234,-3.39925 2.4250234,-3.58675 c 0,-0.4453125 -0.328125,-0.8203125 -0.8203125,-0.8203125 -0.93749996,0 -1.31249996,1.453125 -1.31249996,1.5351563 0,0.1054687 0.09375,0.1054687 0.1171875,0.1054687 0.09375,0 0.10546875,-0.023437 0.15234375,-0.1875 0.26953125,-0.9375 0.66796871,-1.2304687 1.00781251,-1.2304687 0.082031,0 0.2578125,0 0.2578125,0.3164062 0,0.2109375 -0.070312,0.421875 -0.1171875,0.515625 -0.082031,0.2578125 -0.5273438,1.4179688 -0.6796875,1.8515625 -0.10546876,0.2578125 -0.23437501,0.5859375 -0.23437501,0.796875 0,0.46875 0.33984371,0.80859375 0.82031251,0.80859375 0.9375,0 1.3007812,-1.44140625 1.3007812,-1.53515625 0,-0.09375 -0.09375,-0.09375 -0.1171875,-0.09375 -0.1054687,0 -0.1054687,0.023437 -0.1523437,0.1757813 -0.1757813,0.63281245 -0.5039063,1.24218745 -1.0195313,1.24218745 -0.1640625,0 -0.234375,-0.10546875 -0.234375,-0.328125 0,-0.2578125 0.058594,-0.3984375 0.2929688,-0.99609375 z m 0,0"
         style="fill:#000000;fill-opacity:1;fill-rule:nonzero;stroke:none" />
      <path
         id="path73"
         d="m 4.5109609,-2.3972969 c 0.3632813,0.09375 0.5625,0.09375 0.6796875,0.09375 0.9140625,0 1.4648438,-0.6328125 1.4648438,-0.7382812 0,-0.070312 -0.046875,-0.09375 -0.082031,-0.09375 -0.011719,0 -0.035156,0 -0.058594,0.023437 -0.1640625,0.058594 -0.5390625,0.1992187 -1.0546875,0.1992187 -0.1992188,0 -0.5625,-0.011719 -1.0195313,-0.1875 -0.070312,-0.035156 -0.082031,-0.035156 -0.082031,-0.035156 -0.09375,0 -0.09375,0.070312 -0.09375,0.1875 v 2.06249998 c 0,0.1171875 0,0.19921875 0.1054687,0.19921875 0.070312,0 0.070312,-0.0117188 0.140625,-0.10546875 0.3046875,-0.37499998 0.7265625,-0.43359378 0.9726563,-0.43359378 0.421875,0 0.609375,0.33984378 0.6445312,0.38671878 0.1171875,0.234375 0.1640625,0.50390625 0.1640625,0.90234375 0,0.2109375 0,0.62109375 -0.2109375,0.92578125 -0.1757812,0.25781252 -0.46875,0.42187502 -0.8203125,0.42187502 -0.4453125,0 -0.9140625,-0.2578125 -1.0898437,-0.71484377 0.2695312,0.0234375 0.3984375,-0.15234375 0.3984375,-0.33984375 0,-0.3046875 -0.2578125,-0.3515625 -0.3515625,-0.3515625 -0.011719,0 -0.3515625,0 -0.3515625,0.375 0,0.62109372 0.5742187,1.25390622 1.4179687,1.25390622 0.890625,0 1.6640625,-0.66796872 1.6640625,-1.54687497 0,-0.78515625 -0.5976562,-1.51171873 -1.453125,-1.51171873 -0.3164062,0 -0.6796875,0.082031 -0.984375,0.3398437 z m 0,0"
         style="fill:#000000;fill-opacity:1;fill-rule:nonzero;stroke:none" />
    </g>
    <path
       id="path74"
       d="M 53.07631,63.17888 C 59.50148,83.77464 79.02144,94.39345 96.67496,86.89743 114.32846,79.40141 123.4303,56.62811 117.00514,36.03235 110.57997,15.43658 91.06001,4.81778 73.4065,12.3138 64.06818,16.27934 56.68645,24.81158 53.19653,35.65283"
       style="fill:none;stroke:#0000ff;stroke-width:0.3985;stroke-linecap:butt;stroke-linejoin:miter;stroke-miterlimit:10;stroke-dasharray:none;stroke-opacity:1"
       transform="matrix(1.3333333,0,0,-1.3333333,22.130667,309.74667)" />
    <path
       id="path75"
       d="M -2.07224,2.39104 C -1.69365,0.95639 -0.84999,0.27895 0,0 -0.84999,-0.27895 -1.69365,-0.95639 -2.07224,-2.39104"
       style="fill:none;stroke:#0000ff;stroke-width:0.3985;stroke-linecap:round;stroke-linejoin:round;stroke-miterlimit:10;stroke-dasharray:none;stroke-opacity:1"
       transform="matrix(-0.39709333,-1.2727467,-1.2727467,0.39709333,92.9782,261.95713)" />
    <g
       id="g75"
       aria-label="i&#10;m3"
       transform="matrix(1.3333333,0,0,1.3333333,97.592,265.084)">
      <path
         id="path76"
         d="m 2.8255312,-6.2212031 c 0,-0.1992188 -0.1289062,-0.3632813 -0.3632812,-0.3632813 -0.2695313,0 -0.5390625,0.2578125 -0.5390625,0.5273438 0,0.1875 0.140625,0.3632812 0.375,0.3632812 0.234375,0 0.5273437,-0.234375 0.5273437,-0.5273437 z m -0.75,3.7382812 c 0.1171875,-0.28125 0.1171875,-0.3046875 0.2226563,-0.5742187 0.070312,-0.1992188 0.1289062,-0.3398438 0.1289062,-0.5273438 0,-0.4453125 -0.328125,-0.8203125 -0.8203125,-0.8203125 -0.93749995,0 -1.31249995,1.453125 -1.31249995,1.5351563 0,0.1054687 0.09375,0.1054687 0.1171875,0.1054687 0.09375,0 0.10546875,-0.023437 0.15234375,-0.1875 0.26953125,-0.9375 0.6679687,-1.2304687 1.0078125,-1.2304687 0.082031,0 0.2578125,0 0.2578125,0.3164062 0,0.2109375 -0.070312,0.421875 -0.1171875,0.515625 -0.082031,0.2578125 -0.5273438,1.4179688 -0.6796875,1.8515625 -0.10546875,0.2578125 -0.234375,0.58593753 -0.234375,0.79687503 0,0.46875 0.3398437,0.80859375 0.8203125,0.80859375 0.9375,0 1.3007812,-1.44140628 1.3007812,-1.53515628 0,-0.09375 -0.09375,-0.09375 -0.1171875,-0.09375 -0.1054687,0 -0.1054687,0.023437 -0.1523437,0.1757813 -0.1757813,0.63281248 -0.5039063,1.24218748 -1.0195313,1.24218748 -0.1640625,0 -0.234375,-0.10546875 -0.234375,-0.328125 0,-0.2578125 0.058594,-0.3984375 0.2929688,-0.99609378 z m 0,0"
         style="fill:#0000ff;fill-opacity:1;fill-rule:nonzero;stroke:none" />
      <path
         id="path77"
         d="m 6.4554141,0.93016406 c -0.035156,0.14062504 -0.09375,0.37500004 -0.09375,0.41015624 0,0.1523438 0.1289062,0.2226563 0.234375,0.2226563 0.1289062,0 0.234375,-0.09375 0.2695312,-0.1523438 0.035156,-0.058594 0.09375,-0.2929687 0.1289063,-0.43359374 0.035156,-0.12890625 0.1171875,-0.45703125 0.1523437,-0.6328125 0.046875,-0.15234375 0.082031,-0.3046875 0.1171875,-0.45703125 0.082031,-0.3046875 0.082031,-0.31640625 0.2226563,-0.5390625 0.2226562,-0.33984375 0.5625,-0.73828121 1.1132812,-0.73828121 0.3867188,0 0.4101563,0.328125 0.4101563,0.49218746 0,0.421875 -0.3046875,1.1953125 -0.4101563,1.48828125 -0.082031,0.1875 -0.1054687,0.2578125 -0.1054687,0.375 0,0.36328129 0.3046875,0.59765629 0.65625,0.59765629 0.703125,0 1.0078124,-0.96093754 1.0078124,-1.06640629 0,-0.09375 -0.09375,-0.09375 -0.105469,-0.09375 -0.1054684,0 -0.1054684,0.046875 -0.1406247,0.1171875 C 9.7601016,1.0825078 9.4554141,1.3637578 9.1741641,1.3637578 c -0.140625,0 -0.1757813,-0.09375 -0.1757813,-0.2460937 0,-0.15234379 0.035156,-0.24609379 0.1640625,-0.56250004 0.082031,-0.2109375 0.375,-0.94921875 0.375,-1.34765625 0,-0.10546875 0,-0.39843751 -0.2578125,-0.59765621 -0.1289062,-0.09375 -0.328125,-0.1875 -0.65625,-0.1875 -0.6210937,0 -1.0078125,0.4101562 -1.2304687,0.70312496 C 7.3343203,-1.4721797 6.8421328,-1.5776484 6.4905703,-1.5776484 c -0.5859375,0 -0.9726562,0.3515625 -1.1835937,0.63281246 -0.046875,-0.48046876 -0.4570313,-0.63281246 -0.75,-0.63281246 -0.2929688,0 -0.4570313,0.2109375 -0.5507813,0.375 -0.1523437,0.25781246 -0.2460937,0.65624996 -0.2460937,0.69140621 0,0.0820313 0.09375,0.0820313 0.1171875,0.0820313 0.09375,0 0.1054687,-0.0117188 0.1523437,-0.19921875 0.1054688,-0.42187496 0.234375,-0.76171866 0.515625,-0.76171866 0.1757813,0 0.2226563,0.1523437 0.2226563,0.3398437 0,0.14062496 -0.058594,0.39843746 -0.1054688,0.58593746 -0.046875,0.1875 -0.1171875,0.46875 -0.1523437,0.62109375 L 4.2874453,1.0590703 c -0.035156,0.082031 -0.070312,0.2578125 -0.070312,0.28125 0,0.1523438 0.1171875,0.2226563 0.234375,0.2226563 0.1289063,0 0.234375,-0.09375 0.2695313,-0.1523438 0.035156,-0.058594 0.09375,-0.2929687 0.1289062,-0.43359374 0.035156,-0.12890625 0.1054688,-0.45703125 0.1523438,-0.6328125 0.035156,-0.15234375 0.082031,-0.3046875 0.1171875,-0.45703125 0.082031,-0.29296875 0.09375,-0.3515625 0.2929687,-0.6328125 0.1992188,-0.28125001 0.5273438,-0.64453121 1.0429688,-0.64453121 0.4101562,0 0.4101562,0.3632812 0.4101562,0.49218746 0,0.17578125 -0.011719,0.26953125 -0.1171875,0.65625 z m 0,0"
         style="fill:#0000ff;fill-opacity:1;fill-rule:nonzero;stroke:none" />
      <path
         id="path78"
         d="m 12.39975,-0.83936719 c 0.550781,0 0.9375,0.375 0.9375,1.125 0,0.86718749 -0.503906,1.12499999 -0.902344,1.12499999 -0.28125,0 -0.890625,-0.082031 -1.183594,-0.49218749 0.328125,-0.0117188 0.398438,-0.24609375 0.398438,-0.38671875 0,-0.22265625 -0.164063,-0.38671875 -0.386719,-0.38671875 -0.1875,0 -0.386719,0.1171875 -0.386719,0.41015625 0,0.65625004 0.726563,1.07812504 1.570313,1.07812504 0.972656,0 1.640625,-0.64453129 1.640625,-1.34765629 0,-0.5390625 -0.445313,-1.08984375 -1.21875,-1.2421875 0.738281,-0.26953121 0.996094,-0.79687501 0.996094,-1.21875001 0,-0.5507812 -0.632813,-0.9609375 -1.40625,-0.9609375 -0.773438,0 -1.359375,0.375 -1.359375,0.9375 0,0.234375 0.152343,0.3632813 0.363281,0.3632813 0.210937,0 0.351562,-0.1640625 0.351562,-0.3515625 0,-0.1992188 -0.140625,-0.3515625 -0.351562,-0.3632813 0.234375,-0.3046875 0.714844,-0.3867187 0.972656,-0.3867187 0.316406,0 0.761719,0.1523437 0.761719,0.7617187 0,0.2929688 -0.105469,0.609375 -0.28125,0.8320313 -0.234375,0.2578125 -0.421875,0.28125 -0.773438,0.2929687 -0.175781,0.023437 -0.1875,0.023437 -0.222656,0.023437 -0.01172,0 -0.07031,0.011719 -0.07031,0.09375 0,0.09375 0.05859,0.09375 0.175781,0.09375 z m 0,0"
         style="fill:#0000ff;fill-opacity:1;fill-rule:nonzero;stroke:none" />
    </g>
    <path
       id="path79"
       d="m 188.62772,59.78627 c 4.819,15.4472 19.45935,23.41153 32.69981,17.78937 13.24047,-5.62216 20.06702,-22.70258 15.24802,-38.14977 -4.81899,-15.4472 -19.45934,-23.41154 -32.6998,-17.78938 -6.97667,2.96268 -12.49725,9.32385 -15.12718,17.40991"
       style="fill:none;stroke:#0000ff;stroke-width:0.3985;stroke-linecap:butt;stroke-linejoin:miter;stroke-miterlimit:10;stroke-dasharray:none;stroke-opacity:1"
       transform="matrix(1.3333333,0,0,-1.3333333,22.130667,309.74667)" />
    <path
       id="path80"
       d="M -2.07224,2.39104 C -1.69365,0.95639 -0.84999,0.27895 0,0 -0.84999,-0.27895 -1.69365,-0.95639 -2.07224,-2.39104"
       style="fill:none;stroke:#0000ff;stroke-width:0.3985;stroke-linecap:round;stroke-linejoin:round;stroke-miterlimit:10;stroke-dasharray:none;stroke-opacity:1"
       transform="matrix(-0.39709333,-1.2727467,-1.2727467,0.39709333,273.71341,257.43244)" />
    <g
       id="g80"
       aria-label="i&#10;m4"
       transform="matrix(1.3333333,0,0,1.3333333,278.328,260.56133)">
      <path
         id="path81"
         d="m 2.8243125,-6.2217812 c 0,-0.1992188 -0.1289062,-0.3632813 -0.3632812,-0.3632813 -0.2695313,0 -0.5390625,0.2578125 -0.5390625,0.5273438 0,0.1875 0.140625,0.3632812 0.375,0.3632812 0.234375,0 0.5273437,-0.234375 0.5273437,-0.5273437 z m -0.75,3.7382812 C 2.1915,-2.76475 2.1915,-2.7881875 2.2969688,-3.0577187 2.3672813,-3.2569375 2.425875,-3.3975625 2.425875,-3.5850625 c 0,-0.4453125 -0.328125,-0.8203125 -0.8203125,-0.8203125 -0.9375,0 -1.3125,1.453125 -1.3125,1.5351563 0,0.1054687 0.09375,0.1054687 0.1171875,0.1054687 0.09375,0 0.10546875,-0.023437 0.15234375,-0.1875 0.26953125,-0.9375 0.66796875,-1.2304687 1.00781255,-1.2304687 0.082031,0 0.2578125,0 0.2578125,0.3164062 0,0.2109375 -0.070312,0.421875 -0.1171875,0.515625 C 1.629,-3.092875 1.1836875,-1.9327187 1.0313438,-1.499125 0.925875,-1.2413125 0.79696875,-0.9131875 0.79696875,-0.70225 c 0,0.46875 0.33984375,0.80859375 0.82031255,0.80859375 0.9375,0 1.3007812,-1.44140625 1.3007812,-1.53515625 0,-0.09375 -0.09375,-0.09375 -0.1171875,-0.09375 -0.1054687,0 -0.1054687,0.023437 -0.1523437,0.1757813 C 2.47275,-0.71396875 2.144625,-0.10459375 1.629,-0.10459375 c -0.1640625,0 -0.234375,-0.10546875 -0.234375,-0.328125 0,-0.2578125 0.058594,-0.3984375 0.2929688,-0.99609375 z m 0,0"
         style="fill:#0000ff;fill-opacity:1;fill-rule:nonzero;stroke:none" />
      <path
         id="path82"
         d="m 6.4541953,0.93251563 c -0.035156,0.14062497 -0.09375,0.37499997 -0.09375,0.41015627 0,0.1523437 0.1289063,0.2226562 0.234375,0.2226562 0.1289063,0 0.234375,-0.09375 0.2695313,-0.1523437 0.035156,-0.058594 0.09375,-0.2929688 0.1289062,-0.43359377 0.035156,-0.12890625 0.1171875,-0.45703125 0.1523438,-0.6328125 0.046875,-0.15234375 0.082031,-0.3046875 0.1171875,-0.45703125 0.082031,-0.3046875 0.082031,-0.31640625 0.2226562,-0.5390625 0.2226563,-0.33984375 0.5625,-0.73828128 1.1132813,-0.73828128 0.3867187,0 0.4101562,0.328125 0.4101562,0.49218753 0,0.421875 -0.3046875,1.1953125 -0.4101562,1.48828125 -0.082031,0.1875 -0.1054688,0.2578125 -0.1054688,0.375 0,0.36328122 0.3046875,0.59765622 0.65625,0.59765622 0.703125,0 1.0078122,-0.96093747 1.0078122,-1.06640622 0,-0.09375 -0.09375,-0.09375 -0.105468,-0.09375 -0.1054692,0 -0.1054692,0.046875 -0.1406254,0.1171875 C 9.7588828,1.0848594 9.4541953,1.3661094 9.1729453,1.3661094 c -0.140625,0 -0.1757812,-0.09375 -0.1757812,-0.2460938 0,-0.15234372 0.035156,-0.24609372 0.1640625,-0.56249997 0.082031,-0.2109375 0.375,-0.94921875 0.375,-1.34765625 0,-0.10546875 0,-0.39843748 -0.2578125,-0.59765628 -0.1289063,-0.09375 -0.328125,-0.1875 -0.65625,-0.1875 -0.6210938,0 -1.0078125,0.4101563 -1.2304688,0.70312503 C 7.3331016,-1.4698281 6.8409141,-1.5752969 6.4893516,-1.5752969 c -0.5859375,0 -0.9726563,0.3515625 -1.1835938,0.63281253 -0.046875,-0.48046873 -0.4570312,-0.63281253 -0.75,-0.63281253 -0.2929687,0 -0.4570312,0.2109375 -0.5507812,0.375 -0.1523438,0.25781253 -0.2460938,0.65625003 -0.2460938,0.69140628 0,0.0820312 0.09375,0.0820312 0.1171875,0.0820312 0.09375,0 0.1054688,-0.0117188 0.1523438,-0.19921875 0.1054687,-0.42187503 0.234375,-0.76171883 0.515625,-0.76171883 0.1757812,0 0.2226562,0.1523438 0.2226562,0.3398438 0,0.14062503 -0.058594,0.39843753 -0.1054687,0.58593753 -0.046875,0.1875 -0.1171875,0.46875 -0.1523438,0.62109375 L 4.2862266,1.0614219 c -0.035156,0.082031 -0.070312,0.2578125 -0.070312,0.28125 0,0.1523437 0.1171875,0.2226562 0.234375,0.2226562 0.1289062,0 0.234375,-0.09375 0.2695312,-0.1523437 0.035156,-0.058594 0.09375,-0.2929688 0.1289063,-0.43359377 0.035156,-0.12890625 0.1054687,-0.45703125 0.1523437,-0.6328125 0.035156,-0.15234375 0.082031,-0.3046875 0.1171875,-0.45703125 0.082031,-0.29296875 0.09375,-0.3515625 0.2929688,-0.6328125 0.1992187,-0.28124998 0.5273437,-0.64453128 1.0429687,-0.64453128 0.4101563,0 0.4101563,0.3632813 0.4101563,0.49218753 0,0.17578125 -0.011719,0.26953125 -0.1171875,0.65625 z m 0,0"
         style="fill:#0000ff;fill-opacity:1;fill-rule:nonzero;stroke:none" />
      <path
         id="path83"
         d="M 14.19443,0.34657813 V 0.10048438 H 13.420992 V -3.0049844 c 0,-0.1523437 0,-0.1992187 -0.152344,-0.1992187 -0.09375,0 -0.117187,0 -0.1875,0.09375 l -2.308593,3.21093748 v 0.24609375 h 2.050781 v 0.57421875 c 0,0.23437502 0,0.32812502 -0.5625,0.32812502 h -0.1875 v 0.2460937 c 0.351562,-0.011719 0.796875,-0.023437 1.042969,-0.023437 0.257812,0 0.703125,0.011719 1.054687,0.023437 V 1.2489219 h -0.1875 c -0.5625,0 -0.5625,-0.09375 -0.5625,-0.32812502 V 0.34657813 Z M 12.870211,-2.4542031 v 2.55468748 h -1.839844 z m 0,0"
         style="fill:#0000ff;fill-opacity:1;fill-rule:nonzero;stroke:none" />
    </g>
    <path
       id="path84"
       d="m 188.62772,159.00014 c 4.819,15.4472 19.45935,23.41154 32.69981,17.78938 13.24047,-5.62216 20.06702,-22.70258 15.24802,-38.14978 -4.81899,-15.4472 -19.45934,-23.41153 -32.6998,-17.78937 -6.97667,2.96265 -12.49725,9.32385 -15.12718,17.4099"
       style="fill:none;stroke:#0000ff;stroke-width:0.3985;stroke-linecap:butt;stroke-linejoin:miter;stroke-miterlimit:10;stroke-dasharray:none;stroke-opacity:1"
       transform="matrix(1.3333333,0,0,-1.3333333,22.130667,309.74667)" />
    <path
       id="path85"
       d="M -2.07224,2.39104 C -1.69365,0.95639 -0.84999,0.27895 0,0 -0.84999,-0.27895 -1.69365,-0.95639 -2.07224,-2.39104"
       style="fill:none;stroke:#0000ff;stroke-width:0.3985;stroke-linecap:round;stroke-linejoin:round;stroke-miterlimit:10;stroke-dasharray:none;stroke-opacity:1"
       transform="matrix(-0.39709333,-1.2727467,-1.2727467,0.39709333,273.71341,125.14727)" />
    <g
       id="g85"
       aria-label="i&#10;m2"
       transform="matrix(1.3333333,0,0,1.3333333,278.328,128.276)">
      <path
         id="path86"
         d="m 2.8243125,-6.2216484 c 0,-0.1992188 -0.1289062,-0.3632813 -0.3632812,-0.3632813 -0.2695313,0 -0.5390625,0.2578125 -0.5390625,0.5273438 0,0.1875 0.140625,0.3632812 0.375,0.3632812 0.234375,0 0.5273437,-0.234375 0.5273437,-0.5273437 z m -0.75,3.7382812 C 2.1915,-2.7646172 2.1915,-2.7880547 2.2969688,-3.0575859 2.3672813,-3.2568047 2.425875,-3.3974297 2.425875,-3.5849297 c 0,-0.4453125 -0.328125,-0.8203125 -0.8203125,-0.8203125 -0.9375,0 -1.3125,1.453125 -1.3125,1.5351563 0,0.1054687 0.09375,0.1054687 0.1171875,0.1054687 0.09375,0 0.10546875,-0.023437 0.15234375,-0.1875 0.26953125,-0.9375 0.66796875,-1.2304687 1.00781255,-1.2304687 0.082031,0 0.2578125,0 0.2578125,0.3164062 0,0.2109375 -0.070312,0.421875 -0.1171875,0.515625 -0.082031,0.2578125 -0.5273438,1.4179688 -0.6796875,1.8515625 -0.1054688,0.2578125 -0.23437505,0.58593751 -0.23437505,0.79687501 0,0.46875 0.33984375,0.80859375 0.82031255,0.80859375 0.9375,0 1.3007812,-1.44140626 1.3007812,-1.53515626 0,-0.09375 -0.09375,-0.09375 -0.1171875,-0.09375 -0.1054687,0 -0.1054687,0.023437 -0.1523437,0.1757813 C 2.47275,-0.71383594 2.144625,-0.10446094 1.629,-0.10446094 c -0.1640625,0 -0.234375,-0.10546875 -0.234375,-0.328125 0,-0.2578125 0.058594,-0.3984375 0.2929688,-0.99609376 z m 0,0"
         style="fill:#0000ff;fill-opacity:1;fill-rule:nonzero;stroke:none" />
      <path
         id="path87"
         d="m 6.4541953,0.93264844 c -0.035156,0.14062496 -0.09375,0.37499996 -0.09375,0.41015626 0,0.1523437 0.1289063,0.2226562 0.234375,0.2226562 0.1289063,0 0.234375,-0.09375 0.2695313,-0.1523437 0.035156,-0.058594 0.09375,-0.2929688 0.1289062,-0.43359376 0.035156,-0.12890625 0.1171875,-0.45703125 0.1523438,-0.6328125 0.046875,-0.15234375 0.082031,-0.3046875 0.1171875,-0.45703125 0.082031,-0.3046875 0.082031,-0.31640625 0.2226562,-0.5390625 0.2226563,-0.33984375 0.5625,-0.73828129 1.1132813,-0.73828129 0.3867187,0 0.4101562,0.328125 0.4101562,0.49218754 0,0.421875 -0.3046875,1.1953125 -0.4101562,1.48828125 -0.082031,0.1875 -0.1054688,0.2578125 -0.1054688,0.375 0,0.36328121 0.3046875,0.59765621 0.65625,0.59765621 0.703125,0 1.0078122,-0.96093746 1.0078122,-1.06640621 0,-0.09375 -0.09375,-0.09375 -0.105468,-0.09375 -0.1054692,0 -0.1054692,0.046875 -0.1406254,0.1171875 C 9.7588828,1.0849922 9.4541953,1.3662422 9.1729453,1.3662422 c -0.140625,0 -0.1757812,-0.09375 -0.1757812,-0.2460938 0,-0.15234371 0.035156,-0.24609371 0.1640625,-0.56249996 0.082031,-0.2109375 0.375,-0.94921875 0.375,-1.34765625 0,-0.10546875 0,-0.39843749 -0.2578125,-0.59765629 -0.1289063,-0.09375 -0.328125,-0.1875 -0.65625,-0.1875 -0.6210938,0 -1.0078125,0.4101563 -1.2304688,0.70312504 C 7.3331016,-1.4696953 6.8409141,-1.5751641 6.4893516,-1.5751641 c -0.5859375,0 -0.9726563,0.3515625 -1.1835938,0.63281254 -0.046875,-0.48046874 -0.4570312,-0.63281254 -0.75,-0.63281254 -0.2929687,0 -0.4570312,0.2109375 -0.5507812,0.375 -0.1523438,0.25781254 -0.2460938,0.65625004 -0.2460938,0.69140629 0,0.0820313 0.09375,0.0820313 0.1171875,0.0820313 0.09375,0 0.1054688,-0.0117188 0.1523438,-0.19921875 0.1054687,-0.42187494 0.234375,-0.76171884 0.515625,-0.76171884 0.1757812,0 0.2226562,0.1523438 0.2226562,0.3398438 0,0.14062504 -0.058594,0.39843754 -0.1054687,0.58593754 -0.046875,0.1875 -0.1171875,0.46875 -0.1523438,0.62109375 L 4.2862266,1.0615547 c -0.035156,0.082031 -0.070312,0.2578125 -0.070312,0.28125 0,0.1523437 0.1171875,0.2226562 0.234375,0.2226562 0.1289062,0 0.234375,-0.09375 0.2695312,-0.1523437 0.035156,-0.058594 0.09375,-0.2929688 0.1289063,-0.43359376 0.035156,-0.12890625 0.1054687,-0.45703125 0.1523437,-0.6328125 0.035156,-0.15234375 0.082031,-0.3046875 0.1171875,-0.45703125 0.082031,-0.29296875 0.09375,-0.3515625 0.2929688,-0.6328125 0.1992187,-0.28124999 0.5273437,-0.64453129 1.0429687,-0.64453129 0.4101563,0 0.4101563,0.3632813 0.4101563,0.49218754 0,0.17578125 -0.011719,0.26953125 -0.1171875,0.65625 z m 0,0"
         style="fill:#0000ff;fill-opacity:1;fill-rule:nonzero;stroke:none" />
      <path
         id="path88"
         d="m 14.018648,0.22952344 h -0.234375 c -0.02344,0.15234375 -0.08203,0.5625 -0.175781,0.6328125 -0.05859,0.0351563 -0.597656,0.0351563 -0.691406,0.0351563 h -1.289063 c 0.738282,-0.64453125 0.984375,-0.84375 1.394532,-1.171875 0.515625,-0.41015625 0.996093,-0.84374994 0.996093,-1.49999994 0,-0.8437501 -0.738281,-1.3593751 -1.628906,-1.3593751 -0.867187,0 -1.453125,0.609375 -1.453125,1.2421876 0,0.3632812 0.304688,0.3984375 0.375,0.3984375 0.164063,0 0.375,-0.1171875 0.375,-0.375 0,-0.1289063 -0.05859,-0.3632814 -0.421875,-0.3632814 0.222656,-0.5039062 0.691406,-0.65625 1.019531,-0.65625 0.703125,0 1.066407,0.5507813 1.066407,1.1132813 0,0.609375 -0.433594,1.08984379 -0.65625,1.33593754 l -1.6875,1.66406246 c -0.07031,0.058594 -0.07031,0.070312 -0.07031,0.2695312 h 2.882813 z m 0,0"
         style="fill:#0000ff;fill-opacity:1;fill-rule:nonzero;stroke:none" />
    </g>
    <path
       id="path89"
       d="m 103.58727,159.00014 c 4.819,15.4472 19.45933,23.41154 32.69979,17.78938 13.24047,-5.62216 20.06704,-22.70258 15.24804,-38.14978 -4.819,-15.4472 -19.45934,-23.41153 -32.69982,-17.78937 -6.97667,2.96265 -12.49724,9.32385 -15.1272,17.4099"
       style="fill:none;stroke:#0000ff;stroke-width:0.3985;stroke-linecap:butt;stroke-linejoin:miter;stroke-miterlimit:10;stroke-dasharray:none;stroke-opacity:1"
       transform="matrix(1.3333333,0,0,-1.3333333,22.130667,309.74667)" />
    <path
       id="path90"
       d="M -2.07224,2.39104 C -1.69365,0.95639 -0.84999,0.27895 0,0 -0.84999,-0.27895 -1.69365,-0.95639 -2.07224,-2.39104"
       style="fill:none;stroke:#0000ff;stroke-width:0.3985;stroke-linecap:round;stroke-linejoin:round;stroke-miterlimit:10;stroke-dasharray:none;stroke-opacity:1"
       transform="matrix(-0.39709333,-1.2727467,-1.2727467,0.39709333,160.32612,125.14727)" />
    <g
       id="g90"
       aria-label="i&#10;m1"
       transform="matrix(1.3333333,0,0,1.3333333,164.94,128.276)">
      <path
         id="path91"
         d="m 2.8252734,-6.2216484 c 0,-0.1992188 -0.1289062,-0.3632813 -0.3632812,-0.3632813 -0.2695313,0 -0.5390625,0.2578125 -0.5390625,0.5273438 0,0.1875 0.140625,0.3632812 0.375,0.3632812 0.234375,0 0.5273437,-0.234375 0.5273437,-0.5273437 z m -0.75,3.7382812 c 0.1171875,-0.28125 0.1171875,-0.3046875 0.2226563,-0.5742187 0.070312,-0.1992188 0.1289062,-0.3398438 0.1289062,-0.5273438 0,-0.4453125 -0.328125,-0.8203125 -0.8203125,-0.8203125 -0.93749996,0 -1.31249996,1.453125 -1.31249996,1.5351563 0,0.1054687 0.09375,0.1054687 0.1171875,0.1054687 0.09375,0 0.10546875,-0.023437 0.15234375,-0.1875 0.26953125,-0.9375 0.66796871,-1.2304687 1.00781251,-1.2304687 0.082031,0 0.2578125,0 0.2578125,0.3164062 0,0.2109375 -0.070312,0.421875 -0.1171875,0.515625 -0.082031,0.2578125 -0.5273438,1.4179688 -0.6796875,1.8515625 -0.10546876,0.2578125 -0.23437501,0.58593751 -0.23437501,0.79687501 0,0.46875 0.33984371,0.80859375 0.82031251,0.80859375 0.9375,0 1.3007812,-1.44140626 1.3007812,-1.53515626 0,-0.09375 -0.09375,-0.09375 -0.1171875,-0.09375 -0.1054687,0 -0.1054687,0.023437 -0.1523437,0.1757813 -0.1757813,0.63281246 -0.5039063,1.24218746 -1.0195313,1.24218746 -0.1640625,0 -0.234375,-0.10546875 -0.234375,-0.328125 0,-0.2578125 0.058594,-0.3984375 0.2929688,-0.99609376 z m 0,0"
         style="fill:#0000ff;fill-opacity:1;fill-rule:nonzero;stroke:none" />
      <path
         id="path92"
         d="M 6.4551563,0.93264844 C 6.42,1.0732734 6.3614063,1.3076484 6.3614063,1.3428047 c 0,0.1523437 0.1289062,0.2226562 0.234375,0.2226562 0.1289062,0 0.234375,-0.09375 0.2695312,-0.1523437 0.035156,-0.058594 0.09375,-0.2929688 0.1289063,-0.43359376 0.035156,-0.12890625 0.1171875,-0.45703125 0.1523437,-0.6328125 0.046875,-0.15234375 0.082031,-0.3046875 0.1171875,-0.45703125 0.082031,-0.3046875 0.082031,-0.31640625 0.2226563,-0.5390625 0.2226562,-0.33984375 0.5625,-0.73828129 1.1132812,-0.73828129 0.3867188,0 0.4101563,0.328125 0.4101563,0.49218754 0,0.421875 -0.3046875,1.1953125 -0.4101563,1.48828125 -0.082031,0.1875 -0.1054687,0.2578125 -0.1054687,0.375 0,0.36328121 0.3046875,0.59765621 0.65625,0.59765621 0.703125,0 1.0078122,-0.96093746 1.0078122,-1.06640621 0,-0.09375 -0.09375,-0.09375 -0.105468,-0.09375 -0.1054692,0 -0.1054692,0.046875 -0.1406255,0.1171875 C 9.7598438,1.0849922 9.4551563,1.3662422 9.1739063,1.3662422 c -0.140625,0 -0.1757813,-0.09375 -0.1757813,-0.2460938 0,-0.15234371 0.035156,-0.24609371 0.1640625,-0.56249996 0.082031,-0.2109375 0.375,-0.94921875 0.375,-1.34765625 0,-0.10546875 0,-0.39843749 -0.2578125,-0.59765629 -0.1289062,-0.09375 -0.328125,-0.1875 -0.65625,-0.1875 -0.6210937,0 -1.0078125,0.4101563 -1.2304687,0.70312504 C 7.3340625,-1.4696953 6.841875,-1.5751641 6.4903125,-1.5751641 c -0.5859375,0 -0.9726562,0.3515625 -1.1835937,0.63281254 -0.046875,-0.48046874 -0.4570313,-0.63281254 -0.75,-0.63281254 -0.2929688,0 -0.4570313,0.2109375 -0.5507813,0.375 -0.1523437,0.25781254 -0.2460937,0.65625004 -0.2460937,0.69140629 0,0.0820313 0.09375,0.0820313 0.1171875,0.0820313 0.09375,0 0.1054687,-0.0117188 0.1523437,-0.19921875 C 4.1348438,-1.0478203 4.26375,-1.3876641 4.545,-1.3876641 c 0.1757813,0 0.2226563,0.1523438 0.2226563,0.3398438 0,0.14062499 -0.058594,0.39843749 -0.1054688,0.58593749 -0.046875,0.1875 -0.1171875,0.46875 -0.1523437,0.62109375 L 4.2871875,1.0615547 c -0.035156,0.082031 -0.070312,0.2578125 -0.070312,0.28125 0,0.1523437 0.1171875,0.2226562 0.234375,0.2226562 0.1289063,0 0.234375,-0.09375 0.2695313,-0.1523437 0.035156,-0.058594 0.09375,-0.2929688 0.1289062,-0.43359376 0.035156,-0.12890625 0.1054688,-0.45703125 0.1523438,-0.6328125 0.035156,-0.15234375 0.082031,-0.3046875 0.1171875,-0.45703125 0.082031,-0.29296875 0.09375,-0.3515625 0.2929687,-0.6328125 0.1992188,-0.28124999 0.5273438,-0.64453129 1.0429688,-0.64453129 0.4101562,0 0.4101562,0.3632813 0.4101562,0.49218754 0,0.17578125 -0.011719,0.26953125 -0.1171875,0.65625 z m 0,0"
         style="fill:#0000ff;fill-opacity:1;fill-rule:nonzero;stroke:none" />
      <path
         id="path93"
         d="m 12.833086,-2.9345391 c 0,-0.1875 -0.01172,-0.1992187 -0.210938,-0.1992187 -0.445312,0.4335937 -1.078125,0.4453125 -1.359375,0.4453125 v 0.2460937 c 0.164063,0 0.621094,0 1.007813,-0.1875 v 3.55078129 c 0,0.23437501 0,0.32812501 -0.691406,0.32812501 h -0.269532 v 0.2460937 c 0.128907,-0.011719 0.984375,-0.023437 1.242188,-0.023437 0.210937,0 1.089844,0.011719 1.242187,0.023437 V 1.2490547 h -0.257812 c -0.703125,0 -0.703125,-0.09375 -0.703125,-0.32812501 z m 0,0"
         style="fill:#0000ff;fill-opacity:1;fill-rule:nonzero;stroke:none" />
    </g>
  </g>
</svg>
