<?xml version="1.0" encoding="UTF-8" standalone="no"?>
<!-- Created with Inkscape (http://www.inkscape.org/) -->

<svg
   version="1.1"
   id="svg1"
   width="644.28003"
   height="202.72"
   viewBox="0 0 644.28003 202.72"
   sodipodi:docname="24-25-2-电路分析基础-期中-题图4.pdf"
   xmlns:inkscape="http://www.inkscape.org/namespaces/inkscape"
   xmlns:sodipodi="http://sodipodi.sourceforge.net/DTD/sodipodi-0.dtd"
   xmlns="http://www.w3.org/2000/svg"
   xmlns:svg="http://www.w3.org/2000/svg">
  <defs
     id="defs1" />
  <sodipodi:namedview
     id="namedview1"
     pagecolor="#ffffff"
     bordercolor="#000000"
     borderopacity="0.25"
     inkscape:showpageshadow="2"
     inkscape:pageopacity="0.0"
     inkscape:pagecheckerboard="0"
     inkscape:deskcolor="#d1d1d1">
    <inkscape:page
       x="0"
       y="0"
       inkscape:label="1"
       id="page1"
       width="644.28003"
       height="202.72"
       margin="0"
       bleed="0" />
  </sodipodi:namedview>
  <g
     id="g1"
     inkscape:groupmode="layer"
     inkscape:label="1">
    <path
       id="path1"
       d="m -40.68884,-14.61378 v 152.04254 h 483.2146 V -14.61378 Z"
       style="fill:#ffffff;fill-opacity:1;fill-rule:nonzero;stroke:none"
       transform="matrix(1.3333333,0,0,-1.3333333,54.250667,183.23467)" />
    <path
       id="path2"
       d="m 0,0 h 49.60692 m 0,0 h 49.60695 99.21385 m 0,0 h 99.2139 99.21386 v 44.7879 m 0,23.81145 v 44.78793 l -33.73275,-1e-5 m -31.74839,0 -33.73272,1e-5 -83.33971,-1e-5 m -31.74838,0 -83.33966,1e-5 -33.73276,-1e-5 m -31.74838,0 L 0,113.38728 V 68.59935 M 0,44.7879 V 0"
       style="fill:none;stroke:#000000;stroke-width:0.3985;stroke-linecap:butt;stroke-linejoin:miter;stroke-miterlimit:10;stroke-dasharray:none;stroke-opacity:1"
       transform="matrix(1.3333333,0,0,-1.3333333,54.250667,183.23467)" />
    <path
       id="path3"
       d="m 100.80101,0 c 0,0.87656 -0.71059,1.58714 -1.58714,1.58714 -0.87656,0 -1.58715,-0.71058 -1.58715,-1.58714 0,-0.87656 0.71059,-1.58714 1.58715,-1.58714 0.87655,0 1.58714,0.71058 1.58714,1.58714 z"
       style="fill:#000000;fill-opacity:1;fill-rule:nonzero;stroke:#000000;stroke-width:0.3985;stroke-linecap:butt;stroke-linejoin:miter;stroke-miterlimit:10;stroke-dasharray:none;stroke-opacity:1"
       transform="matrix(1.3333333,0,0,-1.3333333,54.250667,183.23467)" />
    <path
       id="path4"
       d="m 299.22876,0 c 0,0.87656 -0.71059,1.58714 -1.58714,1.58714 -0.87657,0 -1.58716,-0.71058 -1.58716,-1.58714 0,-0.87656 0.71059,-1.58714 1.58716,-1.58714 0.87655,0 1.58714,0.71058 1.58714,1.58714 z"
       style="fill:#000000;fill-opacity:1;fill-rule:nonzero;stroke:#000000;stroke-width:0.3985;stroke-linecap:butt;stroke-linejoin:miter;stroke-miterlimit:10;stroke-dasharray:none;stroke-opacity:1"
       transform="matrix(1.3333333,0,0,-1.3333333,54.250667,183.23467)" />
    <path
       id="path5"
       d="m 384.94977,56.69363 c 0,-6.57542 5.33029,-11.90573 11.90571,-11.90573 6.57542,0 11.90572,5.33031 11.90572,11.90573 0,6.57541 -5.3303,11.90572 -11.90572,11.90572 -6.57542,0 -11.90571,-5.33031 -11.90571,-11.90572 z"
       style="fill:none;stroke:#000000;stroke-width:0.797;stroke-linecap:butt;stroke-linejoin:miter;stroke-miterlimit:10;stroke-dasharray:none;stroke-opacity:1"
       transform="matrix(1.3333333,0,0,-1.3333333,54.250667,183.23467)" />
    <path
       id="path6"
       d="M 396.85548,44.7879 V 68.59935"
       style="fill:none;stroke:#000000;stroke-width:0.797;stroke-linecap:butt;stroke-linejoin:miter;stroke-miterlimit:10;stroke-dasharray:none;stroke-opacity:1"
       transform="matrix(1.3333333,0,0,-1.3333333,54.250667,183.23467)" />
    <path
       id="path7"
       d="m 4.0778906,-2.297 h 2.7773438 c 0.140625,0 0.328125,0 0.328125,-0.1992187 0,-0.1992188 -0.1875,-0.1992188 -0.328125,-0.1992188 H 4.0778906 V -5.4845 c 0,-0.1289062 0,-0.328125 -0.1992187,-0.328125 -0.1992188,0 -0.1992188,0.1992188 -0.1992188,0.328125 v 2.7890625 H 0.89039063 c -0.140625,0 -0.328125,0 -0.328125,0.1992188 0,0.1992187 0.1875,0.1992187 0.328125,0.1992187 H 3.6794531 v 2.80078125 c 0,0.12890625 0,0.328125 0.1992188,0.328125 0.1992187,0 0.1992187,-0.19921875 0.1992187,-0.328125 z m 0,0"
       style="fill:#000000;fill-opacity:1;fill-rule:nonzero;stroke:none"
       aria-label="+"
       transform="matrix(1.3333333,0,0,1.3333333,599.18,123.06267)" />
    <path
       id="path8"
       d="m 6.5622656,-2.2954844 c 0.1757813,0 0.3515625,0 0.3515625,-0.1992187 0,-0.1992188 -0.1757812,-0.1992188 -0.3515625,-0.1992188 h -5.390625 c -0.1640625,0 -0.33984372,0 -0.33984372,0.1992188 0,0.1992187 0.17578122,0.1992187 0.33984372,0.1992187 z m 0,0"
       style="fill:#000000;fill-opacity:1;fill-rule:nonzero;stroke:none"
       aria-label="−"
       transform="matrix(1.3333333,0,0,1.3333333,599.18,98.865333)" />
    <g
       id="g8"
       aria-label="13V"
       transform="matrix(1.3333333,0,0,1.3333333,610.44267,112.03333)">
      <path
         id="path9"
         d="m 2.9287422,-6.3736328 c 0,-0.234375 0,-0.2578125 -0.234375,-0.2578125 -0.609375,0.6328125 -1.4882813,0.6328125 -1.80468751,0.6328125 v 0.3164062 c 0.19921871,0 0.78515621,0 1.30078121,-0.2578125 v 5.15625004 c 0,0.3515625 -0.035156,0.48046875 -0.9257812,0.48046875 H 0.94827344 v 0.3046875 C 1.2998359,-0.03378906 2.1553047,-0.03378906 2.5537422,-0.03378906 c 0.3984375,0 1.265625,0 1.6171875,0.03515625 v -0.3046875 H 3.8545234 c -0.9023437,0 -0.9257812,-0.1171875 -0.9257812,-0.48046875 z m 4.9482422,2.8710937 c 0.8085937,-0.2695312 1.3945312,-0.9726562 1.3945312,-1.7578125 0,-0.8203125 -0.8789062,-1.3710937 -1.8398437,-1.3710937 -1.0078125,0 -1.7578125,0.5976562 -1.7578125,1.3476562 0,0.3398438 0.2109375,0.5273438 0.5039062,0.5273438 0.3046875,0 0.5039063,-0.2226563 0.5039063,-0.515625 0,-0.4921875 -0.46875,-0.4921875 -0.609375,-0.4921875 0.3046875,-0.4921875 0.9609375,-0.6210938 1.3242187,-0.6210938 0.4101563,0 0.9492188,0.2226563 0.9492188,1.1132813 0,0.1289062 -0.011719,0.703125 -0.2695313,1.1367187 -0.3046875,0.4804688 -0.6445312,0.515625 -0.890625,0.515625 -0.082031,0.011719 -0.3164062,0.035156 -0.3867187,0.035156 -0.082031,0.011719 -0.1523438,0.023437 -0.1523438,0.1171875 0,0.1171875 0.070312,0.1171875 0.234375,0.1171875 h 0.4453125 c 0.8085938,0 1.1835938,0.6679687 1.1835938,1.6523437 0,1.34765629 -0.6914063,1.64062504 -1.125,1.64062504 -0.4335938,0 -1.171875,-0.17578125 -1.5234375,-0.76171875 0.3515625,0.0585938 0.65625,-0.1640625 0.65625,-0.53906249 0,-0.3632813 -0.2695313,-0.5625 -0.5625,-0.5625 -0.234375,0 -0.5507813,0.140625 -0.5507813,0.5742187 0,0.91406254 0.9257813,1.57031254 2.0039063,1.57031254 1.21875,0 2.1210937,-0.9140625 2.1210937,-1.92187504 0,-0.8203125 -0.6210937,-1.59375 -1.6523437,-1.8046872 z m 0,0"
         style="fill:#000000;fill-opacity:1;fill-rule:nonzero;stroke:none" />
      <path
         id="path10"
         d="m 18.901398,-6.4908203 v -0.3164063 c -0.316406,0.023437 -0.714843,0.035156 -0.972656,0.035156 l -1.136719,-0.035156 v 0.3164063 c 0.515625,0.011719 0.726563,0.2695312 0.726563,0.4921875 0,0.082031 -0.02344,0.140625 -0.04687,0.1992187 l -1.828125,4.80468754 -1.898438,-5.02734374 c -0.05859,-0.140625 -0.05859,-0.1875 -0.05859,-0.1875 0,-0.28125 0.5625,-0.28125 0.820312,-0.28125 v -0.3164063 c -0.363281,0.035156 -1.054687,0.035156 -1.429687,0.035156 l -1.265625,-0.035156 v 0.3164063 c 0.644531,0 0.84375,0 0.972656,0.375 l 2.320312,6.11718749 c 0.07031,0.1875 0.117188,0.22265625 0.246094,0.22265625 0.164063,0 0.1875,-0.0585938 0.234375,-0.1875 l 2.226563,-5.85937504 c 0.140625,-0.375 0.410156,-0.65625 1.089843,-0.6679687 z m 0,0"
         style="fill:#000000;fill-opacity:1;fill-rule:nonzero;stroke:none" />
    </g>
    <path
       id="path11"
       d="m 331.37434,119.34012 h 31.74839 v -11.9057 h -31.74839 z"
       style="fill:none;stroke:#000000;stroke-width:0.797;stroke-linecap:butt;stroke-linejoin:miter;stroke-miterlimit:10;stroke-dasharray:none;stroke-opacity:1"
       transform="matrix(1.3333333,0,0,-1.3333333,54.250667,183.23467)" />
    <path
       id="path12"
       d="m 299.22876,113.38728 c 0,0.87656 -0.71059,1.58715 -1.58714,1.58715 -0.87657,0 -1.58716,-0.71059 -1.58716,-1.58715 0,-0.87657 0.71059,-1.58715 1.58716,-1.58715 0.87655,0 1.58714,0.71058 1.58714,1.58715 z"
       style="fill:#000000;fill-opacity:1;fill-rule:nonzero;stroke:#000000;stroke-width:0.3985;stroke-linecap:butt;stroke-linejoin:miter;stroke-miterlimit:10;stroke-dasharray:none;stroke-opacity:1"
       transform="matrix(1.3333333,0,0,-1.3333333,54.250667,183.23467)" />
    <path
       id="path13"
       d="m 2.8941094,-3.5033984 c 0.8085937,-0.2695313 1.3945312,-0.9726563 1.3945312,-1.7578125 0,-0.8203125 -0.8789062,-1.3710938 -1.8398437,-1.3710938 -1.0078125,0 -1.75781253,0.5976563 -1.75781253,1.3476563 0,0.3398437 0.2109375,0.5273437 0.50390623,0.5273437 0.3046875,0 0.5039063,-0.2226562 0.5039063,-0.515625 0,-0.4921875 -0.46875,-0.4921875 -0.609375,-0.4921875 0.3046875,-0.4921875 0.9609375,-0.6210937 1.3242187,-0.6210937 0.4101563,0 0.9492188,0.2226562 0.9492188,1.1132812 0,0.1289063 -0.011719,0.703125 -0.2695313,1.1367188 -0.3046875,0.4804687 -0.6445312,0.515625 -0.890625,0.515625 -0.082031,0.011719 -0.3164062,0.035156 -0.3867187,0.035156 -0.082031,0.011719 -0.1523438,0.023437 -0.1523438,0.1171875 0,0.1171875 0.070312,0.1171875 0.234375,0.1171875 h 0.4453125 c 0.8085938,0 1.1835938,0.6679688 1.1835938,1.6523438 0,1.34765621 -0.6914063,1.64062496 -1.125,1.64062496 -0.4335938,0 -1.171875,-0.17578125 -1.52343753,-0.76171875 0.35156253,0.0585938 0.65625003,-0.1640625 0.65625003,-0.53906251 0,-0.3632812 -0.2695313,-0.5625 -0.56250003,-0.5625 -0.234375,0 -0.55078125,0.140625 -0.55078125,0.5742188 0,0.91406246 0.92578128,1.57031246 2.00390628,1.57031246 1.21875,0 2.1210937,-0.9140625 2.1210937,-1.92187496 0,-0.8203125 -0.6210937,-1.59375 -1.6523437,-1.8046873 z m 10.4794926,1.8867187 h -0.246094 c -0.04687,0.2578125 -0.08203,0.4921875 -0.175781,0.72656251 -0.04687,0.1640625 -0.08203,0.24609375 -0.65625,0.24609375 h -0.796875 c 0.128906,-0.56249996 0.433593,-1.04296876 0.878906,-1.69921876 0.46875,-0.703125 0.878906,-1.3945312 0.878906,-2.1796875 0,-1.3828125 -1.335937,-2.4960937 -3.023437,-2.4960937 -1.7109379,0 -3.0351567,1.1367187 -3.0351567,2.4960937 0,0.7851563 0.3984375,1.4765625 0.8671875,2.1796875 0.4453125,0.65625 0.7617188,1.1367188 0.890625,1.69921876 h -0.796875 c -0.5742187,0 -0.609375,-0.0820313 -0.65625,-0.234375 C 7.4204766,-1.1010547 7.3736016,-1.3588672 7.3267266,-1.6166797 H 7.0689141 l 0.328125,1.6171875125 h 1.59375 c 0.2226562,0 0.2578125,0 0.2578125,-0.2109375025 0,-0.69140625 -0.3164063,-1.57031251 -0.5390625,-2.21484371 -0.2109375,-0.5742188 -0.4921875,-1.359375 -0.4921875,-2.109375 0,-1.59375 1.1015625,-2.2734375 2.0039064,-2.2734375 0.960937,0 2.015625,0.7265625 2.015625,2.2734375 0,0.75 -0.269531,1.5117187 -0.5625,2.3203125 -0.152344,0.421875 -0.46875,1.31249996 -0.46875,2.00390621 0,0.2109375025 0.03516,0.2109375025 0.257812,0.2109375025 h 1.582032 z m 0,0"
       style="fill:#000000;fill-opacity:1;fill-rule:nonzero;stroke:none"
       aria-label="3Ω"
       transform="matrix(1.3333333,0,0,1.3333333,508.024,19.026667)" />
    <path
       id="path14"
       d="m 3.2928594,2.3919219 c 0,-0.035156 0,-0.046875 -0.1640625,-0.2226563 -1.2421875,-1.25390622 -1.5703125,-3.12890622 -1.5703125,-4.6640625 0,-1.7226562 0.3867187,-3.4570312 1.6054687,-4.7109375 0.1289063,-0.1171875 0.1289063,-0.1289062 0.1289063,-0.1640625 0,-0.070312 -0.035156,-0.1054687 -0.09375,-0.1054687 -0.1054688,0 -0.9960938,0.6796875 -1.5820313,1.9453125 -0.515625,1.1015625 -0.63281247,2.203125 -0.63281247,3.0351562 0,0.7851563 0.11718747,1.99218753 0.65624997,3.11718753 0.5976563,1.21874997 1.453125,1.87499997 1.5585938,1.87499997 0.058594,0 0.09375,-0.035156 0.09375,-0.1054687 z m 5.0595703,-4.125 H 8.0946172 c -0.046875,0.3046875 -0.1171875,0.73828123 -0.2109375,0.89062498 -0.070312,0.0820313 -0.7265625,0.0820313 -0.9492188,0.0820313 H 5.1414922 L 6.1961797,-1.7916719 c 1.5585937,-1.3710937 2.15625,-1.9101562 2.15625,-2.90625 0,-1.1367187 -0.9023438,-1.9335937 -2.1210938,-1.9335937 -1.125,0 -1.8515625,0.9140625 -1.8515625,1.8046875 0,0.5507812 0.4921875,0.5507812 0.5273438,0.5507812 0.1640625,0 0.515625,-0.1171875 0.515625,-0.5273437 0,-0.2578125 -0.1875,-0.515625 -0.5273438,-0.515625 -0.082031,0 -0.1054687,0 -0.1289062,0.011719 0.2226562,-0.6445312 0.7617187,-1.0195312 1.3359375,-1.0195312 0.9140625,0 1.3359375,0.8085937 1.3359375,1.6289062 0,0.796875 -0.4921875,1.5820313 -1.0429688,2.203125 L 4.4852422,-0.36198437 C 4.3797734,-0.25651562 4.3797734,-0.23307812 4.3797734,0.00129688 h 3.6914063 z m 3.3867183,-0.7617188 c 0,-0.7734375 -0.117187,-1.9804687 -0.65625,-3.1054687 -0.597656,-1.21875 -1.4648433,-1.875 -1.5585933,-1.875 -0.058594,0 -0.1054688,0.046875 -0.1054688,0.1054687 0,0.035156 0,0.046875 0.1992188,0.234375 0.9726563,0.984375 1.5351563,2.5664063 1.5351563,4.640625 0,1.71093753 -0.363281,3.45703128 -1.5937501,4.7226563 -0.140625,0.1171875 -0.140625,0.1289062 -0.140625,0.1640625 0,0.058594 0.046875,0.1054687 0.1054688,0.1054687 0.09375,0 0.9960933,-0.6796875 1.5820313,-1.94531247 0.503906,-1.1015625 0.632812,-2.20312503 0.632812,-3.04687503 z m 0,0"
       style="fill:#000000;fill-opacity:1;fill-rule:nonzero;stroke:none"
       aria-label="(2)"
       transform="matrix(1.3333333,0,0,1.3333333,442.61733,24.037333)" />
    <path
       id="path15"
       d="m 182.55353,119.34012 h 31.74838 v -11.9057 h -31.74838 z"
       style="fill:none;stroke:#000000;stroke-width:0.797;stroke-linecap:butt;stroke-linejoin:miter;stroke-miterlimit:10;stroke-dasharray:none;stroke-opacity:1"
       transform="matrix(1.3333333,0,0,-1.3333333,54.250667,183.23467)" />
    <path
       id="path16"
       d="m 100.80101,113.38728 c 0,0.87656 -0.71059,1.58715 -1.58714,1.58715 -0.87656,0 -1.58715,-0.71059 -1.58715,-1.58715 0,-0.87657 0.71059,-1.58715 1.58715,-1.58715 0.87655,0 1.58714,0.71058 1.58714,1.58715 z"
       style="fill:#000000;fill-opacity:1;fill-rule:nonzero;stroke:#000000;stroke-width:0.3985;stroke-linecap:butt;stroke-linejoin:miter;stroke-miterlimit:10;stroke-dasharray:none;stroke-opacity:1"
       transform="matrix(1.3333333,0,0,-1.3333333,54.250667,183.23467)" />
    <path
       id="path17"
       d="M 1.2668672,-0.76121094 2.3215547,-1.7924609 c 1.5585937,-1.3710938 2.15625,-1.9101563 2.15625,-2.90625 0,-1.1367188 -0.9023438,-1.9335938 -2.1210938,-1.9335938 -1.125,0 -1.85156246,0.9140625 -1.85156246,1.8046875 0,0.5507813 0.4921875,0.5507813 0.52734376,0.5507813 0.1640625,0 0.515625,-0.1171875 0.515625,-0.5273438 0,-0.2578125 -0.1875,-0.515625 -0.5273438,-0.515625 -0.0820312,0 -0.10546871,0 -0.12890621,0.011719 C 1.1145234,-5.952617 1.6535859,-6.327617 2.2278047,-6.327617 c 0.9140625,0 1.3359375,0.8085938 1.3359375,1.6289063 0,0.796875 -0.4921875,1.5820312 -1.0429688,2.203125 L 0.61061719,-0.36277344 C 0.50514844,-0.25730469 0.50514844,-0.23386719 0.50514844,5.078125e-4 H 4.1965547 L 4.4778047,-1.7338672 H 4.2199922 c -0.046875,0.3046875 -0.1171875,0.73828126 -0.2109375,0.89062501 -0.070312,0.0820313 -0.7265625,0.0820313 -0.9492188,0.0820313 z M 13.372336,-1.6166797 h -0.246094 c -0.04687,0.2578125 -0.08203,0.4921875 -0.175781,0.72656251 -0.04687,0.1640625 -0.08203,0.24609375 -0.65625,0.24609375 h -0.796875 c 0.128906,-0.56249996 0.433594,-1.04296876 0.878906,-1.69921876 0.46875,-0.703125 0.878906,-1.3945312 0.878906,-2.1796875 0,-1.3828125 -1.335937,-2.4960937 -3.023437,-2.4960937 -1.7109376,0 -3.0351563,1.1367187 -3.0351563,2.4960937 0,0.7851563 0.3984375,1.4765625 0.8671875,2.1796875 0.4453125,0.65625 0.7617187,1.1367188 0.890625,1.69921876 h -0.796875 c -0.5742188,0 -0.609375,-0.0820313 -0.65625,-0.234375 C 7.4192109,-1.1010547 7.3723359,-1.3588672 7.3254609,-1.6166797 H 7.0676484 l 0.328125,1.6171875125 h 1.59375 c 0.2226563,0 0.2578125,0 0.2578125,-0.2109375025 0,-0.69140625 -0.3164062,-1.57031251 -0.5390625,-2.21484371 -0.2109375,-0.5742188 -0.4921875,-1.359375 -0.4921875,-2.109375 0,-1.59375 1.1015625,-2.2734375 2.0039061,-2.2734375 0.960938,0 2.015625,0.7265625 2.015625,2.2734375 0,0.75 -0.269531,1.5117187 -0.5625,2.3203125 -0.152344,0.421875 -0.46875,1.31249996 -0.46875,2.00390621 0,0.2109375025 0.03516,0.2109375025 0.257813,0.2109375025 h 1.582031 z m 0,0"
       style="fill:#000000;fill-opacity:1;fill-rule:nonzero;stroke:none"
       aria-label="2Ω"
       transform="matrix(1.3333333,0,0,1.3333333,309.596,19.026667)" />
    <path
       id="path18"
       d="m 3.292125,2.3919219 c 0,-0.035156 0,-0.046875 -0.1640625,-0.2226563 C 1.885875,0.91535938 1.55775,-0.95964062 1.55775,-2.4947969 c 0,-1.7226562 0.3867188,-3.4570312 1.6054688,-4.7109375 0.1289062,-0.1171875 0.1289062,-0.1289062 0.1289062,-0.1640625 0,-0.070312 -0.035156,-0.1054687 -0.09375,-0.1054687 -0.1054687,0 -0.9960937,0.6796875 -1.5820312,1.9453125 -0.515625,1.1015625 -0.63281255,2.203125 -0.63281255,3.0351562 0,0.7851563 0.11718755,1.99218753 0.65625005,3.11718753 0.5976562,1.21874997 1.453125,1.87499997 1.5585937,1.87499997 0.058594,0 0.09375,-0.035156 0.09375,-0.1054687 z M 8.0470078,0.00129688 v -0.3046875 H 7.7306016 c -0.9023438,0 -0.9257813,-0.1171875 -0.9257813,-0.48046875 V -6.3737031 c 0,-0.234375 0,-0.2578125 -0.234375,-0.2578125 -0.609375,0.6328125 -1.4882812,0.6328125 -1.8046875,0.6328125 v 0.3164062 c 0.1992188,0 0.7851563,0 1.3007813,-0.2578125 v 5.15625003 c 0,0.3515625 -0.035156,0.48046875 -0.9257813,0.48046875 H 4.8243516 v 0.3046875 c 0.3515625,-0.03515625 1.2070312,-0.03515625 1.6054687,-0.03515625 0.3984375,0 1.265625,0 1.6171875,0.03515625 z M 11.738414,-2.4947969 c 0,-0.7734375 -0.117187,-1.9804687 -0.65625,-3.1054687 -0.597656,-1.21875 -1.4648437,-1.875 -1.5585937,-1.875 -0.058594,0 -0.1054687,0.046875 -0.1054687,0.1054687 0,0.035156 0,0.046875 0.1992187,0.234375 0.9726567,0.984375 1.5351567,2.5664063 1.5351567,4.640625 0,1.71093753 -0.363282,3.45703128 -1.5937504,4.7226563 -0.140625,0.1171875 -0.140625,0.1289062 -0.140625,0.1640625 0,0.058594 0.046875,0.1054687 0.1054687,0.1054687 0.09375,0 0.9960937,-0.6796875 1.5820317,-1.94531247 0.503906,-1.1015625 0.632812,-2.20312503 0.632812,-3.04687503 z m 0,0"
       style="fill:#000000;fill-opacity:1;fill-rule:nonzero;stroke:none"
       aria-label="(1)"
       transform="matrix(1.3333333,0,0,1.3333333,178.048,24.037333)" />
    <path
       id="path19"
       d="m 33.73273,119.34012 h 31.74838 v -11.9057 H 33.73273 Z"
       style="fill:none;stroke:#000000;stroke-width:0.797;stroke-linecap:butt;stroke-linejoin:miter;stroke-miterlimit:10;stroke-dasharray:none;stroke-opacity:1"
       transform="matrix(1.3333333,0,0,-1.3333333,54.250667,183.23467)" />
    <path
       id="path20"
       d="m 2.9296641,-6.3744922 c 0,-0.234375 0,-0.2578125 -0.234375,-0.2578125 -0.609375,0.6328125 -1.4882813,0.6328125 -1.80468754,0.6328125 v 0.3164063 c 0.19921874,0 0.78515624,0 1.30078124,-0.2578125 v 5.15624996 c 0,0.3515625 -0.035156,0.48046875 -0.9257812,0.48046875 H 0.94919531 V 5.078125e-4 C 1.3007578,-0.03464844 2.1562266,-0.03464844 2.5546641,-0.03464844 c 0.3984375,0 1.265625,0 1.6171875,0.0351562525 V -0.30417969 H 3.8554453 c -0.9023437,0 -0.9257812,-0.1171875 -0.9257812,-0.48046875 z M 13.374,-1.6166797 h -0.246094 c -0.04687,0.2578125 -0.08203,0.4921875 -0.175781,0.72656251 -0.04687,0.1640625 -0.08203,0.24609375 -0.65625,0.24609375 H 11.499 c 0.128906,-0.56249996 0.433594,-1.04296876 0.878906,-1.69921876 0.46875,-0.703125 0.878907,-1.3945312 0.878907,-2.1796875 0,-1.3828125 -1.335938,-2.4960937 -3.023438,-2.4960937 -1.7109375,0 -3.0351562,1.1367187 -3.0351562,2.4960937 0,0.7851563 0.3984375,1.4765625 0.8671875,2.1796875 0.4453125,0.65625 0.7617187,1.1367188 0.890625,1.69921876 h -0.796875 c -0.5742188,0 -0.609375,-0.0820313 -0.65625,-0.234375 C 7.420875,-1.1010547 7.374,-1.3588672 7.327125,-1.6166797 H 7.0693125 l 0.328125,1.6171875125 h 1.59375 c 0.2226563,0 0.2578125,0 0.2578125,-0.2109375025 C 9.249,-0.90183594 8.9325938,-1.7807422 8.7099375,-2.4252734 8.499,-2.9994922 8.21775,-3.7846484 8.21775,-4.5346484 c 0,-1.59375 1.1015625,-2.2734375 2.003906,-2.2734375 0.960938,0 2.015625,0.7265625 2.015625,2.2734375 0,0.75 -0.269531,1.5117187 -0.5625,2.3203125 -0.152343,0.421875 -0.46875,1.31249996 -0.46875,2.00390621 0,0.2109375025 0.03516,0.2109375025 0.257813,0.2109375025 h 1.582031 z m 0,0"
       style="fill:#000000;fill-opacity:1;fill-rule:nonzero;stroke:none"
       aria-label="1Ω"
       transform="matrix(1.3333333,0,0,1.3333333,111.168,19.026667)" />
    <path
       id="path21"
       d="m 11.90572,56.69363 c 0,6.57541 -5.33031,11.90572 -11.90572,11.90572 -6.57541,0 -11.90572,-5.33031 -11.90572,-11.90572 0,-6.57542 5.33031,-11.90573 11.90572,-11.90573 6.57541,0 11.90572,5.33031 11.90572,11.90573 z"
       style="fill:none;stroke:#000000;stroke-width:0.797;stroke-linecap:butt;stroke-linejoin:miter;stroke-miterlimit:10;stroke-dasharray:none;stroke-opacity:1"
       transform="matrix(1.3333333,0,0,-1.3333333,54.250667,183.23467)" />
    <path
       id="path22"
       d="M 0,68.59935 V 44.7879"
       style="fill:none;stroke:#000000;stroke-width:0.797;stroke-linecap:butt;stroke-linejoin:miter;stroke-miterlimit:10;stroke-dasharray:none;stroke-opacity:1"
       transform="matrix(1.3333333,0,0,-1.3333333,54.250667,183.23467)" />
    <path
       id="path23"
       d="m 4.0768047,-2.2954844 h 2.7773437 c 0.140625,0 0.328125,0 0.328125,-0.1992187 0,-0.1992188 -0.1875,-0.1992188 -0.328125,-0.1992188 H 4.0768047 v -2.7890625 c 0,-0.1289062 0,-0.328125 -0.1992188,-0.328125 -0.1992187,0 -0.1992187,0.1992188 -0.1992187,0.328125 v 2.7890625 H 0.88930469 c -0.140625,0 -0.328125,0 -0.328125,0.1992188 0,0.1992187 0.1875,0.1992187 0.328125,0.1992187 H 3.6783672 v 2.80078128 c 0,0.12890625 0,0.328125 0.1992187,0.328125 0.1992188,0 0.1992188,-0.19921875 0.1992188,-0.328125 z m 0,0"
       style="fill:#000000;fill-opacity:1;fill-rule:nonzero;stroke:none"
       aria-label="+"
       transform="matrix(1.3333333,0,0,1.3333333,28.130667,98.865333)" />
    <path
       id="path24"
       d="m 6.5611797,-2.297 c 0.1757812,0 0.3515625,0 0.3515625,-0.1992187 0,-0.1992188 -0.1757813,-0.1992188 -0.3515625,-0.1992188 h -5.390625 c -0.1640625,0 -0.33984376,0 -0.33984376,0.1992188 0,0.1992187 0.17578126,0.1992187 0.33984376,0.1992187 z m 0,0"
       style="fill:#000000;fill-opacity:1;fill-rule:nonzero;stroke:none"
       aria-label="−"
       transform="matrix(1.3333333,0,0,1.3333333,28.130667,123.06267)" />
    <g
       id="g24"
       aria-label="5V"
       transform="matrix(1.3333333,0,0,1.3333333,8.3813333,112.03333)">
      <path
         id="path25"
         d="m 4.4776719,-2.0025391 c 0,-1.1835937 -0.8203125,-2.1796875 -1.8984375,-2.1796875 -0.4804688,0 -0.9023438,0.1640625 -1.265625,0.5039063 v -1.9335938 c 0.1992187,0.058594 0.5273437,0.1289063 0.84375,0.1289063 1.2304687,0 1.9335937,-0.9140625 1.9335937,-1.0429688 0,-0.058594 -0.035156,-0.1054687 -0.1054687,-0.1054687 -0.011719,0 -0.035156,0 -0.082031,0.023437 -0.1992187,0.09375 -0.6796875,0.2929687 -1.3476562,0.2929687 -0.3984375,0 -0.8554688,-0.070312 -1.3242188,-0.28125 -0.082031,-0.023437 -0.1054687,-0.023437 -0.1289062,-0.023437 -0.09375,0 -0.09375,0.082031 -0.09375,0.234375 v 2.953125 c 0,0.1757813 0,0.2578125 0.140625,0.2578125 0.070312,0 0.082031,-0.035156 0.1289062,-0.09375 0.1054688,-0.1523437 0.4804688,-0.6914062 1.2773438,-0.6914062 0.5273437,0 0.7734375,0.4570312 0.8554687,0.6328125 0.1523438,0.375 0.1757813,0.7617187 0.1757813,1.2539062 0,0.3515625 0,0.9492188 -0.234375,1.37109379 -0.2460938,0.38671875 -0.609375,0.64453125 -1.0664063,0.64453125 -0.7265625,0 -1.30078123,-0.52734375 -1.46484373,-1.11328124 0.0234375,0.011719 0.0585938,0.011719 0.1640625,0.011719 0.32812503,0 0.50390623,-0.2460937 0.50390623,-0.4804687 0,-0.2460938 -0.1757812,-0.4921875 -0.50390623,-0.4921875 -0.140625,0 -0.48046875,0.070312 -0.48046875,0.5273437 0,0.85546879 0.67968748,1.82812504 1.79296878,1.82812504 1.1601562,0 2.1796875,-0.9609375 2.1796872,-2.22656284 z m 0,0"
         style="fill:#000000;fill-opacity:1;fill-rule:nonzero;stroke:none" />
      <path
         id="path26"
         d="m 13.920055,-6.4908203 v -0.3164063 c -0.316407,0.023437 -0.714844,0.035156 -0.972657,0.035156 l -1.136718,-0.035156 v 0.3164063 c 0.515625,0.011719 0.726562,0.2695312 0.726562,0.4921875 0,0.082031 -0.02344,0.140625 -0.04687,0.1992187 l -1.82813,4.80468754 -1.8984373,-5.02734374 c -0.058594,-0.140625 -0.058594,-0.1875 -0.058594,-0.1875 0,-0.28125 0.5625,-0.28125 0.8203125,-0.28125 v -0.3164063 c -0.3632812,0.035156 -1.0546875,0.035156 -1.4296875,0.035156 l -1.265625,-0.035156 v 0.3164063 c 0.6445313,0 0.84375,0 0.9726563,0.375 l 2.320313,6.11718749 c 0.07031,0.1875 0.117187,0.22265625 0.246093,0.22265625 0.164063,0 0.1875,-0.0585938 0.234375,-0.1875 l 2.226563,-5.85937504 c 0.140625,-0.375 0.410156,-0.65625 1.089844,-0.6679687 z m 0,0"
         style="fill:#000000;fill-opacity:1;fill-rule:nonzero;stroke:none" />
    </g>
    <path
       id="path27"
       d="m 99.21387,0 35.82504,20.47148 m 27.56377,15.75064 35.82505,20.47151 39.27045,22.44028 m 20.67296,11.81307 39.27048,22.4403 -2e-5,-40.81945 m 0,-31.7484 L 297.64162,0 261.81656,20.47148 m -27.56378,15.75064 -35.82505,20.47151 -39.27046,22.44028 m -20.67296,11.81307 -39.27044,22.4403 -2e-5,-40.81945 m 0,-31.7484 L 99.21387,0"
       style="fill:none;stroke:#000000;stroke-width:0.3985;stroke-linecap:butt;stroke-linejoin:miter;stroke-miterlimit:10;stroke-dasharray:none;stroke-opacity:1"
       transform="matrix(1.3333333,0,0,-1.3333333,54.250667,183.23467)" />
    <path
       id="path28"
       d="M 99.21387,0 V -9.92134"
       style="fill:none;stroke:#000000;stroke-width:0.3985;stroke-linecap:butt;stroke-linejoin:miter;stroke-miterlimit:10;stroke-dasharray:none;stroke-opacity:1"
       transform="matrix(1.3333333,0,0,-1.3333333,54.250667,183.23467)" />
    <path
       id="path29"
       d="m 93.26102,-9.92134 h 11.9057"
       style="fill:none;stroke:#000000;stroke-width:0.797;stroke-linecap:round;stroke-linejoin:miter;stroke-miterlimit:10;stroke-dasharray:none;stroke-opacity:1"
       transform="matrix(1.3333333,0,0,-1.3333333,54.250667,183.23467)" />
    <path
       id="path30"
       d="m 165.55594,31.0539 -27.56377,-15.75065 -5.90652,10.33646 27.56376,15.75066 z"
       style="fill:none;stroke:#000000;stroke-width:0.797;stroke-linecap:butt;stroke-linejoin:miter;stroke-miterlimit:10;stroke-dasharray:none;stroke-opacity:1"
       transform="matrix(1.3333333,0,0,-1.3333333,54.250667,183.23467)" />
    <path
       id="path31"
       d="M 1.2744926,-0.75315675 2.3183787,-1.7877926 c 1.5628435,-1.3710013 2.162682,-1.9177701 2.1641673,-2.9047176 -0.0051,-1.1395986 -0.9129361,-1.9343649 -2.1310049,-1.9339717 -1.1235906,8.138e-4 -1.85003539,0.9074973 -1.85110015,1.7999665 0.003337,0.5567209 0.50188465,0.5603932 0.53390075,0.5518144 0.1627998,-7.29e-4 0.5165465,-0.1212521 0.5096496,-0.5311813 -3.085e-4,-0.257278 -0.1895736,-0.515397 -0.5311813,-0.5096496 -0.0784702,-0.00471 -0.0944782,-4.205e-4 -0.1163456,0.014018 0.2121972,-0.6487883 0.754592,-1.0257485 1.3374696,-1.0275151 0.9084773,-0.00322 1.3322002,0.8097368 1.329986,1.6338845 C 3.5632757,-3.897154 3.0699426,-3.112984 2.5177077,-2.484605 L 0.61575219,-0.36217889 C 0.49898608,-0.25368299 0.49741614,-0.22752625 0.49929464,0.00359508 L 4.1956659,-3.041878e-4 4.4780903,-1.7316677 4.2208122,-1.7313592 c -0.049285,0.296303 -0.11228,0.73353834 -0.216178,0.89005835 -0.062883,0.085479 -0.7242306,0.0825358 -0.9452032,0.0902736 z m 12.0983904,-0.86334155 -0.24127,-0.00398 c -0.05786,0.2642868 -0.088,0.5039869 -0.180601,0.73468778 -0.05159,0.1596599 -0.0723,0.24241952 -0.65518,0.2441861 l -0.797991,-6.4429e-4 c 0.133306,-0.55901989 0.430562,-1.05044729 0.87388,-1.70111409 0.472616,-0.7014103 0.881199,-1.3856632 0.875984,-2.1735054 -0.0011,-1.3808686 -1.320343,-2.4943377 -3.010803,-2.4960467 -1.716617,-0.00328 -3.0342096,1.1304331 -3.0373767,2.4952936 0.00521,0.7878423 0.3946229,1.4727394 0.8667905,2.1783544 0.4491507,0.6517316 0.7609293,1.1429623 0.8907601,1.69152496 l -0.7878422,0.005215 C 7.586356,-0.64076112 7.5547604,-0.72666063 7.5060073,-0.87659229 7.4139399,-1.092126 7.3714666,-1.3466847 7.3247039,-1.6172514 l -0.2572781,3.086e-4 0.3227411,1.62068061 1.5959819,0.00128858 C 9.2172701,0.00314789 9.2434268,0.00471784 9.2458377,-0.21039544 9.2503509,-0.89790009 8.9359648,-1.7830519 8.7062168,-2.4163646 8.4994856,-2.9957938 8.2209845,-3.7790381 8.2184889,-4.5247156 c 0.00129,-1.5959819 1.0973762,-2.2757215 2.0058531,-2.2789461 0.960791,-8.48e-5 2.014266,0.7299204 2.016118,2.2735888 0.0025,0.7456775 -0.280014,1.5162503 -0.564093,2.3129798 -0.157473,0.436815 -0.46227,1.31630413 -0.466783,2.00380877 -0.0024,0.21511329 0.02375,0.21668324 0.254867,0.21480474 l 1.579974,0.00557796 z m 0,0"
       style="fill:#000000;fill-opacity:1;fill-rule:nonzero;stroke:none"
       aria-label="2Ω"
       transform="matrix(1.1547067,-0.66666667,0.66666667,1.1547067,238.66716,139.31699)" />
    <path
       id="path32"
       d="m 242.12813,95.37692 c -5.70873,-3.26213 -7.69206,-10.53427 -4.42995,-16.24301 3.26212,-5.70874 10.53427,-7.69206 16.24302,-4.42995 5.70873,3.26212 7.69206,10.53428 4.42994,16.24302 -3.26212,5.70872 -10.53427,7.69206 -16.24301,4.42994 z m 0,0 11.81307,-20.67296"
       style="fill:none;stroke:#000000;stroke-width:0.797;stroke-linecap:butt;stroke-linejoin:miter;stroke-miterlimit:10;stroke-dasharray:none;stroke-opacity:1"
       transform="matrix(1.3333333,0,0,-1.3333333,54.250667,183.23467)" />
    <path
       id="path33"
       d="m 276.49901,101.30577 0.9844,-1.72272 2.67635,3.81456 -4.64516,-0.36914 z"
       style="fill:#000000;fill-opacity:1;fill-rule:nonzero;stroke:#000000;stroke-width:0.3985;stroke-linecap:butt;stroke-linejoin:miter;stroke-miterlimit:10;stroke-dasharray:none;stroke-opacity:1"
       transform="matrix(1.3333333,0,0,-1.3333333,54.250667,183.23467)" />
    <g
       id="g33"
       aria-label="5A"
       transform="matrix(1.3333333,0,0,1.3333333,429.61867,61.216)">
      <path
         id="path34"
         d="m 4.4754531,-2.0047734 c 0,-1.1835938 -0.8203125,-2.1796875 -1.8984375,-2.1796875 -0.4804687,0 -0.9023437,0.1640625 -1.265625,0.5039062 v -1.9335937 c 0.1992188,0.058594 0.5273438,0.1289062 0.84375,0.1289062 1.2304688,0 1.9335938,-0.9140625 1.9335938,-1.0429687 0,-0.058594 -0.035156,-0.1054688 -0.1054688,-0.1054688 -0.011719,0 -0.035156,0 -0.082031,0.023437 -0.1992188,0.09375 -0.6796875,0.2929688 -1.3476563,0.2929688 -0.3984375,0 -0.8554687,-0.070312 -1.3242187,-0.28125 -0.082031,-0.023437 -0.1054688,-0.023437 -0.1289063,-0.023437 -0.09375,0 -0.09375,0.082031 -0.09375,0.234375 v 2.953125 c 0,0.1757812 0,0.2578125 0.140625,0.2578125 0.070312,0 0.082031,-0.035156 0.1289063,-0.09375 0.1054687,-0.1523438 0.4804687,-0.6914063 1.2773437,-0.6914063 0.5273438,0 0.7734375,0.4570313 0.8554688,0.6328125 0.1523437,0.375 0.1757812,0.7617188 0.1757812,1.2539063 0,0.3515625 0,0.9492187 -0.234375,1.37109371 -0.2460937,0.38671875 -0.609375,0.64453125 -1.0664062,0.64453125 -0.7265625,0 -1.30078127,-0.52734375 -1.46484377,-1.11328126 0.0234375,0.011719 0.0585938,0.011719 0.1640625,0.011719 0.32812497,0 0.50390627,-0.2460938 0.50390627,-0.4804688 0,-0.2460937 -0.1757813,-0.4921875 -0.50390627,-0.4921875 -0.140625,0 -0.48046875,0.070312 -0.48046875,0.5273438 0,0.85546871 0.67968752,1.82812496 1.79296872,1.82812496 1.1601563,0 2.1796875,-0.9609375 2.1796873,-2.22656266 z m 0,0"
         style="fill:#000000;fill-opacity:1;fill-rule:nonzero;stroke:none" />
      <path
         id="path35"
         d="M 13.780141,-8.671875e-4 V -0.30555469 h -0.175782 c -0.597656,0 -0.738281,-0.0703125 -0.84375,-0.3984375 l -2.15625,-6.23437501 c -0.04687,-0.1289062 -0.07031,-0.1992187 -0.222656,-0.1992187 -0.164062,0 -0.1875,0.058594 -0.246094,0.1992187 l -2.0624996,5.96484376 c -0.1757813,0.50390625 -0.5742188,0.65625 -1.1132813,0.66796875 V -8.671875e-4 L 7.9793594,-0.03602344 9.1277969,-8.671875e-4 V -0.30555469 c -0.5039063,0 -0.75,-0.2578125 -0.75,-0.515625 0,-0.0234375 0.011719,-0.12890625 0.023437,-0.140625 L 8.8582656,-2.2743047 h 2.4609374 l 0.527344,1.52343751 c 0.01172,0.046875 0.02344,0.10546875 0.02344,0.140625 0,0.3046875 -0.550781,0.3046875 -0.820312,0.3046875 V -8.671875e-4 C 11.401234,-0.03602344 12.104359,-0.03602344 12.479359,-0.03602344 Z M 11.202016,-2.5789922 H 8.9637344 l 1.1132816,-3.234375 z m 0,0"
         style="fill:#000000;fill-opacity:1;fill-rule:nonzero;stroke:none" />
    </g>
    <path
       id="path36"
       d="m 291.68874,40.81943 v 31.7484 h 11.90571 v -31.7484 z"
       style="fill:none;stroke:#000000;stroke-width:0.797;stroke-linecap:butt;stroke-linejoin:miter;stroke-miterlimit:10;stroke-dasharray:none;stroke-opacity:1"
       transform="matrix(1.3333333,0,0,-1.3333333,54.250667,183.23467)" />
    <path
       id="path37"
       d="m 2.8948125,-3.5049766 c 0.8085937,-0.2695312 1.3945312,-0.9726562 1.3945312,-1.7578125 0,-0.8203125 -0.8789062,-1.3710937 -1.8398437,-1.3710937 -1.0078125,0 -1.7578125,0.5976562 -1.7578125,1.3476562 0,0.3398438 0.2109375,0.5273438 0.5039062,0.5273438 0.3046875,0 0.5039063,-0.2226563 0.5039063,-0.515625 0,-0.4921875 -0.46875,-0.4921875 -0.609375,-0.4921875 0.3046875,-0.4921875 0.9609375,-0.6210938 1.3242187,-0.6210938 0.4101563,0 0.9492188,0.2226563 0.9492188,1.1132813 0,0.1289062 -0.011719,0.703125 -0.2695313,1.1367187 -0.3046875,0.4804688 -0.6445312,0.515625 -0.890625,0.515625 -0.082031,0.011719 -0.3164062,0.035156 -0.3867187,0.035156 -0.082031,0.011719 -0.1523438,0.023437 -0.1523438,0.1171875 0,0.1171875 0.070312,0.1171875 0.234375,0.1171875 h 0.4453125 c 0.8085938,0 1.1835938,0.6679687 1.1835938,1.6523437 0,1.34765629 -0.6914063,1.64062504 -1.125,1.64062504 -0.4335938,0 -1.171875,-0.17578125 -1.5234375,-0.76171875 0.3515625,0.0585938 0.65625,-0.1640625 0.65625,-0.53906249 0,-0.3632813 -0.2695313,-0.5625 -0.5625,-0.5625 -0.234375,0 -0.55078125,0.140625 -0.55078125,0.5742187 0,0.91406254 0.92578125,1.57031254 2.00390625,1.57031254 1.21875,0 2.1210937,-0.9140625 2.1210937,-1.92187504 0,-0.8203125 -0.6210937,-1.59375 -1.6523437,-1.8046872 z m 10.4794925,1.8867188 h -0.246094 c -0.04687,0.2578125 -0.08203,0.4921875 -0.175781,0.72656249 -0.04687,0.1640625 -0.08203,0.24609375 -0.65625,0.24609375 h -0.796875 c 0.128906,-0.56250004 0.433593,-1.04296874 0.878906,-1.69921874 0.46875,-0.703125 0.878906,-1.3945313 0.878906,-2.1796875 0,-1.3828125 -1.335937,-2.4960938 -3.023437,-2.4960938 -1.7109378,0 -3.0351566,1.1367188 -3.0351566,2.4960938 0,0.7851562 0.3984375,1.4765625 0.8671875,2.1796875 0.4453125,0.65625 0.7617188,1.1367187 0.890625,1.69921874 h -0.796875 c -0.5742187,0 -0.609375,-0.0820313 -0.65625,-0.234375 C 7.4211797,-1.1026328 7.3743047,-1.3604453 7.3274297,-1.6182578 H 7.0696172 l 0.328125,1.61718749 h 1.59375 c 0.2226562,0 0.2578125,0 0.2578125,-0.2109375 0,-0.69140625 -0.3164063,-1.57031249 -0.5390625,-2.21484379 -0.2109375,-0.5742187 -0.4921875,-1.359375 -0.4921875,-2.109375 0,-1.59375 1.1015625,-2.2734375 2.0039063,-2.2734375 0.960937,0 2.015625,0.7265625 2.015625,2.2734375 0,0.75 -0.269531,1.5117188 -0.5625,2.3203125 -0.152344,0.421875 -0.46875,1.31250004 -0.46875,2.00390629 0,0.2109375 0.03516,0.2109375 0.257812,0.2109375 h 1.582032 z m 0,0"
       style="fill:#000000;fill-opacity:1;fill-rule:nonzero;stroke:none"
       aria-label="3Ω"
       transform="matrix(1.3333333,0,0,1.3333333,461.984,110.50533)" />
    <path
       id="path38"
       d="M 237.20604,41.39037 264.7698,25.63971 258.8633,15.30325 231.29953,31.0539 Z"
       style="fill:none;stroke:#000000;stroke-width:0.797;stroke-linecap:butt;stroke-linejoin:miter;stroke-miterlimit:10;stroke-dasharray:none;stroke-opacity:1"
       transform="matrix(1.3333333,0,0,-1.3333333,54.250667,183.23467)" />
    <path
       id="path39"
       d="M 1.2644119,-0.76731234 2.3170956,-1.7929931 c 1.5572426,-1.3723615 2.1587273,-1.9067571 2.1528436,-2.9083963 -0.0012,-1.1382212 -0.8950963,-1.9289899 -2.1175393,-1.9346969 -1.1222905,0.00577 -1.83908674,0.9122545 -1.83765707,1.8091733 -0.002797,0.5508959 0.47980836,0.5513515 0.52191927,0.5548059 0.1570807,-0.00668 0.5088989,-0.1213091 0.5070136,-0.535623 -0.00545,-0.2515518 -0.1896001,-0.5112398 -0.5253737,-0.512695 -0.0785403,0.00334 -0.10472042,0.00445 -0.12521911,0.015817 0.21914631,-0.6440256 0.75902101,-1.0236815 1.33609701,-1.0219984 0.9128496,0.00314 1.3298206,0.8037006 1.3279097,1.6220791 0.00266,0.8024476 -0.4886535,1.583941 -1.0390055,2.2105807 l -1.91308465,2.1323566 c -0.0900171,0.10349304 -0.0889036,0.12967316 -0.0948128,0.36072626178 l 3.68782765,0.005758068 0.282781,-1.73779513 -0.2515518,0.00545 c -0.06061,0.3015711 -0.1259025,0.73972421 -0.219374,0.88532814 -0.06495,0.0761994 -0.7205669,0.0778569 -0.9459386,0.082197 z M 13.37417,-1.6180814 13.132867,-1.6183092 c -0.05147,0.2697095 -0.08925,0.4916268 -0.183944,0.73170183 -0.04568,0.15930769 -0.07877,0.24464296 -0.655844,0.24295994 l -0.792198,-0.003024 c 0.133697,-0.55646347 0.427815,-1.04106747 0.882582,-1.69511477 0.468471,-0.7018395 0.874333,-1.3957706 0.867108,-2.1822874 -9.74e-4,-1.3795237 -1.338475,-2.4871364 -3.017343,-2.4944125 -1.7152974,-4.813e-4 -3.041259,1.1364871 -3.0413985,2.4898306 0.00723,0.7865169 0.4094926,1.4880403 0.8743698,2.1816552 0.4478329,0.6628669 0.7672201,1.1423591 0.8907562,1.70361829 L 8.1647572,-0.6464067 C 7.5876812,-0.64808973 7.5479112,-0.71983514 7.4991193,-0.88037024 7.4264882,-1.1080828 7.3743558,-1.3471583 7.3313592,-1.6180953 L 7.0638766,-1.6172096 7.4003964,0.0050718 8.989361,-0.00481029 C 9.2101648,0.00678037 9.2465943,-1.4555e-5 9.2479356,-0.21513689 9.2451646,-0.89693335 8.9295736,-1.7804901 8.7082258,-2.421517 8.4947865,-2.9999343 8.2200789,-3.7855655 8.2196489,-4.535653 c 3.672e-4,-1.594646 1.099388,-2.2708494 2.0065561,-2.2779605 0.954961,0.00659 2.013958,0.7326387 2.017045,2.2851738 4.3e-4,0.7500875 -0.276872,1.506742 -0.567877,2.3111889 -0.155196,0.4209949 -0.473609,1.32102643 -0.470838,2.00282289 -0.0013,0.21512233186 0.04077,0.21857675 0.255892,0.21991806 l 1.578715,-0.00420066 z m 0,0"
       style="fill:#000000;fill-opacity:1;fill-rule:nonzero;stroke:none"
       aria-label="2Ω"
       transform="matrix(1.16616,0.64642667,-0.64642667,1.16616,384.67011,127.52277)" />
    <path
       id="path40"
       d="m 142.91426,74.70396 c 5.70874,-3.26211 12.9809,-1.27879 16.24301,4.42995 3.26212,5.70874 1.2788,12.98088 -4.42994,16.24301 -5.70874,3.26212 -12.9809,1.27878 -16.24302,-4.42994 -3.26211,-5.70874 -1.27879,-12.9809 4.42995,-16.24302 z m 0,0 11.81307,20.67296"
       style="fill:none;stroke:#000000;stroke-width:0.797;stroke-linecap:butt;stroke-linejoin:miter;stroke-miterlimit:10;stroke-dasharray:none;stroke-opacity:1"
       transform="matrix(1.3333333,0,0,-1.3333333,54.250667,183.23467)" />
    <path
       id="path41"
       d="m 120.35645,101.30577 0.9844,1.7227 -4.64517,0.36914 2.67636,-3.81456 z"
       style="fill:#000000;fill-opacity:1;fill-rule:nonzero;stroke:#000000;stroke-width:0.3985;stroke-linecap:butt;stroke-linejoin:miter;stroke-miterlimit:10;stroke-dasharray:none;stroke-opacity:1"
       transform="matrix(1.3333333,0,0,-1.3333333,54.250667,183.23467)" />
    <g
       id="g41"
       aria-label="5A"
       transform="matrix(1.3333333,0,0,1.3333333,189.204,61.216)">
      <path
         id="path42"
         d="m 4.4759063,-2.0047734 c 0,-1.1835938 -0.8203125,-2.1796875 -1.8984375,-2.1796875 -0.4804688,0 -0.9023438,0.1640625 -1.265625,0.5039062 v -1.9335937 c 0.1992187,0.058594 0.5273437,0.1289062 0.84375,0.1289062 1.2304687,0 1.9335937,-0.9140625 1.9335937,-1.0429687 0,-0.058594 -0.035156,-0.1054688 -0.1054687,-0.1054688 -0.011719,0 -0.035156,0 -0.082031,0.023437 -0.1992187,0.09375 -0.6796875,0.2929688 -1.3476562,0.2929688 -0.3984375,0 -0.8554688,-0.070312 -1.3242188,-0.28125 -0.082031,-0.023437 -0.1054687,-0.023437 -0.1289062,-0.023437 -0.09375,0 -0.09375,0.082031 -0.09375,0.234375 v 2.953125 c 0,0.1757812 0,0.2578125 0.140625,0.2578125 0.070312,0 0.082031,-0.035156 0.1289062,-0.09375 0.1054688,-0.1523438 0.4804688,-0.6914063 1.2773438,-0.6914063 0.5273437,0 0.7734375,0.4570313 0.8554687,0.6328125 0.1523438,0.375 0.1757813,0.7617188 0.1757813,1.2539063 0,0.3515625 0,0.9492187 -0.234375,1.37109371 -0.2460938,0.38671875 -0.609375,0.64453125 -1.0664063,0.64453125 -0.7265625,0 -1.30078125,-0.52734375 -1.46484375,-1.11328126 0.0234375,0.011719 0.0585938,0.011719 0.1640625,0.011719 0.32812505,0 0.50390625,-0.2460938 0.50390625,-0.4804688 0,-0.2460937 -0.1757812,-0.4921875 -0.50390625,-0.4921875 -0.140625,0 -0.48046875,0.070312 -0.48046875,0.5273438 0,0.85546871 0.6796875,1.82812496 1.7929688,1.82812496 1.1601562,0 2.1796875,-0.9609375 2.1796872,-2.22656266 z m 0,0"
         style="fill:#000000;fill-opacity:1;fill-rule:nonzero;stroke:none" />
      <path
         id="path43"
         d="M 13.777664,-8.671875e-4 V -0.30555469 h -0.175781 c -0.597656,0 -0.738281,-0.0703125 -0.84375,-0.3984375 l -2.15625,-6.23437501 c -0.04687,-0.1289062 -0.07031,-0.1992187 -0.222656,-0.1992187 -0.164063,0 -0.1875,0.058594 -0.246094,0.1992187 l -2.0625002,5.96484376 c -0.1757812,0.50390625 -0.5742187,0.65625 -1.1132812,0.66796875 V -8.671875e-4 L 7.9768828,-0.03602344 9.1253203,-8.671875e-4 V -0.30555469 c -0.5039062,0 -0.75,-0.2578125 -0.75,-0.515625 0,-0.0234375 0.011719,-0.12890625 0.023437,-0.140625 L 8.8557891,-2.2743047 h 2.4609379 l 0.527343,1.52343751 c 0.01172,0.046875 0.02344,0.10546875 0.02344,0.140625 0,0.3046875 -0.550781,0.3046875 -0.820313,0.3046875 V -8.671875e-4 C 11.398758,-0.03602344 12.101883,-0.03602344 12.476883,-0.03602344 Z M 11.199539,-2.5789922 H 8.9612578 l 1.1132812,-3.234375 z m 0,0"
         style="fill:#000000;fill-opacity:1;fill-rule:nonzero;stroke:none" />
    </g>
    <path
       id="path44"
       d="m 93.261,40.81943 v 31.7484 h 11.9057 v -31.7484 z"
       style="fill:none;stroke:#000000;stroke-width:0.797;stroke-linecap:butt;stroke-linejoin:miter;stroke-miterlimit:10;stroke-dasharray:none;stroke-opacity:1"
       transform="matrix(1.3333333,0,0,-1.3333333,54.250667,183.23467)" />
    <path
       id="path45"
       d="m 2.9289609,-6.3760703 c 0,-0.234375 0,-0.2578125 -0.234375,-0.2578125 -0.609375,0.6328125 -1.4882812,0.6328125 -1.80468746,0.6328125 v 0.3164062 c 0.19921876,0 0.78515626,0 1.30078126,-0.2578125 v 5.15625004 c 0,0.3515625 -0.035156,0.48046875 -0.9257813,0.48046875 H 0.94849219 v 0.3046875 C 1.3000547,-0.03622656 2.1555234,-0.03622656 2.5539609,-0.03622656 c 0.3984375,0 1.265625,0 1.6171875,0.03515625 v -0.3046875 H 3.8547422 c -0.9023438,0 -0.9257813,-0.1171875 -0.9257813,-0.48046875 z m 10.4443361,4.7578125 h -0.246094 c -0.04687,0.2578125 -0.08203,0.4921875 -0.175781,0.72656249 -0.04687,0.1640625 -0.08203,0.24609375 -0.65625,0.24609375 h -0.796875 c 0.128906,-0.56250004 0.433594,-1.04296874 0.878906,-1.69921874 0.46875,-0.703125 0.878906,-1.3945313 0.878906,-2.1796875 0,-1.3828125 -1.335937,-2.4960938 -3.023437,-2.4960938 -1.7109376,0 -3.0351564,1.1367188 -3.0351564,2.4960938 0,0.7851562 0.3984375,1.4765625 0.8671875,2.1796875 0.4453125,0.65625 0.7617188,1.1367187 0.890625,1.69921874 h -0.796875 c -0.5742187,0 -0.609375,-0.0820313 -0.65625,-0.234375 C 7.4201719,-1.1026328 7.3732969,-1.3604453 7.3264219,-1.6182578 H 7.0686094 l 0.328125,1.61718749 h 1.59375 c 0.2226562,0 0.2578125,0 0.2578125,-0.2109375 0,-0.69140625 -0.3164063,-1.57031249 -0.5390625,-2.21484379 -0.2109375,-0.5742187 -0.4921875,-1.359375 -0.4921875,-2.109375 0,-1.59375 1.1015625,-2.2734375 2.0039061,-2.2734375 0.960938,0 2.015625,0.7265625 2.015625,2.2734375 0,0.75 -0.269531,1.5117188 -0.5625,2.3203125 -0.152344,0.421875 -0.46875,1.31250004 -0.46875,2.00390629 0,0.2109375 0.03516,0.2109375 0.257813,0.2109375 h 1.582031 z m 0,0"
       style="fill:#000000;fill-opacity:1;fill-rule:nonzero;stroke:none"
       aria-label="1Ω"
       transform="matrix(1.3333333,0,0,1.3333333,157.208,110.50533)" />
  </g>
</svg>
