<?xml version="1.0" encoding="UTF-8" standalone="no"?>
<!-- Created with Inkscape (http://www.inkscape.org/) -->
<svg version="1.1" id="svg1" width="397.35999" height="170.33333" viewBox="0 0 397.35999 170.33333" sodipodi:docname="24-25-2-电路分析基础-期中-题图1.6.pdf" xmlns:inkscape="http://www.inkscape.org/namespaces/inkscape" xmlns:sodipodi="http://sodipodi.sourceforge.net/DTD/sodipodi-0.dtd" xmlns="http://www.w3.org/2000/svg" xmlns:svg="http://www.w3.org/2000/svg">
  <defs id="defs1"/>
  <sodipodi:namedview id="namedview1" pagecolor="#ffffff" bordercolor="#000000" borderopacity="0.25" inkscape:showpageshadow="2" inkscape:pageopacity="0.0" inkscape:pagecheckerboard="0" inkscape:deskcolor="#d1d1d1">
    <inkscape:page x="0" y="0" inkscape:label="1" id="page1" width="397.35999" height="170.33333" margin="0" bleed="0"/>
  </sodipodi:namedview>
  <g id="g1" inkscape:groupmode="layer" inkscape:label="1">
    <path id="path1" d="M -48.27054,-4.4932 V 123.25534 H 249.75488 V -4.4932 Z" style="fill:#ffffff;fill-opacity:1;fill-rule:nonzero;stroke:none" transform="matrix(1.3333333,0,0,-1.3333333,64.36,164.34267)"/>
    <path id="path2" d="m 0,0 v 37.7012 m 0,23.81143 v 37.70124 l 19.55931,-2e-5 m 31.7484,0 19.55932,2e-5 -1e-5,-33.73276 m 0,-31.74838 L 70.86703,0 H 0" style="fill:none;stroke:#000000;stroke-width:0.3985;stroke-linecap:butt;stroke-linejoin:miter;stroke-miterlimit:10;stroke-dasharray:none;stroke-opacity:1" transform="matrix(1.3333333,0,0,-1.3333333,64.36,164.34267)"/>
    <path id="path3" d="m -11.90572,49.60692 c 0,6.57542 5.33031,11.90571 11.90572,11.90571 6.57541,0 11.90572,-5.33029 11.90572,-11.90571 C 11.90572,43.03151 6.57541,37.7012 0,37.7012 c -6.57541,0 -11.90572,5.33031 -11.90572,11.90572 z" style="fill:none;stroke:#000000;stroke-width:0.797;stroke-linecap:butt;stroke-linejoin:miter;stroke-miterlimit:10;stroke-dasharray:none;stroke-opacity:1" transform="matrix(1.3333333,0,0,-1.3333333,64.36,164.34267)"/>
    <path id="path4" d="m 6.5639219,-2.2956016 c 0.1757812,0 0.3515625,0 0.3515625,-0.1992187 0,-0.1992188 -0.1757813,-0.1992188 -0.3515625,-0.1992188 h -5.390625 c -0.1640625,0 -0.33984377,0 -0.33984377,0.1992188 0,0.1992187 0.17578127,0.1992187 0.33984377,0.1992187 z m 0,0" style="fill:#000000;fill-opacity:1;fill-rule:nonzero;stroke:none" aria-label="−" transform="matrix(-1.3333333,0,0,1.3333333,69.525333,108.20533)"/>
    <path id="path5" d="m 4.0795469,-2.2979219 h 2.7773437 c 0.140625,0 0.328125,0 0.328125,-0.1992187 0,-0.1992188 -0.1875,-0.1992188 -0.328125,-0.1992188 H 4.0795469 v -2.7890625 c 0,-0.1289062 0,-0.328125 -0.1992188,-0.328125 -0.1992187,0 -0.1992187,0.1992188 -0.1992187,0.328125 v 2.7890625 H 0.89204688 c -0.140625,0 -0.328125,0 -0.328125,0.1992188 0,0.1992187 0.1875,0.1992187 0.328125,0.1992187 H 3.6811094 v 2.80078128 c 0,0.12890625 0,0.328125 0.1992187,0.328125 0.1992188,0 0.1992188,-0.19921875 0.1992188,-0.328125 z m 0,0" style="fill:#000000;fill-opacity:1;fill-rule:nonzero;stroke:none" aria-label="+" transform="matrix(-1.3333333,0,0,1.3333333,69.525333,94.837333)"/>
    <g id="g5" aria-label="100V" transform="matrix(1.3333333,0,0,1.3333333,8.3813333,102.59067)">
      <path id="path6" d="m 2.9307969,-6.3756172 c 0,-0.234375 0,-0.2578125 -0.234375,-0.2578125 -0.609375,0.6328125 -1.4882813,0.6328125 -1.80468753,0.6328125 v 0.3164063 c 0.19921873,0 0.78515623,0 1.30078123,-0.2578125 v 5.15624996 c 0,0.3515625 -0.035156,0.48046875 -0.9257812,0.48046875 H 0.95032812 V -6.171875e-4 C 1.3018906,-0.03577344 2.1573594,-0.03577344 2.5557969,-0.03577344 c 0.3984375,0 1.265625,0 1.6171875,0.0351562525 V -0.30530469 H 3.8565781 c -0.9023437,0 -0.9257812,-0.1171875 -0.9257812,-0.48046875 z m 6.6328125,3.1875 c 0,-0.796875 -0.046875,-1.59375 -0.3984375,-2.3320312 -0.4570313,-0.9609375 -1.2773438,-1.1132813 -1.6875,-1.1132813 -0.5976563,0 -1.3359375,0.2578125 -1.734375,1.1835938 -0.328125,0.6914062 -0.375,1.4648437 -0.375,2.2617187 0,0.75 0.046875,1.640625 0.4453125,2.40234376 0.4335937,0.80859375 1.1601562,1.0078125 1.6523437,1.0078125 0.5390625,0 1.2890625,-0.2109375 1.734375,-1.16015625 C 9.5167344,-1.6295234 9.5636094,-2.4029609 9.5636094,-3.1881172 Z M 7.4659531,-6.171875e-4 c -0.3867187,0 -0.984375,-0.2460937525 -1.1601562,-1.2070312125 -0.1054688,-0.5976563 -0.1054688,-1.5117188 -0.1054688,-2.0976563 0,-0.6445312 0,-1.3007812 0.082031,-1.8398437 0.1875,-1.1835938 0.9257812,-1.265625 1.1835937,-1.265625 0.328125,0 0.984375,0.1757812 1.171875,1.1601562 0.09375,0.5625 0.09375,1.3125 0.09375,1.9453125 0,0.75 0,1.4179688 -0.1054687,2.0625 -0.1523435,0.93750001 -0.7148435,1.2421875125 -1.160156,1.2421875125 z M 14.544078,-3.1881172 c 0,-0.796875 -0.04687,-1.59375 -0.398437,-2.3320312 -0.457032,-0.9609375 -1.277344,-1.1132813 -1.6875,-1.1132813 -0.597657,0 -1.335938,0.2578125 -1.734375,1.1835938 -0.328125,0.6914062 -0.375,1.4648437 -0.375,2.2617187 0,0.75 0.04687,1.640625 0.445312,2.40234376 0.433594,0.80859375 1.160156,1.0078125 1.652344,1.0078125 0.539062,0 1.289062,-0.2109375 1.734375,-1.16015625 0.316406,-0.69140621 0.363281,-1.46484371 0.363281,-2.25000001 z m -2.097656,3.1875000125 c -0.386719,0 -0.984375,-0.2460937525 -1.160156,-1.2070312125 -0.105469,-0.5976563 -0.105469,-1.5117188 -0.105469,-2.0976563 0,-0.6445312 0,-1.3007812 0.08203,-1.8398437 0.1875,-1.1835938 0.925781,-1.265625 1.183594,-1.265625 0.328125,0 0.984375,0.1757812 1.171875,1.1601562 0.09375,0.5625 0.09375,1.3125 0.09375,1.9453125 0,0.75 0,1.4179688 -0.105469,2.0625 -0.152344,0.93750001 -0.714844,1.2421875125 -1.160156,1.2421875125 z m 0,0" style="fill:#000000;fill-opacity:1;fill-rule:nonzero;stroke:none"/>
      <path id="path7" d="m 23.880992,-6.4928047 v -0.3164062 c -0.316406,0.023437 -0.714844,0.035156 -0.972656,0.035156 l -1.136719,-0.035156 v 0.3164062 c 0.515625,0.011719 0.726563,0.2695313 0.726563,0.4921875 0,0.082031 -0.02344,0.140625 -0.04687,0.1992188 l -1.82813,4.80468746 -1.898438,-5.02734376 c -0.05859,-0.140625 -0.05859,-0.1875 -0.05859,-0.1875 0,-0.28125 0.5625,-0.28125 0.820313,-0.28125 v -0.3164062 c -0.363281,0.035156 -1.054688,0.035156 -1.429688,0.035156 l -1.265625,-0.035156 v 0.3164062 c 0.644532,0 0.84375,0 0.972657,0.375 l 2.320312,6.1171875125 c 0.07031,0.1874999975 0.117184,0.2226562475 0.24609,0.2226562475 0.164062,0 0.1875,-0.0585938 0.234375,-0.1875 l 2.226562,-5.85937496 c 0.140625,-0.375 0.410157,-0.65625 1.089844,-0.6679688 z m 0,0" style="fill:#000000;fill-opacity:1;fill-rule:nonzero;stroke:none"/>
    </g>
    <path id="path8" d="M 19.55931,105.1667 H 51.30769 V 93.261 H 19.55931 Z" style="fill:none;stroke:#000000;stroke-width:0.797;stroke-linecap:butt;stroke-linejoin:miter;stroke-miterlimit:10;stroke-dasharray:none;stroke-opacity:1" transform="matrix(1.3333333,0,0,-1.3333333,64.36,164.34267)"/>
    <path id="path9" d="M 1.2655703,-0.76035156 2.3202578,-1.7916016 c 1.5585938,-1.3710937 2.15625,-1.9101562 2.15625,-2.90625 0,-1.1367187 -0.9023437,-1.9335937 -2.1210937,-1.9335937 -1.125,0 -1.85156254,0.9140625 -1.85156254,1.8046875 0,0.5507812 0.4921875,0.5507812 0.52734374,0.5507812 0.1640625,0 0.515625,-0.1171875 0.515625,-0.5273437 0,-0.2578125 -0.1875,-0.515625 -0.5273437,-0.515625 -0.0820313,0 -0.10546879,0 -0.12890629,0.011719 0.22265629,-0.6445312 0.76171879,-1.0195312 1.33593749,-1.0195312 0.9140625,0 1.3359375,0.8085937 1.3359375,1.6289062 0,0.796875 -0.4921875,1.5820313 -1.0429687,2.203125 L 0.60932031,-0.36191406 C 0.50385156,-0.25644531 0.50385156,-0.23300781 0.50385156,0.00136719 H 4.1952578 l 0.28125,-1.73437499 H 4.2186953 c -0.046875,0.3046875 -0.1171875,0.73828124 -0.2109375,0.89062499 -0.070313,0.0820313 -0.7265625,0.0820313 -0.9492187,0.0820313 z m 8.296875,-2.42578124 c 0,-0.796875 -0.046875,-1.59375 -0.3984375,-2.3320313 -0.4570312,-0.9609375 -1.2773437,-1.1132812 -1.6875,-1.1132812 -0.5976562,0 -1.3359375,0.2578125 -1.734375,1.1835937 -0.328125,0.6914063 -0.375,1.4648438 -0.375,2.2617188 0,0.75 0.046875,1.640625 0.4453125,2.40234374 0.4335938,0.80859375 1.1601563,1.0078125 1.6523438,1.0078125 0.5390625,0 1.2890625,-0.2109375 1.734375,-1.16015625 C 9.5155703,-1.6275391 9.5624453,-2.4009766 9.5624453,-3.1861328 Z M 7.4647891,0.00136719 c -0.3867188,0 -0.984375,-0.24609375 -1.1601563,-1.20703129 -0.1054687,-0.5976562 -0.1054687,-1.5117187 -0.1054687,-2.0976562 0,-0.6445313 0,-1.3007813 0.082031,-1.8398438 0.1875,-1.1835937 0.9257813,-1.265625 1.1835938,-1.265625 0.328125,0 0.984375,0.1757813 1.171875,1.1601563 0.09375,0.5625 0.09375,1.3125 0.09375,1.9453125 0,0.75 0,1.4179687 -0.1054688,2.0625 -0.1523435,0.93749999 -0.7148435,1.24218749 -1.160156,1.24218749 z M 18.354438,-1.6158203 h -0.246094 c -0.04687,0.2578125 -0.08203,0.4921875 -0.175781,0.72656249 -0.04687,0.1640625 -0.08203,0.24609375 -0.65625,0.24609375 h -0.796875 c 0.128906,-0.56250004 0.433593,-1.04296874 0.878906,-1.69921874 0.46875,-0.703125 0.878906,-1.3945313 0.878906,-2.1796875 0,-1.3828125 -1.335937,-2.4960938 -3.023437,-2.4960938 -1.710938,0 -3.035157,1.1367188 -3.035157,2.4960938 0,0.7851562 0.398438,1.4765625 0.867188,2.1796875 0.445312,0.65625 0.761719,1.1367187 0.890625,1.69921874 h -0.796875 c -0.574219,0 -0.609375,-0.0820313 -0.65625,-0.234375 C 12.401313,-1.1001953 12.354438,-1.3580078 12.307563,-1.6158203 H 12.04975 l 0.328125,1.61718749 h 1.59375 c 0.222656,0 0.257813,0 0.257813,-0.2109375 0,-0.69140625 -0.316407,-1.57031249 -0.539063,-2.21484379 -0.210937,-0.5742187 -0.492187,-1.359375 -0.492187,-2.109375 0,-1.59375 1.101562,-2.2734375 2.003906,-2.2734375 0.960937,0 2.015625,0.7265625 2.015625,2.2734375 0,0.75 -0.269531,1.5117188 -0.5625,2.3203125 -0.152344,0.421875 -0.46875,1.31250004 -0.46875,2.00390629 0,0.2109375 0.03516,0.2109375 0.257812,0.2109375 h 1.582032 z m 0,0" style="fill:#000000;fill-opacity:1;fill-rule:nonzero;stroke:none" aria-label="20Ω" transform="matrix(1.3333333,0,0,1.3333333,99.058667,19.033333)"/>
    <path id="path10" d="m 64.91417,33.73273 v 31.74838 h 11.9057 V 33.73273 Z" style="fill:none;stroke:#000000;stroke-width:0.797;stroke-linecap:butt;stroke-linejoin:miter;stroke-miterlimit:10;stroke-dasharray:none;stroke-opacity:1" transform="matrix(1.3333333,0,0,-1.3333333,64.36,164.34267)"/>
    <path id="path11" d="m 2.8944531,-3.5040312 c 0.8085938,-0.2695313 1.3945313,-0.9726563 1.3945313,-1.7578125 0,-0.8203125 -0.8789063,-1.3710938 -1.8398438,-1.3710938 -1.0078125,0 -1.75781247,0.5976563 -1.75781247,1.3476563 0,0.3398437 0.2109375,0.5273437 0.50390627,0.5273437 0.3046875,0 0.5039062,-0.2226562 0.5039062,-0.515625 0,-0.4921875 -0.46875,-0.4921875 -0.609375,-0.4921875 0.3046875,-0.4921875 0.9609375,-0.6210937 1.3242188,-0.6210937 0.4101562,0 0.9492187,0.2226562 0.9492187,1.1132812 0,0.1289063 -0.011719,0.703125 -0.2695312,1.1367188 -0.3046875,0.4804687 -0.6445313,0.515625 -0.890625,0.515625 -0.082031,0.011719 -0.3164063,0.035156 -0.3867188,0.035156 -0.082031,0.011719 -0.1523437,0.023437 -0.1523437,0.1171875 0,0.1171875 0.070312,0.1171875 0.234375,0.1171875 h 0.4453125 c 0.8085937,0 1.1835937,0.6679688 1.1835937,1.6523438 0,1.3476562 -0.6914062,1.64062495 -1.125,1.64062495 -0.4335937,0 -1.171875,-0.17578125 -1.52343747,-0.76171875 C 1.2303906,-0.76184375 1.5350781,-0.9845 1.5350781,-1.3595 c 0,-0.3632812 -0.2695312,-0.5625 -0.56249997,-0.5625 -0.234375,0 -0.55078125,0.140625 -0.55078125,0.5742188 0,0.91406245 0.92578122,1.57031245 2.00390622,1.57031245 1.21875,0 2.1210938,-0.9140625 2.1210938,-1.92187495 0,-0.8203125 -0.6210938,-1.59375 -1.6523438,-1.8046875 z m 6.6679688,0.3164062 c 0,-0.796875 -0.046875,-1.59375 -0.3984375,-2.3320312 -0.4570313,-0.9609375 -1.2773438,-1.1132813 -1.6875,-1.1132813 -0.5976563,0 -1.3359375,0.2578125 -1.734375,1.1835938 -0.328125,0.6914062 -0.375,1.4648437 -0.375,2.2617187 0,0.75 0.046875,1.640625 0.4453125,2.40234375 0.4335937,0.80859375 1.1601562,1.0078125 1.6523437,1.0078125 0.5390625,0 1.2890625,-0.2109375 1.734375,-1.16015625 0.3164063,-0.6914062 0.3632813,-1.4648437 0.3632813,-2.25 z m -2.0976563,3.1875 c -0.3867187,0 -0.984375,-0.24609375 -1.1601562,-1.2070312 -0.1054688,-0.5976563 -0.1054688,-1.5117188 -0.1054688,-2.0976563 0,-0.6445312 0,-1.3007812 0.082031,-1.8398437 0.1875,-1.1835938 0.9257812,-1.265625 1.1835937,-1.265625 0.328125,0 0.984375,0.1757812 1.171875,1.1601562 0.09375,0.5625 0.09375,1.3125 0.09375,1.9453125 0,0.75 0,1.4179688 -0.1054687,2.0625 -0.1523438,0.9375 -0.7148438,1.2421875 -1.160156,1.2421875 z M 18.354414,-1.6173125 H 18.10832 C 18.06145,-1.3595 18.02629,-1.125125 17.932539,-0.89075 c -0.04687,0.1640625 -0.08203,0.24609375 -0.65625,0.24609375 H 16.479414 C 16.60832,-1.2071562 16.913008,-1.687625 17.35832,-2.343875 c 0.46875,-0.703125 0.878907,-1.3945312 0.878907,-2.1796875 0,-1.3828125 -1.335938,-2.4960937 -3.023438,-2.4960937 -1.710937,0 -3.035156,1.1367187 -3.035156,2.4960937 0,0.7851563 0.398437,1.4765625 0.867187,2.1796875 0.445313,0.65625 0.761719,1.1367188 0.890625,1.69921875 H 13.13957 c -0.574218,0 -0.609375,-0.0820313 -0.65625,-0.234375 C 12.401289,-1.1016875 12.354414,-1.3595 12.307539,-1.6173125 h -0.257812 l 0.328125,1.6171875 h 1.59375 c 0.222656,0 0.257812,0 0.257812,-0.2109375 0,-0.69140625 -0.316406,-1.5703125 -0.539062,-2.2148437 -0.210938,-0.5742188 -0.492188,-1.359375 -0.492188,-2.109375 0,-1.59375 1.101563,-2.2734375 2.003906,-2.2734375 0.960938,0 2.015625,0.7265625 2.015625,2.2734375 0,0.75 -0.269531,1.5117187 -0.5625,2.3203125 -0.152343,0.421875 -0.46875,1.31249995 -0.46875,2.0039062 0,0.2109375 0.03516,0.2109375 0.257813,0.2109375 h 1.582031 z m 0,0" style="fill:#000000;fill-opacity:1;fill-rule:nonzero;stroke:none" aria-label="30Ω" transform="matrix(1.3333333,0,0,1.3333333,169.72667,101.06267)"/>
    <path id="path12" d="m 70.86703,0 h 141.73411 l -2e-5,45.63844 m 0,7.93696 2e-5,45.63847 -60.94573,-2e-5 m -19.84268,0 -60.9457,2e-5" style="fill:none;stroke:#000000;stroke-width:0.3985;stroke-linecap:butt;stroke-linejoin:miter;stroke-miterlimit:10;stroke-dasharray:none;stroke-opacity:1" transform="matrix(1.3333333,0,0,-1.3333333,64.36,164.34267)"/>
    <path id="path13" d="m 200.6954,45.63844 h 23.81144 M 200.6954,53.5754 h 23.81144" style="fill:none;stroke:#000000;stroke-width:0.797;stroke-linecap:butt;stroke-linejoin:miter;stroke-miterlimit:10;stroke-dasharray:none;stroke-opacity:1" transform="matrix(1.3333333,0,0,-1.3333333,64.36,164.34267)"/>
    <path id="path14" d="m 7.5693906,-6.9259062 c 0,-0.023437 -0.023437,-0.09375 -0.1054687,-0.09375 -0.035156,0 -0.046875,0.011719 -0.1523438,0.1171875 L 6.6084531,-6.14075 c -0.082031,-0.140625 -0.5390625,-0.8789062 -1.6523437,-0.8789062 -2.2148438,0 -4.45312503,2.203125 -4.45312503,4.5117187 0,1.640625 1.17187503,2.73046875 2.69531253,2.73046875 0.8671875,0 1.6171875,-0.3984375 2.1445312,-0.85546875 0.9375,-0.8203125 1.1015625,-1.7226562 1.1015625,-1.7578125 0,-0.1054687 -0.1054687,-0.1054687 -0.1171875,-0.1054687 -0.058594,0 -0.1171875,0.023437 -0.1289062,0.1054687 -0.09375,0.2929688 -0.3164063,0.9960938 -1.0078125,1.5703125 -0.6914063,0.5625 -1.3125,0.7265625 -1.8398438,0.7265625 -0.890625,0 -1.9453125,-0.515625 -1.9453125,-2.0625 0,-0.5742187 0.2109375,-2.1914062 1.2070313,-3.3515625 0.609375,-0.703125 1.5351562,-1.2070312 2.4257812,-1.2070312 1.0195313,0 1.6054688,0.7734375 1.6054688,1.921875 0,0.3984375 -0.035156,0.4101562 -0.035156,0.5039062 0,0.1054688 0.1171875,0.1054688 0.1523438,0.1054688 0.1289062,0 0.1289062,-0.023437 0.1757812,-0.1992188 z m 0,0" style="fill:#000000;fill-opacity:1;fill-rule:nonzero;stroke:none" aria-label="C" transform="matrix(1.3333333,0,0,1.3333333,317.77467,101.06267)"/>
    <path id="path15" d="m 6.5635937,-2.2954219 c 0.1757813,0 0.3515625,0 0.3515625,-0.1992187 0,-0.1992188 -0.1757812,-0.1992188 -0.3515625,-0.1992188 h -5.390625 c -0.1640625,0 -0.3398437,0 -0.3398437,0.1992188 0,0.1992187 0.1757812,0.1992187 0.3398437,0.1992187 z m 0,0" style="fill:#000000;fill-opacity:1;fill-rule:nonzero;stroke:none" aria-label="−" transform="matrix(1.3333333,0,0,1.3333333,352.32667,135.584)"/>
    <path id="path16" d="m 4.0792187,-2.2971016 h 2.7773438 c 0.140625,0 0.328125,0 0.328125,-0.1992187 0,-0.1992188 -0.1875,-0.1992188 -0.328125,-0.1992188 H 4.0792187 v -2.7890625 c 0,-0.1289062 0,-0.328125 -0.1992187,-0.328125 -0.1992188,0 -0.1992188,0.1992188 -0.1992188,0.328125 v 2.7890625 H 0.89171875 c -0.140625,0 -0.328125,0 -0.328125,0.1992188 0,0.1992187 0.1875,0.1992187 0.328125,0.1992187 H 3.6807812 v 2.80078129 c 0,0.12890625 0,0.328125 0.1992188,0.328125 0.1992187,0 0.1992187,-0.19921875 0.1992187,-0.328125 z m 0,0" style="fill:#000000;fill-opacity:1;fill-rule:nonzero;stroke:none" aria-label="+" transform="matrix(1.3333333,0,0,1.3333333,352.32667,67.457333)"/>
    <g id="g16" aria-label="u&#xA;C" transform="matrix(1.3333333,0,0,1.3333333,372.44533,100.064)">
      <path id="path17" d="m 3.4921719,-0.563625 c 0.1054687,0.41015625 0.4570312,0.66796875 0.8789062,0.66796875 0.3515625,0 0.5742188,-0.22265625 0.7382813,-0.5390625 C 5.2851406,-0.798 5.4140469,-1.407375 5.4140469,-1.4308125 c 0,-0.09375 -0.09375,-0.09375 -0.1289063,-0.09375 -0.09375,0 -0.1054687,0.035156 -0.140625,0.1757813 -0.1289062,0.56249995 -0.328125,1.24218745 -0.7382812,1.24218745 -0.2109375,0 -0.3164063,-0.12890625 -0.3164063,-0.45703125 0,-0.22265625 0.1289063,-0.6914062 0.1992188,-1.0429687 l 0.28125,-1.078125 c 0.035156,-0.140625 0.1289062,-0.5273438 0.1757812,-0.6679688 0.046875,-0.234375 0.140625,-0.609375 0.140625,-0.6679687 0,-0.1875 -0.140625,-0.2695313 -0.28125,-0.2695313 -0.058594,0 -0.3164062,0 -0.3867187,0.3398438 -0.1992188,0.7265625 -0.6328125,2.4726562 -0.75,2.99999995 -0.011719,0.046875 -0.4101563,0.84375 -1.1367188,0.84375 -0.515625,0 -0.6210937,-0.45703125 -0.6210937,-0.8203125 0,-0.56249995 0.28125,-1.34765625 0.5390625,-2.02734375 0.1171875,-0.3046875 0.1757812,-0.4453125 0.1757812,-0.6328125 0,-0.4453125 -0.328125,-0.8203125 -0.8203125,-0.8203125 -0.94921873,0 -1.31249998,1.453125 -1.31249998,1.5351563 0,0.1054687 0.09375,0.1054687 0.1171875,0.1054687 0.09375,0 0.10546875,-0.023437 0.15234375,-0.1875 0.2578125,-0.8671875 0.63281253,-1.2304687 1.00781253,-1.2304687 0.09375,0 0.2578125,0.011719 0.2578125,0.328125 0,0.234375 -0.1171875,0.5273437 -0.1757813,0.6796875 -0.3632812,0.984375 -0.5742187,1.6054687 -0.5742187,2.0859375 0,0.9492187 0.6796875,1.19531245 1.21875,1.19531245 0.65625,0 1.0195312,-0.4453125 1.1953125,-0.66796875 z m 0,0" style="fill:#000000;fill-opacity:1;fill-rule:nonzero;stroke:none"/>
      <path id="path18" d="m 11.586898,-3.3233906 c 0,-0.035156 -0.02344,-0.082031 -0.09375,-0.082031 -0.04687,0 -0.07031,0.011719 -0.128906,0.082031 l -0.503906,0.5390625 c -0.07031,-0.082031 -0.457031,-0.6210938 -1.3125001,-0.6210938 -1.6992187,0 -3.3515625,1.5 -3.3515625,3.07031253 0,1.13671875 0.890625,1.96874997 2.1328125,1.96874997 0.375,0 1.0546875,-0.082031 1.7695311,-0.67968747 0.550781,-0.46875 0.703125,-1.078125 0.703125,-1.13671875 0,-0.09375 -0.08203,-0.09375 -0.117187,-0.09375 -0.09375,0 -0.105469,0.0351563 -0.128907,0.1171875 -0.28125,0.94921875 -1.2656246,1.53515622 -2.1093746,1.53515622 -0.7382812,0 -1.5585937,-0.38671872 -1.5585937,-1.48828122 0,-0.2109375 0.046875,-1.31249998 0.8554687,-2.19140628 0.4804688,-0.5273437 1.2070313,-0.8554687 1.875,-0.8554687 0.8085936,0 1.2773436,0.5859375 1.2773436,1.3710937 0,0.1875 -0.02344,0.2460938 -0.02344,0.28125 0,0.09375 0.09375,0.09375 0.128906,0.09375 0.117187,0 0.117187,-0.023437 0.152344,-0.1523437 z m 0,0" style="fill:#000000;fill-opacity:1;fill-rule:nonzero;stroke:none"/>
    </g>
    <path id="path19" d="m 212.60112,78.13083 h -1.98425 l 1.98425,-4.21654 1.98425,4.21654 z" style="fill:#000000;fill-opacity:1;fill-rule:nonzero;stroke:#000000;stroke-width:0.3985;stroke-linecap:butt;stroke-linejoin:miter;stroke-miterlimit:10;stroke-dasharray:none;stroke-opacity:1" transform="matrix(1.3333333,0,0,-1.3333333,64.36,164.34267)"/>
    <g id="g19" aria-label="i&#xA;C" transform="matrix(1.3333333,0,0,1.3333333,329.624,65.868)">
      <path id="path20" d="m 2.8249687,-6.2232656 c 0,-0.1992188 -0.1289062,-0.3632813 -0.3632812,-0.3632813 -0.2695313,0 -0.5390625,0.2578125 -0.5390625,0.5273438 0,0.1875 0.140625,0.3632812 0.375,0.3632812 0.234375,0 0.5273437,-0.234375 0.5273437,-0.5273437 z m -0.75,3.7382812 c 0.1171875,-0.28125 0.1171875,-0.3046875 0.2226563,-0.5742187 0.070312,-0.1992188 0.1289062,-0.3398438 0.1289062,-0.5273438 0,-0.4453125 -0.328125,-0.8203125 -0.8203125,-0.8203125 -0.93749995,0 -1.31249995,1.453125 -1.31249995,1.5351563 0,0.1054687 0.09375,0.1054687 0.1171875,0.1054687 0.09375,0 0.10546875,-0.023437 0.15234375,-0.1875 0.26953125,-0.9375 0.6679687,-1.2304687 1.0078125,-1.2304687 0.082031,0 0.2578125,0 0.2578125,0.3164062 0,0.2109375 -0.070312,0.421875 -0.1171875,0.515625 -0.082031,0.2578125 -0.5273438,1.4179688 -0.6796875,1.8515625 -0.10546875,0.2578125 -0.234375,0.58593753 -0.234375,0.79687503 0,0.46875 0.3398437,0.80859375 0.8203125,0.80859375 0.9375,0 1.3007812,-1.44140628 1.3007812,-1.53515628 0,-0.09375 -0.09375,-0.09375 -0.1171875,-0.09375 -0.1054687,0 -0.1054687,0.023437 -0.1523437,0.1757813 -0.1757813,0.63281248 -0.5039063,1.24218748 -1.0195313,1.24218748 -0.1640625,0 -0.234375,-0.10546875 -0.234375,-0.328125 0,-0.2578125 0.058594,-0.3984375 0.2929688,-0.99609378 z m 0,0" style="fill:#000000;fill-opacity:1;fill-rule:nonzero;stroke:none"/>
      <path id="path21" d="m 9.3142266,-3.322875 c 0,-0.035156 -0.023437,-0.082031 -0.09375,-0.082031 -0.046875,0 -0.070312,0.011719 -0.1289063,0.082031 l -0.5039062,0.5390625 c -0.070312,-0.082031 -0.4570313,-0.6210937 -1.3125,-0.6210937 -1.6992188,0 -3.3515625,1.5 -3.3515625,3.07031245 0,1.13671875 0.890625,1.96875005 2.1328125,1.96875005 0.375,0 1.0546875,-0.082031 1.7695312,-0.67968755 0.5507813,-0.46875 0.703125,-1.078125 0.703125,-1.13671875 0,-0.09375 -0.082031,-0.09375 -0.1171875,-0.09375 -0.09375,0 -0.1054687,0.0351563 -0.1289062,0.1171875 -0.28125,0.94921875 -1.265625,1.5351563 -2.109375,1.5351563 -0.7382813,0 -1.5585938,-0.3867188 -1.5585938,-1.4882813 0,-0.2109375 0.046875,-1.3125 0.8554688,-2.1914062 0.4804687,-0.5273438 1.2070312,-0.8554688 1.875,-0.8554688 0.8085937,0 1.2773437,0.5859375 1.2773437,1.3710938 0,0.1875 -0.023437,0.2460937 -0.023437,0.28125 0,0.09375 0.09375,0.09375 0.1289063,0.09375 0.1171875,0 0.1171875,-0.023437 0.1523437,-0.1523438 z m 0,0" style="fill:#000000;fill-opacity:1;fill-rule:nonzero;stroke:none"/>
    </g>
    <path id="path22" d="m 131.81273,99.21385 19.84268,-2.38072" style="fill:none;stroke:#000000;stroke-width:3.17429;stroke-linecap:round;stroke-linejoin:miter;stroke-miterlimit:10;stroke-dasharray:none;stroke-opacity:1" transform="matrix(1.3333333,0,0,-1.3333333,64.36,164.34267)"/>
    <path id="path23" d="m 143.53754,101.28119 c 0.68546,-3.88773 -0.60549,-7.78732 -3.30866,-10.48908" style="fill:none;stroke:#000000;stroke-width:0.797;stroke-linecap:butt;stroke-linejoin:miter;stroke-miterlimit:10;stroke-dasharray:none;stroke-opacity:1" transform="matrix(1.3333333,0,0,-1.3333333,64.36,164.34267)"/>
    <path id="path24" d="m 3.1083,0 c -1.29513,0.25902 -3.62635,0.77707 -5.1805,1.94269 1.29513,-1.42464 1.29513,-2.46074 0,-3.88538 C -0.51805,-0.77707 1.81317,-0.25902 3.1083,0 Z" style="fill:#000000;fill-opacity:1;fill-rule:nonzero;stroke:none" transform="matrix(-0.98305333,0.90064,0.90064,0.98305333,251.103,43.005493)"/>
    <path id="path25" d="m 133.39987,99.21385 c 0,-0.87655 -0.71058,-1.58714 -1.58714,-1.58714 -0.87656,0 -1.58714,0.71059 -1.58714,1.58714 0,0.87656 0.71058,1.58715 1.58714,1.58715 0.87656,0 1.58714,-0.71059 1.58714,-1.58715 z" style="fill:#ffffff;fill-opacity:1;fill-rule:nonzero;stroke:#000000;stroke-width:0.3985;stroke-linecap:butt;stroke-linejoin:miter;stroke-miterlimit:10;stroke-dasharray:none;stroke-opacity:1" transform="matrix(1.3333333,0,0,-1.3333333,64.36,164.34267)"/>
    <path id="path26" d="m 153.24257,99.21385 c 0,-0.87655 -0.71059,-1.58714 -1.58716,-1.58714 -0.87656,0 -1.58714,0.71059 -1.58714,1.58714 0,0.87656 0.71058,1.58715 1.58714,1.58715 0.87657,0 1.58716,-0.71059 1.58716,-1.58715 z" style="fill:#ffffff;fill-opacity:1;fill-rule:nonzero;stroke:#000000;stroke-width:0.3985;stroke-linecap:butt;stroke-linejoin:miter;stroke-miterlimit:10;stroke-dasharray:none;stroke-opacity:1" transform="matrix(1.3333333,0,0,-1.3333333,64.36,164.34267)"/>
  </g>
</svg>