<?xml version="1.0" encoding="UTF-8" standalone="no"?>
<!-- Created with Inkscape (http://www.inkscape.org/) -->

<svg
   version="1.1"
   id="svg1"
   width="283.89334"
   height="172.44"
   viewBox="0 0 283.89334 172.44"
   sodipodi:docname="24-25-2-电路分析基础-期中-题图2.2.pdf"
   xmlns:inkscape="http://www.inkscape.org/namespaces/inkscape"
   xmlns:sodipodi="http://sodipodi.sourceforge.net/DTD/sodipodi-0.dtd"
   xmlns="http://www.w3.org/2000/svg"
   xmlns:svg="http://www.w3.org/2000/svg">
  <defs
     id="defs1" />
  <sodipodi:namedview
     id="namedview1"
     pagecolor="#ffffff"
     bordercolor="#000000"
     borderopacity="0.25"
     inkscape:showpageshadow="2"
     inkscape:pageopacity="0.0"
     inkscape:pagecheckerboard="0"
     inkscape:deskcolor="#d1d1d1">
    <inkscape:page
       x="0"
       y="0"
       inkscape:label="1"
       id="page1"
       width="283.89334"
       height="172.44"
       margin="0"
       bleed="0" />
  </sodipodi:namedview>
  <g
     id="g1"
     inkscape:groupmode="layer"
     inkscape:label="1">
    <path
       id="path1"
       d="M -43.28915,-6.08034 V 123.25534 H 169.63379 V -6.08034 Z"
       style="fill:#ffffff;fill-opacity:1;fill-rule:nonzero;stroke:none"
       transform="matrix(1.3333333,0,0,-1.3333333,57.718667,164.33333)" />
    <path
       id="path2"
       d="m 0,0 v 37.7012 m 0,23.81143 v 37.70124 l 19.55931,-2e-5 m 31.7484,0 19.55932,2e-5 -1e-5,-12.89777 m 0,-23.81145 1e-5,-12.89773 -1e-5,-8.92928 m 0,-31.74838 L 70.86703,0 H 0"
       style="fill:none;stroke:#000000;stroke-width:0.3985;stroke-linecap:butt;stroke-linejoin:miter;stroke-miterlimit:10;stroke-dasharray:none;stroke-opacity:1"
       transform="matrix(1.3333333,0,0,-1.3333333,57.718667,164.33333)" />
    <path
       id="path3"
       d="m -11.90572,49.60692 c 0,6.57542 5.33031,11.90571 11.90572,11.90571 6.57541,0 11.90572,-5.33029 11.90572,-11.90571 C 11.90572,43.03151 6.57541,37.7012 0,37.7012 c -6.57541,0 -11.90572,5.33031 -11.90572,11.90572 z"
       style="fill:none;stroke:#000000;stroke-width:0.797;stroke-linecap:butt;stroke-linejoin:miter;stroke-miterlimit:10;stroke-dasharray:none;stroke-opacity:1"
       transform="matrix(1.3333333,0,0,-1.3333333,57.718667,164.33333)" />
    <path
       id="path4"
       d="m 6.5633906,-2.2973906 c 0.1757813,0 0.3515625,0 0.3515625,-0.1992188 0,-0.1992187 -0.1757812,-0.1992187 -0.3515625,-0.1992187 h -5.390625 c -0.1640625,0 -0.33984373,0 -0.33984373,0.1992187 0,0.1992188 0.17578123,0.1992188 0.33984373,0.1992188 z m 0,0"
       style="fill:#000000;fill-opacity:1;fill-rule:nonzero;stroke:none"
       aria-label="−"
       transform="matrix(-1.3333333,0,0,1.3333333,62.884,108.196)" />
    <path
       id="path5"
       d="m 4.0790156,-2.2967812 h 2.7773438 c 0.140625,0 0.328125,0 0.328125,-0.1992188 0,-0.1992187 -0.1875,-0.1992187 -0.328125,-0.1992187 H 4.0790156 v -2.7890625 c 0,-0.1289063 0,-0.328125 -0.1992187,-0.328125 -0.1992188,0 -0.1992188,0.1992187 -0.1992188,0.328125 v 2.7890625 H 0.89151562 c -0.140625,0 -0.328125,0 -0.328125,0.1992187 0,0.1992188 0.1875,0.1992188 0.328125,0.1992188 H 3.6805781 V 0.504 c 0,0.12890625 0,0.328125 0.1992188,0.328125 0.1992187,0 0.1992187,-0.19921875 0.1992187,-0.328125 z m 0,0"
       style="fill:#000000;fill-opacity:1;fill-rule:nonzero;stroke:none"
       aria-label="+"
       transform="matrix(-1.3333333,0,0,1.3333333,62.884,94.828)" />
    <g
       id="g5"
       aria-label="10V"
       transform="matrix(1.3333333,0,0,1.3333333,8.3813333,102.58133)">
      <path
         id="path6"
         d="m 2.9307969,-6.3744766 c 0,-0.234375 0,-0.2578125 -0.234375,-0.2578125 -0.609375,0.6328125 -1.4882813,0.6328125 -1.80468752,0.6328125 v 0.3164063 c 0.19921872,0 0.78515622,0 1.30078122,-0.2578125 v 5.15624999 c 0,0.3515625 -0.035156,0.48046875 -0.9257812,0.48046875 H 0.95032813 V 5.234375e-4 C 1.3018906,-0.03463281 2.1573594,-0.03463281 2.5557969,-0.03463281 c 0.3984375,0 1.265625,0 1.6171875,0.0351562475 V -0.30416406 H 3.8565781 c -0.9023437,0 -0.9257812,-0.1171875 -0.9257812,-0.48046875 z m 6.6328125,3.1875 c 0,-0.796875 -0.046875,-1.59375 -0.3984375,-2.3320312 -0.4570313,-0.9609375 -1.2773438,-1.1132813 -1.6875,-1.1132813 -0.5976563,0 -1.3359375,0.2578125 -1.734375,1.1835938 -0.328125,0.6914062 -0.375,1.4648437 -0.375,2.2617187 0,0.75 0.046875,1.640625 0.4453125,2.40234379 0.4335937,0.80859375 1.1601562,1.0078125 1.6523437,1.0078125 0.5390625,0 1.2890625,-0.2109375 1.734375,-1.16015625 C 9.5167344,-1.6283828 9.5636094,-2.4018203 9.5636094,-3.1869766 Z M 7.4659531,5.234375e-4 c -0.3867187,0 -0.984375,-0.2460937475 -1.1601562,-1.2070312375 -0.1054688,-0.5976563 -0.1054688,-1.5117188 -0.1054688,-2.0976563 0,-0.6445312 0,-1.3007812 0.082031,-1.8398437 0.1875,-1.1835938 0.9257812,-1.265625 1.1835937,-1.265625 0.328125,0 0.984375,0.1757812 1.171875,1.1601562 0.09375,0.5625 0.09375,1.3125 0.09375,1.9453125 0,0.75 0,1.4179688 -0.1054687,2.0625 C 8.4737656,-0.30416406 7.9112656,5.234375e-4 7.4659531,5.234375e-4 Z m 0,0"
         style="fill:#000000;fill-opacity:1;fill-rule:nonzero;stroke:none" />
      <path
         id="path7"
         d="m 18.900523,-6.4916641 v -0.3164062 c -0.316406,0.023437 -0.714843,0.035156 -0.972656,0.035156 l -1.136719,-0.035156 v 0.3164062 c 0.515625,0.011719 0.726563,0.2695313 0.726563,0.4921875 0,0.082031 -0.02344,0.140625 -0.04687,0.1992188 l -1.828125,4.80468749 -1.898438,-5.02734379 c -0.05859,-0.140625 -0.05859,-0.1875 -0.05859,-0.1875 0,-0.28125 0.5625,-0.28125 0.820312,-0.28125 v -0.3164062 c -0.363281,0.035156 -1.054687,0.035156 -1.429687,0.035156 l -1.265625,-0.035156 v 0.3164062 c 0.644531,0 0.84375,0 0.972656,0.375 L 15.103656,5.234375e-4 C 15.173966,0.18802344 15.220844,0.22317969 15.34975,0.22317969 c 0.164063,0 0.1875,-0.0585938 0.234375,-0.1875 L 17.81068,-5.8236953 c 0.140625,-0.375 0.410156,-0.65625 1.089843,-0.6679688 z m 0,0"
         style="fill:#000000;fill-opacity:1;fill-rule:nonzero;stroke:none" />
    </g>
    <path
       id="path8"
       d="M 19.55931,105.1667 H 51.30769 V 93.261 H 19.55931 Z"
       style="fill:none;stroke:#000000;stroke-width:0.797;stroke-linecap:butt;stroke-linejoin:miter;stroke-miterlimit:10;stroke-dasharray:none;stroke-opacity:1"
       transform="matrix(1.3333333,0,0,-1.3333333,57.718667,164.33333)" />
    <path
       id="path9"
       d="m 72.4542,99.21387 c 0,0.87655 -0.7106,1.58714 -1.58717,1.58714 -0.87655,0 -1.58714,-0.71059 -1.58714,-1.58714 0,-0.87656 0.71059,-1.58715 1.58714,-1.58715 0.87657,0 1.58717,0.71059 1.58717,1.58715 z"
       style="fill:#000000;fill-opacity:1;fill-rule:nonzero;stroke:#000000;stroke-width:0.3985;stroke-linecap:butt;stroke-linejoin:miter;stroke-miterlimit:10;stroke-dasharray:none;stroke-opacity:1"
       transform="matrix(1.3333333,0,0,-1.3333333,57.718667,164.33333)" />
    <path
       id="path10"
       d="m 1.3122109,-3.2699531 v -0.234375 c 0,-2.5195313 1.2421875,-2.8828125 1.7460938,-2.8828125 0.234375,0 0.65625,0.058594 0.8789062,0.3984375 -0.1523437,0 -0.5507812,0 -0.5507812,0.4453125 0,0.3164062 0.234375,0.4570312 0.4570312,0.4570312 0.1640625,0 0.4570313,-0.082031 0.4570313,-0.46875 0,-0.5976562 -0.4335938,-1.078125 -1.265625,-1.078125 -1.2773438,0 -2.61328126,1.2890625 -2.61328126,3.4804688 0,2.66015622 1.14843746,3.37499997 2.07421876,3.37499997 1.1132812,0 2.0507812,-0.9375 2.0507812,-2.24999997 0,-1.265625 -0.8789062,-2.2265625 -1.9921875,-2.2265625 -0.6679687,0 -1.0429687,0.5039062 -1.2421875,0.984375 z m 1.1835938,3.21093747 c -0.6210938,0 -0.9257813,-0.59765625 -0.984375,-0.75 C 1.3356484,-1.2777656 1.3356484,-2.0746406 1.3356484,-2.2504219 c 0,-0.7734375 0.3164063,-1.7695312 1.21875,-1.7695312 0.1523438,0 0.609375,0 0.9257813,0.609375 0.1757812,0.375 0.1757812,0.8789062 0.1757812,1.3710937 0,0.4804688 0,0.9726563 -0.1640625,1.33593752 -0.3046875,0.59765625 -0.7617187,0.64453125 -0.9960937,0.64453125 z M 13.373734,-1.6176094 h -0.246093 c -0.04687,0.2578125 -0.08203,0.4921875 -0.175782,0.72656252 -0.04687,0.1640625 -0.08203,0.24609375 -0.65625,0.24609375 h -0.796875 c 0.128907,-0.56249997 0.433594,-1.04296877 0.878907,-1.69921877 0.46875,-0.703125 0.878906,-1.3945312 0.878906,-2.1796875 0,-1.3828125 -1.335938,-2.4960937 -3.023438,-2.4960937 -1.7109371,0 -3.0351559,1.1367187 -3.0351559,2.4960937 0,0.7851563 0.3984375,1.4765625 0.8671875,2.1796875 0.4453125,0.65625 0.7617188,1.1367188 0.890625,1.69921877 h -0.796875 c -0.5742187,0 -0.609375,-0.0820313 -0.65625,-0.234375 C 7.4206094,-1.1019844 7.3737344,-1.3597969 7.3268594,-1.6176094 H 7.0690469 l 0.328125,1.617187525 h 1.59375 c 0.2226562,0 0.2578125,0 0.2578125,-0.210937505 0,-0.69140625 -0.3164063,-1.57031252 -0.5390625,-2.21484372 -0.2109375,-0.5742188 -0.4921875,-1.359375 -0.4921875,-2.109375 0,-1.59375 1.1015625,-2.2734375 2.0039066,-2.2734375 0.960937,0 2.015625,0.7265625 2.015625,2.2734375 0,0.75 -0.269532,1.5117187 -0.5625,2.3203125 -0.152344,0.421875 -0.46875,1.31249997 -0.46875,2.00390622 0,0.210937505 0.03516,0.210937505 0.257812,0.210937505 h 1.582031 z m 0,0"
       style="fill:#000000;fill-opacity:1;fill-rule:nonzero;stroke:none"
       aria-label="6Ω"
       transform="matrix(1.3333333,0,0,1.3333333,95.738667,19.024)" />
    <path
       id="path11"
       d="m 82.77274,74.41039 c 0,6.57541 -5.3303,11.90571 -11.90572,11.90571 -6.57541,0 -11.90572,-5.3303 -11.90572,-11.90571 0,-6.57543 5.33031,-11.90574 11.90572,-11.90574 6.57542,0 11.90572,5.33031 11.90572,11.90574 z m 0,0 H 58.9613"
       style="fill:none;stroke:#000000;stroke-width:0.797;stroke-linecap:butt;stroke-linejoin:miter;stroke-miterlimit:10;stroke-dasharray:none;stroke-opacity:1"
       transform="matrix(1.3333333,0,0,-1.3333333,57.718667,164.33333)" />
    <path
       id="path12"
       d="m 70.86702,91.02875 h 1.98425 l -1.98425,4.21655 -1.98425,-4.21655 z"
       style="fill:#000000;fill-opacity:1;fill-rule:nonzero;stroke:#000000;stroke-width:0.3985;stroke-linecap:butt;stroke-linejoin:miter;stroke-miterlimit:10;stroke-dasharray:none;stroke-opacity:1"
       transform="matrix(1.3333333,0,0,-1.3333333,57.718667,164.33333)" />
    <g
       id="g12"
       aria-label="5A"
       transform="matrix(1.3333333,0,0,1.3333333,156.90133,45.402667)">
      <path
         id="path13"
         d="m 4.4773203,-2.0041484 c 0,-1.1835938 -0.8203125,-2.1796875 -1.8984375,-2.1796875 -0.4804687,0 -0.9023437,0.1640625 -1.265625,0.5039062 v -1.9335937 c 0.1992188,0.058594 0.5273438,0.1289062 0.84375,0.1289062 1.2304688,0 1.9335938,-0.9140625 1.9335938,-1.0429687 0,-0.058594 -0.035156,-0.1054688 -0.1054688,-0.1054688 -0.011719,0 -0.035156,0 -0.082031,0.023437 -0.1992188,0.09375 -0.6796875,0.2929688 -1.3476563,0.2929688 -0.3984375,0 -0.8554687,-0.070312 -1.3242187,-0.28125 -0.082031,-0.023437 -0.1054688,-0.023437 -0.1289063,-0.023437 -0.09375,0 -0.09375,0.082031 -0.09375,0.234375 v 2.953125 c 0,0.1757812 0,0.2578125 0.140625,0.2578125 0.070312,0 0.082031,-0.035156 0.1289063,-0.09375 0.1054687,-0.1523438 0.4804687,-0.6914063 1.2773437,-0.6914063 0.5273438,0 0.7734375,0.4570313 0.8554688,0.6328125 0.1523437,0.375 0.1757812,0.7617188 0.1757812,1.2539063 0,0.3515625 0,0.9492187 -0.234375,1.37109371 -0.2460937,0.38671875 -0.609375,0.64453125 -1.0664062,0.64453125 -0.7265625,0 -1.30078129,-0.52734375 -1.46484379,-1.11328126 0.0234375,0.011719 0.0585938,0.011719 0.1640625,0.011719 0.32812499,0 0.50390629,-0.2460938 0.50390629,-0.4804688 0,-0.2460937 -0.1757813,-0.4921875 -0.50390629,-0.4921875 -0.140625,0 -0.48046875,0.070312 -0.48046875,0.5273438 0,0.85546871 0.67968754,1.82812496 1.79296874,1.82812496 1.1601563,0 2.1796875,-0.9609375 2.1796873,-2.22656266 z m 0,0"
         style="fill:#000000;fill-opacity:1;fill-rule:nonzero;stroke:none" />
      <path
         id="path14"
         d="M 13.779078,-2.421875e-4 V -0.30492969 h -0.175781 c -0.597656,0 -0.738281,-0.0703125 -0.84375,-0.3984375 l -2.15625,-6.23437501 c -0.04687,-0.1289062 -0.07031,-0.1992187 -0.222656,-0.1992187 -0.164063,0 -0.1875,0.058594 -0.246094,0.1992187 l -2.0625001,5.96484376 c -0.1757813,0.50390625 -0.5742188,0.65625 -1.1132813,0.66796875 V -2.421875e-4 L 7.9782969,-0.03539844 9.1267344,-2.421875e-4 V -0.30492969 c -0.5039063,0 -0.75,-0.2578125 -0.75,-0.515625 0,-0.0234375 0.011719,-0.12890625 0.023437,-0.140625 L 8.8572031,-2.2736797 h 2.4609379 l 0.527343,1.52343751 c 0.01172,0.046875 0.02344,0.10546875 0.02344,0.140625 0,0.3046875 -0.550781,0.3046875 -0.820313,0.3046875 V -2.421875e-4 C 11.400172,-0.03539844 12.103297,-0.03539844 12.478297,-0.03539844 Z M 11.200953,-2.5783672 H 8.9626719 l 1.1132811,-3.234375 z m 0,0"
         style="fill:#000000;fill-opacity:1;fill-rule:nonzero;stroke:none" />
    </g>
    <path
       id="path15"
       d="m 64.91417,8.92926 v 31.74838 h 11.9057 V 8.92926 Z"
       style="fill:none;stroke:#000000;stroke-width:0.797;stroke-linecap:butt;stroke-linejoin:miter;stroke-miterlimit:10;stroke-dasharray:none;stroke-opacity:1"
       transform="matrix(1.3333333,0,0,-1.3333333,57.718667,164.33333)" />
    <path
       id="path16"
       d="m 72.4542,0 c 0,0.87656 -0.7106,1.58714 -1.58717,1.58714 -0.87655,0 -1.58714,-0.71058 -1.58714,-1.58714 0,-0.87656 0.71059,-1.58714 1.58714,-1.58714 0.87657,0 1.58717,0.71058 1.58717,1.58714 z"
       style="fill:#000000;fill-opacity:1;fill-rule:nonzero;stroke:#000000;stroke-width:0.3985;stroke-linecap:butt;stroke-linejoin:miter;stroke-miterlimit:10;stroke-dasharray:none;stroke-opacity:1"
       transform="matrix(1.3333333,0,0,-1.3333333,57.718667,164.33333)" />
    <path
       id="path17"
       d="M 1.2660781,-0.76196875 2.3207656,-1.7932187 c 1.5585938,-1.3710938 2.15625,-1.9101563 2.15625,-2.90625 0,-1.1367188 -0.9023437,-1.9335938 -2.1210937,-1.9335938 -1.125,0 -1.85156252,0.9140625 -1.85156252,1.8046875 0,0.5507813 0.4921875,0.5507813 0.52734372,0.5507813 0.1640625,0 0.515625,-0.1171875 0.515625,-0.5273438 0,-0.2578125 -0.1875,-0.515625 -0.5273437,-0.515625 -0.0820313,0 -0.10546877,0 -0.12890627,0.011719 C 1.1137344,-5.953375 1.6527969,-6.328375 2.2270156,-6.328375 c 0.9140625,0 1.3359375,0.8085938 1.3359375,1.6289063 0,0.796875 -0.4921875,1.5820312 -1.0429687,2.203125 L 0.60982813,-0.36353125 C 0.50435938,-0.2580625 0.50435938,-0.234625 0.50435938,-2.5e-4 H 4.1957656 l 0.28125,-1.734375 H 4.2192031 C 4.1723281,-1.4299375 4.1020156,-0.99634375 4.0082656,-0.844 3.9379536,-0.7619687 3.2817031,-0.7619687 3.0590469,-0.7619687 Z M 13.374477,-1.6174375 h -0.246094 c -0.04687,0.2578125 -0.08203,0.4921875 -0.175781,0.7265625 -0.04687,0.1640625 -0.08203,0.24609375 -0.65625,0.24609375 H 11.499477 C 11.628383,-1.2072812 11.93307,-1.68775 12.378383,-2.344 c 0.46875,-0.703125 0.878906,-1.3945312 0.878906,-2.1796875 0,-1.3828125 -1.335937,-2.4960937 -3.023437,-2.4960937 -1.7109379,0 -3.0351567,1.1367187 -3.0351567,2.4960937 0,0.7851563 0.3984375,1.4765625 0.8671875,2.1796875 0.4453125,0.65625 0.7617188,1.1367188 0.890625,1.69921875 h -0.796875 c -0.5742187,0 -0.609375,-0.0820313 -0.65625,-0.234375 C 7.4213516,-1.1018125 7.3744766,-1.359625 7.3276016,-1.6174375 H 7.0697891 L 7.3979141,-2.5e-4 h 1.59375 c 0.2226562,0 0.2578125,0 0.2578125,-0.2109375 0,-0.69140625 -0.3164063,-1.5703125 -0.5390625,-2.2148437 -0.2109375,-0.5742188 -0.4921875,-1.359375 -0.4921875,-2.109375 0,-1.59375 1.1015625,-2.2734375 2.0039064,-2.2734375 0.960937,0 2.015625,0.7265625 2.015625,2.2734375 0,0.75 -0.269531,1.5117187 -0.5625,2.3203125 -0.152344,0.421875 -0.46875,1.31249995 -0.46875,2.0039062 0,0.2109375 0.03516,0.2109375 0.257812,0.2109375 h 1.582032 z m 0,0"
       style="fill:#000000;fill-opacity:1;fill-rule:nonzero;stroke:none"
       aria-label="2Ω"
       transform="matrix(1.3333333,0,0,1.3333333,163.08533,134.12533)" />
    <path
       id="path18"
       d="m 70.86703,99.21387 h 70.86706 V 65.48111 m 0,-31.74838 V 0 H 70.86703"
       style="fill:none;stroke:#000000;stroke-width:0.3985;stroke-linecap:butt;stroke-linejoin:miter;stroke-miterlimit:10;stroke-dasharray:none;stroke-opacity:1"
       transform="matrix(1.3333333,0,0,-1.3333333,57.718667,164.33333)" />
    <path
       id="path19"
       d="m 135.78123,33.73273 v 31.74838 h 11.90571 V 33.73273 Z"
       style="fill:none;stroke:#000000;stroke-width:0.797;stroke-linecap:butt;stroke-linejoin:miter;stroke-miterlimit:10;stroke-dasharray:none;stroke-opacity:1"
       transform="matrix(1.3333333,0,0,-1.3333333,57.718667,164.33333)" />
    <path
       id="path20"
       d="m 2.9293516,-1.6396094 v 0.86718753 c 0,0.3515625 -0.023437,0.46875 -0.7617188,0.46875 H 1.9566953 v 0.3046875 c 0.4101563,-0.03515625 0.9375,-0.03515625 1.3476563,-0.03515625 0.421875,0 0.9492187,0 1.359375,0.03515625 v -0.3046875 H 4.4527891 c -0.7382813,0 -0.7617188,-0.1171875 -0.7617188,-0.46875 V -1.6396094 H 4.6871641 V -1.9560156 H 3.6910703 v -4.5234375 c 0,-0.1992188 0,-0.2578125 -0.1523437,-0.2578125 -0.09375,0 -0.1171875,0 -0.1992188,0.1171875 l -3.05859374,4.6640625 v 0.3164062 z m 0.058594,-0.3164062 H 0.56216406 L 2.9879453,-5.6708594 Z m 10.3857424,0.3398437 h -0.246094 c -0.04687,0.2578125 -0.08203,0.4921875 -0.175781,0.72656253 -0.04687,0.1640625 -0.08203,0.24609375 -0.65625,0.24609375 h -0.796875 c 0.128906,-0.56249998 0.433593,-1.04296878 0.878906,-1.69921878 0.46875,-0.703125 0.878906,-1.3945312 0.878906,-2.1796875 0,-1.3828125 -1.335937,-2.4960937 -3.023437,-2.4960937 -1.7109377,0 -3.0351564,1.1367187 -3.0351564,2.4960937 0,0.7851563 0.3984375,1.4765625 0.8671875,2.1796875 0.4453125,0.65625 0.7617187,1.1367188 0.890625,1.69921878 h -0.796875 c -0.5742188,0 -0.609375,-0.0820313 -0.65625,-0.234375 C 7.4205625,-1.1005469 7.3736875,-1.3583594 7.3268125,-1.6161719 H 7.069 l 0.328125,1.61718753 h 1.59375 c 0.2226563,0 0.2578125,0 0.2578125,-0.2109375 0,-0.69140625 -0.3164062,-1.57031253 -0.5390625,-2.21484373 -0.2109375,-0.5742188 -0.4921875,-1.359375 -0.4921875,-2.109375 0,-1.59375 1.1015625,-2.2734375 2.0039065,-2.2734375 0.960937,0 2.015625,0.7265625 2.015625,2.2734375 0,0.75 -0.269531,1.5117187 -0.5625,2.3203125 -0.152344,0.421875 -0.46875,1.31249998 -0.46875,2.00390623 0,0.2109375 0.03516,0.2109375 0.257812,0.2109375 h 1.582032 z m 0,0"
       style="fill:#000000;fill-opacity:1;fill-rule:nonzero;stroke:none"
       aria-label="4Ω"
       transform="matrix(1.3333333,0,0,1.3333333,257.57467,101.05333)" />
    <path
       id="path21"
       d="m 141.73409,84.0837 h -1.98426 l 1.98426,-4.21654 1.98425,4.21654 z"
       style="fill:#000000;fill-opacity:1;fill-rule:nonzero;stroke:#000000;stroke-width:0.3985;stroke-linecap:butt;stroke-linejoin:miter;stroke-miterlimit:10;stroke-dasharray:none;stroke-opacity:1"
       transform="matrix(1.3333333,0,0,-1.3333333,57.718667,164.33333)" />
    <path
       id="path22"
       d="m 2.8241875,-6.2221797 c 0,-0.1992187 -0.1289062,-0.3632812 -0.3632812,-0.3632812 -0.2695313,0 -0.5390625,0.2578125 -0.5390625,0.5273437 0,0.1875 0.140625,0.3632813 0.375,0.3632813 0.234375,0 0.5273437,-0.234375 0.5273437,-0.5273438 z m -0.75,3.7382813 C 2.191375,-2.7651484 2.191375,-2.7885859 2.2968438,-3.0581172 2.3671563,-3.2573359 2.42575,-3.3979609 2.42575,-3.5854609 c 0,-0.4453125 -0.328125,-0.8203125 -0.8203125,-0.8203125 -0.9375,0 -1.3125,1.453125 -1.3125,1.5351562 0,0.1054688 0.09375,0.1054688 0.1171875,0.1054688 0.09375,0 0.10546875,-0.023437 0.15234375,-0.1875 0.26953125,-0.9375 0.66796875,-1.2304688 1.00781255,-1.2304688 0.082031,0 0.2578125,0 0.2578125,0.3164063 0,0.2109375 -0.070312,0.421875 -0.1171875,0.515625 -0.082031,0.2578125 -0.5273438,1.4179687 -0.6796875,1.8515625 -0.1054688,0.2578125 -0.23437505,0.58593746 -0.23437505,0.79687496 0,0.46875 0.33984375,0.80859375 0.82031255,0.80859375 0.9375,0 1.3007812,-1.44140621 1.3007812,-1.53515621 0,-0.09375 -0.09375,-0.09375 -0.1171875,-0.09375 -0.1054687,0 -0.1054687,0.023437 -0.1523437,0.1757812 C 2.472625,-0.71436719 2.1445,-0.10499219 1.628875,-0.10499219 c -0.1640625,0 -0.234375,-0.10546875 -0.234375,-0.328125 0,-0.2578125 0.058594,-0.3984375 0.2929688,-0.99609371 z m 0,0"
       style="fill:#000000;fill-opacity:1;fill-rule:nonzero;stroke:none"
       aria-label="i"
       transform="matrix(1.3333333,0,0,1.3333333,251.39067,58.917333)" />
  </g>
</svg>
