<?xml version="1.0" encoding="UTF-8" standalone="no"?>
<!-- Created with Inkscape (http://www.inkscape.org/) -->

<svg
   version="1.1"
   id="svg1"
   width="156"
   height="156.36"
   viewBox="0 0 156 156.36"
   sodipodi:docname="24-25-2-大学物理C（上）-期中-题图5.pdf"
   xmlns:inkscape="http://www.inkscape.org/namespaces/inkscape"
   xmlns:sodipodi="http://sodipodi.sourceforge.net/DTD/sodipodi-0.dtd"
   xmlns="http://www.w3.org/2000/svg"
   xmlns:svg="http://www.w3.org/2000/svg">
  <defs
     id="defs1" />
  <sodipodi:namedview
     id="namedview1"
     pagecolor="#ffffff"
     bordercolor="#000000"
     borderopacity="0.25"
     inkscape:showpageshadow="2"
     inkscape:pageopacity="0.0"
     inkscape:pagecheckerboard="0"
     inkscape:deskcolor="#d1d1d1">
    <inkscape:page
       x="0"
       y="0"
       inkscape:label="1"
       id="page1"
       width="156"
       height="156.36"
       margin="0"
       bleed="0" />
  </sodipodi:namedview>
  <g
     id="g1"
     inkscape:groupmode="layer"
     inkscape:label="1">
    <path
       id="path1"
       d="M -55.51733,-55.51733 V 61.752 H 61.48564 V -55.51733 Z"
       style="fill:#ffffff;fill-opacity:1;fill-rule:nonzero;stroke:none"
       transform="matrix(1.3333333,0,0,-1.3333333,74.022667,82.337333)" />
    <path
       id="path2"
       d="M -51.02412,0 H 50.62563"
       style="fill:none;stroke:#000000;stroke-width:0.3985;stroke-linecap:butt;stroke-linejoin:miter;stroke-miterlimit:10;stroke-dasharray:none;stroke-opacity:1"
       transform="matrix(1.3333333,0,0,-1.3333333,74.022667,82.337333)" />
    <path
       id="path3"
       d="M -2.07224,2.39104 C -1.69365,0.95639 -0.84999,0.27895 0,0 -0.84999,-0.27895 -1.69365,-0.95639 -2.07224,-2.39104"
       style="fill:none;stroke:#000000;stroke-width:0.3985;stroke-linecap:round;stroke-linejoin:round;stroke-miterlimit:10;stroke-dasharray:none;stroke-opacity:1"
       transform="matrix(1.3333333,0,0,-1.3333333,141.78916,82.337333)" />
    <path
       id="path4"
       d="m 3.3274844,-3.0112187 c 0.058594,-0.2578125 0.2929687,-1.171875 0.984375,-1.171875 0.046875,0 0.2929687,0 0.5039062,0.1289062 -0.28125,0.046875 -0.4804687,0.3046875 -0.4804687,0.5390625 0,0.1640625 0.1054687,0.3515625 0.375,0.3515625 0.2226562,0 0.5390625,-0.1875 0.5390625,-0.5859375 0,-0.515625 -0.5859375,-0.65625 -0.9257813,-0.65625 -0.5742187,0 -0.9257812,0.5273438 -1.0429687,0.7617188 -0.2578125,-0.65625 -0.7851563,-0.7617188 -1.078125,-0.7617188 -1.0429688,0 -1.60546878,1.2890625 -1.60546878,1.5351563 0,0.1054687 0.10546875,0.1054687 0.1171875,0.1054687 0.0820313,0 0.1171875,-0.023437 0.12890625,-0.1171875 C 1.1829531,-3.937 1.8392031,-4.1830937 2.1790469,-4.1830937 c 0.1875,0 0.5390625,0.09375 0.5390625,0.6679687 0,0.3046875 -0.1640625,0.9726563 -0.5390625,2.3671875 -0.1523438,0.62109375 -0.5039063,1.04296875 -0.9492188,1.04296875 -0.058594,0 -0.28124998,0 -0.49218748,-0.12890625 0.24609375,-0.0585938 0.46874998,-0.26953125 0.46874998,-0.5390625 0,-0.2695312 -0.22265623,-0.3515625 -0.37499998,-0.3515625 -0.29296875,0 -0.5390625,0.2578125 -0.5390625,0.57421875 0,0.45703125 0.4921875,0.65625 0.93749998,0.65625 0.65625,0 1.0078125,-0.69140625 1.0429688,-0.75 0.1171875,0.36328125 0.4804687,0.75 1.078125,0.75 1.0195312,0 1.59375,-1.27734375 1.59375,-1.53515625 0,-0.09375 -0.09375,-0.09375 -0.1289063,-0.09375 -0.082031,0 -0.1054687,0.035156 -0.1289062,0.1054688 -0.328125,1.0664062 -0.9960938,1.31249995 -1.3242188,1.31249995 -0.3867187,0 -0.5390625,-0.328125 -0.5390625,-0.65625 0,-0.22265625 0.058594,-0.44531245 0.1640625,-0.87890625 z m 0,0"
       style="fill:#000000;fill-opacity:1;fill-rule:nonzero;stroke:none"
       aria-label="x"
       transform="matrix(1.3333333,0,0,1.3333333,138.25867,92.749333)" />
    <path
       id="path5"
       d="M 0,-51.02412 V 50.62563"
       style="fill:none;stroke:#000000;stroke-width:0.3985;stroke-linecap:butt;stroke-linejoin:miter;stroke-miterlimit:10;stroke-dasharray:none;stroke-opacity:1"
       transform="matrix(1.3333333,0,0,-1.3333333,74.022667,82.337333)" />
    <path
       id="path6"
       d="M -2.07224,2.39104 C -1.69365,0.95639 -0.84999,0.27895 0,0 -0.84999,-0.27895 -1.69365,-0.95639 -2.07224,-2.39104"
       style="fill:none;stroke:#000000;stroke-width:0.3985;stroke-linecap:round;stroke-linejoin:round;stroke-miterlimit:10;stroke-dasharray:none;stroke-opacity:1"
       transform="matrix(0,-1.3333333,-1.3333333,0,74.022667,14.57084)" />
    <path
       id="path7"
       d="m 4.8389766,-3.795625 c 0.046875,-0.140625 0.046875,-0.1523437 0.046875,-0.2226562 0,-0.1875 -0.140625,-0.2695313 -0.2929688,-0.2695313 -0.1054687,0 -0.2578125,0.058594 -0.3515625,0.1992188 -0.023437,0.058594 -0.09375,0.3632812 -0.140625,0.5390625 -0.070312,0.2578125 -0.140625,0.5273437 -0.1992187,0.796875 l -0.4453125,1.7929687 c -0.035156,0.15234375 -0.46875,0.85546875 -1.125,0.85546875 -0.5039063,0 -0.6210938,-0.4453125 -0.6210938,-0.80859375 0,-0.4570312 0.1757813,-1.078125 0.515625,-1.9570312 C 2.3780391,-3.28 2.4249141,-3.3854687 2.4249141,-3.5846875 2.4249141,-4.03 2.0967891,-4.405 1.6046016,-4.405 c -0.94921879,0 -1.31250004,1.453125 -1.31250004,1.5351563 0,0.1054687 0.09375,0.1054687 0.1171875,0.1054687 0.09375,0 0.10546875,-0.023437 0.15234375,-0.1875 0.26953125,-0.9375 0.66796879,-1.2304687 1.00781249,-1.2304687 0.082031,0 0.2578125,0 0.2578125,0.3164062 0,0.2460938 -0.1054687,0.515625 -0.1757812,0.703125 -0.3984375,1.0546875 -0.5742188,1.6171875 -0.5742188,2.0859375 0,0.890625 0.6210938,1.18359375 1.21875,1.18359375 0.3867188,0 0.7265625,-0.1640625 0.9960938,-0.4453125 C 3.1631953,0.17703125 3.0460078,0.66921875 2.6475703,1.1965625 2.3897578,1.5364063 2.0147578,1.829375 1.5577266,1.829375 c -0.140625,0 -0.59765629,-0.035156 -0.76171879,-0.421875 0.1640625,0 0.29296879,0 0.43359379,-0.1171875 0.09375,-0.09375 0.1992187,-0.2226562 0.1992187,-0.41015625 0,-0.31640625 -0.2695312,-0.3515625 -0.375,-0.3515625 -0.22265624,0 -0.55078124,0.1640625 -0.55078124,0.64453125 0,0.5039063 0.43359375,0.8671875 1.05468754,0.8671875 1.0195312,0 2.0507812,-0.9023437 2.3320312,-2.02734375 z m 0,0"
       style="fill:#000000;fill-opacity:1;fill-rule:nonzero;stroke:none"
       aria-label="y"
       transform="matrix(1.3333333,0,0,1.3333333,78.716,15.873333)" />
    <path
       id="path8"
       d="M 42.52022,0 C 42.52022,23.48355 23.48355,42.52022 0,42.52022 -23.48355,42.52022 -42.52022,23.48355 -42.52022,0 c 0,-23.48355 19.03667,-42.52022 42.52022,-42.52022 23.48355,0 42.52022,19.03667 42.52022,42.52022 z"
       style="fill:none;stroke:#000000;stroke-width:0.3985;stroke-linecap:butt;stroke-linejoin:miter;stroke-miterlimit:10;stroke-dasharray:none;stroke-opacity:1"
       transform="matrix(1.3333333,0,0,-1.3333333,74.022667,82.337333)" />
    <path
       id="path9"
       d="m 7.3711875,-4.346625 c 0,-1.59375 -1.0546875,-2.671875 -2.5429688,-2.671875 -2.1445312,0 -4.33593745,2.2617188 -4.33593745,4.5820313 0,1.6523437 1.11328125,2.6601562 2.54296875,2.6601562 2.109375,0 4.3359375,-2.1796875 4.3359375,-4.5703125 z m -4.2773438,4.3125 c -0.984375,0 -1.6757812,-0.80859375 -1.6757812,-2.1210937 0,-0.4453125 0.140625,-1.8984375 0.9023437,-3.0585938 0.6914063,-1.0429687 1.6640625,-1.5585937 2.4492188,-1.5585937 0.8203125,0 1.7109375,0.5625 1.7109375,2.0390625 0,0.7148437 -0.2695313,2.2734375 -1.2539063,3.5039062 -0.4804687,0.59765625 -1.2890625,1.1953125 -2.1328125,1.1953125 z m 0,0"
       style="fill:#000000;fill-opacity:1;fill-rule:nonzero;stroke:none"
       aria-label="O"
       transform="matrix(1.3333333,0,0,1.3333333,58.828,96.108)" />
    <path
       id="path10"
       d="M 0,0 30.06636,30.06636"
       style="fill:none;stroke:#000000;stroke-width:0.3985;stroke-linecap:butt;stroke-linejoin:miter;stroke-miterlimit:10;stroke-dasharray:none;stroke-opacity:1"
       transform="matrix(1.3333333,0,0,-1.3333333,74.022667,82.337333)" />
    <path
       id="path11"
       d="m 0.87994531,-0.58476562 c -0.0351563,0.15234375 -0.09375,0.375 -0.09375,0.421875 0,0.1875 0.140625,0.26953125 0.29296879,0.26953125 0.1171875,0 0.2929687,-0.0703125 0.3632812,-0.26953125 0.023437,-0.046875 0.3632813,-1.39453128 0.3984375,-1.58203128 0.082031,-0.328125 0.2578125,-1.0195312 0.3164063,-1.2890625 0.046875,-0.1289062 0.328125,-0.5976562 0.5625,-0.8203125 0.082031,-0.070312 0.375,-0.328125 0.796875,-0.328125 0.2578125,0 0.4101562,0.1171875 0.421875,0.1171875 -0.3046875,0.046875 -0.515625,0.2929688 -0.515625,0.5507813 0,0.1640625 0.1054687,0.3515625 0.375,0.3515625 0.2695312,0 0.5507812,-0.234375 0.5507812,-0.5859375 0,-0.3515625 -0.328125,-0.65625 -0.8320312,-0.65625 -0.6445313,0 -1.0898438,0.4921875 -1.2773438,0.7734375 -0.082031,-0.4570313 -0.4335937,-0.7734375 -0.9023437,-0.7734375 -0.45703129,0 -0.64453129,0.3867187 -0.73828129,0.5742187 -0.17578125,0.3398438 -0.3046875,0.9375 -0.3046875,0.9609375 0,0.1054688 0.09375,0.1054688 0.1171875,0.1054688 0.09375,0 0.10546875,-0.011719 0.1640625,-0.234375 0.17578125,-0.703125 0.375,-1.1835938 0.72656249,-1.1835938 0.1757813,0 0.3164063,0.082031 0.3164063,0.4570313 0,0.2109375 -0.035156,0.3164062 -0.1640625,0.8320312 z m 0,0"
       style="fill:#000000;fill-opacity:1;fill-rule:nonzero;stroke:none"
       aria-label="r"
       transform="matrix(1.3333333,0,0,1.3333333,90.885333,57.6)" />
    <path
       id="path12"
       d="m 3.5514922,-2.9072344 c 0.4101562,1.0429688 0.890625,2.56640628 1.0546875,2.80078128 0.1523437,0.2109375 0.2578125,0.2109375 0.5273437,0.2109375 h 0.2109375 c 0.1054688,0 0.1171875,-0.0703125 0.1171875,-0.09375 0,-0.03515625 -0.023437,-0.046875 -0.046875,-0.09375 -0.1054687,-0.10546875 -0.1640625,-0.2578125 -0.234375,-0.45703125 L 3.1530547,-6.2119219 c -0.2109375,-0.5742187 -0.75,-0.703125 -1.21875,-0.703125 -0.046875,0 -0.1757813,0 -0.1757813,0.1054688 0,0.082031 0.070312,0.1054687 0.082031,0.1054687 0.328125,0.058594 0.3984375,0.1171875 0.65625,0.796875 l 0.9609375,2.7070313 -2.75390626,2.73046873 c -0.1171875,0.1171875 -0.17578125,0.17578125 -0.17578125,0.3046875 0,0.17578125 0.140625,0.29296875 0.3046875,0.29296875 0.15234375,0 0.24609371,-0.10546875 0.32812501,-0.2109375 z m 0,0"
       style="fill:#000000;fill-opacity:1;fill-rule:nonzero;stroke:none"
       aria-label="λ"
       transform="matrix(1.3333333,0,0,1.3333333,110.23733,37.556)" />
    <path
       id="path13"
       d="m 8.5039,0 c 0,2.25494 -0.89626,4.41869 -2.49073,6.01317"
       style="fill:none;stroke:#000000;stroke-width:0.3985;stroke-linecap:butt;stroke-linejoin:miter;stroke-miterlimit:10;stroke-dasharray:none;stroke-opacity:1"
       transform="matrix(1.3333333,0,0,-1.3333333,74.022667,82.337333)" />
    <path
       id="path14"
       d="m 4.3484375,-6.6802187 c 0,-0.011719 0.035156,-0.1289063 0.035156,-0.1289063 0,-0.011719 0,-0.1054687 -0.1171875,-0.1054687 -0.1054687,0 -0.1171875,0.035156 -0.1523437,0.1992187 L 3.5398437,-4.4185 c -1.5820312,0.058594 -3.04687495,1.3828125 -3.04687495,2.7304688 0,0.9492187 0.69140625,1.73437495 1.91015625,1.80468745 C 2.321094,0.4330625 2.2507812,0.74946875 2.16875,1.0541563 c -0.1171875,0.46875 -0.2109375,0.84375 -0.2109375,0.8789062 0,0.09375 0.070313,0.1054688 0.1171875,0.1054688 0.046875,0 0.070312,-0.011719 0.09375,-0.035156 0.023437,-0.023438 0.082031,-0.2578125 0.1171875,-0.3984375 l 0.375,-1.48828125 c 1.6054687,-0.046875 3.046875,-1.39453125 3.046875,-2.73046875 0,-0.7851562 -0.5273438,-1.6992187 -1.9101563,-1.8046875 z M 2.45,-0.106 C 1.8523437,-0.1294375 1.1375,-0.481 1.1375,-1.4770937 c 0,-1.1953125 0.8554687,-2.5898438 2.34375,-2.71875 z m 1.2890625,-4.0898437 c 0.75,0.046875 1.3242187,0.5039062 1.3242187,1.3710937 0,1.1835938 -0.8554687,2.6015625 -2.3554687,2.71875 z m 0,0"
       style="fill:#000000;fill-opacity:1;fill-rule:nonzero;stroke:none"
       aria-label="ϕ"
       transform="matrix(1.3333333,0,0,1.3333333,86.733333,77.641333)" />
  </g>
</svg>
