<?xml version="1.0" encoding="UTF-8" standalone="no"?>
<!-- Created with Inkscape (http://www.inkscape.org/) -->

<svg
   version="1.1"
   id="svg1"
   width="381.39999"
   height="303.94666"
   viewBox="0 0 381.39999 303.94666"
   sodipodi:docname="24-25-2-软件工程-题图4.2.pdf"
   xmlns:inkscape="http://www.inkscape.org/namespaces/inkscape"
   xmlns:sodipodi="http://sodipodi.sourceforge.net/DTD/sodipodi-0.dtd"
   xmlns="http://www.w3.org/2000/svg"
   xmlns:svg="http://www.w3.org/2000/svg">
  <defs
     id="defs1" />
  <sodipodi:namedview
     id="namedview1"
     pagecolor="#ffffff"
     bordercolor="#000000"
     borderopacity="0.25"
     inkscape:showpageshadow="2"
     inkscape:pageopacity="0.0"
     inkscape:pagecheckerboard="0"
     inkscape:deskcolor="#d1d1d1">
    <inkscape:page
       x="0"
       y="0"
       inkscape:label="1"
       id="page1"
       width="381.39999"
       height="303.94666"
       margin="0"
       bleed="0" />
  </sodipodi:namedview>
  <g
     id="g1"
     inkscape:groupmode="layer"
     inkscape:label="1">
    <path
       id="path1"
       d="M -47.01341,-174.57408 V 53.39185 h 286.04869 v -227.96593 z"
       style="fill:#ffffff;fill-opacity:1;fill-rule:nonzero;stroke:none"
       transform="matrix(1.3333333,0,0,-1.3333333,62.684,71.184)" />
    <path
       id="path2"
       d="M 0,0 V 42.52022 H 42.52022 V 0 Z"
       style="fill:none;stroke:#000000;stroke-width:0.3985;stroke-linecap:butt;stroke-linejoin:miter;stroke-miterlimit:10;stroke-dasharray:none;stroke-opacity:1"
       transform="matrix(1.3333333,0,0,-1.3333333,62.684,71.184)" />
    <path
       id="path3"
       d="M 0,10.63004 H 42.52022"
       style="fill:none;stroke:#000000;stroke-width:0.3985;stroke-linecap:butt;stroke-linejoin:miter;stroke-miterlimit:10;stroke-dasharray:none;stroke-opacity:1"
       transform="matrix(1.3333333,0,0,-1.3333333,62.684,71.184)" />
    <path
       id="path4"
       d="M 0,21.2601 H 42.52022"
       style="fill:none;stroke:#000000;stroke-width:0.3985;stroke-linecap:butt;stroke-linejoin:miter;stroke-miterlimit:10;stroke-dasharray:none;stroke-opacity:1"
       transform="matrix(1.3333333,0,0,-1.3333333,62.684,71.184)" />
    <path
       id="path5"
       d="m 7.1367109,0.00140625 v -0.3046875 H 6.9609297 c -0.5976563,0 -0.7382813,-0.0703125 -0.84375,-0.3984375 L 3.9609297,-6.9360938 C 3.9140547,-7.065 3.8906172,-7.1353125 3.7382734,-7.1353125 c -0.1640625,0 -0.1875,0.058594 -0.2460937,0.1992187 l -2.0625,5.9648438 C 1.2538984,-0.46734375 0.85546094,-0.315 0.31639844,-0.30328125 v 0.3046875 L 1.3359297,-0.03375 2.4843672,0.00140625 v -0.3046875 c -0.5039063,0 -0.75,-0.2578125 -0.75,-0.515625 0,-0.0234375 0.011719,-0.12890625 0.023437,-0.140625 L 2.2148359,-2.2720313 h 2.4609375 l 0.5273438,1.52343755 c 0.011719,0.046875 0.023437,0.10546875 0.023437,0.140625 0,0.3046875 -0.5507813,0.3046875 -0.8203125,0.3046875 v 0.3046875 C 4.7578047,-0.03375 5.4609297,-0.03375 5.8359297,-0.03375 Z M 4.5585859,-2.5767188 H 2.3203047 l 1.1132812,-3.234375 z m 0,0"
       style="fill:#000000;fill-opacity:1;fill-rule:nonzero;stroke:none"
       aria-label="A"
       transform="matrix(1.3333333,0,0,1.3333333,100.22267,33.42)" />
    <path
       id="path6"
       d="m 7.6533,25.51237 v 12.7562 h 12.7562 v -12.7562 z"
       style="fill:none;stroke:#000000;stroke-width:0.3985;stroke-linecap:butt;stroke-linejoin:miter;stroke-miterlimit:10;stroke-dasharray:none;stroke-opacity:1"
       transform="matrix(1.3333333,0,0,-1.3333333,62.684,71.184)" />
    <path
       id="path7"
       d="M 7.6533,28.70142 H 20.4095"
       style="fill:none;stroke:#000000;stroke-width:0.3985;stroke-linecap:butt;stroke-linejoin:miter;stroke-miterlimit:10;stroke-dasharray:none;stroke-opacity:1"
       transform="matrix(1.3333333,0,0,-1.3333333,62.684,71.184)" />
    <path
       id="path8"
       d="M 7.6533,31.89046 H 20.4095"
       style="fill:none;stroke:#000000;stroke-width:0.3985;stroke-linecap:butt;stroke-linejoin:miter;stroke-miterlimit:10;stroke-dasharray:none;stroke-opacity:1"
       transform="matrix(1.3333333,0,0,-1.3333333,62.684,71.184)" />
    <path
       id="path9"
       d="m 0,-85.04044 v 42.52022 h 42.52022 v -42.52022 z"
       style="fill:none;stroke:#000000;stroke-width:0.3985;stroke-linecap:butt;stroke-linejoin:miter;stroke-miterlimit:10;stroke-dasharray:none;stroke-opacity:1"
       transform="matrix(1.3333333,0,0,-1.3333333,62.684,71.184)" />
    <path
       id="path10"
       d="M 0,-74.4104 H 42.52022"
       style="fill:none;stroke:#000000;stroke-width:0.3985;stroke-linecap:butt;stroke-linejoin:miter;stroke-miterlimit:10;stroke-dasharray:none;stroke-opacity:1"
       transform="matrix(1.3333333,0,0,-1.3333333,62.684,71.184)" />
    <path
       id="path11"
       d="M 0,-63.78033 H 42.52022"
       style="fill:none;stroke:#000000;stroke-width:0.3985;stroke-linecap:butt;stroke-linejoin:miter;stroke-miterlimit:10;stroke-dasharray:none;stroke-opacity:1"
       transform="matrix(1.3333333,0,0,-1.3333333,62.684,71.184)" />
    <path
       id="path12"
       d="m 6.4794688,-1.8267422 c 0,-0.8671875 -0.8085938,-1.6054687 -1.921875,-1.7226562 0.9726562,-0.1992188 1.6523437,-0.8320313 1.6523437,-1.5703125 0,-0.8671875 -0.9140625,-1.6875 -2.203125,-1.6875 H 0.36228125 v 0.3164062 h 0.234375 c 0.76171875,0 0.78515625,0.1054688 0.78515625,0.46875 v 5.25000001 c 0,0.3515625 -0.023437,0.46875 -0.78515625,0.46875 h -0.234375 v 0.3046875 H 4.264625 c 1.3242188,0 2.2148438,-0.890625 2.2148438,-1.82812501 z M 5.249,-5.1197109 c 0,0.6328125 -0.4921875,1.4765625 -1.59375,1.4765625 H 2.2138438 v -2.4492188 c 0,-0.328125 0.011719,-0.3984375 0.4804687,-0.3984375 H 3.9365 c 0.9609375,0 1.3125,0.84375 1.3125,1.3710938 z m 0.234375,3.2929687 c 0,0.703125 -0.515625,1.52343751 -1.5351562,1.52343751 H 2.6943125 c -0.46875,0 -0.4804687,-0.0703125 -0.4804687,-0.3984375 V -3.4204922 h 1.875 c 0.984375,0 1.3945312,0.9257813 1.3945312,1.59375 z m 0,0"
       style="fill:#000000;fill-opacity:1;fill-rule:nonzero;stroke:none"
       aria-label="B"
       transform="matrix(1.3333333,0,0,1.3333333,100.50133,146.588)" />
    <path
       id="path13"
       d="m 7.6533,-59.52805 v 12.75618 h 12.7562 v -12.75618 z"
       style="fill:none;stroke:#000000;stroke-width:0.3985;stroke-linecap:butt;stroke-linejoin:miter;stroke-miterlimit:10;stroke-dasharray:none;stroke-opacity:1"
       transform="matrix(1.3333333,0,0,-1.3333333,62.684,71.184)" />
    <path
       id="path14"
       d="M 7.6533,-56.339 H 20.4095"
       style="fill:none;stroke:#000000;stroke-width:0.3985;stroke-linecap:butt;stroke-linejoin:miter;stroke-miterlimit:10;stroke-dasharray:none;stroke-opacity:1"
       transform="matrix(1.3333333,0,0,-1.3333333,62.684,71.184)" />
    <path
       id="path15"
       d="M 7.6533,-53.14996 H 20.4095"
       style="fill:none;stroke:#000000;stroke-width:0.3985;stroke-linecap:butt;stroke-linejoin:miter;stroke-miterlimit:10;stroke-dasharray:none;stroke-opacity:1"
       transform="matrix(1.3333333,0,0,-1.3333333,62.684,71.184)" />
    <path
       id="path16"
       d="m -42.52022,-170.08089 v 42.52024 H 0 v -42.52024 z"
       style="fill:none;stroke:#000000;stroke-width:0.3985;stroke-linecap:butt;stroke-linejoin:miter;stroke-miterlimit:10;stroke-dasharray:none;stroke-opacity:1"
       transform="matrix(1.3333333,0,0,-1.3333333,62.684,71.184)" />
    <path
       id="path17"
       d="M -42.52022,-159.45084 H 0"
       style="fill:none;stroke:#000000;stroke-width:0.3985;stroke-linecap:butt;stroke-linejoin:miter;stroke-miterlimit:10;stroke-dasharray:none;stroke-opacity:1"
       transform="matrix(1.3333333,0,0,-1.3333333,62.684,71.184)" />
    <path
       id="path18"
       d="M -42.52022,-148.82079 H 0"
       style="fill:none;stroke:#000000;stroke-width:0.3985;stroke-linecap:butt;stroke-linejoin:miter;stroke-miterlimit:10;stroke-dasharray:none;stroke-opacity:1"
       transform="matrix(1.3333333,0,0,-1.3333333,62.684,71.184)" />
    <path
       id="path19"
       d="m 7.0440937,-3.3501406 c 0,-1.8867188 -1.3476562,-3.4570313 -3.046875,-3.4570313 H 0.3526875 v 0.3164063 h 0.234375 c 0.7734375,0 0.7851562,0.1054687 0.7851562,0.46875 v 5.24999998 c 0,0.3515625 -0.011719,0.46875 -0.7851562,0.46875 h -0.234375 v 0.3046875 h 3.6445312 c 1.6757813,0 3.046875,-1.47656248 3.046875,-3.35156248 z m -0.9960937,0 c 0,1.1132812 -0.1875,1.7109375 -0.5507813,2.1914062 C 5.298,-0.88920312 4.7355,-0.30326562 3.7276875,-0.30326562 H 2.719875 c -0.46875,0 -0.4921875,-0.0703125 -0.4921875,-0.3984375 V -6.0923281 c 0,-0.328125 0.023437,-0.3984375 0.4921875,-0.3984375 h 0.9960937 c 0.6210938,0 1.3007813,0.2109375 1.8164063,0.9257812 C 5.95425,-4.9790469 6.048,-4.1235781 6.048,-3.3501406 Z m 0,0"
       style="fill:#000000;fill-opacity:1;fill-rule:nonzero;stroke:none"
       aria-label="D"
       transform="matrix(1.3333333,0,0,1.3333333,43.436,259.97467)" />
    <path
       id="path20"
       d="m -34.8669,-144.5685 v 12.7562 h 12.7562 v -12.7562 z"
       style="fill:none;stroke:#000000;stroke-width:0.3985;stroke-linecap:butt;stroke-linejoin:miter;stroke-miterlimit:10;stroke-dasharray:none;stroke-opacity:1"
       transform="matrix(1.3333333,0,0,-1.3333333,62.684,71.184)" />
    <path
       id="path21"
       d="m -34.8669,-141.37946 h 12.7562"
       style="fill:none;stroke:#000000;stroke-width:0.3985;stroke-linecap:butt;stroke-linejoin:miter;stroke-miterlimit:10;stroke-dasharray:none;stroke-opacity:1"
       transform="matrix(1.3333333,0,0,-1.3333333,62.684,71.184)" />
    <path
       id="path22"
       d="m -34.8669,-138.19041 h 12.7562"
       style="fill:none;stroke:#000000;stroke-width:0.3985;stroke-linecap:butt;stroke-linejoin:miter;stroke-miterlimit:10;stroke-dasharray:none;stroke-opacity:1"
       transform="matrix(1.3333333,0,0,-1.3333333,62.684,71.184)" />
    <path
       id="path23"
       d="m 42.52022,-170.08089 v 42.52024 h 42.52022 v -42.52024 z"
       style="fill:none;stroke:#000000;stroke-width:0.3985;stroke-linecap:butt;stroke-linejoin:miter;stroke-miterlimit:10;stroke-dasharray:none;stroke-opacity:1"
       transform="matrix(1.3333333,0,0,-1.3333333,62.684,71.184)" />
    <path
       id="path24"
       d="M 42.52022,-159.45084 H 85.04044"
       style="fill:none;stroke:#000000;stroke-width:0.3985;stroke-linecap:butt;stroke-linejoin:miter;stroke-miterlimit:10;stroke-dasharray:none;stroke-opacity:1"
       transform="matrix(1.3333333,0,0,-1.3333333,62.684,71.184)" />
    <path
       id="path25"
       d="M 42.52022,-148.82079 H 85.04044"
       style="fill:none;stroke:#000000;stroke-width:0.3985;stroke-linecap:butt;stroke-linejoin:miter;stroke-miterlimit:10;stroke-dasharray:none;stroke-opacity:1"
       transform="matrix(1.3333333,0,0,-1.3333333,62.684,71.184)" />
    <path
       id="path26"
       d="M 6.4924375,-2.5675625 H 6.2463438 C 6.00025,-1.0324062 5.765875,-0.30584375 4.0549375,-0.30584375 H 2.7307188 c -0.46875,0 -0.4921875,-0.0703125 -0.4921875,-0.3984375 V -3.3644375 H 3.140875 c 0.9609375,0 1.078125,0.3164063 1.078125,1.1601563 H 4.4650938 V -4.841 H 4.219 c 0,0.8554688 -0.1171875,1.1601563 -1.078125,1.1601563 H 2.2385313 v -2.390625 c 0,-0.328125 0.023437,-0.3984375 0.4921875,-0.3984375 h 1.2890625 c 1.5234375,0 1.7929687,0.5507812 1.9453125,1.9335937 H 6.2111875 L 5.9416563,-6.7745937 H 0.328375 v 0.3046875 H 0.56275 c 0.7734375,0 0.796875,0.1171875 0.796875,0.46875 v 5.22656245 c 0,0.3515625 -0.023437,0.46875 -0.796875,0.46875 H 0.328375 v 0.3046875 h 5.7539063 z m 0,0"
       style="fill:#000000;fill-opacity:1;fill-rule:nonzero;stroke:none"
       aria-label="E"
       transform="matrix(1.3333333,0,0,1.3333333,157.37467,259.95467)" />
    <path
       id="path27"
       d="m 50.17352,-144.5685 v 12.7562 h 12.7562 v -12.7562 z"
       style="fill:none;stroke:#000000;stroke-width:0.3985;stroke-linecap:butt;stroke-linejoin:miter;stroke-miterlimit:10;stroke-dasharray:none;stroke-opacity:1"
       transform="matrix(1.3333333,0,0,-1.3333333,62.684,71.184)" />
    <path
       id="path28"
       d="m 50.17352,-141.37946 h 12.7562"
       style="fill:none;stroke:#000000;stroke-width:0.3985;stroke-linecap:butt;stroke-linejoin:miter;stroke-miterlimit:10;stroke-dasharray:none;stroke-opacity:1"
       transform="matrix(1.3333333,0,0,-1.3333333,62.684,71.184)" />
    <path
       id="path29"
       d="m 50.17352,-138.19041 h 12.7562"
       style="fill:none;stroke:#000000;stroke-width:0.3985;stroke-linecap:butt;stroke-linejoin:miter;stroke-miterlimit:10;stroke-dasharray:none;stroke-opacity:1"
       transform="matrix(1.3333333,0,0,-1.3333333,62.684,71.184)" />
    <path
       id="path30"
       d="m 106.30054,0 v 42.52022 h 42.52023 V 0 Z"
       style="fill:none;stroke:#000000;stroke-width:0.3985;stroke-linecap:butt;stroke-linejoin:miter;stroke-miterlimit:10;stroke-dasharray:none;stroke-opacity:1"
       transform="matrix(1.3333333,0,0,-1.3333333,62.684,71.184)" />
    <path
       id="path31"
       d="m 106.30054,10.63004 h 42.52023"
       style="fill:none;stroke:#000000;stroke-width:0.3985;stroke-linecap:butt;stroke-linejoin:miter;stroke-miterlimit:10;stroke-dasharray:none;stroke-opacity:1"
       transform="matrix(1.3333333,0,0,-1.3333333,62.684,71.184)" />
    <path
       id="path32"
       d="m 106.30054,21.2601 h 42.52023"
       style="fill:none;stroke:#000000;stroke-width:0.3985;stroke-linecap:butt;stroke-linejoin:miter;stroke-miterlimit:10;stroke-dasharray:none;stroke-opacity:1"
       transform="matrix(1.3333333,0,0,-1.3333333,62.684,71.184)" />
    <path
       id="path33"
       d="m 6.0822031,-4.5353906 -0.28125,-2.2382813 H 0.32829688 v 0.3046875 h 0.234375 c 0.77343752,0 0.79687502,0.1171875 0.79687502,0.46875 v 5.22656252 c 0,0.3515625 -0.023437,0.46875 -0.79687502,0.46875 h -0.234375 V -2.34375e-4 C 0.67985938,-0.03539063 1.4532969,-0.03539063 1.8400156,-0.03539063 c 0.4101563,0 1.3125,0 1.6757813,0.035156255 V -0.30492188 h -0.328125 c -0.9492188,0 -0.9492188,-0.12890625 -0.9492188,-0.48046875 V -3.2346094 h 0.8554688 c 0.9609375,0 1.0546875,0.3164063 1.0546875,1.1601563 H 4.4064219 V -4.7111719 H 4.1486094 c 0,0.8320313 -0.09375,1.1601563 -1.0546875,1.1601563 H 2.2384531 v -2.5195313 c 0,-0.328125 0.023437,-0.3984375 0.4921875,-0.3984375 h 1.1953125 c 1.4882813,0 1.7460938,0.5625 1.8984375,1.9335938 z m 0,0"
       style="fill:#000000;fill-opacity:1;fill-rule:nonzero;stroke:none"
       aria-label="F"
       transform="matrix(1.3333333,0,0,1.3333333,242.60133,33.18)" />
    <path
       id="path34"
       d="m 113.95386,25.51237 v 12.7562 h 12.75619 v -12.7562 z"
       style="fill:none;stroke:#000000;stroke-width:0.3985;stroke-linecap:butt;stroke-linejoin:miter;stroke-miterlimit:10;stroke-dasharray:none;stroke-opacity:1"
       transform="matrix(1.3333333,0,0,-1.3333333,62.684,71.184)" />
    <path
       id="path35"
       d="m 113.95386,28.70142 h 12.75619"
       style="fill:none;stroke:#000000;stroke-width:0.3985;stroke-linecap:butt;stroke-linejoin:miter;stroke-miterlimit:10;stroke-dasharray:none;stroke-opacity:1"
       transform="matrix(1.3333333,0,0,-1.3333333,62.684,71.184)" />
    <path
       id="path36"
       d="m 113.95386,31.89046 h 12.75619"
       style="fill:none;stroke:#000000;stroke-width:0.3985;stroke-linecap:butt;stroke-linejoin:miter;stroke-miterlimit:10;stroke-dasharray:none;stroke-opacity:1"
       transform="matrix(1.3333333,0,0,-1.3333333,62.684,71.184)" />
    <path
       id="path37"
       d="m 106.30054,-85.04044 v 42.52022 h 42.52023 v -42.52022 z"
       style="fill:none;stroke:#000000;stroke-width:0.3985;stroke-linecap:butt;stroke-linejoin:miter;stroke-miterlimit:10;stroke-dasharray:none;stroke-opacity:1"
       transform="matrix(1.3333333,0,0,-1.3333333,62.684,71.184)" />
    <path
       id="path38"
       d="m 106.30054,-74.4104 h 42.52023"
       style="fill:none;stroke:#000000;stroke-width:0.3985;stroke-linecap:butt;stroke-linejoin:miter;stroke-miterlimit:10;stroke-dasharray:none;stroke-opacity:1"
       transform="matrix(1.3333333,0,0,-1.3333333,62.684,71.184)" />
    <path
       id="path39"
       d="m 106.30054,-63.78033 h 42.52023"
       style="fill:none;stroke:#000000;stroke-width:0.3985;stroke-linecap:butt;stroke-linejoin:miter;stroke-miterlimit:10;stroke-dasharray:none;stroke-opacity:1"
       transform="matrix(1.3333333,0,0,-1.3333333,62.684,71.184)" />
    <path
       id="path40"
       d="m 6.6224922,-2.3189297 c 0,-0.1054687 0,-0.1757812 -0.1289063,-0.1757812 -0.1054687,0 -0.1054687,0.070312 -0.1171875,0.1640625 -0.082031,1.42968746 -1.1484375,2.23828121 -2.2265625,2.23828121 -0.609375,0 -2.5664062,-0.33984375 -2.5664062,-3.30468751 0,-2.9765625 1.9453125,-3.3164062 2.5546875,-3.3164062 1.078125,0 1.96875,0.9023437 2.1679687,2.3671875 0.023437,0.1289062 0.023437,0.1640625 0.1640625,0.1640625 0.1523438,0 0.1523438,-0.035156 0.1523438,-0.234375 v -2.3671875 c 0,-0.1640625 0,-0.234375 -0.1054688,-0.234375 -0.035156,0 -0.082031,0 -0.1640625,0.1171875 l -0.4921875,0.7382812 c -0.375,-0.3632812 -0.8789062,-0.8554687 -1.8398437,-0.8554687 -1.8632813,0 -3.45703126,1.5820312 -3.45703126,3.609375 0,2.0625 1.60546876,3.63281246 3.45703126,3.63281246 1.6289062,0 2.6015625,-1.38281246 2.6015625,-2.54296876 z m 0,0"
       style="fill:#000000;fill-opacity:1;fill-rule:nonzero;stroke:none"
       aria-label="C"
       transform="matrix(1.3333333,0,0,1.3333333,242.14267,146.588)" />
    <path
       id="path41"
       d="m 113.95386,-59.52805 v 12.75618 h 12.75619 v -12.75618 z"
       style="fill:none;stroke:#000000;stroke-width:0.3985;stroke-linecap:butt;stroke-linejoin:miter;stroke-miterlimit:10;stroke-dasharray:none;stroke-opacity:1"
       transform="matrix(1.3333333,0,0,-1.3333333,62.684,71.184)" />
    <path
       id="path42"
       d="m 113.95386,-56.339 h 12.75619"
       style="fill:none;stroke:#000000;stroke-width:0.3985;stroke-linecap:butt;stroke-linejoin:miter;stroke-miterlimit:10;stroke-dasharray:none;stroke-opacity:1"
       transform="matrix(1.3333333,0,0,-1.3333333,62.684,71.184)" />
    <path
       id="path43"
       d="m 113.95386,-53.14996 h 12.75619"
       style="fill:none;stroke:#000000;stroke-width:0.3985;stroke-linecap:butt;stroke-linejoin:miter;stroke-miterlimit:10;stroke-dasharray:none;stroke-opacity:1"
       transform="matrix(1.3333333,0,0,-1.3333333,62.684,71.184)" />
    <path
       id="path44"
       d="m 21.2601,-42.52022 v 31.28115"
       style="fill:none;stroke:#000000;stroke-width:0.3985;stroke-linecap:butt;stroke-linejoin:miter;stroke-miterlimit:10;stroke-dasharray:none;stroke-opacity:1"
       transform="matrix(1.3333333,0,0,-1.3333333,62.684,71.184)" />
    <path
       id="path45"
       d="M 10.89319,0 0.19925,5.3951 V 0 -5.3951 Z"
       style="fill:none;stroke:#000000;stroke-width:0.3985;stroke-linecap:butt;stroke-linejoin:miter;stroke-miterlimit:10;stroke-dasharray:none;stroke-opacity:1"
       transform="matrix(0,-1.3333333,-1.3333333,0,91.0308,86.30228)" />
    <path
       id="path46"
       d="m -8.26445,-126.96204 10.58549,26.46419"
       style="fill:none;stroke:#000000;stroke-width:0.3985;stroke-linecap:butt;stroke-linejoin:miter;stroke-miterlimit:10;stroke-dasharray:none;stroke-opacity:1"
       transform="matrix(1.3333333,0,0,-1.3333333,62.684,71.184)" />
    <path
       id="path47"
       d="M 0,5.66934 11.33871,0 0,-5.66934"
       style="fill:none;stroke:#000000;stroke-width:0.3985;stroke-linecap:butt;stroke-linejoin:miter;stroke-miterlimit:10;stroke-dasharray:none;stroke-opacity:1"
       transform="matrix(-0.49516,1.23792,1.23792,0.49516,57.18052,226.677)" />
    <path
       id="path48"
       d="M 16.64888,0 8.50403,5.42989 0.35919,0 8.50403,-5.42989 Z"
       style="fill:#000000;fill-opacity:1;fill-rule:nonzero;stroke:#000000;stroke-width:0.3985;stroke-linecap:butt;stroke-linejoin:miter;stroke-miterlimit:10;stroke-dasharray:none;stroke-opacity:1"
       transform="matrix(0.49516,-1.23792,-1.23792,-0.49516,65.600867,205.62581)" />
    <path
       id="path49"
       d="m 4.3250078,-4.3957969 c 0,-0.1054687 -0.035156,-0.1875 -0.2109375,-0.2695312 l -1.40625,-0.65625 1.3828125,-0.65625 c 0.1992188,-0.09375 0.234375,-0.1640625 0.234375,-0.28125 0,-0.1289063 -0.1054687,-0.28125 -0.2695312,-0.28125 -0.070313,0 -0.09375,0 -0.3515625,0.1992187 l -1.1015625,0.8085938 0.1523437,-1.6875 c 0,-0.1523438 -0.1289062,-0.2578125 -0.2578125,-0.2578125 -0.1640625,0 -0.2695312,0.1289062 -0.2695312,0.2578125 l 0.140625,1.6875 -1.2304688,-0.890625 C 0.99688281,-6.5403281 0.97344531,-6.5403281 0.91485156,-6.5403281 c -0.15234375,0 -0.26953125,0.1523437 -0.26953125,0.28125 0,0.1171875 0.046875,0.1875 0.2109375,0.2695312 l 1.40624999,0.65625 -1.38281249,0.65625 c -0.1875,0.09375 -0.234375,0.1640625 -0.234375,0.28125 0,0 0,0.28125 0.328125,0.28125 l 1.39453129,-1.0078125 -0.140625,1.6992188 c 0,0.140625 0.1289062,0.2460937 0.2578125,0.2460937 0.1523437,0 0.2695312,-0.1171875 0.2695312,-0.2460937 l -0.1523437,-1.6992188 1.2890625,0.9492188 c 0.058594,0.023437 0.082031,0.058594 0.1640625,0.058594 0.1640625,0 0.2695312,-0.1523437 0.2695312,-0.2812503 z m 0,0"
       style="fill:#000000;fill-opacity:1;fill-rule:nonzero;stroke:none"
       aria-label="*"
       transform="matrix(1.3333333,0,0,1.3333333,40.010667,236.572)" />
    <path
       id="path50"
       d="m 4.1710078,-9.6875e-4 v -0.3046875 H 3.8546016 c -0.9023438,0 -0.9257813,-0.1171875 -0.9257813,-0.48046875 v -5.5898437 c 0,-0.234375 0,-0.2578125 -0.234375,-0.2578125 -0.609375,0.6328125 -1.4882812,0.6328125 -1.80468749,0.6328125 v 0.3164062 c 0.19921879,0 0.78515629,0 1.30078129,-0.2578125 v 5.15625 c 0,0.3515625 -0.035156,0.48046875 -0.9257813,0.48046875 H 0.94835156 v 0.3046875 C 1.2999141,-0.036125 2.1553828,-0.036125 2.5538203,-0.036125 c 0.3984375,0 1.265625,0 1.6171875,0.03515625 z m 0,0"
       style="fill:#000000;fill-opacity:1;fill-rule:nonzero;stroke:none"
       aria-label="1"
       transform="matrix(1.3333333,0,0,1.3333333,78.716,198.11067)" />
    <path
       id="path51"
       d="M 44.84126,-112.10324 34.25575,-85.63905"
       style="fill:none;stroke:#000000;stroke-width:0.3985;stroke-linecap:butt;stroke-linejoin:miter;stroke-miterlimit:10;stroke-dasharray:none;stroke-opacity:1"
       transform="matrix(1.3333333,0,0,-1.3333333,62.684,71.184)" />
    <path
       id="path52"
       d="M 16.64888,0 8.50403,5.42989 0.35919,0 8.50403,-5.42989 Z"
       style="fill:none;stroke:#000000;stroke-width:0.3985;stroke-linecap:butt;stroke-linejoin:miter;stroke-miterlimit:10;stroke-dasharray:none;stroke-opacity:1"
       transform="matrix(0.49516,1.23792,1.23792,-0.49516,122.29449,220.21032)" />
    <path
       id="path53"
       d="M 0,5.66934 11.33871,0 0,-5.66934"
       style="fill:none;stroke:#000000;stroke-width:0.3985;stroke-linecap:butt;stroke-linejoin:miter;stroke-miterlimit:10;stroke-dasharray:none;stroke-opacity:1"
       transform="matrix(-0.49516,-1.23792,-1.23792,0.49516,113.87415,199.15913)" />
    <path
       id="path54"
       d="m 4.1724922,-0.00126563 v -0.3046875 H 3.8560859 c -0.9023437,0 -0.9257812,-0.1171875 -0.9257812,-0.48046875 V -6.3762656 c 0,-0.234375 0,-0.2578125 -0.234375,-0.2578125 -0.609375,0.6328125 -1.4882813,0.6328125 -1.80468751,0.6328125 v 0.3164062 c 0.19921871,0 0.78515621,0 1.30078121,-0.2578125 v 5.15625002 c 0,0.3515625 -0.035156,0.48046875 -0.9257812,0.48046875 H 0.94983594 v 0.3046875 C 1.3013984,-0.03642188 2.1568672,-0.03642188 2.5553047,-0.03642188 c 0.3984375,0 1.265625,0 1.6171875,0.03515625 z m 0,0"
       style="fill:#000000;fill-opacity:1;fill-rule:nonzero;stroke:none"
       aria-label="1"
       transform="matrix(1.3333333,0,0,1.3333333,135.40933,236.572)" />
    <path
       id="path55"
       d="m 4.3235625,-4.3946094 c 0,-0.1054687 -0.035156,-0.1875 -0.2109375,-0.2695312 l -1.40625,-0.65625 1.3828125,-0.65625 c 0.1992188,-0.09375 0.234375,-0.1640625 0.234375,-0.28125 0,-0.1289063 -0.1054687,-0.28125 -0.2695312,-0.28125 -0.070312,0 -0.09375,0 -0.3515625,0.1992187 l -1.1015625,0.8085938 0.1523437,-1.6875 c 0,-0.1523438 -0.1289062,-0.2578125 -0.2578125,-0.2578125 -0.1640625,0 -0.2695312,0.1289062 -0.2695312,0.2578125 l 0.140625,1.6875 -1.2304688,-0.890625 C 0.9954375,-6.5391406 0.972,-6.5391406 0.91340625,-6.5391406 c -0.15234375,0 -0.26953125,0.1523437 -0.26953125,0.28125 0,0.1171875 0.046875,0.1875 0.2109375,0.2695312 l 1.40625,0.65625 -1.3828125,0.65625 c -0.1875,0.09375 -0.234375,0.1640625 -0.234375,0.28125 0,0 0,0.28125 0.328125,0.28125 l 1.3945313,-1.0078125 -0.140625,1.6992188 c 0,0.140625 0.1289062,0.2460937 0.2578125,0.2460937 0.1523437,0 0.2695312,-0.1171875 0.2695312,-0.2460937 l -0.1523437,-1.6992188 1.2890625,0.9492188 c 0.058594,0.023437 0.082031,0.058594 0.1640625,0.058594 0.1640625,0 0.2695312,-0.1523437 0.2695312,-0.2812503 z m 0,0"
       style="fill:#000000;fill-opacity:1;fill-rule:nonzero;stroke:none"
       aria-label="*"
       transform="matrix(1.3333333,0,0,1.3333333,96.704,199.22667)" />
    <path
       id="path56"
       d="m 42.52022,-63.78032 h 63.78032"
       style="fill:none;stroke:#000000;stroke-width:0.3985;stroke-linecap:butt;stroke-linejoin:miter;stroke-miterlimit:10;stroke-dasharray:none;stroke-opacity:1"
       transform="matrix(1.3333333,0,0,-1.3333333,62.684,71.184)" />
    <path
       id="path57"
       d="M 4.1716094,-5.625e-4 V -0.30525 H 3.8552031 c -0.9023437,0 -0.9257812,-0.1171875 -0.9257812,-0.48046875 V -6.3755625 c 0,-0.234375 0,-0.2578125 -0.234375,-0.2578125 -0.609375,0.6328125 -1.4882813,0.6328125 -1.80468752,0.6328125 v 0.3164063 c 0.19921872,0 0.78515622,0 1.30078122,-0.2578125 v 5.15624995 c 0,0.3515625 -0.035156,0.48046875 -0.9257812,0.48046875 H 0.94895313 V -5.625e-4 C 1.3005156,-0.03571875 2.1559844,-0.03571875 2.5544219,-0.03571875 c 0.3984375,0 1.265625,0 1.6171875,0.03515625 z m 0,0"
       style="fill:#000000;fill-opacity:1;fill-rule:nonzero;stroke:none"
       aria-label="1"
       transform="matrix(1.3333333,0,0,1.3333333,124.07067,151.532)" />
    <path
       id="path58"
       d="m 4.3237422,-4.3950937 c 0,-0.1054688 -0.035156,-0.1875 -0.2109375,-0.2695313 l -1.40625,-0.65625 1.3828125,-0.65625 c 0.1992187,-0.09375 0.234375,-0.1640625 0.234375,-0.28125 0,-0.1289062 -0.1054688,-0.28125 -0.2695313,-0.28125 -0.070312,0 -0.09375,0 -0.3515625,0.1992188 l -1.1015625,0.8085937 0.1523438,-1.6875 c 0,-0.1523437 -0.1289063,-0.2578125 -0.2578125,-0.2578125 -0.1640625,0 -0.2695313,0.1289063 -0.2695313,0.2578125 l 0.140625,1.6875 -1.2304687,-0.890625 C 0.99561719,-6.539625 0.97217969,-6.539625 0.91358594,-6.539625 c -0.15234375,0 -0.26953125,0.1523438 -0.26953125,0.28125 0,0.1171875 0.046875,0.1875 0.2109375,0.2695313 l 1.40625001,0.65625 -1.38281251,0.65625 c -0.1875,0.09375 -0.234375,0.1640625 -0.234375,0.28125 0,0 0,0.28125 0.328125,0.28125 l 1.39453121,-1.0078125 -0.140625,1.6992187 c 0,0.140625 0.1289063,0.2460938 0.2578125,0.2460938 0.1523438,0 0.2695313,-0.1171875 0.2695313,-0.2460938 l -0.1523438,-1.6992187 1.2890625,0.9492187 c 0.058594,0.023437 0.082031,0.058594 0.1640625,0.058594 0.1640625,0 0.2695313,-0.1523438 0.2695313,-0.2812502 z m 0,0"
       style="fill:#000000;fill-opacity:1;fill-rule:nonzero;stroke:none"
       aria-label="*"
       transform="matrix(1.3333333,0,0,1.3333333,193.08267,151.532)" />
    <path
       id="path59"
       d="M 127.56065,-42.52022 V -0.64478"
       style="fill:none;stroke:#000000;stroke-width:0.3985;stroke-linecap:butt;stroke-linejoin:miter;stroke-miterlimit:10;stroke-dasharray:2.98883, 2.98883;stroke-dashoffset:0;stroke-opacity:1"
       transform="matrix(1.3333333,0,0,-1.3333333,62.684,71.184)" />
    <path
       id="path60"
       d="M 0,5.66934 11.33871,0 0,-5.66934"
       style="fill:none;stroke:#000000;stroke-width:0.3985;stroke-linecap:butt;stroke-linejoin:miter;stroke-miterlimit:10;stroke-dasharray:none;stroke-opacity:1"
       transform="matrix(0,-1.3333333,-1.3333333,0,232.76487,86.896307)" />
    <path
       id="path61"
       d="M 148.82077,21.2601 H 180.1019"
       style="fill:none;stroke:#000000;stroke-width:0.3985;stroke-linecap:butt;stroke-linejoin:miter;stroke-miterlimit:10;stroke-dasharray:2.98883, 2.98883;stroke-dashoffset:0;stroke-opacity:1"
       transform="matrix(1.3333333,0,0,-1.3333333,62.684,71.184)" />
    <path
       id="path62"
       d="M 10.89319,0 0.19925,5.3951 V 0 -5.3951 Z"
       style="fill:none;stroke:#000000;stroke-width:0.3985;stroke-linecap:butt;stroke-linejoin:miter;stroke-miterlimit:10;stroke-dasharray:none;stroke-opacity:1"
       transform="matrix(1.3333333,0,0,-1.3333333,302.68703,42.8372)" />
    <path
       id="path63"
       d="M 191.34099,-6.37776 V 48.89865 H 233.8612 V -6.37776 Z"
       style="fill:none;stroke:#000000;stroke-width:0.3985;stroke-linecap:butt;stroke-linejoin:miter;stroke-miterlimit:10;stroke-dasharray:none;stroke-opacity:1"
       transform="matrix(1.3333333,0,0,-1.3333333,62.684,71.184)" />
    <path
       id="path64"
       d="M 191.34099,4.25227 H 233.8612"
       style="fill:none;stroke:#000000;stroke-width:0.3985;stroke-linecap:butt;stroke-linejoin:miter;stroke-miterlimit:10;stroke-dasharray:none;stroke-opacity:1"
       transform="matrix(1.3333333,0,0,-1.3333333,62.684,71.184)" />
    <path
       id="path65"
       d="M 191.34099,14.88234 H 233.8612"
       style="fill:none;stroke:#000000;stroke-width:0.3985;stroke-linecap:butt;stroke-linejoin:miter;stroke-miterlimit:10;stroke-dasharray:none;stroke-opacity:1"
       transform="matrix(1.3333333,0,0,-1.3333333,62.684,71.184)" />
    <path
       id="path66"
       d="m 7.3251797,-2.4147188 v -0.3046875 l -1.21875,0.023437 c -0.3984375,0 -1.2421875,0 -1.6054688,-0.023437 v 0.3046875 h 0.3164063 c 0.9023437,0 0.9257812,0.1171875 0.9257812,0.4804688 v 0.6328125 c 0,1.125 -1.2539062,1.20703125 -1.5351562,1.20703125 -0.65625,0 -2.625,-0.33984375 -2.625,-3.31640625 0,-2.9765625 1.96875,-3.3046875 2.5664062,-3.3046875 1.0664063,0 1.96875,0.9023437 2.1679688,2.3671875 0.023437,0.1289062 0.023437,0.1640625 0.1640625,0.1640625 0.1523437,0 0.1523437,-0.035156 0.1523437,-0.234375 v -2.3671875 c 0,-0.1640625 0,-0.234375 -0.1054687,-0.234375 -0.046875,0 -0.082031,0 -0.1640625,0.1171875 L 5.8720547,-6.1647188 C 5.5439297,-6.481125 5.0165859,-7.0201875 4.0204922,-7.0201875 c -1.8515625,0 -3.45703126,1.5703125 -3.45703126,3.609375 0,2.0507812 1.59374996,3.6328125 3.48046876,3.6328125 0.7265625,0 1.5234375,-0.2578125 1.8632812,-0.85546875 0.1289063,0.22265625 0.5273438,0.62109375 0.6328125,0.62109375 0.09375,0 0.09375,-0.08203125 0.09375,-0.22265625 V -1.9694063 c 0,-0.3867187 0.046875,-0.4453125 0.6914063,-0.4453125 z m 0,0"
       style="fill:#000000;fill-opacity:1;fill-rule:nonzero;stroke:none"
       aria-label="G"
       transform="matrix(1.3333333,0,0,1.3333333,355.112,41.704)" />
    <path
       id="path67"
       d="m 198.9943,19.13461 v 12.7562 h 12.75619 v -12.7562 z"
       style="fill:none;stroke:#000000;stroke-width:0.3985;stroke-linecap:butt;stroke-linejoin:miter;stroke-miterlimit:10;stroke-dasharray:none;stroke-opacity:1"
       transform="matrix(1.3333333,0,0,-1.3333333,62.684,71.184)" />
    <path
       id="path68"
       d="m 198.9943,22.32365 h 12.75619"
       style="fill:none;stroke:#000000;stroke-width:0.3985;stroke-linecap:butt;stroke-linejoin:miter;stroke-miterlimit:10;stroke-dasharray:none;stroke-opacity:1"
       transform="matrix(1.3333333,0,0,-1.3333333,62.684,71.184)" />
    <path
       id="path69"
       d="m 198.9943,25.5127 h 12.75619"
       style="fill:none;stroke:#000000;stroke-width:0.3985;stroke-linecap:butt;stroke-linejoin:miter;stroke-miterlimit:10;stroke-dasharray:none;stroke-opacity:1"
       transform="matrix(1.3333333,0,0,-1.3333333,62.684,71.184)" />
    <path
       id="path70"
       d="m 205.37238,25.5127 v 6.3781"
       style="fill:none;stroke:#000000;stroke-width:0.3985;stroke-linecap:butt;stroke-linejoin:miter;stroke-miterlimit:10;stroke-dasharray:none;stroke-opacity:1"
       transform="matrix(1.3333333,0,0,-1.3333333,62.684,71.184)" />
    <path
       id="path71"
       d="m 202.82118,27.42607 -1.27568,1.27568 1.27568,1.2757"
       style="fill:none;stroke:#000000;stroke-width:0.3985;stroke-linecap:butt;stroke-linejoin:miter;stroke-miterlimit:10;stroke-dasharray:none;stroke-opacity:1"
       transform="matrix(1.3333333,0,0,-1.3333333,62.684,71.184)" />
    <path
       id="path72"
       d="m 207.9236,27.42607 1.27568,1.27568 -1.27568,1.2757"
       style="fill:none;stroke:#000000;stroke-width:0.3985;stroke-linecap:butt;stroke-linejoin:miter;stroke-miterlimit:10;stroke-dasharray:none;stroke-opacity:1"
       transform="matrix(1.3333333,0,0,-1.3333333,62.684,71.184)" />
    <g
       id="g72"
       aria-label="«接口»"
       transform="matrix(1.3333333,0,0,1.3333333,321.05867,21.349333)">
      <path
         id="path73"
         d="m 2.7538516,-0.10672656 c 0,0 0,-0.0117188 0,-0.0117188 -0.1875,-0.80859375 -0.5039063,-1.58203124 -0.9257813,-2.29687504 0.421875,-0.703125 0.7382813,-1.4765625 0.9257813,-2.2734374 0,-0.011719 0,-0.023437 0,-0.023437 0,-0.058594 -0.035156,-0.1054687 -0.09375,-0.1054687 h -0.023437 c -0.035156,0 -0.082031,0.023437 -0.082031,0.070312 -0.3046875,0.8554688 -0.7851562,1.6289062 -1.4179687,2.2617188 -0.023437,0.023437 -0.035156,0.058594 -0.035156,0.070312 0,0.035156 0.011719,0.058594 0.035156,0.070312 0.6328125,0.6445312 1.1132812,1.42968744 1.4179687,2.27343744 0,0.03515625 0.046875,0.0703125 0.082031,0.0703125 h 0.023437 c 0.058594,0 0.09375,-0.03515625 0.09375,-0.10546875 z m 1.6640625,0 c 0,0 0,-0.0117188 0,-0.0117188 -0.1875,-0.80859375 -0.5039063,-1.58203124 -0.9257813,-2.29687504 0.421875,-0.703125 0.7382813,-1.4765625 0.9257813,-2.2734374 0,-0.011719 0,-0.023437 0,-0.023437 0,-0.058594 -0.035156,-0.1054687 -0.09375,-0.1054687 h -0.023437 c -0.035156,0 -0.082031,0.023437 -0.082031,0.070312 -0.3046875,0.8554688 -0.7851562,1.6289062 -1.4179687,2.2617188 -0.023437,0.023437 -0.035156,0.058594 -0.035156,0.070312 0,0.035156 0.011719,0.058594 0.035156,0.070312 0.6328125,0.6445312 1.1132812,1.42968744 1.4179687,2.27343744 0,0.03515625 0.046875,0.0703125 0.082031,0.0703125 h 0.023437 c 0.058594,0 0.09375,-0.03515625 0.09375,-0.10546875 z m 0,0"
         style="fill:#000000;fill-opacity:1;fill-rule:nonzero;stroke:none" />
      <path
         id="path74"
         d="m 9.2079531,-2.3684453 0.4804688,0.6679687 c 0.234375,-0.2109375 0.4218751,-0.3632812 0.5859371,-0.46875 0.140625,-0.1054687 0.339844,-0.2226562 0.5625,-0.3632812 l 0.01172,2.68359374 c 0,0.12890625 -0.02344,0.22265625 -0.05859,0.28125 -0.03516,0.0703125 -0.105468,0.10546875 -0.199218,0.12890625 -0.105469,0.0117188 -0.46875,-0.0117188 -1.1015629,-0.10546875 l -0.011719,0.140625 0.421875,0.1171875 c 0.1992189,0.0703125 0.3281249,0.12890625 0.3867189,0.19921875 0.07031,0.0703125 0.105469,0.14062501 0.105469,0.22265621 0.01172,0.070312 0,0.1523438 -0.01172,0.234375 l 0.503906,-0.1523437 c 0.07031,-0.011719 0.152344,-0.070312 0.269532,-0.1640625 0.09375,-0.09375 0.164062,-0.19921876 0.199218,-0.29296876 0.03516,-0.1171875 0.05859,-0.234375 0.05859,-0.375 V -2.8606328 l 0.972656,-0.6210938 -0.05859,-0.1054687 -0.914063,0.421875 v -1.9570313 h 1.300781 c 0.09375,0 0.152344,-0.011719 0.164063,-0.035156 0.01172,-0.035156 0,-0.058594 -0.02344,-0.09375 l -0.585937,-0.6210938 -0.457031,0.5273438 H 11.39936 l 0.01172,-1.453125 0.304688,-0.1523438 c 0.04687,-0.035156 0.07031,-0.058594 0.08203,-0.1054687 0.01172,-0.035156 -0.02344,-0.082031 -0.09375,-0.1054688 l -0.925781,-0.4101562 0.05859,1.2773437 v 0.9492188 h -0.703125 l -0.8671874,-0.023437 0.3984375,0.4335937 c 0.1640625,-0.070312 0.3046875,-0.1171875 0.4218749,-0.140625 0.117188,-0.011719 0.257813,-0.035156 0.398438,-0.046875 h 0.351562 v 2.1679688 c -0.5625,0.2460937 -1.1132812,0.4453125 -1.6289062,0.5859375 z m 2.3203129,3.796875 0.02344,0.1289062 c 0.832031,-0.1640625 1.464844,-0.328125 1.886719,-0.46875 0.433594,-0.15234371 0.773437,-0.30468746 1.03125,-0.43359371 0.257812,-0.12890625 0.539062,-0.3046875 0.867187,-0.52734375 0.527344,0.234375 0.925782,0.46875 1.242188,0.6796875 0.304687,0.21093746 0.527344,0.37499996 0.667969,0.49218746 0.140625,0.1289063 0.246093,0.1992188 0.316406,0.234375 0.07031,0.035156 0.128906,0.023437 0.175781,-0.023437 0.05859,-0.046875 0.08203,-0.1523437 0.05859,-0.28125 -0.01172,-0.140625 -0.02344,-0.25781246 -0.05859,-0.32812496 -0.01172,-0.0820313 -0.08203,-0.17578125 -0.164062,-0.26953125 -0.09375,-0.10546875 -0.328125,-0.22265625 -0.691407,-0.375 -0.375,-0.140625 -0.796875,-0.29296875 -1.265625,-0.4453125 0.140625,-0.17578125 0.292969,-0.38671875 0.445313,-0.6328125 0.140625,-0.25781249 0.269531,-0.45703129 0.328125,-0.60937499 0.07031,-0.1757813 0.152344,-0.3398438 0.234375,-0.515625 h 1.558594 c 0.04687,0 0.07031,-0.011719 0.09375,-0.046875 0.01172,-0.023437 0,-0.058594 -0.04687,-0.1054688 l -0.644532,-0.6679687 -0.527343,0.5859375 h -2.636719 c 0.164062,-0.3164063 0.316406,-0.6210938 0.457031,-0.9257813 l 0.292969,-0.082031 c 0.04687,-0.011719 0.08203,-0.035156 0.08203,-0.082031 0.01172,-0.023437 -0.02344,-0.070312 -0.07031,-0.09375 l -0.621094,-0.421875 H 18.0439 c 0.07031,0 0.09375,-0.011719 0.117187,-0.023437 0.01172,-0.011719 -0.02344,-0.070312 -0.09375,-0.140625 l -0.585937,-0.609375 -0.539063,0.5507813 h -1.289062 l 0.914062,-1.2304688 0.257813,-0.046875 c 0.07031,-0.011719 0.105468,-0.035156 0.105468,-0.058594 0,-0.035156 -0.02344,-0.070312 -0.08203,-0.1289063 l -0.609375,-0.4101562 h 1.5 c 0.03516,0 0.04687,-0.011719 0.05859,-0.058594 0.01172,-0.011719 0,-0.058594 -0.03516,-0.09375 l -0.632813,-0.5859375 -0.480469,0.5039063 h -2.695312 l -1.183594,-0.023437 0.515625,0.46875 0.210938,-0.1054688 c 0.09375,-0.046875 0.351562,-0.09375 0.761718,-0.1054687 h 1.886719 l -0.03516,0.1992187 c -0.01172,0.070312 -0.07031,0.2226563 -0.164063,0.4804688 -0.08203,0.2578125 -0.257812,0.65625 -0.503906,1.1953125 h -2.167969 l -1.054687,-0.011719 0.492187,0.4101563 c 0.152344,-0.070312 0.292969,-0.1171875 0.433594,-0.140625 0.140625,0 0.328125,-0.023437 0.574219,-0.035156 h 0.738281 l -0.117187,0.328125 c -0.07031,0.234375 -0.246094,0.65625 -0.503907,1.2773438 H 12.68842 l -0.914063,-0.023437 0.46875,0.4804687 0.175782,-0.1054687 c 0.09375,-0.058594 0.339843,-0.09375 0.726562,-0.1171875 h 0.597656 l -0.691406,1.31249999 c 0.527344,0.1640625 1.113281,0.33984375 1.746094,0.52734375 -0.175781,0.1640625 -0.363281,0.3046875 -0.574219,0.43359375 -0.210937,0.12890625 -0.457031,0.26953125 -0.761719,0.421875 -0.316406,0.15234375 -0.949218,0.37500001 -1.933593,0.67968751 z m 2.085937,-2.10937501 0.691406,-1.26562499 h 1.617188 l -0.07031,0.234375 c -0.03516,0.1171875 -0.105468,0.28125 -0.222656,0.4921875 -0.09375,0.1992187 -0.199219,0.37499999 -0.28125,0.48046874 -0.07031,0.1171875 -0.164062,0.2578125 -0.28125,0.41015625 z m -0.02344,-4.92187499 c 0.210937,0.2929687 0.351562,0.5039062 0.398437,0.6445312 0.04687,0.1171875 0.09375,0.2460938 0.128906,0.3515625 0.03516,0.1171875 0.05859,0.2226563 0.08203,0.28125 0,0.082031 0.01172,0.1171875 0.03516,0.1523438 0.03516,0.023437 0.05859,0.035156 0.105469,0.035156 0.05859,0.011719 0.128906,-0.011719 0.199218,-0.082031 0.07031,-0.070312 0.117188,-0.140625 0.128907,-0.1992188 0.03516,-0.082031 0.04687,-0.1289062 0.04687,-0.1757812 0.01172,-0.1289063 -0.05859,-0.2578125 -0.199219,-0.4101563 -0.128906,-0.140625 -0.421875,-0.3632812 -0.855469,-0.6796875 z m 0.796875,-1.9335938 0.234375,0.3398438 c 0.09375,0.1171875 0.175781,0.2695312 0.246093,0.4921875 l 0.105469,0.375 c 0.02344,0.09375 0.04687,0.140625 0.08203,0.1640625 0.02344,0.023437 0.05859,0.023437 0.08203,0.023437 0.07031,0.011719 0.152343,-0.023437 0.246093,-0.140625 0.08203,-0.1054688 0.140625,-0.2226563 0.152344,-0.3515625 0,-0.1289063 -0.04687,-0.2578125 -0.128906,-0.3984375 -0.08203,-0.1171875 -0.410156,-0.3164063 -0.949219,-0.5742188 z m 6.377929,1.359375 0.07031,1.6054688 v 3.65624999 l -0.08203,1.72265625 c 0.292968,-0.10546875 0.527343,-0.2109375 0.691406,-0.33984375 v -0.85546875 h 4.746094 v 1.1015625 c 0.328125,-0.12890625 0.5625,-0.2578125 0.703125,-0.38671875 l -0.05859,-1.21875 V -5.2981328 l 0.257812,-0.2226563 c 0.07031,-0.046875 0.117188,-0.09375 0.117188,-0.1171875 0,-0.023437 -0.05859,-0.070312 -0.164063,-0.140625 l -0.644531,-0.4335937 -0.351562,0.5039062 h -4.546875 z m 0.679688,5.55468754 V -5.4856328 h 4.746094 v 4.86328124 z m 0,0"
         style="fill:#000000;fill-opacity:1;fill-rule:nonzero;stroke:none" />
      <path
         id="path75"
         d="m 36.527289,-2.4153203 c 0,-0.011719 -0.01172,-0.046875 -0.02344,-0.070312 -0.644532,-0.6328125 -1.113282,-1.40625 -1.417969,-2.2617188 -0.01172,-0.046875 -0.04687,-0.070312 -0.09375,-0.070312 h -0.01172 c -0.05859,0 -0.105469,0.046875 -0.105469,0.1054688 0,0 0,0.011719 0,0.023437 0.175782,0.796875 0.503907,1.5703125 0.9375,2.2734375 -0.433593,0.7148437 -0.761718,1.48828124 -0.9375,2.29687499 0,0 0,0.0117188 0,0.0117188 0,0.0703125 0.04687,0.10546875 0.105469,0.10546875 h 0.01172 c 0.04687,0 0.08203,-0.03515625 0.09375,-0.0703125 0.304687,-0.84375 0.773437,-1.62890624 1.417969,-2.27343744 0.01172,-0.011719 0.02344,-0.035156 0.02344,-0.070312 z m -1.664062,0 c 0,-0.011719 -0.01172,-0.046875 -0.02344,-0.070312 -0.644531,-0.6328125 -1.113281,-1.40625 -1.417969,-2.2617188 -0.01172,-0.046875 -0.04687,-0.070312 -0.09375,-0.070312 h -0.01172 c -0.05859,0 -0.105469,0.046875 -0.105469,0.1054688 0,0 0,0.011719 0,0.023437 0.1875,0.796875 0.503906,1.5703125 0.9375,2.2734375 -0.433594,0.7148437 -0.75,1.48828124 -0.9375,2.29687499 0,0 0,0.0117188 0,0.0117188 0,0.0703125 0.04687,0.10546875 0.105469,0.10546875 h 0.01172 c 0.04687,0 0.08203,-0.03515625 0.09375,-0.0703125 0.304688,-0.84375 0.773438,-1.62890624 1.417969,-2.27343744 0.01172,-0.011719 0.02344,-0.035156 0.02344,-0.070312 z m 0,0"
         style="fill:#000000;fill-opacity:1;fill-rule:nonzero;stroke:none" />
    </g>
  </g>
</svg>
