<?xml version="1.0" encoding="UTF-8" standalone="no"?>
<!-- Created with Inkscape (http://www.inkscape.org/) -->

<svg
   version="1.1"
   id="svg1"
   width="748.88"
   height="221.17332"
   viewBox="0 0 748.88 221.17332"
   sodipodi:docname="24-25-1-计算机网络-期末-题图4.1.pdf"
   xmlns:inkscape="http://www.inkscape.org/namespaces/inkscape"
   xmlns:sodipodi="http://sodipodi.sourceforge.net/DTD/sodipodi-0.dtd"
   xmlns="http://www.w3.org/2000/svg"
   xmlns:svg="http://www.w3.org/2000/svg">
  <defs
     id="defs1" />
  <sodipodi:namedview
     id="namedview1"
     pagecolor="#ffffff"
     bordercolor="#000000"
     borderopacity="0.25"
     inkscape:showpageshadow="2"
     inkscape:pageopacity="0.0"
     inkscape:pagecheckerboard="0"
     inkscape:deskcolor="#d1d1d1">
    <inkscape:page
       x="0"
       y="0"
       inkscape:label="1"
       id="page1"
       width="748.88"
       height="221.17332"
       margin="0"
       bleed="0" />
  </sodipodi:namedview>
  <g
     id="g1"
     inkscape:groupmode="layer"
     inkscape:label="1">
    <path
       id="path1"
       d="m -22.6771,113.38727 v 28.3468 h 45.3542 v -28.3468 z"
       style="fill:none;stroke:#000000;stroke-width:0.3985;stroke-linecap:butt;stroke-linejoin:miter;stroke-miterlimit:10;stroke-dasharray:none;stroke-opacity:1"
       transform="matrix(1.3333333,0,0,-1.3333333,34.281333,209.56933)" />
    <path
       id="path2"
       d="m -25.51195,110.55241 v 34.01651 h 51.0239 v -34.01651 z"
       style="fill:none;stroke:#000000;stroke-width:0.3985;stroke-linecap:butt;stroke-linejoin:miter;stroke-miterlimit:10;stroke-dasharray:none;stroke-opacity:1"
       transform="matrix(1.3333333,0,0,-1.3333333,34.281333,209.56933)" />
    <path
       id="path3"
       d="M -5.6697,110.55241 V 104.8827 H 5.66884 v 5.66971"
       style="fill:none;stroke:#000000;stroke-width:0.3985;stroke-linecap:butt;stroke-linejoin:miter;stroke-miterlimit:10;stroke-dasharray:none;stroke-opacity:1"
       transform="matrix(1.3333333,0,0,-1.3333333,34.281333,209.56933)" />
    <path
       id="path4"
       d="M 7.1373047,-1.40625e-4 V -0.30482812 H 6.9615234 c -0.5976562,0 -0.7382812,-0.0703125 -0.84375,-0.3984375 l -2.15625,-6.23437498 c -0.046875,-0.1289063 -0.070312,-0.1992188 -0.2226562,-0.1992188 -0.1640625,0 -0.1875,0.058594 -0.2460938,0.1992188 l -2.0625,5.96484373 c -0.1757812,0.50390625 -0.57421871,0.65625 -1.11328121,0.66796875 V -1.40625e-4 L 1.3365234,-0.03529687 2.4849609,-1.40625e-4 V -0.30482812 c -0.5039062,0 -0.75,-0.2578125 -0.75,-0.515625 0,-0.0234375 0.011719,-0.12890625 0.023437,-0.140625 L 2.2154297,-2.2735781 h 2.4609375 l 0.5273437,1.52343748 c 0.011719,0.046875 0.023437,0.10546875 0.023437,0.140625 0,0.3046875 -0.5507812,0.3046875 -0.8203125,0.3046875 V -1.40625e-4 C 4.7583984,-0.03529687 5.4615234,-0.03529687 5.8365234,-0.03529687 Z M 4.5591797,-2.5782656 H 2.3208984 l 1.1132813,-3.234375 z m 0,0"
       style="fill:#000000;fill-opacity:1;fill-rule:nonzero;stroke:none"
       aria-label="A"
       transform="matrix(1.3333333,0,0,1.3333333,29.3,14.008)" />
    <path
       id="path5"
       d="M -22.6771,0 V 28.3468 H 22.6771 V 0 Z"
       style="fill:none;stroke:#000000;stroke-width:0.3985;stroke-linecap:butt;stroke-linejoin:miter;stroke-miterlimit:10;stroke-dasharray:none;stroke-opacity:1"
       transform="matrix(1.3333333,0,0,-1.3333333,34.281333,209.56933)" />
    <path
       id="path6"
       d="m -25.51195,-2.83484 v 34.0165 h 51.0239 v -34.0165 z"
       style="fill:none;stroke:#000000;stroke-width:0.3985;stroke-linecap:butt;stroke-linejoin:miter;stroke-miterlimit:10;stroke-dasharray:none;stroke-opacity:1"
       transform="matrix(1.3333333,0,0,-1.3333333,34.281333,209.56933)" />
    <path
       id="path7"
       d="M -5.6697,-2.83484 V -8.50455 H 5.66884 v 5.66971"
       style="fill:none;stroke:#000000;stroke-width:0.3985;stroke-linecap:butt;stroke-linejoin:miter;stroke-miterlimit:10;stroke-dasharray:none;stroke-opacity:1"
       transform="matrix(1.3333333,0,0,-1.3333333,34.281333,209.56933)" />
    <path
       id="path8"
       d="m 6.4800625,-1.8276328 c 0,-0.8671875 -0.8085937,-1.6054688 -1.921875,-1.7226563 0.9726563,-0.1992187 1.6523438,-0.8320312 1.6523438,-1.5703125 0,-0.8671875 -0.9140625,-1.6875 -2.203125,-1.6875 H 0.362875 v 0.3164063 H 0.59725 c 0.7617188,0 0.7851563,0.1054687 0.7851563,0.46875 v 5.24999999 c 0,0.3515625 -0.023437,0.46875 -0.7851563,0.46875 H 0.362875 V 4.921875e-4 h 3.9023438 c 1.3242187,0 2.2148437,-0.8906249975 2.2148437,-1.8281249875 z M 5.2495938,-5.1206016 c 0,0.6328125 -0.4921875,1.4765625 -1.59375,1.4765625 H 2.2144375 v -2.4492187 c 0,-0.328125 0.011719,-0.3984375 0.4804688,-0.3984375 h 1.2421875 c 0.9609375,0 1.3125,0.84375 1.3125,1.3710937 z m 0.234375,3.2929688 c 0,0.703125 -0.515625,1.52343749 -1.5351563,1.52343749 H 2.6949063 c -0.46875,0 -0.4804688,-0.0703125 -0.4804688,-0.3984375 V -3.4213828 h 1.875 c 0.984375,0 1.3945313,0.9257812 1.3945313,1.59375 z m 0,0"
       style="fill:#000000;fill-opacity:1;fill-rule:nonzero;stroke:none"
       aria-label="B"
       transform="matrix(1.3333333,0,0,1.3333333,29.578667,164.972)" />
    <path
       id="path9"
       d="M 85.04044,56.69363 68.03218,68.03218 V 79.37073 L 85.04044,68.03218 Z m 0,0 17.00826,11.33855 V 79.37073 L 85.04044,68.03218 Z"
       style="fill:none;stroke:#000000;stroke-width:0.3985;stroke-linecap:butt;stroke-linejoin:miter;stroke-miterlimit:10;stroke-dasharray:none;stroke-opacity:1"
       transform="matrix(1.3333333,0,0,-1.3333333,34.281333,209.56933)" />
    <path
       id="path10"
       d="M 102.0487,79.37073 85.04044,90.71016 68.03218,79.37073"
       style="fill:none;stroke:#000000;stroke-width:0.3985;stroke-linecap:butt;stroke-linejoin:miter;stroke-miterlimit:10;stroke-dasharray:none;stroke-opacity:1"
       transform="matrix(1.3333333,0,0,-1.3333333,34.281333,209.56933)" />
    <g
       id="g10"
       aria-label="交换机1"
       transform="matrix(1.3333333,0,0,1.3333333,122.21067,156.94)">
      <path
         id="path11"
         d="m 8.9181719,-6.4559766 -0.515625,0.65625 h -6.1875 l -1.73437503,-0.023437 0.59765623,0.5507813 c 0.2695313,-0.1054688 0.515625,-0.1875 0.75,-0.2109375 0.2226563,-0.035156 0.5273438,-0.058594 0.9375,-0.082031 l 6.84375,-0.011719 c 0.023437,0 0.035156,-0.023437 0.046875,-0.046875 0.011719,-0.035156 -0.058594,-0.1171875 -0.1992187,-0.2578125 z m -8.36718753,7.7695313 0.046875,0.140625 C 1.6994219,1.2666797 2.5431719,1.0440234 3.1056719,0.79792969 c 0.5625,-0.234375 0.984375,-0.45703125 1.3007812,-0.66796875 0.2929688,-0.2109375 0.5742188,-0.41015625 0.8203125,-0.59765625 l 0.4570313,0.38671875 c 0.1289062,0.1171875 0.3515625,0.28125 0.6679687,0.48046875 C 6.6681719,0.59871094 6.9494219,0.76277344 7.2072344,0.90339844 7.4767656,1.0440234 7.8986406,1.2315234 8.5080156,1.4424609 L 8.6486406,1.1729297 C 8.6955156,1.0674609 8.9884844,0.97371094 9.4923906,0.91511719 L 9.4806719,0.76277344 C 9.0119219,0.70417969 8.6017656,0.64558594 8.2384844,0.56355469 7.8752031,0.49324219 7.4650469,0.32917969 6.9962969,0.10652344 6.5275469,-0.13957031 6.2111406,-0.31535156 6.0587969,-0.42082031 5.8947344,-0.53800781 5.7423906,-0.64347656 5.5783281,-0.77238281 5.9181719,-1.2059766 6.1525469,-1.5341016 6.2931719,-1.7333203 6.4337969,-1.9559766 6.7267656,-2.4598828 7.1603594,-3.2684766 l 0.28125,-0.070312 c 0.046875,-0.011719 0.082031,-0.035156 0.070312,-0.070312 0,-0.035156 -0.023437,-0.082031 -0.058594,-0.1054687 l -0.761718,-0.5273448 -0.1523438,0.4453125 c -0.046875,0.140625 -0.140625,0.3632813 -0.28125,0.6679688 -0.1289062,0.3046875 -0.28125,0.5859375 -0.4453125,0.8554687 -0.1640625,0.28125 -0.375,0.5859375 -0.6445312,0.9140625 -0.4101563,-0.421875 -0.6679688,-0.7148437 -0.8085938,-0.8671875 -0.1171875,-0.1640625 -0.28125,-0.3867187 -0.46875,-0.6796875 -0.1992187,-0.28125 -0.3398437,-0.5390625 -0.421875,-0.7382812 -0.09375,-0.2226563 -0.1757812,-0.4101563 -0.2460937,-0.5859375 0.2109375,-0.234375 0.4101562,-0.4453125 0.609375,-0.65625 l 0.2460937,-0.023437 c 0.070312,-0.011719 0.1054688,-0.023437 0.1289063,-0.035156 0.011719,-0.011719 -0.035156,-0.070312 -0.140625,-0.140625 l -0.65625,-0.4570312 -0.1289063,0.2695312 c -0.09375,0.1875 -0.28125,0.4804688 -0.5859375,0.890625 C 2.3791094,-3.772382 1.8166094,-3.163007 0.98457812,-2.366132 l 0.11718748,0.140625 0.75,-0.5742188 c 0.1757813,-0.1289062 0.5625,-0.4570312 1.171875,-1.0078125 l 0.1992188,0.515625 c 0.070312,0.1757813 0.234375,0.46875 0.46875,0.9023438 0.2460937,0.421875 0.4570312,0.7382812 0.6210937,0.9375 0.1757813,0.2226562 0.3632813,0.421875 0.5507813,0.62109374 -0.3867188,0.33984375 -0.7148438,0.59765625 -0.984375,0.78515625 C 3.6095781,0.12996094 3.2228594,0.35261719 2.7423906,0.59871094 2.2502031,0.84480469 1.5119219,1.0908984 0.55098437,1.3135547 Z m 3.67968753,-8.765625 0.1875,0.2578125 c 0.070312,0.082031 0.1523437,0.234375 0.2460937,0.4453125 0.082031,0.2109375 0.140625,0.375 0.1523438,0.515625 0,0.1171875 0.035156,0.2109375 0.070312,0.2578125 0.023437,0.035156 0.070312,0.058594 0.140625,0.070312 0.070312,0.011719 0.1289062,-0.023437 0.1875,-0.09375 0.070312,-0.058594 0.1171875,-0.140625 0.1523437,-0.2460938 0.046875,-0.140625 0.070312,-0.2460937 0.046875,-0.3164062 -0.023437,-0.070312 -0.070312,-0.1523438 -0.1523437,-0.234375 -0.082031,-0.082031 -0.234375,-0.2109375 -0.4453125,-0.3632813 -0.2109375,-0.1640625 -0.3867188,-0.28125 -0.4921875,-0.375 z m 1.7695312,2.3671875 c 0.5390625,0.3984375 0.9140625,0.6914062 1.1132813,0.8789062 0.1992187,0.1875 0.3632812,0.3867188 0.4921875,0.5507813 0.140625,0.1640625 0.2578125,0.3164062 0.328125,0.4453125 0.082031,0.1289062 0.140625,0.1992187 0.140625,0.2109375 0.1171875,0.1523437 0.1992187,0.1992187 0.2695312,0.1289062 0.070312,-0.070312 0.1289063,-0.1523437 0.1289063,-0.28125 0.011719,-0.1171875 0.023437,-0.1992187 0.011719,-0.28125 -0.011719,-0.082031 -0.046875,-0.1875 -0.140625,-0.328125 -0.09375,-0.140625 -0.234375,-0.28125 -0.4335937,-0.421875 C 7.6994219,-4.3114453 7.4298906,-4.4872266 7.0900469,-4.6864453 6.7384844,-4.8739453 6.4103594,-5.0497266 6.0705156,-5.2137891 Z m 5.9765629,2.0859375 c -0.691407,0.3046875 -1.277344,0.5273437 -1.769532,0.6679687 l 0.46875,0.6796875 c 0.339844,-0.3046875 0.773438,-0.5742187 1.300782,-0.84375 v 2.85937504 c 0,0.140625 -0.02344,0.2109375 -0.08203,0.2578125 -0.03516,0.046875 -0.210937,0.046875 -0.480468,0 l -0.738282,-0.10546875 -0.01172,0.12890625 c 0.421875,0.140625 0.667968,0.2578125 0.75,0.328125 0.07031,0.0820313 0.117187,0.16406246 0.140625,0.24609376 0.01172,0.082031 0.01172,0.1875 -0.01172,0.3164062 0.316406,-0.09375 0.515625,-0.1640625 0.632812,-0.234375 0.09375,-0.070312 0.1875,-0.1640625 0.257813,-0.2695312 0.05859,-0.11718751 0.08203,-0.24609376 0.08203,-0.37500001 V -2.8700391 l 1.066406,-0.609375 -0.07031,-0.1171875 -0.996094,0.3984375 v -1.9921875 l 1.394531,-0.011719 c 0.02344,0 0.05859,-0.011719 0.07031,-0.035156 0,-0.035156 -0.02344,-0.082031 -0.09375,-0.1640625 l -0.492188,-0.5390625 -0.480468,0.5507813 h -0.398438 v -1.5117188 l 0.257813,-0.1640625 c 0.07031,-0.046875 0.09375,-0.082031 0.09375,-0.1054687 -0.01172,-0.035156 -0.02344,-0.058594 -0.08203,-0.082031 l -0.867187,-0.3515625 0.05859,1.2304688 v 0.984375 h -0.621094 l -1.03125,-0.023437 0.363281,0.3515625 0.1875,-0.082031 c 0.03516,0 0.246094,-0.023437 0.632813,-0.058594 h 0.46875 z m 0.878906,1.2070312 0.410156,0.4335938 c 0.28125,-0.1171875 0.632813,-0.1757813 1.054688,-0.1757813 h 1.195312 l -0.07031,0.3398438 c -0.01172,0.035156 -0.04687,0.1054687 -0.105469,0.25781249 -0.05859,0.140625 -0.117188,0.2578125 -0.164063,0.36328125 -0.05859,0.10546875 -0.164062,0.26953125 -0.351562,0.4921875 -0.1875,0.234375 -0.445313,0.45703125 -0.761719,0.703125 -0.316406,0.24609375 -0.867187,0.51562496 -1.628906,0.82031246 l 0.04687,0.1640625 c 1.007812,-0.3046875 1.757812,-0.64453121 2.238281,-1.00781246 0.492188,-0.36328125 0.820313,-0.7265625 0.984375,-1.1015625 0.140625,-0.36328125 0.269531,-0.70312504 0.375,-1.03125004 h 0.175781 l 0.117188,0.328125 c 0.03516,0.1640625 0.105469,0.36328129 0.222656,0.58593754 0.105469,0.24609375 0.234375,0.45703125 0.363281,0.6796875 0.140625,0.19921875 0.328125,0.421875 0.550782,0.64453125 0.234375,0.234375 0.410156,0.38671871 0.539062,0.46875001 0.128906,0.082031 0.292969,0.1757812 0.492188,0.2695312 L 18.65645,1.2315234 c 0.07031,-0.140625 0.328125,-0.24609371 0.773438,-0.30468746 v -0.1171875 c -0.609375,-0.09375 -1.125,-0.26953125 -1.523438,-0.52734375 -0.386719,-0.28125 -0.644531,-0.4921875 -0.75,-0.65625 -0.117187,-0.17578125 -0.222656,-0.328125 -0.316406,-0.48046875 -0.08203,-0.15234374 -0.152344,-0.25781254 -0.1875,-0.33984374 -0.02344,-0.058594 -0.08203,-0.1757813 -0.140625,-0.3398438 h 2.917969 c 0.05859,0 0.09375,-0.011719 0.117187,-0.035156 0.01172,-0.035156 0,-0.058594 -0.04687,-0.1171875 l -0.65625,-0.6210938 -0.433594,0.5390625 h -0.128906 v -2.25 l 0.28125,-0.234375 c 0.03516,-0.035156 0.05859,-0.058594 0.07031,-0.070312 0,-0.011719 -0.05859,-0.058594 -0.164063,-0.1523437 l -0.527344,-0.4101563 -0.304687,0.4335938 h -1.464844 l 1.160156,-1.40625 0.445313,-0.1289063 c 0.04687,-0.011719 0.07031,-0.023437 0.08203,-0.058594 0.01172,-0.035156 0,-0.070312 -0.04687,-0.1054688 l -0.691406,-0.5507812 -0.328125,0.421875 h -1.382813 c 0.1875,-0.2695313 0.363282,-0.515625 0.539063,-0.7265625 l 0.164062,-0.070312 c 0.08203,-0.023437 0.128907,-0.058594 0.128907,-0.09375 0.01172,-0.035156 0,-0.058594 -0.04687,-0.09375 l -0.820313,-0.4335938 -0.07031,0.2226563 c -0.02344,0.140625 -0.105469,0.3398437 -0.234375,0.6210937 -0.128907,0.3046875 -0.316407,0.6445313 -0.585938,1.0546875 -0.269531,0.3984375 -0.480469,0.7148438 -0.644531,0.9375 -0.175781,0.2109375 -0.398438,0.5039063 -0.703125,0.8554688 l 0.117187,0.1054687 0.679688,-0.6679687 v 2.8007812 h -0.28125 z m 1.195312,-2.8945312 0.46875,-0.515625 c 0.105469,-0.1054688 0.339844,-0.4101563 0.726563,-0.8789063 h 1.570312 c -0.292968,0.5390625 -0.609375,1.078125 -0.960937,1.6289063 h -1.347656 z m 0.433594,2.9179687 v -2.4609375 h 1.265625 l -0.03516,0.7734375 c -0.01172,0.1054688 -0.01172,0.3046875 -0.03516,0.5859375 -0.01172,0.2929688 -0.03516,0.5039063 -0.03516,0.6210938 -0.01172,0.1054687 -0.04687,0.2695312 -0.07031,0.4804687 z m 1.652344,0 0.03516,-0.28125 c 0,-0.046875 0.02344,-0.2695312 0.04687,-0.6914062 0.03516,-0.4101563 0.04687,-0.6796875 0.05859,-0.7617188 0.01172,-0.1054687 0.02344,-0.3398437 0.02344,-0.7265625 h 1.441407 v 2.4609375 z m 4.092773,0.7148438 0.117188,0.0820312 c 0.433594,-0.5625 0.761719,-1.03125 0.996094,-1.4179687 0.210937,-0.3867188 0.421875,-0.7734375 0.632812,-1.171875 v 3.11718745 l -0.07031,1.69921875 c 0.1875,-0.09375 0.316406,-0.140625 0.375,-0.1523437 0.03516,-0.023437 0.140625,-0.082031 0.269531,-0.1992188 L 22.51485,-0.32707035 V -3.6317578 c 0.386718,0.3164062 0.65625,0.5976562 0.808593,0.8320312 0.152344,0.2460938 0.246094,0.375 0.28125,0.421875 0.02344,0.035156 0.07031,0.058594 0.117188,0.058594 0.09375,0.011719 0.164062,-0.046875 0.1875,-0.1757813 0.03516,-0.1289062 0.04687,-0.2578125 0.04687,-0.3632812 0,-0.1289063 -0.01172,-0.234375 -0.05859,-0.3046875 -0.03516,-0.070312 -0.164062,-0.1640625 -0.363281,-0.2578125 -0.222656,-0.09375 -0.550781,-0.2226563 -1.019531,-0.375 v -1.265625 h 1.734375 c 0.07031,0 0.09375,-0.023437 0.09375,-0.058594 0.01172,-0.035156 0,-0.082031 -0.03516,-0.1054687 l -0.703125,-0.6796875 -0.46875,0.6210937 h -0.621093 l 0.01172,-1.5703125 0.234375,-0.140625 c 0.09375,-0.046875 0.128907,-0.082031 0.128907,-0.1171875 0.01172,-0.023437 -0.03516,-0.046875 -0.140625,-0.09375 l -0.808594,-0.3984375 0.03516,1.4765625 v 0.84375 h -0.726562 l -1.007813,-0.023437 0.410156,0.3867188 c 0.269532,-0.070312 0.621094,-0.1171875 1.03125,-0.140625 h 0.128907 l -0.02344,0.2460937 c -0.03516,0.2695313 -0.164062,0.703125 -0.386719,1.3242188 -0.234375,0.6328125 -0.445312,1.125 -0.621093,1.4648437 -0.199219,0.3515625 -0.375,0.6679688 -0.550782,0.9726563 z m 4.523438,-6.1875 0.04687,0.6679687 c 0.01172,0.328125 0.01172,0.8789063 0.02344,1.6289063 0.01172,0.7617187 -0.01172,1.453125 -0.05859,2.109375 -0.04687,0.6445312 -0.105469,1.125 -0.175782,1.4414062 -0.07031,0.328125 -0.1875,0.63281254 -0.363281,0.93750004 -0.152344,0.3046875 -0.351562,0.59765625 -0.597656,0.85546875 -0.246094,0.28125 -0.644531,0.5859375 -1.195313,0.94921871 l 0.07031,0.1171875 c 0.644531,-0.3398437 1.113281,-0.63281246 1.40625,-0.90234371 0.28125,-0.2578125 0.539062,-0.55078125 0.761719,-0.87890625 0.199218,-0.33984375 0.351562,-0.6796875 0.457031,-1.00781254 0.08203,-0.328125 0.140625,-0.65625 0.175781,-0.9726562 0.02344,-0.3164063 0.04687,-0.6914063 0.05859,-1.1132813 0.02344,-0.4335937 0.04687,-0.8085937 0.04687,-1.171875 0.01172,-0.3398437 0.01172,-0.9609375 0.02344,-1.8515625 h 1.570313 v 6.62109379 c 0,0.26953125 0.03516,0.4453125 0.07031,0.55078125 0.05859,0.09375 0.128907,0.1640625 0.234375,0.22265625 0.09375,0.0585937 0.246094,0.09375 0.445313,0.10546871 0.234375,0.023437 0.457031,0.023437 0.714844,0 0.246093,-0.023437 0.445312,-0.046875 0.5625,-0.09375 0.128906,-0.0234375 0.234375,-0.0820313 0.316406,-0.17578125 0.09375,-0.0820313 0.175781,-0.17578125 0.257812,-0.3046875 -0.1875,-0.15234375 -0.304687,-0.26953125 -0.339843,-0.375 -0.03516,-0.10546875 -0.07031,-0.24609375 -0.07031,-0.43359375 -0.02344,-0.1875 -0.02344,-0.515625 -0.01172,-0.9726562 h -0.175781 l -0.09375,0.84374995 -0.05859,0.48046875 c -0.01172,0.12890625 -0.04687,0.234375 -0.08203,0.29296875 -0.03516,0.0585938 -0.08203,0.10546875 -0.128906,0.12890625 -0.04687,0.0351563 -0.222656,0.046875 -0.492188,0.0703125 -0.246093,0.0117188 -0.398437,-0.0234375 -0.457031,-0.09375 -0.05859,-0.0703125 -0.09375,-0.19921875 -0.09375,-0.3984375 v -6.2109375 l 0.351563,-0.2929687 0.09375,-0.082031 c 0.01172,-0.011719 -0.03516,-0.046875 -0.117188,-0.1171875 l -0.65625,-0.4804687 -0.351562,0.4804687 -1.3125,-0.011719 z m 0,0"
         style="fill:#000000;fill-opacity:1;fill-rule:nonzero;stroke:none" />
      <path
         id="path12"
         d="m 37.377156,0.00105469 v -0.3046875 H 37.06075 c -0.902344,0 -0.925781,-0.1171875 -0.925781,-0.48046875 V -6.3739453 c 0,-0.234375 0,-0.2578125 -0.234375,-0.2578125 -0.609375,0.6328125 -1.488282,0.6328125 -1.804688,0.6328125 v 0.3164062 c 0.199219,0 0.785156,0 1.300781,-0.2578125 v 5.15625004 c 0,0.3515625 -0.03516,0.48046875 -0.925781,0.48046875 H 34.1545 v 0.3046875 c 0.351562,-0.03515625 1.207031,-0.03515625 1.605469,-0.03515625 0.398437,0 1.265625,0 1.617187,0.03515625 z m 0,0"
         style="fill:#000000;fill-opacity:1;fill-rule:nonzero;stroke:none" />
    </g>
    <path
       id="path13"
       d="m 255.12134,56.69363 -17.00826,11.33855 v 11.33855 l 17.00826,-11.33855 z m 0,0 17.00827,11.33855 V 79.37073 L 255.12134,68.03218 Z"
       style="fill:none;stroke:#000000;stroke-width:0.3985;stroke-linecap:butt;stroke-linejoin:miter;stroke-miterlimit:10;stroke-dasharray:none;stroke-opacity:1"
       transform="matrix(1.3333333,0,0,-1.3333333,34.281333,209.56933)" />
    <path
       id="path14"
       d="M 272.12961,79.37073 255.12134,90.71016 238.11308,79.37073"
       style="fill:none;stroke:#000000;stroke-width:0.3985;stroke-linecap:butt;stroke-linejoin:miter;stroke-miterlimit:10;stroke-dasharray:none;stroke-opacity:1"
       transform="matrix(1.3333333,0,0,-1.3333333,34.281333,209.56933)" />
    <g
       id="g14"
       aria-label="交换机2"
       transform="matrix(1.3333333,0,0,1.3333333,348.98533,156.94)">
      <path
         id="path15"
         d="m 8.91725,-6.4559766 -0.515625,0.65625 h -6.1875 l -1.734375,-0.023437 0.5976562,0.5507813 c 0.2695313,-0.1054688 0.515625,-0.1875 0.75,-0.2109375 0.2226563,-0.035156 0.5273438,-0.058594 0.9375,-0.082031 l 6.84375,-0.011719 c 0.023437,0 0.035156,-0.023437 0.046875,-0.046875 0.011719,-0.035156 -0.058594,-0.1171875 -0.1992187,-0.2578125 z m -8.3671875,7.7695313 0.046875,0.140625 C 1.6985,1.2666797 2.54225,1.0440234 3.10475,0.79792969 3.66725,0.56355469 4.089125,0.34089844 4.4055312,0.12996094 4.6985,-0.08097656 4.97975,-0.28019531 5.2258437,-0.46769531 l 0.4570313,0.38671875 c 0.1289062,0.1171875 0.3515625,0.28125 0.6679687,0.48046875 C 6.66725,0.59871094 6.9485,0.76277344 7.2063125,0.90339844 7.4758437,1.0440234 7.8977187,1.2315234 8.5070937,1.4424609 L 8.6477187,1.1729297 C 8.6945937,1.0674609 8.9875625,0.97371094 9.4914687,0.91511719 L 9.47975,0.76277344 C 9.011,0.70417969 8.6008437,0.64558594 8.2375625,0.56355469 7.8742812,0.49324219 7.464125,0.32917969 6.995375,0.10652344 6.526625,-0.13957031 6.2102187,-0.31535156 6.057875,-0.42082031 5.8938125,-0.53800781 5.7414687,-0.64347656 5.5774062,-0.77238281 5.91725,-1.2059766 6.151625,-1.5341016 6.29225,-1.7333203 6.432875,-1.9559766 6.7258437,-2.4598828 7.1594375,-3.2684766 l 0.28125,-0.070312 c 0.046875,-0.011719 0.082031,-0.035156 0.070312,-0.070312 0,-0.035156 -0.023437,-0.082031 -0.058594,-0.1054687 l -0.761718,-0.5273448 -0.1523438,0.4453125 c -0.046875,0.140625 -0.140625,0.3632813 -0.28125,0.6679688 -0.1289062,0.3046875 -0.28125,0.5859375 -0.4453125,0.8554687 -0.1640625,0.28125 -0.375,0.5859375 -0.6445312,0.9140625 -0.4101563,-0.421875 -0.6679688,-0.7148437 -0.8085938,-0.8671875 -0.1171875,-0.1640625 -0.28125,-0.3867187 -0.46875,-0.6796875 -0.1992187,-0.28125 -0.3398437,-0.5390625 -0.421875,-0.7382812 -0.09375,-0.2226563 -0.1757812,-0.4101563 -0.2460937,-0.5859375 0.2109375,-0.234375 0.4101562,-0.4453125 0.609375,-0.65625 l 0.2460937,-0.023437 c 0.070312,-0.011719 0.1054688,-0.023437 0.1289063,-0.035156 0.011719,-0.011719 -0.035156,-0.070312 -0.140625,-0.140625 l -0.65625,-0.4570312 -0.1289063,0.2695312 c -0.09375,0.1875 -0.28125,0.4804688 -0.5859375,0.890625 C 2.3781875,-3.772382 1.8156875,-3.163007 0.98365625,-2.366132 l 0.11718745,0.140625 0.75,-0.5742188 c 0.1757813,-0.1289062 0.5625,-0.4570312 1.171875,-1.0078125 l 0.1992188,0.515625 c 0.070312,0.1757813 0.234375,0.46875 0.46875,0.9023438 0.2460937,0.421875 0.4570312,0.7382812 0.6210937,0.9375 0.1757813,0.2226562 0.3632813,0.421875 0.5507813,0.62109374 -0.3867188,0.33984375 -0.7148438,0.59765625 -0.984375,0.78515625 C 3.6086562,0.12996094 3.2219375,0.35261719 2.7414687,0.59871094 2.2492812,0.84480469 1.511,1.0908984 0.5500625,1.3135547 Z m 3.6796875,-8.765625 0.1875,0.2578125 c 0.070312,0.082031 0.1523437,0.234375 0.2460937,0.4453125 0.082031,0.2109375 0.140625,0.375 0.1523438,0.515625 0,0.1171875 0.035156,0.2109375 0.070312,0.2578125 0.023437,0.035156 0.070312,0.058594 0.140625,0.070312 0.070312,0.011719 0.1289062,-0.023437 0.1875,-0.09375 0.070312,-0.058594 0.1171875,-0.140625 0.1523437,-0.2460938 0.046875,-0.140625 0.070312,-0.2460937 0.046875,-0.3164062 C 5.3899062,-6.6317578 5.3430312,-6.7137891 5.261,-6.7958203 5.1789687,-6.8778516 5.026625,-7.0067578 4.8156875,-7.1591016 4.60475,-7.3231641 4.4289687,-7.4403516 4.3235,-7.5341016 Z m 1.7695312,2.3671875 c 0.5390625,0.3984375 0.9140625,0.6914062 1.1132813,0.8789062 0.1992187,0.1875 0.3632812,0.3867188 0.4921875,0.5507813 0.140625,0.1640625 0.2578125,0.3164062 0.328125,0.4453125 0.082031,0.1289062 0.140625,0.1992187 0.140625,0.2109375 0.1171875,0.1523437 0.1992187,0.1992187 0.2695312,0.1289062 0.070312,-0.070312 0.1289063,-0.1523437 0.1289063,-0.28125 0.011719,-0.1171875 0.023437,-0.1992187 0.011719,-0.28125 -0.011719,-0.082031 -0.046875,-0.1875 -0.140625,-0.328125 -0.09375,-0.140625 -0.234375,-0.28125 -0.4335937,-0.421875 C 7.6985,-4.3114453 7.4289687,-4.4872266 7.089125,-4.6864453 6.7375625,-4.8739453 6.4094375,-5.0497266 6.0695937,-5.2137891 Z m 5.9794918,2.0859375 c -0.691406,0.3046875 -1.277343,0.5273437 -1.769531,0.6679687 l 0.46875,0.6796875 c 0.339844,-0.3046875 0.773438,-0.5742187 1.300781,-0.84375 v 2.85937504 c 0,0.140625 -0.02344,0.2109375 -0.08203,0.2578125 -0.03516,0.046875 -0.210937,0.046875 -0.480469,0 l -0.738281,-0.10546875 -0.01172,0.12890625 c 0.421875,0.140625 0.667969,0.2578125 0.75,0.328125 0.07031,0.0820313 0.117188,0.16406246 0.140625,0.24609376 0.01172,0.082031 0.01172,0.1875 -0.01172,0.3164062 0.316406,-0.09375 0.515625,-0.1640625 0.632812,-0.234375 0.09375,-0.070312 0.1875,-0.1640625 0.257813,-0.2695312 0.05859,-0.11718751 0.08203,-0.24609376 0.08203,-0.37500001 V -2.8700391 l 1.066406,-0.609375 -0.07031,-0.1171875 -0.996094,0.3984375 v -1.9921875 l 1.394531,-0.011719 c 0.02344,0 0.05859,-0.011719 0.07031,-0.035156 0,-0.035156 -0.02344,-0.082031 -0.09375,-0.1640625 l -0.492188,-0.5390625 -0.480469,0.5507813 h -0.398437 v -1.5117188 l 0.257812,-0.1640625 c 0.07031,-0.046875 0.09375,-0.082031 0.09375,-0.1054687 -0.01172,-0.035156 -0.02344,-0.058594 -0.08203,-0.082031 l -0.867187,-0.3515625 0.05859,1.2304688 V -5.38957 H 11.35768 l -1.03125,-0.023437 0.363281,0.3515625 0.1875,-0.082031 c 0.03516,0 0.246094,-0.023437 0.632812,-0.058594 h 0.46875 z m 0.878907,1.2070312 0.410156,0.4335938 c 0.28125,-0.1171875 0.632812,-0.1757813 1.054687,-0.1757813 h 1.195313 l -0.07031,0.3398438 c -0.01172,0.035156 -0.04687,0.1054687 -0.105468,0.25781249 -0.05859,0.140625 -0.117188,0.2578125 -0.164063,0.36328125 -0.05859,0.10546875 -0.164062,0.26953125 -0.351562,0.4921875 -0.1875,0.234375 -0.445313,0.45703125 -0.761719,0.703125 -0.316406,0.24609375 -0.867188,0.51562496 -1.628906,0.82031246 l 0.04687,0.1640625 c 1.007812,-0.3046875 1.757812,-0.64453121 2.238281,-1.00781246 0.492187,-0.36328125 0.820312,-0.7265625 0.984375,-1.1015625 0.140625,-0.36328125 0.269531,-0.70312504 0.375,-1.03125004 h 0.175781 l 0.117188,0.328125 c 0.03516,0.1640625 0.105468,0.36328129 0.222656,0.58593754 0.105469,0.24609375 0.234375,0.45703125 0.363281,0.6796875 0.140625,0.19921875 0.328125,0.421875 0.550781,0.64453125 0.234375,0.234375 0.410157,0.38671871 0.539063,0.46875001 0.128906,0.082031 0.292969,0.1757812 0.492187,0.2695312 l 0.117188,-0.2109375 c 0.07031,-0.140625 0.328125,-0.24609371 0.773437,-0.30468746 v -0.1171875 c -0.609375,-0.09375 -1.125,-0.26953125 -1.523437,-0.52734375 -0.386719,-0.28125 -0.644531,-0.4921875 -0.75,-0.65625 -0.117188,-0.17578125 -0.222656,-0.328125 -0.316406,-0.48046875 -0.08203,-0.15234374 -0.152344,-0.25781254 -0.1875,-0.33984374 -0.02344,-0.058594 -0.08203,-0.1757813 -0.140625,-0.3398438 h 2.917968 c 0.05859,0 0.09375,-0.011719 0.117188,-0.035156 0.01172,-0.035156 0,-0.058594 -0.04687,-0.1171875 l -0.65625,-0.6210938 -0.433594,0.5390625 h -0.128906 v -2.25 l 0.28125,-0.234375 c 0.03516,-0.035156 0.05859,-0.058594 0.07031,-0.070312 0,-0.011719 -0.05859,-0.058594 -0.164062,-0.1523437 l -0.527344,-0.4101563 -0.304687,0.4335938 h -1.464844 l 1.160156,-1.40625 0.445313,-0.1289063 c 0.04687,-0.011719 0.07031,-0.023437 0.08203,-0.058594 0.01172,-0.035156 0,-0.070312 -0.04687,-0.1054688 l -0.691406,-0.5507812 -0.328125,0.421875 h -1.382813 c 0.1875,-0.2695313 0.363281,-0.515625 0.539063,-0.7265625 l 0.164062,-0.070312 c 0.08203,-0.023437 0.128906,-0.058594 0.128906,-0.09375 0.01172,-0.035156 0,-0.058594 -0.04687,-0.09375 l -0.820312,-0.4335938 -0.07031,0.2226563 c -0.02344,0.140625 -0.105468,0.3398437 -0.234375,0.6210937 -0.128906,0.3046875 -0.316406,0.6445313 -0.585937,1.0546875 -0.269531,0.3984375 -0.480469,0.7148438 -0.644531,0.9375 -0.175782,0.2109375 -0.398438,0.5039063 -0.703125,0.8554688 l 0.117187,0.1054687 0.679688,-0.6679687 v 2.8007812 h -0.28125 z m 1.195312,-2.8945312 0.46875,-0.515625 c 0.105469,-0.1054688 0.339844,-0.4101563 0.726563,-0.8789063 h 1.570312 c -0.292969,0.5390625 -0.609375,1.078125 -0.960937,1.6289063 h -1.347657 z m 0.433594,2.9179687 v -2.4609375 h 1.265625 l -0.03516,0.7734375 c -0.01172,0.1054688 -0.01172,0.3046875 -0.03516,0.5859375 -0.01172,0.2929688 -0.03516,0.5039063 -0.03516,0.6210938 -0.01172,0.1054687 -0.04687,0.2695312 -0.07031,0.4804687 z m 1.652344,0 0.03516,-0.28125 c 0,-0.046875 0.02344,-0.2695312 0.04687,-0.6914062 0.03516,-0.4101563 0.04687,-0.6796875 0.05859,-0.7617188 0.01172,-0.1054687 0.02344,-0.3398437 0.02344,-0.7265625 h 1.441406 v 2.4609375 z m 4.089843,0.7148438 0.117188,0.0820312 c 0.433594,-0.5625 0.761719,-1.03125 0.996094,-1.4179687 0.210937,-0.3867188 0.421875,-0.7734375 0.632812,-1.171875 v 3.11718745 l -0.07031,1.69921875 c 0.1875,-0.09375 0.316406,-0.140625 0.375,-0.1523437 0.03516,-0.023437 0.140625,-0.082031 0.269531,-0.1992188 L 22.51393,-0.32707031 V -3.6317578 c 0.386718,0.3164062 0.65625,0.5976562 0.808593,0.8320312 0.152344,0.2460938 0.246094,0.375 0.28125,0.421875 0.02344,0.035156 0.07031,0.058594 0.117188,0.058594 0.09375,0.011719 0.164062,-0.046875 0.1875,-0.1757813 0.03516,-0.1289062 0.04687,-0.2578125 0.04687,-0.3632812 0,-0.1289063 -0.01172,-0.234375 -0.05859,-0.3046875 -0.03516,-0.070312 -0.164062,-0.1640625 -0.363281,-0.2578125 -0.222656,-0.09375 -0.550781,-0.2226563 -1.019531,-0.375 v -1.265625 h 1.734375 c 0.07031,0 0.09375,-0.023437 0.09375,-0.058594 0.01172,-0.035156 0,-0.082031 -0.03516,-0.1054687 l -0.703125,-0.6796875 -0.46875,0.6210937 H 22.51393 l 0.01172,-1.5703125 0.234375,-0.140625 c 0.09375,-0.046875 0.128907,-0.082031 0.128907,-0.1171875 0.01172,-0.023437 -0.03516,-0.046875 -0.140625,-0.09375 l -0.808594,-0.3984375 0.03516,1.4765625 v 0.84375 h -0.726562 l -1.007813,-0.023437 0.410156,0.3867188 c 0.269532,-0.070312 0.621094,-0.1171875 1.03125,-0.140625 h 0.128907 l -0.02344,0.2460937 c -0.03516,0.2695313 -0.164062,0.703125 -0.386719,1.3242188 -0.234375,0.6328125 -0.445312,1.125 -0.621093,1.4648437 -0.199219,0.3515625 -0.375,0.6679688 -0.550782,0.9726563 z m 4.523438,-6.1875 0.04687,0.6679687 c 0.01172,0.328125 0.01172,0.8789063 0.02344,1.6289063 0.01172,0.7617187 -0.01172,1.453125 -0.05859,2.109375 -0.04687,0.6445312 -0.105469,1.125 -0.175782,1.4414062 -0.07031,0.328125 -0.1875,0.63281254 -0.363281,0.93750004 -0.152344,0.3046875 -0.351562,0.59765625 -0.597656,0.85546875 -0.246094,0.28125 -0.644531,0.5859375 -1.195313,0.94921871 l 0.07031,0.1171875 c 0.644531,-0.3398437 1.113281,-0.63281246 1.40625,-0.90234371 0.28125,-0.2578125 0.539062,-0.55078125 0.761719,-0.87890625 0.199218,-0.33984375 0.351562,-0.6796875 0.457031,-1.00781254 0.08203,-0.328125 0.140625,-0.65625 0.175781,-0.9726562 0.02344,-0.3164063 0.04687,-0.6914063 0.05859,-1.1132813 0.02344,-0.4335937 0.04687,-0.8085937 0.04687,-1.171875 0.01172,-0.3398437 0.01172,-0.9609375 0.02344,-1.8515625 h 1.570313 v 6.62109379 c 0,0.26953125 0.03516,0.4453125 0.07031,0.55078125 0.05859,0.09375 0.128907,0.1640625 0.234375,0.22265625 0.09375,0.0585937 0.246094,0.09375 0.445313,0.10546871 0.234375,0.023437 0.457031,0.023437 0.714844,0 0.246093,-0.023437 0.445312,-0.046875 0.5625,-0.09375 0.128906,-0.0234375 0.234375,-0.0820313 0.316406,-0.17578125 0.09375,-0.0820313 0.175781,-0.17578125 0.257812,-0.3046875 -0.1875,-0.15234375 -0.304687,-0.26953125 -0.339843,-0.375 -0.03516,-0.10546875 -0.07031,-0.24609375 -0.07031,-0.43359375 -0.02344,-0.1875 -0.02344,-0.515625 -0.01172,-0.9726562 h -0.175781 l -0.09375,0.84374995 -0.05859,0.48046875 c -0.01172,0.12890625 -0.04687,0.234375 -0.08203,0.29296875 -0.03516,0.0585938 -0.08203,0.10546875 -0.128906,0.12890625 -0.04687,0.0351563 -0.222656,0.046875 -0.492188,0.0703125 -0.246093,0.0117188 -0.398437,-0.0234375 -0.457031,-0.09375 -0.05859,-0.0703125 -0.09375,-0.19921875 -0.09375,-0.3984375 v -6.2109375 l 0.351563,-0.2929687 0.09375,-0.082031 c 0.01172,-0.011719 -0.03516,-0.046875 -0.117188,-0.1171875 l -0.65625,-0.4804687 -0.351562,0.4804687 -1.3125,-0.011719 z m 0,0"
         style="fill:#000000;fill-opacity:1;fill-rule:nonzero;stroke:none" />
      <path
         id="path16"
         d="m 37.680922,-1.7333203 h -0.257813 c -0.04687,0.3046875 -0.117187,0.73828124 -0.210937,0.89062499 -0.07031,0.0820313 -0.726563,0.0820313 -0.949219,0.0820313 H 34.469984 L 35.524672,-1.791914 c 1.558594,-1.3710938 2.15625,-1.9101563 2.15625,-2.90625 0,-1.1367187 -0.902344,-1.9335937 -2.121094,-1.9335937 -1.125,0 -1.851562,0.9140625 -1.851562,1.8046875 0,0.5507812 0.492187,0.5507812 0.527343,0.5507812 0.164063,0 0.515625,-0.1171875 0.515625,-0.5273437 0,-0.2578125 -0.1875,-0.515625 -0.527343,-0.515625 -0.08203,0 -0.105469,0 -0.128907,0.011719 0.222657,-0.6445312 0.761719,-1.0195312 1.335938,-1.0195312 0.914062,0 1.335937,0.8085937 1.335937,1.6289062 0,0.7968749 -0.492187,1.5820312 -1.042968,2.2031249 l -1.910157,2.13281259 c -0.105468,0.10546875 -0.105468,0.12890625 -0.105468,0.36328125 h 3.691406 z m 0,0"
         style="fill:#000000;fill-opacity:1;fill-rule:nonzero;stroke:none" />
    </g>
    <path
       id="path17"
       d="m 147.40381,113.38727 v 28.3468 H 192.758 v -28.3468 z"
       style="fill:none;stroke:#000000;stroke-width:0.3985;stroke-linecap:butt;stroke-linejoin:miter;stroke-miterlimit:10;stroke-dasharray:none;stroke-opacity:1"
       transform="matrix(1.3333333,0,0,-1.3333333,34.281333,209.56933)" />
    <path
       id="path18"
       d="m 144.56894,110.55241 v 34.01651 h 51.02391 v -34.01651 z"
       style="fill:none;stroke:#000000;stroke-width:0.3985;stroke-linecap:butt;stroke-linejoin:miter;stroke-miterlimit:10;stroke-dasharray:none;stroke-opacity:1"
       transform="matrix(1.3333333,0,0,-1.3333333,34.281333,209.56933)" />
    <path
       id="path19"
       d="m 164.4112,110.55241 v -5.66971 h 11.33854 v 5.66971"
       style="fill:none;stroke:#000000;stroke-width:0.3985;stroke-linecap:butt;stroke-linejoin:miter;stroke-miterlimit:10;stroke-dasharray:none;stroke-opacity:1"
       transform="matrix(1.3333333,0,0,-1.3333333,34.281333,209.56933)" />
    <path
       id="path20"
       d="m 6.6223828,-2.3205156 c 0,-0.1054688 0,-0.1757813 -0.1289062,-0.1757813 -0.1054688,0 -0.1054688,0.070312 -0.1171875,0.1640625 -0.082031,1.42968753 -1.1484375,2.23828128 -2.2265625,2.23828128 -0.609375,0 -2.5664063,-0.33984375 -2.5664063,-3.30468748 0,-2.9765625 1.9453125,-3.3164063 2.5546875,-3.3164063 1.078125,0 1.96875,0.9023438 2.1679688,2.3671875 0.023437,0.1289063 0.023437,0.1640625 0.1640625,0.1640625 0.1523437,0 0.1523437,-0.035156 0.1523437,-0.234375 v -2.3671875 c 0,-0.1640625 0,-0.234375 -0.1054687,-0.234375 -0.035156,0 -0.082031,0 -0.1640625,0.1171875 l -0.4921875,0.7382813 c -0.375,-0.3632813 -0.8789063,-0.8554688 -1.8398438,-0.8554688 -1.8632812,0 -3.45703124,1.5820313 -3.45703124,3.609375 0,2.0625 1.60546874,3.63281253 3.45703124,3.63281253 1.6289063,0 2.6015625,-1.38281253 2.6015625,-2.54296873 z m 0,0"
       style="fill:#000000;fill-opacity:1;fill-rule:nonzero;stroke:none"
       aria-label="C"
       transform="matrix(1.3333333,0,0,1.3333333,256.26,13.789333)" />
    <path
       id="path21"
       d="M 147.40381,0 V 28.3468 H 192.758 V 0 Z"
       style="fill:none;stroke:#000000;stroke-width:0.3985;stroke-linecap:butt;stroke-linejoin:miter;stroke-miterlimit:10;stroke-dasharray:none;stroke-opacity:1"
       transform="matrix(1.3333333,0,0,-1.3333333,34.281333,209.56933)" />
    <path
       id="path22"
       d="m 144.56894,-2.83484 v 34.0165 h 51.02391 v -34.0165 z"
       style="fill:none;stroke:#000000;stroke-width:0.3985;stroke-linecap:butt;stroke-linejoin:miter;stroke-miterlimit:10;stroke-dasharray:none;stroke-opacity:1"
       transform="matrix(1.3333333,0,0,-1.3333333,34.281333,209.56933)" />
    <path
       id="path23"
       d="m 164.4112,-2.83484 v -5.66971 h 11.33854 v 5.66971"
       style="fill:none;stroke:#000000;stroke-width:0.3985;stroke-linecap:butt;stroke-linejoin:miter;stroke-miterlimit:10;stroke-dasharray:none;stroke-opacity:1"
       transform="matrix(1.3333333,0,0,-1.3333333,34.281333,209.56933)" />
    <path
       id="path24"
       d="m 7.0423203,-3.3510703 c 0,-1.8867188 -1.3476562,-3.4570313 -3.046875,-3.4570313 H 0.35091406 v 0.3164063 h 0.234375 c 0.77343754,0 0.78515624,0.1054687 0.78515624,0.46875 v 5.24999999 c 0,0.3515625 -0.011719,0.46875 -0.78515624,0.46875 h -0.234375 V 4.921875e-4 H 3.9954453 c 1.6757813,0 3.046875,-1.4765624875 3.046875,-3.3515624875 z m -0.9960937,0 c 0,1.1132812 -0.1875,1.7109375 -0.5507813,2.1914062 -0.1992187,0.26953129 -0.7617187,0.85546879 -1.7695312,0.85546879 H 2.7181016 c -0.46875,0 -0.4921875,-0.0703125 -0.4921875,-0.3984375 V -6.0932578 c 0,-0.328125 0.023437,-0.3984375 0.4921875,-0.3984375 h 0.9960937 c 0.6210938,0 1.3007813,0.2109375 1.8164063,0.9257812 0.421875,0.5859375 0.515625,1.4414063 0.515625,2.2148438 z m 0,0"
       style="fill:#000000;fill-opacity:1;fill-rule:nonzero;stroke:none"
       aria-label="D"
       transform="matrix(1.3333333,0,0,1.3333333,255.98133,164.972)" />
    <path
       id="path25"
       d="m 425.20224,56.69363 -17.00826,11.33855 v 11.33855 l 17.00826,-11.33855 z m 0,0 17.00827,11.33855 V 79.37073 L 425.20224,68.03218 Z"
       style="fill:none;stroke:#000000;stroke-width:0.3985;stroke-linecap:butt;stroke-linejoin:miter;stroke-miterlimit:10;stroke-dasharray:none;stroke-opacity:1"
       transform="matrix(1.3333333,0,0,-1.3333333,34.281333,209.56933)" />
    <path
       id="path26"
       d="M 442.21051,79.37073 425.20224,90.71016 408.19398,79.37073"
       style="fill:none;stroke:#000000;stroke-width:0.3985;stroke-linecap:butt;stroke-linejoin:miter;stroke-miterlimit:10;stroke-dasharray:none;stroke-opacity:1"
       transform="matrix(1.3333333,0,0,-1.3333333,34.281333,209.56933)" />
    <g
       id="g26"
       aria-label="交换机3"
       transform="matrix(1.3333333,0,0,1.3333333,575.76,156.94)">
      <path
         id="path27"
         d="m 8.9192578,-6.4559766 -0.515625,0.65625 h -6.1875 l -1.73437499,-0.023437 0.59765629,0.5507813 c 0.2695312,-0.1054688 0.515625,-0.1875 0.75,-0.2109375 0.2226562,-0.035156 0.5273437,-0.058594 0.9375,-0.082031 l 6.84375,-0.011719 c 0.023437,0 0.035156,-0.023437 0.046875,-0.046875 0.011719,-0.035156 -0.058594,-0.1171875 -0.1992188,-0.2578125 z m -8.36718749,7.7695313 0.046875,0.140625 C 1.7005078,1.2666797 2.5442578,1.0440234 3.1067578,0.79792969 c 0.5625,-0.234375 0.984375,-0.45703125 1.3007813,-0.66796875 0.2929687,-0.2109375 0.5742187,-0.41015625 0.8203125,-0.59765625 l 0.4570312,0.38671875 c 0.1289063,0.1171875 0.3515625,0.28125 0.6679688,0.48046875 C 6.6692578,0.59871094 6.9505078,0.76277344 7.2083203,0.90339844 7.4778516,1.0440234 7.8997266,1.2315234 8.5091016,1.4424609 L 8.6497266,1.1729297 C 8.6966016,1.0674609 8.9895703,0.97371094 9.4934766,0.91511719 L 9.4817578,0.76277344 C 9.0130078,0.70417969 8.6028516,0.64558594 8.2395703,0.56355469 7.8762891,0.49324219 7.4661328,0.32917969 6.9973828,0.10652344 6.5286328,-0.13957031 6.2122266,-0.31535156 6.0598828,-0.42082031 5.8958203,-0.53800781 5.7434766,-0.64347656 5.5794141,-0.77238281 5.9192578,-1.2059766 6.1536328,-1.5341016 6.2942578,-1.7333203 6.4348828,-1.9559766 6.7278516,-2.4598828 7.1614453,-3.2684766 l 0.28125,-0.070312 c 0.046875,-0.011719 0.082031,-0.035156 0.070312,-0.070312 0,-0.035156 -0.023437,-0.082031 -0.058594,-0.1054687 l -0.761718,-0.5273448 -0.1523437,0.4453125 c -0.046875,0.140625 -0.140625,0.3632813 -0.28125,0.6679688 -0.1289063,0.3046875 -0.28125,0.5859375 -0.4453125,0.8554687 -0.1640625,0.28125 -0.375,0.5859375 -0.6445313,0.9140625 -0.4101562,-0.421875 -0.6679687,-0.7148437 -0.8085937,-0.8671875 -0.1171875,-0.1640625 -0.28125,-0.3867187 -0.46875,-0.6796875 -0.1992188,-0.28125 -0.3398438,-0.5390625 -0.421875,-0.7382812 -0.09375,-0.2226563 -0.1757813,-0.4101563 -0.2460938,-0.5859375 0.2109375,-0.234375 0.4101563,-0.4453125 0.609375,-0.65625 l 0.2460938,-0.023437 c 0.070312,-0.011719 0.1054687,-0.023437 0.1289062,-0.035156 0.011719,-0.011719 -0.035156,-0.070312 -0.140625,-0.140625 l -0.65625,-0.4570312 -0.1289062,0.2695312 c -0.09375,0.1875 -0.28125,0.4804688 -0.5859375,0.890625 C 2.3801953,-3.772382 1.8176953,-3.163007 0.98566406,-2.366132 l 0.11718754,0.140625 0.75,-0.5742188 c 0.1757812,-0.1289062 0.5625,-0.4570312 1.171875,-1.0078125 l 0.1992187,0.515625 c 0.070312,0.1757813 0.234375,0.46875 0.46875,0.9023438 0.2460938,0.421875 0.4570313,0.7382812 0.6210938,0.9375 0.1757812,0.2226562 0.3632812,0.421875 0.5507812,0.62109374 -0.3867187,0.33984375 -0.7148437,0.59765625 -0.984375,0.78515625 C 3.6106641,0.12996094 3.2239453,0.35261719 2.7434766,0.59871094 2.2512891,0.84480469 1.5130078,1.0908984 0.55207031,1.3135547 Z m 3.67968749,-8.765625 0.1875,0.2578125 c 0.070312,0.082031 0.1523438,0.234375 0.2460938,0.4453125 0.082031,0.2109375 0.140625,0.375 0.1523437,0.515625 0,0.1171875 0.035156,0.2109375 0.070312,0.2578125 0.023437,0.035156 0.070312,0.058594 0.140625,0.070312 0.070312,0.011719 0.1289063,-0.023437 0.1875,-0.09375 0.070312,-0.058594 0.1171875,-0.140625 0.1523438,-0.2460938 0.046875,-0.140625 0.070312,-0.2460937 0.046875,-0.3164062 -0.023437,-0.070312 -0.070312,-0.1523438 -0.1523438,-0.234375 -0.082031,-0.082031 -0.234375,-0.2109375 -0.4453125,-0.3632813 -0.2109375,-0.1640625 -0.3867187,-0.28125 -0.4921875,-0.375 z m 1.7695313,2.3671875 c 0.5390625,0.3984375 0.9140625,0.6914062 1.1132812,0.8789062 0.1992188,0.1875 0.3632813,0.3867188 0.4921875,0.5507813 0.140625,0.1640625 0.2578125,0.3164062 0.328125,0.4453125 0.082031,0.1289062 0.140625,0.1992187 0.140625,0.2109375 0.1171875,0.1523437 0.1992188,0.1992187 0.2695313,0.1289062 0.070312,-0.070312 0.1289062,-0.1523437 0.1289062,-0.28125 0.011719,-0.1171875 0.023437,-0.1992187 0.011719,-0.28125 -0.011719,-0.082031 -0.046875,-0.1875 -0.140625,-0.328125 -0.09375,-0.140625 -0.234375,-0.28125 -0.4335938,-0.421875 C 7.7005078,-4.3114453 7.4309766,-4.4872266 7.0911328,-4.6864453 6.7395703,-4.8739453 6.4114453,-5.0497266 6.0716016,-5.2137891 Z m 5.9765629,2.0859375 c -0.691407,0.3046875 -1.277344,0.5273437 -1.769532,0.6679687 l 0.46875,0.6796875 c 0.339844,-0.3046875 0.773438,-0.5742187 1.300782,-0.84375 v 2.85937504 c 0,0.140625 -0.02344,0.2109375 -0.08203,0.2578125 -0.03516,0.046875 -0.210937,0.046875 -0.480468,0 L 10.67707,0.51667969 10.665352,0.64558594 c 0.421875,0.140625 0.667968,0.2578125 0.75,0.328125 0.07031,0.0820313 0.117187,0.16406246 0.140625,0.24609376 0.01172,0.082031 0.01172,0.1875 -0.01172,0.3164062 0.316406,-0.09375 0.515625,-0.1640625 0.632812,-0.234375 0.09375,-0.070312 0.1875,-0.1640625 0.257813,-0.2695312 0.05859,-0.11718751 0.08203,-0.24609376 0.08203,-0.37500001 V -2.8700391 l 1.066406,-0.609375 -0.07031,-0.1171875 -0.996094,0.3984375 v -1.9921875 l 1.394531,-0.011719 c 0.02344,0 0.05859,-0.011719 0.07031,-0.035156 0,-0.035156 -0.02344,-0.082031 -0.09375,-0.1640625 l -0.492188,-0.5390625 -0.480468,0.5507813 h -0.398438 v -1.5117188 l 0.257813,-0.1640625 c 0.07031,-0.046875 0.09375,-0.082031 0.09375,-0.1054687 -0.01172,-0.035156 -0.02344,-0.058594 -0.08203,-0.082031 l -0.867187,-0.3515625 0.05859,1.2304688 v 0.984375 h -0.621094 l -1.03125,-0.023437 0.363281,0.3515625 0.1875,-0.082031 c 0.03516,0 0.246094,-0.023437 0.632813,-0.058594 h 0.46875 z m 0.878906,1.2070312 0.410156,0.4335938 c 0.28125,-0.1171875 0.632813,-0.1757813 1.054688,-0.1757813 h 1.195312 l -0.07031,0.3398438 c -0.01172,0.035156 -0.04687,0.1054687 -0.105469,0.25781249 -0.05859,0.140625 -0.117188,0.2578125 -0.164063,0.36328125 -0.05859,0.10546875 -0.164062,0.26953125 -0.351562,0.4921875 -0.1875,0.234375 -0.445313,0.45703125 -0.761719,0.703125 -0.316406,0.24609375 -0.867187,0.51562496 -1.628906,0.82031246 l 0.04687,0.1640625 c 1.007812,-0.3046875 1.757812,-0.64453121 2.238281,-1.00781246 0.492188,-0.36328125 0.820313,-0.7265625 0.984375,-1.1015625 0.140625,-0.36328125 0.269531,-0.70312504 0.375,-1.03125004 h 0.175781 l 0.117188,0.328125 c 0.03516,0.1640625 0.105469,0.36328129 0.222656,0.58593754 0.105469,0.24609375 0.234375,0.45703125 0.363281,0.6796875 0.140625,0.19921875 0.328125,0.421875 0.550782,0.64453125 0.234375,0.234375 0.410156,0.38671871 0.539062,0.46875001 0.128906,0.082031 0.292969,0.1757812 0.492188,0.2695312 l 0.117187,-0.2109375 c 0.07031,-0.140625 0.328125,-0.24609371 0.773438,-0.30468746 v -0.1171875 c -0.609375,-0.09375 -1.125,-0.26953125 -1.523438,-0.52734375 -0.386719,-0.28125 -0.644531,-0.4921875 -0.75,-0.65625 C 17.040349,-0.54972656 16.93488,-0.70207031 16.84113,-0.85441406 16.7591,-1.0067578 16.688786,-1.1122266 16.65363,-1.1942578 16.63019,-1.2528518 16.5716,-1.3700391 16.513005,-1.5341016 h 2.917969 c 0.05859,0 0.09375,-0.011719 0.117187,-0.035156 0.01172,-0.035156 0,-0.058594 -0.04687,-0.1171875 l -0.65625,-0.6210938 -0.433594,0.5390625 h -0.128906 v -2.25 l 0.28125,-0.234375 c 0.03516,-0.035156 0.05859,-0.058594 0.07031,-0.070312 0,-0.011719 -0.05859,-0.058594 -0.164063,-0.1523437 l -0.527344,-0.4101563 -0.304687,0.4335938 h -1.464844 l 1.160156,-1.40625 0.445313,-0.1289063 c 0.04687,-0.011719 0.07031,-0.023437 0.08203,-0.058594 0.01172,-0.035156 0,-0.070312 -0.04687,-0.1054688 l -0.691406,-0.5507812 -0.328125,0.421875 h -1.382813 c 0.1875,-0.2695313 0.363282,-0.515625 0.539063,-0.7265625 l 0.164062,-0.070312 c 0.08203,-0.023437 0.128907,-0.058594 0.128907,-0.09375 0.01172,-0.035156 0,-0.058594 -0.04687,-0.09375 l -0.820313,-0.4335938 -0.07031,0.2226563 c -0.02344,0.140625 -0.105469,0.3398437 -0.234375,0.6210937 -0.128907,0.3046875 -0.316407,0.6445313 -0.585938,1.0546875 -0.269531,0.3984375 -0.480469,0.7148438 -0.644531,0.9375 -0.175781,0.2109375 -0.398438,0.5039063 -0.703125,0.8554688 l 0.117187,0.1054687 0.679688,-0.6679687 v 2.8007812 h -0.28125 z m 1.195312,-2.8945312 0.46875,-0.515625 c 0.105469,-0.1054688 0.339844,-0.4101563 0.726563,-0.8789063 h 1.570312 c -0.292968,0.5390625 -0.609375,1.078125 -0.960937,1.6289063 h -1.347656 z m 0.433594,2.9179687 v -2.4609375 h 1.265625 l -0.03516,0.7734375 c -0.01172,0.1054688 -0.01172,0.3046875 -0.03516,0.5859375 -0.01172,0.2929688 -0.03516,0.5039063 -0.03516,0.6210938 -0.01172,0.1054687 -0.04687,0.2695312 -0.07031,0.4804687 z m 1.652344,0 0.03516,-0.28125 c 0,-0.046875 0.02344,-0.2695312 0.04687,-0.6914062 0.03516,-0.4101563 0.04687,-0.6796875 0.05859,-0.7617188 0.01172,-0.1054687 0.02344,-0.3398437 0.02344,-0.7265625 h 1.441407 v 2.4609375 z m 4.092773,0.7148438 0.117188,0.0820312 c 0.433594,-0.5625 0.761719,-1.03125 0.996094,-1.4179687 0.210937,-0.3867188 0.421875,-0.7734375 0.632812,-1.171875 v 3.11718745 l -0.07031,1.69921875 c 0.1875,-0.09375 0.316406,-0.140625 0.375,-0.1523437 0.03516,-0.023437 0.140625,-0.082031 0.269531,-0.1992188 l -0.03516,-1.23046875 V -3.6317578 c 0.386718,0.3164062 0.65625,0.5976562 0.808593,0.8320312 0.152344,0.2460938 0.246094,0.375 0.28125,0.421875 0.02344,0.035156 0.07031,0.058594 0.117188,0.058594 0.09375,0.011719 0.164062,-0.046875 0.1875,-0.1757813 0.03516,-0.1289062 0.04687,-0.2578125 0.04687,-0.3632812 0,-0.1289063 -0.01172,-0.234375 -0.05859,-0.3046875 -0.03516,-0.070312 -0.164062,-0.1640625 -0.363281,-0.2578125 -0.222656,-0.09375 -0.550781,-0.2226563 -1.019531,-0.375 v -1.265625 h 1.734375 c 0.07031,0 0.09375,-0.023437 0.09375,-0.058594 0.01172,-0.035156 0,-0.082031 -0.03516,-0.1054687 l -0.703125,-0.6796875 -0.46875,0.6210937 h -0.621093 l 0.01172,-1.5703125 0.234375,-0.140625 c 0.09375,-0.046875 0.128907,-0.082031 0.128907,-0.1171875 0.01172,-0.023437 -0.03516,-0.046875 -0.140625,-0.09375 l -0.808594,-0.3984375 0.03516,1.4765625 v 0.84375 h -0.726562 l -1.007813,-0.023437 0.410156,0.3867188 c 0.269532,-0.070312 0.621094,-0.1171875 1.03125,-0.140625 h 0.128907 l -0.02344,0.2460937 c -0.03516,0.2695313 -0.164062,0.703125 -0.386719,1.3242188 -0.234375,0.6328125 -0.445312,1.125 -0.621093,1.4648437 -0.199219,0.3515625 -0.375,0.6679688 -0.550782,0.9726563 z m 4.523438,-6.1875 0.04687,0.6679687 c 0.01172,0.328125 0.01172,0.8789063 0.02344,1.6289063 0.01172,0.7617187 -0.01172,1.453125 -0.05859,2.109375 -0.04687,0.6445312 -0.105469,1.125 -0.175782,1.4414062 -0.07031,0.328125 -0.1875,0.63281254 -0.363281,0.93750004 -0.152344,0.3046875 -0.351562,0.59765625 -0.597656,0.85546875 -0.246094,0.28125 -0.644531,0.5859375 -1.195313,0.94921871 l 0.07031,0.1171875 c 0.644531,-0.3398437 1.113281,-0.63281246 1.40625,-0.90234371 0.28125,-0.2578125 0.539062,-0.55078125 0.761719,-0.87890625 0.199218,-0.33984375 0.351562,-0.6796875 0.457031,-1.00781254 0.08203,-0.328125 0.140625,-0.65625 0.175781,-0.9726562 0.02344,-0.3164063 0.04687,-0.6914063 0.05859,-1.1132813 0.02344,-0.4335937 0.04687,-0.8085937 0.04687,-1.171875 0.01172,-0.3398437 0.01172,-0.9609375 0.02344,-1.8515625 h 1.570313 v 6.62109379 c 0,0.26953125 0.03516,0.4453125 0.07031,0.55078125 0.05859,0.09375 0.128907,0.1640625 0.234375,0.22265625 0.09375,0.0585937 0.246094,0.09375 0.445313,0.10546871 0.234375,0.023437 0.457031,0.023437 0.714844,0 0.246093,-0.023437 0.445312,-0.046875 0.5625,-0.09375 0.128906,-0.0234375 0.234375,-0.0820313 0.316406,-0.17578125 0.09375,-0.0820313 0.175781,-0.17578125 0.257812,-0.3046875 -0.1875,-0.15234375 -0.304687,-0.26953125 -0.339843,-0.375 -0.03516,-0.10546875 -0.07031,-0.24609375 -0.07031,-0.43359375 -0.02344,-0.1875 -0.02344,-0.515625 -0.01172,-0.9726562 h -0.175781 l -0.09375,0.84374995 -0.05859,0.48046875 c -0.01172,0.12890625 -0.04687,0.234375 -0.08203,0.29296875 -0.03516,0.0585938 -0.08203,0.10546875 -0.128906,0.12890625 -0.04687,0.0351563 -0.222656,0.046875 -0.492188,0.0703125 -0.246093,0.0117188 -0.398437,-0.0234375 -0.457031,-0.09375 -0.05859,-0.0703125 -0.09375,-0.19921875 -0.09375,-0.3984375 v -6.2109375 l 0.351563,-0.2929687 0.09375,-0.082031 c 0.01172,-0.011719 -0.03516,-0.046875 -0.117188,-0.1171875 l -0.65625,-0.4804687 -0.351562,0.4804687 -1.3125,-0.011719 z m 0,0"
         style="fill:#000000;fill-opacity:1;fill-rule:nonzero;stroke:none" />
      <path
         id="path28"
         d="m 37.753242,-1.6981641 c 0,-0.8203125 -0.621094,-1.59375 -1.652344,-1.8046875 0.808594,-0.2695312 1.394532,-0.9726562 1.394532,-1.7578125 0,-0.8203125 -0.878907,-1.3710937 -1.839844,-1.3710937 -1.007813,0 -1.757813,0.5976562 -1.757813,1.3476562 0,0.3398438 0.210938,0.5273438 0.503907,0.5273438 0.304687,0 0.503906,-0.2226563 0.503906,-0.515625 0,-0.4921875 -0.46875,-0.4921875 -0.609375,-0.4921875 0.304687,-0.4921875 0.960937,-0.6210938 1.324219,-0.6210938 0.410156,0 0.949218,0.2226563 0.949218,1.1132813 0,0.1289062 -0.01172,0.703125 -0.269531,1.1367187 -0.304687,0.4804688 -0.644531,0.515625 -0.890625,0.515625 -0.08203,0.011719 -0.316406,0.035156 -0.386719,0.035156 -0.08203,0.011719 -0.152343,0.023437 -0.152343,0.1171875 0,0.1171875 0.07031,0.1171875 0.234375,0.1171875 h 0.445312 c 0.808594,0 1.183594,0.6679687 1.183594,1.6523437 0,1.34765629 -0.691406,1.64062504 -1.125,1.64062504 -0.433594,0 -1.171875,-0.17578125 -1.523438,-0.76171875 0.351563,0.0585938 0.65625,-0.1640625 0.65625,-0.53906249 0,-0.3632813 -0.269531,-0.5625 -0.5625,-0.5625 -0.234375,0 -0.550781,0.140625 -0.550781,0.5742187 0,0.91406254 0.925781,1.57031254 2.003906,1.57031254 1.21875,0 2.121094,-0.9140625 2.121094,-1.92187474 z m 0,0"
         style="fill:#000000;fill-opacity:1;fill-rule:nonzero;stroke:none" />
    </g>
    <path
       id="path29"
       d="m 317.48471,113.38727 v 28.3468 h 45.35419 v -28.3468 z"
       style="fill:none;stroke:#000000;stroke-width:0.3985;stroke-linecap:butt;stroke-linejoin:miter;stroke-miterlimit:10;stroke-dasharray:none;stroke-opacity:1"
       transform="matrix(1.3333333,0,0,-1.3333333,34.281333,209.56933)" />
    <path
       id="path30"
       d="m 314.64984,110.55241 v 34.01651 h 51.02393 v -34.01651 z"
       style="fill:none;stroke:#000000;stroke-width:0.3985;stroke-linecap:butt;stroke-linejoin:miter;stroke-miterlimit:10;stroke-dasharray:none;stroke-opacity:1"
       transform="matrix(1.3333333,0,0,-1.3333333,34.281333,209.56933)" />
    <path
       id="path31"
       d="m 334.4921,110.55241 v -5.66971 h 11.33854 v 5.66971"
       style="fill:none;stroke:#000000;stroke-width:0.3985;stroke-linecap:butt;stroke-linejoin:miter;stroke-miterlimit:10;stroke-dasharray:none;stroke-opacity:1"
       transform="matrix(1.3333333,0,0,-1.3333333,34.281333,209.56933)" />
    <path
       id="path32"
       d="M 6.4936328,-2.5662578 H 6.2475391 C 6.0014453,-1.0311016 5.7670703,-0.30453906 4.0561328,-0.30453906 H 2.7319141 c -0.46875,0 -0.4921875,-0.0703125 -0.4921875,-0.3984375 V -3.3631328 h 0.9023437 c 0.9609375,0 1.078125,0.3164062 1.078125,1.1601562 H 4.4662891 V -4.8396953 H 4.2201953 c 0,0.8554687 -0.1171875,1.1601562 -1.078125,1.1601562 H 2.2397266 v -2.390625 c 0,-0.328125 0.023437,-0.3984375 0.4921875,-0.3984375 h 1.2890625 c 1.5234375,0 1.7929687,0.5507813 1.9453125,1.9335938 H 6.2123828 L 5.9428516,-6.7732891 H 0.32957031 v 0.3046875 h 0.234375 c 0.77343749,0 0.79687499,0.1171875 0.79687499,0.46875 v 5.22656254 c 0,0.3515625 -0.023437,0.46875 -0.79687499,0.46875 h -0.234375 V 1.484375e-4 H 6.0834766 Z m 0,0"
       style="fill:#000000;fill-opacity:1;fill-rule:nonzero;stroke:none"
       aria-label="E"
       transform="matrix(1.3333333,0,0,1.3333333,483.30667,13.769333)" />
    <path
       id="path33"
       d="M 317.48471,0 V 28.3468 H 362.8389 V 0 Z"
       style="fill:none;stroke:#000000;stroke-width:0.3985;stroke-linecap:butt;stroke-linejoin:miter;stroke-miterlimit:10;stroke-dasharray:none;stroke-opacity:1"
       transform="matrix(1.3333333,0,0,-1.3333333,34.281333,209.56933)" />
    <path
       id="path34"
       d="m 314.64984,-2.83484 v 34.0165 h 51.02393 v -34.0165 z"
       style="fill:none;stroke:#000000;stroke-width:0.3985;stroke-linecap:butt;stroke-linejoin:miter;stroke-miterlimit:10;stroke-dasharray:none;stroke-opacity:1"
       transform="matrix(1.3333333,0,0,-1.3333333,34.281333,209.56933)" />
    <path
       id="path35"
       d="m 334.4921,-2.83484 v -5.66971 h 11.33854 v 5.66971"
       style="fill:none;stroke:#000000;stroke-width:0.3985;stroke-linecap:butt;stroke-linejoin:miter;stroke-miterlimit:10;stroke-dasharray:none;stroke-opacity:1"
       transform="matrix(1.3333333,0,0,-1.3333333,34.281333,209.56933)" />
    <path
       id="path36"
       d="m 7.3251094,-2.4135703 v -0.3046875 l -1.21875,0.023437 c -0.3984375,0 -1.2421875,0 -1.6054688,-0.023437 v 0.3046875 h 0.3164063 c 0.9023437,0 0.9257812,0.1171875 0.9257812,0.4804687 v 0.6328125 c 0,1.12500004 -1.2539062,1.20703129 -1.5351562,1.20703129 -0.65625,0 -2.625,-0.33984375 -2.625,-3.31640629 0,-2.9765625 1.96875,-3.3046875 2.5664062,-3.3046875 1.0664063,0 1.96875,0.9023438 2.1679688,2.3671875 0.023437,0.1289063 0.023437,0.1640625 0.1640625,0.1640625 0.1523437,0 0.1523437,-0.035156 0.1523437,-0.234375 v -2.3671875 c 0,-0.1640625 0,-0.234375 -0.1054687,-0.234375 -0.046875,0 -0.082031,0 -0.1640625,0.1171875 l -0.4921875,0.7382813 c -0.328125,-0.3164063 -0.8554688,-0.8554688 -1.8515625,-0.8554688 -1.8515625,0 -3.45703127,1.5703125 -3.45703127,3.609375 0,2.0507813 1.59374997,3.63281254 3.48046877,3.63281254 0.7265625,0 1.5234375,-0.2578125 1.8632812,-0.85546875 0.1289063,0.22265625 0.5273438,0.62109375 0.6328125,0.62109375 0.09375,0 0.09375,-0.08203125 0.09375,-0.22265625 V -1.9682578 c 0,-0.3867188 0.046875,-0.4453125 0.6914063,-0.4453125 z m 0,0"
       style="fill:#000000;fill-opacity:1;fill-rule:nonzero;stroke:none"
       aria-label="G"
       transform="matrix(1.3333333,0,0,1.3333333,482.616,164.972)" />
    <path
       id="path37"
       d="M 487.56561,0 V 28.3468 H 532.9198 V 0 Z"
       style="fill:none;stroke:#000000;stroke-width:0.3985;stroke-linecap:butt;stroke-linejoin:miter;stroke-miterlimit:10;stroke-dasharray:none;stroke-opacity:1"
       transform="matrix(1.3333333,0,0,-1.3333333,34.281333,209.56933)" />
    <path
       id="path38"
       d="m 484.73074,-2.83484 v 34.0165 h 51.02393 v -34.0165 z"
       style="fill:none;stroke:#000000;stroke-width:0.3985;stroke-linecap:butt;stroke-linejoin:miter;stroke-miterlimit:10;stroke-dasharray:none;stroke-opacity:1"
       transform="matrix(1.3333333,0,0,-1.3333333,34.281333,209.56933)" />
    <path
       id="path39"
       d="m 504.57301,-2.83484 v -5.66971 h 11.33855 v 5.66971"
       style="fill:none;stroke:#000000;stroke-width:0.3985;stroke-linecap:butt;stroke-linejoin:miter;stroke-miterlimit:10;stroke-dasharray:none;stroke-opacity:1"
       transform="matrix(1.3333333,0,0,-1.3333333,34.281333,209.56933)" />
    <path
       id="path40"
       d="m 6.0831797,-4.5343125 -0.28125,-2.2382812 H 0.32927344 v 0.3046875 h 0.234375 c 0.77343746,0 0.79687496,0.1171875 0.79687496,0.46875 v 5.22656245 c 0,0.3515625 -0.023437,0.46875 -0.79687496,0.46875 h -0.234375 V 8.4375e-4 C 0.68083594,-0.0343125 1.4542734,-0.0343125 1.8409922,-0.0343125 c 0.4101562,0 1.3125,0 1.6757812,0.03515625 v -0.3046875 h -0.328125 c -0.9492187,0 -0.9492187,-0.12890625 -0.9492187,-0.48046875 v -2.4492187 h 0.8554687 c 0.9609375,0 1.0546875,0.3164062 1.0546875,1.1601562 H 4.4073984 V -4.7100937 H 4.1495859 c 0,0.8320312 -0.09375,1.1601562 -1.0546875,1.1601562 H 2.2394297 v -2.5195312 c 0,-0.328125 0.023437,-0.3984375 0.4921875,-0.3984375 h 1.1953125 c 1.4882812,0 1.7460937,0.5625 1.8984375,1.9335937 z m 0,0"
       style="fill:#000000;fill-opacity:1;fill-rule:nonzero;stroke:none"
       aria-label="F"
       transform="matrix(1.3333333,0,0,1.3333333,710.268,164.952)" />
    <path
       id="path41"
       d="M 25.51195,113.38727 68.03218,79.37073"
       style="fill:none;stroke:#000000;stroke-width:0.3985;stroke-linecap:butt;stroke-linejoin:miter;stroke-miterlimit:10;stroke-dasharray:none;stroke-opacity:1"
       transform="matrix(1.3333333,0,0,-1.3333333,34.281333,209.56933)" />
    <path
       id="path42"
       d="m 4.1708516,-8.4375e-4 v -0.3046875 H 3.8544453 c -0.9023437,0 -0.9257812,-0.1171875 -0.9257812,-0.48046875 v -5.5898437 c 0,-0.234375 0,-0.2578125 -0.234375,-0.2578125 -0.609375,0.6328125 -1.4882813,0.6328125 -1.80468754,0.6328125 v 0.3164062 c 0.19921874,0 0.78515624,0 1.30078124,-0.2578125 V -0.786 c 0,0.3515625 -0.035156,0.48046875 -0.9257812,0.48046875 H 0.94819531 v 0.3046875 C 1.2997578,-0.036 2.1552266,-0.036 2.5536641,-0.036 c 0.3984375,0 1.265625,0 1.6171875,0.03515625 z m 0,0"
       style="fill:#000000;fill-opacity:1;fill-rule:nonzero;stroke:none"
       aria-label="1"
       transform="matrix(1.3333333,0,0,1.3333333,121.66933,99.048)" />
    <path
       id="path43"
       d="M 25.51195,28.3468 68.03218,68.03218"
       style="fill:none;stroke:#000000;stroke-width:0.3985;stroke-linecap:butt;stroke-linejoin:miter;stroke-miterlimit:10;stroke-dasharray:none;stroke-opacity:1"
       transform="matrix(1.3333333,0,0,-1.3333333,34.281333,209.56933)" />
    <path
       id="path44"
       d="M 4.4755391,-1.7355469 H 4.2177266 c -0.046875,0.3046875 -0.1171875,0.73828128 -0.2109375,0.89062503 -0.070312,0.0820313 -0.7265625,0.0820313 -0.9492188,0.0820313 H 1.2646016 L 2.3192891,-1.7941406 c 1.5585937,-1.3710938 2.15625,-1.9101563 2.15625,-2.90625 0,-1.1367188 -0.9023438,-1.9335938 -2.1210938,-1.9335938 -1.125,0 -1.85156249,0.9140625 -1.85156249,1.8046875 0,0.5507813 0.4921875,0.5507813 0.52734379,0.5507813 0.1640625,0 0.515625,-0.1171875 0.515625,-0.5273438 0,-0.2578125 -0.1875,-0.515625 -0.5273438,-0.515625 -0.0820312,0 -0.10546874,0 -0.12890624,0.011719 0.22265624,-0.6445313 0.76171874,-1.0195313 1.33593754,-1.0195313 0.9140625,0 1.3359375,0.8085938 1.3359375,1.6289063 0,0.796875 -0.4921875,1.5820312 -1.0429688,2.203125 L 0.60835156,-0.36445312 C 0.50288281,-0.25898437 0.50288281,-0.23554687 0.50288281,-0.00117187 H 4.1942891 Z m 0,0"
       style="fill:#000000;fill-opacity:1;fill-rule:nonzero;stroke:none"
       aria-label="2"
       transform="matrix(1.3333333,0,0,1.3333333,121.66933,132.4)" />
    <path
       id="path45"
       d="M 102.0487,79.37073 H 238.11308"
       style="fill:none;stroke:#000000;stroke-width:0.3985;stroke-linecap:butt;stroke-linejoin:miter;stroke-miterlimit:10;stroke-dasharray:none;stroke-opacity:1"
       transform="matrix(1.3333333,0,0,-1.3333333,34.281333,209.56933)" />
    <path
       id="path46"
       d="m 4.5454531,-1.6978594 c 0,-0.8203125 -0.6210937,-1.59375 -1.6523437,-1.8046875 0.8085937,-0.2695312 1.3945312,-0.9726562 1.3945312,-1.7578125 0,-0.8203125 -0.8789062,-1.3710937 -1.8398437,-1.3710937 -1.0078125,0 -1.75781252,0.5976562 -1.75781252,1.3476562 0,0.3398438 0.2109375,0.5273438 0.50390622,0.5273438 0.3046875,0 0.5039063,-0.2226563 0.5039063,-0.515625 0,-0.4921875 -0.46875,-0.4921875 -0.609375,-0.4921875 0.3046875,-0.4921875 0.9609375,-0.6210938 1.3242187,-0.6210938 0.4101563,0 0.9492188,0.2226563 0.9492188,1.1132813 0,0.1289062 -0.011719,0.703125 -0.2695313,1.1367187 -0.3046875,0.4804688 -0.6445312,0.515625 -0.890625,0.515625 -0.082031,0.011719 -0.3164062,0.035156 -0.3867187,0.035156 -0.082031,0.011719 -0.1523438,0.023437 -0.1523438,0.1171875 0,0.1171875 0.070312,0.1171875 0.234375,0.1171875 h 0.4453125 c 0.8085938,0 1.1835938,0.6679687 1.1835938,1.6523437 0,1.34765628 -0.6914063,1.64062503 -1.125,1.64062503 -0.4335938,0 -1.171875,-0.17578125 -1.52343752,-0.76171875 0.35156252,0.0585938 0.65625002,-0.1640625 0.65625002,-0.53906248 0,-0.3632813 -0.2695313,-0.5625 -0.56250002,-0.5625 -0.234375,0 -0.55078125,0.140625 -0.55078125,0.5742187 0,0.91406253 0.92578127,1.57031253 2.00390627,1.57031253 1.21875,0 2.1210937,-0.9140625 2.1210937,-1.92187473 z m 0,0"
       style="fill:#000000;fill-opacity:1;fill-rule:nonzero;stroke:none"
       aria-label="3"
       transform="matrix(1.3333333,0,0,1.3333333,167.02533,98.756)" />
    <path
       id="path47"
       d="m 4.5478594,-1.6978594 c 0,-0.8203125 -0.6210938,-1.59375 -1.6523438,-1.8046875 0.8085938,-0.2695312 1.3945313,-0.9726562 1.3945313,-1.7578125 0,-0.8203125 -0.8789063,-1.3710937 -1.8398438,-1.3710937 -1.0078125,0 -1.75781248,0.5976562 -1.75781248,1.3476562 0,0.3398438 0.2109375,0.5273438 0.50390628,0.5273438 0.3046875,0 0.5039062,-0.2226563 0.5039062,-0.515625 0,-0.4921875 -0.46875,-0.4921875 -0.609375,-0.4921875 0.3046875,-0.4921875 0.9609375,-0.6210938 1.3242188,-0.6210938 0.4101562,0 0.9492187,0.2226563 0.9492187,1.1132813 0,0.1289062 -0.011719,0.703125 -0.2695312,1.1367187 -0.3046875,0.4804688 -0.6445313,0.515625 -0.890625,0.515625 -0.082031,0.011719 -0.3164063,0.035156 -0.3867188,0.035156 -0.082031,0.011719 -0.1523437,0.023437 -0.1523437,0.1171875 0,0.1171875 0.070312,0.1171875 0.234375,0.1171875 h 0.4453125 c 0.8085937,0 1.1835937,0.6679687 1.1835937,1.6523437 0,1.34765628 -0.6914062,1.64062503 -1.125,1.64062503 -0.4335937,0 -1.171875,-0.17578125 -1.52343748,-0.76171875 0.35156248,0.0585938 0.65624998,-0.1640625 0.65624998,-0.53906248 0,-0.3632813 -0.2695312,-0.5625 -0.56249998,-0.5625 -0.234375,0 -0.55078125,0.140625 -0.55078125,0.5742187 0,0.91406253 0.92578123,1.57031253 2.00390623,1.57031253 1.21875,0 2.1210938,-0.9140625 2.1210938,-1.92187473 z m 0,0"
       style="fill:#000000;fill-opacity:1;fill-rule:nonzero;stroke:none"
       aria-label="3"
       transform="matrix(1.3333333,0,0,1.3333333,348.444,98.756)" />
    <path
       id="path48"
       d="m 255.12134,90.71016 -59.52849,22.67711"
       style="fill:none;stroke:#000000;stroke-width:0.3985;stroke-linecap:butt;stroke-linejoin:miter;stroke-miterlimit:10;stroke-dasharray:none;stroke-opacity:1"
       transform="matrix(1.3333333,0,0,-1.3333333,34.281333,209.56933)" />
    <path
       id="path49"
       d="M 4.1706953,2.65625e-4 V -0.30442187 H 3.8542891 c -0.9023438,0 -0.9257813,-0.1171875 -0.9257813,-0.48046875 V -6.3747344 c 0,-0.234375 0,-0.2578125 -0.234375,-0.2578125 -0.609375,0.6328125 -1.4882812,0.6328125 -1.80468749,0.6328125 v 0.3164063 c 0.19921879,0 0.78515629,0 1.30078129,-0.2578125 v 5.15624998 c 0,0.3515625 -0.035156,0.48046875 -0.9257813,0.48046875 H 0.94803906 V 2.65625e-4 C 1.2996016,-0.03489062 2.1550703,-0.03489062 2.5535078,-0.03489062 c 0.3984375,0 1.265625,0 1.6171875,0.035156245 z m 0,0"
       style="fill:#000000;fill-opacity:1;fill-rule:nonzero;stroke:none"
       aria-label="1"
       transform="matrix(1.3333333,0,0,1.3333333,371.12267,83.929333)" />
    <path
       id="path50"
       d="M 238.11308,68.03218 195.59285,28.3468"
       style="fill:none;stroke:#000000;stroke-width:0.3985;stroke-linecap:butt;stroke-linejoin:miter;stroke-miterlimit:10;stroke-dasharray:none;stroke-opacity:1"
       transform="matrix(1.3333333,0,0,-1.3333333,34.281333,209.56933)" />
    <path
       id="path51"
       d="M 4.6884844,-1.6394687 V -1.955875 H 3.6923906 v -4.5234375 c 0,-0.1992187 0,-0.2578125 -0.1523437,-0.2578125 -0.09375,0 -0.1171875,0 -0.1992188,0.1171875 L 0.28223437,-1.955875 v 0.3164063 H 2.9306719 v 0.86718745 c 0,0.3515625 -0.023437,0.46875 -0.7617188,0.46875 H 1.9580156 v 0.3046875 C 2.3681719,-0.034 2.8955156,-0.034 3.3056719,-0.034 c 0.421875,0 0.9492187,0 1.359375,0.03515625 v -0.3046875 H 4.4541094 c -0.7382813,0 -0.7617188,-0.1171875 -0.7617188,-0.46875 V -1.6394687 Z M 2.9892656,-1.955875 H 0.56348437 L 2.9892656,-5.6707187 Z m 0,0"
       style="fill:#000000;fill-opacity:1;fill-rule:nonzero;stroke:none"
       aria-label="4"
       transform="matrix(1.3333333,0,0,1.3333333,348.444,132.54533)" />
    <path
       id="path52"
       d="M 272.12961,79.37073 H 408.19398"
       style="fill:none;stroke:#000000;stroke-width:0.3985;stroke-linecap:butt;stroke-linejoin:miter;stroke-miterlimit:10;stroke-dasharray:none;stroke-opacity:1"
       transform="matrix(1.3333333,0,0,-1.3333333,34.281333,209.56933)" />
    <path
       id="path53"
       d="M 4.4771484,-1.7352187 H 4.2193359 c -0.046875,0.3046875 -0.1171875,0.7382812 -0.2109375,0.89062495 -0.070312,0.0820313 -0.7265625,0.0820313 -0.9492187,0.0820313 H 1.2662109 L 2.3208984,-1.7938124 c 1.5585938,-1.3710938 2.15625,-1.9101563 2.15625,-2.90625 0,-1.1367187 -0.9023437,-1.9335937 -2.1210937,-1.9335937 -1.125,0 -1.85156251,0.9140625 -1.85156251,1.8046875 0,0.5507812 0.4921875,0.5507812 0.52734371,0.5507812 0.1640625,0 0.515625,-0.1171875 0.515625,-0.5273437 0,-0.2578125 -0.1875,-0.515625 -0.5273437,-0.515625 -0.0820313,0 -0.10546876,0 -0.12890626,0.011719 0.22265626,-0.6445312 0.76171876,-1.0195312 1.33593746,-1.0195312 0.9140625,0 1.3359375,0.8085937 1.3359375,1.6289062 0,0.796875 -0.4921875,1.5820312 -1.0429687,2.2031249 L 0.60996094,-0.364125 C 0.50449219,-0.25865625 0.50449219,-0.23521875 0.50449219,-8.4375e-4 H 4.1958984 Z m 0,0"
       style="fill:#000000;fill-opacity:1;fill-rule:nonzero;stroke:none"
       aria-label="2"
       transform="matrix(1.3333333,0,0,1.3333333,393.8,99.048)" />
    <path
       id="path54"
       d="M 4.476625,-1.7352187 H 4.2188125 C 4.1719375,-1.4305312 4.101625,-0.9969375 4.007875,-0.84459375 3.9375625,-0.7625625 3.2813125,-0.7625625 3.0586563,-0.7625625 H 1.2656875 l 1.0546875,-1.03125 c 1.5585938,-1.3710937 2.15625,-1.9101562 2.15625,-2.90625 0,-1.1367187 -0.9023437,-1.9335937 -2.1210937,-1.9335937 -1.125,0 -1.85156255,0.9140625 -1.85156255,1.8046875 0,0.5507812 0.4921875,0.5507812 0.52734375,0.5507812 0.1640625,0 0.515625,-0.1171875 0.515625,-0.5273437 0,-0.2578125 -0.1875,-0.515625 -0.5273437,-0.515625 -0.0820313,0 -0.1054688,0 -0.1289063,0.011719 0.2226563,-0.6445312 0.7617188,-1.0195312 1.3359375,-1.0195312 0.9140625,0 1.3359375,0.8085937 1.3359375,1.6289062 0,0.796875 -0.4921875,1.5820313 -1.0429687,2.203125 L 0.6094375,-0.364125 C 0.50396875,-0.25865625 0.50396875,-0.23521875 0.50396875,-8.4375e-4 H 4.195375 Z m 0,0"
       style="fill:#000000;fill-opacity:1;fill-rule:nonzero;stroke:none"
       aria-label="2"
       transform="matrix(1.3333333,0,0,1.3333333,575.21867,99.048)" />
    <path
       id="path55"
       d="m 425.20224,90.71016 -59.52847,22.67711"
       style="fill:none;stroke:#000000;stroke-width:0.3985;stroke-linecap:butt;stroke-linejoin:miter;stroke-miterlimit:10;stroke-dasharray:none;stroke-opacity:1"
       transform="matrix(1.3333333,0,0,-1.3333333,34.281333,209.56933)" />
    <path
       id="path56"
       d="M 4.1727031,2.65625e-4 V -0.30442187 H 3.8562969 c -0.9023438,0 -0.9257813,-0.1171875 -0.9257813,-0.48046875 V -6.3747344 c 0,-0.234375 0,-0.2578125 -0.234375,-0.2578125 -0.609375,0.6328125 -1.4882812,0.6328125 -1.80468748,0.6328125 v 0.3164063 c 0.19921878,0 0.78515628,0 1.30078128,-0.2578125 v 5.15624998 c 0,0.3515625 -0.035156,0.48046875 -0.9257813,0.48046875 H 0.95004687 V 2.65625e-4 C 1.3016094,-0.03489062 2.1570781,-0.03489062 2.5555156,-0.03489062 c 0.3984375,0 1.265625,0 1.6171875,0.035156245 z m 0,0"
       style="fill:#000000;fill-opacity:1;fill-rule:nonzero;stroke:none"
       aria-label="1"
       transform="matrix(1.3333333,0,0,1.3333333,597.89733,83.929333)" />
    <path
       id="path57"
       d="M 408.19398,68.03218 365.67377,28.3468"
       style="fill:none;stroke:#000000;stroke-width:0.3985;stroke-linecap:butt;stroke-linejoin:miter;stroke-miterlimit:10;stroke-dasharray:none;stroke-opacity:1"
       transform="matrix(1.3333333,0,0,-1.3333333,34.281333,209.56933)" />
    <path
       id="path58"
       d="m 4.5469375,-1.7003906 c 0,-0.8203125 -0.6210937,-1.59375 -1.6523437,-1.8046875 0.8085937,-0.2695313 1.3945312,-0.9726563 1.3945312,-1.7578125 0,-0.8203125 -0.8789062,-1.3710938 -1.8398437,-1.3710938 -1.0078125,0 -1.75781255,0.5976563 -1.75781255,1.3476563 0,0.3398437 0.2109375,0.5273437 0.50390625,0.5273437 0.3046875,0 0.5039063,-0.2226562 0.5039063,-0.515625 0,-0.4921875 -0.46875,-0.4921875 -0.609375,-0.4921875 0.3046875,-0.4921875 0.9609375,-0.6210937 1.3242187,-0.6210937 0.4101563,0 0.9492188,0.2226562 0.9492188,1.1132812 0,0.1289063 -0.011719,0.703125 -0.2695313,1.1367188 -0.3046875,0.4804687 -0.6445312,0.515625 -0.890625,0.515625 -0.082031,0.011719 -0.3164062,0.035156 -0.3867187,0.035156 -0.082031,0.011719 -0.1523438,0.023437 -0.1523438,0.1171875 0,0.1171875 0.070312,0.1171875 0.234375,0.1171875 h 0.4453125 c 0.8085938,0 1.1835938,0.6679688 1.1835938,1.6523438 0,1.34765623 -0.6914063,1.64062498 -1.125,1.64062498 -0.4335938,0 -1.171875,-0.17578125 -1.52343755,-0.76171875 0.35156255,0.0585938 0.65625005,-0.1640625 0.65625005,-0.53906253 0,-0.3632812 -0.2695313,-0.5625 -0.56250005,-0.5625 -0.234375,0 -0.55078125,0.140625 -0.55078125,0.5742188 0,0.91406248 0.9257813,1.57031248 2.0039063,1.57031248 1.21875,0 2.1210937,-0.9140625 2.1210937,-1.92187478 z m 0,0"
       style="fill:#000000;fill-opacity:1;fill-rule:nonzero;stroke:none"
       aria-label="3"
       transform="matrix(1.3333333,0,0,1.3333333,575.21867,132.4)" />
    <path
       id="path59"
       d="M 442.21051,79.37073 484.73073,28.3468"
       style="fill:none;stroke:#000000;stroke-width:0.3985;stroke-linecap:butt;stroke-linejoin:miter;stroke-miterlimit:10;stroke-dasharray:none;stroke-opacity:1"
       transform="matrix(1.3333333,0,0,-1.3333333,34.281333,209.56933)" />
    <path
       id="path60"
       d="M 4.6871641,-1.6414687 V -1.957875 H 3.6910703 v -4.5234375 c 0,-0.1992187 0,-0.2578125 -0.1523437,-0.2578125 -0.09375,0 -0.1171875,0 -0.1992188,0.1171875 L 0.28091406,-1.957875 v 0.3164063 H 2.9293516 v 0.86718745 c 0,0.3515625 -0.023437,0.46875 -0.7617188,0.46875 H 1.9566953 v 0.3046875 C 2.3668516,-0.036 2.8941953,-0.036 3.3043516,-0.036 c 0.421875,0 0.9492187,0 1.359375,0.03515625 v -0.3046875 H 4.4527891 c -0.7382813,0 -0.7617188,-0.1171875 -0.7617188,-0.46875 V -1.6414687 Z M 2.9879453,-1.957875 H 0.56216406 L 2.9879453,-5.6727187 Z m 0,0"
       style="fill:#000000;fill-opacity:1;fill-rule:nonzero;stroke:none"
       aria-label="4"
       transform="matrix(1.3333333,0,0,1.3333333,620.57467,99.048)" />
  </g>
</svg>
