<?xml version="1.0" encoding="UTF-8" standalone="no"?>
<!-- Created with Inkscape (http://www.inkscape.org/) -->

<svg
   version="1.1"
   id="svg1"
   width="284.10666"
   height="71.919998"
   viewBox="0 0 284.10666 71.919998"
   sodipodi:docname="23-24-2-数字信号处理-期末-题图3.2.pdf"
   xmlns:inkscape="http://www.inkscape.org/namespaces/inkscape"
   xmlns:sodipodi="http://sodipodi.sourceforge.net/DTD/sodipodi-0.dtd"
   xmlns="http://www.w3.org/2000/svg"
   xmlns:svg="http://www.w3.org/2000/svg">
  <defs
     id="defs1" />
  <sodipodi:namedview
     id="namedview1"
     pagecolor="#ffffff"
     bordercolor="#000000"
     borderopacity="0.25"
     inkscape:showpageshadow="2"
     inkscape:pageopacity="0.0"
     inkscape:pagecheckerboard="0"
     inkscape:deskcolor="#d1d1d1">
    <inkscape:page
       x="0"
       y="0"
       inkscape:label="1"
       id="page1"
       width="284.10666"
       height="71.919998"
       margin="0"
       bleed="0" />
  </sodipodi:namedview>
  <g
     id="g1"
     inkscape:groupmode="layer"
     inkscape:label="1">
    <path
       id="path1"
       d="M -55.51747,-32.84001 V 21.0971 h 213.08348 v -53.93711 z"
       style="fill:#ffffff;fill-opacity:1;fill-rule:nonzero;stroke:none"
       transform="matrix(1.3333333,0,0,-1.3333333,74.022667,28.134667)" />
    <path
       id="path2"
       d="M -13.35306,-8.30193 H 13.35307 V 8.30194 h -26.70613 z"
       style="fill:none;stroke:#000000;stroke-width:0.3985;stroke-linecap:butt;stroke-linejoin:miter;stroke-miterlimit:10;stroke-dasharray:none;stroke-opacity:1"
       transform="matrix(1.3333333,0,0,-1.3333333,74.022667,28.134667)" />
    <path
       id="path3"
       d="M 7.1380469,7.734375e-4 V -0.30391406 H 6.9622656 c -0.5976562,0 -0.7382812,-0.0703125 -0.84375,-0.3984375 l -2.15625,-6.23437504 c -0.046875,-0.1289062 -0.070312,-0.1992187 -0.2226562,-0.1992187 -0.1640625,0 -0.1875,0.058594 -0.2460938,0.1992187 l -2.0625,5.96484379 c -0.1757812,0.50390625 -0.57421872,0.65625 -1.11328122,0.66796875 V 7.734375e-4 L 1.3372656,-0.03438281 2.4857031,7.734375e-4 V -0.30391406 c -0.5039062,0 -0.75,-0.2578125 -0.75,-0.515625 0,-0.0234375 0.011719,-0.12890625 0.023437,-0.140625 L 2.2161719,-2.2726641 h 2.4609375 l 0.5273437,1.52343754 c 0.011719,0.046875 0.023437,0.10546875 0.023437,0.140625 0,0.3046875 -0.5507812,0.3046875 -0.8203125,0.3046875 V 7.734375e-4 C 4.7591406,-0.03438281 5.4622656,-0.03438281 5.8372656,-0.03438281 Z M 4.5599219,-2.5773516 H 2.3216406 l 1.1132813,-3.234375 z M 11.89,-7.2765703 c 0,-0.1054688 -0.09375,-0.1992188 -0.199219,-0.1992188 -0.140625,0 -0.1875,0.1054688 -0.210937,0.1992188 L 8.0814063,2.1101484 c -0.046875,0.1289063 -0.046875,0.1875 -0.046875,0.1875 0,0.1054688 0.082031,0.1992188 0.1992187,0.1992188 0.140625,0 0.1757813,-0.1054688 0.1992188,-0.1992188 l 3.3984372,-9.3867187 c 0.05859,-0.1289063 0.05859,-0.1875 0.05859,-0.1875 z m 7.605469,3.9257812 c 0,-1.8867187 -1.347657,-3.4570312 -3.046875,-3.4570312 h -3.644531 v 0.3164062 h 0.234375 c 0.773437,0 0.785156,0.1054688 0.785156,0.46875 v 5.25000004 c 0,0.3515625 -0.01172,0.46875 -0.785156,0.46875 H 12.804063 V 7.734375e-4 h 3.644531 c 1.675781,0 3.046875,-1.4765625375 3.046875,-3.3515625375 z m -0.996094,0 c 0,1.1132813 -0.1875,1.7109375 -0.550781,2.1914063 -0.199219,0.26953124 -0.761719,0.85546874 -1.769532,0.85546874 H 15.17125 c -0.46875,0 -0.492187,-0.0703125 -0.492187,-0.3984375 V -6.0929766 c 0,-0.328125 0.02344,-0.3984375 0.492187,-0.3984375 h 0.996094 c 0.621093,0 1.300781,0.2109375 1.816406,0.9257813 0.421875,0.5859375 0.515625,1.4414062 0.515625,2.2148437 z m 0,0"
       style="fill:#000000;fill-opacity:1;fill-rule:nonzero;stroke:none"
       aria-label="A/D"
       transform="matrix(1.3333333,0,0,1.3333333,60.646667,31.456)" />
    <path
       id="path4"
       d="m 60.82164,0 c 0,5.411 -4.38637,9.79736 -9.79738,9.79736 C 45.61325,9.79736 41.2269,5.411 41.2269,0 c 0,-5.411 4.38635,-9.79736 9.79736,-9.79736 5.41101,0 9.79738,4.38636 9.79738,9.79736 z"
       style="fill:none;stroke:#000000;stroke-width:0.3985;stroke-linecap:butt;stroke-linejoin:miter;stroke-miterlimit:10;stroke-dasharray:none;stroke-opacity:1"
       transform="matrix(1.3333333,0,0,-1.3333333,74.022667,28.134667)" />
    <path
       id="path5"
       d="M 3.879875,-2.7648516 1.8876875,-4.7453203 c -0.1289063,-0.1289063 -0.140625,-0.140625 -0.2226563,-0.140625 -0.1054687,0 -0.1992187,0.082031 -0.1992187,0.1992187 0,0.070312 0.023437,0.082031 0.1289062,0.1992188 l 1.9921875,1.9921875 -1.9921875,2.00390624 c -0.1054687,0.1171875 -0.1289062,0.12890625 -0.1289062,0.19921875 0,0.1171875 0.09375,0.19921875 0.1992187,0.19921875 0.082031,0 0.09375,-0.01171875 0.2226563,-0.140625 l 1.9804687,-1.98046874 2.0625,2.06249999 c 0.011719,0.0117188 0.082031,0.05859375 0.1523438,0.05859375 0.1171875,0 0.1992187,-0.08203125 0.1992187,-0.19921875 0,-0.0117188 0,-0.0585938 -0.035156,-0.10546875 -0.011719,-0.0234375 -1.59375,-1.58203124 -2.0976563,-2.09765624 l 1.828125,-1.8164063 c 0.046875,-0.058594 0.1992188,-0.1875 0.2460938,-0.2460937 0.011719,-0.023437 0.058594,-0.058594 0.058594,-0.1289063 0,-0.1171875 -0.082031,-0.1992187 -0.1992187,-0.1992187 -0.082031,0 -0.1289063,0.035156 -0.234375,0.140625 z m 0,0"
       style="fill:#000000;fill-opacity:1;fill-rule:nonzero;stroke:none"
       aria-label="×"
       transform="matrix(1.3333333,0,0,1.3333333,136.88933,31.456)" />
    <path
       id="path6"
       d="m 88.07278,-6.72284 h 27.95148 V 6.72284 H 88.07278 Z"
       style="fill:none;stroke:#000000;stroke-width:0.3985;stroke-linecap:butt;stroke-linejoin:miter;stroke-miterlimit:10;stroke-dasharray:none;stroke-opacity:1"
       transform="matrix(1.3333333,0,0,-1.3333333,74.022667,28.134667)" />
    <path
       id="path7"
       d="m 7.0421484,-3.3506562 c 0,-1.8867188 -1.3476562,-3.4570313 -3.046875,-3.4570313 H 0.35074219 v 0.3164063 h 0.234375 c 0.77343751,0 0.78515621,0.1054687 0.78515621,0.46875 v 5.24999995 c 0,0.3515625 -0.011719,0.46875 -0.78515621,0.46875 h -0.234375 V 9.0625e-4 H 3.9952734 c 1.6757813,0 3.046875,-1.47656245 3.046875,-3.35156245 z m -0.9960937,0 c 0,1.1132812 -0.1875,1.7109375 -0.5507813,2.1914062 -0.1992187,0.26953125 -0.7617187,0.85546875 -1.7695312,0.85546875 H 2.7179297 c -0.46875,0 -0.4921875,-0.0703125 -0.4921875,-0.3984375 V -6.0928437 c 0,-0.328125 0.023437,-0.3984375 0.4921875,-0.3984375 h 0.9960937 c 0.6210938,0 1.3007813,0.2109375 1.8164063,0.9257812 0.421875,0.5859375 0.515625,1.4414063 0.515625,2.2148438 z M 13.692539,-4.53425 13.411289,-6.7725312 H 7.9386328 v 0.3046875 h 0.234375 c 0.7734375,0 0.796875,0.1171875 0.796875,0.46875 v 5.22656245 c 0,0.3515625 -0.023437,0.46875 -0.796875,0.46875 H 7.9386328 V 9.0625e-4 C 8.2901953,-0.03425 9.0636328,-0.03425 9.4503516,-0.03425 c 0.4101562,0 1.3125004,0 1.6757814,0.03515625 v -0.3046875 h -0.328125 c -0.9492189,0 -0.9492189,-0.12890625 -0.9492189,-0.48046875 v -2.4492187 h 0.8554689 c 0.960937,0 1.054687,0.3164062 1.054687,1.1601562 h 0.257813 v -2.6367187 h -0.257813 c 0,0.8320312 -0.09375,1.1601562 -1.054687,1.1601562 H 9.8487891 v -2.5195312 c 0,-0.328125 0.023437,-0.3984375 0.4921879,-0.3984375 h 1.195312 c 1.488281,0 1.746094,0.5625 1.898438,1.9335937 z m 7.245117,0.035156 -0.1875,-2.2382813 h -6.082031 l -0.1875,2.2382813 h 0.246094 c 0.140625,-1.6054688 0.292969,-1.9335938 1.792969,-1.9335938 0.175781,0 0.433593,0 0.539062,0.023437 0.210938,0.035156 0.210938,0.140625 0.210938,0.375 v 5.25 c 0,0.33984375 0,0.48046875 -1.054688,0.48046875 H 15.816563 V 9.0625e-4 C 16.226719,-0.03425 17.24625,-0.03425 17.703281,-0.03425 c 0.457032,0 1.488282,0 1.898438,0.03515625 v -0.3046875 h -0.398438 c -1.054687,0 -1.054687,-0.140625 -1.054687,-0.48046875 v -5.25 c 0,-0.1992187 0,-0.3398437 0.1875,-0.375 0.105469,-0.023437 0.375,-0.023437 0.5625,-0.023437 1.5,0 1.652344,0.328125 1.792969,1.9335938 z m 0,0"
       style="fill:#000000;fill-opacity:1;fill-rule:nonzero;stroke:none"
       aria-label="DFT"
       transform="matrix(1.3333333,0,0,1.3333333,195.88,32.670667)" />
    <path
       id="path8"
       d="m -51.02426,0 h 37.07344"
       style="fill:none;stroke:#000000;stroke-width:0.3985;stroke-linecap:butt;stroke-linejoin:miter;stroke-miterlimit:10;stroke-dasharray:none;stroke-opacity:1"
       transform="matrix(1.3333333,0,0,-1.3333333,74.022667,28.134667)" />
    <path
       id="path9"
       d="M -2.07224,2.39104 C -1.69365,0.95639 -0.84999,0.27895 0,0 -0.84999,-0.27895 -1.69365,-0.95639 -2.07224,-2.39104"
       style="fill:none;stroke:#000000;stroke-width:0.3985;stroke-linecap:round;stroke-linejoin:round;stroke-miterlimit:10;stroke-dasharray:none;stroke-opacity:1"
       transform="matrix(1.3333333,0,0,-1.3333333,55.68724,28.134667)" />
    <g
       id="g9"
       aria-label="x&#10;a&#10;(t)"
       transform="matrix(1.3333333,0,0,1.3333333,16.398667,20.12)">
      <path
         id="path10"
         d="m 3.3279531,-3.0108984 c 0.058594,-0.2578125 0.2929688,-1.171875 0.984375,-1.171875 0.046875,0 0.2929688,0 0.5039063,0.1289062 -0.28125,0.046875 -0.4804688,0.3046875 -0.4804688,0.5390625 0,0.1640625 0.1054688,0.3515625 0.375,0.3515625 0.2226563,0 0.5390625,-0.1875 0.5390625,-0.5859375 0,-0.515625 -0.5859375,-0.65625 -0.9257812,-0.65625 -0.5742188,0 -0.9257813,0.5273438 -1.0429688,0.7617188 -0.2578125,-0.65625 -0.7851562,-0.7617188 -1.078125,-0.7617188 -1.0429687,0 -1.60546873,1.2890625 -1.60546873,1.5351563 0,0.1054687 0.10546875,0.1054687 0.1171875,0.1054687 0.0820313,0 0.1171875,-0.023437 0.12890625,-0.1171875 0.33984378,-1.0546875 0.99609378,-1.3007812 1.33593748,-1.3007812 0.1875,0 0.5390625,0.09375 0.5390625,0.6679687 0,0.3046875 -0.1640625,0.9726563 -0.5390625,2.3671875 -0.1523437,0.62109376 -0.5039062,1.04296876 -0.9492187,1.04296876 -0.058594,0 -0.28125003,0 -0.49218753,-0.12890625 0.24609375,-0.0585938 0.46875003,-0.26953125 0.46875003,-0.5390625 0,-0.26953121 -0.22265628,-0.35156251 -0.37500003,-0.35156251 -0.29296875,0 -0.5390625,0.25781251 -0.5390625,0.57421876 0,0.45703125 0.4921875,0.65625 0.93750003,0.65625 0.65625,0 1.0078125,-0.69140625 1.0429687,-0.75 0.1171875,0.36328125 0.4804688,0.75 1.078125,0.75 1.0195313,0 1.59375,-1.27734376 1.59375,-1.53515626 0,-0.09375 -0.09375,-0.09375 -0.1289062,-0.09375 -0.082031,0 -0.1054688,0.035156 -0.1289063,0.1054688 -0.328125,1.06640621 -0.9960937,1.31249996 -1.3242187,1.31249996 -0.3867188,0 -0.5390625,-0.328125 -0.5390625,-0.65625 0,-0.22265625 0.058594,-0.44531246 0.1640625,-0.87890626 z m 0,0"
         style="fill:#000000;fill-opacity:1;fill-rule:nonzero;stroke:none" />
      <path
         id="path11"
         d="m 8.6365469,-1.1651953 c -0.140625,-0.234375 -0.3867188,-0.4101563 -0.7148438,-0.4101563 -0.890625,0 -1.8046875,0.97265629 -1.8046875,1.98046879 0,0.67968751 0.4570313,1.16015621 1.0546875,1.16015621 0.375,0 0.7148438,-0.2109375 0.9960938,-0.4921875 0.1289062,0.421875 0.5273437,0.4921875 0.7148437,0.4921875 0.2460938,0 0.421875,-0.1523437 0.5507813,-0.375 0.1523437,-0.26953121 0.2460937,-0.66796871 0.2460937,-0.69140621 0,-0.09375 -0.09375,-0.09375 -0.1171875,-0.09375 -0.09375,0 -0.1054687,0.0351563 -0.1523437,0.22265625 -0.082031,0.328125 -0.2109375,0.73828126 -0.5039063,0.73828126 -0.1875,0 -0.234375,-0.1523438 -0.234375,-0.3398438 0,-0.11718746 0.058594,-0.36328121 0.1054688,-0.55078121 0.046875,-0.1875 0.1171875,-0.46875 0.1523437,-0.62109375 l 0.140625,-0.5390625 c 0.046875,-0.17578125 0.1289063,-0.50390624 0.1289063,-0.53906254 0,-0.1523437 -0.1289063,-0.2226562 -0.2460938,-0.2226562 -0.1171875,0 -0.2695312,0.082031 -0.3164062,0.28125 z M 8.1912344,0.62777344 c -0.046875,0.1875 -0.1992188,0.328125 -0.3515625,0.45703126 -0.070312,0.058594 -0.3398438,0.28125 -0.6445313,0.28125 -0.2578125,0 -0.515625,-0.1757813 -0.515625,-0.66796876 0,-0.375 0.2109375,-1.13671875 0.3632813,-1.41796875 0.328125,-0.56249999 0.6796875,-0.66796879 0.8789062,-0.66796879 0.4804688,0 0.6210938,0.52734379 0.6210938,0.60937504 0,0.0234375 -0.011719,0.0820313 -0.023437,0.09375 z m 0,0"
         style="fill:#000000;fill-opacity:1;fill-rule:nonzero;stroke:none" />
      <path
         id="path12"
         d="m 13.804516,2.3914453 c 0,-0.035156 0,-0.046875 -0.164063,-0.2226562 -1.242187,-1.25390629 -1.570312,-3.12890629 -1.570312,-4.6640625 0,-1.7226563 0.386718,-3.4570313 1.605468,-4.7109375 0.128907,-0.1171875 0.128907,-0.1289063 0.128907,-0.1640625 0,-0.070312 -0.03516,-0.1054688 -0.09375,-0.1054688 -0.105469,0 -0.996094,0.6796875 -1.582032,1.9453125 -0.515625,1.1015625 -0.632812,2.203125 -0.632812,3.0351563 0,0.7851562 0.117187,1.99218746 0.65625,3.11718746 0.597656,1.21875004 1.453125,1.87500004 1.558594,1.87500004 0.05859,0 0.09375,-0.035156 0.09375,-0.1054688 z m 0,0"
         style="fill:#000000;fill-opacity:1;fill-rule:nonzero;stroke:none" />
      <path
         id="path13"
         d="m 16.438305,-3.9835547 h 0.9375 c 0.199218,0 0.304687,0 0.304687,-0.1992187 0,-0.1054688 -0.105469,-0.1054688 -0.28125,-0.1054688 h -0.878906 c 0.363281,-1.4179687 0.410156,-1.6171875 0.410156,-1.6757812 0,-0.1757813 -0.117187,-0.2695313 -0.292969,-0.2695313 -0.02344,0 -0.304687,0.011719 -0.398437,0.3515625 l -0.386719,1.59375 h -0.9375 c -0.199219,0 -0.292969,0 -0.292969,0.1875 0,0.1171875 0.07031,0.1171875 0.269532,0.1171875 h 0.878906 c -0.714844,2.8242188 -0.75,3.00000001 -0.75,3.17578126 0,0.5390625 0.375,0.9140625 0.914062,0.9140625 1.007813,0 1.582032,-1.45312496 1.582032,-1.53515626 0,-0.09375 -0.08203,-0.09375 -0.117188,-0.09375 -0.09375,0 -0.105469,0.023437 -0.152344,0.140625 -0.433593,1.03125001 -0.960937,1.27734376 -1.300781,1.27734376 -0.199219,0 -0.304687,-0.12890625 -0.304687,-0.45703125 0,-0.24609375 0.02344,-0.31640625 0.05859,-0.48046871 z m 0,0"
         style="fill:#000000;fill-opacity:1;fill-rule:nonzero;stroke:none" />
      <path
         id="path14"
         d="m 20.867992,-2.4952734 c 0,-0.7734375 -0.117187,-1.9804688 -0.65625,-3.1054688 -0.597656,-1.21875 -1.464844,-1.875 -1.558594,-1.875 -0.05859,0 -0.105468,0.046875 -0.105468,0.1054688 0,0.035156 0,0.046875 0.199218,0.234375 0.972657,0.984375 1.535157,2.5664062 1.535157,4.640625 0,1.71093746 -0.363282,3.45703121 -1.59375,4.7226562 -0.140625,0.1171875 -0.140625,0.1289063 -0.140625,0.1640625 0,0.058594 0.04687,0.1054688 0.105468,0.1054688 0.09375,0 0.996094,-0.6796875 1.582032,-1.94531254 0.503906,-1.1015625 0.632812,-2.20312496 0.632812,-3.04687496 z m 0,0"
         style="fill:#000000;fill-opacity:1;fill-rule:nonzero;stroke:none" />
    </g>
    <path
       id="path15"
       d="M 0,-28.3468 V -8.89969"
       style="fill:none;stroke:#000000;stroke-width:0.3985;stroke-linecap:butt;stroke-linejoin:miter;stroke-miterlimit:10;stroke-dasharray:none;stroke-opacity:1"
       transform="matrix(1.3333333,0,0,-1.3333333,74.022667,28.134667)" />
    <path
       id="path16"
       d="M -2.07224,2.39104 C -1.69365,0.95639 -0.84999,0.27895 0,0 -0.84999,-0.27895 -1.69365,-0.95639 -2.07224,-2.39104"
       style="fill:none;stroke:#000000;stroke-width:0.3985;stroke-linecap:round;stroke-linejoin:round;stroke-miterlimit:10;stroke-dasharray:none;stroke-opacity:1"
       transform="matrix(0,-1.3333333,-1.3333333,0,74.022667,39.735253)" />
    <g
       id="g16"
       aria-label="f&#10;s"
       transform="matrix(1.3333333,0,0,1.3333333,78.716,56.021333)">
      <path
         id="path17"
         d="m 3.6553828,-3.9857266 h 0.8554688 c 0.1992187,0 0.3046875,0 0.3046875,-0.1992187 0,-0.1054688 -0.1054688,-0.1054688 -0.2695313,-0.1054688 H 3.7139766 l 0.2109375,-1.1367187 c 0.035156,-0.2109375 0.1757812,-0.9140625 0.234375,-1.0429688 0.09375,-0.1875 0.2578125,-0.3398437 0.46875,-0.3398437 0.046875,0 0.3046875,0 0.4921875,0.1875 -0.4335938,0.035156 -0.5390625,0.3867187 -0.5390625,0.5390625 0,0.2226562 0.1757812,0.3398437 0.3632812,0.3398437 0.2695313,0 0.5507813,-0.2109375 0.5507813,-0.5976562 0,-0.4570313 -0.4570313,-0.6796875 -0.8671875,-0.6796875 -0.3398438,0 -0.9609375,0.1757812 -1.265625,1.1601562 -0.058594,0.2109375 -0.082031,0.3164063 -0.328125,1.5703125 H 2.3546016 c -0.1992188,0 -0.3046875,0 -0.3046875,0.1875 0,0.1171875 0.09375,0.1171875 0.28125,0.1171875 h 0.65625 l -0.75,3.93750004 C 2.0616328,0.91271094 1.8975703,1.8267734 1.3702266,1.8267734 c -0.035156,0 -0.28125,0 -0.46875004,-0.1875 C 1.3585078,1.6158359 1.4405391,1.2525547 1.4405391,1.1002109 c 0,-0.22265621 -0.1757813,-0.33984371 -0.3632813,-0.33984371 -0.25781249,0 -0.55078124,0.2109375 -0.55078124,0.59765621 0,0.4453125 0.43359375,0.6796875 0.84375004,0.6796875 0.5507812,0 0.9492187,-0.5859375 1.125,-0.9609375 0.328125,-0.63281246 0.5507812,-1.83984371 0.5625,-1.91015621 z m 0,0"
         style="fill:#000000;fill-opacity:1;fill-rule:nonzero;stroke:none" />
      <path
         id="path18"
         d="m 7.8770625,-1.1322109 c -0.1757813,0.046875 -0.2929688,0.18749996 -0.2929688,0.32812496 0,0.1640625 0.140625,0.22265625 0.234375,0.22265625 0.070312,0 0.3398438,-0.0351563 0.3398438,-0.3984375 0,-0.44531251 -0.5039063,-0.59765621 -0.9257813,-0.59765621 -1.0898437,0 -1.2890625,0.79687496 -1.2890625,1.00781246 0,0.2578125 0.1523438,0.43359375 0.2460938,0.515625 0.1757812,0.140625 0.3046875,0.1640625 0.7851562,0.24609375 0.1523438,0.0351563 0.5976563,0.1171875 0.5976563,0.46875 0,0.1171875 -0.082031,0.37499999 -0.375,0.55078129 C 6.9278437,1.3638828 6.588,1.3638828 6.5059687,1.3638828 c -0.28125,0 -0.6796875,-0.058594 -0.84375,-0.2929687 0.234375,-0.023437 0.3867188,-0.19921879 0.3867188,-0.39843754 0,-0.1640625 -0.1289063,-0.2578125 -0.2695313,-0.2578125 -0.1992187,0 -0.4101562,0.1640625 -0.4101562,0.46875 0,0.42187504 0.4453125,0.67968754 1.125,0.67968754 1.2890625,0 1.5234375,-0.87890629 1.5234375,-1.14843754 0,-0.64453125 -0.703125,-0.7734375 -0.9609375,-0.8203125 -0.070312,-0.0117188 -0.2460938,-0.0351563 -0.28125,-0.0585938 -0.2578125,-0.046875 -0.3867188,-0.1875 -0.3867188,-0.33984375 0,-0.1640625 0.1289063,-0.35156251 0.28125,-0.44531251 0.1875,-0.1289062 0.4335938,-0.140625 0.5507813,-0.140625 0.140625,0 0.5039062,0.023437 0.65625,0.2578126 z m 0,0"
         style="fill:#000000;fill-opacity:1;fill-rule:nonzero;stroke:none" />
    </g>
    <path
       id="path19"
       d="M 13.5523,0 H 40.62914"
       style="fill:none;stroke:#000000;stroke-width:0.3985;stroke-linecap:butt;stroke-linejoin:miter;stroke-miterlimit:10;stroke-dasharray:none;stroke-opacity:1"
       transform="matrix(1.3333333,0,0,-1.3333333,74.022667,28.134667)" />
    <path
       id="path20"
       d="M -2.07224,2.39104 C -1.69365,0.95639 -0.84999,0.27895 0,0 -0.84999,-0.27895 -1.69365,-0.95639 -2.07224,-2.39104"
       style="fill:none;stroke:#000000;stroke-width:0.3985;stroke-linecap:round;stroke-linejoin:round;stroke-miterlimit:10;stroke-dasharray:none;stroke-opacity:1"
       transform="matrix(1.3333333,0,0,-1.3333333,128.46051,28.134667)" />
    <g
       id="g20"
       aria-label="x(n)"
       transform="matrix(1.3333333,0,0,1.3333333,97.461333,20.12)">
      <path
         id="path21"
         d="m 3.3278281,-3.0108984 c 0.058594,-0.2578125 0.2929688,-1.171875 0.984375,-1.171875 0.046875,0 0.2929688,0 0.5039063,0.1289062 -0.28125,0.046875 -0.4804688,0.3046875 -0.4804688,0.5390625 0,0.1640625 0.1054688,0.3515625 0.375,0.3515625 0.2226563,0 0.5390625,-0.1875 0.5390625,-0.5859375 0,-0.515625 -0.5859375,-0.65625 -0.9257812,-0.65625 -0.5742188,0 -0.9257813,0.5273438 -1.0429688,0.7617188 -0.2578125,-0.65625 -0.7851562,-0.7617188 -1.078125,-0.7617188 -1.0429687,0 -1.60546873,1.2890625 -1.60546873,1.5351563 0,0.1054687 0.10546875,0.1054687 0.1171875,0.1054687 0.0820313,0 0.1171875,-0.023437 0.12890625,-0.1171875 0.33984378,-1.0546875 0.99609378,-1.3007812 1.33593748,-1.3007812 0.1875,0 0.5390625,0.09375 0.5390625,0.6679687 0,0.3046875 -0.1640625,0.9726563 -0.5390625,2.3671875 -0.1523437,0.62109376 -0.5039062,1.04296876 -0.9492187,1.04296876 -0.058594,0 -0.28125003,0 -0.49218753,-0.12890625 0.24609375,-0.0585938 0.46875003,-0.26953125 0.46875003,-0.5390625 0,-0.26953121 -0.22265628,-0.35156251 -0.37500003,-0.35156251 -0.29296875,0 -0.5390625,0.25781251 -0.5390625,0.57421876 0,0.45703125 0.4921875,0.65625 0.93750003,0.65625 0.65625,0 1.0078125,-0.69140625 1.0429687,-0.75 0.1171875,0.36328125 0.4804688,0.75 1.078125,0.75 1.0195313,0 1.59375,-1.27734376 1.59375,-1.53515626 0,-0.09375 -0.09375,-0.09375 -0.1289062,-0.09375 -0.082031,0 -0.1054688,0.035156 -0.1289063,0.1054688 -0.328125,1.06640621 -0.9960937,1.31249996 -1.3242187,1.31249996 -0.3867188,0 -0.5390625,-0.328125 -0.5390625,-0.65625 0,-0.22265625 0.058594,-0.44531246 0.1640625,-0.87890626 z m 0,0"
         style="fill:#000000;fill-opacity:1;fill-rule:nonzero;stroke:none" />
      <path
         id="path22"
         d="m 8.9879844,2.3914453 c 0,-0.035156 0,-0.046875 -0.1640625,-0.2226562 -1.2421875,-1.25390629 -1.5703125,-3.12890629 -1.5703125,-4.6640625 0,-1.7226563 0.3867187,-3.4570313 1.6054687,-4.7109375 0.1289063,-0.1171875 0.1289063,-0.1289063 0.1289063,-0.1640625 0,-0.070312 -0.035156,-0.1054688 -0.09375,-0.1054688 -0.1054688,0 -0.9960938,0.6796875 -1.5820313,1.9453125 -0.515625,1.1015625 -0.6328125,2.203125 -0.6328125,3.0351563 0,0.7851562 0.1171875,1.99218746 0.65625,3.11718746 0.5976563,1.21875004 1.453125,1.87500004 1.5585938,1.87500004 0.058594,0 0.09375,-0.035156 0.09375,-0.1054688 z m 0,0"
         style="fill:#000000;fill-opacity:1;fill-rule:nonzero;stroke:none" />
      <path
         id="path23"
         d="m 10.446969,-0.58511719 c -0.03516,0.15234375 -0.09375,0.375 -0.09375,0.421875 0,0.1875 0.140625,0.26953125 0.292968,0.26953125 0.117188,0 0.292969,-0.0703125 0.363282,-0.26953125 0.01172,-0.0234375 0.128906,-0.4921875 0.1875,-0.73828125 l 0.222656,-0.90234376 c 0.05859,-0.2226562 0.117187,-0.4335937 0.175781,-0.6679687 0.03516,-0.1640625 0.117188,-0.4570313 0.128906,-0.4921875 0.140625,-0.3164063 0.667969,-1.21875 1.617188,-1.21875 0.445312,0 0.539062,0.3632812 0.539062,0.6914062 0,0.6210938 -0.492187,1.8984375 -0.644531,2.3320313 -0.09375,0.22265621 -0.105469,0.33984371 -0.105469,0.45703121 0,0.46875 0.351563,0.80859375 0.820313,0.80859375 0.9375,0 1.300781,-1.45312496 1.300781,-1.53515626 0,-0.09375 -0.08203,-0.09375 -0.117187,-0.09375 -0.09375,0 -0.09375,0.023437 -0.152344,0.1757813 -0.199219,0.67968746 -0.527344,1.24218746 -1.007813,1.24218746 -0.175781,0 -0.246093,-0.10546875 -0.246093,-0.328125 0,-0.2578125 0.09375,-0.4921875 0.1875,-0.71484376 0.1875,-0.5273437 0.597656,-1.6171875 0.597656,-2.1914062 0,-0.6679688 -0.421875,-1.0664063 -1.136719,-1.0664063 -0.902344,0 -1.382812,0.6445313 -1.558594,0.8671875 -0.04687,-0.5507812 -0.457031,-0.8671875 -0.914062,-0.8671875 -0.457031,0 -0.644531,0.3867188 -0.75,0.5742188 -0.152344,0.3398437 -0.2929688,0.9257812 -0.2929688,0.9609375 0,0.1054687 0.09375,0.1054687 0.1171875,0.1054687 0.09375,0 0.1054683,-0.011719 0.1640623,-0.234375 0.175781,-0.703125 0.375,-1.1835937 0.726563,-1.1835937 0.199218,0 0.316406,0.1289062 0.316406,0.4570312 0,0.2109375 -0.03516,0.3164063 -0.164063,0.8320313 z m 0,0"
         style="fill:#000000;fill-opacity:1;fill-rule:nonzero;stroke:none" />
      <path
         id="path24"
         d="m 18.430367,-2.4952734 c 0,-0.7734375 -0.117187,-1.9804688 -0.65625,-3.1054688 -0.597656,-1.21875 -1.464844,-1.875 -1.558594,-1.875 -0.05859,0 -0.105468,0.046875 -0.105468,0.1054688 0,0.035156 0,0.046875 0.199218,0.234375 0.972657,0.984375 1.535157,2.5664062 1.535157,4.640625 0,1.71093746 -0.363282,3.45703121 -1.59375,4.7226562 -0.140625,0.1171875 -0.140625,0.1289063 -0.140625,0.1640625 0,0.058594 0.04687,0.1054688 0.105468,0.1054688 0.09375,0 0.996094,-0.6796875 1.582032,-1.94531254 0.503906,-1.1015625 0.632812,-2.20312496 0.632812,-3.04687496 z m 0,0"
         style="fill:#000000;fill-opacity:1;fill-rule:nonzero;stroke:none" />
    </g>
    <path
       id="path25"
       d="m 51.02426,-28.3468 v 17.95167"
       style="fill:none;stroke:#000000;stroke-width:0.3985;stroke-linecap:butt;stroke-linejoin:miter;stroke-miterlimit:10;stroke-dasharray:none;stroke-opacity:1"
       transform="matrix(1.3333333,0,0,-1.3333333,74.022667,28.134667)" />
    <path
       id="path26"
       d="M -2.07224,2.39104 C -1.69365,0.95639 -0.84999,0.27895 0,0 -0.84999,-0.27895 -1.69365,-0.95639 -2.07224,-2.39104"
       style="fill:none;stroke:#000000;stroke-width:0.3985;stroke-linecap:round;stroke-linejoin:round;stroke-miterlimit:10;stroke-dasharray:none;stroke-opacity:1"
       transform="matrix(0,-1.3333333,-1.3333333,0,142.05501,41.729147)" />
    <g
       id="g26"
       aria-label="w(n)"
       transform="matrix(1.3333333,0,0,1.3333333,146.748,57.017333)">
      <path
         id="path27"
         d="m 4.6040391,-3.3762812 c 0.046875,-0.2226563 0.140625,-0.5859375 0.140625,-0.6445313 0,-0.1875 -0.1289063,-0.2695312 -0.28125,-0.2695312 -0.1171875,0 -0.3046875,0.070312 -0.375,0.2695312 -0.023437,0.070312 -0.4921875,1.9804688 -0.5625,2.2382813 -0.070312,0.2929687 -0.09375,0.4804687 -0.09375,0.65625 0,0.1054687 0,0.1289062 0.011719,0.1757812 -0.2226562,0.52734375 -0.5273437,0.84375 -0.9140625,0.84375 -0.796875,0 -0.796875,-0.73828125 -0.796875,-0.9140625 0,-0.3164062 0.046875,-0.703125 0.515625,-1.9335937 0.1054685,-0.2929688 0.175781,-0.4335938 0.175781,-0.6328125 0,-0.4453125 -0.328125,-0.8203125 -0.8203125,-0.8203125 -0.94921879,0 -1.31250004,1.453125 -1.31250004,1.5351562 0,0.1054688 0.09375,0.1054688 0.1171875,0.1054688 0.09375,0 0.10546875,-0.023437 0.15234375,-0.1875 0.26953125,-0.9257813 0.66796879,-1.2304688 1.00781249,-1.2304688 0.09375,0 0.2578125,0.011719 0.2578125,0.328125 0,0.2460938 -0.1171875,0.5273438 -0.1875,0.703125 -0.4335937,1.171875 -0.5507812,1.6289063 -0.5507812,2.0039063 0,0.91406245 0.6679687,1.2539062 1.40625,1.2539062 0.1757812,0 0.6445312,0 1.0429687,-0.69140625 0.2578125,0.6328125 0.9492188,0.69140625 1.2421875,0.69140625 0.75,0 1.1835938,-0.62109375 1.4414063,-1.21875 0.3398437,-0.7851562 0.65625,-2.109375 0.65625,-2.5898437 0,-0.5507813 -0.2695313,-0.703125 -0.4335938,-0.703125 -0.2460937,0 -0.5039062,0.2578125 -0.5039062,0.4804687 0,0.1289063 0.070312,0.1875 0.1523437,0.2695313 0.1171875,0.1054687 0.3632813,0.3632812 0.3632813,0.84375 0,0.3398437 -0.2929688,1.3125 -0.5507813,1.82812495 C 5.6470078,-0.4583125 5.2954453,-0.10675 4.8149766,-0.10675 c -0.46875,0 -0.7382813,-0.3046875 -0.7382813,-0.8671875 0,-0.28125 0.070312,-0.5859375 0.1054688,-0.7265625 z m 0,0"
         style="fill:#000000;fill-opacity:1;fill-rule:nonzero;stroke:none" />
      <path
         id="path28"
         d="m 10.69193,2.3893438 c 0,-0.035156 0,-0.046875 -0.164063,-0.2226563 C 9.2856797,0.91278125 8.9575547,-0.96221875 8.9575547,-2.497375 c 0,-1.7226562 0.3867187,-3.4570312 1.6054683,-4.7109375 0.128907,-0.1171875 0.128907,-0.1289062 0.128907,-0.1640625 0,-0.070312 -0.03516,-0.1054687 -0.09375,-0.1054687 -0.105469,0 -0.9960941,0.6796875 -1.5820316,1.9453125 -0.515625,1.1015625 -0.6328125,2.203125 -0.6328125,3.0351562 0,0.7851563 0.1171875,1.9921875 0.65625,3.1171875 0.5976563,1.21875 1.4531251,1.875 1.5585941,1.875 0.05859,0 0.09375,-0.035156 0.09375,-0.1054687 z m 0,0"
         style="fill:#000000;fill-opacity:1;fill-rule:nonzero;stroke:none" />
      <path
         id="path29"
         d="m 12.153844,-0.58721875 c -0.03516,0.15234375 -0.09375,0.375 -0.09375,0.421875 0,0.1875 0.140625,0.26953125 0.292969,0.26953125 0.117187,0 0.292968,-0.0703125 0.363281,-0.26953125 0.01172,-0.0234375 0.128906,-0.4921875 0.1875,-0.73828125 L 13.1265,-1.8059687 c 0.05859,-0.2226563 0.117188,-0.4335938 0.175781,-0.6679688 0.03516,-0.1640625 0.117188,-0.4570312 0.128907,-0.4921875 0.140625,-0.3164062 0.667968,-1.21875 1.617187,-1.21875 0.445313,0 0.539063,0.3632813 0.539063,0.6914063 0,0.6210937 -0.492188,1.8984375 -0.644532,2.3320312 -0.09375,0.22265625 -0.105468,0.33984375 -0.105468,0.45703125 0,0.46875 0.351562,0.80859375 0.820312,0.80859375 0.9375,0 1.300781,-1.453125 1.300781,-1.5351562 0,-0.09375 -0.08203,-0.09375 -0.117187,-0.09375 -0.09375,0 -0.09375,0.023437 -0.152344,0.1757812 -0.199219,0.6796875 -0.527344,1.2421875 -1.007812,1.2421875 -0.175782,0 -0.246094,-0.10546875 -0.246094,-0.328125 0,-0.2578125 0.09375,-0.4921875 0.1875,-0.7148437 0.1875,-0.5273438 0.597656,-1.6171875 0.597656,-2.1914063 0,-0.6679687 -0.421875,-1.0664062 -1.136719,-1.0664062 -0.902343,0 -1.382812,0.6445312 -1.558593,0.8671875 -0.04687,-0.5507813 -0.457032,-0.8671875 -0.914063,-0.8671875 -0.457031,0 -0.644531,0.3867187 -0.75,0.5742187 -0.152344,0.3398438 -0.292969,0.9257813 -0.292969,0.9609375 0,0.1054688 0.09375,0.1054688 0.117188,0.1054688 0.09375,0 0.105469,-0.011719 0.164062,-0.234375 0.175782,-0.703125 0.375,-1.1835938 0.726563,-1.1835938 0.199219,0 0.316406,0.1289063 0.316406,0.4570313 0,0.2109375 -0.03516,0.3164062 -0.164062,0.8320312 z m 0,0"
         style="fill:#000000;fill-opacity:1;fill-rule:nonzero;stroke:none" />
      <path
         id="path30"
         d="m 20.137242,-2.497375 c 0,-0.7734375 -0.117187,-1.9804687 -0.65625,-3.1054687 -0.597656,-1.21875 -1.464844,-1.875 -1.558594,-1.875 -0.05859,0 -0.105468,0.046875 -0.105468,0.1054687 0,0.035156 0,0.046875 0.199218,0.234375 0.972657,0.984375 1.535157,2.5664063 1.535157,4.640625 0,1.7109375 -0.363282,3.45703125 -1.59375,4.7226563 -0.140625,0.1171875 -0.140625,0.1289062 -0.140625,0.1640625 0,0.058594 0.04687,0.1054687 0.105468,0.1054687 0.09375,0 0.996094,-0.6796875 1.582032,-1.9453125 0.503906,-1.1015625 0.632812,-2.203125 0.632812,-3.046875 z m 0,0"
         style="fill:#000000;fill-opacity:1;fill-rule:nonzero;stroke:none" />
    </g>
    <path
       id="path31"
       d="M 61.02089,0 H 87.47504"
       style="fill:none;stroke:#000000;stroke-width:0.3985;stroke-linecap:butt;stroke-linejoin:miter;stroke-miterlimit:10;stroke-dasharray:none;stroke-opacity:1"
       transform="matrix(1.3333333,0,0,-1.3333333,74.022667,28.134667)" />
    <path
       id="path32"
       d="M -2.07224,2.39104 C -1.69365,0.95639 -0.84999,0.27895 0,0 -0.84999,-0.27895 -1.69365,-0.95639 -2.07224,-2.39104"
       style="fill:none;stroke:#000000;stroke-width:0.3985;stroke-linecap:round;stroke-linejoin:round;stroke-miterlimit:10;stroke-dasharray:none;stroke-opacity:1"
       transform="matrix(1.3333333,0,0,-1.3333333,190.92172,28.134667)" />
    <g
       id="g32"
       aria-label="s(n)"
       transform="matrix(1.3333333,0,0,1.3333333,161.02,20.12)">
      <path
         id="path33"
         d="m 3.8902734,-3.7257422 c -0.2695312,0.011719 -0.46875,0.234375 -0.46875,0.4453125 0,0.140625 0.082031,0.2929688 0.3046875,0.2929688 0.2226563,0 0.4570313,-0.1640625 0.4570313,-0.5625 0,-0.4453125 -0.4335938,-0.8554688 -1.1835938,-0.8554688 -1.3125,0 -1.6875,1.0195313 -1.6875,1.453125 0,0.7851563 0.7382813,0.9257813 1.03125,0.9960938 0.515625,0.09375 1.03125,0.1992187 1.03125,0.75 0,0.25781246 -0.2226562,1.10156246 -1.4179687,1.10156246 -0.140625,0 -0.9140625,0 -1.13671876,-0.52734375 0.37499996,0.046875 0.62109376,-0.2578125 0.62109376,-0.52734371 0,-0.234375 -0.1523438,-0.3515625 -0.3632813,-0.3515625 -0.25781246,0 -0.56249996,0.2109375 -0.56249996,0.65624996 0,0.5625 0.57421876,0.9609375 1.42968746,0.9609375 1.6054688,0 2.0039063,-1.20703126 2.0039063,-1.65234376 0,-0.3515625 -0.1992188,-0.609375 -0.3164063,-0.7265625 -0.2695312,-0.28125 -0.5507812,-0.328125 -0.9960937,-0.421875 -0.3515625,-0.070312 -0.75,-0.140625 -0.75,-0.5976562 0,-0.28125 0.234375,-0.890625 1.1132812,-0.890625 0.2460938,0 0.75,0.070312 0.890625,0.4570312 z m 0,0"
         style="fill:#000000;fill-opacity:1;fill-rule:nonzero;stroke:none" />
      <path
         id="path34"
         d="m 7.9625391,2.3914453 c 0,-0.035156 0,-0.046875 -0.1640625,-0.2226562 -1.2421875,-1.25390629 -1.5703125,-3.12890629 -1.5703125,-4.6640625 0,-1.7226563 0.3867187,-3.4570313 1.6054687,-4.7109375 0.1289063,-0.1171875 0.1289063,-0.1289063 0.1289063,-0.1640625 0,-0.070312 -0.035156,-0.1054688 -0.09375,-0.1054688 -0.1054688,0 -0.9960938,0.6796875 -1.5820313,1.9453125 -0.515625,1.1015625 -0.6328125,2.203125 -0.6328125,3.0351563 0,0.7851562 0.1171875,1.99218746 0.65625,3.11718746 0.5976563,1.21875004 1.453125,1.87500004 1.5585938,1.87500004 0.058594,0 0.09375,-0.035156 0.09375,-0.1054688 z m 0,0"
         style="fill:#000000;fill-opacity:1;fill-rule:nonzero;stroke:none" />
      <path
         id="path35"
         d="m 9.4215234,-0.58511719 c -0.035156,0.15234375 -0.09375,0.375 -0.09375,0.421875 0,0.1875 0.140625,0.26953125 0.2929688,0.26953125 0.1171875,0 0.2929687,-0.0703125 0.3632812,-0.26953125 0.011719,-0.0234375 0.1289066,-0.4921875 0.1874996,-0.73828125 L 10.39418,-1.8038672 c 0.05859,-0.2226562 0.117187,-0.4335937 0.175781,-0.6679687 0.03516,-0.1640625 0.117187,-0.4570313 0.128906,-0.4921875 0.140625,-0.3164063 0.667969,-1.21875 1.617188,-1.21875 0.445312,0 0.539062,0.3632812 0.539062,0.6914062 0,0.6210938 -0.492187,1.8984375 -0.644531,2.3320313 -0.09375,0.22265621 -0.105469,0.33984371 -0.105469,0.45703121 0,0.46875 0.351563,0.80859375 0.820313,0.80859375 0.9375,0 1.300781,-1.45312496 1.300781,-1.53515626 0,-0.09375 -0.08203,-0.09375 -0.117188,-0.09375 -0.09375,0 -0.09375,0.023437 -0.152343,0.1757813 -0.199219,0.67968746 -0.527344,1.24218746 -1.007813,1.24218746 -0.175781,0 -0.246094,-0.10546875 -0.246094,-0.328125 0,-0.2578125 0.09375,-0.4921875 0.1875,-0.71484376 0.1875,-0.5273437 0.597657,-1.6171875 0.597657,-2.1914062 0,-0.6679688 -0.421875,-1.0664063 -1.136719,-1.0664063 -0.902344,0 -1.382813,0.6445313 -1.558594,0.8671875 -0.04687,-0.5507812 -0.457031,-0.8671875 -0.9140623,-0.8671875 -0.4570313,0 -0.6445313,0.3867188 -0.75,0.5742188 -0.1523438,0.3398437 -0.2929688,0.9257812 -0.2929688,0.9609375 0,0.1054687 0.09375,0.1054687 0.1171875,0.1054687 0.09375,0 0.1054688,-0.011719 0.1640625,-0.234375 0.1757813,-0.703125 0.375,-1.1835937 0.7265625,-1.1835937 0.1992186,0 0.3164066,0.1289062 0.3164066,0.4570312 0,0.2109375 -0.03516,0.3164063 -0.1640628,0.8320313 z m 0,0"
         style="fill:#000000;fill-opacity:1;fill-rule:nonzero;stroke:none" />
      <path
         id="path36"
         d="m 17.407852,-2.4952734 c 0,-0.7734375 -0.117188,-1.9804688 -0.65625,-3.1054688 -0.597657,-1.21875 -1.464844,-1.875 -1.558594,-1.875 -0.05859,0 -0.105469,0.046875 -0.105469,0.1054688 0,0.035156 0,0.046875 0.199219,0.234375 0.972656,0.984375 1.535156,2.5664062 1.535156,4.640625 0,1.71093746 -0.363281,3.45703121 -1.59375,4.7226562 -0.140625,0.1171875 -0.140625,0.1289063 -0.140625,0.1640625 0,0.058594 0.04687,0.1054688 0.105469,0.1054688 0.09375,0 0.996094,-0.6796875 1.582031,-1.94531254 0.503906,-1.1015625 0.632813,-2.20312496 0.632813,-3.04687496 z m 0,0"
         style="fill:#000000;fill-opacity:1;fill-rule:nonzero;stroke:none" />
    </g>
    <path
       id="path37"
       d="M 116.22353,0 H 152.6743"
       style="fill:none;stroke:#000000;stroke-width:0.3985;stroke-linecap:butt;stroke-linejoin:miter;stroke-miterlimit:10;stroke-dasharray:none;stroke-opacity:1"
       transform="matrix(1.3333333,0,0,-1.3333333,74.022667,28.134667)" />
    <path
       id="path38"
       d="M -2.07224,2.39104 C -1.69365,0.95639 -0.84999,0.27895 0,0 -0.84999,-0.27895 -1.69365,-0.95639 -2.07224,-2.39104"
       style="fill:none;stroke:#000000;stroke-width:0.3985;stroke-linecap:round;stroke-linejoin:round;stroke-miterlimit:10;stroke-dasharray:none;stroke-opacity:1"
       transform="matrix(1.3333333,0,0,-1.3333333,277.85407,28.134667)" />
    <g
       id="g38"
       aria-label="S(k)"
       transform="matrix(1.3333333,0,0,1.3333333,240.26533,20.12)">
      <path
         id="path39"
         d="m 6.4220937,-6.9249609 c 0,-0.023437 -0.011719,-0.09375 -0.1054687,-0.09375 -0.046875,0 -0.058594,0.011719 -0.1757813,0.140625 L 5.660375,-6.3038672 c -0.2578125,-0.46875 -0.7734375,-0.7148437 -1.4296875,-0.7148437 -1.265625,0 -2.4609375,1.1367187 -2.4609375,2.34375 0,0.8085937 0.5273437,1.265625 1.0429687,1.4179687 l 1.0664063,0.28125 c 0.3632812,0.082031 0.9140625,0.234375 0.9140625,1.0546875 0,0.890625 -0.8203125,1.82812501 -1.7929688,1.82812501 -0.6445312,0 -1.7460937,-0.2109375 -1.7460937,-1.45312501 0,-0.234375 0.046875,-0.4804687 0.058594,-0.5390625 0.011719,-0.035156 0.023437,-0.046875 0.023437,-0.070312 0,-0.09375 -0.070312,-0.1054687 -0.1171875,-0.1054687 -0.058594,0 -0.070312,0.011719 -0.1054687,0.035156 -0.035156,0.046875 -0.59765625,2.32031251 -0.59765625,2.34375001 0,0.0585937 0.046875,0.10546875 0.1171875,0.10546875 0.046875,0 0.0585938,-0.0117188 0.17578125,-0.15234375 L 1.301,-0.50308594 c 0.421875,0.5859375 1.1015625,0.7265625 1.6757812,0.7265625 1.359375,0 2.53125,-1.32421876 2.53125,-2.56640626 0,-0.6796875 -0.3398437,-1.0195312 -0.4921875,-1.1601562 -0.2226562,-0.234375 -0.375,-0.2695313 -1.265625,-0.5039063 -0.2109375,-0.058594 -0.5742187,-0.1523437 -0.65625,-0.1757812 -0.2695312,-0.09375 -0.609375,-0.375 -0.609375,-0.9023438 0,-0.8085937 0.796875,-1.6523437 1.734375,-1.6523437 0.8320313,0 1.4414063,0.421875 1.4414063,1.5351562 0,0.3164063 -0.046875,0.5039063 -0.046875,0.5625 0,0.011719 0,0.09375 0.1289062,0.09375 0.09375,0 0.1054688,-0.023437 0.140625,-0.1992187 z m 0,0"
         style="fill:#000000;fill-opacity:1;fill-rule:nonzero;stroke:none" />
      <path
         id="path40"
         d="m 9.9758047,2.3914453 c 0,-0.035156 0,-0.046875 -0.1640625,-0.2226562 -1.2421875,-1.25390629 -1.5703125,-3.12890629 -1.5703125,-4.6640625 0,-1.7226563 0.3867187,-3.4570313 1.6054687,-4.7109375 0.1289063,-0.1171875 0.1289063,-0.1289063 0.1289063,-0.1640625 0,-0.070312 -0.035156,-0.1054688 -0.09375,-0.1054688 -0.1054688,0 -0.9960938,0.6796875 -1.5820313,1.9453125 -0.515625,1.1015625 -0.6328125,2.203125 -0.6328125,3.0351563 0,0.7851562 0.1171875,1.99218746 0.65625,3.11718746 0.5976563,1.21875004 1.453125,1.87500004 1.5585938,1.87500004 0.058594,0 0.09375,-0.035156 0.09375,-0.1054688 z m 0,0"
         style="fill:#000000;fill-opacity:1;fill-rule:nonzero;stroke:none" />
      <path
         id="path41"
         d="m 13.415258,-6.8077734 c 0,0 0,-0.1054688 -0.128906,-0.1054688 -0.234375,0 -0.960938,0.082031 -1.21875,0.1054688 -0.08203,0 -0.1875,0.011719 -0.1875,0.1992187 0,0.1171875 0.09375,0.1171875 0.234375,0.1171875 0.480468,0 0.503906,0.070312 0.503906,0.1640625 l -0.03516,0.1992188 -1.441407,5.74218746 c -0.03516,0.140625 -0.03516,0.15234375 -0.03516,0.22265625 0,0.22265625 0.199219,0.26953125 0.28125,0.26953125 0.128906,0 0.28125,-0.08203125 0.339844,-0.2109375 0.05859,-0.0820313 0.503906,-1.92187496 0.5625,-2.17968746 0.339844,0.035156 1.160156,0.1875 1.160156,0.8554687 0,0.070312 0,0.1054688 -0.03516,0.1992188 -0.02344,0.1289062 -0.03516,0.24609371 -0.03516,0.35156246 0,0.5859375 0.398437,0.984375 0.914062,0.984375 0.292969,0 0.5625,-0.15234375 0.785156,-0.52734375 0.246094,-0.43359375 0.363282,-0.98437501 0.363282,-1.00781251 0,-0.09375 -0.09375,-0.09375 -0.128907,-0.09375 -0.09375,0 -0.105468,0.035156 -0.140625,0.1757813 -0.199218,0.72656246 -0.421875,1.24218746 -0.867187,1.24218746 -0.1875,0 -0.316406,-0.1171875 -0.316406,-0.46875 0,-0.17578125 0.04687,-0.3984375 0.08203,-0.56249996 0.03516,-0.1640625 0.03516,-0.2109375 0.03516,-0.3046875 0,-0.65625 -0.621094,-0.9375 -1.464844,-1.0546875 0.304688,-0.1757813 0.621094,-0.4921875 0.855469,-0.7265625 0.480469,-0.5273438 0.9375,-0.9609375 1.417969,-0.9609375 0.05859,0 0.07031,0 0.09375,0.011719 0.117187,0.023437 0.128906,0.023437 0.210937,0.082031 0.02344,0 0.02344,0.011719 0.03516,0.035156 -0.480469,0.035156 -0.5625,0.421875 -0.5625,0.5390625 0,0.1640625 0.105468,0.3515625 0.375,0.3515625 0.257812,0 0.550781,-0.2226562 0.550781,-0.609375 0,-0.3046875 -0.234375,-0.6328125 -0.679688,-0.6328125 -0.28125,0 -0.738281,0.082031 -1.453125,0.8789063 -0.339843,0.375 -0.726562,0.7734375 -1.101562,0.9257812 z m 0,0"
         style="fill:#000000;fill-opacity:1;fill-rule:nonzero;stroke:none" />
      <path
         id="path42"
         d="m 18.940648,-2.4952734 c 0,-0.7734375 -0.117187,-1.9804688 -0.65625,-3.1054688 -0.597656,-1.21875 -1.464843,-1.875 -1.558593,-1.875 -0.05859,0 -0.105469,0.046875 -0.105469,0.1054688 0,0.035156 0,0.046875 0.199219,0.234375 0.972656,0.984375 1.535156,2.5664062 1.535156,4.640625 0,1.71093746 -0.363281,3.45703121 -1.59375,4.7226562 -0.140625,0.1171875 -0.140625,0.1289063 -0.140625,0.1640625 0,0.058594 0.04687,0.1054688 0.105469,0.1054688 0.09375,0 0.996093,-0.6796875 1.582031,-1.94531254 0.503906,-1.1015625 0.632812,-2.20312496 0.632812,-3.04687496 z m 0,0"
         style="fill:#000000;fill-opacity:1;fill-rule:nonzero;stroke:none" />
    </g>
  </g>
</svg>
