<?xml version="1.0" encoding="UTF-8" standalone="no"?>
<!-- Created with Inkscape (http://www.inkscape.org/) -->

<svg
   version="1.1"
   id="svg1"
   width="100.01333"
   height="113.92"
   viewBox="0 0 100.01333 113.92"
   sodipodi:docname="25-26-1-大学物理A（下）-期中-题图1.pdf"
   xmlns:inkscape="http://www.inkscape.org/namespaces/inkscape"
   xmlns:sodipodi="http://sodipodi.sourceforge.net/DTD/sodipodi-0.dtd"
   xmlns="http://www.w3.org/2000/svg"
   xmlns:svg="http://www.w3.org/2000/svg">
  <defs
     id="defs1" />
  <sodipodi:namedview
     id="namedview1"
     pagecolor="#ffffff"
     bordercolor="#000000"
     borderopacity="0.25"
     inkscape:showpageshadow="2"
     inkscape:pageopacity="0.0"
     inkscape:pagecheckerboard="0"
     inkscape:deskcolor="#d1d1d1">
    <inkscape:page
       x="0"
       y="0"
       inkscape:label="1"
       id="page1"
       width="100.01333"
       height="113.92"
       margin="0"
       bleed="0" />
  </sodipodi:namedview>
  <g
     id="g1"
     inkscape:groupmode="layer"
     inkscape:label="1">
    <path
       id="path1"
       d="M 0,-17.00781 V 68.03261"
       style="fill:none;stroke:#000000;stroke-width:0.3985;stroke-linecap:butt;stroke-linejoin:miter;stroke-miterlimit:10;stroke-dasharray:none;stroke-opacity:1"
       transform="matrix(1.3333333,0,0,-1.3333333,0.26533333,90.977333)" />
    <path
       id="path2"
       d="M 0,0 H 17.00781 M 51.02412,0 H 68.03261"
       style="fill:none;stroke:#000000;stroke-width:0.3985;stroke-linecap:butt;stroke-linejoin:miter;stroke-miterlimit:10;stroke-dasharray:none;stroke-opacity:1"
       transform="matrix(1.3333333,0,0,-1.3333333,0.26533333,90.977333)" />
    <path
       id="path3"
       d="m 17.00781,0 c 0.23619,2.35983 1.04003,4.252 1.98419,4.252 0.94416,0 1.748,-1.89217 1.9842,-4.252 0.23619,-2.35983 -0.09526,-4.252 -0.56704,-4.252 -0.47176,0 -0.80322,1.89217 -0.56703,4.252 0.23654,2.35983 1.04037,4.252 1.98455,4.252 0.94415,0 1.748,-1.89217 1.98419,-4.252 0.23619,-2.35983 -0.09528,-4.252 -0.56703,-4.252 -0.47179,0 -0.80323,1.89217 -0.56704,4.252 0.23655,2.35983 1.04038,4.252 1.98455,4.252 0.94413,0 1.748,-1.89217 1.98419,-4.252 0.23619,-2.35983 -0.09528,-4.252 -0.56704,-4.252 -0.47178,0 -0.80323,1.89217 -0.56704,4.252 0.23656,2.35983 1.04039,4.252 1.98454,4.252 0.94416,0 1.748,-1.89217 1.9842,-4.252 0.2362,-2.35983 -0.09527,-4.252 -0.56704,-4.252 -0.47177,0 -0.80322,1.89217 -0.56703,4.252 0.23654,2.35983 1.04037,4.252 1.98454,4.252 0.94416,0 1.748,-1.89217 1.9842,-4.252 0.23619,-2.35983 -0.09527,-4.252 -0.56704,-4.252 -0.47177,0 -0.80322,1.89217 -0.56703,4.252 0.23654,2.35983 1.04038,4.252 1.98454,4.252 0.94416,0 1.74801,-1.89217 1.9842,-4.252 0.23619,-2.35983 -0.09528,-4.252 -0.56704,-4.252 -0.47178,0 -0.80322,1.89217 -0.56703,4.252 0.23654,2.35983 1.04038,4.252 1.98455,4.252 0.94413,0 1.748,-1.89217 1.98418,-4.252 0.2362,-2.35983 -0.09527,-4.252 -0.56702,-4.252 -0.47179,0 -0.80324,1.89217 -0.56705,4.252 0.23656,2.35983 1.04039,4.252 1.98454,4.252 0.94415,0 1.748,-1.89217 1.98419,-4.252 0.23621,-2.35983 -0.09526,-4.252 -0.56703,-4.252 -0.47177,0 -0.80322,1.89217 -0.56703,4.252 0.23654,2.35983 1.04037,4.252 1.98454,4.252 0.94416,0 1.748,-1.89217 1.98419,-4.252 0.23619,-2.35983 -0.09526,-4.252 -0.56703,-4.252 -0.47177,0 -0.80322,1.89217 -0.56703,4.252 0.23654,2.35983 1.04037,4.252 1.98454,4.252 0.94416,0 1.748,-1.89217 1.98419,-4.252 0.2362,-2.35983 -0.09527,-4.252 -0.56703,-4.252 -0.47178,0 -0.80322,1.89217 -0.56703,4.252 0.23654,2.35983 1.04038,4.252 1.98454,4.252 0.94414,0 1.74801,-1.89217 1.9842,-4.252 h 1.70124"
       style="fill:none;stroke:#000000;stroke-width:0.3985;stroke-linecap:butt;stroke-linejoin:miter;stroke-miterlimit:10;stroke-dasharray:none;stroke-opacity:1"
       transform="matrix(1.3333333,0,0,-1.3333333,0.26533333,90.977333)" />
    <path
       id="path4"
       d="M 70.61931,-6.9232 47.35065,57.00621 51.3459,58.46039 74.61458,-5.46902 Z"
       style="fill:#808080;fill-opacity:1;fill-rule:nonzero;stroke:#000000;stroke-width:0.3985;stroke-linecap:butt;stroke-linejoin:miter;stroke-miterlimit:10;stroke-dasharray:none;stroke-opacity:1"
       transform="matrix(1.3333333,0,0,-1.3333333,0.26533333,90.977333)" />
    <path
       id="path5"
       d="M 59.52803,0 V 42.52022"
       style="fill:none;stroke:#000000;stroke-width:0.3985;stroke-linecap:butt;stroke-linejoin:miter;stroke-miterlimit:10;stroke-dasharray:2.98883, 1.99255;stroke-dashoffset:0;stroke-opacity:1"
       transform="matrix(1.3333333,0,0,-1.3333333,0.26533333,90.977333)" />
    <path
       id="path6"
       d="m 59.95299,29.764 c 0,0.23469 -0.19026,0.42496 -0.42496,0.42496 -0.23468,0 -0.42496,-0.19027 -0.42496,-0.42496 0,-0.23469 0.19028,-0.42495 0.42496,-0.42495 0.2347,0 0.42496,0.19026 0.42496,0.42495 z"
       style="fill:#000000;fill-opacity:1;fill-rule:nonzero;stroke:#000000;stroke-width:0.3985;stroke-linecap:butt;stroke-linejoin:miter;stroke-miterlimit:10;stroke-dasharray:none;stroke-opacity:1"
       transform="matrix(1.3333333,0,0,-1.3333333,0.26533333,90.977333)" />
    <path
       id="path7"
       d="m 59.52803,8.5039 c 1.85721,0 3.70891,0.24398 5.50253,0.7244"
       style="fill:none;stroke:#000000;stroke-width:0.3985;stroke-linecap:butt;stroke-linejoin:miter;stroke-miterlimit:10;stroke-dasharray:none;stroke-opacity:1"
       transform="matrix(1.3333333,0,0,-1.3333333,0.26533333,90.977333)" />
    <path
       id="path8"
       d="m 3.0121641,-2.3555078 c 0,-0.609375 -0.28125,-1.1601563 -0.8203125,-1.1601563 -0.796875,0 -1.65234379,1.2539063 -1.65234379,2.4140625 0,0.67968754 0.31640625,1.16015629 0.80859379,1.16015629 0.8085937,0 1.6640625,-1.28906249 1.6640625,-2.41406249 z m -1.875,0.515625 c 0.3164062,-1.2421875 0.8203125,-1.5 1.0546875,-1.5 0.28125,0 0.3984375,0.3164062 0.3984375,0.703125 0,0.1523437 -0.011719,0.3515625 -0.1289063,0.796875 z m 1.265625,0.2226562 c -0.2929688,1.19531254 -0.796875,1.50000004 -1.0429688,1.50000004 -0.37499999,0 -0.39843749,-0.55078125 -0.39843749,-0.703125 0,-0.18750004 0.0351563,-0.42187504 0.11718749,-0.79687504 z m 0,0"
       style="fill:#000000;fill-opacity:1;fill-rule:nonzero;stroke:none"
       aria-label="θ"
       transform="matrix(1.3333333,0,0,1.3333333,81.808,87.613333)" />
  </g>
</svg>
