<?xml version="1.0" encoding="UTF-8" standalone="no"?>
<!-- Created with Inkscape (http://www.inkscape.org/) -->

<svg
   version="1.1"
   id="svg1"
   width="197.70667"
   height="86.013336"
   viewBox="0 0 197.70667 86.013336"
   sodipodi:docname="24-25-1-信号与系统-期末（A卷）-筨案5.pdf"
   xmlns:inkscape="http://www.inkscape.org/namespaces/inkscape"
   xmlns:sodipodi="http://sodipodi.sourceforge.net/DTD/sodipodi-0.dtd"
   xmlns="http://www.w3.org/2000/svg"
   xmlns:svg="http://www.w3.org/2000/svg">
  <defs
     id="defs1" />
  <sodipodi:namedview
     id="namedview1"
     pagecolor="#ffffff"
     bordercolor="#000000"
     borderopacity="0.25"
     inkscape:showpageshadow="2"
     inkscape:pageopacity="0.0"
     inkscape:pagecheckerboard="0"
     inkscape:deskcolor="#d1d1d1">
    <inkscape:page
       x="0"
       y="0"
       inkscape:label="1"
       id="page1"
       width="197.70667"
       height="86.013336"
       margin="0"
       bleed="0" />
  </sodipodi:namedview>
  <g
     id="g1"
     inkscape:groupmode="layer"
     inkscape:label="1">
    <path
       id="path1"
       d="M -85.04042,0 H 56.2951"
       style="fill:none;stroke:#000000;stroke-width:0.3985;stroke-linecap:butt;stroke-linejoin:miter;stroke-miterlimit:10;stroke-dasharray:none;stroke-opacity:1"
       transform="matrix(1.3333333,0,0,-1.3333333,113.652,47.952)" />
    <path
       id="path2"
       d="M -2.07224,2.39104 C -1.69365,0.95639 -0.84999,0.27895 0,0 -0.84999,-0.27895 -1.69365,-0.95639 -2.07224,-2.39104"
       style="fill:none;stroke:#000000;stroke-width:0.3985;stroke-linecap:round;stroke-linejoin:round;stroke-miterlimit:10;stroke-dasharray:none;stroke-opacity:1"
       transform="matrix(1.3333333,0,0,-1.3333333,188.9778,47.952)" />
    <path
       id="path3"
       d="m 5.1574531,-3.7153828 c 0.1289063,0 0.4921875,0 0.4921875,-0.3398438 0,-0.234375 -0.2109375,-0.234375 -0.3867187,-0.234375 H 2.9894844 c -1.5,0 -2.61328127,1.640625 -2.61328127,2.8242188 0,0.87890624 0.5859375,1.57031249 1.49999997,1.57031249 1.171875,0 2.4960938,-1.20703129 2.4960938,-2.73046879 0,-0.1757812 0,-0.65625 -0.3046875,-1.0898437 z m -3.2695312,3.60937499 c -0.4921875,0 -0.89062502,-0.36328125 -0.89062502,-1.07812499 0,-0.3046875 0.11718752,-1.1132813 0.46875002,-1.7109375 0.421875,-0.6796875 1.0195312,-0.8203125 1.359375,-0.8203125 0.8320312,0 0.9140625,0.65625 0.9140625,0.9609375 0,0.46875 -0.1992188,1.2890625 -0.5390625,1.79296874 -0.3867188,0.59765625 -0.9257813,0.85546875 -1.3125,0.85546875 z m 0,0"
       style="fill:#000000;fill-opacity:1;fill-rule:nonzero;stroke:none"
       aria-label="σ"
       transform="matrix(1.3333333,0,0,1.3333333,185.20933,58.364)" />
    <path
       id="path4"
       d="M 0,-28.3468 V 27.9483"
       style="fill:none;stroke:#000000;stroke-width:0.3985;stroke-linecap:butt;stroke-linejoin:miter;stroke-miterlimit:10;stroke-dasharray:none;stroke-opacity:1"
       transform="matrix(1.3333333,0,0,-1.3333333,113.652,47.952)" />
    <path
       id="path5"
       d="M -2.07224,2.39104 C -1.69365,0.95639 -0.84999,0.27895 0,0 -0.84999,-0.27895 -1.69365,-0.95639 -2.07224,-2.39104"
       style="fill:none;stroke:#000000;stroke-width:0.3985;stroke-linecap:round;stroke-linejoin:round;stroke-miterlimit:10;stroke-dasharray:none;stroke-opacity:1"
       transform="matrix(0,-1.3333333,-1.3333333,0,113.652,10.421933)" />
    <g
       id="g5"
       aria-label="jω"
       transform="matrix(1.3333333,0,0,1.3333333,118.34533,13.158667)">
      <path
         id="path6"
         d="M 2.0964687,0.50502344 V -4.4051328 l -1.52343745,0.1171875 v 0.3046875 c 0.77343745,0 0.85546875,0.070312 0.85546875,0.5625 v 3.93749999 c 0,0.4453125 -0.082031,1.31250001 -0.7265625,1.31250001 -0.046875,0 -0.26953125,0 -0.5390625,-0.1289063 0.15234375,-0.046875 0.3515625,-0.1875 0.3515625,-0.4570312 0,-0.25781251 -0.17578125,-0.45703126 -0.45703125,-0.45703126 -0.28125,0 -0.45703125,0.19921875 -0.45703125,0.45703126 0,0.515625 0.5625,0.796875 1.125,0.796875 0.75,0 1.3710937,-0.6328125 1.3710937,-1.53515626 z m 0,-6.51562504 c 0,-0.2695312 -0.234375,-0.5273437 -0.5390625,-0.5273437 -0.328125,0 -0.5273437,0.2695312 -0.5273437,0.5273437 0,0.2695313 0.2226562,0.5273438 0.5273437,0.5273438 0.3398438,0 0.5390625,-0.28125 0.5390625,-0.5273438 z m 0,0"
         style="fill:#000000;fill-opacity:1;fill-rule:nonzero;stroke:none" />
      <path
         id="path7"
         d="m 9.0720547,-3.7020078 c 0,-0.4453125 -0.1757813,-0.703125 -0.3984375,-0.703125 -0.2578125,0 -0.5273438,0.2460937 -0.5273438,0.46875 0,0.1054687 0.046875,0.2109375 0.1523438,0.3046875 0.1640625,0.140625 0.3515625,0.4101562 0.3515625,0.8320312 0,0.3984375 -0.1875,0.9726563 -0.5039063,1.4296875 -0.2929687,0.42187504 -0.6679687,0.76171879 -1.1367187,0.76171879 -0.5625,0 -0.8671875,-0.3515625 -0.9609375,-0.89062499 0.1054687,-0.2578125 0.3398437,-0.9023438 0.3398437,-1.1835938 0,-0.1171875 -0.046875,-0.2109375 -0.1875,-0.2109375 -0.070312,0 -0.1875,0.011719 -0.2578125,0.1640625 -0.1171875,0.1992188 -0.234375,0.84375 -0.234375,1.2070313 -0.328125,0.46875 -0.7265625,0.91406249 -1.359375,0.91406249 -0.65625,0 -0.8671875,-0.58593749 -0.8671875,-1.14843749 0,-1.2421875 1.0195313,-2.2851563 1.0195313,-2.4140625 0,-0.1171875 -0.082031,-0.1875 -0.1875,-0.1875 -0.1289063,0 -0.1992188,0.1289062 -0.2578125,0.2109375 -0.5039063,0.7382812 -0.890625,1.921875 -0.890625,2.8359375 0,0.67968749 0.234375,1.41796874 1.0429687,1.41796874 0.7148438,0 1.1835938,-0.4921875 1.5351563,-1.04296875 0.09375,0.57421875 0.4804687,1.04296875 1.1015625,1.04296875 0.7734375,0 1.2539062,-0.609375 1.6171875,-1.34765624 0.234375,-0.4921875 0.609375,-1.8515625 0.609375,-2.4609375 z m 0,0"
         style="fill:#000000;fill-opacity:1;fill-rule:nonzero;stroke:none" />
    </g>
    <g
       id="g7"
       aria-label="−2"
       transform="matrix(1.3333333,0,0,1.3333333,29.573333,61.205333)">
      <path
         id="path8"
         d="m 6.5631641,-2.2956016 c 0.1757812,0 0.3515625,0 0.3515625,-0.1992187 0,-0.1992188 -0.1757813,-0.1992188 -0.3515625,-0.1992188 h -5.390625 c -0.1640625,0 -0.33984379,0 -0.33984379,0.1992188 0,0.1992187 0.17578129,0.1992187 0.33984379,0.1992187 z m 0,0"
         style="fill:#000000;fill-opacity:1;fill-rule:nonzero;stroke:none" />
      <path
         id="path9"
         d="M 9.0123828,-0.76044531 10.06707,-1.7916953 c 1.558594,-1.3710938 2.15625,-1.9101563 2.15625,-2.90625 0,-1.1367188 -0.902343,-1.9335938 -2.121093,-1.9335938 -1.1250004,0 -1.8515629,0.9140625 -1.8515629,1.8046875 0,0.5507813 0.4921875,0.5507813 0.5273437,0.5507813 0.1640625,0 0.515625,-0.1171875 0.515625,-0.5273438 0,-0.2578125 -0.1875,-0.515625 -0.5273437,-0.515625 -0.082031,0 -0.1054688,0 -0.1289063,0.011719 0.2226563,-0.6445313 0.7617188,-1.0195313 1.3359375,-1.0195313 0.9140627,0 1.3359377,0.8085938 1.3359377,1.6289063 0,0.796875 -0.492188,1.5820312 -1.042969,2.203125 L 8.3561328,-0.36200781 C 8.2506641,-0.25653906 8.2506641,-0.23310156 8.2506641,0.00127344 H 11.94207 l 0.28125,-1.73437504 h -0.257812 c -0.04687,0.3046875 -0.117188,0.73828129 -0.210938,0.89062504 -0.07031,0.0820313 -0.726562,0.0820313 -0.949218,0.0820313 z m 0,0"
         style="fill:#000000;fill-opacity:1;fill-rule:nonzero;stroke:none" />
    </g>
    <path
       id="path10"
       d="m -58.11102,-1.4174 2.83482,2.8348"
       style="fill:none;stroke:#0000ff;stroke-width:0.3985;stroke-linecap:butt;stroke-linejoin:miter;stroke-miterlimit:10;stroke-dasharray:none;stroke-opacity:1"
       transform="matrix(1.3333333,0,0,-1.3333333,113.652,47.952)" />
    <path
       id="path11"
       d="m -55.2762,-1.4174 -2.83482,2.8348"
       style="fill:none;stroke:#0000ff;stroke-width:0.3985;stroke-linecap:butt;stroke-linejoin:miter;stroke-miterlimit:10;stroke-dasharray:none;stroke-opacity:1"
       transform="matrix(1.3333333,0,0,-1.3333333,113.652,47.952)" />
    <g
       id="g11"
       aria-label="−1"
       transform="matrix(1.3333333,0,0,1.3333333,67.369333,61.205333)">
      <path
         id="path12"
         d="m 6.5638203,-2.2956016 c 0.1757813,0 0.3515625,0 0.3515625,-0.1992187 0,-0.1992188 -0.1757812,-0.1992188 -0.3515625,-0.1992188 h -5.390625 c -0.1640625,0 -0.33984374,0 -0.33984374,0.1992188 0,0.1992187 0.17578124,0.1992187 0.33984374,0.1992187 z m 0,0"
         style="fill:#000000;fill-opacity:1;fill-rule:nonzero;stroke:none" />
      <path
         id="path13"
         d="m 10.677102,-6.3737266 c 0,-0.234375 0,-0.2578125 -0.234375,-0.2578125 -0.6093754,0.6328125 -1.4882817,0.6328125 -1.8046879,0.6328125 v 0.3164063 c 0.1992187,0 0.7851562,0 1.3007812,-0.2578125 v 5.15624999 c 0,0.3515625 -0.035156,0.48046875 -0.9257812,0.48046875 H 8.6966328 v 0.3046875 c 0.3515625,-0.03515625 1.2070313,-0.03515625 1.6054692,-0.03515625 0.398437,0 1.265625,0 1.617187,0.03515625 v -0.3046875 h -0.316406 c -0.902344,0 -0.925781,-0.1171875 -0.925781,-0.48046875 z m 0,0"
         style="fill:#000000;fill-opacity:1;fill-rule:nonzero;stroke:none" />
    </g>
    <path
       id="path14"
       d="m -29.76422,-1.4174 2.83484,2.8348"
       style="fill:none;stroke:#0000ff;stroke-width:0.3985;stroke-linecap:butt;stroke-linejoin:miter;stroke-miterlimit:10;stroke-dasharray:none;stroke-opacity:1"
       transform="matrix(1.3333333,0,0,-1.3333333,113.652,47.952)" />
    <path
       id="path15"
       d="m -26.92938,-1.4174 -2.83484,2.8348"
       style="fill:none;stroke:#0000ff;stroke-width:0.3985;stroke-linecap:butt;stroke-linejoin:miter;stroke-miterlimit:10;stroke-dasharray:none;stroke-opacity:1"
       transform="matrix(1.3333333,0,0,-1.3333333,113.652,47.952)" />
    <path
       id="path16"
       d="m 29.76422,0 c 0,0.78282 -0.6346,1.4174 -1.41742,1.4174 -0.78282,0 -1.41742,-0.63458 -1.41742,-1.4174 0,-0.78282 0.6346,-1.4174 1.41742,-1.4174 0.78282,0 1.41742,0.63458 1.41742,1.4174 z"
       style="fill:none;stroke:#0000ff;stroke-width:0.3985;stroke-linecap:butt;stroke-linejoin:miter;stroke-miterlimit:10;stroke-dasharray:none;stroke-opacity:1"
       transform="matrix(1.3333333,0,0,-1.3333333,113.652,47.952)" />
    <path
       id="path17"
       d="m 2.9284375,-6.3737266 c 0,-0.234375 0,-0.2578125 -0.234375,-0.2578125 -0.609375,0.6328125 -1.4882812,0.6328125 -1.8046875,0.6328125 v 0.3164063 c 0.1992188,0 0.7851563,0 1.3007813,-0.2578125 v 5.15624999 c 0,0.3515625 -0.035156,0.48046875 -0.9257813,0.48046875 H 0.94796875 v 0.3046875 C 1.2995313,-0.03388281 2.155,-0.03388281 2.5534375,-0.03388281 c 0.3984375,0 1.265625,0 1.6171875,0.03515625 v -0.3046875 H 3.8542188 c -0.9023438,0 -0.9257813,-0.1171875 -0.9257813,-0.48046875 z m 0,0"
       style="fill:#000000;fill-opacity:1;fill-rule:nonzero;stroke:none"
       aria-label="1"
       transform="matrix(1.3333333,0,0,1.3333333,148.12667,61.205333)" />
  </g>
</svg>
