<?xml version="1.0" encoding="UTF-8" standalone="no"?>
<!-- Created with Inkscape (http://www.inkscape.org/) -->

<svg
   version="1.1"
   id="svg1"
   width="177.17332"
   height="177.66667"
   viewBox="0 0 177.17332 177.66667"
   sodipodi:docname="24-25-1-信号与系统-期末（A卷）-筨案3.1.pdf"
   xmlns:inkscape="http://www.inkscape.org/namespaces/inkscape"
   xmlns:sodipodi="http://sodipodi.sourceforge.net/DTD/sodipodi-0.dtd"
   xmlns="http://www.w3.org/2000/svg"
   xmlns:svg="http://www.w3.org/2000/svg">
  <defs
     id="defs1" />
  <sodipodi:namedview
     id="namedview1"
     pagecolor="#ffffff"
     bordercolor="#000000"
     borderopacity="0.25"
     inkscape:showpageshadow="2"
     inkscape:pageopacity="0.0"
     inkscape:pagecheckerboard="0"
     inkscape:deskcolor="#d1d1d1">
    <inkscape:page
       x="0"
       y="0"
       inkscape:label="1"
       id="page1"
       width="177.17332"
       height="177.66667"
       margin="0"
       bleed="0" />
  </sodipodi:namedview>
  <g
     id="g1"
     inkscape:groupmode="layer"
     inkscape:label="1">
    <path
       id="path1"
       d="M -21.2601,0 H 105.90204"
       style="fill:none;stroke:#000000;stroke-width:0.3985;stroke-linecap:butt;stroke-linejoin:miter;stroke-miterlimit:10;stroke-dasharray:none;stroke-opacity:1"
       transform="matrix(1.3333333,0,0,-1.3333333,28.612,152.8)" />
    <path
       id="path2"
       d="M -2.07224,2.39104 C -1.69365,0.95639 -0.84999,0.27895 0,0 -0.84999,-0.27895 -1.69365,-0.95639 -2.07224,-2.39104"
       style="fill:none;stroke:#000000;stroke-width:0.3985;stroke-linecap:round;stroke-linejoin:round;stroke-miterlimit:10;stroke-dasharray:none;stroke-opacity:1"
       transform="matrix(1.3333333,0,0,-1.3333333,170.08039,152.8)" />
    <path
       id="path3"
       d="m 2.0516953,-3.9843281 h 0.9375 c 0.1992188,0 0.3046875,0 0.3046875,-0.1992188 0,-0.1054687 -0.1054687,-0.1054687 -0.28125,-0.1054687 H 2.1337266 c 0.3632812,-1.4179688 0.4101562,-1.6171875 0.4101562,-1.6757813 0,-0.1757812 -0.1171875,-0.2695312 -0.2929687,-0.2695312 -0.023437,0 -0.3046875,0.011719 -0.3984375,0.3515625 l -0.3867188,1.59375 H 0.52825781 c -0.19921875,0 -0.29296875,0 -0.29296875,0.1875 0,0.1171875 0.0703125,0.1171875 0.26953125,0.1171875 H 1.3837266 c -0.71484379,2.8242187 -0.75000004,2.99999997 -0.75000004,3.17578122 0,0.5390625 0.37500004,0.9140625 0.91406254,0.9140625 1.0078125,0 1.5820312,-1.45312502 1.5820312,-1.53515622 0,-0.09375 -0.082031,-0.09375 -0.1171875,-0.09375 -0.09375,0 -0.1054687,0.023437 -0.1523437,0.140625 -0.4335938,1.03124997 -0.9609375,1.27734372 -1.3007813,1.27734372 -0.1992187,0 -0.3046875,-0.12890625 -0.3046875,-0.45703125 0,-0.24609375 0.023437,-0.31640625 0.058594,-0.48046877 z m 0,0"
       style="fill:#000000;fill-opacity:1;fill-rule:nonzero;stroke:none"
       aria-label="t"
       transform="matrix(1.3333333,0,0,1.3333333,167.948,165.664)" />
    <path
       id="path4"
       d="M 0,0 V 105.90204"
       style="fill:none;stroke:#000000;stroke-width:0.3985;stroke-linecap:butt;stroke-linejoin:miter;stroke-miterlimit:10;stroke-dasharray:none;stroke-opacity:1"
       transform="matrix(1.3333333,0,0,-1.3333333,28.612,152.8)" />
    <path
       id="path5"
       d="M -2.07224,2.39104 C -1.69365,0.95639 -0.84999,0.27895 0,0 -0.84999,-0.27895 -1.69365,-0.95639 -2.07224,-2.39104"
       style="fill:none;stroke:#000000;stroke-width:0.3985;stroke-linecap:round;stroke-linejoin:round;stroke-miterlimit:10;stroke-dasharray:none;stroke-opacity:1"
       transform="matrix(0,-1.3333333,-1.3333333,0,28.612,11.331613)" />
    <g
       id="g5"
       aria-label="h(t)"
       transform="matrix(1.3333333,0,0,1.3333333,33.305333,14.386667)">
      <path
         id="path6"
         d="m 2.8588906,-6.8085547 c 0,0 0,-0.1054687 -0.1289062,-0.1054687 -0.234375,0 -0.9609375,0.082031 -1.21875,0.1054687 -0.082031,0 -0.1875,0.011719 -0.1875,0.1992188 0,0.1171875 0.09375,0.1171875 0.234375,0.1171875 0.4804687,0 0.5039062,0.070312 0.5039062,0.1640625 l -0.035156,0.1992187 -1.44140628,5.74218751 c -0.0351563,0.140625 -0.0351563,0.15234375 -0.0351563,0.22265625 0,0.22265625 0.19921875,0.26953125 0.28125,0.26953125 0.1640625,0 0.32812498,-0.1171875 0.37499998,-0.2578125 l 0.1875,-0.75 0.2226562,-0.90234371 c 0.058594,-0.2226563 0.1171875,-0.4335938 0.1640625,-0.6679688 0.023437,-0.058594 0.1054688,-0.3867187 0.1171875,-0.4453125 0.023437,-0.09375 0.328125,-0.6445312 0.6679688,-0.9140625 0.2226562,-0.1640625 0.5273437,-0.3515625 0.9609375,-0.3515625 0.421875,0 0.5390625,0.3398438 0.5390625,0.6914063 0,0.5390625 -0.375,1.6289062 -0.6210938,2.2382812 -0.082031,0.2226563 -0.1289062,0.35156251 -0.1289062,0.55078126 0,0.46875 0.3515625,0.80859375 0.8203125,0.80859375 0.9375,0 1.3007812,-1.45312501 1.3007812,-1.53515621 0,-0.09375 -0.09375,-0.09375 -0.1171875,-0.09375 -0.1054687,0 -0.1054687,0.023437 -0.1523437,0.1757812 -0.1523438,0.52734376 -0.46875,1.24218751 -1.0195313,1.24218751 -0.1640625,0 -0.234375,-0.10546875 -0.234375,-0.328125 0,-0.2578125 0.09375,-0.4921875 0.1757813,-0.71484371 0.1640625,-0.421875 0.609375,-1.6054688 0.609375,-2.1914063 0,-0.6445312 -0.3984375,-1.0664062 -1.1484375,-1.0664062 -0.6210938,0 -1.1015625,0.3164062 -1.4648438,0.7734375 z m 0,0"
         style="fill:#000000;fill-opacity:1;fill-rule:nonzero;stroke:none" />
      <path
         id="path7"
         d="m 9.0317422,2.3906641 c 0,-0.035156 0,-0.046875 -0.1640625,-0.2226563 -1.2421875,-1.25390624 -1.5703125,-3.12890624 -1.5703125,-4.6640625 0,-1.7226562 0.3867187,-3.4570312 1.6054687,-4.7109375 0.1289063,-0.1171875 0.1289063,-0.1289062 0.1289063,-0.1640625 0,-0.070312 -0.035156,-0.1054687 -0.09375,-0.1054687 -0.1054688,0 -0.9960938,0.6796875 -1.5820313,1.9453125 -0.515625,1.1015625 -0.6328125,2.203125 -0.6328125,3.0351562 0,0.7851563 0.1171875,1.99218751 0.65625,3.11718751 0.5976563,1.21874999 1.453125,1.87499999 1.5585938,1.87499999 0.058594,0 0.09375,-0.035156 0.09375,-0.1054687 z m 0,0"
         style="fill:#000000;fill-opacity:1;fill-rule:nonzero;stroke:none" />
      <path
         id="path8"
         d="m 11.665531,-3.9843359 h 0.9375 c 0.199219,0 0.304688,0 0.304688,-0.1992188 0,-0.1054687 -0.105469,-0.1054687 -0.28125,-0.1054687 h -0.878907 c 0.363282,-1.4179688 0.410157,-1.6171875 0.410157,-1.6757813 0,-0.1757812 -0.117188,-0.2695312 -0.292969,-0.2695312 -0.02344,0 -0.304688,0.011719 -0.398438,0.3515625 l -0.386718,1.59375 h -0.9375 c -0.199219,0 -0.292969,0 -0.292969,0.1875 0,0.1171875 0.070312,0.1171875 0.269531,0.1171875 h 0.878906 c -0.714843,2.8242187 -0.75,2.99999996 -0.75,3.17578121 0,0.5390625 0.375,0.9140625 0.914063,0.9140625 1.007812,0 1.582031,-1.45312501 1.582031,-1.53515621 0,-0.09375 -0.08203,-0.09375 -0.117187,-0.09375 -0.09375,0 -0.105469,0.023437 -0.152344,0.140625 -0.433594,1.03124996 -0.960938,1.27734371 -1.300781,1.27734371 -0.199219,0 -0.304688,-0.12890625 -0.304688,-0.45703125 0,-0.24609375 0.02344,-0.31640625 0.05859,-0.48046876 z m 0,0"
         style="fill:#000000;fill-opacity:1;fill-rule:nonzero;stroke:none" />
      <path
         id="path9"
         d="m 16.095219,-2.4960547 c 0,-0.7734375 -0.117188,-1.9804687 -0.65625,-3.1054687 -0.597657,-1.21875 -1.464844,-1.875 -1.558594,-1.875 -0.05859,0 -0.105469,0.046875 -0.105469,0.1054687 0,0.035156 0,0.046875 0.199219,0.234375 0.972656,0.984375 1.535156,2.5664063 1.535156,4.640625 0,1.71093751 -0.363281,3.45703126 -1.59375,4.7226563 -0.140625,0.1171875 -0.140625,0.1289062 -0.140625,0.1640625 0,0.058594 0.04687,0.1054687 0.105469,0.1054687 0.09375,0 0.996094,-0.6796875 1.582031,-1.94531249 0.503906,-1.1015625 0.632813,-2.20312501 0.632813,-3.04687501 z m 0,0"
         style="fill:#000000;fill-opacity:1;fill-rule:nonzero;stroke:none" />
    </g>
    <path
       id="path10"
       d="m 4.5808281,-3.1864844 c 0,-0.796875 -0.046875,-1.59375 -0.3984375,-2.3320312 -0.4570312,-0.9609375 -1.2773437,-1.1132813 -1.6875,-1.1132813 -0.5976562,0 -1.3359375,0.2578125 -1.73437498,1.1835938 -0.328125,0.6914062 -0.375,1.4648437 -0.375,2.2617187 0,0.75 0.046875,1.640625 0.4453125,2.40234377 0.43359378,0.80859375 1.16015628,1.0078125 1.65234378,1.0078125 0.5390625,0 1.2890625,-0.2109375 1.734375,-1.16015625 C 4.5339531,-1.6278906 4.5808281,-2.4013281 4.5808281,-3.1864844 Z M 2.4831719,0.00101562 c -0.3867188,0 -0.984375,-0.24609375 -1.1601563,-1.20703122 -0.1054687,-0.5976563 -0.1054687,-1.5117188 -0.1054687,-2.0976563 0,-0.6445312 0,-1.3007812 0.082031,-1.8398437 0.1875,-1.1835938 0.9257813,-1.265625 1.1835938,-1.265625 0.328125,0 0.984375,0.1757812 1.171875,1.1601562 0.09375,0.5625 0.09375,1.3125 0.09375,1.9453125 0,0.75 0,1.4179688 -0.1054688,2.0625 -0.1523437,0.93750002 -0.7148437,1.24218752 -1.160156,1.24218752 z m 0,0"
       style="fill:#000000;fill-opacity:1;fill-rule:nonzero;stroke:none"
       aria-label="0"
       transform="matrix(1.3333333,0,0,1.3333333,25.290667,166.05333)" />
    <g
       id="g10"
       aria-label="t&#10;0"
       transform="matrix(1.3333333,0,0,1.3333333,80.708,163.212)">
      <path
         id="path11"
         d="m 1.7102109,-2.7547031 h 0.7148438 c 0.1289062,0 0.2226562,0 0.2226562,-0.1523438 0,-0.09375 -0.09375,-0.09375 -0.2109375,-0.09375 h -0.65625 l 0.2578125,-1.0429687 c 0,-0.023437 0.023437,-0.058594 0.023437,-0.09375 0,-0.1289063 -0.1054687,-0.2226563 -0.2460937,-0.2226563 -0.1757813,0 -0.28125,0.1171875 -0.328125,0.3046875 -0.046875,0.1757813 0.046875,-0.1640625 -0.2578125,1.0546875 H 0.51489844 c -0.12890625,0 -0.22265625,0 -0.22265625,0.1523438 0,0.09375 0.0820313,0.09375 0.2109375,0.09375 H 1.1594297 l -0.41015626,1.640625 c -0.0351563,0.17578123 -0.10546875,0.43359373 -0.10546875,0.51562498 0,0.421875 0.3515625,0.66796875 0.75000001,0.66796875 0.7734375,0 1.21875,-0.97265625 1.21875,-1.06640625 0,-0.09375 -0.09375,-0.09375 -0.1171875,-0.09375 -0.082031,0 -0.09375,0.011719 -0.140625,0.12890621 -0.1992188,0.4453125 -0.5507813,0.83203125 -0.9375,0.83203125 -0.1523438,0 -0.2460938,-0.0820313 -0.2460938,-0.33984375 0,-0.0703125 0.023437,-0.2109375 0.046875,-0.28125 z m 0,0"
         style="fill:#000000;fill-opacity:1;fill-rule:nonzero;stroke:none" />
      <path
         id="path12"
         d="m 5.9963438,-0.59552344 c 0,-0.36328125 0,-1.72265626 -1.2890625,-1.72265626 -1.3007813,0 -1.3007813,1.35937501 -1.3007813,1.72265626 0,0.36328125 0,1.69921874 1.3007813,1.69921874 1.2890625,0 1.2890625,-1.33593749 1.2890625,-1.69921874 z M 4.7072813,0.93963281 c -0.1875,0 -0.609375,-0.0585938 -0.7382813,-0.5625 -0.058594,-0.26953125 -0.070312,-0.62109375 -0.070312,-1.03125 0,-0.37500001 0,-0.71484371 0.082031,-0.99609371 0.1289062,-0.421875 0.5039062,-0.5039063 0.7265625,-0.5039063 0.3632812,0 0.6210937,0.1875 0.7265625,0.5390625 0.070312,0.2578125 0.070312,0.66796876 0.070312,0.96093751 0,0.33984375 0,0.73828125 -0.070312,1.04296875 C 5.3049375,0.86932031 4.9065,0.93963281 4.7072813,0.93963281 Z m 0,0"
         style="fill:#000000;fill-opacity:1;fill-rule:nonzero;stroke:none" />
    </g>
    <path
       id="path13"
       d="m -49.345,-40.11 h 6.897"
       style="fill:none;stroke:#000000;stroke-width:0.3985;stroke-linecap:butt;stroke-linejoin:miter;stroke-miterlimit:10;stroke-dasharray:none;stroke-opacity:1"
       transform="matrix(1.3333333,0,0,-1.3333333,146.50133,111.85733)" />
    <path
       id="path14"
       d="m 3.5167422,-1.2669141 h -0.234375 c -0.023437,0.1523438 -0.082031,0.56250004 -0.1757813,0.63281254 -0.058594,0.0351563 -0.5976562,0.0351563 -0.6914062,0.0351563 H 1.1261172 c 0.7382812,-0.64453124 0.984375,-0.84374994 1.3945312,-1.17187494 0.515625,-0.4101564 0.9960938,-0.8437501 0.9960938,-1.5000001 0,-0.8437499 -0.7382813,-1.3593749 -1.6289063,-1.3593749 -0.8671875,0 -1.45312496,0.609375 -1.45312496,1.2421874 0,0.3632812 0.3046875,0.3984375 0.375,0.3984375 0.1640625,0 0.37499996,-0.1171875 0.37499996,-0.375 0,-0.1289063 -0.058594,-0.3632813 -0.42187496,-0.3632813 0.22265625,-0.5039061 0.69140626,-0.65625 1.01953126,-0.65625 0.703125,0 1.0664062,0.5507813 1.0664062,1.1132813 0,0.609375 -0.4335937,1.0898437 -0.65625,1.3359375 l -1.68749996,1.66406254 c -0.0703125,0.0585938 -0.0703125,0.0703125 -0.0703125,0.26953125 H 3.3175234 Z m 0,0"
       style="fill:#000000;fill-opacity:1;fill-rule:nonzero;stroke:none"
       aria-label="2"
       transform="matrix(1.3333333,0,0,1.3333333,82.658667,173.24)" />
    <g
       id="g14"
       aria-label="t&#10;0"
       transform="matrix(1.3333333,0,0,1.3333333,136.62133,165.664)">
      <path
         id="path15"
         d="m 2.0506016,-3.9843281 h 0.9375 c 0.1992187,0 0.3046875,0 0.3046875,-0.1992188 0,-0.1054687 -0.1054688,-0.1054687 -0.28125,-0.1054687 H 2.1326328 c 0.3632813,-1.4179688 0.4101563,-1.6171875 0.4101563,-1.6757813 0,-0.1757812 -0.1171875,-0.2695312 -0.2929688,-0.2695312 -0.023437,0 -0.3046875,0.011719 -0.3984375,0.3515625 l -0.3867187,1.59375 H 0.52716406 c -0.19921875,0 -0.29296875,0 -0.29296875,0.1875 0,0.1171875 0.0703125,0.1171875 0.26953125,0.1171875 H 1.3826328 c -0.71484374,2.8242187 -0.74999999,2.99999997 -0.74999999,3.17578122 0,0.5390625 0.37499999,0.9140625 0.91406249,0.9140625 1.0078125,0 1.5820313,-1.45312502 1.5820313,-1.53515622 0,-0.09375 -0.082031,-0.09375 -0.1171875,-0.09375 -0.09375,0 -0.1054688,0.023437 -0.1523438,0.140625 -0.4335937,1.03124997 -0.9609375,1.27734372 -1.3007812,1.27734372 -0.1992188,0 -0.3046875,-0.12890625 -0.3046875,-0.45703125 0,-0.24609375 0.023437,-0.31640625 0.058594,-0.48046877 z m 0,0"
         style="fill:#000000;fill-opacity:1;fill-rule:nonzero;stroke:none" />
      <path
         id="path16"
         d="m 7.1951328,-0.732375 c 0,-0.7617188 -0.09375,-1.3125 -0.4101562,-1.8046875 -0.2226563,-0.3164063 -0.6445313,-0.5976563 -1.2070313,-0.5976563 -1.6171875,0 -1.6171875,1.8984375 -1.6171875,2.4023438 0,0.50390625 0,2.3671875 1.6171875,2.3671875 1.6171875,0 1.6171875,-1.86328125 1.6171875,-2.3671875 z M 5.5779453,1.4355937 c -0.3164062,0 -0.75,-0.1875 -0.890625,-0.7617187 -0.09375,-0.41015625 -0.09375,-0.984375 -0.09375,-1.5 0,-0.5039063 0,-1.03125 0.1054688,-1.4179688 C 4.8513828,-2.794875 5.2966953,-2.9355 5.5779453,-2.9355 c 0.375,0 0.7382813,0.2226562 0.8671875,0.6328125 0.1054688,0.375 0.1171875,0.8789062 0.1171875,1.4765625 0,0.515625 0,1.04296875 -0.09375,1.4765625 -0.140625,0.6328125 -0.609375,0.7851562 -0.890625,0.7851562 z m 0,0"
         style="fill:#000000;fill-opacity:1;fill-rule:nonzero;stroke:none" />
    </g>
    <path
       id="path17"
       d="m 2.9296953,-6.3749609 c 0,-0.234375 0,-0.2578125 -0.234375,-0.2578125 -0.609375,0.6328125 -1.4882812,0.6328125 -1.80468749,0.6328125 v 0.3164062 c 0.19921879,0 0.78515629,0 1.30078129,-0.2578125 v 5.15625001 c 0,0.3515625 -0.035156,0.48046875 -0.9257813,0.48046875 H 0.94922656 V 3.90625e-5 C 1.3007891,-0.03511719 2.1562578,-0.03511719 2.5546953,-0.03511719 c 0.3984375,0 1.265625,0 1.6171875,0.0351562525 V -0.30464844 H 3.8554766 c -0.9023438,0 -0.9257813,-0.1171875 -0.9257813,-0.48046875 z m 0,0"
       style="fill:#000000;fill-opacity:1;fill-rule:nonzero;stroke:none"
       aria-label="1"
       transform="matrix(1.3333333,0,0,1.3333333,17.277333,100.38667)" />
    <path
       id="path18"
       d="M 1.2656328,-0.76316406 2.3203203,-1.7944141 c 1.5585938,-1.3710937 2.15625,-1.9101562 2.15625,-2.90625 0,-1.1367187 -0.9023437,-1.9335937 -2.1210937,-1.9335937 -1.125,0 -1.85156254,0.9140625 -1.85156254,1.8046875 0,0.5507812 0.4921875,0.5507812 0.52734374,0.5507812 0.1640625,0 0.515625,-0.1171875 0.515625,-0.5273437 0,-0.2578125 -0.1875,-0.515625 -0.5273437,-0.515625 -0.0820313,0 -0.10546879,0 -0.12890629,0.011719 C 1.1132891,-5.95457 1.6523516,-6.32957 2.2265703,-6.32957 c 0.9140625,0 1.3359375,0.8085937 1.3359375,1.6289062 0,0.796875 -0.4921875,1.5820313 -1.0429687,2.203125 L 0.60938281,-0.36472656 C 0.50391406,-0.25925781 0.50391406,-0.23582031 0.50391406,-0.00144531 H 4.1953203 l 0.28125,-1.73437499 H 4.2187578 c -0.046875,0.3046875 -0.1171875,0.73828124 -0.2109375,0.89062499 -0.070312,0.0820313 -0.7265625,0.0820313 -0.9492187,0.0820313 z m 0,0"
       style="fill:#000000;fill-opacity:1;fill-rule:nonzero;stroke:none"
       aria-label="2"
       transform="matrix(1.3333333,0,0,1.3333333,17.277333,43.693333)" />
    <path
       id="path19"
       d="M 0,0 V 42.52022 H 42.52022 V 85.04044 H 85.04044 V 0"
       style="fill:none;stroke:#0000ff;stroke-width:0.79701;stroke-linecap:butt;stroke-linejoin:miter;stroke-miterlimit:10;stroke-dasharray:none;stroke-opacity:1"
       transform="matrix(1.3333333,0,0,-1.3333333,28.612,152.8)" />
    <path
       id="path20"
       d="M 42.52022,0 V 42.52022"
       style="fill:none;stroke:#000000;stroke-width:0.79701;stroke-linecap:butt;stroke-linejoin:miter;stroke-miterlimit:10;stroke-dasharray:2.98883, 2.98883;stroke-dashoffset:0;stroke-opacity:1"
       transform="matrix(1.3333333,0,0,-1.3333333,28.612,152.8)" />
  </g>
</svg>
