<?xml version="1.0" encoding="UTF-8" standalone="no"?>
<!-- Created with Inkscape (http://www.inkscape.org/) -->

<svg
   version="1.1"
   id="svg1"
   width="300.67999"
   height="121.17333"
   viewBox="0 0 300.67999 121.17333"
   sodipodi:docname="24-25-1-信号与系统-期末（A卷）-筨案6.pdf"
   xmlns:inkscape="http://www.inkscape.org/namespaces/inkscape"
   xmlns:sodipodi="http://sodipodi.sourceforge.net/DTD/sodipodi-0.dtd"
   xmlns="http://www.w3.org/2000/svg"
   xmlns:svg="http://www.w3.org/2000/svg">
  <defs
     id="defs1" />
  <sodipodi:namedview
     id="namedview1"
     pagecolor="#ffffff"
     bordercolor="#000000"
     borderopacity="0.25"
     inkscape:showpageshadow="2"
     inkscape:pageopacity="0.0"
     inkscape:pagecheckerboard="0"
     inkscape:deskcolor="#d1d1d1">
    <inkscape:page
       x="0"
       y="0"
       inkscape:label="1"
       id="page1"
       width="300.67999"
       height="121.17333"
       margin="0"
       bleed="0" />
  </sodipodi:namedview>
  <g
     id="g1"
     inkscape:groupmode="layer"
     inkscape:label="1">
    <path
       id="path1"
       d="M -106.86469,0 H 106.46619"
       style="fill:none;stroke:#000000;stroke-width:0.3985;stroke-linecap:butt;stroke-linejoin:miter;stroke-miterlimit:10;stroke-dasharray:none;stroke-opacity:1"
       transform="matrix(1.3333333,0,0,-1.3333333,148.97733,102.38533)" />
    <path
       id="path2"
       d="M -2.07224,2.39104 C -1.69365,0.95639 -0.84999,0.27895 0,0 -0.84999,-0.27895 -1.69365,-0.95639 -2.07224,-2.39104"
       style="fill:none;stroke:#000000;stroke-width:0.3985;stroke-linecap:round;stroke-linejoin:round;stroke-miterlimit:10;stroke-dasharray:none;stroke-opacity:1"
       transform="matrix(1.3333333,0,0,-1.3333333,291.19792,102.38533)" />
    <path
       id="path3"
       d="M 6.7392578,-1.6176328 H 6.4931641 c -0.046875,0.2578125 -0.082031,0.4921875 -0.1757813,0.72656249 -0.046875,0.1640625 -0.082031,0.24609375 -0.65625,0.24609375 H 4.8642578 C 4.9931641,-1.2074766 5.2978516,-1.6879453 5.7431641,-2.3441953 c 0.46875,-0.703125 0.8789062,-1.3945313 0.8789062,-2.1796875 0,-1.3828125 -1.3359375,-2.4960938 -3.0234375,-2.4960938 -1.7109375,0 -3.03515624,1.1367188 -3.03515624,2.4960938 0,0.7851562 0.3984375,1.4765625 0.86718754,2.1796875 0.4453125,0.65625 0.7617187,1.1367187 0.890625,1.69921874 h -0.796875 c -0.57421879,0 -0.60937504,-0.0820313 -0.65625004,-0.234375 C 0.78613281,-1.1020078 0.73925781,-1.3598203 0.69238281,-1.6176328 h -0.2578125 l 0.328125,1.6171874875 H 2.3564453 c 0.2226563,0 0.2578125,0 0.2578125,-0.2109374975 0,-0.69140625 -0.3164062,-1.57031249 -0.5390625,-2.21484379 -0.2109375,-0.5742187 -0.4921875,-1.359375 -0.4921875,-2.109375 0,-1.59375 1.1015625,-2.2734375 2.0039063,-2.2734375 0.9609375,0 2.015625,0.7265625 2.015625,2.2734375 0,0.75 -0.2695313,1.5117188 -0.5625,2.3203125 -0.1523438,0.421875 -0.46875,1.31250004 -0.46875,2.00390629 0,0.2109374975 0.035156,0.2109374975 0.2578125,0.2109374975 h 1.5820312 z m 0,0"
       style="fill:#000000;fill-opacity:1;fill-rule:nonzero;stroke:none"
       aria-label="Ω"
       transform="matrix(1.3333333,0,0,1.3333333,286.66667,97.692)" />
    <path
       id="path4"
       d="M 0,0 V 67.63383"
       style="fill:none;stroke:#000000;stroke-width:0.3985;stroke-linecap:butt;stroke-linejoin:miter;stroke-miterlimit:10;stroke-dasharray:none;stroke-opacity:1"
       transform="matrix(1.3333333,0,0,-1.3333333,148.97733,102.38533)" />
    <path
       id="path5"
       d="M -2.07224,2.39104 C -1.69365,0.95639 -0.84999,0.27895 0,0 -0.84999,-0.27895 -1.69365,-0.95639 -2.07224,-2.39104"
       style="fill:none;stroke:#000000;stroke-width:0.3985;stroke-linecap:round;stroke-linejoin:round;stroke-miterlimit:10;stroke-dasharray:none;stroke-opacity:1"
       transform="matrix(0,-1.3333333,-1.3333333,0,148.97733,11.941227)" />
    <g
       id="g5"
       aria-label="H(|e&#10;jΩ&#10;|)"
       transform="matrix(1.3333333,0,0,1.3333333,153.67067,15.602667)">
      <path
         id="path6"
         d="m 7.606375,-6.0359844 c 0.082031,-0.3632812 0.1054688,-0.4570312 0.8320313,-0.4570312 0.2578125,0 0.3398437,0 0.3398437,-0.1992188 0,-0.1171875 -0.1054687,-0.1171875 -0.140625,-0.1171875 -0.28125,0 -0.9960937,0.035156 -1.2773437,0.035156 -0.28125,0 -0.9960938,-0.035156 -1.2773438,-0.035156 -0.082031,0 -0.1992187,0 -0.1992187,0.1992188 0,0.1171875 0.09375,0.1171875 0.28125,0.1171875 0.023437,0 0.2109375,0 0.375,0.011719 0.1875,0.023437 0.2695312,0.035156 0.2695312,0.1640625 0,0.035156 0,0.058594 -0.035156,0.1875 l -0.5976563,2.4375 H 3.1415313 l 0.5859375,-2.34375 c 0.09375,-0.3632812 0.1171875,-0.4570312 0.8320312,-0.4570312 0.2578125,0 0.3398438,0 0.3398438,-0.1992188 0,-0.1171875 -0.1054688,-0.1171875 -0.140625,-0.1171875 -0.2695313,0 -0.9960938,0.035156 -1.265625,0.035156 -0.2929688,0 -0.9960938,-0.035156 -1.2890625,-0.035156 -0.082031,0 -0.1875,0 -0.1875,0.1992188 0,0.1171875 0.082031,0.1171875 0.28125,0.1171875 0.011719,0 0.1992187,0 0.375,0.011719 0.1757812,0.023437 0.2695312,0.035156 0.2695312,0.1640625 0,0.035156 -0.011719,0.070312 -0.046875,0.1875 L 1.5595,-0.77426562 c -0.09375,0.38671875 -0.1171875,0.46875 -0.90234375,0.46875 -0.17578125,0 -0.26953125,0 -0.26953125,0.19921875 0,0.105468745 0.1171875,0.105468745 0.140625,0.105468745 0.28125,0 0.984375,-0.035156245 1.265625,-0.035156245 0.2109375,0 0.4335938,0.01171875 0.6328125,0.01171875 0.2226563,0 0.4453125,0.023437495 0.65625,0.023437495 0.070312,0 0.1992188,0 0.1992188,-0.199218745 0,-0.10546875 -0.09375,-0.10546875 -0.28125,-0.10546875 -0.375,0 -0.6445313,0 -0.6445313,-0.1875 0,-0.0585938 0.011719,-0.10546875 0.023437,-0.1640625 L 3.0595,-3.3875469 H 6.0946563 C 5.6845,-1.7352031 5.450125,-0.78598437 5.4149688,-0.63364062 5.3095,-0.31723437 5.122,-0.30551562 4.5009063,-0.30551562 c -0.1523438,0 -0.234375,0 -0.234375,0.19921875 0,0.105468745 0.1171875,0.105468745 0.140625,0.105468745 0.28125,0 0.984375,-0.035156245 1.265625,-0.035156245 0.2109375,0 0.421875,0.01171875 0.6328125,0.01171875 0.2226562,0 0.4335937,0.023437495 0.6445312,0.023437495 0.082031,0 0.1992188,0 0.1992188,-0.199218745 0,-0.10546875 -0.082031,-0.10546875 -0.2695313,-0.10546875 -0.375,0 -0.65625,0 -0.65625,-0.1875 0,-0.0585938 0.023437,-0.10546875 0.035156,-0.1640625 z m 0,0"
         style="fill:#000000;fill-opacity:1;fill-rule:nonzero;stroke:none" />
      <path
         id="path7"
         d="m 12.384695,2.3897969 c 0,-0.035156 0,-0.046875 -0.164062,-0.2226563 -1.242188,-1.25390622 -1.570313,-3.12890622 -1.570313,-4.6640625 0,-1.7226562 0.386719,-3.4570312 1.605469,-4.7109375 0.128906,-0.1171875 0.128906,-0.1289062 0.128906,-0.1640625 0,-0.070312 -0.03516,-0.1054687 -0.09375,-0.1054687 -0.105468,0 -0.996093,0.6796875 -1.582031,1.9453125 -0.515625,1.1015625 -0.632812,2.203125 -0.632812,3.0351562 0,0.7851563 0.117187,1.99218753 0.65625,3.11718753 0.597656,1.21874997 1.453125,1.87499997 1.558593,1.87499997 0.05859,0 0.09375,-0.035156 0.09375,-0.1054687 z m 0,0"
         style="fill:#000000;fill-opacity:1;fill-rule:nonzero;stroke:none" />
      <path
         id="path8"
         d="m 14.546805,-7.1141094 c 0,-0.1757812 0,-0.3632812 -0.199219,-0.3632812 -0.199219,0 -0.199219,0.1875 -0.199219,0.3632812 v 9.2460938 c 0,0.1757812 0,0.3632812 0.199219,0.3632812 0.199219,0 0.199219,-0.1875 0.199219,-0.3632812 z m 0,0"
         style="fill:#000000;fill-opacity:1;fill-rule:nonzero;stroke:none" />
      <path
         id="path9"
         d="m 19.870047,-1.1844219 c 0,-0.1054687 -0.08203,-0.1171875 -0.128906,-0.1171875 -0.09375,0 -0.117188,0.058594 -0.128907,0.140625 -0.351562,1.01953128 -1.253906,1.01953128 -1.347656,1.01953128 -0.503906,0 -0.902344,-0.29296875 -1.125,-0.66796875 C 16.834891,-1.2898906 16.834891,-1.9461406 16.834891,-2.2977031 h 2.789062 c 0.210938,0 0.246094,0 0.246094,-0.2109375 0,-0.984375 -0.539063,-1.9570313 -1.78125,-1.9570313 -1.160156,0 -2.074219,1.03125 -2.074219,2.2734375 0,1.33593753 1.042969,2.29687503 2.191406,2.29687503 1.21875,0 1.664063,-1.1015625 1.664063,-1.28906253 z m -0.65625,-1.3242187 h -2.367188 c 0.05859,-1.4882813 0.902344,-1.734375 1.242188,-1.734375 1.019531,0 1.125,1.3476562 1.125,1.734375 z m 0,0"
         style="fill:#000000;fill-opacity:1;fill-rule:nonzero;stroke:none" />
      <path
         id="path10"
         d="M 21.856375,-3.2996562 V -6.686375 l -1.101562,0.070312 v 0.257813 c 0.515625,0 0.574218,0.046875 0.574218,0.3867188 v 2.6953125 c 0,0.2578125 -0.05859,0.890625 -0.527343,0.890625 -0.01172,0 -0.1875,0 -0.339844,-0.070312 0.01172,-0.011719 0.164062,-0.09375 0.164062,-0.3046875 0,-0.1875 -0.128906,-0.328125 -0.328125,-0.328125 -0.199218,0 -0.328125,0.140625 -0.328125,0.3398437 0,0.375 0.421875,0.5507813 0.84375,0.5507813 0.5625,0 1.042969,-0.4335938 1.042969,-1.101563 z m 0,-4.5117188 c 0,-0.2226562 -0.175781,-0.4101562 -0.398437,-0.4101562 -0.246094,0 -0.398438,0.1992187 -0.398438,0.3984375 0,0.2226562 0.175781,0.4101562 0.398438,0.4101562 0.234375,0 0.398437,-0.1992187 0.398437,-0.3984375 z m 0,0"
         style="fill:#000000;fill-opacity:1;fill-rule:nonzero;stroke:none" />
      <path
         id="path11"
         d="m 27.897391,-4.7879375 h -0.234375 c 0,0.023437 -0.07031,0.3515625 -0.128907,0.5039063 -0.03516,0.1171875 -0.05859,0.1757812 -0.492187,0.1757812 h -0.585938 c 0.117188,-0.3984375 0.316407,-0.6679687 0.703125,-1.1835937 0.351563,-0.46875 0.65625,-0.9257813 0.65625,-1.4882813 0,-0.9375 -1.019531,-1.734375 -2.355468,-1.734375 -1.335938,0 -2.34375,0.796875 -2.34375,1.734375 0,0.609375 0.328125,1.0664063 0.820312,1.7226563 0.199219,0.2578125 0.421875,0.5742187 0.539063,0.9492187 h -0.597657 c -0.421875,0 -0.445312,-0.058594 -0.480468,-0.140625 -0.05859,-0.1289062 -0.140625,-0.5273437 -0.140625,-0.5390625 h -0.234375 l 0.246093,1.171875 h 1.253907 c 0.152343,0 0.199218,0 0.199218,-0.1523437 0,-0.5039063 -0.257812,-1.1015625 -0.398437,-1.4414063 -0.269531,-0.609375 -0.46875,-1.0664062 -0.46875,-1.5820312 0,-0.984375 0.796875,-1.5351563 1.605469,-1.5351563 0.820312,0 1.605468,0.5507813 1.605468,1.5351563 0,0.5273437 -0.210937,1.0078125 -0.445312,1.546875 -0.152344,0.3515625 -0.421875,0.9609375 -0.421875,1.4648437 0,0.1640625 0.04687,0.1640625 0.199219,0.1640625 h 1.253906 z m 0,0"
         style="fill:#000000;fill-opacity:1;fill-rule:nonzero;stroke:none" />
      <path
         id="path12"
         d="m 30.393484,-7.1141094 c 0,-0.1757812 0,-0.3632812 -0.199218,-0.3632812 -0.199219,0 -0.199219,0.1875 -0.199219,0.3632812 v 9.2460938 c 0,0.1757812 0,0.3632812 0.199219,0.3632812 0.199218,0 0.199218,-0.1875 0.199218,-0.3632812 z m 0,0"
         style="fill:#000000;fill-opacity:1;fill-rule:nonzero;stroke:none" />
      <path
         id="path13"
         d="m 34.459891,-2.4969219 c 0,-0.7734375 -0.117188,-1.9804687 -0.65625,-3.1054687 -0.597657,-1.21875 -1.464844,-1.875 -1.558594,-1.875 -0.05859,0 -0.105469,0.046875 -0.105469,0.1054687 0,0.035156 0,0.046875 0.199219,0.234375 0.972656,0.984375 1.535156,2.5664063 1.535156,4.640625 0,1.71093753 -0.363281,3.45703128 -1.59375,4.7226563 -0.140625,0.1171875 -0.140625,0.1289062 -0.140625,0.1640625 0,0.058594 0.04687,0.1054687 0.105469,0.1054687 0.09375,0 0.996094,-0.6796875 1.582031,-1.94531247 0.503906,-1.1015625 0.632813,-2.20312503 0.632813,-3.04687503 z m 0,0"
         style="fill:#000000;fill-opacity:1;fill-rule:nonzero;stroke:none" />
    </g>
    <g
       id="g13"
       aria-label="−6"
       transform="matrix(1.3333333,0,0,1.3333333,4.4253333,115.63867)">
      <path
         id="path14"
         d="m 6.5628359,-2.2983359 c 0.1757813,0 0.3515625,0 0.3515625,-0.1992188 0,-0.1992187 -0.1757812,-0.1992187 -0.3515625,-0.1992187 h -5.390625 c -0.1640625,0 -0.33984371,0 -0.33984371,0.1992187 0,0.1992188 0.17578121,0.1992188 0.33984371,0.1992188 z m 0,0"
         style="fill:#000000;fill-opacity:1;fill-rule:nonzero;stroke:none" />
      <path
         id="path15"
         d="m 9.0618594,-3.2709922 v -0.234375 c 0,-2.5195312 1.2421876,-2.8828125 1.7460936,-2.8828125 0.234375,0 0.65625,0.058594 0.878906,0.3984375 -0.152343,0 -0.550781,0 -0.550781,0.4453125 0,0.3164063 0.234375,0.4570313 0.457031,0.4570313 0.164063,0 0.457032,-0.082031 0.457032,-0.46875 0,-0.5976563 -0.433594,-1.078125 -1.265625,-1.078125 -1.2773441,0 -2.6132816,1.2890625 -2.6132816,3.4804687 0,2.66015626 1.1484375,3.37500001 2.0742186,3.37500001 1.113281,0 2.050781,-0.9375 2.050781,-2.25000001 0,-1.265625 -0.878906,-2.2265625 -1.992187,-2.2265625 -0.6679689,0 -1.0429689,0.5039063 -1.2421876,0.984375 z m 1.1835936,3.21093751 c -0.6210936,0 -0.9257811,-0.59765625 -0.9843749,-0.75 C 9.0852969,-1.2788047 9.0852969,-2.0756797 9.0852969,-2.2514609 c 0,-0.7734375 0.3164062,-1.7695313 1.2187501,-1.7695313 0.152344,0 0.609375,0 0.925781,0.609375 0.175781,0.375 0.175781,0.8789063 0.175781,1.3710938 0,0.4804687 0,0.9726562 -0.164062,1.33593746 -0.304688,0.59765625 -0.761719,0.64453125 -0.996094,0.64453125 z m 0,0"
         style="fill:#000000;fill-opacity:1;fill-rule:nonzero;stroke:none" />
    </g>
    <g
       id="g15"
       aria-label="−4"
       transform="matrix(1.3333333,0,0,1.3333333,49.781333,115.63867)">
      <path
         id="path16"
         d="m 6.5624375,-2.2983359 c 0.1757813,0 0.3515625,0 0.3515625,-0.1992188 0,-0.1992187 -0.1757812,-0.1992187 -0.3515625,-0.1992187 h -5.390625 c -0.1640625,0 -0.33984375,0 -0.33984375,0.1992187 0,0.1992188 0.17578125,0.1992188 0.33984375,0.1992188 z m 0,0"
         style="fill:#000000;fill-opacity:1;fill-rule:nonzero;stroke:none" />
      <path
         id="path17"
         d="m 10.678648,-1.6420859 v 0.86718746 c 0,0.3515625 -0.02344,0.46875 -0.7617183,0.46875 H 9.7059922 v 0.3046875 c 0.4101558,-0.03515625 0.9374998,-0.03515625 1.3476558,-0.03515625 0.421875,0 0.949219,0 1.359375,0.03515625 v -0.3046875 h -0.210937 c -0.738281,0 -0.761719,-0.1171875 -0.761719,-0.46875 V -1.6420859 h 0.996094 v -0.3164063 h -0.996094 v -4.5234375 c 0,-0.1992187 0,-0.2578125 -0.152344,-0.2578125 -0.09375,0 -0.117187,0 -0.199218,0.1171875 l -3.0585941,4.6640625 v 0.3164063 z m 0.05859,-0.3164063 H 8.3114609 l 2.4257811,-3.7148437 z m 0,0"
         style="fill:#000000;fill-opacity:1;fill-rule:nonzero;stroke:none" />
    </g>
    <g
       id="g17"
       aria-label="−2"
       transform="matrix(1.3333333,0,0,1.3333333,95.136,115.63867)">
      <path
         id="path18"
         d="m 6.5630391,-2.2983359 c 0.1757812,0 0.3515625,0 0.3515625,-0.1992188 0,-0.1992187 -0.1757813,-0.1992187 -0.3515625,-0.1992187 h -5.390625 c -0.1640625,0 -0.33984379,0 -0.33984379,0.1992187 0,0.1992188 0.17578129,0.1992188 0.33984379,0.1992188 z m 0,0"
         style="fill:#000000;fill-opacity:1;fill-rule:nonzero;stroke:none" />
      <path
         id="path19"
         d="M 9.0122578,-0.76317969 10.066945,-1.7944297 c 1.558594,-1.3710937 2.15625,-1.9101562 2.15625,-2.90625 0,-1.1367187 -0.902343,-1.9335937 -2.121093,-1.9335937 -1.1250004,0 -1.8515629,0.9140625 -1.8515629,1.8046875 0,0.5507812 0.4921875,0.5507812 0.5273437,0.5507812 0.1640625,0 0.515625,-0.1171875 0.515625,-0.5273437 0,-0.2578125 -0.1875,-0.515625 -0.5273437,-0.515625 -0.082031,0 -0.1054688,0 -0.1289063,0.011719 0.2226563,-0.6445312 0.7617188,-1.0195312 1.3359375,-1.0195312 0.9140627,0 1.3359377,0.8085937 1.3359377,1.6289062 0,0.796875 -0.492188,1.5820313 -1.042969,2.203125 l -1.9101562,2.13281251 c -0.1054687,0.10546875 -0.1054687,0.12890625 -0.1054687,0.36328125 h 3.6914059 l 0.28125,-1.73437496 h -0.257812 c -0.04687,0.3046875 -0.117188,0.73828121 -0.210938,0.89062496 -0.07031,0.0820313 -0.726562,0.0820313 -0.949218,0.0820313 z m 0,0"
         style="fill:#000000;fill-opacity:1;fill-rule:nonzero;stroke:none" />
    </g>
    <path
       id="path20"
       d="m 4.5822187,-3.1889609 c 0,-0.796875 -0.046875,-1.59375 -0.3984375,-2.3320313 -0.4570312,-0.9609375 -1.2773437,-1.1132812 -1.6875,-1.1132812 -0.5976562,0 -1.3359375,0.2578125 -1.73437495,1.1835937 -0.328125,0.6914063 -0.375,1.4648438 -0.375,2.2617188 0,0.75 0.046875,1.640625 0.4453125,2.40234371 0.43359375,0.80859375 1.16015625,1.0078125 1.65234375,1.0078125 0.5390625,0 1.2890625,-0.2109375 1.734375,-1.16015625 C 4.5353437,-1.6303672 4.5822187,-2.4038047 4.5822187,-3.1889609 Z m -2.0976562,3.18749996 c -0.3867188,0 -0.984375,-0.24609375 -1.1601563,-1.20703126 -0.1054687,-0.5976562 -0.1054687,-1.5117187 -0.1054687,-2.0976562 0,-0.6445313 0,-1.3007813 0.082031,-1.8398438 0.1875,-1.1835937 0.9257813,-1.265625 1.1835938,-1.265625 0.328125,0 0.984375,0.1757813 1.171875,1.1601563 0.09375,0.5625 0.09375,1.3125 0.09375,1.9453125 0,0.75 0,1.4179687 -0.1054688,2.0625 -0.1523437,0.93749996 -0.7148437,1.24218746 -1.160156,1.24218746 z m 0,0"
       style="fill:#000000;fill-opacity:1;fill-rule:nonzero;stroke:none"
       aria-label="0"
       transform="matrix(1.3333333,0,0,1.3333333,145.656,115.63867)" />
    <path
       id="path21"
       d="M 1.2664141,-0.76317969 2.3211016,-1.7944297 c 1.5585937,-1.3710937 2.15625,-1.9101562 2.15625,-2.90625 0,-1.1367187 -0.9023438,-1.9335937 -2.1210938,-1.9335937 -1.125,0 -1.85156249,0.9140625 -1.85156249,1.8046875 0,0.5507812 0.4921875,0.5507812 0.52734379,0.5507812 0.1640625,0 0.515625,-0.1171875 0.515625,-0.5273437 0,-0.2578125 -0.1875,-0.515625 -0.5273438,-0.515625 -0.0820312,0 -0.10546874,0 -0.12890624,0.011719 0.22265624,-0.6445312 0.76171874,-1.0195312 1.33593754,-1.0195312 0.9140625,0 1.3359375,0.8085937 1.3359375,1.6289062 0,0.796875 -0.4921875,1.5820313 -1.0429688,2.203125 L 0.61016406,-0.36474219 C 0.50469531,-0.25927344 0.50469531,-0.23583594 0.50469531,-0.00146094 H 4.1961016 l 0.28125,-1.73437496 H 4.2195391 c -0.046875,0.3046875 -0.1171875,0.73828121 -0.2109375,0.89062496 -0.070313,0.0820313 -0.7265625,0.0820313 -0.9492188,0.0820313 z m 0,0"
       style="fill:#000000;fill-opacity:1;fill-rule:nonzero;stroke:none"
       aria-label="2"
       transform="matrix(1.3333333,0,0,1.3333333,191.01067,115.63867)" />
    <path
       id="path22"
       d="m 2.9300781,-1.6420859 v 0.86718746 c 0,0.3515625 -0.023437,0.46875 -0.7617187,0.46875 H 1.9574219 v 0.3046875 c 0.4101562,-0.03515625 0.9375,-0.03515625 1.3476562,-0.03515625 0.421875,0 0.9492188,0 1.359375,0.03515625 v -0.3046875 H 4.4535156 c -0.7382812,0 -0.7617187,-0.1171875 -0.7617187,-0.46875 V -1.6420859 H 4.6878906 V -1.9584922 H 3.6917969 v -4.5234375 c 0,-0.1992187 0,-0.2578125 -0.1523438,-0.2578125 -0.09375,0 -0.1171875,0 -0.1992187,0.1171875 l -3.05859377,4.6640625 v 0.3164063 z m 0.058594,-0.3164063 H 0.56289063 L 2.9886719,-5.6733359 Z m 0,0"
       style="fill:#000000;fill-opacity:1;fill-rule:nonzero;stroke:none"
       aria-label="4"
       transform="matrix(1.3333333,0,0,1.3333333,236.36667,115.63867)" />
    <path
       id="path23"
       d="m 1.3134922,-3.2709922 v -0.234375 c 0,-2.5195312 1.2421875,-2.8828125 1.7460937,-2.8828125 0.234375,0 0.65625,0.058594 0.8789063,0.3984375 -0.1523438,0 -0.5507813,0 -0.5507813,0.4453125 0,0.3164063 0.234375,0.4570313 0.4570313,0.4570313 0.1640625,0 0.4570312,-0.082031 0.4570312,-0.46875 0,-0.5976563 -0.4335937,-1.078125 -1.265625,-1.078125 -1.2773437,0 -2.61328121,1.2890625 -2.61328121,3.4804687 0,2.66015626 1.14843751,3.37500001 2.07421871,3.37500001 1.1132813,0 2.0507813,-0.9375 2.0507813,-2.25000001 0,-1.265625 -0.8789063,-2.2265625 -1.9921875,-2.2265625 -0.6679688,0 -1.0429688,0.5039063 -1.2421875,0.984375 z m 1.1835937,3.21093751 c -0.6210937,0 -0.9257812,-0.59765625 -0.984375,-0.75 C 1.3369297,-1.2788047 1.3369297,-2.0756797 1.3369297,-2.2514609 c 0,-0.7734375 0.3164062,-1.7695313 1.21875,-1.7695313 0.1523437,0 0.609375,0 0.9257812,0.609375 0.1757813,0.375 0.1757813,0.8789063 0.1757813,1.3710938 0,0.4804687 0,0.9726562 -0.1640625,1.33593746 -0.3046875,0.59765625 -0.7617188,0.64453125 -0.9960938,0.64453125 z m 0,0"
       style="fill:#000000;fill-opacity:1;fill-rule:nonzero;stroke:none"
       aria-label="6"
       transform="matrix(1.3333333,0,0,1.3333333,281.72133,115.63867)" />
    <g
       id="g23"
       aria-label="0.5"
       transform="matrix(1.3333333,0,0,1.3333333,127.31067,83.988)">
      <path
         id="path24"
         d="m 4.5834063,-3.1872891 c 0,-0.796875 -0.046875,-1.59375 -0.3984375,-2.3320312 -0.4570313,-0.9609375 -1.2773438,-1.1132813 -1.6875,-1.1132813 -0.5976563,0 -1.3359375,0.2578125 -1.73437505,1.1835938 -0.328125,0.6914062 -0.375,1.4648437 -0.375,2.2617187 0,0.75 0.046875,1.640625 0.4453125,2.40234379 C 1.267,0.02364844 1.9935625,0.22286719 2.48575,0.22286719 c 0.5390625,0 1.2890625,-0.2109375 1.734375,-1.16015625 C 4.5365313,-1.6286953 4.5834063,-2.4021328 4.5834063,-3.1872891 Z M 2.48575,2.109375e-4 C 2.0990313,2.109375e-4 1.501375,-0.24588281 1.3255938,-1.2068203 1.220125,-1.8044766 1.220125,-2.7185391 1.220125,-3.3044766 c 0,-0.6445312 0,-1.3007812 0.082031,-1.8398437 0.1875,-1.1835938 0.9257812,-1.265625 1.1835937,-1.265625 0.328125,0 0.984375,0.1757812 1.171875,1.1601562 0.09375,0.5625 0.09375,1.3125 0.09375,1.9453125 0,0.75 0,1.4179688 -0.1054687,2.0625 C 3.4935625,-0.30447656 2.9310625,2.109375e-4 2.48575,2.109375e-4 Z m 0,0"
         style="fill:#000000;fill-opacity:1;fill-rule:nonzero;stroke:none" />
      <path
         id="path25"
         d="m 6.892,-0.52713281 c 0,-0.29296875 -0.234375,-0.52734379 -0.5273437,-0.52734379 -0.28125,0 -0.5273438,0.23437504 -0.5273438,0.52734379 0,0.29296875 0.2460938,0.5273437475 0.5273438,0.5273437475 C 6.657625,2.109375e-4 6.892,-0.23416406 6.892,-0.52713281 Z m 0,0"
         style="fill:#000000;fill-opacity:1;fill-rule:nonzero;stroke:none" />
      <path
         id="path26"
         d="m 12.224031,-2.0036953 c 0,-1.1835938 -0.820312,-2.1796875 -1.898437,-2.1796875 -0.480469,0 -0.902344,0.1640625 -1.2656252,0.5039062 v -1.9335937 c 0.1992187,0.058594 0.5273437,0.1289062 0.84375,0.1289062 1.2304692,0 1.9335942,-0.9140625 1.9335942,-1.0429687 0,-0.058594 -0.03516,-0.1054688 -0.105469,-0.1054688 -0.01172,0 -0.03516,0 -0.08203,0.023437 -0.199219,0.09375 -0.679688,0.2929688 -1.347657,0.2929688 -0.3984372,0 -0.8554685,-0.070312 -1.3242185,-0.28125 -0.082031,-0.023437 -0.1054687,-0.023437 -0.1289062,-0.023437 -0.09375,0 -0.09375,0.082031 -0.09375,0.234375 v 2.953125 c 0,0.1757812 0,0.2578125 0.140625,0.2578125 0.070312,0 0.082031,-0.035156 0.1289062,-0.09375 0.1054688,-0.1523438 0.4804688,-0.6914063 1.2773435,-0.6914063 0.527344,0 0.773438,0.4570313 0.855469,0.6328125 0.152344,0.375 0.175781,0.7617188 0.175781,1.2539063 0,0.3515625 0,0.9492187 -0.234375,1.37109374 -0.246093,0.38671875 -0.609375,0.64453125 -1.066406,0.64453125 -0.7265625,0 -1.3007812,-0.52734375 -1.4648437,-1.11328129 0.023437,0.011719 0.058594,0.011719 0.1640625,0.011719 0.328125,0 0.5039062,-0.2460938 0.5039062,-0.4804688 0,-0.2460937 -0.1757812,-0.4921875 -0.5039062,-0.4921875 -0.140625,0 -0.4804688,0.070312 -0.4804688,0.5273438 0,0.85546874 0.6796875,1.82812499 1.792969,1.82812499 1.160156,0 2.179687,-0.9609375 2.179687,-2.22656249 z m 0,0"
         style="fill:#000000;fill-opacity:1;fill-rule:nonzero;stroke:none" />
    </g>
    <path
       id="path27"
       d="m 2.9310859,-6.373625 c 0,-0.234375 0,-0.2578125 -0.234375,-0.2578125 -0.609375,0.6328125 -1.4882812,0.6328125 -1.80468746,0.6328125 v 0.3164063 c 0.19921876,0 0.78515626,0 1.30078126,-0.2578125 v 5.15624995 c 0,0.3515625 -0.035156,0.48046875 -0.9257813,0.48046875 H 0.95061719 V 0.001375 C 1.3021797,-0.03378125 2.1576484,-0.03378125 2.5560859,-0.03378125 c 0.3984375,0 1.265625,0 1.6171875,0.03515625 V -0.3033125 H 3.8568672 c -0.9023438,0 -0.9257813,-0.1171875 -0.9257813,-0.48046875 z m 0,0"
       style="fill:#000000;fill-opacity:1;fill-rule:nonzero;stroke:none"
       aria-label="1"
       transform="matrix(1.3333333,0,0,1.3333333,137.64267,61.310667)" />
    <g
       id="g27"
       aria-label="1.5"
       transform="matrix(1.3333333,0,0,1.3333333,127.31067,38.633333)">
      <path
         id="path28"
         d="m 2.9310625,-6.3753906 c 0,-0.234375 0,-0.2578125 -0.234375,-0.2578125 C 2.0873125,-6.0003906 1.2084063,-6.0003906 0.892,-6.0003906 v 0.3164062 c 0.1992188,0 0.7851563,0 1.3007813,-0.2578125 v 5.15625002 c 0,0.3515625 -0.035156,0.48046875 -0.9257813,0.48046875 H 0.95059375 V -3.90625e-4 C 1.3021563,-0.03554688 2.157625,-0.03554688 2.5560625,-0.03554688 c 0.3984375,0 1.265625,0 1.6171875,0.035156255 V -0.30507813 H 3.8568438 c -0.9023438,0 -0.9257813,-0.1171875 -0.9257813,-0.48046875 z m 0,0"
         style="fill:#000000;fill-opacity:1;fill-rule:nonzero;stroke:none" />
      <path
         id="path29"
         d="m 6.892,-0.52773438 c 0,-0.29296875 -0.234375,-0.52734372 -0.5273437,-0.52734372 -0.28125,0 -0.5273438,0.23437497 -0.5273438,0.52734372 0,0.29296875 0.2460938,0.527343755 0.5273438,0.527343755 0.2929687,0 0.5273437,-0.234375005 0.5273437,-0.527343755 z m 0,0"
         style="fill:#000000;fill-opacity:1;fill-rule:nonzero;stroke:none" />
      <path
         id="path30"
         d="m 12.224031,-2.0042969 c 0,-1.1835937 -0.820312,-2.1796875 -1.898437,-2.1796875 -0.480469,0 -0.902344,0.1640625 -1.2656252,0.5039063 v -1.9335938 c 0.1992187,0.058594 0.5273437,0.1289063 0.84375,0.1289063 1.2304692,0 1.9335942,-0.9140625 1.9335942,-1.0429688 0,-0.058594 -0.03516,-0.1054687 -0.105469,-0.1054687 -0.01172,0 -0.03516,0 -0.08203,0.023437 -0.199219,0.09375 -0.679688,0.2929687 -1.347657,0.2929687 -0.3984372,0 -0.8554685,-0.070312 -1.3242185,-0.28125 -0.082031,-0.023437 -0.1054687,-0.023437 -0.1289062,-0.023437 -0.09375,0 -0.09375,0.082031 -0.09375,0.234375 v 2.953125 c 0,0.1757813 0,0.2578125 0.140625,0.2578125 0.070312,0 0.082031,-0.035156 0.1289062,-0.09375 0.1054688,-0.1523437 0.4804688,-0.6914062 1.2773435,-0.6914062 0.527344,0 0.773438,0.4570312 0.855469,0.6328125 0.152344,0.375 0.175781,0.7617187 0.175781,1.2539062 0,0.3515625 0,0.9492188 -0.234375,1.37109377 -0.246093,0.38671875 -0.609375,0.64453125 -1.066406,0.64453125 -0.7265625,0 -1.3007812,-0.52734375 -1.4648437,-1.11328122 0.023437,0.011719 0.058594,0.011719 0.1640625,0.011719 0.328125,0 0.5039062,-0.2460937 0.5039062,-0.4804687 0,-0.2460938 -0.1757812,-0.4921875 -0.5039062,-0.4921875 -0.140625,0 -0.4804688,0.070312 -0.4804688,0.5273437 0,0.85546877 0.6796875,1.82812502 1.792969,1.82812502 1.160156,0 2.179687,-0.9609375 2.179687,-2.22656252 z m 0,0"
         style="fill:#000000;fill-opacity:1;fill-rule:nonzero;stroke:none" />
    </g>
    <path
       id="path31"
       d="M 1.2670234,-0.76094531 2.3217109,-1.7921953 c 1.5585938,-1.3710938 2.15625,-1.9101563 2.15625,-2.90625 0,-1.1367188 -0.9023437,-1.9335938 -2.1210937,-1.9335938 -1.125,0 -1.85156251,0.9140625 -1.85156251,1.8046875 0,0.5507813 0.4921875,0.5507813 0.52734371,0.5507813 0.1640625,0 0.515625,-0.1171875 0.515625,-0.5273438 0,-0.2578125 -0.1875,-0.515625 -0.5273437,-0.515625 -0.0820313,0 -0.10546876,0 -0.12890626,0.011719 0.22265626,-0.6445313 0.76171876,-1.0195313 1.33593746,-1.0195313 0.9140625,0 1.3359375,0.8085938 1.3359375,1.6289063 0,0.796875 -0.4921875,1.5820312 -1.0429687,2.203125 L 0.61077344,-0.36250781 C 0.50530469,-0.25703906 0.50530469,-0.23360156 0.50530469,7.734375e-4 H 4.1967109 L 4.4779609,-1.7336016 H 4.2201484 c -0.046875,0.3046875 -0.1171875,0.73828129 -0.2109375,0.89062504 -0.070313,0.0820313 -0.7265625,0.0820313 -0.9492187,0.0820313 z m 0,0"
       style="fill:#000000;fill-opacity:1;fill-rule:nonzero;stroke:none"
       aria-label="2"
       transform="matrix(1.3333333,0,0,1.3333333,137.64267,15.956)" />
    <path
       id="path32"
       d="m -106.86469,68.03235 1.0739,-0.06957 1.07392,-0.20295 1.0739,-0.33738 1.07391,-0.47077 1.0739,-0.60106 1.07391,-0.73185 1.0739,-0.85693 1.07391,-0.97894 1.0739,-1.0983 1.0739,-1.21144 1.07391,-1.32253 1.0739,-1.42582 1.07391,-1.52341 1.0739,-1.61734 1.07392,-1.70247 1.0739,-1.78136 1.07391,-1.85455 1.07389,-1.91788 1.0739,-1.97651 1.07392,-2.02429 1.0739,-2.06632 1.07391,-2.09903 1.0739,-2.12289 1.07391,-2.13898 1.0739,-2.14626 1.07391,-2.14573 1.0739,-2.13588 1.07392,-2.11771 1.07389,-2.09175 1.0739,-2.05698 1.07392,-2.01337 1.07389,-1.962 1.07392,-1.90385 1.0739,-1.83742 1.07391,-1.76216 1.07388,-1.68274 1.07392,-1.59453 1.0739,-1.50003 1.0739,-1.40195 1.0739,-1.29449 1.0739,-1.18446 1.07392,-1.0708 1.0739,-0.94829 1.07391,-0.82685 1.0739,-0.69966 1.07391,-0.56991 1.0739,-0.43912 1.0739,-0.30364 1.07391,-0.17024 1.0739,-0.03531 1.07391,0.10225 1.0739,0.23514 1.07392,0.37059 1.07389,0.50348 1.07392,0.6322 1.0739,0.76352 1.0739,0.88704 1.07391,1.00852 1.0739,1.12684 1.07391,1.23844 1.0739,1.34796 1.07391,1.45074 1.0739,1.54727 1.07391,1.63913 1.0739,1.72222 1.0739,1.80005 1.07391,1.87063 1.0739,1.93293 1.07392,1.98846 1.07389,2.0357 1.07392,2.07515 1.0739,2.10524 1.07391,2.12809 1.0739,2.14156 1.0739,2.14678 1.07391,2.14418 1.0739,2.13173 1.07391,2.11304 1.0739,2.08293 1.07391,2.0471 1.0739,2.00249 1.07392,1.94798 1.07389,1.88776 1.07392,1.81978 1.0739,1.74348 1.07389,1.66199 1.07392,1.57166 1.0739,1.47668 1.07391,1.37651 1.0739,1.26854 1.07391,1.15645 1.0739,1.04068 1.07391,0.91924 1.0739,0.7962 1.0739,0.6675 1.07392,0.53773 1.0739,0.40693 1.0739,0.27094 1.0739,0.13754 1.07389,0.0011 1.0739,-0.13444 1.07391,-0.26783 1.0739,-0.40383 1.0739,-0.53564 1.07391,-0.66438 1.0739,-0.79413 1.07391,-0.91613 1.0739,-1.03862 1.07391,-1.15435 1.0739,-1.26595 1.07392,-1.37443 1.07389,-1.47409 1.0739,-1.57012 1.07392,-1.6599 1.07389,-1.74191 1.07392,-1.81822 1.0739,-1.88673 1.07391,-1.94695 1.0739,-2.00092 1.0739,-2.0466 1.07389,-2.08293 1.0739,-2.112 1.07392,-2.13171 1.07389,-2.14366 1.07392,-2.14678 1.0739,-2.1421 1.07391,-2.12808 1.0739,-2.1063 1.07391,-2.07513 1.0739,-2.03674 1.0739,-1.99002 1.07391,-1.93396 1.0739,-1.8722 1.07391,-1.80108 1.0739,-1.72428 1.07392,-1.64122 1.07389,-1.54832 1.07392,-1.45281 1.0739,-1.35055 1.07389,-1.24051 1.07392,-1.12998 1.0739,-1.01057 1.07391,-0.88965 1.0739,-0.76559 1.07391,-0.63478 1.0739,-0.50711 1.07391,-0.37268 1.0739,-0.23826 1.07392,-0.10536 1.07389,0.03322 1.0739,0.16713 1.07392,0.30054 1.07389,0.43704 1.07392,0.56679 1.0739,0.69708 1.07391,0.82372 1.0739,0.94622 1.07391,1.06768 1.0739,1.18238 1.0739,1.29296 1.07391,1.39882 1.0739,1.49795 1.07392,1.59348 1.07389,1.68016 1.07391,1.76163 1.0739,1.83535 1.07392,1.9023 1.0739,1.96148 1.07389,2.01234 1.07392,2.05542 1.0739,2.09123 1.07391,2.11719 1.0739,2.13586 1.07391,2.14576 1.0739,2.14623 1.07391,2.139 1.0739,2.12393 1.0739,2.09903 1.07391,2.06683 1.0739,2.02583 1.07391,1.97704 1.0739,1.91943 1.07392,1.85613 1.0739,1.78291 1.07391,1.70403 1.07389,1.61941 1.0739,1.52548 1.07392,1.42842 1.0739,1.32407 1.07391,1.21407 1.0739,1.10089 1.07391,0.9815 1.0739,0.85904 1.07391,0.73444 1.0739,0.60365 1.0739,0.47441 1.07391,0.33947 1.0739,0.20605 1.07392,0.07162"
       style="fill:none;stroke:#0000ff;stroke-width:0.79701;stroke-linecap:butt;stroke-linejoin:miter;stroke-miterlimit:10;stroke-dasharray:none;stroke-opacity:1"
       transform="matrix(1.3333333,0,0,-1.3333333,148.97733,102.38533)" />
  </g>
</svg>
