<?xml version="1.0" encoding="UTF-8" standalone="no"?>
<!-- Created with Inkscape (http://www.inkscape.org/) -->

<svg
   version="1.1"
   id="svg1"
   width="268.45334"
   height="177.64"
   viewBox="0 0 268.45334 177.64"
   sodipodi:docname="24-25-1-信号与系统-期末（A卷）-题图2.6.pdf"
   xmlns:inkscape="http://www.inkscape.org/namespaces/inkscape"
   xmlns:sodipodi="http://sodipodi.sourceforge.net/DTD/sodipodi-0.dtd"
   xmlns="http://www.w3.org/2000/svg"
   xmlns:svg="http://www.w3.org/2000/svg">
  <defs
     id="defs1" />
  <sodipodi:namedview
     id="namedview1"
     pagecolor="#ffffff"
     bordercolor="#000000"
     borderopacity="0.25"
     inkscape:showpageshadow="2"
     inkscape:pageopacity="0.0"
     inkscape:pagecheckerboard="0"
     inkscape:deskcolor="#d1d1d1">
    <inkscape:page
       x="0"
       y="0"
       inkscape:label="1"
       id="page1"
       width="268.45334"
       height="177.64"
       margin="0"
       bleed="0" />
  </sodipodi:namedview>
  <g
     id="g1"
     inkscape:groupmode="layer"
     inkscape:label="1">
    <path
       id="path1"
       d="M -90.71016,0 H 90.31165"
       style="fill:none;stroke:#000000;stroke-width:0.3985;stroke-linecap:butt;stroke-linejoin:miter;stroke-miterlimit:10;stroke-dasharray:none;stroke-opacity:1"
       transform="matrix(1.3333333,0,0,-1.3333333,134.228,132.02)" />
    <path
       id="path2"
       d="M -2.07224,2.39104 C -1.69365,0.95639 -0.84999,0.27895 0,0 -0.84999,-0.27895 -1.69365,-0.95639 -2.07224,-2.39104"
       style="fill:none;stroke:#000000;stroke-width:0.3985;stroke-linecap:round;stroke-linejoin:round;stroke-miterlimit:10;stroke-dasharray:none;stroke-opacity:1"
       transform="matrix(1.3333333,0,0,-1.3333333,254.9092,132.02)" />
    <path
       id="path3"
       d="m 2.0517891,-3.9852656 h 0.9375 c 0.1992187,0 0.3046875,0 0.3046875,-0.1992188 0,-0.1054687 -0.1054688,-0.1054687 -0.28125,-0.1054687 H 2.1338203 c 0.3632813,-1.4179688 0.4101563,-1.6171875 0.4101563,-1.6757813 0,-0.1757812 -0.1171875,-0.2695312 -0.2929688,-0.2695312 -0.023437,0 -0.3046875,0.011719 -0.3984375,0.3515625 l -0.3867187,1.59375 H 0.52835156 c -0.19921875,0 -0.29296875,0 -0.29296875,0.1875 0,0.1171875 0.0703125,0.1171875 0.26953125,0.1171875 H 1.3838203 c -0.71484374,2.8242187 -0.74999999,2.99999998 -0.74999999,3.17578123 0,0.5390625 0.37499999,0.9140625 0.91406249,0.9140625 1.0078125,0 1.5820313,-1.45312503 1.5820313,-1.53515623 0,-0.09375 -0.082031,-0.09375 -0.1171875,-0.09375 -0.09375,0 -0.1054688,0.023437 -0.1523438,0.140625 -0.4335937,1.03124998 -0.9609375,1.27734373 -1.3007812,1.27734373 -0.1992188,0 -0.3046875,-0.12890625 -0.3046875,-0.45703125 0,-0.24609375 0.023437,-0.31640625 0.058594,-0.48046878 z m 0,0"
       style="fill:#000000;fill-opacity:1;fill-rule:nonzero;stroke:none"
       aria-label="t"
       transform="matrix(1.3333333,0,0,1.3333333,252.776,144.884)" />
    <path
       id="path4"
       d="M 0,-34.01651 V 90.31165"
       style="fill:none;stroke:#000000;stroke-width:0.3985;stroke-linecap:butt;stroke-linejoin:miter;stroke-miterlimit:10;stroke-dasharray:none;stroke-opacity:1"
       transform="matrix(1.3333333,0,0,-1.3333333,134.228,132.02)" />
    <path
       id="path5"
       d="M -2.07224,2.39104 C -1.69365,0.95639 -0.84999,0.27895 0,0 -0.84999,-0.27895 -1.69365,-0.95639 -2.07224,-2.39104"
       style="fill:none;stroke:#000000;stroke-width:0.3985;stroke-linecap:round;stroke-linejoin:round;stroke-miterlimit:10;stroke-dasharray:none;stroke-opacity:1"
       transform="matrix(0,-1.3333333,-1.3333333,0,134.228,11.3388)" />
    <g
       id="g5"
       aria-label="f(t)"
       transform="matrix(1.3333333,0,0,1.3333333,138.92133,14.394667)">
      <path
         id="path6"
         d="M 3.6566562,-3.9844766 H 4.512125 c 0.1992187,0 0.3046875,0 0.3046875,-0.1992187 0,-0.1054688 -0.1054688,-0.1054688 -0.2695313,-0.1054688 H 3.71525 l 0.2109375,-1.1367187 c 0.035156,-0.2109375 0.1757812,-0.9140625 0.234375,-1.0429688 0.09375,-0.1875 0.2578125,-0.3398437 0.46875,-0.3398437 0.046875,0 0.3046875,0 0.4921875,0.1875 -0.4335938,0.035156 -0.5390625,0.3867187 -0.5390625,0.5390625 0,0.2226562 0.1757812,0.3398437 0.3632812,0.3398437 0.2695313,0 0.5507813,-0.2109375 0.5507813,-0.5976562 0,-0.4570313 -0.4570313,-0.6796875 -0.8671875,-0.6796875 -0.3398438,0 -0.9609375,0.1757812 -1.265625,1.1601562 -0.058594,0.2109375 -0.082031,0.3164063 -0.328125,1.5703125 H 2.355875 c -0.1992188,0 -0.3046875,0 -0.3046875,0.1875 0,0.1171875 0.09375,0.1171875 0.28125,0.1171875 h 0.65625 l -0.75,3.93750004 C 2.0629062,0.91396094 1.8988437,1.8280234 1.3715,1.8280234 c -0.035156,0 -0.28125,0 -0.46875,-0.1875 0.4570312,-0.023437 0.5390625,-0.3867187 0.5390625,-0.5390625 0,-0.22265621 -0.1757813,-0.33984371 -0.3632813,-0.33984371 -0.25781245,0 -0.5507812,0.2109375 -0.5507812,0.59765621 0,0.4453125 0.43359375,0.6796875 0.84375,0.6796875 0.5507812,0 0.9492187,-0.5859375 1.125,-0.9609375 0.328125,-0.63281246 0.5507812,-1.83984371 0.5625,-1.91015621 z m 0,0"
         style="fill:#000000;fill-opacity:1;fill-rule:nonzero;stroke:none" />
      <path
         id="path7"
         d="m 9.2435703,2.3905234 c 0,-0.035156 0,-0.046875 -0.1640625,-0.2226562 -1.2421875,-1.25390626 -1.5703125,-3.12890626 -1.5703125,-4.6640625 0,-1.7226563 0.3867188,-3.4570313 1.6054688,-4.7109375 0.1289062,-0.1171875 0.1289062,-0.1289063 0.1289062,-0.1640625 0,-0.070312 -0.035156,-0.1054688 -0.09375,-0.1054688 -0.1054687,0 -0.9960937,0.6796875 -1.5820312,1.9453125 -0.515625,1.1015625 -0.6328125,2.203125 -0.6328125,3.0351563 0,0.7851562 0.1171875,1.99218749 0.65625,3.11718749 0.5976562,1.21875001 1.453125,1.87500001 1.5585937,1.87500001 0.058594,0 0.09375,-0.035156 0.09375,-0.1054688 z m 0,0"
         style="fill:#000000;fill-opacity:1;fill-rule:nonzero;stroke:none" />
      <path
         id="path8"
         d="m 11.87443,-3.9844766 h 0.9375 c 0.199218,0 0.304687,0 0.304687,-0.1992187 0,-0.1054688 -0.105469,-0.1054688 -0.28125,-0.1054688 h -0.878906 c 0.363281,-1.4179687 0.410156,-1.6171875 0.410156,-1.6757812 0,-0.1757813 -0.117187,-0.2695313 -0.292969,-0.2695313 -0.02344,0 -0.304687,0.011719 -0.398437,0.3515625 l -0.386719,1.59375 h -0.9375 c -0.199219,0 -0.292969,0 -0.292969,0.1875 0,0.1171875 0.07031,0.1171875 0.269532,0.1171875 h 0.878906 c -0.714844,2.8242188 -0.75,3.00000004 -0.75,3.17578129 0,0.5390625 0.375,0.9140625 0.914062,0.9140625 1.007813,0 1.582032,-1.45312499 1.582032,-1.53515629 0,-0.09375 -0.08203,-0.09375 -0.117188,-0.09375 -0.09375,0 -0.105469,0.023437 -0.152344,0.140625 -0.433593,1.03125004 -0.960937,1.27734379 -1.300781,1.27734379 -0.199219,0 -0.304687,-0.12890625 -0.304687,-0.45703125 0,-0.24609375 0.02344,-0.31640625 0.05859,-0.48046874 z m 0,0"
         style="fill:#000000;fill-opacity:1;fill-rule:nonzero;stroke:none" />
      <path
         id="path9"
         d="m 16.304117,-2.4961953 c 0,-0.7734375 -0.117187,-1.9804688 -0.65625,-3.1054688 -0.597656,-1.21875 -1.464844,-1.875 -1.558594,-1.875 -0.05859,0 -0.105468,0.046875 -0.105468,0.1054688 0,0.035156 0,0.046875 0.199218,0.234375 0.972657,0.984375 1.535157,2.5664062 1.535157,4.640625 0,1.71093749 -0.363282,3.45703124 -1.59375,4.7226562 -0.140625,0.1171875 -0.140625,0.1289063 -0.140625,0.1640625 0,0.058594 0.04687,0.1054688 0.105468,0.1054688 0.09375,0 0.996094,-0.6796875 1.582032,-1.94531251 0.503906,-1.1015625 0.632812,-2.20312499 0.632812,-3.04687499 z m 0,0"
         style="fill:#000000;fill-opacity:1;fill-rule:nonzero;stroke:none" />
    </g>
    <path
       id="path10"
       d="m 1.9104922,-2.4950937 c 0,-0.28125 -0.234375,-0.5273438 -0.5273438,-0.5273438 -0.28125,0 -0.52734371,0.2460938 -0.52734371,0.5273438 0,0.2929687 0.24609371,0.5390625 0.52734371,0.5390625 0.2929688,0 0.5273438,-0.2460938 0.5273438,-0.5390625 z m 4.4121094,0 c 0,-0.28125 -0.234375,-0.5273438 -0.5273438,-0.5273438 -0.28125,0 -0.5273437,0.2460938 -0.5273437,0.5273438 0,0.2929687 0.2460937,0.5390625 0.5273437,0.5390625 0.2929688,0 0.5273438,-0.2460938 0.5273438,-0.5390625 z m 4.4238284,0 c 0,-0.28125 -0.234375,-0.5273438 -0.527344,-0.5273438 -0.2812501,0 -0.5273438,0.2460938 -0.5273438,0.5273438 0,0.2929687 0.2460937,0.5390625 0.5273438,0.5390625 0.292969,0 0.527344,-0.2460938 0.527344,-0.5390625 z m 0,0"
       style="fill:#000000;fill-opacity:1;fill-rule:nonzero;stroke:none"
       aria-label="···"
       transform="matrix(1.3333333,0,0,1.3333333,4.4253333,74.498667)" />
    <path
       id="path11"
       d="m 1.9113906,-2.4950937 c 0,-0.28125 -0.234375,-0.5273438 -0.5273437,-0.5273438 -0.28125,0 -0.52734378,0.2460938 -0.52734378,0.5273438 0,0.2929687 0.24609378,0.5390625 0.52734378,0.5390625 0.2929687,0 0.5273437,-0.2460938 0.5273437,-0.5390625 z m 4.4121094,0 c 0,-0.28125 -0.234375,-0.5273438 -0.5273438,-0.5273438 -0.28125,0 -0.5273437,0.2460938 -0.5273437,0.5273438 0,0.2929687 0.2460937,0.5390625 0.5273437,0.5390625 0.2929688,0 0.5273438,-0.2460938 0.5273438,-0.5390625 z m 4.423828,0 c 0,-0.28125 -0.234375,-0.5273438 -0.527344,-0.5273438 -0.2812496,0 -0.5273434,0.2460938 -0.5273434,0.5273438 0,0.2929687 0.2460938,0.5390625 0.5273434,0.5390625 0.292969,0 0.527344,-0.2460938 0.527344,-0.5390625 z m 0,0"
       style="fill:#000000;fill-opacity:1;fill-rule:nonzero;stroke:none"
       aria-label="···"
       transform="matrix(1.3333333,0,0,1.3333333,246.31867,74.498667)" />
    <path
       id="path12"
       d="M -56.69363,0 V 56.69363 H -28.3468 V 0"
       style="fill:none;stroke:#000000;stroke-width:0.3985;stroke-linecap:butt;stroke-linejoin:miter;stroke-miterlimit:10;stroke-dasharray:none;stroke-opacity:1"
       transform="matrix(1.3333333,0,0,-1.3333333,134.228,132.02)" />
    <path
       id="path13"
       d="M 0,0 V 56.69363 H 28.3468 V 0"
       style="fill:none;stroke:#000000;stroke-width:0.3985;stroke-linecap:butt;stroke-linejoin:miter;stroke-miterlimit:10;stroke-dasharray:none;stroke-opacity:1"
       transform="matrix(1.3333333,0,0,-1.3333333,134.228,132.02)" />
    <path
       id="path14"
       d="M 56.69363,0 V 56.69363 H 85.04044"
       style="fill:none;stroke:#000000;stroke-width:0.3985;stroke-linecap:butt;stroke-linejoin:miter;stroke-miterlimit:10;stroke-dasharray:none;stroke-opacity:1"
       transform="matrix(1.3333333,0,0,-1.3333333,134.228,132.02)" />
    <g
       id="g14"
       aria-label="−T"
       transform="matrix(1.3333333,0,0,1.3333333,48.666667,145.79067)">
      <path
         id="path15"
         d="m 6.5634766,-2.2980781 c 0.1757812,0 0.3515625,0 0.3515625,-0.1992188 0,-0.1992187 -0.1757813,-0.1992187 -0.3515625,-0.1992187 h -5.390625 c -0.1640625,0 -0.33984379,0 -0.33984379,0.1992187 0,0.1992188 0.17578129,0.1992188 0.33984379,0.1992188 z m 0,0"
         style="fill:#000000;fill-opacity:1;fill-rule:nonzero;stroke:none" />
      <path
         id="path16"
         d="m 12.003906,-6.0480781 c 0.07031,-0.28125 0.105469,-0.3398438 0.234375,-0.3632813 0.08203,-0.023437 0.410156,-0.023437 0.621094,-0.023437 1.007812,0 1.453125,0.035156 1.453125,0.8203125 0,0.140625 -0.03516,0.5273438 -0.08203,0.796875 0,0.035156 -0.02344,0.1523438 -0.02344,0.1875 0,0.058594 0.02344,0.1289063 0.117188,0.1289063 0.105468,0 0.128906,-0.082031 0.152343,-0.234375 l 0.269532,-1.734375 c 0.01172,-0.035156 0.01172,-0.140625 0.01172,-0.1640625 0,-0.1054688 -0.09375,-0.1054688 -0.269531,-0.1054688 H 8.96875 c -0.2460938,0 -0.2578125,0 -0.3164063,0.1992188 l -0.5976562,1.7460937 c -0.011719,0.023437 -0.070312,0.1640625 -0.070312,0.1757813 0,0.070312 0.058594,0.1171875 0.1289062,0.1171875 0.09375,0 0.1054688,-0.046875 0.1640625,-0.2109375 0.5390625,-1.546875 0.796875,-1.7226563 2.2734368,-1.7226563 H 10.9375 c 0.28125,0 0.28125,0.035156 0.28125,0.1171875 0,0.058594 -0.03516,0.1757813 -0.04687,0.2109375 l -1.3242188,5.32031253 c -0.09375,0.36328125 -0.1289062,0.48046875 -1.1953125,0.48046875 -0.3515625,0 -0.4101562,0 -0.4101562,0.1875 0,0.1171875 0.1054687,0.1171875 0.1640625,0.1171875 0.2695312,0 0.5507812,-0.0234375 0.8203125,-0.0234375 0.28125,0 0.5625,-0.01171875 0.8437495,-0.01171875 0.28125,0 0.5625,0.01171875 0.832032,0.01171875 0.28125,0 0.585937,0.0234375 0.867187,0.0234375 0.09375,0 0.210938,0 0.210938,-0.19921875 0,-0.10546875 -0.08203,-0.10546875 -0.339844,-0.10546875 -0.246094,0 -0.375,0 -0.632813,-0.0234375 -0.292968,-0.0351563 -0.363281,-0.0585938 -0.363281,-0.22265625 0,-0.0117188 0,-0.0585938 0.03516,-0.2109375 z m 0,0"
         style="fill:#000000;fill-opacity:1;fill-rule:nonzero;stroke:none" />
    </g>
    <g
       id="g16"
       aria-label="−&#10;T"
       transform="matrix(1.3333333,0,0,1.3333333,85.82,148.29733)">
      <path
         id="path17"
         d="m 6.5627344,-2.2972187 c 0.1757812,0 0.3515625,0 0.3515625,-0.1992188 0,-0.1992187 -0.1757813,-0.1992187 -0.3515625,-0.1992187 h -5.390625 c -0.1640625,0 -0.33984378,0 -0.33984378,0.1992187 0,0.1992188 0.17578128,0.1992188 0.33984378,0.1992188 z m 0,0"
         style="fill:#000000;fill-opacity:1;fill-rule:nonzero;stroke:none" />
      <path
         id="path18"
         d="m 12.331289,-8.1419453 c 0.04687,-0.1992188 0.07031,-0.2226563 0.222656,-0.234375 0.03516,-0.011719 0.269532,-0.011719 0.410157,-0.011719 0.433593,0 0.609375,0 0.785156,0.058594 0.316406,0.09375 0.328125,0.3046875 0.328125,0.5507812 0,0.1054688 0,0.1992188 -0.04687,0.5625 l -0.01172,0.082031 c 0,0.070312 0.04687,0.1054687 0.117188,0.1054687 0.105468,0 0.117187,-0.070312 0.128906,-0.1757812 l 0.1875,-1.3359375 c 0,-0.09375 -0.08203,-0.09375 -0.210938,-0.09375 H 9.9523828 c -0.1757812,0 -0.1875,0 -0.234375,0.140625 l -0.4335937,1.2421875 c -0.011719,0.023437 -0.035156,0.082031 -0.035156,0.1171875 0,0.035156 0.011719,0.1054687 0.1171875,0.1054687 0.082031,0 0.1054688,-0.035156 0.140625,-0.1757812 0.4101563,-1.1132813 0.6328124,-1.1835938 1.6992184,-1.1835938 h 0.292969 c 0.210937,0 0.210937,0.011719 0.210937,0.070312 0,0.011719 0,0.046875 -0.02344,0.1523438 l -0.925781,3.6679687 c -0.05859,0.2578125 -0.08203,0.328125 -0.8085939,0.328125 -0.2578125,0 -0.3164062,0 -0.3164062,0.1523438 0,0.011719 0.011719,0.09375 0.1171875,0.09375 0.1992187,0 0.4101556,-0.023437 0.5976556,-0.023437 0.199219,0 0.410157,0 0.597657,0 0.199218,0 0.433593,0 0.632812,0 0.1875,0.011719 0.398438,0.023437 0.585938,0.023437 0.05859,0 0.164062,0 0.164062,-0.1523438 0,-0.09375 -0.07031,-0.09375 -0.292969,-0.09375 -0.128906,0 -0.269531,-0.011719 -0.398437,-0.023437 -0.246094,-0.011719 -0.257813,-0.046875 -0.257813,-0.1289062 0,-0.046875 0,-0.058594 0.03516,-0.1640625 z m 0,0"
         style="fill:#000000;fill-opacity:1;fill-rule:nonzero;stroke:none" />
    </g>
    <path
       id="path19"
       d="m 37.615,-24.52 h 5.778"
       style="fill:none;stroke:#000000;stroke-width:0.3985;stroke-linecap:butt;stroke-linejoin:miter;stroke-miterlimit:10;stroke-dasharray:none;stroke-opacity:1"
       transform="matrix(1.3333333,0,0,-1.3333333,47.592,112.28267)" />
    <path
       id="path20"
       d="m 3.5145391,-1.2644453 h -0.234375 c -0.023437,0.1523437 -0.082031,0.56249999 -0.1757813,0.63281249 -0.058594,0.0351563 -0.5976562,0.0351563 -0.6914062,0.0351563 H 1.1239141 c 0.7382812,-0.64453119 0.984375,-0.84374999 1.3945312,-1.17187499 0.515625,-0.4101563 0.9960938,-0.8437501 0.9960938,-1.5000001 0,-0.8437499 -0.7382813,-1.3593749 -1.6289063,-1.3593749 -0.8671875,0 -1.45312499,0.609375 -1.45312499,1.2421874 0,0.3632813 0.3046875,0.3984375 0.375,0.3984375 0.1640625,0 0.37499999,-0.1171875 0.37499999,-0.375 0,-0.1289062 -0.058594,-0.3632812 -0.42187499,-0.3632812 0.22265625,-0.5039062 0.69140629,-0.6562499 1.01953129,-0.6562499 0.703125,0 1.0664062,0.5507812 1.0664062,1.1132812 0,0.609375 -0.4335937,1.0898438 -0.65625,1.3359375 l -1.68749999,1.66406249 c -0.0703125,0.0585938 -0.0703125,0.0703125 -0.0703125,0.26953125 H 3.3153203 Z m 0,0"
       style="fill:#000000;fill-opacity:1;fill-rule:nonzero;stroke:none"
       aria-label="2"
       transform="matrix(1.3333333,0,0,1.3333333,98.950667,152.87733)" />
    <path
       id="path21"
       d="m 3.386625,-4.2189453 c 0.046875,-0.1992188 0.070312,-0.2226563 0.2226563,-0.234375 0.035156,-0.011719 0.2695312,-0.011719 0.4101562,-0.011719 0.4335938,0 0.609375,0 0.7851563,0.058594 0.3164062,0.09375 0.328125,0.3046875 0.328125,0.5507812 0,0.1054688 0,0.1992188 -0.046875,0.5625 l -0.011719,0.082031 c 0,0.070312 0.046875,0.1054687 0.1171875,0.1054687 0.1054688,0 0.1171875,-0.070312 0.1289063,-0.1757812 l 0.1875,-1.3359375 c 0,-0.09375 -0.082031,-0.09375 -0.2109375,-0.09375 H 1.0077188 c -0.1757813,0 -0.18750005,0 -0.23437505,0.140625 L 0.33975,-3.3283203 c -0.0117188,0.023437 -0.0351563,0.082031 -0.0351563,0.1171875 0,0.035156 0.0117188,0.1054687 0.1171875,0.1054687 0.0820313,0 0.10546875,-0.035156 0.140625,-0.1757812 0.4101563,-1.1132813 0.6328126,-1.1835938 1.6992188,-1.1835938 h 0.2929688 c 0.2109375,0 0.2109375,0.011719 0.2109375,0.070312 0,0.011719 0,0.046875 -0.023437,0.1523438 L 1.816313,-0.57441456 c -0.058594,0.2578125 -0.082031,0.328125 -0.8085937,0.328125 -0.25781255,0 -0.3164063,0 -0.3164063,0.15234375 0,0.01171875 0.0117188,0.0937499975 0.1171875,0.0937499975 0.1992188,0 0.4101563,-0.0234374975 0.5976563,-0.0234374975 0.1992187,0 0.4101562,0 0.5976562,0 0.1992188,0 0.4335938,0 0.6328125,0 0.1875,0.01171875 0.3984375,0.0234374975 0.5859375,0.0234374975 0.058594,0 0.1640625,0 0.1640625,-0.1523437475 0,-0.09375 -0.070312,-0.09375 -0.2929687,-0.09375 -0.1289063,0 -0.2695313,-0.0117188 -0.3984375,-0.0234375 -0.2460938,-0.0117188 -0.2578125,-0.046875 -0.2578125,-0.12890625 0,-0.046875 0,-0.0585938 0.035156,-0.1640625 z m 0,0"
       style="fill:#000000;fill-opacity:1;fill-rule:nonzero;stroke:none"
       aria-label="T"
       transform="matrix(1.3333333,0,0,1.3333333,168.172,143.06667)" />
    <path
       id="path22"
       d="m 29.867,-24.52 h 5.778"
       style="fill:none;stroke:#000000;stroke-width:0.3985;stroke-linecap:butt;stroke-linejoin:miter;stroke-miterlimit:10;stroke-dasharray:none;stroke-opacity:1"
       transform="matrix(1.3333333,0,0,-1.3333333,128.34933,112.28267)" />
    <path
       id="path23"
       d="M 3.514875,-1.2644453 H 3.2805 c -0.023437,0.1523437 -0.082031,0.56249999 -0.1757813,0.63281249 -0.058594,0.0351563 -0.5976562,0.0351563 -0.6914062,0.0351563 H 1.12425 C 1.8625312,-1.2410078 2.108625,-1.4402266 2.5187812,-1.7683516 c 0.515625,-0.4101562 0.9960938,-0.84375 0.9960938,-1.5 0,-0.84375 -0.7382813,-1.359375 -1.6289063,-1.359375 -0.8671875,0 -1.45312495,0.609375 -1.45312495,1.2421875 0,0.3632813 0.3046875,0.3984375 0.375,0.3984375 0.1640625,0 0.37499995,-0.1171875 0.37499995,-0.375 0,-0.1289062 -0.058594,-0.3632812 -0.42187495,-0.3632812 0.22265625,-0.5039063 0.69140625,-0.65625 1.01953125,-0.65625 0.703125,0 1.0664062,0.5507812 1.0664062,1.1132812 0,0.609375 -0.4335937,1.0898438 -0.65625,1.3359375 l -1.68749995,1.66406254 c -0.0703125,0.0585938 -0.0703125,0.0703125 -0.0703125,0.26953125 H 3.3156562 Z m 0,0"
       style="fill:#000000;fill-opacity:1;fill-rule:nonzero;stroke:none"
       aria-label="2"
       transform="matrix(1.3333333,0,0,1.3333333,169.376,152.87733)" />
    <path
       id="path24"
       d="m 4.253625,-6.0480781 c 0.070312,-0.28125 0.1054687,-0.3398438 0.234375,-0.3632813 0.082031,-0.023437 0.4101562,-0.023437 0.6210937,-0.023437 1.0078125,0 1.453125,0.035156 1.453125,0.8203125 0,0.140625 -0.035156,0.5273438 -0.082031,0.796875 0,0.035156 -0.023437,0.1523438 -0.023437,0.1875 0,0.058594 0.023437,0.1289063 0.1171875,0.1289063 0.1054687,0 0.1289062,-0.082031 0.1523437,-0.234375 l 0.2695313,-1.734375 c 0.011719,-0.035156 0.011719,-0.140625 0.011719,-0.1640625 0,-0.1054688 -0.09375,-0.1054688 -0.2695312,-0.1054688 H 1.2184687 c -0.2460937,0 -0.25781245,0 -0.3164062,0.1992188 l -0.59765625,1.7460937 c -0.0117188,0.023437 -0.0703125,0.1640625 -0.0703125,0.1757813 0,0.070312 0.0585938,0.1171875 0.12890625,0.1171875 0.09375,0 0.10546875,-0.046875 0.1640625,-0.2109375 0.5390625,-1.546875 0.796875,-1.7226563 2.2734375,-1.7226563 h 0.3867187 c 0.28125,0 0.28125,0.035156 0.28125,0.1171875 0,0.058594 -0.035156,0.1757813 -0.046875,0.2109375 L 2.097375,-0.78635937 c -0.09375,0.36328125 -0.1289063,0.48046875 -1.1953125,0.48046875 -0.3515625,0 -0.41015625,0 -0.41015625,0.1875 0,0.1171875 0.10546875,0.1171875 0.1640625,0.1171875 0.26953125,0 0.55078125,-0.0234375 0.82031245,-0.0234375 0.28125,0 0.5625,-0.01171875 0.84375,-0.01171875 0.28125,0 0.5625,0.01171875 0.8320313,0.01171875 0.28125,0 0.5859375,0.0234375 0.8671875,0.0234375 0.09375,0 0.2109375,0 0.2109375,-0.19921875 0,-0.10546875 -0.082031,-0.10546875 -0.3398438,-0.10546875 -0.2460937,0 -0.375,0 -0.6328125,-0.0234375 C 2.9645625,-0.36448437 2.89425,-0.38792187 2.89425,-0.55198437 c 0,-0.0117188 0,-0.0585938 0.035156,-0.2109375 z m 0,0"
       style="fill:#000000;fill-opacity:1;fill-rule:nonzero;stroke:none"
       aria-label="T"
       transform="matrix(1.3333333,0,0,1.3333333,205.016,145.79067)" />
    <path
       id="path25"
       d="m 7.3724609,-4.3488594 c 0,-1.59375 -1.0546875,-2.671875 -2.5429687,-2.671875 -2.1445313,0 -4.33593751,2.2617188 -4.33593751,4.5820313 0,1.65234373 1.11328121,2.66015623 2.54296871,2.66015623 2.109375,0 4.3359375,-2.17968753 4.3359375,-4.57031253 z m -4.2773437,4.31250003 c -0.984375,0 -1.6757813,-0.80859375 -1.6757813,-2.12109373 0,-0.4453125 0.140625,-1.8984375 0.9023438,-3.0585938 0.6914062,-1.0429687 1.6640625,-1.5585937 2.4492187,-1.5585937 0.8203125,0 1.7109375,0.5625 1.7109375,2.0390625 0,0.7148437 -0.2695312,2.2734375 -1.2539062,3.5039062 -0.4804688,0.59765628 -1.2890625,1.19531253 -2.1328125,1.19531253 z m 0,0"
       style="fill:#000000;fill-opacity:1;fill-rule:nonzero;stroke:none"
       aria-label="O"
       transform="matrix(1.3333333,0,0,1.3333333,119.03333,145.79067)" />
    <path
       id="path26"
       d="m 2.9305859,-6.3737969 c 0,-0.234375 0,-0.2578125 -0.234375,-0.2578125 -0.609375,0.6328125 -1.4882812,0.6328125 -1.80468746,0.6328125 v 0.3164063 c 0.19921876,0 0.78515626,0 1.30078126,-0.2578125 v 5.15624998 c 0,0.3515625 -0.035156,0.48046875 -0.9257813,0.48046875 H 0.95011719 v 0.3046875 C 1.3016797,-0.03395312 2.1571484,-0.03395312 2.5555859,-0.03395312 c 0.3984375,0 1.265625,0 1.6171875,0.03515625 v -0.3046875 H 3.8563672 c -0.9023438,0 -0.9257813,-0.1171875 -0.9257813,-0.48046875 z m 0,0"
       style="fill:#000000;fill-opacity:1;fill-rule:nonzero;stroke:none"
       aria-label="1"
       transform="matrix(1.3333333,0,0,1.3333333,122.89333,60.709333)" />
  </g>
</svg>
