<?xml version="1.0" encoding="UTF-8" standalone="no"?>
<!-- Created with Inkscape (http://www.inkscape.org/) -->

<svg
   version="1.1"
   id="svg1"
   width="649.61334"
   height="196"
   viewBox="0 0 649.61334 196"
   sodipodi:docname="24-25-1-信号与系统-期末（A卷）-题图2.1.pdf"
   xmlns:inkscape="http://www.inkscape.org/namespaces/inkscape"
   xmlns:sodipodi="http://sodipodi.sourceforge.net/DTD/sodipodi-0.dtd"
   xmlns="http://www.w3.org/2000/svg"
   xmlns:svg="http://www.w3.org/2000/svg">
  <defs
     id="defs1" />
  <sodipodi:namedview
     id="namedview1"
     pagecolor="#ffffff"
     bordercolor="#000000"
     borderopacity="0.25"
     inkscape:showpageshadow="2"
     inkscape:pageopacity="0.0"
     inkscape:pagecheckerboard="0"
     inkscape:deskcolor="#d1d1d1">
    <inkscape:page
       x="0"
       y="0"
       inkscape:label="1"
       id="page1"
       width="649.61334"
       height="196"
       margin="0"
       bleed="0" />
  </sodipodi:namedview>
  <g
     id="g1"
     inkscape:groupmode="layer"
     inkscape:label="1">
    <path
       id="path1"
       d="M -113.38727,0 H 112.98875"
       style="fill:none;stroke:#000000;stroke-width:0.3985;stroke-linecap:butt;stroke-linejoin:miter;stroke-miterlimit:10;stroke-dasharray:none;stroke-opacity:1"
       transform="matrix(1.3333333,0,0,-1.3333333,151.44667,86.662667)" />
    <path
       id="path2"
       d="M -2.07224,2.39104 C -1.69365,0.95639 -0.84999,0.27895 0,0 -0.84999,-0.27895 -1.69365,-0.95639 -2.07224,-2.39104"
       style="fill:none;stroke:#000000;stroke-width:0.3985;stroke-linecap:round;stroke-linejoin:round;stroke-miterlimit:10;stroke-dasharray:none;stroke-opacity:1"
       transform="matrix(1.3333333,0,0,-1.3333333,302.364,86.662667)" />
    <path
       id="path3"
       d="m 2.0506328,-3.9838672 h 0.9375 c 0.1992188,0 0.3046875,0 0.3046875,-0.1992187 0,-0.1054688 -0.1054687,-0.1054688 -0.28125,-0.1054688 H 2.1326641 c 0.3632812,-1.4179687 0.4101562,-1.6171875 0.4101562,-1.6757812 0,-0.1757813 -0.1171875,-0.2695313 -0.2929687,-0.2695313 -0.023437,0 -0.3046875,0.011719 -0.3984375,0.3515625 l -0.3867188,1.59375 H 0.52719531 c -0.19921875,0 -0.29296875,0 -0.29296875,0.1875 0,0.1171875 0.0703125,0.1171875 0.26953125,0.1171875 H 1.3826641 c -0.71484379,2.8242188 -0.75000004,3.00000001 -0.75000004,3.17578126 0,0.5390625 0.37500004,0.9140625 0.91406254,0.9140625 1.0078125,0 1.5820312,-1.45312496 1.5820312,-1.53515626 0,-0.09375 -0.082031,-0.09375 -0.1171875,-0.09375 -0.09375,0 -0.1054687,0.023437 -0.1523437,0.140625 -0.4335938,1.03125001 -0.9609375,1.27734376 -1.3007813,1.27734376 -0.1992187,0 -0.3046875,-0.12890625 -0.3046875,-0.45703125 0,-0.24609375 0.023437,-0.31640625 0.058594,-0.48046871 z m 0,0"
       style="fill:#000000;fill-opacity:1;fill-rule:nonzero;stroke:none"
       aria-label="t"
       transform="matrix(1.3333333,0,0,1.3333333,300.23067,99.526667)" />
    <path
       id="path4"
       d="M 0,-56.69363 V 56.29512"
       style="fill:none;stroke:#000000;stroke-width:0.3985;stroke-linecap:butt;stroke-linejoin:miter;stroke-miterlimit:10;stroke-dasharray:none;stroke-opacity:1"
       transform="matrix(1.3333333,0,0,-1.3333333,151.44667,86.662667)" />
    <path
       id="path5"
       d="M -2.07224,2.39104 C -1.69365,0.95639 -0.84999,0.27895 0,0 -0.84999,-0.27895 -1.69365,-0.95639 -2.07224,-2.39104"
       style="fill:none;stroke:#000000;stroke-width:0.3985;stroke-linecap:round;stroke-linejoin:round;stroke-miterlimit:10;stroke-dasharray:none;stroke-opacity:1"
       transform="matrix(0,-1.3333333,-1.3333333,0,151.44667,11.33684)" />
    <g
       id="g5"
       aria-label="f(t)"
       transform="matrix(1.3333333,0,0,1.3333333,156.14,14.392)">
      <path
         id="path6"
         d="m 3.6567188,-3.9854063 h 0.8554687 c 0.1992188,0 0.3046875,0 0.3046875,-0.1992187 0,-0.1054688 -0.1054687,-0.1054688 -0.2695312,-0.1054688 H 3.7153125 L 3.92625,-5.4268125 C 3.961406,-5.63775 4.1020313,-6.340875 4.160625,-6.4697813 c 0.09375,-0.1875 0.2578125,-0.3398437 0.46875,-0.3398437 0.046875,0 0.3046875,0 0.4921875,0.1875 C 4.6879688,-6.5869688 4.5825,-6.2354063 4.5825,-6.0830625 c 0,0.2226562 0.1757813,0.3398437 0.3632813,0.3398437 0.2695312,0 0.5507812,-0.2109375 0.5507812,-0.5976562 0,-0.4570313 -0.4570312,-0.6796875 -0.8671875,-0.6796875 -0.3398437,0 -0.9609375,0.1757812 -1.265625,1.1601562 C 3.3051563,-5.6494688 3.2817188,-5.544 3.035625,-4.2900938 H 2.3559375 c -0.1992187,0 -0.3046875,0 -0.3046875,0.1875 0,0.1171875 0.09375,0.1171875 0.28125,0.1171875 h 0.65625 l -0.75,3.93750005 C 2.0629688,0.91303125 1.8989063,1.8270937 1.3715625,1.8270937 c -0.035156,0 -0.28125,0 -0.46875,-0.1875 C 1.3598438,1.6161562 1.441875,1.252875 1.441875,1.1005312 c 0,-0.2226562 -0.1757812,-0.3398437 -0.3632812,-0.3398437 -0.25781255,0 -0.5507813,0.2109375 -0.5507813,0.5976562 0,0.4453125 0.43359375,0.6796875 0.84375,0.6796875 0.5507813,0 0.9492188,-0.5859375 1.125,-0.9609375 0.328125,-0.63281245 0.5507813,-1.8398437 0.5625,-1.9101562 z m 0,0"
         style="fill:#000000;fill-opacity:1;fill-rule:nonzero;stroke:none" />
      <path
         id="path7"
         d="m 9.2436328,2.3895937 c 0,-0.035156 0,-0.046875 -0.1640625,-0.2226562 C 7.8373828,0.91303125 7.5092578,-0.96196875 7.5092578,-2.497125 c 0,-1.7226563 0.3867188,-3.4570313 1.6054688,-4.7109375 0.1289062,-0.1171875 0.1289062,-0.1289063 0.1289062,-0.1640625 0,-0.070312 -0.035156,-0.1054688 -0.09375,-0.1054688 -0.1054687,0 -0.9960937,0.6796875 -1.5820312,1.9453125 -0.515625,1.1015625 -0.6328125,2.203125 -0.6328125,3.0351563 0,0.7851562 0.1171875,1.9921875 0.65625,3.1171875 0.5976562,1.21875 1.453125,1.875 1.5585937,1.875 0.058594,0 0.09375,-0.035156 0.09375,-0.1054688 z m 0,0"
         style="fill:#000000;fill-opacity:1;fill-rule:nonzero;stroke:none" />
      <path
         id="path8"
         d="m 11.874492,-3.9854063 h 0.9375 c 0.199219,0 0.304688,0 0.304688,-0.1992187 0,-0.1054688 -0.105469,-0.1054688 -0.28125,-0.1054688 h -0.878907 c 0.363282,-1.4179687 0.410157,-1.6171875 0.410157,-1.6757812 0,-0.1757813 -0.117188,-0.2695313 -0.292969,-0.2695313 -0.02344,0 -0.304688,0.011719 -0.398438,0.3515625 l -0.386718,1.59375 h -0.9375 c -0.199219,0 -0.292969,0 -0.292969,0.1875 0,0.1171875 0.07031,0.1171875 0.269531,0.1171875 h 0.878906 c -0.714843,2.8242188 -0.75,3.00000005 -0.75,3.1757813 0,0.5390625 0.375,0.9140625 0.914063,0.9140625 1.007812,0 1.582031,-1.453125 1.582031,-1.5351563 0,-0.09375 -0.08203,-0.09375 -0.117187,-0.09375 -0.09375,0 -0.105469,0.023437 -0.152344,0.140625 -0.433594,1.03125005 -0.960938,1.2773438 -1.300781,1.2773438 -0.199219,0 -0.304688,-0.12890625 -0.304688,-0.45703125 0,-0.24609375 0.02344,-0.31640625 0.05859,-0.48046875 z m 0,0"
         style="fill:#000000;fill-opacity:1;fill-rule:nonzero;stroke:none" />
      <path
         id="path9"
         d="m 16.30418,-2.497125 c 0,-0.7734375 -0.117188,-1.9804688 -0.65625,-3.1054688 -0.597657,-1.21875 -1.464844,-1.875 -1.558594,-1.875 -0.05859,0 -0.105469,0.046875 -0.105469,0.1054688 0,0.035156 0,0.046875 0.199219,0.234375 0.972656,0.984375 1.535156,2.5664062 1.535156,4.640625 0,1.7109375 -0.363281,3.45703125 -1.59375,4.7226562 -0.140625,0.1171875 -0.140625,0.1289063 -0.140625,0.1640625 0,0.058594 0.04687,0.1054688 0.105469,0.1054688 0.09375,0 0.996094,-0.6796875 1.582031,-1.9453125 0.503906,-1.1015625 0.632813,-2.203125 0.632813,-3.046875 z m 0,0"
         style="fill:#000000;fill-opacity:1;fill-rule:nonzero;stroke:none" />
    </g>
    <path
       id="path10"
       d="m 1.9095,-0.52677344 c 0,-0.29296875 -0.234375,-0.52734376 -0.5273438,-0.52734376 -0.28125,0 -0.5273437,0.23437501 -0.5273437,0.52734376 0,0.29296875 0.2460937,0.5273437525 0.5273437,0.5273437525 0.2929688,0 0.5273438,-0.2343750025 0.5273438,-0.5273437525 z m 4.4150391,0 c 0,-0.29296875 -0.234375,-0.52734376 -0.5273438,-0.52734376 -0.28125,0 -0.5273437,0.23437501 -0.5273437,0.52734376 0,0.29296875 0.2460937,0.5273437525 0.5273437,0.5273437525 0.2929688,0 0.5273438,-0.2343750025 0.5273438,-0.5273437525 z m 4.4238279,0 c 0,-0.29296875 -0.234375,-0.52734376 -0.527344,-0.52734376 -0.2812496,0 -0.5273433,0.23437501 -0.5273433,0.52734376 0,0.29296875 0.2460937,0.5273437525 0.5273433,0.5273437525 0.292969,0 0.527344,-0.2343750025 0.527344,-0.5273437525 z m 0,0"
       style="fill:#000000;fill-opacity:1;fill-rule:nonzero;stroke:none"
       aria-label="..."
       transform="matrix(1.3333333,0,0,1.3333333,29.204,72.245333)" />
    <path
       id="path11"
       d="m 1.9115078,-0.52677344 c 0,-0.29296875 -0.234375,-0.52734376 -0.5273437,-0.52734376 -0.28125,0 -0.52734379,0.23437501 -0.52734379,0.52734376 0,0.29296875 0.24609379,0.5273437525 0.52734379,0.5273437525 0.2929687,0 0.5273437,-0.2343750025 0.5273437,-0.5273437525 z m 4.4121094,0 c 0,-0.29296875 -0.234375,-0.52734376 -0.5273438,-0.52734376 -0.28125,0 -0.5273437,0.23437501 -0.5273437,0.52734376 0,0.29296875 0.2460937,0.5273437525 0.5273437,0.5273437525 0.2929688,0 0.5273438,-0.2343750025 0.5273438,-0.5273437525 z m 4.4238278,0 c 0,-0.29296875 -0.234375,-0.52734376 -0.527343,-0.52734376 -0.2812504,0 -0.5273442,0.23437501 -0.5273442,0.52734376 0,0.29296875 0.2460938,0.5273437525 0.5273442,0.5273437525 0.292968,0 0.527343,-0.2343750025 0.527343,-0.5273437525 z m 0,0"
       style="fill:#000000;fill-opacity:1;fill-rule:nonzero;stroke:none"
       aria-label="..."
       transform="matrix(1.3333333,0,0,1.3333333,255.97867,72.245333)" />
    <path
       id="path12"
       d="m -56.69363,0 0.56923,1.42908 0.56922,1.42306 0.56922,1.41355 0.56923,1.39448 0.56921,1.37375 0.56922,1.34518 0.56922,1.31147 0.56922,1.27339 0.56923,1.22928 0.56921,1.18083 0.56923,1.12805 0.56921,1.0701 0.56922,1.00868 0.56923,0.94206 0.56921,0.872 0.56923,0.8002 0.5692,0.72234 0.56923,0.64448 0.56923,0.56143 0.56921,0.47753 0.56923,0.39274 0.56921,0.30365 0.56922,0.21627 0.56923,0.12542 0.56921,0.03635 0.56923,-0.05365 0.56921,-0.14532 0.56922,-0.2327 0.56923,-0.32268 0.56921,-0.40918 0.56923,-0.49396 0.56921,-0.5796 0.56923,-0.6592 0.56922,-0.73877 0.56921,-0.81402 0.56923,-0.88672 0.56921,-0.9559 0.56923,-1.0208 0.56922,-1.0822 0.56921,-1.13931 0.56923,-1.19121 0.56921,-1.23793 0.56923,-1.28204 0.56922,-1.31838 0.56921,-1.35124 0.56923,-1.37807 0.56921,-1.3997 0.56923,-1.41525 0.56922,-1.42565 0.56923,-1.42821 0.56921,-1.4291 0.56921,-1.4222 0.56923,-1.40921 0.56922,-1.39191 0.56923,-1.36767 0.56921,-1.33827 0.56921,-1.30455 0.56923,-1.26474 0.56922,-1.22062 0.56923,-1.17131 0.56922,-1.11595 0.5692,-1.058 0.56923,-0.99482 0.56922,-0.92911 0.56923,-0.85814 0.56921,-0.78377 0.56921,-0.70762 0.56923,-0.62719 0.56922,-0.545 0.56923,-0.46194 0.56921,-0.37372 0.56923,-0.28633 0.56921,-0.19812 0.56922,-0.10812 0.56923,-0.01817 0.56921,0.07266 0.56923,0.16177 0.56923,0.25087 0.5692,0.34085 0.56923,0.42561 0.56921,0.51212 0.56923,0.59517 0.56923,0.67565 0.56919,0.75433 0.56924,0.82875 0.56921,0.90139 0.56923,0.96889 0.56921,1.03292 0.56923,1.09431 0.56922,1.14969 0.56921,1.20072 0.56923,1.24831 0.56921,1.28896 0.56923,1.32616 0.56922,1.35644 0.5692,1.38326 0.56924,1.40317 0.56921,1.41784 0.56923,1.42651 0.5692,1.42821 0.5692,1.42824 0.56922,1.42047 0.56922,1.4066 0.56923,1.38672 0.56923,1.36251 0.5692,1.3322 0.56922,1.29763 0.56922,1.25607 0.56923,1.21026 0.56921,1.16006 0.56923,1.10558 0.56921,1.04586 0.56922,0.98186 0.56923,0.91525 0.56921,0.84259 0.56923,0.76904 0.56923,0.69207 0.5692,0.61075 0.56923,0.52943 0.56921,0.44292 0.56923,0.35641 0.56923,0.2699 0.5692,0.17908 0.56923,0.09084 h 0.56921 l 0.56923,-0.09171 0.56923,-0.17908 0.56921,-0.2699 0.56922,-0.35728 0.56921,-0.44292 0.56923,-0.52941 0.56921,-0.61076 0.56923,-0.69206 0.56922,-0.76993 0.56921,-0.84257 0.56923,-0.91525 0.56921,-0.98273 0.56923,-1.04587 0.56923,-1.10557 0.5692,-1.16008 0.56923,-1.21109 0.56921,-1.25609 0.56923,-1.29676 0.56923,-1.33221 0.5692,-1.36336 0.56923,-1.38759 0.56921,-1.40574 0.56923,-1.42046 0.56923,-1.42825 0.56922,-1.42821 0.56921,-1.42651 0.56921,-1.41785 0.56923,-1.40316 0.56922,-1.38325 0.56923,-1.35644 0.56922,-1.32531 0.5692,-1.28895 0.56923,-1.24831 0.56922,-1.20073 0.56923,-1.14968 0.56922,-1.09345 0.5692,-1.03377 0.56923,-0.96888 0.56922,-0.90055 0.56923,-0.82875 0.56922,-0.75433 0.56922,-0.67476 0.56921,-0.59517 0.56922,-0.51127 0.56923,-0.42562 0.56922,-0.34085 0.56922,-0.25085 0.56921,-0.16092 0.56922,-0.07266 0.56923,0.01902 0.56922,0.10727 0.56922,0.19898 0.56923,0.2872 0.5692,0.37372 0.56923,0.46109 0.56921,0.54585 0.56923,0.62718 0.56923,0.70849 0.5692,0.78377 0.56923,0.85903 0.56921,0.92822 0.56923,0.99484 0.56923,1.05884 0.56921,1.11682 0.56922,1.17044 0.56921,1.22063 0.56923,1.26474 0.56923,1.30453 0.56921,1.33914 0.56923,1.3677 0.5692,1.3919 0.56923,1.40921 0.56923,1.42219 0.56921,1.4291"
       style="fill:none;stroke:#0000ff;stroke-width:0.3985;stroke-linecap:butt;stroke-linejoin:miter;stroke-miterlimit:10;stroke-dasharray:none;stroke-opacity:1"
       transform="matrix(1.3333333,0,0,-1.3333333,151.44667,86.662667)" />
    <path
       id="path13"
       d="m 7.3715625,-4.3474609 c 0,-1.59375 -1.0546875,-2.671875 -2.5429687,-2.671875 -2.1445313,0 -4.33593755,2.2617187 -4.33593755,4.5820312 0,1.65234376 1.11328125,2.66015626 2.54296875,2.66015626 2.109375,0 4.3359375,-2.17968746 4.3359375,-4.57031246 z m -4.2773437,4.31249996 c -0.984375,0 -1.6757813,-0.80859375 -1.6757813,-2.12109376 0,-0.4453125 0.140625,-1.8984375 0.9023438,-3.0585937 C 3.0121875,-6.2576172 3.9848438,-6.7732422 4.77,-6.7732422 c 0.8203125,0 1.7109375,0.5625 1.7109375,2.0390625 0,0.7148438 -0.2695312,2.2734375 -1.2539062,3.5039063 -0.4804688,0.59765621 -1.2890625,1.19531246 -2.1328125,1.19531246 z m 0,0"
       style="fill:#000000;fill-opacity:1;fill-rule:nonzero;stroke:none"
       aria-label="O"
       transform="matrix(1.3333333,0,0,1.3333333,156.14,100.43333)" />
    <path
       id="path14"
       d="m 2.6367813,-3.7151797 h 1.125 c -0.328125,1.4765625 -0.4101563,1.8984375 -0.4101563,2.5664063 0,0.15234371 0,0.42187496 0.070312,0.76171871 0.1054688,0.43359375 0.2109375,0.4921875 0.3632813,0.4921875 0.1992187,0 0.4101562,-0.17578125 0.4101562,-0.375 0,-0.0585938 0,-0.0820313 -0.058594,-0.22265625 -0.292968,-0.71484376 -0.292968,-1.35937496 -0.292968,-1.64062496 0,-0.5273438 0.070312,-1.0664063 0.1757813,-1.5820313 h 1.1367187 c 0.1289063,0 0.4921875,0 0.4921875,-0.3398437 0,-0.234375 -0.2109375,-0.234375 -0.3984375,-0.234375 H 1.9102188 c -0.2109375,0 -0.5976563,0 -1.03125005,0.46875 -0.3515625,0.3867187 -0.609375,0.84375 -0.609375,0.890625 0,0.011719 0,0.1054687 0.1171875,0.1054687 0.0820313,0 0.10546875,-0.046875 0.1640625,-0.1289062 C 1.0313125,-3.7151797 1.61725,-3.7151797 1.8164688,-3.7151797 h 0.5625 C 2.0625625,-2.5081484 1.5235,-1.3011172 1.101625,-0.39877344 c -0.070312,0.15234375 -0.070312,0.1640625 -0.070312,0.234375 0,0.19921875 0.1523438,0.26953125 0.28125,0.26953125 0.3046875,0 0.3867188,-0.26953125 0.5039063,-0.64453125 C 1.9570938,-0.99642969 1.9570938,-1.0198672 2.086,-1.5120547 Z m 0,0"
       style="fill:#000000;fill-opacity:1;fill-rule:nonzero;stroke:none"
       aria-label="π"
       transform="matrix(1.3333333,0,0,1.3333333,185.21867,97.074667)" />
    <g
       id="g14"
       aria-label="2π"
       transform="matrix(1.3333333,0,0,1.3333333,219.69333,99.916)">
      <path
         id="path15"
         d="M 1.2641797,-0.76317187 2.3188672,-1.7944219 c 1.5585937,-1.3710937 2.15625,-1.9101562 2.15625,-2.90625 0,-1.1367187 -0.9023438,-1.9335937 -2.1210938,-1.9335937 -1.125,0 -1.85156246,0.9140625 -1.85156246,1.8046875 0,0.5507812 0.4921875,0.5507812 0.52734376,0.5507812 0.1640625,0 0.515625,-0.1171875 0.515625,-0.5273437 0,-0.2578125 -0.1875,-0.515625 -0.5273438,-0.515625 -0.0820312,0 -0.10546871,0 -0.12890621,0.011719 0.22265621,-0.6445312 0.76171871,-1.0195312 1.33593751,-1.0195312 0.9140625,0 1.3359375,0.8085937 1.3359375,1.6289062 0,0.796875 -0.4921875,1.5820313 -1.0429688,2.203125 L 0.60792969,-0.36473437 C 0.50246094,-0.25926562 0.50246094,-0.23582812 0.50246094,-0.00145312 H 4.1938672 l 0.28125,-1.73437498 H 4.2173047 c -0.046875,0.3046875 -0.1171875,0.73828123 -0.2109375,0.89062498 -0.070312,0.0820313 -0.7265625,0.0820313 -0.9492188,0.0820313 z m 0,0"
         style="fill:#000000;fill-opacity:1;fill-rule:nonzero;stroke:none" />
      <path
         id="path16"
         d="m 7.6186719,-3.7162969 h 1.125 c -0.328125,1.4765625 -0.4101563,1.8984375 -0.4101563,2.5664063 0,0.15234373 0,0.42187498 0.070312,0.76171873 0.1054688,0.43359375 0.2109375,0.4921875 0.3632813,0.4921875 0.1992187,0 0.4101562,-0.17578125 0.4101562,-0.375 0,-0.0585938 0,-0.0820313 -0.058594,-0.22265625 -0.292968,-0.71484378 -0.292968,-1.35937498 -0.292968,-1.64062498 0,-0.5273438 0.070312,-1.0664063 0.1757813,-1.5820313 h 1.1367186 c 0.128906,0 0.492188,0 0.492188,-0.3398437 0,-0.234375 -0.210938,-0.234375 -0.398438,-0.234375 H 6.8921094 c -0.2109375,0 -0.5976563,0 -1.03125,0.46875 -0.3515625,0.3867187 -0.609375,0.84375 -0.609375,0.890625 0,0.011719 0,0.1054687 0.1171875,0.1054687 0.082031,0 0.1054687,-0.046875 0.1640625,-0.1289062 0.4804687,-0.7617188 1.0664062,-0.7617188 1.265625,-0.7617188 h 0.5625 c -0.3164063,1.2070313 -0.8554688,2.4140625 -1.2773438,3.31640628 -0.070312,0.15234375 -0.070312,0.1640625 -0.070312,0.234375 0,0.19921875 0.1523438,0.26953125 0.28125,0.26953125 0.3046875,0 0.3867188,-0.26953125 0.5039063,-0.64453125 0.140625,-0.45703125 0.140625,-0.48046878 0.2695312,-0.97265628 z m 0,0"
         style="fill:#000000;fill-opacity:1;fill-rule:nonzero;stroke:none" />
    </g>
    <path
       id="path17"
       d="m 2.9306484,-6.3747266 c 0,-0.234375 0,-0.2578125 -0.234375,-0.2578125 -0.609375,0.6328125 -1.4882812,0.6328125 -1.80468746,0.6328125 v 0.3164063 c 0.19921876,0 0.78515626,0 1.30078126,-0.2578125 v 5.15624999 c 0,0.3515625 -0.035156,0.48046875 -0.9257813,0.48046875 H 0.95017969 V 2.734375e-4 C 1.3017422,-0.03488281 2.1572109,-0.03488281 2.5556484,-0.03488281 c 0.3984375,0 1.265625,0 1.6171875,0.0351562475 V -0.30441406 H 3.8564297 c -0.9023438,0 -0.9257813,-0.1171875 -0.9257813,-0.48046875 z m 0,0"
       style="fill:#000000;fill-opacity:1;fill-rule:nonzero;stroke:none"
       aria-label="1"
       transform="matrix(1.3333333,0,0,1.3333333,140.112,60.706667)" />
    <path
       id="path18"
       d="m 3.2917422,2.3910547 c 0,-0.035156 0,-0.046875 -0.1640625,-0.2226563 -1.2421875,-1.25390621 -1.5703125,-3.12890621 -1.5703125,-4.6640625 0,-1.7226562 0.3867187,-3.4570312 1.6054687,-4.7109375 0.1289063,-0.1171875 0.1289063,-0.1289062 0.1289063,-0.1640625 0,-0.070312 -0.035156,-0.1054687 -0.09375,-0.1054687 -0.1054688,0 -0.9960938,0.6796875 -1.5820313,1.9453125 -0.515625,1.1015625 -0.63281246,2.203125 -0.63281246,3.0351562 0,0.7851563 0.11718746,1.99218754 0.65624996,3.11718754 0.5976563,1.21874996 1.453125,1.87499996 1.5585938,1.87499996 0.058594,0 0.09375,-0.035156 0.09375,-0.1054687 z M 8.6911563,-0.89019531 V -1.4409766 H 8.4333438 v 0.55078129 c 0,0.5859375 -0.2460938,0.64453125 -0.3515625,0.64453125 -0.328125,0 -0.375,-0.45703125 -0.375,-0.50390625 V -2.7417578 c 0,-0.4101563 0,-0.8085938 -0.3515625,-1.171875 C 6.9685,-4.3003516 6.4645938,-4.4644141 5.984125,-4.4644141 c -0.8085937,0 -1.5,0.46875 -1.5,1.125 0,0.3046875 0.1992188,0.46875 0.4570313,0.46875 0.28125,0 0.4570312,-0.1992187 0.4570312,-0.4570312 0,-0.1171875 -0.046875,-0.4453125 -0.5039062,-0.4570313 0.2695312,-0.3515625 0.75,-0.4570312 1.078125,-0.4570312 0.4804687,0 1.0546875,0.3867187 1.0546875,1.2773437 v 0.3632813 c -0.515625,0.035156 -1.2070313,0.058594 -1.8398438,0.3632812 -0.75,0.3398438 -0.9960937,0.8554688 -0.9960937,1.28906254 0,0.80859375 0.9726562,1.0546875 1.59375,1.0546875 0.65625,0 1.1132812,-0.3984375 1.3125,-0.8671875 0.035156,0.3984375 0.3046875,0.8203125 0.7734375,0.8203125 0.2109375,0 0.8203125,-0.140625 0.8203125,-0.94921875 z M 7.0270938,-1.3941016 c 0,0.94921879 -0.7265625,1.28906254 -1.171875,1.28906254 -0.4804688,0 -0.890625,-0.3515625 -0.890625,-0.85546875 0,-0.53906249 0.4101562,-1.37109379 2.0625,-1.42968749 z m 4.7138672,-1.1015625 c 0,-0.7734375 -0.117188,-1.9804687 -0.65625,-3.1054687 -0.597656,-1.21875 -1.4648438,-1.875 -1.5585938,-1.875 -0.058594,0 -0.1054688,0.046875 -0.1054688,0.1054687 0,0.035156 0,0.046875 0.1992188,0.234375 0.9726558,0.984375 1.5351558,2.5664063 1.5351558,4.640625 0,1.71093754 -0.363281,3.45703129 -1.5937496,4.7226563 -0.140625,0.1171875 -0.140625,0.1289062 -0.140625,0.1640625 0,0.058594 0.046875,0.1054687 0.1054688,0.1054687 0.09375,0 0.9960938,-0.6796875 1.5820308,-1.94531246 0.503907,-1.1015625 0.632813,-2.20312504 0.632813,-3.04687504 z m 0,0"
       style="fill:#000000;fill-opacity:1;fill-rule:nonzero;stroke:none"
       aria-label="(a)"
       transform="matrix(1.3333333,0,0,1.3333333,142.95867,188.25333)" />
    <path
       id="path19"
       d="M 141.73407,0 H 368.1101"
       style="fill:none;stroke:#000000;stroke-width:0.3985;stroke-linecap:butt;stroke-linejoin:miter;stroke-miterlimit:10;stroke-dasharray:none;stroke-opacity:1"
       transform="matrix(1.3333333,0,0,-1.3333333,151.44667,86.662667)" />
    <path
       id="path20"
       d="M -2.07224,2.39104 C -1.69365,0.95639 -0.84999,0.27895 0,0 -0.84999,-0.27895 -1.69365,-0.95639 -2.07224,-2.39104"
       style="fill:none;stroke:#000000;stroke-width:0.3985;stroke-linecap:round;stroke-linejoin:round;stroke-miterlimit:10;stroke-dasharray:none;stroke-opacity:1"
       transform="matrix(1.3333333,0,0,-1.3333333,642.52581,86.662667)" />
    <path
       id="path21"
       d="m 2.0516797,-3.9838672 h 0.9375 c 0.1992187,0 0.3046875,0 0.3046875,-0.1992187 0,-0.1054688 -0.1054688,-0.1054688 -0.28125,-0.1054688 H 2.1337109 c 0.3632813,-1.4179687 0.4101563,-1.6171875 0.4101563,-1.6757812 0,-0.1757813 -0.1171875,-0.2695313 -0.2929688,-0.2695313 -0.023437,0 -0.3046875,0.011719 -0.3984375,0.3515625 l -0.3867187,1.59375 H 0.52824219 c -0.19921875,0 -0.29296875,0 -0.29296875,0.1875 0,0.1171875 0.0703125,0.1171875 0.26953125,0.1171875 H 1.3837109 c -0.71484371,2.8242188 -0.74999996,3.00000001 -0.74999996,3.17578126 0,0.5390625 0.37499996,0.9140625 0.91406246,0.9140625 1.0078125,0 1.5820313,-1.45312496 1.5820313,-1.53515626 0,-0.09375 -0.082031,-0.09375 -0.1171875,-0.09375 -0.09375,0 -0.1054688,0.023437 -0.1523438,0.140625 -0.4335937,1.03125001 -0.9609375,1.27734376 -1.3007812,1.27734376 -0.1992188,0 -0.3046875,-0.12890625 -0.3046875,-0.45703125 0,-0.24609375 0.023437,-0.31640625 0.058594,-0.48046871 z m 0,0"
       style="fill:#000000;fill-opacity:1;fill-rule:nonzero;stroke:none"
       aria-label="t"
       transform="matrix(1.3333333,0,0,1.3333333,640.39333,99.526667)" />
    <path
       id="path22"
       d="M 255.12134,-56.69363 V 56.29512"
       style="fill:none;stroke:#000000;stroke-width:0.3985;stroke-linecap:butt;stroke-linejoin:miter;stroke-miterlimit:10;stroke-dasharray:none;stroke-opacity:1"
       transform="matrix(1.3333333,0,0,-1.3333333,151.44667,86.662667)" />
    <path
       id="path23"
       d="M -2.07224,2.39104 C -1.69365,0.95639 -0.84999,0.27895 0,0 -0.84999,-0.27895 -1.69365,-0.95639 -2.07224,-2.39104"
       style="fill:none;stroke:#000000;stroke-width:0.3985;stroke-linecap:round;stroke-linejoin:round;stroke-miterlimit:10;stroke-dasharray:none;stroke-opacity:1"
       transform="matrix(0,-1.3333333,-1.3333333,0,491.60845,11.33684)" />
    <g
       id="g23"
       aria-label="f(t)"
       transform="matrix(1.3333333,0,0,1.3333333,496.30133,14.392)">
      <path
         id="path24"
         d="m 3.6558359,-3.9854063 h 0.8554688 c 0.1992187,0 0.3046875,0 0.3046875,-0.1992187 0,-0.1054688 -0.1054688,-0.1054688 -0.2695313,-0.1054688 H 3.7144297 l 0.2109375,-1.1367187 c 0.035156,-0.2109375 0.1757812,-0.9140625 0.234375,-1.0429688 0.09375,-0.1875 0.2578125,-0.3398437 0.46875,-0.3398437 0.046875,0 0.3046875,0 0.4921875,0.1875 -0.4335938,0.035156 -0.5390625,0.3867187 -0.5390625,0.5390625 0,0.2226562 0.1757812,0.3398437 0.3632812,0.3398437 0.2695313,0 0.5507813,-0.2109375 0.5507813,-0.5976562 0,-0.4570313 -0.4570313,-0.6796875 -0.8671875,-0.6796875 -0.3398438,0 -0.9609375,0.1757812 -1.265625,1.1601562 -0.058594,0.2109375 -0.082031,0.3164063 -0.328125,1.5703125 H 2.3550547 c -0.1992188,0 -0.3046875,0 -0.3046875,0.1875 0,0.1171875 0.09375,0.1171875 0.28125,0.1171875 h 0.65625 l -0.75,3.93750005 C 2.0620859,0.91303125 1.8980234,1.8270937 1.3706797,1.8270937 c -0.035156,0 -0.28125,0 -0.46875001,-0.1875 C 1.3589609,1.6161562 1.4409922,1.252875 1.4409922,1.1005312 c 0,-0.2226562 -0.1757813,-0.3398437 -0.3632813,-0.3398437 -0.25781246,0 -0.55078121,0.2109375 -0.55078121,0.5976562 0,0.4453125 0.43359375,0.6796875 0.84375001,0.6796875 0.5507812,0 0.9492187,-0.5859375 1.125,-0.9609375 0.328125,-0.63281245 0.5507812,-1.8398437 0.5625,-1.9101562 z m 0,0"
         style="fill:#000000;fill-opacity:1;fill-rule:nonzero;stroke:none" />
      <path
         id="path25"
         d="m 9.24275,2.3895937 c 0,-0.035156 0,-0.046875 -0.1640625,-0.2226562 C 7.8365,0.91303125 7.508375,-0.96196875 7.508375,-2.497125 c 0,-1.7226563 0.3867188,-3.4570313 1.6054688,-4.7109375 C 9.24275,-7.32525 9.24275,-7.3369688 9.24275,-7.372125 c 0,-0.070312 -0.035156,-0.1054688 -0.09375,-0.1054688 -0.1054687,0 -0.9960937,0.6796875 -1.5820312,1.9453125 -0.515625,1.1015625 -0.6328125,2.203125 -0.6328125,3.0351563 0,0.7851562 0.1171875,1.9921875 0.65625,3.1171875 0.5976562,1.21875 1.453125,1.875 1.5585937,1.875 0.058594,0 0.09375,-0.035156 0.09375,-0.1054688 z m 0,0"
         style="fill:#000000;fill-opacity:1;fill-rule:nonzero;stroke:none" />
      <path
         id="path26"
         d="m 11.873609,-3.9854063 h 0.9375 c 0.199219,0 0.304688,0 0.304688,-0.1992187 0,-0.1054688 -0.105469,-0.1054688 -0.28125,-0.1054688 h -0.878906 c 0.363281,-1.4179687 0.410156,-1.6171875 0.410156,-1.6757812 0,-0.1757813 -0.117188,-0.2695313 -0.292969,-0.2695313 -0.02344,0 -0.304687,0.011719 -0.398437,0.3515625 l -0.386719,1.59375 h -0.9375 c -0.199219,0 -0.292969,0 -0.292969,0.1875 0,0.1171875 0.07031,0.1171875 0.269531,0.1171875 h 0.878907 c -0.714844,2.8242188 -0.75,3.00000005 -0.75,3.1757813 0,0.5390625 0.375,0.9140625 0.914062,0.9140625 1.007813,0 1.582031,-1.453125 1.582031,-1.5351563 0,-0.09375 -0.08203,-0.09375 -0.117187,-0.09375 -0.09375,0 -0.105469,0.023437 -0.152344,0.140625 -0.433594,1.03125005 -0.960937,1.2773438 -1.300781,1.2773438 -0.199219,0 -0.304688,-0.12890625 -0.304688,-0.45703125 0,-0.24609375 0.02344,-0.31640625 0.05859,-0.48046875 z m 0,0"
         style="fill:#000000;fill-opacity:1;fill-rule:nonzero;stroke:none" />
      <path
         id="path27"
         d="m 16.306227,-2.497125 c 0,-0.7734375 -0.117188,-1.9804688 -0.65625,-3.1054688 -0.597657,-1.21875 -1.464844,-1.875 -1.558594,-1.875 -0.05859,0 -0.105469,0.046875 -0.105469,0.1054688 0,0.035156 0,0.046875 0.199219,0.234375 0.972656,0.984375 1.535156,2.5664062 1.535156,4.640625 0,1.7109375 -0.363281,3.45703125 -1.59375,4.7226562 -0.140625,0.1171875 -0.140625,0.1289063 -0.140625,0.1640625 0,0.058594 0.04687,0.1054688 0.105469,0.1054688 0.09375,0 0.996094,-0.6796875 1.582031,-1.9453125 0.503906,-1.1015625 0.632813,-2.203125 0.632813,-3.046875 z m 0,0"
         style="fill:#000000;fill-opacity:1;fill-rule:nonzero;stroke:none" />
    </g>
    <path
       id="path28"
       d="m 1.9115469,-0.52677344 c 0,-0.29296875 -0.234375,-0.52734376 -0.5273438,-0.52734376 -0.28125,0 -0.52734373,0.23437501 -0.52734373,0.52734376 0,0.29296875 0.24609373,0.5273437525 0.52734373,0.5273437525 0.2929688,0 0.5273438,-0.2343750025 0.5273438,-0.5273437525 z m 4.4121093,0 c 0,-0.29296875 -0.234375,-0.52734376 -0.5273437,-0.52734376 -0.28125,0 -0.5273438,0.23437501 -0.5273438,0.52734376 0,0.29296875 0.2460938,0.5273437525 0.5273438,0.5273437525 0.2929687,0 0.5273437,-0.2343750025 0.5273437,-0.5273437525 z m 4.4238278,0 c 0,-0.29296875 -0.234375,-0.52734376 -0.527343,-0.52734376 -0.2812504,0 -0.5273441,0.23437501 -0.5273441,0.52734376 0,0.29296875 0.2460937,0.5273437525 0.5273441,0.5273437525 0.292968,0 0.527343,-0.2343750025 0.527343,-0.5273437525 z m 0,0"
       style="fill:#000000;fill-opacity:1;fill-rule:nonzero;stroke:none"
       aria-label="..."
       transform="matrix(1.3333333,0,0,1.3333333,369.36533,72.245333)" />
    <path
       id="path29"
       d="m 1.910625,-0.52677344 c 0,-0.29296875 -0.234375,-0.52734376 -0.5273438,-0.52734376 -0.28125,0 -0.5273437,0.23437501 -0.5273437,0.52734376 0,0.29296875 0.2460937,0.5273437525 0.5273437,0.5273437525 0.2929688,0 0.5273438,-0.2343750025 0.5273438,-0.5273437525 z m 4.4121094,0 c 0,-0.29296875 -0.234375,-0.52734376 -0.5273438,-0.52734376 -0.28125,0 -0.5273437,0.23437501 -0.5273437,0.52734376 0,0.29296875 0.2460937,0.5273437525 0.5273437,0.5273437525 0.2929688,0 0.5273438,-0.2343750025 0.5273438,-0.5273437525 z m 4.4238276,0 c 0,-0.29296875 -0.234375,-0.52734376 -0.527343,-0.52734376 -0.2812503,0 -0.527344,0.23437501 -0.527344,0.52734376 0,0.29296875 0.2460937,0.5273437525 0.527344,0.5273437525 0.292968,0 0.527343,-0.2343750025 0.527343,-0.5273437525 z m 0,0"
       style="fill:#000000;fill-opacity:1;fill-rule:nonzero;stroke:none"
       aria-label="..."
       transform="matrix(1.3333333,0,0,1.3333333,596.14,72.245333)" />
    <path
       id="path30"
       d="m 198.4277,0 0.14188,0.35553 0.14189,0.35641 0.14186,0.35642 0.14188,0.35641 0.14186,0.35553 0.14189,0.35555 0.14186,0.35384 0.14188,0.35467 0.14186,0.35294 0.14189,0.35296 0.14186,0.35208 0.14188,0.34949 0.14186,0.35036 0.14189,0.34863 0.14186,0.34689 0.14188,0.34603 0.14187,0.34516 0.14188,0.34258 0.14186,0.34171 0.14188,0.34083 0.14187,0.33824 0.14188,0.33567 0.14186,0.33391 0.14188,0.33218 0.14187,0.33133 0.14188,0.32786 0.14186,0.32613 0.14188,0.32355 0.14187,0.32181 0.14188,0.31921 0.14186,0.31575 0.14188,0.31403 0.14187,0.31141 0.14188,0.30797 0.14186,0.3045 0.14188,0.30278 0.14187,0.29932 0.14188,0.29673 0.14186,0.29325 0.14188,0.28981 0.14187,0.2872 0.14188,0.28289 0.14186,0.27941 0.14187,0.27683 0.14188,0.27251 0.14188,0.26902 0.14186,0.26558 0.14188,0.26213 0.14187,0.25692 0.14188,0.25435 0.14186,0.24998 0.14187,0.2457 0.14188,0.24222 0.14188,0.23702 0.14186,0.23358 0.14187,0.22924 0.14188,0.22491 0.14188,0.2206 0.14186,0.21626 0.14187,0.21195 0.14188,0.20677 0.14188,0.20241 0.14186,0.19725 0.14187,0.19377 0.14188,0.18773 0.14187,0.18339 0.14187,0.17908 0.14187,0.17387 0.14188,0.16956 0.14188,0.1635 0.14186,0.15918 0.14187,0.15397 0.14188,0.14879 0.14187,0.1436 0.14187,0.13842 0.14187,0.13409 0.14188,0.12802 0.14187,0.12372 0.14187,0.11764 0.14187,0.11248 0.14188,0.10725 0.14187,0.10121 0.14187,0.09603 0.14189,0.09085 0.14186,0.08563 0.14187,0.07957 0.14186,0.07528 0.14189,0.06921 0.14187,0.06401 0.14187,0.05796 0.14186,0.0519 0.1419,0.0476 0.14186,0.04064 0.14187,0.03634 0.14187,0.02942 0.14189,0.02507 0.14186,0.01904 0.14187,0.01384 0.14186,0.0078 0.14189,0.0026 0.14187,-0.0026 0.14187,-0.01038 0.14186,-0.01471 0.14189,-0.01989 0.14187,-0.02596 0.14187,-0.03114 0.14186,-0.03719 0.14189,-0.04239 0.14187,-0.04844 0.14187,-0.05277 0.14186,-0.05796 0.14189,-0.06576 0.14186,-0.07006 0.14188,-0.07613 0.14186,-0.08131 0.14189,-0.08652 0.14187,-0.09171 0.14187,-0.09774 0.14186,-0.10294 0.14189,-0.10727 0.14186,-0.11333 0.14188,-0.11937 0.14186,-0.12371 0.14189,-0.12977 0.14186,-0.13408 0.14188,-0.14015 0.14186,-0.14447 0.14189,-0.14965 0.14186,-0.15572 0.14188,-0.15917 0.14186,-0.16436 0.14189,-0.17043 0.14186,-0.17561 0.14188,-0.17994 0.14186,-0.18426 0.14189,-0.18944 0.14186,-0.19378 0.14188,-0.19896 0.14186,-0.20243 0.14189,-0.20762 0.14186,-0.2128 0.14188,-0.21713 0.14186,-0.22147 0.14189,-0.2258 0.14186,-0.23009 0.14188,-0.23445 0.14187,-0.23875 0.14188,-0.24222 0.14186,-0.24655 0.14188,-0.25087 0.14187,-0.25433 0.14188,-0.25867 0.14186,-0.26212 0.14188,-0.26643 0.14187,-0.26991 0.14188,-0.27336 0.14186,-0.27768 0.14188,-0.28031 0.14187,-0.28374 0.14188,-0.28721 0.14186,-0.29067 0.14188,-0.29411 0.14187,-0.29672 0.14188,-0.30017 0.14186,-0.30278 0.14188,-0.30625 0.14187,-0.30796 0.14188,-0.31229 0.14186,-0.31403 0.14188,-0.31662 0.14187,-0.31921 0.14188,-0.32181 0.14186,-0.3244 0.14188,-0.327 0.14187,-0.32873 0.14188,-0.33046 0.14186,-0.33306 0.14188,-0.33477 0.14187,-0.33652 0.14188,-0.33824 0.14186,-0.34085 0.14187,-0.34171 0.14188,-0.34343 0.14188,-0.34517 0.14186,-0.34602 0.14188,-0.34776 0.14187,-0.34864 0.14188,-0.34948 0.14186,-0.35121 0.14187,-0.3521 0.14188,-0.35208 0.14188,-0.35382 0.14186,-0.35468 0.14187,-0.35382 0.14188,-0.35555 0.14188,-0.3564 0.14186,-0.35555 0.14187,-0.35642 0.14188,-0.35641"
       style="fill:none;stroke:#0000ff;stroke-width:0.3985;stroke-linecap:butt;stroke-linejoin:miter;stroke-miterlimit:10;stroke-dasharray:none;stroke-opacity:1"
       transform="matrix(1.3333333,0,0,-1.3333333,151.44667,86.662667)" />
    <path
       id="path31"
       d="m 255.12134,0 0.14187,0.35553 0.14188,0.35641 0.14186,0.35642 0.14188,0.35641 0.14187,0.35553 0.14188,0.35555 0.14186,0.35384 0.14188,0.35467 0.14188,0.35294 0.14187,0.35296 0.14186,0.35208 0.14187,0.34949 0.14188,0.35036 0.14188,0.34863 0.14186,0.34689 0.14188,0.34603 0.14187,0.34516 0.14188,0.34258 0.14186,0.34171 0.14188,0.34083 0.14187,0.33824 0.14188,0.33567 0.14186,0.33391 0.14188,0.33218 0.14187,0.33133 0.14188,0.32786 0.14186,0.32613 0.14188,0.32355 0.14187,0.32181 0.14188,0.31921 0.14186,0.31575 0.14187,0.31403 0.14188,0.31141 0.14187,0.30797 0.14187,0.3045 0.14187,0.30278 0.14188,0.29932 0.14188,0.29673 0.14186,0.29325 0.14187,0.28981 0.14188,0.2872 0.14188,0.28289 0.14186,0.27941 0.14187,0.27683 0.14188,0.27251 0.14188,0.26902 0.14186,0.26558 0.14187,0.26213 0.14188,0.25692 0.14188,0.25435 0.14186,0.24998 0.14187,0.2457 0.14188,0.24222 0.14188,0.23702 0.14186,0.23358 0.14188,0.22924 0.14187,0.22491 0.14188,0.2206 0.14185,0.21626 0.14188,0.21195 0.14188,0.20677 0.14187,0.20241 0.14187,0.19725 0.14189,0.19377 0.14186,0.18773 0.14187,0.18339 0.14187,0.17908 0.14189,0.17387 0.14186,0.16956 0.14187,0.1635 0.14186,0.15918 0.1419,0.15397 0.14186,0.14879 0.14187,0.1436 0.14186,0.13842 0.1419,0.13409 0.14186,0.12802 0.14188,0.12372 0.14185,0.11764 0.1419,0.11248 0.14185,0.10725 0.14188,0.10121 0.14186,0.09603 0.1419,0.09085 0.14186,0.08563 0.14187,0.07957 0.14186,0.07528 0.14189,0.06921 0.14187,0.06401 0.14187,0.05796 0.14186,0.0519 0.14189,0.0476 0.14187,0.04064 0.14187,0.03634 0.14186,0.02942 0.14189,0.02507 0.14187,0.01904 0.14187,0.01384 0.14186,0.0078 0.1419,0.0026 0.14185,-0.0026 0.14188,-0.01038 0.14186,-0.01471 0.14189,-0.01989 0.14186,-0.02596 0.14188,-0.03114 0.14186,-0.03719 0.14189,-0.04239 0.14186,-0.04844 0.14188,-0.05277 0.14186,-0.05796 0.14189,-0.06576 0.14186,-0.07006 0.14188,-0.07613 0.14186,-0.08131 0.14189,-0.08652 0.14186,-0.09171 0.14188,-0.09774 0.14186,-0.10294 0.14189,-0.10727 0.14186,-0.11333 0.14188,-0.11937 0.14186,-0.12371 0.14189,-0.12977 0.14187,-0.13408 0.14187,-0.14015 0.14186,-0.14447 0.14189,-0.14965 0.14186,-0.15572 0.14188,-0.15917 0.14187,-0.16436 0.14188,-0.17043 0.14186,-0.17561 0.14188,-0.17994 0.14187,-0.18426 0.14188,-0.18944 0.14186,-0.19378 0.14188,-0.19896 0.14187,-0.20243 0.14188,-0.20762 0.14186,-0.2128 0.14188,-0.21713 0.14187,-0.22147 0.14188,-0.2258 0.14186,-0.23009 0.14188,-0.23445 0.14188,-0.23875 0.14187,-0.24222 0.14186,-0.24655 0.14187,-0.25087 0.14188,-0.25433 0.14188,-0.25867 0.14186,-0.26212 0.14188,-0.26643 0.14187,-0.26991 0.14188,-0.27336 0.14186,-0.27768 0.14188,-0.28031 0.14187,-0.28374 0.14188,-0.28721 0.14186,-0.29067 0.14188,-0.29411 0.14187,-0.29672 0.14188,-0.30017 0.14186,-0.30278 0.14187,-0.30625 0.14188,-0.30796 0.14188,-0.31229 0.14186,-0.31403 0.14187,-0.31662 0.14188,-0.31921 0.14187,-0.32181 0.14187,-0.3244 0.14187,-0.327 0.14188,-0.32873 0.14188,-0.33046 0.14186,-0.33306 0.14187,-0.33477 0.14188,-0.33652 0.14188,-0.33824 0.14186,-0.34085 0.14187,-0.34171 0.14188,-0.34343 0.14188,-0.34517 0.14186,-0.34602 0.14187,-0.34776 0.14188,-0.34864 0.14188,-0.34948 0.14186,-0.35121 0.14187,-0.3521 0.14188,-0.35208 0.14188,-0.35382 0.14186,-0.35468 0.14187,-0.35382 0.14188,-0.35555 0.14187,-0.3564 0.14186,-0.35555 0.1419,-0.35642 0.14186,-0.35641"
       style="fill:none;stroke:#0000ff;stroke-width:0.3985;stroke-linecap:butt;stroke-linejoin:miter;stroke-miterlimit:10;stroke-dasharray:none;stroke-opacity:1"
       transform="matrix(1.3333333,0,0,-1.3333333,151.44667,86.662667)" />
    <path
       id="path32"
       d="m 7.3706797,-4.3474609 c 0,-1.59375 -1.0546875,-2.671875 -2.5429688,-2.671875 -2.1445312,0 -4.33593746,2.2617187 -4.33593746,4.5820312 0,1.65234376 1.11328126,2.66015626 2.54296876,2.66015626 2.109375,0 4.3359375,-2.17968746 4.3359375,-4.57031246 z m -4.2773438,4.31249996 c -0.984375,0 -1.6757812,-0.80859375 -1.6757812,-2.12109376 0,-0.4453125 0.140625,-1.8984375 0.9023437,-3.0585937 0.6914063,-1.0429688 1.6640625,-1.5585938 2.4492188,-1.5585938 0.8203125,0 1.7109375,0.5625 1.7109375,2.0390625 0,0.7148438 -0.2695313,2.2734375 -1.2539063,3.5039063 -0.4804687,0.59765621 -1.2890625,1.19531246 -2.1328125,1.19531246 z m 0,0"
       style="fill:#000000;fill-opacity:1;fill-rule:nonzero;stroke:none"
       aria-label="O"
       transform="matrix(1.3333333,0,0,1.3333333,496.30133,100.43333)" />
    <path
       id="path33"
       d="m 2.6358984,-3.7151797 h 1.125 c -0.328125,1.4765625 -0.4101562,1.8984375 -0.4101562,2.5664063 0,0.15234371 0,0.42187496 0.070312,0.76171871 0.1054687,0.43359375 0.2109375,0.4921875 0.3632812,0.4921875 0.1992188,0 0.4101563,-0.17578125 0.4101563,-0.375 0,-0.0585938 0,-0.0820313 -0.058594,-0.22265625 -0.292968,-0.71484376 -0.292968,-1.35937496 -0.292968,-1.64062496 0,-0.5273438 0.070312,-1.0664063 0.1757812,-1.5820313 h 1.1367188 c 0.1289062,0 0.4921875,0 0.4921875,-0.3398437 0,-0.234375 -0.2109375,-0.234375 -0.3984375,-0.234375 H 1.9093359 c -0.2109375,0 -0.5976562,0 -1.03124996,0.46875 -0.3515625,0.3867187 -0.609375,0.84375 -0.609375,0.890625 0,0.011719 0,0.1054687 0.1171875,0.1054687 0.0820313,0 0.10546875,-0.046875 0.1640625,-0.1289062 C 1.0304297,-3.7151797 1.6163672,-3.7151797 1.8155859,-3.7151797 h 0.5625 c -0.3164062,1.2070313 -0.8554687,2.4140625 -1.2773437,3.31640626 -0.070312,0.15234375 -0.070312,0.1640625 -0.070312,0.234375 0,0.19921875 0.1523437,0.26953125 0.28125,0.26953125 0.3046875,0 0.3867187,-0.26953125 0.5039062,-0.64453125 0.140625,-0.45703125 0.140625,-0.48046876 0.2695313,-0.97265626 z m 0,0"
       style="fill:#000000;fill-opacity:1;fill-rule:nonzero;stroke:none"
       aria-label="π"
       transform="matrix(1.3333333,0,0,1.3333333,525.38,97.074667)" />
    <g
       id="g33"
       aria-label="−π"
       transform="matrix(1.3333333,0,0,1.3333333,444.62267,99.104)">
      <path
         id="path34"
         d="m 6.5613203,-2.2957734 c 0.1757813,0 0.3515625,0 0.3515625,-0.1992188 0,-0.1992187 -0.1757812,-0.1992187 -0.3515625,-0.1992187 h -5.390625 c -0.1640625,0 -0.33984374,0 -0.33984374,0.1992187 0,0.1992188 0.17578124,0.1992188 0.33984374,0.1992188 z m 0,0"
         style="fill:#000000;fill-opacity:1;fill-rule:nonzero;stroke:none" />
      <path
         id="path35"
         d="m 10.384562,-3.7137422 h 1.125 c -0.328125,1.4765625 -0.410156,1.8984375 -0.410156,2.5664063 0,0.15234371 0,0.42187496 0.07031,0.76171871 0.105468,0.43359375 0.210937,0.4921875 0.363281,0.4921875 0.199219,0 0.410156,-0.17578125 0.410156,-0.375 0,-0.0585938 0,-0.0820313 -0.05859,-0.22265625 -0.292968,-0.71484376 -0.292968,-1.35937496 -0.292968,-1.64062496 0,-0.5273438 0.07031,-1.0664063 0.175781,-1.5820313 h 1.136719 c 0.128906,0 0.492187,0 0.492187,-0.3398437 0,-0.234375 -0.210937,-0.234375 -0.398437,-0.234375 H 9.658 c -0.2109375,0 -0.5976563,0 -1.03125,0.46875 -0.3515625,0.3867187 -0.609375,0.84375 -0.609375,0.890625 0,0.011719 0,0.1054687 0.1171875,0.1054687 0.082031,0 0.1054687,-0.046875 0.1640625,-0.1289062 0.4804687,-0.7617188 1.0664062,-0.7617188 1.265625,-0.7617188 h 0.5625 c -0.3164063,1.2070313 -0.8554688,2.4140625 -1.2773438,3.31640626 -0.070312,0.15234375 -0.070312,0.1640625 -0.070312,0.234375 0,0.19921875 0.1523438,0.26953125 0.28125,0.26953125 0.3046875,0 0.3867188,-0.26953125 0.5039063,-0.64453125 0.140625,-0.45703125 0.140625,-0.48046876 0.2695312,-0.97265626 z m 0,0"
         style="fill:#000000;fill-opacity:1;fill-rule:nonzero;stroke:none" />
    </g>
    <path
       id="path36"
       d="m 2.9297656,-6.3747266 c 0,-0.234375 0,-0.2578125 -0.234375,-0.2578125 -0.609375,0.6328125 -1.4882812,0.6328125 -1.80468747,0.6328125 v 0.3164063 c 0.19921877,0 0.78515627,0 1.30078127,-0.2578125 v 5.15624999 c 0,0.3515625 -0.035156,0.48046875 -0.9257813,0.48046875 H 0.94929688 V 2.734375e-4 C 1.3008594,-0.03488281 2.1563281,-0.03488281 2.5547656,-0.03488281 c 0.3984375,0 1.265625,0 1.6171875,0.0351562475 V -0.30441406 H 3.8555469 c -0.9023438,0 -0.9257813,-0.1171875 -0.9257813,-0.48046875 z m 0,0"
       style="fill:#000000;fill-opacity:1;fill-rule:nonzero;stroke:none"
       aria-label="1"
       transform="matrix(1.3333333,0,0,1.3333333,480.27333,60.706667)" />
    <path
       id="path37"
       d="m 3.2937891,2.3910547 c 0,-0.035156 0,-0.046875 -0.1640625,-0.2226563 -1.2421875,-1.25390621 -1.5703125,-3.12890621 -1.5703125,-4.6640625 0,-1.7226562 0.3867187,-3.4570312 1.6054687,-4.7109375 0.1289063,-0.1171875 0.1289063,-0.1289062 0.1289063,-0.1640625 0,-0.070312 -0.035156,-0.1054687 -0.09375,-0.1054687 -0.1054688,0 -0.9960938,0.6796875 -1.5820313,1.9453125 -0.515625,1.1015625 -0.63281249,2.203125 -0.63281249,3.0351562 0,0.7851563 0.11718749,1.99218754 0.65624999,3.11718754 0.5976563,1.21874996 1.453125,1.87499996 1.5585938,1.87499996 0.058594,0 0.09375,-0.035156 0.09375,-0.1054687 z m 5.399414,-3.28125001 V -1.4409766 H 8.4353906 v 0.55078129 c 0,0.5859375 -0.2460937,0.64453125 -0.3515625,0.64453125 -0.328125,0 -0.375,-0.45703125 -0.375,-0.50390625 V -2.7417578 c 0,-0.4101563 0,-0.8085938 -0.3515625,-1.171875 -0.3867187,-0.3867188 -0.890625,-0.5507813 -1.3710937,-0.5507813 -0.8085938,0 -1.5,0.46875 -1.5,1.125 0,0.3046875 0.1992187,0.46875 0.4570312,0.46875 0.28125,0 0.4570313,-0.1992187 0.4570313,-0.4570312 0,-0.1171875 -0.046875,-0.4453125 -0.5039063,-0.4570313 0.2695313,-0.3515625 0.75,-0.4570312 1.078125,-0.4570312 0.4804688,0 1.0546875,0.3867187 1.0546875,1.2773437 v 0.3632813 c -0.515625,0.035156 -1.2070312,0.058594 -1.8398437,0.3632812 -0.75,0.3398438 -0.9960938,0.8554688 -0.9960938,1.28906254 0,0.80859375 0.9726563,1.0546875 1.59375,1.0546875 0.65625,0 1.1132813,-0.3984375 1.3125,-0.8671875 0.035156,0.3984375 0.3046875,0.8203125 0.7734375,0.8203125 0.2109375,0 0.8203125,-0.140625 0.8203125,-0.94921875 z M 7.0291406,-1.3941016 c 0,0.94921879 -0.7265625,1.28906254 -1.171875,1.28906254 -0.4804687,0 -0.890625,-0.3515625 -0.890625,-0.85546875 0,-0.53906249 0.4101563,-1.37109379 2.0625,-1.42968749 z m 4.7109374,-1.1015625 c 0,-0.7734375 -0.117187,-1.9804687 -0.65625,-3.1054687 -0.597656,-1.21875 -1.4648436,-1.875 -1.5585936,-1.875 -0.058594,0 -0.1054688,0.046875 -0.1054688,0.1054687 0,0.035156 0,0.046875 0.1992188,0.234375 0.9726566,0.984375 1.5351566,2.5664063 1.5351566,4.640625 0,1.71093754 -0.363282,3.45703129 -1.5937504,4.7226563 -0.140625,0.1171875 -0.140625,0.1289062 -0.140625,0.1640625 0,0.058594 0.046875,0.1054687 0.1054688,0.1054687 0.09375,0 0.9960936,-0.6796875 1.5820316,-1.94531246 0.503906,-1.1015625 0.632812,-2.20312504 0.632812,-3.04687504 z m 0,0"
       style="fill:#000000;fill-opacity:1;fill-rule:nonzero;stroke:none"
       aria-label="(a)"
       transform="matrix(1.3333333,0,0,1.3333333,483.12,188.25333)" />
  </g>
</svg>
