<?xml version="1.0" encoding="UTF-8" standalone="no"?>
<!-- Created with Inkscape (http://www.inkscape.org/) -->

<svg
   version="1.1"
   id="svg1"
   width="562.54669"
   height="547.96002"
   viewBox="0 0 562.54669 547.96002"
   sodipodi:docname="24-25-1-信号与系统-期末（A卷）-题图9.pdf"
   xmlns:inkscape="http://www.inkscape.org/namespaces/inkscape"
   xmlns:sodipodi="http://sodipodi.sourceforge.net/DTD/sodipodi-0.dtd"
   xmlns="http://www.w3.org/2000/svg"
   xmlns:svg="http://www.w3.org/2000/svg">
  <defs
     id="defs1" />
  <sodipodi:namedview
     id="namedview1"
     pagecolor="#ffffff"
     bordercolor="#000000"
     borderopacity="0.25"
     inkscape:showpageshadow="2"
     inkscape:pageopacity="0.0"
     inkscape:pagecheckerboard="0"
     inkscape:deskcolor="#d1d1d1">
    <inkscape:page
       x="0"
       y="0"
       inkscape:label="1"
       id="page1"
       width="562.54669"
       height="547.96002"
       margin="0"
       bleed="0" />
  </sodipodi:namedview>
  <g
     id="g1"
     inkscape:groupmode="layer"
     inkscape:label="1">
    <path
       id="path1"
       d="M -191.34099,-191.34099 H 191.34099"
       style="fill:none;stroke:#000000;stroke-width:0.3985;stroke-linecap:butt;stroke-linejoin:miter;stroke-miterlimit:10;stroke-dasharray:none;stroke-opacity:1"
       transform="matrix(1.3333333,0,0,-1.3333333,307.16,255.38667)" />
    <path
       id="path2"
       d="M -191.34099,-191.34099 V 191.34099"
       style="fill:none;stroke:#000000;stroke-width:0.3985;stroke-linecap:butt;stroke-linejoin:miter;stroke-miterlimit:10;stroke-dasharray:none;stroke-opacity:1"
       transform="matrix(1.3333333,0,0,-1.3333333,307.16,255.38667)" />
    <path
       id="path3"
       d="M -191.34099,-170.08089 H 191.34099"
       style="fill:none;stroke:#000000;stroke-width:0.3985;stroke-linecap:butt;stroke-linejoin:miter;stroke-miterlimit:10;stroke-dasharray:none;stroke-opacity:1"
       transform="matrix(1.3333333,0,0,-1.3333333,307.16,255.38667)" />
    <path
       id="path4"
       d="M -170.08089,-191.34099 V 191.34099"
       style="fill:none;stroke:#000000;stroke-width:0.3985;stroke-linecap:butt;stroke-linejoin:miter;stroke-miterlimit:10;stroke-dasharray:none;stroke-opacity:1"
       transform="matrix(1.3333333,0,0,-1.3333333,307.16,255.38667)" />
    <path
       id="path5"
       d="M -191.34099,-127.56065 H 191.34099"
       style="fill:none;stroke:#000000;stroke-width:0.3985;stroke-linecap:butt;stroke-linejoin:miter;stroke-miterlimit:10;stroke-dasharray:none;stroke-opacity:1"
       transform="matrix(1.3333333,0,0,-1.3333333,307.16,255.38667)" />
    <path
       id="path6"
       d="M -127.56065,-191.34099 V 191.34099"
       style="fill:none;stroke:#000000;stroke-width:0.3985;stroke-linecap:butt;stroke-linejoin:miter;stroke-miterlimit:10;stroke-dasharray:none;stroke-opacity:1"
       transform="matrix(1.3333333,0,0,-1.3333333,307.16,255.38667)" />
    <path
       id="path7"
       d="M -191.34099,-85.04044 H 191.34099"
       style="fill:none;stroke:#000000;stroke-width:0.3985;stroke-linecap:butt;stroke-linejoin:miter;stroke-miterlimit:10;stroke-dasharray:none;stroke-opacity:1"
       transform="matrix(1.3333333,0,0,-1.3333333,307.16,255.38667)" />
    <path
       id="path8"
       d="M -85.04044,-191.34099 V 191.34099"
       style="fill:none;stroke:#000000;stroke-width:0.3985;stroke-linecap:butt;stroke-linejoin:miter;stroke-miterlimit:10;stroke-dasharray:none;stroke-opacity:1"
       transform="matrix(1.3333333,0,0,-1.3333333,307.16,255.38667)" />
    <path
       id="path9"
       d="M -191.34099,-42.52022 H 191.34099"
       style="fill:none;stroke:#000000;stroke-width:0.3985;stroke-linecap:butt;stroke-linejoin:miter;stroke-miterlimit:10;stroke-dasharray:none;stroke-opacity:1"
       transform="matrix(1.3333333,0,0,-1.3333333,307.16,255.38667)" />
    <path
       id="path10"
       d="M -42.52022,-191.34099 V 191.34099"
       style="fill:none;stroke:#000000;stroke-width:0.3985;stroke-linecap:butt;stroke-linejoin:miter;stroke-miterlimit:10;stroke-dasharray:none;stroke-opacity:1"
       transform="matrix(1.3333333,0,0,-1.3333333,307.16,255.38667)" />
    <path
       id="path11"
       d="M -191.34099,0 H 191.34099"
       style="fill:none;stroke:#000000;stroke-width:0.3985;stroke-linecap:butt;stroke-linejoin:miter;stroke-miterlimit:10;stroke-dasharray:none;stroke-opacity:1"
       transform="matrix(1.3333333,0,0,-1.3333333,307.16,255.38667)" />
    <path
       id="path12"
       d="M 0,-191.34099 V 191.34099"
       style="fill:none;stroke:#000000;stroke-width:0.3985;stroke-linecap:butt;stroke-linejoin:miter;stroke-miterlimit:10;stroke-dasharray:none;stroke-opacity:1"
       transform="matrix(1.3333333,0,0,-1.3333333,307.16,255.38667)" />
    <path
       id="path13"
       d="M -191.34099,42.52022 H 191.34099"
       style="fill:none;stroke:#000000;stroke-width:0.3985;stroke-linecap:butt;stroke-linejoin:miter;stroke-miterlimit:10;stroke-dasharray:none;stroke-opacity:1"
       transform="matrix(1.3333333,0,0,-1.3333333,307.16,255.38667)" />
    <path
       id="path14"
       d="M 42.52022,-191.34099 V 191.34099"
       style="fill:none;stroke:#000000;stroke-width:0.3985;stroke-linecap:butt;stroke-linejoin:miter;stroke-miterlimit:10;stroke-dasharray:none;stroke-opacity:1"
       transform="matrix(1.3333333,0,0,-1.3333333,307.16,255.38667)" />
    <path
       id="path15"
       d="M -191.34099,85.04044 H 191.34099"
       style="fill:none;stroke:#000000;stroke-width:0.3985;stroke-linecap:butt;stroke-linejoin:miter;stroke-miterlimit:10;stroke-dasharray:none;stroke-opacity:1"
       transform="matrix(1.3333333,0,0,-1.3333333,307.16,255.38667)" />
    <path
       id="path16"
       d="M 85.04044,-191.34099 V 191.34099"
       style="fill:none;stroke:#000000;stroke-width:0.3985;stroke-linecap:butt;stroke-linejoin:miter;stroke-miterlimit:10;stroke-dasharray:none;stroke-opacity:1"
       transform="matrix(1.3333333,0,0,-1.3333333,307.16,255.38667)" />
    <path
       id="path17"
       d="M -191.34099,127.56065 H 191.34099"
       style="fill:none;stroke:#000000;stroke-width:0.3985;stroke-linecap:butt;stroke-linejoin:miter;stroke-miterlimit:10;stroke-dasharray:none;stroke-opacity:1"
       transform="matrix(1.3333333,0,0,-1.3333333,307.16,255.38667)" />
    <path
       id="path18"
       d="M 127.56065,-191.34099 V 191.34099"
       style="fill:none;stroke:#000000;stroke-width:0.3985;stroke-linecap:butt;stroke-linejoin:miter;stroke-miterlimit:10;stroke-dasharray:none;stroke-opacity:1"
       transform="matrix(1.3333333,0,0,-1.3333333,307.16,255.38667)" />
    <path
       id="path19"
       d="M -191.34099,170.08089 H 191.34099"
       style="fill:none;stroke:#000000;stroke-width:0.3985;stroke-linecap:butt;stroke-linejoin:miter;stroke-miterlimit:10;stroke-dasharray:none;stroke-opacity:1"
       transform="matrix(1.3333333,0,0,-1.3333333,307.16,255.38667)" />
    <path
       id="path20"
       d="M 170.08089,-191.34099 V 191.34099"
       style="fill:none;stroke:#000000;stroke-width:0.3985;stroke-linecap:butt;stroke-linejoin:miter;stroke-miterlimit:10;stroke-dasharray:none;stroke-opacity:1"
       transform="matrix(1.3333333,0,0,-1.3333333,307.16,255.38667)" />
    <path
       id="path21"
       d="M -191.34099,191.34099 H 191.34099"
       style="fill:none;stroke:#000000;stroke-width:0.3985;stroke-linecap:butt;stroke-linejoin:miter;stroke-miterlimit:10;stroke-dasharray:none;stroke-opacity:1"
       transform="matrix(1.3333333,0,0,-1.3333333,307.16,255.38667)" />
    <path
       id="path22"
       d="M 191.34099,-191.34099 V 191.34099"
       style="fill:none;stroke:#000000;stroke-width:0.3985;stroke-linecap:butt;stroke-linejoin:miter;stroke-miterlimit:10;stroke-dasharray:none;stroke-opacity:1"
       transform="matrix(1.3333333,0,0,-1.3333333,307.16,255.38667)" />
    <path
       id="path23"
       d="M 2.7531328,-1.864125 V -2.4383438 H 0.10469531 v 0.5742188 z m 4.7373047,1.86328125 v -0.3046875 H 7.1740313 C 6.2716875,-0.30553125 6.24825,-0.42271875 6.24825,-0.786 v -5.5898438 c 0,-0.234375 0,-0.2578125 -0.234375,-0.2578125 -0.609375,0.6328125 -1.4882812,0.6328125 -1.8046875,0.6328125 v 0.3164063 c 0.1992188,0 0.7851563,0 1.3007813,-0.2578125 V -0.786 c 0,0.3515625 -0.035156,0.48046875 -0.9257813,0.48046875 H 4.2677813 v 0.3046875 C 4.6193438,-0.036 5.4748125,-0.036 5.87325,-0.036 c 0.3984375,0 1.265625,0 1.6171875,0.03515625 z M 12.881063,-3.1883438 c 0,-0.796875 -0.04687,-1.59375 -0.398438,-2.3320312 -0.457031,-0.9609375 -1.277344,-1.1132813 -1.6875,-1.1132813 -0.597656,0 -1.3359375,0.2578125 -1.734375,1.1835938 -0.328125,0.6914062 -0.375,1.4648437 -0.375,2.2617187 0,0.75 0.046875,1.640625 0.4453125,2.4023438 0.4335938,0.80859375 1.1601565,1.0078125 1.6523435,1.0078125 0.539063,0 1.289063,-0.2109375 1.734375,-1.16015625 0.316407,-0.69140625 0.363282,-1.46484375 0.363282,-2.25000005 z m -0.832032,-0.1171875 c 0,0.75 0,1.4179688 -0.105468,2.0625 -0.152344,0.93750005 -0.714844,1.24218755 -1.160157,1.24218755 -0.386718,0 -0.9843747,-0.24609375 -1.160156,-1.20703125 -0.1054687,-0.5976563 -0.1054687,-1.5117188 -0.1054687,-2.0976563 0,-0.6445312 0,-1.3007812 0.082031,-1.8398437 0.1875,-1.1835938 0.9257817,-1.265625 1.1835937,-1.265625 0.328125,0 0.984375,0.1757812 1.171875,1.1601562 0.09375,0.5625 0.09375,1.3125 0.09375,1.9453125 z m 5.8125,0.1171875 c 0,-0.796875 -0.04687,-1.59375 -0.398437,-2.3320312 -0.457031,-0.9609375 -1.277344,-1.1132813 -1.6875,-1.1132813 -0.597656,0 -1.335938,0.2578125 -1.734375,1.1835938 -0.328125,0.6914062 -0.375,1.4648437 -0.375,2.2617187 0,0.75 0.04687,1.640625 0.445312,2.4023438 0.433594,0.80859375 1.160157,1.0078125 1.652344,1.0078125 0.539063,0 1.289063,-0.2109375 1.734375,-1.16015625 C 17.814656,-1.62975 17.861531,-2.4031875 17.861531,-3.1883438 Z M 17.0295,-3.3055313 c 0,0.75 0,1.4179688 -0.105469,2.0625 -0.152343,0.93750005 -0.714843,1.24218755 -1.160156,1.24218755 -0.386719,0 -0.984375,-0.24609375 -1.160156,-1.20703125 -0.105469,-0.5976563 -0.105469,-1.5117188 -0.105469,-2.0976563 0,-0.6445312 0,-1.3007812 0.08203,-1.8398437 0.1875,-1.1835938 0.925782,-1.265625 1.183594,-1.265625 0.328125,0 0.984375,0.1757812 1.171875,1.1601562 0.09375,0.5625 0.09375,1.3125 0.09375,1.9453125 z m 3.143555,2.7773438 c 0,-0.29296875 -0.234375,-0.5273438 -0.527344,-0.5273438 -0.28125,0 -0.527344,0.23437505 -0.527344,0.5273438 0,0.29296875 0.246094,0.52734375 0.527344,0.52734375 0.292969,0 0.527344,-0.234375 0.527344,-0.52734375 z m 5.440429,-2.6601563 c 0,-0.796875 -0.04687,-1.59375 -0.398437,-2.3320312 -0.457031,-0.9609375 -1.277344,-1.1132813 -1.6875,-1.1132813 -0.597656,0 -1.335938,0.2578125 -1.734375,1.1835938 -0.328125,0.6914062 -0.375,1.4648437 -0.375,2.2617187 0,0.75 0.04687,1.640625 0.445312,2.4023438 0.433594,0.80859375 1.160157,1.0078125 1.652344,1.0078125 0.539063,0 1.289063,-0.2109375 1.734375,-1.16015625 0.316406,-0.69140625 0.363281,-1.46484375 0.363281,-2.25000005 z m -0.832031,-0.1171875 c 0,0.75 0,1.4179688 -0.105469,2.0625 -0.152343,0.93750005 -0.714843,1.24218755 -1.160156,1.24218755 -0.386719,0 -0.984375,-0.24609375 -1.160156,-1.20703125 -0.105469,-0.5976563 -0.105469,-1.5117188 -0.105469,-2.0976563 0,-0.6445312 0,-1.3007812 0.08203,-1.8398437 0.1875,-1.1835938 0.925782,-1.265625 1.183594,-1.265625 0.328125,0 0.984375,0.1757812 1.171875,1.1601562 0.09375,0.5625 0.09375,1.3125 0.09375,1.9453125 z m 0,0"
       style="fill:#000000;fill-opacity:1;fill-rule:nonzero;stroke:none"
       aria-label="-100.0"
       transform="matrix(1.3333333,0,0,1.3333333,63.044,524.048)" />
    <path
       id="path24"
       d="M 2.7530234,-1.8641562 V -2.438375 H 0.10458594 v 0.5742188 z M 7.4903281,-8.75e-4 V -0.3055625 H 7.1739219 c -0.9023438,0 -0.9257813,-0.1171875 -0.9257813,-0.48046875 V -6.375875 c 0,-0.234375 0,-0.2578125 -0.234375,-0.2578125 -0.609375,0.6328125 -1.4882812,0.6328125 -1.8046875,0.6328125 v 0.3164063 c 0.1992188,0 0.7851563,0 1.3007813,-0.2578125 v 5.15624995 c 0,0.3515625 -0.035156,0.48046875 -0.9257813,0.48046875 H 4.2676719 V -8.75e-4 c 0.3515625,-0.03515625 1.2070312,-0.03515625 1.6054687,-0.03515625 0.3984375,0 1.265625,0 1.6171875,0.03515625 z m 5.3906249,-3.1875 c 0,-0.796875 -0.04687,-1.59375 -0.398437,-2.3320312 -0.457032,-0.9609375 -1.277344,-1.1132813 -1.6875,-1.1132813 -0.597657,0 -1.3359379,0.2578125 -1.7343754,1.1835938 -0.328125,0.6914062 -0.375,1.4648437 -0.375,2.2617187 0,0.75 0.046875,1.640625 0.4453125,2.40234375 0.4335938,0.80859375 1.1601559,1.0078125 1.6523439,1.0078125 0.539062,0 1.289062,-0.2109375 1.734375,-1.16015625 0.316406,-0.6914062 0.363281,-1.4648437 0.363281,-2.25 z m -0.832031,-0.1171875 c 0,0.75 0,1.4179688 -0.105469,2.0625 -0.152344,0.9375 -0.714844,1.2421875 -1.160156,1.2421875 -0.386719,0 -0.9843751,-0.24609375 -1.1601564,-1.2070312 -0.1054687,-0.5976563 -0.1054687,-1.5117188 -0.1054687,-2.0976563 0,-0.6445312 0,-1.3007812 0.082031,-1.8398437 0.1875,-1.1835938 0.9257811,-1.265625 1.1835941,-1.265625 0.328125,0 0.984375,0.1757812 1.171875,1.1601562 0.09375,0.5625 0.09375,1.3125 0.09375,1.9453125 z m 5.8125,0.1171875 c 0,-0.796875 -0.04687,-1.59375 -0.398438,-2.3320312 -0.457031,-0.9609375 -1.277343,-1.1132813 -1.6875,-1.1132813 -0.597656,0 -1.335937,0.2578125 -1.734375,1.1835938 -0.328125,0.6914062 -0.375,1.4648437 -0.375,2.2617187 0,0.75 0.04687,1.640625 0.445313,2.40234375 0.433594,0.80859375 1.160156,1.0078125 1.652344,1.0078125 0.539062,0 1.289062,-0.2109375 1.734375,-1.16015625 0.316406,-0.6914062 0.363281,-1.4648437 0.363281,-2.25 z m -0.832031,-0.1171875 c 0,0.75 0,1.4179688 -0.105469,2.0625 -0.152344,0.9375 -0.714844,1.2421875 -1.160156,1.2421875 -0.386719,0 -0.984375,-0.24609375 -1.160157,-1.2070312 -0.105468,-0.5976563 -0.105468,-1.5117188 -0.105468,-2.0976563 0,-0.6445312 0,-1.3007812 0.08203,-1.8398437 0.1875,-1.1835938 0.925781,-1.265625 1.183594,-1.265625 0.328125,0 0.984375,0.1757812 1.171875,1.1601562 0.09375,0.5625 0.09375,1.3125 0.09375,1.9453125 z m 3.143554,2.77734375 c 0,-0.29296875 -0.234375,-0.52734375 -0.527343,-0.52734375 -0.28125,0 -0.527344,0.234375 -0.527344,0.52734375 0,0.29296875 0.246094,0.52734375 0.527344,0.52734375 0.292968,0 0.527343,-0.234375 0.527343,-0.52734375 z m 5.44043,-2.66015625 c 0,-0.796875 -0.04687,-1.59375 -0.398438,-2.3320312 -0.457031,-0.9609375 -1.277343,-1.1132813 -1.6875,-1.1132813 -0.597656,0 -1.335937,0.2578125 -1.734375,1.1835938 -0.328125,0.6914062 -0.375,1.4648437 -0.375,2.2617187 0,0.75 0.04687,1.640625 0.445313,2.40234375 0.433594,0.80859375 1.160156,1.0078125 1.652344,1.0078125 0.539062,0 1.289062,-0.2109375 1.734375,-1.16015625 0.316406,-0.6914062 0.363281,-1.4648437 0.363281,-2.25 z m -0.832031,-0.1171875 c 0,0.75 0,1.4179688 -0.105469,2.0625 -0.152344,0.9375 -0.714844,1.2421875 -1.160156,1.2421875 -0.386719,0 -0.984375,-0.24609375 -1.160157,-1.2070312 -0.105468,-0.5976563 -0.105468,-1.5117188 -0.105468,-2.0976563 0,-0.6445312 0,-1.3007812 0.08203,-1.8398437 0.1875,-1.1835938 0.925781,-1.265625 1.183594,-1.265625 0.328125,0 0.984375,0.1757812 1.171875,1.1601562 0.09375,0.5625 0.09375,1.3125 0.09375,1.9453125 z m 0,0"
       style="fill:#000000;fill-opacity:1;fill-rule:nonzero;stroke:none"
       aria-label="-100.0"
       transform="matrix(1.3333333,0,0,1.3333333,12.661333,486.43867)" />
    <path
       id="path25"
       d="M 2.7538516,-1.8645156 V -2.4387344 H 0.10541406 v 0.5742188 z m 5.390625,-4.546875 H 5.7304141 c -1.21875,0 -1.2421875,-0.1289063 -1.2773438,-0.328125 H 4.2069766 l -0.328125,2.0507812 h 0.2460937 c 0.023437,-0.1523437 0.1171875,-0.7851562 0.2460938,-0.9023437 0.070312,-0.058594 0.84375,-0.058594 0.9726562,-0.058594 h 2.0625 l -1.1132812,1.5703125 c -0.890625,1.3476563 -1.21875,2.7304688 -1.21875,3.75000003 0,0.09375 0,0.55078125 0.4570312,0.55078125 0.4570313,0 0.4570313,-0.45703125 0.4570313,-0.55078125 v -0.50390625 c 0,-0.55078128 0.023437,-1.10156248 0.1054687,-1.64062498 0.046875,-0.2226563 0.1757813,-1.078125 0.6210938,-1.6992188 l 1.3476562,-1.8984375 c 0.082031,-0.1171875 0.082031,-0.140625 0.082031,-0.3398435 z m 4.6318364,4.40625 c 0,-1.1835938 -0.820313,-2.1796875 -1.898438,-2.1796875 -0.480469,0 -0.9023437,0.1640625 -1.265625,0.5039062 v -1.9335937 c 0.1992188,0.058594 0.527344,0.1289062 0.84375,0.1289062 1.230469,0 1.933594,-0.9140625 1.933594,-1.0429687 0,-0.058594 -0.03516,-0.1054688 -0.105469,-0.1054688 0,0 -0.03516,0 -0.08203,0.023437 -0.199219,0.09375 -0.679688,0.2929688 -1.347656,0.2929688 -0.398438,0 -0.8554692,-0.070312 -1.3242192,-0.28125 -0.082031,-0.023437 -0.1289063,-0.023437 -0.1289063,-0.023437 -0.09375,0 -0.09375,0.082031 -0.09375,0.234375 v 2.953125 c 0,0.1757812 0,0.2578125 0.140625,0.2578125 0.070312,0 0.082031,-0.035156 0.1289063,-0.09375 0.1054687,-0.1523438 0.4804692,-0.6914063 1.2773442,-0.6914063 0.527343,0 0.773437,0.4570313 0.855468,0.6328125 0.152344,0.375 0.175782,0.7617188 0.175782,1.2539063 0,0.3515625 0,0.9492187 -0.234375,1.37109373 -0.246094,0.38671875 -0.609375,0.64453125 -1.066407,0.64453125 -0.7265622,0 -1.300781,-0.52734375 -1.4648435,-1.11328128 0.023437,0.011719 0.058594,0.011719 0.1640625,0.011719 0.328125,0 0.5039063,-0.2460938 0.5039063,-0.4804688 0,-0.2460937 -0.1757813,-0.4921875 -0.5039063,-0.4921875 -0.140625,0 -0.4804687,0.070312 -0.4804687,0.5273438 0,0.85546873 0.6796875,1.82812498 1.7929687,1.82812498 1.160156,0 2.179688,-0.9609375 2.179688,-2.22656248 z m 2.414062,1.47656248 c 0,-0.29296875 -0.234375,-0.52734378 -0.527344,-0.52734378 -0.28125,0 -0.527343,0.23437503 -0.527343,0.52734378 0,0.29296875 0.246093,0.52734375 0.527343,0.52734375 0.292969,0 0.527344,-0.234375 0.527344,-0.52734375 z m 5.44043,-2.66015628 c 0,-0.796875 -0.04687,-1.59375 -0.398438,-2.3320312 -0.457031,-0.9609375 -1.277344,-1.1132813 -1.6875,-1.1132813 -0.597656,0 -1.335937,0.2578125 -1.734375,1.1835938 -0.328125,0.6914062 -0.375,1.4648437 -0.375,2.2617187 0,0.75 0.04687,1.640625 0.445313,2.40234378 0.433593,0.80859375 1.160156,1.0078125 1.652343,1.0078125 0.539063,0 1.289063,-0.2109375 1.734375,-1.16015625 0.316407,-0.69140623 0.363282,-1.46484373 0.363282,-2.25000003 z m -0.832032,-0.1171875 c 0,0.75 0,1.4179688 -0.105468,2.0625 -0.152344,0.93750003 -0.714844,1.24218753 -1.160157,1.24218753 -0.386718,0 -0.984375,-0.24609375 -1.160156,-1.20703123 -0.105469,-0.5976563 -0.105469,-1.5117188 -0.105469,-2.0976563 0,-0.6445312 0,-1.3007812 0.08203,-1.8398437 0.1875,-1.1835938 0.925781,-1.265625 1.183593,-1.265625 0.328125,0 0.984375,0.1757812 1.171875,1.1601562 0.09375,0.5625 0.09375,1.3125 0.09375,1.9453125 z m 0,0"
       style="fill:#000000;fill-opacity:1;fill-rule:nonzero;stroke:none"
       aria-label="-75.0"
       transform="matrix(1.3333333,0,0,1.3333333,123.05867,524.18133)" />
    <path
       id="path26"
       d="M 2.7544219,-1.8629062 V -2.437125 H 0.10598438 v 0.5742188 z m 5.390625,-4.546875 H 5.7309844 c -1.21875,0 -1.2421875,-0.1289063 -1.2773438,-0.328125 H 4.2075469 l -0.328125,2.0507812 h 0.2460937 c 0.023437,-0.1523437 0.1171875,-0.7851562 0.2460938,-0.9023437 0.070312,-0.058594 0.84375,-0.058594 0.9726562,-0.058594 h 2.0625 L 6.2934844,-4.07775 c -0.890625,1.3476563 -1.21875,2.7304688 -1.21875,3.75 0,0.09375 0,0.55078125 0.4570312,0.55078125 0.4570313,0 0.4570313,-0.45703125 0.4570313,-0.55078125 v -0.50390625 c 0,-0.55078125 0.023437,-1.10156245 0.1054687,-1.64062495 0.046875,-0.2226563 0.1757813,-1.078125 0.6210938,-1.6992188 l 1.3476562,-1.8984375 c 0.082031,-0.1171875 0.082031,-0.140625 0.082031,-0.3398437 z m 4.6289061,4.40625 c 0,-1.1835938 -0.820312,-2.1796875 -1.898437,-2.1796875 -0.480469,0 -0.9023441,0.1640625 -1.2656254,0.5039062 V -5.6129062 C 9.8091094,-5.5543125 10.137234,-5.484 10.453641,-5.484 c 1.230468,0 1.933593,-0.9140625 1.933593,-1.0429687 0,-0.058594 -0.03516,-0.1054688 -0.105468,-0.1054688 0,0 -0.03516,0 -0.08203,0.023437 -0.199218,0.09375 -0.679687,0.2929688 -1.347656,0.2929688 -0.398437,0 -0.8554686,-0.070312 -1.3242186,-0.28125 -0.082031,-0.023437 -0.1289063,-0.023437 -0.1289063,-0.023437 -0.09375,0 -0.09375,0.082031 -0.09375,0.234375 v 2.953125 c 0,0.1757812 0,0.2578125 0.140625,0.2578125 0.070312,0 0.082031,-0.035156 0.1289063,-0.09375 0.1054687,-0.1523438 0.4804686,-0.6914063 1.2773436,-0.6914063 0.527344,0 0.773438,0.4570313 0.855469,0.6328125 0.152344,0.375 0.175781,0.7617188 0.175781,1.2539063 0,0.3515625 0,0.9492187 -0.234375,1.3710937 -0.246094,0.38671875 -0.609375,0.64453125 -1.066406,0.64453125 -0.7265626,0 -1.3007814,-0.52734375 -1.4648439,-1.11328125 0.023437,0.011719 0.058594,0.011719 0.1640625,0.011719 0.328125,0 0.5039063,-0.2460938 0.5039063,-0.4804688 0,-0.2460937 -0.1757813,-0.4921875 -0.5039063,-0.4921875 -0.140625,0 -0.4804687,0.070312 -0.4804687,0.5273438 0,0.8554687 0.6796875,1.82812495 1.7929691,1.82812495 1.160156,0 2.179687,-0.9609375 2.179687,-2.22656245 z m 2.416992,1.47656245 c 0,-0.29296875 -0.234375,-0.52734375 -0.527343,-0.52734375 -0.28125,0 -0.527344,0.234375 -0.527344,0.52734375 0,0.29296875 0.246094,0.52734375 0.527344,0.52734375 0.292968,0 0.527343,-0.234375 0.527343,-0.52734375 z m 5.44043,-2.66015625 c 0,-0.796875 -0.04687,-1.59375 -0.398437,-2.3320312 -0.457032,-0.9609375 -1.277344,-1.1132813 -1.6875,-1.1132813 -0.597657,0 -1.335938,0.2578125 -1.734375,1.1835938 -0.328125,0.6914062 -0.375,1.4648437 -0.375,2.2617187 0,0.75 0.04687,1.640625 0.445312,2.40234375 0.433594,0.80859375 1.160156,1.0078125 1.652344,1.0078125 0.539062,0 1.289062,-0.2109375 1.734375,-1.16015625 0.316406,-0.6914062 0.363281,-1.4648437 0.363281,-2.25 z m -0.832031,-0.1171875 c 0,0.75 0,1.4179688 -0.105469,2.0625 -0.152344,0.9375 -0.714844,1.2421875 -1.160156,1.2421875 -0.386719,0 -0.984375,-0.24609375 -1.160156,-1.2070312 -0.105469,-0.5976563 -0.105469,-1.5117188 -0.105469,-2.0976563 0,-0.6445312 0,-1.3007812 0.08203,-1.8398437 0.1875,-1.1835938 0.925781,-1.265625 1.183594,-1.265625 0.328125,0 0.984375,0.1757812 1.171875,1.1601562 0.09375,0.5625 0.09375,1.3125 0.09375,1.9453125 z m 0,0"
       style="fill:#000000;fill-opacity:1;fill-rule:nonzero;stroke:none"
       aria-label="-75.0"
       transform="matrix(1.3333333,0,0,1.3333333,19.304,429.812)" />
    <path
       id="path27"
       d="M 2.7553359,-1.864125 V -2.4383438 H 0.10689844 V -1.864125 Z M 7.7943984,-2.00475 c 0,-1.1835938 -0.8203125,-2.1796875 -1.8984375,-2.1796875 -0.4804687,0 -0.9023437,0.1640625 -1.265625,0.5039062 V -5.614125 c 0.1992188,0.058594 0.5273438,0.1289062 0.84375,0.1289062 1.2304688,0 1.9335938,-0.9140625 1.9335938,-1.0429687 0,-0.058594 -0.035156,-0.1054688 -0.1054688,-0.1054688 0,0 -0.035156,0 -0.082031,0.023437 -0.1992188,0.09375 -0.6796875,0.2929688 -1.3476563,0.2929688 -0.3984375,0 -0.8554687,-0.070312 -1.3242187,-0.28125 -0.082031,-0.023437 -0.1289063,-0.023437 -0.1289063,-0.023437 -0.09375,0 -0.09375,0.082031 -0.09375,0.234375 v 2.953125 c 0,0.1757812 0,0.2578125 0.140625,0.2578125 0.070312,0 0.082031,-0.035156 0.1289063,-0.09375 0.1054687,-0.1523438 0.4804687,-0.6914063 1.2773437,-0.6914063 0.5273438,0 0.7734375,0.4570313 0.8554688,0.6328125 0.1523437,0.375 0.1757812,0.7617188 0.1757812,1.2539063 0,0.3515625 0,0.9492187 -0.234375,1.37109375 -0.2460937,0.38671875 -0.609375,0.64453125 -1.0664062,0.64453125 -0.7265625,0 -1.3007813,-0.52734375 -1.4648438,-1.1132813 0.023437,0.011719 0.058594,0.011719 0.1640625,0.011719 0.328125,0 0.5039063,-0.2460938 0.5039063,-0.4804688 0,-0.2460937 -0.1757813,-0.4921875 -0.5039063,-0.4921875 -0.140625,0 -0.4804687,0.070312 -0.4804687,0.5273438 0,0.85546875 0.6796875,1.828125 1.7929687,1.828125 1.1601563,0 2.1796875,-0.9609375 2.1796873,-2.2265627 z m 5.0859376,-1.1835938 c 0,-0.796875 -0.04687,-1.59375 -0.398438,-2.3320312 -0.457031,-0.9609375 -1.277343,-1.1132813 -1.6875,-1.1132813 -0.597656,0 -1.3359371,0.2578125 -1.7343746,1.1835938 -0.328125,0.6914062 -0.375,1.4648437 -0.375,2.2617187 0,0.75 0.046875,1.640625 0.4453125,2.4023438 0.4335938,0.80859375 1.1601561,1.0078125 1.6523441,1.0078125 0.539062,0 1.289062,-0.2109375 1.734375,-1.16015625 0.316406,-0.69140625 0.363281,-1.46484375 0.363281,-2.25000005 z m -0.832031,-0.1171875 c 0,0.75 0,1.4179688 -0.105469,2.0625 -0.152344,0.93750005 -0.714844,1.24218755 -1.160156,1.24218755 -0.386719,0 -0.9843753,-0.24609375 -1.1601566,-1.20703125 -0.1054687,-0.5976563 -0.1054687,-1.5117188 -0.1054687,-2.0976563 0,-0.6445312 0,-1.3007812 0.082031,-1.8398437 0.1875,-1.1835938 0.9257813,-1.265625 1.1835943,-1.265625 0.328125,0 0.984375,0.1757812 1.171875,1.1601562 0.09375,0.5625 0.09375,1.3125 0.09375,1.9453125 z m 3.140625,2.7773438 c 0,-0.29296875 -0.234375,-0.5273438 -0.527344,-0.5273438 -0.28125,0 -0.527344,0.23437505 -0.527344,0.5273438 0,0.29296875 0.246094,0.52734375 0.527344,0.52734375 0.292969,0 0.527344,-0.234375 0.527344,-0.52734375 z m 5.443359,-2.6601563 c 0,-0.796875 -0.04687,-1.59375 -0.398437,-2.3320312 -0.457032,-0.9609375 -1.277344,-1.1132813 -1.6875,-1.1132813 -0.597657,0 -1.335938,0.2578125 -1.734375,1.1835938 -0.328125,0.6914062 -0.375,1.4648437 -0.375,2.2617187 0,0.75 0.04687,1.640625 0.445312,2.4023438 0.433594,0.80859375 1.160156,1.0078125 1.652344,1.0078125 0.539062,0 1.289062,-0.2109375 1.734375,-1.16015625 0.316406,-0.69140625 0.363281,-1.46484375 0.363281,-2.25000005 z m -0.832031,-0.1171875 c 0,0.75 0,1.4179688 -0.105469,2.0625 -0.152344,0.93750005 -0.714844,1.24218755 -1.160156,1.24218755 -0.386719,0 -0.984375,-0.24609375 -1.160156,-1.20703125 -0.105469,-0.5976563 -0.105469,-1.5117188 -0.105469,-2.0976563 0,-0.6445312 0,-1.3007812 0.08203,-1.8398437 0.1875,-1.1835938 0.925781,-1.265625 1.183594,-1.265625 0.328125,0 0.984375,0.1757812 1.171875,1.1601562 0.09375,0.5625 0.09375,1.3125 0.09375,1.9453125 z m 0,0"
       style="fill:#000000;fill-opacity:1;fill-rule:nonzero;stroke:none"
       aria-label="-50.0"
       transform="matrix(1.3333333,0,0,1.3333333,179.752,524.048)" />
    <path
       id="path28"
       d="M 2.7544219,-1.8631953 V -2.4374141 H 0.10598438 v 0.5742188 z m 5.0390625,-0.140625 c 0,-1.1835938 -0.8203125,-2.1796875 -1.8984375,-2.1796875 -0.4804688,0 -0.9023438,0.1640625 -1.265625,0.5039062 v -1.9335937 c 0.1992187,0.058594 0.5273437,0.1289062 0.84375,0.1289062 1.2304687,0 1.9335937,-0.9140625 1.9335937,-1.0429687 0,-0.058594 -0.035156,-0.1054688 -0.1054687,-0.1054688 0,0 -0.035156,0 -0.082031,0.023437 -0.1992187,0.09375 -0.6796875,0.2929688 -1.3476562,0.2929688 -0.3984375,0 -0.8554688,-0.070312 -1.3242188,-0.28125 -0.082031,-0.023437 -0.1289062,-0.023437 -0.1289062,-0.023437 -0.09375,0 -0.09375,0.082031 -0.09375,0.234375 v 2.953125 c 0,0.1757812 0,0.2578125 0.140625,0.2578125 0.070312,0 0.082031,-0.035156 0.1289062,-0.09375 0.1054688,-0.1523438 0.4804688,-0.6914063 1.2773438,-0.6914063 0.5273437,0 0.7734375,0.4570313 0.8554687,0.6328125 0.1523438,0.375 0.1757813,0.7617188 0.1757813,1.2539063 0,0.3515625 0,0.9492187 -0.234375,1.37109374 -0.2460938,0.38671875 -0.609375,0.64453125 -1.0664063,0.64453125 -0.7265625,0 -1.3007812,-0.52734375 -1.4648437,-1.11328129 0.023437,0.011719 0.058594,0.011719 0.1640625,0.011719 0.328125,0 0.5039062,-0.2460938 0.5039062,-0.4804688 0,-0.2460937 -0.1757812,-0.4921875 -0.5039062,-0.4921875 -0.140625,0 -0.4804688,0.070312 -0.4804688,0.5273438 0,0.85546874 0.6796875,1.82812499 1.7929688,1.82812499 1.1601562,0 2.1796875,-0.9609375 2.1796872,-2.22656269 z m 5.0859376,-1.1835938 c 0,-0.796875 -0.04687,-1.59375 -0.398438,-2.3320312 -0.457031,-0.9609375 -1.277343,-1.1132813 -1.6875,-1.1132813 -0.597656,0 -1.3359371,0.2578125 -1.7343746,1.1835938 -0.328125,0.6914062 -0.375,1.4648437 -0.375,2.2617187 0,0.75 0.046875,1.640625 0.4453125,2.40234379 0.4335937,0.80859375 1.1601561,1.0078125 1.6523441,1.0078125 0.539062,0 1.289062,-0.2109375 1.734375,-1.16015625 0.316406,-0.69140624 0.363281,-1.46484374 0.363281,-2.25000004 z m -0.832031,-0.1171875 c 0,0.75 0,1.4179688 -0.105469,2.0625 -0.152344,0.93750004 -0.714844,1.2421875375 -1.160156,1.2421875375 -0.386719,0 -0.9843754,-0.2460937475 -1.1601566,-1.2070312375 -0.1054688,-0.5976563 -0.1054688,-1.5117188 -0.1054688,-2.0976563 0,-0.6445312 0,-1.3007812 0.082031,-1.8398437 0.1875,-1.1835938 0.9257814,-1.265625 1.1835944,-1.265625 0.328125,0 0.984375,0.1757812 1.171875,1.1601562 0.09375,0.5625 0.09375,1.3125 0.09375,1.9453125 z m 3.143554,2.77734379 c 0,-0.29296875 -0.234375,-0.52734379 -0.527343,-0.52734379 -0.28125,0 -0.527344,0.23437504 -0.527344,0.52734379 0,0.29296875 0.246094,0.5273437475 0.527344,0.5273437475 0.292968,0 0.527343,-0.2343749975 0.527343,-0.5273437475 z m 5.44043,-2.66015629 c 0,-0.796875 -0.04687,-1.59375 -0.398437,-2.3320312 -0.457032,-0.9609375 -1.277344,-1.1132813 -1.6875,-1.1132813 -0.597657,0 -1.335938,0.2578125 -1.734375,1.1835938 -0.328125,0.6914062 -0.375,1.4648437 -0.375,2.2617187 0,0.75 0.04687,1.640625 0.445312,2.40234379 0.433594,0.80859375 1.160156,1.0078125 1.652344,1.0078125 0.539062,0 1.289062,-0.2109375 1.734375,-1.16015625 0.316406,-0.69140624 0.363281,-1.46484374 0.363281,-2.25000004 z m -0.832031,-0.1171875 c 0,0.75 0,1.4179688 -0.105469,2.0625 -0.152344,0.93750004 -0.714844,1.2421875375 -1.160156,1.2421875375 -0.386719,0 -0.984375,-0.2460937475 -1.160156,-1.2070312375 -0.105469,-0.5976563 -0.105469,-1.5117188 -0.105469,-2.0976563 0,-0.6445312 0,-1.3007812 0.08203,-1.8398437 0.1875,-1.1835938 0.925781,-1.265625 1.183594,-1.265625 0.328125,0 0.984375,0.1757812 1.171875,1.1601562 0.09375,0.5625 0.09375,1.3125 0.09375,1.9453125 z m 0,0"
       style="fill:#000000;fill-opacity:1;fill-rule:nonzero;stroke:none"
       aria-label="-50.0"
       transform="matrix(1.3333333,0,0,1.3333333,19.304,373.05067)" />
    <path
       id="path29"
       d="M 2.7538906,-1.864125 V -2.4383438 H 0.10545313 v 0.5742188 z m 5.0390625,0.1289062 H 7.5351406 c -0.046875,0.3046875 -0.1171875,0.7382813 -0.2109375,0.89062505 -0.070312,0.0820313 -0.7265625,0.0820313 -0.9492187,0.0820313 H 4.5820156 L 5.6367031,-1.7938124 c 1.5585938,-1.3710938 2.15625,-1.9101563 2.15625,-2.90625 0,-1.1367188 -0.9023437,-1.9335938 -2.1210937,-1.9335938 -1.125,0 -1.8515625,0.9140625 -1.8515625,1.8046875 0,0.5507813 0.4921875,0.5507813 0.5273437,0.5507813 0.1640625,0 0.515625,-0.1171875 0.515625,-0.5273438 0,-0.2578125 -0.1875,-0.515625 -0.5273437,-0.515625 -0.082031,0 -0.1054688,0 -0.1289063,0.011719 0.2226563,-0.6445313 0.7617188,-1.0195313 1.3359375,-1.0195313 0.9140625,0 1.3359375,0.8085938 1.3359375,1.6289063 0,0.796875 -0.4921875,1.5820312 -1.0429687,2.203125 L 3.9257656,-0.364125 C 3.8202969,-0.25865625 3.8202969,-0.23521875 3.8202969,-8.4375e-4 H 7.5117031 Z M 12.776352,-2.00475 c 0,-1.1835938 -0.820313,-2.1796875 -1.898438,-2.1796875 -0.480469,0 -0.9023437,0.1640625 -1.2656249,0.5039062 V -5.614125 c 0.1992187,0.058594 0.5273439,0.1289062 0.8437499,0.1289062 1.230469,0 1.933594,-0.9140625 1.933594,-1.0429687 0,-0.058594 -0.03516,-0.1054688 -0.105469,-0.1054688 0,0 -0.03516,0 -0.08203,0.023437 -0.199219,0.09375 -0.679688,0.2929688 -1.347656,0.2929688 -0.398438,0 -0.8554692,-0.070312 -1.3242192,-0.28125 -0.082031,-0.023437 -0.1289062,-0.023437 -0.1289062,-0.023437 -0.09375,0 -0.09375,0.082031 -0.09375,0.234375 v 2.953125 c 0,0.1757812 0,0.2578125 0.140625,0.2578125 0.070312,0 0.082031,-0.035156 0.1289062,-0.09375 0.1054688,-0.1523438 0.4804692,-0.6914063 1.2773442,-0.6914063 0.527343,0 0.773437,0.4570313 0.855468,0.6328125 0.152344,0.375 0.175782,0.7617188 0.175782,1.2539063 0,0.3515625 0,0.9492187 -0.234375,1.37109375 -0.246094,0.38671875 -0.609375,0.64453125 -1.066407,0.64453125 -0.7265622,0 -1.3007809,-0.52734375 -1.4648434,-1.1132813 0.023437,0.011719 0.058594,0.011719 0.1640625,0.011719 0.328125,0 0.5039062,-0.2460938 0.5039062,-0.4804688 0,-0.2460937 -0.1757812,-0.4921875 -0.5039062,-0.4921875 -0.140625,0 -0.4804688,0.070312 -0.4804688,0.5273438 0,0.85546875 0.6796875,1.828125 1.7929687,1.828125 1.160156,0 2.179688,-0.9609375 2.179688,-2.2265625 z m 2.414062,1.4765625 c 0,-0.29296875 -0.234375,-0.5273438 -0.527344,-0.5273438 -0.28125,0 -0.527343,0.23437505 -0.527343,0.5273438 0,0.29296875 0.246093,0.52734375 0.527343,0.52734375 0.292969,0 0.527344,-0.234375 0.527344,-0.52734375 z m 5.44043,-2.6601563 c 0,-0.796875 -0.04687,-1.59375 -0.398438,-2.3320312 -0.457031,-0.9609375 -1.277343,-1.1132813 -1.6875,-1.1132813 -0.597656,0 -1.335937,0.2578125 -1.734375,1.1835938 -0.328125,0.6914062 -0.375,1.4648437 -0.375,2.2617187 0,0.75 0.04687,1.640625 0.445313,2.4023438 0.433594,0.80859375 1.160156,1.0078125 1.652344,1.0078125 0.539062,0 1.289062,-0.2109375 1.734375,-1.16015625 0.316406,-0.69140625 0.363281,-1.46484375 0.363281,-2.25000005 z m -0.832031,-0.1171875 c 0,0.75 0,1.4179688 -0.105469,2.0625 -0.152344,0.93750005 -0.714844,1.24218755 -1.160156,1.24218755 -0.386719,0 -0.984375,-0.24609375 -1.160157,-1.20703125 -0.105468,-0.5976563 -0.105468,-1.5117188 -0.105468,-2.0976563 0,-0.6445312 0,-1.3007812 0.08203,-1.8398437 0.1875,-1.1835938 0.925781,-1.265625 1.183594,-1.265625 0.328125,0 0.984375,0.1757812 1.171875,1.1601562 0.09375,0.5625 0.09375,1.3125 0.09375,1.9453125 z m 0,0"
       style="fill:#000000;fill-opacity:1;fill-rule:nonzero;stroke:none"
       aria-label="-25.0"
       transform="matrix(1.3333333,0,0,1.3333333,236.44533,524.048)" />
    <path
       id="path30"
       d="M 2.7544219,-1.8646797 V -2.4388984 H 0.10598438 v 0.5742187 z m 5.0390625,0.1289063 H 7.5356719 c -0.046875,0.3046875 -0.1171875,0.73828121 -0.2109375,0.89062496 -0.070312,0.0820313 -0.7265625,0.0820313 -0.9492188,0.0820313 H 4.5825469 L 5.6372344,-1.7943672 c 1.5585937,-1.3710937 2.15625,-1.9101562 2.15625,-2.90625 0,-1.1367187 -0.9023438,-1.9335937 -2.1210938,-1.9335937 -1.125,0 -1.8515625,0.9140625 -1.8515625,1.8046875 0,0.5507812 0.4921875,0.5507812 0.5273438,0.5507812 0.1640625,0 0.515625,-0.1171875 0.515625,-0.5273437 0,-0.2578125 -0.1875,-0.515625 -0.5273438,-0.515625 -0.082031,0 -0.1054687,0 -0.1289062,0.011719 0.2226562,-0.6445312 0.7617187,-1.0195312 1.3359375,-1.0195312 0.9140625,0 1.3359375,0.8085937 1.3359375,1.6289062 0,0.796875 -0.4921875,1.5820313 -1.0429688,2.203125 l -1.9101562,2.13281251 c -0.1054688,0.10546875 -0.1054688,0.12890625 -0.1054688,0.36328125 h 3.6914063 z m 4.9804686,-0.2695313 c 0,-1.1835937 -0.820312,-2.1796875 -1.898437,-2.1796875 -0.480469,0 -0.9023441,0.1640625 -1.2656254,0.5039063 v -1.9335938 c 0.1992188,0.058594 0.5273434,0.1289063 0.8437504,0.1289063 1.230468,0 1.933593,-0.9140625 1.933593,-1.0429688 0,-0.058594 -0.03516,-0.1054687 -0.105468,-0.1054687 0,0 -0.03516,0 -0.08203,0.023437 -0.199218,0.09375 -0.679687,0.2929687 -1.347656,0.2929687 -0.398437,0 -0.8554686,-0.070312 -1.3242186,-0.28125 -0.082031,-0.023437 -0.1289063,-0.023437 -0.1289063,-0.023437 -0.09375,0 -0.09375,0.082031 -0.09375,0.234375 v 2.953125 c 0,0.1757813 0,0.2578125 0.140625,0.2578125 0.070312,0 0.082031,-0.035156 0.1289063,-0.09375 0.1054687,-0.1523437 0.4804686,-0.6914062 1.2773436,-0.6914062 0.527344,0 0.773438,0.4570312 0.855469,0.6328125 0.152344,0.375 0.175781,0.7617187 0.175781,1.2539062 0,0.3515625 0,0.9492188 -0.234375,1.37109376 -0.246094,0.38671875 -0.609375,0.64453125 -1.066406,0.64453125 -0.7265626,0 -1.3007814,-0.52734375 -1.4648439,-1.11328121 0.023437,0.011719 0.058594,0.011719 0.1640625,0.011719 0.328125,0 0.5039063,-0.2460937 0.5039063,-0.4804687 0,-0.2460938 -0.1757813,-0.4921875 -0.5039063,-0.4921875 -0.140625,0 -0.4804687,0.070312 -0.4804687,0.5273437 0,0.85546876 0.6796875,1.82812501 1.7929691,1.82812501 1.160156,0 2.179687,-0.9609375 2.179687,-2.22656251 z m 2.416992,1.47656251 c 0,-0.29296875 -0.234375,-0.52734371 -0.527343,-0.52734371 -0.28125,0 -0.527344,0.23437496 -0.527344,0.52734371 0,0.29296875 0.246094,0.52734375 0.527344,0.52734375 0.292968,0 0.527343,-0.234375 0.527343,-0.52734375 z m 5.44043,-2.66015621 c 0,-0.796875 -0.04687,-1.59375 -0.398437,-2.3320313 -0.457032,-0.9609375 -1.277344,-1.1132812 -1.6875,-1.1132812 -0.597657,0 -1.335938,0.2578125 -1.734375,1.1835937 -0.328125,0.6914063 -0.375,1.4648438 -0.375,2.2617188 0,0.75 0.04687,1.640625 0.445312,2.40234371 0.433594,0.80859375 1.160156,1.0078125 1.652344,1.0078125 0.539062,0 1.289062,-0.2109375 1.734375,-1.16015625 0.316406,-0.69140626 0.363281,-1.46484376 0.363281,-2.24999996 z m -0.832031,-0.1171875 c 0,0.75 0,1.4179687 -0.105469,2.0625 -0.152344,0.93749996 -0.714844,1.24218746 -1.160156,1.24218746 -0.386719,0 -0.984375,-0.24609375 -1.160156,-1.20703126 -0.105469,-0.5976562 -0.105469,-1.5117187 -0.105469,-2.0976562 0,-0.6445313 0,-1.3007813 0.08203,-1.8398438 0.1875,-1.1835937 0.925781,-1.265625 1.183594,-1.265625 0.328125,0 0.984375,0.1757813 1.171875,1.1601563 0.09375,0.5625 0.09375,1.3125 0.09375,1.9453125 z m 0,0"
       style="fill:#000000;fill-opacity:1;fill-rule:nonzero;stroke:none"
       aria-label="-25.0"
       transform="matrix(1.3333333,0,0,1.3333333,19.304,316.35733)" />
    <path
       id="path31"
       d="m 4.5819375,-3.1883438 c 0,-0.796875 -0.046875,-1.59375 -0.3984375,-2.3320312 -0.4570312,-0.9609375 -1.2773437,-1.1132813 -1.6875,-1.1132813 -0.5976562,0 -1.3359375,0.2578125 -1.734375,1.1835938 -0.328125,0.6914062 -0.375,1.4648437 -0.375,2.2617187 0,0.75 0.046875,1.640625 0.4453125,2.4023438 0.4335938,0.80859375 1.1601563,1.0078125 1.6523438,1.0078125 0.5390625,0 1.2890625,-0.2109375 1.734375,-1.16015625 C 4.5350625,-1.62975 4.5819375,-2.4031875 4.5819375,-3.1883438 Z M 3.7499063,-3.3055313 c 0,0.75 0,1.4179688 -0.1054688,2.0625 -0.1523437,0.93750005 -0.7148437,1.24218755 -1.1601562,1.24218755 -0.3867188,0 -0.984375,-0.24609375 -1.1601563,-1.20703125 -0.1054687,-0.5976563 -0.1054687,-1.5117188 -0.1054687,-2.0976563 0,-0.6445312 0,-1.3007812 0.082031,-1.8398437 0.1875,-1.1835938 0.9257813,-1.265625 1.1835938,-1.265625 0.328125,0 0.984375,0.1757812 1.171875,1.1601562 0.09375,0.5625 0.09375,1.3125 0.09375,1.9453125 z m 3.140625,2.7773438 c 0,-0.29296875 -0.234375,-0.5273438 -0.5273438,-0.5273438 -0.28125,0 -0.5273437,0.23437505 -0.5273437,0.5273438 0,0.29296875 0.2460937,0.52734375 0.5273437,0.52734375 0.2929688,0 0.5273438,-0.234375 0.5273438,-0.52734375 z m 5.4433597,-2.6601563 c 0,-0.796875 -0.04687,-1.59375 -0.398438,-2.3320312 -0.457031,-0.9609375 -1.277344,-1.1132813 -1.6875,-1.1132813 -0.5976561,0 -1.3359374,0.2578125 -1.7343749,1.1835938 -0.328125,0.6914062 -0.375,1.4648437 -0.375,2.2617187 0,0.75 0.046875,1.640625 0.4453125,2.4023438 0.4335938,0.80859375 1.1601563,1.0078125 1.6523434,1.0078125 0.539063,0 1.289063,-0.2109375 1.734375,-1.16015625 0.316407,-0.69140625 0.363282,-1.46484375 0.363282,-2.25000005 z m -0.832032,-0.1171875 c 0,0.75 0,1.4179688 -0.105468,2.0625 -0.152344,0.93750005 -0.714844,1.24218755 -1.160157,1.24218755 -0.3867184,0 -0.9843746,-0.24609375 -1.1601559,-1.20703125 -0.1054687,-0.5976563 -0.1054687,-1.5117188 -0.1054687,-2.0976563 0,-0.6445312 0,-1.3007812 0.082031,-1.8398437 0.1875,-1.1835938 0.9257813,-1.265625 1.1835936,-1.265625 0.328125,0 0.984375,0.1757812 1.171875,1.1601562 0.09375,0.5625 0.09375,1.3125 0.09375,1.9453125 z m 0,0"
       style="fill:#000000;fill-opacity:1;fill-rule:nonzero;stroke:none"
       aria-label="0.0"
       transform="matrix(1.3333333,0,0,1.3333333,298.672,524.048)" />
    <path
       id="path32"
       d="m 4.5833516,-3.1874531 c 0,-0.796875 -0.046875,-1.59375 -0.3984375,-2.3320313 -0.4570313,-0.9609375 -1.2773438,-1.1132812 -1.6875,-1.1132812 -0.5976563,0 -1.3359375,0.2578125 -1.73437504,1.1835937 -0.328125,0.6914063 -0.375,1.4648438 -0.375,2.2617188 0,0.75 0.046875,1.640625 0.4453125,2.40234373 0.43359374,0.80859375 1.16015624,1.0078125 1.65234374,1.0078125 0.5390625,0 1.2890625,-0.2109375 1.734375,-1.16015625 C 4.5364766,-1.6288594 4.5833516,-2.4022969 4.5833516,-3.1874531 Z M 3.7513203,-3.3046406 c 0,0.75 0,1.4179687 -0.1054687,2.0625 C 3.4935078,-0.30464062 2.9310078,4.6875e-5 2.4856953,4.6875e-5 c -0.3867187,0 -0.984375,-0.246093745 -1.1601562,-1.207031275 -0.1054688,-0.5976562 -0.1054688,-1.5117187 -0.1054688,-2.0976562 0,-0.6445313 0,-1.3007813 0.082031,-1.8398438 0.1875,-1.1835937 0.9257812,-1.265625 1.1835937,-1.265625 0.328125,0 0.984375,0.1757813 1.171875,1.1601563 0.09375,0.5625 0.09375,1.3125 0.09375,1.9453125 z m 3.140625,2.77734373 c 0,-0.29296875 -0.234375,-0.52734373 -0.5273437,-0.52734373 -0.28125,0 -0.5273438,0.23437498 -0.5273438,0.52734373 0,0.29296875 0.2460938,0.527343745 0.5273438,0.527343745 0.2929687,0 0.5273437,-0.234374995 0.5273437,-0.527343745 z M 12.332375,-3.1874531 c 0,-0.796875 -0.04687,-1.59375 -0.398437,-2.3320313 -0.457032,-0.9609375 -1.277344,-1.1132812 -1.6875,-1.1132812 -0.5976567,0 -1.335938,0.2578125 -1.7343755,1.1835937 -0.328125,0.6914063 -0.375,1.4648438 -0.375,2.2617188 0,0.75 0.046875,1.640625 0.4453125,2.40234373 0.4335938,0.80859375 1.1601563,1.0078125 1.652344,1.0078125 0.539062,0 1.289062,-0.2109375 1.734375,-1.16015625 0.316406,-0.69140628 0.363281,-1.46484378 0.363281,-2.24999998 z m -0.832031,-0.1171875 c 0,0.75 0,1.4179687 -0.105469,2.0625 C 11.242531,-0.30464062 10.680031,4.6875e-5 10.234719,4.6875e-5 9.848,4.6875e-5 9.2503438,-0.24604687 9.0745625,-1.2069844 8.9690938,-1.8046406 8.9690938,-2.7187031 8.9690938,-3.3046406 c 0,-0.6445313 0,-1.3007813 0.082031,-1.8398438 0.1875,-1.1835937 0.9257813,-1.265625 1.1835942,-1.265625 0.328125,0 0.984375,0.1757813 1.171875,1.1601563 0.09375,0.5625 0.09375,1.3125 0.09375,1.9453125 z m 0,0"
       style="fill:#000000;fill-opacity:1;fill-rule:nonzero;stroke:none"
       aria-label="0.0"
       transform="matrix(1.3333333,0,0,1.3333333,30.369333,259.664)" />
    <path
       id="path33"
       d="M 4.4757891,-1.7352188 H 4.2179766 c -0.046875,0.3046875 -0.1171875,0.7382813 -0.2109375,0.89062505 -0.070312,0.0820313 -0.7265625,0.0820313 -0.9492188,0.0820313 H 1.2648516 L 2.3195391,-1.7938124 c 1.5585937,-1.3710938 2.15625,-1.9101563 2.15625,-2.90625 0,-1.1367188 -0.9023438,-1.9335938 -2.1210938,-1.9335938 -1.125,0 -1.85156249,0.9140625 -1.85156249,1.8046875 0,0.5507813 0.4921875,0.5507813 0.52734379,0.5507813 0.1640625,0 0.515625,-0.1171875 0.515625,-0.5273438 0,-0.2578125 -0.1875,-0.515625 -0.5273438,-0.515625 -0.0820312,0 -0.10546874,0 -0.12890624,0.011719 0.22265624,-0.6445313 0.76171874,-1.0195313 1.33593754,-1.0195313 0.9140625,0 1.3359375,0.8085938 1.3359375,1.6289063 0,0.796875 -0.4921875,1.5820312 -1.0429688,2.203125 L 0.60860156,-0.364125 C 0.50313281,-0.25865625 0.50313281,-0.23521875 0.50313281,-8.4375e-4 H 4.1945391 Z M 9.4591875,-2.00475 c 0,-1.1835938 -0.8203125,-2.1796875 -1.8984375,-2.1796875 -0.4804688,0 -0.9023438,0.1640625 -1.265625,0.5039062 V -5.614125 c 0.1992187,0.058594 0.5273437,0.1289062 0.84375,0.1289062 1.2304687,0 1.9335937,-0.9140625 1.9335937,-1.0429687 0,-0.058594 -0.035156,-0.1054688 -0.1054687,-0.1054688 0,0 -0.035156,0 -0.082031,0.023437 -0.1992187,0.09375 -0.6796875,0.2929688 -1.3476562,0.2929688 -0.3984375,0 -0.8554688,-0.070312 -1.3242188,-0.28125 -0.082031,-0.023437 -0.1289062,-0.023437 -0.1289062,-0.023437 -0.09375,0 -0.09375,0.082031 -0.09375,0.234375 v 2.953125 c 0,0.1757812 0,0.2578125 0.140625,0.2578125 0.070312,0 0.082031,-0.035156 0.1289062,-0.09375 0.1054688,-0.1523438 0.4804688,-0.6914063 1.2773438,-0.6914063 0.5273437,0 0.7734375,0.4570313 0.8554687,0.6328125 0.1523438,0.375 0.1757813,0.7617188 0.1757813,1.2539063 0,0.3515625 0,0.9492187 -0.234375,1.37109375 C 8.0880937,-0.31725 7.7248125,-0.0594375 7.2677812,-0.0594375 6.5412187,-0.0594375 5.967,-0.58678125 5.8029375,-1.1727188 5.826375,-1.161 5.8615312,-1.161 5.967,-1.161 c 0.328125,0 0.5039062,-0.2460938 0.5039062,-0.4804688 0,-0.2460937 -0.1757812,-0.4921875 -0.5039062,-0.4921875 -0.140625,0 -0.4804688,0.070312 -0.4804688,0.5273438 0,0.85546875 0.6796875,1.828125 1.7929688,1.828125 1.1601562,0 2.1796875,-0.9609375 2.1796875,-2.2265625 z m 2.4140625,1.4765625 c 0,-0.29296875 -0.234375,-0.5273438 -0.527344,-0.5273438 -0.28125,0 -0.527344,0.23437505 -0.527344,0.5273438 0,0.29296875 0.246094,0.52734375 0.527344,0.52734375 0.292969,0 0.527344,-0.234375 0.527344,-0.52734375 z m 5.44043,-2.6601563 c 0,-0.796875 -0.04687,-1.59375 -0.398438,-2.3320312 -0.457031,-0.9609375 -1.277344,-1.1132813 -1.6875,-1.1132813 -0.597656,0 -1.335937,0.2578125 -1.734375,1.1835938 -0.328125,0.6914062 -0.375,1.4648437 -0.375,2.2617187 0,0.75 0.04687,1.640625 0.445313,2.4023438 0.433593,0.80859375 1.160156,1.0078125 1.652343,1.0078125 0.539063,0 1.289063,-0.2109375 1.734375,-1.16015625 C 17.266805,-1.62975 17.31368,-2.4031875 17.31368,-3.1883438 Z m -0.832032,-0.1171875 c 0,0.75 0,1.4179688 -0.105468,2.0625 -0.152344,0.93750005 -0.714844,1.24218755 -1.160157,1.24218755 -0.386718,0 -0.984375,-0.24609375 -1.160156,-1.20703125 -0.105469,-0.5976563 -0.105469,-1.5117188 -0.105469,-2.0976563 0,-0.6445312 0,-1.3007812 0.08203,-1.8398437 0.1875,-1.1835938 0.925781,-1.265625 1.183593,-1.265625 0.328125,0 0.984375,0.1757812 1.171875,1.1601562 0.09375,0.5625 0.09375,1.3125 0.09375,1.9453125 z m 0,0"
       style="fill:#000000;fill-opacity:1;fill-rule:nonzero;stroke:none"
       aria-label="25.0"
       transform="matrix(1.3333333,0,0,1.3333333,352.044,524.048)" />
    <path
       id="path34"
       d="M 4.4764844,-1.7358125 H 4.2186719 c -0.046875,0.3046875 -0.1171875,0.73828125 -0.2109375,0.890625 -0.070313,0.0820313 -0.7265625,0.0820313 -0.9492188,0.0820313 H 1.2655469 l 1.0546875,-1.03125 c 1.5585937,-1.3710938 2.15625,-1.9101563 2.15625,-2.90625 0,-1.1367188 -0.9023438,-1.9335938 -2.1210938,-1.9335938 -1.125,0 -1.85156248,0.9140625 -1.85156248,1.8046875 0,0.5507813 0.4921875,0.5507813 0.52734378,0.5507813 0.1640625,0 0.515625,-0.1171875 0.515625,-0.5273438 0,-0.2578125 -0.1875,-0.515625 -0.5273438,-0.515625 -0.0820312,0 -0.10546873,0 -0.12890623,0.011719 0.22265623,-0.6445313 0.76171873,-1.0195313 1.33593753,-1.0195313 0.9140625,0 1.3359375,0.8085938 1.3359375,1.6289063 0,0.796875 -0.4921875,1.5820312 -1.0429688,2.203125 L 0.60929687,-0.36471875 C 0.50382812,-0.25925 0.50382812,-0.2358125 0.50382812,-0.0014375 H 4.1952344 Z m 4.9804687,-0.2695312 c 0,-1.1835938 -0.8203125,-2.1796875 -1.8984375,-2.1796875 -0.4804687,0 -0.9023437,0.1640625 -1.265625,0.5039062 v -1.9335937 c 0.1992188,0.058594 0.5273438,0.1289062 0.84375,0.1289062 1.2304688,0 1.9335938,-0.9140625 1.9335938,-1.0429687 0,-0.058594 -0.035156,-0.1054688 -0.1054688,-0.1054688 0,0 -0.035156,0 -0.082031,0.023437 -0.1992188,0.09375 -0.6796875,0.2929688 -1.3476563,0.2929688 -0.3984375,0 -0.8554687,-0.070312 -1.3242187,-0.28125 -0.082031,-0.023437 -0.1289063,-0.023437 -0.1289063,-0.023437 -0.09375,0 -0.09375,0.082031 -0.09375,0.234375 v 2.953125 c 0,0.1757812 0,0.2578125 0.140625,0.2578125 0.070312,0 0.082031,-0.035156 0.1289063,-0.09375 0.1054687,-0.1523438 0.4804687,-0.6914063 1.2773437,-0.6914063 0.5273438,0 0.7734375,0.4570313 0.8554688,0.6328125 0.1523437,0.375 0.1757812,0.7617188 0.1757812,1.2539063 0,0.3515625 0,0.9492187 -0.234375,1.3710937 -0.2460937,0.38671875 -0.609375,0.64453125 -1.0664062,0.64453125 -0.7265625,0 -1.3007813,-0.52734375 -1.4648438,-1.11328125 0.023437,0.011719 0.058594,0.011719 0.1640625,0.011719 0.328125,0 0.5039063,-0.2460938 0.5039063,-0.4804688 0,-0.2460937 -0.1757813,-0.4921875 -0.5039063,-0.4921875 -0.140625,0 -0.4804687,0.070312 -0.4804687,0.5273438 0,0.8554687 0.6796875,1.82812495 1.7929687,1.82812495 1.1601563,0 2.1796875,-0.9609375 2.1796873,-2.22656265 z m 2.4169919,1.47656245 c 0,-0.29296875 -0.234375,-0.52734375 -0.527343,-0.52734375 -0.28125,0 -0.527344,0.234375 -0.527344,0.52734375 0,0.29296875 0.246094,0.52734375 0.527344,0.52734375 0.292968,0 0.527343,-0.234375 0.527343,-0.52734375 z m 5.44043,-2.66015625 c 0,-0.796875 -0.04687,-1.59375 -0.398438,-2.3320312 -0.457031,-0.9609375 -1.277343,-1.1132813 -1.6875,-1.1132813 -0.597656,0 -1.335937,0.2578125 -1.734375,1.1835938 -0.328125,0.6914062 -0.375,1.4648437 -0.375,2.2617187 0,0.75 0.04687,1.640625 0.445313,2.40234375 0.433594,0.80859375 1.160156,1.0078125 1.652344,1.0078125 0.539062,0 1.289062,-0.2109375 1.734375,-1.16015625 0.316406,-0.6914062 0.363281,-1.4648437 0.363281,-2.25 z M 16.482344,-3.306125 c 0,0.75 0,1.4179688 -0.105469,2.0625 -0.152344,0.9375 -0.714844,1.2421875 -1.160156,1.2421875 -0.386719,0 -0.984375,-0.24609375 -1.160157,-1.2070312 -0.105468,-0.5976563 -0.105468,-1.5117188 -0.105468,-2.0976563 0,-0.6445312 0,-1.3007812 0.08203,-1.8398437 0.1875,-1.1835938 0.925781,-1.265625 1.183594,-1.265625 0.328125,0 0.984375,0.1757812 1.171875,1.1601562 0.09375,0.5625 0.09375,1.3125 0.09375,1.9453125 z m 0,0"
       style="fill:#000000;fill-opacity:1;fill-rule:nonzero;stroke:none"
       aria-label="25.0"
       transform="matrix(1.3333333,0,0,1.3333333,23.726667,202.97067)" />
    <path
       id="path35"
       d="m 4.4762734,-2.00475 c 0,-1.1835938 -0.8203125,-2.1796875 -1.8984375,-2.1796875 -0.4804687,0 -0.9023437,0.1640625 -1.265625,0.5039062 V -5.614125 c 0.1992188,0.058594 0.5273438,0.1289062 0.84375,0.1289062 1.2304688,0 1.9335938,-0.9140625 1.9335938,-1.0429687 0,-0.058594 -0.035156,-0.1054688 -0.1054688,-0.1054688 0,0 -0.035156,0 -0.082031,0.023437 -0.1992188,0.09375 -0.6796875,0.2929688 -1.3476563,0.2929688 -0.3984375,0 -0.8554687,-0.070312 -1.3242187,-0.28125 -0.082031,-0.023437 -0.1289063,-0.023437 -0.1289063,-0.023437 -0.09375,0 -0.09375,0.082031 -0.09375,0.234375 v 2.953125 c 0,0.1757812 0,0.2578125 0.140625,0.2578125 0.070312,0 0.082031,-0.035156 0.1289063,-0.09375 0.1054687,-0.1523438 0.4804687,-0.6914063 1.2773437,-0.6914063 0.5273438,0 0.7734375,0.4570313 0.8554688,0.6328125 0.1523437,0.375 0.1757812,0.7617188 0.1757812,1.2539063 0,0.3515625 0,0.9492187 -0.234375,1.37109375 -0.2460937,0.38671875 -0.609375,0.64453125 -1.0664062,0.64453125 -0.7265625,0 -1.30078126,-0.52734375 -1.46484376,-1.1132813 0.0234375,0.011719 0.0585938,0.011719 0.1640625,0.011719 0.32812496,0 0.50390626,-0.2460938 0.50390626,-0.4804688 0,-0.2460937 -0.1757813,-0.4921875 -0.50390626,-0.4921875 -0.140625,0 -0.48046875,0.070312 -0.48046875,0.5273438 0,0.85546875 0.67968751,1.828125 1.79296871,1.828125 1.1601563,0 2.1796875,-0.9609375 2.1796873,-2.2265627 z m 5.0859375,-1.1835938 c 0,-0.796875 -0.046875,-1.59375 -0.3984375,-2.3320312 -0.4570312,-0.9609375 -1.2773437,-1.1132813 -1.6875,-1.1132813 -0.5976562,0 -1.3359375,0.2578125 -1.734375,1.1835938 -0.328125,0.6914062 -0.375,1.4648437 -0.375,2.2617187 0,0.75 0.046875,1.640625 0.4453125,2.4023438 0.4335938,0.80859375 1.1601563,1.0078125 1.6523438,1.0078125 0.5390625,0 1.2890625,-0.2109375 1.734375,-1.16015625 C 9.5153359,-1.62975 9.5622109,-2.4031875 9.5622109,-3.1883438 Z M 8.7301797,-3.3055313 c 0,0.75 0,1.4179688 -0.1054688,2.0625 -0.1523437,0.93750005 -0.7148437,1.24218755 -1.1601562,1.24218755 -0.3867188,0 -0.984375,-0.24609375 -1.1601563,-1.20703125 -0.1054687,-0.5976563 -0.1054687,-1.5117188 -0.1054687,-2.0976563 0,-0.6445312 0,-1.3007812 0.082031,-1.8398437 0.1875,-1.1835938 0.9257813,-1.265625 1.1835938,-1.265625 0.328125,0 0.984375,0.1757812 1.171875,1.1601562 0.09375,0.5625 0.09375,1.3125 0.09375,1.9453125 z m 3.1435543,2.7773438 c 0,-0.29296875 -0.234375,-0.5273438 -0.527343,-0.5273438 -0.28125,0 -0.527344,0.23437505 -0.527344,0.5273438 0,0.29296875 0.246094,0.52734375 0.527344,0.52734375 0.292968,0 0.527343,-0.234375 0.527343,-0.52734375 z m 5.44043,-2.6601563 c 0,-0.796875 -0.04687,-1.59375 -0.398437,-2.3320312 -0.457032,-0.9609375 -1.277344,-1.1132813 -1.6875,-1.1132813 -0.597657,0 -1.335938,0.2578125 -1.734375,1.1835938 -0.328125,0.6914062 -0.375,1.4648437 -0.375,2.2617187 0,0.75 0.04687,1.640625 0.445312,2.4023438 0.433594,0.80859375 1.160156,1.0078125 1.652344,1.0078125 0.539062,0 1.289062,-0.2109375 1.734375,-1.16015625 0.316406,-0.69140625 0.363281,-1.46484375 0.363281,-2.25000005 z m -0.832031,-0.1171875 c 0,0.75 0,1.4179688 -0.105469,2.0625 -0.152344,0.93750005 -0.714844,1.24218755 -1.160156,1.24218755 -0.386719,0 -0.984375,-0.24609375 -1.160156,-1.20703125 -0.105469,-0.5976563 -0.105469,-1.5117188 -0.105469,-2.0976563 0,-0.6445312 0,-1.3007812 0.08203,-1.8398437 0.1875,-1.1835938 0.925781,-1.265625 1.183594,-1.265625 0.328125,0 0.984375,0.1757812 1.171875,1.1601562 0.09375,0.5625 0.09375,1.3125 0.09375,1.9453125 z m 0,0"
       style="fill:#000000;fill-opacity:1;fill-rule:nonzero;stroke:none"
       aria-label="50.0"
       transform="matrix(1.3333333,0,0,1.3333333,408.73867,524.048)" />
    <path
       id="path36"
       d="m 4.4764844,-2.0038984 c 0,-1.1835938 -0.8203125,-2.1796875 -1.8984375,-2.1796875 -0.4804688,0 -0.9023438,0.1640625 -1.265625,0.5039062 v -1.9335937 c 0.1992187,0.058594 0.5273437,0.1289062 0.84375,0.1289062 1.2304687,0 1.9335937,-0.9140625 1.9335937,-1.0429687 0,-0.058594 -0.035156,-0.1054688 -0.1054687,-0.1054688 0,0 -0.035156,0 -0.082031,0.023437 -0.1992187,0.09375 -0.6796875,0.2929688 -1.3476562,0.2929688 -0.3984375,0 -0.8554688,-0.070312 -1.3242188,-0.28125 -0.082031,-0.023437 -0.1289062,-0.023437 -0.1289062,-0.023437 -0.09375,0 -0.09375,0.082031 -0.09375,0.234375 v 2.953125 c 0,0.1757812 0,0.2578125 0.140625,0.2578125 0.070312,0 0.082031,-0.035156 0.1289062,-0.09375 0.1054688,-0.1523438 0.4804688,-0.6914063 1.2773438,-0.6914063 0.5273437,0 0.7734375,0.4570313 0.8554687,0.6328125 0.1523438,0.375 0.1757813,0.7617188 0.1757813,1.2539063 0,0.3515625 0,0.9492187 -0.234375,1.37109371 -0.2460938,0.38671875 -0.609375,0.64453125 -1.0664063,0.64453125 -0.7265625,0 -1.30078123,-0.52734375 -1.46484373,-1.11328126 0.0234375,0.011719 0.0585938,0.011719 0.1640625,0.011719 0.32812503,0 0.50390623,-0.2460938 0.50390623,-0.4804688 0,-0.2460937 -0.1757812,-0.4921875 -0.50390623,-0.4921875 -0.140625,0 -0.48046875,0.070312 -0.48046875,0.5273438 0,0.85546871 0.67968748,1.82812496 1.79296878,1.82812496 1.1601562,0 2.1796875,-0.9609375 2.1796872,-2.22656266 z m 5.0859375,-1.1835938 c 0,-0.796875 -0.046875,-1.59375 -0.3984375,-2.3320312 -0.4570313,-0.9609375 -1.2773438,-1.1132813 -1.6875,-1.1132813 -0.5976563,0 -1.3359375,0.2578125 -1.734375,1.1835938 -0.328125,0.6914062 -0.375,1.4648437 -0.375,2.2617187 0,0.75 0.046875,1.640625 0.4453125,2.40234376 0.4335937,0.80859375 1.1601562,1.0078125 1.6523437,1.0078125 0.5390625,0 1.2890625,-0.2109375 1.734375,-1.16015625 C 9.5155469,-1.6288984 9.5624219,-2.4023359 9.5624219,-3.1874922 Z M 8.7303906,-3.3046797 c 0,0.75 0,1.4179688 -0.1054687,2.0625 C 8.4725781,-0.30467969 7.9100781,7.8125e-6 7.4647656,7.8125e-6 7.0780469,7.8125e-6 6.4803906,-0.24608594 6.3046094,-1.2070234 6.1991406,-1.8046797 6.1991406,-2.7187422 6.1991406,-3.3046797 c 0,-0.6445312 0,-1.3007812 0.082031,-1.8398437 0.1875,-1.1835938 0.9257812,-1.265625 1.1835937,-1.265625 0.328125,0 0.984375,0.1757812 1.171875,1.1601562 0.09375,0.5625 0.09375,1.3125 0.09375,1.9453125 z m 3.1435544,2.77734376 c 0,-0.29296875 -0.234375,-0.52734376 -0.527343,-0.52734376 -0.28125,0 -0.527344,0.23437501 -0.527344,0.52734376 0,0.29296875 0.246094,0.5273437525 0.527344,0.5273437525 0.292968,0 0.527343,-0.2343750025 0.527343,-0.5273437525 z m 5.44043,-2.66015626 c 0,-0.796875 -0.04687,-1.59375 -0.398438,-2.3320312 -0.457031,-0.9609375 -1.277343,-1.1132813 -1.6875,-1.1132813 -0.597656,0 -1.335937,0.2578125 -1.734375,1.1835938 -0.328125,0.6914062 -0.375,1.4648437 -0.375,2.2617187 0,0.75 0.04687,1.640625 0.445313,2.40234376 0.433594,0.80859375 1.160156,1.0078125 1.652344,1.0078125 0.539062,0 1.289062,-0.2109375 1.734375,-1.16015625 0.316406,-0.69140621 0.363281,-1.46484371 0.363281,-2.25000001 z m -0.832031,-0.1171875 c 0,0.75 0,1.4179688 -0.105469,2.0625 C 16.224531,-0.30467969 15.662031,7.8125e-6 15.216719,7.8125e-6 14.83,7.8125e-6 14.232344,-0.24608594 14.056562,-1.2070234 c -0.105468,-0.5976563 -0.105468,-1.5117188 -0.105468,-2.0976563 0,-0.6445312 0,-1.3007812 0.08203,-1.8398437 0.1875,-1.1835938 0.925781,-1.265625 1.183594,-1.265625 0.328125,0 0.984375,0.1757812 1.171875,1.1601562 0.09375,0.5625 0.09375,1.3125 0.09375,1.9453125 z m 0,0"
       style="fill:#000000;fill-opacity:1;fill-rule:nonzero;stroke:none"
       aria-label="50.0"
       transform="matrix(1.3333333,0,0,1.3333333,23.726667,146.27733)" />
    <path
       id="path37"
       d="M 4.8293203,-6.4113906 H 2.4152578 c -1.21875,0 -1.2421875,-0.1289063 -1.2773437,-0.328125 H 0.89182031 l -0.328125,2.0507812 h 0.24609375 c 0.0234375,-0.1523437 0.1171875,-0.7851562 0.24609374,-0.9023437 0.070312,-0.058594 0.84375,-0.058594 0.9726563,-0.058594 h 2.0625 l -1.1132813,1.5703125 c -0.890625,1.3476563 -1.21875,2.7304688 -1.21875,3.75000003 0,0.09375 0,0.55078125 0.4570313,0.55078125 0.4570312,0 0.4570312,-0.45703125 0.4570312,-0.55078125 v -0.50390625 c 0,-0.55078128 0.023437,-1.10156248 0.1054688,-1.64062498 0.046875,-0.2226563 0.1757812,-1.078125 0.6210937,-1.6992188 l 1.3476563,-1.8984375 c 0.082031,-0.1171875 0.082031,-0.140625 0.082031,-0.3398435 z m 4.6289063,4.40625 c 0,-1.1835938 -0.8203125,-2.1796875 -1.8984375,-2.1796875 -0.4804688,0 -0.9023438,0.1640625 -1.265625,0.5039062 v -1.9335937 c 0.1992187,0.058594 0.5273437,0.1289062 0.84375,0.1289062 1.2304687,0 1.9335937,-0.9140625 1.9335937,-1.0429687 0,-0.058594 -0.035156,-0.1054688 -0.1054687,-0.1054688 0,0 -0.035156,0 -0.082031,0.023437 -0.1992187,0.09375 -0.6796875,0.2929688 -1.3476562,0.2929688 -0.3984375,0 -0.8554688,-0.070312 -1.3242188,-0.28125 -0.082031,-0.023437 -0.1289062,-0.023437 -0.1289062,-0.023437 -0.09375,0 -0.09375,0.082031 -0.09375,0.234375 v 2.953125 c 0,0.1757812 0,0.2578125 0.140625,0.2578125 0.070312,0 0.082031,-0.035156 0.1289062,-0.09375 0.1054688,-0.1523438 0.4804688,-0.6914063 1.2773438,-0.6914063 0.5273437,0 0.7734375,0.4570313 0.8554687,0.6328125 0.1523438,0.375 0.1757813,0.7617188 0.1757813,1.2539063 0,0.3515625 0,0.9492187 -0.234375,1.37109373 -0.2460938,0.38671875 -0.609375,0.64453125 -1.0664063,0.64453125 -0.7265625,0 -1.3007812,-0.52734375 -1.4648437,-1.11328128 0.023437,0.011719 0.058594,0.011719 0.1640625,0.011719 0.328125,0 0.5039062,-0.2460938 0.5039062,-0.4804688 0,-0.2460937 -0.1757812,-0.4921875 -0.5039062,-0.4921875 -0.140625,0 -0.4804688,0.070312 -0.4804688,0.5273438 0,0.85546873 0.6796875,1.82812498 1.7929688,1.82812498 1.1601562,0 2.1796875,-0.9609375 2.1796872,-2.22656268 z m 2.4140624,1.47656248 c 0,-0.29296875 -0.234375,-0.52734378 -0.527344,-0.52734378 -0.28125,0 -0.527343,0.23437503 -0.527343,0.52734378 0,0.29296875 0.246093,0.52734375 0.527343,0.52734375 0.292969,0 0.527344,-0.234375 0.527344,-0.52734375 z m 5.443359,-2.66015628 c 0,-0.796875 -0.04687,-1.59375 -0.398437,-2.3320312 -0.457031,-0.9609375 -1.277344,-1.1132813 -1.6875,-1.1132813 -0.597656,0 -1.335938,0.2578125 -1.734375,1.1835938 -0.328125,0.6914062 -0.375,1.4648437 -0.375,2.2617187 0,0.75 0.04687,1.640625 0.445312,2.40234378 0.433594,0.80859375 1.160157,1.0078125 1.652344,1.0078125 0.539063,0 1.289063,-0.2109375 1.734375,-1.16015625 0.316406,-0.69140623 0.363281,-1.46484373 0.363281,-2.25000003 z m -0.832031,-0.1171875 c 0,0.75 0,1.4179688 -0.105469,2.0625 -0.152343,0.93750003 -0.714843,1.24218753 -1.160156,1.24218753 -0.386719,0 -0.984375,-0.24609375 -1.160156,-1.20703123 -0.105469,-0.5976563 -0.105469,-1.5117188 -0.105469,-2.0976563 0,-0.6445312 0,-1.3007812 0.08203,-1.8398437 0.1875,-1.1835938 0.925782,-1.265625 1.183594,-1.265625 0.328125,0 0.984375,0.1757812 1.171875,1.1601562 0.09375,0.5625 0.09375,1.3125 0.09375,1.9453125 z m 0,0"
       style="fill:#000000;fill-opacity:1;fill-rule:nonzero;stroke:none"
       aria-label="75.0"
       transform="matrix(1.3333333,0,0,1.3333333,465.432,524.18133)" />
    <path
       id="path38"
       d="M 4.8280469,-6.4108281 H 2.4139844 c -1.21875,0 -1.2421875,-0.1289063 -1.2773438,-0.328125 H 0.89054687 l -0.328125,2.0507812 h 0.24609375 c 0.0234375,-0.1523437 0.1171875,-0.7851562 0.24609378,-0.9023437 0.070312,-0.058594 0.84375,-0.058594 0.9726562,-0.058594 h 2.0625 l -1.1132812,1.5703125 c -0.890625,1.3476563 -1.21875,2.7304688 -1.21875,3.75000003 0,0.09375 0,0.55078125 0.4570312,0.55078125 0.4570313,0 0.4570313,-0.45703125 0.4570313,-0.55078125 v -0.50390625 c 0,-0.55078128 0.023437,-1.10156248 0.1054687,-1.64062498 0.046875,-0.2226563 0.1757813,-1.078125 0.6210938,-1.6992188 l 1.3476562,-1.8984375 c 0.082031,-0.1171875 0.082031,-0.140625 0.082031,-0.3398435 z m 4.6289062,4.40625 c 0,-1.1835938 -0.8203125,-2.1796875 -1.8984375,-2.1796875 -0.4804687,0 -0.9023437,0.1640625 -1.265625,0.5039062 v -1.9335937 c 0.1992188,0.058594 0.5273438,0.1289062 0.84375,0.1289062 1.2304688,0 1.9335938,-0.9140625 1.9335938,-1.0429687 0,-0.058594 -0.035156,-0.1054688 -0.1054688,-0.1054688 0,0 -0.035156,0 -0.082031,0.023437 -0.1992188,0.09375 -0.6796875,0.2929688 -1.3476563,0.2929688 -0.3984375,0 -0.8554687,-0.070312 -1.3242187,-0.28125 -0.082031,-0.023437 -0.1289063,-0.023437 -0.1289063,-0.023437 -0.09375,0 -0.09375,0.082031 -0.09375,0.234375 v 2.953125 c 0,0.1757812 0,0.2578125 0.140625,0.2578125 0.070312,0 0.082031,-0.035156 0.1289063,-0.09375 0.1054687,-0.1523438 0.4804687,-0.6914063 1.2773437,-0.6914063 0.5273438,0 0.7734375,0.4570313 0.8554688,0.6328125 0.1523437,0.375 0.1757812,0.7617188 0.1757812,1.2539063 0,0.3515625 0,0.9492187 -0.234375,1.37109373 -0.2460937,0.38671875 -0.609375,0.64453125 -1.0664062,0.64453125 -0.7265625,0 -1.3007813,-0.52734375 -1.4648438,-1.11328128 0.023437,0.011719 0.058594,0.011719 0.1640625,0.011719 0.328125,0 0.5039063,-0.2460938 0.5039063,-0.4804688 0,-0.2460937 -0.1757813,-0.4921875 -0.5039063,-0.4921875 -0.140625,0 -0.4804687,0.070312 -0.4804687,0.5273438 0,0.85546873 0.6796875,1.82812498 1.7929687,1.82812498 1.1601563,0 2.1796875,-0.9609375 2.1796873,-2.22656268 z m 2.4169919,1.47656248 c 0,-0.29296875 -0.234375,-0.52734378 -0.527343,-0.52734378 -0.28125,0 -0.527344,0.23437503 -0.527344,0.52734378 0,0.29296875 0.246094,0.527343745 0.527344,0.527343745 0.292968,0 0.527343,-0.234374995 0.527343,-0.527343745 z m 5.44043,-2.66015628 c 0,-0.796875 -0.04687,-1.59375 -0.398438,-2.3320312 -0.457031,-0.9609375 -1.277343,-1.1132813 -1.6875,-1.1132813 -0.597656,0 -1.335937,0.2578125 -1.734375,1.1835938 -0.328125,0.6914062 -0.375,1.4648437 -0.375,2.2617187 0,0.75 0.04687,1.640625 0.445313,2.40234378 0.433594,0.80859375 1.160156,1.0078125 1.652344,1.0078125 0.539062,0 1.289062,-0.2109375 1.734375,-1.16015625 0.316406,-0.69140623 0.363281,-1.46484373 0.363281,-2.25000003 z m -0.832031,-0.1171875 c 0,0.75 0,1.4179688 -0.105469,2.0625 -0.152344,0.93750003 -0.714844,1.242187525 -1.160156,1.242187525 -0.386719,0 -0.984375,-0.246093745 -1.160157,-1.207031225 -0.105468,-0.5976563 -0.105468,-1.5117188 -0.105468,-2.0976563 0,-0.6445312 0,-1.3007812 0.08203,-1.8398437 0.1875,-1.1835938 0.925781,-1.265625 1.183594,-1.265625 0.328125,0 0.984375,0.1757812 1.171875,1.1601562 0.09375,0.5625 0.09375,1.3125 0.09375,1.9453125 z m 0,0"
       style="fill:#000000;fill-opacity:1;fill-rule:nonzero;stroke:none"
       aria-label="75.0"
       transform="matrix(1.3333333,0,0,1.3333333,23.726667,89.649333)" />
    <path
       id="path39"
       d="m 4.1723906,-8.4375e-4 v -0.3046875 H 3.8559844 c -0.9023438,0 -0.9257813,-0.1171875 -0.9257813,-0.48046875 v -5.5898438 c 0,-0.234375 0,-0.2578125 -0.234375,-0.2578125 -0.609375,0.6328125 -1.4882812,0.6328125 -1.80468747,0.6328125 v 0.3164063 c 0.19921877,0 0.78515627,0 1.30078127,-0.2578125 V -0.786 c 0,0.3515625 -0.035156,0.48046875 -0.9257813,0.48046875 H 0.94973438 v 0.3046875 C 1.3012969,-0.036 2.1567656,-0.036 2.5552031,-0.036 c 0.3984375,0 1.265625,0 1.6171875,0.03515625 z m 5.390625,-3.18750005 c 0,-0.796875 -0.046875,-1.59375 -0.3984375,-2.3320312 -0.4570312,-0.9609375 -1.2773437,-1.1132813 -1.6875,-1.1132813 -0.5976562,0 -1.3359375,0.2578125 -1.734375,1.1835938 -0.328125,0.6914062 -0.375,1.4648437 -0.375,2.2617187 0,0.75 0.046875,1.640625 0.4453125,2.4023438 0.4335938,0.80859375 1.1601563,1.0078125 1.6523438,1.0078125 0.5390625,0 1.2890625,-0.2109375 1.734375,-1.16015625 C 9.5161406,-1.62975 9.5630156,-2.4031875 9.5630156,-3.1883438 Z M 8.7309844,-3.3055313 c 0,0.75 0,1.4179688 -0.1054688,2.0625 -0.1523437,0.93750005 -0.7148437,1.24218755 -1.1601562,1.24218755 -0.3867188,0 -0.984375,-0.24609375 -1.1601563,-1.20703125 -0.1054687,-0.5976563 -0.1054687,-1.5117188 -0.1054687,-2.0976563 0,-0.6445312 0,-1.3007812 0.082031,-1.8398437 0.1875,-1.1835938 0.9257813,-1.265625 1.1835938,-1.265625 0.328125,0 0.984375,0.1757812 1.171875,1.1601562 0.09375,0.5625 0.09375,1.3125 0.09375,1.9453125 z m 5.8124996,0.1171875 c 0,-0.796875 -0.04687,-1.59375 -0.398437,-2.3320312 -0.457031,-0.9609375 -1.277344,-1.1132813 -1.6875,-1.1132813 -0.597656,0 -1.335938,0.2578125 -1.734375,1.1835938 -0.328125,0.6914062 -0.375,1.4648437 -0.375,2.2617187 0,0.75 0.04687,1.640625 0.445312,2.4023438 0.433594,0.80859375 1.160157,1.0078125 1.652344,1.0078125 0.539063,0 1.289063,-0.2109375 1.734375,-1.16015625 0.316406,-0.69140625 0.363281,-1.46484375 0.363281,-2.25000005 z m -0.832031,-0.1171875 c 0,0.75 0,1.4179688 -0.105469,2.0625 -0.152343,0.93750005 -0.714843,1.24218755 -1.160156,1.24218755 -0.386719,0 -0.984375,-0.24609375 -1.160156,-1.20703125 -0.105469,-0.5976563 -0.105469,-1.5117188 -0.105469,-2.0976563 0,-0.6445312 0,-1.3007812 0.08203,-1.8398437 0.1875,-1.1835938 0.925782,-1.265625 1.183594,-1.265625 0.328125,0 0.984375,0.1757812 1.171875,1.1601562 0.09375,0.5625 0.09375,1.3125 0.09375,1.9453125 z m 3.143555,2.7773438 c 0,-0.29296875 -0.234375,-0.5273438 -0.527344,-0.5273438 -0.28125,0 -0.527344,0.23437505 -0.527344,0.5273438 0,0.29296875 0.246094,0.52734375 0.527344,0.52734375 0.292969,0 0.527344,-0.234375 0.527344,-0.52734375 z m 5.44043,-2.6601563 c 0,-0.796875 -0.04687,-1.59375 -0.398438,-2.3320312 -0.457031,-0.9609375 -1.277344,-1.1132813 -1.6875,-1.1132813 -0.597656,0 -1.335937,0.2578125 -1.734375,1.1835938 -0.328125,0.6914062 -0.375,1.4648437 -0.375,2.2617187 0,0.75 0.04687,1.640625 0.445313,2.4023438 0.433593,0.80859375 1.160156,1.0078125 1.652343,1.0078125 0.539063,0 1.289063,-0.2109375 1.734375,-1.16015625 0.316407,-0.69140625 0.363282,-1.46484375 0.363282,-2.25000005 z m -0.832032,-0.1171875 c 0,0.75 0,1.4179688 -0.105468,2.0625 -0.152344,0.93750005 -0.714844,1.24218755 -1.160157,1.24218755 -0.386718,0 -0.984375,-0.24609375 -1.160156,-1.20703125 -0.105469,-0.5976563 -0.105469,-1.5117188 -0.105469,-2.0976563 0,-0.6445312 0,-1.3007812 0.08203,-1.8398437 0.1875,-1.1835938 0.925781,-1.265625 1.183593,-1.265625 0.328125,0 0.984375,0.1757812 1.171875,1.1601562 0.09375,0.5625 0.09375,1.3125 0.09375,1.9453125 z m 0,0"
       style="fill:#000000;fill-opacity:1;fill-rule:nonzero;stroke:none"
       aria-label="100.0"
       transform="matrix(1.3333333,0,0,1.3333333,518.804,524.048)" />
    <path
       id="path40"
       d="m 4.1723281,9.6875e-4 v -0.3046875 H 3.8559219 c -0.9023438,0 -0.9257813,-0.1171875 -0.9257813,-0.48046875 v -5.5898437 c 0,-0.234375 0,-0.2578125 -0.234375,-0.2578125 -0.609375,0.6328125 -1.4882812,0.6328125 -1.80468747,0.6328125 v 0.3164062 c 0.19921877,0 0.78515627,0 1.30078127,-0.2578125 v 5.15625 c 0,0.3515625 -0.035156,0.48046875 -0.9257813,0.48046875 H 0.94967188 V 9.6875e-4 C 1.3012344,-0.0341875 2.1567031,-0.0341875 2.5551406,-0.0341875 c 0.3984375,0 1.265625,0 1.6171875,0.03515625 z m 5.390625,-3.18749995 c 0,-0.796875 -0.046875,-1.59375 -0.3984375,-2.3320313 -0.4570312,-0.9609375 -1.2773437,-1.1132812 -1.6875,-1.1132812 -0.5976562,0 -1.3359375,0.2578125 -1.734375,1.1835937 -0.328125,0.6914063 -0.375,1.4648438 -0.375,2.2617188 0,0.75 0.046875,1.640625 0.4453125,2.4023437 0.4335938,0.80859375 1.1601563,1.0078125 1.6523438,1.0078125 0.5390625,0 1.2890625,-0.2109375 1.734375,-1.16015625 C 9.5160781,-1.6279375 9.5629531,-2.401375 9.5629531,-3.1865312 Z M 8.7309219,-3.3037187 c 0,0.75 0,1.4179687 -0.1054688,2.0625 -0.1523437,0.93749995 -0.7148437,1.24218745 -1.1601562,1.24218745 -0.3867188,0 -0.984375,-0.24609375 -1.1601563,-1.20703125 -0.1054687,-0.5976562 -0.1054687,-1.5117187 -0.1054687,-2.0976562 0,-0.6445313 0,-1.3007813 0.082031,-1.8398438 0.1875,-1.1835937 0.9257813,-1.265625 1.1835938,-1.265625 0.328125,0 0.984375,0.1757813 1.171875,1.1601563 0.09375,0.5625 0.09375,1.3125 0.09375,1.9453125 z m 5.8125001,0.1171875 c 0,-0.796875 -0.04687,-1.59375 -0.398438,-2.3320313 -0.457031,-0.9609375 -1.277343,-1.1132812 -1.6875,-1.1132812 -0.597656,0 -1.335937,0.2578125 -1.734375,1.1835937 -0.328125,0.6914063 -0.375,1.4648438 -0.375,2.2617188 0,0.75 0.04687,1.640625 0.445313,2.4023437 0.433594,0.80859375 1.160156,1.0078125 1.652344,1.0078125 0.539062,0 1.289062,-0.2109375 1.734375,-1.16015625 0.316406,-0.69140625 0.363281,-1.46484375 0.363281,-2.24999995 z m -0.832031,-0.1171875 c 0,0.75 0,1.4179687 -0.105469,2.0625 -0.152344,0.93749995 -0.714844,1.24218745 -1.160156,1.24218745 -0.386719,0 -0.984375,-0.24609375 -1.160157,-1.20703125 -0.105468,-0.5976562 -0.105468,-1.5117187 -0.105468,-2.0976562 0,-0.6445313 0,-1.3007813 0.08203,-1.8398438 0.1875,-1.1835937 0.925781,-1.265625 1.183594,-1.265625 0.328125,0 0.984375,0.1757813 1.171875,1.1601563 0.09375,0.5625 0.09375,1.3125 0.09375,1.9453125 z m 3.143554,2.7773437 c 0,-0.29296875 -0.234375,-0.5273437 -0.527343,-0.5273437 -0.28125,0 -0.527344,0.23437495 -0.527344,0.5273437 0,0.29296875 0.246094,0.52734375 0.527344,0.52734375 0.292968,0 0.527343,-0.234375 0.527343,-0.52734375 z m 5.44043,-2.6601562 c 0,-0.796875 -0.04687,-1.59375 -0.398437,-2.3320313 -0.457032,-0.9609375 -1.277344,-1.1132812 -1.6875,-1.1132812 -0.597657,0 -1.335938,0.2578125 -1.734375,1.1835937 -0.328125,0.6914063 -0.375,1.4648438 -0.375,2.2617188 0,0.75 0.04687,1.640625 0.445312,2.4023437 0.433594,0.80859375 1.160156,1.0078125 1.652344,1.0078125 0.539062,0 1.289062,-0.2109375 1.734375,-1.16015625 C 22.2485,-1.6279375 22.295375,-2.401375 22.295375,-3.1865312 Z m -0.832031,-0.1171875 c 0,0.75 0,1.4179687 -0.105469,2.0625 -0.152344,0.93749995 -0.714844,1.24218745 -1.160156,1.24218745 -0.386719,0 -0.984375,-0.24609375 -1.160156,-1.20703125 -0.105469,-0.5976562 -0.105469,-1.5117187 -0.105469,-2.0976562 0,-0.6445313 0,-1.3007813 0.08203,-1.8398438 0.1875,-1.1835937 0.925781,-1.265625 1.183594,-1.265625 0.328125,0 0.984375,0.1757813 1.171875,1.1601563 0.09375,0.5625 0.09375,1.3125 0.09375,1.9453125 z m 0,0"
       style="fill:#000000;fill-opacity:1;fill-rule:nonzero;stroke:none"
       aria-label="100.0"
       transform="matrix(1.3333333,0,0,1.3333333,17.085333,32.889333)" />
    <path
       id="path41"
       d="m 7.2902266,-0.87833594 c 0,-0.0585938 0,-0.16406246 -0.1289063,-0.16406246 -0.1054687,0 -0.1054687,0.0820312 -0.1171875,0.15234371 -0.058594,0.71484375 -0.4101562,0.8906250025 -0.65625,0.8906250025 -0.4921875,0 -0.5742187,-0.5039062525 -0.703125,-1.4296875125 l -0.140625,-0.796875 c -0.1757812,-0.6445312 -0.65625,-0.9726562 -1.2070312,-1.1601562 0.9609375,-0.234375 1.7460937,-0.84375 1.7460937,-1.6289063 0,-0.9492187 -1.1367187,-1.7929687 -2.6015625,-1.7929687 H 0.35272656 v 0.3164062 h 0.234375 c 0.77343754,0 0.78515624,0.1054688 0.78515624,0.46875 v 5.25000001 c 0,0.3515625 -0.011719,0.46875 -0.78515624,0.46875 h -0.234375 V 5.703125e-4 C 0.70428906,-0.03458594 1.4191328,-0.03458594 1.8058516,-0.03458594 c 0.3867187,0 1.0898437,0 1.453125,0.0351562525 V -0.30411719 h -0.234375 c -0.7734375,0 -0.796875,-0.1171875 -0.796875,-0.46875 V -3.2923984 h 1.1484375 c 0.1640625,0 0.5742187,0 0.9257812,0.3398437 0.3867188,0.3515625 0.3867188,0.65625 0.3867188,1.3242188 0,0.65624996 0,1.05468746 0.3984375,1.42968746 0.4101562,0.36328125 0.9609375,0.421875 1.2539062,0.421875 0.7851563,0 0.9492188,-0.8203125 0.9492188,-1.1015625 z M 5.0519453,-5.0150547 c 0,0.6914063 -0.234375,1.5 -1.7109375,1.5 H 2.2277266 v -2.578125 c 0,-0.234375 0,-0.3515625 0.2226562,-0.3867187 0.1054688,-0.011719 0.3867188,-0.011719 0.5859375,-0.011719 0.9023438,0 2.015625,0.035156 2.015625,1.4765627 z m 6.4160157,3.8320313 c 0,-0.1054688 -0.08203,-0.1171875 -0.128906,-0.1171875 -0.09375,0 -0.117188,0.058594 -0.128907,0.140625 -0.351562,1.01953121 -1.2539058,1.01953121 -1.3476558,1.01953121 -0.5039063,0 -0.9023438,-0.29296875 -1.125,-0.66796875 C 8.4328047,-1.2884922 8.4328047,-1.9447422 8.4328047,-2.2963047 h 2.7890623 c 0.210938,0 0.246094,0 0.246094,-0.2109375 0,-0.984375 -0.539063,-1.9570312 -1.7812501,-1.9570312 -1.1601562,0 -2.0742187,1.03125 -2.0742187,2.2734375 0,1.33593746 1.0429687,2.29687496 2.1914062,2.29687496 1.2187496,0 1.6640626,-1.1015625 1.6640626,-1.28906246 z m -0.65625,-1.3242188 H 8.4445234 c 0.058594,-1.4882812 0.9023438,-1.734375 1.2421875,-1.734375 1.0195311,0 1.1250001,1.3476563 1.1250001,1.734375 z m 0,0"
       style="fill:#000000;fill-opacity:1;fill-rule:nonzero;stroke:none"
       aria-label="Re"
       transform="matrix(1.3333333,0,0,1.3333333,299.32267,543.24533)" />
    <path
       id="path42"
       d="m 3.3158125,-5.9375e-4 v -0.3046875 H 3.058 c -0.7851562,0 -0.8203125,-0.1171875 -0.8203125,-0.46875 V -6.0240312 c 0,-0.3632813 0.035156,-0.46875 0.8203125,-0.46875 h 0.2578125 v -0.3164063 c -0.3515625,0.035156 -1.1367187,0.035156 -1.5117187,0.035156 -0.3867188,0 -1.17187505,0 -1.52343755,-0.035156 v 0.3164063 h 0.2578125 c 0.78515625,0 0.82031255,0.1054687 0.82031255,0.46875 v 5.24999995 c 0,0.3515625 -0.035156,0.46875 -0.82031255,0.46875 h -0.2578125 v 0.3046875 C 0.63221875,-0.03575 1.417375,-0.03575 1.792375,-0.03575 c 0.3867188,0 1.171875,0 1.5234375,0.03515625 z m 8.3789065,0 v -0.3046875 c -0.515625,0 -0.761719,0 -0.773438,-0.3046875 V -2.5084062 c 0,-0.8554688 0,-1.171875 -0.316406,-1.5234375 -0.128906,-0.1757813 -0.46875,-0.375 -1.0429687,-0.375 -0.8320313,0 -1.2773438,0.5976562 -1.4414063,0.984375 -0.140625,-0.8671875 -0.8789062,-0.984375 -1.3242187,-0.984375 -0.7265625,0 -1.1953125,0.4335937 -1.4765625,1.0546875 v -1.0546875 l -1.40625,0.1171875 v 0.3046875 c 0.703125,0 0.7851562,0.070312 0.7851562,0.5625 v 2.6601562 c 0,0.45703125 -0.1171875,0.45703125 -0.7851562,0.45703125 v 0.3046875 L 5.0384688,-0.03575 6.15175,-5.9375e-4 v -0.3046875 c -0.65625,0 -0.7734375,0 -0.7734375,-0.45703125 v -1.828125 c 0,-1.03125 0.7148438,-1.59375 1.3476563,-1.59375 0.6210937,0 0.7382812,0.5390625 0.7382812,1.1015625 v 2.3203125 c 0,0.45703125 -0.1171875,0.45703125 -0.7734375,0.45703125 v 0.3046875 l 1.125,-0.03515625 1.1132813,0.03515625 v -0.3046875 c -0.6679688,0 -0.7851563,0 -0.7851563,-0.45703125 v -1.828125 c 0,-1.03125 0.7148438,-1.59375 1.3476563,-1.59375 0.6328122,0 0.7382812,0.5390625 0.7382812,1.1015625 v 2.3203125 c 0,0.45703125 -0.105469,0.45703125 -0.7734375,0.45703125 v 0.3046875 L 10.581438,-0.03575 Z m 0,0"
       style="fill:#000000;fill-opacity:1;fill-rule:nonzero;stroke:none"
       aria-label="Im"
       transform="matrix(1.3333333,0,0,1.3333333,4.4226667,259.92267)" />
    <path
       id="path43"
       d="M 170.08089,0 C 170.08089,93.93428 93.93428,170.08089 0,170.08089 -93.93428,170.08089 -170.08089,93.93428 -170.08089,0 c 0,-93.93428 76.14661,-170.08089 170.08089,-170.08089 93.93428,0 170.08089,76.14661 170.08089,170.08089 z"
       style="fill:none;stroke:#000000;stroke-width:0.3985;stroke-linecap:butt;stroke-linejoin:miter;stroke-miterlimit:10;stroke-dasharray:2.98883, 2.98883;stroke-dashoffset:0;stroke-opacity:1"
       transform="matrix(1.3333333,0,0,-1.3333333,307.16,255.38667)" />
    <path
       id="path44"
       d="m 4.0196797,-2.4961094 -2.203125,2.20312503 c -0.082031,0.0820313 -0.1523438,0.1640625 -0.1523438,0.26953125 0,0.17578125 0.140625,0.31640625 0.3046875,0.31640625 0.1289063,0 0.1875,-0.0585938 0.2929688,-0.17578125 L 4.4532734,-2.0625156 6.7384297,0.23435938 c 0.035156,0.0117188 0.070312,0.0585938 0.1992187,0.0585938 0.140625,0 0.2929688,-0.12890625 0.2929688,-0.31640625 0,-0.046875 -0.023437,-0.10546875 -0.035156,-0.140625 -0.058594,-0.0703125 -0.3515625,-0.36328125 -0.5273437,-0.5390625 l -1.78125,-1.79296883 c 0.5039062,-0.515625 2.2148437,-2.2031249 2.2617187,-2.2617187 0.058594,-0.070312 0.082031,-0.1289062 0.082031,-0.2109375 0,-0.1875 -0.1523438,-0.3164062 -0.2929688,-0.3164062 -0.1289062,0 -0.1757812,0.058594 -0.2695312,0.1523437 l -2.2148438,2.203125 c -0.515625,-0.5039063 -2.2148437,-2.2148438 -2.2734375,-2.2734375 -0.070312,-0.046875 -0.1289062,-0.082031 -0.2109375,-0.082031 -0.1640625,0 -0.3046875,0.140625 -0.3046875,0.3164062 0,0.1054688 0.046875,0.1523438 0.1523438,0.2578125 z m 0,0"
       style="fill:#000000;fill-opacity:1;fill-rule:nonzero;stroke:none"
       aria-label="×"
       transform="matrix(1.3333333,0,0,1.3333333,216.26933,48.445333)" />
    <path
       id="path45"
       d="m 4.0193047,-2.4957344 -2.203125,2.20312503 c -0.082031,0.0820312 -0.1523438,0.1640625 -0.1523438,0.26953125 0,0.17578125 0.140625,0.31640625 0.3046875,0.31640625 0.1289063,0 0.1875,-0.0585938 0.2929688,-0.17578125 L 4.4528984,-2.0621406 6.7380547,0.23473438 c 0.035156,0.0117188 0.070312,0.0585938 0.1992187,0.0585938 0.140625,0 0.2929688,-0.12890625 0.2929688,-0.31640625 0,-0.046875 -0.023437,-0.10546875 -0.035156,-0.140625 -0.058594,-0.0703125 -0.3515625,-0.36328125 -0.5273437,-0.5390625 l -1.78125,-1.79296883 c 0.5039062,-0.515625 2.2148437,-2.2031249 2.2617187,-2.2617187 0.058594,-0.070312 0.082031,-0.1289062 0.082031,-0.2109375 0,-0.1875 -0.1523438,-0.3164062 -0.2929688,-0.3164062 -0.1289062,0 -0.1757812,0.058594 -0.2695312,0.1523437 l -2.2148438,2.203125 c -0.515625,-0.5039063 -2.2148437,-2.2148438 -2.2734375,-2.2734375 -0.070312,-0.046875 -0.1289062,-0.082031 -0.2109375,-0.082031 -0.1640625,0 -0.3046875,0.140625 -0.3046875,0.3164062 0,0.1054688 0.046875,0.1523438 0.1523438,0.2578125 z m 0,0"
       style="fill:#000000;fill-opacity:1;fill-rule:nonzero;stroke:none"
       aria-label="×"
       transform="matrix(1.3333333,0,0,1.3333333,90.957333,173.75733)" />
    <path
       id="path46"
       d="m 4.0196797,-2.4965312 -2.203125,2.20312495 c -0.082031,0.0820312 -0.1523438,0.1640625 -0.1523438,0.26953125 0,0.17578125 0.140625,0.31640625 0.3046875,0.31640625 0.1289063,0 0.1875,-0.0585938 0.2929688,-0.17578125 l 2.1914062,-2.1796875 2.2851563,2.296875 c 0.035156,0.0117188 0.070312,0.0585938 0.1992187,0.0585938 0.140625,0 0.2929688,-0.12890625 0.2929688,-0.31640625 0,-0.046875 -0.023437,-0.10546875 -0.035156,-0.140625 -0.058594,-0.0703125 -0.3515625,-0.36328125 -0.5273437,-0.5390625 l -1.78125,-1.79296875 c 0.5039062,-0.515625 2.2148437,-2.203125 2.2617187,-2.2617188 0.058594,-0.070312 0.082031,-0.1289062 0.082031,-0.2109375 0,-0.1875 -0.1523438,-0.3164062 -0.2929688,-0.3164062 -0.1289062,0 -0.1757812,0.058594 -0.2695312,0.1523437 l -2.2148438,2.203125 c -0.515625,-0.5039062 -2.2148437,-2.2148437 -2.2734375,-2.2734375 -0.070312,-0.046875 -0.1289062,-0.082031 -0.2109375,-0.082031 -0.1640625,0 -0.3046875,0.140625 -0.3046875,0.3164063 0,0.1054687 0.046875,0.1523437 0.1523438,0.2578125 z m 0,0"
       style="fill:#000000;fill-opacity:1;fill-rule:nonzero;stroke:none"
       aria-label="×"
       transform="matrix(1.3333333,0,0,1.3333333,216.26933,468.96933)" />
    <path
       id="path47"
       d="m 4.0193047,-2.4949766 -2.203125,2.20312504 c -0.082031,0.0820313 -0.1523438,0.1640625 -0.1523438,0.26953125 0,0.17578125 0.140625,0.31640625 0.3046875,0.31640625 0.1289063,0 0.1875,-0.0585938 0.2929688,-0.17578125 L 4.4528984,-2.0613828 6.7380547,0.23549219 c 0.035156,0.0117188 0.070312,0.0585938 0.1992187,0.0585938 0.140625,0 0.2929688,-0.12890625 0.2929688,-0.31640625 0,-0.046875 -0.023437,-0.10546875 -0.035156,-0.140625 -0.058594,-0.0703125 -0.3515625,-0.36328125 -0.5273437,-0.5390625 l -1.78125,-1.79296884 c 0.5039062,-0.515625 2.2148437,-2.203125 2.2617187,-2.2617186 0.058594,-0.070312 0.082031,-0.1289063 0.082031,-0.2109375 0,-0.1875 -0.1523438,-0.3164063 -0.2929688,-0.3164063 -0.1289062,0 -0.1757812,0.058594 -0.2695312,0.1523438 l -2.2148438,2.2031249 c -0.515625,-0.5039063 -2.2148437,-2.2148438 -2.2734375,-2.2734374 -0.070312,-0.046875 -0.1289062,-0.082031 -0.2109375,-0.082031 -0.1640625,0 -0.3046875,0.140625 -0.3046875,0.3164063 0,0.1054687 0.046875,0.1523437 0.1523438,0.2578125 z m 0,0"
       style="fill:#000000;fill-opacity:1;fill-rule:nonzero;stroke:none"
       aria-label="×"
       transform="matrix(1.3333333,0,0,1.3333333,90.957333,343.65867)" />
  </g>
</svg>
