<?xml version="1.0" encoding="UTF-8" standalone="no"?>
<!-- Created with Inkscape (http://www.inkscape.org/) -->

<svg
   version="1.1"
   id="svg1"
   width="279.53333"
   height="146.74667"
   viewBox="0 0 279.53333 146.74667"
   sodipodi:docname="24-25-1-通信电子电路-期末-题图1-7.pdf"
   xmlns:inkscape="http://www.inkscape.org/namespaces/inkscape"
   xmlns:sodipodi="http://sodipodi.sourceforge.net/DTD/sodipodi-0.dtd"
   xmlns="http://www.w3.org/2000/svg"
   xmlns:svg="http://www.w3.org/2000/svg">
  <defs
     id="defs1" />
  <sodipodi:namedview
     id="namedview1"
     pagecolor="#ffffff"
     bordercolor="#000000"
     borderopacity="0.25"
     inkscape:showpageshadow="2"
     inkscape:pageopacity="0.0"
     inkscape:pagecheckerboard="0"
     inkscape:deskcolor="#d1d1d1">
    <inkscape:page
       x="0"
       y="0"
       inkscape:label="1"
       id="page1"
       width="279.53333"
       height="146.74667"
       margin="0"
       bleed="0" />
  </sodipodi:namedview>
  <g
     id="g1"
     inkscape:groupmode="layer"
     inkscape:label="1">
    <path
       id="path1"
       d="M -52.09126,-12.5112 V 97.55165 H 157.56625 V -12.5112 Z"
       style="fill:#ffffff;fill-opacity:1;fill-rule:nonzero;stroke:none"
       transform="matrix(1.3333333,0,0,-1.3333333,69.454667,130.06533)" />
    <path
       id="path2"
       d="m 88.03581,34.51715 h 36.52943 V 50.52327 H 88.03581 Z"
       style="fill:none;stroke:#000000;stroke-width:0.3985;stroke-linecap:butt;stroke-linejoin:miter;stroke-miterlimit:10;stroke-dasharray:none;stroke-opacity:1"
       transform="matrix(1.3333333,0,0,-1.3333333,69.454667,130.06533)" />
    <path
       id="path3"
       d="m 0.23366406,-0.25749219 0.09375,0.0820313 0.28125,-0.26953125 c 0.10546875,-0.1171875 0.29296875,-0.328125 0.53906254,-0.67968746 0.2460937,-0.3515625 0.4804687,-0.7265625 0.7148437,-1.1367188 l 0.4335938,-0.7851563 c 0.023437,-0.058594 0.082031,-0.1640625 0.1640625,-0.3046875 V 0.09407031 L 2.4016328,1.6292266 C 2.7297578,1.5120391 2.9524141,1.4182891 3.0696016,1.3245391 L 3.0227266,0.03547656 V -3.6207734 c 0.2695312,0.1992187 0.46875,0.3632812 0.5625,0.4921875 0.1171875,0.1289062 0.2109375,0.2695312 0.3046875,0.3984375 0.070312,0.1289062 0.1289062,0.234375 0.1757812,0.3398437 0.023437,0.082031 0.058594,0.140625 0.082031,0.1640625 0.1171875,0.1171875 0.234375,0.1171875 0.3398437,0 0.1171875,-0.1289062 0.1640625,-0.2695312 0.1523438,-0.421875 C 4.6281953,-2.8121797 4.5813203,-2.9528047 4.4875703,-3.0699922 4.4055391,-3.1754609 4.1828828,-3.3043672 3.8430391,-3.4684297 3.4914766,-3.6090547 3.2219453,-3.7262422 3.0227266,-3.8082734 v -1.0195313 l 1.7226562,-0.011719 c 0.1757813,0 0.2578125,-0.011719 0.2578125,-0.046875 -0.011719,-0.023437 -0.046875,-0.058594 -0.1054687,-0.1289063 L 4.2883516,-5.6363984 3.7375703,-5.0856172 H 3.0227266 v -1.7109375 l 0.3046875,-0.1992187 c 0.09375,-0.058594 0.140625,-0.09375 0.1289062,-0.140625 -0.011719,-0.011719 -0.058594,-0.058594 -0.1523437,-0.1054688 l -0.8789063,-0.4335937 0.035156,1.3710937 v 1.21875 h -1.066406 l -1.03124999,-0.023437 0.36328125,0.421875 c 0.15234375,-0.046875 0.31640624,-0.070312 0.51562504,-0.1171875 0.1992187,-0.011719 0.328125,-0.035156 0.3867187,-0.035156 h 0.703125 l -0.070312,0.3398437 c -0.070312,0.28125 -0.1640625,0.609375 -0.3046875,1.0078125 -0.1523437,0.3867188 -0.328125,0.796875 -0.5507812,1.265625 -0.2226563,0.46875 -0.44531254,0.8789063 -0.67968754,1.24218751 l -0.29296875,0.421875 c -0.046875,0.0703125 -0.10546875,0.17578125 -0.19921925,0.3046868 z M 5.2141328,-7.0426484 5.2610078,-5.6129609 V 0.03547656 L 5.2024141,1.4768828 c 0.1054687,-0.023437 0.2109375,-0.046875 0.3398437,-0.1054687 0.1054688,-0.046875 0.1757813,-0.070312 0.1992188,-0.09375 0.023437,-0.023437 0.058594,-0.046875 0.082031,-0.1054688 V 0.49250781 l 2.4375,0.0117188 V 1.4300078 c 0.3515627,-0.1054687 0.5390627,-0.1757812 0.574219,-0.1992187 0.035156,-0.035156 0.046875,-0.070312 0.082031,-0.09375 L 8.8352266,-0.23405469 V -6.0934297 l 0.3164062,-0.234375 c 0.070312,-0.046875 0.1054688,-0.082031 0.1054688,-0.082031 0,-0.011719 -0.035156,-0.058594 -0.09375,-0.1054688 L 8.4953828,-7.0660859 8.0852266,-6.5387422 h -2.0625 z m 0.609375,7.30078121 V -1.9567109 h 2.4375 v 2.20312496 z m 0,-2.42578121 v -1.9804688 h 2.4375 v 1.96875 z m 0,-2.2148438 v -1.9335937 l 2.4375,0.011719 v 1.921875 z m 6.4013672,-0.6328125 -0.03516,1.1015625 c 0,0.2929688 -0.03516,0.6328125 -0.07031,1.0429688 -0.02344,0.4101562 -0.05859,0.7617187 -0.105469,1.0429687 -0.04687,0.28125 -0.128906,0.65625 -0.257812,1.08984376 -0.117188,0.45703125 -0.292969,0.84375 -0.5625,1.1953125 C 10.95925,0.80891406 10.689719,1.1487578 10.39675,1.4768828 l 0.105469,0.1289063 c 0.386718,-0.375 0.65625,-0.64453129 0.820312,-0.83203129 0.140625,-0.17578125 0.304688,-0.3984375 0.46875,-0.66796875 0.152344,-0.26953125 0.304688,-0.5390625 0.421875,-0.85546875 0.140625,-0.30468751 0.234375,-0.63281251 0.304688,-1.00781251 0.05859,-0.3632812 0.105468,-0.7265625 0.140625,-1.0664062 0.02344,-0.3632813 0.05859,-0.6796875 0.07031,-0.984375 0.01172,-0.28125 0.03516,-0.6796875 0.05859,-1.2070313 H 14.2405 l -0.08203,2.8828125 c -0.01172,0.234375 -0.02344,0.5507813 -0.04687,0.9726563 -0.02344,0.41015621 -0.07031,0.76171871 -0.152344,1.01953121 -0.08203,0.28125 -0.246094,0.3984375 -0.480469,0.375 l -1.101562,-0.10546875 -0.04687,0.15234375 c 0.375,0.0820313 0.632812,0.15234375 0.761718,0.22265625 0.128907,0.0703125 0.222657,0.140625 0.28125,0.234375 0.04687,0.09375 0.105469,0.2109375 0.152344,0.36328124 l 0.386719,-0.16406249 c 0.199219,-0.0820313 0.351562,-0.22265625 0.46875,-0.421875 0.128906,-0.2109375 0.199219,-0.5156249975 0.257812,-0.94921875 0.04687,-0.421875 0.07031,-1.00781246 0.09375,-1.76953126 l 0.04687,-1.8984375 c 0.01172,-0.1640625 0.02344,-0.3984375 0.04687,-0.7265625 l 0.316407,-0.2578125 c 0.05859,-0.046875 0.09375,-0.070312 0.09375,-0.09375 0,-0.035156 -0.04687,-0.070312 -0.128907,-0.1289062 l -0.65625,-0.46875 -0.328125,0.5390625 h -1.324218 c 0.03516,-0.5039063 0.07031,-1.0664063 0.117187,-1.7109375 l 0.1875,-0.1289063 c 0.05859,-0.058594 0.08203,-0.082031 0.105469,-0.1171875 0,-0.023437 -0.02344,-0.046875 -0.08203,-0.082031 l -0.878907,-0.3984375 0.02344,1.1601562 c 0.01172,0.1523438 0,0.5742188 -0.04687,1.2773438 h -0.960938 l -0.925781,-0.023437 0.363281,0.3984375 c 0.234375,-0.070312 0.5625,-0.1171875 0.984375,-0.1523438 z m 3.621094,-1.0429687 0.05859,1.5351562 v 4.37109376 l -0.05859,1.41796874 0.199218,-0.082031 0.269532,-0.1054688 c 0.03516,-0.011719 0.08203,-0.035156 0.152343,-0.070312 V 0.03547656 h 1.699219 v 0.9609375 l 0.199219,-0.0703125 0.234375,-0.0820313 c 0.03516,-0.0117188 0.09375,-0.0351563 0.1875,-0.0820313 l -0.05859,-1.2890625 V -5.2145234 l 0.269531,-0.2109375 c 0.07031,-0.058594 0.105469,-0.09375 0.105469,-0.1171875 0.01172,0 -0.03516,-0.058594 -0.128906,-0.1289063 l -0.585938,-0.4453125 -0.351562,0.4804688 H 16.61941 Z m 0.621093,5.88281246 V -5.4137422 h 1.699219 v 5.23828126 z m 6.890625,-3.17578126 -0.28125,0.3164063 c -0.246093,0.28125 -0.644531,0.6328125 -1.195312,1.03125 -0.539063,0.3984375 -1.136719,0.7382812 -1.769531,1.03124996 l 0.02344,0.140625 c 0.351563,-0.10546875 0.621094,-0.19921876 0.820313,-0.28124996 0.199218,-0.09375 0.433593,-0.1875 0.679687,-0.3164063 v 2.19140626 l -0.04687,0.92578124 0.328125,-0.1171875 c 0.08203,-0.011719 0.117188,-0.011719 0.140625,-0.035156 0.02344,0 0.07031,-0.035156 0.117188,-0.070312 V 0.73860156 h 1.464843 V 1.4534453 c 0.222657,-0.046875 0.351563,-0.082031 0.386719,-0.09375 0.04687,0 0.117188,-0.035156 0.222656,-0.070312 l -0.04687,-0.76171874 -0.01172,-1.76953126 0.210937,-0.1875 c 0.04687,-0.046875 0.07031,-0.070312 0.07031,-0.082031 0,-0.023437 -0.04687,-0.058594 -0.128907,-0.1171875 l -0.527343,-0.3632813 -0.304688,0.4101563 -1.265625,-0.011719 -0.140625,-0.082031 0.246094,-0.1757813 0.492187,-0.328125 c 0.339844,-0.2578125 0.75,-0.65625 1.21875,-1.1835937 l 1.757813,0.011719 0.421875,0.5507813 c 0.03516,0.058594 0.164062,0.1757812 0.375,0.375 0.210937,0.1757812 0.527344,0.3867187 0.9375,0.6328125 l -0.175781,0.1640625 h -1.3125 l -0.644532,-0.3398438 0.04687,0.9375 v 1.61718751 l -0.04687,1.04296879 c 0.269532,-0.070312 0.445313,-0.140625 0.550782,-0.234375 V 0.73860156 h 1.546875 V 1.4182891 l 0.08203,-0.046875 0.234375,-0.070312 c 0.07031,-0.035156 0.164062,-0.070312 0.269531,-0.140625 L 28.056906,0.45735156 V -1.2067109 l 0.117188,-0.09375 c 0.02344,-0.023437 0.04687,-0.046875 0.05859,-0.058594 0.01172,-0.023437 -0.03516,-0.070312 -0.105468,-0.1171875 0.117187,0.046875 0.339843,0.140625 0.703125,0.2929688 0.09375,-0.1757813 0.164062,-0.2929688 0.222656,-0.328125 l 0.246094,-0.1171875 c 0.09375,-0.046875 0.199218,-0.070312 0.292968,-0.070312 l 0.02344,-0.1289063 c -0.667969,-0.070312 -1.300781,-0.2109375 -1.898438,-0.4453125 -0.609375,-0.234375 -1.007812,-0.4453125 -1.195312,-0.6210937 -0.1875,-0.1757813 -0.351563,-0.328125 -0.457031,-0.4570313 h 3.128906 c 0.09375,0 0.128906,-0.011719 0.152344,-0.046875 0,-0.023437 -0.02344,-0.070312 -0.08203,-0.1171875 l -0.785156,-0.6914062 -0.46875,0.6210937 h -0.996094 c 0.117188,-0.1640625 0.1875,-0.3046875 0.1875,-0.4335937 0,-0.082031 -0.04687,-0.1875 -0.140625,-0.328125 -0.08203,-0.1171875 -0.433593,-0.2460938 -1.054687,-0.3632813 l -0.07031,0.09375 c 0.210938,0.1757813 0.375,0.3164063 0.480469,0.4453125 0.117188,0.1289063 0.222656,0.3164063 0.328125,0.5859375 h -2.496094 l 0.304688,-0.421875 0.28125,-0.3515625 c 0.03516,-0.058594 0.09375,-0.1289062 0.175781,-0.2226562 l 0.257813,-0.058594 c 0.08203,-0.011719 0.128906,-0.035156 0.140625,-0.046875 0,-0.023437 -0.04687,-0.058594 -0.140625,-0.1171875 l -0.738282,-0.46875 -0.128906,0.328125 c -0.03516,0.1054688 -0.128906,0.28125 -0.316406,0.5625 -0.152344,0.2578125 -0.339844,0.5273438 -0.539063,0.796875 h -2.601562 l -0.738281,-0.035156 0.339843,0.421875 c 0.246094,-0.1054688 0.585938,-0.1523438 0.996094,-0.1523438 z M 22.174094,0.52766406 V -1.3590547 h 1.464843 v 1.88671876 z m 3.796875,-0.0234375 V -1.4059297 h 1.546875 v 1.91015626 z m -4.40625,-7.85156246 0.04687,0.7382812 v 1.5351563 l -0.04687,0.75 0.152343,-0.035156 0.175782,-0.058594 c 0.08203,-0.035156 0.164062,-0.070312 0.246093,-0.140625 v -0.5507813 h 1.5 v 0.4921875 c 0.292969,-0.070312 0.503907,-0.140625 0.609375,-0.2109375 l -0.04687,-0.65625 v -1.1484375 l 0.210938,-0.2109375 c 0.05859,-0.035156 0.08203,-0.058594 0.08203,-0.09375 l -0.117187,-0.082031 -0.527344,-0.4101563 -0.304688,0.4335938 h -1.347656 z m 0.574218,2.0039062 v -1.4179687 h 1.5 v 1.4179687 z m 3.515625,-2.0625 0.04687,0.6914063 v 1.3125 l -0.04687,0.7148437 c 0.1875,-0.058594 0.375,-0.1289062 0.550782,-0.2109375 v -0.2109375 h 1.640625 v 0.421875 c 0.292968,-0.1054687 0.457031,-0.1640625 0.480468,-0.1757812 0.03516,-0.011719 0.07031,-0.023437 0.09375,-0.058594 l -0.04687,-0.6445312 v -1.1132813 l 0.222657,-0.1875 c 0.05859,-0.035156 0.08203,-0.070312 0.07031,-0.09375 0,-0.035156 -0.03516,-0.070312 -0.117187,-0.1289062 l -0.539063,-0.3632813 -0.292969,0.4453125 -1.347656,-0.011719 z m 0.550782,2.0625 v -1.453125 h 1.640625 v 1.453125 z m 0,0"
       style="fill:#000000;fill-opacity:1;fill-rule:nonzero;stroke:none"
       aria-label="相加器"
       transform="matrix(1.3333333,0,0,1.3333333,191.26267,77.370667)" />
    <path
       id="path4"
       d="M 24.2555,-8.018 H 60.78493 V 8.01801 H 24.2555 Z"
       style="fill:none;stroke:#000000;stroke-width:0.3985;stroke-linecap:butt;stroke-linejoin:miter;stroke-miterlimit:10;stroke-dasharray:none;stroke-opacity:1"
       transform="matrix(1.3333333,0,0,-1.3333333,69.454667,130.06533)" />
    <path
       id="path5"
       d="m 0.23436719,-0.25635938 0.09375,0.0820313 0.28125,-0.26953125 c 0.10546875,-0.1171875 0.29296875,-0.328125 0.53906251,-0.67968747 0.2460937,-0.3515625 0.4804687,-0.7265625 0.7148437,-1.1367187 l 0.4335938,-0.7851564 c 0.023437,-0.058594 0.082031,-0.1640625 0.1640625,-0.3046875 V 0.09520312 L 2.4023359,1.6303594 C 2.7304609,1.5131719 2.9531172,1.4194219 3.0703047,1.3256719 L 3.0234297,0.03660937 V -3.6196406 c 0.2695312,0.1992187 0.46875,0.3632812 0.5625,0.4921875 0.1171875,0.1289062 0.2109375,0.2695312 0.3046875,0.3984375 0.070312,0.1289062 0.1289062,0.234375 0.1757812,0.3398437 0.023437,0.082031 0.058594,0.140625 0.082031,0.1640625 0.1171875,0.1171875 0.234375,0.1171875 0.3398437,0 0.1171875,-0.1289062 0.1640625,-0.2695312 0.1523438,-0.421875 C 4.6288984,-2.8110469 4.5820234,-2.9516719 4.4882734,-3.0688594 4.4062422,-3.1743281 4.1835859,-3.3032344 3.8437422,-3.4672969 3.4921797,-3.6079219 3.2226484,-3.7251094 3.0234297,-3.8071406 v -1.0195313 l 1.7226562,-0.011719 c 0.1757813,0 0.2578125,-0.011719 0.2578125,-0.046875 -0.011719,-0.023437 -0.046875,-0.058594 -0.1054687,-0.1289063 L 4.2890547,-5.6352656 3.7382734,-5.0844844 H 3.0234297 v -1.7109375 l 0.3046875,-0.1992187 c 0.09375,-0.058594 0.140625,-0.09375 0.1289062,-0.140625 -0.011719,-0.011719 -0.058594,-0.058594 -0.1523437,-0.1054688 l -0.8789063,-0.4335937 0.035156,1.3710937 v 1.21875 h -1.066406 l -1.03124996,-0.023437 0.36328125,0.421875 c 0.15234375,-0.046875 0.31640621,-0.070312 0.51562501,-0.1171875 0.1992187,-0.011719 0.328125,-0.035156 0.3867187,-0.035156 h 0.703125 l -0.070312,0.3398437 c -0.070312,0.28125 -0.1640625,0.609375 -0.3046875,1.0078125 -0.1523437,0.3867188 -0.328125,0.796875 -0.5507812,1.265625 -0.2226563,0.46875 -0.44531251,0.8789063 -0.67968751,1.24218752 l -0.29296875,0.421875 c -0.046875,0.0703125 -0.10546875,0.17578125 -0.19921925,0.3046868 z M 5.2148359,-7.0415156 5.2617109,-5.6118281 V 0.03660937 L 5.2031172,1.4780156 c 0.1054687,-0.023437 0.2109375,-0.046875 0.3398437,-0.1054687 0.1054688,-0.046875 0.1757813,-0.070312 0.1992188,-0.09375 0.023437,-0.023437 0.058594,-0.046875 0.082031,-0.1054688 V 0.49364062 l 2.4375,0.0117188 V 1.4311406 c 0.3515627,-0.1054687 0.5390627,-0.1757812 0.574219,-0.1992187 0.035156,-0.035156 0.046875,-0.070312 0.082031,-0.09375 L 8.8359297,-0.23292188 V -6.0922969 l 0.3164062,-0.234375 c 0.070312,-0.046875 0.1054688,-0.082031 0.1054688,-0.082031 0,-0.011719 -0.035156,-0.058594 -0.09375,-0.1054688 L 8.4960859,-7.0649531 8.0859297,-6.5376094 h -2.0625 z m 0.609375,7.30078122 V -1.9555781 h 2.4375 v 2.20312497 z m 0,-2.42578122 v -1.9804688 h 2.4375 v 1.96875 z m 0,-2.2148438 v -1.9335937 l 2.4375,0.011719 v 1.921875 z m 8.7099611,0.9609375 -0.164063,0.328125 c -0.04687,0.082031 -0.175781,0.2695313 -0.386718,0.5390625 -0.199219,0.2929688 -0.539063,0.703125 -0.996094,1.2421875 -0.46875,0.53906252 -0.925781,0.98437502 -1.40625,1.33593752 -0.46875,0.3515625 -0.867188,0.64453125 -1.195313,0.8671875 l 0.04687,0.11718748 0.691407,-0.38671873 c 0.269531,-0.15234375 0.667968,-0.41015625 1.183593,-0.796875 0.515625,-0.38671875 0.9375,-0.76171875 1.253907,-1.10156247 0.316406,-0.3515625 0.644531,-0.703125 0.972656,-1.0898438 v 2.81250002 l -0.07031,1.19531248 c 0.07031,-0.011719 0.1875,-0.023437 0.316407,-0.082031 0.128906,-0.046875 0.246093,-0.1054688 0.328125,-0.1757813 L 15.096672,0.63426562 V -2.5766719 c 0.246094,0.4921875 0.550781,0.9609375 0.914062,1.4179688 0.363282,0.44531247 0.75,0.79687497 1.148438,1.06640622 0.410156,0.26953125 0.855469,0.52734375 1.324219,0.796875 0.152343,-0.1640625 0.304687,-0.28125 0.445312,-0.3515625 0.128906,-0.0703125 0.351563,-0.10546875 0.65625,-0.09375 v -0.09375 c -0.421875,-0.10546875 -0.738281,-0.1875 -0.9375,-0.24609375 -0.210937,-0.0703125 -0.585937,-0.22265625 -1.136719,-0.46875 -0.539062,-0.24609375 -1.007812,-0.59765627 -1.382812,-1.04296877 -0.363281,-0.4570312 -0.609375,-0.7617187 -0.691406,-0.9140625 -0.09375,-0.1640625 -0.210938,-0.375 -0.339844,-0.6328125 v -2.1445312 h 4.042969 c 0.08203,0 0.117187,0 0.128906,-0.011719 0.01172,-0.023437 -0.02344,-0.058594 -0.07031,-0.1171875 l -0.714843,-0.7148437 -0.515625,0.609375 h -2.871094 v -1.171875 l 0.644531,-0.1054688 0.761719,-0.1054687 c 0.152344,-0.023437 0.375,-0.046875 0.667969,-0.082031 l 0.328125,0.070312 c 0.128906,0.035156 0.199218,0.035156 0.199218,0 0.01172,-0.023437 -0.01172,-0.09375 -0.05859,-0.1640625 l -0.5625,-0.6328125 c -0.503907,0.234375 -1.21875,0.4335938 -2.167969,0.6210938 -0.9375,0.1640625 -2.179688,0.3515625 -3.703125,0.5273437 l 0.03516,0.1289063 c 0.152344,0.011719 0.597656,-0.011719 1.335938,-0.058594 0.714843,-0.046875 1.371093,-0.1054687 1.957031,-0.1640625 v 1.1367188 h -3.011719 l -0.914062,-0.046875 0.386718,0.421875 0.210938,-0.070312 c 0.117187,-0.046875 0.316406,-0.070312 0.621094,-0.070312 h 2.707031 z m -1.675781,0.5039063 c -0.46875,0.1523437 -0.855469,0.2695312 -1.136719,0.3398437 -0.304688,0.070312 -0.691406,0.1523438 -1.160156,0.2578125 l 0.398437,0.6210938 0.257813,-0.1757813 c 0.175781,-0.1289062 0.703125,-0.3984375 1.640625,-0.8085937 v 0.7617187 c 0.05859,-0.011719 0.164062,-0.046875 0.292968,-0.1289062 0.128907,-0.058594 0.210938,-0.1171875 0.257813,-0.1640625 l -0.02344,-0.8203125 v -1.546875 l 0.1875,-0.1171875 c 0.07031,-0.046875 0.09375,-0.082031 0.09375,-0.1054688 -0.01172,-0.011719 -0.04687,-0.023437 -0.09375,-0.058594 l -0.773437,-0.328125 0.04687,0.84375 0.01172,0.2460937 h -1.324219 l -0.667969,-0.035156 0.363281,0.3867187 c 0.164063,-0.082031 0.363282,-0.1289062 0.609375,-0.1289062 h 1.019532 z m 3.246093,-2.2382813 0.05859,0.9726563 v 1.6875 c 0,0.1171875 0.01172,0.1992187 0.01172,0.2929687 0.02344,0.09375 0.128906,0.1757813 0.304687,0.234375 0.1875,0.070312 0.492188,0.1054688 0.914063,0.1054688 0.621094,0 1.03125,-0.035156 1.21875,-0.09375 0.1875,-0.058594 0.351562,-0.1757813 0.46875,-0.3398438 0.04687,-0.070312 0.07031,-0.1289062 0.05859,-0.1523437 -0.01172,-0.035156 -0.04687,-0.070312 -0.152344,-0.1289063 -0.08203,-0.058594 -0.152344,-0.1289062 -0.175781,-0.2109375 -0.04687,-0.09375 -0.05859,-0.1992187 -0.07031,-0.3515625 -0.01172,-0.1523437 -0.02344,-0.3046875 -0.03516,-0.4804687 h -0.117188 l -0.02344,0.3046875 c 0,0.1875 -0.02344,0.3398437 -0.03516,0.4453125 -0.01172,0.1054687 -0.02344,0.1757812 -0.02344,0.234375 -0.01172,0.046875 -0.01172,0.09375 -0.03516,0.140625 -0.01172,0.046875 -0.07031,0.082031 -0.164063,0.1289062 -0.08203,0.023437 -0.339843,0.046875 -0.75,0.058594 -0.152343,0.011719 -0.316406,0 -0.515625,-0.023437 -0.1875,-0.011719 -0.292968,-0.035156 -0.328125,-0.082031 -0.01172,-0.046875 -0.02344,-0.1054687 -0.02344,-0.1992187 v -0.6445313 c 0.410156,-0.1992187 1.007812,-0.4804687 1.792969,-0.84375 h 0.257812 c 0.09375,0 0.140625,-0.011719 0.140625,-0.035156 0,-0.011719 -0.02344,-0.046875 -0.04687,-0.082031 L 18.30759,-4.8149516 c -0.304687,0.328125 -0.574218,0.5742187 -0.808593,0.75 -0.222657,0.1757812 -0.503907,0.3515625 -0.808594,0.5390625 v -1.0195313 l 0.257812,-0.1875 c 0.05859,-0.023437 0.09375,-0.058594 0.09375,-0.070312 -0.01172,-0.011719 -0.04687,-0.035156 -0.09375,-0.058594 z m 7.253907,1.8046875 -0.28125,0.3164063 c -0.246094,0.28125 -0.644532,0.6328125 -1.195313,1.03125 -0.539062,0.3984375 -1.136719,0.7382812 -1.769531,1.03124997 l 0.02344,0.140625 c 0.351563,-0.10546875 0.621094,-0.19921877 0.820313,-0.28124997 0.199219,-0.09375 0.433594,-0.1875 0.679687,-0.3164063 v 2.19140627 l -0.04687,0.92578123 0.328125,-0.1171875 c 0.08203,-0.011719 0.117188,-0.011719 0.140625,-0.035156 0.02344,0 0.07031,-0.035156 0.117188,-0.070312 V 0.73973437 h 1.464844 V 1.4545781 c 0.222656,-0.046875 0.351562,-0.082031 0.386718,-0.09375 0.04687,0 0.117188,-0.035156 0.222657,-0.070312 l -0.04687,-0.76171873 -0.01172,-1.76953127 0.210937,-0.1875 c 0.04687,-0.046875 0.07031,-0.070312 0.07031,-0.082031 0,-0.023437 -0.04687,-0.058594 -0.128906,-0.1171875 l -0.527344,-0.3632813 -0.304688,0.4101563 -1.265625,-0.011719 -0.140625,-0.082031 0.246094,-0.1757813 0.492188,-0.328125 c 0.339843,-0.2578125 0.75,-0.65625 1.21875,-1.1835937 l 1.757812,0.011719 0.421875,0.5507813 c 0.03516,0.058594 0.164063,0.1757812 0.375,0.375 0.210938,0.1757812 0.527344,0.3867187 0.9375,0.6328125 l -0.175781,0.1640625 h -1.3125 l -0.644531,-0.3398438 0.04687,0.9375 V 0.58739162 L 25.4209,1.6303604 c 0.269531,-0.070312 0.445312,-0.140625 0.550781,-0.234375 V 0.73973437 h 1.546875 V 1.4194219 l 0.08203,-0.046875 0.234375,-0.070312 c 0.07031,-0.035156 0.164063,-0.070312 0.269531,-0.140625 L 28.057609,0.45848437 V -1.2055781 l 0.117188,-0.09375 c 0.02344,-0.023437 0.04687,-0.046875 0.05859,-0.058594 0.01172,-0.023437 -0.03516,-0.070312 -0.105469,-0.1171875 0.117187,0.046875 0.339844,0.140625 0.703125,0.2929688 0.09375,-0.1757813 0.164062,-0.2929688 0.222656,-0.328125 l 0.246094,-0.1171875 c 0.09375,-0.046875 0.199219,-0.070312 0.292969,-0.070312 l 0.02344,-0.1289063 c -0.667969,-0.070312 -1.300781,-0.2109375 -1.898437,-0.4453125 -0.609375,-0.234375 -1.007813,-0.4453125 -1.195313,-0.6210937 -0.1875,-0.1757813 -0.351562,-0.328125 -0.457031,-0.4570313 h 3.128906 c 0.09375,0 0.128906,-0.011719 0.152344,-0.046875 0,-0.023437 -0.02344,-0.070312 -0.08203,-0.1171875 l -0.785157,-0.6914062 -0.46875,0.6210937 h -0.996093 c 0.117187,-0.1640625 0.1875,-0.3046875 0.1875,-0.4335937 0,-0.082031 -0.04687,-0.1875 -0.140625,-0.328125 -0.08203,-0.1171875 -0.433594,-0.2460938 -1.054688,-0.3632813 l -0.07031,0.09375 c 0.210937,0.1757813 0.375,0.3164063 0.480468,0.4453125 0.117188,0.1289063 0.222657,0.3164063 0.328125,0.5859375 h -2.496093 l 0.304687,-0.421875 0.28125,-0.3515625 c 0.03516,-0.058594 0.09375,-0.1289062 0.175781,-0.2226562 l 0.257813,-0.058594 c 0.08203,-0.011719 0.128906,-0.035156 0.140625,-0.046875 0,-0.023437 -0.04687,-0.058594 -0.140625,-0.1171875 l -0.738281,-0.46875 -0.128907,0.328125 c -0.03516,0.1054688 -0.128906,0.28125 -0.316406,0.5625 -0.152344,0.2578125 -0.339844,0.5273438 -0.539062,0.796875 H 20.94433 l -0.738281,-0.035156 0.339844,0.421875 c 0.246093,-0.1054688 0.585937,-0.1523438 0.996093,-0.1523438 z M 22.174797,0.52879687 V -1.3579219 h 1.464844 v 1.88671877 z m 3.796875,-0.0234375 V -1.4047969 h 1.546875 v 1.91015627 z m -4.40625,-7.85156247 0.04687,0.7382812 v 1.5351563 l -0.04687,0.75 0.152344,-0.035156 0.175781,-0.058594 c 0.08203,-0.035156 0.164062,-0.070312 0.246094,-0.140625 v -0.5507813 h 1.5 v 0.4921875 c 0.292968,-0.070312 0.503906,-0.140625 0.609375,-0.2109375 l -0.04687,-0.65625 v -1.1484375 l 0.210937,-0.2109375 c 0.05859,-0.035156 0.08203,-0.058594 0.08203,-0.09375 l -0.117187,-0.082031 -0.527344,-0.4101563 -0.304687,0.4335938 h -1.347657 z m 0.574219,2.0039062 v -1.4179687 h 1.5 v 1.4179687 z m 3.515625,-2.0625 0.04687,0.6914063 v 1.3125 l -0.04687,0.7148437 c 0.1875,-0.058594 0.375,-0.1289062 0.550781,-0.2109375 v -0.2109375 h 1.640625 v 0.421875 c 0.292969,-0.1054687 0.457031,-0.1640625 0.480469,-0.1757812 0.03516,-0.011719 0.07031,-0.023437 0.09375,-0.058594 l -0.04687,-0.6445312 v -1.1132813 l 0.222656,-0.1875 c 0.05859,-0.035156 0.08203,-0.070312 0.07031,-0.09375 0,-0.035156 -0.03516,-0.070312 -0.117187,-0.1289062 l -0.539063,-0.3632813 -0.292968,0.4453125 -1.347657,-0.011719 z m 0.550781,2.0625 v -1.453125 h 1.640625 v 1.453125 z m 0,0"
       style="fill:#000000;fill-opacity:1;fill-rule:nonzero;stroke:none"
       aria-label="相乘器"
       transform="matrix(1.3333333,0,0,1.3333333,106.22267,134.084)" />
    <path
       id="path6"
       d="M 24.2555,77.02243 H 60.78493 V 93.05844 H 24.2555 Z"
       style="fill:none;stroke:#000000;stroke-width:0.3985;stroke-linecap:butt;stroke-linejoin:miter;stroke-miterlimit:10;stroke-dasharray:none;stroke-opacity:1"
       transform="matrix(1.3333333,0,0,-1.3333333,69.454667,130.06533)" />
    <path
       id="path7"
       d="m 0.23436719,-0.25832813 0.09375,0.0820313 0.28125,-0.26953125 C 0.71483594,-0.56301558 0.90233594,-0.77395308 1.1484297,-1.1255155 1.3945234,-1.477078 1.6288984,-1.852078 1.8632734,-2.2622344 l 0.4335938,-0.7851561 c 0.023437,-0.058594 0.082031,-0.1640625 0.1640625,-0.3046875 V 0.09323437 L 2.4023359,1.6283906 C 2.7304609,1.5112031 2.9531172,1.4174531 3.0703047,1.3237031 L 3.0234297,0.03464062 V -3.6216094 c 0.2695312,0.1992188 0.46875,0.3632813 0.5625,0.4921875 0.1171875,0.1289063 0.2109375,0.2695313 0.3046875,0.3984375 0.070312,0.1289063 0.1289062,0.234375 0.1757812,0.3398438 0.023437,0.082031 0.058594,0.140625 0.082031,0.1640625 0.1171875,0.1171875 0.234375,0.1171875 0.3398437,0 0.1171875,-0.1289063 0.1640625,-0.2695313 0.1523438,-0.421875 C 4.6288984,-2.8130156 4.5820234,-2.9536406 4.4882734,-3.0708281 4.4062422,-3.1762969 4.1835859,-3.3052031 3.8437422,-3.4692656 3.4921797,-3.6098906 3.2226484,-3.7270781 3.0234297,-3.8091094 v -1.0195312 l 1.7226562,-0.011719 c 0.1757813,0 0.2578125,-0.011719 0.2578125,-0.046875 -0.011719,-0.023437 -0.046875,-0.058594 -0.1054687,-0.1289062 L 4.2890547,-5.6372344 3.7382734,-5.0864531 H 3.0234297 v -1.7109375 l 0.3046875,-0.1992188 c 0.09375,-0.058594 0.140625,-0.09375 0.1289062,-0.140625 -0.011719,-0.011719 -0.058594,-0.058594 -0.1523437,-0.1054687 l -0.8789063,-0.4335938 0.035156,1.3710938 v 1.21875 h -1.066406 l -1.03124996,-0.023437 0.36328125,0.421875 c 0.15234375,-0.046875 0.31640621,-0.070312 0.51562501,-0.1171875 0.1992187,-0.011719 0.328125,-0.035156 0.3867187,-0.035156 h 0.703125 l -0.070312,0.3398438 c -0.070312,0.28125 -0.1640625,0.609375 -0.3046875,1.0078125 -0.1523437,0.3867187 -0.328125,0.796875 -0.5507812,1.265625 -0.2226563,0.46875 -0.44531251,0.8789062 -0.67968751,1.24218747 l -0.29296875,0.421875 c -0.046875,0.0703125 -0.10546875,0.17578125 -0.19921925,0.3046867 z M 5.2148359,-7.0434844 5.2617109,-5.6137969 V 0.03464062 L 5.2031172,1.4760469 c 0.1054687,-0.023437 0.2109375,-0.046875 0.3398437,-0.1054688 0.1054688,-0.046875 0.1757813,-0.070312 0.1992188,-0.09375 0.023437,-0.023437 0.058594,-0.046875 0.082031,-0.1054687 V 0.49167187 l 2.4375,0.0117188 V 1.4291719 c 0.3515627,-0.1054688 0.5390627,-0.1757813 0.574219,-0.1992188 0.035156,-0.035156 0.046875,-0.070312 0.082031,-0.09375 L 8.8359297,-0.23489063 V -6.0942656 l 0.3164062,-0.234375 c 0.070312,-0.046875 0.1054688,-0.082031 0.1054688,-0.082031 0,-0.011719 -0.035156,-0.058594 -0.09375,-0.1054687 L 8.4960859,-7.0669219 8.0859297,-6.5395781 h -2.0625 z m 0.609375,7.30078127 V -1.9575469 h 2.4375 v 2.20312502 z m 0,-2.42578127 v -1.9804687 h 2.4375 v 1.96875 z m 0,-2.2148437 v -1.9335938 l 2.4375,0.011719 v 1.921875 z m 8.7099611,0.9609375 -0.164063,0.328125 c -0.04687,0.082031 -0.175781,0.2695312 -0.386718,0.5390625 -0.199219,0.2929687 -0.539063,0.703125 -0.996094,1.2421875 -0.46875,0.53906247 -0.925781,0.98437497 -1.40625,1.33593747 -0.46875,0.3515625 -0.867188,0.64453125 -1.195313,0.8671875 l 0.04687,0.11718753 0.691407,-0.38671878 c 0.269531,-0.15234375 0.667968,-0.41015625 1.183593,-0.796875 0.515625,-0.38671875 0.9375,-0.76171875 1.253907,-1.10156252 0.316406,-0.3515625 0.644531,-0.703125 0.972656,-1.0898437 v 2.81249997 l -0.07031,1.19531253 c 0.07031,-0.011719 0.1875,-0.023437 0.316407,-0.082031 0.128906,-0.046875 0.246093,-0.1054687 0.328125,-0.1757812 L 15.096672,0.63229687 V -2.5786406 c 0.246094,0.4921875 0.550781,0.9609375 0.914062,1.4179687 0.363282,0.44531252 0.75,0.79687502 1.148438,1.06640627 0.410156,0.26953125 0.855469,0.52734375 1.324219,0.796875 0.152343,-0.1640625 0.304687,-0.28125 0.445312,-0.3515625 0.128906,-0.0703125 0.351563,-0.10546875 0.65625,-0.09375 v -0.09375 c -0.421875,-0.10546875 -0.738281,-0.1875 -0.9375,-0.24609375 -0.210937,-0.0703125 -0.585937,-0.22265625 -1.136719,-0.46875 -0.539062,-0.24609375 -1.007812,-0.59765622 -1.382812,-1.04296872 -0.363281,-0.4570313 -0.609375,-0.7617188 -0.691406,-0.9140625 -0.09375,-0.1640625 -0.210938,-0.375 -0.339844,-0.6328125 v -2.1445313 h 4.042969 c 0.08203,0 0.117187,0 0.128906,-0.011719 0.01172,-0.023437 -0.02344,-0.058594 -0.07031,-0.1171875 l -0.714843,-0.7148438 -0.515625,0.609375 h -2.871094 v -1.171875 l 0.644531,-0.1054687 0.761719,-0.1054688 c 0.152344,-0.023437 0.375,-0.046875 0.667969,-0.082031 l 0.328125,0.070312 c 0.128906,0.035156 0.199218,0.035156 0.199218,0 0.01172,-0.023437 -0.01172,-0.09375 -0.05859,-0.1640625 l -0.5625,-0.6328125 c -0.503907,0.234375 -1.21875,0.4335937 -2.167969,0.6210937 -0.9375,0.1640625 -2.179688,0.3515625 -3.703125,0.5273438 l 0.03516,0.1289062 c 0.152344,0.011719 0.597656,-0.011719 1.335938,-0.058594 0.714843,-0.046875 1.371093,-0.1054688 1.957031,-0.1640625 v 1.1367187 h -3.011719 l -0.914062,-0.046875 0.386718,0.421875 0.210938,-0.070312 c 0.117187,-0.046875 0.316406,-0.070312 0.621094,-0.070312 h 2.707031 z m -1.675781,0.5039062 c -0.46875,0.1523438 -0.855469,0.2695313 -1.136719,0.3398438 -0.304688,0.070312 -0.691406,0.1523437 -1.160156,0.2578125 l 0.398437,0.6210937 0.257813,-0.1757812 c 0.175781,-0.1289063 0.703125,-0.3984375 1.640625,-0.8085938 v 0.7617188 c 0.05859,-0.011719 0.164062,-0.046875 0.292968,-0.1289063 0.128907,-0.058594 0.210938,-0.1171875 0.257813,-0.1640625 l -0.02344,-0.8203125 v -1.546875 l 0.1875,-0.1171875 c 0.07031,-0.046875 0.09375,-0.082031 0.09375,-0.1054687 -0.01172,-0.011719 -0.04687,-0.023437 -0.09375,-0.058594 l -0.773437,-0.328125 0.04687,0.84375 0.01172,0.2460938 h -1.324219 l -0.667969,-0.035156 0.363281,0.3867188 c 0.164063,-0.082031 0.363282,-0.1289063 0.609375,-0.1289063 h 1.019532 z m 3.246093,-2.2382812 0.05859,0.9726562 v 1.6875 c 0,0.1171875 0.01172,0.1992188 0.01172,0.2929688 0.02344,0.09375 0.128906,0.1757812 0.304687,0.234375 0.1875,0.070312 0.492188,0.1054687 0.914063,0.1054687 0.621094,0 1.03125,-0.035156 1.21875,-0.09375 0.1875,-0.058594 0.351562,-0.1757812 0.46875,-0.3398437 0.04687,-0.070312 0.07031,-0.1289063 0.05859,-0.1523438 -0.01172,-0.035156 -0.04687,-0.070312 -0.152344,-0.1289062 -0.08203,-0.058594 -0.152344,-0.1289063 -0.175781,-0.2109375 -0.04687,-0.09375 -0.05859,-0.1992188 -0.07031,-0.3515625 -0.01172,-0.1523438 -0.02344,-0.3046875 -0.03516,-0.4804688 h -0.117188 l -0.02344,0.3046875 c 0,0.1875 -0.02344,0.3398438 -0.03516,0.4453125 -0.01172,0.1054688 -0.02344,0.1757813 -0.02344,0.234375 -0.01172,0.046875 -0.01172,0.09375 -0.03516,0.140625 -0.01172,0.046875 -0.07031,0.082031 -0.164063,0.1289063 -0.08203,0.023437 -0.339843,0.046875 -0.75,0.058594 -0.152343,0.011719 -0.316406,0 -0.515625,-0.023437 -0.1875,-0.011719 -0.292968,-0.035156 -0.328125,-0.082031 -0.01172,-0.046875 -0.02344,-0.1054688 -0.02344,-0.1992188 v -0.6445312 c 0.410156,-0.1992188 1.007812,-0.4804688 1.792969,-0.84375 h 0.257812 c 0.09375,0 0.140625,-0.011719 0.140625,-0.035156 0,-0.011719 -0.02344,-0.046875 -0.04687,-0.082031 L 18.30759,-4.8169204 c -0.304687,0.328125 -0.574218,0.5742188 -0.808593,0.75 -0.222657,0.1757813 -0.503907,0.3515625 -0.808594,0.5390625 v -1.0195312 l 0.257812,-0.1875 c 0.05859,-0.023437 0.09375,-0.058594 0.09375,-0.070312 -0.01172,-0.011719 -0.04687,-0.035156 -0.09375,-0.058594 z m 7.253907,1.8046875 -0.28125,0.3164062 c -0.246094,0.28125 -0.644532,0.6328125 -1.195313,1.03125 -0.539062,0.3984375 -1.136719,0.7382813 -1.769531,1.03125002 l 0.02344,0.140625 c 0.351563,-0.10546875 0.621094,-0.19921872 0.820313,-0.28125002 0.199219,-0.09375 0.433594,-0.1875 0.679687,-0.3164062 v 2.19140622 l -0.04687,0.92578128 0.328125,-0.1171875 c 0.08203,-0.011719 0.117188,-0.011719 0.140625,-0.035156 0.02344,0 0.07031,-0.035156 0.117188,-0.070312 V 0.73776562 h 1.464844 V 1.4526094 c 0.222656,-0.046875 0.351562,-0.082031 0.386718,-0.09375 0.04687,0 0.117188,-0.035156 0.222657,-0.070312 l -0.04687,-0.76171878 -0.01172,-1.76953122 0.210937,-0.1875 c 0.04687,-0.046875 0.07031,-0.070312 0.07031,-0.082031 0,-0.023437 -0.04687,-0.058594 -0.128906,-0.1171875 l -0.527344,-0.3632812 -0.304688,0.4101562 -1.265625,-0.011719 -0.140625,-0.082031 0.246094,-0.1757812 0.492188,-0.328125 c 0.339843,-0.2578125 0.75,-0.65625 1.21875,-1.1835938 l 1.757812,0.011719 0.421875,0.5507812 c 0.03516,0.058594 0.164063,0.1757813 0.375,0.375 0.210938,0.1757813 0.527344,0.3867188 0.9375,0.6328125 l -0.175781,0.1640625 h -1.3125 l -0.644531,-0.3398437 0.04687,0.9375 V 0.58542287 L 25.4209,1.6283916 c 0.269531,-0.070312 0.445312,-0.140625 0.550781,-0.234375 V 0.73776562 h 1.546875 V 1.4174531 l 0.08203,-0.046875 0.234375,-0.070312 c 0.07031,-0.035156 0.164063,-0.070312 0.269531,-0.140625 L 28.057609,0.45651562 V -1.2075469 l 0.117188,-0.09375 c 0.02344,-0.023437 0.04687,-0.046875 0.05859,-0.058594 0.01172,-0.023437 -0.03516,-0.070312 -0.105469,-0.1171875 0.117187,0.046875 0.339844,0.140625 0.703125,0.2929687 0.09375,-0.1757812 0.164062,-0.2929687 0.222656,-0.328125 l 0.246094,-0.1171875 c 0.09375,-0.046875 0.199219,-0.070312 0.292969,-0.070312 l 0.02344,-0.1289062 c -0.667969,-0.070312 -1.300781,-0.2109375 -1.898437,-0.4453125 -0.609375,-0.234375 -1.007813,-0.4453125 -1.195313,-0.6210938 -0.1875,-0.1757812 -0.351562,-0.328125 -0.457031,-0.4570312 h 3.128906 c 0.09375,0 0.128906,-0.011719 0.152344,-0.046875 0,-0.023437 -0.02344,-0.070312 -0.08203,-0.1171875 l -0.785157,-0.6914063 -0.46875,0.6210938 h -0.996093 c 0.117187,-0.1640625 0.1875,-0.3046875 0.1875,-0.4335938 0,-0.082031 -0.04687,-0.1875 -0.140625,-0.328125 -0.08203,-0.1171875 -0.433594,-0.2460937 -1.054688,-0.3632812 l -0.07031,0.09375 c 0.210937,0.1757812 0.375,0.3164062 0.480468,0.4453125 0.117188,0.1289062 0.222657,0.3164062 0.328125,0.5859375 h -2.496093 l 0.304687,-0.421875 0.28125,-0.3515625 c 0.03516,-0.058594 0.09375,-0.1289063 0.175781,-0.2226563 l 0.257813,-0.058594 c 0.08203,-0.011719 0.128906,-0.035156 0.140625,-0.046875 0,-0.023437 -0.04687,-0.058594 -0.140625,-0.1171875 l -0.738281,-0.46875 -0.128907,0.328125 c -0.03516,0.1054687 -0.128906,0.28125 -0.316406,0.5625 -0.152344,0.2578125 -0.339844,0.5273437 -0.539062,0.796875 H 20.94433 l -0.738281,-0.035156 0.339844,0.421875 c 0.246093,-0.1054687 0.585937,-0.1523437 0.996093,-0.1523437 z M 22.174797,0.52682812 V -1.3598906 h 1.464844 v 1.88671872 z m 3.796875,-0.0234375 V -1.4067656 h 1.546875 v 1.91015622 z m -4.40625,-7.85156252 0.04687,0.7382813 v 1.5351562 l -0.04687,0.75 0.152344,-0.035156 0.175781,-0.058594 c 0.08203,-0.035156 0.164062,-0.070312 0.246094,-0.140625 v -0.5507812 h 1.5 v 0.4921875 c 0.292968,-0.070312 0.503906,-0.140625 0.609375,-0.2109375 l -0.04687,-0.65625 v -1.1484375 l 0.210937,-0.2109375 c 0.05859,-0.035156 0.08203,-0.058594 0.08203,-0.09375 l -0.117187,-0.082031 -0.527344,-0.4101562 -0.304687,0.4335937 h -1.347657 z m 0.574219,2.0039063 v -1.4179688 h 1.5 v 1.4179688 z m 3.515625,-2.0625 0.04687,0.6914062 v 1.3125 l -0.04687,0.7148438 c 0.1875,-0.058594 0.375,-0.1289063 0.550781,-0.2109375 v -0.2109375 h 1.640625 v 0.421875 c 0.292969,-0.1054688 0.457031,-0.1640625 0.480469,-0.1757813 0.03516,-0.011719 0.07031,-0.023437 0.09375,-0.058594 l -0.04687,-0.6445313 v -1.1132812 l 0.222656,-0.1875 c 0.05859,-0.035156 0.08203,-0.070312 0.07031,-0.09375 0,-0.035156 -0.03516,-0.070312 -0.117187,-0.1289063 l -0.539063,-0.3632812 -0.292968,0.4453125 -1.347657,-0.011719 z m 0.550781,2.0625 v -1.453125 h 1.640625 v 1.453125 z m 0,0"
       style="fill:#000000;fill-opacity:1;fill-rule:nonzero;stroke:none"
       aria-label="相乘器"
       transform="matrix(1.3333333,0,0,1.3333333,106.22267,20.696)" />
    <path
       id="path8"
       d="M 42.52022,21.2601 V 8.67554"
       style="fill:none;stroke:#000000;stroke-width:0.3985;stroke-linecap:butt;stroke-linejoin:miter;stroke-miterlimit:10;stroke-dasharray:none;stroke-opacity:1"
       transform="matrix(1.3333333,0,0,-1.3333333,69.454667,130.06533)" />
    <path
       id="path9"
       d="M -1.19551,1.59401 C -1.09587,0.99626 0,0.09961 0.29886,0 0,-0.09961 -1.09587,-0.99626 -1.19551,-1.59401"
       style="fill:none;stroke:#000000;stroke-width:0.31879;stroke-linecap:round;stroke-linejoin:round;stroke-miterlimit:10;stroke-dasharray:none;stroke-opacity:1"
       transform="matrix(0,1.3333333,1.3333333,0,126.14829,118.49795)" />
    <g
       id="g9"
       aria-label="sinω&#10;0&#10;t"
       transform="matrix(1.3333333,0,0,1.3333333,107.37333,95.033333)">
      <path
         id="path10"
         d="m 3.5871875,-1.2759766 c 0,-0.5273437 -0.2929688,-0.8203125 -0.421875,-0.9492187 -0.328125,-0.3164063 -0.7148438,-0.3984375 -1.1367188,-0.46875 -0.5507812,-0.1171875 -1.21874995,-0.2460938 -1.21874995,-0.8203125 0,-0.3515625 0.25781245,-0.7617188 1.11328125,-0.7617188 1.1015625,0 1.1484375,0.9023438 1.171875,1.2070313 0,0.09375 0.1171875,0.09375 0.1171875,0.09375 0.1289062,0 0.1289062,-0.046875 0.1289062,-0.2460938 v -0.9960937 c 0,-0.1757813 0,-0.2460938 -0.1171875,-0.2460938 -0.046875,0 -0.070312,0 -0.1992187,0.1171875 -0.023437,0.046875 -0.1289063,0.1289063 -0.1640625,0.1640625 -0.375,-0.28125 -0.7851563,-0.28125 -0.9375,-0.28125 -1.21875,0 -1.59375,0.6679688 -1.59375,1.2304688 0,0.3398437 0.1640625,0.6210937 0.43359375,0.84375 0.31640625,0.2578125 0.59765625,0.3164062 1.31249995,0.4570312 0.2226563,0.035156 1.03125,0.1992188 1.03125,0.9140625 0,0.51562504 -0.3515625,0.91406254 -1.125,0.91406254 -0.8320312,0 -1.19531245,-0.57421875 -1.38281245,-1.41796874 C 0.56375,-1.6509766 0.56375,-1.6978516 0.45828125,-1.6978516 c -0.12890625,0 -0.12890625,0.070312 -0.12890625,0.2578125 v 1.31250004 c 0,0.1640625 0,0.234375 0.10546875,0.234375 0.0585938,0 0.0703125,0 0.2578125,-0.19921875 0.0117188,-0.01171875 0.0117188,-0.03515625 0.19921875,-0.22265625 0.4335937,0.421875 0.8789062,0.421875 1.0898437,0.421875 1.1484375,0 1.6054688,-0.66796875 1.6054688,-1.38281254 z m 2.7978516,1.27734379 v -0.3046875 c -0.65625,0 -0.703125,-0.0585938 -0.703125,-0.4453125 V -4.4048828 l -1.3945313,0.1171875 v 0.3046875 c 0.65625,0 0.7382813,0.058594 0.7382813,0.5507812 v 2.67187504 c 0,0.45703125 -0.1054688,0.45703125 -0.7734375,0.45703125 v 0.3046875 l 1.1015625,-0.03515625 c 0.3398437,0 0.6914062,0.0234375 1.03125,0.03515625 z M 5.8342578,-6.0103516 c 0,-0.2695312 -0.2226562,-0.5273437 -0.5273437,-0.5273437 -0.3398438,0 -0.5390625,0.2695312 -0.5390625,0.5273437 0,0.2695313 0.234375,0.5273438 0.5273437,0.5273438 0.3398438,0 0.5390625,-0.28125 0.5390625,-0.5273438 z m 6.1933592,6.01171879 v -0.3046875 c -0.515625,0 -0.773437,0 -0.785156,-0.3046875 V -2.5064453 c 0,-0.8554688 0,-1.171875 -0.304688,-1.5234375 -0.140625,-0.1757813 -0.46875,-0.375 -1.0429683,-0.375 -0.7265625,0 -1.1953125,0.4335937 -1.4765625,1.0546875 v -1.0546875 l -1.40625,0.1171875 v 0.3046875 c 0.703125,0 0.7851562,0.070312 0.7851562,0.5625 v 2.66015624 c 0,0.45703125 -0.1171875,0.45703125 -0.7851562,0.45703125 v 0.3046875 l 1.125,-0.03515625 1.1132812,0.03515625 v -0.3046875 c -0.65625,0 -0.7734375,0 -0.7734375,-0.45703125 V -2.5884766 c 0,-1.03125 0.7148438,-1.59375 1.3476563,-1.59375 0.6210938,0 0.7382808,0.5390625 0.7382808,1.1015625 v 2.32031254 c 0,0.45703125 -0.117187,0.45703125 -0.7734371,0.45703125 v 0.3046875 l 1.1250001,-0.03515625 z m 0,0"
         style="fill:#000000;fill-opacity:1;fill-rule:nonzero;stroke:none" />
      <path
         id="path11"
         d="m 19.917266,-3.7017578 c 0,-0.4453125 -0.175782,-0.703125 -0.398438,-0.703125 -0.257812,0 -0.527344,0.2460937 -0.527344,0.46875 0,0.1054687 0.04687,0.2109375 0.152344,0.3046875 0.164063,0.140625 0.351563,0.4101562 0.351563,0.8320312 0,0.3984375 -0.1875,0.9726563 -0.503907,1.4296875 -0.292968,0.42187504 -0.667968,0.76171879 -1.136718,0.76171879 -0.5625,0 -0.867188,-0.3515625 -0.960938,-0.89062499 0.105469,-0.2578125 0.339844,-0.9023438 0.339844,-1.1835938 0,-0.1171875 -0.04687,-0.2109375 -0.1875,-0.2109375 -0.07031,0 -0.1875,0.011719 -0.257813,0.1640625 -0.117187,0.1992188 -0.234375,0.84375 -0.234375,1.2070313 -0.328125,0.46875 -0.726562,0.91406249 -1.359375,0.91406249 -0.65625,0 -0.867187,-0.58593749 -0.867187,-1.14843749 0,-1.2421875 1.019531,-2.2851563 1.019531,-2.4140625 0,-0.1171875 -0.08203,-0.1875 -0.1875,-0.1875 -0.128906,0 -0.199219,0.1289062 -0.257812,0.2109375 -0.503907,0.7382812 -0.890625,1.921875 -0.890625,2.8359375 0,0.67968749 0.234375,1.41796874 1.042968,1.41796874 0.714844,0 1.183594,-0.4921875 1.535157,-1.04296875 0.09375,0.57421875 0.480468,1.04296875 1.101562,1.04296875 0.773438,0 1.253906,-0.609375 1.617188,-1.34765624 0.234375,-0.4921875 0.609375,-1.8515625 0.609375,-2.4609375 z m 0,0"
         style="fill:#000000;fill-opacity:1;fill-rule:nonzero;stroke:none" />
      <path
         id="path12"
         d="m 23.693633,-0.73105469 c 0,-0.76171871 -0.09375,-1.31250001 -0.410156,-1.80468751 -0.222657,-0.3164062 -0.644532,-0.5976562 -1.207032,-0.5976562 -1.617187,0 -1.617187,1.8984375 -1.617187,2.40234371 0,0.50390625 0,2.36718749 1.617187,2.36718749 1.617188,0 1.617188,-1.86328124 1.617188,-2.36718749 z M 22.076445,1.4369141 c -0.316406,0 -0.75,-0.1875 -0.890625,-0.76171879 -0.09375,-0.41015625 -0.09375,-0.984375 -0.09375,-1.5 0,-0.50390621 0,-1.03125001 0.105469,-1.41796871 0.152344,-0.5507813 0.597656,-0.6914063 0.878906,-0.6914063 0.375,0 0.738282,0.2226563 0.867188,0.6328125 0.105469,0.375 0.117187,0.8789063 0.117187,1.47656251 0,0.515625 0,1.04296875 -0.09375,1.4765625 C 22.826445,1.2845703 22.357695,1.4369141 22.076445,1.4369141 Z m 0,0"
         style="fill:#000000;fill-opacity:1;fill-rule:nonzero;stroke:none" />
      <path
         id="path13"
         d="m 26.614531,-3.9830078 h 0.9375 c 0.199219,0 0.304688,0 0.304688,-0.1992188 0,-0.1054687 -0.105469,-0.1054687 -0.28125,-0.1054687 h -0.878907 c 0.363282,-1.4179688 0.410157,-1.6171875 0.410157,-1.6757813 0,-0.1757812 -0.117188,-0.2695312 -0.292969,-0.2695312 -0.02344,0 -0.304688,0.011719 -0.398438,0.3515625 l -0.386718,1.59375 h -0.9375 c -0.199219,0 -0.292969,0 -0.292969,0.1875 0,0.1171875 0.07031,0.1171875 0.269531,0.1171875 h 0.878906 c -0.714843,2.8242187 -0.75,2.99999999 -0.75,3.17578124 0,0.5390625 0.375,0.9140625 0.914063,0.9140625 1.007812,0 1.582031,-1.45312504 1.582031,-1.53515624 0,-0.09375 -0.08203,-0.09375 -0.117187,-0.09375 -0.09375,0 -0.105469,0.023437 -0.152344,0.140625 -0.433594,1.03124999 -0.960938,1.27734374 -1.300781,1.27734374 -0.199219,0 -0.304688,-0.12890625 -0.304688,-0.45703125 0,-0.24609375 0.02344,-0.31640625 0.05859,-0.48046879 z m 0,0"
         style="fill:#000000;fill-opacity:1;fill-rule:nonzero;stroke:none" />
    </g>
    <path
       id="path14"
       d="M 42.52022,63.78032 V 76.3649"
       style="fill:none;stroke:#000000;stroke-width:0.3985;stroke-linecap:butt;stroke-linejoin:miter;stroke-miterlimit:10;stroke-dasharray:none;stroke-opacity:1"
       transform="matrix(1.3333333,0,0,-1.3333333,69.454667,130.06533)" />
    <path
       id="path15"
       d="M -1.19551,1.59401 C -1.09587,0.99626 0,0.09961 0.29886,0 0,-0.09961 -1.09587,-0.99626 -1.19551,-1.59401"
       style="fill:none;stroke:#000000;stroke-width:0.31879;stroke-linecap:round;stroke-linejoin:round;stroke-miterlimit:10;stroke-dasharray:none;stroke-opacity:1"
       transform="matrix(0,-1.3333333,-1.3333333,0,126.14829,28.245467)" />
    <g
       id="g15"
       aria-label="sin(ω&#10;0&#10;t+φ)"
       transform="matrix(1.3333333,0,0,1.3333333,89.744,59.681333)">
      <path
         id="path16"
         d="m 3.5845781,-1.2785781 c 0,-0.5273438 -0.2929687,-0.8203125 -0.421875,-0.9492188 -0.328125,-0.3164062 -0.7148437,-0.3984375 -1.1367187,-0.46875 -0.5507813,-0.1171875 -1.21875002,-0.2460937 -1.21875002,-0.8203125 0,-0.3515625 0.25781252,-0.7617187 1.11328122,-0.7617187 1.1015625,0 1.1484375,0.9023437 1.171875,1.2070312 0,0.09375 0.1171875,0.09375 0.1171875,0.09375 0.1289063,0 0.1289063,-0.046875 0.1289063,-0.2460937 v -0.9960938 c 0,-0.1757812 0,-0.2460937 -0.1171875,-0.2460937 -0.046875,0 -0.070312,0 -0.1992188,0.1171875 -0.023437,0.046875 -0.1289062,0.1289062 -0.1640625,0.1640625 -0.375,-0.28125 -0.7851562,-0.28125 -0.9375,-0.28125 -1.21874997,0 -1.59374997,0.6679687 -1.59374997,1.2304687 0,0.3398438 0.1640625,0.6210938 0.43359375,0.84375 0.31640622,0.2578125 0.59765622,0.3164063 1.31250002,0.4570313 0.2226562,0.035156 1.03125,0.1992187 1.03125,0.9140625 0,0.51562497 -0.3515625,0.91406247 -1.125,0.91406247 -0.8320313,0 -1.19531252,-0.57421875 -1.38281252,-1.41796877 -0.0351563,-0.1289062 -0.0351563,-0.1757812 -0.140625,-0.1757812 -0.12890625,0 -0.12890625,0.070312 -0.12890625,0.2578125 v 1.31249997 c 0,0.1640625 0,0.234375 0.10546875,0.234375 0.0585938,0 0.0703125,0 0.2578125,-0.19921875 0.0117188,-0.01171875 0.0117188,-0.03515625 0.19921875,-0.22265625 0.43359377,0.421875 0.87890627,0.421875 1.08984377,0.421875 1.1484375,0 1.6054687,-0.66796875 1.6054687,-1.38281247 z m 2.8007813,1.27734372 v -0.3046875 c -0.65625,0 -0.703125,-0.0585938 -0.703125,-0.4453125 V -4.4074844 l -1.3945313,0.1171875 v 0.3046875 c 0.65625,0 0.7382813,0.058594 0.7382813,0.5507813 v 2.67187497 c 0,0.45703125 -0.1054688,0.45703125 -0.7734375,0.45703125 v 0.3046875 l 1.1015625,-0.03515625 c 0.3398437,0 0.6914062,0.0234375 1.03125,0.03515625 z M 5.8345781,-6.0129531 c 0,-0.2695313 -0.2226562,-0.5273438 -0.5273437,-0.5273438 -0.3398438,0 -0.5390625,0.2695313 -0.5390625,0.5273438 0,0.2695312 0.234375,0.5273437 0.5273437,0.5273437 0.3398438,0 0.5390625,-0.28125 0.5390625,-0.5273437 z m 6.1933599,6.01171872 v -0.3046875 c -0.515625,0 -0.773438,0 -0.785157,-0.3046875 V -2.5090469 c 0,-0.8554687 0,-1.171875 -0.304687,-1.5234375 -0.140625,-0.1757812 -0.46875,-0.375 -1.042969,-0.375 -0.7265625,0 -1.1953125,0.4335938 -1.4765625,1.0546875 v -1.0546875 l -1.40625,0.1171875 v 0.3046875 c 0.703125,0 0.7851563,0.070312 0.7851563,0.5625 v 2.66015627 c 0,0.45703125 -0.1171875,0.45703125 -0.7851563,0.45703125 v 0.3046875 l 1.125,-0.03515625 1.1132813,0.03515625 v -0.3046875 c -0.65625,0 -0.7734375,0 -0.7734375,-0.45703125 V -2.5910781 c 0,-1.03125 0.7148437,-1.59375 1.3476562,-1.59375 0.6210935,0 0.7382815,0.5390625 0.7382815,1.1015625 v 2.32031247 c 0,0.45703125 -0.117188,0.45703125 -0.7734377,0.45703125 v 0.3046875 l 1.1249997,-0.03515625 z m 0,0"
         style="fill:#000000;fill-opacity:1;fill-rule:nonzero;stroke:none" />
      <path
         id="path17"
         d="m 17.187117,2.3893906 c 0,-0.035156 0,-0.046875 -0.164062,-0.2226562 -1.242188,-1.25390628 -1.570313,-3.12890628 -1.570313,-4.6640625 0,-1.7226563 0.386719,-3.4570313 1.605469,-4.7109375 0.128906,-0.1171875 0.128906,-0.1289063 0.128906,-0.1640625 0,-0.070312 -0.03516,-0.1054688 -0.09375,-0.1054688 -0.105469,0 -0.996094,0.6796875 -1.582031,1.9453125 -0.515625,1.1015625 -0.632813,2.203125 -0.632813,3.0351563 0,0.7851562 0.117188,1.99218747 0.65625,3.11718747 0.597657,1.21875003 1.453125,1.87500003 1.558594,1.87500003 0.05859,0 0.09375,-0.035156 0.09375,-0.1054688 z m 0,0"
         style="fill:#000000;fill-opacity:1;fill-rule:nonzero;stroke:none" />
      <path
         id="path18"
         d="m 23.790633,-3.7043594 c 0,-0.4453125 -0.175781,-0.703125 -0.398438,-0.703125 -0.257812,0 -0.527343,0.2460938 -0.527343,0.46875 0,0.1054688 0.04687,0.2109375 0.152343,0.3046875 0.164063,0.140625 0.351563,0.4101563 0.351563,0.8320313 0,0.3984375 -0.1875,0.9726562 -0.503906,1.4296875 -0.292969,0.42187497 -0.667969,0.76171872 -1.136719,0.76171872 -0.5625,0 -0.867188,-0.3515625 -0.960938,-0.89062502 0.105469,-0.2578125 0.339844,-0.9023437 0.339844,-1.1835937 0,-0.1171875 -0.04687,-0.2109375 -0.1875,-0.2109375 -0.07031,0 -0.1875,0.011719 -0.257812,0.1640625 -0.117188,0.1992187 -0.234375,0.84375 -0.234375,1.2070312 -0.328125,0.46875 -0.726563,0.91406252 -1.359375,0.91406252 -0.65625,0 -0.867188,-0.58593752 -0.867188,-1.14843752 0,-1.2421875 1.019531,-2.2851562 1.019531,-2.4140625 0,-0.1171875 -0.08203,-0.1875 -0.1875,-0.1875 -0.128906,0 -0.199218,0.1289063 -0.257812,0.2109375 -0.503906,0.7382813 -0.890625,1.921875 -0.890625,2.8359375 0,0.67968752 0.234375,1.41796877 1.042969,1.41796877 0.714843,0 1.183593,-0.4921875 1.535156,-1.04296875 0.09375,0.57421875 0.480469,1.04296875 1.101562,1.04296875 0.773438,0 1.253907,-0.609375 1.617188,-1.34765627 0.234375,-0.4921875 0.609375,-1.8515625 0.609375,-2.4609375 z m 0,0"
         style="fill:#000000;fill-opacity:1;fill-rule:nonzero;stroke:none" />
      <path
         id="path19"
         d="m 27.567,-0.73072656 c 0,-0.76171874 -0.09375,-1.31250004 -0.410156,-1.80468754 -0.222656,-0.3164062 -0.644531,-0.5976562 -1.207031,-0.5976562 -1.617188,0 -1.617188,1.8984375 -1.617188,2.40234374 0,0.50390625 0,2.36718746 1.617188,2.36718746 1.617187,0 1.617187,-1.86328121 1.617187,-2.36718746 z M 25.949813,1.4372422 c -0.316407,0 -0.75,-0.1875 -0.890625,-0.76171876 -0.09375,-0.41015625 -0.09375,-0.984375 -0.09375,-1.5 0,-0.50390624 0,-1.03125004 0.105468,-1.41796874 0.152344,-0.5507813 0.597657,-0.6914063 0.878907,-0.6914063 0.375,0 0.738281,0.2226563 0.867187,0.6328125 0.105469,0.375 0.117188,0.8789063 0.117188,1.47656254 0,0.515625 0,1.04296875 -0.09375,1.4765625 C 26.699813,1.2848984 26.231063,1.4372422 25.949813,1.4372422 Z m 0,0"
         style="fill:#000000;fill-opacity:1;fill-rule:nonzero;stroke:none" />
      <path
         id="path20"
         d="m 30.490828,-3.9856094 h 0.9375 c 0.199219,0 0.304688,0 0.304688,-0.1992187 0,-0.1054688 -0.105469,-0.1054688 -0.28125,-0.1054688 h -0.878907 c 0.363282,-1.4179687 0.410157,-1.6171875 0.410157,-1.6757812 0,-0.1757813 -0.117188,-0.2695313 -0.292969,-0.2695313 -0.02344,0 -0.304688,0.011719 -0.398438,0.3515625 l -0.386718,1.59375 h -0.9375 c -0.199219,0 -0.292969,0 -0.292969,0.1875 0,0.1171875 0.07031,0.1171875 0.269531,0.1171875 h 0.878906 c -0.714843,2.8242188 -0.75,3.00000002 -0.75,3.17578127 0,0.5390625 0.375,0.9140625 0.914063,0.9140625 1.007812,0 1.582031,-1.45312497 1.582031,-1.53515627 0,-0.09375 -0.08203,-0.09375 -0.117187,-0.09375 -0.09375,0 -0.105469,0.023437 -0.152344,0.140625 -0.433594,1.03125002 -0.960938,1.27734377 -1.300781,1.27734377 -0.199219,0 -0.304688,-0.12890625 -0.304688,-0.45703125 0,-0.24609375 0.02344,-0.31640625 0.05859,-0.48046872 z m 0,0"
         style="fill:#000000;fill-opacity:1;fill-rule:nonzero;stroke:none" />
      <path
         id="path21"
         d="m 38.327742,-2.2981094 h 2.777344 c 0.140625,0 0.328125,0 0.328125,-0.1992187 0,-0.1992188 -0.1875,-0.1992188 -0.328125,-0.1992188 h -2.777344 v -2.7890625 c 0,-0.1289062 0,-0.328125 -0.199219,-0.328125 -0.199218,0 -0.199218,0.1992188 -0.199218,0.328125 v 2.7890625 h -2.789063 c -0.140625,0 -0.328125,0 -0.328125,0.1992188 0,0.1992187 0.1875,0.1992187 0.328125,0.1992187 h 2.789063 v 2.80078127 c 0,0.12890625 0,0.328125 0.199218,0.328125 0.199219,0 0.199219,-0.19921875 0.199219,-0.328125 z m 0,0"
         style="fill:#000000;fill-opacity:1;fill-rule:nonzero;stroke:none" />
      <path
         id="path22"
         d="m 45.912703,1.6979844 c -0.04687,0.1289062 -0.05859,0.140625 -0.05859,0.1992187 0,0.2109375 0.1875,0.2695313 0.292969,0.2695313 0.04687,0 0.269531,-0.023437 0.363281,-0.2578125 0.03516,-0.082031 0.08203,-0.4101563 0.351563,-1.81640628 0.09375,0.01171875 0.164062,0.01171875 0.328125,0.01171875 1.652344,0 3.1875,-1.55859377 3.1875,-3.12890627 0,-0.7851562 -0.386719,-1.3828125 -1.136719,-1.3828125 -1.441406,0 -2.039062,1.9335938 -2.636719,3.87890627 -1.078125,-0.19921875 -1.628906,-0.76171877 -1.628906,-1.47656247 0,-0.28125 0.222656,-1.3710938 0.820313,-2.0625 0.08203,-0.082031 0.08203,-0.1054688 0.08203,-0.1289063 0,-0.035156 -0.02344,-0.09375 -0.117188,-0.09375 -0.28125,0 -1.042968,1.4414063 -1.042968,2.390625 0,0.93750002 0.65625,1.66406252 1.722656,1.92187502 z m 1.371094,-2.16796878 c -0.08203,0 -0.105469,0 -0.175781,-0.0117188 -0.128907,0 -0.140625,-0.0117188 -0.140625,-0.0351563 0,-0.0234375 0.175781,-0.92578122 0.199218,-1.07812502 0.316407,-1.2773437 1.089844,-2.2265625 1.980469,-2.2265625 0.679688,0 0.949219,0.5273438 0.949219,1.0078125 0,1.125 -1.277344,2.34375002 -2.8125,2.34375012 z m 0,0"
         style="fill:#000000;fill-opacity:1;fill-rule:nonzero;stroke:none" />
      <path
         id="path23"
         d="m 53.611922,-2.4973281 c 0,-0.7734375 -0.117188,-1.9804688 -0.65625,-3.1054688 -0.597656,-1.21875 -1.464844,-1.875 -1.558594,-1.875 -0.05859,0 -0.105469,0.046875 -0.105469,0.1054688 0,0.035156 0,0.046875 0.199219,0.234375 0.972656,0.984375 1.535156,2.5664062 1.535156,4.640625 0,1.71093747 -0.363281,3.45703122 -1.59375,4.7226562 -0.140625,0.1171875 -0.140625,0.1289063 -0.140625,0.1640625 0,0.058594 0.04687,0.1054688 0.105469,0.1054688 0.09375,0 0.996094,-0.6796875 1.582031,-1.94531253 0.503907,-1.1015625 0.632813,-2.20312497 0.632813,-3.04687497 z m 0,0"
         style="fill:#000000;fill-opacity:1;fill-rule:nonzero;stroke:none" />
    </g>
    <path
       id="path24"
       d="m 0,0 h 24.05624 m 36.92795,0 h 45.31635 v 33.85962"
       style="fill:none;stroke:#000000;stroke-width:0.3985;stroke-linecap:butt;stroke-linejoin:miter;stroke-miterlimit:10;stroke-dasharray:none;stroke-opacity:1"
       transform="matrix(1.3333333,0,0,-1.3333333,69.454667,130.06533)" />
    <path
       id="path25"
       d="M -1.19551,1.59401 C -1.09587,0.99626 0,0.09961 0.29886,0 0,-0.09961 -1.09587,-0.99626 -1.19551,-1.59401"
       style="fill:none;stroke:#000000;stroke-width:0.31879;stroke-linecap:round;stroke-linejoin:round;stroke-miterlimit:10;stroke-dasharray:none;stroke-opacity:1"
       transform="matrix(0,-1.3333333,-1.3333333,0,211.18872,84.919173)" />
    <g
       id="g25"
       aria-label="Q路信号"
       transform="matrix(1.3333333,0,0,1.3333333,10.152,133.95733)">
      <path
         id="path26"
         d="m 7.2424453,0.10524219 c 0,-0.1054687525 0,-0.2109375 -0.1054687,-0.2109375 -0.09375,0 -0.1054688,0.0703125 -0.1171875,0.17578125 -0.058594,0.5390625 -0.4804688,0.83203125 -0.9023438,0.83203125 -0.46875,0 -0.7148437,-0.33984375 -0.9609375,-0.97265625 1.1835938,-0.52734375 2.0273438,-1.80468754 2.0273438,-3.30468754 0,-2.0390625 -1.5,-3.6445312 -3.3164063,-3.6445312 -1.78125,0 -3.30468749,1.59375 -3.30468749,3.6445312 0,2.015625 1.49999999,3.59765629 3.31640629,3.59765629 0.3046875,0 0.65625,-0.0585938 0.9375,-0.15234375 0.1523437,0.94921876 0.2929687,1.86328126 1.21875,1.86328126 1.0195312,0 1.2070312,-1.32421876 1.2070312,-1.82812501 z M 6.1877578,-3.3752266 c 0,0.7734375 -0.1171875,2.1796875 -1.171875,2.95312504 -0.2226562,-0.55078125 -0.5390625,-1.05468754 -1.125,-1.05468754 -0.515625,0 -0.8203125,0.4335938 -0.8203125,0.84375004 0,0.26953125 0.1289063,0.45703125 0.140625,0.46875 C 2.6721328,-0.36350781 1.5588516,-1.0900703 1.5588516,-3.3752266 c 0,-2.5898437 1.3945312,-3.3984375 2.3085937,-3.3984375 0.9609375,0 2.3203125,0.8554688 2.3203125,3.3984375 z m -1.4414062,3.11718754 c -0.328125,0.1875 -0.65625,0.22265625 -0.8671875,0.22265625 -0.515625,0 -0.5859375,-0.45703125 -0.5859375,-0.59765625 0,-0.29296875 0.1992187,-0.62109374 0.5976562,-0.62109374 0.5273438,0 0.75,0.42187499 0.8554688,0.99609374 z m 0,0"
         style="fill:#000000;fill-opacity:1;fill-rule:nonzero;stroke:none" />
      <path
         id="path27"
         d="m 11.32643,0.65602344 0.503906,0.71484376 c 0.1875,-0.1640625 0.527344,-0.3515625 1.019531,-0.57421876 0.503906,-0.22265625 1.382813,-0.62109375 2.660156,-1.20703125 l -0.08203,-0.140625 -1.417969,0.43359375 V -2.1564766 h 1.324219 c 0.08203,0 0.128906,0 0.140625,-0.023437 0.01172,-0.023437 -0.02344,-0.070312 -0.105469,-0.1640625 l -0.574218,-0.5859375 -0.433594,0.5390625 h -0.351563 v -1.7695312 h 0.445313 v 0.3398437 c 0.246094,-0.046875 0.457031,-0.1289062 0.632812,-0.2695312 l -0.04687,-0.609375 v -1.6171875 l 0.246094,-0.2109375 c 0.07031,-0.058594 0.117188,-0.09375 0.105469,-0.1054688 0,-0.023437 -0.04687,-0.058594 -0.140625,-0.1289062 l -0.609375,-0.375 -0.328125,0.4453125 h -1.417969 l -0.65625,-0.3867188 0.07031,0.9023438 v 1.4765625 l -0.05859,1.0546875 c 0.175781,-0.046875 0.375,-0.1523438 0.597656,-0.2929688 v -0.2226562 h 0.644531 V 0.03492969 L 12.627211,0.30446094 V -2.6135078 l 0.222656,-0.1757813 c 0.04687,-0.035156 0.07031,-0.058594 0.07031,-0.1054687 0,-0.011719 -0.03516,-0.058594 -0.105469,-0.082031 l -0.796875,-0.375 0.07031,1.1367188 v 2.69531249 c -0.257812,0.0703125 -0.503906,0.12890625 -0.761718,0.17578125 z m 1.523437,-5.03906254 v -2.0742187 h 1.605469 v 2.0742187 z m 4.652344,0.4921875 c -0.210938,0.2460938 -0.550781,0.5859375 -1.019531,0.9960938 -0.457032,0.421875 -1.113282,0.9023437 -1.980469,1.4296875 l 0.05859,0.1171875 0.597656,-0.28125 c 0.140625,-0.070312 0.480469,-0.2578125 0.996094,-0.5625 l 0.04687,0.9960937 V 0.46852344 L 16.154555,1.5349297 C 16.377211,1.4997734 16.57643,1.4294609 16.752211,1.3122734 V 0.58571094 h 2.015625 V 1.4528984 c 0.257812,-0.070312 0.480469,-0.1523437 0.644531,-0.2460937 L 19.365492,0.21071094 V -1.6760078 l 0.210938,-0.1992188 0.07031,-0.023437 c 0.01172,-0.035156 -0.01172,-0.058594 -0.07031,-0.1171875 l -0.621094,-0.4570312 -0.328125,0.421875 h -1.652344 l -0.550781,-0.3046875 c 0.433594,-0.3046875 0.925781,-0.6796875 1.476562,-1.1484375 0.539063,0.46875 1.207032,0.890625 2.015625,1.2890625 0.128907,-0.1640625 0.234375,-0.28125 0.339844,-0.3515625 0.08203,-0.058594 0.269531,-0.1054688 0.539063,-0.1289063 v -0.140625 c -0.351563,-0.035156 -0.726563,-0.1171875 -1.125,-0.2460937 -0.398438,-0.1289063 -0.902344,-0.4101563 -1.488282,-0.8320313 0.246094,-0.328125 0.457032,-0.6210937 0.621094,-0.8789062 l 0.375,-0.5859375 c 0.05859,-0.09375 0.164063,-0.234375 0.292969,-0.421875 l 0.292969,-0.1875 c 0.05859,-0.023437 0.09375,-0.046875 0.105468,-0.082031 0,-0.023437 -0.03516,-0.058594 -0.117187,-0.1054687 l -0.75,-0.4804688 -0.304688,0.4804688 h -1.675781 c 0.128906,-0.234375 0.292969,-0.5039063 0.457031,-0.84375 l 0.210938,-0.070312 c 0.07031,-0.035156 0.117187,-0.046875 0.117187,-0.070312 0.01172,-0.023437 -0.05859,-0.082031 -0.222656,-0.1757813 l -0.679687,-0.3398437 -0.04687,0.328125 c -0.02344,0.1171875 -0.07031,0.3164062 -0.175782,0.5976562 -0.07031,0.2695313 -0.175781,0.5390625 -0.292968,0.796875 -0.105469,0.2460938 -0.257813,0.5625 -0.445313,0.9375 -0.1875,0.375 -0.386719,0.7148438 -0.585937,1.0078125 l 0.128906,0.1171875 c 0.527344,-0.6914062 0.820312,-1.1015625 0.890625,-1.2070312 0.07031,-0.1171875 0.175781,-0.28125 0.316406,-0.515625 0.128906,0.375 0.257813,0.6914062 0.375,0.9492187 0.128906,0.2460938 0.269531,0.515625 0.433594,0.7734375 z m -0.75,4.25390629 V -1.8283516 h 2.015625 v 2.19140629 z m 1.03125,-4.61718749 c -0.175781,-0.2109375 -0.351563,-0.46875 -0.503906,-0.7617188 -0.164063,-0.28125 -0.257813,-0.46875 -0.292969,-0.5390625 -0.02344,-0.082031 -0.05859,-0.1875 -0.105469,-0.3046875 l 0.04687,-0.082031 h 1.792969 l -0.128906,0.328125 c -0.105469,0.2460937 -0.375,0.6914062 -0.808594,1.359375 z m 3.550781,1.5585937 0.07031,0.070312 c 0.128906,-0.09375 0.28125,-0.2460937 0.457031,-0.4453125 0.175781,-0.1992187 0.527344,-0.6328125 1.042969,-1.3125 V 0.05836719 L 22.834242,1.6286797 C 22.998305,1.5935234 23.13893,1.5583672 23.220961,1.4997734 23.32643,1.4528984 23.42018,1.3708672 23.537367,1.2888359 L 23.490492,0.19899219 V -4.6642891 l 0.269531,-0.1289062 c 0.05859,-0.023437 0.09375,-0.046875 0.09375,-0.082031 0,-0.023437 -0.03516,-0.058594 -0.09375,-0.082031 l -0.421875,-0.2109375 0.316407,-0.5273438 0.433593,-0.84375 c 0.05859,-0.1171875 0.164063,-0.2929687 0.292969,-0.5390625 l 0.269531,-0.082031 c 0.07031,-0.023437 0.105469,-0.046875 0.105469,-0.058594 -0.01172,-0.023437 -0.04687,-0.058594 -0.117187,-0.09375 l -0.820313,-0.4570312 c -0.210937,0.75 -0.46875,1.4765625 -0.773437,2.1796875 -0.316407,0.703125 -0.65625,1.3242187 -1.019532,1.8515625 -0.363281,0.5273437 -0.585937,0.8789062 -0.691406,1.0429682 z m 2.964844,-3.3515625 0.316406,0.3984375 c 0.28125,-0.09375 0.585938,-0.140625 0.925781,-0.140625 h 5.039063 c 0.117187,0 0.175781,-0.011719 0.175781,-0.035156 0.01172,-0.035156 -0.01172,-0.082031 -0.09375,-0.1640625 l -0.667969,-0.6210938 -0.492187,0.5976563 H 27.45143 l 0.164062,-0.1992188 c 0.05859,-0.046875 0.09375,-0.1757812 0.105469,-0.375 0,-0.1992187 -0.117188,-0.3984375 -0.375,-0.5859375 -0.269531,-0.1875 -0.5625,-0.3632812 -0.867188,-0.5390625 l -0.05859,0.070312 c 0.199218,0.234375 0.339843,0.421875 0.410156,0.5390625 0.07031,0.1171875 0.128906,0.28125 0.152344,0.46875 l 0.05859,0.421875 c 0,0.058594 0.01172,0.09375 0.02344,0.1171875 0.01172,0.011719 0.04687,0.046875 0.08203,0.082031 h -1.96875 z m 0.492187,1.40625 0.351563,0.4101563 c 0.304687,-0.1054688 0.621094,-0.1523438 0.925781,-0.1523438 h 3.726563 c 0.07031,0 0.105468,-0.011719 0.117187,-0.023437 0.01172,-0.011719 -0.02344,-0.070312 -0.117187,-0.1523437 l -0.574219,-0.5742188 -0.480469,0.515625 h -3.222656 z m 0.445313,1.8515625 c 0.175781,-0.058594 0.363281,-0.1054687 0.574219,-0.1289062 0.210937,-0.035156 0.363281,-0.035156 0.445312,-0.035156 h 3.539063 c 0.04687,0 0.09375,-0.011719 0.105468,-0.046875 0.01172,-0.023437 0,-0.058594 -0.05859,-0.1054687 l -0.679688,-0.5859375 -0.445312,0.515625 H 25.76393 l -0.890625,-0.046875 z m 0.667969,0.9609375 -0.761719,-0.4335937 0.04687,0.7851562 v 1.91015629 l -0.04687,1.18359371 0.164062,-0.023437 0.164063,-0.082031 c 0.128906,-0.035156 0.199219,-0.070312 0.222656,-0.082031 0.01172,0 0.03516,-0.046875 0.08203,-0.09375 V 0.43336719 h 2.964844 V 1.4763359 c 0.257813,-0.011719 0.421875,-0.046875 0.492188,-0.09375 0.07031,-0.046875 0.128906,-0.09375 0.175781,-0.1523437 L 29.349867,0.28102344 V -1.4299141 l 0.257813,-0.1640625 c 0.07031,-0.046875 0.105468,-0.09375 0.105468,-0.1171875 0,-0.023437 -0.02344,-0.046875 -0.09375,-0.1054687 l -0.609375,-0.4453125 -0.351562,0.4335937 z M 25.775648,0.19899219 V -1.5822578 h 2.964844 v 1.78124999 z m 9.249024,-3.42187499 h 5.496094 c 0.04687,0 0.07031,0 0.08203,-0.023437 0.01172,-0.023437 -0.01172,-0.046875 -0.03516,-0.09375 l -0.738282,-0.7265625 -0.539062,0.5976562 h -7.007813 l -1.089843,-0.023437 0.46875,0.4453125 0.222656,-0.09375 c 0.09375,-0.046875 0.292969,-0.082031 0.609375,-0.082031 h 1.851562 l -0.1875,0.3984375 c -0.128906,0.2695312 -0.222656,0.46875 -0.316406,0.5742187 -0.09375,0.1171875 -0.164062,0.1992188 -0.257812,0.2460938 -0.09375,0.046875 -0.1875,0.1054687 -0.304688,0.1640625 l 0.703125,0.5742187 0.363281,-0.375 h 3.808594 l -0.304687,0.80859379 c -0.01172,0.0703125 -0.09375,0.26953125 -0.246094,0.59765625 -0.140625,0.328125 -0.28125,0.57421875 -0.421875,0.73828125 -0.140625,0.15234375 -0.375,0.24609375 -0.691406,0.2578125 -0.09375,0 -0.292969,-0.0234375 -0.597657,-0.0703125 -0.28125,-0.0585938 -0.597656,-0.12890625 -0.925781,-0.2109375 l -0.02344,0.15234375 0.433593,0.17578125 c 0.339844,0.12890625 0.539063,0.23437501 0.597657,0.32812501 0.07031,0.09375 0.105468,0.1640625 0.140625,0.2578125 0.02344,0.082031 0.03516,0.1640625 0.05859,0.2695312 0.503907,-0.1523437 0.855469,-0.2929687 1.078125,-0.4101562 0.199219,-0.1289063 0.410157,-0.31640626 0.621094,-0.57421876 0.199219,-0.26953125 0.503906,-0.97265625 0.925781,-2.10937504 l 0.316407,-0.1640625 c 0.07031,-0.035156 0.09375,-0.070312 0.105468,-0.082031 0,-0.011719 -0.02344,-0.035156 -0.08203,-0.082031 l -0.691406,-0.5625 -0.363281,0.4335938 h -3.703125 z m -1.875,-0.5859375 c 0.269531,-0.09375 0.480469,-0.1992188 0.632812,-0.28125 v -0.5273438 h 4.113282 v 0.65625 c 0.292968,-0.09375 0.515625,-0.1992187 0.703125,-0.3164062 l -0.07031,-0.9140625 v -1.546875 l 0.246094,-0.1757813 c 0.07031,-0.058594 0.105469,-0.09375 0.117187,-0.09375 0.01172,-0.023437 -0.03516,-0.070312 -0.140625,-0.1523437 l -0.503906,-0.4453125 -0.398437,0.4570312 h -3.972657 l -0.726562,-0.3632812 0.04687,0.9023437 v 1.7226563 z m 0.632812,-1.03125 v -2.0742188 h 4.113282 v 2.0742188 z m 0,0"
         style="fill:#000000;fill-opacity:1;fill-rule:nonzero;stroke:none" />
    </g>
    <path
       id="path28"
       d="m 0,85.04044 h 24.05624 m 36.92795,0 h 45.31635 V 51.18082"
       style="fill:none;stroke:#000000;stroke-width:0.3985;stroke-linecap:butt;stroke-linejoin:miter;stroke-miterlimit:10;stroke-dasharray:none;stroke-opacity:1"
       transform="matrix(1.3333333,0,0,-1.3333333,69.454667,130.06533)" />
    <path
       id="path29"
       d="M -1.19551,1.59401 C -1.09587,0.99626 0,0.09961 0.29886,0 0,-0.09961 -1.09587,-0.99626 -1.19551,-1.59401"
       style="fill:none;stroke:#000000;stroke-width:0.31879;stroke-linecap:round;stroke-linejoin:round;stroke-miterlimit:10;stroke-dasharray:none;stroke-opacity:1"
       transform="matrix(0,1.3333333,1.3333333,0,211.18872,61.82424)" />
    <g
       id="g29"
       aria-label="I路信号"
       transform="matrix(1.3333333,0,0,1.3333333,15.692,20.749333)">
      <path
         id="path30"
         d="M 3.3159609,5e-4 V -0.3041875 H 3.0581484 c -0.7851562,0 -0.8203125,-0.1171875 -0.8203125,-0.46875 v -5.25 c 0,-0.3632813 0.035156,-0.46875 0.8203125,-0.46875 h 0.2578125 v -0.3164063 c -0.3515625,0.035156 -1.1367187,0.035156 -1.5117187,0.035156 -0.3867188,0 -1.17187501,0 -1.52343751,-0.035156 v 0.3164063 h 0.2578125 c 0.78515621,0 0.82031251,0.1054687 0.82031251,0.46875 v 5.25 c 0,0.3515625 -0.035156,0.46875 -0.82031251,0.46875 H 0.28080469 V 5e-4 c 0.3515625,-0.03515625 1.13671871,-0.03515625 1.51171871,-0.03515625 0.3867188,0 1.171875,0 1.5234375,0.03515625 z m 0,0"
         style="fill:#000000;fill-opacity:1;fill-rule:nonzero;stroke:none" />
      <path
         id="path31"
         d="M 7.1714297,0.65675 7.6753359,1.3715937 C 7.8628359,1.2075312 8.2026797,1.0200312 8.6948672,0.797375 9.1987734,0.57471875 10.07768,0.17628125 11.355023,-0.40965625 l -0.08203,-0.140625 -1.4179686,0.43359375 V -2.15575 h 1.3242186 c 0.08203,0 0.128906,0 0.140625,-0.023437 0.01172,-0.023438 -0.02344,-0.070313 -0.10547,-0.164063 L 10.64018,-2.9291875 10.206586,-2.390125 H 9.8550234 v -1.7695313 h 0.4453126 v 0.3398438 c 0.246094,-0.046875 0.457031,-0.1289063 0.632812,-0.2695313 l -0.04687,-0.609375 v -1.6171875 l 0.246094,-0.2109375 c 0.07031,-0.058594 0.117188,-0.09375 0.105469,-0.1054687 0,-0.023437 -0.04687,-0.058594 -0.140625,-0.1289063 l -0.609375,-0.375 -0.328125,0.4453125 H 8.7417422 l -0.65625,-0.3867187 0.070312,0.9023437 v 1.4765625 l -0.058594,1.0546875 C 8.2729922,-3.6909063 8.4722109,-3.796375 8.6948672,-3.937 V -4.1596563 H 9.3393984 V 0.03565625 L 8.4722109,0.3051875 v -2.9179688 l 0.2226563,-0.1757812 c 0.046875,-0.035156 0.070312,-0.058594 0.070312,-0.1054688 0,-0.011719 -0.035156,-0.058594 -0.1054688,-0.082031 l -0.796875,-0.375 0.070312,1.1367187 V 0.48096875 C 7.6753359,0.55128125 7.4292422,0.609875 7.1714297,0.65675 Z m 1.5234375,-5.0390625 v -2.0742188 h 1.6054688 v 2.0742188 z m 4.6523438,0.4921875 c -0.210938,0.2460937 -0.550781,0.5859375 -1.019531,0.9960937 -0.457032,0.421875 -1.113282,0.9023438 -1.980469,1.4296875 l 0.05859,0.1171875 0.597656,-0.28125 c 0.140625,-0.070312 0.480469,-0.2578125 0.996094,-0.5625 l 0.04687,0.9960938 V 0.46925 l -0.04687,1.0664062 C 12.222211,1.5005 12.42143,1.4301875 12.597211,1.313 V 0.5864375 h 2.015625 V 1.453625 C 14.870648,1.383313 15.093305,1.3012812 15.257367,1.2075312 L 15.210492,0.2114375 V -1.6752813 L 15.42143,-1.8745 15.49174,-1.897937 c 0.01172,-0.035156 -0.01172,-0.058594 -0.07031,-0.1171875 l -0.621094,-0.4570313 -0.328125,0.421875 h -1.652344 l -0.550781,-0.3046875 c 0.433594,-0.3046875 0.925781,-0.6796875 1.476562,-1.1484375 0.539063,0.46875 1.207032,0.890625 2.015625,1.2890625 0.128907,-0.1640625 0.234375,-0.28125 0.339844,-0.3515625 0.08203,-0.058594 0.269531,-0.1054687 0.539063,-0.1289062 v -0.140625 c -0.351563,-0.035156 -0.726563,-0.1171875 -1.125,-0.2460938 -0.398438,-0.1289062 -0.902344,-0.4101562 -1.488282,-0.8320312 0.246094,-0.328125 0.457032,-0.6210938 0.621094,-0.8789063 l 0.375,-0.5859375 c 0.05859,-0.09375 0.164063,-0.234375 0.292969,-0.421875 l 0.292969,-0.1875 c 0.05859,-0.023437 0.09375,-0.046875 0.105468,-0.082031 0,-0.023437 -0.03516,-0.058594 -0.117187,-0.1054688 l -0.75,-0.4804687 -0.304688,0.4804687 h -1.675781 c 0.128906,-0.234375 0.292969,-0.5039062 0.457031,-0.84375 l 0.210938,-0.070312 c 0.07031,-0.035156 0.117187,-0.046875 0.117187,-0.070312 0.01172,-0.023437 -0.05859,-0.082031 -0.222656,-0.1757812 l -0.679687,-0.3398438 -0.04687,0.328125 c -0.02344,0.1171875 -0.07031,0.3164063 -0.175782,0.5976563 -0.07031,0.2695312 -0.175781,0.5390625 -0.292968,0.796875 -0.105469,0.2460937 -0.257813,0.5625 -0.445313,0.9375 -0.1875,0.375 -0.386719,0.7148437 -0.585937,1.0078125 l 0.128906,0.1171875 c 0.527344,-0.6914063 0.820312,-1.1015625 0.890625,-1.2070313 0.07031,-0.1171875 0.175781,-0.28125 0.316406,-0.515625 0.128906,0.375 0.257813,0.6914063 0.375,0.9492188 0.128906,0.2460937 0.269531,0.515625 0.433594,0.7734375 z m -0.75,4.25390625 V -1.827625 h 2.015625 v 2.19140625 z m 1.03125,-4.61718755 c -0.175781,-0.2109375 -0.351563,-0.46875 -0.503906,-0.7617187 -0.164063,-0.28125 -0.257813,-0.46875 -0.292969,-0.5390625 -0.02344,-0.082031 -0.05859,-0.1875 -0.105469,-0.3046875 l 0.04687,-0.082031 h 1.792969 l -0.128906,0.328125 c -0.105469,0.2460938 -0.375,0.6914063 -0.808594,1.359375 z m 3.553711,1.5585938 0.07031,0.070312 c 0.128907,-0.09375 0.28125,-0.2460938 0.457032,-0.4453125 0.175781,-0.1992188 0.527343,-0.6328125 1.042968,-1.3125 V 0.05909375 L 18.682172,1.6294062 C 18.846234,1.59425 18.986859,1.5590937 19.068891,1.5005 19.174359,1.453625 19.268109,1.3715937 19.385297,1.2895625 L 19.338422,0.19971875 V -4.6635625 l 0.269531,-0.1289063 c 0.05859,-0.023437 0.09375,-0.046875 0.09375,-0.082031 0,-0.023437 -0.03516,-0.058594 -0.09375,-0.082031 l -0.421875,-0.2109375 0.316406,-0.5273437 0.433594,-0.84375 c 0.05859,-0.1171875 0.164063,-0.2929688 0.292969,-0.5390625 l 0.269531,-0.082031 c 0.07031,-0.023437 0.105469,-0.046875 0.105469,-0.058594 -0.01172,-0.023437 -0.04687,-0.058594 -0.117188,-0.09375 l -0.820312,-0.4570313 c -0.210938,0.75 -0.46875,1.4765625 -0.773438,2.1796875 -0.316406,0.703125 -0.65625,1.3242188 -1.019531,1.8515625 -0.363281,0.5273438 -0.585937,0.8789063 -0.691406,1.0429683 z m 2.964844,-3.3515625 0.316406,0.3984375 c 0.28125,-0.09375 0.585937,-0.140625 0.925781,-0.140625 h 5.039063 c 0.117187,0 0.175781,-0.011719 0.175781,-0.035156 0.01172,-0.035156 -0.01172,-0.082031 -0.09375,-0.1640625 l -0.667969,-0.6210937 -0.492187,0.5976562 h -2.050782 l 0.164063,-0.1992187 c 0.05859,-0.046875 0.09375,-0.1757813 0.105469,-0.375 0,-0.1992188 -0.117188,-0.3984375 -0.375,-0.5859375 -0.269532,-0.1875 -0.5625,-0.3632813 -0.867188,-0.5390625 l -0.05859,0.070312 c 0.199219,0.234375 0.339844,0.421875 0.410157,0.5390625 0.07031,0.1171875 0.128906,0.28125 0.152343,0.46875 l 0.05859,0.421875 c 0,0.058594 0.01172,0.09375 0.02344,0.1171875 0.01172,0.011719 0.04687,0.046875 0.08203,0.082031 h -1.96875 z m 0.492187,1.40625 0.351563,0.4101562 c 0.304687,-0.1054687 0.621093,-0.1523437 0.925781,-0.1523437 h 3.726562 c 0.07031,0 0.105469,-0.011719 0.117188,-0.023437 0.01172,-0.011719 -0.02344,-0.070312 -0.117188,-0.1523438 l -0.574218,-0.5742187 -0.480469,0.515625 h -3.222656 z m 0.445313,1.8515625 c 0.175781,-0.058594 0.363281,-0.1054688 0.574218,-0.1289063 0.210938,-0.035156 0.363282,-0.035156 0.445313,-0.035156 h 3.539062 c 0.04687,0 0.09375,-0.011719 0.105469,-0.046875 0.01172,-0.023437 0,-0.058594 -0.05859,-0.1054688 l -0.679687,-0.5859375 -0.445313,0.515625 h -2.953125 l -0.890625,-0.046875 z m 0.667968,0.9609375 -0.761718,-0.4335938 0.04687,0.7851563 v 1.91015625 l -0.04687,1.18359375 0.164062,-0.023437 0.164063,-0.082031 c 0.128906,-0.035156 0.199218,-0.070312 0.222656,-0.082031 0.01172,0 0.03516,-0.046875 0.08203,-0.09375 V 0.43409375 h 2.964844 V 1.4770625 c 0.257812,-0.011719 0.421875,-0.046875 0.492187,-0.09375 0.07031,-0.046875 0.128907,-0.09375 0.175782,-0.1523438 L 25.197797,0.28175 V -1.4291875 L 25.455609,-1.59325 c 0.07031,-0.046875 0.105469,-0.09375 0.105469,-0.1171875 0,-0.023437 -0.02344,-0.046875 -0.09375,-0.1054688 L 24.857953,-2.2612188 24.506391,-1.827625 Z M 21.623578,0.19971875 V -1.5815313 h 2.964844 v 1.78125005 z m 9.246094,-3.42187505 h 5.496094 c 0.04687,0 0.07031,0 0.08203,-0.023437 0.01172,-0.023437 -0.01172,-0.046875 -0.03516,-0.09375 l -0.738277,-0.726563 -0.539062,0.5976563 h -7.007813 l -1.089843,-0.023437 0.46875,0.4453125 0.222656,-0.09375 c 0.09375,-0.046875 0.292969,-0.082031 0.609375,-0.082031 h 1.851562 l -0.1875,0.3984375 c -0.128906,0.2695313 -0.222656,0.46875 -0.316406,0.5742188 -0.09375,0.1171875 -0.164062,0.1992187 -0.257812,0.2460937 -0.09375,0.046875 -0.1875,0.1054688 -0.304688,0.1640625 l 0.703125,0.5742188 0.363281,-0.375 h 3.808594 l -0.304687,0.80859375 C 33.682172,-0.76121875 33.600141,-0.562 33.447797,-0.233875 33.307172,0.09425 33.166547,0.34034375 33.025922,0.50440625 32.885297,0.65675 32.650922,0.7505 32.334516,0.76221875 c -0.09375,0 -0.292969,-0.0234375 -0.597657,-0.0703125 C 31.455609,0.6333125 31.139203,0.563 30.811078,0.48096875 l -0.02344,0.15234375 0.433593,0.17578125 C 31.561078,0.938 31.760297,1.0434687 31.818891,1.1372187 c 0.07031,0.09375 0.105468,0.1640625 0.140625,0.2578125 0.02344,0.082031 0.03516,0.1640625 0.05859,0.2695313 0.50391,-0.1523438 0.855472,-0.2929688 1.078128,-0.4101563 C 33.295453,1.1255 33.506391,0.938 33.717328,0.6801875 c 0.199219,-0.26953125 0.503906,-0.97265625 0.925781,-2.109375 L 34.959516,-1.59325 c 0.07031,-0.035156 0.09375,-0.070312 0.105468,-0.082031 0,-0.011719 -0.02344,-0.035156 -0.08203,-0.082031 l -0.691406,-0.5625 -0.363281,0.4335937 h -3.703125 z m -1.875,-0.5859375 c 0.269531,-0.09375 0.480469,-0.1992187 0.632812,-0.28125 v -0.5273437 h 4.113282 v 0.65625 c 0.292968,-0.09375 0.515625,-0.1992188 0.703125,-0.3164063 l -0.07031,-0.9140625 v -1.546875 l 0.246094,-0.1757812 c 0.07031,-0.058594 0.105469,-0.09375 0.117187,-0.09375 0.01172,-0.023437 -0.03516,-0.070312 -0.140625,-0.1523438 l -0.503906,-0.4453125 -0.398437,0.4570313 h -3.972657 l -0.726562,-0.3632813 0.04687,0.9023438 v 1.7226562 z m 0.632812,-1.03125 v -2.0742187 h 4.113282 v 2.0742187 z m 0,0"
         style="fill:#000000;fill-opacity:1;fill-rule:nonzero;stroke:none" />
    </g>
    <path
       id="path32"
       d="m 124.76451,42.52022 h 27.85025"
       style="fill:none;stroke:#000000;stroke-width:0.3985;stroke-linecap:butt;stroke-linejoin:miter;stroke-miterlimit:10;stroke-dasharray:none;stroke-opacity:1"
       transform="matrix(1.3333333,0,0,-1.3333333,69.454667,130.06533)" />
    <path
       id="path33"
       d="M -1.19551,1.59401 C -1.09587,0.99626 0,0.09961 0.29886,0 0,-0.09961 -1.09587,-0.99626 -1.19551,-1.59401"
       style="fill:none;stroke:#000000;stroke-width:0.31879;stroke-linecap:round;stroke-linejoin:round;stroke-miterlimit:10;stroke-dasharray:none;stroke-opacity:1"
       transform="matrix(1.3333333,0,0,-1.3333333,272.94101,73.371707)" />
    <g
       id="g33"
       aria-label="v&#10;o&#10;(t)"
       transform="matrix(1.3333333,0,0,1.3333333,241.384,65.357333)">
      <path
         id="path34"
         d="m 4.6631719,-3.7045234 c 0,-0.5390625 -0.2578125,-0.703125 -0.4453125,-0.703125 -0.2460938,0 -0.4804688,0.2578125 -0.4804688,0.4804687 0,0.1289063 0.046875,0.1875 0.1523438,0.3046875 0.2109375,0.1992188 0.3398437,0.4570313 0.3398437,0.8085938 0,0.421875 -0.609375,2.70703121 -1.7695312,2.70703121 -0.5039063,0 -0.7382813,-0.3515625 -0.7382813,-0.8671875 0,-0.56250001 0.2695313,-1.28906251 0.5742188,-2.12109371 0.070312,-0.1640625 0.1289062,-0.3046875 0.1289062,-0.4921875 0,-0.4453125 -0.328125,-0.8203125 -0.8203125,-0.8203125 -0.93749997,0 -1.31249997,1.453125 -1.31249997,1.5351562 0,0.1054688 0.09375,0.1054688 0.1171875,0.1054688 0.09375,0 0.10546875,-0.023437 0.15234375,-0.1875 0.29296875,-0.9960938 0.72656252,-1.2304688 1.00781252,-1.2304688 0.082031,0 0.2578125,0 0.2578125,0.3164063 0,0.2460937 -0.1054688,0.515625 -0.1757813,0.703125 -0.4335937,1.1484375 -0.5625,1.6054687 -0.5625,2.0390625 0,1.07812496 0.8671875,1.23046871 1.3359375,1.23046871 1.6640625,0 2.2382813,-3.29296871 2.2382813,-3.80859371 z m 0,0"
         style="fill:#000000;fill-opacity:1;fill-rule:nonzero;stroke:none" />
      <path
         id="path35"
         d="m 8.5332891,-0.35589063 c 0,-0.77343747 -0.5742188,-1.21874997 -1.265625,-1.21874997 -1.03125,0 -2.0039063,0.96093747 -2.0039063,1.92187497 0,0.69140623 0.5039063,1.21875003 1.265625,1.21875003 0.9960938,0 2.0039063,-0.92578128 2.0039063,-1.92187503 z M 6.5411016,1.3667656 c -0.3515625,0 -0.703125,-0.2226562 -0.703125,-0.77343748 0,-0.28125 0.140625,-0.9609375 0.4101562,-1.359375 0.2929688,-0.43359372 0.703125,-0.62109372 1.0195313,-0.62109372 0.375,0 0.6914062,0.2578125 0.6914062,0.77343747 0,0.17578125 -0.082031,0.85546875 -0.3867187,1.34765625 C 7.3028203,1.1441094 6.8926641,1.3667656 6.5411016,1.3667656 Z m 0,0"
         style="fill:#000000;fill-opacity:1;fill-rule:nonzero;stroke:none" />
      <path
         id="path36"
         d="m 12.55282,2.3892266 c 0,-0.035156 0,-0.046875 -0.164062,-0.2226563 -1.242188,-1.25390624 -1.570313,-3.12890624 -1.570313,-4.6640625 0,-1.7226562 0.386719,-3.4570312 1.605469,-4.7109375 0.128906,-0.1171875 0.128906,-0.1289062 0.128906,-0.1640625 0,-0.070312 -0.03516,-0.1054687 -0.09375,-0.1054687 -0.105468,0 -0.996093,0.6796875 -1.582031,1.9453125 -0.515625,1.1015625 -0.632812,2.203125 -0.632812,3.0351562 0,0.7851563 0.117187,1.99218751 0.65625,3.11718751 0.597656,1.21874999 1.453125,1.87499999 1.558593,1.87499999 0.05859,0 0.09375,-0.035156 0.09375,-0.1054687 z m 0,0"
         style="fill:#000000;fill-opacity:1;fill-rule:nonzero;stroke:none" />
      <path
         id="path37"
         d="m 15.18368,-3.9857734 h 0.9375 c 0.199218,0 0.304687,0 0.304687,-0.1992188 0,-0.1054687 -0.105469,-0.1054687 -0.28125,-0.1054687 h -0.878906 c 0.363281,-1.4179688 0.410156,-1.6171875 0.410156,-1.6757813 0,-0.1757812 -0.117187,-0.2695312 -0.292969,-0.2695312 -0.02344,0 -0.304687,0.011719 -0.398437,0.3515625 l -0.386719,1.59375 h -0.9375 c -0.199219,0 -0.292969,0 -0.292969,0.1875 0,0.1171875 0.07031,0.1171875 0.269532,0.1171875 h 0.878906 c -0.714844,2.8242187 -0.75,2.99999996 -0.75,3.17578121 0,0.5390625 0.375,0.9140625 0.914062,0.9140625 1.007813,0 1.582032,-1.45312501 1.582032,-1.53515621 0,-0.09375 -0.08203,-0.09375 -0.117188,-0.09375 -0.09375,0 -0.105469,0.023437 -0.152344,0.140625 -0.433593,1.03124996 -0.960937,1.27734371 -1.300781,1.27734371 -0.199219,0 -0.304687,-0.12890625 -0.304687,-0.45703125 0,-0.24609375 0.02344,-0.31640625 0.05859,-0.48046876 z m 0,0"
         style="fill:#000000;fill-opacity:1;fill-rule:nonzero;stroke:none" />
      <path
         id="path38"
         d="m 19.613367,-2.4974922 c 0,-0.7734375 -0.117187,-1.9804687 -0.65625,-3.1054687 -0.597656,-1.21875 -1.464844,-1.875 -1.558594,-1.875 -0.05859,0 -0.105468,0.046875 -0.105468,0.1054687 0,0.035156 0,0.046875 0.199218,0.234375 0.972657,0.984375 1.535157,2.5664063 1.535157,4.640625 0,1.71093751 -0.363282,3.45703126 -1.59375,4.7226563 -0.140625,0.1171875 -0.140625,0.1289062 -0.140625,0.1640625 0,0.058594 0.04687,0.1054687 0.105468,0.1054687 0.09375,0 0.996094,-0.6796875 1.582032,-1.94531249 0.503906,-1.1015625 0.632812,-2.20312501 0.632812,-3.04687501 z m 0,0"
         style="fill:#000000;fill-opacity:1;fill-rule:nonzero;stroke:none" />
    </g>
  </g>
</svg>
