<?xml version="1.0" encoding="UTF-8" standalone="no"?>
<!-- Created with Inkscape (http://www.inkscape.org/) -->

<svg
   version="1.1"
   id="svg1"
   width="233.16"
   height="200.73334"
   viewBox="0 0 233.16 200.73334"
   sodipodi:docname="24-25-1-通信电子电路-期末-题图8.pdf"
   xmlns:inkscape="http://www.inkscape.org/namespaces/inkscape"
   xmlns:sodipodi="http://sodipodi.sourceforge.net/DTD/sodipodi-0.dtd"
   xmlns="http://www.w3.org/2000/svg"
   xmlns:svg="http://www.w3.org/2000/svg">
  <defs
     id="defs1" />
  <sodipodi:namedview
     id="namedview1"
     pagecolor="#ffffff"
     bordercolor="#000000"
     borderopacity="0.25"
     inkscape:showpageshadow="2"
     inkscape:pageopacity="0.0"
     inkscape:pagecheckerboard="0"
     inkscape:deskcolor="#d1d1d1">
    <inkscape:page
       x="0"
       y="0"
       inkscape:label="1"
       id="page1"
       width="233.16"
       height="200.73334"
       margin="0"
       bleed="0" />
  </sodipodi:namedview>
  <g
     id="g1"
     inkscape:groupmode="layer"
     inkscape:label="1">
    <path
       id="path1"
       d="M -7.82811,-20.56664 V 129.98544 H 167.04626 V -20.56664 Z"
       style="fill:#ffffff;fill-opacity:1;fill-rule:nonzero;stroke:none"
       transform="matrix(1.3333333,0,0,-1.3333333,10.437333,173.312)" />
    <path
       id="path2"
       d="m 113.38727,85.04044 v 28.34683 H 56.69363 32.31528 m -7.93695,0 H 0 V 96.94615 M 0,73.13472 V 56.69363 40.25252 M 0,16.44109 V 0 h 24.37833 m 7.93695,0 h 24.37835 56.69364 v 28.3468"
       style="fill:none;stroke:#000000;stroke-width:0.3985;stroke-linecap:butt;stroke-linejoin:miter;stroke-miterlimit:10;stroke-dasharray:none;stroke-opacity:1"
       transform="matrix(1.3333333,0,0,-1.3333333,10.437333,173.312)" />
    <path
       id="path3"
       d="m 32.31528,101.48154 v 23.81144 m -7.93695,-23.81144 v 23.81144"
       style="fill:none;stroke:#000000;stroke-width:0.797;stroke-linecap:butt;stroke-linejoin:miter;stroke-miterlimit:10;stroke-dasharray:none;stroke-opacity:1"
       transform="matrix(1.3333333,0,0,-1.3333333,10.437333,173.312)" />
    <g
       id="g3"
       aria-label="C&#10;3"
       transform="matrix(1.3333333,0,0,1.3333333,40.506667,52.896)">
      <path
         id="path4"
         d="m 7.5711719,-6.9268828 c 0,-0.023437 -0.023437,-0.09375 -0.1054688,-0.09375 -0.035156,0 -0.046875,0.011719 -0.1523437,0.1171875 l -0.703125,0.7617187 c -0.082031,-0.140625 -0.5390625,-0.8789062 -1.6523438,-0.8789062 -2.2148437,0 -4.45312498,2.203125 -4.45312498,4.5117187 0,1.64062504 1.17187498,2.73046879 2.69531248,2.73046879 0.8671875,0 1.6171875,-0.3984375 2.1445313,-0.85546875 0.9375,-0.82031254 1.1015625,-1.72265624 1.1015625,-1.75781254 0,-0.1054687 -0.1054688,-0.1054687 -0.1171875,-0.1054687 -0.058594,0 -0.1171875,0.023437 -0.1289063,0.1054687 -0.09375,0.2929688 -0.3164062,0.9960938 -1.0078125,1.57031254 -0.6914062,0.5625 -1.3125,0.7265625 -1.8398437,0.7265625 -0.890625,0 -1.9453125,-0.515625 -1.9453125,-2.06250004 0,-0.5742187 0.2109375,-2.1914062 1.2070312,-3.3515625 0.609375,-0.703125 1.5351563,-1.2070312 2.4257813,-1.2070312 1.0195312,0 1.6054687,0.7734375 1.6054687,1.921875 0,0.3984375 -0.035156,0.4101562 -0.035156,0.5039062 0,0.1054688 0.1171875,0.1054688 0.1523437,0.1054688 0.1289063,0 0.1289063,-0.023437 0.1757813,-0.1992188 z m 0,0"
         style="fill:#000000;fill-opacity:1;fill-rule:nonzero;stroke:none" />
      <path
         id="path5"
         d="m 9.0184375,-0.83899219 c 0.5507812,0 0.9375,0.375 0.9375,1.125 0,0.86718749 -0.5039063,1.12499999 -0.9023438,1.12499999 -0.28125,0 -0.890625,-0.082031 -1.1835937,-0.49218749 0.328125,-0.0117188 0.3984375,-0.24609375 0.3984375,-0.38671875 0,-0.22265625 -0.1640625,-0.38671875 -0.3867188,-0.38671875 -0.1875,0 -0.3867187,0.1171875 -0.3867187,0.41015625 0,0.65625004 0.7265625,1.07812504 1.5703125,1.07812504 0.9726565,0 1.6406245,-0.64453129 1.6406245,-1.34765629 0,-0.5390625 -0.445312,-1.08984375 -1.2187495,-1.2421875 0.7382815,-0.26953121 0.9960935,-0.79687501 0.9960935,-1.21875001 0,-0.5507812 -0.6328123,-0.9609375 -1.4062498,-0.9609375 -0.7734375,0 -1.359375,0.375 -1.359375,0.9375 0,0.234375 0.1523438,0.3632813 0.3632813,0.3632813 0.2109375,0 0.3515625,-0.1640625 0.3515625,-0.3515625 0,-0.1992188 -0.140625,-0.3515625 -0.3515625,-0.3632813 0.234375,-0.3046875 0.7148437,-0.3867187 0.9726562,-0.3867187 0.3164063,0 0.7617188,0.1523437 0.7617188,0.7617187 0,0.2929688 -0.1054688,0.609375 -0.28125,0.8320313 -0.234375,0.2578125 -0.421875,0.28125 -0.7734375,0.2929687 -0.1757813,0.023437 -0.1875,0.023437 -0.2226563,0.023437 -0.011719,0 -0.070312,0.011719 -0.070312,0.09375 0,0.09375 0.058594,0.09375 0.1757813,0.09375 z m 0,0"
         style="fill:#000000;fill-opacity:1;fill-rule:nonzero;stroke:none" />
    </g>
    <path
       id="path6"
       d="m -0.15938,97.34467 c 3.28768,0 5.95284,-1.63475 5.95284,-3.65136 0,-2.0166 -2.66516,-3.65135 -5.95284,-3.65135 -1.64377,0 -2.97629,0.66626 -2.97629,1.48814 0,0.82187 1.33252,1.48813 2.97629,1.48813 3.28768,0 5.95284,-1.63473 5.95284,-3.65135 0,-2.0166 -2.66516,-3.65133 -5.95284,-3.65133 -1.64377,0 -2.97629,0.66625 -2.97629,1.48812 0,0.82189 1.33252,1.48815 2.97629,1.48815 3.28768,0 5.95284,-1.63475 5.95284,-3.65135 0,-2.01661 -2.66516,-3.65136 -5.95284,-3.65136 -1.64377,0 -2.97629,0.66626 -2.97629,1.48815 0,0.82188 1.33252,1.48813 2.97629,1.48813 3.28768,0 5.95284,-1.63474 5.95284,-3.65134 0,-2.0166 -2.66516,-3.65135 -5.95284,-3.65135 -1.64377,0 -2.97629,0.66626 -2.97629,1.48813 0,0.82188 1.33252,1.48814 2.97629,1.48814 3.28768,0 5.95284,-1.63475 5.95284,-3.65135 0,-2.0166 -2.66516,-3.65134 -5.95284,-3.65134"
       style="fill:none;stroke:#000000;stroke-width:0.797;stroke-linecap:butt;stroke-linejoin:bevel;stroke-miterlimit:10;stroke-dasharray:none;stroke-opacity:1"
       transform="matrix(1.3333333,0,0,-1.3333333,10.437333,173.312)" />
    <g
       id="g6"
       aria-label="L&#10;3"
       transform="matrix(1.3333333,0,0,1.3333333,21.314667,62.788)">
      <path
         id="path7"
         d="m 3.7278672,-6.0226406 c 0.09375,-0.3632813 0.1171875,-0.46875 1.0546875,-0.46875 0.3046875,0 0.375,0 0.375,-0.1875 0,-0.1289063 -0.1054688,-0.1289063 -0.1523438,-0.1289063 -0.328125,0 -1.1484375,0.035156 -1.4765625,0.035156 -0.3046875,0 -1.03125,-0.035156 -1.3242187,-0.035156 -0.070312,0 -0.1875,0 -0.1875,0.1992188 0,0.1171875 0.082031,0.1171875 0.28125,0.1171875 0.011719,0 0.1992187,0 0.375,0.011719 0.1757812,0.023437 0.2695312,0.035156 0.2695312,0.1640625 0,0.035156 -0.011719,0.070312 -0.046875,0.1875 l -1.3359375,5.35546877 c -0.09375,0.38671875 -0.1171875,0.46875 -0.90234371,0.46875 -0.1640625,0 -0.26953125,0 -0.26953125,0.19921875 0,0.105468755 0.09375,0.105468755 0.26953125,0.105468755 H 5.2747422 c 0.234375,0 0.2460937,0 0.3046875,-0.164062505 L 6.3645859,-2.3195156 c 0.046875,-0.1054688 0.046875,-0.1289063 0.046875,-0.140625 0,-0.035156 -0.035156,-0.1054688 -0.1289062,-0.1054688 -0.082031,0 -0.09375,0.046875 -0.1640625,0.2109375 -0.3398438,0.9140625 -0.7734375,2.05078127 -2.4960938,2.05078127 h -0.9375 c -0.140625,0 -0.1640625,0 -0.2226562,-0.0117188 -0.1054688,-0.0117188 -0.1289063,-0.0234375 -0.1289063,-0.10546875 0,-0.0234375 0,-0.046875 0.046875,-0.22265625 z m 0,0"
         style="fill:#000000;fill-opacity:1;fill-rule:nonzero;stroke:none" />
      <path
         id="path8"
         d="m 8.6790391,-0.83709375 c 0.5507812,0 0.9375,0.375 0.9375,1.125 0,0.86718745 -0.5039063,1.12499995 -0.9023438,1.12499995 -0.28125,0 -0.890625,-0.082031 -1.1835937,-0.49218745 C 7.8587266,0.909 7.9290391,0.674625 7.9290391,0.534 c 0,-0.22265625 -0.1640625,-0.38671875 -0.3867188,-0.38671875 -0.1875,0 -0.3867187,0.1171875 -0.3867187,0.41015625 0,0.65625 0.7265625,1.078125 1.5703125,1.078125 0.9726562,0 1.6406249,-0.64453125 1.6406249,-1.34765625 0,-0.5390625 -0.4453124,-1.08984375 -1.2187499,-1.2421875 0.7382812,-0.26953125 0.9960939,-0.79687505 0.9960939,-1.21875005 0,-0.5507812 -0.6328127,-0.9609375 -1.4062502,-0.9609375 -0.7734375,0 -1.359375,0.375 -1.359375,0.9375 0,0.234375 0.1523438,0.3632813 0.3632813,0.3632813 0.2109375,0 0.3515625,-0.1640625 0.3515625,-0.3515625 0,-0.1992188 -0.140625,-0.3515625 -0.3515625,-0.3632813 0.234375,-0.3046875 0.7148437,-0.3867187 0.9726562,-0.3867187 0.3164063,0 0.7617188,0.1523437 0.7617188,0.7617187 0,0.2929688 -0.1054688,0.609375 -0.28125,0.8320313 -0.234375,0.2578125 -0.421875,0.28125 -0.7734375,0.2929687 -0.1757813,0.023437 -0.1875,0.023437 -0.2226563,0.023437 -0.011719,0 -0.070312,0.011719 -0.070312,0.0937501 0,0.09375 0.058594,0.09375 0.1757813,0.09375 z m 0,0"
         style="fill:#000000;fill-opacity:1;fill-rule:nonzero;stroke:none" />
    </g>
    <path
       id="path9"
       d="m -0.15938,40.65103 c 3.28768,0 5.95284,-1.63475 5.95284,-3.65135 0,-2.0166 -2.66516,-3.65135 -5.95284,-3.65135 -1.64377,0 -2.97629,0.66626 -2.97629,1.48814 0,0.82187 1.33252,1.48813 2.97629,1.48813 3.28768,0 5.95284,-1.63473 5.95284,-3.65135 0,-2.0166 -2.66516,-3.65134 -5.95284,-3.65134 -1.64377,0 -2.97629,0.66626 -2.97629,1.48813 0,0.82188 1.33252,1.48814 2.97629,1.48814 3.28768,0 5.95284,-1.63475 5.95284,-3.65135 0,-2.0166 -2.66516,-3.65135 -5.95284,-3.65135 -1.64377,0 -2.97629,0.66626 -2.97629,1.48814 0,0.82189 1.33252,1.48813 2.97629,1.48813 3.28768,0 5.95284,-1.63473 5.95284,-3.65133 0,-2.01661 -2.66516,-3.65136 -5.95284,-3.65136 -1.64377,0 -2.97629,0.66626 -2.97629,1.48814 0,0.82188 1.33252,1.48814 2.97629,1.48814 3.28768,0 5.95284,-1.63475 5.95284,-3.65136 0,-2.0166 -2.66516,-3.65135 -5.95284,-3.65135"
       style="fill:none;stroke:#000000;stroke-width:0.797;stroke-linecap:butt;stroke-linejoin:bevel;stroke-miterlimit:10;stroke-dasharray:none;stroke-opacity:1"
       transform="matrix(1.3333333,0,0,-1.3333333,10.437333,173.312)" />
    <g
       id="g9"
       aria-label="L&#10;2"
       transform="matrix(1.3333333,0,0,1.3333333,21.314667,138.37867)">
      <path
         id="path10"
         d="m 3.7278672,-6.0232578 c 0.09375,-0.3632813 0.1171875,-0.46875 1.0546875,-0.46875 0.3046875,0 0.375,0 0.375,-0.1875 0,-0.1289063 -0.1054688,-0.1289063 -0.1523438,-0.1289063 -0.328125,0 -1.1484375,0.035156 -1.4765625,0.035156 -0.3046875,0 -1.03125,-0.035156 -1.3242187,-0.035156 -0.070312,0 -0.1875,0 -0.1875,0.1992188 0,0.1171875 0.082031,0.1171875 0.28125,0.1171875 0.011719,0 0.1992187,0 0.375,0.011719 0.1757812,0.023437 0.2695312,0.035156 0.2695312,0.1640625 0,0.035156 -0.011719,0.070312 -0.046875,0.1875 l -1.3359375,5.35546879 c -0.09375,0.38671875 -0.1171875,0.46875 -0.90234371,0.46875 -0.1640625,0 -0.26953125,0 -0.26953125,0.19921875 0,0.1054687475 0.09375,0.1054687475 0.26953125,0.1054687475 H 5.2747422 c 0.234375,0 0.2460937,0 0.3046875,-0.1640624975 L 6.3645859,-2.3201328 c 0.046875,-0.1054688 0.046875,-0.1289063 0.046875,-0.140625 0,-0.035156 -0.035156,-0.1054688 -0.1289062,-0.1054688 -0.082031,0 -0.09375,0.046875 -0.1640625,0.2109375 -0.3398438,0.9140625 -0.7734375,2.05078129 -2.4960938,2.05078129 h -0.9375 c -0.140625,0 -0.1640625,0 -0.2226562,-0.0117188 -0.1054688,-0.0117188 -0.1289063,-0.0234375 -0.1289063,-0.10546875 0,-0.0234375 0,-0.046875 0.046875,-0.22265625 z m 0,0"
         style="fill:#000000;fill-opacity:1;fill-rule:nonzero;stroke:none" />
      <path
         id="path11"
         d="m 10.296227,0.22869531 h -0.234375 c -0.02344,0.15234375 -0.082032,0.5625 -0.1757817,0.6328125 -0.058594,0.0351563 -0.5976562,0.0351563 -0.6914062,0.0351563 H 7.9056016 c 0.7382812,-0.64453125 0.984375,-0.84375 1.3945312,-1.171875 0.515625,-0.41015625 0.9960942,-0.84375001 0.9960942,-1.50000001 0,-0.84375 -0.7382817,-1.359375 -1.6289067,-1.359375 -0.8671875,0 -1.453125,0.609375 -1.453125,1.2421875 0,0.3632813 0.3046875,0.3984375 0.375,0.3984375 0.1640625,0 0.375,-0.1171875 0.375,-0.375 0,-0.1289062 -0.058594,-0.3632813 -0.421875,-0.3632813 0.2226563,-0.5039062 0.6914063,-0.65625 1.0195313,-0.65625 0.703125,0 1.0664062,0.5507813 1.0664062,1.1132813 0,0.609375 -0.4335937,1.08984376 -0.65625,1.33593751 l -1.6875,1.66406249 c -0.070312,0.058594 -0.070312,0.070312 -0.070312,0.2695312 h 2.8828122 z m 0,0"
         style="fill:#000000;fill-opacity:1;fill-rule:nonzero;stroke:none" />
    </g>
    <path
       id="path12"
       d="m 24.37833,11.90572 v -23.81144 m 7.93695,23.81144 v -23.81144"
       style="fill:none;stroke:#000000;stroke-width:0.797;stroke-linecap:butt;stroke-linejoin:miter;stroke-miterlimit:10;stroke-dasharray:none;stroke-opacity:1"
       transform="matrix(1.3333333,0,0,-1.3333333,10.437333,173.312)" />
    <g
       id="g12"
       aria-label="C&#10;2"
       transform="matrix(1.3333333,0,0,1.3333333,40.506667,151.556)">
      <path
         id="path13"
         d="m 7.5711719,-6.9267656 c 0,-0.023437 -0.023437,-0.09375 -0.1054688,-0.09375 -0.035156,0 -0.046875,0.011719 -0.1523437,0.1171875 l -0.703125,0.7617187 c -0.082031,-0.140625 -0.5390625,-0.8789062 -1.6523438,-0.8789062 -2.2148437,0 -4.45312498,2.203125 -4.45312498,4.5117187 0,1.64062502 1.17187498,2.73046877 2.69531248,2.73046877 0.8671875,0 1.6171875,-0.3984375 2.1445313,-0.85546875 0.9375,-0.82031252 1.1015625,-1.72265622 1.1015625,-1.75781252 0,-0.1054687 -0.1054688,-0.1054687 -0.1171875,-0.1054687 -0.058594,0 -0.1171875,0.023437 -0.1289063,0.1054687 -0.09375,0.2929688 -0.3164062,0.9960938 -1.0078125,1.57031252 -0.6914062,0.5625 -1.3125,0.7265625 -1.8398437,0.7265625 -0.890625,0 -1.9453125,-0.515625 -1.9453125,-2.06250002 0,-0.5742187 0.2109375,-2.1914062 1.2070312,-3.3515625 0.609375,-0.703125 1.5351563,-1.2070312 2.4257813,-1.2070312 1.0195312,0 1.6054687,0.7734375 1.6054687,1.921875 0,0.3984375 -0.035156,0.4101562 -0.035156,0.5039062 0,0.1054688 0.1171875,0.1054688 0.1523437,0.1054688 0.1289063,0 0.1289063,-0.023437 0.1757813,-0.1992188 z m 0,0"
         style="fill:#000000;fill-opacity:1;fill-rule:nonzero;stroke:none" />
      <path
         id="path14"
         d="M 10.635625,0.22753125 H 10.40125 c -0.02344,0.15234375 -0.08203,0.5625 -0.175781,0.6328125 C 10.166875,0.8955 9.6278125,0.8955 9.5340625,0.8955 H 8.245 c 0.7382812,-0.64453125 0.984375,-0.84375 1.3945312,-1.171875 0.5156248,-0.41015625 0.9960938,-0.84375 0.9960938,-1.5 0,-0.84375 -0.7382813,-1.359375 -1.6289063,-1.359375 -0.8671875,0 -1.453125,0.609375 -1.453125,1.2421875 0,0.3632812 0.3046875,0.3984375 0.375,0.3984375 0.1640625,0 0.375,-0.1171875 0.375,-0.375 0,-0.1289063 -0.058594,-0.3632813 -0.421875,-0.3632813 0.2226563,-0.5039062 0.6914063,-0.65625 1.0195313,-0.65625 0.703125,0 1.0664062,0.5507813 1.0664062,1.1132813 0,0.609375 -0.4335937,1.08984375 -0.65625,1.3359375 l -1.6875,1.6640625 c -0.070312,0.058594 -0.070312,0.070312 -0.070312,0.2695312 h 2.8828118 z m 0,0"
         style="fill:#000000;fill-opacity:1;fill-rule:nonzero;stroke:none" />
    </g>
    <path
       id="path15"
       d="M 141.73407,28.3468 H 85.04044 v 24.37833 m 0,7.93697 v 24.37834 h 56.69363 l -2e-5,-16.44111 m 0,-23.81144 2e-5,-16.44109"
       style="fill:none;stroke:#000000;stroke-width:0.3985;stroke-linecap:butt;stroke-linejoin:miter;stroke-miterlimit:10;stroke-dasharray:none;stroke-opacity:1"
       transform="matrix(1.3333333,0,0,-1.3333333,10.437333,173.312)" />
    <path
       id="path16"
       d="M 73.13472,52.72513 H 96.94615 M 73.13472,60.6621 h 23.81143"
       style="fill:none;stroke:#000000;stroke-width:0.797;stroke-linecap:butt;stroke-linejoin:miter;stroke-miterlimit:10;stroke-dasharray:none;stroke-opacity:1"
       transform="matrix(1.3333333,0,0,-1.3333333,10.437333,173.312)" />
    <g
       id="g16"
       aria-label="C&#10;1"
       transform="matrix(1.3333333,0,0,1.3333333,143.43333,100.58267)">
      <path
         id="path17"
         d="m 7.5705078,-6.9262578 c 0,-0.023437 -0.023437,-0.09375 -0.1054687,-0.09375 -0.035156,0 -0.046875,0.011719 -0.1523438,0.1171875 l -0.703125,0.7617187 c -0.082031,-0.140625 -0.5390625,-0.8789062 -1.6523437,-0.8789062 -2.2148438,0 -4.45312504,2.203125 -4.45312504,4.5117187 0,1.64062504 1.17187504,2.73046879 2.69531254,2.73046879 0.8671875,0 1.6171875,-0.3984375 2.1445312,-0.85546875 0.9375,-0.82031254 1.1015625,-1.72265624 1.1015625,-1.75781254 0,-0.1054687 -0.1054687,-0.1054687 -0.1171875,-0.1054687 -0.058594,0 -0.1171875,0.023437 -0.1289062,0.1054687 -0.09375,0.2929688 -0.3164063,0.9960938 -1.0078125,1.57031254 -0.6914063,0.5625 -1.3125,0.7265625 -1.8398438,0.7265625 -0.890625,0 -1.9453125,-0.515625 -1.9453125,-2.06250004 0,-0.5742187 0.2109375,-2.1914062 1.2070313,-3.3515625 0.609375,-0.703125 1.5351562,-1.2070312 2.4257812,-1.2070312 1.0195313,0 1.6054688,0.7734375 1.6054688,1.921875 0,0.3984375 -0.035156,0.4101562 -0.035156,0.5039062 0,0.1054688 0.1171875,0.1054688 0.1523438,0.1054688 0.1289062,0 0.1289062,-0.023437 0.1757812,-0.1992188 z m 0,0"
         style="fill:#000000;fill-opacity:1;fill-rule:nonzero;stroke:none" />
      <path
         id="path18"
         d="m 9.4542969,-2.9360234 c 0,-0.1875 -0.011719,-0.1992188 -0.2109375,-0.1992188 -0.4453125,0.4335938 -1.078125,0.4453125 -1.359375,0.4453125 v 0.2460938 c 0.1640625,0 0.6210937,0 1.0078125,-0.1875 v 3.55078121 c 0,0.23437499 0,0.32812499 -0.6914063,0.32812499 H 7.9308594 v 0.2460938 c 0.1289062,-0.011719 0.984375,-0.023437 1.2421875,-0.023437 0.2109375,0 1.0898441,0.011719 1.2421871,0.023437 V 1.2475703 h -0.257812 c -0.7031251,0 -0.7031251,-0.09375 -0.7031251,-0.32812499 z m 0,0"
         style="fill:#000000;fill-opacity:1;fill-rule:nonzero;stroke:none" />
    </g>
    <path
       id="path19"
       d="m 141.57466,68.99783 c 3.28771,0 5.95285,-1.63475 5.95285,-3.65135 0,-2.0166 -2.66514,-3.65134 -5.95285,-3.65134 -1.64375,0 -2.97627,0.66625 -2.97627,1.48813 0,0.82189 1.33252,1.48815 2.97627,1.48815 3.28771,0 5.95285,-1.63475 5.95285,-3.65135 0,-2.01661 -2.66514,-3.65136 -5.95285,-3.65136 -1.64375,0 -2.97627,0.66626 -2.97627,1.48815 0,0.82187 1.33252,1.48813 2.97627,1.48813 3.28771,0 5.95285,-1.63474 5.95285,-3.65134 0,-2.01662 -2.66514,-3.65135 -5.95285,-3.65135 -1.64375,0 -2.97627,0.66626 -2.97627,1.48813 0,0.82188 1.33252,1.48814 2.97627,1.48814 3.28771,0 5.95285,-1.63475 5.95285,-3.65135 0,-2.0166 -2.66514,-3.65135 -5.95285,-3.65135 -1.64375,0 -2.97627,0.66626 -2.97627,1.48814 0,0.82189 1.33252,1.48813 2.97627,1.48813 3.28771,0 5.95285,-1.63474 5.95285,-3.65134 0,-2.0166 -2.66514,-3.65135 -5.95285,-3.65135"
       style="fill:none;stroke:#000000;stroke-width:0.797;stroke-linecap:butt;stroke-linejoin:bevel;stroke-miterlimit:10;stroke-dasharray:none;stroke-opacity:1"
       transform="matrix(1.3333333,0,0,-1.3333333,10.437333,173.312)" />
    <g
       id="g19"
       aria-label="L&#10;1"
       transform="matrix(1.3333333,0,0,1.3333333,210.29333,100.58267)">
      <path
         id="path20"
         d="m 3.7262891,-6.0239141 c 0.09375,-0.3632812 0.1171875,-0.46875 1.0546875,-0.46875 0.3046875,0 0.375,0 0.375,-0.1875 0,-0.1289062 -0.1054688,-0.1289062 -0.1523438,-0.1289062 -0.328125,0 -1.1484375,0.035156 -1.4765625,0.035156 -0.3046875,0 -1.03125,-0.035156 -1.3242187,-0.035156 -0.070312,0 -0.1875,0 -0.1875,0.1992187 0,0.1171875 0.082031,0.1171875 0.28125,0.1171875 0.011719,0 0.1992187,0 0.375,0.011719 0.1757812,0.023437 0.2695312,0.035156 0.2695312,0.1640625 0,0.035156 -0.011719,0.070312 -0.046875,0.1875 l -1.3359375,5.35546874 c -0.09375,0.38671875 -0.1171875,0.46875 -0.90234374,0.46875 -0.1640625,0 -0.26953125,0 -0.26953125,0.19921875 0,0.1054687475 0.09375,0.1054687475 0.26953125,0.1054687475 H 5.2731641 c 0.234375,0 0.2460937,0 0.3046875,-0.1640624975 L 6.3630078,-2.3207891 c 0.046875,-0.1054687 0.046875,-0.1289062 0.046875,-0.140625 0,-0.035156 -0.035156,-0.1054687 -0.1289062,-0.1054687 -0.082031,0 -0.09375,0.046875 -0.1640625,0.2109375 -0.3398438,0.9140625 -0.7734375,2.05078124 -2.4960938,2.05078124 h -0.9375 c -0.140625,0 -0.1640625,0 -0.2226562,-0.0117188 -0.1054688,-0.0117188 -0.1289063,-0.0234375 -0.1289063,-0.10546875 0,-0.0234375 0,-0.046875 0.046875,-0.22265625 z m 0,0"
         style="fill:#000000;fill-opacity:1;fill-rule:nonzero;stroke:none" />
      <path
         id="path21"
         d="m 9.1110547,-2.9360234 c 0,-0.1875 -0.011719,-0.1992188 -0.2109375,-0.1992188 -0.4453125,0.4335938 -1.078125,0.4453125 -1.359375,0.4453125 v 0.2460938 c 0.1640625,0 0.6210937,0 1.0078125,-0.1875 v 3.55078121 c 0,0.23437499 0,0.32812499 -0.6914063,0.32812499 H 7.5876172 v 0.2460938 c 0.1289062,-0.011719 0.984375,-0.023437 1.2421875,-0.023437 0.2109375,0 1.0898437,0.011719 1.2421873,0.023437 V 1.2475703 H 9.8141797 c -0.703125,0 -0.703125,-0.09375 -0.703125,-0.32812499 z m 0,0"
         style="fill:#000000;fill-opacity:1;fill-rule:nonzero;stroke:none" />
    </g>
    <path
       id="path22"
       d="M 56.69363,78.71994 V 65.4243 L 44.7879,59.96754"
       style="fill:none;stroke:#000000;stroke-width:0.3985;stroke-linecap:butt;stroke-linejoin:miter;stroke-miterlimit:10;stroke-dasharray:none;stroke-opacity:1"
       transform="matrix(1.3333333,0,0,-1.3333333,10.437333,173.312)" />
    <path
       id="path23"
       d="M 44.7879,65.4243 V 47.96295"
       style="fill:none;stroke:#000000;stroke-width:0.797;stroke-linecap:butt;stroke-linejoin:miter;stroke-miterlimit:10;stroke-dasharray:none;stroke-opacity:1"
       transform="matrix(1.3333333,0,0,-1.3333333,10.437333,173.312)" />
    <path
       id="path24"
       d="M 44.7879,53.41971 56.69363,47.96295 V 34.66731"
       style="fill:none;stroke:#000000;stroke-width:0.3985;stroke-linecap:butt;stroke-linejoin:miter;stroke-miterlimit:10;stroke-dasharray:none;stroke-opacity:1"
       transform="matrix(1.3333333,0,0,-1.3333333,10.437333,173.312)" />
    <path
       id="path25"
       d="m 48.98137,51.4977 0.95276,2.07878 3.6927,-4.20788 -5.5982,0.05031 z"
       style="fill:#000000;fill-opacity:1;fill-rule:nonzero;stroke:none"
       transform="matrix(1.3333333,0,0,-1.3333333,10.437333,173.312)" />
    <path
       id="path26"
       d="M 44.7879,56.69363 H 32.68292"
       style="fill:none;stroke:#000000;stroke-width:0.3985;stroke-linecap:butt;stroke-linejoin:miter;stroke-miterlimit:10;stroke-dasharray:none;stroke-opacity:1"
       transform="matrix(1.3333333,0,0,-1.3333333,10.437333,173.312)" />
    <path
       id="path27"
       d="m 4.2548281,-6.0475156 c 0.070312,-0.28125 0.1054688,-0.3398438 0.234375,-0.3632813 0.082031,-0.023437 0.4101563,-0.023437 0.6210938,-0.023437 1.0078125,0 1.453125,0.035156 1.453125,0.8203125 0,0.140625 -0.035156,0.5273438 -0.082031,0.796875 0,0.035156 -0.023437,0.1523438 -0.023437,0.1875 0,0.058594 0.023437,0.1289063 0.1171875,0.1289063 0.1054688,0 0.1289063,-0.082031 0.1523438,-0.234375 l 0.2695312,-1.734375 c 0.011719,-0.035156 0.011719,-0.140625 0.011719,-0.1640625 0,-0.1054688 -0.09375,-0.1054688 -0.2695313,-0.1054688 H 1.2196719 c -0.24609378,0 -0.25781253,0 -0.31640628,0.1992188 l -0.59765625,1.7460937 c -0.0117188,0.023437 -0.0703125,0.1640625 -0.0703125,0.1757813 0,0.070312 0.0585938,0.1171875 0.12890625,0.1171875 0.09375,0 0.10546875,-0.046875 0.1640625,-0.2109375 0.53906248,-1.546875 0.79687498,-1.7226563 2.27343748,-1.7226563 h 0.3867188 c 0.28125,0 0.28125,0.035156 0.28125,0.1171875 0,0.058594 -0.035156,0.1757813 -0.046875,0.2109375 l -1.3242188,5.32031252 c -0.09375,0.36328125 -0.1289062,0.48046875 -1.19531248,0.48046875 -0.3515625,0 -0.41015625,0 -0.41015625,0.1875 0,0.117187505 0.10546875,0.117187505 0.1640625,0.117187505 0.26953125,0 0.55078123,-0.023437505 0.82031253,-0.023437505 0.28125,0 0.5625,-0.01171875 0.84375,-0.01171875 0.28125,0 0.5625,0.01171875 0.8320312,0.01171875 0.28125,0 0.5859375,0.023437505 0.8671875,0.023437505 0.09375,0 0.2109375,0 0.2109375,-0.199218755 0,-0.10546875 -0.082031,-0.10546875 -0.3398437,-0.10546875 -0.2460938,0 -0.375,0 -0.6328125,-0.0234375 -0.2929688,-0.0351563 -0.3632813,-0.0585938 -0.3632813,-0.22265625 0,-0.0117188 0,-0.0585938 0.035156,-0.2109375 z m 0,0"
       style="fill:#000000;fill-opacity:1;fill-rule:nonzero;stroke:none"
       aria-label="T"
       transform="matrix(1.3333333,0,0,1.3333333,81.225333,102.25867)" />
    <path
       id="path28"
       d="M 0,56.69363 H 32.88217"
       style="fill:none;stroke:#000000;stroke-width:0.3985;stroke-linecap:butt;stroke-linejoin:miter;stroke-miterlimit:10;stroke-dasharray:none;stroke-opacity:1"
       transform="matrix(1.3333333,0,0,-1.3333333,10.437333,173.312)" />
    <path
       id="path29"
       d="M 56.69363,113.38727 V 78.52069"
       style="fill:none;stroke:#000000;stroke-width:0.3985;stroke-linecap:butt;stroke-linejoin:miter;stroke-miterlimit:10;stroke-dasharray:none;stroke-opacity:1"
       transform="matrix(1.3333333,0,0,-1.3333333,10.437333,173.312)" />
    <path
       id="path30"
       d="m 56.69363,34.86656 -10e-6,-17.43329 m 0,0 L 56.69363,0"
       style="fill:none;stroke:#000000;stroke-width:0.3985;stroke-linecap:butt;stroke-linejoin:miter;stroke-miterlimit:10;stroke-dasharray:none;stroke-opacity:1"
       transform="matrix(1.3333333,0,0,-1.3333333,10.437333,173.312)" />
    <path
       id="path31"
       d="m 58.28078,0 c 0,0.87656 -0.71059,1.58714 -1.58715,1.58714 -0.87657,0 -1.58715,-0.71058 -1.58715,-1.58714 0,-0.87656 0.71058,-1.58714 1.58715,-1.58714 0.87656,0 1.58715,0.71058 1.58715,1.58714 z"
       style="fill:#000000;fill-opacity:1;fill-rule:nonzero;stroke:#000000;stroke-width:0.3985;stroke-linecap:butt;stroke-linejoin:miter;stroke-miterlimit:10;stroke-dasharray:none;stroke-opacity:1"
       transform="matrix(1.3333333,0,0,-1.3333333,10.437333,173.312)" />
    <path
       id="path32"
       d="M 56.69363,0 V -11.90558"
       style="fill:none;stroke:#000000;stroke-width:0.3985;stroke-linecap:butt;stroke-linejoin:miter;stroke-miterlimit:10;stroke-dasharray:none;stroke-opacity:1"
       transform="matrix(1.3333333,0,0,-1.3333333,10.437333,173.312)" />
    <path
       id="path33"
       d="m 50.74077,-11.90558 h 11.90571 m -9.92134,-1.98424 h 7.93697 m -6.44881,-1.98437 h 4.96065"
       style="fill:none;stroke:#000000;stroke-width:0.797;stroke-linecap:butt;stroke-linejoin:miter;stroke-miterlimit:10;stroke-dasharray:none;stroke-opacity:1"
       transform="matrix(1.3333333,0,0,-1.3333333,10.437333,173.312)" />
    <g
       id="g33"
       aria-label="f&#10;01"
       transform="matrix(1.3333333,0,0,1.3333333,167.86,101.04133)">
      <path
         id="path34"
         d="M 3.6557812,-3.9831484 H 4.51125 c 0.1992187,0 0.3046875,0 0.3046875,-0.1992188 0,-0.1054687 -0.1054688,-0.1054687 -0.2695313,-0.1054687 H 3.714375 l 0.2109375,-1.1367188 c 0.035156,-0.2109375 0.1757812,-0.9140625 0.234375,-1.0429687 0.09375,-0.1875 0.2578125,-0.3398438 0.46875,-0.3398438 0.046875,0 0.3046875,0 0.4921875,0.1875 -0.4335938,0.035156 -0.5390625,0.3867188 -0.5390625,0.5390625 0,0.2226563 0.1757812,0.3398438 0.3632812,0.3398438 0.2695313,0 0.5507813,-0.2109375 0.5507813,-0.5976563 0,-0.4570312 -0.4570313,-0.6796875 -0.8671875,-0.6796875 -0.3398438,0 -0.9609375,0.1757813 -1.265625,1.1601563 -0.058594,0.2109375 -0.082031,0.3164062 -0.328125,1.5703125 H 2.355 c -0.1992188,0 -0.3046875,0 -0.3046875,0.1875 0,0.1171875 0.09375,0.1171875 0.28125,0.1171875 h 0.65625 l -0.75,3.93749996 C 2.0620312,0.91528906 1.8979687,1.8293516 1.370625,1.8293516 c -0.035156,0 -0.28125,0 -0.46875,-0.1875 0.4570312,-0.023437 0.5390625,-0.3867188 0.5390625,-0.5390625 0,-0.22265629 -0.1757813,-0.33984379 -0.3632813,-0.33984379 -0.25781245,0 -0.5507812,0.2109375 -0.5507812,0.59765629 0,0.4453125 0.43359375,0.6796875 0.84375,0.6796875 0.5507812,0 0.9492187,-0.5859375 1.125,-0.9609375 0.328125,-0.63281254 0.5507812,-1.83984379 0.5625,-1.91015629 z m 0,0"
         style="fill:#000000;fill-opacity:1;fill-rule:nonzero;stroke:none" />
      <path
         id="path35"
         d="m 8.4751172,-0.73119531 c 0,-0.76171879 -0.09375,-1.31249999 -0.4101563,-1.80468749 -0.2226562,-0.3164063 -0.6445312,-0.5976563 -1.2070312,-0.5976563 -1.6171875,0 -1.6171875,1.8984375 -1.6171875,2.40234379 0,0.50390625 0,2.36718751 1.6171875,2.36718751 1.6171875,0 1.6171875,-1.86328126 1.6171875,-2.36718751 z M 6.8579297,1.4367734 c -0.3164063,0 -0.75,-0.1875 -0.890625,-0.76171871 -0.09375,-0.41015625 -0.09375,-0.984375 -0.09375,-1.5 0,-0.50390629 0,-1.03124999 0.1054687,-1.41796879 0.1523438,-0.5507812 0.5976563,-0.6914062 0.8789063,-0.6914062 0.375,0 0.7382812,0.2226562 0.8671875,0.6328125 0.1054687,0.375 0.1171875,0.8789062 0.1171875,1.47656249 0,0.515625 0,1.04296875 -0.09375,1.4765625 C 7.6079297,1.2844297 7.1391797,1.4367734 6.8579297,1.4367734 Z m 4.3212893,-4.3710937 c 0,-0.1875 -0.01172,-0.1992188 -0.210938,-0.1992188 -0.445312,0.4335938 -1.0781248,0.4453125 -1.3593748,0.4453125 v 0.2460938 c 0.1640625,0 0.6210938,0 1.0078128,-0.1875 v 3.55078124 c 0,0.23437496 0,0.32812496 -0.6914065,0.32812496 H 9.6557812 v 0.2460938 c 0.1289063,-0.011719 0.9843748,-0.023437 1.2421878,-0.023437 0.210937,0 1.089843,0.011719 1.242187,0.023437 V 1.2492734 h -0.257812 c -0.703125,0 -0.703125,-0.09375 -0.703125,-0.32812496 z m 0,0"
         style="fill:#000000;fill-opacity:1;fill-rule:nonzero;stroke:none" />
    </g>
    <g
       id="g35"
       aria-label="f&#10;02"
       transform="matrix(1.3333333,0,0,1.3333333,46.913333,131.27733)">
      <path
         id="path36"
         d="m 3.6567969,-3.9843672 h 0.8554687 c 0.1992188,0 0.3046875,0 0.3046875,-0.1992187 0,-0.1054688 -0.1054687,-0.1054688 -0.2695312,-0.1054688 H 3.7153906 l 0.2109375,-1.1367187 c 0.035156,-0.2109375 0.1757813,-0.9140625 0.234375,-1.0429688 0.09375,-0.1875 0.2578125,-0.3398437 0.46875,-0.3398437 0.046875,0 0.3046875,0 0.4921875,0.1875 -0.4335937,0.035156 -0.5390625,0.3867187 -0.5390625,0.5390625 0,0.2226562 0.1757813,0.3398437 0.3632813,0.3398437 0.2695312,0 0.5507812,-0.2109375 0.5507812,-0.5976562 0,-0.4570313 -0.4570312,-0.6796875 -0.8671875,-0.6796875 -0.3398437,0 -0.9609375,0.1757812 -1.265625,1.1601562 -0.058594,0.2109375 -0.082031,0.3164063 -0.328125,1.5703125 H 2.3560156 c -0.1992187,0 -0.3046875,0 -0.3046875,0.1875 0,0.1171875 0.09375,0.1171875 0.28125,0.1171875 h 0.65625 l -0.75,3.93750001 C 2.0630469,0.91407031 1.8989844,1.8281328 1.3716406,1.8281328 c -0.035156,0 -0.28125,0 -0.46874998,-0.1875 C 1.3599219,1.6171953 1.4419531,1.2539141 1.4419531,1.1015703 c 0,-0.22265624 -0.1757812,-0.33984374 -0.3632812,-0.33984374 -0.25781253,0 -0.55078128,0.2109375 -0.55078128,0.59765624 0,0.4453125 0.43359375,0.6796875 0.84374998,0.6796875 0.5507813,0 0.9492188,-0.5859375 1.125,-0.9609375 0.328125,-0.63281249 0.5507813,-1.83984374 0.5625,-1.91015624 z m 0,0"
         style="fill:#000000;fill-opacity:1;fill-rule:nonzero;stroke:none" />
      <path
         id="path37"
         d="m 8.4761328,-0.73241406 c 0,-0.76171874 -0.09375,-1.31250004 -0.4101562,-1.80468754 -0.2226563,-0.3164062 -0.6445313,-0.5976562 -1.2070313,-0.5976562 -1.6171875,0 -1.6171875,1.8984375 -1.6171875,2.40234374 0,0.50390625 0,2.36718746 1.6171875,2.36718746 1.6171875,0 1.6171875,-1.86328121 1.6171875,-2.36718746 z M 6.8589453,1.4355547 c -0.3164062,0 -0.75,-0.1875 -0.890625,-0.76171876 -0.09375,-0.41015625 -0.09375,-0.984375 -0.09375,-1.5 0,-0.50390624 0,-1.03125004 0.1054688,-1.41796874 0.1523437,-0.5507813 0.5976562,-0.6914063 0.8789062,-0.6914063 0.375,0 0.7382813,0.2226563 0.8671875,0.6328125 0.1054688,0.375 0.1171875,0.8789063 0.1171875,1.47656254 0,0.515625 0,1.04296875 -0.09375,1.4765625 C 7.6089453,1.2832109 7.1401953,1.4355547 6.8589453,1.4355547 Z M 12.360898,0.22852344 h -0.234375 c -0.02344,0.15234375 -0.08203,0.5625 -0.175781,0.6328125 -0.05859,0.0351563 -0.597656,0.0351563 -0.691406,0.0351563 H 9.9702734 c 0.7382816,-0.64453125 0.9843746,-0.84375 1.3945316,-1.171875 0.515625,-0.41015625 0.996093,-0.84374994 0.996093,-1.49999994 0,-0.8437501 -0.738281,-1.3593751 -1.628906,-1.3593751 -0.8671873,0 -1.4531248,0.609375 -1.4531248,1.2421876 0,0.3632812 0.3046875,0.3984375 0.375,0.3984375 0.1640625,0 0.3749998,-0.1171875 0.3749998,-0.375 0,-0.1289063 -0.058594,-0.3632814 -0.4218748,-0.3632814 0.2226562,-0.5039062 0.6914058,-0.65625 1.0195308,-0.65625 0.703125,0 1.066407,0.5507813 1.066407,1.1132813 0,0.609375 -0.433594,1.08984379 -0.65625,1.33593754 L 9.3491797,1.2246172 c -0.070312,0.058594 -0.070312,0.070312 -0.070312,0.2695312 H 12.16168 Z m 0,0"
         style="fill:#000000;fill-opacity:1;fill-rule:nonzero;stroke:none" />
    </g>
    <g
       id="g37"
       aria-label="f&#10;03"
       transform="matrix(1.3333333,0,0,1.3333333,46.913333,70.805333)">
      <path
         id="path38"
         d="m 3.6567969,-3.9848594 h 0.8554687 c 0.1992188,0 0.3046875,0 0.3046875,-0.1992187 0,-0.1054688 -0.1054687,-0.1054688 -0.2695312,-0.1054688 H 3.7153906 l 0.2109375,-1.1367187 c 0.035156,-0.2109375 0.1757813,-0.9140625 0.234375,-1.0429688 0.09375,-0.1875 0.2578125,-0.3398437 0.46875,-0.3398437 0.046875,0 0.3046875,0 0.4921875,0.1875 -0.4335937,0.035156 -0.5390625,0.3867187 -0.5390625,0.5390625 0,0.2226562 0.1757813,0.3398437 0.3632813,0.3398437 0.2695312,0 0.5507812,-0.2109375 0.5507812,-0.5976562 0,-0.4570313 -0.4570312,-0.6796875 -0.8671875,-0.6796875 -0.3398437,0 -0.9609375,0.1757812 -1.265625,1.1601562 -0.058594,0.2109375 -0.082031,0.3164063 -0.328125,1.5703125 H 2.3560156 c -0.1992187,0 -0.3046875,0 -0.3046875,0.1875 0,0.1171875 0.09375,0.1171875 0.28125,0.1171875 h 0.65625 l -0.75,3.93750002 C 2.0630469,0.91357812 1.8989844,1.8276406 1.3716406,1.8276406 c -0.035156,0 -0.28125,0 -0.46874998,-0.1875 C 1.3599219,1.6167031 1.4419531,1.2534219 1.4419531,1.1010781 c 0,-0.22265623 -0.1757812,-0.33984373 -0.3632812,-0.33984373 -0.25781253,0 -0.55078128,0.2109375 -0.55078128,0.59765623 0,0.4453125 0.43359375,0.6796875 0.84374998,0.6796875 0.5507813,0 0.9492188,-0.5859375 1.125,-0.9609375 0.328125,-0.63281248 0.5507813,-1.83984373 0.5625,-1.91015623 z m 0,0"
         style="fill:#000000;fill-opacity:1;fill-rule:nonzero;stroke:none" />
      <path
         id="path39"
         d="m 8.4761328,-0.73290625 c 0,-0.76171875 -0.09375,-1.31250005 -0.4101562,-1.80468755 C 7.8433203,-2.854 7.4214453,-3.13525 6.8589453,-3.13525 c -1.6171875,0 -1.6171875,1.8984375 -1.6171875,2.40234375 0,0.50390625 0,2.36718745 1.6171875,2.36718745 1.6171875,0 1.6171875,-1.8632812 1.6171875,-2.36718745 z M 6.8589453,1.4350625 c -0.3164062,0 -0.75,-0.1875 -0.890625,-0.76171875 -0.09375,-0.41015625 -0.09375,-0.984375 -0.09375,-1.5 0,-0.50390625 0,-1.03125005 0.1054688,-1.41796875 0.1523437,-0.5507813 0.5976562,-0.6914063 0.8789062,-0.6914063 0.375,0 0.7382813,0.2226563 0.8671875,0.6328125 0.1054688,0.375 0.1171875,0.8789063 0.1171875,1.47656255 0,0.515625 0,1.04296875 -0.09375,1.4765625 C 7.6089453,1.2827187 7.1401953,1.4350625 6.8589453,1.4350625 Z M 10.743711,-0.838375 c 0.550781,0 0.9375,0.375 0.9375,1.125 0,0.8671875 -0.503906,1.125 -0.902344,1.125 -0.28125,0 -0.8906248,-0.082031 -1.1835936,-0.4921875 C 9.9233984,0.90771875 9.9937109,0.67334375 9.9937109,0.53271875 9.9937109,0.3100625 9.8296484,0.146 9.6069922,0.146 c -0.1875,0 -0.3867188,0.1171875 -0.3867188,0.41015625 0,0.65624995 0.7265625,1.07812495 1.5703126,1.07812495 0.972656,0 1.640625,-0.6445312 1.640625,-1.3476562 0,-0.5390625 -0.445313,-1.08984375 -1.21875,-1.2421875 0.738281,-0.2695313 0.996094,-0.796875 0.996094,-1.21875 0,-0.5507813 -0.632813,-0.9609375 -1.40625,-0.9609375 -0.773438,0 -1.3593753,0.375 -1.3593753,0.9375 0,0.234375 0.1523437,0.3632812 0.3632812,0.3632812 0.2109371,0 0.3515621,-0.1640625 0.3515621,-0.3515625 0,-0.1992187 -0.140625,-0.3515625 -0.3515621,-0.3632812 0.2343751,-0.3046875 0.7148441,-0.3867188 0.9726561,-0.3867188 0.316406,0 0.761719,0.1523438 0.761719,0.7617188 0,0.2929687 -0.105469,0.609375 -0.28125,0.8320312 -0.234375,0.2578125 -0.421875,0.28125 -0.773438,0.2929688 -0.175781,0.023437 -0.1875,0.023437 -0.222656,0.023437 -0.01172,0 -0.07031,0.011719 -0.07031,0.09375 0,0.09375 0.05859,0.09375 0.175781,0.09375 z m 0,0"
         style="fill:#000000;fill-opacity:1;fill-rule:nonzero;stroke:none" />
    </g>
  </g>
</svg>
