<?xml version="1.0" encoding="UTF-8" standalone="no"?>
<!-- Created with Inkscape (http://www.inkscape.org/) -->

<svg
   version="1.1"
   id="svg1"
   width="228.86667"
   height="130.01334"
   viewBox="0 0 228.86667 130.01334"
   sodipodi:docname="24-25-1-通信电子电路-期末-题图5.pdf"
   xmlns:inkscape="http://www.inkscape.org/namespaces/inkscape"
   xmlns:sodipodi="http://sodipodi.sourceforge.net/DTD/sodipodi-0.dtd"
   xmlns="http://www.w3.org/2000/svg"
   xmlns:svg="http://www.w3.org/2000/svg">
  <defs
     id="defs1" />
  <sodipodi:namedview
     id="namedview1"
     pagecolor="#ffffff"
     bordercolor="#000000"
     borderopacity="0.25"
     inkscape:showpageshadow="2"
     inkscape:pageopacity="0.0"
     inkscape:pagecheckerboard="0"
     inkscape:deskcolor="#d1d1d1">
    <inkscape:page
       x="0"
       y="0"
       inkscape:label="1"
       id="page1"
       width="228.86667"
       height="130.01334"
       margin="0"
       bleed="0" />
  </sodipodi:namedview>
  <g
     id="g1"
     inkscape:groupmode="layer"
     inkscape:label="1">
    <path
       id="path1"
       d="M -11.46713,-6.23668 V 91.27713 H 160.18385 V -6.23668 Z"
       style="fill:#ffffff;fill-opacity:1;fill-rule:nonzero;stroke:none"
       transform="matrix(1.3333333,0,0,-1.3333333,15.289333,121.69733)" />
    <path
       id="path2"
       d="m 35.75966,0 c 0,0.9629 -0.78058,1.74348 -1.74349,1.74348 -0.96292,0 -1.74348,-0.78058 -1.74348,-1.74348 0,-0.9629 0.78056,-1.74348 1.74348,-1.74348 0.96291,0 1.74349,0.78058 1.74349,1.74348 z"
       style="fill:#000000;fill-opacity:1;fill-rule:nonzero;stroke:#000000;stroke-width:0.3985;stroke-linecap:butt;stroke-linejoin:miter;stroke-miterlimit:10;stroke-dasharray:none;stroke-opacity:1"
       transform="matrix(1.3333333,0,0,-1.3333333,15.289333,121.69733)" />
    <path
       id="path3"
       d="m 69.77583,0 c 0,0.9629 -0.78058,1.74348 -1.74348,1.74348 -0.96292,0 -1.74349,-0.78058 -1.74349,-1.74348 0,-0.9629 0.78057,-1.74348 1.74349,-1.74348 0.9629,0 1.74348,0.78058 1.74348,1.74348 z"
       style="fill:#000000;fill-opacity:1;fill-rule:nonzero;stroke:#000000;stroke-width:0.3985;stroke-linecap:butt;stroke-linejoin:miter;stroke-miterlimit:10;stroke-dasharray:none;stroke-opacity:1"
       transform="matrix(1.3333333,0,0,-1.3333333,15.289333,121.69733)" />
    <path
       id="path4"
       d="m 103.792,0 c 0,0.9629 -0.78057,1.74348 -1.74348,1.74348 -0.96292,0 -1.74348,-0.78058 -1.74348,-1.74348 0,-0.9629 0.78056,-1.74348 1.74348,-1.74348 0.96291,0 1.74348,0.78058 1.74348,1.74348 z"
       style="fill:#000000;fill-opacity:1;fill-rule:nonzero;stroke:#000000;stroke-width:0.3985;stroke-linecap:butt;stroke-linejoin:miter;stroke-miterlimit:10;stroke-dasharray:none;stroke-opacity:1"
       transform="matrix(1.3333333,0,0,-1.3333333,15.289333,121.69733)" />
    <path
       id="path5"
       d="m 35.75966,85.04044 c 0,0.9629 -0.78058,1.74348 -1.74349,1.74348 -0.96292,0 -1.74348,-0.78058 -1.74348,-1.74348 0,-0.96291 0.78056,-1.74349 1.74348,-1.74349 0.96291,0 1.74349,0.78058 1.74349,1.74349 z"
       style="fill:#000000;fill-opacity:1;fill-rule:nonzero;stroke:#000000;stroke-width:0.3985;stroke-linecap:butt;stroke-linejoin:miter;stroke-miterlimit:10;stroke-dasharray:none;stroke-opacity:1"
       transform="matrix(1.3333333,0,0,-1.3333333,15.289333,121.69733)" />
    <path
       id="path6"
       d="m 69.77583,85.04044 c 0,0.9629 -0.78058,1.74348 -1.74348,1.74348 -0.96292,0 -1.74349,-0.78058 -1.74349,-1.74348 0,-0.96291 0.78057,-1.74349 1.74349,-1.74349 0.9629,0 1.74348,0.78058 1.74348,1.74349 z"
       style="fill:#000000;fill-opacity:1;fill-rule:nonzero;stroke:#000000;stroke-width:0.3985;stroke-linecap:butt;stroke-linejoin:miter;stroke-miterlimit:10;stroke-dasharray:none;stroke-opacity:1"
       transform="matrix(1.3333333,0,0,-1.3333333,15.289333,121.69733)" />
    <path
       id="path7"
       d="m 103.792,42.52022 c 0,0.9629 -0.78057,1.74348 -1.74348,1.74348 -0.96292,0 -1.74348,-0.78058 -1.74348,-1.74348 0,-0.96291 0.78056,-1.74349 1.74348,-1.74349 0.96291,0 1.74348,0.78058 1.74348,1.74349 z"
       style="fill:#000000;fill-opacity:1;fill-rule:nonzero;stroke:#000000;stroke-width:0.3985;stroke-linecap:butt;stroke-linejoin:miter;stroke-miterlimit:10;stroke-dasharray:none;stroke-opacity:1"
       transform="matrix(1.3333333,0,0,-1.3333333,15.289333,121.69733)" />
    <path
       id="path8"
       d="m 35.85927,0 h 30.32997 m 3.6862,0 h 30.32997"
       style="fill:none;stroke:#000000;stroke-width:0.3985;stroke-linecap:butt;stroke-linejoin:miter;stroke-miterlimit:10;stroke-dasharray:none;stroke-opacity:1"
       transform="matrix(1.3333333,0,0,-1.3333333,15.289333,121.69733)" />
    <path
       id="path9"
       d="m 35.85927,85.04044 h 30.32997 m 3.6862,0 h 32.17308"
       style="fill:none;stroke:#000000;stroke-width:0.3985;stroke-linecap:butt;stroke-linejoin:miter;stroke-miterlimit:10;stroke-dasharray:none;stroke-opacity:1"
       transform="matrix(1.3333333,0,0,-1.3333333,15.289333,121.69733)" />
    <path
       id="path10"
       d="M 37.50314,28.57236 V 56.46811 H 30.5292 V 28.57236 Z"
       style="fill:none;stroke:#000000;stroke-width:0.3985;stroke-linecap:butt;stroke-linejoin:miter;stroke-miterlimit:10;stroke-dasharray:none;stroke-opacity:1"
       transform="matrix(1.3333333,0,0,-1.3333333,15.289333,121.69733)" />
    <g
       id="g10"
       aria-label="R&#10;s0"
       transform="matrix(1.3333333,0,0,1.3333333,70.252,68.546667)">
      <path
         id="path11"
         d="m 3.7397109,-6.1170312 c 0.058594,-0.234375 0.082031,-0.3398438 0.28125,-0.3632813 0.082031,-0.011719 0.3984375,-0.011719 0.5976563,-0.011719 0.7148437,0 1.8164062,0 1.8164062,0.984375 0,0.3398437 -0.1523437,1.0195312 -0.5507812,1.4179687 C 5.6264297,-3.8318753 5.0990859,-3.515469 4.2084609,-3.515469 H 3.0951797 Z m 1.4296875,2.7304687 c 1.0078125,-0.2226562 2.1914063,-0.9140625 2.1914063,-1.921875 0,-0.8554687 -0.890625,-1.5 -2.203125,-1.5 H 2.3217422 c -0.1992188,0 -0.2929688,0 -0.2929688,0.1992188 0,0.1171875 0.09375,0.1171875 0.28125,0.1171875 0.023437,0 0.2109375,0 0.3867188,0.011719 0.1757812,0.023437 0.2578125,0.035156 0.2578125,0.1640625 0,0.035156 0,0.070312 -0.035156,0.1875 l -1.3359375,5.35546875 c -0.09375,0.38671875 -0.1171875,0.46875 -0.90234371,0.46875 -0.17578125,0 -0.26953125,0 -0.26953125,0.19921875 0,0.10546875 0.1171875,0.10546875 0.140625,0.10546875 0.28125,0 0.97265626,-0.03515625 1.25390626,-0.03515625 0.28125,0 0.984375,0.03515625 1.265625,0.03515625 0.082031,0 0.1992187,0 0.1992187,-0.19921875 0,-0.10546875 -0.09375,-0.10546875 -0.28125,-0.10546875 -0.3632812,0 -0.6445312,0 -0.6445312,-0.1875 0,-0.0585938 0.011719,-0.10546875 0.023437,-0.1640625 l 0.65625,-2.63671875 h 1.1953125 c 0.9023437,0 1.078125,0.5507813 1.078125,0.9023438 0,0.1523437 -0.082031,0.4570312 -0.140625,0.6914062 -0.070312,0.2695313 -0.1523438,0.6445313 -0.1523438,0.84375 0,1.078125 1.1953125,1.078125 1.3242188,1.078125 0.84375,0 1.1953125,-1.0078125 1.1953125,-1.1484375 0,-0.1171875 -0.1171875,-0.1171875 -0.1171875,-0.1171875 -0.09375,0 -0.1171875,0.0703125 -0.1289063,0.140625 -0.2578125,0.73828125 -0.6796875,0.90234375 -0.9140625,0.90234375 -0.328125,0 -0.3984375,-0.22265625 -0.3984375,-0.609375 0,-0.3046875 0.058594,-0.82031245 0.1054688,-1.13671875 0.011719,-0.140625 0.035156,-0.328125 0.035156,-0.46875 0,-0.7617187 -0.6679687,-1.078125 -0.9374996,-1.1718753 z m 0,0"
         style="fill:#000000;fill-opacity:1;fill-rule:nonzero;stroke:none" />
      <path
         id="path12"
         d="m 10.565883,-1.1307031 c -0.175781,0.046875 -0.292969,0.18749998 -0.292969,0.32812498 0,0.1640625 0.140625,0.22265625 0.234375,0.22265625 0.07031,0 0.339844,-0.0351563 0.339844,-0.3984375 0,-0.44531253 -0.503906,-0.59765623 -0.9257814,-0.59765623 -1.0898438,0 -1.2890625,0.79687498 -1.2890625,1.00781248 0,0.2578125 0.1523437,0.43359375 0.2460937,0.515625 0.1757813,0.140625 0.3046875,0.1640625 0.7851563,0.24609375 0.1523437,0.0351563 0.5976559,0.1171875 0.5976559,0.46875 0,0.1171875 -0.08203,0.37499997 -0.3749997,0.55078127 -0.2695312,0.1523437 -0.609375,0.1523437 -0.6914062,0.1523437 -0.28125,0 -0.6796875,-0.058594 -0.84375,-0.2929687 0.234375,-0.023437 0.3867187,-0.19921877 0.3867187,-0.39843752 0,-0.1640625 -0.1289062,-0.2578125 -0.2695312,-0.2578125 -0.1992188,0 -0.4101563,0.1640625 -0.4101563,0.46875 0,0.42187502 0.4453125,0.67968752 1.125,0.67968752 1.2890627,0 1.5234377,-0.87890627 1.5234377,-1.14843752 0,-0.64453125 -0.703125,-0.7734375 -0.9609377,-0.8203125 -0.070312,-0.0117188 -0.2460937,-0.0351563 -0.28125,-0.0585938 -0.2578125,-0.046875 -0.3867187,-0.1875 -0.3867187,-0.33984375 0,-0.1640625 0.1289062,-0.35156253 0.28125,-0.44531253 0.1875,-0.1289063 0.4335937,-0.140625 0.5507812,-0.140625 0.1406252,0 0.5039062,0.023437 0.6562502,0.2578126 z m 0,0"
         style="fill:#000000;fill-opacity:1;fill-rule:nonzero;stroke:none" />
      <path
         id="path13"
         d="m 14.922328,-0.73226562 c 0,-0.76171878 -0.09375,-1.31249998 -0.410156,-1.80468748 -0.222656,-0.3164063 -0.644531,-0.5976563 -1.207031,-0.5976563 -1.617188,0 -1.617188,1.8984375 -1.617188,2.40234378 0,0.50390625 0,2.36718752 1.617188,2.36718752 1.617187,0 1.617187,-1.86328127 1.617187,-2.36718752 z M 13.305141,1.4357031 c -0.316407,0 -0.75,-0.1875 -0.890625,-0.76171872 -0.09375,-0.41015625 -0.09375,-0.984375 -0.09375,-1.5 0,-0.50390628 0,-1.03124998 0.105468,-1.41796878 0.152344,-0.5507812 0.597657,-0.6914062 0.878907,-0.6914062 0.375,0 0.738281,0.2226562 0.867187,0.6328125 0.105469,0.375 0.117188,0.8789062 0.117188,1.47656248 0,0.515625 0,1.04296875 -0.09375,1.4765625 C 14.055141,1.2833594 13.586391,1.4357031 13.305141,1.4357031 Z m 0,0"
         style="fill:#000000;fill-opacity:1;fill-rule:nonzero;stroke:none" />
    </g>
    <path
       id="path14"
       d="M 34.01617,83.19733 V 56.66736 m 0,-28.29425 V 1.8431 v 0"
       style="fill:none;stroke:#000000;stroke-width:0.3985;stroke-linecap:butt;stroke-linejoin:miter;stroke-miterlimit:10;stroke-dasharray:none;stroke-opacity:1"
       transform="matrix(1.3333333,0,0,-1.3333333,15.289333,121.69733)" />
    <path
       id="path15"
       d="m 0,35.54625 c 3.85164,0 6.97394,3.12228 6.97394,6.97394 0,3.85164 -3.1223,6.97394 -6.97394,6.97394 -3.85164,0 -6.97394,-3.1223 -6.97394,-6.97394 0,-3.85166 3.1223,-6.97394 6.97394,-6.97394 z"
       style="fill:none;stroke:#000000;stroke-width:0.3985;stroke-linecap:butt;stroke-linejoin:miter;stroke-miterlimit:10;stroke-dasharray:none;stroke-opacity:1"
       transform="matrix(1.3333333,0,0,-1.3333333,15.289333,121.69733)" />
    <path
       id="path16"
       d="M -6.97394,42.52019 H 6.97394"
       style="fill:none;stroke:#000000;stroke-width:0.3985;stroke-linecap:butt;stroke-linejoin:miter;stroke-miterlimit:10;stroke-dasharray:none;stroke-opacity:1"
       transform="matrix(1.3333333,0,0,-1.3333333,15.289333,121.69733)" />
    <path
       id="path17"
       d="M 9.49757,49.78307 V 33.80276"
       style="fill:none;stroke:#000000;stroke-width:0.3985;stroke-linecap:butt;stroke-linejoin:miter;stroke-miterlimit:10;stroke-dasharray:none;stroke-opacity:1"
       transform="matrix(1.3333333,0,0,-1.3333333,15.289333,121.69733)" />
    <path
       id="path18"
       d="M -1.45453,1.11327 1.45453,0 -1.45453,-1.11327 Z"
       style="fill:#000000;fill-opacity:1;fill-rule:nonzero;stroke:#000000;stroke-width:0.3985;stroke-linecap:butt;stroke-linejoin:round;stroke-miterlimit:10;stroke-dasharray:none;stroke-opacity:1"
       transform="matrix(0,-1.3333333,-1.3333333,0,27.95276,55.319907)" />
    <g
       id="g18"
       aria-label="i&#10;s"
       transform="matrix(1.3333333,0,0,1.3333333,29.546667,68.388)">
      <path
         id="path19"
         d="m 2.824375,-6.2236172 c 0,-0.1992187 -0.1289063,-0.3632812 -0.3632813,-0.3632812 -0.2695312,0 -0.5390625,0.2578125 -0.5390625,0.5273437 0,0.1875 0.140625,0.3632813 0.375,0.3632813 0.234375,0 0.5273438,-0.234375 0.5273438,-0.5273438 z m -0.75,3.7382813 c 0.1171875,-0.28125 0.1171875,-0.3046875 0.2226562,-0.5742188 0.070312,-0.1992187 0.1289063,-0.3398437 0.1289063,-0.5273437 0,-0.4453125 -0.328125,-0.8203125 -0.8203125,-0.8203125 -0.9375,0 -1.3125,1.453125 -1.3125,1.5351562 0,0.1054688 0.09375,0.1054688 0.1171875,0.1054688 0.09375,0 0.10546875,-0.023437 0.15234375,-0.1875 0.26953125,-0.9375 0.66796875,-1.2304688 1.00781245,-1.2304688 0.082031,0 0.2578125,0 0.2578125,0.3164063 0,0.2109375 -0.070312,0.421875 -0.1171875,0.515625 -0.082031,0.2578125 -0.5273437,1.4179687 -0.6796875,1.8515625 -0.1054687,0.2578125 -0.23437495,0.58593746 -0.23437495,0.79687496 0,0.46875 0.33984375,0.80859375 0.82031245,0.80859375 0.9375,0 1.3007813,-1.44140621 1.3007813,-1.53515621 0,-0.09375 -0.09375,-0.09375 -0.1171875,-0.09375 -0.1054688,0 -0.1054688,0.023437 -0.1523438,0.1757812 -0.1757812,0.63281251 -0.5039062,1.24218751 -1.0195312,1.24218751 -0.1640625,0 -0.234375,-0.10546875 -0.234375,-0.328125 0,-0.2578125 0.058594,-0.3984375 0.2929687,-0.99609371 z m 0,0"
         style="fill:#000000;fill-opacity:1;fill-rule:nonzero;stroke:none" />
      <path
         id="path20"
         d="m 6.4308203,-1.1318203 c -0.1757812,0.046875 -0.2929687,0.18749999 -0.2929687,0.32812499 0,0.1640625 0.140625,0.22265625 0.234375,0.22265625 0.070312,0 0.3398437,-0.0351563 0.3398437,-0.3984375 0,-0.44531254 -0.5039062,-0.59765624 -0.9257812,-0.59765624 -1.0898438,0 -1.2890625,0.79687499 -1.2890625,1.00781249 0,0.2578125 0.1523437,0.43359375 0.2460937,0.515625 0.1757813,0.140625 0.3046875,0.1640625 0.7851563,0.24609375 0.1523437,0.0351563 0.5976562,0.1171875 0.5976562,0.46875 0,0.1171875 -0.082031,0.37499996 -0.375,0.55078126 -0.2695312,0.1523437 -0.609375,0.1523437 -0.6914062,0.1523437 -0.28125,0 -0.6796875,-0.058594 -0.84375,-0.2929687 0.234375,-0.023437 0.3867187,-0.19921876 0.3867187,-0.39843751 0,-0.1640625 -0.1289062,-0.2578125 -0.2695312,-0.2578125 -0.1992188,0 -0.4101563,0.1640625 -0.4101563,0.46875 0,0.42187501 0.4453125,0.67968751 1.125,0.67968751 1.2890625,0 1.5234375,-0.87890626 1.5234375,-1.14843751 0,-0.64453125 -0.703125,-0.7734375 -0.9609375,-0.8203125 -0.070312,-0.0117188 -0.2460937,-0.0351563 -0.28125,-0.0585938 -0.2578125,-0.046875 -0.3867187,-0.1875 -0.3867187,-0.33984375 0,-0.1640625 0.1289062,-0.35156244 0.28125,-0.44531244 0.1875,-0.1289063 0.4335937,-0.140625 0.5507812,-0.140625 0.140625,0 0.5039063,0.023437 0.65625,0.2578125 z m 0,0"
         style="fill:#000000;fill-opacity:1;fill-rule:nonzero;stroke:none" />
    </g>
    <path
       id="path21"
       d="M 32.17307,85.04044 H 0 V 49.69337 M 0,35.347 9e-5,0 v 0 h 32.17298"
       style="fill:none;stroke:#000000;stroke-width:0.3985;stroke-linecap:butt;stroke-linejoin:miter;stroke-miterlimit:10;stroke-dasharray:none;stroke-opacity:1"
       transform="matrix(1.3333333,0,0,-1.3333333,15.289333,121.69733)" />
    <path
       id="path22"
       d="M 61.05841,44.26372 H 75.00629 M 61.05841,40.77675 h 13.94788"
       style="fill:none;stroke:#000000;stroke-width:0.3985;stroke-linecap:butt;stroke-linejoin:miter;stroke-miterlimit:10;stroke-dasharray:none;stroke-opacity:1"
       transform="matrix(1.3333333,0,0,-1.3333333,15.289333,121.69733)" />
    <path
       id="path23"
       d="m 7.5716719,-6.9255547 c 0,-0.023437 -0.023437,-0.09375 -0.1054688,-0.09375 -0.035156,0 -0.046875,0.011719 -0.1523437,0.1171875 l -0.703125,0.7617188 c -0.082031,-0.140625 -0.5390625,-0.8789063 -1.6523438,-0.8789063 -2.2148437,0 -4.45312497,2.203125 -4.45312497,4.5117188 0,1.64062496 1.17187497,2.73046871 2.69531247,2.73046871 0.8671875,0 1.6171875,-0.3984375 2.1445313,-0.85546875 0.9375,-0.82031246 1.1015625,-1.72265626 1.1015625,-1.75781246 0,-0.1054688 -0.1054688,-0.1054688 -0.1171875,-0.1054688 -0.058594,0 -0.1171875,0.023437 -0.1289063,0.1054688 -0.09375,0.2929687 -0.3164062,0.9960937 -1.0078125,1.57031246 -0.6914062,0.5625 -1.3125,0.7265625 -1.8398437,0.7265625 -0.890625,0 -1.9453125,-0.515625 -1.9453125,-2.06249996 0,-0.5742188 0.2109375,-2.1914063 1.2070312,-3.3515625 0.609375,-0.703125 1.5351563,-1.2070313 2.4257813,-1.2070313 1.0195312,0 1.6054687,0.7734375 1.6054687,1.921875 0,0.3984375 -0.035156,0.4101563 -0.035156,0.5039063 0,0.1054687 0.1171875,0.1054687 0.1523437,0.1054687 0.1289063,0 0.1289063,-0.023437 0.1757813,-0.1992187 z m 0,0"
       style="fill:#000000;fill-opacity:1;fill-rule:nonzero;stroke:none"
       aria-label="C"
       transform="matrix(1.3333333,0,0,1.3333333,120.256,69.542667)" />
    <path
       id="path24"
       d="M 68.03235,83.19733 V 44.46297 m 0,-3.88547 v -38.7344 0"
       style="fill:none;stroke:#000000;stroke-width:0.3985;stroke-linecap:butt;stroke-linejoin:miter;stroke-miterlimit:10;stroke-dasharray:none;stroke-opacity:1"
       transform="matrix(1.3333333,0,0,-1.3333333,15.289333,121.69733)" />
    <path
       id="path25"
       d="m 102.04852,7.31221 c -1.92582,0 -3.48697,1.56114 -3.48697,3.48697 0,1.92581 1.56115,3.48697 3.48697,3.48697 -1.92582,0 -3.48697,1.56114 -3.48697,3.48697 0,1.92581 1.56115,3.48697 3.48697,3.48697 -1.92582,0 -3.48697,1.56114 -3.48697,3.48697 0,1.92581 1.56115,3.48696 3.48697,3.48696 -1.92582,0 -3.48697,1.56115 -3.48697,3.48698 0,1.9258 1.56115,3.48696 3.48697,3.48696 v 0"
       style="fill:none;stroke:#000000;stroke-width:0.3985;stroke-linecap:round;stroke-linejoin:miter;stroke-miterlimit:10;stroke-dasharray:none;stroke-opacity:1"
       transform="matrix(1.3333333,0,0,-1.3333333,15.289333,121.69733)" />
    <g
       id="g25"
       aria-label="L&#10;2"
       transform="matrix(1.3333333,0,0,1.3333333,127.012,96.893333)">
      <path
         id="path26"
         d="m 3.7263516,-6.0225391 c 0.09375,-0.3632812 0.1171875,-0.46875 1.0546875,-0.46875 0.3046875,0 0.375,0 0.375,-0.1875 0,-0.1289062 -0.1054688,-0.1289062 -0.1523438,-0.1289062 -0.328125,0 -1.1484375,0.035156 -1.4765625,0.035156 -0.3046875,0 -1.03125,-0.035156 -1.3242187,-0.035156 -0.070312,0 -0.1875,0 -0.1875,0.1992187 0,0.1171875 0.082031,0.1171875 0.28125,0.1171875 0.011719,0 0.1992187,0 0.375,0.011719 0.1757812,0.023437 0.2695312,0.035156 0.2695312,0.1640625 0,0.035156 -0.011719,0.070312 -0.046875,0.1875 l -1.3359375,5.35546874 c -0.09375,0.38671875 -0.1171875,0.46875 -0.90234374,0.46875 -0.1640625,0 -0.26953125,0 -0.26953125,0.19921875 0,0.1054687475 0.09375,0.1054687475 0.26953125,0.1054687475 H 5.2732266 c 0.234375,0 0.2460937,0 0.3046875,-0.1640624975 L 6.3630703,-2.3194141 c 0.046875,-0.1054687 0.046875,-0.1289062 0.046875,-0.140625 0,-0.035156 -0.035156,-0.1054687 -0.1289062,-0.1054687 -0.082031,0 -0.09375,0.046875 -0.1640625,0.2109375 -0.3398438,0.9140625 -0.7734375,2.05078124 -2.4960938,2.05078124 h -0.9375 c -0.140625,0 -0.1640625,0 -0.2226562,-0.0117188 -0.1054688,-0.0117188 -0.1289063,-0.0234375 -0.1289063,-0.10546875 0,-0.0234375 0,-0.046875 0.046875,-0.22265625 z m 0,0"
         style="fill:#000000;fill-opacity:1;fill-rule:nonzero;stroke:none" />
      <path
         id="path27"
         d="m 10.294711,0.22941406 h -0.234375 c -0.02344,0.15234375 -0.082031,0.5625 -0.1757813,0.6328125 -0.058594,0.0351563 -0.5976563,0.0351563 -0.6914063,0.0351563 H 7.9040859 c 0.7382813,-0.64453125 0.984375,-0.84375 1.3945313,-1.171875 0.515625,-0.41015625 0.9960938,-0.84374996 0.9960938,-1.49999996 0,-0.8437501 -0.7382813,-1.3593751 -1.6289063,-1.3593751 -0.8671875,0 -1.453125,0.609375 -1.453125,1.2421876 0,0.3632813 0.3046875,0.3984375 0.375,0.3984375 0.1640625,0 0.375,-0.1171875 0.375,-0.375 0,-0.1289063 -0.058594,-0.3632812 -0.421875,-0.3632812 0.2226562,-0.5039064 0.6914062,-0.6562501 1.0195312,-0.6562501 0.703125,0 1.0664063,0.5507812 1.0664063,1.1132813 0,0.609375 -0.4335938,1.08984371 -0.65625,1.33593746 l -1.6875,1.66406254 c -0.070312,0.058594 -0.070312,0.070312 -0.070312,0.2695313 h 2.8828128 z m 0,0"
         style="fill:#000000;fill-opacity:1;fill-rule:nonzero;stroke:none" />
    </g>
    <path
       id="path28"
       d="m 102.04852,50.75398 c -1.92582,0 -3.48697,1.56116 -3.48697,3.48697 0,1.92583 1.56115,3.48697 3.48697,3.48697 -1.92582,0 -3.48697,1.56116 -3.48697,3.48697 0,1.92583 1.56115,3.48697 3.48697,3.48697 -1.92582,0 -3.48697,1.56116 -3.48697,3.48697 0,1.92582 1.56115,3.48697 3.48697,3.48697 -1.92582,0 -3.48697,1.56115 -3.48697,3.48697 0,1.92583 1.56115,3.48696 3.48697,3.48696 v 0"
       style="fill:none;stroke:#000000;stroke-width:0.3985;stroke-linecap:round;stroke-linejoin:miter;stroke-miterlimit:10;stroke-dasharray:none;stroke-opacity:1"
       transform="matrix(1.3333333,0,0,-1.3333333,15.289333,121.69733)" />
    <g
       id="g28"
       aria-label="L&#10;1"
       transform="matrix(1.3333333,0,0,1.3333333,127.012,38.970667)">
      <path
         id="path29"
         d="m 3.7263516,-6.024875 c 0.09375,-0.3632812 0.1171875,-0.46875 1.0546875,-0.46875 0.3046875,0 0.375,0 0.375,-0.1875 0,-0.1289062 -0.1054688,-0.1289062 -0.1523438,-0.1289062 -0.328125,0 -1.1484375,0.035156 -1.4765625,0.035156 -0.3046875,0 -1.03125,-0.035156 -1.3242187,-0.035156 -0.070312,0 -0.1875,0 -0.1875,0.1992187 0,0.1171875 0.082031,0.1171875 0.28125,0.1171875 0.011719,0 0.1992187,0 0.375,0.011719 0.1757812,0.023437 0.2695312,0.035156 0.2695312,0.1640625 0,0.035156 -0.011719,0.070312 -0.046875,0.1875 L 1.5583828,-0.774875 c -0.09375,0.38671875 -0.1171875,0.46875 -0.90234374,0.46875 -0.1640625,0 -0.26953125,0 -0.26953125,0.19921875 0,0.10546875 0.09375,0.10546875 0.26953125,0.10546875 H 5.2732266 c 0.234375,0 0.2460937,0 0.3046875,-0.1640625 l 0.7851562,-2.15625 c 0.046875,-0.1054687 0.046875,-0.1289062 0.046875,-0.140625 0,-0.035156 -0.035156,-0.1054687 -0.1289062,-0.1054687 -0.082031,0 -0.09375,0.046875 -0.1640625,0.2109375 -0.3398438,0.9140625 -0.7734375,2.0507812 -2.4960938,2.0507812 h -0.9375 c -0.140625,0 -0.1640625,0 -0.2226562,-0.0117188 -0.1054688,-0.0117188 -0.1289063,-0.0234375 -0.1289063,-0.10546875 0,-0.0234375 0,-0.046875 0.046875,-0.22265625 z m 0,0"
         style="fill:#000000;fill-opacity:1;fill-rule:nonzero;stroke:none" />
      <path
         id="path30"
         d="m 9.1111172,-2.9369844 c 0,-0.1875 -0.011719,-0.1992187 -0.2109375,-0.1992187 -0.4453125,0.4335937 -1.078125,0.4453125 -1.359375,0.4453125 v 0.2460937 c 0.1640625,0 0.6210937,0 1.0078125,-0.1875 v 3.55078128 c 0,0.23437502 0,0.32812502 -0.6914063,0.32812502 H 7.5876797 v 0.2460937 c 0.1289062,-0.011719 0.984375,-0.023437 1.2421875,-0.023437 0.2109375,0 1.0898437,0.011719 1.2421878,0.023437 V 1.2466094 H 9.8142422 c -0.703125,0 -0.703125,-0.09375 -0.703125,-0.32812502 z m 0,0"
         style="fill:#000000;fill-opacity:1;fill-rule:nonzero;stroke:none" />
    </g>
    <path
       id="path31"
       d="m 102.04852,1.8431 v 5.46911 m 0,27.89575 v 5.46915 0 m 0,3.6862 v 6.39067 m 0,27.89575 v 6.39071 0"
       style="fill:none;stroke:#000000;stroke-width:0.3985;stroke-linecap:butt;stroke-linejoin:miter;stroke-miterlimit:10;stroke-dasharray:none;stroke-opacity:1"
       transform="matrix(1.3333333,0,0,-1.3333333,15.289333,121.69733)" />
    <path
       id="path32"
       d="M 132.57773,35.20802 V 7.31227 h 6.97394 v 27.89575 z"
       style="fill:none;stroke:#000000;stroke-width:0.3985;stroke-linecap:butt;stroke-linejoin:miter;stroke-miterlimit:10;stroke-dasharray:none;stroke-opacity:1"
       transform="matrix(1.3333333,0,0,-1.3333333,15.289333,121.69733)" />
    <g
       id="g32"
       aria-label="v&#10;0"
       transform="matrix(1.3333333,0,0,1.3333333,206.31733,95.213333)">
      <path
         id="path33"
         d="m 4.6633672,-3.7019922 c 0,-0.5390625 -0.2578125,-0.703125 -0.4453125,-0.703125 -0.2460938,0 -0.4804688,0.2578125 -0.4804688,0.4804688 0,0.1289062 0.046875,0.1875 0.1523438,0.3046875 0.2109375,0.1992187 0.3398437,0.4570312 0.3398437,0.8085937 0,0.421875 -0.609375,2.70703126 -1.7695312,2.70703126 -0.5039063,0 -0.7382813,-0.3515625 -0.7382813,-0.8671875 0,-0.56249996 0.2695313,-1.28906246 0.5742188,-2.12109376 0.070312,-0.1640625 0.1289062,-0.3046875 0.1289062,-0.4921875 0,-0.4453125 -0.328125,-0.8203125 -0.8203125,-0.8203125 -0.93749996,0 -1.31249996,1.453125 -1.31249996,1.5351563 0,0.1054687 0.09375,0.1054687 0.1171875,0.1054687 0.09375,0 0.10546875,-0.023437 0.15234375,-0.1875 0.29296875,-0.9960937 0.72656251,-1.2304687 1.00781251,-1.2304687 0.082031,0 0.2578125,0 0.2578125,0.3164062 0,0.2460938 -0.1054688,0.515625 -0.1757813,0.703125 -0.4335937,1.1484375 -0.5625,1.6054688 -0.5625,2.0390625 0,1.07812501 0.8671875,1.23046876 1.3359375,1.23046876 1.6640625,0 2.2382813,-3.29296876 2.2382813,-3.80859376 z m 0,0"
         style="fill:#000000;fill-opacity:1;fill-rule:nonzero;stroke:none" />
      <path
         id="path34"
         d="m 8.4280156,-0.73128906 c 0,-0.76171874 -0.09375,-1.31250004 -0.4101562,-1.80468754 -0.2226563,-0.3164062 -0.6445313,-0.5976562 -1.2070313,-0.5976562 -1.6171875,0 -1.6171875,1.8984375 -1.6171875,2.40234374 0,0.50390625 0,2.36718746 1.6171875,2.36718746 1.6171875,0 1.6171875,-1.86328121 1.6171875,-2.36718746 z M 6.8108281,1.4366797 c -0.3164062,0 -0.75,-0.1875 -0.890625,-0.76171876 -0.09375,-0.41015625 -0.09375,-0.984375 -0.09375,-1.5 0,-0.50390624 0,-1.03125004 0.1054688,-1.41796874 0.1523437,-0.5507813 0.5976562,-0.6914063 0.8789062,-0.6914063 0.375,0 0.7382813,0.2226563 0.8671875,0.6328125 0.1054688,0.375 0.1171875,0.8789063 0.1171875,1.47656254 0,0.515625 0,1.04296875 -0.09375,1.4765625 C 7.5608281,1.2843359 7.0920781,1.4366797 6.8108281,1.4366797 Z m 0,0"
         style="fill:#000000;fill-opacity:1;fill-rule:nonzero;stroke:none" />
    </g>
    <g
       id="g34"
       aria-label="R&#10;L"
       transform="matrix(1.3333333,0,0,1.3333333,169.06267,96.893333)">
      <path
         id="path35"
         d="m 3.7381563,-6.1162891 c 0.058594,-0.234375 0.082031,-0.3398437 0.28125,-0.3632812 0.082031,-0.011719 0.3984375,-0.011719 0.5976562,-0.011719 0.7148438,0 1.8164063,0 1.8164063,0.984375 0,0.3398438 -0.1523438,1.0195313 -0.5507813,1.4179688 C 5.624875,-3.831133 5.0975313,-3.5147268 4.2069063,-3.5147268 H 3.093625 Z m 1.4296875,2.7304688 C 6.1756563,-3.6084766 7.35925,-4.2998828 7.35925,-5.3076953 c 0,-0.8554688 -0.890625,-1.5 -2.203125,-1.5 H 2.3201875 c -0.1992187,0 -0.2929687,0 -0.2929687,0.1992187 0,0.1171875 0.09375,0.1171875 0.28125,0.1171875 0.023437,0 0.2109375,0 0.3867187,0.011719 0.1757813,0.023437 0.2578125,0.035156 0.2578125,0.1640625 0,0.035156 0,0.070312 -0.035156,0.1875 l -1.3359375,5.35546874 c -0.09375,0.38671875 -0.1171875,0.46875 -0.9023438,0.46875 -0.17578125,0 -0.26953125,0 -0.26953125,0.19921875 0,0.1054687475 0.1171875,0.1054687475 0.140625,0.1054687475 0.28125,0 0.97265625,-0.0351562475 1.25390625,-0.0351562475 0.28125,0 0.984375,0.0351562475 1.265625,0.0351562475 0.082031,0 0.1992188,0 0.1992188,-0.1992187475 0,-0.10546875 -0.09375,-0.10546875 -0.28125,-0.10546875 -0.3632813,0 -0.6445313,0 -0.6445313,-0.1875 0,-0.0585938 0.011719,-0.10546875 0.023437,-0.1640625 l 0.65625,-2.63671874 H 4.218625 c 0.9023438,0 1.078125,0.5507812 1.078125,0.9023437 0,0.1523438 -0.082031,0.4570313 -0.140625,0.6914063 -0.070312,0.2695312 -0.1523437,0.6445312 -0.1523437,0.84374999 0,1.078125 1.1953125,1.078125 1.3242187,1.078125 0.84375,0 1.1953125,-1.0078125 1.1953125,-1.1484375 0,-0.11718749 -0.1171875,-0.11718749 -0.1171875,-0.11718749 -0.09375,0 -0.1171875,0.0703125 -0.1289062,0.14062499 -0.2578125,0.73828125 -0.6796875,0.9023437475 -0.9140625,0.9023437475 -0.328125,0 -0.3984375,-0.2226562475 -0.3984375,-0.6093749975 0,-0.3046875 0.058594,-0.82031254 0.1054687,-1.13671874 0.011719,-0.140625 0.035156,-0.328125 0.035156,-0.46875 0,-0.7617188 -0.6679688,-1.078125 -0.9374997,-1.1718752 z m 0,0"
         style="fill:#000000;fill-opacity:1;fill-rule:nonzero;stroke:none" />
      <path
         id="path36"
         d="m 10.435422,-2.7002734 c 0.05859,-0.2460938 0.08203,-0.3164063 0.726562,-0.3164063 0.210938,0 0.28125,0 0.28125,-0.1523437 0,-0.011719 0,-0.09375 -0.117187,-0.09375 -0.152344,0 -0.339844,0.011719 -0.515625,0.011719 -0.175781,0.011719 -0.375,0.011719 -0.550781,0.011719 -0.152344,0 -0.3398441,-0.011719 -0.4804691,-0.011719 -0.1523438,0 -0.3164063,-0.011719 -0.4570313,-0.011719 -0.046875,0 -0.1523437,0 -0.1523437,0.1523437 0,0.09375 0.09375,0.09375 0.2226562,0.09375 0.011719,0 0.140625,0 0.2695313,0.011719 0.1523437,0.011719 0.1640625,0.035156 0.1640625,0.1054687 0,0.011719 0,0.046875 -0.035156,0.1523438 L 8.8651094,0.95597656 C 8.8065156,1.1903516 8.7947969,1.2489453 8.2557344,1.2489453 c -0.1171875,0 -0.2109375,0 -0.2109375,0.140625 0,0.1054688 0.082031,0.1054688 0.2109375,0.1054688 h 3.5039066 c 0.175781,0 0.1875,-0.011719 0.234375,-0.140625 0.07031,-0.1875 0.597656,-1.53515629 0.597656,-1.59375004 0,-0.0234375 -0.01172,-0.09375 -0.117188,-0.09375 -0.08203,0 -0.09375,0.0234375 -0.140625,0.140625 C 12.064328,0.47550781 11.759641,1.2489453 10.482297,1.2489453 H 9.6971406 c -0.2109375,0 -0.2226562,-0.011719 -0.2226562,-0.070312 0,-0.011719 0,-0.046875 0.023437,-0.1523437 z m 0,0"
         style="fill:#000000;fill-opacity:1;fill-rule:nonzero;stroke:none" />
    </g>
    <path
       id="path37"
       d="m 103.89162,0 h 32.17308 v 7.113 m 0,28.29427 1e-4,7.11295 v 0 h -32.17318"
       style="fill:none;stroke:#000000;stroke-width:0.3985;stroke-linecap:butt;stroke-linejoin:miter;stroke-miterlimit:10;stroke-dasharray:none;stroke-opacity:1"
       transform="matrix(1.3333333,0,0,-1.3333333,15.289333,121.69733)" />
  </g>
</svg>
