<?xml version="1.0" encoding="UTF-8" standalone="no"?>
<!-- Created with Inkscape (http://www.inkscape.org/) -->

<svg
   version="1.1"
   id="svg1"
   width="240.82668"
   height="99.373337"
   viewBox="0 0 240.82668 99.373337"
   sodipodi:docname="24-25-1-通信电子电路-期末-题图7.pdf"
   xmlns:inkscape="http://www.inkscape.org/namespaces/inkscape"
   xmlns:sodipodi="http://sodipodi.sourceforge.net/DTD/sodipodi-0.dtd"
   xmlns="http://www.w3.org/2000/svg"
   xmlns:svg="http://www.w3.org/2000/svg">
  <defs
     id="defs1" />
  <sodipodi:namedview
     id="namedview1"
     pagecolor="#ffffff"
     bordercolor="#000000"
     borderopacity="0.25"
     inkscape:showpageshadow="2"
     inkscape:pageopacity="0.0"
     inkscape:pagecheckerboard="0"
     inkscape:deskcolor="#d1d1d1">
    <inkscape:page
       x="0"
       y="0"
       inkscape:label="1"
       id="page1"
       width="240.82668"
       height="99.373337"
       margin="0"
       bleed="0" />
  </sodipodi:namedview>
  <g
     id="g1"
     inkscape:groupmode="layer"
     inkscape:label="1">
    <path
       id="path1"
       d="M -49.3181,-8.74547 V 65.78287 H 131.30103 V -8.74547 Z"
       style="fill:#ffffff;fill-opacity:1;fill-rule:nonzero;stroke:none"
       transform="matrix(1.3333333,0,0,-1.3333333,65.756,87.713333)" />
    <path
       id="path2"
       d="m 69.77583,0 c 0,0.9629 -0.78058,1.74348 -1.74348,1.74348 -0.96292,0 -1.74349,-0.78058 -1.74349,-1.74348 0,-0.9629 0.78057,-1.74348 1.74349,-1.74348 0.9629,0 1.74348,0.78058 1.74348,1.74348 z"
       style="fill:#000000;fill-opacity:1;fill-rule:nonzero;stroke:#000000;stroke-width:0.3985;stroke-linecap:butt;stroke-linejoin:miter;stroke-miterlimit:10;stroke-dasharray:none;stroke-opacity:1"
       transform="matrix(1.3333333,0,0,-1.3333333,65.756,87.713333)" />
    <path
       id="path3"
       d="m 0,28.23409 c -3.85164,0 -6.97394,-3.1223 -6.97394,-6.97394 0,-3.85165 3.1223,-6.97394 6.97394,-6.97394 3.85164,0 6.97394,3.12229 6.97394,6.97394 0,3.85164 -3.1223,6.97394 -6.97394,6.97394 z"
       style="fill:none;stroke:#000000;stroke-width:0.3985;stroke-linecap:butt;stroke-linejoin:miter;stroke-miterlimit:10;stroke-dasharray:none;stroke-opacity:1"
       transform="matrix(1.3333333,0,0,-1.3333333,65.756,87.713333)" />
    <path
       id="path4"
       d="M 0,14.28621 V 28.23409"
       style="fill:none;stroke:#000000;stroke-width:0.3985;stroke-linecap:butt;stroke-linejoin:miter;stroke-miterlimit:10;stroke-dasharray:none;stroke-opacity:1"
       transform="matrix(1.3333333,0,0,-1.3333333,65.756,87.713333)" />
    <g
       id="g4"
       aria-label="v&#10;AM&#10;(t)"
       transform="matrix(1.3333333,0,0,1.3333333,10.150667,62.688)">
      <path
         id="path5"
         d="m 4.6653203,-3.7035 c 0,-0.5390625 -0.2578125,-0.703125 -0.4453125,-0.703125 -0.2460937,0 -0.4804687,0.2578125 -0.4804687,0.4804687 0,0.1289063 0.046875,0.1875 0.1523437,0.3046875 0.2109375,0.1992188 0.3398438,0.4570313 0.3398438,0.8085938 0,0.421875 -0.609375,2.70703125 -1.7695313,2.70703125 -0.5039062,0 -0.7382812,-0.3515625 -0.7382812,-0.8671875 0,-0.56250005 0.2695312,-1.28906255 0.5742187,-2.12109375 0.070312,-0.1640625 0.1289063,-0.3046875 0.1289063,-0.4921875 0,-0.4453125 -0.328125,-0.8203125 -0.8203125,-0.8203125 -0.93750004,0 -1.31250004,1.453125 -1.31250004,1.5351562 0,0.1054688 0.09375,0.1054688 0.1171875,0.1054688 0.09375,0 0.10546875,-0.023437 0.15234375,-0.1875 0.29296875,-0.9960938 0.72656249,-1.2304688 1.00781249,-1.2304688 0.082031,0 0.2578125,0 0.2578125,0.3164063 0,0.2460937 -0.1054687,0.515625 -0.1757812,0.703125 -0.4335938,1.1484375 -0.5625,1.6054687 -0.5625,2.0390625 0,1.078125 0.8671875,1.23046875 1.3359375,1.23046875 1.6640625,0 2.2382812,-3.29296875 2.2382812,-3.80859375 z m 0,0"
         style="fill:#000000;fill-opacity:1;fill-rule:nonzero;stroke:none" />
      <path
         id="path6"
         d="M 6.2707891,0.66173437 C 6.0246953,1.0367344 5.8020391,1.2125156 5.3918828,1.2476719 c -0.070312,0 -0.1640625,0 -0.1640625,0.140625 0,0.082031 0.058594,0.1054687 0.09375,0.1054687 0.1875,0 0.4101563,-0.023437 0.5976563,-0.023437 0.2226562,0 0.515625,0.023437 0.7265625,0.023437 0.035156,0 0.140625,0 0.140625,-0.1523437 0,-0.09375 -0.09375,-0.09375 -0.1289063,-0.09375 -0.046875,-0.011719 -0.3046875,-0.023437 -0.3046875,-0.2109375 0,-0.0820313 0.070312,-0.21093753 0.1054688,-0.26953128 l 0.5625,-0.8671875 H 9.0129766 L 9.1770391,1.0601719 c -0.023437,0.070312 -0.070312,0.1875 -0.4804688,0.1875 -0.082031,0 -0.1757812,0 -0.1757812,0.1523437 0,0.023437 0.023437,0.09375 0.1054687,0.09375 0.2109375,0 0.703125,-0.023437 0.9023438,-0.023437 0.1289062,0 0.28125,0 0.4101562,0 0.1289062,0.011719 0.2695312,0.023437 0.3984372,0.023437 0.09375,0 0.140625,-0.058594 0.140625,-0.140625 0,-0.1054687 -0.08203,-0.1054687 -0.199218,-0.1054687 -0.3984379,0 -0.4101567,-0.058594 -0.4335942,-0.2226563 l -0.6210937,-4.3125 c -0.011719,-0.140625 -0.035156,-0.1875 -0.1640625,-0.1875 -0.1289063,0 -0.1757813,0.058594 -0.234375,0.1523438 z m 0.9140625,-1.0078125 1.4648437,-2.28515627 0.328125,2.28515627 z M 17.933875,-2.7015469 c 0.07031,-0.2578125 0.08203,-0.3164062 0.597656,-0.3164062 0.152344,0 0.234375,0 0.234375,-0.140625 0,-0.1054688 -0.08203,-0.1054688 -0.210937,-0.1054688 h -0.9375 c -0.210938,0 -0.210938,0 -0.304688,0.140625 L 14.617469,0.84923437 13.926063,-3.0765469 c -0.03516,-0.1875 -0.03516,-0.1875 -0.234375,-0.1875 h -1.007813 c -0.128906,0 -0.222656,0 -0.222656,0.1523438 0,0.09375 0.08203,0.09375 0.234375,0.09375 0.117187,0 0.140625,0 0.269531,0.011719 0.140625,0.011719 0.152344,0.035156 0.152344,0.1054688 0,0 0,0.046875 -0.03516,0.1523437 l -0.878907,3.49218752 c -0.05859,0.24609375 -0.164062,0.48046878 -0.714843,0.50390628 -0.05859,0 -0.152344,0 -0.152344,0.1523437 0,0 0.01172,0.09375 0.105469,0.09375 0.210937,0 0.503906,-0.023437 0.726562,-0.023437 0.164063,0 0.574219,0.023437 0.738281,0.023437 0.03516,0 0.140625,0 0.140625,-0.1523437 0,-0.09375 -0.09375,-0.09375 -0.152343,-0.09375 C 12.4495,1.2242344 12.4495,1.0484531 12.4495,0.95470312 c 0,-0.0351563 0,-0.0703125 0.02344,-0.17578125 l 0.925781,-3.71484377 h 0.01172 l 0.738281,4.2421875 c 0.02344,0.1289063 0.03516,0.1875 0.140625,0.1875 0.105469,0 0.152344,-0.082031 0.210937,-0.1523437 l 2.917969,-4.3476563 0.01172,0.011719 -0.984375,3.94921872 C 16.387,1.1890781 16.375281,1.2476719 15.836219,1.2476719 c -0.128906,0 -0.210938,0 -0.210938,0.1523437 0,0 0,0.09375 0.105469,0.09375 0.140625,0 0.292969,-0.023437 0.433594,-0.023437 0.140625,0 0.304687,0 0.445312,0 0.199219,0 0.691406,0.023437 0.878906,0.023437 0.04687,0 0.152344,0 0.152344,-0.1523437 0,-0.09375 -0.08203,-0.09375 -0.222656,-0.09375 -0.01172,0 -0.140625,0 -0.269531,-0.023437 -0.152344,-0.011719 -0.152344,-0.035156 -0.152344,-0.1054688 0,-0.035156 0.01172,-0.1054687 0.02344,-0.15234373 z m 0,0"
         style="fill:#000000;fill-opacity:1;fill-rule:nonzero;stroke:none" />
      <path
         id="path7"
         d="m 22.958289,2.39025 c 0,-0.035156 0,-0.046875 -0.164062,-0.2226563 -1.242188,-1.2539062 -1.570313,-3.1289062 -1.570313,-4.6640625 0,-1.7226562 0.386719,-3.4570312 1.605469,-4.7109375 0.128906,-0.1171875 0.128906,-0.1289062 0.128906,-0.1640625 0,-0.070312 -0.03516,-0.1054687 -0.09375,-0.1054687 -0.105469,0 -0.996094,0.6796875 -1.582031,1.9453125 -0.515625,1.1015625 -0.632813,2.203125 -0.632813,3.0351562 0,0.7851563 0.117188,1.99218755 0.65625,3.11718755 0.597657,1.21874995 1.453125,1.87499995 1.558594,1.87499995 0.05859,0 0.09375,-0.035156 0.09375,-0.1054687 z m 0,0"
         style="fill:#000000;fill-opacity:1;fill-rule:nonzero;stroke:none" />
      <path
         id="path8"
         d="m 25.589148,-3.98475 h 0.9375 c 0.199219,0 0.304688,0 0.304688,-0.1992188 0,-0.1054687 -0.105469,-0.1054687 -0.28125,-0.1054687 H 25.67118 c 0.363281,-1.4179688 0.410156,-1.6171875 0.410156,-1.6757813 0,-0.1757812 -0.117188,-0.2695312 -0.292969,-0.2695312 -0.02344,0 -0.304687,0.011719 -0.398437,0.3515625 l -0.386719,1.59375 h -0.9375 c -0.199219,0 -0.292969,0 -0.292969,0.1875 0,0.1171875 0.07031,0.1171875 0.269531,0.1171875 h 0.878907 c -0.714844,2.8242187 -0.75,3 -0.75,3.17578125 0,0.5390625 0.375,0.9140625 0.914062,0.9140625 1.007813,0 1.582031,-1.45312505 1.582031,-1.53515625 0,-0.09375 -0.08203,-0.09375 -0.117187,-0.09375 -0.09375,0 -0.105469,0.023437 -0.152344,0.140625 -0.433594,1.03125 -0.960937,1.27734375 -1.300781,1.27734375 -0.199219,0 -0.304688,-0.12890625 -0.304688,-0.45703125 0,-0.24609375 0.02344,-0.31640625 0.05859,-0.4804688 z m 0,0"
         style="fill:#000000;fill-opacity:1;fill-rule:nonzero;stroke:none" />
      <path
         id="path9"
         d="m 30.018836,-2.4964688 c 0,-0.7734375 -0.117188,-1.9804687 -0.65625,-3.1054687 -0.597656,-1.21875 -1.464844,-1.875 -1.558594,-1.875 -0.05859,0 -0.105469,0.046875 -0.105469,0.1054687 0,0.035156 0,0.046875 0.199219,0.234375 0.972656,0.984375 1.535156,2.5664063 1.535156,4.640625 0,1.71093755 -0.363281,3.4570313 -1.59375,4.7226563 -0.140625,0.1171875 -0.140625,0.1289062 -0.140625,0.1640625 0,0.058594 0.04687,0.1054687 0.105469,0.1054687 0.09375,0 0.996094,-0.6796875 1.582031,-1.94531245 0.503907,-1.1015625 0.632813,-2.20312505 0.632813,-3.04687505 z m 0,0"
         style="fill:#000000;fill-opacity:1;fill-rule:nonzero;stroke:none" />
    </g>
    <path
       id="path10"
       d="m 0,0 v 14.08694 m 0,14.34639 9e-5,14.08689 v 0"
       style="fill:none;stroke:#000000;stroke-width:0.3985;stroke-linecap:butt;stroke-linejoin:miter;stroke-miterlimit:10;stroke-dasharray:none;stroke-opacity:1"
       transform="matrix(1.3333333,0,0,-1.3333333,65.756,87.713333)" />
    <path
       id="path11"
       d="m 12.64938,38.1615 v 8.71742 l 8.51816,-4.3587 z"
       style="fill:none;stroke:#000000;stroke-width:0.3985;stroke-linecap:butt;stroke-linejoin:miter;stroke-miterlimit:10;stroke-dasharray:none;stroke-opacity:1"
       transform="matrix(1.3333333,0,0,-1.3333333,65.756,87.713333)" />
    <path
       id="path12"
       d="M 12.64938,42.52022 H 21.3668"
       style="fill:none;stroke:#000000;stroke-width:0.3985;stroke-linecap:butt;stroke-linejoin:miter;stroke-miterlimit:10;stroke-dasharray:none;stroke-opacity:1"
       transform="matrix(1.3333333,0,0,-1.3333333,65.756,87.713333)" />
    <path
       id="path13"
       d="m 21.3668,38.1615 v 8.71742"
       style="fill:none;stroke:#000000;stroke-width:0.3985;stroke-linecap:butt;stroke-linejoin:miter;stroke-miterlimit:10;stroke-dasharray:none;stroke-opacity:1"
       transform="matrix(1.3333333,0,0,-1.3333333,65.756,87.713333)" />
    <path
       id="path14"
       d="m 1.5815313,-0.77304688 c -0.09375,0.38671875 -0.1171875,0.46875 -0.9023438,0.46875 -0.17578125,0 -0.28125,0 -0.28125,0.1875 0,0.117187505 0.09375,0.117187505 0.28125,0.117187505 h 3.2929688 c 2.0742187,0 4.03125,-2.097656225 4.03125,-4.289062525 0,-1.3945312 -0.84375,-2.5195312 -2.3320313,-2.5195312 H 2.3198125 c -0.1875,0 -0.2929687,0 -0.2929687,0.1992187 0,0.1171875 0.082031,0.1171875 0.28125,0.1171875 0.1289062,0 0.3164062,0.011719 0.4335937,0.011719 0.1523438,0.023437 0.2109375,0.058594 0.2109375,0.1640625 0,0.035156 0,0.070312 -0.035156,0.1875 z m 2.15625,-5.34375002 c 0.082031,-0.3515625 0.1054687,-0.375 0.5390625,-0.375 H 5.34325 c 0.9726563,0 1.7929688,0.5273438 1.7929688,1.8398438 0,0.4921875 -0.1992188,2.1210937 -1.0429688,3.2226562 -0.28125,0.3632813 -1.078125,1.12500002 -2.296875,1.12500002 h -1.125 c -0.140625,0 -0.1640625,0 -0.2226562,-0.0117188 -0.09375,-0.0117188 -0.1289063,-0.0234375 -0.1289063,-0.10546875 0,-0.0234375 0,-0.046875 0.046875,-0.22265625 z m 0,0"
       style="fill:#000000;fill-opacity:1;fill-rule:nonzero;stroke:none"
       aria-label="D"
       transform="matrix(1.3333333,0,0,1.3333333,82.750667,50.866667)" />
    <path
       id="path15"
       d="m 48.66838,42.52022 h 4.71185"
       style="fill:none;stroke:#000000;stroke-width:0.3985;stroke-linecap:butt;stroke-linejoin:miter;stroke-miterlimit:10;stroke-dasharray:none;stroke-opacity:1"
       transform="matrix(1.3333333,0,0,-1.3333333,65.756,87.713333)" />
    <path
       id="path16"
       d="M -2.35593,1.80318 2.35593,0 -2.35593,-1.80318 Z"
       style="fill:#000000;fill-opacity:1;fill-rule:nonzero;stroke:#000000;stroke-width:0.3985;stroke-linecap:butt;stroke-linejoin:round;stroke-miterlimit:10;stroke-dasharray:none;stroke-opacity:1"
       transform="matrix(1.3333333,0,0,-1.3333333,133.7884,31.019707)" />
    <g
       id="g16"
       aria-label="i&#10;D"
       transform="matrix(1.3333333,0,0,1.3333333,126.68267,21.929333)">
      <path
         id="path17"
         d="m 2.8249141,-6.2223906 c 0,-0.1992188 -0.1289063,-0.3632813 -0.3632813,-0.3632813 -0.2695312,0 -0.5390625,0.2578125 -0.5390625,0.5273438 0,0.1875 0.140625,0.3632812 0.375,0.3632812 0.234375,0 0.5273438,-0.234375 0.5273438,-0.5273437 z m -0.75,3.7382812 c 0.1171875,-0.28125 0.1171875,-0.3046875 0.2226562,-0.5742187 0.070312,-0.1992188 0.1289063,-0.3398438 0.1289063,-0.5273438 0,-0.4453125 -0.328125,-0.8203125 -0.8203125,-0.8203125 -0.93750004,0 -1.31250004,1.453125 -1.31250004,1.5351563 0,0.1054687 0.09375,0.1054687 0.1171875,0.1054687 0.09375,0 0.10546875,-0.023437 0.15234375,-0.1875 0.26953125,-0.9375 0.66796879,-1.2304687 1.00781249,-1.2304687 0.082031,0 0.2578125,0 0.2578125,0.3164062 0,0.2109375 -0.070312,0.421875 -0.1171875,0.515625 -0.082031,0.2578125 -0.5273437,1.4179688 -0.6796875,1.8515625 -0.10546874,0.2578125 -0.23437499,0.58593752 -0.23437499,0.79687502 0,0.46875 0.33984379,0.80859375 0.82031249,0.80859375 0.9375,0 1.3007813,-1.44140627 1.3007813,-1.53515627 0,-0.09375 -0.09375,-0.09375 -0.1171875,-0.09375 -0.1054688,0 -0.1054688,0.023437 -0.1523438,0.1757813 -0.1757812,0.63281247 -0.5039062,1.24218747 -1.0195312,1.24218747 -0.1640625,0 -0.234375,-0.10546875 -0.234375,-0.328125 0,-0.2578125 0.058594,-0.3984375 0.2929687,-0.99609377 z m 0,0"
         style="fill:#000000;fill-opacity:1;fill-rule:nonzero;stroke:none" />
      <path
         id="path18"
         d="M 4.7467891,0.95534375 C 4.6999141,1.1897187 4.6881953,1.2483125 4.1374141,1.2483125 c -0.1289063,0 -0.2109375,0 -0.2109375,0.1523437 0,0.09375 0.082031,0.09375 0.2109375,0.09375 h 2.4960937 c 1.546875,0 3.0234375,-1.4179687 3.0234375,-2.9414062 0,-1.0195313 -0.703125,-1.8164063 -1.8398437,-1.8164063 h -2.53125 c -0.140625,0 -0.2226563,0 -0.2226563,0.1523438 0,0.09375 0.070312,0.09375 0.2226563,0.09375 0.1171875,0 0.140625,0 0.2695312,0.011719 0.140625,0.011719 0.1523438,0.035156 0.1523438,0.1054688 0,0.011719 0,0.046875 -0.023437,0.1523437 z M 6.3171016,-2.7829375 c 0.046875,-0.2109375 0.058594,-0.234375 0.3515625,-0.234375 h 0.890625 c 0.7851562,0 1.4414062,0.3867187 1.4414062,1.3359375 0,0.1640625 -0.070312,1.37109375 -0.7734375,2.16796875 C 7.9577266,0.79128125 7.3600703,1.2483125 6.5046016,1.2483125 H 5.5553828 c -0.2226562,0 -0.2226562,-0.011719 -0.2226562,-0.070312 0,-0.011719 0,-0.046875 0.023437,-0.1523438 z m 0,0"
         style="fill:#000000;fill-opacity:1;fill-rule:nonzero;stroke:none" />
    </g>
    <path
       id="path19"
       d="M 66.18924,0 H 0 v 42.52022 h 12.45012 m 9.11594,0 h 27.10232 m 4.71185,0 h 14.65223 v 0"
       style="fill:none;stroke:#000000;stroke-width:0.3985;stroke-linecap:butt;stroke-linejoin:miter;stroke-miterlimit:10;stroke-dasharray:none;stroke-opacity:1"
       transform="matrix(1.3333333,0,0,-1.3333333,65.756,87.713333)" />
    <path
       id="path20"
       d="M 61.05841,23.92511 H 75.00629 M 61.05841,20.43814 h 13.94788"
       style="fill:none;stroke:#000000;stroke-width:0.3985;stroke-linecap:butt;stroke-linejoin:miter;stroke-miterlimit:10;stroke-dasharray:none;stroke-opacity:1"
       transform="matrix(1.3333333,0,0,-1.3333333,65.756,87.713333)" />
    <path
       id="path21"
       d="m 7.5715313,-6.9259453 c 0,-0.023437 -0.023437,-0.09375 -0.1054688,-0.09375 -0.035156,0 -0.046875,0.011719 -0.1523437,0.1171875 l -0.703125,0.7617187 C 6.5285625,-6.2814141 6.0715313,-7.0196953 4.95825,-7.0196953 c -2.2148437,0 -4.453125,2.203125 -4.453125,4.5117187 0,1.64062504 1.171875,2.73046879 2.6953125,2.73046879 0.8671875,0 1.6171875,-0.3984375 2.1445313,-0.85546875 0.9375,-0.82031254 1.1015625,-1.72265624 1.1015625,-1.75781254 0,-0.1054687 -0.1054688,-0.1054687 -0.1171875,-0.1054687 -0.058594,0 -0.1171875,0.023437 -0.1289063,0.1054687 -0.09375,0.2929688 -0.3164062,0.9960938 -1.0078125,1.57031254 -0.6914062,0.5625 -1.3125,0.7265625 -1.8398437,0.7265625 -0.890625,0 -1.9453125,-0.515625 -1.9453125,-2.06250004 0,-0.5742187 0.2109375,-2.1914062 1.2070312,-3.3515625 0.609375,-0.703125 1.5351563,-1.2070312 2.4257813,-1.2070312 1.0195312,0 1.6054687,0.7734375 1.6054687,1.921875 0,0.3984375 -0.035156,0.4101562 -0.035156,0.5039062 0,0.1054688 0.1171875,0.1054688 0.1523437,0.1054688 0.1289063,0 0.1289063,-0.023437 0.1757813,-0.1992188 z m 0,0"
       style="fill:#000000;fill-opacity:1;fill-rule:nonzero;stroke:none"
       aria-label="C"
       transform="matrix(1.3333333,0,0,1.3333333,131.764,62.676)" />
    <path
       id="path22"
       d="M 68.03235,42.52022 V 24.12436 m 0,-3.88547 1.1e-4,-18.39579 v 0 m -1.1e-4,-3.6862 v -2.40916"
       style="fill:none;stroke:#000000;stroke-width:0.3985;stroke-linecap:butt;stroke-linejoin:miter;stroke-miterlimit:10;stroke-dasharray:none;stroke-opacity:1"
       transform="matrix(1.3333333,0,0,-1.3333333,65.756,87.713333)" />
    <path
       id="path23"
       d="m 64.63051,-4.25226 h 6.80365"
       style="fill:none;stroke:#000000;stroke-width:0.3985;stroke-linecap:butt;stroke-linejoin:miter;stroke-miterlimit:10;stroke-dasharray:none;stroke-opacity:1"
       transform="matrix(1.3333333,0,0,-1.3333333,65.756,87.713333)" />
    <path
       id="path24"
       d="M 98.56155,35.20802 V 7.31227 h 6.97394 v 27.89575 z"
       style="fill:none;stroke:#000000;stroke-width:0.3985;stroke-linecap:butt;stroke-linejoin:miter;stroke-miterlimit:10;stroke-dasharray:none;stroke-opacity:1"
       transform="matrix(1.3333333,0,0,-1.3333333,65.756,87.713333)" />
    <g
       id="g24"
       aria-label="R&#10;L"
       transform="matrix(1.3333333,0,0,1.3333333,174.17467,62.909333)">
      <path
         id="path25"
         d="m 3.7391172,-6.1165703 c 0.058594,-0.234375 0.082031,-0.3398438 0.28125,-0.3632813 0.082031,-0.011719 0.3984375,-0.011719 0.5976562,-0.011719 0.7148438,0 1.8164063,0 1.8164063,0.984375 0,0.3398437 -0.1523438,1.0195312 -0.5507813,1.4179687 -0.2578125,0.2578125 -0.7851562,0.5742188 -1.6757812,0.5742188 H 3.0945859 Z m 1.4296875,2.7304687 c 1.0078125,-0.2226562 2.1914062,-0.9140625 2.1914062,-1.921875 0,-0.8554687 -0.890625,-1.5 -2.203125,-1.5 H 2.3211484 c -0.1992187,0 -0.2929687,0 -0.2929687,0.1992188 0,0.1171875 0.09375,0.1171875 0.28125,0.1171875 0.023437,0 0.2109375,0 0.3867187,0.011719 0.1757813,0.023437 0.2578125,0.035156 0.2578125,0.1640625 0,0.035156 0,0.070312 -0.035156,0.1875 l -1.3359375,5.35546879 c -0.09375,0.38671875 -0.1171875,0.46875 -0.90234376,0.46875 -0.17578125,0 -0.26953125,0 -0.26953125,0.19921875 0,0.1054687475 0.1171875,0.1054687475 0.140625,0.1054687475 0.28125,0 0.97265621,-0.0351562475 1.25390621,-0.0351562475 0.28125,0 0.984375,0.0351562475 1.265625,0.0351562475 0.082031,0 0.1992188,0 0.1992188,-0.1992187475 0,-0.10546875 -0.09375,-0.10546875 -0.28125,-0.10546875 -0.3632813,0 -0.6445313,0 -0.6445313,-0.1875 0,-0.0585937 0.011719,-0.10546875 0.023437,-0.1640625 l 0.65625,-2.63671879 h 1.1953125 c 0.9023438,0 1.078125,0.5507813 1.078125,0.9023438 0,0.1523437 -0.082031,0.4570312 -0.140625,0.6914062 -0.070312,0.2695313 -0.1523437,0.6445313 -0.1523437,0.84375004 0,1.078125 1.1953125,1.078125 1.3242187,1.078125 0.84375,0 1.1953125,-1.0078125 1.1953125,-1.1484375 0,-0.11718754 -0.1171875,-0.11718754 -0.1171875,-0.11718754 -0.09375,0 -0.1171875,0.0703125 -0.1289062,0.14062504 -0.2578125,0.73828125 -0.6796875,0.9023437475 -0.9140625,0.9023437475 -0.328125,0 -0.3984375,-0.2226562475 -0.3984375,-0.6093749975 0,-0.3046875 0.058594,-0.82031249 0.1054687,-1.13671879 0.011719,-0.140625 0.035156,-0.328125 0.035156,-0.46875 0,-0.7617187 -0.6679688,-1.078125 -0.9374994,-1.1718753 z m 0,0"
         style="fill:#000000;fill-opacity:1;fill-rule:nonzero;stroke:none" />
      <path
         id="path26"
         d="m 10.436383,-2.7005547 c 0.05859,-0.2460937 0.08203,-0.3164062 0.726562,-0.3164062 0.210938,0 0.28125,0 0.28125,-0.1523438 0,-0.011719 0,-0.09375 -0.117187,-0.09375 -0.152344,0 -0.339844,0.011719 -0.515625,0.011719 -0.175781,0.011719 -0.375,0.011719 -0.550781,0.011719 -0.152344,0 -0.3398442,-0.011719 -0.4804692,-0.011719 -0.1523437,0 -0.3164062,-0.011719 -0.4570312,-0.011719 -0.046875,0 -0.1523438,0 -0.1523438,0.1523438 0,0.09375 0.09375,0.09375 0.2226563,0.09375 0.011719,0 0.140625,0 0.2695312,0.011719 0.1523438,0.011719 0.1640625,0.035156 0.1640625,0.1054688 0,0.011719 0,0.046875 -0.035156,0.1523437 L 8.8660703,0.95569531 C 8.8074766,1.1900703 8.7957578,1.2486641 8.2566953,1.2486641 c -0.1171875,0 -0.2109375,0 -0.2109375,0.140625 0,0.1054687 0.082031,0.1054687 0.2109375,0.1054687 h 3.5039067 c 0.175781,0 0.1875,-0.011719 0.234375,-0.140625 0.07031,-0.1875 0.597656,-1.53515624 0.597656,-1.59374999 0,-0.0234375 -0.01172,-0.09375 -0.117188,-0.09375 -0.08203,0 -0.09375,0.0234375 -0.140625,0.140625 C 12.065289,0.47522656 11.760602,1.2486641 10.483258,1.2486641 H 9.6981016 c -0.2109375,0 -0.2226563,-0.011719 -0.2226563,-0.070312 0,-0.011719 0,-0.046875 0.023437,-0.1523438 z m 0,0"
         style="fill:#000000;fill-opacity:1;fill-rule:nonzero;stroke:none" />
    </g>
    <path
       id="path27"
       d="m 69.87544,0 h 32.17308 v 7.113 m 0,28.29427 1.1e-4,7.11295 v 0 H 68.03235"
       style="fill:none;stroke:#000000;stroke-width:0.3985;stroke-linecap:butt;stroke-linejoin:miter;stroke-miterlimit:10;stroke-dasharray:none;stroke-opacity:1"
       transform="matrix(1.3333333,0,0,-1.3333333,65.756,87.713333)" />
    <path
       id="path28"
       d="m 4.0769922,-2.2961563 h 2.7773437 c 0.140625,0 0.328125,0 0.328125,-0.1992187 0,-0.1992188 -0.1875,-0.1992188 -0.328125,-0.1992188 H 4.0769922 v -2.7890625 c 0,-0.1289062 0,-0.328125 -0.1992188,-0.328125 -0.1992187,0 -0.1992187,0.1992188 -0.1992187,0.328125 v 2.7890625 H 0.88949219 c -0.140625,0 -0.328125,0 -0.328125,0.1992188 0,0.1992187 0.1875,0.1992187 0.328125,0.1992187 H 3.6785547 V 0.504625 c 0,0.12890625 0,0.328125 0.1992187,0.328125 0.1992188,0 0.1992188,-0.19921875 0.1992188,-0.328125 z m 0,0"
       style="fill:#000000;fill-opacity:1;fill-rule:nonzero;stroke:none"
       aria-label="+"
       transform="matrix(1.3333333,0,0,1.3333333,53.786667,48.514667)" />
    <path
       id="path29"
       d="m 6.5613672,-2.2954141 c 0.1757812,0 0.3515625,0 0.3515625,-0.1992187 0,-0.1992188 -0.1757813,-0.1992188 -0.3515625,-0.1992188 h -5.390625 c -0.1640625,0 -0.33984376,0 -0.33984376,0.1992188 0,0.1992187 0.17578126,0.1992187 0.33984376,0.1992187 z m 0,0"
       style="fill:#000000;fill-opacity:1;fill-rule:nonzero;stroke:none"
       aria-label="−"
       transform="matrix(1.3333333,0,0,1.3333333,53.786667,76.861333)" />
    <path
       id="path30"
       d="m 4.0783906,-2.2979219 h 2.7773438 c 0.140625,0 0.328125,0 0.328125,-0.1992187 0,-0.1992188 -0.1875,-0.1992188 -0.328125,-0.1992188 H 4.0783906 v -2.7890625 c 0,-0.1289062 0,-0.328125 -0.1992187,-0.328125 -0.1992188,0 -0.1992188,0.1992188 -0.1992188,0.328125 v 2.7890625 H 0.89089062 c -0.140625,0 -0.328125,0 -0.328125,0.1992188 0,0.1992187 0.1875,0.1992187 0.328125,0.1992187 H 3.6799531 v 2.80078127 c 0,0.12890625 0,0.328125 0.1992188,0.328125 0.1992187,0 0.1992187,-0.19921875 0.1992187,-0.328125 z m 0,0"
       style="fill:#000000;fill-opacity:1;fill-rule:nonzero;stroke:none"
       aria-label="+"
       transform="matrix(1.3333333,0,0,1.3333333,71.929333,25.837333)" />
    <path
       id="path31"
       d="m 6.5616016,-2.2979219 c 0.1757812,0 0.3515625,0 0.3515625,-0.1992187 0,-0.1992188 -0.1757813,-0.1992188 -0.3515625,-0.1992188 h -5.390625 c -0.1640625,0 -0.33984379,0 -0.33984379,0.1992188 0,0.1992187 0.17578129,0.1992187 0.33984379,0.1992187 z m 0,0"
       style="fill:#000000;fill-opacity:1;fill-rule:nonzero;stroke:none"
       aria-label="−"
       transform="matrix(1.3333333,0,0,1.3333333,94.606667,25.837333)" />
    <g
       id="g31"
       aria-label="v&#10;D"
       transform="matrix(1.3333333,0,0,1.3333333,80.396,15.874667)">
      <path
         id="path32"
         d="m 4.6629609,-3.702875 c 0,-0.5390625 -0.2578125,-0.703125 -0.4453125,-0.703125 -0.2460937,0 -0.4804687,0.2578125 -0.4804687,0.4804687 0,0.1289063 0.046875,0.1875 0.1523437,0.3046875 0.2109375,0.1992188 0.3398438,0.4570313 0.3398438,0.8085938 0,0.421875 -0.609375,2.70703125 -1.7695313,2.70703125 -0.5039062,0 -0.7382812,-0.3515625 -0.7382812,-0.8671875 0,-0.56250005 0.2695312,-1.28906255 0.5742187,-2.12109375 0.070312,-0.1640625 0.1289063,-0.3046875 0.1289063,-0.4921875 C 2.4246797,-4.031 2.0965547,-4.406 1.6043672,-4.406 c -0.93750001,0 -1.31250001,1.453125 -1.31250001,1.5351562 0,0.1054688 0.09375,0.1054688 0.1171875,0.1054688 0.09375,0 0.10546875,-0.023437 0.15234375,-0.1875 0.29296875,-0.9960938 0.72656246,-1.2304688 1.00781246,-1.2304688 0.082031,0 0.2578125,0 0.2578125,0.3164063 0,0.2460937 -0.1054687,0.515625 -0.1757812,0.703125 -0.4335938,1.1484375 -0.5625,1.6054687 -0.5625,2.0390625 0,1.078125 0.8671875,1.23046875 1.3359375,1.23046875 1.6640625,0 2.2382812,-3.29296875 2.2382812,-3.80859375 z m 0,0"
         style="fill:#000000;fill-opacity:1;fill-rule:nonzero;stroke:none" />
      <path
         id="path33"
         d="M 6.1424531,0.95532812 C 6.0955781,1.1897031 6.0838594,1.2482969 5.5330781,1.2482969 c -0.1289062,0 -0.2109375,0 -0.2109375,0.1523437 0,0.09375 0.082031,0.09375 0.2109375,0.09375 h 2.4960938 c 1.546875,0 3.0234371,-1.41796873 3.0234371,-2.9414062 0,-1.0195313 -0.703125,-1.8164063 -1.8398434,-1.8164063 h -2.53125 c -0.140625,0 -0.2226562,0 -0.2226562,0.1523438 0,0.09375 0.070312,0.09375 0.2226562,0.09375 0.1171875,0 0.140625,0 0.2695313,0.011719 0.140625,0.011719 0.1523437,0.035156 0.1523437,0.1054688 0,0.011719 0,0.046875 -0.023437,0.1523437 z M 7.7127656,-2.7829531 c 0.046875,-0.2109375 0.058594,-0.234375 0.3515625,-0.234375 h 0.890625 c 0.7851563,0 1.4414059,0.3867187 1.4414059,1.3359375 0,0.1640625 -0.07031,1.37109372 -0.7734371,2.16796872 C 9.3533906,0.79126562 8.7557344,1.2482969 7.9002656,1.2482969 H 6.9510469 c -0.2226563,0 -0.2226563,-0.011719 -0.2226563,-0.070312 0,-0.011719 0,-0.046875 0.023437,-0.1523438 z m 0,0"
         style="fill:#000000;fill-opacity:1;fill-rule:nonzero;stroke:none" />
    </g>
    <path
       id="path34"
       d="m 4.0772656,-2.2961563 h 2.7773438 c 0.140625,0 0.328125,0 0.328125,-0.1992187 0,-0.1992188 -0.1875,-0.1992188 -0.328125,-0.1992188 H 4.0772656 v -2.7890625 c 0,-0.1289062 0,-0.328125 -0.1992187,-0.328125 -0.1992188,0 -0.1992188,0.1992188 -0.1992188,0.328125 v 2.7890625 H 0.88976563 c -0.140625,0 -0.328125,0 -0.328125,0.1992188 0,0.1992187 0.1875,0.1992187 0.328125,0.1992187 H 3.6788281 V 0.504625 c 0,0.12890625 0,0.328125 0.1992188,0.328125 0.1992187,0 0.1992187,-0.19921875 0.1992187,-0.328125 z m 0,0"
       style="fill:#000000;fill-opacity:1;fill-rule:nonzero;stroke:none"
       aria-label="+"
       transform="matrix(1.3333333,0,0,1.3333333,207.99333,48.514667)" />
    <path
       id="path35"
       d="m 6.5616406,-2.2954141 c 0.1757813,0 0.3515625,0 0.3515625,-0.1992187 0,-0.1992188 -0.1757812,-0.1992188 -0.3515625,-0.1992188 h -5.390625 c -0.1640625,0 -0.33984372,0 -0.33984372,0.1992188 0,0.1992187 0.17578122,0.1992187 0.33984372,0.1992187 z m 0,0"
       style="fill:#000000;fill-opacity:1;fill-rule:nonzero;stroke:none"
       aria-label="−"
       transform="matrix(1.3333333,0,0,1.3333333,207.99333,76.861333)" />
    <g
       id="g35"
       aria-label="v&#10;o"
       transform="matrix(1.3333333,0,0,1.3333333,218.32533,61.229333)">
      <path
         id="path36"
         d="m 4.6632266,-3.7022734 c 0,-0.5390625 -0.2578125,-0.703125 -0.4453125,-0.703125 -0.2460938,0 -0.4804688,0.2578125 -0.4804688,0.4804687 0,0.1289063 0.046875,0.1875 0.1523438,0.3046875 0.2109375,0.1992188 0.3398437,0.4570313 0.3398437,0.8085938 0,0.421875 -0.609375,2.70703121 -1.7695312,2.70703121 -0.5039063,0 -0.7382813,-0.3515625 -0.7382813,-0.8671875 0,-0.56250001 0.2695313,-1.28906251 0.5742188,-2.12109371 0.070312,-0.1640625 0.1289062,-0.3046875 0.1289062,-0.4921875 0,-0.4453125 -0.328125,-0.8203125 -0.8203125,-0.8203125 -0.93749999,0 -1.31249999,1.453125 -1.31249999,1.5351562 0,0.1054688 0.09375,0.1054688 0.1171875,0.1054688 0.09375,0 0.10546875,-0.023437 0.15234375,-0.1875 0.29296875,-0.9960938 0.72656254,-1.2304688 1.00781254,-1.2304688 0.082031,0 0.2578125,0 0.2578125,0.3164063 0,0.2460937 -0.1054688,0.515625 -0.1757813,0.703125 -0.4335937,1.1484375 -0.5625,1.6054687 -0.5625,2.0390625 0,1.07812496 0.8671875,1.23046871 1.3359375,1.23046871 1.6640625,0 2.2382813,-3.29296871 2.2382813,-3.80859371 z m 0,0"
         style="fill:#000000;fill-opacity:1;fill-rule:nonzero;stroke:none" />
      <path
         id="path37"
         d="m 8.5333438,-0.35657031 c 0,-0.77343749 -0.5742188,-1.21874999 -1.2656251,-1.21874999 -1.03125,0 -2.0039062,0.96093749 -2.0039062,1.92187499 0,0.69140621 0.5039062,1.21875001 1.265625,1.21875001 0.9960937,0 2.0039063,-0.92578126 2.0039063,-1.92187501 z M 6.5411562,1.3660859 c -0.3515625,0 -0.703125,-0.2226562 -0.703125,-0.77343746 0,-0.28125 0.140625,-0.9609375 0.4101563,-1.359375 0.2929687,-0.43359374 0.703125,-0.62109374 1.0195312,-0.62109374 0.375,0 0.6914063,0.2578125 0.6914063,0.77343749 0,0.17578125 -0.082031,0.85546875 -0.3867188,1.34765625 C 7.302875,1.1434297 6.8927187,1.3660859 6.5411562,1.3660859 Z m 0,0"
         style="fill:#000000;fill-opacity:1;fill-rule:nonzero;stroke:none" />
    </g>
  </g>
</svg>
