<?xml version="1.0" encoding="UTF-8" standalone="no"?>
<!-- Created with Inkscape (http://www.inkscape.org/) -->

<svg
   version="1.1"
   id="svg1"
   width="297.32001"
   height="238.06667"
   viewBox="0 0 297.32001 238.06667"
   sodipodi:docname="24-25-1-数据结构-期末-题图5.2.pdf"
   xmlns:inkscape="http://www.inkscape.org/namespaces/inkscape"
   xmlns:sodipodi="http://sodipodi.sourceforge.net/DTD/sodipodi-0.dtd"
   xmlns="http://www.w3.org/2000/svg"
   xmlns:svg="http://www.w3.org/2000/svg">
  <defs
     id="defs1" />
  <sodipodi:namedview
     id="namedview1"
     pagecolor="#ffffff"
     bordercolor="#000000"
     borderopacity="0.25"
     inkscape:showpageshadow="2"
     inkscape:pageopacity="0.0"
     inkscape:pagecheckerboard="0"
     inkscape:deskcolor="#d1d1d1">
    <inkscape:page
       x="0"
       y="0"
       inkscape:label="1"
       id="page1"
       width="297.32001"
       height="238.06667"
       margin="0"
       bleed="0" />
  </sodipodi:namedview>
  <g
     id="g1"
     inkscape:groupmode="layer"
     inkscape:label="1">
    <path
       id="path1"
       d="M -54.62506,-28.11813 V 150.42921 H 168.3652 V -28.11813 Z"
       style="fill:#ffffff;fill-opacity:1;fill-rule:nonzero;stroke:none"
       transform="matrix(1.3333333,0,0,-1.3333333,72.832,200.576)" />
    <path
       id="path2"
       d="m 66.56494,136.0647 c 0,5.45183 -4.41948,9.8713 -9.87131,9.8713 -5.45184,0 -9.87132,-4.41947 -9.87132,-9.8713 0,-5.45185 4.41948,-9.87133 9.87132,-9.87133 5.45183,0 9.87131,4.41948 9.87131,9.87133 z"
       style="fill:none;stroke:#000000;stroke-width:0.3985;stroke-linecap:butt;stroke-linejoin:miter;stroke-miterlimit:10;stroke-dasharray:none;stroke-opacity:1"
       transform="matrix(1.3333333,0,0,-1.3333333,72.832,200.576)" />
    <path
       id="path3"
       d="m 7.1357734,-0.00138281 v -0.3046875 H 6.9599922 c -0.5976563,0 -0.7382813,-0.0703125 -0.84375,-0.3984375 l -2.15625,-6.23437499 c -0.046875,-0.1289063 -0.070312,-0.1992188 -0.2226563,-0.1992188 -0.1640625,0 -0.1875,0.058594 -0.2460937,0.1992188 l -2.0625,5.96484374 c -0.1757813,0.50390625 -0.57421876,0.65625 -1.11328126,0.66796875 v 0.3046875 l 1.01953126,-0.03515625 1.1484375,0.03515625 v -0.3046875 c -0.5039063,0 -0.75,-0.2578125 -0.75,-0.515625 0,-0.0234375 0.011719,-0.12890625 0.023437,-0.140625 L 2.2138984,-2.2748203 h 2.4609375 l 0.5273438,1.52343749 c 0.011719,0.046875 0.023437,0.10546875 0.023437,0.140625 0,0.3046875 -0.5507813,0.3046875 -0.8203125,0.3046875 v 0.3046875 c 0.351563,-0.03515625 1.054688,-0.03515625 1.429688,-0.03515625 z M 4.5576484,-2.5795078 H 2.3193672 l 1.1132812,-3.234375 z m 0,0"
       style="fill:#000000;fill-opacity:1;fill-rule:nonzero;stroke:none"
       aria-label="A"
       transform="matrix(1.3333333,0,0,1.3333333,143.44267,23.912)" />
    <path
       id="path4"
       d="m 9.5787,102.04852 c 0,5.29023 -4.28848,9.57871 -9.5787,9.57871 -5.29022,0 -9.5787,-4.28848 -9.5787,-9.57871 0,-5.29023 4.28848,-9.5787 9.5787,-9.5787 5.29022,0 9.5787,4.28847 9.5787,9.5787 z"
       style="fill:none;stroke:#000000;stroke-width:0.3985;stroke-linecap:butt;stroke-linejoin:miter;stroke-miterlimit:10;stroke-dasharray:none;stroke-opacity:1"
       transform="matrix(1.3333333,0,0,-1.3333333,72.832,200.576)" />
    <path
       id="path5"
       d="m 6.4801484,-1.8289688 c 0,-0.8671875 -0.8085937,-1.6054687 -1.921875,-1.7226562 0.9726563,-0.1992188 1.6523438,-0.8320313 1.6523438,-1.5703125 0,-0.8671875 -0.9140625,-1.6875 -2.203125,-1.6875 H 0.36296094 v 0.3164062 h 0.234375 c 0.76171876,0 0.78515626,0.1054688 0.78515626,0.46875 v 5.25000005 c 0,0.3515625 -0.023437,0.46875 -0.78515626,0.46875 h -0.234375 v 0.3046875 H 4.2653047 c 1.3242187,0 2.2148437,-0.890625 2.2148437,-1.82812505 z M 5.2496797,-5.1219375 c 0,0.6328125 -0.4921875,1.4765625 -1.59375,1.4765625 H 2.2145234 v -2.4492188 c 0,-0.328125 0.011719,-0.3984375 0.4804688,-0.3984375 h 1.2421875 c 0.9609375,0 1.3125,0.84375 1.3125,1.3710938 z m 0.234375,3.2929687 c 0,0.703125 -0.515625,1.52343755 -1.5351563,1.52343755 H 2.6949922 c -0.46875,0 -0.4804688,-0.0703125 -0.4804688,-0.3984375 V -3.4227188 h 1.875 c 0.984375,0 1.3945313,0.9257813 1.3945313,1.59375 z m 0,0"
       style="fill:#000000;fill-opacity:1;fill-rule:nonzero;stroke:none"
       aria-label="B"
       transform="matrix(1.3333333,0,0,1.3333333,68.129333,69.048)" />
    <path
       id="path6"
       d="m 123.19534,102.04852 c 0,5.4169 -4.39117,9.80806 -9.80807,9.80806 -5.41692,0 -9.80807,-4.39116 -9.80807,-9.80806 0,-5.41692 4.39115,-9.80807 9.80807,-9.80807 5.4169,0 9.80807,4.39115 9.80807,9.80807 z"
       style="fill:none;stroke:#000000;stroke-width:0.3985;stroke-linecap:butt;stroke-linejoin:miter;stroke-miterlimit:10;stroke-dasharray:none;stroke-opacity:1"
       transform="matrix(1.3333333,0,0,-1.3333333,72.832,200.576)" />
    <path
       id="path7"
       d="m 7.0430234,-3.3524063 c 0,-1.8867187 -1.3476562,-3.4570312 -3.046875,-3.4570312 H 0.35161719 v 0.3164062 h 0.234375 c 0.77343751,0 0.78515621,0.1054688 0.78515621,0.46875 v 5.25000005 c 0,0.3515625 -0.011719,0.46875 -0.78515621,0.46875 h -0.234375 v 0.3046875 H 3.9961484 c 1.6757813,0 3.046875,-1.47656255 3.046875,-3.35156255 z m -0.9960937,0 c 0,1.1132813 -0.1875,1.7109375 -0.5507813,2.1914063 -0.1992187,0.26953125 -0.7617187,0.85546875 -1.7695312,0.85546875 H 2.7188047 c -0.46875,0 -0.4921875,-0.0703125 -0.4921875,-0.3984375 V -6.0945938 c 0,-0.328125 0.023437,-0.3984375 0.4921875,-0.3984375 h 0.9960937 c 0.6210938,0 1.3007813,0.2109375 1.8164063,0.9257813 0.421875,0.5859375 0.515625,1.4414062 0.515625,2.2148437 z m 0,0"
       style="fill:#000000;fill-opacity:1;fill-rule:nonzero;stroke:none"
       aria-label="D"
       transform="matrix(1.3333333,0,0,1.3333333,218.94133,69.048)" />
    <path
       id="path8"
       d="m 66.45816,68.03235 c 0,5.39287 -4.37166,9.76453 -9.76453,9.76453 -5.39288,0 -9.76453,-4.37166 -9.76453,-9.76453 0,-5.39288 4.37165,-9.76455 9.76453,-9.76455 5.39287,0 9.76453,4.37167 9.76453,9.76455 z"
       style="fill:none;stroke:#000000;stroke-width:0.3985;stroke-linecap:butt;stroke-linejoin:miter;stroke-miterlimit:10;stroke-dasharray:none;stroke-opacity:1"
       transform="matrix(1.3333333,0,0,-1.3333333,72.832,200.576)" />
    <path
       id="path9"
       d="m 6.6217734,-2.3205547 c 0,-0.1054687 0,-0.1757812 -0.1289062,-0.1757812 -0.1054688,0 -0.1054688,0.070312 -0.1171875,0.1640625 -0.082031,1.42968746 -1.1484375,2.23828121 -2.2265625,2.23828121 -0.609375,0 -2.5664063,-0.33984375 -2.5664063,-3.30468751 0,-2.9765625 1.9453125,-3.3164062 2.5546875,-3.3164062 1.078125,0 1.96875,0.9023437 2.1679688,2.3671875 0.023437,0.1289062 0.023437,0.1640625 0.1640625,0.1640625 0.1523437,0 0.1523437,-0.035156 0.1523437,-0.234375 v -2.3671875 c 0,-0.1640625 0,-0.234375 -0.1054687,-0.234375 -0.035156,0 -0.082031,0 -0.1640625,0.1171875 l -0.4921875,0.7382812 c -0.375,-0.3632812 -0.8789063,-0.8554687 -1.8398438,-0.8554687 -1.8632812,0 -3.45703121,1.5820312 -3.45703121,3.609375 0,2.0625 1.60546871,3.63281246 3.45703121,3.63281246 1.6289063,0 2.6015625,-1.38281246 2.6015625,-2.54296876 z m 0,0"
       style="fill:#000000;fill-opacity:1;fill-rule:nonzero;stroke:none"
       aria-label="C"
       transform="matrix(1.3333333,0,0,1.3333333,143.628,114.40267)" />
    <path
       id="path10"
       d="m 9.4943,34.01617 c 0,5.24361 -4.2507,9.4943 -9.4943,9.4943 -5.2436,0 -9.4943,-4.25069 -9.4943,-9.4943 0,-5.24362 4.2507,-9.4943 9.4943,-9.4943 5.2436,0 9.4943,4.25068 9.4943,9.4943 z"
       style="fill:none;stroke:#000000;stroke-width:0.3985;stroke-linecap:butt;stroke-linejoin:miter;stroke-miterlimit:10;stroke-dasharray:none;stroke-opacity:1"
       transform="matrix(1.3333333,0,0,-1.3333333,72.832,200.576)" />
    <path
       id="path11"
       d="M 6.4916328,-2.5656953 H 6.2455391 C 5.9994453,-1.0305391 5.7650703,-0.30397656 4.0541328,-0.30397656 H 2.7299141 c -0.46875,0 -0.4921875,-0.0703125 -0.4921875,-0.3984375 V -3.3625703 h 0.9023437 c 0.9609375,0 1.078125,0.3164062 1.078125,1.1601562 H 4.4642891 V -4.8391328 H 4.2181953 c 0,0.8554687 -0.1171875,1.1601562 -1.078125,1.1601562 H 2.2377266 v -2.390625 c 0,-0.328125 0.023437,-0.3984375 0.4921875,-0.3984375 h 1.2890625 c 1.5234375,0 1.7929687,0.5507813 1.9453125,1.9335938 H 6.2103828 L 5.9408516,-6.7727266 H 0.32757031 v 0.3046875 h 0.234375 c 0.77343749,0 0.79687499,0.1171875 0.79687499,0.46875 v 5.22656254 c 0,0.3515625 -0.023437,0.46875 -0.79687499,0.46875 h -0.234375 V 7.109375e-4 H 6.0814766 Z m 0,0"
       style="fill:#000000;fill-opacity:1;fill-rule:nonzero;stroke:none"
       aria-label="E"
       transform="matrix(1.3333333,0,0,1.3333333,68.309333,159.73733)" />
    <path
       id="path12"
       d="m 122.77089,34.01617 c 0,5.18248 -4.20114,9.38363 -9.38362,9.38363 -5.1825,0 -9.38364,-4.20115 -9.38364,-9.38363 0,-5.18249 4.20114,-9.38363 9.38364,-9.38363 5.18248,0 9.38362,4.20114 9.38362,9.38363 z"
       style="fill:none;stroke:#000000;stroke-width:0.3985;stroke-linecap:butt;stroke-linejoin:miter;stroke-miterlimit:10;stroke-dasharray:none;stroke-opacity:1"
       transform="matrix(1.3333333,0,0,-1.3333333,72.832,200.576)" />
    <path
       id="path13"
       d="m 6.0808672,-4.5344453 -0.28125,-2.2382813 H 0.32696094 v 0.3046875 h 0.234375 c 0.77343746,0 0.79687496,0.1171875 0.79687496,0.46875 v 5.22656254 c 0,0.3515625 -0.023437,0.46875 -0.79687496,0.46875 h -0.234375 V 7.109375e-4 C 0.67852344,-0.03444531 1.4519609,-0.03444531 1.8386797,-0.03444531 c 0.4101562,0 1.3125,0 1.6757812,0.0351562475 V -0.30397656 h -0.328125 c -0.9492187,0 -0.9492187,-0.12890625 -0.9492187,-0.48046875 V -3.2336641 h 0.8554687 c 0.9609375,0 1.0546875,0.3164063 1.0546875,1.1601563 H 4.4050859 V -4.7102266 H 4.1472734 c 0,0.8320313 -0.09375,1.1601563 -1.0546875,1.1601563 H 2.2371172 v -2.5195313 c 0,-0.328125 0.023437,-0.3984375 0.4921875,-0.3984375 h 1.1953125 c 1.4882812,0 1.7460937,0.5625 1.8984375,1.9335938 z m 0,0"
       style="fill:#000000;fill-opacity:1;fill-rule:nonzero;stroke:none"
       aria-label="F"
       transform="matrix(1.3333333,0,0,1.3333333,219.67733,159.73733)" />
    <path
       id="path14"
       d="m 66.69969,0 c 0,5.52625 -4.47981,10.00606 -10.00606,10.00606 -5.52626,0 -10.00607,-4.47981 -10.00607,-10.00606 0,-5.52625 4.47981,-10.00606 10.00607,-10.00606 5.52625,0 10.00606,4.47981 10.00606,10.00606 z"
       style="fill:none;stroke:#000000;stroke-width:0.3985;stroke-linecap:butt;stroke-linejoin:miter;stroke-miterlimit:10;stroke-dasharray:none;stroke-opacity:1"
       transform="matrix(1.3333333,0,0,-1.3333333,72.832,200.576)" />
    <path
       id="path15"
       d="m 7.3254219,-2.4131016 v -0.3046875 l -1.21875,0.023437 c -0.3984375,0 -1.2421875,0 -1.6054688,-0.023437 v 0.3046875 h 0.3164063 c 0.9023437,0 0.9257812,0.1171875 0.9257812,0.4804688 v 0.6328125 c 0,1.12499999 -1.2539062,1.20703124 -1.5351562,1.20703124 -0.65625,0 -2.625,-0.33984375 -2.625,-3.31640624 0,-2.9765625 1.96875,-3.3046875 2.5664062,-3.3046875 1.0664063,0 1.96875,0.9023437 2.1679688,2.3671875 0.023437,0.1289062 0.023437,0.1640625 0.1640625,0.1640625 0.1523437,0 0.1523437,-0.035156 0.1523437,-0.234375 v -2.3671875 c 0,-0.1640625 0,-0.234375 -0.1054687,-0.234375 -0.046875,0 -0.082031,0 -0.1640625,0.1171875 l -0.4921875,0.7382812 c -0.328125,-0.3164062 -0.8554688,-0.8554687 -1.8515625,-0.8554687 -1.8515625,0 -3.45703127,1.5703125 -3.45703127,3.609375 0,2.0507812 1.59374997,3.63281249 3.48046877,3.63281249 0.7265625,0 1.5234375,-0.2578125 1.8632812,-0.85546875 0.1289063,0.22265625 0.5273438,0.62109375 0.6328125,0.62109375 0.09375,0 0.09375,-0.08203125 0.09375,-0.22265625 V -1.9677891 c 0,-0.3867187 0.046875,-0.4453125 0.6914063,-0.4453125 z m 0,0"
       style="fill:#000000;fill-opacity:1;fill-rule:nonzero;stroke:none"
       aria-label="G"
       transform="matrix(1.3333333,0,0,1.3333333,143.20933,205.112)" />
    <path
       id="path16"
       d="M 48.05844,130.88359 8.72595,107.28424"
       style="fill:none;stroke:#000000;stroke-width:0.3985;stroke-linecap:butt;stroke-linejoin:miter;stroke-miterlimit:10;stroke-dasharray:none;stroke-opacity:1"
       transform="matrix(1.3333333,0,0,-1.3333333,72.832,200.576)" />
    <path
       id="path17"
       d="M -2.07224,2.39104 C -1.69365,0.95639 -0.84999,0.27895 0,0 -0.84999,-0.27895 -1.69365,-0.95639 -2.07224,-2.39104"
       style="fill:none;stroke:#000000;stroke-width:0.3985;stroke-linecap:round;stroke-linejoin:round;stroke-miterlimit:10;stroke-dasharray:none;stroke-opacity:1"
       transform="matrix(-1.1432933,0.68597333,0.68597333,1.1432933,84.238813,57.667027)" />
    <path
       id="path18"
       d="M 4.1721563,6.40625e-4 V -0.30404687 H 3.85575 c -0.9023437,0 -0.9257812,-0.1171875 -0.9257812,-0.48046875 V -6.3743594 c 0,-0.234375 0,-0.2578125 -0.234375,-0.2578125 -0.609375,0.6328125 -1.4882813,0.6328125 -1.80468755,0.6328125 v 0.3164063 c 0.19921875,0 0.78515625,0 1.30078125,-0.2578125 v 5.15624998 c 0,0.3515625 -0.035156,0.48046875 -0.9257812,0.48046875 H 0.9495 V 6.40625e-4 C 1.3010625,-0.03451562 2.1565313,-0.03451562 2.5549688,-0.03451562 c 0.3984375,0 1.265625,0 1.6171875,0.035156245 z M 9.4573125,-1.7337344 H 9.1995 C 9.152625,-1.4290469 9.0823125,-0.99545312 8.9885625,-0.84310937 8.91825,-0.76107812 8.262,-0.76107812 8.0393438,-0.76107812 H 6.246375 L 7.3010625,-1.7923281 c 1.5585938,-1.3710938 2.15625,-1.9101563 2.15625,-2.90625 0,-1.1367188 -0.9023437,-1.9335938 -2.1210937,-1.9335938 -1.125,0 -1.8515625,0.9140625 -1.8515625,1.8046875 0,0.5507813 0.4921875,0.5507813 0.5273437,0.5507813 0.1640625,0 0.515625,-0.1171875 0.515625,-0.5273438 0,-0.2578125 -0.1875,-0.515625 -0.5273437,-0.515625 -0.082031,0 -0.1054688,0 -0.1289063,0.011719 0.2226563,-0.6445313 0.7617188,-1.0195313 1.3359375,-1.0195313 0.9140625,0 1.3359375,0.8085938 1.3359375,1.6289063 0,0.796875 -0.4921875,1.5820312 -1.0429687,2.203125 L 5.590125,-0.36264062 C 5.4846563,-0.25717187 5.4846563,-0.23373437 5.4846563,6.40625e-4 h 3.6914062 z m 0,0"
       style="fill:#000000;fill-opacity:1;fill-rule:nonzero;stroke:none"
       aria-label="12"
       transform="matrix(1.3333333,0,0,1.3333333,92.484,37.241333)" />
    <path
       id="path19"
       d="M 56.69363,125.99413 V 78.39464"
       style="fill:none;stroke:#000000;stroke-width:0.3985;stroke-linecap:butt;stroke-linejoin:miter;stroke-miterlimit:10;stroke-dasharray:none;stroke-opacity:1"
       transform="matrix(1.3333333,0,0,-1.3333333,72.832,200.576)" />
    <path
       id="path20"
       d="M -2.07224,2.39104 C -1.69365,0.95639 -0.84999,0.27895 0,0 -0.84999,-0.27895 -1.69365,-0.95639 -2.07224,-2.39104"
       style="fill:none;stroke:#000000;stroke-width:0.3985;stroke-linecap:round;stroke-linejoin:round;stroke-miterlimit:10;stroke-dasharray:none;stroke-opacity:1"
       transform="matrix(0,1.3333333,1.3333333,0,148.42351,96.31548)" />
    <path
       id="path21"
       d="m 4.5482578,-2.0278125 c 0,-1.265625 -0.8789062,-2.2265625 -1.9921875,-2.2265625 -0.6679687,0 -1.0429687,0.5039063 -1.2421875,0.984375 v -0.234375 c 0,-2.5195312 1.2421875,-2.8828125 1.7460938,-2.8828125 0.234375,0 0.65625,0.058594 0.8789062,0.3984375 -0.1523437,0 -0.5507812,0 -0.5507812,0.4453125 0,0.3164063 0.234375,0.4570313 0.4570312,0.4570313 0.1640625,0 0.4570313,-0.082031 0.4570313,-0.46875 0,-0.5976563 -0.4335938,-1.078125 -1.265625,-1.078125 -1.2773438,0 -2.61328129,1.2890625 -2.61328129,3.4804687 0,2.66015625 1.14843749,3.375 2.07421879,3.375 1.1132812,0 2.0507812,-0.9375 2.0507812,-2.25 z m -0.890625,-0.011719 c 0,0.4804687 0,0.9726562 -0.1640625,1.33593745 -0.3046875,0.59765625 -0.7617187,0.64453125 -0.9960937,0.64453125 -0.6210938,0 -0.9257813,-0.59765625 -0.984375,-0.75 -0.1757813,-0.46875 -0.1757813,-1.265625 -0.1757813,-1.4414062 0,-0.7734375 0.3164063,-1.7695313 1.21875,-1.7695313 0.1523438,0 0.609375,0 0.9257813,0.609375 0.1757812,0.375 0.1757812,0.8789063 0.1757812,1.3710938 z m 0,0"
       style="fill:#000000;fill-opacity:1;fill-rule:nonzero;stroke:none"
       aria-label="6"
       transform="matrix(1.3333333,0,0,1.3333333,137.088,68.86)" />
    <path
       id="path22"
       d="m 65.32881,130.88359 39.1358,-23.48135"
       style="fill:none;stroke:#000000;stroke-width:0.3985;stroke-linecap:butt;stroke-linejoin:miter;stroke-miterlimit:10;stroke-dasharray:none;stroke-opacity:1"
       transform="matrix(1.3333333,0,0,-1.3333333,72.832,200.576)" />
    <path
       id="path23"
       d="M -2.07224,2.39104 C -1.69365,0.95639 -0.84999,0.27895 0,0 -0.84999,-0.27895 -1.69365,-0.95639 -2.07224,-2.39104"
       style="fill:none;stroke:#000000;stroke-width:0.3985;stroke-linecap:round;stroke-linejoin:round;stroke-miterlimit:10;stroke-dasharray:none;stroke-opacity:1"
       transform="matrix(1.1432933,0.68597333,0.68597333,-1.1432933,212.34593,57.50968)" />
    <path
       id="path24"
       d="M 4.1727891,3.203125e-4 V -0.30436719 H 3.8563828 c -0.9023437,0 -0.9257812,-0.1171875 -0.9257812,-0.48046875 V -6.3746797 c 0,-0.234375 0,-0.2578125 -0.234375,-0.2578125 -0.609375,0.6328125 -1.4882813,0.6328125 -1.80468754,0.6328125 v 0.3164063 c 0.19921874,0 0.78515624,0 1.30078124,-0.2578125 v 5.15624996 c 0,0.3515625 -0.035156,0.48046875 -0.9257812,0.48046875 H 0.95013281 V 3.203125e-4 C 1.3016953,-0.03483594 2.1571641,-0.03483594 2.5556016,-0.03483594 c 0.3984375,0 1.265625,0 1.6171875,0.0351562525 z M 9.5282578,-1.6988984 c 0,-0.8203125 -0.6210937,-1.59375 -1.6523437,-1.8046875 0.8085937,-0.2695313 1.3945312,-0.9726563 1.3945312,-1.7578125 0,-0.8203125 -0.8789062,-1.3710938 -1.8398437,-1.3710938 -1.0078125,0 -1.7578125,0.5976563 -1.7578125,1.3476563 0,0.3398437 0.2109375,0.5273437 0.5039062,0.5273437 0.3046875,0 0.5039063,-0.2226562 0.5039063,-0.515625 0,-0.4921875 -0.46875,-0.4921875 -0.609375,-0.4921875 0.3046875,-0.4921875 0.9609375,-0.6210937 1.3242187,-0.6210937 0.4101563,0 0.9492188,0.2226562 0.9492188,1.1132812 0,0.1289063 -0.011719,0.703125 -0.2695313,1.1367188 -0.3046875,0.4804687 -0.6445312,0.515625 -0.890625,0.515625 -0.082031,0.011719 -0.3164062,0.035156 -0.3867187,0.035156 -0.082031,0.011719 -0.1523438,0.023437 -0.1523438,0.1171875 0,0.1171875 0.070312,0.1171875 0.234375,0.1171875 h 0.4453125 c 0.8085938,0 1.1835938,0.6679688 1.1835938,1.6523438 0,1.34765621 -0.6914063,1.64062496 -1.125,1.64062496 -0.4335938,0 -1.171875,-0.17578125 -1.5234375,-0.76171875 0.3515625,0.0585938 0.65625,-0.1640625 0.65625,-0.53906251 0,-0.3632812 -0.2695313,-0.5625 -0.5625,-0.5625 -0.234375,0 -0.5507813,0.140625 -0.5507813,0.5742188 0,0.91406246 0.9257813,1.57031246 2.0039063,1.57031246 1.21875,0 2.1210937,-0.9140625 2.1210937,-1.92187476 z m 0,0"
       style="fill:#000000;fill-opacity:1;fill-rule:nonzero;stroke:none"
       aria-label="13"
       transform="matrix(1.3333333,0,0,1.3333333,190.948,36.870667)" />
    <path
       id="path25"
       d="M 0,92.27055 V 44.10823"
       style="fill:none;stroke:#000000;stroke-width:0.3985;stroke-linecap:butt;stroke-linejoin:miter;stroke-miterlimit:10;stroke-dasharray:none;stroke-opacity:1"
       transform="matrix(1.3333333,0,0,-1.3333333,72.832,200.576)" />
    <path
       id="path26"
       d="M -2.07224,2.39104 C -1.69365,0.95639 -0.84999,0.27895 0,0 -0.84999,-0.27895 -1.69365,-0.95639 -2.07224,-2.39104"
       style="fill:none;stroke:#000000;stroke-width:0.3985;stroke-linecap:round;stroke-linejoin:round;stroke-miterlimit:10;stroke-dasharray:none;stroke-opacity:1"
       transform="matrix(0,1.3333333,1.3333333,0,72.832,142.03069)" />
    <path
       id="path27"
       d="M 4.6860781,-1.6411484 V -1.9575547 H 3.6899844 v -4.5234375 c 0,-0.1992187 0,-0.2578125 -0.1523438,-0.2578125 -0.09375,0 -0.1171875,0 -0.1992187,0.1171875 l -3.05859377,4.6640625 v 0.3164063 H 2.9282656 v 0.86718746 c 0,0.3515625 -0.023437,0.46875 -0.7617187,0.46875 H 1.9556094 V -5.234375e-4 C 2.3657656,-0.03567969 2.8931094,-0.03567969 3.3032656,-0.03567969 c 0.421875,0 0.9492188,0 1.359375,0.0351562525 V -0.30521094 H 4.4517031 c -0.7382812,0 -0.7617187,-0.1171875 -0.7617187,-0.46875 V -1.6411484 Z M 2.9868594,-1.9575547 H 0.56107813 L 2.9868594,-5.6723984 Z m 0,0"
       style="fill:#000000;fill-opacity:1;fill-rule:nonzero;stroke:none"
       aria-label="4"
       transform="matrix(1.3333333,0,0,1.3333333,77.525333,114.41867)" />
    <path
       id="path28"
       d="M 48.15001,73.15851 8.72595,96.81279"
       style="fill:none;stroke:#000000;stroke-width:0.3985;stroke-linecap:butt;stroke-linejoin:miter;stroke-miterlimit:10;stroke-dasharray:none;stroke-opacity:1"
       transform="matrix(1.3333333,0,0,-1.3333333,72.832,200.576)" />
    <path
       id="path29"
       d="M -2.07224,2.39104 C -1.69365,0.95639 -0.84999,0.27895 0,0 -0.84999,-0.27895 -1.69365,-0.95639 -2.07224,-2.39104"
       style="fill:none;stroke:#000000;stroke-width:0.3985;stroke-linecap:round;stroke-linejoin:round;stroke-miterlimit:10;stroke-dasharray:none;stroke-opacity:1"
       transform="matrix(-1.1432933,-0.68597333,-0.68597333,1.1432933,84.238813,71.3556)" />
    <path
       id="path30"
       d="m 4.5470078,-1.69875 c 0,-0.8203125 -0.6210937,-1.59375 -1.6523437,-1.8046875 0.8085937,-0.2695313 1.3945312,-0.9726563 1.3945312,-1.7578125 0,-0.8203125 -0.8789062,-1.3710938 -1.8398437,-1.3710938 -1.0078125,0 -1.75781254,0.5976563 -1.75781254,1.3476563 0,0.3398437 0.2109375,0.5273437 0.50390624,0.5273437 0.3046875,0 0.5039063,-0.2226562 0.5039063,-0.515625 0,-0.4921875 -0.46875,-0.4921875 -0.609375,-0.4921875 0.3046875,-0.4921875 0.9609375,-0.6210937 1.3242187,-0.6210937 0.4101563,0 0.9492188,0.2226562 0.9492188,1.1132812 0,0.1289063 -0.011719,0.703125 -0.2695313,1.1367188 -0.3046875,0.4804687 -0.6445312,0.515625 -0.890625,0.515625 -0.082031,0.011719 -0.3164062,0.035156 -0.3867187,0.035156 -0.082031,0.011719 -0.1523438,0.023437 -0.1523438,0.1171875 0,0.1171875 0.070312,0.1171875 0.234375,0.1171875 h 0.4453125 c 0.8085938,0 1.1835938,0.6679688 1.1835938,1.6523438 0,1.34765625 -0.6914063,1.640625 -1.125,1.640625 -0.4335938,0 -1.171875,-0.17578125 -1.52343754,-0.76171875 0.35156254,0.0585938 0.65625004,-0.1640625 0.65625004,-0.53906255 0,-0.3632812 -0.2695313,-0.5625 -0.56250004,-0.5625 -0.234375,0 -0.55078125,0.140625 -0.55078125,0.5742188 0,0.9140625 0.92578129,1.5703125 2.00390629,1.5703125 1.21875,0 2.1210937,-0.9140625 2.1210937,-1.9218748 z m 0,0"
       style="fill:#000000;fill-opacity:1;fill-rule:nonzero;stroke:none"
       aria-label="3"
       transform="matrix(1.3333333,0,0,1.3333333,115.21467,82.14)" />
    <path
       id="path31"
       d="M 65.23724,73.15851 104.46461,96.6948"
       style="fill:none;stroke:#000000;stroke-width:0.3985;stroke-linecap:butt;stroke-linejoin:miter;stroke-miterlimit:10;stroke-dasharray:none;stroke-opacity:1"
       transform="matrix(1.3333333,0,0,-1.3333333,72.832,200.576)" />
    <path
       id="path32"
       d="M -2.07224,2.39104 C -1.69365,0.95639 -0.84999,0.27895 0,0 -0.84999,-0.27895 -1.69365,-0.95639 -2.07224,-2.39104"
       style="fill:none;stroke:#000000;stroke-width:0.3985;stroke-linecap:round;stroke-linejoin:round;stroke-miterlimit:10;stroke-dasharray:none;stroke-opacity:1"
       transform="matrix(1.1432933,-0.68597333,-0.68597333,-1.1432933,212.34593,71.512933)" />
    <path
       id="path33"
       d="M 4.1729375,6.25e-5 V -0.304625 H 3.8565313 c -0.9023438,0 -0.9257813,-0.1171875 -0.9257813,-0.48046875 V -6.3749375 c 0,-0.234375 0,-0.2578125 -0.234375,-0.2578125 C 2.087,-5.9999375 1.2080938,-5.9999375 0.8916875,-5.9999375 v 0.3164062 c 0.1992188,0 0.7851563,0 1.3007813,-0.2578125 v 5.15625005 c 0,0.3515625 -0.035156,0.48046875 -0.9257813,0.48046875 H 0.95028125 V 6.25e-5 C 1.3018438,-0.03509375 2.1573125,-0.03509375 2.55575,-0.03509375 c 0.3984375,0 1.265625,0 1.6171875,0.03515625 z m 5.390625,-3.1875 c 0,-0.796875 -0.046875,-1.59375 -0.3984375,-2.3320313 C 8.7080938,-6.4804063 7.8877813,-6.63275 7.477625,-6.63275 c -0.5976562,0 -1.3359375,0.2578125 -1.734375,1.1835937 -0.328125,0.6914063 -0.375,1.4648438 -0.375,2.2617188 0,0.75 0.046875,1.640625 0.4453125,2.40234375 0.4335938,0.80859375 1.1601563,1.0078125 1.6523438,1.0078125 0.5390625,0 1.2890625,-0.2109375 1.734375,-1.16015625 0.3164062,-0.6914063 0.3632812,-1.4648438 0.3632812,-2.25 z M 8.7315313,-3.304625 c 0,0.75 0,1.4179687 -0.1054688,2.0625 C 8.4737188,-0.304625 7.9112188,6.25e-5 7.4659063,6.25e-5 7.0791875,6.25e-5 6.4815313,-0.24603125 6.30575,-1.2069688 6.2002813,-1.804625 6.2002813,-2.7186875 6.2002813,-3.304625 c 0,-0.6445313 0,-1.3007813 0.082031,-1.8398438 0.1875,-1.1835937 0.9257813,-1.265625 1.1835938,-1.265625 0.328125,0 0.984375,0.1757813 1.171875,1.1601563 0.09375,0.5625 0.09375,1.3125 0.09375,1.9453125 z m 0,0"
       style="fill:#000000;fill-opacity:1;fill-rule:nonzero;stroke:none"
       aria-label="10"
       transform="matrix(1.3333333,0,0,1.3333333,168.21733,82.218667)" />
    <path
       id="path34"
       d="M 48.15001,62.90617 8.6536,39.20847"
       style="fill:none;stroke:#000000;stroke-width:0.3985;stroke-linecap:butt;stroke-linejoin:miter;stroke-miterlimit:10;stroke-dasharray:none;stroke-opacity:1"
       transform="matrix(1.3333333,0,0,-1.3333333,72.832,200.576)" />
    <path
       id="path35"
       d="M -2.07224,2.39104 C -1.69365,0.95639 -0.84999,0.27895 0,0 -0.84999,-0.27895 -1.69365,-0.95639 -2.07224,-2.39104"
       style="fill:none;stroke:#000000;stroke-width:0.3985;stroke-linecap:round;stroke-linejoin:round;stroke-miterlimit:10;stroke-dasharray:none;stroke-opacity:1"
       transform="matrix(-1.1432933,0.68597333,0.68597333,1.1432933,84.142347,148.43472)" />
    <path
       id="path36"
       d="m 4.4775391,-2.0040703 c 0,-1.1835938 -0.8203125,-2.1796875 -1.8984375,-2.1796875 -0.4804688,0 -0.9023438,0.1640625 -1.265625,0.5039062 v -1.9335937 c 0.1992187,0.058594 0.5273437,0.1289062 0.84375,0.1289062 1.2304687,0 1.9335937,-0.9140625 1.9335937,-1.0429687 0,-0.058594 -0.035156,-0.1054688 -0.1054687,-0.1054688 0,0 -0.035156,0 -0.082031,0.023437 -0.1992187,0.09375 -0.6796875,0.2929688 -1.3476562,0.2929688 -0.3984375,0 -0.8554688,-0.070312 -1.3242188,-0.28125 -0.082031,-0.023437 -0.1289062,-0.023437 -0.1289062,-0.023437 -0.09375,0 -0.09375,0.082031 -0.09375,0.234375 v 2.953125 c 0,0.1757812 0,0.2578125 0.140625,0.2578125 0.070312,0 0.082031,-0.035156 0.1289062,-0.09375 0.1054688,-0.1523438 0.4804688,-0.6914063 1.2773438,-0.6914063 0.5273437,0 0.7734375,0.4570313 0.8554687,0.6328125 0.1523438,0.375 0.1757813,0.7617188 0.1757813,1.2539063 0,0.3515625 0,0.9492187 -0.234375,1.37109374 -0.2460938,0.38671875 -0.609375,0.64453125 -1.0664063,0.64453125 -0.7265625,0 -1.30078124,-0.52734375 -1.46484374,-1.11328129 0.0234375,0.011719 0.0585938,0.011719 0.1640625,0.011719 0.32812504,0 0.50390624,-0.2460938 0.50390624,-0.4804688 0,-0.2460937 -0.1757812,-0.4921875 -0.50390624,-0.4921875 -0.140625,0 -0.48046875,0.070312 -0.48046875,0.5273438 0,0.85546874 0.67968749,1.82812499 1.79296879,1.82812499 1.1601562,0 2.1796875,-0.9609375 2.1796872,-2.22656269 z m 0,0"
       style="fill:#000000;fill-opacity:1;fill-rule:nonzero;stroke:none"
       aria-label="5"
       transform="matrix(1.3333333,0,0,1.3333333,115.16667,146.176)" />
    <path
       id="path37"
       d="M 65.23724,62.90617 104.82857,39.15154"
       style="fill:none;stroke:#000000;stroke-width:0.3985;stroke-linecap:butt;stroke-linejoin:miter;stroke-miterlimit:10;stroke-dasharray:none;stroke-opacity:1"
       transform="matrix(1.3333333,0,0,-1.3333333,72.832,200.576)" />
    <path
       id="path38"
       d="M -2.07224,2.39104 C -1.69365,0.95639 -0.84999,0.27895 0,0 -0.84999,-0.27895 -1.69365,-0.95639 -2.07224,-2.39104"
       style="fill:none;stroke:#000000;stroke-width:0.3985;stroke-linecap:round;stroke-linejoin:round;stroke-miterlimit:10;stroke-dasharray:none;stroke-opacity:1"
       transform="matrix(1.1432933,0.68597333,0.68597333,-1.1432933,212.8312,148.51063)" />
    <path
       id="path39"
       d="M 4.1710469,1.328125e-4 V -0.30455469 H 3.8546406 c -0.9023437,0 -0.9257812,-0.1171875 -0.9257812,-0.48046875 V -6.3748672 c 0,-0.234375 0,-0.2578125 -0.234375,-0.2578125 -0.609375,0.6328125 -1.4882813,0.6328125 -1.80468752,0.6328125 v 0.3164063 c 0.19921872,0 0.78515622,0 1.30078122,-0.2578125 v 5.15624996 c 0,0.3515625 -0.035156,0.48046875 -0.9257812,0.48046875 H 0.94839063 V 1.328125e-4 C 1.2999531,-0.03502344 2.1554219,-0.03502344 2.5538594,-0.03502344 c 0.3984375,0 1.265625,0 1.6171875,0.0351562525 z m 0,0"
       style="fill:#000000;fill-opacity:1;fill-rule:nonzero;stroke:none"
       aria-label="1"
       transform="matrix(1.3333333,0,0,1.3333333,175.10267,146.21467)" />
    <path
       id="path40"
       d="M 122.45685,97.81935 C 163.75128,78.56352 107.68637,-23.03032 66.30507,-4.47856"
       style="fill:none;stroke:#000000;stroke-width:0.3985;stroke-linecap:butt;stroke-linejoin:miter;stroke-miterlimit:10;stroke-dasharray:none;stroke-opacity:1"
       transform="matrix(1.3333333,0,0,-1.3333333,72.832,200.576)" />
    <path
       id="path41"
       d="M -2.07224,2.39104 C -1.69365,0.95639 -0.84999,0.27895 0,0 -0.84999,-0.27895 -1.69365,-0.95639 -2.07224,-2.39104"
       style="fill:none;stroke:#000000;stroke-width:0.3985;stroke-linecap:round;stroke-linejoin:round;stroke-miterlimit:10;stroke-dasharray:none;stroke-opacity:1"
       transform="matrix(-1.2084,-0.56346667,-0.56346667,1.2084,160.99628,206.43871)" />
    <path
       id="path42"
       d="M 4.4758594,-1.7348828 H 4.2180469 c -0.046875,0.3046875 -0.1171875,0.73828124 -0.2109375,0.89062499 -0.070312,0.0820313 -0.7265625,0.0820313 -0.9492188,0.0820313 H 1.2649219 L 2.3196094,-1.7934766 c 1.5585937,-1.3710937 2.15625,-1.9101562 2.15625,-2.90625 0,-1.1367187 -0.9023438,-1.9335937 -2.1210938,-1.9335937 -1.125,0 -1.85156247,0.9140625 -1.85156247,1.8046875 0,0.5507812 0.4921875,0.5507812 0.52734377,0.5507812 0.1640625,0 0.515625,-0.1171875 0.515625,-0.5273437 0,-0.2578125 -0.1875,-0.515625 -0.5273438,-0.515625 -0.0820312,0 -0.10546872,0 -0.12890622,0.011719 0.22265622,-0.6445312 0.76171872,-1.0195312 1.33593752,-1.0195312 0.9140625,0 1.3359375,0.8085937 1.3359375,1.6289062 0,0.796875 -0.4921875,1.5820313 -1.0429688,2.203125 L 0.60867188,-0.36378906 C 0.50320313,-0.25832031 0.50320313,-0.23488281 0.50320313,-5.078125e-4 H 4.1946094 Z m 0,0"
       style="fill:#000000;fill-opacity:1;fill-rule:nonzero;stroke:none"
       aria-label="2"
       transform="matrix(1.3333333,0,0,1.3333333,244.54,161.97333)" />
    <path
       id="path43"
       d="M 8.3119,29.02888 47.60121,5.45558"
       style="fill:none;stroke:#000000;stroke-width:0.3985;stroke-linecap:butt;stroke-linejoin:miter;stroke-miterlimit:10;stroke-dasharray:none;stroke-opacity:1"
       transform="matrix(1.3333333,0,0,-1.3333333,72.832,200.576)" />
    <path
       id="path44"
       d="M -2.07224,2.39104 C -1.69365,0.95639 -0.84999,0.27895 0,0 -0.84999,-0.27895 -1.69365,-0.95639 -2.07224,-2.39104"
       style="fill:none;stroke:#000000;stroke-width:0.3985;stroke-linecap:round;stroke-linejoin:round;stroke-miterlimit:10;stroke-dasharray:none;stroke-opacity:1"
       transform="matrix(1.1432933,0.68597333,0.68597333,-1.1432933,136.52808,193.43857)" />
    <path
       id="path45"
       d="M 4.8276328,-6.4094453 H 2.4135703 c -1.21875,0 -1.2421875,-0.1289063 -1.2773437,-0.328125 H 0.89013281 l -0.328125,2.0507812 h 0.24609375 c 0.0234375,-0.1523437 0.1171875,-0.7851562 0.24609374,-0.9023437 0.070312,-0.058594 0.84375,-0.058594 0.9726563,-0.058594 h 2.0625 l -1.1132813,1.5703125 c -0.890625,1.3476563 -1.21875,2.7304688 -1.21875,3.75000004 0,0.09375 0,0.55078125 0.4570313,0.55078125 0.4570312,0 0.4570312,-0.45703125 0.4570312,-0.55078125 v -0.50390625 c 0,-0.55078129 0.023437,-1.10156249 0.1054688,-1.64062499 0.046875,-0.2226563 0.1757812,-1.078125 0.6210937,-1.6992188 l 1.3476563,-1.8984375 c 0.082031,-0.1171875 0.082031,-0.140625 0.082031,-0.3398435 z m 0,0"
       style="fill:#000000;fill-opacity:1;fill-rule:nonzero;stroke:none"
       aria-label="7"
       transform="matrix(1.3333333,0,0,1.3333333,115.028,172.73733)" />
    <path
       id="path46"
       d="M 113.38727,43.59906 V 91.64268"
       style="fill:none;stroke:#000000;stroke-width:0.3985;stroke-linecap:butt;stroke-linejoin:miter;stroke-miterlimit:10;stroke-dasharray:none;stroke-opacity:1"
       transform="matrix(1.3333333,0,0,-1.3333333,72.832,200.576)" />
    <path
       id="path47"
       d="M -2.07224,2.39104 C -1.69365,0.95639 -0.84999,0.27895 0,0 -0.84999,-0.27895 -1.69365,-0.95639 -2.07224,-2.39104"
       style="fill:none;stroke:#000000;stroke-width:0.3985;stroke-linecap:round;stroke-linejoin:round;stroke-miterlimit:10;stroke-dasharray:none;stroke-opacity:1"
       transform="matrix(0,-1.3333333,-1.3333333,0,224.01503,78.120093)" />
    <path
       id="path48"
       d="m 4.5466406,-1.6998828 c 0,-0.8203125 -0.6210937,-1.59375 -1.6523437,-1.8046875 0.8085937,-0.2695313 1.3945312,-0.9726563 1.3945312,-1.7578125 0,-0.8203125 -0.8789062,-1.3710938 -1.8398437,-1.3710938 -1.0078125,0 -1.75781252,0.5976563 -1.75781252,1.3476563 0,0.3398437 0.2109375,0.5273437 0.50390622,0.5273437 0.3046875,0 0.5039063,-0.2226562 0.5039063,-0.515625 0,-0.4921875 -0.46875,-0.4921875 -0.609375,-0.4921875 0.3046875,-0.4921875 0.9609375,-0.6210937 1.3242187,-0.6210937 0.4101563,0 0.9492188,0.2226562 0.9492188,1.1132812 0,0.1289063 -0.011719,0.703125 -0.2695313,1.1367188 -0.3046875,0.4804687 -0.6445312,0.515625 -0.890625,0.515625 -0.082031,0.011719 -0.3164062,0.035156 -0.3867187,0.035156 -0.082031,0.011719 -0.1523438,0.023437 -0.1523438,0.1171875 0,0.1171875 0.070312,0.1171875 0.234375,0.1171875 h 0.4453125 c 0.8085938,0 1.1835938,0.6679688 1.1835938,1.6523438 0,1.34765624 -0.6914063,1.64062499 -1.125,1.64062499 -0.4335938,0 -1.171875,-0.17578125 -1.52343752,-0.76171875 0.35156252,0.0585938 0.65625002,-0.1640625 0.65625002,-0.53906254 0,-0.3632812 -0.2695313,-0.5625 -0.56250002,-0.5625 -0.234375,0 -0.55078125,0.140625 -0.55078125,0.5742188 0,0.91406249 0.92578127,1.57031249 2.00390627,1.57031249 1.21875,0 2.1210937,-0.9140625 2.1210937,-1.92187479 z m 0,0"
       style="fill:#000000;fill-opacity:1;fill-rule:nonzero;stroke:none"
       aria-label="3"
       transform="matrix(1.3333333,0,0,1.3333333,212.68,114.42667)" />
    <path
       id="path49"
       d="M 103.80438,34.01617 H 10.09206"
       style="fill:none;stroke:#000000;stroke-width:0.3985;stroke-linecap:butt;stroke-linejoin:miter;stroke-miterlimit:10;stroke-dasharray:none;stroke-opacity:1"
       transform="matrix(1.3333333,0,0,-1.3333333,72.832,200.576)" />
    <path
       id="path50"
       d="M -2.07224,2.39104 C -1.69365,0.95639 -0.84999,0.27895 0,0 -0.84999,-0.27895 -1.69365,-0.95639 -2.07224,-2.39104"
       style="fill:none;stroke:#000000;stroke-width:0.3985;stroke-linecap:round;stroke-linejoin:round;stroke-miterlimit:10;stroke-dasharray:none;stroke-opacity:1"
       transform="matrix(-1.3333333,0,0,1.3333333,86.0224,155.22111)" />
    <path
       id="path51"
       d="m 4.5808906,-3.1887187 c 0,-0.796875 -0.046875,-1.59375 -0.3984375,-2.3320313 -0.4570312,-0.9609375 -1.2773437,-1.1132812 -1.6875,-1.1132812 -0.5976562,0 -1.3359375,0.2578125 -1.73437497,1.1835937 -0.328125,0.6914063 -0.375,1.4648438 -0.375,2.2617188 0,0.75 0.046875,1.640625 0.4453125,2.4023437 0.43359377,0.80859375 1.16015627,1.0078125 1.65234377,1.0078125 0.5390625,0 1.2890625,-0.2109375 1.734375,-1.16015625 C 4.5340156,-1.630125 4.5808906,-2.4035625 4.5808906,-3.1887187 Z M 3.7488594,-3.3059062 c 0,0.75 0,1.4179687 -0.1054688,2.0625 -0.1523437,0.93749995 -0.7148437,1.24218745 -1.1601562,1.24218745 -0.3867188,0 -0.984375,-0.24609375 -1.1601563,-1.20703125 -0.1054687,-0.5976562 -0.1054687,-1.5117187 -0.1054687,-2.0976562 0,-0.6445313 0,-1.3007813 0.082031,-1.8398438 0.1875,-1.1835937 0.9257813,-1.265625 1.1835938,-1.265625 0.328125,0 0.984375,0.1757813 1.171875,1.1601563 0.09375,0.5625 0.09375,1.3125 0.09375,1.9453125 z m 3.1435547,2.7773437 c 0,-0.29296875 -0.234375,-0.5273437 -0.5273438,-0.5273437 -0.28125,0 -0.5273437,0.23437495 -0.5273437,0.5273437 0,0.29296875 0.2460937,0.52734375 0.5273437,0.52734375 0.2929688,0 0.5273438,-0.234375 0.5273438,-0.52734375 z m 5.4052739,-1.5 c 0,-1.265625 -0.878907,-2.2265625 -1.992188,-2.2265625 -0.6679687,0 -1.0429687,0.5039063 -1.2421875,0.984375 v -0.234375 c 0,-2.5195312 1.2421875,-2.8828125 1.7460935,-2.8828125 0.234375,0 0.65625,0.058594 0.878907,0.3984375 -0.152344,0 -0.550782,0 -0.550782,0.4453125 0,0.3164063 0.234375,0.4570313 0.457032,0.4570313 0.164062,0 0.457031,-0.082031 0.457031,-0.46875 0,-0.5976563 -0.433594,-1.078125 -1.265625,-1.078125 -1.277344,0 -2.6132815,1.2890625 -2.6132815,3.4804687 0,2.66015625 1.1484375,3.375 2.0742185,3.375 1.113282,0 2.050782,-0.9375 2.050782,-2.25 z m -0.890625,-0.011719 c 0,0.4804687 0,0.9726562 -0.164063,1.33593745 -0.304687,0.59765625 -0.761719,0.64453125 -0.996094,0.64453125 -0.6210935,0 -0.925781,-0.59765625 -0.9843747,-0.75 C 9.08675,-1.2785625 9.08675,-2.0754375 9.08675,-2.2512187 c 0,-0.7734375 0.3164063,-1.7695313 1.21875,-1.7695313 0.152344,0 0.609375,0 0.925781,0.609375 0.175782,0.375 0.175782,0.8789063 0.175782,1.3710935 z m 0,0"
       style="fill:#000000;fill-opacity:1;fill-rule:nonzero;stroke:none"
       aria-label="0.6"
       transform="matrix(1.3333333,0,0,1.3333333,140.00933,150.236)" />
    <path
       id="path52"
       d="M 105.17026,29.08582 65.78604,5.45558"
       style="fill:none;stroke:#000000;stroke-width:0.3985;stroke-linecap:butt;stroke-linejoin:miter;stroke-miterlimit:10;stroke-dasharray:none;stroke-opacity:1"
       transform="matrix(1.3333333,0,0,-1.3333333,72.832,200.576)" />
    <path
       id="path53"
       d="M -2.07224,2.39104 C -1.69365,0.95639 -0.84999,0.27895 0,0 -0.84999,-0.27895 -1.69365,-0.95639 -2.07224,-2.39104"
       style="fill:none;stroke:#000000;stroke-width:0.3985;stroke-linecap:round;stroke-linejoin:round;stroke-miterlimit:10;stroke-dasharray:none;stroke-opacity:1"
       transform="matrix(-1.1432933,0.68597333,0.68597333,1.1432933,160.31893,193.43857)" />
    <path
       id="path54"
       d="m 4.5455859,-1.6763672 c 0,-0.3515625 -0.1054687,-0.8085937 -0.4804687,-1.21875 -0.1875,-0.2109375 -0.3515625,-0.3164062 -0.984375,-0.7148437 0.7148437,-0.3632813 1.2070312,-0.8789063 1.2070312,-1.5351563 0,-0.9257812 -0.890625,-1.4882812 -1.7929687,-1.4882812 -0.9960938,0 -1.80468751,0.7382812 -1.80468751,1.6640625 0,0.1757812 0.0117188,0.6210937 0.43359371,1.0898437 0.1054688,0.1289063 0.4804688,0.375 0.7265625,0.5390625 -0.5742187,0.2929688 -1.42968746,0.84375 -1.42968746,1.8398438 0,1.05468746 1.00781246,1.72265621 2.06249996,1.72265621 1.125,0 2.0625,-0.83203125 2.0625,-1.89843751 z m -0.703125,-3.46875 c 0,0.5625 -0.3867187,1.0429688 -0.984375,1.3945313 l -1.2304687,-0.796875 c -0.46875,-0.3046875 -0.5039063,-0.6445313 -0.5039063,-0.8085938 0,-0.609375 0.6445313,-1.03125 1.359375,-1.03125 0.7265625,0 1.359375,0.515625 1.359375,1.2421875 z m 0.2109375,3.8320313 c 0,0.73828121 -0.75,1.25390621 -1.5585937,1.25390621 -0.8671875,0 -1.58203126,-0.62109375 -1.58203126,-1.44140621 0,-0.5859375 0.31640626,-1.21875 1.17187496,-1.6875 l 1.21875,0.7734375 c 0.28125,0.1875 0.75,0.4921875 0.75,1.1015625 z m 0,0"
       style="fill:#000000;fill-opacity:1;fill-rule:nonzero;stroke:none"
       aria-label="8"
       transform="matrix(1.3333333,0,0,1.3333333,175.24,172.7)" />
    <path
       id="path55"
       d="M 47.44461,-4.31282 C 6.2947,-23.50122 -49.8038,78.07693 -9.22003,97.74586"
       style="fill:none;stroke:#000000;stroke-width:0.3985;stroke-linecap:butt;stroke-linejoin:miter;stroke-miterlimit:10;stroke-dasharray:none;stroke-opacity:1"
       transform="matrix(1.3333333,0,0,-1.3333333,72.832,200.576)" />
    <path
       id="path56"
       d="M -2.07224,2.39104 C -1.69365,0.95639 -0.84999,0.27895 0,0 -0.84999,-0.27895 -1.69365,-0.95639 -2.07224,-2.39104"
       style="fill:none;stroke:#000000;stroke-width:0.3985;stroke-linecap:round;stroke-linejoin:round;stroke-miterlimit:10;stroke-dasharray:none;stroke-opacity:1"
       transform="matrix(1.2084,-0.56346667,-0.56346667,-1.2084,60.775627,70.133227)" />
    <path
       id="path57"
       d="m 4.1717891,-0.00111719 v -0.3046875 H 3.8553828 c -0.9023437,0 -0.9257812,-0.1171875 -0.9257812,-0.48046875 V -6.3761172 c 0,-0.234375 0,-0.2578125 -0.234375,-0.2578125 -0.609375,0.6328125 -1.4882813,0.6328125 -1.80468754,0.6328125 v 0.3164063 c 0.19921874,0 0.78515624,0 1.30078124,-0.2578125 v 5.15624996 c 0,0.3515625 -0.035156,0.48046875 -0.9257812,0.48046875 H 0.94913281 v 0.3046875 C 1.3006953,-0.03627344 2.1561641,-0.03627344 2.5546016,-0.03627344 c 0.3984375,0 1.265625,0 1.6171875,0.03515625 z m 0,0"
       style="fill:#000000;fill-opacity:1;fill-rule:nonzero;stroke:none"
       aria-label="1"
       transform="matrix(1.3333333,0,0,1.3333333,45.949333,161.84133)" />
  </g>
</svg>
