<?xml version="1.0" encoding="UTF-8" standalone="no"?>
<!-- Created with Inkscape (http://www.inkscape.org/) -->

<svg
   version="1.1"
   id="svg1"
   width="278.09332"
   height="125.37333"
   viewBox="0 0 278.09332 125.37333"
   sodipodi:docname="24-25-1-数据结构-期末-题图1.7.pdf"
   xmlns:inkscape="http://www.inkscape.org/namespaces/inkscape"
   xmlns:sodipodi="http://sodipodi.sourceforge.net/DTD/sodipodi-0.dtd"
   xmlns="http://www.w3.org/2000/svg"
   xmlns:svg="http://www.w3.org/2000/svg">
  <defs
     id="defs1" />
  <sodipodi:namedview
     id="namedview1"
     pagecolor="#ffffff"
     bordercolor="#000000"
     borderopacity="0.25"
     inkscape:showpageshadow="2"
     inkscape:pageopacity="0.0"
     inkscape:pagecheckerboard="0"
     inkscape:deskcolor="#d1d1d1">
    <inkscape:page
       x="0"
       y="0"
       inkscape:label="1"
       id="page1"
       width="278.09332"
       height="125.37333"
       margin="0"
       bleed="0" />
  </sodipodi:namedview>
  <g
     id="g1"
     inkscape:groupmode="layer"
     inkscape:label="1">
    <path
       id="path1"
       d="M -5.64868,-4.4932 V 89.53358 H 202.9209 V -4.4932 Z"
       style="fill:#ffffff;fill-opacity:1;fill-rule:nonzero;stroke:none"
       transform="matrix(1.3333333,0,0,-1.3333333,7.532,119.38133)" />
    <path
       id="path2"
       d="M 0,0 V 14.17339 H 14.17339 V 0 Z M 14.17339,14.17339 V 0 h 14.1734 v 14.17339 z"
       style="fill:none;stroke:#000000;stroke-width:0.3985;stroke-linecap:butt;stroke-linejoin:miter;stroke-miterlimit:10;stroke-dasharray:none;stroke-opacity:1"
       transform="matrix(1.3333333,0,0,-1.3333333,7.532,119.38133)" />
    <path
       id="path3"
       d="m 5.0617578,-3.9831719 v -0.3046875 c -0.234375,0.011719 -0.515625,0.023437 -0.75,0.023437 l -0.8671875,-0.023437 v 0.3046875 c 0.375,0.011719 0.4804688,0.234375 0.4804688,0.4335938 0,0.082031 -0.023437,0.1289062 -0.058594,0.234375 L 2.8469141,-0.77223438 1.7336328,-3.5495781 c -0.058594,-0.140625 -0.058594,-0.1757813 -0.058594,-0.1757813 0,-0.2578125 0.3867187,-0.2578125 0.5625,-0.2578125 v -0.3046875 l -1.078125,0.023437 c -0.26953129,0 -0.66796879,-0.011719 -0.97265629,-0.023437 v 0.3046875 c 0.6328125,0 0.66796875,0.058594 0.796875,0.3632813 l 1.44140629,3.53906247 c 0.058594,0.140625 0.070312,0.1875 0.1992187,0.1875 0.1289063,0 0.1757813,-0.08203125 0.2109375,-0.1875 l 1.3125,-3.23437497 c 0.082031,-0.234375 0.2578125,-0.65625 0.9140628,-0.6679688 z m 4.7460938,1.9570313 c 0,-1.265625 -0.8789063,-2.2265625 -1.9921875,-2.2265625 -0.6679688,0 -1.0429688,0.5039062 -1.2421875,0.984375 v -0.234375 c 0,-2.5195313 1.2421875,-2.8828125 1.7460937,-2.8828125 0.234375,0 0.65625,0.058594 0.8789063,0.3984375 -0.1523438,0 -0.5507813,0 -0.5507813,0.4453125 0,0.3164062 0.234375,0.4570312 0.4570313,0.4570312 0.1640625,0 0.4570312,-0.082031 0.4570312,-0.46875 0,-0.5976562 -0.4335937,-1.078125 -1.265625,-1.078125 -1.2773437,0 -2.6132812,1.2890625 -2.6132812,3.4804688 0,2.66015622 1.1484375,3.37499997 2.0742187,3.37499997 1.1132813,0 2.0507813,-0.9375 2.0507813,-2.24999997 z m -0.890625,-0.011719 c 0,0.4804688 0,0.9726563 -0.1640625,1.33593752 -0.3046875,0.59765625 -0.7617188,0.64453125 -0.9960938,0.64453125 -0.6210937,0 -0.9257812,-0.59765625 -0.984375,-0.75 C 6.5969141,-1.2761406 6.5969141,-2.0730156 6.5969141,-2.2487969 c 0,-0.7734375 0.3164062,-1.7695312 1.21875,-1.7695312 0.1523437,0 0.609375,0 0.9257812,0.609375 0.1757813,0.375 0.1757813,0.8789062 0.1757813,1.3710935 z m 0,0"
       style="fill:#000000;fill-opacity:1;fill-rule:nonzero;stroke:none"
       aria-label="v6"
       transform="matrix(1.3333333,0,0,1.3333333,10.153333,114.20933)" />
    <path
       id="path4"
       d="m 21.2601,7.08669 h 35.035"
       style="fill:none;stroke:#000000;stroke-width:0.3985;stroke-linecap:butt;stroke-linejoin:miter;stroke-miterlimit:10;stroke-dasharray:none;stroke-opacity:1"
       transform="matrix(1.3333333,0,0,-1.3333333,7.532,119.38133)" />
    <path
       id="path5"
       d="M -2.07224,2.39104 C -1.69365,0.95639 -0.84999,0.27895 0,0 -0.84999,-0.27895 -1.69365,-0.95639 -2.07224,-2.39104"
       style="fill:none;stroke:#000000;stroke-width:0.3985;stroke-linecap:round;stroke-linejoin:round;stroke-miterlimit:10;stroke-dasharray:none;stroke-opacity:1"
       transform="matrix(1.3333333,0,0,-1.3333333,82.8578,109.93241)" />
    <path
       id="path6"
       d="m 0,14.17339 v 14.1734 h 14.17339 v -14.1734 z m 14.17339,14.1734 v -14.1734 h 14.1734 v 14.1734 z"
       style="fill:none;stroke:#000000;stroke-width:0.3985;stroke-linecap:butt;stroke-linejoin:miter;stroke-miterlimit:10;stroke-dasharray:none;stroke-opacity:1"
       transform="matrix(1.3333333,0,0,-1.3333333,7.532,119.38133)" />
    <path
       id="path7"
       d="m 5.0617578,-3.984 v -0.3046875 c -0.234375,0.011719 -0.515625,0.023437 -0.75,0.023437 L 3.4445703,-4.2886875 V -3.984 c 0.375,0.011719 0.4804688,0.234375 0.4804688,0.4335937 0,0.082031 -0.023437,0.1289063 -0.058594,0.234375 l -1.019531,2.5429688 -1.1132813,-2.7773438 c -0.058594,-0.140625 -0.058594,-0.1757812 -0.058594,-0.1757812 0,-0.2578125 0.3867187,-0.2578125 0.5625,-0.2578125 v -0.3046875 l -1.078125,0.023437 c -0.26953129,0 -0.66796879,-0.011719 -0.97265629,-0.023437 V -3.984 c 0.6328125,0 0.66796875,0.058594 0.796875,0.3632812 l 1.44140629,3.53906255 c 0.058594,0.140625 0.070312,0.1875 0.1992187,0.1875 0.1289063,0 0.1757813,-0.08203125 0.2109375,-0.1875 l 1.3125,-3.23437505 C 4.229726,-3.5504063 4.4055075,-3.9722813 5.0617578,-3.984 Z m 4.6757813,1.9804687 c 0,-1.1835937 -0.8203125,-2.1796875 -1.8984375,-2.1796875 -0.4804688,0 -0.9023438,0.1640625 -1.265625,0.5039063 v -1.9335938 c 0.1992187,0.058594 0.5273437,0.1289063 0.84375,0.1289063 1.2304687,0 1.9335937,-0.9140625 1.9335937,-1.0429688 0,-0.058594 -0.035156,-0.1054687 -0.1054687,-0.1054687 0,0 -0.035156,0 -0.082031,0.023437 -0.1992187,0.09375 -0.6796875,0.2929687 -1.3476562,0.2929687 -0.3984375,0 -0.8554688,-0.070312 -1.3242188,-0.28125 -0.082031,-0.023437 -0.1289062,-0.023437 -0.1289062,-0.023437 -0.09375,0 -0.09375,0.082031 -0.09375,0.234375 v 2.953125 c 0,0.1757813 0,0.2578125 0.140625,0.2578125 0.070312,0 0.082031,-0.035156 0.1289062,-0.09375 0.1054688,-0.1523437 0.4804688,-0.6914062 1.2773438,-0.6914062 0.5273437,0 0.7734375,0.4570312 0.8554687,0.6328125 0.1523438,0.375 0.1757813,0.7617187 0.1757813,1.2539062 0,0.3515625 0,0.9492188 -0.234375,1.3710938 -0.2460938,0.38671875 -0.609375,0.64453125 -1.0664063,0.64453125 -0.7265625,0 -1.3007812,-0.52734375 -1.4648437,-1.11328125 0.023437,0.011719 0.058594,0.011719 0.1640625,0.011719 0.328125,0 0.5039062,-0.2460937 0.5039062,-0.4804687 0,-0.2460938 -0.1757812,-0.4921875 -0.5039062,-0.4921875 -0.140625,0 -0.4804688,0.070312 -0.4804688,0.5273437 0,0.8554688 0.6796875,1.82812505 1.7929688,1.82812505 1.1601562,0 2.1796875,-0.9609375 2.1796872,-2.22656285 z m 0,0"
       style="fill:#000000;fill-opacity:1;fill-rule:nonzero;stroke:none"
       aria-label="v5"
       transform="matrix(1.3333333,0,0,1.3333333,10.153333,95.312)" />
    <path
       id="path8"
       d="m 21.2601,21.26009 h 35.035"
       style="fill:none;stroke:#000000;stroke-width:0.3985;stroke-linecap:butt;stroke-linejoin:miter;stroke-miterlimit:10;stroke-dasharray:none;stroke-opacity:1"
       transform="matrix(1.3333333,0,0,-1.3333333,7.532,119.38133)" />
    <path
       id="path9"
       d="M -2.07224,2.39104 C -1.69365,0.95639 -0.84999,0.27895 0,0 -0.84999,-0.27895 -1.69365,-0.95639 -2.07224,-2.39104"
       style="fill:none;stroke:#000000;stroke-width:0.3985;stroke-linecap:round;stroke-linejoin:round;stroke-miterlimit:10;stroke-dasharray:none;stroke-opacity:1"
       transform="matrix(1.3333333,0,0,-1.3333333,82.8578,91.034547)" />
    <path
       id="path10"
       d="m 0,28.34679 v 14.1734 h 14.17339 v -14.1734 z m 14.17339,14.1734 v -14.1734 h 14.1734 v 14.1734 z"
       style="fill:none;stroke:#000000;stroke-width:0.3985;stroke-linecap:butt;stroke-linejoin:miter;stroke-miterlimit:10;stroke-dasharray:none;stroke-opacity:1"
       transform="matrix(1.3333333,0,0,-1.3333333,7.532,119.38133)" />
    <path
       id="path11"
       d="m 5.0617578,-3.9854297 v -0.3046875 c -0.234375,0.011719 -0.515625,0.023437 -0.75,0.023437 l -0.8671875,-0.023437 v 0.3046875 c 0.375,0.011719 0.4804688,0.234375 0.4804688,0.4335938 0,0.082031 -0.023437,0.1289062 -0.058594,0.234375 L 2.8469141,-0.77449219 1.7336328,-3.5518359 c -0.058594,-0.140625 -0.058594,-0.1757813 -0.058594,-0.1757813 0,-0.2578125 0.3867187,-0.2578125 0.5625,-0.2578125 v -0.3046875 l -1.078125,0.023437 c -0.26953129,0 -0.66796879,-0.011719 -0.97265629,-0.023437 v 0.3046875 c 0.6328125,0 0.66796875,0.058594 0.796875,0.3632813 l 1.44140629,3.53906246 c 0.058594,0.140625 0.070312,0.1875 0.1992187,0.1875 0.1289063,0 0.1757813,-0.08203125 0.2109375,-0.1875 l 1.3125,-3.23437496 c 0.082031,-0.234375 0.2578125,-0.65625 0.9140628,-0.6679688 z m 4.8867188,2.34375 V -1.9580859 H 8.9523828 v -4.5234375 c 0,-0.1992188 0,-0.2578125 -0.1523437,-0.2578125 -0.09375,0 -0.1171875,0 -0.1992188,0.1171875 l -3.0585937,4.6640625 v 0.3164062 h 2.6484375 v 0.86718751 c 0,0.3515625 -0.023437,0.46875 -0.7617188,0.46875 H 7.2180078 v 0.3046875 c 0.4101563,-0.03515625 0.9375,-0.03515625 1.3476563,-0.03515625 0.421875,0 0.9492187,0 1.359375,0.03515625 v -0.3046875 H 9.7141016 c -0.7382813,0 -0.7617188,-0.1171875 -0.7617188,-0.46875 V -1.6416797 Z M 8.2492578,-1.9580859 H 5.8234766 l 2.4257812,-3.7148438 z m 0,0"
       style="fill:#000000;fill-opacity:1;fill-rule:nonzero;stroke:none"
       aria-label="v4"
       transform="matrix(1.3333333,0,0,1.3333333,10.153333,76.56)" />
    <path
       id="path12"
       d="m 21.2601,35.43347 h 35.035"
       style="fill:none;stroke:#000000;stroke-width:0.3985;stroke-linecap:butt;stroke-linejoin:miter;stroke-miterlimit:10;stroke-dasharray:none;stroke-opacity:1"
       transform="matrix(1.3333333,0,0,-1.3333333,7.532,119.38133)" />
    <path
       id="path13"
       d="M -2.07224,2.39104 C -1.69365,0.95639 -0.84999,0.27895 0,0 -0.84999,-0.27895 -1.69365,-0.95639 -2.07224,-2.39104"
       style="fill:none;stroke:#000000;stroke-width:0.3985;stroke-linecap:round;stroke-linejoin:round;stroke-miterlimit:10;stroke-dasharray:none;stroke-opacity:1"
       transform="matrix(1.3333333,0,0,-1.3333333,82.8578,72.136707)" />
    <path
       id="path14"
       d="m 0,42.52019 v 14.1734 h 14.17339 v -14.1734 z m 14.17339,14.1734 v -14.1734 h 14.1734 v 14.1734 z"
       style="fill:none;stroke:#000000;stroke-width:0.3985;stroke-linecap:butt;stroke-linejoin:miter;stroke-miterlimit:10;stroke-dasharray:none;stroke-opacity:1"
       transform="matrix(1.3333333,0,0,-1.3333333,7.532,119.38133)" />
    <path
       id="path15"
       d="m 5.0617578,-3.9846563 v -0.3046875 c -0.234375,0.011719 -0.515625,0.023437 -0.75,0.023437 l -0.8671875,-0.023437 v 0.3046875 c 0.375,0.011719 0.4804688,0.234375 0.4804688,0.4335938 0,0.082031 -0.023437,0.1289062 -0.058594,0.234375 L 2.8469141,-0.77371875 1.7336328,-3.5510625 c -0.058594,-0.140625 -0.058594,-0.1757813 -0.058594,-0.1757813 0,-0.2578125 0.3867187,-0.2578125 0.5625,-0.2578125 v -0.3046875 l -1.078125,0.023437 c -0.26953129,0 -0.66796879,-0.011719 -0.97265629,-0.023437 v 0.3046875 c 0.6328125,0 0.66796875,0.058594 0.796875,0.3632813 l 1.44140629,3.5390625 c 0.058594,0.140625 0.070312,0.1875 0.1992187,0.1875 0.1289063,0 0.1757813,-0.08203125 0.2109375,-0.1875 l 1.3125,-3.234375 c 0.082031,-0.234375 0.2578125,-0.65625 0.9140628,-0.6679688 z M 9.8078516,-1.6995 c 0,-0.8203125 -0.6210938,-1.59375 -1.6523438,-1.8046875 0.8085938,-0.2695313 1.3945313,-0.9726563 1.3945313,-1.7578125 0,-0.8203125 -0.8789063,-1.3710938 -1.8398438,-1.3710938 -1.0078125,0 -1.7578125,0.5976563 -1.7578125,1.3476563 0,0.3398437 0.2109375,0.5273437 0.5039063,0.5273437 0.3046875,0 0.5039062,-0.2226562 0.5039062,-0.515625 0,-0.4921875 -0.46875,-0.4921875 -0.609375,-0.4921875 C 6.6555078,-6.2580938 7.3117578,-6.387 7.6750391,-6.387 c 0.4101562,0 0.9492187,0.2226562 0.9492187,1.1132812 0,0.1289063 -0.011719,0.703125 -0.2695312,1.1367188 -0.3046875,0.4804687 -0.6445313,0.515625 -0.890625,0.515625 -0.082031,0.011719 -0.3164063,0.035156 -0.3867188,0.035156 -0.082031,0.011719 -0.1523437,0.023437 -0.1523437,0.1171875 0,0.1171875 0.070312,0.1171875 0.234375,0.1171875 h 0.4453125 c 0.8085937,0 1.1835937,0.6679688 1.1835937,1.6523438 0,1.34765625 -0.6914062,1.640625 -1.125,1.640625 -0.4335937,0 -1.171875,-0.17578125 -1.5234375,-0.76171875 0.3515625,0.0585938 0.65625,-0.1640625 0.65625,-0.53906255 0,-0.3632812 -0.2695312,-0.5625 -0.5625,-0.5625 -0.234375,0 -0.5507812,0.140625 -0.5507812,0.5742188 0,0.9140625 0.9257812,1.5703125 2.0039062,1.5703125 1.21875,0 2.1210938,-0.9140625 2.1210938,-1.9218748 z m 0,0"
       style="fill:#000000;fill-opacity:1;fill-rule:nonzero;stroke:none"
       aria-label="v3"
       transform="matrix(1.3333333,0,0,1.3333333,10.153333,57.516)" />
    <path
       id="path16"
       d="m 21.2601,49.60687 h 35.035"
       style="fill:none;stroke:#000000;stroke-width:0.3985;stroke-linecap:butt;stroke-linejoin:miter;stroke-miterlimit:10;stroke-dasharray:none;stroke-opacity:1"
       transform="matrix(1.3333333,0,0,-1.3333333,7.532,119.38133)" />
    <path
       id="path17"
       d="M -2.07224,2.39104 C -1.69365,0.95639 -0.84999,0.27895 0,0 -0.84999,-0.27895 -1.69365,-0.95639 -2.07224,-2.39104"
       style="fill:none;stroke:#000000;stroke-width:0.3985;stroke-linecap:round;stroke-linejoin:round;stroke-miterlimit:10;stroke-dasharray:none;stroke-opacity:1"
       transform="matrix(1.3333333,0,0,-1.3333333,82.8578,53.23884)" />
    <path
       id="path18"
       d="M 0,56.69359 V 70.86697 H 14.17339 V 56.69359 Z M 14.17339,70.86697 V 56.69359 h 14.1734 v 14.17338 z"
       style="fill:none;stroke:#000000;stroke-width:0.3985;stroke-linecap:butt;stroke-linejoin:miter;stroke-miterlimit:10;stroke-dasharray:none;stroke-opacity:1"
       transform="matrix(1.3333333,0,0,-1.3333333,7.532,119.38133)" />
    <path
       id="path19"
       d="m 5.0617578,-3.9848203 v -0.3046875 c -0.234375,0.011719 -0.515625,0.023437 -0.75,0.023437 l -0.8671875,-0.023437 v 0.3046875 c 0.375,0.011719 0.4804688,0.234375 0.4804688,0.4335937 0,0.082031 -0.023437,0.1289063 -0.058594,0.234375 L 2.8469141,-0.77388281 1.7336328,-3.5512266 c -0.058594,-0.140625 -0.058594,-0.1757812 -0.058594,-0.1757812 0,-0.2578125 0.3867187,-0.2578125 0.5625,-0.2578125 v -0.3046875 l -1.078125,0.023437 c -0.26953129,0 -0.66796879,-0.011719 -0.97265629,-0.023437 v 0.3046875 c 0.6328125,0 0.66796875,0.058594 0.796875,0.3632812 l 1.44140629,3.53906254 c 0.058594,0.140625 0.070312,0.1875 0.1992187,0.1875 0.1289063,0 0.1757813,-0.08203125 0.2109375,-0.1875 l 1.3125,-3.23437504 c 0.082031,-0.234375 0.2578125,-0.65625 0.9140628,-0.6679687 z m 4.6757813,2.25 H 9.4797266 c -0.046875,0.3046875 -0.1171875,0.73828124 -0.2109375,0.89062499 -0.070312,0.0820313 -0.7265625,0.0820313 -0.9492188,0.0820313 H 6.5266016 L 7.5812891,-1.7934141 c 1.5585937,-1.3710937 2.15625,-1.9101562 2.15625,-2.90625 0,-1.1367187 -0.9023438,-1.9335937 -2.1210938,-1.9335937 -1.125,0 -1.8515625,0.9140625 -1.8515625,1.8046875 0,0.5507812 0.4921875,0.5507812 0.5273438,0.5507812 0.1640625,0 0.515625,-0.1171875 0.515625,-0.5273437 0,-0.2578125 -0.1875,-0.515625 -0.5273438,-0.515625 -0.082031,0 -0.1054687,0 -0.1289062,0.011719 C 6.3742578,-5.95357 6.9133203,-6.32857 7.4875391,-6.32857 c 0.9140625,0 1.3359375,0.8085937 1.3359375,1.6289062 0,0.796875 -0.4921875,1.5820313 -1.0429688,2.203125 L 5.8703516,-0.36372656 C 5.7648828,-0.25825781 5.7648828,-0.23482031 5.7648828,-4.453125e-4 h 3.6914063 z m 0,0"
       style="fill:#000000;fill-opacity:1;fill-rule:nonzero;stroke:none"
       aria-label="v2"
       transform="matrix(1.3333333,0,0,1.3333333,10.153333,38.692)" />
    <path
       id="path20"
       d="m 21.2601,63.78027 h 35.035"
       style="fill:none;stroke:#000000;stroke-width:0.3985;stroke-linecap:butt;stroke-linejoin:miter;stroke-miterlimit:10;stroke-dasharray:none;stroke-opacity:1"
       transform="matrix(1.3333333,0,0,-1.3333333,7.532,119.38133)" />
    <path
       id="path21"
       d="M -2.07224,2.39104 C -1.69365,0.95639 -0.84999,0.27895 0,0 -0.84999,-0.27895 -1.69365,-0.95639 -2.07224,-2.39104"
       style="fill:none;stroke:#000000;stroke-width:0.3985;stroke-linecap:round;stroke-linejoin:round;stroke-miterlimit:10;stroke-dasharray:none;stroke-opacity:1"
       transform="matrix(1.3333333,0,0,-1.3333333,82.8578,34.340973)" />
    <path
       id="path22"
       d="m 0,70.86697 v 14.1734 h 14.17339 v -14.1734 z m 14.17339,14.1734 v -14.1734 h 14.1734 v 14.1734 z"
       style="fill:none;stroke:#000000;stroke-width:0.3985;stroke-linecap:butt;stroke-linejoin:miter;stroke-miterlimit:10;stroke-dasharray:none;stroke-opacity:1"
       transform="matrix(1.3333333,0,0,-1.3333333,7.532,119.38133)" />
    <path
       id="path23"
       d="m 5.0617578,-3.9846484 v -0.3046875 c -0.234375,0.011719 -0.515625,0.023437 -0.75,0.023437 l -0.8671875,-0.023437 v 0.3046875 c 0.375,0.011719 0.4804688,0.234375 0.4804688,0.4335937 0,0.082031 -0.023437,0.1289063 -0.058594,0.234375 L 2.8469141,-0.77371094 1.7336328,-3.5510547 c -0.058594,-0.140625 -0.058594,-0.1757812 -0.058594,-0.1757812 0,-0.2578125 0.3867187,-0.2578125 0.5625,-0.2578125 v -0.3046875 l -1.078125,0.023437 c -0.26953129,0 -0.66796879,-0.011719 -0.97265629,-0.023437 v 0.3046875 c 0.6328125,0 0.66796875,0.058594 0.796875,0.3632812 l 1.44140629,3.53906251 c 0.058594,0.140625 0.070312,0.1875 0.1992187,0.1875 0.1289063,0 0.1757813,-0.08203125 0.2109375,-0.1875 l 1.3125,-3.23437501 c 0.082031,-0.234375 0.2578125,-0.65625 0.9140628,-0.6679687 z M 9.4328516,-2.734375e-4 V -0.30496094 H 9.1164453 c -0.9023437,0 -0.9257812,-0.1171875 -0.9257812,-0.48046875 V -6.3752734 c 0,-0.234375 0,-0.2578125 -0.234375,-0.2578125 -0.609375,0.6328125 -1.4882813,0.6328125 -1.8046875,0.6328125 v 0.3164062 c 0.1992187,0 0.7851562,0 1.3007812,-0.2578125 v 5.15625001 c 0,0.3515625 -0.035156,0.48046875 -0.9257812,0.48046875 H 6.2101953 V -2.734375e-4 C 6.5617578,-0.03542969 7.4172266,-0.03542969 7.8156641,-0.03542969 c 0.3984375,0 1.265625,0 1.6171875,0.0351562525 z m 0,0"
       style="fill:#000000;fill-opacity:1;fill-rule:nonzero;stroke:none"
       aria-label="v1"
       transform="matrix(1.3333333,0,0,1.3333333,10.153333,19.793333)" />
    <path
       id="path24"
       d="m 21.2601,77.95367 h 35.035"
       style="fill:none;stroke:#000000;stroke-width:0.3985;stroke-linecap:butt;stroke-linejoin:miter;stroke-miterlimit:10;stroke-dasharray:none;stroke-opacity:1"
       transform="matrix(1.3333333,0,0,-1.3333333,7.532,119.38133)" />
    <path
       id="path25"
       d="M -2.07224,2.39104 C -1.69365,0.95639 -0.84999,0.27895 0,0 -0.84999,-0.27895 -1.69365,-0.95639 -2.07224,-2.39104"
       style="fill:none;stroke:#000000;stroke-width:0.3985;stroke-linecap:round;stroke-linejoin:round;stroke-miterlimit:10;stroke-dasharray:none;stroke-opacity:1"
       transform="matrix(1.3333333,0,0,-1.3333333,82.8578,15.443107)" />
    <path
       id="path26"
       d="M 56.69363,0 V 14.17339 H 70.86702 V 0 Z M 70.86702,14.17339 V 0 h 14.1734 v 14.17339 z"
       style="fill:none;stroke:#000000;stroke-width:0.3985;stroke-linecap:butt;stroke-linejoin:miter;stroke-miterlimit:10;stroke-dasharray:none;stroke-opacity:1"
       transform="matrix(1.3333333,0,0,-1.3333333,7.532,119.38133)" />
    <path
       id="path27"
       d="m 4.5483047,-1.6980156 c 0,-0.8203125 -0.6210938,-1.59375 -1.6523438,-1.8046875 0.8085938,-0.2695313 1.3945313,-0.9726563 1.3945313,-1.7578125 0,-0.8203125 -0.8789063,-1.3710938 -1.8398438,-1.3710938 -1.0078125,0 -1.75781246,0.5976563 -1.75781246,1.3476563 0,0.3398437 0.2109375,0.5273437 0.50390626,0.5273437 0.3046875,0 0.5039062,-0.2226562 0.5039062,-0.515625 0,-0.4921875 -0.46875,-0.4921875 -0.609375,-0.4921875 0.3046875,-0.4921875 0.9609375,-0.6210937 1.3242188,-0.6210937 0.4101562,0 0.9492187,0.2226562 0.9492187,1.1132812 0,0.1289063 -0.011719,0.703125 -0.2695312,1.1367188 -0.3046875,0.4804687 -0.6445313,0.515625 -0.890625,0.515625 -0.082031,0.011719 -0.3164063,0.035156 -0.3867188,0.035156 -0.082031,0.011719 -0.1523437,0.023437 -0.1523437,0.1171875 0,0.1171875 0.070312,0.1171875 0.234375,0.1171875 h 0.4453125 c 0.8085937,0 1.1835937,0.6679688 1.1835937,1.6523438 0,1.34765622 -0.6914062,1.64062497 -1.125,1.64062497 -0.4335937,0 -1.171875,-0.17578125 -1.52343746,-0.76171875 0.35156246,0.0585938 0.65624996,-0.1640625 0.65624996,-0.53906252 0,-0.3632812 -0.2695312,-0.5625 -0.56249996,-0.5625 -0.234375,0 -0.55078125,0.140625 -0.55078125,0.5742188 0,0.91406247 0.92578121,1.57031247 2.00390621,1.57031247 1.21875,0 2.1210938,-0.9140625 2.1210938,-1.92187477 z m 0,0"
       style="fill:#000000;fill-opacity:1;fill-rule:nonzero;stroke:none"
       aria-label="3"
       transform="matrix(1.3333333,0,0,1.3333333,89.252,114.20933)" />
    <path
       id="path28"
       d="m 77.95374,7.08669 h 35.035"
       style="fill:none;stroke:#000000;stroke-width:0.3985;stroke-linecap:butt;stroke-linejoin:miter;stroke-miterlimit:10;stroke-dasharray:none;stroke-opacity:1"
       transform="matrix(1.3333333,0,0,-1.3333333,7.532,119.38133)" />
    <path
       id="path29"
       d="M -2.07224,2.39104 C -1.69365,0.95639 -0.84999,0.27895 0,0 -0.84999,-0.27895 -1.69365,-0.95639 -2.07224,-2.39104"
       style="fill:none;stroke:#000000;stroke-width:0.3985;stroke-linecap:round;stroke-linejoin:round;stroke-miterlimit:10;stroke-dasharray:none;stroke-opacity:1"
       transform="matrix(1.3333333,0,0,-1.3333333,158.44932,109.93241)" />
    <path
       id="path30"
       d="m 56.69363,14.17339 v 14.1734 h 14.17339 v -14.1734 z m 14.17339,14.1734 v -14.1734 h 14.1734 v 14.1734 z"
       style="fill:none;stroke:#000000;stroke-width:0.3985;stroke-linecap:butt;stroke-linejoin:miter;stroke-miterlimit:10;stroke-dasharray:none;stroke-opacity:1"
       transform="matrix(1.3333333,0,0,-1.3333333,7.532,119.38133)" />
    <path
       id="path31"
       d="M 4.6889297,-1.6401875 V -1.9565938 H 3.6928359 v -4.5234375 c 0,-0.1992187 0,-0.2578125 -0.1523437,-0.2578125 -0.09375,0 -0.1171875,0 -0.1992188,0.1171875 l -3.05859371,4.6640625 v 0.3164063 H 2.9311172 V -0.773 c 0,0.3515625 -0.023437,0.46875 -0.7617188,0.46875 H 1.9584609 V 4.375e-4 c 0.4101563,-0.03515625 0.9375,-0.03515625 1.3476563,-0.03515625 0.421875,0 0.9492187,0 1.359375,0.03515625 V -0.30425 H 4.4545547 c -0.7382813,0 -0.7617188,-0.1171875 -0.7617188,-0.46875 V -1.6401875 Z M 2.9897109,-1.9565938 H 0.56392969 L 2.9897109,-5.6714375 Z m 0,0"
       style="fill:#000000;fill-opacity:1;fill-rule:nonzero;stroke:none"
       aria-label="4"
       transform="matrix(1.3333333,0,0,1.3333333,89.252,95.530667)" />
    <path
       id="path32"
       d="m 77.95374,21.26009 h 35.035"
       style="fill:none;stroke:#000000;stroke-width:0.3985;stroke-linecap:butt;stroke-linejoin:miter;stroke-miterlimit:10;stroke-dasharray:none;stroke-opacity:1"
       transform="matrix(1.3333333,0,0,-1.3333333,7.532,119.38133)" />
    <path
       id="path33"
       d="M -2.07224,2.39104 C -1.69365,0.95639 -0.84999,0.27895 0,0 -0.84999,-0.27895 -1.69365,-0.95639 -2.07224,-2.39104"
       style="fill:none;stroke:#000000;stroke-width:0.3985;stroke-linecap:round;stroke-linejoin:round;stroke-miterlimit:10;stroke-dasharray:none;stroke-opacity:1"
       transform="matrix(1.3333333,0,0,-1.3333333,158.44932,91.034547)" />
    <path
       id="path34"
       d="m 56.69363,28.34679 v 14.1734 h 14.17339 v -14.1734 z m 14.17339,14.1734 v -14.1734 h 14.1734 v 14.1734 z"
       style="fill:none;stroke:#000000;stroke-width:0.3985;stroke-linecap:butt;stroke-linejoin:miter;stroke-miterlimit:10;stroke-dasharray:none;stroke-opacity:1"
       transform="matrix(1.3333333,0,0,-1.3333333,7.532,119.38133)" />
    <path
       id="path35"
       d="M 4.4779922,-1.7354297 H 4.2201797 c -0.046875,0.3046875 -0.1171875,0.73828126 -0.2109375,0.89062501 -0.070312,0.0820313 -0.7265625,0.0820313 -0.9492188,0.0820313 H 1.2670547 L 2.3217422,-1.7940234 c 1.5585937,-1.3710938 2.15625,-1.9101563 2.15625,-2.90625 0,-1.1367188 -0.9023438,-1.9335938 -2.1210938,-1.9335938 -1.125,0 -1.85156246,0.9140625 -1.85156246,1.8046875 0,0.5507813 0.4921875,0.5507813 0.52734376,0.5507813 0.1640625,0 0.515625,-0.1171875 0.515625,-0.5273438 0,-0.2578125 -0.1875,-0.515625 -0.5273438,-0.515625 -0.0820312,0 -0.10546871,0 -0.12890621,0.011719 0.22265621,-0.6445313 0.76171871,-1.0195313 1.33593751,-1.0195313 0.9140625,0 1.3359375,0.8085938 1.3359375,1.6289063 0,0.796875 -0.4921875,1.5820312 -1.0429688,2.203125 L 0.61080469,-0.36433594 C 0.50533594,-0.25886719 0.50533594,-0.23542969 0.50533594,-0.00105469 H 4.1967422 Z m 0,0"
       style="fill:#000000;fill-opacity:1;fill-rule:nonzero;stroke:none"
       aria-label="2"
       transform="matrix(1.3333333,0,0,1.3333333,89.252,76.56)" />
    <path
       id="path36"
       d="m 3.5510078,-5.7410938 c -0.082031,-0.1757812 -0.140625,-0.2109375 -0.234375,-0.2109375 -0.1289062,0 -0.1640625,0.070312 -0.2226562,0.2109375 l -2.47265629,5.5664063 c -0.0585938,0.12890625 -0.0703125,0.140625 -0.0703125,0.19921875 0,0.10546875 0.0820313,0.19921875 0.19921875,0.19921875 0.0703125,0 0.15234375,-0.0234375 0.22265625,-0.2109375 l 2.34374999,-5.2851563 2.34375,5.2851563 c 0.082031,0.2109375 0.1875,0.2109375 0.2226563,0.2109375 0.1171875,0 0.1992187,-0.09375 0.1992187,-0.19921875 0,-0.0234375 0,-0.046875 -0.058594,-0.1640625 z m 0,0"
       style="fill:#000000;fill-opacity:1;fill-rule:nonzero;stroke:none"
       aria-label="∧"
       transform="matrix(1.3333333,0,0,1.3333333,107.04267,75.826667)" />
    <path
       id="path37"
       d="m 56.69363,42.52019 v 14.1734 h 14.17339 v -14.1734 z m 14.17339,14.1734 v -14.1734 h 14.1734 v 14.1734 z"
       style="fill:none;stroke:#000000;stroke-width:0.3985;stroke-linecap:butt;stroke-linejoin:miter;stroke-miterlimit:10;stroke-dasharray:none;stroke-opacity:1"
       transform="matrix(1.3333333,0,0,-1.3333333,7.532,119.38133)" />
    <path
       id="path38"
       d="M 4.6889297,-1.6418438 V -1.95825 H 3.6928359 v -4.5234375 c 0,-0.1992188 0,-0.2578125 -0.1523437,-0.2578125 -0.09375,0 -0.1171875,0 -0.1992188,0.1171875 L 0.28267969,-1.95825 v 0.3164062 H 2.9311172 v 0.86718755 c 0,0.3515625 -0.023437,0.46875 -0.7617188,0.46875 H 1.9584609 v 0.3046875 C 2.3686172,-0.036375 2.8959609,-0.036375 3.3061172,-0.036375 c 0.421875,0 0.9492187,0 1.359375,0.03515625 v -0.3046875 H 4.4545547 c -0.7382813,0 -0.7617188,-0.1171875 -0.7617188,-0.46875 V -1.6418438 Z M 2.9897109,-1.95825 H 0.56392969 L 2.9897109,-5.6730938 Z m 0,0"
       style="fill:#000000;fill-opacity:1;fill-rule:nonzero;stroke:none"
       aria-label="4"
       transform="matrix(1.3333333,0,0,1.3333333,89.252,57.736)" />
    <path
       id="path39"
       d="m 3.5510078,-5.7419219 c -0.082031,-0.1757812 -0.140625,-0.2109375 -0.234375,-0.2109375 -0.1289062,0 -0.1640625,0.070312 -0.2226562,0.2109375 l -2.47265629,5.56640627 c -0.0585938,0.12890625 -0.0703125,0.140625 -0.0703125,0.19921875 0,0.10546875 0.0820313,0.19921875 0.19921875,0.19921875 0.0703125,0 0.15234375,-0.0234375 0.22265625,-0.2109375 l 2.34374999,-5.28515627 2.34375,5.28515627 c 0.082031,0.2109375 0.1875,0.2109375 0.2226563,0.2109375 0.1171875,0 0.1992187,-0.09375 0.1992187,-0.19921875 0,-0.023437495 0,-0.046875 -0.058594,-0.1640625 z m 0,0"
       style="fill:#000000;fill-opacity:1;fill-rule:nonzero;stroke:none"
       aria-label="∧"
       transform="matrix(1.3333333,0,0,1.3333333,107.04267,56.929333)" />
    <path
       id="path40"
       d="M 56.69363,56.69359 V 70.86697 H 70.86702 V 56.69359 Z M 70.86702,70.86697 V 56.69359 h 14.1734 v 14.17338 z"
       style="fill:none;stroke:#000000;stroke-width:0.3985;stroke-linecap:butt;stroke-linejoin:miter;stroke-miterlimit:10;stroke-dasharray:none;stroke-opacity:1"
       transform="matrix(1.3333333,0,0,-1.3333333,7.532,119.38133)" />
    <path
       id="path41"
       d="m 4.5483047,-1.7003281 c 0,-0.8203125 -0.6210938,-1.59375 -1.6523438,-1.8046875 0.8085938,-0.2695313 1.3945313,-0.9726563 1.3945313,-1.7578125 0,-0.8203125 -0.8789063,-1.3710938 -1.8398438,-1.3710938 -1.0078125,0 -1.75781246,0.5976563 -1.75781246,1.3476563 0,0.3398437 0.2109375,0.5273437 0.50390626,0.5273437 0.3046875,0 0.5039062,-0.2226562 0.5039062,-0.515625 0,-0.4921875 -0.46875,-0.4921875 -0.609375,-0.4921875 0.3046875,-0.4921875 0.9609375,-0.6210937 1.3242188,-0.6210937 0.4101562,0 0.9492187,0.2226562 0.9492187,1.1132812 0,0.1289063 -0.011719,0.703125 -0.2695312,1.1367188 -0.3046875,0.4804687 -0.6445313,0.515625 -0.890625,0.515625 -0.082031,0.011719 -0.3164063,0.035156 -0.3867188,0.035156 -0.082031,0.011719 -0.1523437,0.023437 -0.1523437,0.1171875 0,0.1171875 0.070312,0.1171875 0.234375,0.1171875 h 0.4453125 c 0.8085937,0 1.1835937,0.6679688 1.1835937,1.6523438 0,1.34765622 -0.6914062,1.64062497 -1.125,1.64062497 -0.4335937,0 -1.171875,-0.17578125 -1.52343746,-0.76171875 0.35156246,0.0585938 0.65624996,-0.1640625 0.65624996,-0.53906252 0,-0.3632812 -0.2695312,-0.5625 -0.56249996,-0.5625 -0.234375,0 -0.55078125,0.140625 -0.55078125,0.5742188 0,0.91406247 0.92578121,1.57031247 2.00390621,1.57031247 1.21875,0 2.1210938,-0.9140625 2.1210938,-1.92187477 z m 0,0"
       style="fill:#000000;fill-opacity:1;fill-rule:nonzero;stroke:none"
       aria-label="3"
       transform="matrix(1.3333333,0,0,1.3333333,89.252,38.618667)" />
    <path
       id="path42"
       d="m 77.95374,63.78027 h 35.035"
       style="fill:none;stroke:#000000;stroke-width:0.3985;stroke-linecap:butt;stroke-linejoin:miter;stroke-miterlimit:10;stroke-dasharray:none;stroke-opacity:1"
       transform="matrix(1.3333333,0,0,-1.3333333,7.532,119.38133)" />
    <path
       id="path43"
       d="M -2.07224,2.39104 C -1.69365,0.95639 -0.84999,0.27895 0,0 -0.84999,-0.27895 -1.69365,-0.95639 -2.07224,-2.39104"
       style="fill:none;stroke:#000000;stroke-width:0.3985;stroke-linecap:round;stroke-linejoin:round;stroke-miterlimit:10;stroke-dasharray:none;stroke-opacity:1"
       transform="matrix(1.3333333,0,0,-1.3333333,158.44932,34.340973)" />
    <path
       id="path44"
       d="m 56.69363,70.86697 v 14.1734 h 14.17339 v -14.1734 z m 14.17339,14.1734 v -14.1734 h 14.1734 v 14.1734 z"
       style="fill:none;stroke:#000000;stroke-width:0.3985;stroke-linecap:butt;stroke-linejoin:miter;stroke-miterlimit:10;stroke-dasharray:none;stroke-opacity:1"
       transform="matrix(1.3333333,0,0,-1.3333333,7.532,119.38133)" />
    <path
       id="path45"
       d="M 4.4779922,-1.7339844 H 4.2201797 c -0.046875,0.3046875 -0.1171875,0.73828127 -0.2109375,0.89062502 -0.070312,0.0820313 -0.7265625,0.0820313 -0.9492188,0.0820313 H 1.2670547 L 2.3217422,-1.7925781 c 1.5585937,-1.3710938 2.15625,-1.9101563 2.15625,-2.90625 0,-1.1367188 -0.9023438,-1.9335938 -2.1210938,-1.9335938 -1.125,0 -1.85156246,0.9140625 -1.85156246,1.8046875 0,0.5507813 0.4921875,0.5507813 0.52734376,0.5507813 0.1640625,0 0.515625,-0.1171875 0.515625,-0.5273438 0,-0.2578125 -0.1875,-0.515625 -0.5273438,-0.515625 -0.0820312,0 -0.10546871,0 -0.12890621,0.011719 0.22265621,-0.6445313 0.76171871,-1.0195313 1.33593751,-1.0195313 0.9140625,0 1.3359375,0.8085938 1.3359375,1.6289063 0,0.796875 -0.4921875,1.5820312 -1.0429688,2.203125 L 0.61080469,-0.36289063 C 0.50533594,-0.25742188 0.50533594,-0.23398438 0.50533594,3.90625e-4 H 4.1967422 Z m 0,0"
       style="fill:#000000;fill-opacity:1;fill-rule:nonzero;stroke:none"
       aria-label="2"
       transform="matrix(1.3333333,0,0,1.3333333,89.252,19.866667)" />
    <path
       id="path46"
       d="m 77.95374,77.95367 h 35.035"
       style="fill:none;stroke:#000000;stroke-width:0.3985;stroke-linecap:butt;stroke-linejoin:miter;stroke-miterlimit:10;stroke-dasharray:none;stroke-opacity:1"
       transform="matrix(1.3333333,0,0,-1.3333333,7.532,119.38133)" />
    <path
       id="path47"
       d="M -2.07224,2.39104 C -1.69365,0.95639 -0.84999,0.27895 0,0 -0.84999,-0.27895 -1.69365,-0.95639 -2.07224,-2.39104"
       style="fill:none;stroke:#000000;stroke-width:0.3985;stroke-linecap:round;stroke-linejoin:round;stroke-miterlimit:10;stroke-dasharray:none;stroke-opacity:1"
       transform="matrix(1.3333333,0,0,-1.3333333,158.44932,15.443107)" />
    <path
       id="path48"
       d="m 113.38727,0 v 14.17339 h 14.17338 V 0 Z m 14.17338,14.17339 V 0 h 14.1734 v 14.17339 z"
       style="fill:none;stroke:#000000;stroke-width:0.3985;stroke-linecap:butt;stroke-linejoin:miter;stroke-miterlimit:10;stroke-dasharray:none;stroke-opacity:1"
       transform="matrix(1.3333333,0,0,-1.3333333,7.532,119.38133)" />
    <path
       id="path49"
       d="M 4.6883125,-1.6403594 V -1.9567656 H 3.6922187 v -4.5234375 c 0,-0.1992188 0,-0.2578125 -0.1523437,-0.2578125 -0.09375,0 -0.1171875,0 -0.1992188,0.1171875 l -3.0585937,4.6640625 v 0.3164062 H 2.9305 v 0.86718752 c 0,0.3515625 -0.023437,0.46875 -0.7617188,0.46875 H 1.9578437 V 2.65625e-4 C 2.368,-0.03489063 2.8953437,-0.03489063 3.3055,-0.03489063 c 0.421875,0 0.9492187,0 1.359375,0.035156255 V -0.30442188 H 4.4539375 c -0.7382813,0 -0.7617188,-0.1171875 -0.7617188,-0.46875 V -1.6403594 Z M 2.9890937,-1.9567656 H 0.5633125 l 2.4257812,-3.7148438 z m 0,0"
       style="fill:#000000;fill-opacity:1;fill-rule:nonzero;stroke:none"
       aria-label="4"
       transform="matrix(1.3333333,0,0,1.3333333,164.84267,114.42933)" />
    <path
       id="path50"
       d="m 3.5503906,-5.7433672 c -0.082031,-0.1757812 -0.140625,-0.2109375 -0.234375,-0.2109375 -0.1289062,0 -0.1640625,0.070312 -0.2226562,0.2109375 l -2.47265628,5.56640626 c -0.0585938,0.12890625 -0.0703125,0.140625 -0.0703125,0.19921875 0,0.10546875 0.0820313,0.19921875 0.19921875,0.19921875 0.0703125,0 0.15234375,-0.0234375 0.22265625,-0.2109375 l 2.34374998,-5.28515626 2.34375,5.28515626 c 0.082031,0.2109375 0.1875,0.2109375 0.2226563,0.2109375 0.1171875,0 0.1992187,-0.09375 0.1992187,-0.19921875 0,-0.0234375 0,-0.046875 -0.058594,-0.1640625 z m 0,0"
       style="fill:#000000;fill-opacity:1;fill-rule:nonzero;stroke:none"
       aria-label="∧"
       transform="matrix(1.3333333,0,0,1.3333333,182.63333,113.62267)" />
    <path
       id="path51"
       d="m 113.38727,14.17339 v 14.1734 h 14.17338 v -14.1734 z m 14.17338,14.1734 v -14.1734 h 14.1734 v 14.1734 z"
       style="fill:none;stroke:#000000;stroke-width:0.3985;stroke-linecap:butt;stroke-linejoin:miter;stroke-miterlimit:10;stroke-dasharray:none;stroke-opacity:1"
       transform="matrix(1.3333333,0,0,-1.3333333,7.532,119.38133)" />
    <path
       id="path52"
       d="m 4.5476875,-2.0269688 c 0,-1.265625 -0.8789063,-2.2265625 -1.9921875,-2.2265625 -0.6679688,0 -1.0429688,0.5039063 -1.2421875,0.984375 v -0.234375 c 0,-2.5195312 1.2421875,-2.8828125 1.7460937,-2.8828125 0.234375,0 0.65625,0.058594 0.8789063,0.3984375 -0.1523438,0 -0.5507813,0 -0.5507813,0.4453125 0,0.3164063 0.234375,0.4570313 0.4570313,0.4570313 0.1640625,0 0.4570312,-0.082031 0.4570312,-0.46875 0,-0.5976563 -0.4335937,-1.078125 -1.265625,-1.078125 -1.2773437,0 -2.6132812,1.2890625 -2.6132812,3.4804687 0,2.6601563 1.1484375,3.37500005 2.0742187,3.37500005 1.1132813,0 2.0507813,-0.9375 2.0507813,-2.25000005 z m -0.890625,-0.011719 c 0,0.4804687 0,0.9726562 -0.1640625,1.3359375 -0.3046875,0.59765625 -0.7617188,0.64453125 -0.9960938,0.64453125 -0.6210937,0 -0.9257812,-0.59765625 -0.984375,-0.75 C 1.33675,-1.2769688 1.33675,-2.0738438 1.33675,-2.249625 c 0,-0.7734375 0.3164062,-1.7695313 1.21875,-1.7695313 0.1523437,0 0.609375,0 0.9257812,0.609375 0.1757813,0.375 0.1757813,0.8789063 0.1757813,1.3710935 z m 0,0"
       style="fill:#000000;fill-opacity:1;fill-rule:nonzero;stroke:none"
       aria-label="6"
       transform="matrix(1.3333333,0,0,1.3333333,164.84267,95.312)" />
    <path
       id="path53"
       d="m 3.5503906,-5.7431953 c -0.082031,-0.1757813 -0.140625,-0.2109375 -0.234375,-0.2109375 -0.1289062,0 -0.1640625,0.070312 -0.2226562,0.2109375 l -2.47265628,5.56640624 c -0.0585938,0.12890625 -0.0703125,0.140625 -0.0703125,0.19921875 0,0.10546875 0.0820313,0.19921875 0.19921875,0.19921875 0.0703125,0 0.15234375,-0.0234375 0.22265625,-0.2109375 l 2.34374998,-5.28515624 2.34375,5.28515624 c 0.082031,0.2109375 0.1875,0.2109375 0.2226563,0.2109375 0.1171875,0 0.1992187,-0.09375 0.1992187,-0.19921875 0,-0.0234375 0,-0.046875 -0.058594,-0.1640625 z m 0,0"
       style="fill:#000000;fill-opacity:1;fill-rule:nonzero;stroke:none"
       aria-label="∧"
       transform="matrix(1.3333333,0,0,1.3333333,182.63333,94.724)" />
    <path
       id="path54"
       d="m 113.38727,56.69359 v 14.17338 h 14.17338 V 56.69359 Z m 14.17338,14.17338 V 56.69359 h 14.1734 v 14.17338 z"
       style="fill:none;stroke:#000000;stroke-width:0.3985;stroke-linecap:butt;stroke-linejoin:miter;stroke-miterlimit:10;stroke-dasharray:none;stroke-opacity:1"
       transform="matrix(1.3333333,0,0,-1.3333333,7.532,119.38133)" />
    <path
       id="path55"
       d="m 4.5476875,-2.0284531 c 0,-1.265625 -0.8789063,-2.2265625 -1.9921875,-2.2265625 -0.6679688,0 -1.0429688,0.5039062 -1.2421875,0.984375 v -0.234375 c 0,-2.5195313 1.2421875,-2.8828125 1.7460937,-2.8828125 0.234375,0 0.65625,0.058594 0.8789063,0.3984375 -0.1523438,0 -0.5507813,0 -0.5507813,0.4453125 0,0.3164062 0.234375,0.4570312 0.4570313,0.4570312 0.1640625,0 0.4570312,-0.082031 0.4570312,-0.46875 0,-0.5976562 -0.4335937,-1.078125 -1.265625,-1.078125 -1.2773437,0 -2.6132812,1.2890625 -2.6132812,3.4804688 0,2.66015622 1.1484375,3.37499997 2.0742187,3.37499997 1.1132813,0 2.0507813,-0.9375 2.0507813,-2.24999997 z m -0.890625,-0.011719 c 0,0.4804688 0,0.9726563 -0.1640625,1.33593752 -0.3046875,0.59765625 -0.7617188,0.64453125 -0.9960938,0.64453125 -0.6210937,0 -0.9257812,-0.59765625 -0.984375,-0.75 C 1.33675,-1.2784531 1.33675,-2.0753281 1.33675,-2.2511094 c 0,-0.7734375 0.3164062,-1.7695312 1.21875,-1.7695312 0.1523437,0 0.609375,0 0.9257812,0.609375 0.1757813,0.375 0.1757813,0.8789062 0.1757813,1.3710935 z m 0,0"
       style="fill:#000000;fill-opacity:1;fill-rule:nonzero;stroke:none"
       aria-label="6"
       transform="matrix(1.3333333,0,0,1.3333333,164.84267,38.618667)" />
    <path
       id="path56"
       d="m 3.5503906,-5.74175 c -0.082031,-0.1757813 -0.140625,-0.2109375 -0.234375,-0.2109375 -0.1289062,0 -0.1640625,0.070312 -0.2226562,0.2109375 l -2.47265628,5.56640625 c -0.0585938,0.12890625 -0.0703125,0.140625 -0.0703125,0.19921875 0,0.10546875 0.0820313,0.19921875 0.19921875,0.19921875 0.0703125,0 0.15234375,-0.0234375 0.22265625,-0.2109375 L 3.3160156,-5.273 l 2.34375,5.28515625 c 0.082031,0.2109375 0.1875,0.2109375 0.2226563,0.2109375 0.1171875,0 0.1992187,-0.09375 0.1992187,-0.19921875 0,-0.0234375 0,-0.046875 -0.058594,-0.1640625 z m 0,0"
       style="fill:#000000;fill-opacity:1;fill-rule:nonzero;stroke:none"
       aria-label="∧"
       transform="matrix(1.3333333,0,0,1.3333333,182.63333,38.030667)" />
    <path
       id="path57"
       d="m 113.38727,70.86697 v 14.1734 h 14.17338 v -14.1734 z m 14.17338,14.1734 v -14.1734 h 14.1734 v 14.1734 z"
       style="fill:none;stroke:#000000;stroke-width:0.3985;stroke-linecap:butt;stroke-linejoin:miter;stroke-miterlimit:10;stroke-dasharray:none;stroke-opacity:1"
       transform="matrix(1.3333333,0,0,-1.3333333,7.532,119.38133)" />
    <path
       id="path58"
       d="m 4.477375,-2.0048437 c 0,-1.1835938 -0.8203125,-2.1796875 -1.8984375,-2.1796875 -0.4804688,0 -0.9023438,0.1640625 -1.265625,0.5039062 v -1.9335937 c 0.1992187,0.058594 0.5273437,0.1289062 0.84375,0.1289062 1.2304687,0 1.9335937,-0.9140625 1.9335937,-1.0429687 0,-0.058594 -0.035156,-0.1054688 -0.1054687,-0.1054688 0,0 -0.035156,0 -0.082031,0.023437 -0.1992187,0.09375 -0.6796875,0.2929688 -1.3476562,0.2929688 -0.3984375,0 -0.8554688,-0.070312 -1.3242188,-0.28125 -0.082031,-0.023437 -0.1289062,-0.023437 -0.1289062,-0.023437 -0.09375,0 -0.09375,0.082031 -0.09375,0.234375 v 2.953125 c 0,0.1757812 0,0.2578125 0.140625,0.2578125 0.070312,0 0.082031,-0.035156 0.1289062,-0.09375 C 1.383625,-3.4228125 1.758625,-3.961875 2.5555,-3.961875 c 0.5273437,0 0.7734375,0.4570313 0.8554687,0.6328125 0.1523438,0.375 0.1757813,0.7617188 0.1757813,1.2539063 0,0.3515625 0,0.9492187 -0.234375,1.3710937 -0.2460938,0.38671875 -0.609375,0.64453125 -1.0664063,0.64453125 -0.7265625,0 -1.3007812,-0.52734375 -1.4648437,-1.11328125 0.0234375,0.011719 0.0585938,0.011719 0.1640625,0.011719 0.328125,0 0.5039062,-0.2460938 0.5039062,-0.4804688 0,-0.2460937 -0.1757812,-0.4921875 -0.5039062,-0.4921875 -0.140625,0 -0.48046875,0.070312 -0.48046875,0.5273438 0,0.8554687 0.67968745,1.82812495 1.79296875,1.82812495 1.1601562,0 2.1796875,-0.9609375 2.1796875,-2.22656265 z m 0,0"
       style="fill:#000000;fill-opacity:1;fill-rule:nonzero;stroke:none"
       aria-label="5"
       transform="matrix(1.3333333,0,0,1.3333333,164.84267,19.72)" />
    <path
       id="path59"
       d="m 134.64737,77.95367 h 35.035"
       style="fill:none;stroke:#000000;stroke-width:0.3985;stroke-linecap:butt;stroke-linejoin:miter;stroke-miterlimit:10;stroke-dasharray:none;stroke-opacity:1"
       transform="matrix(1.3333333,0,0,-1.3333333,7.532,119.38133)" />
    <path
       id="path60"
       d="M -2.07224,2.39104 C -1.69365,0.95639 -0.84999,0.27895 0,0 -0.84999,-0.27895 -1.69365,-0.95639 -2.07224,-2.39104"
       style="fill:none;stroke:#000000;stroke-width:0.3985;stroke-linecap:round;stroke-linejoin:round;stroke-miterlimit:10;stroke-dasharray:none;stroke-opacity:1"
       transform="matrix(1.3333333,0,0,-1.3333333,234.04083,15.443107)" />
    <path
       id="path61"
       d="m 170.0809,70.86697 v 14.1734 h 14.17339 v -14.1734 z m 14.17339,14.1734 v -14.1734 h 14.1734 v 14.1734 z"
       style="fill:none;stroke:#000000;stroke-width:0.3985;stroke-linecap:butt;stroke-linejoin:miter;stroke-miterlimit:10;stroke-dasharray:none;stroke-opacity:1"
       transform="matrix(1.3333333,0,0,-1.3333333,7.532,119.38133)" />
    <path
       id="path62"
       d="m 4.5460703,-2.0282812 c 0,-1.265625 -0.8789062,-2.2265625 -1.9921875,-2.2265625 -0.6679687,0 -1.0429687,0.5039062 -1.2421875,0.984375 v -0.234375 c 0,-2.5195313 1.2421875,-2.8828125 1.7460938,-2.8828125 0.234375,0 0.65625,0.058594 0.8789062,0.3984375 -0.1523437,0 -0.5507812,0 -0.5507812,0.4453125 0,0.3164062 0.234375,0.4570312 0.4570312,0.4570312 0.1640625,0 0.4570313,-0.082031 0.4570313,-0.46875 0,-0.5976562 -0.4335938,-1.078125 -1.265625,-1.078125 -1.2773438,0 -2.61328129,1.2890625 -2.61328129,3.4804688 0,2.6601562 1.14843749,3.37499995 2.07421879,3.37499995 1.1132812,0 2.0507812,-0.9375 2.0507812,-2.24999995 z M 3.6554453,-2.04 c 0,0.4804688 0,0.9726563 -0.1640625,1.3359375 -0.3046875,0.59765625 -0.7617187,0.64453125 -0.9960937,0.64453125 -0.6210938,0 -0.9257813,-0.59765625 -0.984375,-0.75 C 1.3351328,-1.2782812 1.3351328,-2.0751562 1.3351328,-2.2509375 c 0,-0.7734375 0.3164063,-1.7695312 1.21875,-1.7695312 0.1523438,0 0.609375,0 0.9257813,0.609375 0.1757812,0.375 0.1757812,0.8789062 0.1757812,1.3710937 z m 0,0"
       style="fill:#000000;fill-opacity:1;fill-rule:nonzero;stroke:none"
       aria-label="6"
       transform="matrix(1.3333333,0,0,1.3333333,240.43467,19.72)" />
    <path
       id="path63"
       d="m 3.5517031,-5.7425781 c -0.082031,-0.1757813 -0.140625,-0.2109375 -0.234375,-0.2109375 -0.1289062,0 -0.1640625,0.070312 -0.2226562,0.2109375 l -2.47265627,5.56640622 c -0.0585938,0.12890625 -0.0703125,0.140625 -0.0703125,0.19921875 0,0.10546875 0.0820313,0.19921875 0.19921875,0.19921875 0.0703125,0 0.15234375,-0.0234375 0.22265625,-0.2109375 l 2.34374997,-5.28515622 2.34375,5.28515622 c 0.082031,0.2109375 0.1875,0.2109375 0.2226563,0.2109375 0.1171875,0 0.1992187,-0.09375 0.1992187,-0.19921875 0,-0.023437495 0,-0.046875 -0.058594,-0.1640625 z m 0,0"
       style="fill:#000000;fill-opacity:1;fill-rule:nonzero;stroke:none"
       aria-label="∧"
       transform="matrix(1.3333333,0,0,1.3333333,258.22533,19.133333)" />
  </g>
</svg>
