<?xml version="1.0" encoding="UTF-8" standalone="no"?>
<!-- Created with Inkscape (http://www.inkscape.org/) -->

<svg
   version="1.1"
   id="svg1"
   width="120.69333"
   height="205.69333"
   viewBox="0 0 120.69333 205.69333"
   sodipodi:docname="24-25-1-数据结构-期末-题图2.4.pdf"
   xmlns:inkscape="http://www.inkscape.org/namespaces/inkscape"
   xmlns:sodipodi="http://sodipodi.sourceforge.net/DTD/sodipodi-0.dtd"
   xmlns="http://www.w3.org/2000/svg"
   xmlns:svg="http://www.w3.org/2000/svg">
  <defs
     id="defs1" />
  <sodipodi:namedview
     id="namedview1"
     pagecolor="#ffffff"
     bordercolor="#000000"
     borderopacity="0.25"
     inkscape:showpageshadow="2"
     inkscape:pageopacity="0.0"
     inkscape:pagecheckerboard="0"
     inkscape:deskcolor="#d1d1d1">
    <inkscape:page
       x="0"
       y="0"
       inkscape:label="1"
       id="page1"
       width="120.69333"
       height="205.69333"
       margin="0"
       bleed="0" />
  </sodipodi:namedview>
  <g
     id="g1"
     inkscape:groupmode="layer"
     inkscape:label="1">
    <path
       id="path1"
       d="M -55.84511,-140.97778 V 13.29819 H 34.6773 v -154.27597 z"
       style="fill:#ffffff;fill-opacity:1;fill-rule:nonzero;stroke:none"
       transform="matrix(1.3333333,0,0,-1.3333333,74.458667,17.725333)" />
    <path
       id="path2"
       d="M 8.80498,0 C 8.80498,4.86292 4.86292,8.80498 0,8.80498 -4.86292,8.80498 -8.80498,4.86292 -8.80498,0 c 0,-4.86292 3.94206,-8.80498 8.80498,-8.80498 4.86292,0 8.80498,3.94206 8.80498,8.80498 z"
       style="fill:none;stroke:#000000;stroke-width:0.3985;stroke-linecap:butt;stroke-linejoin:miter;stroke-miterlimit:10;stroke-dasharray:none;stroke-opacity:1"
       transform="matrix(1.3333333,0,0,-1.3333333,74.458667,17.725333)" />
    <path
       id="path3"
       d="M 4.1714141,-6.71875e-4 V -0.30535937 H 3.8550078 c -0.9023437,0 -0.9257812,-0.1171875 -0.9257812,-0.48046875 V -6.3756719 c 0,-0.234375 0,-0.2578125 -0.234375,-0.2578125 -0.609375,0.6328125 -1.4882813,0.6328125 -1.80468754,0.6328125 v 0.3164063 c 0.19921874,0 0.78515624,0 1.30078124,-0.2578125 v 5.15624998 c 0,0.3515625 -0.035156,0.48046875 -0.9257812,0.48046875 H 0.94875781 V -6.71875e-4 C 1.3003203,-0.03582812 2.1557891,-0.03582812 2.5542266,-0.03582812 c 0.3984375,0 1.265625,0 1.6171875,0.035156245 z m 0,0"
       style="fill:#000000;fill-opacity:1;fill-rule:nonzero;stroke:none"
       aria-label="1"
       transform="matrix(1.3333333,0,0,1.3333333,71.137333,22.149333)" />
    <path
       id="path4"
       d="m -12.4551,-42.52022 c 0,4.86292 -3.94207,8.80499 -8.80499,8.80499 -4.86291,0 -8.80497,-3.94207 -8.80497,-8.80499 0,-4.86291 3.94206,-8.80498 8.80497,-8.80498 4.86292,0 8.80499,3.94207 8.80499,8.80498 z"
       style="fill:none;stroke:#000000;stroke-width:0.3985;stroke-linecap:butt;stroke-linejoin:miter;stroke-miterlimit:10;stroke-dasharray:none;stroke-opacity:1"
       transform="matrix(1.3333333,0,0,-1.3333333,74.458667,17.725333)" />
    <path
       id="path5"
       d="M 4.4753594,-1.7335625 H 4.2175469 c -0.046875,0.3046875 -0.1171875,0.73828125 -0.2109375,0.890625 -0.070313,0.0820313 -0.7265625,0.0820313 -0.9492188,0.0820313 H 1.2644219 l 1.0546875,-1.03125 c 1.5585937,-1.3710938 2.15625,-1.9101563 2.15625,-2.90625 0,-1.1367188 -0.9023438,-1.9335938 -2.1210938,-1.9335938 -1.125,0 -1.85156247,0.9140625 -1.85156247,1.8046875 0,0.5507813 0.4921875,0.5507813 0.52734377,0.5507813 0.1640625,0 0.515625,-0.1171875 0.515625,-0.5273438 0,-0.2578125 -0.1875,-0.515625 -0.5273438,-0.515625 -0.0820312,0 -0.10546872,0 -0.12890622,0.011719 0.22265622,-0.6445313 0.76171872,-1.0195313 1.33593752,-1.0195313 0.9140625,0 1.3359375,0.8085938 1.3359375,1.6289063 0,0.796875 -0.4921875,1.5820312 -1.0429688,2.203125 L 0.60817188,-0.36246875 C 0.50270313,-0.257 0.50270313,-0.2335625 0.50270313,8.125e-4 H 4.1941094 Z m 0,0"
       style="fill:#000000;fill-opacity:1;fill-rule:nonzero;stroke:none"
       aria-label="2"
       transform="matrix(1.3333333,0,0,1.3333333,42.790667,78.842667)" />
    <path
       id="path6"
       d="M -4.02644,-8.05304 -17.23363,-34.46716"
       style="fill:none;stroke:#000000;stroke-width:0.3985;stroke-linecap:butt;stroke-linejoin:miter;stroke-miterlimit:10;stroke-dasharray:none;stroke-opacity:1"
       transform="matrix(1.3333333,0,0,-1.3333333,74.458667,17.725333)" />
    <path
       id="path7"
       d="m -33.68843,-85.04044 c 0,4.87769 -3.95404,8.83174 -8.83174,8.83174 -4.87769,0 -8.83174,-3.95405 -8.83174,-8.83174 0,-4.87768 3.95405,-8.83174 8.83174,-8.83174 4.8777,0 8.83174,3.95406 8.83174,8.83174 z"
       style="fill:none;stroke:#000000;stroke-width:0.3985;stroke-linecap:butt;stroke-linejoin:miter;stroke-miterlimit:10;stroke-dasharray:none;stroke-opacity:1"
       transform="matrix(1.3333333,0,0,-1.3333333,74.458667,17.725333)" />
    <path
       id="path8"
       d="M 4.6884844,-1.6405937 V -1.957 H 3.6923906 v -4.5234375 c 0,-0.1992187 0,-0.2578125 -0.1523437,-0.2578125 -0.09375,0 -0.1171875,0 -0.1992188,0.1171875 L 0.28223437,-1.957 v 0.3164063 H 2.9306719 v 0.86718745 c 0,0.3515625 -0.023437,0.46875 -0.7617188,0.46875 H 1.9580156 V 3.125e-5 C 2.3681719,-0.035125 2.8955156,-0.035125 3.3056719,-0.035125 c 0.421875,0 0.9492187,0 1.359375,0.03515625 v -0.3046875 H 4.4541094 c -0.7382813,0 -0.7617188,-0.1171875 -0.7617188,-0.46875 V -1.6405937 Z M 2.9892656,-1.957 H 0.56348437 L 2.9892656,-5.6718437 Z m 0,0"
       style="fill:#000000;fill-opacity:1;fill-rule:nonzero;stroke:none"
       aria-label="4"
       transform="matrix(1.3333333,0,0,1.3333333,14.444,135.60933)" />
    <path
       id="path9"
       d="M -25.28654,-50.57327 -38.48175,-76.96346"
       style="fill:none;stroke:#000000;stroke-width:0.3985;stroke-linecap:butt;stroke-linejoin:miter;stroke-miterlimit:10;stroke-dasharray:none;stroke-opacity:1"
       transform="matrix(1.3333333,0,0,-1.3333333,74.458667,17.725333)" />
    <path
       id="path10"
       d="m 8.90427,-85.04044 c 0,4.91773 -3.98651,8.90422 -8.90424,8.90422 -4.91769,0 -8.9042,-3.98649 -8.9042,-8.90422 0,-4.91772 3.98651,-8.90422 8.9042,-8.90422 4.91773,0 8.90424,3.9865 8.90424,8.90422 z"
       style="fill:none;stroke:#000000;stroke-width:0.3985;stroke-linecap:butt;stroke-linejoin:miter;stroke-miterlimit:10;stroke-dasharray:none;stroke-opacity:1"
       transform="matrix(1.3333333,0,0,-1.3333333,74.458667,17.725333)" />
    <path
       id="path11"
       d="m 4.4761016,-2.0029375 c 0,-1.1835937 -0.8203125,-2.1796875 -1.8984375,-2.1796875 -0.4804688,0 -0.9023438,0.1640625 -1.265625,0.5039063 v -1.9335938 c 0.1992187,0.058594 0.5273437,0.1289063 0.84375,0.1289063 1.2304687,0 1.9335937,-0.9140625 1.9335937,-1.0429688 0,-0.058594 -0.035156,-0.1054687 -0.1054687,-0.1054687 0,0 -0.035156,0 -0.082031,0.023437 -0.1992187,0.09375 -0.6796875,0.2929687 -1.3476562,0.2929687 -0.3984375,0 -0.8554688,-0.070312 -1.3242188,-0.28125 -0.082031,-0.023437 -0.1289062,-0.023437 -0.1289062,-0.023437 -0.09375,0 -0.09375,0.082031 -0.09375,0.234375 v 2.953125 c 0,0.1757813 0,0.2578125 0.140625,0.2578125 0.070312,0 0.082031,-0.035156 0.1289062,-0.09375 0.1054688,-0.1523437 0.4804688,-0.6914062 1.2773438,-0.6914062 0.5273437,0 0.7734375,0.4570312 0.8554687,0.6328125 0.1523438,0.375 0.1757813,0.7617187 0.1757813,1.2539062 0,0.3515625 0,0.9492188 -0.234375,1.37109375 -0.2460938,0.38671875 -0.609375,0.64453125 -1.0664063,0.64453125 -0.7265625,0 -1.30078124,-0.52734375 -1.46484374,-1.1132812 0.0234375,0.011719 0.0585938,0.011719 0.1640625,0.011719 0.32812504,0 0.50390624,-0.2460937 0.50390624,-0.4804687 0,-0.2460938 -0.1757812,-0.4921875 -0.50390624,-0.4921875 -0.140625,0 -0.48046875,0.070312 -0.48046875,0.5273437 0,0.85546875 0.67968749,1.828125 1.79296879,1.828125 1.1601562,0 2.1796875,-0.9609375 2.1796872,-2.2265628 z m 0,0"
       style="fill:#000000;fill-opacity:1;fill-rule:nonzero;stroke:none"
       aria-label="5"
       transform="matrix(1.3333333,0,0,1.3333333,71.137333,135.38933)" />
    <path
       id="path12"
       d="M -17.23363,-50.57327 -4.07079,-76.89862"
       style="fill:none;stroke:#000000;stroke-width:0.3985;stroke-linecap:butt;stroke-linejoin:miter;stroke-miterlimit:10;stroke-dasharray:none;stroke-opacity:1"
       transform="matrix(1.3333333,0,0,-1.3333333,74.458667,17.725333)" />
    <path
       id="path13"
       d="m -12.3558,-127.56065 c 0,4.91771 -3.98652,8.90422 -8.90424,8.90422 -4.91771,0 -8.90422,-3.98651 -8.90422,-8.90422 0,-4.91773 3.98651,-8.90424 8.90422,-8.90424 4.91772,0 8.90424,3.98651 8.90424,8.90424 z"
       style="fill:none;stroke:#000000;stroke-width:0.3985;stroke-linecap:butt;stroke-linejoin:miter;stroke-miterlimit:10;stroke-dasharray:none;stroke-opacity:1"
       transform="matrix(1.3333333,0,0,-1.3333333,74.458667,17.725333)" />
    <path
       id="path14"
       d="m 4.5456719,-2.0258906 c 0,-1.265625 -0.8789063,-2.2265625 -1.9921875,-2.2265625 -0.6679688,0 -1.0429688,0.5039062 -1.2421875,0.984375 v -0.234375 c 0,-2.5195313 1.2421875,-2.8828125 1.7460937,-2.8828125 0.234375,0 0.65625,0.058594 0.8789063,0.3984375 -0.1523438,0 -0.5507813,0 -0.5507813,0.4453125 0,0.3164062 0.234375,0.4570312 0.4570313,0.4570312 0.1640625,0 0.4570312,-0.082031 0.4570312,-0.46875 0,-0.5976562 -0.4335937,-1.078125 -1.265625,-1.078125 -1.2773437,0 -2.61328122,1.2890625 -2.61328122,3.4804688 0,2.66015623 1.14843752,3.37499998 2.07421872,3.37499998 1.1132813,0 2.0507813,-0.9375 2.0507813,-2.24999998 z m -0.890625,-0.011719 c 0,0.4804688 0,0.9726563 -0.1640625,1.33593753 -0.3046875,0.59765625 -0.7617188,0.64453125 -0.9960938,0.64453125 -0.6210937,0 -0.9257812,-0.59765625 -0.984375,-0.75 C 1.3347344,-1.2758906 1.3347344,-2.0727656 1.3347344,-2.2485469 c 0,-0.7734375 0.3164062,-1.7695312 1.21875,-1.7695312 0.1523437,0 0.609375,0 0.9257812,0.609375 0.1757813,0.375 0.1757813,0.8789062 0.1757813,1.3710935 z m 0,0"
       style="fill:#000000;fill-opacity:1;fill-rule:nonzero;stroke:none"
       aria-label="6"
       transform="matrix(1.3333333,0,0,1.3333333,42.790667,192.084)" />
    <path
       id="path15"
       d="m -4.07079,-93.18225 -13.11842,-26.23659"
       style="fill:none;stroke:#000000;stroke-width:0.3985;stroke-linecap:butt;stroke-linejoin:miter;stroke-miterlimit:10;stroke-dasharray:none;stroke-opacity:1"
       transform="matrix(1.3333333,0,0,-1.3333333,74.458667,17.725333)" />
    <path
       id="path16"
       d="m 30.1841,-127.56065 c 0,4.9286 -3.99532,8.92392 -8.92392,8.92392 -4.92861,0 -8.92394,-3.99532 -8.92394,-8.92392 0,-4.92861 3.99533,-8.92394 8.92394,-8.92394 4.9286,0 8.92392,3.99533 8.92392,8.92394 z"
       style="fill:none;stroke:#000000;stroke-width:0.3985;stroke-linecap:butt;stroke-linejoin:miter;stroke-miterlimit:10;stroke-dasharray:none;stroke-opacity:1"
       transform="matrix(1.3333333,0,0,-1.3333333,74.458667,17.725333)" />
    <path
       id="path17"
       d="M 4.8284063,-6.4088984 H 2.4143438 c -1.21875,0 -1.2421875,-0.1289063 -1.2773438,-0.328125 H 0.89090625 l -0.328125,2.0507812 H 0.808875 c 0.0234375,-0.1523437 0.1171875,-0.7851562 0.2460938,-0.9023437 0.070312,-0.058594 0.84375,-0.058594 0.9726562,-0.058594 h 2.0625 l -1.1132812,1.5703125 c -0.890625,1.3476563 -1.21875,2.7304688 -1.21875,3.75000001 0,0.09375 0,0.55078125 0.4570312,0.55078125 0.4570313,0 0.4570313,-0.45703125 0.4570313,-0.55078125 v -0.50390625 c 0,-0.55078126 0.023437,-1.10156246 0.1054687,-1.64062496 0.046875,-0.2226563 0.1757813,-1.078125 0.6210938,-1.6992188 L 4.746375,-6.0690547 c 0.082031,-0.1171875 0.082031,-0.140625 0.082031,-0.3398437 z m 0,0"
       style="fill:#000000;fill-opacity:1;fill-rule:nonzero;stroke:none"
       aria-label="7"
       transform="matrix(1.3333333,0,0,1.3333333,99.484,192.15067)" />
    <path
       id="path18"
       d="m 4.07086,-93.18225 13.10967,-26.21898"
       style="fill:none;stroke:#000000;stroke-width:0.3985;stroke-linecap:butt;stroke-linejoin:miter;stroke-miterlimit:10;stroke-dasharray:none;stroke-opacity:1"
       transform="matrix(1.3333333,0,0,-1.3333333,74.458667,17.725333)" />
    <path
       id="path19"
       d="m 30.16435,-42.52022 c 0,4.91772 -3.98651,8.90422 -8.90422,8.90422 -4.91773,0 -8.90423,-3.9865 -8.90423,-8.90422 0,-4.91771 3.9865,-8.90422 8.90423,-8.90422 4.91771,0 8.90422,3.98651 8.90422,8.90422 z"
       style="fill:none;stroke:#000000;stroke-width:0.3985;stroke-linecap:butt;stroke-linejoin:miter;stroke-miterlimit:10;stroke-dasharray:none;stroke-opacity:1"
       transform="matrix(1.3333333,0,0,-1.3333333,74.458667,17.725333)" />
    <path
       id="path20"
       d="m 4.5471563,-1.6997344 c 0,-0.8203125 -0.6210938,-1.59375 -1.6523438,-1.8046875 0.8085938,-0.2695312 1.3945313,-0.9726562 1.3945313,-1.7578125 0,-0.8203125 -0.8789063,-1.3710937 -1.8398438,-1.3710937 -1.0078125,0 -1.7578125,0.5976562 -1.7578125,1.3476562 0,0.3398438 0.2109375,0.5273438 0.5039063,0.5273438 0.3046875,0 0.5039062,-0.2226563 0.5039062,-0.515625 0,-0.4921875 -0.46875,-0.4921875 -0.609375,-0.4921875 0.3046875,-0.4921875 0.9609375,-0.6210938 1.3242188,-0.6210938 0.4101562,0 0.9492187,0.2226563 0.9492187,1.1132813 0,0.1289062 -0.011719,0.703125 -0.2695312,1.1367187 -0.3046875,0.4804688 -0.6445313,0.515625 -0.890625,0.515625 -0.082031,0.011719 -0.3164063,0.035156 -0.3867188,0.035156 -0.082031,0.011719 -0.1523437,0.023437 -0.1523437,0.1171875 0,0.1171875 0.070312,0.1171875 0.234375,0.1171875 h 0.4453125 c 0.8085937,0 1.1835937,0.6679687 1.1835937,1.6523437 0,1.34765628 -0.6914062,1.64062503 -1.125,1.64062503 -0.4335937,0 -1.171875,-0.17578125 -1.5234375,-0.76171875 0.3515625,0.0585938 0.65625,-0.1640625 0.65625,-0.53906248 0,-0.3632813 -0.2695312,-0.5625 -0.5625,-0.5625 -0.234375,0 -0.55078125,0.140625 -0.55078125,0.5742187 0,0.91406253 0.92578125,1.57031253 2.00390625,1.57031253 1.21875,0 2.1210938,-0.9140625 2.1210938,-1.92187473 z m 0,0"
       style="fill:#000000;fill-opacity:1;fill-rule:nonzero;stroke:none"
       aria-label="3"
       transform="matrix(1.3333333,0,0,1.3333333,99.484,78.696)" />
    <path
       id="path21"
       d="M 4.02644,-8.05304 17.1893,-34.3784"
       style="fill:none;stroke:#000000;stroke-width:0.3985;stroke-linecap:butt;stroke-linejoin:miter;stroke-miterlimit:10;stroke-dasharray:none;stroke-opacity:1"
       transform="matrix(1.3333333,0,0,-1.3333333,74.458667,17.725333)" />
  </g>
</svg>
