<?xml version="1.0" encoding="UTF-8" standalone="no"?>
<!-- Created with Inkscape (http://www.inkscape.org/) -->

<svg
   version="1.1"
   id="svg1"
   width="272.76001"
   height="239.14667"
   viewBox="0 0 272.76001 239.14667"
   sodipodi:docname="24-25-1-数据结构-期末-题图3.2.pdf"
   xmlns:inkscape="http://www.inkscape.org/namespaces/inkscape"
   xmlns:sodipodi="http://sodipodi.sourceforge.net/DTD/sodipodi-0.dtd"
   xmlns="http://www.w3.org/2000/svg"
   xmlns:svg="http://www.w3.org/2000/svg">
  <defs
     id="defs1" />
  <sodipodi:namedview
     id="namedview1"
     pagecolor="#ffffff"
     bordercolor="#000000"
     borderopacity="0.25"
     inkscape:showpageshadow="2"
     inkscape:pageopacity="0.0"
     inkscape:pagecheckerboard="0"
     inkscape:deskcolor="#d1d1d1">
    <inkscape:page
       x="0"
       y="0"
       inkscape:label="1"
       id="page1"
       width="272.76001"
       height="239.14667"
       margin="0"
       bleed="0" />
  </sodipodi:namedview>
  <g
     id="g1"
     inkscape:groupmode="layer"
     inkscape:label="1">
    <path
       id="path1"
       d="M -21.0971,-17.9887 V 161.37747 H 183.47832 V -17.9887 Z"
       style="fill:#ffffff;fill-opacity:1;fill-rule:nonzero;stroke:none"
       transform="matrix(1.3333333,0,0,-1.3333333,28.129333,215.16133)" />
    <path
       id="path2"
       d="m 8.80498,113.38727 c 0,4.86291 -3.94206,8.80498 -8.80498,8.80498 -4.86292,0 -8.80498,-3.94207 -8.80498,-8.80498 0,-4.86292 3.94206,-8.80499 8.80498,-8.80499 4.86292,0 8.80498,3.94207 8.80498,8.80499 z"
       style="fill:none;stroke:#000000;stroke-width:0.3985;stroke-linecap:butt;stroke-linejoin:miter;stroke-miterlimit:10;stroke-dasharray:none;stroke-opacity:1"
       transform="matrix(1.3333333,0,0,-1.3333333,28.129333,215.16133)" />
    <path
       id="path3"
       d="M 4.1723203,7.578125e-4 V -0.30392969 H 3.8559141 c -0.9023438,0 -0.9257813,-0.1171875 -0.9257813,-0.48046875 V -6.3742422 c 0,-0.234375 0,-0.2578125 -0.234375,-0.2578125 -0.609375,0.6328125 -1.4882812,0.6328125 -1.80468749,0.6328125 v 0.3164063 c 0.19921879,0 0.78515629,0 1.30078129,-0.2578125 v 5.15624996 c 0,0.3515625 -0.035156,0.48046875 -0.9257813,0.48046875 H 0.94966406 V 7.578125e-4 C 1.3012266,-0.03439844 2.1566953,-0.03439844 2.5551328,-0.03439844 c 0.3984375,0 1.265625,0 1.6171875,0.0351562525 z m 0,0"
       style="fill:#000000;fill-opacity:1;fill-rule:nonzero;stroke:none"
       aria-label="1"
       transform="matrix(1.3333333,0,0,1.3333333,24.808,68.401333)" />
    <path
       id="path4"
       d="m 122.19225,113.38727 c 0,4.86291 -3.94207,8.80498 -8.80498,8.80498 -4.86292,0 -8.80499,-3.94207 -8.80499,-8.80498 0,-4.86292 3.94207,-8.80499 8.80499,-8.80499 4.86291,0 8.80498,3.94207 8.80498,8.80499 z"
       style="fill:none;stroke:#000000;stroke-width:0.3985;stroke-linecap:butt;stroke-linejoin:miter;stroke-miterlimit:10;stroke-dasharray:none;stroke-opacity:1"
       transform="matrix(1.3333333,0,0,-1.3333333,28.129333,215.16133)" />
    <path
       id="path5"
       d="M 4.4767031,-1.7336172 H 4.2188906 c -0.046875,0.3046875 -0.1171875,0.73828126 -0.2109375,0.89062501 -0.070312,0.0820313 -0.7265625,0.0820313 -0.9492187,0.0820313 H 1.2657656 L 2.3204531,-1.7922109 c 1.5585938,-1.3710938 2.15625,-1.9101563 2.15625,-2.90625 0,-1.1367188 -0.9023437,-1.9335938 -2.1210937,-1.9335938 -1.125,0 -1.85156252,0.9140625 -1.85156252,1.8046875 0,0.5507813 0.4921875,0.5507813 0.52734372,0.5507813 0.1640625,0 0.515625,-0.1171875 0.515625,-0.5273438 0,-0.2578125 -0.1875,-0.515625 -0.5273437,-0.515625 -0.0820313,0 -0.10546877,0 -0.12890627,0.011719 C 1.1134219,-5.952367 1.6524844,-6.327367 2.2267031,-6.327367 c 0.9140625,0 1.3359375,0.8085938 1.3359375,1.6289063 0,0.796875 -0.4921875,1.5820312 -1.0429687,2.203125 L 0.60951563,-0.36252344 C 0.50404688,-0.25705469 0.50404688,-0.23361719 0.50404688,7.578125e-4 H 4.1954531 Z m 0,0"
       style="fill:#000000;fill-opacity:1;fill-rule:nonzero;stroke:none"
       aria-label="2"
       transform="matrix(1.3333333,0,0,1.3333333,175.992,68.401333)" />
    <path
       id="path6"
       d="M 8.90422,0 C 8.90422,4.91771 4.91771,8.90422 0,8.90422 -4.91771,8.90422 -8.90422,4.91771 -8.90422,0 c 0,-4.91771 3.98651,-8.90422 8.90422,-8.90422 4.91771,0 8.90422,3.98651 8.90422,8.90422 z"
       style="fill:none;stroke:#000000;stroke-width:0.3985;stroke-linecap:butt;stroke-linejoin:miter;stroke-miterlimit:10;stroke-dasharray:none;stroke-opacity:1"
       transform="matrix(1.3333333,0,0,-1.3333333,28.129333,215.16133)" />
    <path
       id="path7"
       d="m 4.4770078,-2.0047813 c 0,-1.1835937 -0.8203125,-2.1796875 -1.8984375,-2.1796875 -0.4804687,0 -0.9023437,0.1640625 -1.265625,0.5039063 v -1.9335938 c 0.1992188,0.058594 0.5273438,0.1289063 0.84375,0.1289063 1.2304688,0 1.9335938,-0.9140625 1.9335938,-1.0429688 0,-0.058594 -0.035156,-0.1054687 -0.1054688,-0.1054687 0,0 -0.035156,0 -0.082031,0.023437 -0.1992188,0.09375 -0.6796875,0.2929687 -1.3476563,0.2929687 -0.3984375,0 -0.8554687,-0.070312 -1.3242187,-0.28125 -0.082031,-0.023437 -0.1289063,-0.023437 -0.1289063,-0.023437 -0.09375,0 -0.09375,0.082031 -0.09375,0.234375 v 2.953125 c 0,0.1757813 0,0.2578125 0.140625,0.2578125 0.070312,0 0.082031,-0.035156 0.1289063,-0.09375 C 1.383258,-3.42275 1.758258,-3.9618125 2.555133,-3.9618125 c 0.5273438,0 0.7734375,0.4570312 0.8554688,0.6328125 0.1523437,0.375 0.1757812,0.7617187 0.1757812,1.2539062 0,0.3515625 0,0.9492188 -0.234375,1.3710938 -0.2460937,0.38671875 -0.609375,0.64453125 -1.0664062,0.64453125 -0.7265625,0 -1.30078129,-0.52734375 -1.46484379,-1.11328125 0.0234375,0.011719 0.0585938,0.011719 0.1640625,0.011719 0.32812499,0 0.50390629,-0.2460937 0.50390629,-0.4804687 0,-0.2460938 -0.1757813,-0.4921875 -0.50390629,-0.4921875 -0.140625,0 -0.48046875,0.070312 -0.48046875,0.5273437 0,0.8554688 0.67968754,1.82812505 1.79296874,1.82812505 1.1601563,0 2.1796875,-0.9609375 2.1796873,-2.22656285 z m 0,0"
       style="fill:#000000;fill-opacity:1;fill-rule:nonzero;stroke:none"
       aria-label="5"
       transform="matrix(1.3333333,0,0,1.3333333,24.808,219.43867)" />
    <path
       id="path8"
       d="m 65.59785,56.69363 c 0,4.91771 -3.98651,8.90422 -8.90422,8.90422 -4.91772,0 -8.90423,-3.98651 -8.90423,-8.90422 0,-4.91772 3.98651,-8.90423 8.90423,-8.90423 4.91771,0 8.90422,3.98651 8.90422,8.90423 z"
       style="fill:none;stroke:#000000;stroke-width:0.3985;stroke-linecap:butt;stroke-linejoin:miter;stroke-miterlimit:10;stroke-dasharray:none;stroke-opacity:1"
       transform="matrix(1.3333333,0,0,-1.3333333,28.129333,215.16133)" />
    <path
       id="path9"
       d="m 4.5457031,-2.0266016 c 0,-1.265625 -0.8789062,-2.2265625 -1.9921875,-2.2265625 -0.6679687,0 -1.0429687,0.5039063 -1.2421875,0.984375 v -0.234375 c 0,-2.5195312 1.2421875,-2.8828125 1.7460938,-2.8828125 0.234375,0 0.65625,0.058594 0.8789062,0.3984375 -0.1523437,0 -0.5507812,0 -0.5507812,0.4453125 0,0.3164063 0.234375,0.4570313 0.4570312,0.4570313 0.1640625,0 0.4570313,-0.082031 0.4570313,-0.46875 0,-0.5976563 -0.4335938,-1.078125 -1.265625,-1.078125 -1.2773438,0 -2.61328128,1.2890625 -2.61328128,3.4804687 0,2.66015629 1.14843748,3.37500004 2.07421878,3.37500004 1.1132812,0 2.0507812,-0.9375 2.0507812,-2.25000004 z m -0.890625,-0.011719 c 0,0.4804687 0,0.9726562 -0.1640625,1.33593749 -0.3046875,0.59765625 -0.7617187,0.64453125 -0.9960937,0.64453125 -0.6210938,0 -0.9257813,-0.59765625 -0.984375,-0.75 C 1.3347656,-1.2766016 1.3347656,-2.0734766 1.3347656,-2.2492578 c 0,-0.7734375 0.3164063,-1.7695313 1.21875,-1.7695313 0.1523438,0 0.609375,0 0.9257813,0.609375 0.1757812,0.375 0.1757812,0.8789063 0.1757812,1.3710935 z m 0,0"
       style="fill:#000000;fill-opacity:1;fill-rule:nonzero;stroke:none"
       aria-label="6"
       transform="matrix(1.3333333,0,0,1.3333333,100.4,143.84667)" />
    <path
       id="path10"
       d="m 122.21901,0 c 0,4.87769 -3.95406,8.83174 -8.83174,8.83174 -4.8777,0 -8.83174,-3.95405 -8.83174,-8.83174 0,-4.87769 3.95404,-8.83174 8.83174,-8.83174 4.87768,0 8.83174,3.95405 8.83174,8.83174 z"
       style="fill:none;stroke:#000000;stroke-width:0.3985;stroke-linecap:butt;stroke-linejoin:miter;stroke-miterlimit:10;stroke-dasharray:none;stroke-opacity:1"
       transform="matrix(1.3333333,0,0,-1.3333333,28.129333,215.16133)" />
    <path
       id="path11"
       d="M 4.6876406,-1.6414375 V -1.9578437 H 3.6915469 v -4.5234375 c 0,-0.1992188 0,-0.2578125 -0.1523438,-0.2578125 -0.09375,0 -0.1171875,0 -0.1992187,0.1171875 l -3.05859377,4.6640625 v 0.3164062 H 2.9298281 V -0.77425 c 0,0.3515625 -0.023437,0.46875 -0.7617187,0.46875 H 1.9571719 v 0.3046875 c 0.4101562,-0.03515625 0.9375,-0.03515625 1.3476562,-0.03515625 0.421875,0 0.9492188,0 1.359375,0.03515625 V -0.3055 H 4.4532656 c -0.7382812,0 -0.7617187,-0.1171875 -0.7617187,-0.46875 V -1.6414375 Z M 2.9884219,-1.9578437 H 0.56264063 L 2.9884219,-5.6726875 Z m 0,0"
       style="fill:#000000;fill-opacity:1;fill-rule:nonzero;stroke:none"
       aria-label="4"
       transform="matrix(1.3333333,0,0,1.3333333,175.992,219.65733)" />
    <path
       id="path12"
       d="m 178.98512,56.69363 c 0,4.91771 -3.98651,8.90422 -8.90422,8.90422 -4.91772,0 -8.90423,-3.98651 -8.90423,-8.90422 0,-4.91772 3.98651,-8.90423 8.90423,-8.90423 4.91771,0 8.90422,3.98651 8.90422,8.90423 z"
       style="fill:none;stroke:#000000;stroke-width:0.3985;stroke-linecap:butt;stroke-linejoin:miter;stroke-miterlimit:10;stroke-dasharray:none;stroke-opacity:1"
       transform="matrix(1.3333333,0,0,-1.3333333,28.129333,215.16133)" />
    <path
       id="path13"
       d="m 4.5463984,-1.6984766 c 0,-0.8203125 -0.6210937,-1.59375 -1.6523437,-1.8046875 0.8085937,-0.2695312 1.3945312,-0.9726562 1.3945312,-1.7578125 0,-0.8203125 -0.8789062,-1.3710937 -1.8398437,-1.3710937 -1.0078125,0 -1.75781251,0.5976562 -1.75781251,1.3476562 0,0.3398438 0.2109375,0.5273438 0.50390621,0.5273438 0.3046875,0 0.5039063,-0.2226563 0.5039063,-0.515625 0,-0.4921875 -0.46875,-0.4921875 -0.609375,-0.4921875 0.3046875,-0.4921875 0.9609375,-0.6210938 1.3242187,-0.6210938 0.4101563,0 0.9492188,0.2226563 0.9492188,1.1132813 0,0.1289062 -0.011719,0.703125 -0.2695313,1.1367187 -0.3046875,0.4804688 -0.6445312,0.515625 -0.890625,0.515625 -0.082031,0.011719 -0.3164062,0.035156 -0.3867187,0.035156 -0.082031,0.011719 -0.1523438,0.023437 -0.1523438,0.1171875 0,0.1171875 0.070312,0.1171875 0.234375,0.1171875 h 0.4453125 c 0.8085938,0 1.1835938,0.6679687 1.1835938,1.6523437 0,1.34765629 -0.6914063,1.64062504 -1.125,1.64062504 -0.4335938,0 -1.171875,-0.17578125 -1.52343751,-0.76171875 0.35156251,0.0585938 0.65625001,-0.1640625 0.65625001,-0.53906249 0,-0.3632813 -0.2695313,-0.5625 -0.56250001,-0.5625 -0.234375,0 -0.55078125,0.140625 -0.55078125,0.5742187 0,0.91406254 0.92578126,1.57031254 2.00390626,1.57031254 1.21875,0 2.1210937,-0.9140625 2.1210937,-1.92187474 z m 0,0"
       style="fill:#000000;fill-opacity:1;fill-rule:nonzero;stroke:none"
       aria-label="3"
       transform="matrix(1.3333333,0,0,1.3333333,251.58267,143.84667)" />
    <path
       id="path14"
       d="m 9.00423,113.38727 h 95.3788"
       style="fill:none;stroke:#000000;stroke-width:0.3985;stroke-linecap:butt;stroke-linejoin:miter;stroke-miterlimit:10;stroke-dasharray:none;stroke-opacity:1"
       transform="matrix(1.3333333,0,0,-1.3333333,28.129333,215.16133)" />
    <path
       id="path15"
       d="M 4.1714688,-8.59375e-4 V -0.30554688 H 3.8550625 c -0.9023437,0 -0.9257812,-0.1171875 -0.9257812,-0.48046875 V -6.3758594 c 0,-0.234375 0,-0.2578125 -0.234375,-0.2578125 -0.609375,0.6328125 -1.4882813,0.6328125 -1.80468755,0.6328125 v 0.3164063 c 0.19921875,0 0.78515625,0 1.30078125,-0.2578125 v 5.15624997 c 0,0.3515625 -0.035156,0.48046875 -0.9257812,0.48046875 H 0.9488125 V -8.59375e-4 C 1.300375,-0.03601563 2.1558438,-0.03601563 2.5542813,-0.03601563 c 0.3984375,0 1.265625,0 1.6171875,0.035156255 z M 9.5269375,-1.6766406 c 0,-0.3515625 -0.1054687,-0.8085938 -0.4804687,-1.21875 -0.1875,-0.2109375 -0.3515625,-0.3164063 -0.984375,-0.7148438 0.7148437,-0.3632812 1.2070312,-0.8789062 1.2070312,-1.5351562 0,-0.9257813 -0.890625,-1.4882813 -1.7929687,-1.4882813 -0.9960938,0 -1.8046875,0.7382813 -1.8046875,1.6640625 0,0.1757813 0.011719,0.6210938 0.4335937,1.0898438 0.1054688,0.1289062 0.4804688,0.375 0.7265625,0.5390625 -0.5742187,0.2929687 -1.4296875,0.84375 -1.4296875,1.8398437 0,1.05468752 1.0078125,1.72265627 2.0625,1.72265627 1.125,0 2.0625,-0.83203125 2.0625,-1.89843747 z m -0.703125,-3.46875 c 0,0.5625 -0.3867187,1.0429687 -0.984375,1.3945312 l -1.2304687,-0.796875 c -0.46875,-0.3046875 -0.5039063,-0.6445312 -0.5039063,-0.8085937 0,-0.609375 0.6445313,-1.03125 1.359375,-1.03125 0.7265625,0 1.359375,0.515625 1.359375,1.2421875 z M 9.03475,-1.3133594 c 0,0.73828127 -0.75,1.25390627 -1.5585937,1.25390627 -0.8671875,0 -1.5820313,-0.62109375 -1.5820313,-1.44140627 0,-0.5859375 0.3164063,-1.21875 1.171875,-1.6875 l 1.21875,0.7734375 c 0.28125,0.1875 0.75,0.4921875 0.75,1.1015625 z m 0,0"
       style="fill:#000000;fill-opacity:1;fill-rule:nonzero;stroke:none"
       aria-label="18"
       transform="matrix(1.3333333,0,0,1.3333333,97.078667,58.993333)" />
    <path
       id="path16"
       d="M 0,104.38303 V 9.10347"
       style="fill:none;stroke:#000000;stroke-width:0.3985;stroke-linecap:butt;stroke-linejoin:miter;stroke-miterlimit:10;stroke-dasharray:none;stroke-opacity:1"
       transform="matrix(1.3333333,0,0,-1.3333333,28.129333,215.16133)" />
    <path
       id="path17"
       d="M 4.4768203,-1.7344375 H 4.2190078 c -0.046875,0.3046875 -0.1171875,0.73828125 -0.2109375,0.890625 -0.070312,0.0820313 -0.7265625,0.0820313 -0.9492187,0.0820313 H 1.2658828 l 1.0546875,-1.0312501 c 1.5585938,-1.3710937 2.15625,-1.9101562 2.15625,-2.90625 0,-1.1367187 -0.9023437,-1.9335937 -2.1210937,-1.9335937 -1.125,0 -1.85156254,0.9140625 -1.85156254,1.8046875 0,0.5507812 0.4921875,0.5507812 0.52734374,0.5507812 0.1640625,0 0.515625,-0.1171875 0.515625,-0.5273437 0,-0.2578125 -0.1875,-0.515625 -0.5273437,-0.515625 -0.0820313,0 -0.10546879,0 -0.12890629,0.011719 0.22265629,-0.6445312 0.76171879,-1.0195312 1.33593749,-1.0195312 0.9140625,0 1.3359375,0.8085937 1.3359375,1.6289062 0,0.796875 -0.4921875,1.5820313 -1.0429687,2.203125 L 0.60963281,-0.36334375 C 0.50416406,-0.257875 0.50416406,-0.2344375 0.50416406,-6.25e-5 H 4.1955703 Z m 4.9804688,-0.2695313 c 0,-1.1835937 -0.8203125,-2.1796875 -1.8984375,-2.1796875 -0.4804688,0 -0.9023438,0.1640625 -1.265625,0.5039063 v -1.9335938 c 0.1992187,0.058594 0.5273437,0.1289063 0.84375,0.1289063 1.2304687,0 1.9335937,-0.9140625 1.9335937,-1.0429688 0,-0.058594 -0.035156,-0.1054687 -0.1054687,-0.1054687 0,0 -0.035156,0 -0.082031,0.023437 -0.1992187,0.09375 -0.6796875,0.2929687 -1.3476562,0.2929687 -0.3984375,0 -0.8554688,-0.070312 -1.3242188,-0.28125 -0.082031,-0.023437 -0.1289062,-0.023437 -0.1289062,-0.023437 -0.09375,0 -0.09375,0.082031 -0.09375,0.234375 v 2.953125 c 0,0.1757813 0,0.2578125 0.140625,0.2578125 0.070312,0 0.082031,-0.035156 0.1289062,-0.09375 C 6.3635391,-3.4219375 6.7385391,-3.961 7.5354141,-3.961 c 0.5273437,0 0.7734375,0.4570312 0.8554687,0.6328125 0.1523438,0.375 0.1757813,0.7617187 0.1757813,1.2539062 0,0.3515625 0,0.9492188 -0.234375,1.3710938 -0.2460938,0.38671875 -0.609375,0.64453125 -1.0664063,0.64453125 -0.7265625,0 -1.3007812,-0.52734375 -1.4648437,-1.11328125 0.023437,0.011719 0.058594,0.011719 0.1640625,0.011719 0.328125,0 0.5039062,-0.2460937 0.5039062,-0.4804687 0,-0.2460938 -0.1757812,-0.4921875 -0.5039062,-0.4921875 -0.140625,0 -0.4804688,0.070312 -0.4804688,0.5273437 0,0.8554688 0.6796875,1.82812505 1.7929688,1.82812505 1.1601562,0 2.1796875,-0.9609375 2.1796875,-2.22656285 z m 0,0"
       style="fill:#000000;fill-opacity:1;fill-rule:nonzero;stroke:none"
       aria-label="25"
       transform="matrix(1.3333333,0,0,1.3333333,10.152,143.78133)" />
    <path
       id="path18"
       d="M 104.35626,0 H 9.10347"
       style="fill:none;stroke:#000000;stroke-width:0.3985;stroke-linecap:butt;stroke-linejoin:miter;stroke-miterlimit:10;stroke-dasharray:none;stroke-opacity:1"
       transform="matrix(1.3333333,0,0,-1.3333333,28.129333,215.16133)" />
    <path
       id="path19"
       d="M 4.4753125,-1.7330313 H 4.2175 C 4.170625,-1.4283438 4.1003125,-0.99475 4.0065625,-0.84240625 3.93625,-0.760375 3.28,-0.760375 3.0573438,-0.760375 H 1.264375 l 1.0546875,-1.03125 c 1.5585938,-1.3710938 2.15625,-1.9101563 2.15625,-2.90625 0,-1.1367188 -0.9023437,-1.9335938 -2.1210937,-1.9335938 -1.125,0 -1.85156255,0.9140625 -1.85156255,1.8046875 C 0.50265625,-4.276 0.99484375,-4.276 1.03,-4.276 c 0.1640625,0 0.515625,-0.1171875 0.515625,-0.5273438 0,-0.2578125 -0.1875,-0.515625 -0.5273437,-0.515625 -0.0820313,0 -0.1054688,0 -0.1289063,0.011719 0.2226563,-0.6445313 0.7617188,-1.0195313 1.3359375,-1.0195313 0.9140625,0 1.3359375,0.8085938 1.3359375,1.6289063 0,0.796875 -0.4921875,1.5820312 -1.0429687,2.203125 L 0.608125,-0.3619375 C 0.50265625,-0.25646875 0.50265625,-0.23303125 0.50265625,0.00134375 H 4.1940625 Z m 5.0888672,-1.453125 c 0,-0.796875 -0.046875,-1.59375 -0.3984375,-2.3320312 -0.4570313,-0.9609375 -1.2773438,-1.1132813 -1.6875,-1.1132813 -0.5976563,0 -1.3359375,0.2578125 -1.734375,1.1835938 -0.328125,0.6914062 -0.375,1.4648437 -0.375,2.2617187 0,0.75 0.046875,1.640625 0.4453125,2.4023438 C 6.2477734,0.02478125 6.9743359,0.224 7.4665234,0.224 8.0055859,0.224 8.7555859,0.0130625 9.2008984,-0.93615625 9.5173047,-1.6275625 9.5641797,-2.401 9.5641797,-3.1861563 Z M 8.7321484,-3.3033438 c 0,0.75 0,1.4179688 -0.1054687,2.0625 -0.1523438,0.93750005 -0.7148438,1.24218755 -1.1601563,1.24218755 -0.3867187,0 -0.984375,-0.24609375 -1.1601562,-1.20703125 -0.1054688,-0.5976563 -0.1054688,-1.5117188 -0.1054688,-2.0976563 0,-0.6445312 0,-1.3007812 0.082031,-1.8398437 0.1875,-1.1835938 0.9257812,-1.265625 1.1835937,-1.265625 0.328125,0 0.984375,0.1757812 1.171875,1.1601562 0.09375,0.5625 0.09375,1.3125 0.09375,1.9453125 z m 0,0"
       style="fill:#000000;fill-opacity:1;fill-rule:nonzero;stroke:none"
       aria-label="20"
       transform="matrix(1.3333333,0,0,1.3333333,97.126667,228.70133)" />
    <path
       id="path20"
       d="M 113.38727,104.38303 V 9.03099"
       style="fill:none;stroke:#000000;stroke-width:0.3985;stroke-linecap:butt;stroke-linejoin:miter;stroke-miterlimit:10;stroke-dasharray:none;stroke-opacity:1"
       transform="matrix(1.3333333,0,0,-1.3333333,28.129333,215.16133)" />
    <path
       id="path21"
       d="m 4.1708047,-9.0625e-4 v -0.3046875 H 3.8543984 c -0.9023437,0 -0.9257812,-0.1171875 -0.9257812,-0.48046875 v -5.5898438 c 0,-0.234375 0,-0.2578125 -0.234375,-0.2578125 -0.609375,0.6328125 -1.4882813,0.6328125 -1.80468751,0.6328125 V -5.6845 c 0.19921871,0 0.78515621,0 1.30078121,-0.2578125 v 5.15625 c 0,0.3515625 -0.035156,0.48046875 -0.9257812,0.48046875 H 0.94814844 v 0.3046875 C 1.2997109,-0.0360625 2.1551797,-0.0360625 2.5536172,-0.0360625 c 0.3984375,0 1.265625,0 1.6171875,0.03515625 z M 9.5292031,-2.02825 c 0,-1.265625 -0.8789062,-2.2265625 -1.9921875,-2.2265625 -0.6679687,0 -1.0429687,0.5039062 -1.2421875,0.984375 v -0.234375 c 0,-2.5195313 1.2421875,-2.8828125 1.7460938,-2.8828125 0.234375,0 0.65625,0.058594 0.8789062,0.3984375 -0.1523437,0 -0.5507812,0 -0.5507812,0.4453125 0,0.3164062 0.234375,0.4570312 0.4570312,0.4570312 0.1640625,0 0.4570313,-0.082031 0.4570313,-0.46875 0,-0.5976562 -0.4335938,-1.078125 -1.265625,-1.078125 -1.2773438,0 -2.6132813,1.2890625 -2.6132813,3.4804688 0,2.66015625 1.1484375,3.375 2.0742188,3.375 1.1132812,0 2.0507812,-0.9375 2.0507812,-2.25 z m -0.890625,-0.011719 c 0,0.4804688 0,0.9726563 -0.1640625,1.33593755 C 8.1698281,-0.106375 7.7127969,-0.0595 7.4784219,-0.0595 c -0.6210938,0 -0.9257813,-0.59765625 -0.984375,-0.75 -0.1757813,-0.46875 -0.1757813,-1.265625 -0.1757813,-1.4414063 0,-0.7734375 0.3164063,-1.7695312 1.21875,-1.7695312 0.1523438,0 0.609375,0 0.9257813,0.609375 0.1757812,0.375 0.1757812,0.8789062 0.1757812,1.3710935 z m 0,0"
       style="fill:#000000;fill-opacity:1;fill-rule:nonzero;stroke:none"
       aria-label="16"
       transform="matrix(1.3333333,0,0,1.3333333,184.00533,143.82933)" />
    <path
       id="path22"
       d="M 6.36694,107.02031 50.2565,63.13075"
       style="fill:none;stroke:#000000;stroke-width:0.3985;stroke-linecap:butt;stroke-linejoin:miter;stroke-miterlimit:10;stroke-dasharray:none;stroke-opacity:1"
       transform="matrix(1.3333333,0,0,-1.3333333,28.129333,215.16133)" />
    <path
       id="path23"
       d="m 4.5461016,-3.2820313 c 0,-2.671875 -1.1367188,-3.3515625 -2.0273438,-3.3515625 -0.5507812,0 -1.03125,0.1757813 -1.4648437,0.6210938 -0.41015629,0.4570312 -0.63281254,0.8671875 -0.63281254,1.6171875 0,1.2421875 0.87890624,2.2265625 1.99218754,2.2265625 0.609375,0 1.0078125,-0.421875 1.2421875,-0.9960938 v 0.3164063 c 0,2.33203125 -1.03125,2.7890625 -1.6171875,2.7890625 -0.1640625,0 -0.703125,-0.0234375 -0.9726563,-0.36328125 0.4335938,0 0.515625,-0.28125 0.515625,-0.45703125 0,-0.3046875 -0.234375,-0.4570313 -0.4570312,-0.4570313 -0.16406254,0 -0.45703129,0.09375 -0.45703129,0.4804688 0,0.66796875 0.53906249,1.078125 1.38281249,1.078125 1.2890625,0 2.4960938,-1.359375 2.4960938,-3.5039063 z M 3.6320391,-4.1960938 c 0,0.8320313 -0.3398438,1.7929688 -1.2070313,1.7929688 -0.1640625,0 -0.6210937,0 -0.9257812,-0.6210938 -0.1875,-0.375 -0.1875,-0.8671875 -0.1875,-1.359375 0,-0.5390625 0,-1.0078125 0.2109375,-1.3710937 C 1.7921953,-6.2585938 2.1671953,-6.3875 2.5187578,-6.3875 c 0.4570313,0 0.7851563,0.3398437 0.9609375,0.7851562 0.1171875,0.3164063 0.1523438,0.9492188 0.1523438,1.40625 z m 0,0"
       style="fill:#000000;fill-opacity:1;fill-rule:nonzero;stroke:none"
       aria-label="9"
       transform="matrix(1.3333333,0,0,1.3333333,54.544,115.26667)" />
    <path
       id="path24"
       d="M 6.43712,6.43712 50.2565,50.2565"
       style="fill:none;stroke:#000000;stroke-width:0.3985;stroke-linecap:butt;stroke-linejoin:miter;stroke-miterlimit:10;stroke-dasharray:none;stroke-opacity:1"
       transform="matrix(1.3333333,0,0,-1.3333333,28.129333,215.16133)" />
    <path
       id="path25"
       d="M 4.1727891,-8.203125e-4 V -0.30550781 H 3.8563828 c -0.9023437,0 -0.9257812,-0.1171875 -0.9257812,-0.48046875 V -6.3758203 c 0,-0.234375 0,-0.2578125 -0.234375,-0.2578125 -0.609375,0.6328125 -1.4882813,0.6328125 -1.80468754,0.6328125 v 0.3164062 c 0.19921874,0 0.78515624,0 1.30078124,-0.2578125 v 5.15625004 c 0,0.3515625 -0.035156,0.48046875 -0.9257812,0.48046875 H 0.95013281 V -8.203125e-4 C 1.3016953,-0.03597656 2.1571641,-0.03597656 2.5556016,-0.03597656 c 0.3984375,0 1.265625,0 1.6171875,0.0351562475 z M 9.5634141,-3.1883203 c 0,-0.796875 -0.046875,-1.59375 -0.3984375,-2.3320313 -0.4570313,-0.9609375 -1.2773438,-1.1132812 -1.6875,-1.1132812 -0.5976563,0 -1.3359375,0.2578125 -1.734375,1.1835937 -0.328125,0.6914063 -0.375,1.4648438 -0.375,2.2617188 0,0.75 0.046875,1.640625 0.4453125,2.40234374 0.4335937,0.80859375 1.1601562,1.0078125 1.6523437,1.0078125 0.5390625,0 1.2890625,-0.2109375 1.734375,-1.16015625 C 9.5165391,-1.6297266 9.5634141,-2.4031641 9.5634141,-3.1883203 Z M 8.7313828,-3.3055078 c 0,0.75 0,1.4179687 -0.1054687,2.0625 -0.1523438,0.93749999 -0.7148438,1.2421874875 -1.1601563,1.2421874875 -0.3867187,0 -0.984375,-0.2460937475 -1.1601562,-1.2070312875 -0.1054688,-0.5976562 -0.1054688,-1.5117187 -0.1054688,-2.0976562 0,-0.6445313 0,-1.3007813 0.082031,-1.8398438 0.1875,-1.1835937 0.9257812,-1.265625 1.1835937,-1.265625 0.328125,0 0.984375,0.1757813 1.171875,1.1601563 0.09375,0.5625 0.09375,1.3125 0.09375,1.9453125 z m 0,0"
       style="fill:#000000;fill-opacity:1;fill-rule:nonzero;stroke:none"
       aria-label="10"
       transform="matrix(1.3333333,0,0,1.3333333,47.948,172.38)" />
    <path
       id="path26"
       d="M 107.02031,107.02031 63.13075,63.13075"
       style="fill:none;stroke:#000000;stroke-width:0.3985;stroke-linecap:butt;stroke-linejoin:miter;stroke-miterlimit:10;stroke-dasharray:none;stroke-opacity:1"
       transform="matrix(1.3333333,0,0,-1.3333333,28.129333,215.16133)" />
    <path
       id="path27"
       d="M 4.1713281,3.671875e-4 V -0.30432031 H 3.8549219 c -0.9023438,0 -0.9257813,-0.1171875 -0.9257813,-0.48046875 V -6.3746328 c 0,-0.234375 0,-0.2578125 -0.234375,-0.2578125 -0.609375,0.6328125 -1.4882812,0.6328125 -1.80468747,0.6328125 v 0.3164062 c 0.19921877,0 0.78515627,0 1.30078127,-0.2578125 v 5.15625004 c 0,0.3515625 -0.035156,0.48046875 -0.9257813,0.48046875 H 0.94867188 V 3.671875e-4 C 1.3002344,-0.03478906 2.1557031,-0.03478906 2.5541406,-0.03478906 c 0.3984375,0 1.265625,0 1.6171875,0.0351562475 z M 9.4564844,-1.7340078 H 9.1986719 c -0.046875,0.3046875 -0.1171875,0.73828124 -0.2109375,0.89062499 -0.070312,0.0820313 -0.7265625,0.0820313 -0.9492188,0.0820313 H 6.2455469 L 7.3002344,-1.7926016 c 1.5585937,-1.3710937 2.15625,-1.9101562 2.15625,-2.90625 0,-1.1367187 -0.9023438,-1.9335937 -2.1210938,-1.9335937 -1.125,0 -1.8515625,0.9140625 -1.8515625,1.8046875 0,0.5507812 0.4921875,0.5507812 0.5273438,0.5507812 0.1640625,0 0.515625,-0.1171875 0.515625,-0.5273437 0,-0.2578125 -0.1875,-0.515625 -0.5273438,-0.515625 -0.082031,0 -0.1054687,0 -0.1289062,0.011719 0.2226562,-0.6445312 0.7617187,-1.0195312 1.3359375,-1.0195312 0.9140625,0 1.3359375,0.8085937 1.3359375,1.6289062 0,0.796875 -0.4921875,1.5820313 -1.0429688,2.203125 L 5.5892969,-0.36291406 C 5.4838281,-0.25744531 5.4838281,-0.23400781 5.4838281,3.671875e-4 h 3.6914063 z m 0,0"
       style="fill:#000000;fill-opacity:1;fill-rule:nonzero;stroke:none"
       aria-label="12"
       transform="matrix(1.3333333,0,0,1.3333333,123.58667,97.034667)" />
    <path
       id="path28"
       d="M 107.00139,6.38588 63.13075,50.2565"
       style="fill:none;stroke:#000000;stroke-width:0.3985;stroke-linecap:butt;stroke-linejoin:miter;stroke-miterlimit:10;stroke-dasharray:none;stroke-opacity:1"
       transform="matrix(1.3333333,0,0,-1.3333333,28.129333,215.16133)" />
    <path
       id="path29"
       d="m 4.1705156,0.00105469 v -0.3046875 H 3.8541094 c -0.9023438,0 -0.9257813,-0.1171875 -0.9257813,-0.48046875 V -6.3739453 c 0,-0.234375 0,-0.2578125 -0.234375,-0.2578125 -0.609375,0.6328125 -1.4882812,0.6328125 -1.80468747,0.6328125 v 0.3164062 c 0.19921877,0 0.78515627,0 1.30078127,-0.2578125 v 5.15625004 c 0,0.3515625 -0.035156,0.48046875 -0.9257813,0.48046875 H 0.94785938 v 0.3046875 C 1.2994219,-0.03410156 2.1548906,-0.03410156 2.5533281,-0.03410156 c 0.3984375,0 1.265625,0 1.6171875,0.03515625 z m 5.288086,-2.00390629 c 0,-1.1835937 -0.8203125,-2.1796875 -1.8984375,-2.1796875 -0.4804688,0 -0.9023438,0.1640625 -1.265625,0.5039063 v -1.9335938 c 0.1992187,0.058594 0.5273437,0.1289063 0.84375,0.1289063 1.2304687,0 1.9335937,-0.9140625 1.9335937,-1.0429688 0,-0.058594 -0.035156,-0.1054687 -0.1054687,-0.1054687 0,0 -0.035156,0 -0.082031,0.023437 -0.1992187,0.09375 -0.6796875,0.2929687 -1.3476562,0.2929687 -0.3984375,0 -0.8554688,-0.070312 -1.3242188,-0.28125 -0.082031,-0.023437 -0.1289062,-0.023437 -0.1289062,-0.023437 -0.09375,0 -0.09375,0.082031 -0.09375,0.234375 v 2.953125 c 0,0.1757813 0,0.2578125 0.140625,0.2578125 0.070312,0 0.082031,-0.035156 0.1289062,-0.09375 0.1054688,-0.1523437 0.4804688,-0.6914062 1.2773438,-0.6914062 0.5273437,0 0.7734375,0.4570312 0.8554687,0.6328125 0.1523438,0.375 0.1757813,0.7617187 0.1757813,1.2539062 0,0.3515625 0,0.9492188 -0.234375,1.37109379 -0.2460938,0.38671875 -0.609375,0.64453125 -1.0664063,0.64453125 -0.7265625,0 -1.3007812,-0.52734375 -1.4648437,-1.11328124 0.023437,0.011719 0.058594,0.011719 0.1640625,0.011719 0.328125,0 0.5039062,-0.2460937 0.5039062,-0.4804687 0,-0.2460938 -0.1757812,-0.4921875 -0.5039062,-0.4921875 -0.140625,0 -0.4804688,0.070312 -0.4804688,0.5273437 0,0.85546879 0.6796875,1.82812504 1.7929688,1.82812504 1.1601562,0 2.1796875,-0.9609375 2.1796872,-2.22656284 z m 0,0"
       style="fill:#000000;fill-opacity:1;fill-rule:nonzero;stroke:none"
       aria-label="15"
       transform="matrix(1.3333333,0,0,1.3333333,146.244,190.94)" />
    <path
       id="path30"
       d="m 163.64377,63.13075 -43.88956,43.88956"
       style="fill:none;stroke:#000000;stroke-width:0.3985;stroke-linecap:butt;stroke-linejoin:miter;stroke-miterlimit:10;stroke-dasharray:none;stroke-opacity:1"
       transform="matrix(1.3333333,0,0,-1.3333333,28.129333,215.16133)" />
    <path
       id="path31"
       d="m 4.4759922,-2.0042656 c 0,-1.1835938 -0.8203125,-2.1796875 -1.8984375,-2.1796875 -0.4804688,0 -0.9023438,0.1640625 -1.265625,0.5039062 v -1.9335937 c 0.1992187,0.058594 0.5273437,0.1289062 0.84375,0.1289062 1.2304687,0 1.9335937,-0.9140625 1.9335937,-1.0429687 0,-0.058594 -0.035156,-0.1054688 -0.1054687,-0.1054688 0,0 -0.035156,0 -0.082031,0.023437 -0.1992187,0.09375 -0.6796875,0.2929688 -1.3476562,0.2929688 -0.3984375,0 -0.8554688,-0.070312 -1.3242188,-0.28125 -0.082031,-0.023437 -0.1289062,-0.023437 -0.1289062,-0.023437 -0.09375,0 -0.09375,0.082031 -0.09375,0.234375 v 2.953125 c 0,0.1757812 0,0.2578125 0.140625,0.2578125 0.070312,0 0.082031,-0.035156 0.1289062,-0.09375 0.1054688,-0.1523438 0.4804688,-0.6914063 1.2773438,-0.6914063 0.5273437,0 0.7734375,0.4570313 0.8554687,0.6328125 0.1523438,0.375 0.1757813,0.7617188 0.1757813,1.2539063 0,0.3515625 0,0.9492187 -0.234375,1.37109372 -0.2460938,0.38671875 -0.609375,0.64453125 -1.0664063,0.64453125 -0.7265625,0 -1.30078121,-0.52734375 -1.46484371,-1.11328127 0.0234375,0.011719 0.0585938,0.011719 0.1640625,0.011719 0.32812501,0 0.50390621,-0.2460938 0.50390621,-0.4804688 0,-0.2460937 -0.1757812,-0.4921875 -0.50390621,-0.4921875 -0.140625,0 -0.48046875,0.070312 -0.48046875,0.5273438 0,0.85546872 0.67968746,1.82812497 1.79296876,1.82812497 1.1601562,0 2.1796875,-0.9609375 2.1796872,-2.22656267 z m 0,0"
       style="fill:#000000;fill-opacity:1;fill-rule:nonzero;stroke:none"
       aria-label="5"
       transform="matrix(1.3333333,0,0,1.3333333,221.75467,96.742667)" />
    <path
       id="path32"
       d="M 163.64377,50.2565 119.77315,6.38588"
       style="fill:none;stroke:#000000;stroke-width:0.3985;stroke-linecap:butt;stroke-linejoin:miter;stroke-miterlimit:10;stroke-dasharray:none;stroke-opacity:1"
       transform="matrix(1.3333333,0,0,-1.3333333,28.129333,215.16133)" />
    <path
       id="path33"
       d="m 4.5460937,-1.6747266 c 0,-0.3515625 -0.1054687,-0.8085937 -0.4804687,-1.21875 -0.1875,-0.2109375 -0.3515625,-0.3164062 -0.984375,-0.7148437 0.7148437,-0.3632813 1.2070312,-0.8789063 1.2070312,-1.5351563 0,-0.9257812 -0.890625,-1.4882812 -1.7929687,-1.4882812 -0.9960938,0 -1.8046875,0.7382812 -1.8046875,1.6640625 0,0.1757812 0.0117188,0.6210937 0.4335937,1.0898437 0.1054688,0.1289063 0.4804688,0.375 0.7265625,0.5390625 -0.5742187,0.2929688 -1.42968745,0.84375 -1.42968745,1.8398438 0,1.05468749 1.00781245,1.72265624 2.06249995,1.72265624 1.125,0 2.0625,-0.83203125 2.0625,-1.89843754 z m -0.703125,-3.46875 c 0,0.5625 -0.3867187,1.0429688 -0.984375,1.3945313 L 1.628125,-4.5458203 c -0.46875,-0.3046875 -0.5039063,-0.6445313 -0.5039063,-0.8085938 0,-0.609375 0.6445313,-1.03125 1.359375,-1.03125 0.7265625,0 1.359375,0.515625 1.359375,1.2421875 z m 0.2109375,3.8320313 c 0,0.73828124 -0.75,1.25390624 -1.5585937,1.25390624 -0.8671875,0 -1.58203125,-0.62109375 -1.58203125,-1.44140624 0,-0.5859375 0.31640625,-1.21875 1.17187495,-1.6875 l 1.21875,0.7734375 c 0.28125,0.1875 0.75,0.4921875 0.75,1.1015625 z m 0,0"
       style="fill:#000000;fill-opacity:1;fill-rule:nonzero;stroke:none"
       aria-label="8"
       transform="matrix(1.3333333,0,0,1.3333333,221.76667,190.94)" />
    <path
       id="path34"
       d="M 7.37569,118.55176 C 62.12045,156.88428 170.0809,132.6279 170.0809,65.7971"
       style="fill:none;stroke:#000000;stroke-width:0.3985;stroke-linecap:butt;stroke-linejoin:miter;stroke-miterlimit:10;stroke-dasharray:none;stroke-opacity:1"
       transform="matrix(1.3333333,0,0,-1.3333333,28.129333,215.16133)" />
    <path
       id="path35"
       d="M 4.6875469,-1.6401406 V -1.9565469 H 3.6914531 v -4.5234375 c 0,-0.1992187 0,-0.2578125 -0.1523437,-0.2578125 -0.09375,0 -0.1171875,0 -0.1992188,0.1171875 l -3.05859372,4.6640625 v 0.3164063 H 2.9297344 v 0.86718748 c 0,0.3515625 -0.023437,0.46875 -0.7617188,0.46875 H 1.9570781 V 4.84375e-4 c 0.4101563,-0.035156245 0.9375,-0.035156245 1.3476563,-0.035156245 0.421875,0 0.9492187,0 1.359375,0.035156245 V -0.30420312 H 4.4531719 c -0.7382813,0 -0.7617188,-0.1171875 -0.7617188,-0.46875 V -1.6401406 Z M 2.9883281,-1.9565469 H 0.56254688 L 2.9883281,-5.6713906 Z m 6.46875,-0.046875 c 0,-1.1835937 -0.8203125,-2.1796875 -1.8984375,-2.1796875 -0.4804687,0 -0.9023437,0.1640625 -1.265625,0.5039063 v -1.9335938 c 0.1992188,0.058594 0.5273438,0.1289063 0.84375,0.1289063 1.2304688,0 1.9335938,-0.9140625 1.9335938,-1.0429688 0,-0.058594 -0.035156,-0.1054687 -0.1054688,-0.1054687 0,0 -0.035156,0 -0.082031,0.023437 -0.1992188,0.09375 -0.6796875,0.2929687 -1.3476563,0.2929687 -0.3984375,0 -0.8554687,-0.070312 -1.3242187,-0.28125 -0.082031,-0.023437 -0.1289063,-0.023437 -0.1289063,-0.023437 -0.09375,0 -0.09375,0.082031 -0.09375,0.234375 v 2.953125 c 0,0.1757813 0,0.2578125 0.140625,0.2578125 0.070312,0 0.082031,-0.035156 0.1289063,-0.09375 0.1054687,-0.1523437 0.4804687,-0.6914062 1.2773437,-0.6914062 0.5273438,0 0.7734375,0.4570312 0.8554688,0.6328125 0.1523437,0.375 0.1757812,0.7617187 0.1757812,1.2539062 0,0.3515625 0,0.9492188 -0.234375,1.37109378 -0.2460937,0.38671875 -0.609375,0.64453125 -1.0664062,0.64453125 -0.7265625,0 -1.3007813,-0.52734375 -1.4648438,-1.11328123 0.023437,0.011719 0.058594,0.011719 0.1640625,0.011719 0.328125,0 0.5039063,-0.2460937 0.5039063,-0.4804687 0,-0.2460938 -0.1757813,-0.4921875 -0.5039063,-0.4921875 -0.140625,0 -0.4804687,0.070312 -0.4804687,0.5273437 0,0.85546878 0.6796875,1.82812503 1.7929687,1.82812503 1.1601563,0 2.1796875,-0.9609375 2.1796873,-2.22656283 z m 0,0"
       style="fill:#000000;fill-opacity:1;fill-rule:nonzero;stroke:none"
       aria-label="45"
       transform="matrix(1.3333333,0,0,1.3333333,167.164,34.694667)" />
  </g>
</svg>
