<?xml version="1.0" encoding="UTF-8" standalone="no"?>
<!-- Created with Inkscape (http://www.inkscape.org/) -->

<svg
   version="1.1"
   id="svg1"
   width="402.76001"
   height="325.61334"
   viewBox="0 0 402.76001 325.61334"
   sodipodi:docname="24-25-1-数据结构-期末-题图5.1.pdf"
   xmlns:inkscape="http://www.inkscape.org/namespaces/inkscape"
   xmlns:sodipodi="http://sodipodi.sourceforge.net/DTD/sodipodi-0.dtd"
   xmlns="http://www.w3.org/2000/svg"
   xmlns:svg="http://www.w3.org/2000/svg">
  <defs
     id="defs1" />
  <sodipodi:namedview
     id="namedview1"
     pagecolor="#ffffff"
     bordercolor="#000000"
     borderopacity="0.25"
     inkscape:showpageshadow="2"
     inkscape:pageopacity="0.0"
     inkscape:pagecheckerboard="0"
     inkscape:deskcolor="#d1d1d1">
    <inkscape:page
       x="0"
       y="0"
       inkscape:label="1"
       id="page1"
       width="402.76001"
       height="325.61334"
       margin="0"
       bleed="0" />
  </sodipodi:namedview>
  <g
     id="g1"
     inkscape:groupmode="layer"
     inkscape:label="1">
    <path
       id="path1"
       d="M -110.59442,-229.84529 V 14.3645 h 302.07298 v -244.20979 z"
       style="fill:#ffffff;fill-opacity:1;fill-rule:nonzero;stroke:none"
       transform="matrix(1.3333333,0,0,-1.3333333,147.45733,19.156)" />
    <path
       id="path2"
       d="M 9.8713,0 C 9.8713,5.45183 5.45183,9.8713 0,9.8713 -5.45183,9.8713 -9.8713,5.45183 -9.8713,0 c 0,-5.45183 4.41947,-9.8713 9.8713,-9.8713 5.45183,0 9.8713,4.41947 9.8713,9.8713 z"
       style="fill:none;stroke:#000000;stroke-width:0.3985;stroke-linecap:butt;stroke-linejoin:miter;stroke-miterlimit:10;stroke-dasharray:none;stroke-opacity:1"
       transform="matrix(1.3333333,0,0,-1.3333333,147.45733,19.156)" />
    <path
       id="path3"
       d="m 7.1371406,-0.00138281 v -0.3046875 H 6.9613594 c -0.5976563,0 -0.7382813,-0.0703125 -0.84375,-0.3984375 l -2.15625,-6.23437499 c -0.046875,-0.1289063 -0.070312,-0.1992188 -0.2226563,-0.1992188 -0.1640625,0 -0.1875,0.058594 -0.2460937,0.1992188 l -2.0625,5.96484374 c -0.1757813,0.50390625 -0.57421877,0.65625 -1.11328127,0.66796875 v 0.3046875 l 1.01953127,-0.03515625 1.1484375,0.03515625 v -0.3046875 c -0.5039063,0 -0.75,-0.2578125 -0.75,-0.515625 0,-0.0234375 0.011719,-0.12890625 0.023437,-0.140625 L 2.2152656,-2.2748203 h 2.4609375 l 0.5273438,1.52343749 c 0.011719,0.046875 0.023437,0.10546875 0.023437,0.140625 0,0.3046875 -0.5507813,0.3046875 -0.8203125,0.3046875 v 0.3046875 c 0.351563,-0.03515625 1.054688,-0.03515625 1.429688,-0.03515625 z M 4.5590156,-2.5795078 H 2.3207344 l 1.1132812,-3.234375 z m 0,0"
       style="fill:#000000;fill-opacity:1;fill-rule:nonzero;stroke:none"
       aria-label="A"
       transform="matrix(1.3333333,0,0,1.3333333,142.476,23.912)" />
    <path
       id="path4"
       d="m -32.94148,-42.52022 c 0,5.29024 -4.28847,9.57871 -9.57871,9.57871 -5.29022,0 -9.5787,-4.28847 -9.5787,-9.57871 0,-5.29022 4.28848,-9.5787 9.5787,-9.5787 5.29024,0 9.57871,4.28848 9.57871,9.5787 z"
       style="fill:none;stroke:#000000;stroke-width:0.3985;stroke-linecap:butt;stroke-linejoin:miter;stroke-miterlimit:10;stroke-dasharray:none;stroke-opacity:1"
       transform="matrix(1.3333333,0,0,-1.3333333,147.45733,19.156)" />
    <path
       id="path5"
       d="m 6.4813437,-1.8270859 c 0,-0.8671875 -0.8085937,-1.6054688 -1.921875,-1.7226563 0.9726563,-0.1992187 1.6523438,-0.8320312 1.6523438,-1.5703125 0,-0.8671875 -0.9140625,-1.6875 -2.203125,-1.6875 H 0.36415625 v 0.3164063 h 0.234375 c 0.76171875,0 0.78515625,0.1054687 0.78515625,0.46875 v 5.24999996 c 0,0.3515625 -0.023437,0.46875 -0.78515625,0.46875 h -0.234375 v 0.3046875 H 4.2665 c 1.3242187,0 2.2148437,-0.890625 2.2148437,-1.82812496 z M 5.250875,-5.1200547 c 0,0.6328125 -0.4921875,1.4765625 -1.59375,1.4765625 H 2.2157187 v -2.4492187 c 0,-0.328125 0.011719,-0.3984375 0.4804688,-0.3984375 H 3.938375 c 0.9609375,0 1.3125,0.84375 1.3125,1.3710937 z m 0.234375,3.2929688 c 0,0.703125 -0.515625,1.52343746 -1.5351563,1.52343746 H 2.6961875 c -0.46875,0 -0.4804688,-0.0703125 -0.4804688,-0.3984375 V -3.4208359 h 1.875 c 0.984375,0 1.3945313,0.9257812 1.3945313,1.59375 z m 0,0"
       style="fill:#000000;fill-opacity:1;fill-rule:nonzero;stroke:none"
       aria-label="B"
       transform="matrix(1.3333333,0,0,1.3333333,86.061333,80.385333)" />
    <path
       id="path6"
       d="M -7.45073,-6.77429 -35.60612,-35.60616"
       style="fill:none;stroke:#000000;stroke-width:0.3985;stroke-linecap:butt;stroke-linejoin:miter;stroke-miterlimit:10;stroke-dasharray:none;stroke-opacity:1"
       transform="matrix(1.3333333,0,0,-1.3333333,147.45733,19.156)" />
    <path
       id="path7"
       d="m -54.28596,-85.04044 c 0,5.24363 -4.25069,9.49431 -9.49431,9.49431 -5.24363,0 -9.49431,-4.25068 -9.49431,-9.49431 0,-5.24362 4.25068,-9.4943 9.49431,-9.4943 5.24362,0 9.49431,4.25068 9.49431,9.4943 z"
       style="fill:none;stroke:#000000;stroke-width:0.3985;stroke-linecap:butt;stroke-linejoin:miter;stroke-miterlimit:10;stroke-dasharray:none;stroke-opacity:1"
       transform="matrix(1.3333333,0,0,-1.3333333,147.45733,19.156)" />
    <path
       id="path8"
       d="M 6.4930859,-2.5674609 H 6.2469922 C 6.0008984,-1.0323047 5.7665234,-0.30574219 4.0555859,-0.30574219 H 2.7313672 c -0.46875,0 -0.4921875,-0.0703125 -0.4921875,-0.3984375 V -3.3643359 h 0.9023437 c 0.9609375,0 1.078125,0.3164062 1.078125,1.1601562 H 4.4657422 V -4.8408984 H 4.2196484 c 0,0.8554687 -0.1171875,1.1601562 -1.078125,1.1601562 H 2.2391797 v -2.390625 c 0,-0.328125 0.023437,-0.3984375 0.4921875,-0.3984375 h 1.2890625 c 1.5234375,0 1.7929687,0.5507813 1.9453125,1.9335938 H 6.2118359 L 5.9423047,-6.7744922 H 0.32902344 v 0.3046875 h 0.234375 c 0.77343746,0 0.79687496,0.1171875 0.79687496,0.46875 v 5.22656251 c 0,0.3515625 -0.023437,0.46875 -0.79687496,0.46875 h -0.234375 v 0.3046875 H 6.0829297 Z m 0,0"
       style="fill:#000000;fill-opacity:1;fill-rule:nonzero;stroke:none"
       aria-label="E"
       transform="matrix(1.3333333,0,0,1.3333333,57.893333,137.06)" />
    <path
       id="path9"
       d="M -46.89262,-51.26526 -59.44559,-76.37088"
       style="fill:none;stroke:#000000;stroke-width:0.3985;stroke-linecap:butt;stroke-linejoin:miter;stroke-miterlimit:10;stroke-dasharray:none;stroke-opacity:1"
       transform="matrix(1.3333333,0,0,-1.3333333,147.45733,19.156)" />
    <path
       id="path10"
       d="m -88.06947,-127.56065 c 0,4.97937 -4.0365,9.01587 -9.01587,9.01587 -4.97939,0 -9.01587,-4.0365 -9.01587,-9.01587 0,-4.97939 4.03648,-9.01587 9.01587,-9.01587 4.97937,0 9.01587,4.03648 9.01587,9.01587 z"
       style="fill:none;stroke:#000000;stroke-width:0.3985;stroke-linecap:butt;stroke-linejoin:miter;stroke-miterlimit:10;stroke-dasharray:none;stroke-opacity:1"
       transform="matrix(1.3333333,0,0,-1.3333333,147.45733,19.156)" />
    <path
       id="path11"
       d="m 4.6301484,-6.4934375 v -0.3164062 l -1.2773437,0.035156 c -0.421875,0 -1.3007813,0 -1.6757813,-0.035156 v 0.3164062 h 0.3515625 c 0.984375,0 0.984375,0.1289063 0.984375,0.4804688 v 4.5351562 c 0,0.9140625 -0.5039062,1.4765625 -1.03125,1.4765625 -0.058594,0 -0.7382812,0 -1.08984371,-0.57421875 0.51562501,0 0.63281251,-0.3046875 0.63281251,-0.56249995 0,-0.3632813 -0.28125,-0.5625 -0.56250001,-0.5625 -0.2109375,0 -0.55078125,0.140625 -0.55078125,0.5859375 0,0.7382812 0.70312496,1.33593745 1.59374996,1.33593745 1.0195313,0 1.7460938,-0.703125 1.8515625,-1.45312495 0.011719,-0.070312 0.011719,-0.09375 0.011719,-0.4335938 v -4.4179687 c 0,-0.4101563 0.140625,-0.4101563 0.7617185,-0.4101563 z m 0,0"
       style="fill:#000000;fill-opacity:1;fill-rule:nonzero;stroke:none"
       aria-label="J"
       transform="matrix(1.3333333,0,0,1.3333333,14.596,193.62667)" />
    <path
       id="path12"
       d="M -69.75754,-92.67136 -91.4031,-120.30638"
       style="fill:none;stroke:#000000;stroke-width:0.3985;stroke-linecap:butt;stroke-linejoin:miter;stroke-miterlimit:10;stroke-dasharray:none;stroke-opacity:1"
       transform="matrix(1.3333333,0,0,-1.3333333,147.45733,19.156)" />
    <path
       id="path13"
       d="m -53.92912,-127.56065 c 0,5.44067 -4.41043,9.85112 -9.85112,9.85112 -5.44068,0 -9.85112,-4.41045 -9.85112,-9.85112 0,-5.44069 4.41044,-9.85114 9.85112,-9.85114 5.44069,0 9.85112,4.41045 9.85112,9.85114 z"
       style="fill:none;stroke:#000000;stroke-width:0.3985;stroke-linecap:butt;stroke-linejoin:miter;stroke-miterlimit:10;stroke-dasharray:none;stroke-opacity:1"
       transform="matrix(1.3333333,0,0,-1.3333333,147.45733,19.156)" />
    <path
       id="path14"
       d="M 7.3364375,7.8125e-5 V -0.30460937 c -0.5390625,0 -0.75,-0.046875 -1.0546875,-0.48046875 L 3.984875,-4.1717969 5.7778437,-5.8944531 c 0.082031,-0.082031 0.609375,-0.5859375 1.4179688,-0.5976563 v -0.3164062 c -0.2578125,0.035156 -0.5859375,0.035156 -0.8554688,0.035156 -0.3515625,0 -0.9257812,0 -1.2539062,-0.035156 v 0.3164062 c 0.3984375,0.011719 0.4570312,0.234375 0.4570312,0.328125 0,0.1523438 -0.1054687,0.2578125 -0.1875,0.328125 l -3.1171875,2.9765625 v -3.1640625 c 0,-0.3632812 0.023437,-0.46875 0.7851563,-0.46875 h 0.2460937 v -0.3164062 c -0.3515625,0.035156 -1.0898437,0.035156 -1.4648437,0.035156 -0.375,0 -1.125,0 -1.4765625,-0.035156 v 0.3164062 H 0.563 c 0.7734375,0 0.796875,0.1054688 0.796875,0.46875 v 5.25000003 c 0,0.3515625 -0.023437,0.46875 -0.796875,0.46875 H 0.328625 V 7.8125e-5 C 0.6801875,-0.03507812 1.4184687,-0.03507812 1.7934687,-0.03507812 c 0.375,0 1.125,0 1.4765625,0.035156245 V -0.30460937 H 3.0239375 c -0.7617188,0 -0.7851563,-0.1171875 -0.7851563,-0.46875 V -2.5194531 l 1.1601563,-1.1015625 1.8046875,2.67187498 c 0.058594,0.09375 0.140625,0.22265625 0.140625,0.33984375 0,0.3046875 -0.3867188,0.3046875 -0.5859375,0.3046875 V 7.8125e-5 C 5.109875,-0.03507812 5.813,-0.03507812 6.188,-0.03507812 Z m 0,0"
       style="fill:#000000;fill-opacity:1;fill-rule:nonzero;stroke:none"
       aria-label="K"
       transform="matrix(1.3333333,0,0,1.3333333,57.249333,193.77333)" />
    <path
       id="path15"
       d="m -63.78027,-94.734 3e-5,-22.77628"
       style="fill:none;stroke:#000000;stroke-width:0.3985;stroke-linecap:butt;stroke-linejoin:miter;stroke-miterlimit:10;stroke-dasharray:none;stroke-opacity:1"
       transform="matrix(1.3333333,0,0,-1.3333333,147.45733,19.156)" />
    <path
       id="path16"
       d="m -21.45927,-127.56065 c 0,5.13789 -4.16498,9.30287 -9.30288,9.30287 -5.1379,0 -9.30288,-4.16498 -9.30288,-9.30287 0,-5.13791 4.16498,-9.30289 9.30288,-9.30289 5.1379,0 9.30288,4.16498 9.30288,9.30289 z"
       style="fill:none;stroke:#000000;stroke-width:0.3985;stroke-linecap:butt;stroke-linejoin:miter;stroke-miterlimit:10;stroke-dasharray:none;stroke-opacity:1"
       transform="matrix(1.3333333,0,0,-1.3333333,147.45733,19.156)" />
    <path
       id="path17"
       d="M 5.8005781,-2.5663281 H 5.5427656 C 5.4372969,-1.5585156 5.2966719,-0.30460937 3.5505781,-0.30460937 H 2.7302656 c -0.46875,0 -0.4921875,-0.0703125 -0.4921875,-0.3984375 V -6.0116406 c 0,-0.3398438 0,-0.4804688 0.9492188,-0.4804688 h 0.328125 v -0.3164062 c -0.3632813,0.035156 -1.265625,0.035156 -1.6757813,0.035156 -0.3867187,0 -1.16015623,0 -1.51171873,-0.035156 v 0.3164062 h 0.234375 c 0.77343753,0 0.79687503,0.1054688 0.79687503,0.46875 v 5.25000003 c 0,0.3515625 -0.023437,0.46875 -0.79687503,0.46875 h -0.234375 V 7.8125e-5 H 5.5193281 Z m 0,0"
       style="fill:#000000;fill-opacity:1;fill-rule:nonzero;stroke:none"
       aria-label="L"
       transform="matrix(1.3333333,0,0,1.3333333,102.28933,193.77333)" />
    <path
       id="path18"
       d="m -57.83511,-92.69635 21.24534,-27.35944"
       style="fill:none;stroke:#000000;stroke-width:0.3985;stroke-linecap:butt;stroke-linejoin:miter;stroke-miterlimit:10;stroke-dasharray:none;stroke-opacity:1"
       transform="matrix(1.3333333,0,0,-1.3333333,147.45733,19.156)" />
    <path
       id="path19"
       d="m -11.87642,-85.04044 c 0,5.1825 -4.20114,9.38364 -9.38364,9.38364 -5.18248,0 -9.38362,-4.20114 -9.38362,-9.38364 0,-5.18249 4.20114,-9.38363 9.38362,-9.38363 5.1825,0 9.38364,4.20114 9.38364,9.38363 z"
       style="fill:none;stroke:#000000;stroke-width:0.3985;stroke-linecap:butt;stroke-linejoin:miter;stroke-miterlimit:10;stroke-dasharray:none;stroke-opacity:1"
       transform="matrix(1.3333333,0,0,-1.3333333,147.45733,19.156)" />
    <path
       id="path20"
       d="m 6.0821094,-4.5362109 -0.28125,-2.2382813 H 0.32820312 v 0.3046875 h 0.234375 c 0.77343748,0 0.79687498,0.1171875 0.79687498,0.46875 v 5.22656251 c 0,0.3515625 -0.023437,0.46875 -0.79687498,0.46875 h -0.234375 v 0.3046875 c 0.3515625,-0.03515625 1.12499998,-0.03515625 1.51171878,-0.03515625 0.4101562,0 1.3125,0 1.6757812,0.03515625 v -0.3046875 h -0.328125 c -0.9492187,0 -0.9492187,-0.12890625 -0.9492187,-0.48046875 V -3.2354297 h 0.8554687 c 0.9609375,0 1.0546875,0.3164063 1.0546875,1.1601563 H 4.4063281 V -4.7119922 H 4.1485156 c 0,0.8320313 -0.09375,1.1601563 -1.0546875,1.1601563 H 2.2383594 v -2.5195313 c 0,-0.328125 0.023437,-0.3984375 0.4921875,-0.3984375 h 1.1953125 c 1.4882812,0 1.7460937,0.5625 1.8984375,1.9335938 z m 0,0"
       style="fill:#000000;fill-opacity:1;fill-rule:nonzero;stroke:none"
       aria-label="F"
       transform="matrix(1.3333333,0,0,1.3333333,114.77333,137.06)" />
    <path
       id="path21"
       d="m -38.14775,-51.26526 12.60249,-25.2046"
       style="fill:none;stroke:#000000;stroke-width:0.3985;stroke-linecap:butt;stroke-linejoin:miter;stroke-miterlimit:10;stroke-dasharray:none;stroke-opacity:1"
       transform="matrix(1.3333333,0,0,-1.3333333,147.45733,19.156)" />
    <path
       id="path22"
       d="m -0.34863,-127.56065 c 0,5.71955 -4.63652,10.35606 -10.35608,10.35606 -5.71956,0 -10.35607,-4.63651 -10.35607,-10.35606 0,-5.71958 4.63651,-10.35608 10.35607,-10.35608 5.71956,0 10.35608,4.6365 10.35608,10.35608 z"
       style="fill:none;stroke:#000000;stroke-width:0.3985;stroke-linecap:butt;stroke-linejoin:miter;stroke-miterlimit:10;stroke-dasharray:none;stroke-opacity:1"
       transform="matrix(1.3333333,0,0,-1.3333333,147.45733,19.156)" />
    <path
       id="path23"
       d="M 8.7542188,7.8125e-5 V -0.30460937 h -0.234375 c -0.7734375,0 -0.7851563,-0.1171875 -0.7851563,-0.46875 V -6.0233594 c 0,-0.3632812 0.011719,-0.46875 0.7851563,-0.46875 h 0.234375 V -6.8085156 H 7.0784375 c -0.2695312,0 -0.2695312,0.011719 -0.3398437,0.1992187 l -2.1796875,5.6015625 -2.15625,-5.578125 C 2.3089063,-6.8085156 2.2854688,-6.8085156 2.0510938,-6.8085156 H 0.36359375 v 0.3164062 H 0.6096875 c 0.7617188,0 0.7851563,0.1054688 0.7851563,0.46875 v 4.9804688 c 0,0.26953123 0,0.73828123 -1.03125005,0.73828123 V 7.8125e-5 L 1.5354688,-0.03507812 2.695625,7.8125e-5 V -0.30460937 c -1.0195312,0 -1.0195312,-0.46875 -1.0195312,-0.73828123 v -5.3671875 h 0.011719 l 2.4023438,6.18749998 c 0.046875,0.12890625 0.09375,0.222656245 0.1992187,0.222656245 0.1054688,0 0.1289063,-0.082031245 0.1757813,-0.187499995 L 6.914375,-6.4921094 h 0.011719 v 5.71875003 c 0,0.3515625 -0.023437,0.46875 -0.7851563,0.46875 H 5.8948438 V 7.8125e-5 c 0.375,-0.035156245 1.0429687,-0.035156245 1.4414062,-0.035156245 0.3867188,0 1.0546875,0 1.4179688,0.035156245 z m 0,0"
       style="fill:#000000;fill-opacity:1;fill-rule:nonzero;stroke:none"
       aria-label="M"
       transform="matrix(1.3333333,0,0,1.3333333,127.09333,193.77333)" />
    <path
       id="path24"
       d="m -18.95148,-94.34096 5.70394,-22.97539"
       style="fill:none;stroke:#000000;stroke-width:0.3985;stroke-linecap:butt;stroke-linejoin:miter;stroke-miterlimit:10;stroke-dasharray:none;stroke-opacity:1"
       transform="matrix(1.3333333,0,0,-1.3333333,147.45733,19.156)" />
    <path
       id="path25"
       d="m 8.91902,-170.08089 c 0,5.364 -4.34825,9.71225 -9.71222,9.71225 -5.364,0 -9.71225,-4.34825 -9.71225,-9.71225 0,-5.36398 4.34825,-9.71223 9.71225,-9.71223 5.36397,0 9.71222,4.34825 9.71222,9.71223 z"
       style="fill:none;stroke:#000000;stroke-width:0.3985;stroke-linecap:butt;stroke-linejoin:miter;stroke-miterlimit:10;stroke-dasharray:none;stroke-opacity:1"
       transform="matrix(1.3333333,0,0,-1.3333333,147.45733,19.156)" />
    <path
       id="path26"
       d="m 7.1361953,-6.4935547 v -0.3164062 l -1.171875,0.035156 -1.1601562,-0.035156 v 0.3164062 c 1.0195312,0 1.0195312,0.46875 1.0195312,0.7382813 v 4.2539062 l -3.515625,-5.1796875 c -0.082031,-0.1171875 -0.09375,-0.1289062 -0.28125,-0.1289062 H 0.32760156 v 0.3164062 h 0.29296875 c 0.140625,0 0.33984375,0.011719 0.49218749,0.011719 0.234375,0.035156 0.2460938,0.046875 0.2460938,0.234375 v 5.203125 c 0,0.26953121 0,0.73828121 -1.03125004,0.73828121 v 0.3046875 l 1.17187504,-0.03515625 1.1601562,0.03515625 v -0.3046875 c -1.03125,0 -1.03125,-0.46875 -1.03125,-0.73828121 v -5.1796875 c 0.058594,0.046875 0.070312,0.058594 0.1054688,0.1171875 l 4.0664062,5.97656246 c 0.082031,0.1171875 0.09375,0.12890625 0.1640625,0.12890625 0.140625,0 0.140625,-0.0703125 0.140625,-0.2578125 V -5.7552734 c 0,-0.2695313 0,-0.7382813 1.03125,-0.7382813 z m 0,0"
       style="fill:#000000;fill-opacity:1;fill-rule:nonzero;stroke:none"
       aria-label="N"
       transform="matrix(1.3333333,0,0,1.3333333,141.41867,250.46667)" />
    <path
       id="path27"
       d="m -8.30861,-137.83992 5.26546,-22.5887"
       style="fill:none;stroke:#000000;stroke-width:0.3985;stroke-linecap:butt;stroke-linejoin:miter;stroke-miterlimit:10;stroke-dasharray:none;stroke-opacity:1"
       transform="matrix(1.3333333,0,0,-1.3333333,147.45733,19.156)" />
    <path
       id="path28"
       d="m 9.76456,-42.52022 c 0,5.39287 -4.37166,9.76454 -9.76454,9.76454 -5.39286,0 -9.76452,-4.37167 -9.76452,-9.76454 0,-5.39287 4.37166,-9.76452 9.76452,-9.76452 5.39288,0 9.76454,4.37165 9.76454,9.76452 z"
       style="fill:none;stroke:#000000;stroke-width:0.3985;stroke-linecap:butt;stroke-linejoin:miter;stroke-miterlimit:10;stroke-dasharray:none;stroke-opacity:1"
       transform="matrix(1.3333333,0,0,-1.3333333,147.45733,19.156)" />
    <path
       id="path29"
       d="m 6.6202109,-2.3202734 c 0,-0.1054688 0,-0.1757813 -0.1289062,-0.1757813 -0.1054688,0 -0.1054688,0.070312 -0.1171875,0.1640625 -0.082031,1.42968751 -1.1484375,2.23828126 -2.2265625,2.23828126 -0.609375,0 -2.5664063,-0.33984375 -2.5664063,-3.30468746 0,-2.9765625 1.9453125,-3.3164063 2.5546875,-3.3164063 1.078125,0 1.96875,0.9023438 2.1679688,2.3671875 0.023437,0.1289063 0.023437,0.1640625 0.1640625,0.1640625 0.1523437,0 0.1523437,-0.035156 0.1523437,-0.234375 v -2.3671875 c 0,-0.1640625 0,-0.234375 -0.1054687,-0.234375 -0.035156,0 -0.082031,0 -0.1640625,0.1171875 l -0.4921875,0.7382813 c -0.375,-0.3632813 -0.8789063,-0.8554688 -1.8398438,-0.8554688 -1.8632812,0 -3.45703121,1.5820313 -3.45703121,3.609375 0,2.0625 1.60546871,3.63281251 3.45703121,3.63281251 1.6289063,0 2.6015625,-1.38281251 2.6015625,-2.54296871 z m 0,0"
       style="fill:#000000;fill-opacity:1;fill-rule:nonzero;stroke:none"
       aria-label="C"
       transform="matrix(1.3333333,0,0,1.3333333,142.66133,80.386667)" />
    <path
       id="path30"
       d="M 0,-10.07056 2e-5,-32.55643"
       style="fill:none;stroke:#000000;stroke-width:0.3985;stroke-linecap:butt;stroke-linejoin:miter;stroke-miterlimit:10;stroke-dasharray:none;stroke-opacity:1"
       transform="matrix(1.3333333,0,0,-1.3333333,147.45733,19.156)" />
    <path
       id="path31"
       d="m 10.0061,-85.04044 c 0,5.52625 -4.47981,10.00606 -10.00607,10.00606 -5.52623,0 -10.00604,-4.47981 -10.00604,-10.00606 0,-5.52626 4.47981,-10.00606 10.00604,-10.00606 5.52626,0 10.00607,4.4798 10.00607,10.00606 z"
       style="fill:none;stroke:#000000;stroke-width:0.3985;stroke-linecap:butt;stroke-linejoin:miter;stroke-miterlimit:10;stroke-dasharray:none;stroke-opacity:1"
       transform="matrix(1.3333333,0,0,-1.3333333,147.45733,19.156)" />
    <path
       id="path32"
       d="m 7.3228594,-2.4154687 v -0.3046875 l -1.21875,0.023437 c -0.3984375,0 -1.2421875,0 -1.6054688,-0.023437 v 0.3046875 h 0.3164063 c 0.9023437,0 0.9257812,0.1171875 0.9257812,0.4804687 v 0.6328125 c 0,1.125 -1.2539062,1.20703125 -1.5351562,1.20703125 -0.65625,0 -2.625,-0.33984375 -2.625,-3.31640625 0,-2.9765625 1.96875,-3.3046875 2.5664062,-3.3046875 1.0664063,0 1.96875,0.9023438 2.1679688,2.3671875 0.023437,0.1289063 0.023437,0.1640625 0.1640625,0.1640625 0.1523437,0 0.1523437,-0.035156 0.1523437,-0.234375 v -2.3671875 c 0,-0.1640625 0,-0.234375 -0.1054687,-0.234375 -0.046875,0 -0.082031,0 -0.1640625,0.1171875 L 5.8697344,-6.1654687 C 5.5416094,-6.481875 5.0142656,-7.0209375 4.0181719,-7.0209375 c -1.8515625,0 -3.45703127,1.5703125 -3.45703127,3.609375 0,2.0507813 1.59374997,3.6328125 3.48046877,3.6328125 0.7265625,0 1.5234375,-0.2578125 1.8632812,-0.85546875 0.1289063,0.22265625 0.5273438,0.62109375 0.6328125,0.62109375 0.09375,0 0.09375,-0.08203125 0.09375,-0.22265625 V -1.9701562 c 0,-0.3867188 0.046875,-0.4453125 0.6914063,-0.4453125 z m 0,0"
       style="fill:#000000;fill-opacity:1;fill-rule:nonzero;stroke:none"
       aria-label="G"
       transform="matrix(1.3333333,0,0,1.3333333,142.244,137.08)" />
    <path
       id="path33"
       d="m 2e-5,-52.48401 1e-5,-22.3511"
       style="fill:none;stroke:#000000;stroke-width:0.3985;stroke-linecap:butt;stroke-linejoin:miter;stroke-miterlimit:10;stroke-dasharray:none;stroke-opacity:1"
       transform="matrix(1.3333333,0,0,-1.3333333,147.45733,19.156)" />
    <path
       id="path34"
       d="m 52.32832,-42.52022 c 0,5.41692 -4.39117,9.80808 -9.80807,9.80808 -5.41692,0 -9.80808,-4.39116 -9.80808,-9.80808 0,-5.4169 4.39116,-9.80808 9.80808,-9.80808 5.4169,0 9.80807,4.39118 9.80807,9.80808 z"
       style="fill:none;stroke:#000000;stroke-width:0.3985;stroke-linecap:butt;stroke-linejoin:miter;stroke-miterlimit:10;stroke-dasharray:none;stroke-opacity:1"
       transform="matrix(1.3333333,0,0,-1.3333333,147.45733,19.156)" />
    <path
       id="path35"
       d="m 7.0416328,-3.3505234 c 0,-1.8867188 -1.3476562,-3.4570313 -3.046875,-3.4570313 H 0.35022656 v 0.3164063 h 0.234375 c 0.77343754,0 0.78515624,0.1054687 0.78515624,0.46875 v 5.24999996 c 0,0.3515625 -0.011719,0.46875 -0.78515624,0.46875 h -0.234375 v 0.3046875 H 3.9947578 c 1.6757813,0 3.046875,-1.47656246 3.046875,-3.35156246 z m -0.9960937,0 c 0,1.1132812 -0.1875,1.7109375 -0.5507813,2.1914062 -0.1992187,0.26953126 -0.7617187,0.85546876 -1.7695312,0.85546876 H 2.7174141 c -0.46875,0 -0.4921875,-0.0703125 -0.4921875,-0.3984375 V -6.0927109 c 0,-0.328125 0.023437,-0.3984375 0.4921875,-0.3984375 h 0.9960937 c 0.6210938,0 1.3007813,0.2109375 1.8164063,0.9257812 0.421875,0.5859375 0.515625,1.4414063 0.515625,2.2148438 z m 0,0"
       style="fill:#000000;fill-opacity:1;fill-rule:nonzero;stroke:none"
       aria-label="D"
       transform="matrix(1.3333333,0,0,1.3333333,199.076,80.385333)" />
    <path
       id="path36"
       d="M 7.12096,-7.12096 35.444,-35.44397"
       style="fill:none;stroke:#000000;stroke-width:0.3985;stroke-linecap:butt;stroke-linejoin:miter;stroke-miterlimit:10;stroke-dasharray:none;stroke-opacity:1"
       transform="matrix(1.3333333,0,0,-1.3333333,147.45733,19.156)" />
    <path
       id="path37"
       d="m 30.9724,-85.04044 c 0,5.36399 -4.34825,9.71224 -9.71224,9.71224 -5.364,0 -9.71225,-4.34825 -9.71225,-9.71224 0,-5.36398 4.34825,-9.71223 9.71225,-9.71223 5.36399,0 9.71224,4.34825 9.71224,9.71223 z"
       style="fill:none;stroke:#000000;stroke-width:0.3985;stroke-linecap:butt;stroke-linejoin:miter;stroke-miterlimit:10;stroke-dasharray:none;stroke-opacity:1"
       transform="matrix(1.3333333,0,0,-1.3333333,147.45733,19.156)" />
    <path
       id="path38"
       d="m 7.1378828,-0.00140625 v -0.3046875 H 6.8917891 c -0.7617188,0 -0.7851563,-0.1171875 -0.7851563,-0.46875 V -6.0248437 c 0,-0.3632813 0.023437,-0.46875 0.7851563,-0.46875 H 7.1378828 V -6.81 c -0.3515625,0.035156 -1.0898437,0.035156 -1.4648437,0.035156 -0.3867188,0 -1.125,0 -1.4765625,-0.035156 v 0.3164063 h 0.234375 c 0.7734375,0 0.7851562,0.1054687 0.7851562,0.46875 v 2.3320312 H 2.2394453 v -2.3320312 c 0,-0.3632813 0.023437,-0.46875 0.7851563,-0.46875 H 3.2706953 V -6.81 c -0.3515625,0.035156 -1.0898437,0.035156 -1.4648437,0.035156 -0.375,0 -1.12500004,0 -1.47656254,-0.035156 v 0.3164063 h 0.234375 c 0.77343754,0 0.79687504,0.1054687 0.79687504,0.46875 v 5.24999995 c 0,0.3515625 -0.023437,0.46875 -0.79687504,0.46875 h -0.234375 v 0.3046875 C 0.68085156,-0.0365625 1.4191328,-0.0365625 1.7941328,-0.0365625 c 0.375,0 1.125,0 1.4765625,0.03515625 v -0.3046875 H 3.0246016 c -0.7617188,0 -0.7851563,-0.1171875 -0.7851563,-0.46875 V -3.388125 h 2.9765625 v 2.61328125 c 0,0.3515625 -0.011719,0.46875 -0.7851562,0.46875 h -0.234375 v 0.3046875 C 4.5480391,-0.0365625 5.2863203,-0.0365625 5.6613203,-0.0365625 c 0.375,0 1.125,0 1.4765625,0.03515625 z m 0,0"
       style="fill:#000000;fill-opacity:1;fill-rule:nonzero;stroke:none"
       aria-label="H"
       transform="matrix(1.3333333,0,0,1.3333333,170.82267,137.08)" />
    <path
       id="path39"
       d="M 38.04524,-51.4704 25.6923,-76.17596"
       style="fill:none;stroke:#000000;stroke-width:0.3985;stroke-linecap:butt;stroke-linejoin:miter;stroke-miterlimit:10;stroke-dasharray:none;stroke-opacity:1"
       transform="matrix(1.3333333,0,0,-1.3333333,147.45733,19.156)" />
    <path
       id="path40"
       d="m 31.27208,-127.56065 c 0,5.52948 -4.48242,10.0119 -10.0119,10.0119 -5.5295,0 -10.0119,-4.48242 -10.0119,-10.0119 0,-5.5295 4.4824,-10.01191 10.0119,-10.01191 5.52948,0 10.0119,4.48241 10.0119,10.01191 z"
       style="fill:none;stroke:#000000;stroke-width:0.3985;stroke-linecap:butt;stroke-linejoin:miter;stroke-miterlimit:10;stroke-dasharray:none;stroke-opacity:1"
       transform="matrix(1.3333333,0,0,-1.3333333,147.45733,19.156)" />
    <path
       id="path41"
       d="m 7.1831328,-3.3749219 c 0,-2.0390625 -1.5,-3.6445312 -3.3164062,-3.6445312 -1.78125,0 -3.30468754,1.59375 -3.30468754,3.6445312 0,2.0390625 1.53515624,3.59765628 3.30468754,3.59765628 1.8164062,0 3.3164062,-1.58203128 3.3164062,-3.59765628 z m -1.03125,-0.140625 c 0,2.63671878 -1.359375,3.48046878 -2.2734375,3.48046878 -0.9609375,0 -2.296875,-0.87890625 -2.296875,-3.48046878 0,-2.578125 1.453125,-3.2578125 2.2851563,-3.2578125 0.8671875,0 2.2851562,0.703125 2.2851562,3.2578125 z m 0,0"
       style="fill:#000000;fill-opacity:1;fill-rule:nonzero;stroke:none"
       aria-label="O"
       transform="matrix(1.3333333,0,0,1.3333333,170.63733,193.77333)" />
    <path
       id="path42"
       d="m 21.26016,-94.95193 2e-5,-22.39757"
       style="fill:none;stroke:#000000;stroke-width:0.3985;stroke-linecap:butt;stroke-linejoin:miter;stroke-miterlimit:10;stroke-dasharray:none;stroke-opacity:1"
       transform="matrix(1.3333333,0,0,-1.3333333,147.45733,19.156)" />
    <path
       id="path43"
       d="m 63.58113,-85.04044 c 0,4.6594 -3.7771,8.4365 -8.43649,8.4365 -4.6594,0 -8.43649,-3.7771 -8.43649,-8.4365 0,-4.65939 3.77709,-8.43649 8.43649,-8.43649 4.65939,0 8.43649,3.7771 8.43649,8.43649 z"
       style="fill:none;stroke:#000000;stroke-width:0.3985;stroke-linecap:butt;stroke-linejoin:miter;stroke-miterlimit:10;stroke-dasharray:none;stroke-opacity:1"
       transform="matrix(1.3333333,0,0,-1.3333333,147.45733,19.156)" />
    <path
       id="path44"
       d="m 3.3168594,-0.00140625 v -0.3046875 H 3.0590469 c -0.7851563,0 -0.8203125,-0.1171875 -0.8203125,-0.46875 V -6.0248437 c 0,-0.3632813 0.035156,-0.46875 0.8203125,-0.46875 H 3.3168594 V -6.81 c -0.3515625,0.035156 -1.1367188,0.035156 -1.5117188,0.035156 -0.3867187,0 -1.17187497,0 -1.52343747,-0.035156 v 0.3164063 h 0.2578125 c 0.78515627,0 0.82031247,0.1054687 0.82031247,0.46875 v 5.24999995 c 0,0.3515625 -0.035156,0.46875 -0.82031247,0.46875 h -0.2578125 v 0.3046875 C 0.63326563,-0.0365625 1.4184219,-0.0365625 1.7934219,-0.0365625 c 0.3867187,0 1.171875,0 1.5234375,0.03515625 z m 0,0"
       style="fill:#000000;fill-opacity:1;fill-rule:nonzero;stroke:none"
       aria-label="I"
       transform="matrix(1.3333333,0,0,1.3333333,218.58533,137.08)" />
    <path
       id="path45"
       d="m 45.3684,-52.1131 7.31846,-24.64921"
       style="fill:none;stroke:#000000;stroke-width:0.3985;stroke-linecap:butt;stroke-linejoin:miter;stroke-miterlimit:10;stroke-dasharray:none;stroke-opacity:1"
       transform="matrix(1.3333333,0,0,-1.3333333,147.45733,19.156)" />
    <path
       id="path46"
       d="m 122.89558,0 c 0,5.2514 -4.25698,9.5084 -9.5084,9.5084 -5.25142,0 -9.50843,-4.257 -9.50843,-9.5084 0,-5.2514 4.25701,-9.5084 9.50843,-9.5084 5.25142,0 9.5084,4.257 9.5084,9.5084 z"
       style="fill:none;stroke:#000000;stroke-width:0.3985;stroke-linecap:butt;stroke-linejoin:miter;stroke-miterlimit:10;stroke-dasharray:none;stroke-opacity:1"
       transform="matrix(1.3333333,0,0,-1.3333333,147.45733,19.156)" />
    <path
       id="path47"
       d="m 6.2108281,-4.9457578 c 0,-0.984375 -0.984375,-1.8632813 -2.34375,-1.8632813 H 0.35145312 v 0.3164063 h 0.234375 c 0.77343748,0 0.78515628,0.1054687 0.78515628,0.46875 v 5.24999999 c 0,0.3515625 -0.011719,0.46875 -0.78515628,0.46875 h -0.234375 V -4.453125e-4 C 0.70301562,-0.03560156 1.4295781,-0.03560156 1.8162969,-0.03560156 c 0.375,0 1.125,0 1.4765625,0.0351562475 V -0.30513281 H 3.0467656 c -0.7617187,0 -0.7851562,-0.1171875 -0.7851562,-0.46875 V -3.1527891 h 1.6875 c 1.1953125,0 2.2617187,-0.796875 2.2617187,-1.7929687 z m -1.0195312,0 c 0,0.4570312 0,1.5351562 -1.5820313,1.5351562 H 2.2264531 v -2.6835937 c 0,-0.328125 0.023437,-0.3984375 0.4921875,-0.3984375 h 0.890625 c 1.5820313,0 1.5820313,1.0546875 1.5820313,1.546875 z m 0,0"
       style="fill:#000000;fill-opacity:1;fill-rule:nonzero;stroke:none"
       aria-label="P"
       transform="matrix(1.3333333,0,0,1.3333333,294.11733,23.692)" />
    <path
       id="path48"
       d="m 102.74658,-42.52022 c 0,5.86507 -4.75444,10.61949 -10.6195,10.61949 -5.86506,0 -10.6195,-4.75442 -10.6195,-10.61949 0,-5.86505 4.75444,-10.61949 10.6195,-10.61949 5.86506,0 10.6195,4.75444 10.6195,10.61949 z"
       style="fill:none;stroke:#000000;stroke-width:0.3985;stroke-linecap:butt;stroke-linejoin:miter;stroke-miterlimit:10;stroke-dasharray:none;stroke-opacity:1"
       transform="matrix(1.3333333,0,0,-1.3333333,147.45733,19.156)" />
    <path
       id="path49"
       d="m 7.2409375,0.10410938 c 0,-0.10546875 0,-0.2109375 -0.1054687,-0.2109375 -0.09375,0 -0.1054688,0.0703125 -0.1171875,0.17578125 -0.058594,0.5390625 -0.4804688,0.83203125 -0.9023438,0.83203125 -0.46875,0 -0.7148437,-0.33984375 -0.9609375,-0.97265625 1.1835938,-0.52734375 2.0273438,-1.80468753 2.0273438,-3.30468753 0,-2.0390625 -1.5,-3.6445312 -3.3164063,-3.6445312 -1.78125,0 -3.3046875,1.59375 -3.3046875,3.6445312 0,2.015625 1.5,3.59765628 3.3164063,3.59765628 0.3046875,0 0.65625,-0.0585938 0.9375,-0.15234375 C 4.9675,1.0181719 5.108125,1.9322344 6.0339063,1.9322344 c 1.0195312,0 1.2070312,-1.32421877 1.2070312,-1.82812502 z M 6.18625,-3.3763594 c 0,0.7734375 -0.1171875,2.1796875 -1.171875,2.95312503 -0.2226562,-0.55078125 -0.5390625,-1.05468753 -1.125,-1.05468753 -0.515625,0 -0.8203125,0.4335938 -0.8203125,0.84375003 0,0.26953125 0.1289063,0.45703125 0.140625,0.46875 C 2.670625,-0.36464062 1.5573438,-1.0912031 1.5573438,-3.3763594 c 0,-2.5898437 1.3945312,-3.3984375 2.3085937,-3.3984375 0.9609375,0 2.3203125,0.8554688 2.3203125,3.3984375 z m -1.4414062,3.11718753 c -0.328125,0.1875 -0.65625,0.22265625 -0.8671875,0.22265625 -0.515625,0 -0.5859375,-0.45703125 -0.5859375,-0.59765625 0,-0.29296875 0.1992187,-0.62109373 0.5976562,-0.62109373 0.5273438,0 0.75,0.42187498 0.8554688,0.99609373 z m 0,0"
       style="fill:#000000;fill-opacity:1;fill-rule:nonzero;stroke:none"
       aria-label="Q"
       transform="matrix(1.3333333,0,0,1.3333333,265.12667,79.244)" />
    <path
       id="path50"
       d="M 109.04617,-8.68216 96.96495,-32.84435"
       style="fill:none;stroke:#000000;stroke-width:0.3985;stroke-linecap:butt;stroke-linejoin:miter;stroke-miterlimit:10;stroke-dasharray:none;stroke-opacity:1"
       transform="matrix(1.3333333,0,0,-1.3333333,147.45733,19.156)" />
    <path
       id="path51"
       d="m 144.42108,-42.52022 c 0,5.39797 -4.37581,9.77378 -9.77377,9.77378 -5.39797,0 -9.77379,-4.37581 -9.77379,-9.77378 0,-5.39796 4.37582,-9.77377 9.77379,-9.77377 5.39796,0 9.77377,4.37581 9.77377,9.77377 z"
       style="fill:none;stroke:#000000;stroke-width:0.3985;stroke-linecap:butt;stroke-linejoin:miter;stroke-miterlimit:10;stroke-dasharray:none;stroke-opacity:1"
       transform="matrix(1.3333333,0,0,-1.3333333,147.45733,19.156)" />
    <path
       id="path52"
       d="m 7.2883047,-0.88019531 c 0,-0.0585938 0,-0.16406249 -0.1289063,-0.16406249 -0.1054687,0 -0.1054687,0.0820312 -0.1171875,0.15234374 -0.058594,0.71484375 -0.4101562,0.890625 -0.65625,0.890625 -0.4921875,0 -0.5742187,-0.50390625 -0.703125,-1.42968754 l -0.140625,-0.796875 c -0.1757812,-0.6445312 -0.65625,-0.9726562 -1.2070312,-1.1601562 0.9609375,-0.234375 1.7460937,-0.84375 1.7460937,-1.6289063 0,-0.9492187 -1.1367187,-1.7929687 -2.6015625,-1.7929687 H 0.35080469 v 0.3164062 h 0.234375 c 0.77343751,0 0.78515621,0.1054688 0.78515621,0.46875 v 5.25000004 c 0,0.3515625 -0.011719,0.46875 -0.78515621,0.46875 h -0.234375 v 0.3046875 c 0.3515625,-0.03515625 1.06640621,-0.03515625 1.45312501,-0.03515625 0.3867187,0 1.0898437,0 1.453125,0.03515625 v -0.3046875 h -0.234375 c -0.7734375,0 -0.796875,-0.1171875 -0.796875,-0.46875 V -3.2942578 h 1.1484375 c 0.1640625,0 0.5742187,0 0.9257812,0.3398437 0.3867188,0.3515625 0.3867188,0.65625 0.3867188,1.3242188 0,0.65624999 0,1.05468749 0.3984375,1.42968749 0.4101562,0.36328125 0.9609375,0.421875 1.2539062,0.421875 0.7851563,0 0.9492188,-0.8203125 0.9492188,-1.1015625 z M 5.0500234,-5.0169141 c 0,0.6914063 -0.234375,1.5 -1.7109375,1.5 H 2.2258047 v -2.578125 c 0,-0.234375 0,-0.3515625 0.2226562,-0.3867187 0.1054688,-0.011719 0.3867188,-0.011719 0.5859375,-0.011719 0.9023438,0 2.015625,0.035156 2.015625,1.4765627 z m 0,0"
       style="fill:#000000;fill-opacity:1;fill-rule:nonzero;stroke:none"
       aria-label="R"
       transform="matrix(1.3333333,0,0,1.3333333,322.09867,80.24)" />
    <path
       id="path53"
       d="m 117.72816,-8.68216 12.45948,-24.91855"
       style="fill:none;stroke:#000000;stroke-width:0.3985;stroke-linecap:butt;stroke-linejoin:miter;stroke-miterlimit:10;stroke-dasharray:none;stroke-opacity:1"
       transform="matrix(1.3333333,0,0,-1.3333333,147.45733,19.156)" />
    <path
       id="path54"
       d="m 101.33513,-85.04044 c 0,5.0855 -4.12251,9.20803 -9.20803,9.20803 -5.08549,0 -9.208,-4.12253 -9.208,-9.20803 0,-5.08551 4.12251,-9.20802 9.208,-9.20802 5.08552,0 9.20803,4.12251 9.20803,9.20802 z"
       style="fill:none;stroke:#000000;stroke-width:0.3985;stroke-linecap:butt;stroke-linejoin:miter;stroke-miterlimit:10;stroke-dasharray:none;stroke-opacity:1"
       transform="matrix(1.3333333,0,0,-1.3333333,147.45733,19.156)" />
    <path
       id="path55"
       d="m 4.9699219,-1.8529687 c 0,-0.9960938 -0.65625,-1.8164063 -1.4882813,-2.015625 L 2.2042969,-4.1732812 C 1.5832031,-4.325625 1.1964844,-4.8646875 1.1964844,-5.4389062 c 0,-0.703125 0.5390625,-1.3007813 1.3125,-1.3007813 1.6640625,0 1.8867187,1.6289063 1.9453125,2.0742188 0.011719,0.058594 0.011719,0.1171875 0.1171875,0.1171875 0.1289062,0 0.1289062,-0.046875 0.1289062,-0.234375 v -2.0039063 c 0,-0.1640625 0,-0.234375 -0.1054687,-0.234375 -0.070312,0 -0.082031,0.011719 -0.1523438,0.1289063 l -0.3515625,0.5625 c -0.2929687,-0.28125 -0.703125,-0.6914063 -1.59375,-0.6914063 -1.1015625,0 -1.93359373,0.8789063 -1.93359373,1.9335938 0,0.8203125 0.52734373,1.546875 1.30078123,1.8164062 0.1054688,0.046875 0.6210938,0.1640625 1.3125,0.328125 0.2695313,0.070312 0.5742188,0.140625 0.84375,0.515625 0.2109375,0.2578125 0.3164063,0.5859375 0.3164063,0.9140625 0,0.703125 -0.5039063,1.41796875 -1.3359375,1.41796875 -0.2929688,0 -1.0429688,-0.046875 -1.5703125,-0.5390625 C 0.84492187,-1.1615625 0.82148437,-1.8060937 0.80976562,-2.1576562 0.79804687,-2.263125 0.71601562,-2.263125 0.69257812,-2.263125 c -0.12890625,0 -0.12890625,0.070312 -0.12890625,0.2460938 v 1.99218745 c 0,0.17578125 0,0.24609375 0.10546875,0.24609375 0.0703125,0 0.0820313,-0.0234375 0.15234375,-0.12890625 0,0 0.0234375,-0.046875 0.35156253,-0.57421875 0.3164062,0.33984375 0.9492187,0.703125 1.8398437,0.703125 1.1601563,0 1.9570313,-0.984375 1.9570313,-2.0742187 z m 0,0"
       style="fill:#000000;fill-opacity:1;fill-rule:nonzero;stroke:none"
       aria-label="S"
       transform="matrix(1.3333333,0,0,1.3333333,266.6,137.08)" />
    <path
       id="path56"
       d="M 127.5953,-49.57222 98.77905,-78.38849"
       style="fill:none;stroke:#000000;stroke-width:0.3985;stroke-linecap:butt;stroke-linejoin:miter;stroke-miterlimit:10;stroke-dasharray:none;stroke-opacity:1"
       transform="matrix(1.3333333,0,0,-1.3333333,147.45733,19.156)" />
    <path
       id="path57"
       d="m 144.27104,-85.04044 c 0,5.31508 -4.30862,9.62371 -9.6237,9.62371 -5.3151,0 -9.6237,-4.30863 -9.6237,-9.62371 0,-5.31507 4.3086,-9.6237 9.6237,-9.6237 5.31508,0 9.6237,4.30863 9.6237,9.6237 z"
       style="fill:none;stroke:#000000;stroke-width:0.3985;stroke-linecap:butt;stroke-linejoin:miter;stroke-miterlimit:10;stroke-dasharray:none;stroke-opacity:1"
       transform="matrix(1.3333333,0,0,-1.3333333,147.45733,19.156)" />
    <path
       id="path58"
       d="m 6.8198672,-4.5007031 -0.1875,-2.2382813 H 0.55033594 l -0.1875,2.2382813 h 0.24609375 c 0.140625,-1.6054688 0.29296875,-1.9335938 1.79296871,-1.9335938 0.1757813,0 0.4335938,0 0.5390625,0.023437 0.2109375,0.035156 0.2109375,0.140625 0.2109375,0.375 v 5.25000003 c 0,0.33984375 0,0.48046875 -1.0546875,0.48046875 H 1.6987734 V -7.03125e-4 C 2.1089297,-0.03585937 3.1284609,-0.03585937 3.5854922,-0.03585937 c 0.4570312,0 1.4882812,0 1.8984375,0.035156245 V -0.30539062 H 5.0854922 c -1.0546875,0 -1.0546875,-0.140625 -1.0546875,-0.48046875 V -6.0358594 c 0,-0.1992187 0,-0.3398437 0.1875,-0.375 0.1054687,-0.023437 0.375,-0.023437 0.5625,-0.023437 1.5,0 1.6523437,0.328125 1.7929687,1.9335938 z m 0,0"
       style="fill:#000000;fill-opacity:1;fill-rule:nonzero;stroke:none"
       aria-label="T"
       transform="matrix(1.3333333,0,0,1.3333333,322.192,137.04)" />
    <path
       id="path59"
       d="m 134.64731,-52.49324 3e-5,-22.72424"
       style="fill:none;stroke:#000000;stroke-width:0.3985;stroke-linecap:butt;stroke-linejoin:miter;stroke-miterlimit:10;stroke-dasharray:none;stroke-opacity:1"
       transform="matrix(1.3333333,0,0,-1.3333333,147.45733,19.156)" />
    <path
       id="path60"
       d="m 186.98537,-85.04044 c 0,5.42229 -4.39553,9.8178 -9.81781,9.8178 -5.42229,0 -9.8178,-4.39551 -9.8178,-9.8178 0,-5.42228 4.39551,-9.81781 9.8178,-9.81781 5.42228,0 9.81781,4.39553 9.81781,9.81781 z"
       style="fill:none;stroke:#000000;stroke-width:0.3985;stroke-linecap:butt;stroke-linejoin:miter;stroke-miterlimit:10;stroke-dasharray:none;stroke-opacity:1"
       transform="matrix(1.3333333,0,0,-1.3333333,147.45733,19.156)" />
    <path
       id="path61"
       d="m 7.1361328,-6.4919922 v -0.3164062 l -1.1835937,0.035156 -1.1835938,-0.035156 v 0.3164062 c 1.03125,0 1.03125,0.46875 1.03125,0.7382813 v 3.4570312 c 0,1.40625001 -0.9726562,2.20312501 -1.9101562,2.20312501 -0.46875,0 -1.6523438,-0.24609375 -1.6523438,-2.13281251 v -3.796875 c 0,-0.3632812 0.023437,-0.46875 0.7851563,-0.46875 h 0.2460937 v -0.3164062 c -0.3515625,0.035156 -1.0898437,0.035156 -1.4648437,0.035156 -0.375,0 -1.12500004,0 -1.47656254,-0.035156 v 0.3164062 h 0.234375 c 0.77343754,0 0.79687504,0.1054688 0.79687504,0.46875 v 3.75 c 0,1.40625001 1.1484375,2.49609376 2.5078125,2.49609376 1.1484375,0 2.0390625,-0.92578125 2.2148437,-2.06249996 0.023437,-0.1992188 0.023437,-0.2929688 0.023437,-0.6914063 v -3.1875 c 0,-0.328125 0,-0.7734375 1.0312505,-0.7734375 z m 0,0"
       style="fill:#000000;fill-opacity:1;fill-rule:nonzero;stroke:none"
       aria-label="U"
       transform="matrix(1.3333333,0,0,1.3333333,378.7,136.93333)" />
    <path
       id="path62"
       d="M 141.69931,-49.57222 170.08443,-77.9573"
       style="fill:none;stroke:#000000;stroke-width:0.3985;stroke-linecap:butt;stroke-linejoin:miter;stroke-miterlimit:10;stroke-dasharray:none;stroke-opacity:1"
       transform="matrix(1.3333333,0,0,-1.3333333,147.45733,19.156)" />
    <path
       id="path63"
       d="m 3.2925312,2.3906094 c 0,-0.035156 0,-0.046875 -0.1640625,-0.2226563 -1.2421875,-1.25390622 -1.5703125,-3.12890622 -1.5703125,-4.6640625 0,-1.7226562 0.3867188,-3.4570312 1.6054688,-4.7109375 0.1289062,-0.1171875 0.1289062,-0.1289062 0.1289062,-0.1640625 0,-0.070312 -0.035156,-0.1054687 -0.09375,-0.1054687 -0.1054687,0 -0.9960937,0.6796875 -1.5820312,1.9453125 -0.515625,1.1015625 -0.6328125,2.203125 -0.6328125,3.0351562 0,0.7851563 0.1171875,1.99218753 0.65625,3.11718753 0.5976562,1.21874997 1.453125,1.87499997 1.5585937,1.87499997 0.058594,0 0.09375,-0.035156 0.09375,-0.1054687 z M 8.6919453,-0.89064062 V -1.4414219 H 8.4341328 v 0.55078128 c 0,0.5859375 -0.2460937,0.64453125 -0.3515625,0.64453125 -0.328125,0 -0.375,-0.45703125 -0.375,-0.50390625 V -2.7422031 c 0,-0.4101563 0,-0.8085938 -0.3515625,-1.171875 -0.3867187,-0.3867188 -0.890625,-0.5507813 -1.3710937,-0.5507813 -0.8085938,0 -1.5,0.46875 -1.5,1.125 0,0.3046875 0.1992187,0.46875 0.4570312,0.46875 0.28125,0 0.4570313,-0.1992187 0.4570313,-0.4570312 0,-0.1171875 -0.046875,-0.4453125 -0.5039063,-0.4570313 0.2695313,-0.3515625 0.75,-0.4570312 1.078125,-0.4570312 0.4804688,0 1.0546875,0.3867187 1.0546875,1.2773437 v 0.3632813 c -0.515625,0.035156 -1.2070312,0.058594 -1.8398437,0.3632812 -0.75,0.3398438 -0.9960938,0.8554688 -0.9960938,1.28906253 0,0.80859375 0.9726563,1.0546875 1.59375,1.0546875 0.65625,0 1.1132813,-0.3984375 1.3125,-0.8671875 0.035156,0.3984375 0.3046875,0.8203125 0.7734375,0.8203125 0.2109375,0 0.8203125,-0.140625 0.8203125,-0.94921875 z M 7.0278828,-1.3945469 c 0,0.94921878 -0.7265625,1.28906253 -1.171875,1.28906253 -0.4804687,0 -0.890625,-0.3515625 -0.890625,-0.85546875 0,-0.53906248 0.4101563,-1.37109378 2.0625,-1.42968748 z M 11.73882,-2.4961094 c 0,-0.7734375 -0.117187,-1.9804687 -0.65625,-3.1054687 -0.597656,-1.21875 -1.4648434,-1.875 -1.5585934,-1.875 -0.058594,0 -0.1054688,0.046875 -0.1054688,0.1054687 0,0.035156 0,0.046875 0.1992188,0.234375 0.9726564,0.984375 1.5351564,2.5664063 1.5351564,4.640625 0,1.71093753 -0.363281,3.45703128 -1.5937502,4.7226563 -0.140625,0.1171875 -0.140625,0.1289062 -0.140625,0.1640625 0,0.058594 0.046875,0.1054687 0.1054688,0.1054687 0.09375,0 0.9960934,-0.6796875 1.5820314,-1.94531247 0.503906,-1.1015625 0.632812,-2.20312503 0.632812,-3.04687503 z m 0,0"
       style="fill:#000000;fill-opacity:1;fill-rule:nonzero;stroke:none"
       aria-label="(a)"
       transform="matrix(1.3333333,0,0,1.3333333,138.96933,305.94533)" />
    <path
       id="path64"
       d="m 3.2939063,2.3906094 c 0,-0.035156 0,-0.046875 -0.1640625,-0.2226563 -1.2421875,-1.25390622 -1.5703125,-3.12890622 -1.5703125,-4.6640625 0,-1.7226562 0.3867187,-3.4570312 1.6054687,-4.7109375 0.1289063,-0.1171875 0.1289063,-0.1289062 0.1289063,-0.1640625 0,-0.070312 -0.035156,-0.1054687 -0.09375,-0.1054687 -0.1054688,0 -0.9960938,0.6796875 -1.5820313,1.9453125 -0.515625,1.1015625 -0.6328125,2.203125 -0.6328125,3.0351562 0,0.7851563 0.1171875,1.99218753 0.65625,3.11718753 0.5976563,1.21874997 1.453125,1.87499997 1.5585938,1.87499997 0.058594,0 0.09375,-0.035156 0.09375,-0.1054687 z m 5.774414,-4.546875 c 0,-1.265625 -0.9726562,-2.25 -2.109375,-2.25 -0.7851562,0 -1.2070312,0.46875 -1.3710937,0.65625 v -3.1640625 l -1.4296875,0.1054687 v 0.3164063 c 0.6914062,0 0.7734375,0.070312 0.7734375,0.5507812 V -1.5625e-5 H 5.1776953 L 5.5409766,-0.62110937 c 0.1523437,0.234375 0.5625,0.7265625 1.3007812,0.7265625 1.1835938,0 2.2265625,-0.97265625 2.2265625,-2.26171873 z m -0.8320312,0 c 0,0.3632812 -0.011719,0.9609375 -0.3046875,1.40624998 -0.2109375,0.31640625 -0.5859375,0.64453125 -1.125,0.64453125 -0.4453125,0 -0.8085938,-0.24609375 -1.0429688,-0.609375 -0.140625,-0.2109375 -0.140625,-0.24609375 -0.140625,-0.42187503 v -2.0507812 c 0,-0.1875 0,-0.1992188 0.1054688,-0.3632813 0.3867187,-0.5507812 0.9375,-0.6328125 1.171875,-0.6328125 0.4570312,0 0.8085937,0.2578125 1.0546875,0.6328125 0.2578125,0.4101563 0.28125,0.984375 0.28125,1.3945313 z m 4.0605469,-0.3398438 c 0,-0.7734375 -0.117188,-1.9804687 -0.65625,-3.1054687 -0.597656,-1.21875 -1.464844,-1.875 -1.558594,-1.875 -0.05859,0 -0.1054686,0.046875 -0.1054686,0.1054687 0,0.035156 0,0.046875 0.1992186,0.234375 0.972656,0.984375 1.535156,2.5664063 1.535156,4.640625 0,1.71093753 -0.363281,3.45703128 -1.59375,4.7226563 -0.1406246,0.1171875 -0.1406246,0.1289062 -0.1406246,0.1640625 0,0.058594 0.046875,0.1054687 0.1054686,0.1054687 0.09375,0 0.996094,-0.6796875 1.582031,-1.94531247 0.503907,-1.1015625 0.632813,-2.20312503 0.632813,-3.04687503 z m 0,0"
       style="fill:#000000;fill-opacity:1;fill-rule:nonzero;stroke:none"
       aria-label="(b)"
       transform="matrix(1.3333333,0,0,1.3333333,289.78,305.94533)" />
  </g>
</svg>
