<?xml version="1.0" encoding="UTF-8" standalone="no"?>
<!-- Created with Inkscape (http://www.inkscape.org/) -->

<svg
   version="1.1"
   id="svg1"
   width="279.06668"
   height="80.800003"
   viewBox="0 0 279.06668 80.800003"
   sodipodi:docname="22-23-2-大学物理C-期中-第2题图.pdf"
   xmlns:inkscape="http://www.inkscape.org/namespaces/inkscape"
   xmlns:sodipodi="http://sodipodi.sourceforge.net/DTD/sodipodi-0.dtd"
   xmlns="http://www.w3.org/2000/svg"
   xmlns:svg="http://www.w3.org/2000/svg">
  <defs
     id="defs1" />
  <sodipodi:namedview
     id="namedview1"
     pagecolor="#ffffff"
     bordercolor="#000000"
     borderopacity="0.25"
     inkscape:showpageshadow="2"
     inkscape:pageopacity="0.0"
     inkscape:pagecheckerboard="0"
     inkscape:deskcolor="#d1d1d1">
    <inkscape:page
       x="0"
       y="0"
       inkscape:label="1"
       id="page1"
       width="279.06668"
       height="80.800003"
       margin="0"
       bleed="0" />
  </sodipodi:namedview>
  <g
     id="g1"
     inkscape:groupmode="layer"
     inkscape:label="1">
    <path
       id="path1"
       d="M 0,0 V 56.69362"
       style="fill:none;stroke:#000000;stroke-width:0.79701;stroke-linecap:butt;stroke-linejoin:miter;stroke-miterlimit:10;stroke-dasharray:none;stroke-opacity:1"
       transform="matrix(1.3333333,0,0,-1.3333333,4.0453333,76.12)" />
    <path
       id="path2"
       d="M 0,0 H 197.63065"
       style="fill:none;stroke:#000000;stroke-width:0.79701;stroke-linecap:butt;stroke-linejoin:miter;stroke-miterlimit:10;stroke-dasharray:none;stroke-opacity:1"
       transform="matrix(1.3333333,0,0,-1.3333333,4.0453333,76.12)" />
    <path
       id="path3"
       d="M -2.55046,3.11095 C -2.0845,1.24435 -1.04614,0.36295 0,0 -1.04614,-0.36295 -2.0845,-1.24435 -2.55046,-3.11095"
       style="fill:none;stroke:#000000;stroke-width:0.79701;stroke-linecap:round;stroke-linejoin:round;stroke-miterlimit:10;stroke-dasharray:none;stroke-opacity:1"
       transform="matrix(1.3333333,0,0,-1.3333333,268.08421,76.12)" />
    <path
       id="path4"
       d="M 4.8294375,-4.0907266 3.9974063,-6.0829141 c -0.035156,-0.070312 -0.046875,-0.1171875 -0.046875,-0.1289062 0,-0.058594 0.1640625,-0.2460938 0.5859375,-0.28125 0.09375,-0.011719 0.1992187,-0.023437 0.1992187,-0.1875 0,-0.1289063 -0.1171875,-0.1289063 -0.1523437,-0.1289063 -0.4101563,0 -0.8320313,0.035156 -1.2539063,0.035156 -0.2460937,0 -0.8671875,-0.035156 -1.1132812,-0.035156 -0.058594,0 -0.1875,0 -0.1875,0.1992188 0,0.1171875 0.1054687,0.1171875 0.234375,0.1171875 0.5976562,0 0.65625,0.09375 0.75,0.3164062 L 4.1849063,-3.3993203 2.08725,-1.1376016 1.9583438,-1.0321328 C 1.4661563,-0.50478906 0.99740625,-0.34072656 0.4935,-0.30557031 c -0.12890625,0 -0.22265625,0 -0.22265625,0.19921875 0,0 0,0.1054687475 0.12890625,0.1054687475 0.3046875,0 0.6328125,-0.0351562475 0.9375,-0.0351562475 0.3632813,0 0.7617188,0.0351562475 1.1132813,0.0351562475 0.058594,0 0.1757812,0 0.1757812,-0.1992187475 0,-0.10546875 -0.09375,-0.10546875 -0.1171875,-0.10546875 -0.082031,-0.0117188 -0.3984375,-0.0351563 -0.3984375,-0.31640625 0,-0.15234375 0.1523438,-0.31640625 0.2695313,-0.44531254 l 1.0195312,-1.078125 0.890625,-0.9726562 1.0078125,2.37890624 c 0.046875,0.10546875 0.046875,0.1171875 0.046875,0.140625 0,0.0820313 -0.1875,0.24609375 -0.5742187,0.29296875 -0.1054688,0 -0.1992188,0.0117188 -0.1992188,0.1875 0,0.1171874975 0.1171875,0.1171874975 0.1523438,0.1171874975 0.28125,0 0.9726562,-0.0351562475 1.2539062,-0.0351562475 0.2460938,0 0.8554688,0.0351562475 1.1015625,0.0351562475 0.070312,0 0.1992188,0 0.1992188,-0.1874999975 0,-0.1171875 -0.1054688,-0.1171875 -0.1875,-0.1171875 -0.6679688,-0.0117188 -0.6796875,-0.046875 -0.8554688,-0.4453125 C 5.8489688,-1.6766641 5.181,-3.2235391 4.946625,-3.8211953 5.6263125,-4.5243203 6.681,-5.7079141 6.9974063,-5.9891641 c 0.28125,-0.234375 0.6679687,-0.4804687 1.265625,-0.5039062 0.1289062,-0.011719 0.2109375,-0.011719 0.2109375,-0.1992188 0,-0.011719 0,-0.1171875 -0.1289063,-0.1171875 -0.2929687,0 -0.6210937,0.035156 -0.9375,0.035156 -0.3632812,0 -0.7382812,-0.035156 -1.1015625,-0.035156 -0.058594,0 -0.1875,0 -0.1875,0.1992188 0,0.070312 0.046875,0.1054687 0.1171875,0.1171875 0.09375,0.011719 0.3984375,0.023437 0.3984375,0.3046875 0,0.140625 -0.1054687,0.2695312 -0.1875,0.3632812 z m 0,0"
       style="fill:#000000;fill-opacity:1;fill-rule:nonzero;stroke:none"
       aria-label="X"
       transform="matrix(1.3333333,0,0,1.3333333,262.592,71.161333)" />
    <path
       id="path5"
       d="m 0,14.17339 h 2.83484 l 1.49441,2.49069 2.98883,-4.98138 2.98884,4.98138 2.98883,-4.98138 2.98883,4.98138 2.98882,-4.98138 2.98884,4.98138 2.98883,-4.98138 2.98883,4.98138 2.98883,-4.98138 2.98883,4.98138 2.98883,-4.98138 2.98883,4.98138 2.98883,-4.98138 2.98883,4.98138 2.98883,-4.98138 2.98883,4.98138 1.49442,-2.49069 v 0 h 3.04866"
       style="fill:none;stroke:#000000;stroke-width:0.79701;stroke-linecap:butt;stroke-linejoin:miter;stroke-miterlimit:10;stroke-dasharray:none;stroke-opacity:1"
       transform="matrix(1.3333333,0,0,-1.3333333,4.0453333,76.12)" />
    <path
       id="path6"
       d="m 5.0751406,-4.0183125 c -0.011719,-0.035156 -0.058594,-0.1171875 -0.058594,-0.140625 0,-0.011719 0.1875,-0.1523438 0.2929687,-0.234375 l 1.7460938,-1.3476563 c 0.9375,-0.6796875 1.3242187,-0.7265625 1.6171875,-0.75 0.082031,-0.011719 0.1875,-0.023437 0.1875,-0.1992187 0,-0.046875 -0.035156,-0.1171875 -0.1171875,-0.1171875 -0.2109375,0 -0.46875,0.035156 -0.703125,0.035156 -0.3632813,0 -0.75,-0.035156 -1.1015625,-0.035156 -0.070312,0 -0.1992188,0 -0.1992188,0.1992187 0,0.070312 0.058594,0.1054688 0.1289063,0.1171875 0.2109375,0.011719 0.3046875,0.070312 0.3046875,0.2109375 0,0.1757813 -0.2929688,0.3984375 -0.3632813,0.4570313 l -3.8789062,2.9882812 0.796875,-3.1992187 c 0.09375,-0.3632813 0.1054687,-0.4570313 0.8320312,-0.4570313 0.2578125,0 0.3398438,0 0.3398438,-0.1992187 0,-0.09375 -0.082031,-0.1171875 -0.140625,-0.1171875 -0.2695313,0 -0.9960938,0.035156 -1.265625,0.035156 -0.2929688,0 -0.9960938,-0.035156 -1.2890625,-0.035156 -0.070312,0 -0.1992188,0 -0.1992188,0.1992187 0,0.1171875 0.09375,0.1171875 0.2929688,0.1171875 0.1289062,0 0.3046875,0.011719 0.421875,0.011719 0.1640625,0.023437 0.2226562,0.058594 0.2226562,0.1640625 0,0.035156 -0.011719,0.070312 -0.046875,0.1875 l -1.3359375,5.35546875 c -0.09375,0.38671875 -0.1171875,0.46875 -0.90234372,0.46875 -0.1640625,0 -0.28125,0 -0.28125,0.1875 0,0.1171875 0.12890625,0.1171875 0.15234375,0.1171875 0.28125,0 0.98437497,-0.03515625 1.26562497,-0.03515625 0.2109375,0 0.4335938,0.01171875 0.6328125,0.01171875 0.2226563,0 0.4453125,0.0234375 0.65625,0.0234375 0.070312,0 0.1992188,0 0.1992188,-0.19921875 0,-0.10546875 -0.09375,-0.10546875 -0.28125,-0.10546875 -0.375,0 -0.6445313,0 -0.6445313,-0.1875 0,-0.0703125 0.058594,-0.28125 0.082031,-0.43359375 0.140625,-0.515625 0.2695312,-1.0429688 0.3984375,-1.5703125 L 4.32514,-3.6433123 5.4852963,-0.95971855 c 0.1171875,0.2578125 0.1171875,0.28125 0.1171875,0.33984375 0,0.3046875 -0.4335938,0.31640625 -0.515625,0.31640625 -0.1171875,0 -0.2226563,0 -0.2226563,0.19921875 0,0.10546875 0.1171875,0.10546875 0.140625,0.10546875 0.3984375,0 0.8085938,-0.03515625 1.2070313,-0.03515625 0.2226562,0 0.7617187,0.03515625 0.984375,0.03515625 0.046875,0 0.1757812,0 0.1757812,-0.19921875 0,-0.10546875 -0.1054687,-0.10546875 -0.1992187,-0.10546875 C 6.7626406,-0.3151875 6.6337344,-0.4089375 6.4813906,-0.7605 Z m 0,0"
       style="fill:#000000;fill-opacity:1;fill-rule:nonzero;stroke:none"
       aria-label="K"
       transform="matrix(1.3333333,0,0,1.3333333,35.725333,52.264)" />
    <path
       id="path7"
       d="m 56.69362,0 v 28.3468 h 28.3468 V 0 Z"
       style="fill:none;stroke:#000000;stroke-width:0.3985;stroke-linecap:butt;stroke-linejoin:miter;stroke-miterlimit:10;stroke-dasharray:none;stroke-opacity:1"
       transform="matrix(1.3333333,0,0,-1.3333333,4.0453333,76.12)" />
    <path
       id="path8"
       d="m 1.7822656,-1.1481484 c -0.3984375,0.66796871 -0.78515622,0.80859371 -1.21874997,0.84374996 -0.12890625,0 -0.2109375,0 -0.2109375,0.19921875 0,0.05859375 0.046875,0.1054687525 0.12890625,0.1054687525 0.26953125,0 0.57421872,-0.0351562525 0.85546872,-0.0351562525 0.328125,0 0.6796875,0.0351562525 0.9960938,0.0351562525 0.058594,0 0.1875,0 0.1875,-0.1875000025 0,-0.1171875 -0.09375,-0.1171875 -0.1640625,-0.1171875 -0.2226563,-0.0234375 -0.4570313,-0.10546875 -0.4570313,-0.3515625 0,-0.1171875 0.058594,-0.234375 0.1289063,-0.37499996 l 0.7617187,-1.265625 h 2.4960938 c 0.023437,0.1992187 0.1640625,1.55859371 0.1640625,1.66406246 0,0.29296875 -0.515625,0.328125 -0.7148438,0.328125 -0.140625,0 -0.2460937,0 -0.2460937,0.19921875 0,0.1054687525 0.1289062,0.1054687525 0.140625,0.1054687525 0.4101562,0 0.84375,-0.0351562525 1.2539062,-0.0351562525 0.2460938,0 0.8671875,0.0351562525 1.125,0.0351562525 0.058594,0 0.1757813,0 0.1757813,-0.1992187525 0,-0.10546875 -0.1054688,-0.10546875 -0.234375,-0.10546875 -0.609375,0 -0.609375,-0.0703125 -0.6445313,-0.36328125 L 5.6963281,-6.8903359 c -0.011719,-0.1992188 -0.011719,-0.2460938 -0.1875,-0.2460938 -0.1640625,0 -0.1992187,0.070312 -0.2578125,0.1757813 z m 1.1953125,-1.4648438 1.96875,-3.28125 0.3164063,3.28125 z m 0,0"
       style="fill:#000000;fill-opacity:1;fill-rule:nonzero;stroke:none"
       aria-label="A"
       transform="matrix(1.3333333,0,0,1.3333333,93.553333,61.761333)" />
    <path
       id="path9"
       d="m 85.04042,14.17339 h 28.34682"
       style="fill:none;stroke:#000000;stroke-width:0.3985;stroke-linecap:butt;stroke-linejoin:miter;stroke-miterlimit:10;stroke-dasharray:none;stroke-opacity:1"
       transform="matrix(1.3333333,0,0,-1.3333333,4.0453333,76.12)" />
    <g
       id="g9"
       aria-label="−→&#10;T"
       transform="matrix(1.3333333,0,0,1.3333333,129.688,43.453333)">
      <path
         id="path10"
         d="m 6.562125,-2.2970313 c 0.1757813,0 0.3515625,0 0.3515625,-0.1992187 0,-0.1992188 -0.1757812,-0.1992188 -0.3515625,-0.1992188 H 1.1715 c -0.1640625,0 -0.33984375,0 -0.33984375,0.1992188 0,0.1992187 0.17578125,0.1992187 0.33984375,0.1992187 z m 1.7460938,0 C 7.7574375,-1.8751563 7.4879063,-1.465 7.405875,-1.3360938 6.9605625,-0.6446875 6.8785313,-0.02359375 6.8785313,-0.011875 c 0,0.1171875 0.1289062,0.1171875 0.1992187,0.1171875 0.1757813,0 0.1875,-0.01171875 0.2226563,-0.19921875 C 7.5347813,-1.0665625 8.1207188,-1.8985938 9.2457188,-2.355625 9.3629063,-2.4025 9.3980625,-2.4259375 9.3980625,-2.49625 c 0,-0.058594 -0.070312,-0.09375 -0.082031,-0.1054688 -0.4453125,-0.1640625 -1.640625,-0.6679687 -2.0273438,-2.34375 -0.023437,-0.1171875 -0.035156,-0.140625 -0.2109375,-0.140625 -0.070312,0 -0.1992187,0 -0.1992187,0.1171875 0,0.023437 0.09375,0.6445313 0.515625,1.3125 0.1992187,0.3046875 0.4804687,0.6445313 0.9140625,0.9609375 H 0.90196875 c -0.17578125,0 -0.3515625,0 -0.3515625,0.1992188 0,0.1992187 0.17578125,0.1992187 0.3515625,0.1992187 z m 0,0"
         style="fill:#000000;fill-opacity:1;fill-rule:nonzero;stroke:none" />
      <path
         id="path11"
         d="m 5.6334141,0.7615625 c 0.070312,-0.28125 0.1054687,-0.33984375 0.234375,-0.36328125 0.082031,-0.0234375 0.4101562,-0.0234375 0.6210937,-0.0234375 1.0078125,0 1.453125,0.0351563 1.453125,0.82031245 0,0.140625 -0.035156,0.5273438 -0.082031,0.796875 0,0.035156 -0.023437,0.1523438 -0.023437,0.1875 0,0.058594 0.023437,0.1289063 0.1171875,0.1289063 0.1054687,0 0.1289062,-0.082031 0.1523437,-0.234375 l 0.2695313,-1.734375 c 0.011719,-0.0351563 0.011719,-0.140625 0.011719,-0.1640625 0,-0.10546875 -0.09375,-0.10546875 -0.2695312,-0.10546875 H 2.5982578 c -0.2460937,0 -0.2578125,0 -0.3164062,0.19921875 L 1.6841953,2.0154687 c -0.011719,0.023437 -0.070312,0.1640625 -0.070312,0.1757813 0,0.070312 0.058594,0.1171875 0.1289063,0.1171875 0.09375,0 0.1054687,-0.046875 0.1640625,-0.2109375 0.5390625,-1.546875 0.796875,-1.72265625 2.2734375,-1.72265625 h 0.3867187 c 0.28125,0 0.28125,0.0351563 0.28125,0.1171875 0,0.0585938 -0.035156,0.17578125 -0.046875,0.2109375 L 3.4771641,6.0232812 C 3.3834141,6.3865625 3.3482578,6.50375 2.2818516,6.50375 c -0.3515625,0 -0.4101563,0 -0.4101563,0.1875 0,0.1171875 0.1054688,0.1171875 0.1640625,0.1171875 0.2695313,0 0.5507813,-0.023437 0.8203125,-0.023437 0.28125,0 0.5625,-0.011719 0.84375,-0.011719 0.28125,0 0.5625,0.011719 0.8320313,0.011719 0.28125,0 0.5859375,0.023437 0.8671875,0.023437 0.09375,0 0.2109375,0 0.2109375,-0.1992188 0,-0.1054687 -0.082031,-0.1054687 -0.3398438,-0.1054687 -0.2460937,0 -0.375,0 -0.6328125,-0.023437 C 4.3443516,6.445157 4.2740391,6.421719 4.2740391,6.2576567 c 0,-0.011719 0,-0.058594 0.035156,-0.2109375 z m 0,0"
         style="fill:#000000;fill-opacity:1;fill-rule:nonzero;stroke:none" />
    </g>
    <path
       id="path12"
       d="m 113.38724,0 v 28.3468 h 28.3468 V 0 Z"
       style="fill:none;stroke:#000000;stroke-width:0.3985;stroke-linecap:butt;stroke-linejoin:miter;stroke-miterlimit:10;stroke-dasharray:none;stroke-opacity:1"
       transform="matrix(1.3333333,0,0,-1.3333333,4.0453333,76.12)" />
    <path
       id="path13"
       d="m 1.5931797,-0.77314844 c -0.09375,0.38671875 -0.1171875,0.46875 -0.90234376,0.46875 -0.17578125,0 -0.26953125,0 -0.26953125,0.19921875 0,0.1054687525 0.0820313,0.1054687525 0.26953125,0.1054687525 H 4.2416172 c 1.5703125,0 2.7539062,-1.1718749625 2.7539062,-2.1562499625 0,-0.7148438 -0.5859375,-1.2890625 -1.546875,-1.3945313 1.03125,-0.1992187 2.0859375,-0.9375 2.0859375,-1.875 0,-0.7382812 -0.65625,-1.3828125 -1.8515625,-1.3828125 H 2.3314609 c -0.1875,0 -0.2929687,0 -0.2929687,0.1992188 0,0.1171875 0.09375,0.1171875 0.28125,0.1171875 0.023437,0 0.2109375,0 0.375,0.011719 0.1875,0.023437 0.2695312,0.035156 0.2695312,0.1640625 0,0.035156 -0.011719,0.070312 -0.035156,0.1875 z m 1.5,-2.87109376 0.6210937,-2.4726562 c 0.09375,-0.3515625 0.1054688,-0.375 0.5390625,-0.375 h 1.2890625 c 0.8671875,0 1.078125,0.5859375 1.078125,1.0195312 0,0.8789063 -0.8554687,1.828125 -2.0742187,1.828125 z m -0.4453125,3.33984376 c -0.140625,0 -0.1523438,0 -0.2226563,-0.0117188 -0.09375,-0.0117188 -0.1289062,-0.0234375 -0.1289062,-0.10546875 0,-0.0234375 0,-0.046875 0.058594,-0.22265625 L 3.0345859,-3.4215859 h 1.8867188 c 0.9609375,0 1.1484375,0.7265625 1.1484375,1.1601562 0,0.984375 -0.890625,1.95703126 -2.0625,1.95703126 z m 0,0"
       style="fill:#000000;fill-opacity:1;fill-rule:nonzero;stroke:none"
       aria-label="B"
       transform="matrix(1.3333333,0,0,1.3333333,168.75467,61.761333)" />
    <path
       id="path14"
       d="m 141.73404,14.17339 h 27.9483"
       style="fill:none;stroke:#000000;stroke-width:0.3985;stroke-linecap:butt;stroke-linejoin:miter;stroke-miterlimit:10;stroke-dasharray:none;stroke-opacity:1"
       transform="matrix(1.3333333,0,0,-1.3333333,4.0453333,76.12)" />
    <path
       id="path15"
       d="M -2.07224,2.39104 C -1.69365,0.95639 -0.84999,0.27895 0,0 -0.84999,-0.27895 -1.69365,-0.95639 -2.07224,-2.39104"
       style="fill:none;stroke:#000000;stroke-width:0.3985;stroke-linecap:round;stroke-linejoin:round;stroke-miterlimit:10;stroke-dasharray:none;stroke-opacity:1"
       transform="matrix(1.3333333,0,0,-1.3333333,230.55412,57.222147)" />
    <g
       id="g15"
       aria-label="−→&#10;F"
       transform="matrix(1.3333333,0,0,1.3333333,205.28,43.453333)">
      <path
         id="path16"
         d="m 6.5634375,-2.2970313 c 0.1757812,0 0.3515625,0 0.3515625,-0.1992187 0,-0.1992188 -0.1757813,-0.1992188 -0.3515625,-0.1992188 h -5.390625 c -0.1640625,0 -0.33984375,0 -0.33984375,0.1992188 0,0.1992187 0.17578125,0.1992187 0.33984375,0.1992187 z m 1.7460937,0 C 7.75875,-1.8751563 7.4892187,-1.465 7.4071875,-1.3360938 6.961875,-0.6446875 6.8798437,-0.02359375 6.8798437,-0.011875 c 0,0.1171875 0.1289063,0.1171875 0.1992188,0.1171875 0.1757812,0 0.1875,-0.01171875 0.2226562,-0.19921875 C 7.5360937,-1.0665625 8.1220312,-1.8985938 9.2470312,-2.355625 9.3642187,-2.4025 9.399375,-2.4259375 9.399375,-2.49625 9.399375,-2.554844 9.329063,-2.59 9.317344,-2.6017188 8.8720312,-2.7657813 7.6767187,-3.2696875 7.29,-4.9454688 7.266563,-5.0626563 7.254844,-5.0860938 7.0790625,-5.0860938 c -0.070312,0 -0.1992188,0 -0.1992188,0.1171875 0,0.023437 0.09375,0.6445313 0.515625,1.3125 0.1992188,0.3046875 0.4804688,0.6445313 0.9140625,0.9609375 H 0.90328125 c -0.17578125,0 -0.3515625,0 -0.3515625,0.1992188 0,0.1992187 0.17578125,0.1992187 0.3515625,0.1992187 z m 0,0"
         style="fill:#000000;fill-opacity:1;fill-rule:nonzero;stroke:none" />
      <path
         id="path17"
         d="m 4.1083594,3.5740625 h 0.9609375 c 0.75,0 0.8320312,0.1523437 0.8320312,0.4453125 0,0.070312 0,0.1875 -0.070312,0.4921875 -0.023437,0.046875 -0.035156,0.082031 -0.035156,0.1054687 0,0.082031 0.058594,0.1171875 0.1171875,0.1171875 0.1054687,0 0.1054687,-0.023437 0.1523437,-0.2109375 l 0.5507813,-2.15625 C 6.6396094,2.2615625 6.6396094,2.238125 6.6396094,2.2029687 6.6396094,2.19125 6.6278906,2.0975 6.5224219,2.0975 6.4286719,2.0975 6.4169531,2.144375 6.3700781,2.3084375 6.1708594,3.081875 5.9364844,3.2576562 5.0927344,3.2576562 H 4.1786719 L 4.8232031,0.72640625 C 4.9052344,0.3865625 4.9169531,0.3396875 5.3622656,0.3396875 h 1.3125 c 1.21875,0 1.453125,0.328125 1.453125,1.1015625 0,0.2226562 0,0.2695312 -0.035156,0.5390625 -0.011719,0.1289062 -0.011719,0.140625 -0.011719,0.1757812 0,0.046875 0.023437,0.1171875 0.1171875,0.1171875 0.1054688,0 0.1171875,-0.058594 0.140625,-0.2460937 L 8.5380469,0.30453125 C 8.5614844,0.035 8.5146094,0.035 8.2685156,0.035 H 3.3817969 c -0.1992188,0 -0.2929688,0 -0.2929688,0.19921875 0,0.10546875 0.09375,0.10546875 0.28125,0.10546875 0.3632813,0 0.6445313,0 0.6445313,0.1875 0,0.0351563 0,0.0585938 -0.046875,0.234375 L 2.6435156,6.035 c -0.09375,0.3867187 -0.1171875,0.46875 -0.9023437,0.46875 -0.1640625,0 -0.28125,0 -0.28125,0.1875 0,0.1171875 0.1289062,0.1171875 0.1523437,0.1171875 0.2929688,0 1.03125,-0.035156 1.3125,-0.035156 0.328125,0 1.1601563,0.035156 1.4882813,0.035156 0.09375,0 0.2109375,0 0.2109375,-0.1875 0,-0.082031 -0.058594,-0.1054688 -0.058594,-0.1171875 -0.035156,0 -0.058594,0 -0.28125,0 -0.2226562,0 -0.2695312,0 -0.515625,-0.023437 C 3.4755469,6.4451562 3.4403906,6.41 3.4403906,6.2810937 c 0,-0.023437 0,-0.082031 0.046875,-0.234375 z m 0,0"
         style="fill:#000000;fill-opacity:1;fill-rule:nonzero;stroke:none" />
    </g>
    <path
       id="path18"
       d="M 5.66927,0 2.83441,-2.83484"
       style="fill:none;stroke:#000000;stroke-width:0.3985;stroke-linecap:butt;stroke-linejoin:miter;stroke-miterlimit:10;stroke-dasharray:none;stroke-opacity:1"
       transform="matrix(1.3333333,0,0,-1.3333333,4.0453333,76.12)" />
    <path
       id="path19"
       d="M 11.33855,0 8.5037,-2.83484"
       style="fill:none;stroke:#000000;stroke-width:0.3985;stroke-linecap:butt;stroke-linejoin:miter;stroke-miterlimit:10;stroke-dasharray:none;stroke-opacity:1"
       transform="matrix(1.3333333,0,0,-1.3333333,4.0453333,76.12)" />
    <path
       id="path20"
       d="M 17.00781,0 14.17296,-2.83484"
       style="fill:none;stroke:#000000;stroke-width:0.3985;stroke-linecap:butt;stroke-linejoin:miter;stroke-miterlimit:10;stroke-dasharray:none;stroke-opacity:1"
       transform="matrix(1.3333333,0,0,-1.3333333,4.0453333,76.12)" />
    <path
       id="path21"
       d="M 22.6771,0 19.84224,-2.83484"
       style="fill:none;stroke:#000000;stroke-width:0.3985;stroke-linecap:butt;stroke-linejoin:miter;stroke-miterlimit:10;stroke-dasharray:none;stroke-opacity:1"
       transform="matrix(1.3333333,0,0,-1.3333333,4.0453333,76.12)" />
    <path
       id="path22"
       d="M 28.34636,0 25.5115,-2.83484"
       style="fill:none;stroke:#000000;stroke-width:0.3985;stroke-linecap:butt;stroke-linejoin:miter;stroke-miterlimit:10;stroke-dasharray:none;stroke-opacity:1"
       transform="matrix(1.3333333,0,0,-1.3333333,4.0453333,76.12)" />
    <path
       id="path23"
       d="M 34.01564,0 31.18079,-2.83484"
       style="fill:none;stroke:#000000;stroke-width:0.3985;stroke-linecap:butt;stroke-linejoin:miter;stroke-miterlimit:10;stroke-dasharray:none;stroke-opacity:1"
       transform="matrix(1.3333333,0,0,-1.3333333,4.0453333,76.12)" />
    <path
       id="path24"
       d="M 39.6849,0 36.85005,-2.83484"
       style="fill:none;stroke:#000000;stroke-width:0.3985;stroke-linecap:butt;stroke-linejoin:miter;stroke-miterlimit:10;stroke-dasharray:none;stroke-opacity:1"
       transform="matrix(1.3333333,0,0,-1.3333333,4.0453333,76.12)" />
    <path
       id="path25"
       d="M 45.35419,0 42.51933,-2.83484"
       style="fill:none;stroke:#000000;stroke-width:0.3985;stroke-linecap:butt;stroke-linejoin:miter;stroke-miterlimit:10;stroke-dasharray:none;stroke-opacity:1"
       transform="matrix(1.3333333,0,0,-1.3333333,4.0453333,76.12)" />
    <path
       id="path26"
       d="M 51.02345,0 48.18861,-2.83484"
       style="fill:none;stroke:#000000;stroke-width:0.3985;stroke-linecap:butt;stroke-linejoin:miter;stroke-miterlimit:10;stroke-dasharray:none;stroke-opacity:1"
       transform="matrix(1.3333333,0,0,-1.3333333,4.0453333,76.12)" />
    <path
       id="path27"
       d="M 56.69275,0 53.8579,-2.83484"
       style="fill:none;stroke:#000000;stroke-width:0.3985;stroke-linecap:butt;stroke-linejoin:miter;stroke-miterlimit:10;stroke-dasharray:none;stroke-opacity:1"
       transform="matrix(1.3333333,0,0,-1.3333333,4.0453333,76.12)" />
    <path
       id="path28"
       d="M 62.36201,0 59.52718,-2.83484"
       style="fill:none;stroke:#000000;stroke-width:0.3985;stroke-linecap:butt;stroke-linejoin:miter;stroke-miterlimit:10;stroke-dasharray:none;stroke-opacity:1"
       transform="matrix(1.3333333,0,0,-1.3333333,4.0453333,76.12)" />
    <path
       id="path29"
       d="M 68.0313,0 65.19644,-2.83484"
       style="fill:none;stroke:#000000;stroke-width:0.3985;stroke-linecap:butt;stroke-linejoin:miter;stroke-miterlimit:10;stroke-dasharray:none;stroke-opacity:1"
       transform="matrix(1.3333333,0,0,-1.3333333,4.0453333,76.12)" />
    <path
       id="path30"
       d="M 73.70056,0 70.86572,-2.83484"
       style="fill:none;stroke:#000000;stroke-width:0.3985;stroke-linecap:butt;stroke-linejoin:miter;stroke-miterlimit:10;stroke-dasharray:none;stroke-opacity:1"
       transform="matrix(1.3333333,0,0,-1.3333333,4.0453333,76.12)" />
    <path
       id="path31"
       d="M 79.36984,0 76.53499,-2.83484"
       style="fill:none;stroke:#000000;stroke-width:0.3985;stroke-linecap:butt;stroke-linejoin:miter;stroke-miterlimit:10;stroke-dasharray:none;stroke-opacity:1"
       transform="matrix(1.3333333,0,0,-1.3333333,4.0453333,76.12)" />
    <path
       id="path32"
       d="M 85.03911,0 82.20427,-2.83484"
       style="fill:none;stroke:#000000;stroke-width:0.3985;stroke-linecap:butt;stroke-linejoin:miter;stroke-miterlimit:10;stroke-dasharray:none;stroke-opacity:1"
       transform="matrix(1.3333333,0,0,-1.3333333,4.0453333,76.12)" />
    <path
       id="path33"
       d="M 90.70839,0 87.87354,-2.83484"
       style="fill:none;stroke:#000000;stroke-width:0.3985;stroke-linecap:butt;stroke-linejoin:miter;stroke-miterlimit:10;stroke-dasharray:none;stroke-opacity:1"
       transform="matrix(1.3333333,0,0,-1.3333333,4.0453333,76.12)" />
    <path
       id="path34"
       d="M 96.37766,0 93.54282,-2.83484"
       style="fill:none;stroke:#000000;stroke-width:0.3985;stroke-linecap:butt;stroke-linejoin:miter;stroke-miterlimit:10;stroke-dasharray:none;stroke-opacity:1"
       transform="matrix(1.3333333,0,0,-1.3333333,4.0453333,76.12)" />
    <path
       id="path35"
       d="M 102.04694,0 99.21208,-2.83484"
       style="fill:none;stroke:#000000;stroke-width:0.3985;stroke-linecap:butt;stroke-linejoin:miter;stroke-miterlimit:10;stroke-dasharray:none;stroke-opacity:1"
       transform="matrix(1.3333333,0,0,-1.3333333,4.0453333,76.12)" />
    <path
       id="path36"
       d="m 107.71623,0 -2.83485,-2.83484"
       style="fill:none;stroke:#000000;stroke-width:0.3985;stroke-linecap:butt;stroke-linejoin:miter;stroke-miterlimit:10;stroke-dasharray:none;stroke-opacity:1"
       transform="matrix(1.3333333,0,0,-1.3333333,4.0453333,76.12)" />
    <path
       id="path37"
       d="m 113.3855,0 -2.83486,-2.83484"
       style="fill:none;stroke:#000000;stroke-width:0.3985;stroke-linecap:butt;stroke-linejoin:miter;stroke-miterlimit:10;stroke-dasharray:none;stroke-opacity:1"
       transform="matrix(1.3333333,0,0,-1.3333333,4.0453333,76.12)" />
    <path
       id="path38"
       d="m 119.05478,0 -2.83486,-2.83484"
       style="fill:none;stroke:#000000;stroke-width:0.3985;stroke-linecap:butt;stroke-linejoin:miter;stroke-miterlimit:10;stroke-dasharray:none;stroke-opacity:1"
       transform="matrix(1.3333333,0,0,-1.3333333,4.0453333,76.12)" />
    <path
       id="path39"
       d="m 124.72404,0 -2.83485,-2.83484"
       style="fill:none;stroke:#000000;stroke-width:0.3985;stroke-linecap:butt;stroke-linejoin:miter;stroke-miterlimit:10;stroke-dasharray:none;stroke-opacity:1"
       transform="matrix(1.3333333,0,0,-1.3333333,4.0453333,76.12)" />
    <path
       id="path40"
       d="m 130.39333,0 -2.83486,-2.83484"
       style="fill:none;stroke:#000000;stroke-width:0.3985;stroke-linecap:butt;stroke-linejoin:miter;stroke-miterlimit:10;stroke-dasharray:none;stroke-opacity:1"
       transform="matrix(1.3333333,0,0,-1.3333333,4.0453333,76.12)" />
    <path
       id="path41"
       d="m 136.06259,0 -2.83485,-2.83484"
       style="fill:none;stroke:#000000;stroke-width:0.3985;stroke-linecap:butt;stroke-linejoin:miter;stroke-miterlimit:10;stroke-dasharray:none;stroke-opacity:1"
       transform="matrix(1.3333333,0,0,-1.3333333,4.0453333,76.12)" />
    <path
       id="path42"
       d="m 141.73187,0 -2.83485,-2.83484"
       style="fill:none;stroke:#000000;stroke-width:0.3985;stroke-linecap:butt;stroke-linejoin:miter;stroke-miterlimit:10;stroke-dasharray:none;stroke-opacity:1"
       transform="matrix(1.3333333,0,0,-1.3333333,4.0453333,76.12)" />
    <path
       id="path43"
       d="M 147.40114,0 144.5663,-2.83484"
       style="fill:none;stroke:#000000;stroke-width:0.3985;stroke-linecap:butt;stroke-linejoin:miter;stroke-miterlimit:10;stroke-dasharray:none;stroke-opacity:1"
       transform="matrix(1.3333333,0,0,-1.3333333,4.0453333,76.12)" />
    <path
       id="path44"
       d="m 153.07042,0 -2.83485,-2.83484"
       style="fill:none;stroke:#000000;stroke-width:0.3985;stroke-linecap:butt;stroke-linejoin:miter;stroke-miterlimit:10;stroke-dasharray:none;stroke-opacity:1"
       transform="matrix(1.3333333,0,0,-1.3333333,4.0453333,76.12)" />
    <path
       id="path45"
       d="m 158.7397,0 -2.83484,-2.83484"
       style="fill:none;stroke:#000000;stroke-width:0.3985;stroke-linecap:butt;stroke-linejoin:miter;stroke-miterlimit:10;stroke-dasharray:none;stroke-opacity:1"
       transform="matrix(1.3333333,0,0,-1.3333333,4.0453333,76.12)" />
    <path
       id="path46"
       d="m 164.40898,0 -2.83485,-2.83484"
       style="fill:none;stroke:#000000;stroke-width:0.3985;stroke-linecap:butt;stroke-linejoin:miter;stroke-miterlimit:10;stroke-dasharray:none;stroke-opacity:1"
       transform="matrix(1.3333333,0,0,-1.3333333,4.0453333,76.12)" />
    <path
       id="path47"
       d="m 170.07825,0 -2.83484,-2.83484"
       style="fill:none;stroke:#000000;stroke-width:0.3985;stroke-linecap:butt;stroke-linejoin:miter;stroke-miterlimit:10;stroke-dasharray:none;stroke-opacity:1"
       transform="matrix(1.3333333,0,0,-1.3333333,4.0453333,76.12)" />
    <path
       id="path48"
       d="m 175.74753,0 -2.83486,-2.83484"
       style="fill:none;stroke:#000000;stroke-width:0.3985;stroke-linecap:butt;stroke-linejoin:miter;stroke-miterlimit:10;stroke-dasharray:none;stroke-opacity:1"
       transform="matrix(1.3333333,0,0,-1.3333333,4.0453333,76.12)" />
    <path
       id="path49"
       d="m 181.4168,0 -2.83485,-2.83484"
       style="fill:none;stroke:#000000;stroke-width:0.3985;stroke-linecap:butt;stroke-linejoin:miter;stroke-miterlimit:10;stroke-dasharray:none;stroke-opacity:1"
       transform="matrix(1.3333333,0,0,-1.3333333,4.0453333,76.12)" />
    <path
       id="path50"
       d="m 187.08607,0 -2.83485,-2.83484"
       style="fill:none;stroke:#000000;stroke-width:0.3985;stroke-linecap:butt;stroke-linejoin:miter;stroke-miterlimit:10;stroke-dasharray:none;stroke-opacity:1"
       transform="matrix(1.3333333,0,0,-1.3333333,4.0453333,76.12)" />
    <path
       id="path51"
       d="M 192.75534,0 189.9205,-2.83484"
       style="fill:none;stroke:#000000;stroke-width:0.3985;stroke-linecap:butt;stroke-linejoin:miter;stroke-miterlimit:10;stroke-dasharray:none;stroke-opacity:1"
       transform="matrix(1.3333333,0,0,-1.3333333,4.0453333,76.12)" />
    <path
       id="path52"
       d="m 198.42462,0 -2.83485,-2.83484"
       style="fill:none;stroke:#000000;stroke-width:0.3985;stroke-linecap:butt;stroke-linejoin:miter;stroke-miterlimit:10;stroke-dasharray:none;stroke-opacity:1"
       transform="matrix(1.3333333,0,0,-1.3333333,4.0453333,76.12)" />
    <path
       id="path53"
       d="M 0,0 -2.83484,-2.83484"
       style="fill:none;stroke:#000000;stroke-width:0.3985;stroke-linecap:butt;stroke-linejoin:miter;stroke-miterlimit:10;stroke-dasharray:none;stroke-opacity:1"
       transform="matrix(1.3333333,0,0,-1.3333333,4.0453333,76.12)" />
    <path
       id="path54"
       d="M 0,5.66927 -2.83484,2.83441"
       style="fill:none;stroke:#000000;stroke-width:0.3985;stroke-linecap:butt;stroke-linejoin:miter;stroke-miterlimit:10;stroke-dasharray:none;stroke-opacity:1"
       transform="matrix(1.3333333,0,0,-1.3333333,4.0453333,76.12)" />
    <path
       id="path55"
       d="M 0,11.33855 -2.83484,8.5037"
       style="fill:none;stroke:#000000;stroke-width:0.3985;stroke-linecap:butt;stroke-linejoin:miter;stroke-miterlimit:10;stroke-dasharray:none;stroke-opacity:1"
       transform="matrix(1.3333333,0,0,-1.3333333,4.0453333,76.12)" />
    <path
       id="path56"
       d="M 0,17.00781 -2.83484,14.17296"
       style="fill:none;stroke:#000000;stroke-width:0.3985;stroke-linecap:butt;stroke-linejoin:miter;stroke-miterlimit:10;stroke-dasharray:none;stroke-opacity:1"
       transform="matrix(1.3333333,0,0,-1.3333333,4.0453333,76.12)" />
    <path
       id="path57"
       d="M 0,22.6771 -2.83484,19.84224"
       style="fill:none;stroke:#000000;stroke-width:0.3985;stroke-linecap:butt;stroke-linejoin:miter;stroke-miterlimit:10;stroke-dasharray:none;stroke-opacity:1"
       transform="matrix(1.3333333,0,0,-1.3333333,4.0453333,76.12)" />
    <path
       id="path58"
       d="M 0,28.34636 -2.83484,25.5115"
       style="fill:none;stroke:#000000;stroke-width:0.3985;stroke-linecap:butt;stroke-linejoin:miter;stroke-miterlimit:10;stroke-dasharray:none;stroke-opacity:1"
       transform="matrix(1.3333333,0,0,-1.3333333,4.0453333,76.12)" />
    <path
       id="path59"
       d="M 0,34.01564 -2.83484,31.18079"
       style="fill:none;stroke:#000000;stroke-width:0.3985;stroke-linecap:butt;stroke-linejoin:miter;stroke-miterlimit:10;stroke-dasharray:none;stroke-opacity:1"
       transform="matrix(1.3333333,0,0,-1.3333333,4.0453333,76.12)" />
    <path
       id="path60"
       d="M 0,39.6849 -2.83484,36.85005"
       style="fill:none;stroke:#000000;stroke-width:0.3985;stroke-linecap:butt;stroke-linejoin:miter;stroke-miterlimit:10;stroke-dasharray:none;stroke-opacity:1"
       transform="matrix(1.3333333,0,0,-1.3333333,4.0453333,76.12)" />
    <path
       id="path61"
       d="M 0,45.35419 -2.83484,42.51933"
       style="fill:none;stroke:#000000;stroke-width:0.3985;stroke-linecap:butt;stroke-linejoin:miter;stroke-miterlimit:10;stroke-dasharray:none;stroke-opacity:1"
       transform="matrix(1.3333333,0,0,-1.3333333,4.0453333,76.12)" />
    <path
       id="path62"
       d="M 0,51.02345 -2.83484,48.18861"
       style="fill:none;stroke:#000000;stroke-width:0.3985;stroke-linecap:butt;stroke-linejoin:miter;stroke-miterlimit:10;stroke-dasharray:none;stroke-opacity:1"
       transform="matrix(1.3333333,0,0,-1.3333333,4.0453333,76.12)" />
    <path
       id="path63"
       d="M 0,56.69275 -2.83484,53.8579"
       style="fill:none;stroke:#000000;stroke-width:0.3985;stroke-linecap:butt;stroke-linejoin:miter;stroke-miterlimit:10;stroke-dasharray:none;stroke-opacity:1"
       transform="matrix(1.3333333,0,0,-1.3333333,4.0453333,76.12)" />
  </g>
</svg>
