<?xml version="1.0" encoding="UTF-8" standalone="no"?>
<!-- Created with Inkscape (http://www.inkscape.org/) -->

<svg
   version="1.1"
   id="svg1"
   width="291.06668"
   height="163.70667"
   viewBox="0 0 291.06668 163.70667"
   sodipodi:docname="22-23-2-大学物理C-期中-第4题图.pdf"
   xmlns:inkscape="http://www.inkscape.org/namespaces/inkscape"
   xmlns:sodipodi="http://sodipodi.sourceforge.net/DTD/sodipodi-0.dtd"
   xmlns="http://www.w3.org/2000/svg"
   xmlns:svg="http://www.w3.org/2000/svg">
  <defs
     id="defs1" />
  <sodipodi:namedview
     id="namedview1"
     pagecolor="#ffffff"
     bordercolor="#000000"
     borderopacity="0.25"
     inkscape:showpageshadow="2"
     inkscape:pageopacity="0.0"
     inkscape:pagecheckerboard="0"
     inkscape:deskcolor="#d1d1d1">
    <inkscape:page
       x="0"
       y="0"
       inkscape:label="1"
       id="page1"
       width="291.06668"
       height="163.70667"
       margin="0"
       bleed="0" />
  </sodipodi:namedview>
  <g
     id="g1"
     inkscape:groupmode="layer"
     inkscape:label="1">
    <path
       id="path1"
       d="M -85.04044,0 H 127.56065"
       style="fill:none;stroke:#000000;stroke-width:0.3985;stroke-linecap:butt;stroke-linejoin:miter;stroke-miterlimit:10;stroke-dasharray:2.98883, 2.98883;stroke-dashoffset:0;stroke-opacity:1"
       transform="matrix(1.3333333,0,0,-1.3333333,120.72667,106.748)" />
    <path
       id="path2"
       d="M -73.64737,-42.52022 44.1883,25.51172"
       style="fill:none;stroke:#000000;stroke-width:0.3985;stroke-linecap:butt;stroke-linejoin:miter;stroke-miterlimit:10;stroke-dasharray:2.98883, 2.98883;stroke-dashoffset:0;stroke-opacity:1"
       transform="matrix(1.3333333,0,0,-1.3333333,120.72667,106.748)" />
    <path
       id="path3"
       d="m 44.5334,25.71097 65.93767,38.06935"
       style="fill:none;stroke:#000000;stroke-width:0.3985;stroke-linecap:butt;stroke-linejoin:miter;stroke-miterlimit:10;stroke-dasharray:none;stroke-opacity:1"
       transform="matrix(1.3333333,0,0,-1.3333333,120.72667,106.748)" />
    <path
       id="path4"
       d="M -2.07224,2.39104 C -1.69365,0.95639 -0.84999,0.27895 0,0 -0.84999,-0.27895 -1.69365,-0.95639 -2.07224,-2.39104"
       style="fill:none;stroke:#000000;stroke-width:0.3985;stroke-linecap:round;stroke-linejoin:round;stroke-miterlimit:10;stroke-dasharray:none;stroke-opacity:1"
       transform="matrix(-1.15468,0.66664,0.66664,1.15468,179.87448,72.599547)" />
    <g
       id="g4"
       aria-label="−→&#10;v&#10;0"
       transform="matrix(1.3333333,0,0,1.3333333,261.38,9.3013333)">
      <path
         id="path5"
         d="m 6.5616797,-2.2972891 c 0.1757812,0 0.3515625,0 0.3515625,-0.1992187 0,-0.1992188 -0.1757813,-0.1992188 -0.3515625,-0.1992188 h -5.390625 c -0.1640625,0 -0.33984376,0 -0.33984376,0.1992188 0,0.1992187 0.17578126,0.1992187 0.33984376,0.1992187 z m 1.7460937,0 c -0.5507812,0.421875 -0.8203125,0.8320313 -0.9023437,0.9609375 -0.4453125,0.69140629 -0.5273438,1.31250004 -0.5273438,1.32421879 0,0.1171875 0.1289063,0.1171875 0.1992188,0.1171875 0.1757812,0 0.1875,-0.01171875 0.2226562,-0.19921875 0.234375,-0.97265624 0.8203125,-1.80468754 1.9453125,-2.26171874 0.1171875,-0.046875 0.1523438,-0.070312 0.1523438,-0.140625 0,-0.058594 -0.070312,-0.09375 -0.082031,-0.1054688 -0.4453125,-0.1640625 -1.640625,-0.6679687 -2.0273437,-2.34375 -0.023437,-0.1171875 -0.035156,-0.140625 -0.2109375,-0.140625 -0.070312,0 -0.1992188,0 -0.1992188,0.1171875 0,0.023437 0.09375,0.6445313 0.515625,1.3125 0.1992188,0.3046875 0.4804688,0.6445313 0.9140625,0.9609375 H 0.90152344 c -0.17578125,0 -0.3515625,0 -0.3515625,0.1992188 0,0.1992187 0.17578125,0.1992187 0.3515625,0.1992187 z m 0,0"
         style="fill:#000000;fill-opacity:1;fill-rule:nonzero;stroke:none" />
      <path
         id="path6"
         d="m 4.9972266,0.58552344 c 0,-0.5390625 -0.2578125,-0.703125 -0.4453125,-0.703125 -0.2460938,0 -0.4804688,0.2578125 -0.4804688,0.48046875 0,0.12890625 0.046875,0.1875 0.1523438,0.3046875 0.2109375,0.19921875 0.3398437,0.45703121 0.3398437,0.80859371 0,0.421875 -0.609375,2.7070313 -1.7695312,2.7070313 -0.5039063,0 -0.7382813,-0.3515625 -0.7382813,-0.8671875 0,-0.5625 0.2695313,-1.2890625 0.5742188,-2.1210938 0.070312,-0.1640625 0.1289062,-0.30468746 0.1289062,-0.49218746 0,-0.4453125 -0.328125,-0.8203125 -0.8203125,-0.8203125 -0.9375,0 -1.31249999,1.45312496 -1.31249999,1.53515626 0,0.1054687 0.09375,0.1054687 0.1171875,0.1054687 0.09375,0 0.10546875,-0.023437 0.15234375,-0.1875 C 1.1886328,0.33942969 1.6222266,0.10505469 1.9034766,0.10505469 c 0.082031,0 0.2578125,0 0.2578125,0.31640625 0,0.24609375 -0.1054688,0.515625 -0.1757813,0.70312496 -0.4335937,1.1484375 -0.5625,1.6054688 -0.5625,2.0390625 0,1.078125 0.8671875,1.2304688 1.3359375,1.2304688 1.6640625,0 2.2382813,-3.2929688 2.2382813,-3.80859376 z m 0,0"
         style="fill:#000000;fill-opacity:1;fill-rule:nonzero;stroke:none" />
      <path
         id="path7"
         d="m 8.7589453,3.5562266 c 0,-0.7617188 -0.09375,-1.3125 -0.4101562,-1.8046875 C 8.1261328,1.4351328 7.7042578,1.1538828 7.1417578,1.1538828 c -1.6171875,0 -1.6171875,1.8984375 -1.6171875,2.4023438 0,0.5039062 0,2.3671875 1.6171875,2.3671875 1.6171875,0 1.6171875,-1.8632813 1.6171875,-2.3671875 z M 7.1417578,5.7241953 c -0.3164062,0 -0.75,-0.1875 -0.890625,-0.7617187 -0.09375,-0.4101563 -0.09375,-0.984375 -0.09375,-1.5 0,-0.5039063 0,-1.03125 0.1054688,-1.4179688 0.1523437,-0.5507812 0.5976562,-0.6914062 0.8789062,-0.6914062 0.375,0 0.7382813,0.2226562 0.8671875,0.6328125 0.1054688,0.375 0.1171875,0.8789062 0.1171875,1.4765625 0,0.515625 0,1.0429687 -0.09375,1.4765625 -0.140625,0.6328125 -0.609375,0.7851562 -0.890625,0.7851562 z m 0,0"
         style="fill:#000000;fill-opacity:1;fill-rule:nonzero;stroke:none" />
    </g>
    <path
       id="path8"
       d="M 36.82368,21.2601 V 42.52022"
       style="fill:none;stroke:#000000;stroke-width:0.3985;stroke-linecap:butt;stroke-linejoin:miter;stroke-miterlimit:10;stroke-dasharray:2.98883, 2.98883;stroke-dashoffset:0;stroke-opacity:1"
       transform="matrix(1.3333333,0,0,-1.3333333,120.72667,106.748)" />
    <path
       id="path9"
       d="M 36.42519,29.764 H -63.38182"
       style="fill:none;stroke:#000000;stroke-width:0.3985;stroke-linecap:butt;stroke-linejoin:miter;stroke-miterlimit:10;stroke-dasharray:none;stroke-opacity:1"
       transform="matrix(1.3333333,0,0,-1.3333333,120.72667,106.748)" />
    <path
       id="path10"
       d="M -2.07224,2.39104 C -1.69365,0.95639 -0.84999,0.27895 0,0 -0.84999,-0.27895 -1.69365,-0.95639 -2.07224,-2.39104"
       style="fill:none;stroke:#000000;stroke-width:0.3985;stroke-linecap:round;stroke-linejoin:round;stroke-miterlimit:10;stroke-dasharray:none;stroke-opacity:1"
       transform="matrix(1.3333333,0,0,-1.3333333,169.55925,67.062667)" />
    <path
       id="path11"
       d="M -2.07224,2.39104 C -1.69365,0.95639 -0.84999,0.27895 0,0 -0.84999,-0.27895 -1.69365,-0.95639 -2.07224,-2.39104"
       style="fill:none;stroke:#000000;stroke-width:0.3985;stroke-linecap:round;stroke-linejoin:round;stroke-miterlimit:10;stroke-dasharray:none;stroke-opacity:1"
       transform="matrix(-1.3333333,0,0,1.3333333,35.951907,67.062667)" />
    <path
       id="path12"
       d="m 6.4224609,-6.9244609 c 0,-0.023437 -0.011719,-0.09375 -0.1054687,-0.09375 -0.046875,0 -0.058594,0.011719 -0.1757813,0.140625 l -0.4804687,0.5742187 c -0.2578125,-0.46875 -0.7734375,-0.7148437 -1.4296875,-0.7148437 -1.265625,0 -2.4609375,1.1367187 -2.4609375,2.34375 0,0.8085937 0.5273437,1.265625 1.0429687,1.4179687 l 1.0664063,0.28125 c 0.3632812,0.082031 0.9140625,0.234375 0.9140625,1.0546875 0,0.890625 -0.8203125,1.82812501 -1.7929688,1.82812501 -0.6445312,0 -1.7460937,-0.2109375 -1.7460937,-1.45312501 0,-0.234375 0.046875,-0.4804687 0.058594,-0.5390625 0.011719,-0.035156 0.023437,-0.046875 0.023437,-0.070312 0,-0.09375 -0.070312,-0.1054687 -0.1171875,-0.1054687 -0.058594,0 -0.070312,0.011719 -0.1054687,0.035156 -0.035156,0.046875 -0.59765626,2.32031251 -0.59765626,2.34375001 0,0.0585937 0.046875,0.10546875 0.1171875,0.10546875 0.046875,0 0.0585938,-0.0117188 0.17578125,-0.15234375 L 1.3013672,-0.50258594 c 0.421875,0.5859375 1.1015625,0.7265625 1.6757812,0.7265625 1.359375,0 2.53125,-1.32421876 2.53125,-2.56640626 0,-0.6796875 -0.3398437,-1.0195312 -0.4921875,-1.1601562 -0.2226562,-0.234375 -0.375,-0.2695313 -1.265625,-0.5039063 -0.2109375,-0.058594 -0.5742187,-0.1523437 -0.65625,-0.1757812 -0.2695312,-0.09375 -0.609375,-0.375 -0.609375,-0.9023438 0,-0.8085937 0.796875,-1.6523437 1.734375,-1.6523437 0.8320313,0 1.4414063,0.421875 1.4414063,1.5351562 0,0.3164063 -0.046875,0.5039063 -0.046875,0.5625 0,0.011719 0,0.09375 0.1289062,0.09375 0.09375,0 0.1054688,-0.023437 0.140625,-0.1992187 z m 0,0"
       style="fill:#000000;fill-opacity:1;fill-rule:nonzero;stroke:none"
       aria-label="S"
       transform="matrix(1.3333333,0,0,1.3333333,98.3,62.369333)" />
    <path
       id="path13"
       d="M -63.78032,42.52022 V 0 m 2.12613,0 c 0,1.17422 -0.95191,2.12613 -2.12613,2.12613 -1.17422,0 -2.12613,-0.95191 -2.12613,-2.12613 0,-1.17422 0.95191,-2.12613 2.12613,-2.12613 1.17422,0 2.12613,0.95191 2.12613,2.12613 z m -2.12613,0 15.94508,-27.61777"
       style="fill:#000000;fill-opacity:1;fill-rule:nonzero;stroke:#000000;stroke-width:0.3985;stroke-linecap:butt;stroke-linejoin:miter;stroke-miterlimit:10;stroke-dasharray:2.98883, 2.98883;stroke-dashoffset:0;stroke-opacity:1"
       transform="matrix(1.3333333,0,0,-1.3333333,120.72667,106.748)" />
    <path
       id="path14"
       d="m 0.43392969,-5.5206719 0.43359375,0.4101563 c 0.18749996,-0.09375 0.39843746,-0.140625 0.63281246,-0.140625 h 3.2109375 v 0.8671875 H 3.0120547 l -0.75,-0.4101563 0.035156,0.9023438 v 1.9101562 l -0.035156,0.9609375 c 0.070312,-0.011719 0.1640625,-0.035156 0.2929687,-0.082031 0.1054688,-0.023437 0.1757813,-0.058594 0.1992188,-0.058594 0.023437,-0.011719 0.058594,-0.046875 0.09375,-0.082031 v -0.2109375 h 1.8632812 v 1.04296873 H 2.0042422 l -0.4804688,-0.0234375 0.4335938,0.41015625 c 0.2578125,-0.10546875 0.4453125,-0.15234375 0.5976562,-0.15234375 h 2.15625 V 0.95979688 H 1.1722109 L 0.66830469,0.94807813 1.1253359,1.3347969 C 1.2776797,1.2644844 1.3948672,1.2293281 1.4768984,1.2176094 1.5472109,1.2058906 1.6526797,1.1941719 1.7933047,1.1941719 h 7.6054687 c 0.058594,0 0.09375,-0.011719 0.1054688,-0.035156 0.023437,-0.023437 -0.011719,-0.070312 -0.1054688,-0.16406247 L 8.7542422,0.37385938 8.2151797,0.95979688 H 5.2854922 v -1.13671875 h 3.046875 c 0.070312,0 0.1289062,-0.0117188 0.140625,-0.0234375 0,-0.0117188 -0.023437,-0.0585937 -0.09375,-0.12890625 l -0.6328125,-0.5859375 -0.46875,0.50390625 H 5.2854922 V -1.4542656 h 1.875 v 0.2695312 l 0.1757812,-0.046875 0.1523438,-0.046875 c 0.09375,-0.023437 0.1875,-0.070312 0.3046875,-0.140625 l -0.046875,-0.8203125 v -1.734375 l 0.3046875,-0.234375 c 0.082031,-0.058594 0.082031,-0.1054687 0.035156,-0.140625 l -0.6796875,-0.46875 -0.328125,0.4335938 H 5.2854922 v -0.8671875 h 4.1953125 c 0.082031,0 0.1171875,-0.011719 0.140625,-0.035156 0,-0.011719 -0.023437,-0.058594 -0.09375,-0.1289062 L 8.8011172,-6.1066094 8.2737734,-5.4855156 H 5.2854922 v -1.1601563 c 0.7265625,-0.070312 1.3945312,-0.1171875 2.0273437,-0.1289062 h 0.3398438 c 0.082031,0 0.1289062,0 0.140625,-0.011719 0,-0.011719 -0.011719,-0.035156 -0.046875,-0.09375 L 7.3128359,-7.5948906 c -0.234375,0.1171875 -0.703125,0.2460937 -1.3945312,0.3984375 -0.703125,0.1757812 -2.3085938,0.3867187 -4.8515625,0.6328125 l 0.058594,0.140625 c 0.5625,-0.011719 1.1953125,-0.046875 1.921875,-0.09375 0.7148438,-0.035156 1.2773438,-0.070312 1.6640625,-0.09375 v 1.125 H 0.90267969 Z m 2.41406251,2.484375 v -1.1132812 h 1.8632812 v 1.1132812 z m 0,1.3476563 v -1.1132813 h 1.8632812 v 1.1132813 z m 4.3125,0 h -1.875 v -1.1132813 h 1.875 z m -1.875,-1.3476563 v -1.1132812 h 1.875 v 1.1132812 z m 5.1445308,2.06250003 0.105469,0.0703125 c 0.292969,-0.37500003 0.574219,-0.77343753 0.820313,-1.19531253 0.246093,-0.4335937 0.550781,-0.9960937 0.902343,-1.7109375 v 3.97265628 l -0.07031,1.37109372 c 0.02344,-0.011719 0.128906,-0.046875 0.328125,-0.140625 0.175781,-0.09375 0.304687,-0.140625 0.351562,-0.1640625 L 12.80893,0.03401563 V -3.6222344 c 0.234375,0.234375 0.375,0.4101563 0.457031,0.5507813 0.07031,0.1523437 0.140625,0.3046875 0.199219,0.4570312 0.05859,0.1640625 0.117187,0.2578125 0.164062,0.2695313 0.04687,0.023437 0.105469,0.011719 0.175781,-0.023437 0.07031,-0.046875 0.117188,-0.1289063 0.164063,-0.28125 0.04687,-0.1523438 0.04687,-0.28125 0,-0.3984375 -0.04687,-0.1289063 -0.164063,-0.2460938 -0.363281,-0.3632813 -0.1875,-0.1171875 -0.351563,-0.1992187 -0.480469,-0.234375 -0.117188,-0.046875 -0.222656,-0.09375 -0.316406,-0.1171875 v -1.3359375 h 1.5 c 0.04687,0 0.07031,-0.023437 0.07031,-0.046875 0.02344,-0.035156 0,-0.070312 -0.03516,-0.1054687 l -0.609375,-0.6328125 -0.421875,0.5507812 h -0.5039 v -1.546875 l 0.304687,-0.1992187 c 0.07031,-0.058594 0.117188,-0.082031 0.117188,-0.1054688 -0.01172,-0.023437 -0.03516,-0.035156 -0.08203,-0.070312 l -0.960937,-0.4453125 0.07031,1.0546875 v 1.3125 h -1.019531 l -0.703125,-0.035156 0.386719,0.3984375 0.164062,-0.070312 c 0.07031,-0.046875 0.269532,-0.058594 0.574219,-0.058594 h 0.421875 l -0.117187,0.4453125 c -0.105469,0.4570313 -0.292969,0.984375 -0.539063,1.6054688 -0.246094,0.5976562 -0.433594,1.03125 -0.5625,1.2890625 -0.140625,0.2578125 -0.28125,0.515625 -0.433594,0.78515623 z m 7.78125,-2.22656253 c -0.761718,1.2890625 -1.488281,2.21484378 -2.191406,2.78906253 -0.714844,0.57421875 -1.640625,1.1015625 -2.789062,1.54687497 l 0.04687,0.1757813 c 0.773437,-0.2109375 1.394531,-0.44531252 1.886718,-0.69140627 0.480469,-0.24609375 0.84375,-0.45703125 1.113282,-0.66796875 0.269531,-0.2109375 0.503906,-0.3984375 0.726562,-0.5859375 0.398438,0.328125 0.691406,0.62109375 0.902344,0.8671875 0.199219,0.24609375 0.363281,0.48046875 0.480469,0.7265625 0.105468,0.22265622 0.1875,0.36328122 0.234375,0.39843752 0.04687,0.070312 0.09375,0.09375 0.140625,0.09375 0.04687,-0.011719 0.09375,-0.035156 0.164062,-0.1171875 0.07031,-0.058594 0.105469,-0.1757813 0.140625,-0.3046875 0.02344,-0.15234377 0.01172,-0.30468752 -0.04687,-0.45703127 -0.05859,-0.140625 -0.234375,-0.328125 -0.527344,-0.5390625 -0.28125,-0.19921875 -0.761718,-0.45703125 -1.40625,-0.76171875 L 17.87143,-1.5831719 c 0.05859,-0.070312 0.269531,-0.3164062 0.621093,-0.7382812 l 0.339844,-0.070312 0.08203,-0.023437 c 0.02344,-0.011719 -0.01172,-0.046875 -0.08203,-0.140625 z m -1.617187,-0.023437 c -0.574219,0.7734375 -1.113281,1.3476563 -1.605469,1.7578125 -0.480469,0.4101563 -0.949219,0.73828128 -1.394531,1.00781253 l 0.08203,0.140625 c 0.703125,-0.375 1.183594,-0.65625 1.488281,-0.86718753 0.28125,-0.2109375 0.597657,-0.4804687 0.914063,-0.7851562 0.339844,-0.3164063 0.621094,-0.609375 0.867187,-0.890625 l 0.726563,-0.890625 c 0.07031,-0.070312 0.175781,-0.1992188 0.316406,-0.3398438 l 0.246094,-0.082031 c 0.05859,-0.023437 0.08203,-0.046875 0.09375,-0.070312 0,-0.023437 -0.02344,-0.046875 -0.04687,-0.082031 l -0.714844,-0.5859375 c -0.117187,0.2695313 -0.222656,0.4921875 -0.316406,0.6796875 -0.09375,0.1875 -0.246094,0.4335938 -0.445313,0.7382813 h -1.863281 c 0.445313,-0.4570313 0.902344,-0.9726563 1.371094,-1.5234375 l 0.328125,-0.082031 c 0.07031,-0.011719 0.117187,-0.035156 0.128906,-0.046875 0,-0.011719 -0.04687,-0.070312 -0.152344,-0.1640625 l -0.515625,-0.3984375 h 3.480469 c 0.04687,0 0.08203,-0.011719 0.08203,-0.035156 0.02344,-0.011719 -0.01172,-0.058594 -0.05859,-0.1171875 l -0.679688,-0.6796875 -0.492187,0.5976562 h -1.757813 c 0.210938,-0.1992187 0.328125,-0.375 0.363281,-0.5390625 0,-0.070312 -0.01172,-0.1875 -0.07031,-0.328125 -0.05859,-0.1640625 -0.46875,-0.4335937 -1.230469,-0.84375 l -0.08203,0.1054688 c 0.210937,0.2460937 0.375,0.46875 0.480469,0.6679687 0.105468,0.1875 0.164062,0.3632813 0.222656,0.5390625 0.04687,0.1640625 0.08203,0.2578125 0.09375,0.2929688 l 0.04687,0.1054687 h -1.59375 l -0.867188,-0.023437 0.433594,0.3867188 0.222656,-0.082031 c 0.07031,-0.023437 0.222657,-0.046875 0.480469,-0.046875 h 0.761719 c -0.152344,0.3515625 -0.375,0.7851563 -0.679688,1.3125 -0.304687,0.5273438 -0.503906,0.8085938 -0.609375,0.84375 -0.105468,0.046875 -0.210937,0.058594 -0.339843,0.058594 l 0.257812,0.6914062 0.328125,-0.1171875 c 0.210938,-0.070312 0.773438,-0.1757812 1.699219,-0.3046875 z m 0,0"
       style="fill:#000000;fill-opacity:1;fill-rule:nonzero;stroke:none"
       aria-label="重核"
       transform="matrix(1.3333333,0,0,1.3333333,4.4253333,100.00933)" />
    <path
       id="path15"
       d="m 2.3783125,-6.8075156 c 0,0 0,-0.1054688 -0.1289062,-0.1054688 -0.2226563,0 -0.9492188,0.082031 -1.21875,0.1054688 -0.0703125,0 -0.18750005,0.011719 -0.18750005,0.1992187 0,0.1171875 0.09375,0.1171875 0.24609375,0.1171875 0.46875,0 0.4921875,0.070312 0.4921875,0.1640625 0,0.070312 -0.082031,0.4101563 -0.140625,0.6210938 l -0.80859375,3.2460937 c -0.12890625,0.5039063 -0.1640625,0.65625 -0.1640625,1.0078125 0,0.94921878 0.52734375,1.55859378 1.26562505,1.55859378 1.171875,0 2.4023437,-1.47656248 2.4023437,-2.91796878 0,-0.9023437 -0.5273437,-1.59375 -1.3242187,-1.59375 -0.4570313,0 -0.8671875,0.2929688 -1.171875,0.5976563 z m -0.9375,3.7734375 c 0.058594,-0.2226563 0.058594,-0.2460938 0.1523438,-0.3515625 0.4921875,-0.6445313 0.9375,-0.796875 1.1953125,-0.796875 0.3632812,0 0.6328125,0.2929687 0.6328125,0.9375 0,0.5859375 -0.328125,1.734375 -0.515625,2.109375 -0.328125,0.66796873 -0.7851563,1.03124998 -1.171875,1.03124998 -0.3398438,0 -0.6679688,-0.26953125 -0.6679688,-1.00781248 0,-0.1875 0,-0.3867188 0.1640625,-1.0078125 z m 0,0"
       style="fill:#000000;fill-opacity:1;fill-rule:nonzero;stroke:none"
       aria-label="b"
       transform="matrix(1.3333333,0,0,1.3333333,35.922667,129.772)" />
    <path
       id="path16"
       d="m -49.96136,-23.93578 -3.682,-2.12614 2.12615,-3.68198"
       style="fill:none;stroke:#000000;stroke-width:0.3985;stroke-linecap:butt;stroke-linejoin:miter;stroke-miterlimit:10;stroke-dasharray:none;stroke-opacity:1"
       transform="matrix(1.3333333,0,0,-1.3333333,120.72667,106.748)" />
    <path
       id="path17"
       d="m 78.662,-42.52022 -7.23419,2.9988 -6.70543,2.99878 -6.1734,2.99879 -5.64787,2.99878 -5.11908,2.99879 -4.58705,2.9988 -4.06156,2.99878 -3.52949,2.9988 -3.00398,2.99877 -2.47196,2.9988 -1.94643,2.99876 -1.41763,2.9988 -0.88562,2.99879 -0.36009,2.99878 0.17128,2.99876 0.69812,2.99878 1.22754,2.9988 1.75567,2.99878 2.28446,2.99879 2.81323,2.99878 3.342,2.99879 3.87077,2.99878 4.39958,2.99878 4.92833,2.9988"
       style="fill:none;stroke:#000000;stroke-width:0.3985;stroke-linecap:butt;stroke-linejoin:miter;stroke-miterlimit:10;stroke-dasharray:none;stroke-opacity:1"
       transform="matrix(1.3333333,0,0,-1.3333333,120.72667,106.748)" />
    <path
       id="path18"
       d="m 0.28195313,1.1132266 0.10546875,0.070312 0.2109375,-0.1640625 c 0.09375,-0.0820313 0.24609375,-0.25781254 0.48046872,-0.56250004 0.234375,-0.28125 0.4453125,-0.59765625 0.6210938,-0.9375 0.1875,-0.328125 0.3046875,-0.67968746 0.375,-1.03124996 0.058594,-0.375 0.09375,-0.6796875 0.1171875,-0.9609375 0.035156,-0.2578125 0.046875,-0.5390625 0.058594,-0.8203125 0.023437,-0.28125 0.035156,-0.5625 0.046875,-0.8320313 0,-0.2695312 0,-0.5859375 0.011719,-0.9375 h 3.0117187 l -0.1054687,1.21875 h -1.242188 l -0.6679688,-0.3398437 0.058594,0.8554687 v 1.6992188 l -0.035156,1.07812496 c 0.2695313,-0.0703125 0.4804688,-0.1640625 0.6210938,-0.29296875 L 3.9147656,-1.6406797 v -1.9804687 h 3.6445313 v 2.25 l -0.035156,0.82031246 c 0.28125,-0.10546875 0.5273438,-0.22265625 0.6914063,-0.3515625 L 8.1452344,-1.8164609 v -1.6757813 l 0.2226562,-0.1640625 c 0.082031,-0.058594 0.1171875,-0.09375 0.1171875,-0.1054687 -0.011719,0 -0.023437,-0.035156 -0.070312,-0.070312 L 7.7467969,-4.3359922 7.4538281,-3.8438047 h -1.6875 l 0.1171875,-1.21875 h 3.609375 c 0.09375,0 0.1289063,-0.011719 0.1523438,-0.023437 0,-0.023437 -0.035156,-0.070312 -0.1171875,-0.1523437 l -0.6445313,-0.6445313 -0.5625,0.5976563 H 5.8952344 l 0.058594,-0.6445313 0.2109375,-0.1171875 c 0.082031,-0.046875 0.1171875,-0.082031 0.1171875,-0.1054687 0,-0.023437 -0.070312,-0.058594 -0.1875,-0.1171875 l -0.7148437,-0.328125 v 0.375 c 0,0.035156 -0.011719,0.140625 -0.023437,0.3398437 l -0.035156,0.5976563 H 2.3092969 v -1.1015625 c 1.6640625,-0.1171875 2.9296875,-0.2226563 3.8085937,-0.3164063 l 0.9726563,-0.1054687 c 0.1640625,-0.011719 0.4101562,-0.046875 0.7382812,-0.070312 l 0.3515625,0.023437 0.1875,0.046875 -0.09375,-0.140625 -0.4804687,-0.703125 c -0.3515625,0.1757812 -1.078125,0.3632812 -2.1914063,0.5859375 -1.1015625,0.234375 -2.203125,0.3867187 -3.2929687,0.4804687 l -0.6445313,-0.3984375 0.035156,0.9960938 v 1.8984375 c 0,0.328125 0,0.6914062 -0.011719,1.0898437 -0.011719,0.3984375 -0.035156,0.7265625 -0.058594,1.0078125 -0.023437,0.2578125 -0.070312,0.515625 -0.1171875,0.7617188 -0.058594,0.25781246 -0.1523438,0.52734371 -0.28125,0.82031246 -0.1171875,0.3046875 -0.24609377,0.55078125 -0.37500002,0.7734375 -0.140625,0.19921875 -0.328125,0.45703125 -0.57421795,0.74999954 z m 5.32031247,-1.57031254 0.1054688,-0.28125 c 0.046875,-0.12890625 0.09375,-0.31640626 0.1289062,-0.56249996 0.046875,-0.2578125 0.082031,-0.4570313 0.1054688,-0.6210938 0.011719,-0.1757812 0.035156,-0.3632812 0.070312,-0.5859375 l 0.1992187,-0.1171875 c 0.070312,-0.046875 0.1171875,-0.070312 0.1289063,-0.09375 0,-0.023437 -0.058594,-0.046875 -0.1757813,-0.1054687 l -0.75,-0.3164063 -0.023437,0.4804688 c -0.011719,0.2460937 -0.035156,0.4921875 -0.046875,0.7265625 0,0.2226562 -0.023437,0.4335937 -0.058594,0.6210937 -0.023437,0.1875 -0.1289063,0.48046876 -0.2695313,0.89062501 -0.1523437,0.4218750025 -0.6210937,0.78515625 -1.3945312,1.125 C 2.8600781,1.0194766 2.2038281,1.2421328 1.6647656,1.3827578 l 0.035156,0.1289063 c 0.4921875,-0.082031 1.078125,-0.2226563 1.7695312,-0.4335938 0.6796875,-0.19921874 1.171875,-0.44531249 1.453125,-0.73828124 0.28125,-0.3046875 0.4804688,-0.515625 0.5859375,-0.65625 0.4101563,0.140625 0.703125,0.24609375 0.9023438,0.328125 0.1992187,0.08203125 0.4570312,0.1875 0.7734375,0.3515625 0.3164062,0.140625 0.5625,0.26953125 0.75,0.38671875 0.1757812,0.10546875 0.3984375,0.29296879 0.65625,0.55078129 0.09375,0.1054687 0.1640625,0.1523437 0.2109375,0.140625 0.035156,-0.011719 0.082031,-0.035156 0.1640625,-0.1054688 0.058594,-0.058594 0.09375,-0.1757812 0.070312,-0.33984374 -0.023437,-0.17578125 -0.09375,-0.33984375 -0.1992188,-0.4921875 -0.1054687,-0.1640625 -0.46875,-0.31640625 -1.0664062,-0.46875 -0.5859375,-0.140625 -1.3125,-0.3046875 -2.167968,-0.4921875 z M 14.778047,-3.6211484 h -3.914063 l -0.492187,-0.035156 0.410156,0.4101563 0.175781,-0.09375 c 0.07031,-0.046875 0.222657,-0.070312 0.445313,-0.070312 h 3.375 v 3.44531246 c 0,0.12890625 -0.01172,0.2109375 -0.05859,0.26953125 -0.04687,0.046875 -0.222656,0.0585938 -0.539062,0.0585938 -0.316407,-0.0234375 -0.761719,-0.0703125 -1.324219,-0.15234375 v 0.15234375 c 0.457031,0.1171875 0.726562,0.1875 0.808594,0.2109375 0.09375,0.0351563 0.1875,0.0820313 0.316406,0.17578125 0.117187,0.0820313 0.199219,0.1875 0.234375,0.28124994 0.03516,0.1289063 0.08203,0.234375 0.105469,0.3515625 0.304687,-0.140625 0.503906,-0.2226562 0.585937,-0.28125 0.09375,-0.046875 0.199219,-0.11718744 0.292969,-0.19921869 0.09375,-0.0820313 0.152344,-0.15234375 0.175781,-0.2109375 0.03516,-0.0585938 0.04687,-0.1875 0.04687,-0.38671875 V -3.4102109 h 4.078125 c 0.05859,0 0.105469,-0.011719 0.117188,-0.011719 0.01172,-0.023437 -0.01172,-0.070312 -0.07031,-0.140625 l -0.65625,-0.703125 -0.609375,0.6445313 H 15.42258 v -1.078125 l 0.257813,-0.1757813 c 0.07031,-0.046875 0.105468,-0.070312 0.105468,-0.070312 0,0 -0.03516,-0.023437 -0.105468,-0.070312 l -0.1875,-0.1054687 0.527343,-0.328125 0.878907,-0.5273438 c 0.05859,-0.035156 0.199218,-0.1171875 0.457031,-0.28125 0.246094,-0.1640625 0.410156,-0.2578125 0.480469,-0.28125 0.08203,-0.023437 0.210937,-0.046875 0.398437,-0.070312 0.175781,-0.011719 0.292969,-0.023437 0.363281,-0.023437 0.07031,0 0.105469,-0.011719 0.105469,-0.035156 0.02344,-0.011719 -0.01172,-0.070312 -0.07031,-0.140625 l -0.796875,-0.7851563 -0.550782,0.5390625 h -5.367187 l -0.457031,-0.023437 0.363281,0.3867188 0.117187,-0.070312 c 0.07031,-0.046875 0.292969,-0.058594 0.644532,-0.058594 h 4.570312 l -0.785156,0.703125 c -0.128906,0.1289063 -0.503906,0.421875 -1.113281,0.890625 l -0.527344,-0.2578125 0.04687,0.9257813 z m 5.463867,-2.3203125 0.375,0.3984375 c 0.199219,-0.09375 0.410156,-0.140625 0.644531,-0.140625 h 0.292969 l -0.09375,0.375 -0.1875,0.5742187 c -0.1875,0.609375 -0.328125,0.9726563 -0.410156,1.0898438 -0.08203,0.1054687 -0.140625,0.1875 -0.199219,0.2226562 -0.03516,0.035156 -0.117187,0.070312 -0.210937,0.1171875 l 0.527343,0.5507813 0.351563,-0.3632813 h 1.125 v 1.6523438 c -0.855469,0.2109375 -1.582031,0.3632812 -2.191406,0.4570312 l 0.457031,0.71484376 c 0.269531,-0.140625 0.503906,-0.24609375 0.703125,-0.33984375 0.199219,-0.0820313 0.539062,-0.2109375 1.03125,-0.37500001 v 1.44140626 l -0.05859,1.26562504 c 0.28125,-0.09375 0.527344,-0.1992188 0.738281,-0.3046875 L 23.030977,0.32807031 V -1.2539609 l 1.828125,-0.5976563 -0.03516,-0.1640625 -1.78125,0.3867188 v -1.5117188 l 1.746094,0.023437 c 0.105469,0 0.152344,-0.011719 0.164063,-0.035156 0.01172,-0.035156 -0.01172,-0.070312 -0.05859,-0.1289063 l -0.644531,-0.65625 -0.46875,0.5859375 h -0.75 v -1.03125 l 0.304687,-0.1757812 c 0.07031,-0.035156 0.09375,-0.058594 0.09375,-0.082031 -0.01172,-0.035156 -0.07031,-0.070312 -0.199219,-0.1171875 l -0.832031,-0.328125 0.05859,0.9492188 v 0.7851562 h -1.125 l 0.796875,-2.3320312 h 2.882812 c 0.05859,0 0.07031,-0.011719 0.09375,-0.035156 0,-0.011719 -0.01172,-0.035156 -0.03516,-0.070312 l -0.75,-0.6914062 -0.445312,0.5507812 h -1.6875 l 0.328125,-1.0664062 0.386718,-0.140625 c 0.04687,0 0.08203,-0.023437 0.09375,-0.058594 0,-0.023437 -0.04687,-0.058594 -0.128906,-0.1054687 l -0.785156,-0.4335938 -0.08203,0.3867188 c -0.09375,0.3632812 -0.210938,0.8320312 -0.375,1.4179687 h -0.667969 z m 3.023438,7.59375 0.09375,0.1289062 c 0.375,-0.28125 0.621093,-0.4804687 0.75,-0.5859375 0.117187,-0.1054687 0.316406,-0.29296874 0.574218,-0.56249999 0.28125,-0.26953125 0.503907,-0.55078125 0.679688,-0.85546875 0.175781,-0.28125 0.304687,-0.609375 0.410156,-0.97265626 0.09375,-0.3515625 0.175781,-0.7382812 0.234375,-1.1601562 0.04687,-0.4335938 0.08203,-0.8320313 0.117188,-1.1953125 0.01172,-0.375 0.04687,-0.796875 0.08203,-1.265625 l 1.253906,-0.1054688 -0.199219,4.74609376 c -0.03516,0.48046875 -0.03516,0.78515625 -0.01172,0.9140625 0.01172,0.12890625 0.07031,0.22265625 0.152343,0.31640624 0.05859,0.082031 0.234375,0.1289063 0.480469,0.1523438 0.152344,0.011719 0.351563,0.023437 0.597656,0.011719 0.246094,-0.023437 0.457032,-0.058594 0.644532,-0.1054687 0.1875,-0.046875 0.328125,-0.23437504 0.410156,-0.56250004 l -0.199219,-0.1171875 c -0.04687,-0.0117188 -0.09375,-0.10546875 -0.128906,-0.2578125 -0.03516,-0.15234375 -0.05859,-0.328125 -0.07031,-0.515625 -0.01172,-0.1875 -0.01172,-0.38671875 -0.01172,-0.609375 H 28.99582 l -0.07031,0.5390625 c -0.03516,0.3515625 -0.07031,0.64453125 -0.128906,0.87890625 -0.04687,0.234375 -0.269532,0.31640625 -0.667969,0.24609375 -0.128906,-0.0117188 -0.199219,-0.046875 -0.234375,-0.09375 -0.03516,-0.046875 -0.05859,-0.10546875 -0.05859,-0.19921875 -0.02344,-0.0820313 -0.01172,-0.2578125 0,-0.48046875 l 0.1875,-4.64062496 0.316406,-0.2226563 c 0.07031,-0.046875 0.117188,-0.09375 0.117188,-0.1171875 0,-0.023437 -0.03516,-0.046875 -0.08203,-0.1054687 l -0.691407,-0.46875 -0.292968,0.46875 -1.171875,0.09375 0.128906,-1.828125 0.28125,-0.1875 c 0.05859,-0.035156 0.09375,-0.070312 0.09375,-0.09375 -0.01172,-0.035156 -0.04687,-0.046875 -0.09375,-0.070312 l -0.914063,-0.375 v 0.6679687 c 0,0.1171875 -0.01172,0.3398438 -0.02344,0.6796875 -0.01172,0.3398438 -0.02344,0.7382813 -0.04687,1.2070313 l -1.652344,0.1289062 0.445313,0.3984375 c 0.1875,-0.1171875 0.398437,-0.1875 0.632812,-0.2109375 l 0.574219,-0.035156 -0.03516,0.75 c -0.01172,0.234375 -0.03516,0.6445312 -0.08203,1.2304687 -0.05859,0.5859375 -0.164062,1.1835938 -0.304687,1.7695313 -0.152344,0.59765621 -0.421875,1.12499996 -0.820313,1.54687496 C 24.00364,0.96088381 23.616921,1.3358838 23.265359,1.6522901 Z m 6.75,-5.1796875 0.445312,0.4101562 c 0.1875,-0.09375 0.386719,-0.140625 0.597656,-0.140625 h 0.703125 v 3.36328126 c -0.246093,0.0820313 -0.492187,0.1875 -0.738281,0.31640625 -0.246094,0.1171875 -0.527344,0.24609375 -0.820312,0.38671875 l 0.421875,0.62109374 c 0.328125,-0.375 0.5625,-0.60937499 0.703125,-0.73828124 0.140625,-0.12890625 0.269531,-0.22265625 0.386718,-0.26953125 0.117188,-0.0585938 0.222657,-0.0703125 0.328125,-0.046875 0.09375,0.0351563 0.269532,0.15234375 0.503907,0.3515625 0.234375,0.19921875 0.515625,0.36328129 0.84375,0.46874999 0.328125,0.1171875 0.902343,0.1875 1.734375,0.2109375 0.820312,0.023437 1.992187,0.023437 3.503906,0.023437 0.117187,-0.1992187 0.210937,-0.328125 0.316406,-0.421875 0.09375,-0.09375 0.199219,-0.15234374 0.28125,-0.18749999 0.09375,-0.0351563 0.222656,-0.0703125 0.386719,-0.1171875 l -0.05859,-0.12890625 c -0.632812,0.10546875 -1.195312,0.1640625 -1.6875,0.19921875 -0.503906,0.0234375 -1.21875,0.0585938 -2.167969,0.10546875 -0.9375,0.0234375 -1.59375,0.0117188 -1.957031,-0.0585938 -0.363281,-0.0703125 -0.632812,-0.15234375 -0.808594,-0.22265625 -0.175781,-0.0820313 -0.375,-0.2109375 -0.597656,-0.375 V -3.1172422 l 0.269531,-0.234375 c 0.07031,-0.070312 0.105469,-0.1054687 0.105469,-0.1171875 0,-0.011719 -0.03516,-0.035156 -0.105469,-0.082031 l -0.65625,-0.3984375 -0.328125,0.4570312 h -0.9375 z m 0.867187,-3.3164063 c 0.246094,0.234375 0.433594,0.4101563 0.539063,0.5507813 0.09375,0.140625 0.175781,0.2695312 0.234375,0.3984375 0.07031,0.1289062 0.128906,0.2578125 0.152343,0.3867187 0.03516,0.1289063 0.07031,0.2226563 0.105469,0.2695313 0.03516,0.046875 0.08203,0.070312 0.152344,0.070312 0.05859,0.011719 0.117187,-0.023437 0.175781,-0.09375 0.05859,-0.058594 0.09375,-0.1289063 0.140625,-0.2226563 0.01172,-0.070312 0.03516,-0.1640625 0.04687,-0.2695312 0,-0.1171875 -0.03516,-0.2460938 -0.117187,-0.3867188 -0.05859,-0.1523437 -0.527344,-0.3984375 -1.371094,-0.7734375 z m 1.898438,0.8320313 0.421875,0.4101562 c 0.246093,-0.082031 0.46875,-0.1289062 0.644531,-0.1289062 h 1.605469 l -0.02344,0.1757812 c -0.03516,0.1875 -0.09375,0.46875 -0.199219,0.8320313 h -0.539062 l -0.667969,-0.3398438 0.05859,1.1132813 v 3.03515621 l -0.05859,1.21875 c 0.08203,0 0.199219,-0.0234375 0.328125,-0.0820312 0.128906,-0.0585938 0.222656,-0.1171875 0.28125,-0.1640625 v -0.609375 H 37.4216 v 0.75 c 0.175781,-0.0351563 0.398437,-0.12890625 0.644531,-0.3046875 l -0.04687,-0.93750001 -0.01172,-3.2695313 0.269531,-0.2109375 c 0.04687,-0.046875 0.08203,-0.082031 0.08203,-0.09375 0,-0.023437 -0.04687,-0.070312 -0.152344,-0.1523437 l -0.621094,-0.421875 -0.363281,0.46875 h -1.734375 l 0.667969,-1.0078125 h 3.175781 c 0.04687,0 0.08203,-0.011719 0.09375,-0.046875 0,-0.023437 -0.01172,-0.058594 -0.04687,-0.1054688 l -0.726563,-0.6679687 -0.492187,0.5859375 H 36.44895 c 0.375,-0.3867188 0.726563,-0.7265625 1.054688,-1.03125 l 0.210937,-0.058594 c 0.09375,-0.023437 0.140625,-0.046875 0.164063,-0.058594 0,-0.023437 -0.07031,-0.082031 -0.222656,-0.1757813 l -0.632813,-0.3867187 -0.07031,0.2460937 c -0.02344,0.070312 -0.05859,0.1757813 -0.128907,0.3398438 -0.07031,0.140625 -0.140625,0.28125 -0.222656,0.421875 -0.09375,0.140625 -0.234375,0.375 -0.445312,0.703125 h -0.914063 l 0.128906,-0.2460938 c 0.03516,-0.046875 0.04687,-0.1289062 0.04687,-0.2226562 0,-0.09375 -0.04687,-0.234375 -0.152343,-0.3984375 -0.105469,-0.1757813 -0.433594,-0.3984375 -0.960938,-0.65625 l -0.05859,0.082031 0.269532,0.3164063 c 0.04687,0.046875 0.08203,0.1289062 0.128906,0.2578125 0.05859,0.1171875 0.09375,0.234375 0.128906,0.3398437 0.02344,0.1171875 0.05859,0.28125 0.117188,0.5273438 H 33.55442 Z m 1.851562,2.5664062 v -1.0429687 h 2.789063 v 1.03125 z m 0,1.3125 v -1.078125 h 2.789063 v 1.078125 z m 0,1.37109376 V -1.8984922 h 2.789063 v 1.12500001 z m 0,0"
       style="fill:#000000;fill-opacity:1;fill-rule:nonzero;stroke:none"
       aria-label="质子轨道"
       transform="matrix(1.3333333,0,0,1.3333333,210.46,122.05867)" />
  </g>
</svg>
