<?xml version="1.0" encoding="UTF-8" standalone="no"?>
<!-- Created with Inkscape (http://www.inkscape.org/) -->

<svg
   version="1.1"
   id="svg1"
   width="287.65332"
   height="207.75999"
   viewBox="0 0 287.65332 207.75999"
   sodipodi:docname="24-25-1-离散数学II-期末-是图10.pdf"
   xmlns:inkscape="http://www.inkscape.org/namespaces/inkscape"
   xmlns:sodipodi="http://sodipodi.sourceforge.net/DTD/sodipodi-0.dtd"
   xmlns="http://www.w3.org/2000/svg"
   xmlns:svg="http://www.w3.org/2000/svg">
  <defs
     id="defs1" />
  <sodipodi:namedview
     id="namedview1"
     pagecolor="#ffffff"
     bordercolor="#000000"
     borderopacity="0.25"
     inkscape:showpageshadow="2"
     inkscape:pageopacity="0.0"
     inkscape:pagecheckerboard="0"
     inkscape:deskcolor="#d1d1d1">
    <inkscape:page
       x="0"
       y="0"
       inkscape:label="1"
       id="page1"
       width="287.65332"
       height="207.75999"
       margin="0"
       bleed="0" />
  </sodipodi:namedview>
  <g
     id="g1"
     inkscape:groupmode="layer"
     inkscape:label="1">
    <path
       id="path1"
       d="m -61.18683,-22.07051 v 155.8219 h 215.74271 v -155.8219 z"
       style="fill:#ffffff;fill-opacity:1;fill-rule:nonzero;stroke:none"
       transform="matrix(1.3333333,0,0,-1.3333333,81.581333,178.33333)" />
    <path
       id="path2"
       d="M 10.0491,45.3549 C 10.0491,50.90494 5.55003,55.404 0,55.404 c -5.55003,0 -10.0491,-4.49906 -10.0491,-10.0491 0,-5.55004 4.49907,-10.04911 10.0491,-10.04911 5.55003,0 10.0491,4.49907 10.0491,10.04911 z"
       style="fill:none;stroke:#000000;stroke-width:0.3985;stroke-linecap:butt;stroke-linejoin:miter;stroke-miterlimit:10;stroke-dasharray:none;stroke-opacity:1"
       transform="matrix(1.3333333,0,0,-1.3333333,81.581333,178.33333)" />
    <g
       id="g2"
       aria-label="s&#10;0"
       transform="matrix(1.3333333,0,0,1.3333333,75.488,119.724)">
      <path
         id="path3"
         d="m 3.8908359,-3.7275703 c -0.2695312,0.011719 -0.46875,0.234375 -0.46875,0.4453125 0,0.140625 0.082031,0.2929687 0.3046875,0.2929687 0.2226563,0 0.4570313,-0.1640625 0.4570313,-0.5625 0,-0.4453125 -0.4335938,-0.8554687 -1.1835938,-0.8554687 -1.3125,0 -1.6875,1.0195312 -1.6875,1.453125 0,0.7851562 0.7382813,0.9257812 1.03125,0.9960937 0.515625,0.09375 1.03125,0.1992188 1.03125,0.75 0,0.25781254 -0.2226562,1.10156254 -1.4179687,1.10156254 -0.140625,0 -0.9140625,0 -1.13671876,-0.52734375 0.37499996,0.046875 0.62109376,-0.2578125 0.62109376,-0.52734379 0,-0.234375 -0.1523438,-0.3515625 -0.3632813,-0.3515625 -0.25781246,0 -0.56249996,0.2109375 -0.56249996,0.65625004 0,0.5625 0.57421876,0.9609375 1.42968746,0.9609375 1.6054688,0 2.0039063,-1.20703124 2.0039063,-1.65234374 0,-0.3515625 -0.1992188,-0.609375 -0.3164063,-0.7265625 -0.2695312,-0.28125 -0.5507812,-0.328125 -0.9960937,-0.421875 -0.3515625,-0.070312 -0.75,-0.140625 -0.75,-0.5976563 0,-0.28125 0.234375,-0.890625 1.1132812,-0.890625 0.2460938,0 0.75,0.070312 0.890625,0.4570313 z m 0,0"
         style="fill:#000000;fill-opacity:1;fill-rule:nonzero;stroke:none" />
      <path
         id="path4"
         d="m 8.2677891,-0.73342969 c 0,-0.76171871 -0.09375,-1.31250001 -0.4101563,-1.80468751 -0.2226562,-0.3164062 -0.6445312,-0.5976562 -1.2070312,-0.5976562 -1.6171875,0 -1.6171875,1.8984375 -1.6171875,2.40234371 0,0.50390625 0,2.36718749 1.6171875,2.36718749 1.6171875,0 1.6171875,-1.86328124 1.6171875,-2.36718749 z M 6.6506016,1.4345391 c -0.3164063,0 -0.75,-0.1875 -0.890625,-0.76171879 -0.09375,-0.41015625 -0.09375,-0.984375 -0.09375,-1.5 0,-0.50390621 0,-1.03125001 0.1054687,-1.41796871 0.1523438,-0.5507813 0.5976563,-0.6914063 0.8789063,-0.6914063 0.375,0 0.7382812,0.2226563 0.8671875,0.6328125 0.1054687,0.375 0.1171875,0.8789063 0.1171875,1.47656251 0,0.515625 0,1.04296875 -0.09375,1.4765625 C 7.4006016,1.2821953 6.9318516,1.4345391 6.6506016,1.4345391 Z m 0,0"
         style="fill:#000000;fill-opacity:1;fill-rule:nonzero;stroke:none" />
    </g>
    <path
       id="path5"
       d="m 66.74274,90.70981 c 0,5.55003 -4.49907,10.0491 -10.04911,10.0491 -5.55004,0 -10.04911,-4.49907 -10.04911,-10.0491 0,-5.55005 4.49907,-10.04912 10.04911,-10.04912 5.55004,0 10.04911,4.49907 10.04911,10.04912 z"
       style="fill:none;stroke:#000000;stroke-width:0.3985;stroke-linecap:butt;stroke-linejoin:miter;stroke-miterlimit:10;stroke-dasharray:none;stroke-opacity:1"
       transform="matrix(1.3333333,0,0,-1.3333333,81.581333,178.33333)" />
    <g
       id="g5"
       aria-label="s&#10;1"
       transform="matrix(1.3333333,0,0,1.3333333,151.08,59.250667)">
      <path
         id="path6"
         d="m 3.8892187,-3.7270625 c -0.2695312,0.011719 -0.46875,0.234375 -0.46875,0.4453125 0,0.140625 0.082031,0.2929687 0.3046875,0.2929687 0.2226563,0 0.4570313,-0.1640625 0.4570313,-0.5625 0,-0.4453125 -0.4335938,-0.8554687 -1.1835938,-0.8554687 -1.3125,0 -1.6875,1.0195312 -1.6875,1.453125 0,0.7851562 0.7382813,0.9257812 1.03125,0.9960937 0.515625,0.09375 1.03125,0.1992188 1.03125,0.75 0,0.25781255 -0.2226562,1.10156255 -1.4179687,1.10156255 -0.140625,0 -0.9140625,0 -1.13671875,-0.52734375 C 1.1939062,-0.5864375 1.44,-0.891125 1.44,-1.1606563 c 0,-0.234375 -0.1523438,-0.3515625 -0.3632813,-0.3515625 -0.25781245,0 -0.56249995,0.2109375 -0.56249995,0.65625005 0,0.5625 0.57421875,0.9609375 1.42968745,0.9609375 1.6054688,0 2.0039063,-1.20703125 2.0039063,-1.65234375 0,-0.3515625 -0.1992188,-0.609375 -0.3164063,-0.7265625 -0.2695312,-0.28125 -0.5507812,-0.328125 -0.9960937,-0.421875 -0.3515625,-0.070312 -0.75,-0.140625 -0.75,-0.5976563 0,-0.28125 0.234375,-0.890625 1.1132812,-0.890625 0.2460938,0 0.75,0.070312 0.890625,0.4570313 z m 0,0"
         style="fill:#000000;fill-opacity:1;fill-rule:nonzero;stroke:none" />
      <path
         id="path7"
         d="m 7.0034766,-2.9360469 c 0,-0.1875 -0.011719,-0.1992187 -0.2109375,-0.1992187 -0.4453125,0.4335937 -1.078125,0.4453125 -1.359375,0.4453125 v 0.2460937 c 0.1640625,0 0.6210937,0 1.0078125,-0.1875 v 3.55078127 c 0,0.23437503 0,0.32812503 -0.6914063,0.32812503 H 5.4800391 v 0.2460937 c 0.1289062,-0.011719 0.984375,-0.023437 1.2421875,-0.023437 0.2109375,0 1.0898437,0.011719 1.2421875,0.023437 V 1.2475469 H 7.7066016 c -0.703125,0 -0.703125,-0.09375 -0.703125,-0.32812503 z m 0,0"
         style="fill:#000000;fill-opacity:1;fill-rule:nonzero;stroke:none" />
    </g>
    <path
       id="path8"
       d="m 123.43637,45.3549 c 0,5.55004 -4.49907,10.0491 -10.0491,10.0491 -5.55005,0 -10.04912,-4.49906 -10.04912,-10.0491 0,-5.55004 4.49907,-10.04911 10.04912,-10.04911 5.55003,0 10.0491,4.49907 10.0491,10.04911 z"
       style="fill:none;stroke:#000000;stroke-width:1.39478;stroke-linecap:butt;stroke-linejoin:miter;stroke-miterlimit:10;stroke-dasharray:none;stroke-opacity:1"
       transform="matrix(1.3333333,0,0,-1.3333333,81.581333,178.33333)" />
    <path
       id="path9"
       d="m 123.43637,45.3549 c 0,5.55004 -4.49907,10.0491 -10.0491,10.0491 -5.55005,0 -10.04912,-4.49906 -10.04912,-10.0491 0,-5.55004 4.49907,-10.04911 10.04912,-10.04911 5.55003,0 10.0491,4.49907 10.0491,10.04911 z"
       style="fill:none;stroke:#ffffff;stroke-width:0.59776;stroke-linecap:butt;stroke-linejoin:miter;stroke-miterlimit:10;stroke-dasharray:none;stroke-opacity:1"
       transform="matrix(1.3333333,0,0,-1.3333333,81.581333,178.33333)" />
    <g
       id="g9"
       aria-label="s&#10;2"
       transform="matrix(1.3333333,0,0,1.3333333,226.672,119.724)">
      <path
         id="path10"
         d="m 3.8905313,-3.7275703 c -0.2695313,0.011719 -0.46875,0.234375 -0.46875,0.4453125 0,0.140625 0.082031,0.2929687 0.3046875,0.2929687 0.2226562,0 0.4570312,-0.1640625 0.4570312,-0.5625 0,-0.4453125 -0.4335937,-0.8554687 -1.1835937,-0.8554687 -1.3125,0 -1.6875,1.0195312 -1.6875,1.453125 0,0.7851562 0.7382812,0.9257812 1.03125,0.9960937 0.515625,0.09375 1.03125,0.1992188 1.03125,0.75 0,0.25781254 -0.2226563,1.10156254 -1.4179688,1.10156254 -0.140625,0 -0.9140625,0 -1.13671875,-0.52734375 0.37500005,0.046875 0.62109375,-0.2578125 0.62109375,-0.52734379 0,-0.234375 -0.1523437,-0.3515625 -0.3632812,-0.3515625 -0.25781255,0 -0.56250005,0.2109375 -0.56250005,0.65625004 0,0.5625 0.57421875,0.9609375 1.42968755,0.9609375 1.6054687,0 2.0039062,-1.20703124 2.0039062,-1.65234374 0,-0.3515625 -0.1992187,-0.609375 -0.3164062,-0.7265625 -0.2695313,-0.28125 -0.5507813,-0.328125 -0.9960938,-0.421875 -0.3515625,-0.070312 -0.75,-0.140625 -0.75,-0.5976563 0,-0.28125 0.234375,-0.890625 1.1132813,-0.890625 0.2460937,0 0.75,0.070312 0.890625,0.4570313 z m 0,0"
         style="fill:#000000;fill-opacity:1;fill-rule:nonzero;stroke:none" />
      <path
         id="path11"
         d="m 8.1854531,0.22750781 h -0.234375 c -0.023437,0.15234375 -0.082031,0.5625 -0.1757812,0.6328125 -0.058594,0.0351563 -0.5976563,0.0351563 -0.6914063,0.0351563 H 5.7948281 c 0.7382813,-0.64453125 0.984375,-0.84375 1.3945313,-1.171875 0.515625,-0.41015625 0.9960937,-0.84374991 0.9960937,-1.49999991 0,-0.8437501 -0.7382812,-1.3593751 -1.6289062,-1.3593751 -0.8671875,0 -1.453125,0.609375 -1.453125,1.2421876 0,0.3632812 0.3046875,0.3984375 0.375,0.3984375 0.1640625,0 0.375,-0.1171875 0.375,-0.375 0,-0.1289063 -0.058594,-0.3632814 -0.421875,-0.3632814 0.2226562,-0.5039062 0.6914062,-0.65625 1.0195312,-0.65625 0.703125,0 1.0664063,0.5507813 1.0664063,1.1132813 0,0.609375 -0.4335938,1.08984376 -0.65625,1.33593751 l -1.6875,1.66406249 c -0.070312,0.058594 -0.070312,0.070312 -0.070312,0.2695312 h 2.8828125 z m 0,0"
         style="fill:#000000;fill-opacity:1;fill-rule:nonzero;stroke:none" />
    </g>
    <path
       id="path12"
       d="m 66.74274,0 c 0,5.55003 -4.49907,10.0491 -10.04911,10.0491 -5.55004,0 -10.04911,-4.49907 -10.04911,-10.0491 0,-5.55003 4.49907,-10.0491 10.04911,-10.0491 5.55004,0 10.04911,4.49907 10.04911,10.0491 z"
       style="fill:none;stroke:#000000;stroke-width:0.3985;stroke-linecap:butt;stroke-linejoin:miter;stroke-miterlimit:10;stroke-dasharray:none;stroke-opacity:1"
       transform="matrix(1.3333333,0,0,-1.3333333,81.581333,178.33333)" />
    <g
       id="g12"
       aria-label="s&#10;3"
       transform="matrix(1.3333333,0,0,1.3333333,151.08,180.19733)">
      <path
         id="path13"
         d="m 3.8892187,-3.7251484 c -0.2695312,0.011719 -0.46875,0.234375 -0.46875,0.4453125 0,0.140625 0.082031,0.2929687 0.3046875,0.2929687 0.2226563,0 0.4570313,-0.1640625 0.4570313,-0.5625 0,-0.4453125 -0.4335938,-0.8554687 -1.1835938,-0.8554687 -1.3125,0 -1.6875,1.0195312 -1.6875,1.453125 0,0.7851562 0.7382813,0.9257812 1.03125,0.9960937 0.515625,0.09375 1.03125,0.1992188 1.03125,0.75 0,0.25781251 -0.2226562,1.10156251 -1.4179687,1.10156251 -0.140625,0 -0.9140625,0 -1.13671875,-0.52734375 C 1.1939062,-0.58452344 1.44,-0.88921094 1.44,-1.1587422 c 0,-0.234375 -0.1523438,-0.3515625 -0.3632813,-0.3515625 -0.25781245,0 -0.56249995,0.2109375 -0.56249995,0.65625001 0,0.5625 0.57421875,0.9609375 1.42968745,0.9609375 1.6054688,0 2.0039063,-1.20703121 2.0039063,-1.65234371 0,-0.3515625 -0.1992188,-0.609375 -0.3164063,-0.7265625 -0.2695312,-0.28125 -0.5507812,-0.328125 -0.9960937,-0.421875 -0.3515625,-0.070312 -0.75,-0.140625 -0.75,-0.5976563 0,-0.28125 0.234375,-0.890625 1.1132812,-0.890625 0.2460938,0 0.75,0.070312 0.890625,0.4570313 z m 0,0"
         style="fill:#000000;fill-opacity:1;fill-rule:nonzero;stroke:none" />
      <path
         id="path14"
         d="m 6.5698828,-0.83940625 c 0.5507813,0 0.9375,0.375 0.9375,1.125 0,0.86718745 -0.5039062,1.12499995 -0.9023437,1.12499995 -0.28125,0 -0.890625,-0.082031 -1.1835938,-0.49218745 0.328125,-0.0117188 0.3984375,-0.24609375 0.3984375,-0.38671875 0,-0.22265625 -0.1640625,-0.38671875 -0.3867187,-0.38671875 -0.1875,0 -0.3867188,0.1171875 -0.3867188,0.41015625 0,0.65625 0.7265625,1.078125 1.5703125,1.078125 0.9726563,0 1.640625,-0.64453125 1.640625,-1.34765625 0,-0.5390625 -0.4453125,-1.08984375 -1.21875,-1.2421875 0.7382813,-0.26953125 0.9960938,-0.79687505 0.9960938,-1.21875005 0,-0.5507812 -0.6328125,-0.9609375 -1.40625,-0.9609375 -0.7734375,0 -1.359375,0.375 -1.359375,0.9375 0,0.234375 0.1523437,0.3632813 0.3632812,0.3632813 0.2109375,0 0.3515625,-0.1640625 0.3515625,-0.3515625 0,-0.1992188 -0.140625,-0.3515625 -0.3515625,-0.3632813 0.234375,-0.3046875 0.7148438,-0.3867187 0.9726563,-0.3867187 0.3164062,0 0.7617187,0.1523437 0.7617187,0.7617187 0,0.2929688 -0.1054687,0.609375 -0.28125,0.8320313 -0.234375,0.2578125 -0.421875,0.28125 -0.7734375,0.2929687 -0.1757812,0.023437 -0.1875,0.023437 -0.2226562,0.023437 -0.011719,0 -0.070312,0.011719 -0.070312,0.0937501 0,0.09375 0.058594,0.09375 0.1757812,0.09375 z m 0,0"
         style="fill:#000000;fill-opacity:1;fill-rule:nonzero;stroke:none" />
    </g>
    <path
       id="path15"
       d="M -56.69363,45.3549 H -14.8312"
       style="fill:none;stroke:#000000;stroke-width:0.3985;stroke-linecap:butt;stroke-linejoin:miter;stroke-miterlimit:10;stroke-dasharray:none;stroke-opacity:1"
       transform="matrix(1.3333333,0,0,-1.3333333,81.581333,178.33333)" />
    <path
       id="path16"
       d="M 3.7613,0 C 3.2994,0.1127 1.26901,0.75136 0,1.44638 V -1.44638 C 1.26901,-0.75136 3.2994,-0.1127 3.7613,0 Z"
       style="fill:#000000;fill-opacity:1;fill-rule:nonzero;stroke:#000000;stroke-width:0.3985;stroke-linecap:butt;stroke-linejoin:miter;stroke-miterlimit:10;stroke-dasharray:none;stroke-opacity:1"
       transform="matrix(1.3333333,0,0,-1.3333333,61.8064,117.86013)" />
    <path
       id="path17"
       d="m 3.5845781,-1.2786953 c 0,-0.5273438 -0.2929687,-0.8203125 -0.421875,-0.9492188 -0.328125,-0.3164062 -0.7148437,-0.3984375 -1.1367187,-0.46875 -0.5507813,-0.1171875 -1.21875002,-0.2460937 -1.21875002,-0.8203125 0,-0.3515625 0.25781252,-0.7617187 1.11328122,-0.7617187 1.1015625,0 1.1484375,0.9023437 1.171875,1.2070312 0,0.09375 0.1171875,0.09375 0.1171875,0.09375 0.1289063,0 0.1289063,-0.046875 0.1289063,-0.2460937 v -0.9960938 c 0,-0.1757812 0,-0.2460937 -0.1171875,-0.2460937 -0.046875,0 -0.070312,0 -0.1992188,0.1171875 -0.023437,0.046875 -0.1289062,0.1289062 -0.1640625,0.1640625 -0.375,-0.28125 -0.7851562,-0.28125 -0.9375,-0.28125 -1.21874997,0 -1.59374997,0.6679687 -1.59374997,1.2304687 0,0.3398438 0.1640625,0.6210938 0.43359375,0.84375 0.31640622,0.2578125 0.59765622,0.3164063 1.31250002,0.4570313 0.2226562,0.035156 1.03125,0.1992187 1.03125,0.9140625 0,0.51562499 -0.3515625,0.91406249 -1.125,0.91406249 -0.8320313,0 -1.19531252,-0.57421875 -1.38281252,-1.41796879 -0.0351563,-0.1289062 -0.0351563,-0.1757812 -0.140625,-0.1757812 -0.12890625,0 -0.12890625,0.070312 -0.12890625,0.2578125 v 1.31249999 c 0,0.1640625 0,0.234375 0.10546875,0.234375 0.0585938,0 0.0703125,0 0.2578125,-0.19921875 0.0117188,-0.01171875 0.0117188,-0.03515625 0.19921875,-0.22265625 0.43359377,0.421875 0.87890627,0.421875 1.08984377,0.421875 1.1484375,0 1.6054687,-0.66796875 1.6054687,-1.38281249 z m 3.6445313,0.046875 V -1.8060391 H 6.9830156 v 0.5507813 c 0,0.73828124 -0.3046875,1.11328124 -0.6679687,1.11328124 -0.6679688,0 -0.6679688,-0.90234374 -0.6679688,-1.07812504 v -2.765625 H 7.0767656 V -4.2904141 H 5.6470781 V -6.1302578 H 5.4009844 c -0.011719,0.8203125 -0.3164063,1.8867187 -1.2890625,1.921875 v 0.2226562 h 0.84375 v 2.7539063 c 0,1.21874999 0.9257812,1.33593749 1.2890625,1.33593749 0.703125,0 0.984375,-0.703125 0.984375,-1.33593749 z m 5.3876956,0.33984374 V -1.4427578 h -0.257813 v 0.55078124 c 0,0.5859375 -0.246094,0.64453125 -0.351562,0.64453125 -0.328125,0 -0.375,-0.45703125 -0.375,-0.50390625 V -2.7435391 c 0,-0.4101562 0,-0.8085937 -0.351563,-1.171875 -0.386719,-0.3867187 -0.890625,-0.5507812 -1.3710936,-0.5507812 -0.8085937,0 -1.5,0.46875 -1.5,1.125 0,0.3046875 0.1992188,0.46875 0.4570313,0.46875 0.28125,0 0.4570312,-0.1992188 0.4570312,-0.4570313 0,-0.1171875 -0.046875,-0.4453125 -0.5039062,-0.4570312 0.2695312,-0.3515625 0.75,-0.4570313 1.078125,-0.4570313 0.4804683,0 1.0546873,0.3867188 1.0546873,1.2773438 v 0.3632812 c -0.515625,0.035156 -1.2070311,0.058594 -1.8398436,0.3632813 -0.75,0.3398437 -0.9960937,0.8554687 -0.9960937,1.28906249 0,0.80859375 0.9726562,1.0546875 1.59375,1.0546875 0.6562503,0 1.1132813,-0.3984375 1.3125003,-0.8671875 0.03516,0.3984375 0.304687,0.8203125 0.773437,0.8203125 0.210938,0 0.820313,-0.140625 0.820313,-0.94921875 z M 10.952742,-1.3958828 c 0,0.94921874 -0.726562,1.28906249 -1.1718748,1.28906249 -0.4804688,0 -0.890625,-0.3515625 -0.890625,-0.85546875 0,-0.53906254 0.4101562,-1.37109374 2.0624998,-1.42968754 z m 5.449219,-2.4023438 c 0,-0.3164062 -0.304688,-0.609375 -0.726563,-0.609375 -0.738281,0 -1.089843,0.6679688 -1.230468,1.1015625 v -1.1015625 l -1.382813,0.1171875 v 0.3046875 c 0.691406,0 0.773438,0.070312 0.773438,0.5625 v 2.66015629 c 0,0.45703125 -0.105469,0.45703125 -0.773438,0.45703125 v 0.3046875 l 1.136719,-0.03515625 c 0.398437,0 0.867187,0 1.265625,0.03515625 v -0.3046875 h -0.210938 c -0.738281,0 -0.761718,-0.1171875 -0.761718,-0.46875 V -2.3099453 c 0,-0.984375 0.421875,-1.875 1.183593,-1.875 0.05859,0 0.08203,0 0.105469,0.011719 -0.03516,0.011719 -0.234375,0.1289063 -0.234375,0.3867188 0,0.28125 0.210938,0.4335937 0.433594,0.4335937 0.175781,0 0.421875,-0.1289062 0.421875,-0.4453128 z m 3.588867,2.5664063 v -0.5742188 h -0.246094 v 0.5507813 c 0,0.73828124 -0.304687,1.11328124 -0.667968,1.11328124 -0.667969,0 -0.667969,-0.90234374 -0.667969,-1.07812504 v -2.765625 h 1.429687 v -0.3046875 h -1.429687 v -1.8398437 h -0.246094 c -0.01172,0.8203125 -0.316406,1.8867187 -1.289062,1.921875 v 0.2226562 h 0.84375 v 2.7539063 c 0,1.21874999 0.925781,1.33593749 1.289062,1.33593749 0.703125,0 0.984375,-0.703125 0.984375,-1.33593749 z m 0,0"
       style="fill:#000000;fill-opacity:1;fill-rule:nonzero;stroke:none"
       aria-label="start"
       transform="matrix(1.3333333,0,0,1.3333333,23.244,113.02133)" />
    <path
       id="path18"
       d="M 8.00215,51.75668 45.1131,81.44536"
       style="fill:none;stroke:#000000;stroke-width:0.3985;stroke-linecap:butt;stroke-linejoin:miter;stroke-miterlimit:10;stroke-dasharray:none;stroke-opacity:1"
       transform="matrix(1.3333333,0,0,-1.3333333,81.581333,178.33333)" />
    <path
       id="path19"
       d="M 3.7613,0 C 3.2994,0.1127 1.26901,0.75136 0,1.44638 V -1.44638 C 1.26901,-0.75136 3.2994,-0.1127 3.7613,0 Z"
       style="fill:#000000;fill-opacity:1;fill-rule:nonzero;stroke:#000000;stroke-width:0.3985;stroke-linecap:butt;stroke-linejoin:miter;stroke-miterlimit:10;stroke-dasharray:none;stroke-opacity:1"
       transform="matrix(1.0410933,-0.83286667,-0.83286667,-1.0410933,141.73211,69.73952)" />
    <path
       id="path20"
       d="m 4.1721016,1.5625e-4 v -0.3046875 H 3.8556953 c -0.9023437,0 -0.9257812,-0.1171875 -0.9257812,-0.48046875 v -5.5898438 c 0,-0.234375 0,-0.2578125 -0.234375,-0.2578125 -0.609375,0.6328125 -1.4882813,0.6328125 -1.80468754,0.6328125 v 0.3164063 c 0.19921874,0 0.78515624,0 1.30078124,-0.2578125 V -0.785 c 0,0.3515625 -0.035156,0.48046875 -0.9257812,0.48046875 H 0.94944531 V 1.5625e-4 C 1.3010078,-0.035 2.1564766,-0.035 2.5549141,-0.035 c 0.3984375,0 1.265625,0 1.6171875,0.03515625 z m 0,0"
       style="fill:#000000;fill-opacity:1;fill-rule:nonzero;stroke:none"
       aria-label="1"
       transform="matrix(1.3333333,0,0,1.3333333,108.04267,92.046667)" />
    <path
       id="path21"
       d="M 64.69579,84.30801 101.80673,54.61935"
       style="fill:none;stroke:#000000;stroke-width:0.3985;stroke-linecap:butt;stroke-linejoin:miter;stroke-miterlimit:10;stroke-dasharray:none;stroke-opacity:1"
       transform="matrix(1.3333333,0,0,-1.3333333,81.581333,178.33333)" />
    <path
       id="path22"
       d="M 3.7613,0 C 3.2994,0.1127 1.26901,0.75136 0,1.44638 V -1.44638 C 1.26901,-0.75136 3.2994,-0.1127 3.7613,0 Z"
       style="fill:#000000;fill-opacity:1;fill-rule:nonzero;stroke:#000000;stroke-width:0.3985;stroke-linecap:butt;stroke-linejoin:miter;stroke-miterlimit:10;stroke-dasharray:none;stroke-opacity:1"
       transform="matrix(1.0410933,0.83286667,0.83286667,-1.0410933,217.32363,105.50753)" />
    <path
       id="path23"
       d="m 4.1709922,1.5625e-4 v -0.3046875 H 3.8545859 c -0.9023437,0 -0.9257812,-0.1171875 -0.9257812,-0.48046875 v -5.5898438 c 0,-0.234375 0,-0.2578125 -0.234375,-0.2578125 -0.609375,0.6328125 -1.4882813,0.6328125 -1.80468751,0.6328125 v 0.3164063 c 0.19921871,0 0.78515621,0 1.30078121,-0.2578125 V -0.785 c 0,0.3515625 -0.035156,0.48046875 -0.9257812,0.48046875 H 0.94833594 V 1.5625e-4 C 1.2998984,-0.035 2.1553672,-0.035 2.5538047,-0.035 c 0.3984375,0 1.265625,0 1.6171875,0.03515625 z m 0,0"
       style="fill:#000000;fill-opacity:1;fill-rule:nonzero;stroke:none"
       aria-label="1"
       transform="matrix(1.3333333,0,0,1.3333333,199.66133,92.046667)" />
    <path
       id="path24"
       d="M 105.3851,38.95311 68.27415,9.26445"
       style="fill:none;stroke:#000000;stroke-width:0.3985;stroke-linecap:butt;stroke-linejoin:miter;stroke-miterlimit:10;stroke-dasharray:none;stroke-opacity:1"
       transform="matrix(1.3333333,0,0,-1.3333333,81.581333,178.33333)" />
    <path
       id="path25"
       d="M 3.7613,0 C 3.2994,0.1127 1.26901,0.75136 0,1.44638 V -1.44638 C 1.26901,-0.75136 3.2994,-0.1127 3.7613,0 Z"
       style="fill:#000000;fill-opacity:1;fill-rule:nonzero;stroke:#000000;stroke-width:0.3985;stroke-linecap:butt;stroke-linejoin:miter;stroke-miterlimit:10;stroke-dasharray:none;stroke-opacity:1"
       transform="matrix(-1.0410933,0.83286667,0.83286667,1.0410933,172.61356,165.98073)" />
    <path
       id="path26"
       d="M 4.1709922,-3.515625e-4 V -0.30503906 H 3.8545859 c -0.9023437,0 -0.9257812,-0.1171875 -0.9257812,-0.48046875 V -6.3753516 c 0,-0.234375 0,-0.2578125 -0.234375,-0.2578125 -0.609375,0.6328125 -1.4882813,0.6328125 -1.80468751,0.6328125 v 0.3164063 c 0.19921871,0 0.78515621,0 1.30078121,-0.2578125 v 5.15624999 c 0,0.3515625 -0.035156,0.48046875 -0.9257812,0.48046875 H 0.94833594 V -3.515625e-4 C 1.2998984,-0.03550781 2.1553672,-0.03550781 2.5538047,-0.03550781 c 0.3984375,0 1.265625,0 1.6171875,0.0351562475 z m 0,0"
       style="fill:#000000;fill-opacity:1;fill-rule:nonzero;stroke:none"
       aria-label="1"
       transform="matrix(1.3333333,0,0,1.3333333,199.66133,152.52)" />
    <path
       id="path27"
       d="M -5.12402,54.2301 C -16.70738,74.29356 12.8982,75.69508 7.06926,58.43463"
       style="fill:none;stroke:#000000;stroke-width:0.3985;stroke-linecap:butt;stroke-linejoin:miter;stroke-miterlimit:10;stroke-dasharray:none;stroke-opacity:1"
       transform="matrix(1.3333333,0,0,-1.3333333,81.581333,178.33333)" />
    <path
       id="path28"
       d="M 3.7613,0 C 3.2994,0.1127 1.26901,0.75136 0,1.44638 V -1.44638 C 1.26901,-0.75136 3.2994,-0.1127 3.7613,0 Z"
       style="fill:#000000;fill-opacity:1;fill-rule:nonzero;stroke:#000000;stroke-width:0.3985;stroke-linecap:butt;stroke-linejoin:miter;stroke-miterlimit:10;stroke-dasharray:none;stroke-opacity:1"
       transform="matrix(-0.55421333,1.2126,1.2126,0.55421333,90.95324,100.46936)" />
    <path
       id="path29"
       d="m 4.5833203,-3.1889375 c 0,-0.796875 -0.046875,-1.59375 -0.3984375,-2.3320313 -0.4570312,-0.9609375 -1.2773437,-1.1132812 -1.6875,-1.1132812 -0.5976562,0 -1.3359375,0.2578125 -1.73437499,1.1835937 -0.328125,0.6914063 -0.375,1.4648438 -0.375,2.2617188 0,0.75 0.046875,1.640625 0.4453125,2.40234375 C 1.2669141,0.022 1.9934766,0.22121875 2.4856641,0.22121875 c 0.5390625,0 1.2890625,-0.2109375 1.734375,-1.16015625 0.3164062,-0.6914063 0.3632812,-1.4648438 0.3632812,-2.25 z M 3.7512891,-3.306125 c 0,0.75 0,1.4179687 -0.1054688,2.0625 -0.1523437,0.9375 -0.7148437,1.2421875 -1.1601562,1.2421875 -0.3867188,0 -0.984375,-0.24609375 -1.1601563,-1.2070313 C 1.2200391,-1.806125 1.2200391,-2.7201875 1.2200391,-3.306125 c 0,-0.6445313 0,-1.3007813 0.082031,-1.8398438 0.1875,-1.1835937 0.9257813,-1.265625 1.1835938,-1.265625 0.328125,0 0.984375,0.1757813 1.171875,1.1601563 0.09375,0.5625 0.09375,1.3125 0.09375,1.9453125 z m 0,0"
       style="fill:#000000;fill-opacity:1;fill-rule:nonzero;stroke:none"
       aria-label="0"
       transform="matrix(1.3333333,0,0,1.3333333,78.26,79.470667)" />
    <path
       id="path30"
       d="m 51.5696,99.585 c -11.5834,20.06345 18.0222,21.46497 12.1933,4.20455"
       style="fill:none;stroke:#000000;stroke-width:0.3985;stroke-linecap:butt;stroke-linejoin:miter;stroke-miterlimit:10;stroke-dasharray:none;stroke-opacity:1"
       transform="matrix(1.3333333,0,0,-1.3333333,81.581333,178.33333)" />
    <path
       id="path31"
       d="M 3.7613,0 C 3.2994,0.1127 1.26901,0.75136 0,1.44638 V -1.44638 C 1.26901,-0.75136 3.2994,-0.1127 3.7613,0 Z"
       style="fill:#000000;fill-opacity:1;fill-rule:nonzero;stroke:#000000;stroke-width:0.3985;stroke-linecap:butt;stroke-linejoin:miter;stroke-miterlimit:10;stroke-dasharray:none;stroke-opacity:1"
       transform="matrix(-0.55421333,1.2126,1.2126,0.55421333,166.54475,39.99616)" />
    <path
       id="path32"
       d="m 4.5817031,-3.1884297 c 0,-0.796875 -0.046875,-1.59375 -0.3984375,-2.3320312 -0.4570312,-0.9609375 -1.2773437,-1.1132813 -1.6875,-1.1132813 -0.5976562,0 -1.3359375,0.2578125 -1.73437498,1.1835938 -0.328125,0.6914062 -0.375,1.4648437 -0.375,2.2617187 0,0.75 0.046875,1.640625 0.4453125,2.40234376 0.43359378,0.80859375 1.16015628,1.0078125 1.65234378,1.0078125 0.5390625,0 1.2890625,-0.2109375 1.734375,-1.16015625 C 4.5348281,-1.6298359 4.5817031,-2.4032734 4.5817031,-3.1884297 Z M 3.7496719,-3.3056172 c 0,0.75 0,1.4179688 -0.1054688,2.0625 -0.1523437,0.93750001 -0.7148437,1.2421875125 -1.1601562,1.2421875125 -0.3867188,0 -0.984375,-0.2460937525 -1.1601563,-1.2070312125 -0.1054687,-0.5976563 -0.1054687,-1.5117188 -0.1054687,-2.0976563 0,-0.6445312 0,-1.3007812 0.082031,-1.8398437 0.1875,-1.1835938 0.9257813,-1.265625 1.1835938,-1.265625 0.328125,0 0.984375,0.1757812 1.171875,1.1601562 0.09375,0.5625 0.09375,1.3125 0.09375,1.9453125 z m 0,0"
       style="fill:#000000;fill-opacity:1;fill-rule:nonzero;stroke:none"
       aria-label="0"
       transform="matrix(1.3333333,0,0,1.3333333,153.852,18.997333)" />
    <path
       id="path33"
       d="m 122.26247,50.47893 c 20.06346,11.58336 21.46498,-18.02228 4.20451,-12.19338"
       style="fill:none;stroke:#000000;stroke-width:0.3985;stroke-linecap:butt;stroke-linejoin:miter;stroke-miterlimit:10;stroke-dasharray:none;stroke-opacity:1"
       transform="matrix(1.3333333,0,0,-1.3333333,81.581333,178.33333)" />
    <path
       id="path34"
       d="M 3.7613,0 C 3.2994,0.1127 1.26901,0.75136 0,1.44638 V -1.44638 C 1.26901,-0.75136 3.2994,-0.1127 3.7613,0 Z"
       style="fill:#000000;fill-opacity:1;fill-rule:nonzero;stroke:#000000;stroke-width:0.3985;stroke-linecap:butt;stroke-linejoin:miter;stroke-miterlimit:10;stroke-dasharray:none;stroke-opacity:1"
       transform="matrix(-1.2126,-0.55421333,-0.55421333,1.2126,250.15512,127.23205)" />
    <path
       id="path35"
       d="m 4.5834922,-3.1879609 c 0,-0.796875 -0.046875,-1.59375 -0.3984375,-2.3320313 -0.4570313,-0.9609375 -1.2773438,-1.1132812 -1.6875,-1.1132812 -0.5976563,0 -1.3359375,0.2578125 -1.73437501,1.1835937 -0.328125,0.6914063 -0.375,1.4648438 -0.375,2.2617188 0,0.75 0.046875,1.640625 0.4453125,2.40234371 0.43359371,0.80859375 1.16015621,1.0078125 1.65234371,1.0078125 0.5390625,0 1.2890625,-0.2109375 1.734375,-1.16015625 C 4.5366172,-1.6293672 4.5834922,-2.4028047 4.5834922,-3.1879609 Z M 3.7514609,-3.3051484 c 0,0.75 0,1.4179687 -0.1054687,2.0625 -0.1523438,0.93749996 -0.7148438,1.2421874625 -1.1601563,1.2421874625 -0.3867187,0 -0.984375,-0.2460937525 -1.1601562,-1.2070312625 -0.1054688,-0.5976562 -0.1054688,-1.5117187 -0.1054688,-2.0976562 0,-0.6445313 0,-1.3007813 0.082031,-1.8398438 0.1875,-1.1835937 0.9257812,-1.265625 1.1835937,-1.265625 0.328125,0 0.984375,0.1757813 1.171875,1.1601563 0.09375,0.5625 0.09375,1.3125 0.09375,1.9453125 z m 0,0"
       style="fill:#000000;fill-opacity:1;fill-rule:nonzero;stroke:none"
       aria-label="0"
       transform="matrix(1.3333333,0,0,1.3333333,270.86133,122.13733)" />
    <path
       id="path36"
       d="M 47.81842,5.12402 C 27.75461,16.70757 26.35335,-12.89914 43.61465,-7.06898"
       style="fill:none;stroke:#000000;stroke-width:0.3985;stroke-linecap:butt;stroke-linejoin:miter;stroke-miterlimit:10;stroke-dasharray:none;stroke-opacity:1"
       transform="matrix(1.3333333,0,0,-1.3333333,81.581333,178.33333)" />
    <path
       id="path37"
       d="M 3.7613,0 C 3.2994,0.1127 1.26901,0.75136 0,1.44638 V -1.44638 C 1.26901,-0.75136 3.2994,-0.1127 3.7613,0 Z"
       style="fill:#000000;fill-opacity:1;fill-rule:nonzero;stroke:#000000;stroke-width:0.3985;stroke-linecap:butt;stroke-linejoin:miter;stroke-miterlimit:10;stroke-dasharray:none;stroke-opacity:1"
       transform="matrix(1.2126,-0.55421333,-0.55421333,-1.2126,139.78205,187.70524)" />
    <path
       id="path38"
       d="m 4.5812734,-3.1860781 c 0,-0.796875 -0.046875,-1.59375 -0.3984375,-2.3320313 -0.4570312,-0.9609375 -1.2773437,-1.1132812 -1.6875,-1.1132812 -0.5976562,0 -1.3359375,0.2578125 -1.73437496,1.1835937 -0.328125,0.6914063 -0.375,1.4648438 -0.375,2.2617188 0,0.75 0.046875,1.640625 0.4453125,2.40234372 0.43359376,0.80859375 1.16015626,1.0078125 1.65234376,1.0078125 0.5390625,0 1.2890625,-0.2109375 1.734375,-1.16015625 C 4.5343984,-1.6274844 4.5812734,-2.4009219 4.5812734,-3.1860781 Z M 3.7492422,-3.3032656 c 0,0.75 0,1.4179687 -0.1054688,2.0625 -0.1523437,0.93749997 -0.7148437,1.24218747 -1.1601562,1.24218747 -0.3867188,0 -0.984375,-0.24609375 -1.1601563,-1.20703127 -0.1054687,-0.5976562 -0.1054687,-1.5117187 -0.1054687,-2.0976562 0,-0.6445313 0,-1.3007813 0.082031,-1.8398438 0.1875,-1.1835937 0.9257813,-1.265625 1.1835938,-1.265625 0.328125,0 0.984375,0.1757813 1.171875,1.1601563 0.09375,0.5625 0.09375,1.3125 0.09375,1.9453125 z m 3.2607422,3.29296872 c 0,-0.6328125 -0.2460938,-1.04296872 -0.6445313,-1.04296872 -0.3515625,0 -0.5273437,0.26953122 -0.5273437,0.52734372 0,0.2578125 0.1757812,0.52734375 0.5273437,0.52734375 0.1523438,0 0.2929688,-0.05859375 0.3984375,-0.1640625 0.023437,0.796875 -0.2578125,1.39453123 -0.6914062,1.86328123 -0.058594,0.058594 -0.070312,0.070312 -0.070312,0.1171875 0,0.070312 0.046875,0.1054688 0.09375,0.1054688 0.1171875,0 0.9140625,-0.7851563 0.914062,-1.93359378 z M 11.92307,0.00142187 v -0.3046875 h -0.316406 c -0.902344,0 -0.925781,-0.1171875 -0.925781,-0.48046875 V -6.3735781 c 0,-0.234375 0,-0.2578125 -0.234375,-0.2578125 -0.6093752,0.6328125 -1.4882814,0.6328125 -1.8046877,0.6328125 v 0.3164062 c 0.1992188,0 0.7851563,0 1.3007813,-0.2578125 v 5.15625002 c 0,0.3515625 -0.035156,0.48046875 -0.9257813,0.48046875 H 8.7004141 v 0.3046875 c 0.3515625,-0.03515625 1.2070312,-0.03515625 1.6054689,-0.03515625 0.398437,0 1.265625,0 1.617187,0.03515625 z m 0,0"
       style="fill:#000000;fill-opacity:1;fill-rule:nonzero;stroke:none"
       aria-label="0,1"
       transform="matrix(1.3333333,0,0,1.3333333,102.09867,181.47467)" />
  </g>
</svg>
