<?xml version="1.0" encoding="UTF-8" standalone="no"?>
<!-- Created with Inkscape (http://www.inkscape.org/) -->

<svg
   version="1.1"
   id="svg1"
   width="123.89333"
   height="121.26667"
   viewBox="0 0 123.89333 121.26667"
   sodipodi:docname="22-23-2-大学物理E（上）-期末-选项1.5-B.pdf"
   xmlns:inkscape="http://www.inkscape.org/namespaces/inkscape"
   xmlns:sodipodi="http://sodipodi.sourceforge.net/DTD/sodipodi-0.dtd"
   xmlns="http://www.w3.org/2000/svg"
   xmlns:svg="http://www.w3.org/2000/svg">
  <defs
     id="defs1" />
  <sodipodi:namedview
     id="namedview1"
     pagecolor="#ffffff"
     bordercolor="#000000"
     borderopacity="0.25"
     inkscape:showpageshadow="2"
     inkscape:pageopacity="0.0"
     inkscape:pagecheckerboard="0"
     inkscape:deskcolor="#d1d1d1">
    <inkscape:page
       x="0"
       y="0"
       inkscape:label="1"
       id="page1"
       width="123.89333"
       height="121.26667"
       margin="0"
       bleed="0" />
  </sodipodi:namedview>
  <g
     id="g1"
     inkscape:groupmode="layer"
     inkscape:label="1">
    <path
       id="path1"
       d="M 141.73409,70.46854 V 0 h 70.46855"
       style="fill:none;stroke:#000000;stroke-width:0.3985;stroke-linecap:butt;stroke-linejoin:miter;stroke-miterlimit:10;stroke-dasharray:none;stroke-opacity:1"
       transform="matrix(1.3333333,0,0,-1.3333333,-169.35467,103.06933)" />
    <path
       id="path2"
       d="M -2.07224,2.39104 C -1.69365,0.95639 -0.84999,0.27895 0,0 -0.84999,-0.27895 -1.69365,-0.95639 -2.07224,-2.39104"
       style="fill:none;stroke:#000000;stroke-width:0.3985;stroke-linecap:round;stroke-linejoin:round;stroke-miterlimit:10;stroke-dasharray:none;stroke-opacity:1"
       transform="matrix(0,-1.3333333,-1.3333333,0,19.62412,8.8456133)" />
    <path
       id="path3"
       d="M -2.07224,2.39104 C -1.69365,0.95639 -0.84999,0.27895 0,0 -0.84999,-0.27895 -1.69365,-0.95639 -2.07224,-2.39104"
       style="fill:none;stroke:#000000;stroke-width:0.3985;stroke-linecap:round;stroke-linejoin:round;stroke-miterlimit:10;stroke-dasharray:none;stroke-opacity:1"
       transform="matrix(1.3333333,0,0,-1.3333333,113.84785,103.06933)" />
    <path
       id="path4"
       d="m 0.44388281,1.2190781 c -0.0820313,0.3398438 -0.09375,0.4101563 -0.5390625,0.4101563 -0.1171875,0 -0.22265625,0 -0.22265625,0.1875 0,0.082031 0.046875,0.1171875 0.12890625,0.1171875 0.26953125,0 0.55078125,-0.035156 0.83203125,-0.035156 0.328125,0 0.66796874,0.035156 0.98437504,0.035156 0.058594,0 0.1875,0 0.1875,-0.1992188 0,-0.1054687 -0.1054688,-0.1054687 -0.2460938,-0.1054687 -0.4921875,0 -0.4921875,-0.070312 -0.4921875,-0.1640625 0,-0.1171875 0.421875,-1.74609377 0.4804688,-1.99218752 0.140625,0.29296875 0.4101562,0.6328125 0.9257812,0.6328125 1.1484375,0 2.4023438,-1.45312498 2.4023438,-2.91796878 0,-0.9375 -0.5742188,-1.59375 -1.3359375,-1.59375 -0.4921875,0 -0.9726563,0.3632813 -1.3007813,0.75 -0.09375,-0.5390625 -0.5273437,-0.75 -0.890625,-0.75 -0.45703124,0 -0.65624999,0.3867188 -0.73828124,0.5742188 -0.1875,0.3398437 -0.31640625,0.9375 -0.31640625,0.9609375 0,0.1054687 0.10546875,0.1054687 0.12890625,0.1054687 0.09375,0 0.10546875,-0.011719 0.1640625,-0.234375 0.1640625,-0.703125 0.36328125,-1.1835937 0.72656254,-1.1835937 0.1757812,0 0.3046875,0.082031 0.3046875,0.4570312 0,0.234375 -0.023437,0.3398438 -0.070312,0.5039063 z M 2.2016953,-3.1051406 c 0.070312,-0.2695313 0.3398438,-0.5507813 0.515625,-0.703125 0.3515625,-0.3046875 0.6328125,-0.375 0.8085938,-0.375 0.3984375,0 0.6328125,0.3515625 0.6328125,0.9375 0,0.5859375 -0.328125,1.734375 -0.5039063,2.109375 -0.3398437,0.70312498 -0.8203125,1.03124998 -1.1835937,1.03124998 -0.65625,0 -0.7851563,-0.83203125 -0.7851563,-0.890625 0,-0.0234375 0,-0.0351563 0.023437,-0.16406248 z m 0,0"
       style="fill:#000000;fill-opacity:1;fill-rule:nonzero;stroke:none"
       aria-label="p"
       transform="matrix(1.3333333,0,0,1.3333333,8.248,10.148)" />
    <path
       id="path5"
       d="m 7.3713594,-4.3477734 c 0,-1.59375 -1.0546875,-2.671875 -2.5429688,-2.671875 -2.1445312,0 -4.33593748,2.2617187 -4.33593748,4.5820312 0,1.65234376 1.11328128,2.66015626 2.54296878,2.66015626 2.109375,0 4.3359375,-2.17968746 4.3359375,-4.57031246 z m -4.2773438,4.31249996 c -0.984375,0 -1.6757812,-0.80859375 -1.6757812,-2.12109376 0,-0.4453125 0.140625,-1.8984375 0.9023437,-3.0585937 0.6914063,-1.0429688 1.6640625,-1.5585938 2.4492188,-1.5585938 0.8203125,0 1.7109375,0.5625 1.7109375,2.0390625 0,0.7148438 -0.2695313,2.2734375 -1.2539063,3.5039063 -0.4804687,0.59765621 -1.2890625,1.19531246 -2.1328125,1.19531246 z m 0,0"
       style="fill:#000000;fill-opacity:1;fill-rule:nonzero;stroke:none"
       aria-label="O"
       transform="matrix(1.3333333,0,0,1.3333333,4.4293333,116.84)" />
    <path
       id="path6"
       d="m 6.2571016,-5.6719922 c 0.4804687,-0.7734375 0.9023437,-0.8085937 1.2773437,-0.8203125 0.1171875,-0.011719 0.1289063,-0.1875 0.1289063,-0.1875 0,-0.082031 -0.058594,-0.1289062 -0.1289063,-0.1289062 -0.2578125,0 -0.5507812,0.035156 -0.8203125,0.035156 -0.328125,0 -0.6679687,-0.035156 -0.984375,-0.035156 -0.058594,0 -0.1875,0 -0.1875,0.1992187 0,0.1054688 0.082031,0.1171875 0.1523438,0.1171875 0.2695312,0.011719 0.4570312,0.1171875 0.4570312,0.328125 0,0.1523438 -0.140625,0.3632813 -0.140625,0.375 L 2.9524141,-0.92589844 2.2727266,-6.1993359 c 0,-0.1640625 0.2226562,-0.2929688 0.6796875,-0.2929688 0.140625,0 0.2578125,0 0.2578125,-0.1992187 0,-0.09375 -0.082031,-0.1171875 -0.140625,-0.1171875 -0.3984375,0 -0.8320313,0.035156 -1.2421875,0.035156 -0.1757813,0 -0.3632813,-0.011719 -0.5390625,-0.011719 -0.1875,0 -0.37500004,-0.023437 -0.53906254,-0.023437 -0.0703125,0 -0.1875,0 -0.1875,0.1992187 0,0.1171875 0.0820313,0.1171875 0.24609375,0.1171875 0.55078129,0 0.56249999,0.082031 0.59765629,0.3398438 l 0.7851562,6.14062496 c 0.035156,0.19921875 0.070312,0.234375 0.1992188,0.234375 0.1640625,0 0.1992187,-0.0585938 0.28125,-0.1875 z m 0,0"
       style="fill:#000000;fill-opacity:1;fill-rule:nonzero;stroke:none"
       aria-label="V"
       transform="matrix(1.3333333,0,0,1.3333333,108.76267,116.84)" />
    <path
       id="path7"
       d="m 198.42793,10.63069 -1.77123,0.22817 -1.77125,0.2433 -1.77124,0.2606 -1.77125,0.28006 -1.77124,0.29955 -1.77124,0.32223 -1.77124,0.34928 -1.77124,0.37848 -1.77126,0.40982 -1.77124,0.44876 -1.77124,0.49093 -1.77124,0.53958 -1.77124,0.59583 -1.77126,0.66179 -1.77124,0.74071 -1.77124,0.83372 -1.77124,0.9451 -1.77124,1.07918 -1.77126,1.24246 -1.77125,1.45334 -1.77124,1.71609 -1.77124,2.05996 -1.77124,2.51521 -1.77125,3.14563"
       style="fill:none;stroke:#0000ff;stroke-width:0.3985;stroke-linecap:butt;stroke-linejoin:miter;stroke-miterlimit:10;stroke-dasharray:none;stroke-opacity:1"
       transform="matrix(1.3333333,0,0,-1.3333333,-169.35467,103.06933)" />
    <path
       id="path8"
       d="M -2.07224,2.39104 C -1.69365,0.95639 -0.84999,0.27895 0,0 -0.84999,-0.27895 -1.69365,-0.95639 -2.07224,-2.39104"
       style="fill:none;stroke:#0000ff;stroke-width:0.3985;stroke-linecap:round;stroke-linejoin:round;stroke-miterlimit:10;stroke-dasharray:none;stroke-opacity:1"
       transform="matrix(-1.2489333,-0.4666,-0.4666,1.2489333,63.139,81.91912)" />
    <path
       id="path9"
       d="m 2.4740859,-7.4660781 -0.09375,0.3164062 c -0.023437,0.140625 -0.2226562,0.5390625 -0.5859375,1.2070313 -0.3515625,0.6796875 -0.609375,1.125 -0.7617187,1.3242187 -0.16406251,0.1992188 -0.28125001,0.328125 -0.35156251,0.3867188 -0.0820313,0.046875 -0.1875,0.1054687 -0.31640625,0.1523437 l 0.328125,0.6210938 0.24609375,-0.1171875 C 1.1264297,-3.6809219 1.6537734,-3.7981094 2.5209609,-3.9387344 c -0.2929687,0.515625 -0.5507812,0.9257813 -0.7617187,1.2304688 -0.2109375,0.2929687 -0.375,0.4804687 -0.46875,0.5742187 -0.1054688,0.09375 -0.2578125,0.1523438 -0.48046876,0.1992188 l 0.32812496,0.703125 0.2578125,-0.140625 c 0.2460938,-0.1523438 1.125,-0.3867188 2.6367188,-0.6679688 v -0.1640625 c -0.703125,0.070312 -1.5117188,0.140625 -2.4257813,0.2109375 0.3515625,-0.4335937 0.6914063,-0.8789062 1.0195313,-1.3125 0.328125,-0.4335937 0.7734375,-1.0429687 1.3359375,-1.8515625 l 0.2109375,-0.035156 c 0.082031,-0.023437 0.1171875,-0.035156 0.1289062,-0.070312 0.011719,-0.023437 -0.023437,-0.070312 -0.09375,-0.1171875 l -0.6796875,-0.503907 -0.1171875,0.3398438 c -0.058594,0.1757812 -0.2929687,0.609375 -0.7148437,1.3359375 l -1.6289063,0.035156 0.328125,-0.421875 1.0429688,-1.4414062 c 0.1171875,-0.1523438 0.28125,-0.3867188 0.515625,-0.703125 l 0.2695312,-0.082031 c 0.058594,-0.023437 0.082031,-0.046875 0.082031,-0.058594 0,-0.023437 -0.035156,-0.058594 -0.1054688,-0.1171875 z m -1.92187496,7.46484373 0.3984375,0.78515625 0.23437496,-0.1640625 c 0.1289063,-0.10546875 0.328125,-0.19921875 0.5976563,-0.3046875 0.2695312,-0.10546875 1.03125,-0.38671875 2.25,-0.83203125 l -0.035156,-0.1171875 c -1.1835937,0.28125 -1.96875,0.45703125 -2.3671875,0.50390625 -0.375,0.046875 -0.73828121,0.09375 -1.07812526,0.12890625 z m 2.87109376,-3.15234373 0.1054687,0.09375 c 0.2109375,-0.2226563 0.5507813,-0.5976563 1.0195313,-1.125 v 4.54687498 c 0,0.2578125 0,0.45703125 0.035156,0.59765625 0.035156,0.15234377 0.140625,0.26953127 0.3164063,0.33984377 0.1992187,0.070312 0.84375,0.1171875 1.9570312,0.1054687 l 1.265625,-0.046875 c 0.328125,0 0.5507813,-0.035156 0.703125,-0.082031 0.1523438,-0.046875 0.2695313,-0.1171875 0.3632813,-0.1992188 0.09375,-0.09375 0.1523437,-0.16406247 0.1757812,-0.22265622 0.035156,-0.046875 0.046875,-0.1171875 0.070312,-0.19921875 L 9.2123672,0.50267188 c -0.070312,-0.046875 -0.1289063,-0.140625 -0.1640625,-0.26953125 -0.046875,-0.12890625 -0.058594,-0.29296875 -0.070312,-0.46875 -0.011719,-0.1875 -0.023437,-0.41015625 -0.035156,-0.69140625 l -0.1054687,0.0234375 c -0.046875,0.328125 -0.1054688,0.59765625 -0.1289063,0.796875 -0.035156,0.2109375 -0.070312,0.38671875 -0.1171875,0.52734375 -0.058594,0.12890625 -0.09375,0.2109375 -0.140625,0.26953125 -0.058594,0.046875 -0.140625,0.0703125 -0.2460937,0.0703125 -0.1171875,0 -0.3515625,0.0117188 -0.6914063,0.046875 -0.3515625,0.0234375 -0.75,0.0351563 -1.171875,0.0234375 -0.4453125,0 -0.7265625,0 -0.84375,0 -0.1054687,0 -0.1992187,-0.0117188 -0.2695312,-0.0585938 C 5.1576797,0.73704688 5.1225234,0.69017188 5.0990859,0.61985938 5.0756484,0.54954688 5.0639297,0.37376563 5.0639297,0.09251563 V -1.8762344 h 2.9648437 v 0.4335938 c 0.09375,-0.035156 0.1875,-0.058594 0.3046875,-0.1171875 0.09375,-0.035156 0.1875,-0.070312 0.2695313,-0.1054688 l -0.035156,-0.8320312 v -1.4648438 l 0.234375,-0.2109375 c 0.082031,-0.082031 0.1289063,-0.1171875 0.1289063,-0.1289062 0,0 -0.058594,-0.046875 -0.1640625,-0.1289063 L 8.2631484,-4.7942031 7.9584609,-4.3606094 h -1.21875 c 0.5273438,-0.6679687 0.8671875,-1.0664062 1.0546875,-1.1953125 0.1640625,-0.140625 0.2929688,-0.2226562 0.375,-0.234375 l 0.1757813,-0.023437 c 0.058594,0 0.082031,-0.023437 0.09375,-0.070312 0.011719,-0.011719 -0.023437,-0.070312 -0.1054688,-0.1640625 L 7.7358047,-6.6223281 7.3373672,-6.1887344 h -1.453125 l 0.4570312,-0.8203125 0.1875,-0.070312 c 0.070312,-0.011719 0.1054688,-0.035156 0.1054688,-0.058594 0.011719,-0.023437 -0.046875,-0.070312 -0.1523438,-0.140625 l -0.7382812,-0.421875 -0.1054688,0.3984375 c -0.035156,0.1875 -0.1171875,0.421875 -0.234375,0.7265625 -0.1171875,0.3046875 -0.234375,0.5742187 -0.3398437,0.8203125 -0.1171875,0.2226562 -0.3164063,0.5742187 -0.5742188,1.03125 -0.2695312,0.4453125 -0.6210937,0.9726562 -1.0664062,1.5703123 z m 1.4296875,-1.4648438 c 0.3164062,-0.4570312 0.6210937,-0.9023437 0.890625,-1.3359375 h 1.6523437 l -0.4453125,0.8085938 c -0.046875,0.09375 -0.1992187,0.3515625 -0.4570312,0.7851562 H 5.2162734 Z m 0.2109375,2.5195313 v -2.0273438 h 1.1835937 v 2.0273438 z m 1.6992187,0 v -2.0273438 h 1.265625 l -0.011719,2.0273438 z m 3.7265626,-1.5 0.421875,0.7265625 c 0.351562,-0.2226563 0.621094,-0.375 0.832031,-0.4804688 0.210938,-0.082031 0.46875,-0.1992187 0.773438,-0.3164062 v 1.6289062 c 0,0.1054688 -0.02344,0.1757813 -0.08203,0.2109375 -0.05859,0.023437 -0.1875,0.023437 -0.386718,0.011719 -0.199219,0 -0.480469,-0.046875 -0.855469,-0.1171875 l -0.01172,0.1289062 0.222656,0.09375 0.28125,0.09375 c 0.234375,0.1171875 0.375,0.2109375 0.433594,0.3164063 0.04687,0.1054687 0.08203,0.2109375 0.117188,0.33984373 0.222656,-0.0703125 0.410156,-0.14062503 0.539062,-0.21093753 0.128906,-0.070312 0.210938,-0.140625 0.246094,-0.2460937 0.03516,-0.082031 0.04687,-0.1757813 0.04687,-0.28125 v -2.2148438 l 0.199219,-0.09375 0.820312,-0.375 c 0.09375,-0.035156 0.222656,-0.1054687 0.398438,-0.1992187 l -0.03516,-0.140625 c -0.140625,0.046875 -0.339843,0.1171875 -0.644531,0.2226562 -0.292969,0.082031 -0.550781,0.1640625 -0.738281,0.234375 v -1.3007812 h 1.523437 c 0.105469,0 0.164063,-0.011719 0.175782,-0.035156 0.01172,-0.011719 -0.02344,-0.070312 -0.09375,-0.1523437 l -0.550782,-0.5976563 -0.46875,0.5625 h -0.585937 v -1.078125 l 0.28125,-0.1875 c 0.09375,-0.058594 0.128906,-0.09375 0.128906,-0.1171875 0,-0.023437 -0.03516,-0.046875 -0.128906,-0.09375 l -0.878906,-0.3398437 0.04687,0.7382812 v 1.078125 h -1.300782 l -0.492187,-0.023437 0.351562,0.4453125 c 0.257813,-0.1289062 0.585938,-0.1992187 0.984375,-0.1992187 h 0.457032 v 1.4765625 c -0.738282,0.2226562 -1.417969,0.3984375 -2.027344,0.4921875 z m 1.347656,2.84765623 -0.05859,0.36328125 c -0.01172,0.046875 -0.05859,0.1875 -0.164062,0.41015625 -0.09375,0.2109375 -0.234375,0.41015625 -0.421875,0.57421875 l -0.304688,0.234375 c -0.117187,0.1171875 -0.175781,0.19921872 -0.164062,0.25781252 0,0.058594 0.02344,0.1171875 0.07031,0.1640625 0.07031,0.046875 0.140625,0.082031 0.257813,0.082031 0.1875,0.011719 0.351562,-0.058594 0.492187,-0.1757812 0.140625,-0.140625 0.234375,-0.25781252 0.28125,-0.38671877 0.04687,-0.10546875 0.09375,-0.24609375 0.105469,-0.3984375 0.04687,-0.140625 0.05859,-0.26953125 0.05859,-0.375 0.01172,-0.12890625 0,-0.2578125 0,-0.375 -0.01172,-0.1171875 -0.02344,-0.24609375 -0.04687,-0.38671875 z m 1.21875,-0.24609375 0.05859,0.10546875 c 1.160156,-0.53906253 1.863281,-1.00781253 2.085937,-1.40625003 0.234375,-0.4101562 0.375,-0.6796875 0.445313,-0.8085937 l 0.28125,0.328125 c 0.04687,0.046875 0.117187,0.1523437 0.210937,0.2929687 0.09375,0.1523438 0.164063,0.2460938 0.199219,0.2695313 0.128906,0.1289062 0.246094,0.070312 0.363281,-0.1523438 0.04687,-0.1171875 0.07031,-0.1992187 0.05859,-0.28125 0,-0.082031 -0.03516,-0.1640625 -0.08203,-0.2578125 -0.05859,-0.082031 -0.164063,-0.1875 -0.292969,-0.28125 -0.128906,-0.1054687 -0.316406,-0.234375 -0.5625,-0.3984375 0.07031,-0.234375 0.117188,-0.46875 0.140625,-0.6796875 0.03516,-0.2109375 0.07031,-0.5507812 0.117188,-1.0195312 l 1.21875,-0.2226563 -0.01172,0.6210938 c -0.01172,0.3867187 0,0.75 0.01172,1.1132812 0,0.3515625 0.03516,0.6445313 0.07031,0.8789063 0.02344,0.2226562 0.09375,0.46875 0.1875,0.7265625 0.08203,0.2695312 0.246094,0.46875 0.457031,0.6328125 0.222657,0.1757812 0.398438,0.28125 0.515625,0.328125 0.128907,0.046875 0.269532,0.09375 0.421875,0.1171875 0.140625,0.035156 0.234375,0.046875 0.292969,0.046875 0.117188,-0.011719 0.1875,-0.058594 0.1875,-0.1757813 0.01172,-0.046875 -0.01172,-0.140625 -0.07031,-0.2460937 -0.05859,-0.1054688 -0.09375,-0.234375 -0.128907,-0.3515625 -0.02344,-0.140625 -0.04687,-0.28125 -0.03516,-0.421875 0.01172,-0.140625 0.02344,-0.28125 0.03516,-0.4335938 0,-0.1523437 0.02344,-0.3515625 0.05859,-0.609375 l -0.128906,-0.023437 c -0.117188,0.421875 -0.1875,0.6796875 -0.199219,0.75 l -0.128906,0.375 c -0.05859,0.1640625 -0.105469,0.2578125 -0.152344,0.28125 -0.117187,0.023437 -0.246094,-0.035156 -0.386719,-0.1992187 -0.128906,-0.1640625 -0.234375,-0.328125 -0.304687,-0.4804688 -0.07031,-0.1640625 -0.105469,-0.375 -0.140625,-0.6328125 -0.01172,-0.2578125 -0.02344,-0.5390625 -0.02344,-0.8554687 -0.01172,-0.328125 -0.01172,-0.5742188 0.01172,-0.7382813 0,-0.1757812 0.01172,-0.3515625 0.03516,-0.5507812 l 0.257813,-0.234375 c 0.07031,-0.046875 0.105469,-0.082031 0.105469,-0.1054688 0,-0.035156 -0.07031,-0.09375 -0.210938,-0.1875 l -0.5625,-0.328125 -0.234375,0.5039063 -1.136719,0.2109375 0.04687,-0.65625 c 0.01172,-0.1289063 0.02344,-0.421875 0.03516,-0.9140625 l 0.222656,-0.140625 c 0.07031,-0.046875 0.105469,-0.070312 0.105469,-0.1054688 0,-0.023437 -0.03516,-0.046875 -0.105469,-0.082031 l -0.855469,-0.328125 0.02344,0.4570312 v 1.5117188 c 0,0.1289062 0,0.234375 -0.01172,0.3398437 l -0.679688,0.1054688 -0.492187,0.058594 0.363281,0.2578125 c 0.234375,-0.09375 0.386719,-0.140625 0.46875,-0.1523437 l 0.328125,-0.046875 c -0.03516,0.4804687 -0.08203,0.796875 -0.117187,0.9492187 -0.03516,0.1523438 -0.07031,0.2929688 -0.105469,0.3984375 -0.199219,-0.082031 -0.421875,-0.1757812 -0.679688,-0.3046875 l -0.05859,0.1289063 0.199218,0.140625 0.269532,0.1992187 c 0.04687,0.035156 0.105468,0.09375 0.199218,0.1757813 -0.105468,0.3164062 -0.210937,0.5742187 -0.339843,0.7617187 -0.128907,0.1875 -0.304688,0.421875 -0.527344,0.6796875 -0.234375,0.2578125 -0.46875,0.46875 -0.679688,0.6328125 -0.222656,0.140625 -0.445312,0.2929688 -0.644531,0.43359378 z m 0.222656,0.421875 c 0.105469,0.19921875 0.175782,0.33984375 0.1875,0.4453125 0.03516,0.09375 0.04687,0.2109375 0.07031,0.328125 0.02344,0.10546875 0.03516,0.2109375 0.04687,0.3046875 v 0.3984375 c 0,0.11718752 0.02344,0.17578122 0.05859,0.19921872 0.04687,0.035156 0.117187,0.023437 0.222656,-0.023437 0.105469,-0.046875 0.1875,-0.11718747 0.246094,-0.18749997 0.07031,-0.1171875 0.117187,-0.24609375 0.117187,-0.375 0,-0.140625 -0.08203,-0.31640625 -0.246094,-0.5390625 -0.152343,-0.2109375 -0.363281,-0.421875 -0.609375,-0.62109375 z m 2.039063,-0.09375 c 0.1875,0.24609375 0.316406,0.45703125 0.386719,0.6328125 0.07031,0.1640625 0.117187,0.33984375 0.140625,0.5390625 0.02344,0.19921875 0.05859,0.33984375 0.08203,0.41015625 0.03516,0.0703125 0.08203,0.11718747 0.128906,0.12890627 0.05859,0.011719 0.117188,-0.011719 0.199219,-0.046875 0.05859,-0.0585938 0.117187,-0.12890625 0.175781,-0.22265625 0.05859,-0.10546875 0.08203,-0.19921875 0.08203,-0.26953125 -0.01172,-0.09375 -0.03516,-0.19921875 -0.105468,-0.3046875 -0.07031,-0.1171875 -0.164063,-0.2578125 -0.316407,-0.421875 -0.152343,-0.140625 -0.386718,-0.33984375 -0.703125,-0.55078125 z m 1.957031,-0.0117188 c 0.246094,0.26953125 0.421875,0.4453125 0.515625,0.5625 0.09375,0.10546875 0.175781,0.22265625 0.246094,0.3515625 0.07031,0.12890625 0.152344,0.29296875 0.222656,0.46875 l 0.128906,0.39843752 c 0.03516,0.1171875 0.07031,0.1875 0.117188,0.1992188 0.05859,0.046875 0.128906,0.046875 0.199219,0 0.07031,-0.035156 0.140625,-0.1289063 0.210937,-0.2460938 0.07031,-0.14062502 0.105469,-0.25781252 0.117188,-0.37500002 0,-0.09375 -0.02344,-0.1875 -0.08203,-0.3046875 -0.04687,-0.10546875 -0.234375,-0.26953125 -0.539062,-0.515625 -0.316406,-0.22265625 -0.679688,-0.43359375 -1.089844,-0.6328125 z m 0,0"
       style="fill:#0000ff;fill-opacity:1;fill-rule:nonzero;stroke:none"
       aria-label="绝热"
       transform="matrix(1.3333333,0,0,1.3333333,25.252,90.681333)" />
    <path
       id="path10"
       d="m 155.90727,42.51848 1.77124,-4.72223 1.77124,-3.77931 1.77126,-3.09156 1.77124,-2.57684 1.77124,-2.18107 1.77124,-1.8675 1.77124,-1.61984 1.77125,-1.41765 1.77124,-1.25113 1.77124,-1.1116 1.77125,-0.99593 1.77124,-0.89427 1.77125,-0.80885 1.77124,-0.73639 1.77124,-0.67151 1.77124,-0.61746 1.77124,-0.56662 1.77126,-0.52338 1.77124,-0.48552 1.77125,-0.44984 1.77125,-0.41956 1.77123,-0.39036 1.77126,-0.36658 1.77124,-0.34171"
       style="fill:none;stroke:#0000ff;stroke-width:0.3985;stroke-linecap:butt;stroke-linejoin:miter;stroke-miterlimit:10;stroke-dasharray:none;stroke-opacity:1"
       transform="matrix(1.3333333,0,0,-1.3333333,-169.35467,103.06933)" />
    <path
       id="path11"
       d="M -2.07224,2.39104 C -1.69365,0.95639 -0.84999,0.27895 0,0 -0.84999,-0.27895 -1.69365,-0.95639 -2.07224,-2.39104"
       style="fill:none;stroke:#0000ff;stroke-width:0.3985;stroke-linecap:round;stroke-linejoin:round;stroke-miterlimit:10;stroke-dasharray:none;stroke-opacity:1"
       transform="matrix(1.1293733,0.70868,0.70868,-1.1293733,59.68232,76.32832)" />
    <path
       id="path12"
       d="m 0.45814062,-3.01175 0.421875,0.3867188 C 1.0675156,-2.7187812 1.3018906,-2.7539375 1.5831406,-2.7539375 h 7.78125 c 0.058594,0 0.09375,-0.011719 0.1054688,-0.023437 0,-0.011719 -0.023437,-0.046875 -0.070312,-0.1054687 L 8.7315781,-3.6094062 8.2042344,-3.01175 H 5.1925156 v -0.9492187 h 3.2226563 c 0.058594,0 0.09375,-0.011719 0.1054687,-0.046875 0.011719,-0.023437 -0.011719,-0.058594 -0.046875,-0.09375 L 7.8292344,-4.69925 7.4307969,-4.1953437 H 5.1925156 v -0.6210938 l 0.1992188,-0.1289062 c 0.1054687,-0.070312 0.1523437,-0.1054688 0.1523437,-0.1171875 0,-0.023437 -0.035156,-0.035156 -0.082031,-0.070312 l -0.28125,-0.1171875 0.2226562,-0.2695313 0.4101563,-0.515625 c 0.046875,-0.046875 0.1171875,-0.1289062 0.1992187,-0.2460937 h 0.7617188 l 0.1289062,0.2460937 c 0.070312,0.09375 0.140625,0.2929688 0.2109375,0.5976563 0.023437,0.1289062 0.046875,0.234375 0.035156,0.3398437 0,0.082031 0.011719,0.140625 0.023437,0.1523438 0.035156,0.1054687 0.1054687,0.1289062 0.2226562,0.1054687 0.09375,-0.035156 0.1757813,-0.1054687 0.2226563,-0.2109375 0.058594,-0.1054687 0.070312,-0.1875 0.070312,-0.2578125 0,-0.1054687 -0.035156,-0.2109375 -0.09375,-0.3046875 C 7.5128281,-5.6953437 7.2901719,-5.918 6.9268906,-6.2812812 h 2.3320313 c 0.046875,0 0.082031,0 0.09375,-0.035156 0.011719,-0.023437 0,-0.046875 -0.023437,-0.082031 l -0.679688,-0.585938 -0.4101563,0.4804687 H 6.1886094 c 0.1640625,-0.234375 0.3164062,-0.4570312 0.4570312,-0.6445312 l 0.234375,-0.058594 c 0.046875,-0.011719 0.082031,-0.035156 0.09375,-0.070312 0.023437,-0.011719 -0.023437,-0.058594 -0.1171875,-0.1171875 L 6.1651719,-7.793 6.0831406,-7.4765937 c -0.058594,0.2109375 -0.140625,0.46875 -0.2929687,0.7851562 -0.1523438,0.3046875 -0.3984375,0.7617188 -0.7617188,1.3710938 l -0.3984375,-0.1757813 0.058594,0.8320313 v 0.46875 h -2.121094 l -0.75,-0.023437 0.421875,0.3984375 c 0.2578125,-0.09375 0.4921875,-0.140625 0.7148438,-0.140625 h 1.734375 V -3.01175 Z M 2.6378281,-7.7695625 2.5557969,-7.51175 c -0.058594,0.1523438 -0.140625,0.3515625 -0.28125,0.6210938 -0.1289063,0.2578125 -0.2929688,0.5390625 -0.4804688,0.8320312 -0.1757812,0.2929688 -0.3632812,0.5625 -0.5390625,0.8085938 L 0.83314062,-4.69925 c -0.0585938,0.058594 -0.1171875,0.1523438 -0.19921875,0.2695313 l 0.0820313,0.082031 C 1.2432969,-4.8515937 1.6182969,-5.214875 1.8057969,-5.4258125 1.9932969,-5.6484687 2.2159531,-5.918 2.4620469,-6.246125 h 0.6445312 l 0.140625,0.2578125 c 0.035156,0.046875 0.058594,0.140625 0.1054688,0.2460938 0.035156,0.1171875 0.070312,0.2460937 0.09375,0.3867187 0.035156,0.140625 0.046875,0.2578125 0.046875,0.3632813 0,0.1054687 0.011719,0.1757812 0.035156,0.1875 0.023437,0.011719 0.035156,0.023437 0.070312,0.023437 0.070312,0.011719 0.140625,-0.035156 0.2226563,-0.1171875 0.070312,-0.1054688 0.1289062,-0.1875 0.1640625,-0.2460938 0.035156,-0.070312 0.046875,-0.140625 0.035156,-0.2109375 0,-0.082031 -0.046875,-0.1640625 -0.1171875,-0.2578125 -0.070312,-0.082031 -0.28125,-0.2929687 -0.609375,-0.6328125 H 5.087046 c 0.023437,0 0.046875,-0.011719 0.058594,-0.035156 0.011719,-0.011719 0,-0.046875 -0.046875,-0.070312 l -0.703125,-0.5976563 -0.375,0.46875 H 2.6378281 l 0.46875,-0.6210937 0.2578125,-0.046875 c 0.058594,-0.011719 0.1054688,-0.023437 0.1171875,-0.058594 0.011719,-0.023437 -0.035156,-0.070312 -0.140625,-0.140625 z M 1.0323594,-1.6172187 1.4425156,-1.2305 c 0.2109375,-0.082031 0.4570313,-0.1289062 0.7148438,-0.1289062 h 0.9960937 c 0.3164063,0.3515625 0.515625,0.6210937 0.5976563,0.84374995 0.070312,0.19921875 0.1171875,0.3515625 0.140625,0.45703125 0,0.09375 0.023437,0.1640625 0.058594,0.19921875 0.011719,0.0234375 0.046875,0.046875 0.09375,0.0585938 0.1054685,0.0117187 0.222656,-0.0468751 0.316406,-0.1992188 C 4.4425156,-0.1055 4.4776719,-0.2226875 4.4659531,-0.339875 4.4542344,-0.433625 4.4073594,-0.56253125 4.2901719,-0.65628125 4.1847031,-0.77346875 3.8800156,-1.0078437 3.3878281,-1.3594062 h 3.046875 v 1.8867187 c 0,0.09375 -0.023437,0.17578125 -0.082031,0.234375 C 6.3175156,0.832 6.1534531,0.832 5.8839219,0.785125 5.6143906,0.73825 5.3097031,0.67965625 4.9464219,0.6210625 l -0.023437,0.140625 c 0.4570312,0.1640625 0.7382812,0.28125 0.8554687,0.375 0.1054688,0.09375 0.1640625,0.1640625 0.1757813,0.2578125 0.023437,0.082031 0.035156,0.1640625 0.035156,0.2460938 0.1523438,-0.023437 0.328125,-0.09375 0.5273438,-0.2109375 0.1992187,-0.1054688 0.328125,-0.2109375 0.375,-0.328125 0.058594,-0.1054688 0.09375,-0.21093755 0.09375,-0.30468755 V -1.3594062 h 2.15625 c 0.058594,0 0.1054687,0 0.1171875,-0.011719 0.011719,-0.011719 -0.023437,-0.058594 -0.1171875,-0.140625 L 8.4737656,-2.1094062 8.0753281,-1.5703437 H 6.9854844 v -0.515625 L 7.1847031,-2.168 c 0.09375,-0.058594 0.1289063,-0.082031 0.1289063,-0.1054687 -0.011719,-0.011719 -0.035156,-0.023437 -0.09375,-0.058594 l -0.8320313,-0.3867187 0.046875,0.84375 v 0.3046875 H 1.9581406 Z m 9.5039066,-3.5625 -0.07031,0.09375 c 0.175781,0.1640625 0.292969,0.28125 0.375,0.375 0.08203,0.09375 0.175781,0.2226562 0.28125,0.3984375 0.105469,0.1757812 0.175781,0.328125 0.210938,0.4570312 0.04687,0.1289063 0.07031,0.2109375 0.105468,0.2695313 0.02344,0.035156 0.07031,0.070312 0.117188,0.070312 0.03516,0.011719 0.08203,-0.011719 0.140625,-0.058594 0.04687,-0.046875 0.09375,-0.1171875 0.152344,-0.2109375 0.04687,-0.1054687 0.07031,-0.2226562 0.07031,-0.3398437 0,-0.1289063 -0.04687,-0.234375 -0.140625,-0.3632813 -0.08203,-0.09375 -0.257812,-0.2226562 -0.515625,-0.3515625 -0.257812,-0.1289062 -0.492187,-0.2460937 -0.726562,-0.3398437 z m 0.02344,3.5039062 -0.03516,0.1289063 c 0.292969,0.09375 0.46875,0.1523437 0.574219,0.2109375 0.08203,0.035156 0.164062,0.1171875 0.222656,0.1992187 0.07031,0.1054688 0.105469,0.22265625 0.117187,0.375 0.01172,0.12890625 -0.02344,0.328125 -0.05859,0.59765625 -0.05859,0.26953125 -0.105469,0.48046875 -0.152344,0.64453125 -0.04687,0.1875 -0.08203,0.328125 -0.07031,0.421875 0.01172,0.0820313 0.03516,0.1640625 0.08203,0.2109375 0.04687,0.046875 0.117187,0.1171875 0.222656,0.1640625 0.117187,0.058594 0.199219,0.082031 0.257812,0.082031 0.164063,0 0.257813,-0.1289063 0.257813,-0.3632813 0,-0.0820313 -0.01172,-0.22265625 -0.02344,-0.43359375 l -0.04687,-0.78515625 c -0.03516,-0.38671875 -0.04687,-0.6328125 -0.03516,-0.7734375 0,-0.1171875 0.04687,-0.3515625 0.128906,-0.6796875 0.08203,-0.3164062 0.234375,-0.796875 0.445313,-1.4296875 0.210937,-0.6328125 0.585937,-1.7109375 1.136719,-3.234375 L 13.454234,-6.38675 c -0.164062,0.375 -0.351562,0.8203125 -0.5625,1.3242188 l -0.703125,1.7460937 c -0.199218,0.5039063 -0.363281,0.8671875 -0.46875,1.1015625 -0.09375,0.2226563 -0.175781,0.375 -0.222656,0.4453125 -0.05859,0.058594 -0.117187,0.09375 -0.199219,0.1289063 -0.05859,0.023437 -0.152343,0.035156 -0.257812,0.023437 -0.117188,-0.011719 -0.269531,-0.023437 -0.480469,-0.058594 z m 0.585938,-5.4257812 c 0.46875,0.3164062 0.75,0.6210937 0.84375,0.890625 0.105468,0.2695312 0.164062,0.4335937 0.199218,0.4921875 0.02344,0.058594 0.08203,0.09375 0.152344,0.09375 0.04687,0 0.105469,-0.035156 0.175781,-0.09375 0.07031,-0.058594 0.117188,-0.1289063 0.152344,-0.2109375 0.07031,-0.1640625 0.07031,-0.3164063 -0.01172,-0.4453125 -0.07031,-0.1289063 -0.152343,-0.2226563 -0.234375,-0.28125 -0.08203,-0.058594 -0.292968,-0.1523438 -0.632812,-0.3164063 -0.328125,-0.140625 -0.515625,-0.234375 -0.550781,-0.234375 z M 13.2433,0.67965625 H 12.692516 L 12.188609,0.6445 12.540172,1.0780938 C 12.680797,1.0077818 12.809703,0.96090625 12.926891,0.9491875 13.055797,0.92575 13.219859,0.9140312 13.430797,0.9140312 h 6.058594 c 0.140625,0 0.164062,-0.0585938 0.05859,-0.17578125 L 19.044078,0.17575 18.680797,0.67965625 H 18.516734 V -2.0976875 l 0.246094,-0.1992187 c 0.07031,-0.046875 0.09375,-0.070312 0.08203,-0.070312 0,-0.023437 -0.01172,-0.046875 -0.05859,-0.082031 l -0.585938,-0.4570312 -0.339844,0.46875 h -3.984375 l -0.691406,-0.4335938 0.07031,1.1601563 z m 0.609375,0 V -2.214875 h 0.949219 v 2.89453125 z m 1.464844,0 V -2.214875 h 1.03125 v 2.89453125 z m 1.59375,0 V -2.214875 h 1.007812 v 2.89453125 z m -3.117188,-7.99218745 0.05859,1.03125 v 2.2617187 l -0.07031,1.1953125 c 0.363282,-0.1523437 0.550782,-0.2460937 0.5625,-0.2460937 0.01172,-0.023437 0.03516,-0.035156 0.09375,-0.082031 v -0.4921875 h 3.035157 v 0.6796875 c 0.257812,-0.058594 0.46875,-0.1640625 0.632812,-0.328125 l -0.05859,-1.125 v -2.109375 l 0.210938,-0.1523437 c 0.105469,-0.070312 0.152344,-0.1289063 0.152344,-0.140625 0,-0.023437 -0.02344,-0.058594 -0.05859,-0.09375 l -0.609375,-0.515625 -0.375,0.5039062 h -2.8125 z m 0.644531,3.421875 v -1.3125 h 3.035157 v 1.3125 z m 0,-1.5351563 v -1.265625 h 3.035157 v 1.265625 z m 0,0"
       style="fill:#0000ff;fill-opacity:1;fill-rule:nonzero;stroke:none"
       aria-label="等温"
       transform="matrix(1.3333333,0,0,1.3333333,56.381333,66.890667)" />
    <path
       id="path13"
       d="M 155.90727,31.89102 V 42.51848"
       style="fill:none;stroke:#0000ff;stroke-width:0.3985;stroke-linecap:butt;stroke-linejoin:miter;stroke-miterlimit:10;stroke-dasharray:none;stroke-opacity:1"
       transform="matrix(1.3333333,0,0,-1.3333333,-169.35467,103.06933)" />
    <path
       id="path14"
       d="M -2.07224,2.39104 C -1.69365,0.95639 -0.84999,0.27895 0,0 -0.84999,-0.27895 -1.69365,-0.95639 -2.07224,-2.39104"
       style="fill:none;stroke:#0000ff;stroke-width:0.3985;stroke-linecap:round;stroke-linejoin:round;stroke-miterlimit:10;stroke-dasharray:none;stroke-opacity:1"
       transform="matrix(0,-1.3333333,-1.3333333,0,38.521693,53.728693)" />
    <path
       id="path15"
       d="m 0.45732031,-3.0112969 0.421875,0.3867188 C 1.0666953,-2.7183281 1.3010703,-2.7534844 1.5823203,-2.7534844 h 7.78125 c 0.058594,0 0.09375,-0.011719 0.1054688,-0.023437 0,-0.011719 -0.023437,-0.046875 -0.070312,-0.1054687 L 8.7307578,-3.6089531 8.2034141,-3.0112969 H 5.1916953 v -0.9492187 h 3.2226563 c 0.058594,0 0.09375,-0.011719 0.1054687,-0.046875 0.011719,-0.023437 -0.011719,-0.058594 -0.046875,-0.09375 L 7.8284141,-4.6987969 7.4299766,-4.1948906 H 5.1916953 v -0.6210938 l 0.1992188,-0.1289062 c 0.1054687,-0.070312 0.1523437,-0.1054688 0.1523437,-0.1171875 0,-0.023437 -0.035156,-0.035156 -0.082031,-0.070312 l -0.28125,-0.1171875 0.2226562,-0.2695313 0.4101563,-0.515625 c 0.046875,-0.046875 0.1171875,-0.1289062 0.1992187,-0.2460937 h 0.7617188 l 0.1289062,0.2460937 c 0.070312,0.09375 0.140625,0.2929688 0.2109375,0.5976563 0.023437,0.1289062 0.046875,0.234375 0.035156,0.3398437 0,0.082031 0.011719,0.140625 0.023437,0.1523438 0.035156,0.1054687 0.1054687,0.1289062 0.2226562,0.1054687 0.09375,-0.035156 0.1757813,-0.1054687 0.2226563,-0.2109375 0.058594,-0.1054687 0.070312,-0.1875 0.070312,-0.2578125 0,-0.1054687 -0.035156,-0.2109375 -0.09375,-0.3046875 -0.082031,-0.082031 -0.3046875,-0.3046875 -0.6679688,-0.6679687 h 2.3320313 c 0.046875,0 0.082031,0 0.09375,-0.035156 0.011719,-0.023437 0,-0.046875 -0.023437,-0.082031 L 8.6487266,-6.9839531 8.2385703,-6.5034844 H 6.1877891 c 0.1640625,-0.234375 0.3164062,-0.4570312 0.4570312,-0.6445312 l 0.234375,-0.058594 c 0.046875,-0.011719 0.082031,-0.035156 0.09375,-0.070312 0.023437,-0.011719 -0.023437,-0.058594 -0.1171875,-0.1171875 l -0.6914062,-0.3984375 -0.082031,0.3164063 c -0.058594,0.2109375 -0.140625,0.46875 -0.2929687,0.7851562 -0.1523438,0.3046875 -0.3984375,0.7617188 -0.7617188,1.3710938 l -0.3984375,-0.1757813 0.058594,0.8320313 v 0.46875 H 2.5666953 l -0.75,-0.023437 0.421875,0.3984375 c 0.2578125,-0.09375 0.4921875,-0.140625 0.7148438,-0.140625 h 1.734375 v 0.9492187 z m 2.17968749,-4.7578125 -0.082031,0.2578125 c -0.058594,0.1523438 -0.140625,0.3515625 -0.28125,0.6210938 -0.1289063,0.2578125 -0.2929688,0.5390625 -0.4804688,0.8320312 -0.1757812,0.2929688 -0.3632812,0.5625 -0.5390625,0.8085938 l -0.42187499,0.5507812 c -0.0585938,0.058594 -0.1171875,0.1523438 -0.19921875,0.2695313 l 0.0820313,0.082031 c 0.52734374,-0.5039062 0.90234374,-0.8671875 1.08984374,-1.078125 0.1875,-0.2226562 0.4101563,-0.4921875 0.6562501,-0.8203125 h 0.6445312 l 0.140625,0.2578125 c 0.035156,0.046875 0.058594,0.140625 0.1054688,0.2460938 0.035156,0.1171875 0.070312,0.2460937 0.09375,0.3867187 0.035156,0.140625 0.046875,0.2578125 0.046875,0.3632813 0,0.1054687 0.011719,0.1757812 0.035156,0.1875 0.023437,0.011719 0.035156,0.023437 0.070312,0.023437 0.070312,0.011719 0.140625,-0.035156 0.2226563,-0.1171875 0.070312,-0.1054688 0.1289062,-0.1875 0.1640625,-0.2460938 0.035156,-0.070312 0.046875,-0.140625 0.035156,-0.2109375 0,-0.082031 -0.046875,-0.1640625 -0.1171875,-0.2578125 -0.070312,-0.082031 -0.28125,-0.2929687 -0.609375,-0.6328125 h 1.7929687 c 0.023437,0 0.046875,-0.011719 0.058594,-0.035156 0.011719,-0.011719 0,-0.046875 -0.046875,-0.070312 l -0.703125,-0.5976563 -0.375,0.46875 H 2.6370078 l 0.46875,-0.6210937 0.2578125,-0.046875 c 0.058594,-0.011719 0.1054688,-0.023437 0.1171875,-0.058594 0.011719,-0.023437 -0.035156,-0.070312 -0.140625,-0.140625 z m -1.6054687,6.1523438 0.4101562,0.3867187 c 0.2109375,-0.082031 0.4570313,-0.1289062 0.7148438,-0.1289062 h 0.9960937 c 0.3164063,0.3515625 0.515625,0.62109373 0.5976563,0.84374998 0.070312,0.19921875 0.1171875,0.3515625 0.140625,0.45703125 0,0.09375 0.023437,0.1640625 0.058594,0.19921875 0.011719,0.0234375 0.046875,0.046875 0.09375,0.0585938 0.1054685,0.0117187 0.222656,-0.046875 0.316406,-0.199218805 C 4.4416953,-0.10504687 4.4768516,-0.22223437 4.4651328,-0.33942187 4.4534141,-0.43317187 4.4065391,-0.56207812 4.2893516,-0.65582812 4.1838828,-0.77301562 3.8791953,-1.0073906 3.3870078,-1.3589531 h 3.046875 v 1.88671873 c 0,0.09375 -0.023437,0.17578125 -0.082031,0.234375 -0.035156,0.0703125 -0.1992188,0.0703125 -0.46875,0.0234375 -0.2695313,-0.046875 -0.5742188,-0.10546875 -0.9375,-0.1640625 l -0.023437,0.140625 C 5.379196,0.92620313 5.660446,1.0433906 5.7776335,1.1371406 c 0.1054688,0.09375 0.1640625,0.1640625 0.1757813,0.2578125 0.023437,0.082031 0.035156,0.1640625 0.035156,0.2460938 0.1523438,-0.023437 0.328125,-0.09375 0.5273438,-0.2109375 0.1992187,-0.1054688 0.328125,-0.2109375 0.375,-0.328125 0.058594,-0.10546877 0.09375,-0.21093752 0.09375,-0.30468752 V -1.3589531 h 2.15625 c 0.058594,0 0.1054687,0 0.1171875,-0.011719 0.011719,-0.011719 -0.023437,-0.058594 -0.1171875,-0.140625 L 8.4729453,-2.1089531 8.0745078,-1.5698906 H 6.9846641 v -0.515625 l 0.1992187,-0.082031 c 0.09375,-0.058594 0.1289063,-0.082031 0.1289063,-0.1054687 -0.011719,-0.011719 -0.035156,-0.023437 -0.09375,-0.058594 l -0.8320313,-0.3867187 0.046875,0.84375 v 0.3046875 H 1.9573203 Z m 9.3281249,-0.75 0.105469,0.070312 c 0.257812,-0.3515625 0.480469,-0.65625 0.632812,-0.890625 0.152344,-0.234375 0.363282,-0.5625 0.609375,-1.0078125 v 3.58593748 L 11.64873,1.5121401 c 0.246093,-0.082031 0.46875,-0.2109375 0.667968,-0.3515625 l -0.05859,-1.59374997 V -4.6167656 l 0.164062,-0.140625 c 0.07031,-0.058594 0.09375,-0.09375 0.09375,-0.1171875 l -0.128906,-0.058594 -0.292969,-0.1523437 c 0.210938,-0.4804688 0.457031,-1.1015625 0.761719,-1.8515625 l 0.257812,-0.1289063 c 0.04687,-0.023437 0.07031,-0.046875 0.07031,-0.070312 0,-0.023437 -0.02344,-0.046875 -0.07031,-0.070312 l -0.820312,-0.46875 -0.105469,0.5976563 c -0.05859,0.2460937 -0.128906,0.5507812 -0.234375,0.9257812 -0.105469,0.3632813 -0.234375,0.7734375 -0.398437,1.2070313 -0.164063,0.4570312 -0.316407,0.8554687 -0.457032,1.1835937 -0.164062,0.3398438 -0.398437,0.8085938 -0.738281,1.3945313 z m 2.0625,1.91015623 0.117188,0.12890625 0.679687,-0.57421875 c 0.1875,-0.15234373 0.410156,-0.37500003 0.691406,-0.66796873 0.257813,-0.3164063 0.46875,-0.5859375 0.632813,-0.8203125 0.164062,-0.234375 0.328125,-0.515625 0.503906,-0.8320313 0.1875,-0.3398437 0.304688,-0.5859375 0.375,-0.7265625 0.05859,-0.1523437 0.140625,-0.3632812 0.234375,-0.609375 v 3.3867188 h -1.253906 l -0.621094,-0.023437 0.410156,0.41015623 c 0.292969,-0.1171875 0.527344,-0.17578125 0.738282,-0.17578125 h 0.726562 v 0.65625 l -0.07031,1.93359372 c 0.328125,-0.09375 0.5625,-0.1875 0.714843,-0.2929687 l -0.07031,-1.21875002 v -1.078125 h 1.746094 c 0.05859,0 0.07031,0 0.07031,-0.0117188 0.01172,0 0,-0.0351562 -0.02344,-0.0703125 l -0.5625,-0.5859375 -0.457032,0.4570313 -0.773437,-0.011719 v -4.0078125 l 0.164062,-0.011719 0.175782,0.7851562 c 0.07031,0.3398438 0.199218,0.75 0.386718,1.21875 0.164063,0.46875 0.375,0.890625 0.609375,1.2421875 0.246094,0.3632813 0.421875,0.609375 0.527344,0.7617188 0.117188,0.1523437 0.269531,0.32812496 0.480469,0.56249996 l 0.140625,-0.17578125 c 0.128906,-0.17578125 0.398437,-0.22265621 0.808594,-0.15234375 l 0.03516,-0.10546876 c -0.269531,-0.140625 -0.492188,-0.2578125 -0.65625,-0.3632812 -0.140625,-0.1054688 -0.304688,-0.2226563 -0.457031,-0.3867188 -0.152344,-0.140625 -0.339844,-0.3515625 -0.550782,-0.609375 -0.199218,-0.28125 -0.398437,-0.5859375 -0.597656,-0.9257812 -0.210937,-0.3398438 -0.363281,-0.6796875 -0.457031,-1.03125 -0.105469,-0.3398438 -0.1875,-0.609375 -0.234375,-0.8203125 h 2.484375 c 0.03516,0 0.04687,-0.011719 0.05859,-0.011719 0.01172,-0.011719 0,-0.035156 -0.02344,-0.058594 l -0.773437,-0.7265625 -0.433594,0.5742187 h -1.6875 v -1.5585937 l 0.222656,-0.1523438 c 0.09375,-0.046875 0.117188,-0.082031 0.117188,-0.1171875 -0.01172,-0.023437 -0.04687,-0.035156 -0.09375,-0.070312 l -0.855469,-0.375 0.03516,1.0078125 v 1.265625 h -2.15625 l -0.714844,-0.023437 0.398438,0.3867188 c 0.339844,-0.082031 0.644531,-0.140625 0.914062,-0.140625 h 1.171875 l -0.222656,0.6914062 c -0.117187,0.3046875 -0.269531,0.703125 -0.503906,1.2070313 -0.222656,0.4804687 -0.492188,0.9492187 -0.84375,1.40625 -0.351563,0.46875 -0.773438,0.93749996 -1.277344,1.44140621 z m 0,0"
       style="fill:#0000ff;fill-opacity:1;fill-rule:nonzero;stroke:none"
       aria-label="等体"
       transform="matrix(1.3333333,0,0,1.3333333,7.2613333,50.476)" />
  </g>
</svg>
