<?xml version="1.0" encoding="UTF-8" standalone="no"?>
<!-- Created with Inkscape (http://www.inkscape.org/) -->

<svg
   version="1.1"
   id="svg1"
   width="308.54666"
   height="196.53333"
   viewBox="0 0 308.54666 196.53333"
   sodipodi:docname="22-23-2-大学物理E（上）-期末-选项1.10-D.pdf"
   xmlns:inkscape="http://www.inkscape.org/namespaces/inkscape"
   xmlns:sodipodi="http://sodipodi.sourceforge.net/DTD/sodipodi-0.dtd"
   xmlns="http://www.w3.org/2000/svg"
   xmlns:svg="http://www.w3.org/2000/svg">
  <defs
     id="defs1" />
  <sodipodi:namedview
     id="namedview1"
     pagecolor="#ffffff"
     bordercolor="#000000"
     borderopacity="0.25"
     inkscape:showpageshadow="2"
     inkscape:pageopacity="0.0"
     inkscape:pagecheckerboard="0"
     inkscape:deskcolor="#d1d1d1">
    <inkscape:page
       x="0"
       y="0"
       inkscape:label="1"
       id="page1"
       width="308.54666"
       height="196.53333"
       margin="0"
       bleed="0" />
  </sodipodi:namedview>
  <g
     id="g1"
     inkscape:groupmode="layer"
     inkscape:label="1">
    <path
       id="path1"
       d="M 0,-70.86703 V 70.46854"
       style="fill:none;stroke:#000000;stroke-width:0.3985;stroke-linecap:butt;stroke-linejoin:miter;stroke-miterlimit:10;stroke-dasharray:none;stroke-opacity:1"
       transform="matrix(1.3333333,0,0,-1.3333333,36.056,101.77867)" />
    <path
       id="path2"
       d="M -2.07224,2.39104 C -1.69365,0.95639 -0.84999,0.27895 0,0 -0.84999,-0.27895 -1.69365,-0.95639 -2.07224,-2.39104"
       style="fill:none;stroke:#000000;stroke-width:0.3985;stroke-linecap:round;stroke-linejoin:round;stroke-miterlimit:10;stroke-dasharray:none;stroke-opacity:1"
       transform="matrix(0,-1.3333333,-1.3333333,0,36.056,7.5549467)" />
    <path
       id="path3"
       d="m 3.328625,-3.0123906 c 0.058594,-0.2578125 0.2929688,-1.171875 0.984375,-1.171875 0.046875,0 0.2929688,0 0.5039063,0.1289062 -0.28125,0.046875 -0.4804688,0.3046875 -0.4804688,0.5390625 0,0.1640625 0.1054688,0.3515625 0.375,0.3515625 0.2226563,0 0.5390625,-0.1875 0.5390625,-0.5859375 0,-0.515625 -0.5859375,-0.65625 -0.9257812,-0.65625 -0.5742188,0 -0.9257813,0.5273438 -1.0429688,0.7617188 -0.2578125,-0.65625 -0.7851562,-0.7617188 -1.078125,-0.7617188 -1.0429687,0 -1.60546875,1.2890625 -1.60546875,1.5351563 0,0.1054687 0.10546875,0.1054687 0.1171875,0.1054687 0.0820313,0 0.1171875,-0.023437 0.12890625,-0.1171875 0.3398438,-1.0546875 0.9960938,-1.3007812 1.3359375,-1.3007812 0.1875,0 0.5390625,0.09375 0.5390625,0.6679687 0,0.3046875 -0.1640625,0.9726563 -0.5390625,2.3671875 -0.1523437,0.62109377 -0.5039062,1.04296877 -0.9492187,1.04296877 -0.058594,0 -0.28125005,0 -0.49218755,-0.12890625 0.24609375,-0.0585938 0.46875005,-0.26953125 0.46875005,-0.5390625 0,-0.26953122 -0.2226563,-0.35156252 -0.37500005,-0.35156252 -0.29296875,0 -0.5390625,0.25781252 -0.5390625,0.57421877 0,0.45703125 0.4921875,0.65625 0.93750005,0.65625 0.65625,0 1.0078125,-0.69140625 1.0429687,-0.75 0.1171875,0.36328125 0.4804688,0.75 1.078125,0.75 1.0195313,0 1.59375,-1.27734377 1.59375,-1.53515627 0,-0.09375 -0.09375,-0.09375 -0.1289062,-0.09375 -0.082031,0 -0.1054688,0.035156 -0.1289063,0.1054688 -0.328125,1.06640622 -0.9960937,1.31249997 -1.3242187,1.31249997 -0.3867188,0 -0.5390625,-0.328125 -0.5390625,-0.65625 0,-0.22265625 0.058594,-0.44531247 0.1640625,-0.87890627 z m 0,0"
       style="fill:#000000;fill-opacity:1;fill-rule:nonzero;stroke:none"
       aria-label="x"
       transform="matrix(1.3333333,0,0,1.3333333,40.749333,10.149333)" />
    <path
       id="path4"
       d="M 0,0 H 198.02943"
       style="fill:none;stroke:#000000;stroke-width:0.3985;stroke-linecap:butt;stroke-linejoin:miter;stroke-miterlimit:10;stroke-dasharray:none;stroke-opacity:1"
       transform="matrix(1.3333333,0,0,-1.3333333,36.056,101.77867)" />
    <path
       id="path5"
       d="M -2.07224,2.39104 C -1.69365,0.95639 -0.84999,0.27895 0,0 -0.84999,-0.27895 -1.69365,-0.95639 -2.07224,-2.39104"
       style="fill:none;stroke:#000000;stroke-width:0.3985;stroke-linecap:round;stroke-linejoin:round;stroke-miterlimit:10;stroke-dasharray:none;stroke-opacity:1"
       transform="matrix(1.3333333,0,0,-1.3333333,300.36091,101.77867)" />
    <path
       id="path6"
       d="m 4.8404531,-3.7963203 c 0.046875,-0.140625 0.046875,-0.1523438 0.046875,-0.2226563 0,-0.1875 -0.140625,-0.2695312 -0.2929687,-0.2695312 -0.1054688,0 -0.2578125,0.058594 -0.3515625,0.1992187 -0.023437,0.058594 -0.09375,0.3632813 -0.140625,0.5390625 -0.070312,0.2578125 -0.140625,0.5273438 -0.1992188,0.796875 l -0.4453125,1.79296879 c -0.035156,0.15234375 -0.46875,0.85546875 -1.125,0.85546875 -0.5039062,0 -0.6210937,-0.4453125 -0.6210937,-0.80859375 0,-0.45703129 0.1757812,-1.07812499 0.515625,-1.95703129 0.1523437,-0.4101562 0.1992187,-0.515625 0.1992187,-0.7148437 0,-0.4453125 -0.328125,-0.8203125 -0.8203125,-0.8203125 -0.94921872,0 -1.31249997,1.453125 -1.31249997,1.5351562 0,0.1054688 0.09375,0.1054688 0.1171875,0.1054688 0.09375,0 0.10546875,-0.023437 0.15234375,-0.1875 0.26953125,-0.9375 0.66796872,-1.2304688 1.00781252,-1.2304688 0.082031,0 0.2578125,0 0.2578125,0.3164063 0,0.2460937 -0.1054688,0.515625 -0.1757813,0.703125 -0.3984375,1.0546875 -0.5742187,1.6171875 -0.5742187,2.0859375 0,0.89062499 0.6210937,1.18359374 1.21875,1.18359374 0.3867187,0 0.7265625,-0.1640625 0.9960937,-0.4453125 -0.1289062,0.515625 -0.2460937,1.0078125 -0.6445312,1.53515626 -0.2578125,0.3398437 -0.6328125,0.6328125 -1.0898438,0.6328125 -0.140625,0 -0.59765622,-0.035156 -0.76171872,-0.421875 0.1640625,0 0.29296872,0 0.43359372,-0.1171875 0.09375,-0.09375 0.1992188,-0.2226563 0.1992188,-0.41015626 0,-0.31640625 -0.2695313,-0.3515625 -0.375,-0.3515625 -0.22265627,0 -0.55078127,0.1640625 -0.55078127,0.64453126 0,0.5039062 0.43359375,0.8671875 1.05468747,0.8671875 1.0195313,0 2.0507813,-0.9023438 2.3320313,-2.02734376 z m 0,0"
       style="fill:#000000;fill-opacity:1;fill-rule:nonzero;stroke:none"
       aria-label="y"
       transform="matrix(1.3333333,0,0,1.3333333,297.132,112.19067)" />
    <g
       id="g6"
       aria-label="2A"
       transform="matrix(1.3333333,0,0,1.3333333,14.758667,30.725333)">
      <path
         id="path7"
         d="M 1.2649844,-0.76079687 2.3196719,-1.7920469 c 1.5585937,-1.3710937 2.15625,-1.9101562 2.15625,-2.90625 0,-1.1367187 -0.9023438,-1.9335937 -2.1210938,-1.9335937 -1.125,0 -1.85156247,0.9140625 -1.85156247,1.8046875 0,0.5507812 0.4921875,0.5507812 0.52734377,0.5507812 0.1640625,0 0.515625,-0.1171875 0.515625,-0.5273437 0,-0.2578125 -0.1875,-0.515625 -0.5273438,-0.515625 -0.0820312,0 -0.10546872,0 -0.12890622,0.011719 0.22265622,-0.6445312 0.76171872,-1.0195312 1.33593752,-1.0195312 0.9140625,0 1.3359375,0.8085937 1.3359375,1.6289062 0,0.796875 -0.4921875,1.5820313 -1.0429688,2.203125 L 0.60873438,-0.36235937 C 0.50326563,-0.25689062 0.50326563,-0.23345312 0.50326563,9.21875e-4 H 4.1946719 L 4.4759219,-1.7334531 H 4.2181094 c -0.046875,0.3046875 -0.1171875,0.73828123 -0.2109375,0.89062498 -0.070313,0.0820313 -0.7265625,0.0820313 -0.9492188,0.0820313 z m 0,0"
         style="fill:#000000;fill-opacity:1;fill-rule:nonzero;stroke:none" />
      <path
         id="path8"
         d="m 6.7640078,-1.1475156 c -0.3984375,0.66796873 -0.7851562,0.80859373 -1.21875,0.84374998 -0.1289062,0 -0.2109375,0 -0.2109375,0.19921875 0,0.05859375 0.046875,0.105468745 0.1289063,0.105468745 0.2695312,0 0.5742187,-0.035156245 0.8554687,-0.035156245 0.328125,0 0.6796875,0.035156245 0.9960938,0.035156245 0.058594,0 0.1875,0 0.1875,-0.187499995 0,-0.1171875 -0.09375,-0.1171875 -0.1640625,-0.1171875 -0.2226563,-0.0234375 -0.4570313,-0.10546875 -0.4570313,-0.3515625 0,-0.1171875 0.058594,-0.234375 0.1289063,-0.37499998 l 0.7617187,-1.265625 h 2.4960937 c 0.02344,0.1992187 0.164063,1.55859373 0.164063,1.66406248 0,0.29296875 -0.5156254,0.328125 -0.7148442,0.328125 -0.140625,0 -0.2460937,0 -0.2460937,0.19921875 0,0.105468745 0.1289062,0.105468745 0.140625,0.105468745 0.4101559,0 0.8437499,-0.035156245 1.2539059,-0.035156245 0.246094,0 0.867188,0.035156245 1.125,0.035156245 0.05859,0 0.175782,0 0.175782,-0.199218745 0,-0.10546875 -0.105469,-0.10546875 -0.234375,-0.10546875 -0.609375,0 -0.609375,-0.0703125 -0.644532,-0.36328125 L 10.67807,-6.8897031 c -0.01172,-0.1992188 -0.01172,-0.2460938 -0.1875,-0.2460938 -0.164062,0 -0.199218,0.070312 -0.257812,0.1757813 z m 1.1953125,-1.4648438 1.96875,-3.28125 0.3164067,3.28125 z m 0,0"
         style="fill:#000000;fill-opacity:1;fill-rule:nonzero;stroke:none" />
    </g>
    <path
       id="path9"
       d="m 1.7800781,-1.1478594 c -0.3984375,0.66796878 -0.78515622,0.80859378 -1.21874997,0.84375003 -0.12890625,0 -0.2109375,0 -0.2109375,0.19921875 0,0.05859375 0.046875,0.105468745 0.12890625,0.105468745 0.26953125,0 0.57421872,-0.035156245 0.85546872,-0.035156245 0.328125,0 0.6796875,0.035156245 0.9960938,0.035156245 0.058594,0 0.1875,0 0.1875,-0.187499995 0,-0.1171875 -0.09375,-0.1171875 -0.1640625,-0.1171875 -0.2226563,-0.0234375 -0.4570313,-0.10546875 -0.4570313,-0.3515625 0,-0.1171875 0.058594,-0.234375 0.1289063,-0.37500003 l 0.7617187,-1.265625 h 2.4960938 c 0.023437,0.1992188 0.1640625,1.55859378 0.1640625,1.66406253 0,0.29296875 -0.515625,0.328125 -0.7148438,0.328125 -0.140625,0 -0.2460937,0 -0.2460937,0.19921875 0,0.105468745 0.1289062,0.105468745 0.140625,0.105468745 0.4101562,0 0.84375,-0.035156245 1.2539062,-0.035156245 0.2460938,0 0.8671875,0.035156245 1.125,0.035156245 0.058594,0 0.1757813,0 0.1757813,-0.199218745 0,-0.10546875 -0.1054688,-0.10546875 -0.234375,-0.10546875 -0.609375,0 -0.609375,-0.0703125 -0.6445313,-0.36328125 L 5.6941406,-6.8900469 c -0.011719,-0.1992187 -0.011719,-0.2460937 -0.1875,-0.2460937 -0.1640625,0 -0.1992187,0.070312 -0.2578125,0.1757812 z m 1.1953125,-1.4648437 1.96875,-3.28125 0.3164063,3.28125 z m 0,0"
       style="fill:#000000;fill-opacity:1;fill-rule:nonzero;stroke:none"
       aria-label="A"
       transform="matrix(1.3333333,0,0,1.3333333,21.4,68.522667)" />
    <path
       id="path10"
       d="m 4.5830234,-3.1875547 c 0,-0.796875 -0.046875,-1.59375 -0.3984375,-2.3320312 -0.4570312,-0.9609375 -1.2773437,-1.1132813 -1.6875,-1.1132813 -0.5976562,0 -1.3359375,0.2578125 -1.73437496,1.1835938 -0.328125,0.6914062 -0.375,1.4648437 -0.375,2.2617187 0,0.75 0.046875,1.640625 0.4453125,2.40234376 0.43359376,0.80859375 1.16015626,1.0078125 1.65234376,1.0078125 0.5390625,0 1.2890625,-0.2109375 1.734375,-1.16015625 C 4.5361484,-1.6289609 4.5830234,-2.4023984 4.5830234,-3.1875547 Z M 2.4853672,-5.46875e-5 c -0.3867188,0 -0.984375,-0.2460937525 -1.1601563,-1.2070312125 -0.1054687,-0.5976563 -0.1054687,-1.5117188 -0.1054687,-2.0976563 0,-0.6445312 0,-1.3007812 0.082031,-1.8398437 0.1875,-1.1835938 0.9257813,-1.265625 1.1835938,-1.265625 0.328125,0 0.984375,0.1757812 1.171875,1.1601562 0.09375,0.5625 0.09375,1.3125 0.09375,1.9453125 0,0.75 0,1.4179688 -0.1054688,2.0625 C 3.4931797,-0.30474219 2.9306797,-5.46875e-5 2.4853672,-5.46875e-5 Z m 0,0"
       style="fill:#000000;fill-opacity:1;fill-rule:nonzero;stroke:none"
       aria-label="0"
       transform="matrix(1.3333333,0,0,1.3333333,24.721333,106.05867)" />
    <g
       id="g10"
       aria-label="−A"
       transform="matrix(1.3333333,0,0,1.3333333,11.068,143.55867)">
      <path
         id="path11"
         d="m 6.5613047,-2.2969297 c 0.1757812,0 0.3515625,0 0.3515625,-0.1992187 0,-0.1992188 -0.1757813,-0.1992188 -0.3515625,-0.1992188 h -5.390625 c -0.1640625,0 -0.33984376,0 -0.33984376,0.1992188 0,0.1992187 0.17578126,0.1992187 0.33984376,0.1992187 z m 0,0"
         style="fill:#000000;fill-opacity:1;fill-rule:nonzero;stroke:none" />
      <path
         id="path12"
         d="m 9.5290781,-1.1484922 c -0.3984375,0.66796876 -0.7851562,0.80859376 -1.21875,0.84375001 -0.1289062,0 -0.2109375,0 -0.2109375,0.19921875 0,0.05859375 0.046875,0.1054687525 0.1289063,0.1054687525 0.2695312,0 0.5742187,-0.0351562525 0.8554687,-0.0351562525 0.328125,0 0.6796875,0.0351562525 0.9960934,0.0351562525 0.05859,0 0.1875,0 0.1875,-0.1875000025 0,-0.1171875 -0.09375,-0.1171875 -0.164062,-0.1171875 -0.2226564,-0.0234375 -0.4570314,-0.10546875 -0.4570314,-0.3515625 0,-0.1171875 0.058594,-0.234375 0.1289063,-0.37500001 l 0.7617191,-1.265625 h 2.496093 c 0.02344,0.1992188 0.164063,1.55859376 0.164063,1.66406251 0,0.29296875 -0.515625,0.328125 -0.714844,0.328125 -0.140625,0 -0.246094,0 -0.246094,0.19921875 0,0.1054687525 0.128907,0.1054687525 0.140625,0.1054687525 0.410157,0 0.84375,-0.0351562525 1.253907,-0.0351562525 0.246093,0 0.867187,0.0351562525 1.125,0.0351562525 0.05859,0 0.175781,0 0.175781,-0.1992187525 0,-0.10546875 -0.105469,-0.10546875 -0.234375,-0.10546875 -0.609375,0 -0.609375,-0.0703125 -0.644531,-0.36328125 L 13.443141,-6.8906797 c -0.01172,-0.1992187 -0.01172,-0.2460937 -0.1875,-0.2460937 -0.164063,0 -0.199219,0.070312 -0.257813,0.1757812 z m 1.1953129,-1.4648437 1.96875,-3.28125 0.316406,3.28125 z m 0,0"
         style="fill:#000000;fill-opacity:1;fill-rule:nonzero;stroke:none" />
    </g>
    <g
       id="g12"
       aria-label="−2A"
       transform="matrix(1.3333333,0,0,1.3333333,4.4266667,181.356)">
      <path
         id="path13"
         d="m 6.5618359,-2.2972734 c 0.1757813,0 0.3515625,0 0.3515625,-0.1992188 0,-0.1992187 -0.1757812,-0.1992187 -0.3515625,-0.1992187 h -5.390625 c -0.1640625,0 -0.33984371,0 -0.33984371,0.1992187 0,0.1992188 0.17578121,0.1992188 0.33984371,0.1992188 z m 0,0"
         style="fill:#000000;fill-opacity:1;fill-rule:nonzero;stroke:none" />
      <path
         id="path14"
         d="M 9.0139844,-0.76211719 10.068672,-1.7933672 c 1.558594,-1.3710937 2.15625,-1.9101562 2.15625,-2.90625 0,-1.1367187 -0.902344,-1.9335937 -2.121094,-1.9335937 -1.1249999,0 -1.8515624,0.9140625 -1.8515624,1.8046875 0,0.5507812 0.4921875,0.5507812 0.5273438,0.5507812 0.1640625,0 0.515625,-0.1171875 0.515625,-0.5273437 0,-0.2578125 -0.1875,-0.515625 -0.5273438,-0.515625 -0.082031,0 -0.1054687,0 -0.1289062,0.011719 0.2226562,-0.6445312 0.7617187,-1.0195312 1.3359375,-1.0195312 0.9140621,0 1.3359371,0.8085937 1.3359371,1.6289062 0,0.796875 -0.492187,1.5820313 -1.042968,2.203125 L 8.3577344,-0.36367969 C 8.2522656,-0.25821094 8.2522656,-0.23477344 8.2522656,-3.984375e-4 H 11.943672 L 12.224922,-1.7347734 h -0.257813 c -0.04687,0.3046875 -0.117187,0.73828121 -0.210937,0.89062496 -0.07031,0.0820313 -0.726563,0.0820313 -0.949219,0.0820313 z m 0,0"
         style="fill:#000000;fill-opacity:1;fill-rule:nonzero;stroke:none" />
      <path
         id="path15"
         d="m 14.510078,-1.1488359 c -0.398437,0.66796871 -0.785156,0.80859371 -1.21875,0.84374996 -0.128906,0 -0.210937,0 -0.210937,0.19921875 0,0.05859375 0.04687,0.1054687525 0.128906,0.1054687525 0.269531,0 0.574219,-0.0351562525 0.855469,-0.0351562525 0.328125,0 0.679687,0.0351562525 0.996093,0.0351562525 0.05859,0 0.1875,0 0.1875,-0.1875000025 0,-0.1171875 -0.09375,-0.1171875 -0.164062,-0.1171875 -0.222656,-0.0234375 -0.457031,-0.10546875 -0.457031,-0.3515625 0,-0.1171875 0.05859,-0.234375 0.128906,-0.37499996 l 0.761719,-1.265625 h 2.496093 c 0.02344,0.1992187 0.164063,1.55859371 0.164063,1.66406246 0,0.29296875 -0.515625,0.328125 -0.714844,0.328125 -0.140625,0 -0.246094,0 -0.246094,0.19921875 0,0.1054687525 0.128907,0.1054687525 0.140625,0.1054687525 0.410157,0 0.84375,-0.0351562525 1.253907,-0.0351562525 0.246093,0 0.867187,0.0351562525 1.125,0.0351562525 0.05859,0 0.175781,0 0.175781,-0.1992187525 0,-0.10546875 -0.105469,-0.10546875 -0.234375,-0.10546875 -0.609375,0 -0.609375,-0.0703125 -0.644531,-0.36328125 L 18.424141,-6.8910234 c -0.01172,-0.1992188 -0.01172,-0.2460938 -0.1875,-0.2460938 -0.164063,0 -0.199219,0.070312 -0.257813,0.1757813 z m 1.195313,-1.4648438 1.96875,-3.28125 0.316406,3.28125 z m 0,0"
         style="fill:#000000;fill-opacity:1;fill-rule:nonzero;stroke:none" />
    </g>
    <path
       id="path16"
       d="m 0,-56.69385 7.67645,3.25485 7.67647,9.37851 7.67647,14.43488 7.67647,17.83139 7.67648,19.18196 7.67646,18.33962 7.67648,15.38539 7.67646,10.67178 7.67649,4.72873 7.67647,-1.74854 7.67646,-8.03332 7.67647,-13.39029 7.67647,-17.21611 7.67648,-19.063 7.67647,-18.72782 7.67647,-16.24397 7.67646,-11.89481 7.67647,-6.18312 7.67647,0.23897 7.67647,6.63298 7.67647,12.26677 7.67648,16.49269 7.67646,18.82731 7.67648,19.00245"
       style="fill:none;stroke:#0000ff;stroke-width:0.3985;stroke-linecap:butt;stroke-linejoin:miter;stroke-miterlimit:10;stroke-dasharray:none;stroke-opacity:1"
       transform="matrix(1.3333333,0,0,-1.3333333,36.056,101.77867)" />
    <g
       id="g16"
       aria-label="1m"
       transform="matrix(1.3333333,0,0,1.3333333,120.58533,115.032)">
      <path
         id="path17"
         d="m 2.9301406,-6.3755625 c 0,-0.234375 0,-0.2578125 -0.234375,-0.2578125 -0.609375,0.6328125 -1.4882812,0.6328125 -1.80468748,0.6328125 v 0.3164063 c 0.19921878,0 0.78515628,0 1.30078128,-0.2578125 v 5.15624995 c 0,0.3515625 -0.035156,0.48046875 -0.9257813,0.48046875 H 0.94967187 V -5.625e-4 C 1.3012344,-0.03571875 2.1567031,-0.03571875 2.5551406,-0.03571875 c 0.3984375,0 1.265625,0 1.6171875,0.03515625 V -0.30525 H 3.8559219 c -0.9023438,0 -0.9257813,-0.1171875 -0.9257813,-0.48046875 z m 0,0"
         style="fill:#000000;fill-opacity:1;fill-rule:nonzero;stroke:none" />
      <path
         id="path18"
         d="M 14.739711,-5.625e-4 V -0.30525 c -0.515625,0 -0.761719,0 -0.773438,-0.3046875 V -2.508375 c 0,-0.8554687 0,-1.171875 -0.316406,-1.5234375 -0.128906,-0.1757812 -0.46875,-0.375 -1.042969,-0.375 -0.832031,0 -1.277343,0.5976563 -1.441406,0.984375 -0.140625,-0.8671875 -0.878906,-0.984375 -1.3242186,-0.984375 -0.7265625,0 -1.1953125,0.4335938 -1.4765625,1.0546875 v -1.0546875 l -1.40625,0.1171875 v 0.3046875 c 0.703125,0 0.7851563,0.070312 0.7851563,0.5625 v 2.66015625 c 0,0.45703125 -0.1171875,0.45703125 -0.7851563,0.45703125 v 0.3046875 l 1.125,-0.03515625 1.1132813,0.03515625 V -0.30525 c -0.65625,0 -0.7734375,0 -0.7734375,-0.45703125 V -2.5904062 c 0,-1.03125 0.7148437,-1.59375 1.3476562,-1.59375 0.6210941,0 0.7382811,0.5390625 0.7382811,1.1015625 v 2.32031245 c 0,0.45703125 -0.117187,0.45703125 -0.7734373,0.45703125 V -5.625e-4 L 10.860805,-0.03571875 11.974086,-5.625e-4 V -0.30525 c -0.667969,0 -0.785156,0 -0.785156,-0.45703125 V -2.5904062 c 0,-1.03125 0.714843,-1.59375 1.347656,-1.59375 0.632812,0 0.738281,0.5390625 0.738281,1.1015625 v 2.32031245 c 0,0.45703125 -0.105469,0.45703125 -0.773437,0.45703125 v 0.3046875 l 1.125,-0.03515625 z m 0,0"
         style="fill:#000000;fill-opacity:1;fill-rule:nonzero;stroke:none" />
    </g>
    <g
       id="g18"
       aria-label="2m"
       transform="matrix(1.3333333,0,0,1.3333333,215.07467,97.085333)">
      <path
         id="path19"
         d="M 1.2652891,-0.76126562 2.3199766,-1.7925156 c 1.5585937,-1.3710938 2.15625,-1.9101563 2.15625,-2.90625 0,-1.1367188 -0.9023438,-1.9335938 -2.1210938,-1.9335938 -1.125,0 -1.85156249,0.9140625 -1.85156249,1.8046875 0,0.5507813 0.4921875,0.5507813 0.52734379,0.5507813 0.1640625,0 0.515625,-0.1171875 0.515625,-0.5273438 0,-0.2578125 -0.1875,-0.515625 -0.5273438,-0.515625 -0.0820312,0 -0.10546874,0 -0.12890624,0.011719 0.22265624,-0.6445313 0.76171874,-1.0195313 1.33593754,-1.0195313 0.9140625,0 1.3359375,0.8085938 1.3359375,1.6289063 0,0.796875 -0.4921875,1.5820312 -1.0429688,2.203125 L 0.60903906,-0.36282812 C 0.50357031,-0.25735937 0.50357031,-0.23392187 0.50357031,4.53125e-4 H 4.1949766 L 4.4762266,-1.7339219 H 4.2184141 c -0.046875,0.3046875 -0.1171875,0.73828128 -0.2109375,0.89062503 -0.070313,0.0820313 -0.7265625,0.0820313 -0.9492188,0.0820313 z m 0,0"
         style="fill:#000000;fill-opacity:1;fill-rule:nonzero;stroke:none" />
      <path
         id="path20"
         d="M 14.738922,4.53125e-4 V -0.30423437 c -0.515625,0 -0.761719,0 -0.773438,-0.3046875 V -2.5073594 c 0,-0.8554687 0,-1.171875 -0.316406,-1.5234375 -0.128906,-0.1757812 -0.46875,-0.375 -1.042969,-0.375 -0.832031,0 -1.277343,0.5976563 -1.441406,0.984375 -0.140625,-0.8671875 -0.878906,-0.984375 -1.3242186,-0.984375 -0.7265625,0 -1.1953125,0.4335938 -1.4765625,1.0546875 v -1.0546875 l -1.40625,0.1171875 v 0.3046875 c 0.703125,0 0.7851562,0.070312 0.7851562,0.5625 v 2.66015628 c 0,0.45703125 -0.1171875,0.45703125 -0.7851562,0.45703125 V 4.53125e-4 l 1.125,-0.035156245 1.1132812,0.035156245 V -0.30423437 c -0.65625,0 -0.7734375,0 -0.7734375,-0.45703125 V -2.5893906 c 0,-1.03125 0.7148438,-1.59375 1.3476563,-1.59375 0.6210941,0 0.7382811,0.5390625 0.7382811,1.1015625 v 2.32031248 c 0,0.45703125 -0.117187,0.45703125 -0.7734374,0.45703125 V 4.53125e-4 L 10.860016,-0.03470312 11.973297,4.53125e-4 V -0.30423437 c -0.667969,0 -0.785156,0 -0.785156,-0.45703125 V -2.5893906 c 0,-1.03125 0.714843,-1.59375 1.347656,-1.59375 0.632812,0 0.738281,0.5390625 0.738281,1.1015625 v 2.32031248 c 0,0.45703125 -0.105469,0.45703125 -0.773437,0.45703125 V 4.53125e-4 l 1.125,-0.035156245 z m 0,0"
         style="fill:#000000;fill-opacity:1;fill-rule:nonzero;stroke:none" />
    </g>
  </g>
</svg>
