<?xml version="1.0" encoding="UTF-8" standalone="no"?>
<!-- Created with Inkscape (http://www.inkscape.org/) -->

<svg
   version="1.1"
   id="svg1"
   width="123.89333"
   height="121.26667"
   viewBox="0 0 123.89333 121.26667"
   sodipodi:docname="22-23-2-大学物理E（上）-期末-选项1.5-D.pdf"
   xmlns:inkscape="http://www.inkscape.org/namespaces/inkscape"
   xmlns:sodipodi="http://sodipodi.sourceforge.net/DTD/sodipodi-0.dtd"
   xmlns="http://www.w3.org/2000/svg"
   xmlns:svg="http://www.w3.org/2000/svg">
  <defs
     id="defs1" />
  <sodipodi:namedview
     id="namedview1"
     pagecolor="#ffffff"
     bordercolor="#000000"
     borderopacity="0.25"
     inkscape:showpageshadow="2"
     inkscape:pageopacity="0.0"
     inkscape:pagecheckerboard="0"
     inkscape:deskcolor="#d1d1d1">
    <inkscape:page
       x="0"
       y="0"
       inkscape:label="1"
       id="page1"
       width="123.89333"
       height="121.26667"
       margin="0"
       bleed="0" />
  </sodipodi:namedview>
  <g
     id="g1"
     inkscape:groupmode="layer"
     inkscape:label="1">
    <path
       id="path1"
       d="M 425.20227,70.46854 V 0 h 70.46855"
       style="fill:none;stroke:#000000;stroke-width:0.3985;stroke-linecap:butt;stroke-linejoin:miter;stroke-miterlimit:10;stroke-dasharray:none;stroke-opacity:1"
       transform="matrix(1.3333333,0,0,-1.3333333,-547.30667,103.06933)" />
    <path
       id="path2"
       d="M -2.07224,2.39104 C -1.69365,0.95639 -0.84999,0.27895 0,0 -0.84999,-0.27895 -1.69365,-0.95639 -2.07224,-2.39104"
       style="fill:none;stroke:#000000;stroke-width:0.3985;stroke-linecap:round;stroke-linejoin:round;stroke-miterlimit:10;stroke-dasharray:none;stroke-opacity:1"
       transform="matrix(0,-1.3333333,-1.3333333,0,19.629693,8.8456133)" />
    <path
       id="path3"
       d="M -2.07224,2.39104 C -1.69365,0.95639 -0.84999,0.27895 0,0 -0.84999,-0.27895 -1.69365,-0.95639 -2.07224,-2.39104"
       style="fill:none;stroke:#000000;stroke-width:0.3985;stroke-linecap:round;stroke-linejoin:round;stroke-miterlimit:10;stroke-dasharray:none;stroke-opacity:1"
       transform="matrix(1.3333333,0,0,-1.3333333,113.85343,103.06933)" />
    <path
       id="path4"
       d="m 0.44574219,1.2190781 c -0.0820313,0.3398438 -0.09375,0.4101563 -0.5390625,0.4101563 -0.1171875,0 -0.22265625,0 -0.22265625,0.1875 0,0.082031 0.046875,0.1171875 0.12890625,0.1171875 0.26953125,0 0.55078125,-0.035156 0.83203125,-0.035156 0.328125,0 0.66796876,0.035156 0.98437496,0.035156 0.058594,0 0.1875,0 0.1875,-0.1992188 0,-0.1054687 -0.1054687,-0.1054687 -0.2460937,-0.1054687 -0.4921875,0 -0.4921875,-0.070312 -0.4921875,-0.1640625 0,-0.1171875 0.421875,-1.74609377 0.4804687,-1.99218752 0.140625,0.29296875 0.4101563,0.6328125 0.9257813,0.6328125 1.1484375,0 2.4023437,-1.45312498 2.4023437,-2.91796878 0,-0.9375 -0.5742187,-1.59375 -1.3359375,-1.59375 -0.4921875,0 -0.9726562,0.3632813 -1.3007812,0.75 -0.09375,-0.5390625 -0.5273438,-0.75 -0.890625,-0.75 -0.45703126,0 -0.65625001,0.3867188 -0.73828126,0.5742188 -0.1875,0.3398437 -0.31640625,0.9375 -0.31640625,0.9609375 0,0.1054687 0.10546875,0.1054687 0.12890625,0.1054687 0.09375,0 0.10546875,-0.011719 0.1640625,-0.234375 0.1640625,-0.703125 0.36328125,-1.1835937 0.72656246,-1.1835937 0.1757813,0 0.3046875,0.082031 0.3046875,0.4570312 0,0.234375 -0.023437,0.3398438 -0.070312,0.5039063 z M 2.2035547,-3.1051406 c 0.070312,-0.2695313 0.3398437,-0.5507813 0.515625,-0.703125 0.3515625,-0.3046875 0.6328125,-0.375 0.8085937,-0.375 0.3984375,0 0.6328125,0.3515625 0.6328125,0.9375 0,0.5859375 -0.328125,1.734375 -0.5039062,2.109375 -0.3398438,0.70312498 -0.8203125,1.03124998 -1.1835938,1.03124998 -0.65625,0 -0.7851562,-0.83203125 -0.7851562,-0.890625 0,-0.0234375 0,-0.0351563 0.023437,-0.16406248 z m 0,0"
       style="fill:#000000;fill-opacity:1;fill-rule:nonzero;stroke:none"
       aria-label="p"
       transform="matrix(1.3333333,0,0,1.3333333,8.2533333,10.148)" />
    <path
       id="path5"
       d="m 7.3702891,-4.3477734 c 0,-1.59375 -1.0546875,-2.671875 -2.5429688,-2.671875 -2.1445312,0 -4.33593749,2.2617187 -4.33593749,4.5820312 0,1.65234376 1.11328129,2.66015626 2.54296879,2.66015626 2.109375,0 4.3359375,-2.17968746 4.3359375,-4.57031246 z m -4.2773438,4.31249996 c -0.984375,0 -1.6757812,-0.80859375 -1.6757812,-2.12109376 0,-0.4453125 0.140625,-1.8984375 0.9023437,-3.0585937 0.6914063,-1.0429688 1.6640625,-1.5585938 2.4492188,-1.5585938 0.8203125,0 1.7109375,0.5625 1.7109375,2.0390625 0,0.7148438 -0.2695313,2.2734375 -1.2539063,3.5039063 -0.4804687,0.59765621 -1.2890625,1.19531246 -2.1328125,1.19531246 z m 0,0"
       style="fill:#000000;fill-opacity:1;fill-rule:nonzero;stroke:none"
       aria-label="O"
       transform="matrix(1.3333333,0,0,1.3333333,4.4346667,116.84)" />
    <path
       id="path6"
       d="m 6.2579609,-5.6719922 c 0.4804688,-0.7734375 0.9023438,-0.8085937 1.2773438,-0.8203125 0.1171875,-0.011719 0.1289062,-0.1875 0.1289062,-0.1875 0,-0.082031 -0.058594,-0.1289062 -0.1289062,-0.1289062 -0.2578125,0 -0.5507813,0.035156 -0.8203125,0.035156 -0.328125,0 -0.6679688,-0.035156 -0.984375,-0.035156 -0.058594,0 -0.1875,0 -0.1875,0.1992187 0,0.1054688 0.082031,0.1171875 0.1523437,0.1171875 0.2695313,0.011719 0.4570313,0.1171875 0.4570313,0.328125 0,0.1523438 -0.140625,0.3632813 -0.140625,0.375 L 2.9532734,-0.92589844 2.2735859,-6.1993359 c 0,-0.1640625 0.2226563,-0.2929688 0.6796875,-0.2929688 0.140625,0 0.2578125,0 0.2578125,-0.1992187 0,-0.09375 -0.082031,-0.1171875 -0.140625,-0.1171875 -0.3984375,0 -0.8320312,0.035156 -1.2421875,0.035156 -0.1757812,0 -0.3632812,-0.011719 -0.5390625,-0.011719 -0.1875,0 -0.37499996,-0.023437 -0.53906246,-0.023437 -0.0703125,0 -0.1875,0 -0.1875,0.1992187 0,0.1171875 0.0820313,0.1171875 0.24609375,0.1171875 0.55078121,0 0.56250001,0.082031 0.59765621,0.3398438 l 0.7851563,6.14062496 c 0.035156,0.19921875 0.070312,0.234375 0.1992187,0.234375 0.1640625,0 0.1992188,-0.0585938 0.28125,-0.1875 z m 0,0"
       style="fill:#000000;fill-opacity:1;fill-rule:nonzero;stroke:none"
       aria-label="V"
       transform="matrix(1.3333333,0,0,1.3333333,108.76933,116.84)" />
    <path
       id="path7"
       d="m 439.37546,56.69492 1.77124,-6.29668 1.77125,-5.03906 1.77125,-4.12317 1.77123,-3.43651 1.77124,-2.90775 1.77124,-2.49034 1.77126,-2.15944 1.77124,-1.89019 1.77124,-1.66852 1.77124,-1.48252 1.77124,-1.32682 1.77126,-1.19271 1.77124,-1.07811 1.77124,-0.98295 1.77123,-0.89534 1.77125,-0.82291 1.77125,-0.75586 1.77124,-0.69746 1.77124,-0.64664 1.77126,-0.60017 1.77124,-0.55905 1.77125,-0.52228 1.77124,-0.48769 1.77124,-0.45633"
       style="fill:none;stroke:#0000ff;stroke-width:0.3985;stroke-linecap:butt;stroke-linejoin:miter;stroke-miterlimit:10;stroke-dasharray:none;stroke-opacity:1"
       transform="matrix(1.3333333,0,0,-1.3333333,-547.30667,103.06933)" />
    <path
       id="path8"
       d="M -2.07224,2.39104 C -1.69365,0.95639 -0.84999,0.27895 0,0 -0.84999,-0.27895 -1.69365,-0.95639 -2.07224,-2.39104"
       style="fill:none;stroke:#0000ff;stroke-width:0.3985;stroke-linecap:round;stroke-linejoin:round;stroke-miterlimit:10;stroke-dasharray:none;stroke-opacity:1"
       transform="matrix(0.97048,0.9142,0.9142,-0.97048,57.229,65.086547)" />
    <path
       id="path9"
       d="m 2.4728047,-7.4655234 -0.09375,0.3164062 c -0.023437,0.140625 -0.2226563,0.5390625 -0.5859375,1.2070313 -0.3515625,0.6796875 -0.609375,1.125 -0.7617188,1.3242187 -0.16406246,0.1992188 -0.28124996,0.328125 -0.35156246,0.3867188 -0.0820313,0.046875 -0.1875,0.1054687 -0.31640625,0.1523437 l 0.328125,0.6210938 0.24609375,-0.1171875 C 1.1251484,-3.6803672 1.6524922,-3.7975547 2.5196797,-3.9381797 c -0.2929688,0.515625 -0.5507813,0.9257813 -0.7617188,1.2304688 -0.2109375,0.2929687 -0.375,0.4804687 -0.46875,0.5742187 -0.1054687,0.09375 -0.2578125,0.1523438 -0.48046871,0.1992188 l 0.32812501,0.703125 0.2578125,-0.140625 c 0.2460937,-0.1523438 1.125,-0.3867188 2.6367187,-0.6679688 v -0.1640625 c -0.703125,0.070312 -1.5117187,0.140625 -2.4257812,0.2109375 0.3515625,-0.4335937 0.6914062,-0.8789062 1.0195312,-1.3125 0.328125,-0.4335937 0.7734375,-1.0429687 1.3359375,-1.8515625 l 0.2109375,-0.035156 c 0.082031,-0.023437 0.1171875,-0.035156 0.1289063,-0.070312 0.011719,-0.023437 -0.023437,-0.070312 -0.09375,-0.1171875 l -0.6796875,-0.503907 -0.1171875,0.3398438 c -0.058594,0.1757812 -0.2929688,0.609375 -0.7148438,1.3359375 l -1.6289062,0.035156 0.328125,-0.421875 1.0429687,-1.4414062 c 0.1171875,-0.1523438 0.28125,-0.3867188 0.515625,-0.703125 l 0.2695313,-0.082031 c 0.058594,-0.023437 0.082031,-0.046875 0.082031,-0.058594 0,-0.023437 -0.035156,-0.058594 -0.1054687,-0.1171875 z M 0.55092969,-6.796875e-4 0.94936719,0.78447656 1.1837422,0.62041406 c 0.1289062,-0.10546875 0.328125,-0.19921875 0.5976562,-0.3046875 0.2695313,-0.10546875 1.03125,-0.38671875 2.25,-0.83203125 l -0.035156,-0.1171875 c -1.1835938,0.28125 -1.96875,0.45703125 -2.3671875,0.50390625 -0.375,0.046875 -0.73828126,0.09375 -1.07812521,0.1289062525 z M 3.4220234,-3.1530234 l 0.1054688,0.09375 c 0.2109375,-0.2226563 0.5507812,-0.5976563 1.0195312,-1.125 v 4.54687496 c 0,0.2578125 0,0.45703125 0.035156,0.59765625 0.035156,0.15234379 0.140625,0.26953129 0.3164062,0.33984379 0.1992188,0.070312 0.84375,0.1171875 1.9570313,0.1054687 l 1.265625,-0.046875 c 0.328125,0 0.5507812,-0.035156 0.703125,-0.082031 0.1523437,-0.046875 0.2695312,-0.1171875 0.3632812,-0.1992188 0.09375,-0.09375 0.1523438,-0.16406249 0.1757813,-0.22265624 0.035156,-0.046875 0.046875,-0.1171875 0.070312,-0.19921875 L 9.2110859,0.50322656 c -0.070312,-0.046875 -0.1289062,-0.140625 -0.1640625,-0.26953125 -0.046875,-0.12890625 -0.058594,-0.29296875 -0.070312,-0.46875 -0.011719,-0.1875 -0.023437,-0.41015625 -0.035156,-0.69140625 l -0.1054688,0.0234375 c -0.046875,0.328125 -0.1054687,0.59765625 -0.1289062,0.796875 -0.035156,0.2109375 -0.070312,0.38671875 -0.1171875,0.52734375 -0.058594,0.12890625 -0.09375,0.2109375 -0.140625,0.26953125 -0.058594,0.046875 -0.140625,0.0703125 -0.2460938,0.0703125 -0.1171875,0 -0.3515625,0.0117188 -0.6914062,0.046875 -0.3515625,0.0234375 -0.75,0.0351563 -1.171875,0.0234375 -0.4453125,0 -0.7265625,0 -0.84375,0 -0.1054688,0 -0.1992188,-0.0117188 -0.2695313,-0.0585938 C 5.1563984,0.73760156 5.1212422,0.69072656 5.0978047,0.62041406 5.0743672,0.55010156 5.0626484,0.37432031 5.0626484,0.09307031 V -1.8756797 h 2.9648438 v 0.4335938 c 0.09375,-0.035156 0.1875,-0.058594 0.3046875,-0.1171875 0.09375,-0.035156 0.1875,-0.070312 0.2695312,-0.1054688 l -0.035156,-0.8320312 v -1.4648438 l 0.234375,-0.2109375 c 0.082031,-0.082031 0.1289062,-0.1171875 0.1289062,-0.1289062 0,0 -0.058594,-0.046875 -0.1640625,-0.1289063 L 8.2618672,-4.7936484 7.9571797,-4.3600547 h -1.21875 c 0.5273437,-0.6679687 0.8671875,-1.0664062 1.0546875,-1.1953125 0.1640625,-0.140625 0.2929687,-0.2226562 0.375,-0.234375 l 0.1757812,-0.023437 c 0.058594,0 0.082031,-0.023437 0.09375,-0.070312 0.011719,-0.011719 -0.023437,-0.070312 -0.1054687,-0.1640625 L 7.7345234,-6.6217734 7.3360859,-6.1881797 h -1.453125 l 0.4570313,-0.8203125 0.1875,-0.070312 c 0.070312,-0.011719 0.1054687,-0.035156 0.1054687,-0.058594 0.011719,-0.023437 -0.046875,-0.070312 -0.1523437,-0.140625 l -0.7382813,-0.421875 -0.1054687,0.3984375 c -0.035156,0.1875 -0.1171875,0.421875 -0.234375,0.7265625 -0.1171875,0.3046875 -0.234375,0.5742187 -0.3398438,0.8203125 -0.1171875,0.2226562 -0.3164062,0.5742187 -0.5742187,1.03125 -0.2695313,0.4453125 -0.6210938,0.9726562 -1.0664063,1.5703123 z m 1.4296875,-1.4648438 c 0.3164063,-0.4570312 0.6210938,-0.9023437 0.890625,-1.3359375 h 1.6523438 l -0.4453125,0.8085938 c -0.046875,0.09375 -0.1992188,0.3515625 -0.4570313,0.7851562 H 5.2149922 Z m 0.2109375,2.5195313 v -2.0273438 h 1.1835938 v 2.0273438 z m 1.6992188,0 v -2.0273438 h 1.265625 l -0.011719,2.0273438 z m 3.7294918,-1.5 0.421875,0.7265625 c 0.351563,-0.2226563 0.621094,-0.375 0.832032,-0.4804688 0.210937,-0.082031 0.46875,-0.1992187 0.773437,-0.3164062 v 1.6289062 c 0,0.1054688 -0.02344,0.1757813 -0.08203,0.2109375 -0.05859,0.023437 -0.1875,0.023437 -0.386719,0.011719 -0.199219,0 -0.480469,-0.046875 -0.855469,-0.1171875 l -0.01172,0.1289062 0.222656,0.09375 0.28125,0.09375 c 0.234375,0.1171875 0.375,0.2109375 0.433594,0.3164063 0.04687,0.1054687 0.08203,0.2109375 0.117187,0.33984371 0.222656,-0.0703125 0.410156,-0.14062501 0.539063,-0.21093751 0.128906,-0.070312 0.210937,-0.140625 0.246093,-0.2460937 0.03516,-0.082031 0.04687,-0.1757813 0.04687,-0.28125 V -3.914742 l 0.199219,-0.09375 0.820313,-0.375 c 0.09375,-0.035156 0.222656,-0.1054687 0.398437,-0.1992187 l -0.03516,-0.140625 c -0.140625,0.046875 -0.339844,0.1171875 -0.644531,0.2226562 -0.292969,0.082031 -0.550782,0.1640625 -0.738282,0.234375 v -1.3007812 h 1.523438 c 0.105469,0 0.164062,-0.011719 0.175781,-0.035156 0.01172,-0.011719 -0.02344,-0.070312 -0.09375,-0.1523437 l -0.550781,-0.5976563 -0.46875,0.5625 h -0.585938 v -1.078125 l 0.28125,-0.1875 c 0.09375,-0.058594 0.128907,-0.09375 0.128907,-0.1171875 0,-0.023437 -0.03516,-0.046875 -0.128907,-0.09375 l -0.878906,-0.3398437 0.04687,0.7382812 v 1.078125 h -1.300781 l -0.492188,-0.023437 0.351563,0.4453125 c 0.257812,-0.1289062 0.585937,-0.1992187 0.984375,-0.1992187 h 0.457031 v 1.4765625 c -0.738281,0.2226562 -1.417969,0.3984375 -2.027344,0.4921875 z m 1.347657,2.84765621 -0.05859,0.36328125 c -0.01172,0.046875 -0.05859,0.1875 -0.164063,0.41015625 -0.09375,0.2109375 -0.234375,0.41015625 -0.421875,0.57421875 l -0.304687,0.234375 c -0.117188,0.1171875 -0.175781,0.19921874 -0.164063,0.25781254 0,0.058594 0.02344,0.1171875 0.07031,0.1640625 0.07031,0.046875 0.140625,0.082031 0.257812,0.082031 0.1875,0.011719 0.351563,-0.058594 0.492188,-0.1757812 0.140625,-0.140625 0.234375,-0.25781254 0.28125,-0.38671879 0.04687,-0.10546875 0.09375,-0.24609375 0.105469,-0.3984375 0.04687,-0.140625 0.05859,-0.26953125 0.05859,-0.3749999975 0.01172,-0.1289062525 0,-0.2578125025 0,-0.3750000025 -0.01172,-0.1171875 -0.02344,-0.24609375 -0.04687,-0.38671875 z m 1.21875,-0.24609375 0.05859,0.10546875 c 1.160157,-0.53906251 1.863282,-1.00781251 2.085938,-1.40625001 0.234375,-0.4101562 0.375,-0.6796875 0.445312,-0.8085937 l 0.28125,0.328125 c 0.04687,0.046875 0.117188,0.1523437 0.210938,0.2929687 0.09375,0.1523438 0.164062,0.2460938 0.199219,0.2695313 0.128906,0.1289062 0.246093,0.070312 0.363281,-0.1523438 0.04687,-0.1171875 0.07031,-0.1992187 0.05859,-0.28125 0,-0.082031 -0.03516,-0.1640625 -0.08203,-0.2578125 -0.05859,-0.082031 -0.164062,-0.1875 -0.292968,-0.28125 -0.128907,-0.1054687 -0.316407,-0.234375 -0.5625,-0.3984375 0.07031,-0.234375 0.117187,-0.46875 0.140625,-0.6796875 0.03516,-0.2109375 0.07031,-0.5507812 0.117187,-1.0195312 l 1.21875,-0.2226563 -0.01172,0.6210938 c -0.01172,0.3867187 0,0.75 0.01172,1.1132812 0,0.3515625 0.03516,0.6445313 0.07031,0.8789063 0.02344,0.2226562 0.09375,0.46875 0.1875,0.7265625 0.08203,0.2695312 0.246093,0.46875 0.457031,0.6328125 0.222656,0.1757812 0.398437,0.28125 0.515625,0.328125 0.128906,0.046875 0.269531,0.09375 0.421875,0.1171875 0.140625,0.035156 0.234375,0.046875 0.292969,0.046875 0.117187,-0.011719 0.1875,-0.058594 0.1875,-0.1757813 0.01172,-0.046875 -0.01172,-0.140625 -0.07031,-0.2460937 -0.05859,-0.1054688 -0.09375,-0.234375 -0.128906,-0.3515625 -0.02344,-0.140625 -0.04687,-0.28125 -0.03516,-0.421875 0.01172,-0.140625 0.02344,-0.28125 0.03516,-0.4335938 0,-0.1523437 0.02344,-0.3515625 0.05859,-0.609375 l -0.128907,-0.023437 c -0.117187,0.421875 -0.1875,0.6796875 -0.199218,0.75 l -0.128907,0.375 c -0.05859,0.1640625 -0.105468,0.2578125 -0.152343,0.28125 -0.117188,0.023437 -0.246094,-0.035156 -0.386719,-0.1992187 -0.128906,-0.1640625 -0.234375,-0.328125 -0.304688,-0.4804688 -0.07031,-0.1640625 -0.105468,-0.375 -0.140625,-0.6328125 -0.01172,-0.2578125 -0.02344,-0.5390625 -0.02344,-0.8554687 -0.01172,-0.328125 -0.01172,-0.5742188 0.01172,-0.7382813 0,-0.1757812 0.01172,-0.3515625 0.03516,-0.5507812 l 0.257812,-0.234375 c 0.07031,-0.046875 0.105469,-0.082031 0.105469,-0.1054688 0,-0.035156 -0.07031,-0.09375 -0.210937,-0.1875 l -0.5625,-0.328125 -0.234375,0.5039063 -1.136719,0.2109375 0.04687,-0.65625 c 0.01172,-0.1289063 0.02344,-0.421875 0.03516,-0.9140625 l 0.222656,-0.140625 c 0.07031,-0.046875 0.105469,-0.070312 0.105469,-0.1054688 0,-0.023437 -0.03516,-0.046875 -0.105469,-0.082031 l -0.855468,-0.328125 0.02344,0.4570312 v 1.5117188 c 0,0.1289062 0,0.234375 -0.01172,0.3398437 l -0.679687,0.1054688 -0.492188,0.058594 0.363282,0.2578125 c 0.234375,-0.09375 0.386718,-0.140625 0.46875,-0.1523437 l 0.328125,-0.046875 c -0.03516,0.4804687 -0.08203,0.796875 -0.117188,0.9492187 -0.03516,0.1523438 -0.07031,0.2929688 -0.105469,0.3984375 -0.199218,-0.082031 -0.421875,-0.1757812 -0.679687,-0.3046875 l -0.05859,0.1289063 0.199219,0.140625 0.269531,0.1992187 c 0.04687,0.035156 0.105469,0.09375 0.199219,0.1757813 -0.105469,0.3164062 -0.210938,0.5742187 -0.339844,0.7617187 -0.128906,0.1875 -0.304687,0.421875 -0.527344,0.6796875 -0.234375,0.2578125 -0.46875,0.46875 -0.679687,0.6328125 -0.222656,0.140625 -0.445313,0.2929688 -0.644531,0.43359376 z m 0.222656,0.421875 c 0.105469,0.19921875 0.175781,0.33984375 0.1875,0.4453125 0.03516,0.09375 0.04687,0.2109375 0.07031,0.328125 0.02344,0.10546875 0.03516,0.2109375 0.04687,0.3046875 v 0.3984375 c 0,0.11718754 0.02344,0.17578124 0.05859,0.19921874 0.04687,0.035156 0.117188,0.023437 0.222656,-0.023437 0.105469,-0.046875 0.1875,-0.11718749 0.246094,-0.18749999 0.07031,-0.1171875 0.117188,-0.24609375 0.117188,-0.375 0,-0.140625 -0.08203,-0.31640625 -0.246094,-0.5390625 -0.152344,-0.2109375 -0.363281,-0.421875 -0.609375,-0.62109375 z m 2.039062,-0.09375 c 0.1875,0.24609375 0.316407,0.45703125 0.386719,0.6328125 0.07031,0.1640625 0.117188,0.33984375 0.140625,0.5390625 0.02344,0.19921875 0.05859,0.33984375 0.08203,0.41015625 0.03516,0.0703125 0.08203,0.11718749 0.128907,0.12890629 0.05859,0.011719 0.117187,-0.011719 0.199218,-0.046875 0.05859,-0.0585938 0.117188,-0.12890625 0.175782,-0.22265625 0.05859,-0.10546875 0.08203,-0.19921875 0.08203,-0.26953125 -0.01172,-0.09375 -0.03516,-0.19921875 -0.105469,-0.3046875 -0.07031,-0.1171875 -0.164062,-0.2578125 -0.316406,-0.421875 -0.152344,-0.140625 -0.386719,-0.33984375 -0.703125,-0.55078125 z m 1.957032,-0.0117188 c 0.246093,0.26953125 0.421875,0.4453125 0.515625,0.5625 0.09375,0.10546875 0.175781,0.22265625 0.246093,0.3515625 0.07031,0.12890625 0.152344,0.29296875 0.222657,0.46875 l 0.128906,0.39843744 c 0.03516,0.1171875 0.07031,0.1875 0.117187,0.1992188 0.05859,0.046875 0.128907,0.046875 0.199219,0 0.07031,-0.035156 0.140625,-0.1289063 0.210938,-0.2460938 0.07031,-0.14062494 0.105468,-0.25781244 0.117187,-0.37499994 0,-0.09375 -0.02344,-0.1875 -0.08203,-0.3046875 -0.04687,-0.10546875 -0.234375,-0.26953125 -0.539063,-0.515625 -0.316406,-0.22265625 -0.679687,-0.43359375 -1.089843,-0.6328125 z m 0,0"
       style="fill:#0000ff;fill-opacity:1;fill-rule:nonzero;stroke:none"
       aria-label="绝热"
       transform="matrix(1.3333333,0,0,1.3333333,41.269333,88.372)" />
    <path
       id="path10"
       d="m 439.37546,56.69492 0.88562,-1.52254 0.88562,-1.46738 0.88563,-1.41116 0.88562,-1.356 0.88562,-1.30086 0.88563,-1.24571 0.88561,-1.18949 0.88562,-1.1354 0.88562,-1.07918 0.88562,-1.02405 0.88563,-0.96887 0.88561,-0.91374 0.88564,-0.85752 0.88562,-0.80343 0.88562,-0.74721 0.88562,-0.69205 0.88562,-0.63692 0.88562,-0.58177 0.88562,-0.52553 0.88562,-0.47148 0.88562,-0.41522 0.88562,-0.36009 0.88564,-0.30493 0.88562,-0.24872"
       style="fill:none;stroke:#0000ff;stroke-width:0.3985;stroke-linecap:butt;stroke-linejoin:miter;stroke-miterlimit:10;stroke-dasharray:none;stroke-opacity:1"
       transform="matrix(1.3333333,0,0,-1.3333333,-547.30667,103.06933)" />
    <path
       id="path11"
       d="M -2.07224,2.39104 C -1.69365,0.95639 -0.84999,0.27895 0,0 -0.84999,-0.27895 -1.69365,-0.95639 -2.07224,-2.39104"
       style="fill:none;stroke:#0000ff;stroke-width:0.3985;stroke-linecap:round;stroke-linejoin:round;stroke-miterlimit:10;stroke-dasharray:none;stroke-opacity:1"
       transform="matrix(0.87213333,1.00848,1.00848,-0.87213333,50.045653,44.116573)" />
    <path
       id="path12"
       d="m 0.45848437,-3.0125313 0.421875,0.3867188 C 1.0678594,-2.7195625 1.3022344,-2.7547188 1.5834844,-2.7547188 h 7.78125 c 0.058594,0 0.09375,-0.011719 0.1054687,-0.023437 0,-0.011719 -0.023437,-0.046875 -0.070312,-0.1054687 L 8.7319219,-3.6101875 8.2045781,-3.0125313 H 5.1928594 V -3.96175 h 3.2226562 c 0.058594,0 0.09375,-0.011719 0.1054688,-0.046875 0.011719,-0.023437 -0.011719,-0.058594 -0.046875,-0.09375 L 7.8295781,-4.7000313 7.4311406,-4.196125 H 5.1928594 V -4.8172188 L 5.3920781,-4.946125 c 0.1054688,-0.070312 0.1523438,-0.1054688 0.1523438,-0.1171875 0,-0.023437 -0.035156,-0.035156 -0.082031,-0.070312 l -0.28125,-0.1171875 0.2226563,-0.2695313 0.4101562,-0.515625 c 0.046875,-0.046875 0.1171875,-0.1289062 0.1992188,-0.2460937 h 0.7617187 l 0.1289063,0.2460937 c 0.070312,0.09375 0.140625,0.2929688 0.2109375,0.5976563 0.023437,0.1289062 0.046875,0.234375 0.035156,0.3398437 0,0.082031 0.011719,0.140625 0.023437,0.1523438 0.035156,0.1054687 0.1054688,0.1289062 0.2226563,0.1054687 0.09375,-0.035156 0.1757812,-0.1054687 0.2226562,-0.2109375 0.058594,-0.1054687 0.070312,-0.1875 0.070312,-0.2578125 0,-0.1054687 -0.035156,-0.2109375 -0.09375,-0.3046875 -0.082031,-0.082031 -0.3046875,-0.3046875 -0.6679687,-0.6679687 h 2.3320312 c 0.046875,0 0.082031,0 0.09375,-0.035156 0.011719,-0.023437 0,-0.046875 -0.023437,-0.082031 L 8.6498906,-6.9851875 8.2397344,-6.5047188 H 6.1889531 C 6.3530156,-6.7390938 6.5053594,-6.96175 6.6459844,-7.14925 l 0.234375,-0.058594 C 6.9272344,-7.219563 6.9623904,-7.243 6.9741094,-7.278156 6.9975464,-7.289875 6.9506724,-7.33675 6.8569219,-7.3953435 L 6.1655156,-7.7937813 6.0834844,-7.477375 c -0.058594,0.2109375 -0.140625,0.46875 -0.2929688,0.7851562 C 5.6381719,-6.3875313 5.3920781,-5.9305 5.0287969,-5.321125 l -0.3984375,-0.1757813 0.058594,0.8320313 v 0.46875 h -2.121094 l -0.75,-0.023437 0.421875,0.3984375 C 2.4975469,-3.914875 2.7319219,-3.96175 2.9545781,-3.96175 h 1.734375 v 0.9492187 z m 2.17968753,-4.7578125 -0.082031,0.2578125 c -0.058594,0.1523438 -0.140625,0.3515625 -0.28125,0.6210938 -0.1289062,0.2578125 -0.2929687,0.5390625 -0.4804687,0.8320312 -0.1757813,0.2929688 -0.3632813,0.5625 -0.5390625,0.8085938 l -0.42187503,0.5507812 c -0.0585938,0.058594 -0.1171875,0.1523438 -0.19921875,0.2695313 l 0.0820313,0.082031 C 1.2436406,-4.852375 1.6186406,-5.2156563 1.8061406,-5.4265938 c 0.1875,-0.2226562 0.4101563,-0.4921875 0.65625,-0.8203125 h 0.6445313 l 0.140625,0.2578125 c 0.035156,0.046875 0.058594,0.140625 0.1054687,0.2460938 0.035156,0.1171875 0.070312,0.2460937 0.09375,0.3867187 0.035156,0.140625 0.046875,0.2578125 0.046875,0.3632813 0,0.1054687 0.011719,0.1757812 0.035156,0.1875 0.023437,0.011719 0.035156,0.023437 0.070312,0.023437 0.070312,0.011719 0.140625,-0.035156 0.2226562,-0.1171875 0.070312,-0.1054688 0.1289063,-0.1875 0.1640625,-0.2460938 0.035156,-0.070312 0.046875,-0.140625 0.035156,-0.2109375 0,-0.082031 -0.046875,-0.1640625 -0.1171875,-0.2578125 -0.070312,-0.082031 -0.28125,-0.2929687 -0.609375,-0.6328125 h 1.7929687 c 0.023437,0 0.046875,-0.011719 0.058594,-0.035156 0.011719,-0.011719 0,-0.046875 -0.046875,-0.070312 l -0.703125,-0.5976563 -0.375,0.46875 H 2.6381719 l 0.46875,-0.6210937 0.2578125,-0.046875 c 0.058594,-0.011719 0.1054687,-0.023437 0.1171875,-0.058594 0.011719,-0.023437 -0.035156,-0.070312 -0.140625,-0.140625 z M 1.0327031,-1.618 1.4428594,-1.2312813 c 0.2109375,-0.082031 0.4570312,-0.1289062 0.7148437,-0.1289062 h 0.9960938 c 0.3164062,0.3515625 0.515625,0.62109375 0.5976562,0.84375 0.070312,0.19921875 0.1171875,0.3515625 0.140625,0.45703125 0,0.09375 0.023437,0.1640625 0.058594,0.19921875 0.011719,0.0234375 0.046875,0.046875 0.09375,0.0585938 0.1054685,0.0117187 0.222656,-0.0468751 0.316406,-0.1992188 0.082031,-0.10546875 0.1171875,-0.22265625 0.1054688,-0.33984375 C 4.4545781,-0.43440625 4.4077031,-0.5633125 4.2905156,-0.6570625 4.1850469,-0.77425 3.8803594,-1.008625 3.3881719,-1.3601875 h 3.046875 v 1.88671875 c 0,0.09375 -0.023437,0.17578125 -0.082031,0.234375 -0.035156,0.0703125 -0.1992187,0.0703125 -0.46875,0.0234375 -0.2695312,-0.046875 -0.5742187,-0.10546875 -0.9375,-0.1640625 l -0.023437,0.140625 c 0.4570313,0.1640625 0.7382813,0.28124995 0.8554688,0.37499995 0.1054687,0.09375 0.1640625,0.1640625 0.1757812,0.2578125 0.023437,0.082031 0.035156,0.1640625 0.035156,0.2460938 0.1523437,-0.023437 0.328125,-0.09375 0.5273437,-0.2109375 0.1992188,-0.1054688 0.328125,-0.2109375 0.375,-0.328125 0.058594,-0.10546875 0.09375,-0.2109375 0.09375,-0.3046875 v -2.15625 h 2.15625 c 0.058594,0 0.1054688,0 0.1171875,-0.011719 0.011719,-0.011719 -0.023437,-0.058594 -0.1171875,-0.140625 L 8.4741094,-2.1101875 8.0756719,-1.571125 H 6.9858281 V -2.08675 l 0.1992188,-0.082031 c 0.09375,-0.058594 0.1289062,-0.082031 0.1289062,-0.1054687 -0.011719,-0.011719 -0.035156,-0.023437 -0.09375,-0.058594 l -0.8320312,-0.3867187 0.046875,0.84375 V -1.571125 H 1.9584844 Z m 9.5039059,-3.5625 -0.07031,0.09375 c 0.175781,0.1640625 0.292969,0.28125 0.375,0.375 0.08203,0.09375 0.175781,0.2226562 0.28125,0.3984375 0.105469,0.1757812 0.175781,0.328125 0.210937,0.4570312 0.04687,0.1289063 0.07031,0.2109375 0.105469,0.2695313 0.02344,0.035156 0.07031,0.070312 0.117188,0.070312 0.03516,0.011719 0.08203,-0.011719 0.140625,-0.058594 0.04687,-0.046875 0.09375,-0.1171875 0.152343,-0.2109375 0.04687,-0.1054687 0.07031,-0.2226562 0.07031,-0.3398437 0,-0.1289063 -0.04687,-0.234375 -0.140625,-0.3632813 -0.08203,-0.09375 -0.257813,-0.2226562 -0.515625,-0.3515625 C 11.005359,-4.9695625 10.770984,-5.08675 10.536609,-5.1805 Z m 0.02344,3.5039062 -0.03516,0.1289063 c 0.292968,0.09375 0.46875,0.1523437 0.574218,0.2109375 0.08203,0.035156 0.164063,0.1171875 0.222657,0.1992187 0.07031,0.1054688 0.105468,0.2226563 0.117187,0.37500005 0.01172,0.12890625 -0.02344,0.328125 -0.05859,0.59765625 -0.05859,0.26953125 -0.105468,0.48046875 -0.152343,0.64453125 -0.04687,0.1875 -0.08203,0.328125 -0.07031,0.421875 0.01172,0.0820313 0.03516,0.16406245 0.08203,0.21093745 0.04687,0.046875 0.117188,0.1171875 0.222657,0.1640625 0.117187,0.058594 0.199218,0.082031 0.257812,0.082031 0.164063,0 0.257813,-0.1289063 0.257813,-0.36328125 0,-0.0820313 -0.01172,-0.22265625 -0.02344,-0.43359375 l -0.04687,-0.78515625 c -0.03516,-0.38671875 -0.04687,-0.6328125 -0.03516,-0.7734375 0,-0.11718755 0.04687,-0.35156255 0.128906,-0.67968755 0.08203,-0.3164062 0.234375,-0.796875 0.445313,-1.4296875 0.210937,-0.6328125 0.585937,-1.7109375 1.136718,-3.234375 l -0.128906,-0.046875 c -0.164062,0.375 -0.351562,0.8203125 -0.5625,1.3242188 l -0.703125,1.7460937 c -0.199219,0.5039063 -0.363281,0.8671875 -0.46875,1.1015625 -0.09375,0.2226563 -0.175781,0.375 -0.222656,0.4453125 -0.05859,0.058594 -0.117188,0.09375 -0.199219,0.1289063 -0.05859,0.023437 -0.152344,0.035156 -0.257812,0.023437 -0.117188,-0.011719 -0.269532,-0.023437 -0.480469,-0.058594 z m 0.585937,-5.4257812 c 0.46875,0.3164062 0.75,0.6210937 0.84375,0.890625 0.105469,0.2695312 0.164063,0.4335937 0.199219,0.4921875 0.02344,0.058594 0.08203,0.09375 0.152344,0.09375 0.04687,0 0.105469,-0.035156 0.175781,-0.09375 0.07031,-0.058594 0.117188,-0.1289063 0.152344,-0.2109375 0.07031,-0.1640625 0.07031,-0.3164063 -0.01172,-0.4453125 -0.07031,-0.1289063 -0.152344,-0.2226563 -0.234375,-0.28125 -0.08203,-0.058594 -0.292969,-0.1523438 -0.632812,-0.3164063 -0.328125,-0.140625 -0.515625,-0.234375 -0.550782,-0.234375 z m 2.097657,7.78125 H 12.692859 L 12.188953,0.64371875 12.540516,1.0773125 C 12.681141,1.007 12.810047,0.960125 12.927234,0.94840625 13.056141,0.92496875 13.220203,0.91325 13.431141,0.91325 h 6.058593 c 0.140625,0 0.164063,-0.0585938 0.05859,-0.17578125 l -0.503906,-0.5625 -0.363281,0.50390625 h -0.164063 v -2.7773438 l 0.246094,-0.1992187 c 0.07031,-0.046875 0.09375,-0.070312 0.08203,-0.070312 0,-0.023437 -0.01172,-0.046875 -0.05859,-0.082031 l -0.585937,-0.4570312 -0.339844,0.46875 h -3.984375 l -0.691406,-0.4335938 0.07031,1.1601563 z m 0.609375,0 v -2.8945313 h 0.949218 V 0.678875 Z m 1.464843,0 v -2.8945313 h 1.03125 V 0.678875 Z m 1.59375,0 v -2.8945313 h 1.007813 V 0.678875 Z m -3.117187,-7.9921875 0.05859,1.03125 v 2.2617187 l -0.07031,1.1953125 c 0.363281,-0.1523437 0.550781,-0.2460937 0.5625,-0.2460937 0.01172,-0.023437 0.03516,-0.035156 0.09375,-0.082031 v -0.4921875 h 3.035156 v 0.6796875 c 0.257813,-0.058594 0.46875,-0.1640625 0.632813,-0.328125 l -0.05859,-1.125 V -6.528156 L 18.259266,-6.6805 c 0.105468,-0.070312 0.152343,-0.1289063 0.152343,-0.140625 0,-0.023437 -0.02344,-0.058594 -0.05859,-0.09375 l -0.609375,-0.515625 -0.375,0.5039062 h -2.8125 z m 0.644531,3.421875 v -1.3125 h 3.035156 v 1.3125 z m 0,-1.5351563 v -1.265625 h 3.035156 v 1.265625 z m 0,0"
       style="fill:#0000ff;fill-opacity:1;fill-rule:nonzero;stroke:none"
       aria-label="等温"
       transform="matrix(1.3333333,0,0,1.3333333,53.584,45.157333)" />
    <path
       id="path13"
       d="m 460.63579,35.4335 0.24978,-0.88562 0.30388,-0.88562 0.36008,-0.88562 0.41524,-0.88562 0.47038,-0.88562 0.52555,-0.88562 0.58067,-0.88562 0.63691,-0.88562 0.69205,-0.88562 0.74722,-0.88563 0.80235,-0.88562 0.85752,-0.88562 0.91264,-0.88562 0.96889,-0.88563 1.02403,-0.88561 1.0792,-0.88562 1.13432,-0.88563 1.18948,-0.88562 1.24572,-0.88563 1.30085,-0.88562 1.35492,-0.88562 1.41117,-0.88562 1.46629,-0.88562 1.52255,-0.88562"
       style="fill:none;stroke:#0000ff;stroke-width:0.3985;stroke-linecap:butt;stroke-linejoin:miter;stroke-miterlimit:10;stroke-dasharray:none;stroke-opacity:1"
       transform="matrix(1.3333333,0,0,-1.3333333,-547.30667,103.06933)" />
    <path
       id="path14"
       d="M -2.07224,2.39104 C -1.69365,0.95639 -0.84999,0.27895 0,0 -0.84999,-0.27895 -1.69365,-0.95639 -2.07224,-2.39104"
       style="fill:none;stroke:#0000ff;stroke-width:0.3985;stroke-linecap:round;stroke-linejoin:round;stroke-miterlimit:10;stroke-dasharray:none;stroke-opacity:1"
       transform="matrix(1.00848,0.87213333,0.87213333,-1.00848,78.171853,72.29856)" />
    <path
       id="path15"
       d="m 2.4719922,-7.4643359 -0.09375,0.3164062 c -0.023437,0.140625 -0.2226563,0.5390625 -0.5859375,1.2070313 -0.3515625,0.6796875 -0.609375,1.125 -0.7617188,1.3242187 -0.16406246,0.1992188 -0.28124996,0.328125 -0.35156246,0.3867188 -0.0820313,0.046875 -0.1875,0.1054687 -0.31640625,0.1523437 l 0.328125,0.6210938 0.24609375,-0.1171875 C 1.1243359,-3.6791797 1.6516797,-3.7963672 2.5188672,-3.9369922 c -0.2929688,0.515625 -0.5507813,0.9257813 -0.7617188,1.2304688 -0.2109375,0.2929687 -0.375,0.4804687 -0.46875,0.5742187 -0.1054687,0.09375 -0.2578125,0.1523438 -0.48046871,0.1992188 l 0.32812501,0.703125 0.2578125,-0.140625 c 0.2460937,-0.1523438 1.125,-0.3867188 2.6367187,-0.6679688 v -0.1640625 c -0.703125,0.070312 -1.5117187,0.140625 -2.4257812,0.2109375 0.3515625,-0.4335937 0.6914062,-0.8789062 1.0195312,-1.3125 0.328125,-0.4335937 0.7734375,-1.0429687 1.3359375,-1.8515625 l 0.2109375,-0.035156 c 0.082031,-0.023437 0.1171875,-0.035156 0.1289063,-0.070312 0.011719,-0.023437 -0.023437,-0.070312 -0.09375,-0.1171875 l -0.6796875,-0.503907 -0.1171875,0.3398438 c -0.058594,0.1757812 -0.2929688,0.609375 -0.7148438,1.3359375 l -1.6289062,0.035156 0.328125,-0.421875 1.0429687,-1.4414062 c 0.1171875,-0.1523438 0.28125,-0.3867188 0.515625,-0.703125 l 0.2695313,-0.082031 c 0.058594,-0.023437 0.082031,-0.046875 0.082031,-0.058594 0,-0.023437 -0.035156,-0.058594 -0.1054687,-0.1171875 z M 0.55011719,5.078125e-4 0.94855469,0.78566406 1.1829297,0.62160156 c 0.1289062,-0.10546875 0.328125,-0.19921875 0.5976562,-0.3046875 0.2695313,-0.10546875 1.03125,-0.38671875 2.25,-0.83203125 l -0.035156,-0.1171875 c -1.1835938,0.28125 -1.96875,0.45703125 -2.3671875,0.50390625 -0.375,0.046875 -0.73828126,0.09375 -1.07812521,0.1289062525 z M 3.4212109,-3.1518359 l 0.1054688,0.09375 c 0.2109375,-0.2226563 0.5507812,-0.5976563 1.0195312,-1.125 v 4.54687496 c 0,0.2578125 0,0.45703125 0.035156,0.59765625 0.035156,0.15234379 0.140625,0.26953129 0.3164062,0.33984379 0.1992188,0.070312 0.84375,0.1171875 1.9570313,0.1054687 l 1.265625,-0.046875 c 0.328125,0 0.5507812,-0.035156 0.703125,-0.082031 0.1523437,-0.046875 0.2695312,-0.1171875 0.3632812,-0.1992188 0.09375,-0.09375 0.1523438,-0.16406249 0.1757813,-0.22265624 0.035156,-0.046875 0.046875,-0.1171875 0.070312,-0.19921875 L 9.2102734,0.50441406 c -0.070312,-0.046875 -0.1289062,-0.140625 -0.1640625,-0.26953125 -0.046875,-0.12890625 -0.058594,-0.29296875 -0.070312,-0.46875 -0.011719,-0.1875 -0.023437,-0.41015625 -0.035156,-0.69140625 l -0.1054688,0.0234375 c -0.046875,0.328125 -0.1054687,0.59765625 -0.1289062,0.796875 -0.035156,0.2109375 -0.070312,0.38671875 -0.1171875,0.52734375 -0.058594,0.12890625 -0.09375,0.2109375 -0.140625,0.26953125 -0.058594,0.046875 -0.140625,0.0703125 -0.2460938,0.0703125 -0.1171875,0 -0.3515625,0.0117188 -0.6914062,0.046875 -0.3515625,0.0234375 -0.75,0.0351563 -1.171875,0.0234375 -0.4453125,0 -0.7265625,0 -0.84375,0 -0.1054688,0 -0.1992188,-0.0117188 -0.2695313,-0.0585938 C 5.1555859,0.73878906 5.1204297,0.69191406 5.0969922,0.62160156 5.0735547,0.55128906 5.0618359,0.37550781 5.0618359,0.09425781 V -1.8744922 h 2.9648438 v 0.4335938 c 0.09375,-0.035156 0.1875,-0.058594 0.3046875,-0.1171875 0.09375,-0.035156 0.1875,-0.070312 0.2695312,-0.1054688 l -0.035156,-0.8320312 v -1.4648438 l 0.234375,-0.2109375 c 0.082031,-0.082031 0.1289062,-0.1171875 0.1289062,-0.1289062 0,0 -0.058594,-0.046875 -0.1640625,-0.1289063 L 8.2610547,-4.7924609 7.9563672,-4.3588672 h -1.21875 c 0.5273437,-0.6679687 0.8671875,-1.0664062 1.0546875,-1.1953125 0.1640625,-0.140625 0.2929687,-0.2226562 0.375,-0.234375 l 0.1757812,-0.023437 c 0.058594,0 0.082031,-0.023437 0.09375,-0.070312 0.011719,-0.011719 -0.023437,-0.070312 -0.1054687,-0.1640625 L 7.7337109,-6.6205859 7.3352734,-6.1869922 h -1.453125 l 0.4570313,-0.8203125 0.1875,-0.070312 c 0.070312,-0.011719 0.1054687,-0.035156 0.1054687,-0.058594 0.011719,-0.023437 -0.046875,-0.070312 -0.1523437,-0.140625 l -0.7382813,-0.421875 -0.1054687,0.3984375 c -0.035156,0.1875 -0.1171875,0.421875 -0.234375,0.7265625 -0.1171875,0.3046875 -0.234375,0.5742187 -0.3398438,0.8203125 -0.1171875,0.2226562 -0.3164062,0.5742187 -0.5742187,1.03125 -0.2695313,0.4453125 -0.6210938,0.9726562 -1.0664063,1.5703123 z m 1.4296875,-1.4648438 c 0.3164063,-0.4570312 0.6210938,-0.9023437 0.890625,-1.3359375 h 1.6523438 l -0.4453125,0.8085938 c -0.046875,0.09375 -0.1992188,0.3515625 -0.4570313,0.7851562 H 5.2141797 Z m 0.2109375,2.5195313 v -2.0273438 h 1.1835938 v 2.0273438 z m 1.6992188,0 v -2.0273438 h 1.265625 l -0.011719,2.0273438 z m 3.7294923,-1.5 0.421875,0.7265625 c 0.351562,-0.2226563 0.621094,-0.375 0.832031,-0.4804688 0.210938,-0.082031 0.46875,-0.1992187 0.773438,-0.3164062 v 1.6289062 c 0,0.1054688 -0.02344,0.1757813 -0.08203,0.2109375 -0.05859,0.023437 -0.1875,0.023437 -0.386718,0.011719 -0.199219,0 -0.480469,-0.046875 -0.855469,-0.1171875 l -0.01172,0.1289062 0.222656,0.09375 0.28125,0.09375 c 0.234375,0.1171875 0.375,0.2109375 0.433594,0.3164063 0.04687,0.1054687 0.08203,0.2109375 0.117188,0.33984371 0.222656,-0.0703125 0.410156,-0.14062501 0.539062,-0.21093751 0.128906,-0.070312 0.210938,-0.140625 0.246094,-0.2460937 0.03516,-0.082031 0.04687,-0.1757813 0.04687,-0.28125 v -2.2148438 l 0.199219,-0.09375 0.820312,-0.375 c 0.09375,-0.035156 0.222656,-0.1054687 0.398438,-0.1992187 l -0.03516,-0.140625 c -0.140625,0.046875 -0.339843,0.1171875 -0.644531,0.2226562 -0.292969,0.082031 -0.550781,0.1640625 -0.738281,0.234375 v -1.3007812 h 1.523437 c 0.105469,0 0.164063,-0.011719 0.175782,-0.035156 0.01172,-0.011719 -0.02344,-0.070312 -0.09375,-0.1523437 l -0.550782,-0.5976563 -0.46875,0.5625 h -0.585937 v -1.078125 l 0.28125,-0.1875 c 0.09375,-0.058594 0.128906,-0.09375 0.128906,-0.1171875 0,-0.023437 -0.03516,-0.046875 -0.128906,-0.09375 l -0.878906,-0.3398437 0.04687,0.7382812 v 1.078125 h -1.300782 l -0.492187,-0.023437 0.351562,0.4453125 c 0.257813,-0.1289062 0.585938,-0.1992187 0.984375,-0.1992187 h 0.457032 v 1.4765625 c -0.738282,0.2226562 -1.417969,0.3984375 -2.027344,0.4921875 z m 1.347656,2.84765621 -0.05859,0.36328125 c -0.01172,0.046875 -0.05859,0.1875 -0.164062,0.41015625 -0.09375,0.2109375 -0.234375,0.41015625 -0.421875,0.57421875 l -0.304688,0.234375 c -0.117187,0.1171875 -0.175781,0.19921874 -0.164062,0.25781254 0,0.058594 0.02344,0.1171875 0.07031,0.1640625 0.07031,0.046875 0.140625,0.082031 0.257813,0.082031 0.1875,0.011719 0.351562,-0.058594 0.492187,-0.1757812 0.140625,-0.140625 0.234375,-0.25781254 0.28125,-0.38671879 0.04687,-0.10546875 0.09375,-0.24609375 0.105469,-0.3984375 0.04687,-0.140625 0.05859,-0.26953125 0.05859,-0.3749999975 0.01172,-0.1289062525 0,-0.2578125025 0,-0.3750000025 -0.01172,-0.1171875 -0.02344,-0.24609375 -0.04687,-0.38671875 z m 1.21875,-0.24609375 0.05859,0.10546875 c 1.160156,-0.53906251 1.863281,-1.00781251 2.085937,-1.40625001 0.234375,-0.4101562 0.375,-0.6796875 0.445313,-0.8085937 l 0.28125,0.328125 c 0.04687,0.046875 0.117187,0.1523437 0.210937,0.2929687 0.09375,0.1523438 0.164063,0.2460938 0.199219,0.2695313 0.128906,0.1289062 0.246094,0.070312 0.363281,-0.1523438 0.04687,-0.1171875 0.07031,-0.1992187 0.05859,-0.28125 0,-0.082031 -0.03516,-0.1640625 -0.08203,-0.2578125 -0.05859,-0.082031 -0.164063,-0.1875 -0.292969,-0.28125 -0.128906,-0.1054687 -0.316406,-0.234375 -0.5625,-0.3984375 0.07031,-0.234375 0.117188,-0.46875 0.140625,-0.6796875 0.03516,-0.2109375 0.07031,-0.5507812 0.117188,-1.0195312 l 1.21875,-0.2226563 -0.01172,0.6210938 c -0.01172,0.3867187 0,0.75 0.01172,1.1132812 0,0.3515625 0.03516,0.6445313 0.07031,0.8789063 0.02344,0.2226562 0.09375,0.46875 0.1875,0.7265625 0.08203,0.2695312 0.246094,0.46875 0.457031,0.6328125 0.222657,0.1757812 0.398438,0.28125 0.515625,0.328125 0.128907,0.046875 0.269532,0.09375 0.421875,0.1171875 0.140625,0.035156 0.234375,0.046875 0.292969,0.046875 0.117188,-0.011719 0.1875,-0.058594 0.1875,-0.1757813 0.01172,-0.046875 -0.01172,-0.140625 -0.07031,-0.2460937 -0.05859,-0.1054688 -0.09375,-0.234375 -0.128907,-0.3515625 -0.02344,-0.140625 -0.04687,-0.28125 -0.03516,-0.421875 0.01172,-0.140625 0.02344,-0.28125 0.03516,-0.4335938 0,-0.1523437 0.02344,-0.3515625 0.05859,-0.609375 l -0.128906,-0.023437 c -0.117188,0.421875 -0.1875,0.6796875 -0.199219,0.75 l -0.128906,0.375 c -0.05859,0.1640625 -0.105469,0.2578125 -0.152344,0.28125 -0.117187,0.023437 -0.246094,-0.035156 -0.386719,-0.1992187 -0.128906,-0.1640625 -0.234375,-0.328125 -0.304687,-0.4804688 -0.07031,-0.1640625 -0.105469,-0.375 -0.140625,-0.6328125 -0.01172,-0.2578125 -0.02344,-0.5390625 -0.02344,-0.8554687 -0.01172,-0.328125 -0.01172,-0.5742188 0.01172,-0.7382813 0,-0.1757812 0.01172,-0.3515625 0.03516,-0.5507812 l 0.257813,-0.234375 c 0.07031,-0.046875 0.105469,-0.082031 0.105469,-0.1054688 0,-0.035156 -0.07031,-0.09375 -0.210938,-0.1875 l -0.5625,-0.328125 -0.234375,0.5039063 -1.136719,0.2109375 0.04687,-0.65625 c 0.01172,-0.1289063 0.02344,-0.421875 0.03516,-0.9140625 l 0.222656,-0.140625 c 0.07031,-0.046875 0.105469,-0.070312 0.105469,-0.1054688 0,-0.023437 -0.03516,-0.046875 -0.105469,-0.082031 l -0.855469,-0.328125 0.02344,0.4570312 v 1.5117188 c 0,0.1289062 0,0.234375 -0.01172,0.3398437 l -0.679688,0.1054688 -0.492187,0.058594 0.363281,0.2578125 c 0.234375,-0.09375 0.386719,-0.140625 0.46875,-0.1523437 l 0.328125,-0.046875 c -0.03516,0.4804687 -0.08203,0.796875 -0.117187,0.9492187 -0.03516,0.1523438 -0.07031,0.2929688 -0.105469,0.3984375 -0.199219,-0.082031 -0.421875,-0.1757812 -0.679688,-0.3046875 l -0.05859,0.1289063 0.199218,0.140625 0.269532,0.1992187 c 0.04687,0.035156 0.105468,0.09375 0.199218,0.1757813 -0.105468,0.3164062 -0.210937,0.5742187 -0.339843,0.7617187 -0.128907,0.1875 -0.304688,0.421875 -0.527344,0.6796875 -0.234375,0.2578125 -0.46875,0.46875 -0.679688,0.6328125 -0.222656,0.140625 -0.445312,0.2929688 -0.644531,0.43359376 z m 0.222656,0.421875 c 0.105469,0.19921875 0.175782,0.33984375 0.1875,0.4453125 0.03516,0.09375 0.04687,0.2109375 0.07031,0.328125 0.02344,0.10546875 0.03516,0.2109375 0.04687,0.3046875 v 0.3984375 c 0,0.11718754 0.02344,0.17578124 0.05859,0.19921874 0.04687,0.035156 0.117187,0.023437 0.222656,-0.023437 0.105469,-0.046875 0.1875,-0.11718749 0.246094,-0.18749999 0.07031,-0.1171875 0.117187,-0.24609375 0.117187,-0.375 0,-0.140625 -0.08203,-0.31640625 -0.246094,-0.5390625 -0.152343,-0.2109375 -0.363281,-0.421875 -0.609375,-0.62109375 z m 2.039063,-0.09375 c 0.1875,0.24609375 0.316406,0.45703125 0.386719,0.6328125 0.07031,0.1640625 0.117187,0.33984375 0.140625,0.5390625 0.02344,0.19921875 0.05859,0.33984375 0.08203,0.41015625 0.03516,0.0703125 0.08203,0.11718749 0.128906,0.12890629 0.05859,0.011719 0.117188,-0.011719 0.199219,-0.046875 0.05859,-0.0585938 0.117187,-0.12890625 0.175781,-0.22265625 0.05859,-0.10546875 0.08203,-0.19921875 0.08203,-0.26953125 -0.01172,-0.09375 -0.03516,-0.19921875 -0.105468,-0.3046875 -0.07031,-0.1171875 -0.164063,-0.2578125 -0.316407,-0.421875 -0.152343,-0.140625 -0.386718,-0.33984375 -0.703125,-0.55078125 z m 1.957031,-0.0117188 c 0.246094,0.26953125 0.421875,0.4453125 0.515625,0.5625 0.09375,0.10546875 0.175781,0.22265625 0.246094,0.3515625 0.07031,0.12890625 0.152344,0.29296875 0.222656,0.46875 l 0.128906,0.39843754 c 0.03516,0.1171875 0.07031,0.1875 0.117188,0.1992187 0.05859,0.046875 0.128906,0.046875 0.199219,0 0.07031,-0.035156 0.140625,-0.1289062 0.210937,-0.2460937 0.07031,-0.14062504 0.105469,-0.25781254 0.117188,-0.37500004 0,-0.09375 -0.02344,-0.1875 -0.08203,-0.3046875 -0.04687,-0.10546875 -0.234375,-0.26953125 -0.539062,-0.515625 -0.316406,-0.22265625 -0.679688,-0.43359375 -1.089844,-0.6328125 z m 0,0"
       style="fill:#0000ff;fill-opacity:1;fill-rule:nonzero;stroke:none"
       aria-label="绝热"
       transform="matrix(1.3333333,0,0,1.3333333,81.926667,70.026667)" />
  </g>
</svg>
