<?xml version="1.0" encoding="UTF-8" standalone="no"?>
<!-- Created with Inkscape (http://www.inkscape.org/) -->

<svg
   version="1.1"
   id="svg1"
   width="130.90668"
   height="121.26667"
   viewBox="0 0 130.90668 121.26667"
   sodipodi:docname="22-23-2-大学物理E（上）-期末-选项1.5-A.pdf"
   xmlns:inkscape="http://www.inkscape.org/namespaces/inkscape"
   xmlns:sodipodi="http://sodipodi.sourceforge.net/DTD/sodipodi-0.dtd"
   xmlns="http://www.w3.org/2000/svg"
   xmlns:svg="http://www.w3.org/2000/svg">
  <defs
     id="defs1" />
  <sodipodi:namedview
     id="namedview1"
     pagecolor="#ffffff"
     bordercolor="#000000"
     borderopacity="0.25"
     inkscape:showpageshadow="2"
     inkscape:pageopacity="0.0"
     inkscape:pagecheckerboard="0"
     inkscape:deskcolor="#d1d1d1">
    <inkscape:page
       x="0"
       y="0"
       inkscape:label="1"
       id="page1"
       width="130.90668"
       height="121.26667"
       margin="0"
       bleed="0" />
  </sodipodi:namedview>
  <g
     id="g1"
     inkscape:groupmode="layer"
     inkscape:label="1">
    <path
       id="path1"
       d="M 0,70.46854 V 0 h 70.46854"
       style="fill:none;stroke:#000000;stroke-width:0.3985;stroke-linecap:butt;stroke-linejoin:miter;stroke-miterlimit:10;stroke-dasharray:none;stroke-opacity:1"
       transform="matrix(1.3333333,0,0,-1.3333333,19.621333,103.06933)" />
    <path
       id="path2"
       d="M -2.07224,2.39104 C -1.69365,0.95639 -0.84999,0.27895 0,0 -0.84999,-0.27895 -1.69365,-0.95639 -2.07224,-2.39104"
       style="fill:none;stroke:#000000;stroke-width:0.3985;stroke-linecap:round;stroke-linejoin:round;stroke-miterlimit:10;stroke-dasharray:none;stroke-opacity:1"
       transform="matrix(0,-1.3333333,-1.3333333,0,19.621333,8.8456133)" />
    <path
       id="path3"
       d="M -2.07224,2.39104 C -1.69365,0.95639 -0.84999,0.27895 0,0 -0.84999,-0.27895 -1.69365,-0.95639 -2.07224,-2.39104"
       style="fill:none;stroke:#000000;stroke-width:0.3985;stroke-linecap:round;stroke-linejoin:round;stroke-miterlimit:10;stroke-dasharray:none;stroke-opacity:1"
       transform="matrix(1.3333333,0,0,-1.3333333,113.84505,103.06933)" />
    <path
       id="path4"
       d="m 0.44588281,1.2190781 c -0.0820313,0.3398438 -0.09375,0.4101563 -0.5390625,0.4101563 -0.1171875,0 -0.22265625,0 -0.22265625,0.1875 0,0.082031 0.046875,0.1171875 0.12890625,0.1171875 0.26953125,0 0.55078125,-0.035156 0.83203125,-0.035156 0.328125,0 0.66796874,0.035156 0.98437504,0.035156 0.058594,0 0.1875,0 0.1875,-0.1992188 0,-0.1054687 -0.1054688,-0.1054687 -0.2460938,-0.1054687 -0.4921875,0 -0.4921875,-0.070312 -0.4921875,-0.1640625 0,-0.1171875 0.421875,-1.74609377 0.4804688,-1.99218752 0.140625,0.29296875 0.4101562,0.6328125 0.9257812,0.6328125 1.1484375,0 2.4023438,-1.45312498 2.4023438,-2.91796878 0,-0.9375 -0.5742188,-1.59375 -1.3359375,-1.59375 -0.4921875,0 -0.9726563,0.3632813 -1.3007813,0.75 -0.09375,-0.5390625 -0.5273437,-0.75 -0.890625,-0.75 -0.45703124,0 -0.65624999,0.3867188 -0.73828124,0.5742188 -0.1875,0.3398437 -0.31640625,0.9375 -0.31640625,0.9609375 0,0.1054687 0.10546875,0.1054687 0.12890625,0.1054687 0.09375,0 0.10546875,-0.011719 0.1640625,-0.234375 0.1640625,-0.703125 0.36328125,-1.1835937 0.72656254,-1.1835937 0.1757812,0 0.3046875,0.082031 0.3046875,0.4570312 0,0.234375 -0.023437,0.3398438 -0.070312,0.5039063 z M 2.2036953,-3.1051406 c 0.070312,-0.2695313 0.3398438,-0.5507813 0.515625,-0.703125 0.3515625,-0.3046875 0.6328125,-0.375 0.8085938,-0.375 0.3984375,0 0.6328125,0.3515625 0.6328125,0.9375 0,0.5859375 -0.328125,1.734375 -0.5039063,2.109375 -0.3398437,0.70312498 -0.8203125,1.03124998 -1.1835937,1.03124998 -0.65625,0 -0.7851563,-0.83203125 -0.7851563,-0.890625 0,-0.0234375 0,-0.0351563 0.023437,-0.16406248 z m 0,0"
       style="fill:#000000;fill-opacity:1;fill-rule:nonzero;stroke:none"
       aria-label="p"
       transform="matrix(1.3333333,0,0,1.3333333,8.2453333,10.148)" />
    <path
       id="path5"
       d="m 7.3704297,-4.3477734 c 0,-1.59375 -1.0546875,-2.671875 -2.5429688,-2.671875 -2.1445312,0 -4.33593746,2.2617187 -4.33593746,4.5820312 0,1.65234376 1.11328126,2.66015626 2.54296876,2.66015626 2.109375,0 4.3359375,-2.17968746 4.3359375,-4.57031246 z m -4.2773438,4.31249996 c -0.984375,0 -1.6757812,-0.80859375 -1.6757812,-2.12109376 0,-0.4453125 0.140625,-1.8984375 0.9023437,-3.0585937 0.6914063,-1.0429688 1.6640625,-1.5585938 2.4492188,-1.5585938 0.8203125,0 1.7109375,0.5625 1.7109375,2.0390625 0,0.7148438 -0.2695313,2.2734375 -1.2539063,3.5039063 -0.4804687,0.59765621 -1.2890625,1.19531246 -2.1328125,1.19531246 z m 0,0"
       style="fill:#000000;fill-opacity:1;fill-rule:nonzero;stroke:none"
       aria-label="O"
       transform="matrix(1.3333333,0,0,1.3333333,4.4266667,116.84)" />
    <path
       id="path6"
       d="m 6.2591016,-5.6719922 c 0.4804687,-0.7734375 0.9023437,-0.8085937 1.2773437,-0.8203125 0.1171875,-0.011719 0.1289063,-0.1875 0.1289063,-0.1875 0,-0.082031 -0.058594,-0.1289062 -0.1289063,-0.1289062 -0.2578125,0 -0.5507812,0.035156 -0.8203125,0.035156 -0.328125,0 -0.6679687,-0.035156 -0.984375,-0.035156 -0.058594,0 -0.1875,0 -0.1875,0.1992187 0,0.1054688 0.082031,0.1171875 0.1523438,0.1171875 0.2695312,0.011719 0.4570312,0.1171875 0.4570312,0.328125 0,0.1523438 -0.140625,0.3632813 -0.140625,0.375 L 2.9544141,-0.92589844 2.2747266,-6.1993359 c 0,-0.1640625 0.2226562,-0.2929688 0.6796875,-0.2929688 0.140625,0 0.2578125,0 0.2578125,-0.1992187 0,-0.09375 -0.082031,-0.1171875 -0.140625,-0.1171875 -0.3984375,0 -0.8320313,0.035156 -1.2421875,0.035156 -0.1757813,0 -0.3632813,-0.011719 -0.5390625,-0.011719 -0.1875,0 -0.37500004,-0.023437 -0.53906254,-0.023437 -0.0703125,0 -0.1875,0 -0.1875,0.1992187 0,0.1171875 0.0820313,0.1171875 0.24609375,0.1171875 0.55078129,0 0.56249999,0.082031 0.59765629,0.3398438 l 0.7851562,6.14062496 c 0.035156,0.19921875 0.070312,0.234375 0.1992188,0.234375 0.1640625,0 0.1992187,-0.0585938 0.28125,-0.1875 z m 0,0"
       style="fill:#000000;fill-opacity:1;fill-rule:nonzero;stroke:none"
       aria-label="V"
       transform="matrix(1.3333333,0,0,1.3333333,108.76,116.84)" />
    <path
       id="path7"
       d="m 56.69385,5.3148 -1.77126,0.51471 -1.77124,0.54717 -1.77124,0.58717 -1.77124,0.62825 -1.77125,0.67478 -1.77124,0.72665 -1.77124,0.78398 -1.77124,0.85101 -1.77124,0.92457 -1.77126,1.00779 -1.77124,1.10407 -1.77124,1.21434 -1.77124,1.3398 -1.77124,1.49008 -1.77126,1.66636 -1.77124,1.87613 -1.77124,2.12485 -1.77124,2.42869 -1.77124,2.79745 -1.77127,3.26673 -1.77124,3.86367 -1.77124,4.63249 -1.77124,5.66083 -1.77124,7.07524"
       style="fill:none;stroke:#0000ff;stroke-width:0.3985;stroke-linecap:butt;stroke-linejoin:miter;stroke-miterlimit:10;stroke-dasharray:none;stroke-opacity:1"
       transform="matrix(1.3333333,0,0,-1.3333333,19.621333,103.06933)" />
    <path
       id="path8"
       d="M -2.07224,2.39104 C -1.69365,0.95639 -0.84999,0.27895 0,0 -0.84999,-0.27895 -1.69365,-0.95639 -2.07224,-2.39104"
       style="fill:none;stroke:#0000ff;stroke-width:0.3985;stroke-linecap:round;stroke-linejoin:round;stroke-miterlimit:10;stroke-dasharray:none;stroke-opacity:1"
       transform="matrix(-0.85365333,-1.0241733,-1.0241733,0.85365333,56.632293,73.780827)" />
    <path
       id="path9"
       d="m 2.4731562,-7.4647031 -0.09375,0.3164062 c -0.023437,0.140625 -0.2226562,0.5390625 -0.5859375,1.2070313 -0.3515625,0.6796875 -0.609375,1.125 -0.7617187,1.3242187 -0.1640625,0.1992188 -0.28125,0.328125 -0.3515625,0.3867188 -0.0820313,0.046875 -0.1875,0.1054687 -0.31640625,0.1523437 l 0.328125,0.6210938 L 0.938,-3.5740781 c 0.1875,-0.1054688 0.7148437,-0.2226563 1.5820312,-0.3632813 -0.2929687,0.515625 -0.5507812,0.9257813 -0.7617187,1.2304688 -0.2109375,0.2929687 -0.375,0.4804687 -0.46875,0.5742187 -0.1054688,0.09375 -0.2578125,0.1523438 -0.48046875,0.1992188 l 0.32812495,0.703125 0.2578125,-0.140625 c 0.2460938,-0.1523438 1.125,-0.3867188 2.6367188,-0.6679688 v -0.1640625 c -0.703125,0.070312 -1.5117188,0.140625 -2.4257813,0.2109375 0.3515625,-0.4335937 0.6914063,-0.8789062 1.0195313,-1.3125 0.328125,-0.4335937 0.7734375,-1.0429687 1.3359375,-1.8515625 l 0.2109375,-0.035156 c 0.082031,-0.023437 0.1171875,-0.035156 0.1289062,-0.070312 0.011719,-0.023437 -0.023437,-0.070312 -0.09375,-0.1171875 l -0.6796875,-0.503907 -0.1171875,0.3398438 c -0.058594,0.1757812 -0.2929687,0.609375 -0.7148437,1.3359375 l -1.6289063,0.035156 0.328125,-0.421875 L 2.438,-6.0350156 c 0.1171875,-0.1523438 0.28125,-0.3867188 0.515625,-0.703125 l 0.2695312,-0.082031 c 0.058594,-0.023437 0.082031,-0.046875 0.082031,-0.058594 0,-0.023437 -0.035156,-0.058594 -0.1054688,-0.1171875 z M 0.55128125,1.40625e-4 0.94971875,0.78529688 1.1840937,0.62123438 C 1.313,0.51576563 1.5122187,0.42201563 1.78175,0.31654688 2.0512812,0.21107813 2.813,-0.07017187 4.03175,-0.51548437 l -0.035156,-0.1171875 c -1.1835937,0.28125 -1.96875,0.45703125 -2.3671875,0.50390625 -0.375,0.046875 -0.7382812,0.09375 -1.07812525,0.128906245 z M 3.422375,-3.1522031 l 0.1054687,0.09375 c 0.2109375,-0.2226563 0.5507813,-0.5976563 1.0195313,-1.125 v 4.54687498 c 0,0.2578125 0,0.45703125 0.035156,0.59765625 0.035156,0.15234377 0.140625,0.26953127 0.3164063,0.33984377 0.1992187,0.070312 0.84375,0.1171875 1.9570312,0.1054687 l 1.265625,-0.046875 c 0.328125,0 0.5507813,-0.035156 0.703125,-0.082031 C 8.9770625,1.2306094 9.09425,1.1602969 9.188,1.0782656 9.28175,0.9845156 9.3403437,0.91420313 9.3637812,0.85560938 c 0.035156,-0.046875 0.046875,-0.1171875 0.070312,-0.19921875 L 9.2114375,0.50404688 C 9.141125,0.45717188 9.0825312,0.36342188 9.047375,0.23451563 9.0005,0.10560938 8.9887812,-0.05845312 8.9770625,-0.23423437 c -0.011719,-0.1875 -0.023437,-0.41015625 -0.035156,-0.69140625 l -0.1054687,0.0234375 c -0.046875,0.328125 -0.1054688,0.59765625 -0.1289063,0.796875 -0.035156,0.2109375 -0.070312,0.38671875 -0.1171875,0.52734375 -0.058594,0.12890625 -0.09375,0.2109375 -0.140625,0.26953125 -0.058594,0.046875 -0.140625,0.0703125 -0.2460937,0.0703125 -0.1171875,0 -0.3515625,0.0117188 -0.6914063,0.046875 -0.3515625,0.0234375 -0.75,0.0351563 -1.171875,0.0234375 -0.4453125,0 -0.7265625,0 -0.84375,0 -0.1054687,0 -0.1992187,-0.0117188 -0.2695312,-0.0585938 C 5.15675,0.73842188 5.1215937,0.69154688 5.0981562,0.62123438 5.0747187,0.55092188 5.063,0.37514063 5.063,0.09389063 V -1.8748594 h 2.9648437 v 0.4335938 c 0.09375,-0.035156 0.1875,-0.058594 0.3046875,-0.1171875 0.09375,-0.035156 0.1875,-0.070312 0.2695313,-0.1054688 l -0.035156,-0.8320312 v -1.4648438 l 0.234375,-0.2109375 c 0.082031,-0.082031 0.1289063,-0.1171875 0.1289063,-0.1289062 0,0 -0.058594,-0.046875 -0.1640625,-0.1289063 L 8.2622187,-4.7928281 7.9575312,-4.3592344 h -1.21875 c 0.5273438,-0.6679687 0.8671875,-1.0664062 1.0546875,-1.1953125 0.1640625,-0.140625 0.2929688,-0.2226562 0.375,-0.234375 L 8.34425,-5.8123594 c 0.058594,0 0.082031,-0.023437 0.09375,-0.070312 0.011719,-0.011719 -0.023437,-0.070312 -0.1054688,-0.1640625 L 7.734875,-6.6209531 7.3364375,-6.1873594 h -1.453125 l 0.4570312,-0.8203125 0.1875,-0.070312 c 0.070312,-0.011719 0.1054688,-0.035156 0.1054688,-0.058594 0.011719,-0.023437 -0.046875,-0.070312 -0.1523438,-0.140625 l -0.7382812,-0.421875 -0.1054688,0.3984375 c -0.035156,0.1875 -0.1171875,0.421875 -0.234375,0.7265625 C 5.2856562,-6.2693906 5.1684687,-5.9998594 5.063,-5.7537656 4.9458125,-5.5311094 4.7465937,-5.1795469 4.4887812,-4.7225156 4.21925,-4.2772031 3.8676875,-3.7498594 3.422375,-3.1522031 Z m 1.4296875,-1.4648438 c 0.3164062,-0.4570312 0.6210937,-0.9023437 0.890625,-1.3359375 H 7.3950312 L 6.9497187,-5.1443906 C 6.9028437,-5.0506406 6.7505,-4.7928281 6.4926875,-4.3592344 H 5.2153437 Z M 5.063,-2.0975156 v -2.0273438 h 1.1835937 v 2.0273438 z m 1.6992187,0 v -2.0273438 h 1.265625 l -0.011719,2.0273438 z m 3.7265623,-1.5 0.421875,0.7265625 c 0.351563,-0.2226563 0.621094,-0.375 0.832031,-0.4804688 0.210938,-0.082031 0.46875,-0.1992187 0.773438,-0.3164062 v 1.6289062 c 0,0.1054688 -0.02344,0.1757813 -0.08203,0.2109375 -0.05859,0.023437 -0.1875,0.023437 -0.386719,0.011719 -0.199219,0 -0.480469,-0.046875 -0.855469,-0.1171875 l -0.01172,0.1289062 0.222657,0.09375 0.28125,0.09375 c 0.234375,0.1171875 0.375,0.2109375 0.433593,0.3164063 0.04687,0.1054687 0.08203,0.2109375 0.117188,0.33984373 0.222656,-0.0703125 0.410156,-0.14062503 0.539062,-0.21093753 0.128907,-0.070312 0.210938,-0.140625 0.246094,-0.2460937 0.03516,-0.082031 0.04687,-0.1757813 0.04687,-0.28125 v -2.2148438 l 0.199219,-0.09375 0.820312,-0.375 c 0.09375,-0.035156 0.222657,-0.1054687 0.398438,-0.1992187 l -0.03516,-0.140625 c -0.140625,0.046875 -0.339844,0.1171875 -0.644532,0.2226562 -0.292968,0.082031 -0.550781,0.1640625 -0.738281,0.234375 v -1.3007812 h 1.523438 c 0.105468,0 0.164062,-0.011719 0.175781,-0.035156 0.01172,-0.011719 -0.02344,-0.070312 -0.09375,-0.1523437 l -0.550781,-0.5976563 -0.46875,0.5625 h -0.585938 v -1.078125 l 0.28125,-0.1875 c 0.09375,-0.058594 0.128906,-0.09375 0.128906,-0.1171875 0,-0.023437 -0.03516,-0.046875 -0.128906,-0.09375 l -0.878906,-0.3398437 0.04687,0.7382812 v 1.078125 H 11.21533 l -0.492188,-0.023437 0.351563,0.4453125 c 0.257812,-0.1289062 0.585937,-0.1992187 0.984375,-0.1992187 h 0.457031 v 1.4765625 c -0.738281,0.2226562 -1.417969,0.3984375 -2.027344,0.4921875 z m 1.347656,2.84765623 -0.05859,0.36328125 c -0.01172,0.046875 -0.05859,0.1875 -0.164063,0.41015625 -0.09375,0.2109375 -0.234375,0.41015625 -0.421875,0.57421875 l -0.304687,0.234375 c -0.117188,0.1171875 -0.175782,0.19921872 -0.164063,0.25781252 0,0.058594 0.02344,0.1171875 0.07031,0.1640625 0.07031,0.046875 0.140625,0.082031 0.257812,0.082031 0.1875,0.011719 0.351563,-0.058594 0.492188,-0.1757812 0.140625,-0.140625 0.234375,-0.25781252 0.28125,-0.38671877 0.04687,-0.10546875 0.09375,-0.24609375 0.105468,-0.3984375 0.04687,-0.140625 0.05859,-0.26953125 0.05859,-0.375000005 0.01172,-0.128906245 0,-0.257812495 0,-0.374999995 -0.01172,-0.1171875 -0.02344,-0.24609375 -0.04687,-0.38671875 z m 1.21875,-0.24609375 0.05859,0.10546875 c 1.160156,-0.53906253 1.863281,-1.00781253 2.085938,-1.40625003 0.234375,-0.4101562 0.375,-0.6796875 0.445312,-0.8085937 l 0.28125,0.328125 c 0.04687,0.046875 0.117188,0.1523437 0.210938,0.2929687 0.09375,0.1523438 0.164062,0.2460938 0.199218,0.2695313 0.128907,0.1289062 0.246094,0.070312 0.363282,-0.1523438 0.04687,-0.1171875 0.07031,-0.1992187 0.05859,-0.28125 0,-0.082031 -0.03516,-0.1640625 -0.08203,-0.2578125 -0.05859,-0.082031 -0.164062,-0.1875 -0.292969,-0.28125 -0.128906,-0.1054687 -0.316406,-0.234375 -0.5625,-0.3984375 0.07031,-0.234375 0.117188,-0.46875 0.140625,-0.6796875 0.03516,-0.2109375 0.07031,-0.5507812 0.117188,-1.0195312 l 1.21875,-0.2226563 -0.01172,0.6210938 c -0.01172,0.3867187 0,0.75 0.01172,1.1132812 0,0.3515625 0.03516,0.6445313 0.07031,0.8789063 0.02344,0.2226562 0.09375,0.46875 0.1875,0.7265625 0.08203,0.2695312 0.246094,0.46875 0.457032,0.6328125 0.222656,0.1757812 0.398437,0.28125 0.515625,0.328125 0.128906,0.046875 0.269531,0.09375 0.421875,0.1171875 0.140625,0.035156 0.234375,0.046875 0.292968,0.046875 0.117188,-0.011719 0.1875,-0.058594 0.1875,-0.1757813 0.01172,-0.046875 -0.01172,-0.140625 -0.07031,-0.2460937 -0.05859,-0.1054688 -0.09375,-0.234375 -0.128906,-0.3515625 -0.02344,-0.140625 -0.04687,-0.28125 -0.03516,-0.421875 0.01172,-0.140625 0.02344,-0.28125 0.03516,-0.4335938 0,-0.1523437 0.02344,-0.3515625 0.05859,-0.609375 l -0.128906,-0.023437 c -0.117187,0.421875 -0.1875,0.6796875 -0.199219,0.75 l -0.128906,0.375 c -0.05859,0.1640625 -0.105469,0.2578125 -0.152344,0.28125 -0.117187,0.023437 -0.246093,-0.035156 -0.386718,-0.1992187 -0.128907,-0.1640625 -0.234375,-0.328125 -0.304688,-0.4804688 -0.07031,-0.1640625 -0.105469,-0.375 -0.140625,-0.6328125 -0.01172,-0.2578125 -0.02344,-0.5390625 -0.02344,-0.8554687 -0.01172,-0.328125 -0.01172,-0.5742188 0.01172,-0.7382813 0,-0.1757812 0.01172,-0.3515625 0.03516,-0.5507812 l 0.257812,-0.234375 c 0.07031,-0.046875 0.105469,-0.082031 0.105469,-0.1054688 0,-0.035156 -0.07031,-0.09375 -0.210938,-0.1875 l -0.5625,-0.328125 -0.234375,0.5039063 -1.136718,0.2109375 0.04687,-0.65625 c 0.01172,-0.1289063 0.02344,-0.421875 0.03516,-0.9140625 l 0.222656,-0.140625 c 0.07031,-0.046875 0.105469,-0.070312 0.105469,-0.1054688 0,-0.023437 -0.03516,-0.046875 -0.105469,-0.082031 l -0.855469,-0.328125 0.02344,0.4570312 v 1.5117188 c 0,0.1289062 0,0.234375 -0.01172,0.3398437 l -0.679687,0.1054688 -0.492188,0.058594 0.363281,0.2578125 c 0.234375,-0.09375 0.386719,-0.140625 0.46875,-0.1523437 l 0.328125,-0.046875 c -0.03516,0.4804687 -0.08203,0.796875 -0.117187,0.9492187 -0.03516,0.1523438 -0.07031,0.2929688 -0.105469,0.3984375 -0.199219,-0.082031 -0.421875,-0.1757812 -0.679687,-0.3046875 l -0.05859,0.1289063 0.199219,0.140625 0.269531,0.1992187 c 0.04687,0.035156 0.105469,0.09375 0.199219,0.1757813 -0.105469,0.3164062 -0.210938,0.5742187 -0.339844,0.7617187 -0.128906,0.1875 -0.304688,0.421875 -0.527344,0.6796875 -0.234375,0.2578125 -0.46875,0.46875 -0.679687,0.6328125 -0.222657,0.140625 -0.445313,0.2929688 -0.644532,0.43359378 z m 0.222657,0.421875 c 0.105468,0.19921875 0.175781,0.33984375 0.1875,0.4453125 0.03516,0.09375 0.04687,0.2109375 0.07031,0.328125 0.02344,0.10546875 0.03516,0.2109375 0.04687,0.3046875 v 0.3984375 c 0,0.11718752 0.02344,0.17578122 0.05859,0.19921872 0.04687,0.035156 0.117187,0.023437 0.222656,-0.023437 0.105469,-0.046875 0.1875,-0.11718747 0.246094,-0.18749997 0.07031,-0.1171875 0.117187,-0.24609375 0.117187,-0.375 0,-0.140625 -0.08203,-0.31640625 -0.246093,-0.5390625 -0.152344,-0.2109375 -0.363282,-0.421875 -0.609375,-0.62109375 z m 2.039062,-0.09375 c 0.1875,0.24609375 0.316406,0.45703125 0.386719,0.6328125 0.07031,0.1640625 0.117187,0.33984375 0.140625,0.5390625 0.02344,0.19921875 0.05859,0.33984375 0.08203,0.41015625 0.03516,0.0703125 0.08203,0.11718747 0.128906,0.12890627 0.05859,0.011719 0.117188,-0.011719 0.199219,-0.046875 0.05859,-0.0585938 0.117188,-0.12890625 0.175781,-0.22265625 0.05859,-0.10546875 0.08203,-0.19921875 0.08203,-0.26953125 -0.01172,-0.09375 -0.03516,-0.19921875 -0.105469,-0.3046875 -0.07031,-0.1171875 -0.164063,-0.2578125 -0.316406,-0.421875 -0.152344,-0.140625 -0.386719,-0.33984375 -0.703125,-0.55078125 z m 1.957031,-0.0117188 c 0.246094,0.26953125 0.421875,0.4453125 0.515625,0.5625 0.09375,0.10546875 0.175782,0.22265625 0.246094,0.3515625 0.07031,0.12890625 0.152344,0.29296875 0.222656,0.46875 l 0.128907,0.39843752 c 0.03516,0.1171875 0.07031,0.1875 0.117187,0.1992188 0.05859,0.046875 0.128906,0.046875 0.199219,0 0.07031,-0.035156 0.140625,-0.1289063 0.210937,-0.2460938 0.07031,-0.14062502 0.105469,-0.25781252 0.117188,-0.37500002 0,-0.09375 -0.02344,-0.1875 -0.08203,-0.3046875 -0.04687,-0.10546875 -0.234375,-0.26953125 -0.539063,-0.515625 -0.316406,-0.22265625 -0.679687,-0.43359375 -1.089844,-0.6328125 z m 0,0"
       style="fill:#0000ff;fill-opacity:1;fill-rule:nonzero;stroke:none"
       aria-label="绝热"
       transform="matrix(1.3333333,0,0,1.3333333,25.249333,77.492)" />
    <path
       id="path10"
       d="m 14.17317,53.1481 1.77126,-5.90304 1.77124,-4.72441 1.77124,-3.86365 1.77124,-3.22133 1.77124,-2.72714 1.77125,-2.33356 1.77124,-2.02427 1.77124,-1.77233 1.77124,-1.56471 1.77124,-1.38951 1.77126,-1.24357 1.77124,-1.11918 1.77124,-1.00998 1.77124,-0.92131 1.77124,-0.83911 1.77126,-0.771 1.77124,-0.70938 1.77124,-0.65421 1.77124,-0.60556 1.77125,-0.56228 1.77126,-0.52446 1.77124,-0.48877 1.77124,-0.4574 1.77124,-0.42822"
       style="fill:none;stroke:#0000ff;stroke-width:0.3985;stroke-linecap:butt;stroke-linejoin:miter;stroke-miterlimit:10;stroke-dasharray:none;stroke-opacity:1"
       transform="matrix(1.3333333,0,0,-1.3333333,19.621333,103.06933)" />
    <path
       id="path11"
       d="M -2.07224,2.39104 C -1.69365,0.95639 -0.84999,0.27895 0,0 -0.84999,-0.27895 -1.69365,-0.95639 -2.07224,-2.39104"
       style="fill:none;stroke:#0000ff;stroke-width:0.3985;stroke-linecap:round;stroke-linejoin:round;stroke-miterlimit:10;stroke-dasharray:none;stroke-opacity:1"
       transform="matrix(0.9992,0.88270667,0.88270667,-0.9992,57.788587,67.964067)" />
    <path
       id="path12"
       d="m 0.45721094,-3.0109766 0.421875,0.3867188 C 1.0665859,-2.7180078 1.3009609,-2.7531641 1.5822109,-2.7531641 h 7.78125 c 0.058594,0 0.09375,-0.011719 0.1054688,-0.023437 0,-0.011719 -0.023437,-0.046875 -0.070312,-0.1054687 L 8.7306484,-3.6086328 8.2033047,-3.0109766 H 5.1915859 v -0.9492187 h 3.2226563 c 0.058594,0 0.09375,-0.011719 0.1054687,-0.046875 0.011719,-0.023437 -0.011719,-0.058594 -0.046875,-0.09375 L 7.8283047,-4.6984766 7.4298672,-4.1945703 H 5.1915859 v -0.6210938 l 0.1992188,-0.1289062 c 0.1054687,-0.070312 0.1523437,-0.1054688 0.1523437,-0.1171875 0,-0.023437 -0.035156,-0.035156 -0.082031,-0.070312 l -0.28125,-0.1171875 0.2226562,-0.2695313 0.4101563,-0.515625 c 0.046875,-0.046875 0.1171875,-0.1289062 0.1992187,-0.2460937 h 0.7617188 l 0.1289062,0.2460937 c 0.070312,0.09375 0.140625,0.2929688 0.2109375,0.5976563 0.023437,0.1289062 0.046875,0.234375 0.035156,0.3398437 0,0.082031 0.011719,0.140625 0.023437,0.1523438 0.035156,0.1054687 0.1054687,0.1289062 0.2226562,0.1054687 0.09375,-0.035156 0.1757813,-0.1054687 0.2226563,-0.2109375 0.058594,-0.1054687 0.070312,-0.1875 0.070312,-0.2578125 0,-0.1054687 -0.035156,-0.2109375 -0.09375,-0.3046875 -0.082031,-0.082031 -0.3046875,-0.3046875 -0.6679688,-0.6679687 h 2.3320313 c 0.046875,0 0.082031,0 0.09375,-0.035156 0.011719,-0.023437 0,-0.046875 -0.023437,-0.082031 L 8.6486172,-6.9836328 8.2384609,-6.5031641 H 6.1876797 c 0.1640625,-0.234375 0.3164062,-0.4570312 0.4570312,-0.6445312 l 0.234375,-0.058594 c 0.046875,-0.011719 0.082031,-0.035156 0.09375,-0.070312 0.023437,-0.011719 -0.023437,-0.058594 -0.1171875,-0.1171875 L 6.1642422,-7.7922263 6.0822112,-7.47582 C 6.0236172,-7.2648825 5.9415862,-7.00707 5.7892425,-6.6906638 5.6368987,-6.3859763 5.390805,-5.928945 5.0275237,-5.31957 L 4.6290862,-5.4953513 4.6876802,-4.66332 v 0.46875 H 2.5665859 l -0.75,-0.023437 0.421875,0.3984375 c 0.2578125,-0.09375 0.4921875,-0.140625 0.7148438,-0.140625 h 1.734375 v 0.9492187 z m 2.17968746,-4.7578125 -0.082031,0.2578125 c -0.058594,0.1523438 -0.140625,0.3515625 -0.28125,0.6210938 -0.1289063,0.2578125 -0.2929688,0.5390625 -0.4804688,0.8320312 -0.1757812,0.2929688 -0.3632812,0.5625 -0.5390625,0.8085938 l -0.42187496,0.5507812 c -0.0585938,0.058594 -0.1171875,0.1523438 -0.19921875,0.2695313 l 0.0820313,0.082031 c 0.52734371,-0.5039062 0.90234371,-0.8671875 1.08984371,-1.078125 0.1875,-0.2226562 0.4101562,-0.4921875 0.65625,-0.8203125 h 0.6445312 l 0.140625,0.2578125 c 0.035156,0.046875 0.058594,0.140625 0.1054688,0.2460938 0.035156,0.1171875 0.070312,0.2460937 0.09375,0.3867187 0.035156,0.140625 0.046875,0.2578125 0.046875,0.3632813 0,0.1054687 0.011719,0.1757812 0.035156,0.1875 0.023437,0.011719 0.035156,0.023437 0.070312,0.023437 0.070312,0.011719 0.140625,-0.035156 0.2226564,-0.1171875 0.070312,-0.1054688 0.1289062,-0.1875 0.1640625,-0.2460938 0.035156,-0.070312 0.046875,-0.140625 0.035156,-0.2109375 0,-0.082031 -0.046875,-0.1640625 -0.1171874,-0.2578125 -0.070312,-0.082031 -0.28125,-0.2929687 -0.609375,-0.6328125 h 1.7929687 c 0.023437,0 0.046875,-0.011719 0.058594,-0.035156 0.011719,-0.011719 0,-0.046875 -0.046875,-0.070312 l -0.703125,-0.5976563 -0.375,0.46875 H 2.6368984 l 0.46875,-0.6210937 0.2578125,-0.046875 c 0.058594,-0.011719 0.1054688,-0.023437 0.1171875,-0.058594 0.011719,-0.023437 -0.035156,-0.070312 -0.140625,-0.140625 z m -1.6054687,6.1523438 0.4101562,0.3867187 c 0.2109375,-0.082031 0.4570313,-0.1289062 0.7148438,-0.1289062 h 0.9960937 c 0.3164063,0.3515625 0.515625,0.62109374 0.5976563,0.84374999 0.070312,0.19921875 0.1171875,0.3515625 0.140625,0.45703125 0,0.09375 0.023437,0.1640625 0.058594,0.19921875 0.011719,0.0234375 0.046875,0.046875 0.09375,0.0585938 0.1054685,0.0117187 0.222656,-0.0468751 0.316406,-0.1992188025 C 4.4415859,-0.10472656 4.4767422,-0.22191406 4.4650234,-0.33910156 4.4533047,-0.43285156 4.4064297,-0.56175781 4.2892422,-0.65550781 4.1837734,-0.77269531 3.8790859,-1.0070703 3.3868984,-1.3586328 h 3.046875 v 1.88671874 c 0,0.09375 -0.023437,0.17578125 -0.082031,0.234375 -0.035156,0.0703125 -0.1992188,0.0703125 -0.46875,0.0234375 -0.2695313,-0.046875 -0.5742188,-0.10546875 -0.9375,-0.1640625 l -0.023437,0.140625 c 0.4570312,0.1640625 0.7382812,0.28124996 0.8554687,0.37499996 0.1054688,0.09375 0.1640625,0.1640625 0.1757813,0.2578125 0.023437,0.082031 0.035156,0.1640625 0.035156,0.2460938 0.1523438,-0.023437 0.328125,-0.09375 0.5273438,-0.2109375 0.1992187,-0.1054688 0.328125,-0.2109375 0.375,-0.328125 0.058594,-0.10546876 0.09375,-0.21093751 0.09375,-0.30468751 V -1.3586328 h 2.15625 c 0.058594,0 0.1054687,0 0.1171875,-0.011719 0.011719,-0.011719 -0.023437,-0.058594 -0.1171875,-0.140625 L 8.4728359,-2.1086328 8.0743984,-1.5695703 H 6.9845547 v -0.515625 l 0.1992187,-0.082031 c 0.09375,-0.058594 0.1289063,-0.082031 0.1289063,-0.1054687 -0.011719,-0.011719 -0.035156,-0.023437 -0.09375,-0.058594 l -0.8320313,-0.3867187 0.046875,0.84375 v 0.3046875 H 1.9572109 Z m 9.5068363,-3.5625 -0.07031,0.09375 c 0.175781,0.1640625 0.292969,0.28125 0.375,0.375 0.08203,0.09375 0.175781,0.2226562 0.28125,0.3984375 0.105469,0.1757812 0.175781,0.328125 0.210938,0.4570312 0.04687,0.1289063 0.07031,0.2109375 0.105468,0.2695313 0.02344,0.035156 0.07031,0.070312 0.117188,0.070312 0.03516,0.011719 0.08203,-0.011719 0.140625,-0.058594 0.04687,-0.046875 0.09375,-0.1171875 0.152344,-0.2109375 0.04687,-0.1054687 0.07031,-0.2226562 0.07031,-0.3398437 0,-0.1289063 -0.04687,-0.234375 -0.140625,-0.3632813 -0.08203,-0.09375 -0.257812,-0.2226562 -0.515625,-0.3515625 -0.257812,-0.1289062 -0.492187,-0.2460937 -0.726562,-0.3398437 z m 0.02344,3.5039062 -0.03516,0.1289063 c 0.292969,0.09375 0.46875,0.1523437 0.574219,0.2109375 0.08203,0.035156 0.164062,0.1171875 0.222656,0.1992187 0.07031,0.1054688 0.105469,0.22265629 0.117187,0.37500004 0.01172,0.12890625 -0.02344,0.328125 -0.05859,0.59765625 -0.05859,0.26953125 -0.105469,0.48046875 -0.152344,0.64453125 -0.04687,0.1875 -0.08203,0.328125 -0.07031,0.421875 0.01172,0.0820313 0.03516,0.16406246 0.08203,0.21093746 0.04687,0.046875 0.117187,0.1171875 0.222656,0.1640625 0.117187,0.058594 0.199219,0.082031 0.257812,0.082031 0.164063,0 0.257813,-0.1289063 0.257813,-0.36328126 0,-0.0820313 -0.01172,-0.22265625 -0.02344,-0.43359375 l -0.04687,-0.78515625 c -0.03516,-0.38671875 -0.04687,-0.6328125 -0.03516,-0.7734375 0,-0.11718754 0.04687,-0.35156254 0.128906,-0.67968754 0.08203,-0.3164062 0.234375,-0.796875 0.445313,-1.4296875 0.210937,-0.6328125 0.585937,-1.7109375 1.136719,-3.234375 l -0.128907,-0.046875 c -0.164062,0.375 -0.351562,0.8203125 -0.5625,1.3242188 l -0.703125,1.7460937 c -0.199218,0.5039063 -0.363281,0.8671875 -0.46875,1.1015625 -0.09375,0.2226563 -0.175781,0.375 -0.222656,0.4453125 -0.05859,0.058594 -0.117187,0.09375 -0.199219,0.1289063 -0.05859,0.023437 -0.152343,0.035156 -0.257812,0.023437 -0.117188,-0.011719 -0.269531,-0.023437 -0.480469,-0.058594 z m 0.585938,-5.4257812 c 0.46875,0.3164062 0.75,0.6210937 0.84375,0.890625 0.105468,0.2695312 0.164062,0.4335937 0.199218,0.4921875 0.02344,0.058594 0.08203,0.09375 0.152344,0.09375 0.04687,0 0.105469,-0.035156 0.175781,-0.09375 0.07031,-0.058594 0.117188,-0.1289063 0.152344,-0.2109375 0.07031,-0.1640625 0.07031,-0.3164063 -0.01172,-0.4453125 -0.07031,-0.1289063 -0.152343,-0.2226563 -0.234375,-0.28125 -0.08203,-0.058594 -0.292968,-0.1523438 -0.632812,-0.3164063 -0.328125,-0.140625 -0.515625,-0.234375 -0.550781,-0.234375 z M 13.2453,0.68042969 H 12.694519 L 12.190612,0.64527339 12.542175,1.0788671 C 12.6828,1.0085551 12.811706,0.96167964 12.928894,0.94996089 13.0578,0.92652339 13.221862,0.91480459 13.4328,0.91480459 h 6.058594 c 0.140625,0 0.164062,-0.0585938 0.05859,-0.17578125 l -0.503906,-0.5625 -0.363281,0.50390625 H 18.518734 V -2.0969141 l 0.246094,-0.1992187 c 0.07031,-0.046875 0.09375,-0.070312 0.08203,-0.070312 0,-0.023437 -0.01172,-0.046875 -0.05859,-0.082031 l -0.585938,-0.4570312 -0.339844,0.46875 h -3.984375 l -0.691406,-0.4335938 0.07031,1.1601563 z m 0.609375,0 V -2.2141016 h 0.949219 v 2.89453129 z m 1.464844,0 V -2.2141016 h 1.03125 v 2.89453129 z m 1.59375,0 V -2.2141016 h 1.007812 v 2.89453129 z m -3.117188,-7.99218749 0.05859,1.03125 v 2.2617187 l -0.07031,1.1953125 c 0.363282,-0.1523437 0.550782,-0.2460937 0.5625,-0.2460937 0.01172,-0.023437 0.03516,-0.035156 0.09375,-0.082031 v -0.4921875 h 3.035157 v 0.6796875 c 0.257812,-0.058594 0.46875,-0.1640625 0.632812,-0.328125 l -0.05859,-1.125 v -2.109375 l 0.210938,-0.1523437 c 0.105469,-0.070312 0.152344,-0.1289063 0.152344,-0.140625 0,-0.023437 -0.02344,-0.058594 -0.05859,-0.09375 l -0.609375,-0.515625 -0.375,0.5039062 h -2.8125 z m 0.644531,3.421875 v -1.3125 h 3.035157 v 1.3125 z m 0,-1.5351563 v -1.265625 h 3.035157 v 1.265625 z m 0,0"
       style="fill:#0000ff;fill-opacity:1;fill-rule:nonzero;stroke:none"
       aria-label="等温"
       transform="matrix(1.3333333,0,0,1.3333333,56.378667,63.346667)" />
    <path
       id="path13"
       d="M 56.69385,13.28755 V 5.3148"
       style="fill:none;stroke:#0000ff;stroke-width:0.3985;stroke-linecap:butt;stroke-linejoin:miter;stroke-miterlimit:10;stroke-dasharray:none;stroke-opacity:1"
       transform="matrix(1.3333333,0,0,-1.3333333,19.621333,103.06933)" />
    <path
       id="path14"
       d="M -2.07224,2.39104 C -1.69365,0.95639 -0.84999,0.27895 0,0 -0.84999,-0.27895 -1.69365,-0.95639 -2.07224,-2.39104"
       style="fill:none;stroke:#0000ff;stroke-width:0.3985;stroke-linecap:round;stroke-linejoin:round;stroke-miterlimit:10;stroke-dasharray:none;stroke-opacity:1"
       transform="matrix(0,1.3333333,1.3333333,0,95.213133,90.402053)" />
    <path
       id="path15"
       d="m 0.45671875,-3.0124766 0.421875,0.3867188 C 1.0660938,-2.7195078 1.3004688,-2.7546641 1.5817188,-2.7546641 h 7.78125 c 0.058594,0 0.09375,-0.011719 0.1054687,-0.023437 0,-0.011719 -0.023437,-0.046875 -0.070312,-0.1054687 L 8.7301563,-3.6101328 8.2028125,-3.0124766 H 5.1910938 V -3.9616953 H 8.41375 c 0.058594,0 0.09375,-0.011719 0.1054688,-0.046875 0.011719,-0.023437 -0.011719,-0.058594 -0.046875,-0.09375 L 7.8278125,-4.6999766 7.429375,-4.1960703 H 5.1910938 v -0.6210938 l 0.1992187,-0.1289062 c 0.1054688,-0.070312 0.1523438,-0.1054688 0.1523438,-0.1171875 0,-0.023437 -0.035156,-0.035156 -0.082031,-0.070312 l -0.28125,-0.1171875 0.2226563,-0.2695313 0.4101562,-0.515625 c 0.046875,-0.046875 0.1171875,-0.1289062 0.1992188,-0.2460937 H 6.773125 l 0.1289063,0.2460937 c 0.070312,0.09375 0.140625,0.2929688 0.2109375,0.5976563 0.023437,0.1289062 0.046875,0.234375 0.035156,0.3398437 0,0.082031 0.011719,0.140625 0.023437,0.1523438 0.035156,0.1054687 0.1054688,0.1289062 0.2226563,0.1054687 0.09375,-0.035156 0.1757812,-0.1054687 0.2226562,-0.2109375 0.058594,-0.1054687 0.070312,-0.1875 0.070312,-0.2578125 0,-0.1054687 -0.035156,-0.2109375 -0.09375,-0.3046875 -0.08203,-0.082032 -0.3046863,-0.304688 -0.6679675,-0.6679692 H 9.2575 c 0.046875,0 0.082031,0 0.09375,-0.035156 0.011719,-0.023437 0,-0.046875 -0.023437,-0.082031 L 8.648125,-6.9851328 8.2379688,-6.5046641 H 6.1871875 C 6.35125,-6.7390391 6.5035938,-6.9616953 6.6442188,-7.1491953 l 0.234375,-0.058594 c 0.046875,-0.011719 0.082031,-0.035156 0.09375,-0.070312 0.023437,-0.011719 -0.023437,-0.058594 -0.1171875,-0.1171875 L 6.16375,-7.7937266 6.0817188,-7.4773203 c -0.058594,0.2109375 -0.140625,0.46875 -0.2929688,0.7851562 -0.1523437,0.3046875 -0.3984375,0.7617188 -0.7617187,1.3710938 l -0.3984375,-0.1757813 0.058594,0.8320313 v 0.46875 h -2.121094 l -0.75,-0.023437 0.421875,0.3984375 c 0.2578125,-0.09375 0.4921875,-0.140625 0.7148437,-0.140625 h 1.734375 v 0.9492187 z M 2.6364063,-7.7702891 2.554375,-7.5124766 c -0.058594,0.1523438 -0.140625,0.3515625 -0.28125,0.6210938 -0.1289062,0.2578125 -0.2929687,0.5390625 -0.4804687,0.8320312 -0.1757813,0.2929688 -0.3632813,0.5625 -0.5390625,0.8085938 L 0.83171875,-4.6999766 C 0.773125,-4.6413828 0.71453125,-4.5476328 0.6325,-4.4304453 l 0.0820313,0.082031 c 0.5273437,-0.503906 0.9023437,-0.8671873 1.0898437,-1.0781248 0.1875,-0.2226562 0.4101563,-0.4921875 0.65625,-0.8203125 h 0.6445313 l 0.140625,0.2578125 c 0.035156,0.046875 0.058594,0.140625 0.1054687,0.2460938 0.035156,0.1171875 0.070312,0.2460937 0.09375,0.3867187 0.035156,0.140625 0.046875,0.2578125 0.046875,0.3632813 0,0.1054687 0.011719,0.1757812 0.035156,0.1875 0.023437,0.011719 0.035156,0.023437 0.070312,0.023437 0.070312,0.011719 0.140625,-0.035156 0.2226562,-0.1171875 0.070312,-0.1054688 0.1289063,-0.1875 0.1640625,-0.2460938 0.035156,-0.070312 0.046875,-0.140625 0.035156,-0.2109375 0,-0.082031 -0.046875,-0.1640625 -0.1171875,-0.2578125 -0.070312,-0.082031 -0.28125,-0.2929687 -0.609375,-0.6328125 H 5.085625 c 0.023437,0 0.046875,-0.011719 0.058594,-0.035156 0.011719,-0.011719 0,-0.046875 -0.046875,-0.070312 l -0.703125,-0.5976563 -0.375,0.46875 H 2.6364063 l 0.46875,-0.6210937 0.2578125,-0.046875 c 0.058594,-0.011719 0.1054687,-0.023437 0.1171875,-0.058594 0.011719,-0.023437 -0.035156,-0.070312 -0.140625,-0.140625 z m -1.6054688,6.1523438 0.4101563,0.3867187 c 0.2109375,-0.082031 0.4570312,-0.1289062 0.7148437,-0.1289062 h 0.9960938 c 0.3164062,0.3515625 0.515625,0.62109374 0.5976562,0.84374999 0.070312,0.19921875 0.1171875,0.3515625 0.140625,0.45703125 0,0.09375 0.023437,0.1640625 0.058594,0.19921875 0.011719,0.0234375 0.046875,0.046875 0.09375,0.0585938 0.1054685,0.0117187 0.222656,-0.0468751 0.316406,-0.1992188025 C 4.4410938,-0.10622656 4.47625,-0.22341406 4.4645313,-0.34060156 4.4528125,-0.43435156 4.4059375,-0.56325781 4.28875,-0.65700781 4.1832813,-0.77419531 3.8785938,-1.0085703 3.3864063,-1.3601328 h 3.046875 v 1.88671874 c 0,0.09375 -0.023437,0.17578125 -0.082031,0.234375 C 6.3160938,0.83127344 6.1520313,0.83127344 5.8825,0.78439844 5.6129688,0.73752344 5.3082813,0.67892969 4.945,0.62033594 l -0.023437,0.140625 c 0.4570313,0.1640625 0.7382813,0.28124996 0.8554688,0.37499996 0.1054687,0.09375 0.1640625,0.1640625 0.1757812,0.2578125 0.023437,0.082031 0.035156,0.1640625 0.035156,0.2460938 0.1523437,-0.023437 0.328125,-0.09375 0.5273437,-0.2109375 0.1992188,-0.1054688 0.328125,-0.2109375 0.375,-0.328125 0.058594,-0.10546876 0.09375,-0.21093751 0.09375,-0.30468751 V -1.3601328 h 2.15625 c 0.058594,0 0.1054688,0 0.1171875,-0.011719 0.011719,-0.011719 -0.023437,-0.058594 -0.1171875,-0.140625 L 8.4723438,-2.1101328 8.0739063,-1.5710703 H 6.9840625 v -0.515625 l 0.1992188,-0.082031 c 0.09375,-0.058594 0.1289062,-0.082031 0.1289062,-0.1054687 -0.011719,-0.011719 -0.035156,-0.023437 -0.09375,-0.058594 l -0.8320312,-0.3867187 0.046875,0.84375 v 0.3046875 H 1.9567188 Z m 9.3310545,-0.75 0.105469,0.070312 c 0.257812,-0.3515625 0.480469,-0.65625 0.632812,-0.890625 0.152344,-0.234375 0.363282,-0.5625 0.609375,-1.0078125 v 3.58593749 l -0.05859,2.12109371 c 0.246093,-0.082031 0.46875,-0.2109375 0.667968,-0.3515625 l -0.0586,-1.59374946 V -4.6179453 l 0.164062,-0.140625 c 0.07031,-0.058594 0.09375,-0.09375 0.09375,-0.1171875 l -0.128906,-0.058594 -0.292969,-0.1523437 c 0.210938,-0.4804688 0.457031,-1.1015625 0.761719,-1.8515625 l 0.257812,-0.1289063 c 0.04687,-0.023437 0.07031,-0.046875 0.07031,-0.070312 0,-0.023437 -0.02344,-0.046875 -0.07031,-0.070312 l -0.820312,-0.46875 -0.105469,0.5976563 c -0.05859,0.2460937 -0.128906,0.5507812 -0.234375,0.9257812 -0.105469,0.3632813 -0.234375,0.7734375 -0.398437,1.2070313 -0.164063,0.4570312 -0.316407,0.8554687 -0.457032,1.1835937 -0.164062,0.3398438 -0.398437,0.8085938 -0.738281,1.3945305 z m 2.0625,1.91015624 0.117188,0.12890625 0.679687,-0.57421875 c 0.1875,-0.15234374 0.410156,-0.37500004 0.691406,-0.66796874 0.257813,-0.3164063 0.46875,-0.5859375 0.632813,-0.8203125 0.164062,-0.234375 0.328125,-0.515625 0.503906,-0.8320313 0.1875,-0.3398437 0.304688,-0.5859375 0.375,-0.7265625 0.05859,-0.1523437 0.140625,-0.3632812 0.234375,-0.609375 v 3.3867188 h -1.253906 l -0.621094,-0.023437 0.410156,0.41015624 c 0.292969,-0.1171875 0.527344,-0.17578125 0.738282,-0.17578125 h 0.726562 v 0.65625 l -0.07031,1.93359371 c 0.328125,-0.09375 0.5625,-0.1875 0.714843,-0.2929687 L 16.23309,0.11643019 v -1.078125 h 1.746094 c 0.05859,0 0.07031,0 0.07031,-0.0117188 0.01172,0 0,-0.0351562 -0.02344,-0.0703125 l -0.5625,-0.5859375 -0.457032,0.4570313 -0.773437,-0.011719 v -4.0078125 l 0.164062,-0.011719 0.175782,0.7851562 c 0.07031,0.3398438 0.199218,0.75 0.386718,1.21875 0.164063,0.46875 0.375,0.890625 0.609375,1.2421875 0.246094,0.3632813 0.421875,0.609375 0.527344,0.7617188 0.117188,0.1523437 0.269531,0.32812498 0.480469,0.56249998 l 0.140625,-0.17578125 c 0.128906,-0.17578125 0.398437,-0.22265623 0.808594,-0.15234375 l 0.03516,-0.10546878 c -0.269531,-0.140625 -0.492188,-0.2578125 -0.65625,-0.3632812 -0.140625,-0.1054688 -0.304688,-0.2226563 -0.457031,-0.3867188 -0.152344,-0.140625 -0.339844,-0.3515625 -0.550782,-0.609375 -0.199218,-0.28125 -0.398437,-0.5859375 -0.597656,-0.9257812 -0.210937,-0.3398438 -0.363281,-0.6796875 -0.457031,-1.03125 -0.105469,-0.3398438 -0.1875,-0.609375 -0.234375,-0.8203125 h 2.484375 c 0.03516,0 0.04687,-0.011719 0.05859,-0.011719 0.01172,-0.011719 0,-0.035156 -0.02344,-0.058594 l -0.773437,-0.7265625 -0.433594,0.5742187 h -1.6875 v -1.5585937 l 0.222656,-0.1523438 c 0.09375,-0.046875 0.117188,-0.082031 0.117188,-0.1171875 -0.01172,-0.023437 -0.04687,-0.035156 -0.09375,-0.070312 l -0.855469,-0.375 0.03516,1.0078125 v 1.265625 h -2.15625 l -0.714844,-0.023437 0.398438,0.3867188 c 0.339844,-0.082031 0.644531,-0.140625 0.914062,-0.140625 h 1.171875 l -0.222656,0.6914062 c -0.117187,0.3046875 -0.269531,0.703125 -0.503906,1.2070313 -0.222656,0.4804687 -0.492188,0.9492187 -0.84375,1.40625 -0.351563,0.46875 -0.773438,0.93749998 -1.277344,1.44140623 z m 0,0"
       style="fill:#0000ff;fill-opacity:1;fill-rule:nonzero;stroke:none"
       aria-label="等体"
       transform="matrix(1.3333333,0,0,1.3333333,99.906667,89.098667)" />
  </g>
</svg>
