<?xml version="1.0" encoding="UTF-8" standalone="no"?>
<!-- Created with Inkscape (http://www.inkscape.org/) -->

<svg
   version="1.1"
   id="svg1"
   width="123.89333"
   height="121.26667"
   viewBox="0 0 123.89333 121.26667"
   sodipodi:docname="22-23-2-大学物理E（上）-期末-选项1.5-C.pdf"
   xmlns:inkscape="http://www.inkscape.org/namespaces/inkscape"
   xmlns:sodipodi="http://sodipodi.sourceforge.net/DTD/sodipodi-0.dtd"
   xmlns="http://www.w3.org/2000/svg"
   xmlns:svg="http://www.w3.org/2000/svg">
  <defs
     id="defs1" />
  <sodipodi:namedview
     id="namedview1"
     pagecolor="#ffffff"
     bordercolor="#000000"
     borderopacity="0.25"
     inkscape:showpageshadow="2"
     inkscape:pageopacity="0.0"
     inkscape:pagecheckerboard="0"
     inkscape:deskcolor="#d1d1d1">
    <inkscape:page
       x="0"
       y="0"
       inkscape:label="1"
       id="page1"
       width="123.89333"
       height="121.26667"
       margin="0"
       bleed="0" />
  </sodipodi:namedview>
  <g
     id="g1"
     inkscape:groupmode="layer"
     inkscape:label="1">
    <path
       id="path1"
       d="M 283.46819,70.46854 V 0 h 70.46853"
       style="fill:none;stroke:#000000;stroke-width:0.3985;stroke-linecap:butt;stroke-linejoin:miter;stroke-miterlimit:10;stroke-dasharray:none;stroke-opacity:1"
       transform="matrix(1.3333333,0,0,-1.3333333,-358.33067,103.06933)" />
    <path
       id="path2"
       d="M -2.07224,2.39104 C -1.69365,0.95639 -0.84999,0.27895 0,0 -0.84999,-0.27895 -1.69365,-0.95639 -2.07224,-2.39104"
       style="fill:none;stroke:#000000;stroke-width:0.3985;stroke-linecap:round;stroke-linejoin:round;stroke-miterlimit:10;stroke-dasharray:none;stroke-opacity:1"
       transform="matrix(0,-1.3333333,-1.3333333,0,19.62692,8.8456133)" />
    <path
       id="path3"
       d="M -2.07224,2.39104 C -1.69365,0.95639 -0.84999,0.27895 0,0 -0.84999,-0.27895 -1.69365,-0.95639 -2.07224,-2.39104"
       style="fill:none;stroke:#000000;stroke-width:0.3985;stroke-linecap:round;stroke-linejoin:round;stroke-miterlimit:10;stroke-dasharray:none;stroke-opacity:1"
       transform="matrix(1.3333333,0,0,-1.3333333,113.85063,103.06933)" />
    <path
       id="path4"
       d="m 0.4448125,1.2190781 c -0.0820313,0.3398438 -0.09375,0.4101563 -0.5390625,0.4101563 -0.1171875,0 -0.22265625,0 -0.22265625,0.1875 0,0.082031 0.046875,0.1171875 0.12890625,0.1171875 0.26953125,0 0.55078125,-0.035156 0.83203125,-0.035156 0.328125,0 0.66796875,0.035156 0.98437505,0.035156 0.058594,0 0.1875,0 0.1875,-0.1992188 0,-0.1054687 -0.1054688,-0.1054687 -0.2460938,-0.1054687 -0.4921875,0 -0.4921875,-0.070312 -0.4921875,-0.1640625 0,-0.1171875 0.421875,-1.74609377 0.4804688,-1.99218752 0.140625,0.29296875 0.4101562,0.6328125 0.9257812,0.6328125 1.1484375,0 2.4023438,-1.45312498 2.4023438,-2.91796878 0,-0.9375 -0.5742188,-1.59375 -1.3359375,-1.59375 -0.4921875,0 -0.9726563,0.3632813 -1.3007813,0.75 -0.09375,-0.5390625 -0.5273437,-0.75 -0.890625,-0.75 -0.45703125,0 -0.65625,0.3867188 -0.73828125,0.5742188 -0.1875,0.3398437 -0.31640625,0.9375 -0.31640625,0.9609375 0,0.1054687 0.10546875,0.1054687 0.12890625,0.1054687 0.09375,0 0.10546875,-0.011719 0.1640625,-0.234375 0.1640625,-0.703125 0.36328125,-1.1835937 0.72656255,-1.1835937 0.1757812,0 0.3046875,0.082031 0.3046875,0.4570312 0,0.234375 -0.023437,0.3398438 -0.070312,0.5039063 z M 2.202625,-3.1051406 c 0.070312,-0.2695313 0.3398438,-0.5507813 0.515625,-0.703125 0.3515625,-0.3046875 0.6328125,-0.375 0.8085938,-0.375 0.3984375,0 0.6328125,0.3515625 0.6328125,0.9375 0,0.5859375 -0.328125,1.734375 -0.5039063,2.109375 -0.3398437,0.70312498 -0.8203125,1.03124998 -1.1835937,1.03124998 -0.65625,0 -0.7851563,-0.83203125 -0.7851563,-0.890625 0,-0.0234375 0,-0.0351563 0.023437,-0.16406248 z m 0,0"
       style="fill:#000000;fill-opacity:1;fill-rule:nonzero;stroke:none"
       aria-label="p"
       transform="matrix(1.3333333,0,0,1.3333333,8.2506667,10.148)" />
    <path
       id="path5"
       d="m 7.3722891,-4.3477734 c 0,-1.59375 -1.0546875,-2.671875 -2.5429688,-2.671875 -2.1445312,0 -4.33593749,2.2617187 -4.33593749,4.5820312 0,1.65234376 1.11328129,2.66015626 2.54296879,2.66015626 2.109375,0 4.3359375,-2.17968746 4.3359375,-4.57031246 z m -4.2773438,4.31249996 c -0.984375,0 -1.6757812,-0.80859375 -1.6757812,-2.12109376 0,-0.4453125 0.140625,-1.8984375 0.9023437,-3.0585937 0.6914063,-1.0429688 1.6640625,-1.5585938 2.4492188,-1.5585938 0.8203125,0 1.7109375,0.5625 1.7109375,2.0390625 0,0.7148438 -0.2695313,2.2734375 -1.2539063,3.5039063 -0.4804687,0.59765621 -1.2890625,1.19531246 -2.1328125,1.19531246 z m 0,0"
       style="fill:#000000;fill-opacity:1;fill-rule:nonzero;stroke:none"
       aria-label="O"
       transform="matrix(1.3333333,0,0,1.3333333,4.432,116.84)" />
    <path
       id="path6"
       d="M 6.2580312,-5.6719922 C 6.7385,-6.4454297 7.160375,-6.4805859 7.535375,-6.4923047 c 0.1171875,-0.011719 0.1289062,-0.1875 0.1289062,-0.1875 0,-0.082031 -0.058594,-0.1289062 -0.1289062,-0.1289062 -0.2578125,0 -0.5507813,0.035156 -0.8203125,0.035156 -0.328125,0 -0.6679688,-0.035156 -0.984375,-0.035156 -0.058594,0 -0.1875,0 -0.1875,0.1992187 0,0.1054688 0.082031,0.1171875 0.1523437,0.1171875 0.2695313,0.011719 0.4570313,0.1171875 0.4570313,0.328125 0,0.1523438 -0.140625,0.3632813 -0.140625,0.375 L 2.9533437,-0.92589844 2.2736562,-6.1993359 c 0,-0.1640625 0.2226563,-0.2929688 0.6796875,-0.2929688 0.140625,0 0.2578125,0 0.2578125,-0.1992187 0,-0.09375 -0.082031,-0.1171875 -0.140625,-0.1171875 -0.3984375,0 -0.8320312,0.035156 -1.2421875,0.035156 -0.1757812,0 -0.3632812,-0.011719 -0.5390625,-0.011719 -0.1875,0 -0.37499995,-0.023437 -0.53906245,-0.023437 -0.0703125,0 -0.1875,0 -0.1875,0.1992187 0,0.1171875 0.0820313,0.1171875 0.24609375,0.1171875 0.5507812,0 0.5625,0.082031 0.5976562,0.3398438 l 0.7851563,6.14062496 c 0.035156,0.19921875 0.070312,0.234375 0.1992187,0.234375 0.1640625,0 0.1992188,-0.0585938 0.28125,-0.1875 z m 0,0"
       style="fill:#000000;fill-opacity:1;fill-rule:nonzero;stroke:none"
       aria-label="V"
       transform="matrix(1.3333333,0,0,1.3333333,108.76533,116.84)" />
    <path
       id="path7"
       d="m 340.16095,17.71674 -4.75575,1.6231 -4.02262,1.6231 -3.44516,1.6231 -2.97694,1.6231 -2.60928,1.6231 -2.29895,1.6231 -2.04158,1.62311 -1.82749,1.62309 -1.64363,1.62311 -1.48576,1.62309 -1.34737,1.62311 -1.23164,1.62309 -1.13002,1.62311 -1.03916,1.62309 -0.95808,1.62311 -0.88777,1.62309 -0.82292,1.62309 -0.76775,1.6231 -0.71585,1.6231 -0.66934,1.6231 -0.62612,1.6231 -0.58934,1.6231 -0.55472,1.6231 -0.52229,1.6231"
       style="fill:none;stroke:#0000ff;stroke-width:0.3985;stroke-linecap:butt;stroke-linejoin:miter;stroke-miterlimit:10;stroke-dasharray:none;stroke-opacity:1"
       transform="matrix(1.3333333,0,0,-1.3333333,-358.33067,103.06933)" />
    <path
       id="path8"
       d="M -2.07224,2.39104 C -1.69365,0.95639 -0.84999,0.27895 0,0 -0.84999,-0.27895 -1.69365,-0.95639 -2.07224,-2.39104"
       style="fill:none;stroke:#0000ff;stroke-width:0.3985;stroke-linecap:round;stroke-linejoin:round;stroke-miterlimit:10;stroke-dasharray:none;stroke-opacity:1"
       transform="matrix(-0.94866667,-0.9368,-0.9368,0.94866667,62.094093,60.995547)" />
    <path
       id="path9"
       d="m 0.45845312,-3.0105625 0.421875,0.3867188 C 1.0678281,-2.7175937 1.3022031,-2.75275 1.5834531,-2.75275 h 7.78125 c 0.058594,0 0.09375,-0.011719 0.1054688,-0.023437 0,-0.011719 -0.023437,-0.046875 -0.070312,-0.1054687 L 8.7318906,-3.6082187 8.2045469,-3.0105625 H 5.1928281 v -0.9492187 h 3.2226563 c 0.058594,0 0.09375,-0.011719 0.1054687,-0.046875 0.011719,-0.023437 -0.011719,-0.058594 -0.046875,-0.09375 L 7.8295469,-4.6980625 7.4311094,-4.1941562 H 5.1928281 V -4.81525 l 0.1992188,-0.1289062 c 0.1054687,-0.070312 0.1523437,-0.1054688 0.1523437,-0.1171875 0,-0.023437 -0.035156,-0.035156 -0.082031,-0.070312 L 5.1811094,-5.2488437 5.4037656,-5.518375 5.8139219,-6.034 c 0.046875,-0.046875 0.1171875,-0.1289062 0.1992187,-0.2460937 H 6.7748594 L 6.9037656,-6.034 c 0.070312,0.09375 0.140625,0.2929688 0.2109375,0.5976563 0.023437,0.1289062 0.046875,0.234375 0.035156,0.3398437 0,0.082031 0.011719,0.140625 0.023437,0.1523438 0.035156,0.1054687 0.1054687,0.1289062 0.2226562,0.1054687 0.09375,-0.035156 0.1757813,-0.1054687 0.2226563,-0.2109375 0.058594,-0.1054687 0.070312,-0.1875 0.070312,-0.2578125 0,-0.1054687 -0.035156,-0.2109375 -0.09375,-0.3046875 -0.082031,-0.082031 -0.3046875,-0.3046875 -0.6679688,-0.6679687 h 2.3320313 c 0.046875,0 0.082031,0 0.09375,-0.035156 0.011719,-0.023437 0,-0.046875 -0.023437,-0.082031 L 8.6498594,-6.9832187 8.2397031,-6.50275 H 6.1889219 c 0.1640625,-0.234375 0.3164062,-0.4570312 0.4570312,-0.6445312 l 0.234375,-0.058594 c 0.046875,-0.011719 0.082031,-0.035156 0.09375,-0.070312 0.023437,-0.011719 -0.023437,-0.058594 -0.1171875,-0.1171875 l -0.6914062,-0.3984375 -0.082031,0.3164063 c -0.058594,0.2109375 -0.140625,0.46875 -0.2929687,0.7851562 -0.1523438,0.3046875 -0.3984375,0.7617188 -0.7617188,1.3710938 l -0.3984375,-0.1757813 0.058594,0.8320313 v 0.46875 H 2.5678281 l -0.75,-0.023437 0.421875,0.3984375 c 0.2578125,-0.09375 0.4921875,-0.140625 0.7148438,-0.140625 h 1.734375 v 0.9492187 z M 2.6381406,-7.768375 2.5561094,-7.5105625 c -0.058594,0.1523438 -0.140625,0.3515625 -0.28125,0.6210938 -0.1289063,0.2578125 -0.2929688,0.5390625 -0.4804688,0.8320312 -0.1757812,0.2929688 -0.3632812,0.5625 -0.5390625,0.8085938 l -0.42187498,0.5507812 c -0.0585938,0.058594 -0.1171875,0.1523438 -0.19921875,0.2695313 L 0.71626562,-4.3465 C 1.2436094,-4.8504062 1.6186094,-5.2136875 1.8061094,-5.424625 c 0.1875,-0.2226562 0.4101562,-0.4921875 0.65625,-0.8203125 h 0.6445312 l 0.140625,0.2578125 c 0.035156,0.046875 0.058594,0.140625 0.1054688,0.2460938 0.035156,0.1171875 0.070312,0.2460937 0.09375,0.3867187 0.035156,0.140625 0.046875,0.2578125 0.046875,0.3632813 0,0.1054687 0.011719,0.1757812 0.035156,0.1875 0.023437,0.011719 0.035156,0.023437 0.070312,0.023437 0.070312,0.011719 0.140625,-0.035156 0.2226563,-0.1171875 0.070312,-0.1054688 0.1289062,-0.1875 0.1640625,-0.2460938 0.035156,-0.070312 0.046875,-0.140625 0.035156,-0.2109375 0,-0.082031 -0.046875,-0.1640625 -0.1171875,-0.2578125 -0.070312,-0.082031 -0.28125,-0.2929687 -0.609375,-0.6328125 h 1.7929688 c 0.023437,0 0.046875,-0.011719 0.058594,-0.035156 0.011719,-0.011719 0,-0.046875 -0.046875,-0.070312 l -0.703125,-0.5976563 -0.375,0.46875 H 2.6381406 l 0.46875,-0.6210937 0.2578125,-0.046875 C 3.4232971,-7.159 3.4701719,-7.170718 3.4818906,-7.205875 3.4936096,-7.229312 3.4467346,-7.276187 3.3412656,-7.3465 Z m -1.6054687,6.1523438 0.4101562,0.3867187 c 0.2109375,-0.082031 0.4570313,-0.1289062 0.7148438,-0.1289062 h 0.9960937 c 0.3164063,0.3515625 0.515625,0.6210937 0.5976563,0.84374995 0.070312,0.19921875 0.1171875,0.3515625 0.140625,0.45703125 0,0.09375 0.023437,0.1640625 0.058594,0.19921875 0.011719,0.0234375 0.046875,0.046875 0.09375,0.0585938 C 4.1498594,0.21209375 4.2670469,0.1535 4.3607969,0.00115625 4.4428281,-0.1043125 4.4779844,-0.2215 4.4662656,-0.3386875 4.4545469,-0.4324375 4.4076719,-0.56134375 4.2904844,-0.65509375 4.1850156,-0.77228125 3.8803281,-1.0066562 3.3881406,-1.3582187 h 3.046875 V 0.5285 c 0,0.09375 -0.023437,0.17578125 -0.082031,0.234375 C 6.3178281,0.8331875 6.1537656,0.8331875 5.8842344,0.7863125 5.6147031,0.7394375 5.3100156,0.68084375 4.9467344,0.62225 l -0.023437,0.140625 c 0.4570312,0.1640625 0.7382812,0.28125 0.8554687,0.375 0.1054688,0.09375 0.1640625,0.1640625 0.1757813,0.2578125 0.023437,0.082031 0.035156,0.1640625 0.035156,0.2460938 0.1523438,-0.023437 0.328125,-0.09375 0.5273438,-0.2109375 0.1992187,-0.1054688 0.328125,-0.2109375 0.375,-0.328125 0.058594,-0.1054688 0.09375,-0.21093755 0.09375,-0.30468755 V -1.3582187 h 2.15625 c 0.058594,0 0.1054687,0 0.1171875,-0.011719 0.011719,-0.011719 -0.023437,-0.058594 -0.1171875,-0.140625 L 8.4740781,-2.1082187 8.0756406,-1.5691562 H 6.9857969 v -0.515625 l 0.1992187,-0.082031 c 0.09375,-0.058594 0.1289063,-0.082031 0.1289063,-0.1054687 -0.011719,-0.011719 -0.035156,-0.023437 -0.09375,-0.058594 l -0.8320313,-0.3867187 0.046875,0.84375 v 0.3046875 H 1.9584531 Z m 9.5039061,-3.5625 -0.07031,0.09375 c 0.175781,0.1640625 0.292968,0.28125 0.375,0.375 0.08203,0.09375 0.175781,0.2226562 0.28125,0.3984375 0.105468,0.1757812 0.175781,0.328125 0.210937,0.4570312 0.04687,0.1289063 0.07031,0.2109375 0.105469,0.2695313 0.02344,0.035156 0.07031,0.070312 0.117187,0.070312 0.03516,0.011719 0.08203,-0.011719 0.140625,-0.058594 0.04687,-0.046875 0.09375,-0.1171875 0.152344,-0.2109375 0.04687,-0.1054687 0.07031,-0.2226562 0.07031,-0.3398437 0,-0.1289063 -0.04687,-0.234375 -0.140625,-0.3632813 -0.08203,-0.09375 -0.257813,-0.2226562 -0.515625,-0.3515625 -0.257813,-0.1289062 -0.492188,-0.2460937 -0.726563,-0.3398437 z m 0.02344,3.5039062 -0.03516,0.1289063 c 0.292969,0.09375 0.46875,0.1523437 0.574219,0.2109375 0.08203,0.035156 0.164063,0.1171875 0.222656,0.1992187 0.07031,0.1054688 0.105469,0.22265625 0.117188,0.375 0.01172,0.12890625 -0.02344,0.328125 -0.05859,0.59765625 -0.05859,0.26953125 -0.105469,0.48046875 -0.152344,0.64453125 -0.04687,0.1875 -0.08203,0.328125 -0.07031,0.421875 0.01172,0.0820313 0.03516,0.1640625 0.08203,0.2109375 0.04687,0.046875 0.117188,0.1171875 0.222656,0.1640625 0.117188,0.058594 0.199219,0.082031 0.257813,0.082031 0.164062,0 0.257812,-0.1289063 0.257812,-0.3632813 0,-0.0820313 -0.01172,-0.22265625 -0.02344,-0.43359375 L 11.907672,-0.2215 c -0.03516,-0.38671875 -0.04687,-0.6328125 -0.03516,-0.7734375 0,-0.1171875 0.04687,-0.3515625 0.128906,-0.6796875 0.08203,-0.3164062 0.234375,-0.796875 0.445312,-1.4296875 0.210938,-0.6328125 0.585938,-1.7109375 1.136719,-3.234375 l -0.128906,-0.046875 c -0.164063,0.375 -0.351563,0.8203125 -0.5625,1.3242188 L 12.188922,-3.31525 c -0.199219,0.5039063 -0.363281,0.8671875 -0.46875,1.1015625 -0.09375,0.2226563 -0.175781,0.375 -0.222656,0.4453125 -0.05859,0.058594 -0.117188,0.09375 -0.199219,0.1289063 -0.05859,0.023437 -0.152344,0.035156 -0.257813,0.023437 -0.117187,-0.011719 -0.269531,-0.023437 -0.480468,-0.058594 z m 0.585937,-5.4257812 c 0.46875,0.3164062 0.75,0.6210937 0.84375,0.890625 0.105469,0.2695312 0.164063,0.4335937 0.199219,0.4921875 0.02344,0.058594 0.08203,0.09375 0.152344,0.09375 0.04687,0 0.105468,-0.035156 0.175781,-0.09375 0.07031,-0.058594 0.117187,-0.1289063 0.152344,-0.2109375 0.07031,-0.1640625 0.07031,-0.3164063 -0.01172,-0.4453125 C 12.587359,-6.50275 12.505328,-6.5965 12.423297,-6.6550937 12.341266,-6.7136875 12.130328,-6.8074375 11.790484,-6.9715 11.462359,-7.112125 11.274859,-7.205875 11.239703,-7.205875 Z m 2.097656,7.78124995 H 12.69283 l -0.503906,-0.0351563 0.351562,0.43359385 c 0.140625,-0.070312 0.269532,-0.1171876 0.386719,-0.12890635 0.128906,-0.0234375 0.292969,-0.0351563 0.503906,-0.0351563 h 6.058594 c 0.140625,0 0.164063,-0.0585938 0.05859,-0.17578125 l -0.503906,-0.5625 -0.363282,0.50390625 h -0.16406 V -2.0965 l 0.246094,-0.1992187 c 0.07031,-0.046875 0.09375,-0.070312 0.08203,-0.070312 0,-0.023437 -0.01172,-0.046875 -0.05859,-0.082031 l -0.585937,-0.4570312 -0.339844,0.46875 h -3.984375 l -0.691406,-0.4335938 0.07031,1.1601563 z m 0.609375,0 V -2.2136875 h 0.949219 v 2.89453125 z m 1.464844,0 V -2.2136875 h 1.03125 v 2.89453125 z m 1.59375,0 V -2.2136875 h 1.007813 v 2.89453125 z m -3.117187,-7.99218745 0.05859,1.03125 v 2.2617187 l -0.07031,1.1953125 c 0.363281,-0.1523437 0.550781,-0.2460937 0.5625,-0.2460937 0.01172,-0.023437 0.03516,-0.035156 0.09375,-0.082031 V -3.643375 h 3.035156 v 0.6796875 c 0.257813,-0.058594 0.46875,-0.1640625 0.632813,-0.328125 l -0.05859,-1.125 v -2.109375 l 0.210937,-0.1523437 c 0.105469,-0.070312 0.152344,-0.1289063 0.152344,-0.140625 0,-0.023437 -0.02344,-0.058594 -0.05859,-0.09375 l -0.609375,-0.515625 -0.375,0.5039062 h -2.8125 z m 0.644531,3.421875 v -1.3125 h 3.035156 v 1.3125 z m 0,-1.5351563 V -6.69025 h 3.035156 v 1.265625 z m 0,0"
       style="fill:#0000ff;fill-opacity:1;fill-rule:nonzero;stroke:none"
       aria-label="等温"
       transform="matrix(1.3333333,0,0,1.3333333,29.974667,69.045333)" />
    <path
       id="path10"
       d="m 320.67294,56.69385 0.26169,-1.62311 0.27683,-1.62309 0.29412,-1.62311 0.31359,-1.62309 0.33413,-1.62311 0.35793,-1.62309 0.3828,-1.62311 0.4109,-1.62309 0.44336,-1.62311 0.47904,-1.6231 0.51904,-1.6231 0.56338,-1.6231 0.61637,-1.62309 0.6726,-1.62309 0.7418,-1.62311 0.82073,-1.62309 0.91158,-1.62311 1.01971,-1.62309 1.14731,-1.62311 1.30195,-1.62309 1.48684,-1.62311 1.71825,-1.62309 2.00699,-1.62311 2.37355,-1.62309"
       style="fill:none;stroke:#0000ff;stroke-width:0.3985;stroke-linecap:butt;stroke-linejoin:miter;stroke-miterlimit:10;stroke-dasharray:none;stroke-opacity:1"
       transform="matrix(1.3333333,0,0,-1.3333333,-358.33067,103.06933)" />
    <path
       id="path11"
       d="M -2.07224,2.39104 C -1.69365,0.95639 -0.84999,0.27895 0,0 -0.84999,-0.27895 -1.69365,-0.95639 -2.07224,-2.39104"
       style="fill:none;stroke:#0000ff;stroke-width:0.3985;stroke-linecap:round;stroke-linejoin:round;stroke-miterlimit:10;stroke-dasharray:none;stroke-opacity:1"
       transform="matrix(0.51029333,1.2317467,1.2317467,-0.51029333,76.5038,56.254093)" />
    <path
       id="path12"
       d="m 0.458,-3.0111719 0.421875,0.3867188 c 0.1875,-0.09375 0.421875,-0.1289063 0.703125,-0.1289063 h 7.78125 c 0.058594,0 0.09375,-0.011719 0.1054687,-0.023437 0,-0.011719 -0.023437,-0.046875 -0.070312,-0.1054687 L 8.7314375,-3.6088281 8.2040937,-3.0111719 H 5.192375 v -0.9492187 h 3.2226562 c 0.058594,0 0.09375,-0.011719 0.1054688,-0.046875 0.011719,-0.023437 -0.011719,-0.058594 -0.046875,-0.09375 L 7.8290937,-4.6986719 7.4306562,-4.1947656 H 5.192375 v -0.6210938 l 0.1992187,-0.1289062 c 0.1054688,-0.070312 0.1523438,-0.1054688 0.1523438,-0.1171875 0,-0.023437 -0.035156,-0.035156 -0.082031,-0.070312 l -0.28125,-0.1171875 0.2226563,-0.2695313 0.4101562,-0.515625 c 0.046875,-0.046875 0.1171875,-0.1289062 0.1992188,-0.2460937 h 0.7617187 l 0.1289063,0.2460937 c 0.070312,0.09375 0.140625,0.2929688 0.2109375,0.5976563 0.023437,0.1289062 0.046875,0.234375 0.035156,0.3398437 0,0.082031 0.011719,0.140625 0.023437,0.1523438 0.035156,0.1054687 0.1054688,0.1289062 0.2226563,0.1054687 0.09375,-0.035156 0.1757812,-0.1054687 0.2226562,-0.2109375 0.058594,-0.1054687 0.070312,-0.1875 0.070312,-0.2578125 0,-0.1054687 -0.035156,-0.2109375 -0.09375,-0.3046875 -0.08203,-0.082032 -0.3046866,-0.304688 -0.6679678,-0.6679692 h 2.3320312 c 0.046875,0 0.082031,0 0.09375,-0.035156 0.011719,-0.023437 0,-0.046875 -0.023437,-0.082031 L 8.6494062,-6.9838281 8.23925,-6.5033594 H 6.1884687 C 6.3525312,-6.7377344 6.504875,-6.9603906 6.6455,-7.1478906 l 0.234375,-0.058594 c 0.046875,-0.011719 0.082031,-0.035156 0.09375,-0.070312 0.023437,-0.011719 -0.023437,-0.058594 -0.1171875,-0.1171875 L 6.1650312,-7.7924219 6.083,-7.4760156 c -0.058594,0.2109375 -0.140625,0.46875 -0.2929688,0.7851562 -0.1523437,0.3046875 -0.3984375,0.7617188 -0.7617187,1.3710938 L 4.629875,-5.4955469 4.688469,-4.6635156 v 0.46875 H 2.567375 l -0.75,-0.023437 0.421875,0.3984375 c 0.2578125,-0.09375 0.4921875,-0.140625 0.7148437,-0.140625 h 1.734375 v 0.9492187 z m 2.1796875,-4.7578125 -0.082031,0.2578125 c -0.058594,0.1523438 -0.140625,0.3515625 -0.28125,0.6210938 -0.1289062,0.2578125 -0.2929687,0.5390625 -0.4804687,0.8320312 -0.1757813,0.2929688 -0.3632813,0.5625 -0.5390625,0.8085938 L 0.833,-4.6986719 c -0.0585938,0.058594 -0.1171875,0.1523438 -0.19921875,0.2695313 l 0.0820313,0.082031 c 0.52734365,-0.5039062 0.90234365,-0.8671875 1.08984375,-1.078125 0.1875,-0.2226562 0.4101563,-0.4921875 0.65625,-0.8203125 h 0.6445313 l 0.140625,0.2578125 c 0.035156,0.046875 0.058594,0.140625 0.1054687,0.2460938 0.035156,0.1171875 0.070312,0.2460937 0.09375,0.3867187 0.035156,0.140625 0.046875,0.2578125 0.046875,0.3632813 0,0.1054687 0.011719,0.1757812 0.035156,0.1875 0.023437,0.011719 0.035156,0.023437 0.070312,0.023437 0.070312,0.011719 0.140625,-0.035156 0.2226562,-0.1171875 0.070312,-0.1054688 0.1289063,-0.1875 0.1640625,-0.2460938 0.035156,-0.070312 0.046875,-0.140625 0.035156,-0.2109375 0,-0.082031 -0.046875,-0.1640625 -0.1171875,-0.2578125 -0.070312,-0.082031 -0.28125,-0.2929687 -0.609375,-0.6328125 h 1.7929687 c 0.023437,0 0.046875,-0.011719 0.058594,-0.035156 0.011719,-0.011719 0,-0.046875 -0.046875,-0.070312 L 4.3955,-6.9486719 l -0.375,0.46875 H 2.6376875 l 0.46875,-0.6210937 0.2578125,-0.046875 c 0.058594,-0.011719 0.1054687,-0.023437 0.1171875,-0.058594 0.011719,-0.023437 -0.035156,-0.070312 -0.140625,-0.140625 z m -1.6054688,6.1523438 0.4101563,0.3867187 c 0.2109375,-0.082031 0.4570312,-0.1289062 0.7148437,-0.1289062 h 0.9960938 c 0.3164062,0.3515625 0.515625,0.62109373 0.5976562,0.84374998 0.070312,0.19921875 0.1171875,0.3515625 0.140625,0.45703125 0,0.09375 0.023437,0.1640625 0.058594,0.19921875 0.011719,0.0234375 0.046875,0.046875 0.09375,0.0585938 0.1054685,0.0117187 0.222656,-0.0468751 0.316406,-0.199218805 C 4.442375,-0.10492187 4.4775312,-0.22210937 4.4658125,-0.33929687 4.4540937,-0.43304687 4.4072187,-0.56195312 4.2900312,-0.65570312 4.1845625,-0.77289062 3.879875,-1.0072656 3.3876875,-1.3588281 h 3.046875 v 1.88671873 c 0,0.09375 -0.023437,0.17578125 -0.082031,0.234375 -0.035156,0.0703125 -0.1992187,0.0703125 -0.46875,0.0234375 -0.2695312,-0.046875 -0.5742187,-0.10546875 -0.9375,-0.1640625 l -0.023437,0.140625 c 0.4570305,0.1640625 0.7382805,0.28124997 0.855468,0.37499997 0.1054687,0.09375 0.1640625,0.1640625 0.1757812,0.2578125 0.023437,0.082031 0.035156,0.1640625 0.035156,0.2460938 0.1523437,-0.023437 0.328125,-0.09375 0.5273437,-0.2109375 0.1992188,-0.1054688 0.328125,-0.2109375 0.375,-0.328125 0.058594,-0.10546877 0.09375,-0.21093752 0.09375,-0.30468752 V -1.3588281 h 2.15625 c 0.058594,0 0.1054688,0 0.1171875,-0.011719 0.011719,-0.011719 -0.023437,-0.058594 -0.1171875,-0.140625 L 8.473625,-2.1088281 8.0751875,-1.5697656 H 6.9853437 v -0.515625 l 0.1992188,-0.082031 c 0.09375,-0.058594 0.1289062,-0.082031 0.1289062,-0.1054687 -0.011719,-0.011719 -0.035156,-0.023437 -0.09375,-0.058594 l -0.8320312,-0.3867187 0.046875,0.84375 v 0.3046875 H 1.958 Z m 9.5039063,-3.5625 -0.07031,0.09375 c 0.175782,0.1640625 0.292969,0.28125 0.375,0.375 0.08203,0.09375 0.175782,0.2226562 0.28125,0.3984375 0.105469,0.1757812 0.175782,0.328125 0.210938,0.4570312 0.04687,0.1289063 0.07031,0.2109375 0.105469,0.2695313 0.02344,0.035156 0.07031,0.070312 0.117187,0.070312 0.03516,0.011719 0.08203,-0.011719 0.140625,-0.058594 0.04687,-0.046875 0.09375,-0.1171875 0.152344,-0.2109375 0.04687,-0.1054687 0.07031,-0.2226562 0.07031,-0.3398437 0,-0.1289063 -0.04687,-0.234375 -0.140625,-0.3632813 -0.08203,-0.09375 -0.257812,-0.2226562 -0.515625,-0.3515625 -0.257812,-0.1289062 -0.492187,-0.2460937 -0.726562,-0.3398437 z m 0.02344,3.5039062 -0.03516,0.1289063 c 0.292969,0.09375 0.46875,0.1523437 0.574219,0.2109375 0.08203,0.035156 0.164062,0.1171875 0.222656,0.1992187 0.07031,0.1054688 0.105469,0.22265628 0.117188,0.37500003 0.01172,0.12890625 -0.02344,0.328125 -0.05859,0.59765625 -0.05859,0.26953125 -0.105469,0.48046875 -0.152344,0.64453125 -0.04687,0.1875 -0.08203,0.328125 -0.07031,0.421875 0.01172,0.0820313 0.03516,0.16406247 0.08203,0.21093747 0.04687,0.046875 0.117187,0.1171875 0.222656,0.1640625 0.117188,0.058594 0.199219,0.082031 0.257813,0.082031 0.164062,0 0.257812,-0.1289063 0.257812,-0.36328127 0,-0.0820313 -0.01172,-0.22265625 -0.02344,-0.43359375 l -0.04687,-0.78515625 c -0.03516,-0.38671875 -0.04687,-0.6328125 -0.03516,-0.7734375 0,-0.11718753 0.04687,-0.35156253 0.128907,-0.67968753 0.08203,-0.3164062 0.234375,-0.796875 0.445312,-1.4296875 0.210938,-0.6328125 0.585938,-1.7109375 1.136719,-3.234375 l -0.128906,-0.046875 c -0.164063,0.375 -0.351563,0.8203125 -0.5625,1.3242188 l -0.703125,1.7460937 c -0.199219,0.5039063 -0.363282,0.8671875 -0.46875,1.1015625 -0.09375,0.2226563 -0.175782,0.375 -0.222657,0.4453125 -0.05859,0.058594 -0.117187,0.09375 -0.199218,0.1289063 -0.05859,0.023437 -0.152344,0.035156 -0.257813,0.023437 -0.117187,-0.011719 -0.269531,-0.023437 -0.480469,-0.058594 z M 11.1455,-7.1010156 c 0.46875,0.3164062 0.75,0.6210937 0.84375,0.890625 0.105469,0.2695312 0.164062,0.4335937 0.199219,0.4921875 0.02344,0.058594 0.08203,0.09375 0.152343,0.09375 0.04687,0 0.105469,-0.035156 0.175782,-0.09375 0.07031,-0.058594 0.117187,-0.1289063 0.152343,-0.2109375 0.07031,-0.1640625 0.07031,-0.3164063 -0.01172,-0.4453125 -0.07031,-0.1289063 -0.152344,-0.2226563 -0.234375,-0.28125 -0.08203,-0.058594 -0.292969,-0.1523438 -0.632813,-0.3164063 -0.328125,-0.140625 -0.515625,-0.234375 -0.550781,-0.234375 z m 2.097656,7.78124998 h -0.550781 l -0.503906,-0.0351563 0.351562,0.43359372 c 0.140625,-0.070312 0.269531,-0.11718747 0.386719,-0.12890622 0.128906,-0.0234375 0.292969,-0.0351563 0.503906,-0.0351563 h 6.058594 c 0.140625,0 0.164062,-0.0585938 0.05859,-0.17578125 l -0.503907,-0.5625 -0.363281,0.50390625 H 18.516594 V -2.0971094 l 0.246093,-0.1992187 c 0.07031,-0.046875 0.09375,-0.070312 0.08203,-0.070312 0,-0.023437 -0.01172,-0.046875 -0.05859,-0.082031 l -0.585938,-0.4570312 -0.339843,0.46875 h -3.984375 l -0.691407,-0.4335938 0.07031,1.1601563 z m 0.609375,0 V -2.2142969 h 0.949219 v 2.89453128 z m 1.464844,0 V -2.2142969 h 1.03125 v 2.89453128 z m 1.59375,0 V -2.2142969 h 1.007812 v 2.89453128 z m -3.117188,-7.99218748 0.05859,1.03125 v 2.2617187 l -0.07031,1.1953125 c 0.363281,-0.1523437 0.550781,-0.2460937 0.5625,-0.2460937 0.01172,-0.023437 0.03516,-0.035156 0.09375,-0.082031 v -0.4921875 h 3.035156 v 0.6796875 c 0.257812,-0.058594 0.46875,-0.1640625 0.632812,-0.328125 l -0.05859,-1.125 v -2.109375 l 0.210937,-0.1523437 c 0.105469,-0.070312 0.152344,-0.1289063 0.152344,-0.140625 0,-0.023437 -0.02344,-0.058594 -0.05859,-0.09375 l -0.609375,-0.515625 -0.375,0.5039062 h -2.8125 z m 0.644532,3.421875 v -1.3125 h 3.035156 v 1.3125 z m 0,-1.5351563 v -1.265625 h 3.035156 v 1.265625 z m 0,0"
       style="fill:#0000ff;fill-opacity:1;fill-rule:nonzero;stroke:none"
       aria-label="等温"
       transform="matrix(1.3333333,0,0,1.3333333,81.889333,57.413333)" />
    <path
       id="path13"
       d="m 301.18494,56.69385 h 19.488"
       style="fill:none;stroke:#0000ff;stroke-width:0.3985;stroke-linecap:butt;stroke-linejoin:miter;stroke-miterlimit:10;stroke-dasharray:none;stroke-opacity:1"
       transform="matrix(1.3333333,0,0,-1.3333333,-358.33067,103.06933)" />
    <path
       id="path14"
       d="M -2.07224,2.39104 C -1.69365,0.95639 -0.84999,0.27895 0,0 -0.84999,-0.27895 -1.69365,-0.95639 -2.07224,-2.39104"
       style="fill:none;stroke:#0000ff;stroke-width:0.3985;stroke-linecap:round;stroke-linejoin:round;stroke-miterlimit:10;stroke-dasharray:none;stroke-opacity:1"
       transform="matrix(1.3333333,0,0,-1.3333333,55.975547,27.477533)" />
    <path
       id="path15"
       d="m 0.45652344,-3.0114063 0.421875,0.3867188 C 1.0658984,-2.7184375 1.3002734,-2.7535938 1.5815234,-2.7535938 h 7.78125 c 0.058594,0 0.09375,-0.011719 0.1054688,-0.023437 0,-0.011719 -0.023437,-0.046875 -0.070312,-0.1054687 L 8.7299609,-3.6090625 8.2026172,-3.0114063 H 5.1908984 V -3.960625 h 3.2226563 c 0.058594,0 0.09375,-0.011719 0.1054687,-0.046875 0.011719,-0.023437 -0.011719,-0.058594 -0.046875,-0.09375 L 7.8276172,-4.6989063 7.4291797,-4.195 H 5.1908984 V -4.8160938 L 5.3901172,-4.945 c 0.1054687,-0.070312 0.1523437,-0.1054688 0.1523437,-0.1171875 0,-0.023437 -0.035156,-0.035156 -0.082031,-0.070312 l -0.28125,-0.1171875 0.2226562,-0.2695313 0.4101563,-0.515625 c 0.046875,-0.046875 0.1171875,-0.1289062 0.1992187,-0.2460937 h 0.7617188 l 0.1289062,0.2460937 c 0.070312,0.09375 0.140625,0.2929688 0.2109375,0.5976563 0.023437,0.1289062 0.046875,0.234375 0.035156,0.3398437 0,0.082031 0.011719,0.140625 0.023437,0.1523438 0.035156,0.1054687 0.1054687,0.1289062 0.2226562,0.1054687 0.09375,-0.035156 0.1757813,-0.1054687 0.2226563,-0.2109375 0.058594,-0.1054687 0.070312,-0.1875 0.070312,-0.2578125 0,-0.1054687 -0.035156,-0.2109375 -0.09375,-0.3046875 C 7.5112109,-5.695 7.2885547,-5.9176563 6.9252734,-6.2809375 h 2.3320313 c 0.046875,0 0.082031,0 0.09375,-0.035156 0.011719,-0.023437 0,-0.046875 -0.023437,-0.082031 l -0.679688,-0.585938 -0.4101563,0.4804687 H 6.1869922 C 6.3510547,-6.7379688 6.5033984,-6.960625 6.6440234,-7.148125 l 0.234375,-0.058594 c 0.046875,-0.011719 0.082031,-0.035156 0.09375,-0.070312 0.023437,-0.011719 -0.023437,-0.058594 -0.1171875,-0.1171875 L 6.1635547,-7.7926563 6.0815234,-7.47625 C 6.0229297,-7.2653125 5.9408984,-7.0075 5.7885547,-6.6910938 5.6362109,-6.3864063 5.3901172,-5.929375 5.0268359,-5.32 L 4.6283984,-5.4957813 4.6869922,-4.66375 V -4.195 H 2.5658984 l -0.75,-0.023437 0.421875,0.398437 c 0.2578125,-0.09375 0.4921875,-0.140625 0.7148438,-0.140625 h 1.734375 v 0.9492187 z m 2.17968746,-4.7578125 -0.082031,0.2578125 c -0.058594,0.1523438 -0.140625,0.3515625 -0.28125,0.6210938 -0.1289065,0.2578125 -0.292969,0.5390625 -0.480469,0.8320312 -0.1757812,0.2929688 -0.3632812,0.5625 -0.5390625,0.8085938 l -0.42187496,0.5507812 c -0.0585938,0.058594 -0.1171875,0.1523438 -0.19921875,0.2695313 l 0.0820313,0.082031 C 1.2416797,-4.85125 1.6166797,-5.2145313 1.8041797,-5.4254688 c 0.1875,-0.2226562 0.4101562,-0.4921875 0.65625,-0.8203125 h 0.6445312 l 0.140625,0.2578125 c 0.035156,0.046875 0.058594,0.140625 0.1054688,0.2460938 0.035156,0.1171875 0.070312,0.2460937 0.09375,0.3867187 0.035156,0.140625 0.046875,0.2578125 0.046875,0.3632813 0,0.1054687 0.011719,0.1757812 0.035156,0.1875 0.023437,0.011719 0.035156,0.023437 0.070312,0.023437 0.070312,0.011719 0.140625,-0.035156 0.2226563,-0.1171875 0.070312,-0.1054688 0.1289062,-0.1875 0.1640625,-0.2460938 0.035156,-0.070312 0.046875,-0.140625 0.035156,-0.2109375 0,-0.082031 -0.046875,-0.1640625 -0.1171875,-0.2578125 C 3.831523,-5.6950003 3.620585,-5.905938 3.29246,-6.2457818 h 1.7929688 c 0.023437,0 0.046875,-0.011719 0.058594,-0.035156 0.011719,-0.011719 0,-0.046875 -0.046875,-0.070312 l -0.703125,-0.5976563 -0.375,0.46875 H 2.6362109 l 0.46875,-0.6210937 0.2578125,-0.046875 c 0.058594,-0.011719 0.1054688,-0.023437 0.1171875,-0.058594 0.011719,-0.023437 -0.035156,-0.070312 -0.140625,-0.140625 z m -1.6054687,6.1523438 0.4101562,0.3867187 c 0.2109375,-0.082031 0.4570313,-0.1289062 0.7148438,-0.1289062 h 0.9960937 c 0.3164063,0.3515625 0.515625,0.62109375 0.5976563,0.84375 0.070312,0.19921875 0.1171875,0.3515625 0.140625,0.45703125 0,0.09375 0.023437,0.1640625 0.058594,0.19921875 0.011719,0.0234375 0.046875,0.046875 0.09375,0.0585938 C 4.1479297,0.21125 4.2651172,0.15265625 4.3588672,3.125e-4 4.4408984,-0.10515625 4.4760547,-0.22234375 4.4643359,-0.33953125 4.4526172,-0.43328125 4.4057422,-0.5621875 4.2885547,-0.6559375 4.1830859,-0.773125 3.8783984,-1.0075 3.3862109,-1.3590625 h 3.046875 v 1.88671875 c 0,0.09375 -0.023437,0.17578125 -0.082031,0.234375 -0.035156,0.0703125 -0.1992188,0.0703125 -0.46875,0.0234375 C 5.6127734,0.73859375 5.3080859,0.68 4.9448047,0.62140625 l -0.023437,0.140625 c 0.4570312,0.1640625 0.7382812,0.28124995 0.8554687,0.37499995 0.1054688,0.09375 0.1640625,0.1640625 0.1757813,0.2578125 0.023437,0.082031 0.035156,0.1640625 0.035156,0.2460938 C 6.1401172,1.6175 6.3158984,1.5471875 6.5151172,1.43 c 0.1992187,-0.1054688 0.328125,-0.2109375 0.375,-0.328125 0.058594,-0.10546875 0.09375,-0.2109375 0.09375,-0.3046875 v -2.15625 h 2.15625 c 0.058594,0 0.1054687,0 0.1171875,-0.011719 0.011719,-0.011719 -0.023437,-0.058594 -0.1171875,-0.140625 L 8.4721484,-2.1090625 8.0737109,-1.57 H 6.9838672 v -0.515625 l 0.1992187,-0.082031 c 0.09375,-0.058594 0.1289063,-0.082031 0.1289063,-0.1054687 -0.011719,-0.011719 -0.035156,-0.023437 -0.09375,-0.058594 l -0.8320313,-0.3867187 0.046875,0.84375 V -1.57 H 1.9565234 Z M 10.033672,1.52375 10.139141,1.6175 c 0.339843,-0.3398438 0.632812,-0.6796875 0.878906,-1.0078125 0.246094,-0.328125 0.445312,-0.73828125 0.609375,-1.20703125 0.164062,-0.48046875 0.269531,-0.96093755 0.328125,-1.45312505 0.03516,-0.4921875 0.08203,-0.9726562 0.105469,-1.4414062 0.03516,-0.46875 0.07031,-1.4179688 0.140625,-2.8476563 h 7.101562 c 0.07031,0 0.105469,-0.011719 0.128906,-0.035156 0,-0.023437 -0.01172,-0.046875 -0.05859,-0.09375 l -0.808594,-0.75 -0.457031,0.6445312 h -5.660157 l -0.914062,-0.5625 0.04687,1.5585938 c 0.01172,0.2929687 0,0.7382812 -0.02344,1.359375 -0.03516,0.6210937 -0.05859,1.171875 -0.09375,1.6523437 -0.02344,0.46875 -0.08203,0.9492188 -0.152343,1.4648438 -0.07031,0.50390625 -0.234375,0.9609375 -0.457032,1.3828125 C 10.619609,0.68 10.338359,1.101875 10.033672,1.52375 Z m 1.289062,-0.76171875 0.398438,0.41015625 c 0.304687,-0.09375 0.667969,-0.140625 1.066406,-0.140625 h 6.738281 c 0.04687,0 0.07031,-0.011719 0.08203,-0.046875 0.01172,-0.0234375 -0.01172,-0.0585938 -0.04687,-0.0820313 L 18.787578,0.1409375 18.271953,0.78546875 H 15.717266 V -3.023125 h 2.976562 c 0.05859,0 0.08203,-0.011719 0.09375,-0.035156 0,-0.023437 -0.02344,-0.058594 -0.09375,-0.1289062 L 17.967266,-3.866875 17.498516,-3.2575 h -1.78125 V -5.1676563 L 16.033672,-5.41375 c 0.04687,-0.035156 0.07031,-0.070312 0.08203,-0.082031 0,-0.023437 -0.03516,-0.046875 -0.105469,-0.070312 l -0.984375,-0.375 0.07031,0.9609375 V -3.2575 h -2.003906 l -0.644532,-0.023437 0.46875,0.4453125 c 0.257813,-0.1289063 0.597657,-0.1875 0.996094,-0.1875 h 1.183594 v 3.80859375 h -3.246094 z m 5.121094,-2.82421875 c 0.316406,0.2460937 0.574219,0.5039062 0.785156,0.75 0.210938,0.2460937 0.351563,0.45703125 0.421875,0.64453125 0.07031,0.1875 0.117188,0.3046875 0.152344,0.36328125 0.03516,0.046875 0.05859,0.0703125 0.105469,0.0820313 0.05859,0.0117188 0.117187,-0.0234375 0.1875,-0.09375 0.07031,-0.0820313 0.140625,-0.17578125 0.1875,-0.26953125 0.03516,-0.09375 0.05859,-0.1875 0.04687,-0.28125 0,-0.09375 -0.03516,-0.19921885 -0.117188,-0.30468755 C 18.119609,-1.3004688 17.955547,-1.429375 17.697734,-1.57 17.439922,-1.7223438 17.041484,-1.9215625 16.502422,-2.1676563 Z m 0,0"
       style="fill:#0000ff;fill-opacity:1;fill-rule:nonzero;stroke:none"
       aria-label="等压"
       transform="matrix(1.3333333,0,0,1.3333333,37.973333,20.593333)" />
  </g>
</svg>
