<?xml version="1.0" encoding="UTF-8" standalone="no"?>
<!-- Created with Inkscape (http://www.inkscape.org/) -->
<svg version="1.1" id="svg1" width="106.41333" height="65.386665" viewBox="0 0 106.41333 65.386665" sodipodi:docname="22-23-2-大学物理E（上）-期末-题图1.2.pdf" xmlns:inkscape="http://www.inkscape.org/namespaces/inkscape" xmlns:sodipodi="http://sodipodi.sourceforge.net/DTD/sodipodi-0.dtd" xmlns="http://www.w3.org/2000/svg" xmlns:svg="http://www.w3.org/2000/svg">
  <defs id="defs1"/>
  <sodipodi:namedview id="namedview1" pagecolor="#ffffff" bordercolor="#000000" borderopacity="0.25" inkscape:showpageshadow="2" inkscape:pageopacity="0.0" inkscape:pagecheckerboard="0" inkscape:deskcolor="#d1d1d1">
    <inkscape:page x="0" y="0" inkscape:label="1" id="page1" width="106.41333" height="65.386665" margin="0" bleed="0"/>
  </sodipodi:namedview>
  <g id="g1" inkscape:groupmode="layer" inkscape:label="1">
    <path id="path1" d="M 8.5037,0 C 8.5037,4.6965 4.6965,8.5037 0,8.5037 -4.6965,8.5037 -8.5037,4.6965 -8.5037,0 c 0,-4.6965 3.8072,-8.5037 8.5037,-8.5037 4.6965,0 8.5037,3.8072 8.5037,8.5037 z" style="fill:none;stroke:#000000;stroke-width:0.3985;stroke-linecap:butt;stroke-linejoin:miter;stroke-miterlimit:10;stroke-dasharray:none;stroke-opacity:1" transform="matrix(1.3333333,0,0,-1.3333333,11.604,37.524)"/>
    <path id="path2" d="m 65.19733,0 c 0,4.6965 -3.80719,8.5037 -8.5037,8.5037 -4.69651,0 -8.5037,-3.8072 -8.5037,-8.5037 0,-4.6965 3.80719,-8.5037 8.5037,-8.5037 4.69651,0 8.5037,3.8072 8.5037,8.5037 z" style="fill:none;stroke:#000000;stroke-width:0.3985;stroke-linecap:butt;stroke-linejoin:miter;stroke-miterlimit:10;stroke-dasharray:none;stroke-opacity:1" transform="matrix(1.3333333,0,0,-1.3333333,11.604,37.524)"/>
    <path id="path3" d="M 0,8.5037 H 56.69363 M 0,-8.5037 h 56.69363" style="fill:none;stroke:#000000;stroke-width:0.3985;stroke-linecap:butt;stroke-linejoin:miter;stroke-miterlimit:10;stroke-dasharray:none;stroke-opacity:1" transform="matrix(1.3333333,0,0,-1.3333333,11.604,37.524)"/>
    <path id="path4" d="m 51.02391,17.00826 h 13.7749" style="fill:none;stroke:#000000;stroke-width:0.3985;stroke-linecap:butt;stroke-linejoin:miter;stroke-miterlimit:10;stroke-dasharray:none;stroke-opacity:1" transform="matrix(1.3333333,0,0,-1.3333333,11.604,37.524)"/>
    <path id="path5" d="M -2.07224,2.39104 C -1.69365,0.95639 -0.84999,0.27895 0,0 -0.84999,-0.27895 -1.69365,-0.95639 -2.07224,-2.39104" style="fill:none;stroke:#000000;stroke-width:0.3985;stroke-linecap:round;stroke-linejoin:round;stroke-miterlimit:10;stroke-dasharray:none;stroke-opacity:1" transform="matrix(1.3333333,0,0,-1.3333333,98.26808,14.84632)"/>
    <path id="path6" d="m 4.6627266,-3.7038672 c 0,-0.5390625 -0.2578125,-0.703125 -0.4453125,-0.703125 -0.2460938,0 -0.4804688,0.2578125 -0.4804688,0.4804688 0,0.1289062 0.046875,0.1875 0.1523438,0.3046875 0.2109375,0.1992187 0.3398437,0.4570312 0.3398437,0.8085937 0,0.421875 -0.609375,2.70703126 -1.7695312,2.70703126 -0.5039063,0 -0.7382813,-0.3515625 -0.7382813,-0.8671875 0,-0.56249996 0.2695313,-1.28906246 0.5742188,-2.12109376 0.070312,-0.1640625 0.1289062,-0.3046875 0.1289062,-0.4921875 0,-0.4453125 -0.328125,-0.8203125 -0.8203125,-0.8203125 -0.93749999,0 -1.31249999,1.453125 -1.31249999,1.5351563 0,0.1054687 0.09375,0.1054687 0.1171875,0.1054687 0.09375,0 0.10546875,-0.023437 0.15234375,-0.1875 0.29296875,-0.9960937 0.72656254,-1.2304687 1.00781254,-1.2304687 0.082031,0 0.2578125,0 0.2578125,0.3164062 0,0.2460938 -0.1054688,0.515625 -0.1757813,0.703125 -0.4335937,1.1484375 -0.5625,1.6054688 -0.5625,2.0390625 0,1.07812501 0.8671875,1.23046876 1.3359375,1.23046876 1.6640625,0 2.2382813,-3.29296876 2.2382813,-3.80859376 z m 0,0" style="fill:#000000;fill-opacity:1;fill-rule:nonzero;stroke:none" aria-label="v" transform="matrix(1.3333333,0,0,1.3333333,95.076,10.153333)"/>
    <path id="path7" d="m 9.2237813,-6.0344531 c 0.09375,-0.3632813 0.1054687,-0.4570313 0.8554687,-0.4570313 0.234375,0 0.316406,0 0.316406,-0.1992187 0,-0.1171875 -0.09375,-0.1171875 -0.269531,-0.1171875 h -1.3125 c -0.2578125,0 -0.2695312,0 -0.3867187,0.1992187 L 4.7940938,-0.93679687 4.0206563,-6.5735156 C 3.9855,-6.8078906 3.9620625,-6.8078906 3.70425,-6.8078906 H 2.344875 c -0.1875,0 -0.3046875,0 -0.3046875,0.1992187 0,0.1171875 0.09375,0.1171875 0.2929688,0.1171875 0.1289062,0 0.3046875,0.011719 0.421875,0.011719 0.1640625,0.023437 0.2226562,0.058594 0.2226562,0.1640625 0,0.035156 -0.011719,0.070312 -0.035156,0.1875 l -1.265625,5.0742187 c -0.1054688,0.39843753 -0.2695313,0.71484378 -1.07812505,0.75000003 -0.046875,0 -0.17578125,0 -0.17578125,0.1875 0,0.08203125 0.0585938,0.117187495 0.140625,0.117187495 0.31640625,0 0.6679688,-0.035156245 0.9960938,-0.035156245 0.3398437,0 0.6914062,0.035156245 1.0195312,0.035156245 0.046875,0 0.1757813,0 0.1757813,-0.199218745 0,-0.10546875 -0.1054688,-0.10546875 -0.1757813,-0.10546875 -0.5625,-0.0117188 -0.6796875,-0.2109375 -0.6796875,-0.4453125 0,-0.0703125 0.011719,-0.1171875 0.046875,-0.22265625 L 3.2940938,-6.4094531 h 0.011719 l 0.8554688,6.17578123 c 0.023437,0.12890625 0.035156,0.234374995 0.1523437,0.234374995 0.1054688,0 0.1757813,-0.105468745 0.2226563,-0.175781245 L 8.5558125,-6.4797656 h 0.011719 L 7.137844,-0.77273437 c -0.09375,0.38671875 -0.1171875,0.46875 -0.9023438,0.46875 -0.1640625,0 -0.28125,0 -0.28125,0.1875 0,0.117187495 0.1289063,0.117187495 0.1523438,0.117187495 0.28125,0 0.9609375,-0.035156245 1.2304687,-0.035156245 0.4101563,0 0.84375,0.035156245 1.2539063,0.035156245 0.058594,0 0.1875,0 0.1875,-0.199218745 0,-0.10546875 -0.09375,-0.10546875 -0.28125,-0.10546875 -0.3632813,0 -0.6445313,0 -0.6445313,-0.1875 0,-0.0351563 0,-0.0585938 0.046875,-0.234375 z m 0,0" style="fill:#000000;fill-opacity:1;fill-rule:nonzero;stroke:none" aria-label="M" transform="matrix(1.3333333,0,0,1.3333333,4.436,60.96)"/>
  </g>
</svg>