<?xml version="1.0" encoding="UTF-8" standalone="no"?>
<!-- Created with Inkscape (http://www.inkscape.org/) -->
<svg version="1.1" id="svg1" width="118.88" height="43.746666" viewBox="0 0 118.88 43.746666" sodipodi:docname="22-23-2-大学物理E（上）-期末-题图1.3.pdf" xmlns:inkscape="http://www.inkscape.org/namespaces/inkscape" xmlns:sodipodi="http://sodipodi.sourceforge.net/DTD/sodipodi-0.dtd" xmlns="http://www.w3.org/2000/svg" xmlns:svg="http://www.w3.org/2000/svg">
  <defs id="defs1"/>
  <sodipodi:namedview id="namedview1" pagecolor="#ffffff" bordercolor="#000000" borderopacity="0.25" inkscape:showpageshadow="2" inkscape:pageopacity="0.0" inkscape:pagecheckerboard="0" inkscape:deskcolor="#d1d1d1">
    <inkscape:page x="0" y="0" inkscape:label="1" id="page1" width="118.88" height="43.746666" margin="0" bleed="0"/>
  </sodipodi:namedview>
  <g id="g1" inkscape:groupmode="layer" inkscape:label="1">
    <path id="path1" d="m 0.35468,0 c 0,0.19588 -0.1588,0.35468 -0.35468,0.35468 -0.19588,0 -0.35468,-0.1588 -0.35468,-0.35468 0,-0.19588 0.1588,-0.35468 0.35468,-0.35468 0.19588,0 0.35468,0.1588 0.35468,0.35468 z M 0,0 h 35.4335 m 0.3547,0 c 0,0.19588 -0.15882,0.35468 -0.3547,0.35468 -0.19587,0 -0.35467,-0.1588 -0.35467,-0.35468 0,-0.19588 0.1588,-0.35468 0.35467,-0.35468 0.19588,0 0.3547,0.1588 0.3547,0.35468 z m -0.3547,0 h 35.43353 m 0.35468,0 c 0,0.19588 -0.1588,0.35468 -0.35468,0.35468 -0.19587,0 -0.35467,-0.1588 -0.35467,-0.35468 0,-0.19588 0.1588,-0.35468 0.35467,-0.35468 0.19588,0 0.35468,0.1588 0.35468,0.35468 z" style="fill:#000000;fill-opacity:1;fill-rule:nonzero;stroke:#000000;stroke-width:0.3985;stroke-linecap:butt;stroke-linejoin:miter;stroke-miterlimit:10;stroke-dasharray:none;stroke-opacity:1" transform="matrix(1.3333333,0,0,-1.3333333,12.796,19.457333)"/>
    <g id="g2" aria-label="+q" transform="matrix(1.3333333,0,0,1.3333333,4.4266667,12.181333)">
      <path id="path2" d="m 4.0774609,-2.2981094 h 2.7773438 c 0.140625,0 0.328125,0 0.328125,-0.1992187 0,-0.1992188 -0.1875,-0.1992188 -0.328125,-0.1992188 H 4.0774609 v -2.7890625 c 0,-0.1289062 0,-0.328125 -0.1992187,-0.328125 -0.1992188,0 -0.1992188,0.1992188 -0.1992188,0.328125 v 2.7890625 H 0.88996094 c -0.140625,0 -0.328125,0 -0.328125,0.1992188 0,0.1992187 0.1875,0.1992187 0.328125,0.1992187 H 3.6790234 v 2.80078127 c 0,0.12890625 0,0.328125 0.1992188,0.328125 0.1992187,0 0.1992187,-0.19921875 0.1992187,-0.328125 z m 0,0" style="fill:#000000;fill-opacity:1;fill-rule:nonzero;stroke:none"/>
      <path id="path3" d="m 12.248359,-4.2902969 c 0,-0.046875 -0.02344,-0.1054687 -0.09375,-0.1054687 -0.117187,0 -0.515625,0.3984375 -0.679687,0.6914062 -0.222656,-0.5390625 -0.609375,-0.703125 -0.925781,-0.703125 -1.1718754,0 -2.4023441,1.4765625 -2.4023441,2.9179688 0,0.98437497 0.5859375,1.59374997 1.3125,1.59374997 0.4335937,0 0.8203121,-0.234375 1.1835941,-0.59765625 -0.09375,0.3515625 -0.421875,1.69921878 -0.457032,1.79296878 -0.08203,0.2695312 -0.152343,0.3164062 -0.7148434,0.328125 -0.1289062,0 -0.2226562,0 -0.2226562,0.1992187 0,0 0,0.1054688 0.1289062,0.1054688 0.3164063,0 0.6679684,-0.035156 0.9960934,-0.035156 0.328125,0 0.691407,0.035156 1.019532,0.035156 0.04687,0 0.175781,0 0.175781,-0.1992188 0,-0.1054687 -0.09375,-0.1054687 -0.257813,-0.1054687 -0.46875,0 -0.46875,-0.070312 -0.46875,-0.1640625 0,-0.070312 0.01172,-0.1289063 0.03516,-0.2226563 z m -2.7539059,4.18359377 c -0.5976562,0 -0.6445312,-0.7734375 -0.6445312,-0.93749997 0,-0.4804688 0.2929687,-1.5703125 0.4570312,-1.9804688 0.3164063,-0.7382812 0.8320309,-1.1601562 1.2421879,-1.1601562 0.644531,0 0.785156,0.8085937 0.785156,0.8789062 0,0.058594 -0.550781,2.2382813 -0.574219,2.2734375 -0.152344,0.28125002 -0.714844,0.92578127 -1.2656249,0.92578127 z m 0,0" style="fill:#000000;fill-opacity:1;fill-rule:nonzero;stroke:none"/>
    </g>
    <path id="path4" d="m 3.0240391,-3.151125 h 1.6875 c 1.4179687,0 2.8007812,-1.03125 2.8007812,-2.1445313 0,-0.7734375 -0.65625,-1.5117187 -1.96875,-1.5117187 H 2.3209141 c -0.1875,0 -0.2929688,0 -0.2929688,0.1992187 0,0.1171875 0.082031,0.1171875 0.28125,0.1171875 0.1289063,0 0.3164063,0.011719 0.4335938,0.011719 0.1523437,0.023437 0.2109375,0.058594 0.2109375,0.1640625 0,0.035156 0,0.070312 -0.035156,0.1875 l -1.3359375,5.35546875 c -0.09375,0.38671875 -0.1171875,0.46875 -0.90234374,0.46875 -0.17578125,0 -0.28125,0 -0.28125,0.1875 0,0.1171875 0.1171875,0.1171875 0.15234375,0.1171875 0.28125,0 0.98437499,-0.03515625 1.26562499,-0.03515625 0.2109375,0 0.421875,0.01171875 0.6328125,0.01171875 0.2226563,0 0.4453125,0.0234375 0.6445313,0.0234375 0.070312,0 0.1992187,0 0.1992187,-0.19921875 0,-0.10546875 -0.082031,-0.10546875 -0.2695312,-0.10546875 -0.375,0 -0.65625,0 -0.65625,-0.1875 0,-0.0585937 0.023437,-0.10546875 0.035156,-0.1640625 z m 0.7148437,-2.9648438 c 0.082031,-0.3515625 0.1054688,-0.375 0.5390625,-0.375 h 0.9492188 c 0.8320312,0 1.359375,0.2695313 1.359375,0.9492188 0,0.3984375 -0.1992188,1.2539062 -0.5859375,1.6054687 -0.5039063,0.4453125 -1.1015625,0.5273438 -1.5351563,0.5273438 h -1.40625 z m 0,0" style="fill:#000000;fill-opacity:1;fill-rule:nonzero;stroke:none" aria-label="P" transform="matrix(1.3333333,0,0,1.3333333,54.854667,14.764)"/>
    <path id="path5" d="m 9.2225469,-6.0339375 c 0.09375,-0.3632813 0.1054687,-0.4570313 0.8554691,-0.4570313 0.234375,0 0.316406,0 0.316406,-0.1992187 0,-0.1171875 -0.09375,-0.1171875 -0.269531,-0.1171875 H 8.8123906 c -0.2578125,0 -0.2695312,0 -0.3867187,0.1992187 L 4.7928594,-0.93628125 4.0194219,-6.573 C 3.9842656,-6.807375 3.9608281,-6.807375 3.7030156,-6.807375 h -1.359375 c -0.1875,0 -0.3046875,0 -0.3046875,0.1992187 0,0.1171875 0.09375,0.1171875 0.2929688,0.1171875 0.1289062,0 0.3046875,0.011719 0.421875,0.011719 0.1640625,0.023437 0.2226562,0.058594 0.2226562,0.1640625 0,0.035156 -0.011719,0.070312 -0.035156,0.1875 l -1.265625,5.0742187 c -0.1054688,0.39843755 -0.2695313,0.7148438 -1.07812503,0.75000005 -0.046875,0 -0.17578125,0 -0.17578125,0.1875 0,0.08203125 0.0585938,0.1171875 0.140625,0.1171875 0.31640625,0 0.66796878,-0.03515625 0.99609378,-0.03515625 0.3398437,0 0.6914062,0.03515625 1.0195312,0.03515625 0.046875,0 0.1757813,0 0.1757813,-0.19921875 0,-0.10546875 -0.1054688,-0.10546875 -0.1757813,-0.10546875 -0.5625,-0.0117188 -0.6796875,-0.2109375 -0.6796875,-0.4453125 0,-0.0703125 0.011719,-0.1171875 0.046875,-0.22265625 l 1.3476563,-5.4375 h 0.011719 l 0.8554688,6.17578125 c 0.023437,0.12890625 0.035156,0.234375 0.1523437,0.234375 0.1054688,0 0.1757813,-0.10546875 0.2226563,-0.17578125 L 8.5545781,-6.47925 h 0.011719 l -1.4296875,5.70703125 c -0.09375,0.38671875 -0.1171875,0.46875 -0.9023438,0.46875 -0.1640625,0 -0.28125,0 -0.28125,0.1875 0,0.1171875 0.1289063,0.1171875 0.1523438,0.1171875 0.28125,0 0.9609375,-0.03515625 1.2304687,-0.03515625 0.4101563,0 0.84375,0.03515625 1.2539063,0.03515625 0.058594,0 0.1875,0 0.1875,-0.19921875 0,-0.10546875 -0.09375,-0.10546875 -0.28125,-0.10546875 -0.3632813,0 -0.6445313,0 -0.6445313,-0.1875 0,-0.0351562 0,-0.0585937 0.046875,-0.234375 z m 0,0" style="fill:#000000;fill-opacity:1;fill-rule:nonzero;stroke:none" aria-label="M" transform="matrix(1.3333333,0,0,1.3333333,100.11733,14.764)"/>
    <path id="path6" d="M 0,0 V -14.17317" style="fill:none;stroke:#000000;stroke-width:0.3985;stroke-linecap:butt;stroke-linejoin:miter;stroke-miterlimit:10;stroke-dasharray:none;stroke-opacity:1" transform="matrix(1.3333333,0,0,-1.3333333,12.796,19.457333)"/>
    <path id="path7" d="M 35.4335,0 V -14.17317" style="fill:none;stroke:#000000;stroke-width:0.3985;stroke-linecap:butt;stroke-linejoin:miter;stroke-miterlimit:10;stroke-dasharray:none;stroke-opacity:1" transform="matrix(1.3333333,0,0,-1.3333333,12.796,19.457333)"/>
    <path id="path8" d="M 70.86703,0 V -14.17317" style="fill:none;stroke:#000000;stroke-width:0.3985;stroke-linecap:butt;stroke-linejoin:miter;stroke-miterlimit:10;stroke-dasharray:none;stroke-opacity:1" transform="matrix(1.3333333,0,0,-1.3333333,12.796,19.457333)"/>
    <path id="path9" d="M 0.3985,-7.08713 H 35.035" style="fill:none;stroke:#000000;stroke-width:0.3985;stroke-linecap:butt;stroke-linejoin:miter;stroke-miterlimit:10;stroke-dasharray:none;stroke-opacity:1" transform="matrix(1.3333333,0,0,-1.3333333,12.796,19.457333)"/>
    <path id="path10" d="M -2.07224,2.39104 C -1.69365,0.95639 -0.84999,0.27895 0,0 -0.84999,-0.27895 -1.69365,-0.95639 -2.07224,-2.39104" style="fill:none;stroke:#000000;stroke-width:0.3985;stroke-linecap:round;stroke-linejoin:round;stroke-miterlimit:10;stroke-dasharray:none;stroke-opacity:1" transform="matrix(-1.3333333,0,0,1.3333333,13.061667,28.90684)"/>
    <path id="path11" d="M -2.07224,2.39104 C -1.69365,0.95639 -0.84999,0.27895 0,0 -0.84999,-0.27895 -1.69365,-0.95639 -2.07224,-2.39104" style="fill:none;stroke:#000000;stroke-width:0.3985;stroke-linecap:round;stroke-linejoin:round;stroke-miterlimit:10;stroke-dasharray:none;stroke-opacity:1" transform="matrix(1.3333333,0,0,-1.3333333,59.775,28.90684)"/>
    <path id="path12" d="m 3.7135312,-3.7604844 c -0.1757812,-0.375 -0.46875,-0.6445312 -0.9140625,-0.6445312 -1.171875,0 -2.4023437,1.4648437 -2.4023437,2.9179687 0,0.93750002 0.55078125,1.59375002 1.3242187,1.59375002 0.1992188,0 0.703125,-0.03515625 1.3007813,-0.73828125 0.070312,0.41015625 0.421875,0.73828125 0.9023437,0.73828125 0.3515625,0 0.5742188,-0.22265625 0.7382813,-0.5390625 0.1640625,-0.36328125 0.2929687,-0.97265622 0.2929687,-0.99609372 0,-0.09375 -0.082031,-0.09375 -0.1171875,-0.09375 -0.09375,0 -0.1054687,0.035156 -0.140625,0.1757812 -0.1640625,0.64453127 -0.3515625,1.24218752 -0.75,1.24218752 -0.2695312,0 -0.3046875,-0.2578125 -0.3046875,-0.45703125 0,-0.22265625 0.023437,-0.3046875 0.1289063,-0.73828127 0.1171875,-0.421875 0.1289062,-0.5273437 0.2226562,-0.9023437 l 0.3515625,-1.3945313 c 0.070312,-0.28125 0.070312,-0.2929687 0.070312,-0.3398437 0,-0.1640625 -0.1171875,-0.2695313 -0.28125,-0.2695313 -0.2460937,0 -0.3867187,0.2226563 -0.4218745,0.4453125 z M 3.069,-1.1823594 c -0.046875,0.1757813 -0.046875,0.19921877 -0.1992188,0.36328127 -0.4453125,0.55078125 -0.84375,0.71484375 -1.125,0.71484375 -0.5039062,0 -0.6445312,-0.55078125 -0.6445312,-0.93750002 0,-0.5039062 0.328125,-1.7226562 0.5507812,-2.1796875 0.3046875,-0.5976562 0.7617188,-0.9609375 1.1601563,-0.9609375 0.6445312,0 0.7851562,0.8203125 0.7851562,0.8789063 0,0.058594 -0.023437,0.1171875 -0.035156,0.1640625 z m 0,0" style="fill:#000000;fill-opacity:1;fill-rule:nonzero;stroke:none" aria-label="a" transform="matrix(1.3333333,0,0,1.3333333,32.908,39.318667)"/>
    <path id="path13" d="m 35.83202,-7.08713 h 34.6365" style="fill:none;stroke:#000000;stroke-width:0.3985;stroke-linecap:butt;stroke-linejoin:miter;stroke-miterlimit:10;stroke-dasharray:none;stroke-opacity:1" transform="matrix(1.3333333,0,0,-1.3333333,12.796,19.457333)"/>
    <path id="path14" d="M -2.07224,2.39104 C -1.69365,0.95639 -0.84999,0.27895 0,0 -0.84999,-0.27895 -1.69365,-0.95639 -2.07224,-2.39104" style="fill:none;stroke:#000000;stroke-width:0.3985;stroke-linecap:round;stroke-linejoin:round;stroke-miterlimit:10;stroke-dasharray:none;stroke-opacity:1" transform="matrix(-1.3333333,0,0,1.3333333,60.30636,28.90684)"/>
    <path id="path15" d="M -2.07224,2.39104 C -1.69365,0.95639 -0.84999,0.27895 0,0 -0.84999,-0.27895 -1.69365,-0.95639 -2.07224,-2.39104" style="fill:none;stroke:#000000;stroke-width:0.3985;stroke-linecap:round;stroke-linejoin:round;stroke-miterlimit:10;stroke-dasharray:none;stroke-opacity:1" transform="matrix(1.3333333,0,0,-1.3333333,107.01969,28.90684)"/>
    <path id="path16" d="m 3.7151016,-3.7604844 c -0.1757813,-0.375 -0.46875,-0.6445312 -0.9140625,-0.6445312 -1.171875,0 -2.40234379,1.4648437 -2.40234379,2.9179687 0,0.93750002 0.55078125,1.59375002 1.32421879,1.59375002 0.1992187,0 0.703125,-0.03515625 1.3007812,-0.73828125 0.070312,0.41015625 0.421875,0.73828125 0.9023438,0.73828125 0.3515625,0 0.5742187,-0.22265625 0.7382812,-0.5390625 0.1640625,-0.36328125 0.2929688,-0.97265622 0.2929688,-0.99609372 0,-0.09375 -0.082031,-0.09375 -0.1171875,-0.09375 -0.09375,0 -0.1054688,0.035156 -0.140625,0.1757812 -0.1640625,0.64453127 -0.3515625,1.24218752 -0.75,1.24218752 -0.2695313,0 -0.3046875,-0.2578125 -0.3046875,-0.45703125 0,-0.22265625 0.023437,-0.3046875 0.1289062,-0.73828127 0.1171875,-0.421875 0.1289063,-0.5273437 0.2226563,-0.9023437 l 0.3515625,-1.3945313 c 0.070312,-0.28125 0.070312,-0.2929687 0.070312,-0.3398437 0,-0.1640625 -0.1171875,-0.2695313 -0.28125,-0.2695313 -0.2460938,0 -0.3867188,0.2226563 -0.4218745,0.4453125 z m -0.6445313,2.578125 c -0.046875,0.1757813 -0.046875,0.19921877 -0.1992187,0.36328127 -0.4453125,0.55078125 -0.84375,0.71484375 -1.125,0.71484375 -0.5039063,0 -0.6445313,-0.55078125 -0.6445313,-0.93750002 0,-0.5039062 0.328125,-1.7226562 0.5507813,-2.1796875 0.3046875,-0.5976562 0.7617187,-0.9609375 1.1601562,-0.9609375 0.6445313,0 0.7851563,0.8203125 0.7851563,0.8789063 0,0.058594 -0.023437,0.1171875 -0.035156,0.1640625 z m 0,0" style="fill:#000000;fill-opacity:1;fill-rule:nonzero;stroke:none" aria-label="a" transform="matrix(1.3333333,0,0,1.3333333,80.152,39.318667)"/>
  </g>
</svg>