<?xml version="1.0" encoding="UTF-8" standalone="no"?>
<!-- Created with Inkscape (http://www.inkscape.org/) -->
<svg version="1.1" id="svg1" width="213.24001" height="319.14667" viewBox="0 0 213.24001 319.14667" sodipodi:docname="22-23-2-大学物理E（上）-期末-题图3.3.pdf" xmlns:inkscape="http://www.inkscape.org/namespaces/inkscape" xmlns:sodipodi="http://sodipodi.sourceforge.net/DTD/sodipodi-0.dtd" xmlns="http://www.w3.org/2000/svg" xmlns:svg="http://www.w3.org/2000/svg">
  <defs id="defs1"/>
  <sodipodi:namedview id="namedview1" pagecolor="#ffffff" bordercolor="#000000" borderopacity="0.25" inkscape:showpageshadow="2" inkscape:pageopacity="0.0" inkscape:pagecheckerboard="0" inkscape:deskcolor="#d1d1d1">
    <inkscape:page x="0" y="0" inkscape:label="1" id="page1" width="213.24001" height="319.14667" margin="0" bleed="0"/>
  </sodipodi:namedview>
  <g id="g1" inkscape:groupmode="layer" inkscape:label="1">
    <path id="path1" d="M 0,-6.80312 C 7.82771,-6.80312 14.17317,-3.7573 14.17317,0 14.17317,3.7573 7.82771,6.80312 0,6.80312 -7.82771,6.80312 -14.17317,3.7573 -14.17317,0 c 0,-3.7573 6.34546,-6.80312 14.17317,-6.80312 z" style="fill:none;stroke:#000000;stroke-width:0.3985;stroke-linecap:butt;stroke-linejoin:miter;stroke-miterlimit:10;stroke-dasharray:2.98883, 2.98883;stroke-dashoffset:0;stroke-opacity:1" transform="matrix(1.3333333,0,0,-1.3333333,118.48533,273.52667)"/>
    <path id="path2" d="m 0,-27.21303 c 31.31154,0 56.69385,12.1835 56.69385,27.21303 0,15.02953 -25.38231,27.21303 -56.69385,27.21303 -31.31154,0 -56.69385,-12.1835 -56.69385,-27.21303 0,-15.02953 25.38231,-27.21303 56.69385,-27.21303 z" style="fill:none;stroke:#000000;stroke-width:0.3985;stroke-linecap:butt;stroke-linejoin:miter;stroke-miterlimit:10;stroke-dasharray:2.98883, 2.98883;stroke-dashoffset:0;stroke-opacity:1" transform="matrix(1.3333333,0,0,-1.3333333,118.48533,273.52667)"/>
    <path id="path3" d="M 0,-34.01617 C 39.13928,-34.01617 70.86703,-18.78683 70.86703,0 70.86703,18.78683 39.13928,34.01617 0,34.01617 -39.13928,34.01617 -70.86703,18.78683 -70.86703,0 -70.86703,-18.78683 -39.13928,-34.01617 0,-34.01617 Z" style="fill:none;stroke:#000000;stroke-width:0.3985;stroke-linecap:butt;stroke-linejoin:miter;stroke-miterlimit:10;stroke-dasharray:none;stroke-opacity:1" transform="matrix(1.3333333,0,0,-1.3333333,118.48533,273.52667)"/>
    <path id="path4" d="m 0,134.93095 c 7.82771,0 14.17317,3.04583 14.17317,6.80314 0,3.75731 -6.34546,6.80313 -14.17317,6.80313 -7.82771,0 -14.17317,-3.04582 -14.17317,-6.80313 0,-3.75731 6.34546,-6.80314 14.17317,-6.80314 z" style="fill:none;stroke:#000000;stroke-width:0.3985;stroke-linecap:butt;stroke-linejoin:miter;stroke-miterlimit:10;stroke-dasharray:none;stroke-opacity:1" transform="matrix(1.3333333,0,0,-1.3333333,118.48533,273.52667)"/>
    <path id="path5" d="m 0,114.52106 c 31.31154,0 56.69385,12.1835 56.69385,27.21303 0,15.02952 -25.38231,27.21302 -56.69385,27.21302 -31.31154,0 -56.69385,-12.1835 -56.69385,-27.21302 0,-15.02953 25.38231,-27.21303 56.69385,-27.21303 z" style="fill:none;stroke:#000000;stroke-width:0.3985;stroke-linecap:butt;stroke-linejoin:miter;stroke-miterlimit:10;stroke-dasharray:none;stroke-opacity:1" transform="matrix(1.3333333,0,0,-1.3333333,118.48533,273.52667)"/>
    <path id="path6" d="m 0,107.71791 c 39.13928,0 70.86703,15.22933 70.86703,34.01618 0,18.78685 -31.72775,34.01617 -70.86703,34.01617 -39.13928,0 -70.86703,-15.22932 -70.86703,-34.01617 0,-18.78685 31.72775,-34.01618 70.86703,-34.01618 z" style="fill:none;stroke:#000000;stroke-width:0.3985;stroke-linecap:butt;stroke-linejoin:miter;stroke-miterlimit:10;stroke-dasharray:none;stroke-opacity:1" transform="matrix(1.3333333,0,0,-1.3333333,118.48533,273.52667)"/>
    <path id="path7" d="M 0,0 V 141.73409 M 0,0 v 77.55566" style="fill:none;stroke:#000000;stroke-width:0.3985;stroke-linecap:butt;stroke-linejoin:miter;stroke-miterlimit:10;stroke-dasharray:2.98883, 2.98883;stroke-dashoffset:0;stroke-opacity:1" transform="matrix(1.3333333,0,0,-1.3333333,118.48533,273.52667)"/>
    <path id="path8" d="M -2.07224,2.39104 C -1.69365,0.95639 -0.84999,0.27895 0,0 -0.84999,-0.27895 -1.69365,-0.95639 -2.07224,-2.39104" style="fill:none;stroke:#000000;stroke-width:0.3985;stroke-linecap:round;stroke-linejoin:round;stroke-miterlimit:10;stroke-dasharray:none;stroke-opacity:1" transform="matrix(0,-1.3333333,-1.3333333,0,118.48533,169.85345)"/>
    <path id="path9" d="m 3.7261797,-6.0364922 c 0.09375,-0.3632812 0.1171875,-0.4570312 0.9023437,-0.4570312 0.2460938,0 0.3164063,0 0.3164063,-0.1875 0,-0.1289063 -0.1054688,-0.1289063 -0.140625,-0.1289063 -0.2929688,0 -1.03125,0.035156 -1.3125,0.035156 -0.3046875,0 -1.03125,-0.035156 -1.3359375,-0.035156 -0.058594,0 -0.1992188,0 -0.1992188,0.1992188 0,0.1171875 0.09375,0.1171875 0.28125,0.1171875 0.421875,0 0.6914063,0 0.6914063,0.1875 0,0.046875 0,0.070312 -0.023437,0.1640625 l -1.3476563,5.36718746 c -0.082031,0.36328125 -0.1171875,0.46875 -0.90234371,0.46875 -0.22265625,0 -0.31640625,0 -0.31640625,0.19921875 0,0.10546875 0.1171875,0.10546875 0.15234375,0.10546875 0.28125,0 1.00781251,-0.03515625 1.30078121,-0.03515625 0.3046875,0 1.03125,0.03515625 1.3359375,0.03515625 0.082031,0 0.1992188,0 0.1992188,-0.1875 0,-0.1171875 -0.082031,-0.1171875 -0.3046875,-0.1171875 -0.1757813,0 -0.2226563,0 -0.421875,-0.0234375 -0.2109375,-0.0234375 -0.2460938,-0.0585938 -0.2460938,-0.17578125 0,-0.0703125 0.011719,-0.15234375 0.035156,-0.22265625 z m 0,0" style="fill:#000000;fill-opacity:1;fill-rule:nonzero;stroke:none" aria-label="I" transform="matrix(1.3333333,0,0,1.3333333,106.91067,183.576)"/>
    <path id="path10" d="m 0,141.73409 v 56.29534" style="fill:none;stroke:#000000;stroke-width:0.3985;stroke-linecap:butt;stroke-linejoin:miter;stroke-miterlimit:10;stroke-dasharray:none;stroke-opacity:1" transform="matrix(1.3333333,0,0,-1.3333333,118.48533,273.52667)"/>
    <path id="path11" d="M -2.07224,2.39104 C -1.69365,0.95639 -0.84999,0.27895 0,0 -0.84999,-0.27895 -1.69365,-0.95639 -2.07224,-2.39104" style="fill:none;stroke:#000000;stroke-width:0.3985;stroke-linecap:round;stroke-linejoin:round;stroke-miterlimit:10;stroke-dasharray:none;stroke-opacity:1" transform="matrix(0,-1.3333333,-1.3333333,0,118.48533,9.22176)"/>
    <path id="path12" d="m 3.7273281,-6.0340859 c 0.09375,-0.3632813 0.1171875,-0.4570313 0.9023438,-0.4570313 0.2460937,0 0.3164062,0 0.3164062,-0.1875 0,-0.1289062 -0.1054687,-0.1289062 -0.140625,-0.1289062 -0.2929687,0 -1.03125,0.035156 -1.3125,0.035156 -0.3046875,0 -1.03125,-0.035156 -1.3359375,-0.035156 -0.058594,0 -0.1992187,0 -0.1992187,0.1992187 0,0.1171875 0.09375,0.1171875 0.28125,0.1171875 0.421875,0 0.6914062,0 0.6914062,0.1875 0,0.046875 0,0.070312 -0.023437,0.1640625 l -1.3476562,5.36718751 c -0.082031,0.36328125 -0.1171875,0.46875 -0.90234377,0.46875 -0.22265625,0 -0.31640625,0 -0.31640625,0.19921875 0,0.10546875 0.1171875,0.10546875 0.15234375,0.10546875 0.28125,0 1.00781247,-0.03515625 1.30078127,-0.03515625 0.3046875,0 1.03125,0.03515625 1.3359375,0.03515625 0.082031,0 0.1992187,0 0.1992187,-0.1875 0,-0.1171875 -0.082031,-0.1171875 -0.3046875,-0.1171875 -0.1757812,0 -0.2226562,0 -0.421875,-0.0234375 -0.2109375,-0.0234375 -0.2460937,-0.0585938 -0.2460937,-0.17578125 0,-0.0703125 0.011719,-0.15234375 0.035156,-0.22265625 z m 0,0" style="fill:#000000;fill-opacity:1;fill-rule:nonzero;stroke:none" aria-label="I" transform="matrix(1.3333333,0,0,1.3333333,123.17867,13.494667)"/>
    <path id="path13" d="M 14.17317,141.73409 V 114.80428" style="fill:none;stroke:#000000;stroke-width:0.3985;stroke-linecap:butt;stroke-linejoin:miter;stroke-miterlimit:10;stroke-dasharray:none;stroke-opacity:1" transform="matrix(1.3333333,0,0,-1.3333333,118.48533,273.52667)"/>
    <path id="path14" d="M 14.17317,0 V 141.73409" style="fill:none;stroke:#000000;stroke-width:0.3985;stroke-linecap:butt;stroke-linejoin:miter;stroke-miterlimit:10;stroke-dasharray:2.98883, 2.98883;stroke-dashoffset:0;stroke-opacity:1" transform="matrix(1.3333333,0,0,-1.3333333,118.48533,273.52667)"/>
    <path id="path15" d="M -14.17317,141.73409 V 114.80428" style="fill:none;stroke:#000000;stroke-width:0.3985;stroke-linecap:butt;stroke-linejoin:miter;stroke-miterlimit:10;stroke-dasharray:none;stroke-opacity:1" transform="matrix(1.3333333,0,0,-1.3333333,118.48533,273.52667)"/>
    <path id="path16" d="M -14.17317,0 V 141.73409" style="fill:none;stroke:#000000;stroke-width:0.3985;stroke-linecap:butt;stroke-linejoin:miter;stroke-miterlimit:10;stroke-dasharray:2.98883, 2.98883;stroke-dashoffset:0;stroke-opacity:1" transform="matrix(1.3333333,0,0,-1.3333333,118.48533,273.52667)"/>
    <path id="path17" d="M 56.69385,0 V 141.73409" style="fill:none;stroke:#000000;stroke-width:0.3985;stroke-linecap:butt;stroke-linejoin:miter;stroke-miterlimit:10;stroke-dasharray:2.98883, 2.98883;stroke-dashoffset:0;stroke-opacity:1" transform="matrix(1.3333333,0,0,-1.3333333,118.48533,273.52667)"/>
    <path id="path18" d="M -56.69385,0 V 141.73409" style="fill:none;stroke:#000000;stroke-width:0.3985;stroke-linecap:butt;stroke-linejoin:miter;stroke-miterlimit:10;stroke-dasharray:2.98883, 2.98883;stroke-dashoffset:0;stroke-opacity:1" transform="matrix(1.3333333,0,0,-1.3333333,118.48533,273.52667)"/>
    <path id="path19" d="M 70.86703,0 V 141.73409" style="fill:none;stroke:#000000;stroke-width:0.3985;stroke-linecap:butt;stroke-linejoin:miter;stroke-miterlimit:10;stroke-dasharray:none;stroke-opacity:1" transform="matrix(1.3333333,0,0,-1.3333333,118.48533,273.52667)"/>
    <path id="path20" d="M -70.86703,0 V 141.73409" style="fill:none;stroke:#000000;stroke-width:0.3985;stroke-linecap:butt;stroke-linejoin:miter;stroke-miterlimit:10;stroke-dasharray:none;stroke-opacity:1" transform="matrix(1.3333333,0,0,-1.3333333,118.48533,273.52667)"/>
    <path id="path21" d="M 63.77989,77.95418 V 64.578" style="fill:none;stroke:#000000;stroke-width:0.79701;stroke-linecap:butt;stroke-linejoin:miter;stroke-miterlimit:10;stroke-dasharray:none;stroke-opacity:1" transform="matrix(1.3333333,0,0,-1.3333333,118.48533,273.52667)"/>
    <path id="path22" d="M -2.55046,3.11095 C -2.0845,1.24435 -1.04614,0.36295 0,0 -1.04614,-0.36295 -2.0845,-1.24435 -2.55046,-3.11095" style="fill:none;stroke:#000000;stroke-width:0.79701;stroke-linecap:round;stroke-linejoin:round;stroke-miterlimit:10;stroke-dasharray:none;stroke-opacity:1" transform="matrix(0,1.3333333,1.3333333,0,203.52519,187.95401)"/>
    <path id="path23" d="M -63.77989,77.95418 V 64.578" style="fill:none;stroke:#000000;stroke-width:0.79701;stroke-linecap:butt;stroke-linejoin:miter;stroke-miterlimit:10;stroke-dasharray:none;stroke-opacity:1" transform="matrix(1.3333333,0,0,-1.3333333,118.48533,273.52667)"/>
    <path id="path24" d="M -2.55046,3.11095 C -2.0845,1.24435 -1.04614,0.36295 0,0 -1.04614,-0.36295 -2.0845,-1.24435 -2.55046,-3.11095" style="fill:none;stroke:#000000;stroke-width:0.79701;stroke-linecap:round;stroke-linejoin:round;stroke-miterlimit:10;stroke-dasharray:none;stroke-opacity:1" transform="matrix(0,1.3333333,1.3333333,0,33.44548,187.95401)"/>
    <path id="path25" d="m 3.7277187,-6.0354922 c 0.09375,-0.3632812 0.1171875,-0.4570312 0.9023438,-0.4570312 0.2460937,0 0.3164062,0 0.3164062,-0.1875 0,-0.1289063 -0.1054687,-0.1289063 -0.140625,-0.1289063 -0.2929687,0 -1.03125,0.035156 -1.3125,0.035156 -0.3046875,0 -1.03125,-0.035156 -1.3359375,-0.035156 -0.058594,0 -0.1992187,0 -0.1992187,0.1992188 0,0.1171875 0.09375,0.1171875 0.28125,0.1171875 0.421875,0 0.6914062,0 0.6914062,0.1875 0,0.046875 0,0.070312 -0.023437,0.1640625 L 1.55975,-0.77377344 c -0.082031,0.36328125 -0.1171875,0.46875 -0.90234375,0.46875 -0.22265625,0 -0.31640625,0 -0.31640625,0.19921875 0,0.1054687525 0.1171875,0.1054687525 0.15234375,0.1054687525 0.28125,0 1.00781245,-0.0351562525 1.30078125,-0.0351562525 0.3046875,0 1.03125,0.0351562525 1.3359375,0.0351562525 0.082031,0 0.1992187,0 0.1992187,-0.1875000025 0,-0.1171875 -0.082031,-0.1171875 -0.3046875,-0.1171875 -0.1757812,0 -0.2226562,0 -0.421875,-0.0234375 -0.2109375,-0.0234375 -0.2460937,-0.0585938 -0.2460937,-0.17578125 0,-0.0703125 0.011719,-0.15234375 0.035156,-0.22265625 z m 0,0" style="fill:#000000;fill-opacity:1;fill-rule:nonzero;stroke:none" aria-label="I" transform="matrix(1.3333333,0,0,1.3333333,14.045333,183.57467)"/>
    <path id="path26" d="m 0,141.73409 6.47322,-5.38216" style="fill:none;stroke:#000000;stroke-width:0.79701;stroke-linecap:butt;stroke-linejoin:miter;stroke-miterlimit:10;stroke-dasharray:none;stroke-opacity:1" transform="matrix(1.3333333,0,0,-1.3333333,118.48533,273.52667)"/>
    <path id="path27" d="M -2.55046,3.11095 C -2.0845,1.24435 -1.04614,0.36295 0,0 -1.04614,-0.36295 -2.0845,-1.24435 -2.55046,-3.11095" style="fill:none;stroke:#000000;stroke-width:0.79701;stroke-linecap:round;stroke-linejoin:round;stroke-miterlimit:10;stroke-dasharray:none;stroke-opacity:1" transform="matrix(1.0252,0.8524,0.8524,-1.0252,127.52483,92.06376)"/>
    <g id="g27" aria-label="R&#xA;1" transform="matrix(1.3333333,0,0,1.3333333,119.91067,106.44)">
      <path id="path28" d="m 3.7378984,-6.1161328 c 0.058594,-0.234375 0.082031,-0.3398438 0.28125,-0.3632813 0.082031,-0.011719 0.3984375,-0.011719 0.5976563,-0.011719 0.7148437,0 1.8164062,0 1.8164062,0.984375 0,0.3398437 -0.1523437,1.0195312 -0.5507812,1.4179687 -0.2578125,0.2578125 -0.7851563,0.5742188 -1.6757813,0.5742188 H 3.0933672 Z m 1.4296875,2.7304687 c 1.0078125,-0.2226562 2.1914063,-0.9140625 2.1914063,-1.921875 0,-0.8554687 -0.890625,-1.5 -2.203125,-1.5 H 2.3199297 c -0.1992188,0 -0.2929688,0 -0.2929688,0.1992188 0,0.1171875 0.09375,0.1171875 0.28125,0.1171875 0.023437,0 0.2109375,0 0.3867188,0.011719 0.1757812,0.023437 0.2578125,0.035156 0.2578125,0.1640625 0,0.035156 0,0.070312 -0.035156,0.1875 l -1.3359375,5.35546879 c -0.09375,0.38671875 -0.1171875,0.46875 -0.90234371,0.46875 -0.17578125,0 -0.26953125,0 -0.26953125,0.19921875 0,0.10546875 0.1171875,0.10546875 0.140625,0.10546875 0.28125,0 0.97265626,-0.03515625 1.25390626,-0.03515625 0.28125,0 0.984375,0.03515625 1.265625,0.03515625 0.082031,0 0.1992187,0 0.1992187,-0.19921875 0,-0.10546875 -0.09375,-0.10546875 -0.28125,-0.10546875 -0.3632812,0 -0.6445312,0 -0.6445312,-0.1875 0,-0.0585938 0.011719,-0.10546875 0.023437,-0.1640625 l 0.65625,-2.63671879 H 4.218367 c 0.9023437,0 1.078125,0.5507813 1.078125,0.9023438 0,0.1523437 -0.082031,0.4570312 -0.140625,0.6914062 -0.070312,0.2695313 -0.1523438,0.6445313 -0.1523438,0.84375004 0,1.078125 1.1953125,1.078125 1.3242188,1.078125 0.84375,0 1.1953125,-1.0078125 1.1953125,-1.1484375 0,-0.11718754 -0.1171875,-0.11718754 -0.1171875,-0.11718754 -0.09375,0 -0.1171875,0.0703125 -0.1289063,0.14062504 -0.2578125,0.73828125 -0.6796875,0.90234375 -0.9140625,0.90234375 -0.328125,0 -0.3984375,-0.22265625 -0.3984375,-0.609375 0,-0.3046875 0.058594,-0.82031249 0.1054688,-1.13671879 0.011719,-0.140625 0.035156,-0.328125 0.035156,-0.46875 0,-0.7617187 -0.6679687,-1.078125 -0.9374996,-1.1718753 z m 0,0" style="fill:#000000;fill-opacity:1;fill-rule:nonzero;stroke:none"/>
      <path id="path29" d="m 9.8961016,-2.9344922 c 0,-0.1875 -0.011719,-0.1992187 -0.2109375,-0.1992187 -0.4453125,0.4335937 -1.078125,0.4453125 -1.359375,0.4453125 v 0.2460937 c 0.1640625,0 0.6210937,0 1.0078125,-0.1875 v 3.55078126 c 0,0.23437504 0,0.32812504 -0.6914063,0.32812504 H 8.3726641 v 0.2460937 c 0.1289062,-0.011719 0.984375,-0.023437 1.2421875,-0.023437 0.2109375,0 1.0898434,0.011719 1.2421874,0.023437 V 1.2491016 h -0.257812 c -0.7031254,0 -0.7031254,-0.09375 -0.7031254,-0.32812504 z m 0,0" style="fill:#000000;fill-opacity:1;fill-rule:nonzero;stroke:none"/>
    </g>
    <path id="path30" d="M 0,141.73409 -48.32938,128.34064" style="fill:none;stroke:#000000;stroke-width:0.79701;stroke-linecap:butt;stroke-linejoin:miter;stroke-miterlimit:10;stroke-dasharray:none;stroke-opacity:1" transform="matrix(1.3333333,0,0,-1.3333333,118.48533,273.52667)"/>
    <path id="path31" d="M -2.55046,3.11095 C -2.0845,1.24435 -1.04614,0.36295 0,0 -1.04614,-0.36295 -2.0845,-1.24435 -2.55046,-3.11095" style="fill:none;stroke:#000000;stroke-width:0.79701;stroke-linecap:round;stroke-linejoin:round;stroke-miterlimit:10;stroke-dasharray:none;stroke-opacity:1" transform="matrix(-1.2848267,0.35604,0.35604,1.2848267,53.53416,102.54768)"/>
    <g id="g31" aria-label="R&#xA;2" transform="matrix(1.3333333,0,0,1.3333333,45,116.72533)">
      <path id="path32" d="m 3.7382813,-6.1162656 c 0.058594,-0.234375 0.082031,-0.3398438 0.2812499,-0.3632813 0.082031,-0.011719 0.3984375,-0.011719 0.5976563,-0.011719 0.7148437,0 1.8164062,0 1.8164062,0.984375 0,0.3398437 -0.1523437,1.0195312 -0.5507812,1.4179687 C 5.625,-3.8311094 5.0976562,-3.5147031 4.2070312,-3.5147031 H 3.09375 Z m 1.4296874,2.7304687 c 1.0078125,-0.2226562 2.1914063,-0.9140625 2.1914063,-1.921875 0,-0.8554687 -0.890625,-1.5 -2.203125,-1.5 H 2.3203125 c -0.1992187,0 -0.2929687,0 -0.2929687,0.1992188 0,0.1171875 0.09375,0.1171875 0.28125,0.1171875 0.023437,0 0.2109375,0 0.3867187,0.011719 0.1757813,0.023437 0.2578125,0.035156 0.2578125,0.1640625 0,0.035156 0,0.070312 -0.035156,0.1875 l -1.3359376,5.35546878 c -0.09375,0.38671875 -0.1171875,0.46875 -0.9023437,0.46875 -0.17578125,0 -0.26953125,0 -0.26953125,0.19921875 0,0.105468745 0.1171875,0.105468745 0.140625,0.105468745 0.28125,0 0.97265625,-0.035156245 1.25390625,-0.035156245 0.28125,0 0.984375,0.035156245 1.265625,0.035156245 0.082031,0 0.1992188,0 0.1992188,-0.199218745 0,-0.10546875 -0.09375,-0.10546875 -0.28125,-0.10546875 -0.3632813,0 -0.6445313,0 -0.6445313,-0.1875 0,-0.0585937 0.011719,-0.10546875 0.023437,-0.1640625 l 0.65625,-2.63671878 H 4.21875 c 0.9023437,0 1.078125,0.5507813 1.078125,0.9023438 0,0.1523437 -0.082031,0.4570312 -0.140625,0.6914062 -0.070312,0.2695313 -0.1523438,0.6445313 -0.1523438,0.84375003 0,1.078125 1.1953125,1.078125 1.3242188,1.078125 0.84375,0 1.1953125,-1.0078125 1.1953125,-1.1484375 0,-0.11718753 -0.1171875,-0.11718753 -0.1171875,-0.11718753 -0.09375,0 -0.1171875,0.0703125 -0.1289063,0.14062503 -0.2578125,0.73828125 -0.6796875,0.902343745 -0.9140625,0.902343745 -0.328125,0 -0.3984375,-0.222656245 -0.3984375,-0.609374995 0,-0.3046875 0.058594,-0.82031248 0.1054688,-1.13671878 0.011719,-0.140625 0.035156,-0.328125 0.035156,-0.46875 0,-0.7617187 -0.6679687,-1.078125 -0.9374998,-1.1718753 z m 0,0" style="fill:#000000;fill-opacity:1;fill-rule:nonzero;stroke:none"/>
      <path id="path33" d="m 11.080078,0.2294375 h -0.234375 c -0.02344,0.15234375 -0.08203,0.5625 -0.175781,0.6328125 -0.05859,0.0351563 -0.597656,0.0351563 -0.6914064,0.0351563 H 8.6894531 c 0.7382813,-0.64453125 0.984375,-0.84375 1.3945309,-1.171875 0.515625,-0.41015625 0.996094,-0.8437499 0.996094,-1.5 0,-0.84375 -0.738281,-1.359375 -1.6289061,-1.359375 -0.8671875,0 -1.453125,0.609375 -1.453125,1.2421875 0,0.3632812 0.3046875,0.3984375 0.375,0.3984375 0.1640625,0 0.375,-0.1171875 0.375,-0.375 0,-0.1289063 -0.058594,-0.3632813 -0.421875,-0.3632813 0.2226562,-0.5039062 0.6914062,-0.65625 1.0195312,-0.65625 0.7031249,0 1.0664059,0.5507813 1.0664059,1.1132813 0,0.609375 -0.4335934,1.08984375 -0.6562496,1.3359375 l -1.6875,1.6640625 c -0.070312,0.058594 -0.070312,0.070312 -0.070312,0.2695312 h 2.8828116 z m 0,0" style="fill:#000000;fill-opacity:1;fill-rule:nonzero;stroke:none"/>
    </g>
    <path id="path34" d="m 0,141.73409 -68.99695,5.83953" style="fill:none;stroke:#000000;stroke-width:0.79701;stroke-linecap:butt;stroke-linejoin:miter;stroke-miterlimit:10;stroke-dasharray:none;stroke-opacity:1" transform="matrix(1.3333333,0,0,-1.3333333,118.48533,273.52667)"/>
    <path id="path35" d="M -2.55046,3.11095 C -2.0845,1.24435 -1.04614,0.36295 0,0 -1.04614,-0.36295 -2.0845,-1.24435 -2.55046,-3.11095" style="fill:none;stroke:#000000;stroke-width:0.79701;stroke-linecap:round;stroke-linejoin:round;stroke-miterlimit:10;stroke-dasharray:none;stroke-opacity:1" transform="matrix(-1.3285333,-0.11242667,-0.11242667,1.3285333,25.959987,76.717053)"/>
    <g id="g35" aria-label="R&#xA;3" transform="matrix(1.3333333,0,0,1.3333333,4.4266667,80.214667)">
      <path id="path36" d="m 3.7376172,-6.1170547 c 0.058594,-0.234375 0.082031,-0.3398437 0.28125,-0.3632812 0.082031,-0.011719 0.3984375,-0.011719 0.5976562,-0.011719 0.7148438,0 1.8164063,0 1.8164063,0.984375 0,0.3398438 -0.1523438,1.0195313 -0.5507813,1.4179688 -0.2578125,0.2578125 -0.7851562,0.5742187 -1.6757812,0.5742187 H 3.0930859 Z m 1.4296875,2.7304688 c 1.0078125,-0.2226563 2.1914062,-0.9140625 2.1914062,-1.921875 0,-0.8554688 -0.890625,-1.5 -2.203125,-1.5 H 2.3196484 c -0.1992187,0 -0.2929687,0 -0.2929687,0.1992187 0,0.1171875 0.09375,0.1171875 0.28125,0.1171875 0.023437,0 0.2109375,0 0.3867187,0.011719 0.1757813,0.023437 0.2578125,0.035156 0.2578125,0.1640625 0,0.035156 0,0.070312 -0.035156,0.1875 l -1.3359375,5.35546871 c -0.09375,0.38671875 -0.1171875,0.46875 -0.90234376,0.46875 -0.17578125,0 -0.26953125,0 -0.26953125,0.19921875 0,0.1054687525 0.1171875,0.1054687525 0.140625,0.1054687525 0.28125,0 0.97265621,-0.0351562525 1.25390621,-0.0351562525 0.28125,0 0.984375,0.0351562525 1.265625,0.0351562525 0.082031,0 0.1992188,0 0.1992188,-0.1992187525 0,-0.10546875 -0.09375,-0.10546875 -0.28125,-0.10546875 -0.3632813,0 -0.6445313,0 -0.6445313,-0.1875 0,-0.0585938 0.011719,-0.10546875 0.023437,-0.1640625 l 0.65625,-2.63671871 h 1.1953125 c 0.9023438,0 1.078125,0.5507812 1.078125,0.9023437 0,0.1523438 -0.082031,0.4570313 -0.140625,0.6914063 -0.070312,0.2695312 -0.1523437,0.6445312 -0.1523437,0.84374996 0,1.078125 1.1953125,1.078125 1.3242187,1.078125 0.84375,0 1.1953125,-1.0078125 1.1953125,-1.1484375 0,-0.11718746 -0.1171875,-0.11718746 -0.1171875,-0.11718746 -0.09375,0 -0.1171875,0.0703125 -0.1289062,0.14062496 -0.2578125,0.73828125 -0.6796875,0.9023437525 -0.9140625,0.9023437525 -0.328125,0 -0.3984375,-0.2226562525 -0.3984375,-0.6093750025 0,-0.3046875 0.058594,-0.82031251 0.1054687,-1.13671871 0.011719,-0.140625 0.035156,-0.328125 0.035156,-0.46875 0,-0.7617188 -0.6679688,-1.078125 -0.9374994,-1.1718752 z m 0,0" style="fill:#000000;fill-opacity:1;fill-rule:nonzero;stroke:none"/>
      <path id="path37" d="m 9.4622266,-0.83775781 c 0.5507814,0 0.9375004,0.375 0.9375004,1.125 0,0.86718751 -0.5039067,1.12500001 -0.9023442,1.12500001 -0.28125,0 -0.890625,-0.082031 -1.1835937,-0.49218751 0.328125,-0.0117188 0.3984375,-0.24609375 0.3984375,-0.38671875 0,-0.22265625 -0.1640625,-0.38671875 -0.3867188,-0.38671875 -0.1875,0 -0.3867187,0.1171875 -0.3867187,0.41015625 0,0.65624996 0.7265625,1.07812496 1.5703125,1.07812496 0.9726564,0 1.6406254,-0.64453121 1.6406254,-1.34765621 0,-0.5390625 -0.445313,-1.08984375 -1.2187504,-1.2421875 C 10.669258,-1.2244766 10.92707,-1.7518203 10.92707,-2.1736953 c 0,-0.5507813 -0.632812,-0.9609375 -1.4062497,-0.9609375 -0.7734375,0 -1.359375,0.375 -1.359375,0.9375 0,0.234375 0.1523438,0.3632812 0.3632813,0.3632812 0.2109375,0 0.3515625,-0.1640625 0.3515625,-0.3515625 0,-0.1992187 -0.140625,-0.3515625 -0.3515625,-0.3632812 0.234375,-0.3046875 0.7148437,-0.3867188 0.9726562,-0.3867188 0.3164063,0 0.7617192,0.1523438 0.7617192,0.7617188 0,0.2929687 -0.105469,0.609375 -0.2812504,0.8320312 -0.234375,0.2578125 -0.421875,0.28125 -0.7734375,0.2929688 -0.1757813,0.023437 -0.1875,0.023437 -0.2226563,0.023437 -0.011719,0 -0.070312,0.011719 -0.070312,0.09375 0,0.09375 0.058594,0.09375 0.1757813,0.09375 z m 0,0" style="fill:#000000;fill-opacity:1;fill-rule:nonzero;stroke:none"/>
    </g>
  </g>
</svg>