<?xml version="1.0" encoding="UTF-8" standalone="no"?>
<!-- Created with Inkscape (http://www.inkscape.org/) -->
<svg version="1.1" id="svg1" width="284" height="113.65333" viewBox="0 0 284 113.65333" sodipodi:docname="22-23-2-大学物理E（上）-期末-题图3.4.pdf" xmlns:inkscape="http://www.inkscape.org/namespaces/inkscape" xmlns:sodipodi="http://sodipodi.sourceforge.net/DTD/sodipodi-0.dtd" xmlns="http://www.w3.org/2000/svg" xmlns:svg="http://www.w3.org/2000/svg">
  <defs id="defs1">
    <pattern patternUnits="userSpaceOnUse" x="0" y="0" width="4.98138" height="4.98138" id="pattern2">
      <path d="M 0,2.98883 3.08846,-0.09962" style="fill:none;stroke:#000000;stroke-opacity:1;stroke-width:0.3985;stroke-linecap:butt;stroke-linejoin:miter;stroke-miterlimit:10;stroke-dasharray:none" transform="translate(0.99628,0.99628)" id="path2"/>
    </pattern>
    <pattern patternUnits="userSpaceOnUse" x="0" y="0" width="4.98138" height="4.98138" id="pattern16">
      <path d="M 0,0 3.08846,3.08846" style="fill:none;stroke:#000000;stroke-opacity:1;stroke-width:0.3985;stroke-linecap:butt;stroke-linejoin:miter;stroke-miterlimit:10;stroke-dasharray:none" transform="translate(0.99628,0.99628)" id="path16"/>
    </pattern>
  </defs>
  <sodipodi:namedview id="namedview1" pagecolor="#ffffff" bordercolor="#000000" borderopacity="0.25" inkscape:showpageshadow="2" inkscape:pageopacity="0.0" inkscape:pagecheckerboard="0" inkscape:deskcolor="#d1d1d1">
    <inkscape:page x="0" y="0" inkscape:label="1" id="page1" width="284" height="113.65333" margin="0" bleed="0"/>
  </sodipodi:namedview>
  <g id="g1" inkscape:groupmode="layer" inkscape:label="1">
    <path id="path1" d="M 0,0 V 70.86703 H 141.73409 V 0 Z" style="fill:url(#pattern2);fill-opacity:1;fill-rule:nonzero;stroke:#000000;stroke-width:0.3985;stroke-linecap:butt;stroke-linejoin:miter;stroke-miterlimit:10;stroke-dasharray:none;stroke-opacity:1" transform="matrix(1.3333333,0,0,-1.3333333,94.753333,94.756)"/>
    <path id="path3" d="M -0.70827,14.17317 V 56.69385 H 113.3877 V 14.17317 Z" style="fill:#ffffff;fill-opacity:1;fill-rule:nonzero;stroke:none" transform="matrix(1.3333333,0,0,-1.3333333,94.753333,94.756)"/>
    <path id="path4" d="M 0,14.17317 H 113.3877 V 56.69385 H 0" style="fill:none;stroke:#000000;stroke-width:0.3985;stroke-linecap:butt;stroke-linejoin:miter;stroke-miterlimit:10;stroke-dasharray:none;stroke-opacity:1" transform="matrix(1.3333333,0,0,-1.3333333,94.753333,94.756)"/>
    <path id="path5" d="m 114.59988,24.4443 h 11.74774 v 7.80414 h -11.74774 z" style="fill:#ffffff;fill-opacity:1;fill-rule:nonzero;stroke:none" transform="matrix(1.3333333,0,0,-1.3333333,94.753333,94.756)"/>
    <path id="path6" d="m 9.2237187,-6.0351563 c 0.09375,-0.3632812 0.1054688,-0.4570312 0.8554683,-0.4570312 0.234375,0 0.316407,0 0.316407,-0.1992188 0,-0.1171875 -0.09375,-0.1171875 -0.269532,-0.1171875 H 8.8135625 c -0.2578125,0 -0.2695313,0 -0.3867188,0.1992188 L 4.7940312,-0.9375 4.0205937,-6.5742188 C 3.9854375,-6.8085938 3.962,-6.8085938 3.7041875,-6.8085938 h -1.359375 c -0.1875,0 -0.3046875,0 -0.3046875,0.1992188 0,0.1171875 0.09375,0.1171875 0.2929687,0.1171875 0.1289063,0 0.3046875,0.011719 0.421875,0.011719 0.1640625,0.023437 0.2226563,0.058594 0.2226563,0.1640625 0,0.035156 -0.011719,0.070312 -0.035156,0.1875 l -1.265625,5.0742188 c -0.1054687,0.3984375 -0.2695312,0.71484375 -1.07812495,0.75 -0.046875,0 -0.17578125,0 -0.17578125,0.1875 C 0.4229375,-0.03515625 0.48153125,0 0.5635625,0 0.87996875,0 1.2315312,-0.03515625 1.5596562,-0.03515625 1.8995,-0.03515625 2.2510625,0 2.5791875,0 2.6260625,0 2.7549687,0 2.7549687,-0.19921875 2.7549687,-0.3046875 2.6495,-0.3046875 2.5791875,-0.3046875 2.0166875,-0.31640625 1.8995,-0.515625 1.8995,-0.75 c 0,-0.0703125 0.011719,-0.1171875 0.046875,-0.22265625 L 3.2940312,-6.4101563 H 3.30575 L 4.1612187,-0.234375 C 4.1846562,-0.10546875 4.196375,0 4.3135625,0 4.4190312,0 4.4893437,-0.10546875 4.5362187,-0.17578125 L 8.55575,-6.4804688 h 0.011719 l -1.4296875,5.7070313 c -0.09375,0.38671875 -0.1171875,0.46875 -0.9023437,0.46875 -0.1640625,0 -0.28125,0 -0.28125,0.1875 C 5.9541875,0 6.0830937,0 6.1065312,0 6.3877812,0 7.0674687,-0.03515625 7.337,-0.03515625 7.7471562,-0.03515625 8.18075,0 8.5909062,0 c 0.058594,0 0.1875,0 0.1875,-0.19921875 0,-0.10546875 -0.09375,-0.10546875 -0.28125,-0.10546875 -0.3632812,0 -0.6445312,0 -0.6445312,-0.1875 0,-0.0351563 0,-0.0585938 0.046875,-0.234375 z m 0,0" style="fill:#000000;fill-opacity:1;fill-rule:nonzero;stroke:none" aria-label="M" transform="matrix(1.3333333,0,0,1.3333333,248.21733,61.5)"/>
    <path id="path7" d="m 113.3877,28.34637 h -2.83486 l -1.49441,-2.49069 -2.98883,4.98139 -2.98884,-4.98139 -2.98883,4.98139 -2.98883,-4.98139 -2.98883,4.98139 -2.98883,-4.98139 -2.98883,4.98139 -2.98883,-4.98139 -2.98883,4.98139 -2.98883,-4.98139 -2.98883,4.98139 -1.49442,-2.4907 v 0 h -3.81984" style="fill:none;stroke:#000000;stroke-width:0.79701;stroke-linecap:butt;stroke-linejoin:miter;stroke-miterlimit:10;stroke-dasharray:none;stroke-opacity:1" transform="matrix(1.3333333,0,0,-1.3333333,94.753333,94.756)"/>
    <path id="path8" d="m 2.8587812,-6.8076641 c 0,0 0,-0.1054687 -0.1289062,-0.1054687 -0.234375,0 -0.9609375,0.082031 -1.21875,0.1054687 -0.082031,0 -0.1875,0.011719 -0.1875,0.1992188 0,0.1171875 0.09375,0.1171875 0.234375,0.1171875 0.4804687,0 0.5039062,0.070312 0.5039062,0.1640625 L 2.02675,-6.1279766 0.58534375,-0.38578906 c -0.0351563,0.140625 -0.0351563,0.15234375 -0.0351563,0.22265625 0,0.22265625 0.19921875,0.26953125 0.28125,0.26953125 0.12890625,0 0.28125005,-0.08203125 0.33984365,-0.2109375 0.058594,-0.0820312 0.5039064,-1.92187504 0.5625,-2.17968754 0.3398439,0.035156 1.1601564,0.1875 1.1601564,0.8554688 0,0.070312 0,0.1054687 -0.035156,0.1992187 -0.023437,0.1289063 -0.035156,0.24609379 -0.035156,0.35156254 0,0.5859375 0.3984375,0.984375 0.9140625,0.984375 0.2929687,0 0.5625,-0.15234375 0.7851562,-0.52734375 0.2460938,-0.43359375 0.3632813,-0.98437499 0.3632813,-1.00781249 0,-0.09375 -0.09375,-0.09375 -0.1289063,-0.09375 -0.09375,0 -0.1054687,0.035156 -0.140625,0.1757812 -0.1992187,0.72656254 -0.421875,1.24218754 -0.8671874,1.24218754 -0.1875,0 -0.3164062,-0.1171875 -0.3164062,-0.46875 0,-0.17578125 0.046875,-0.3984375 0.082031,-0.56250004 0.035156,-0.1640625 0.035156,-0.2109375 0.035156,-0.3046875 0,-0.65625 -0.6210938,-0.9375 -1.4648438,-1.0546875 0.3046875,-0.1757812 0.6210938,-0.4921875 0.8554688,-0.7265625 0.4804687,-0.5273437 0.9375,-0.9609375 1.4179687,-0.9609375 0.058594,0 0.070312,0 0.09375,0.011719 0.1171875,0.023437 0.1289062,0.023437 0.2109375,0.082031 0.023437,0 0.023437,0.011719 0.035156,0.035156 -0.4804687,0.035156 -0.5625,0.421875 -0.5625,0.5390625 0,0.1640625 0.1054688,0.3515625 0.375,0.3515625 0.2578125,0 0.5507813,-0.2226563 0.5507813,-0.609375 0,-0.3046875 -0.234375,-0.6328125 -0.6796875,-0.6328125 -0.28125,0 -0.7382812,0.082031 -1.453125,0.8789062 -0.3398437,0.375 -0.7265625,0.7734375 -1.1015625,0.9257813 z m 0,0" style="fill:#000000;fill-opacity:1;fill-rule:nonzero;stroke:none" aria-label="k" transform="matrix(1.3333333,0,0,1.3333333,213.92267,52.002667)"/>
    <path id="path9" d="m -38.2688,28.34637 c 0,2.34826 -1.9036,4.25185 -4.25185,4.25185 -2.34825,0 -4.25183,-1.90359 -4.25183,-4.25185 0,-2.34825 1.90358,-4.25184 4.25183,-4.25184 2.34825,0 4.25185,1.90359 4.25185,4.25184 z" style="fill:none;stroke:#000000;stroke-width:0.3985;stroke-linecap:butt;stroke-linejoin:miter;stroke-miterlimit:10;stroke-dasharray:none;stroke-opacity:1" transform="matrix(1.3333333,0,0,-1.3333333,94.753333,94.756)"/>
    <path id="path10" d="m 0.8783125,-0.58570313 c -0.0351563,0.15234375 -0.09375,0.375 -0.09375,0.421875 0,0.1875 0.140625,0.26953125 0.2929688,0.26953125 0.1171875,0 0.2929687,-0.0703125 0.3632812,-0.26953125 0.011719,-0.0234375 0.1289063,-0.4921875 0.1875,-0.73828125 L 1.8509688,-1.8044531 c 0.058594,-0.2226563 0.1171875,-0.4335938 0.1757812,-0.6679688 0.035156,-0.1640625 0.1171875,-0.4570312 0.1289063,-0.4921875 0.140625,-0.3164062 0.6679687,-1.21875 1.6171875,-1.21875 0.4453125,0 0.5390625,0.3632813 0.5390625,0.6914063 0,0.2578125 -0.070312,0.5390625 -0.1523438,0.8320312 l -0.2695312,1.1601563 -0.1992188,0.74999997 c -0.046875,0.19921875 -0.140625,0.5390625 -0.140625,0.5859375 0,0.1875 0.140625,0.26953125 0.2929688,0.26953125 0.3046875,0 0.375,-0.24609375 0.4453125,-0.5625 0.140625,-0.56250002 0.515625,-2.01562502 0.5976562,-2.40234372 0.035156,-0.1289063 0.5625,-1.3242188 1.6523438,-1.3242188 0.421875,0 0.5390625,0.3398438 0.5390625,0.6914063 0,0.5742187 -0.421875,1.7109375 -0.6210938,2.2382812 -0.09375,0.234375 -0.1289062,0.35156252 -0.1289062,0.55078127 0,0.46875 0.3515625,0.80859375 0.8085937,0.80859375 0.9375,0 1.3125,-1.45312502 1.3125,-1.53515622 0,-0.09375 -0.09375,-0.09375 -0.1171875,-0.09375 -0.1054687,0 -0.1054687,0.023437 -0.1523437,0.1757812 -0.1523438,0.52734377 -0.46875,1.24218752 -1.0195313,1.24218752 -0.1640625,0 -0.234375,-0.10546875 -0.234375,-0.328125 0,-0.2578125 0.082031,-0.4921875 0.1757813,-0.71484372 0.1875,-0.515625 0.609375,-1.6171875 0.609375,-2.1914063 0,-0.6445312 -0.3984375,-1.0664062 -1.1484375,-1.0664062 -0.75,0 -1.2539063,0.4453125 -1.6171875,0.9726562 C 4.933,-3.5622656 4.8978438,-3.9021094 4.6165938,-4.1482031 4.3705,-4.3474219 4.0540938,-4.4060156 3.808,-4.4060156 c -0.9023437,0 -1.3828125,0.6445312 -1.5585937,0.8671875 -0.046875,-0.5625 -0.46875,-0.8671875 -0.9140625,-0.8671875 -0.4570313,0 -0.6445313,0.3867187 -0.7382813,0.5742187 -0.17578125,0.3398438 -0.3046875,0.9375 -0.3046875,0.9609375 0,0.1054688 0.09375,0.1054688 0.1171875,0.1054688 0.09375,0 0.10546875,-0.011719 0.1640625,-0.234375 0.17578125,-0.703125 0.375,-1.1835938 0.7265625,-1.1835938 0.1640625,0 0.3164063,0.082031 0.3164063,0.4570313 0,0.2109375 -0.035156,0.3164062 -0.1640625,0.8320312 z m 0,0" style="fill:#000000;fill-opacity:1;fill-rule:nonzero;stroke:none" aria-label="m" transform="matrix(1.3333333,0,0,1.3333333,17.922667,59.82)"/>
    <path id="path11" d="m -38.26772,28.34637 h 13.77468" style="fill:none;stroke:#000000;stroke-width:0.3985;stroke-linecap:butt;stroke-linejoin:miter;stroke-miterlimit:10;stroke-dasharray:none;stroke-opacity:1" transform="matrix(1.3333333,0,0,-1.3333333,94.753333,94.756)"/>
    <path id="path12" d="M -2.07224,2.39104 C -1.69365,0.95639 -0.84999,0.27895 0,0 -0.84999,-0.27895 -1.69365,-0.95639 -2.07224,-2.39104" style="fill:none;stroke:#000000;stroke-width:0.3985;stroke-linecap:round;stroke-linejoin:round;stroke-miterlimit:10;stroke-dasharray:none;stroke-opacity:1" transform="matrix(1.3333333,0,0,-1.3333333,62.3616,56.96084)"/>
    <g id="g12" aria-label="v&#xA;0" transform="matrix(1.3333333,0,0,1.3333333,56.428,50.274667)">
      <path id="path13" d="m 4.6653281,-3.7040469 c 0,-0.5390625 -0.2578125,-0.703125 -0.4453125,-0.703125 -0.2460937,0 -0.4804687,0.2578125 -0.4804687,0.4804688 0,0.1289062 0.046875,0.1875 0.1523437,0.3046875 0.2109375,0.1992187 0.3398438,0.4570312 0.3398438,0.8085937 0,0.421875 -0.609375,2.70703127 -1.7695313,2.70703127 -0.5039062,0 -0.7382812,-0.3515625 -0.7382812,-0.8671875 0,-0.56249997 0.2695312,-1.28906247 0.5742187,-2.12109377 0.070312,-0.1640625 0.1289063,-0.3046875 0.1289063,-0.4921875 0,-0.4453125 -0.328125,-0.8203125 -0.8203125,-0.8203125 -0.93750002,0 -1.31250002,1.453125 -1.31250002,1.5351563 0,0.1054687 0.09375,0.1054687 0.1171875,0.1054687 0.09375,0 0.10546875,-0.023437 0.15234375,-0.1875 0.29296875,-0.9960937 0.72656247,-1.2304687 1.00781247,-1.2304687 0.082031,0 0.2578125,0 0.2578125,0.3164062 0,0.2460938 -0.1054687,0.515625 -0.1757812,0.703125 -0.4335938,1.1484375 -0.5625,1.6054688 -0.5625,2.0390625 0,1.07812502 0.8671875,1.23046877 1.3359375,1.23046877 1.6640625,0 2.2382812,-3.29296877 2.2382812,-3.80859377 z m 0,0" style="fill:#000000;fill-opacity:1;fill-rule:nonzero;stroke:none"/>
      <path id="path14" d="m 8.4270469,-0.73041406 c 0,-0.76171874 -0.09375,-1.31250004 -0.4101563,-1.80468754 -0.2226562,-0.3164062 -0.6445312,-0.5976562 -1.2070312,-0.5976562 -1.6171875,0 -1.6171875,1.8984375 -1.6171875,2.40234374 0,0.50390625 0,2.36718746 1.6171875,2.36718746 1.6171875,0 1.6171875,-1.86328121 1.6171875,-2.36718746 z M 6.8098594,1.4375547 c -0.3164063,0 -0.75,-0.1875 -0.890625,-0.76171876 -0.09375,-0.41015625 -0.09375,-0.984375 -0.09375,-1.5 0,-0.50390624 0,-1.03125004 0.1054687,-1.41796874 0.1523438,-0.5507813 0.5976563,-0.6914063 0.8789063,-0.6914063 0.375,0 0.7382812,0.2226563 0.8671875,0.6328125 0.1054687,0.375 0.1171875,0.8789063 0.1171875,1.47656254 0,0.515625 0,1.04296875 -0.09375,1.4765625 C 7.5598594,1.2852109 7.0911094,1.4375547 6.8098594,1.4375547 Z m 0,0" style="fill:#000000;fill-opacity:1;fill-rule:nonzero;stroke:none"/>
    </g>
    <path id="path15" d="M -70.86703,0 V -14.17317 H 141.73409 V 0 Z" style="fill:url(#pattern16);fill-opacity:1;fill-rule:nonzero;stroke:none" transform="matrix(1.3333333,0,0,-1.3333333,94.753333,94.756)"/>
    <path id="path17" d="M -70.86703,0 H 141.73409" style="fill:none;stroke:#000000;stroke-width:0.3985;stroke-linecap:butt;stroke-linejoin:miter;stroke-miterlimit:10;stroke-dasharray:none;stroke-opacity:1" transform="matrix(1.3333333,0,0,-1.3333333,94.753333,94.756)"/>
  </g>
</svg>