<?xml version="1.0" encoding="UTF-8" standalone="no"?>
<!-- Created with Inkscape (http://www.inkscape.org/) -->
<svg version="1.1" id="svg1" width="88.199997" height="205.39999" viewBox="0 0 88.199997 205.39999" sodipodi:docname="22-23-2-大学物理E（上）-期末-题图3.2.pdf" xmlns:inkscape="http://www.inkscape.org/namespaces/inkscape" xmlns:sodipodi="http://sodipodi.sourceforge.net/DTD/sodipodi-0.dtd" xmlns="http://www.w3.org/2000/svg" xmlns:svg="http://www.w3.org/2000/svg">
  <defs id="defs1"/>
  <sodipodi:namedview id="namedview1" pagecolor="#ffffff" bordercolor="#000000" borderopacity="0.25" inkscape:showpageshadow="2" inkscape:pageopacity="0.0" inkscape:pagecheckerboard="0" inkscape:deskcolor="#d1d1d1">
    <inkscape:page x="0" y="0" inkscape:label="1" id="page1" width="88.199997" height="205.39999" margin="0" bleed="0"/>
  </sodipodi:namedview>
  <g id="g1" inkscape:groupmode="layer" inkscape:label="1">
    <path id="path1" d="M 0,70.86703 V 0 h 35.4335 v 70.86703" style="fill:none;stroke:#000000;stroke-width:0.3985;stroke-linecap:butt;stroke-linejoin:miter;stroke-miterlimit:10;stroke-dasharray:none;stroke-opacity:1" transform="matrix(1.3333333,0,0,-1.3333333,27.16,142.79733)"/>
    <path id="path2" d="M 17.71674,-28.34637 V -6.20042" style="fill:none;stroke:#000000;stroke-width:4.98138;stroke-linecap:butt;stroke-linejoin:miter;stroke-miterlimit:10;stroke-dasharray:none;stroke-opacity:1" transform="matrix(1.3333333,0,0,-1.3333333,27.16,142.79733)"/>
    <path id="path3" d="M 11.16194,0 1.77167,7.21007 V 0 -7.21007 Z" style="fill:#000000;fill-opacity:1;fill-rule:nonzero;stroke:#000000;stroke-width:3.54333;stroke-linecap:butt;stroke-linejoin:miter;stroke-miterlimit:10;stroke-dasharray:none;stroke-opacity:1" transform="matrix(0,-1.3333333,-1.3333333,0,50.78232,152.24568)"/>
    <path id="path4" d="m 0.7275625,-6.7611797 0.0703125,1.3125 v 2.953125 l -0.09375,1.80468751 c 0.12890625,-0.0234375 0.24609375,-0.0703125 0.3515625,-0.12890625 0.1054688,-0.046875 0.1875,-0.0820313 0.2226563,-0.1171875 0.023437,-0.0234375 0.082031,-0.0703125 0.1289062,-0.12890626 L 1.395531,-2.1088359 h 1.1484375 l 0.011719,0.6328125 0.1171875,-0.058594 0.2226563,-0.1054687 c 0.023437,-0.011719 0.070312,-0.035156 0.1289062,-0.09375 0.070312,-0.035156 0.1289063,-0.082031 0.1875,-0.1054688 L 3.1064688,-3.0346172 v -2.9179687 l 0.1992187,-0.1640625 c 0.070312,-0.058594 0.1054688,-0.09375 0.1054688,-0.1054688 0,-0.011719 -0.023437,-0.046875 -0.058594,-0.070312 l -0.609375,-0.5039062 -0.3164062,0.4804687 h -1.03125 z m 0.6328125,4.4179688 v -3.703125 h 1.1835938 l 0.011719,3.703125 z M 2.016625,1.2427266 2.1220938,1.3599141 2.6963125,0.85600781 C 3.1299063,0.50444531 3.516625,0.08257031 3.84475,-0.39789844 c 0.328125,-0.46875 0.5742188,-0.97265626 0.7382813,-1.49999996 0.1640625,-0.5273438 0.28125,-1.0898438 0.3398437,-1.6523438 0.046875,-0.5742187 0.09375,-0.9375 0.1054688,-1.1367187 0.1171875,0.6679687 0.1875,1.125 0.234375,1.3476562 0.035156,0.234375 0.082031,0.46875 0.1523437,0.7148438 0.082031,0.2226562 0.1757813,0.4921875 0.2929688,0.7851562 0.1171875,0.28125 0.2109375,0.5039063 0.2695312,0.6328125 0.070312,0.1289063 0.1523438,0.29296876 0.2578125,0.48046876 l -0.1757812,0.2109375 C 5.9306875,-0.33930469 5.626,-0.08149219 5.1455313,0.27007031 4.6767813,0.62163281 4.3252188,0.84428906 4.1025625,0.96147656 3.891625,1.0903828 3.6455313,1.2192891 3.3642813,1.3481953 3.1064688,1.4771016 2.9189688,1.5591328 2.8252188,1.6177266 l 0.070312,0.140625 0.2109375,-0.082031 0.8203125,-0.3164062 C 4.4892813,1.1138203 4.9814688,0.86772656 5.3564688,0.60991406 5.7431875,0.35210156 6.1533438,0.03569531 6.5635,-0.36274219 c 0.3164063,0.3515625 0.6210938,0.66796875 0.9140625,0.9609375 0.28125,0.28125 0.65625,0.52734379 1.0898438,0.76171879 0.1054687,-0.1171875 0.1875,-0.1992188 0.28125,-0.2578125 0.082031,-0.070312 0.1757812,-0.10546879 0.2695312,-0.12890629 0.082031,-0.0117188 0.28125,-0.0351563 0.5625,-0.046875 L 9.6924063,0.82085156 9.5283438,0.76225781 9.1299063,0.62163281 C 8.626,0.44585156 8.204125,0.24663281 7.876,0.02397656 c -0.328125,-0.22265625 -0.6328125,-0.46875 -0.9140625,-0.75 L 7.0674063,-0.90180469 7.40725,-1.3939922 c 0.1523438,-0.234375 0.328125,-0.5507812 0.5273438,-0.9609375 0.1992187,-0.3984375 0.421875,-0.9023437 0.6679687,-1.5117187 L 8.860375,-3.9838359 c 0.070312,-0.035156 0.1054688,-0.070312 0.1289063,-0.09375 0,-0.011719 -0.046875,-0.070312 -0.1289063,-0.140625 L 8.2627188,-4.7455547 7.922875,-4.2885234 6.9385,-4.2768047 7.9814688,-6.6088359 8.2744375,-6.7377422 c 0.058594,-0.035156 0.09375,-0.070312 0.09375,-0.082031 0.011719,-0.023437 -0.011719,-0.058594 -0.058594,-0.09375 L 7.6767813,-7.4057109 7.3252188,-6.9838359 H 3.985375 l -0.8320312,-0.035156 0.46875,0.421875 C 3.8330313,-6.7025859 4.03225,-6.7494609 4.21975,-6.7494609 l 0.3515625,-0.011719 -0.035156,1.078125 C 4.5244375,-5.4838359 4.501,-5.0853984 4.4424063,-4.4877422 4.40725,-3.8783672 4.3252188,-3.2455547 4.21975,-2.6010234 4.1377188,-1.9564922 3.9385,-1.3588359 3.6220938,-0.81977344 3.3174063,-0.26899219 3.0361563,0.14116406 2.766625,0.43413281 c -0.2578125,0.28125 -0.5039062,0.5625 -0.75,0.80859379 z m 4.5585938,-2.390625 C 6.28225,-1.6283672 6.0244375,-2.0736797 5.8369375,-2.4955547 5.6377188,-2.8939922 5.485375,-3.4096172 5.34475,-4.0189922 5.2158438,-4.6166484 5.1455313,-5.0971172 5.1455313,-5.4486797 c -0.023437,-0.3515625 0,-0.7851562 0.046875,-1.3007812 l 2.203125,-0.011719 -0.890625,2.015625 c -0.082031,0.1875 -0.1289063,0.2929688 -0.1523438,0.3164063 -0.011719,0.011719 -0.070312,0.046875 -0.140625,0.070312 -0.070312,0.023437 -0.140625,0.070312 -0.234375,0.1289062 l 0.5273438,0.5390625 0.375,-0.3515625 h 1.0546875 l -0.09375,0.3515625 c -0.046875,0.1875 -0.1640625,0.46875 -0.328125,0.8671875 -0.1757813,0.3984375 -0.3046875,0.703125 -0.4335938,0.9140625 -0.140625,0.2109375 -0.2929687,0.46875 -0.5039062,0.7617195 z m 3.9140622,-2.4492188 0.421875,0.7265625 c 0.351563,-0.2226562 0.621094,-0.375 0.832032,-0.4804687 0.210937,-0.082031 0.46875,-0.1992188 0.773437,-0.3164063 v 1.6289063 c 0,0.1054687 -0.02344,0.1757812 -0.08203,0.2109375 -0.05859,0.023437 -0.1875,0.023437 -0.386719,0.011719 -0.199219,0 -0.480469,-0.046875 -0.855469,-0.1171875 l -0.01172,0.1289063 0.222656,0.09375 0.28125,0.09375 c 0.234375,0.1171875 0.375,0.2109375 0.433594,0.3164062 0.04687,0.1054688 0.08203,0.2109375 0.117187,0.33984376 0.222656,-0.0703125 0.410156,-0.14062496 0.539063,-0.21093746 0.128906,-0.070312 0.210937,-0.140625 0.246093,-0.2460938 0.03516,-0.082031 0.04687,-0.1757812 0.04687,-0.28125 v -2.2148437 l 0.199219,-0.09375 0.820313,-0.375 c 0.09375,-0.035156 0.222656,-0.1054688 0.398437,-0.1992188 l -0.03516,-0.140625 c -0.140625,0.046875 -0.339844,0.1171875 -0.644531,0.2226563 -0.292969,0.082031 -0.550782,0.1640625 -0.738282,0.234375 v -1.3007813 h 1.523438 c 0.105469,0 0.164062,-0.011719 0.175781,-0.035156 0.01172,-0.011719 -0.02344,-0.070312 -0.09375,-0.1523438 l -0.550781,-0.5976562 -0.46875,0.5625 h -0.585938 v -1.078125 l 0.28125,-0.1875 c 0.09375,-0.058594 0.128907,-0.09375 0.128907,-0.1171875 0,-0.023437 -0.03516,-0.046875 -0.128907,-0.09375 l -0.878906,-0.3398438 0.04687,0.7382813 v 1.078125 h -1.300781 l -0.492188,-0.023437 0.351563,0.4453125 c 0.257812,-0.1289063 0.585937,-0.1992188 0.984375,-0.1992188 h 0.457031 v 1.4765625 c -0.738281,0.2226563 -1.417969,0.3984375 -2.027344,0.4921875 z m 1.347657,2.84765626 -0.05859,0.36328125 c -0.01172,0.046875 -0.05859,0.1875 -0.164063,0.41015625 -0.09375,0.2109375 -0.234375,0.41015625 -0.421875,0.57421875 l -0.304687,0.234375 c -0.117188,0.1171875 -0.175781,0.19921879 -0.164063,0.25781249 0,0.058594 0.02344,0.1171875 0.07031,0.1640625 0.07031,0.046875 0.140625,0.082031 0.257812,0.082031 0.1875,0.011719 0.351563,-0.058594 0.492188,-0.1757813 0.140625,-0.140625 0.234375,-0.25781249 0.28125,-0.38671874 0.04687,-0.10546875 0.09375,-0.24609375 0.105469,-0.3984375 0.04687,-0.140625 0.05859,-0.26953125 0.05859,-0.3749999975 0.01172,-0.1289062525 0,-0.2578125025 0,-0.3750000025 -0.01172,-0.1171875 -0.02344,-0.24609375 -0.04687,-0.38671875 z m 1.21875,-0.24609375 0.05859,0.10546875 c 1.160157,-0.53906246 1.863282,-1.00781246 2.085938,-1.40624996 0.234375,-0.4101563 0.375,-0.6796875 0.445312,-0.8085938 l 0.28125,0.328125 c 0.04687,0.046875 0.117188,0.1523438 0.210938,0.2929688 0.09375,0.1523437 0.164062,0.2460937 0.199218,0.2695312 0.128907,0.1289063 0.246094,0.070312 0.363282,-0.1523437 0.04687,-0.1171875 0.07031,-0.1992188 0.05859,-0.28125 0,-0.082031 -0.03516,-0.1640625 -0.08203,-0.2578125 -0.05859,-0.082031 -0.164062,-0.1875 -0.292969,-0.28125 -0.128906,-0.1054688 -0.316406,-0.234375 -0.562499,-0.3984375 0.07031,-0.234375 0.117187,-0.46875 0.140625,-0.6796875 0.03516,-0.2109375 0.07031,-0.5507813 0.117187,-1.0195313 l 1.21875,-0.2226562 -0.01172,0.6210937 c -0.01172,0.3867188 0,0.75 0.01172,1.1132813 0,0.3515625 0.03516,0.6445312 0.07031,0.8789062 0.02344,0.2226563 0.09375,0.46875 0.1875,0.7265625 0.08203,0.2695313 0.246094,0.46875 0.457032,0.6328125 0.222656,0.1757813 0.398437,0.28125 0.515625,0.328125 0.128906,0.046875 0.269531,0.09375 0.421875,0.1171875 0.140625,0.035156 0.234375,0.046875 0.292968,0.046875 0.117188,-0.011719 0.1875,-0.058594 0.1875,-0.1757812 0.01172,-0.046875 -0.01172,-0.140625 -0.07031,-0.2460938 -0.05859,-0.1054687 -0.09375,-0.234375 -0.128906,-0.3515625 -0.02344,-0.140625 -0.04687,-0.28125 -0.03516,-0.421875 0.01172,-0.140625 0.02344,-0.28125 0.03516,-0.4335937 0,-0.1523438 0.02344,-0.3515625 0.05859,-0.609375 l -0.128906,-0.023437 c -0.117187,0.421875 -0.1875,0.6796875 -0.199219,0.75 l -0.128906,0.375 c -0.05859,0.1640625 -0.105469,0.2578125 -0.152344,0.28125 -0.117187,0.023437 -0.246093,-0.035156 -0.386718,-0.1992188 -0.128907,-0.1640625 -0.234375,-0.328125 -0.304688,-0.4804687 -0.07031,-0.1640625 -0.105469,-0.375 -0.140625,-0.6328125 -0.01172,-0.2578125 -0.02344,-0.5390625 -0.02344,-0.8554688 -0.01172,-0.328125 -0.01172,-0.5742187 0.01172,-0.7382812 0,-0.1757813 0.01172,-0.3515625 0.03516,-0.5507813 l 0.257812,-0.234375 c 0.07031,-0.046875 0.105469,-0.082031 0.105469,-0.1054687 0,-0.035156 -0.07031,-0.09375 -0.210938,-0.1875 l -0.5625,-0.328125 -0.234375,0.5039062 -1.136718,0.2109375 0.04687,-0.65625 c 0.01172,-0.1289062 0.02344,-0.421875 0.03516,-0.9140625 l 0.222656,-0.140625 c 0.07031,-0.046875 0.105469,-0.070312 0.105469,-0.1054687 0,-0.023437 -0.03516,-0.046875 -0.105469,-0.082031 l -0.855468,-0.328125 0.02344,0.4570313 v 1.5117187 c 0,0.1289063 0,0.234375 -0.01172,0.3398438 l -0.679687,0.1054687 -0.492188,0.058594 0.363282,0.2578125 c 0.234375,-0.09375 0.386718,-0.140625 0.46875,-0.1523438 l 0.328125,-0.046875 c -0.03516,0.4804688 -0.08203,0.796875 -0.117188,0.9492188 -0.03516,0.1523437 -0.07031,0.2929687 -0.105469,0.3984375 -0.199218,-0.082031 -0.421875,-0.1757813 -0.679687,-0.3046875 l -0.05859,0.1289062 0.199219,0.140625 0.269531,0.1992188 c 0.04687,0.035156 0.105469,0.09375 0.199219,0.1757812 -0.105469,0.3164063 -0.210938,0.5742188 -0.339844,0.7617188 -0.128906,0.1875 -0.304687,0.421875 -0.527344,0.6796875 -0.234375,0.2578125 -0.46875,0.46875 -0.679687,0.6328125 -0.222656,0.140625 -0.445313,0.2929687 -0.644531,0.43359371 z m 0.222656,0.421875 c 0.105469,0.19921875 0.175781,0.33984375 0.1875,0.4453125 0.03516,0.09375 0.04687,0.2109375 0.07031,0.328125 0.02344,0.10546875 0.03516,0.2109375 0.04687,0.3046875 v 0.3984375 c 0,0.11718749 0.02344,0.17578129 0.05859,0.19921879 0.04687,0.035156 0.117188,0.023437 0.222656,-0.023437 0.105469,-0.046875 0.1875,-0.11718754 0.246094,-0.18750004 0.07031,-0.1171875 0.117188,-0.24609375 0.117188,-0.375 0,-0.140625 -0.08203,-0.31640625 -0.246094,-0.5390625 -0.152344,-0.2109375 -0.363281,-0.421875 -0.609375,-0.62109375 z m 2.039062,-0.09375 c 0.1875,0.24609375 0.316407,0.45703125 0.386719,0.6328125 0.07031,0.1640625 0.117188,0.33984375 0.140625,0.5390625 0.02344,0.19921875 0.05859,0.33984375 0.08203,0.41015625 0.03516,0.0703125 0.08203,0.11718754 0.128906,0.12890624 0.05859,0.011719 0.117188,-0.011719 0.199219,-0.046875 0.05859,-0.0585938 0.117188,-0.12890625 0.175781,-0.22265625 0.05859,-0.10546875 0.08203,-0.19921875 0.08203,-0.26953125 -0.01172,-0.09375 -0.03516,-0.19921875 -0.105469,-0.3046875 -0.07031,-0.1171875 -0.164063,-0.2578125 -0.316406,-0.421875 -0.152344,-0.140625 -0.386719,-0.33984375 -0.703125,-0.55078125 z m 1.957031,-0.0117188 c 0.246094,0.26953125 0.421875,0.4453125 0.515625,0.5625 0.09375,0.10546875 0.175782,0.22265625 0.246094,0.3515625 0.07031,0.12890625 0.152344,0.29296875 0.222656,0.46875 l 0.128907,0.39843749 c 0.03516,0.1171875 0.07031,0.1875 0.117187,0.1992187 0.05859,0.046875 0.128906,0.046875 0.199219,0 0.07031,-0.035156 0.140625,-0.1289062 0.210937,-0.2460937 0.07031,-0.14062499 0.105469,-0.25781249 0.117188,-0.37499999 0,-0.09375 -0.02344,-0.1875 -0.08203,-0.3046875 -0.04687,-0.10546875 -0.234375,-0.26953125 -0.539063,-0.515625 -0.316406,-0.22265625 -0.679687,-0.43359375 -1.089844,-0.6328125 z m 0,0" style="fill:#000000;fill-opacity:1;fill-rule:nonzero;stroke:none" aria-label="吸热" transform="matrix(1.3333333,0,0,1.3333333,37.498667,198.636)"/>
    <path id="path5" d="M 0,31.88994 H 35.4335" style="fill:none;stroke:#000000;stroke-width:1.99255;stroke-linecap:butt;stroke-linejoin:miter;stroke-miterlimit:10;stroke-dasharray:none;stroke-opacity:1" transform="matrix(1.3333333,0,0,-1.3333333,27.16,142.79733)"/>
    <path id="path6" d="M 0,63.77989 H 35.4335" style="fill:none;stroke:#000000;stroke-width:1.99255;stroke-linecap:butt;stroke-linejoin:miter;stroke-miterlimit:10;stroke-dasharray:none;stroke-opacity:1" transform="matrix(1.3333333,0,0,-1.3333333,27.16,142.79733)"/>
    <path id="path7" d="M 17.71674,63.77989 V 77.95418" style="fill:none;stroke:#000000;stroke-width:2.98883;stroke-linecap:butt;stroke-linejoin:miter;stroke-miterlimit:10;stroke-dasharray:none;stroke-opacity:1" transform="matrix(1.3333333,0,0,-1.3333333,27.16,142.79733)"/>
    <path id="path8" d="M 0.56284375,-1.3120781 C 1.0433125,-1.1480156 1.348,-0.96051563 1.4651875,-0.76129688 c 0.09375,0.12890625 0.1289063,0.2578125 0.1289063,0.41015625 -0.011719,0.15234375 -0.023437,0.328125 -0.035156,0.52734375 -0.023437,0.2109375 -0.046875,0.38671875 -0.058594,0.515625 -0.035156,0.1875 -0.058594,0.31640628 -0.046875,0.41015628 0.011719,0.082031 0.058594,0.1757812 0.1640625,0.2929687 0.082031,0.1054688 0.1992187,0.1640625 0.2929687,0.140625 0.1171875,0 0.1875,-0.035156 0.2460938,-0.082031 0.035156,-0.035156 0.058594,-0.1289063 0.070312,-0.2695313 0,-0.1054687 0,-0.28124998 -0.035156,-0.49218748 L 2.098,-0.11676563 c -0.035156,-0.328125 -0.058594,-0.55078125 -0.058594,-0.66796875 -0.011719,-0.1875 0,-0.37500002 0.035156,-0.53906252 0.023437,-0.1757812 0.082031,-0.3867187 0.1523438,-0.6679687 0.082031,-0.2929688 0.2695312,-0.8554688 0.5390625,-1.7109375 0.28125,-0.8554688 0.515625,-1.5703125 0.6796875,-2.1210938 l -0.140625,-0.046875 -0.6796875,1.7226563 c -0.421875,1.0664062 -0.6679688,1.6757812 -0.7265625,1.828125 -0.070312,0.1523437 -0.140625,0.3164062 -0.2226563,0.5039062 -0.1054687,0.1992188 -0.1992187,0.328125 -0.3046875,0.3867188 -0.1171875,0.046875 -0.3632812,0.046875 -0.76171875,-0.023437 z m 0.0117188,-3.75 c 0.2109375,0.1757812 0.38671875,0.3632812 0.52734385,0.5390625 0.1171875,0.1757812 0.2109375,0.3632812 0.2578125,0.5507812 0.058594,0.1875 0.082031,0.3046875 0.1171875,0.3515625 0.023437,0.046875 0.058594,0.082031 0.1054687,0.09375 0.046875,0.011719 0.1054688,-0.011719 0.1757813,-0.058594 0.058594,-0.058594 0.1054687,-0.1289063 0.140625,-0.2226563 0.023437,-0.082031 0.058594,-0.1757812 0.058594,-0.2695312 0.023437,-0.1054688 0.011719,-0.2109375 -0.023437,-0.328125 C 1.8870625,-4.5112969 1.7581563,-4.6167656 1.5355,-4.7456719 1.3128438,-4.8628594 1.019875,-5.0034844 0.63315625,-5.1675469 Z M 1.3597189,-7.2417656 c 0.28125,0.2695312 0.46875,0.4570312 0.5507811,0.5625 0.082031,0.1289062 0.1640626,0.2460937 0.2226564,0.3867187 0.070312,0.1171875 0.1171875,0.234375 0.140625,0.3515625 0.023437,0.1054688 0.058594,0.1757813 0.082031,0.1992188 0.023437,0.046875 0.070312,0.058594 0.1289063,0.070312 0.058594,0.011719 0.1289062,-0.011719 0.2109375,-0.082031 0.058594,-0.082031 0.1289062,-0.1757812 0.1523437,-0.2578125 0.035156,-0.070312 0.046875,-0.1523437 0.046875,-0.2460937 0,-0.09375 -0.070312,-0.2226563 -0.1875,-0.375 C 2.5784688,-6.7847344 2.1565938,-7.0191094 1.4300313,-7.3472344 Z m 4.5234374,0.9023437 v 2.015625 H 4.1605 l -1.0664062,-0.023437 0.375,0.4101563 0.28125,-0.082031 c 0.140625,-0.046875 0.4804687,-0.070312 1.0664062,-0.070312 h 1.0664063 v 1.8046875 H 4.6526875 L 3.926125,-2.7183281 3.973,-1.3120781 V 0.21135937 L 3.9144063,1.5707344 C 4.1487813,1.5121406 4.3597188,1.4301094 4.5472188,1.3480781 V 0.51604687 h 3.1875 V 1.4887031 C 7.957375,1.4183906 8.098,1.3597969 8.1565938,1.3363594 8.2151875,1.3012031 8.3089375,1.2543281 8.4144063,1.1840156 L 8.3440938,-0.05817188 V -1.8394219 l 0.2929687,-0.234375 c 0.046875,-0.046875 0.082031,-0.082031 0.082031,-0.09375 0,-0.023437 -0.046875,-0.058594 -0.140625,-0.1289062 l -0.6445313,-0.4570313 -0.328125,0.46875 H 6.457375 v -1.8046875 h 2.8828125 c 0.058594,0 0.082031,-0.011719 0.082031,-0.035156 0.023437,-0.035156 0,-0.070312 -0.046875,-0.1054688 l -0.8085938,-0.65625 -0.4453125,0.5625 H 6.457375 v -2.109375 c 0.5507813,-0.1054687 1.1132813,-0.2226562 1.7226563,-0.328125 l 0.328125,0.082031 c 0.046875,0 0.082031,0 0.09375,-0.011719 0.023437,-0.035156 0.011719,-0.082031 -0.035156,-0.1523437 l -0.4921875,-0.65625 c -0.6796878,0.3164065 -1.417969,0.574219 -2.214844,0.761719 l -0.6914063,0.1640625 -0.5976562,0.1289063 c -0.1054688,0.023437 -0.4453125,0.082031 -1.0195313,0.1640625 v 0.140625 c 0.6328125,-0.023437 1.40625,-0.09375 2.3320313,-0.1992188 z M 4.5472188,0.28167187 V -2.0503594 h 3.1875 v 2.33203127 z m 8.4960942,-2.48437497 -0.152344,0.2929687 c -0.140625,0.2460938 -0.351563,0.5273438 -0.632813,0.8320313 -0.292968,0.31640622 -0.574218,0.59765622 -0.867187,0.83203122 -0.269531,0.22265625 -0.667969,0.50390625 -1.183594,0.8203125 l 0.04687,0.1171875 c 0.808594,-0.3515625 1.488281,-0.76171875 2.015625,-1.20703125 0.527344,-0.4453125 1.054688,-1.01953127 1.582031,-1.68749997 h 2.25 l 0.199219,0.328125 c 0.04687,0.1171875 0.175781,0.3046875 0.386719,0.5625 0.210937,0.28125 0.457031,0.52734372 0.75,0.76171872 0.28125,0.24609375 0.726562,0.515625 1.335937,0.85546875 0.164063,-0.19921875 0.292969,-0.33984375 0.410157,-0.41015625 0.105468,-0.0585938 0.292968,-0.0820313 0.5625,-0.0703125 l 0.01172,-0.10546875 c -0.679687,-0.17578125 -1.113281,-0.29296875 -1.289062,-0.3515625 -0.175781,-0.0585938 -0.421875,-0.17578125 -0.75,-0.3515625 C 17.390969,-1.1597344 17.133156,-1.3589531 16.922219,-1.5933281 16.711281,-1.8159844 16.5355,-2.0152031 16.383156,-2.2027031 H 19.5355 c 0.03516,0 0.05859,-0.011719 0.07031,-0.023437 0.01172,-0.011719 -0.01172,-0.046875 -0.04687,-0.070312 l -0.773438,-0.65625 -0.515625,0.5273437 h -1.875 v -0.9609375 h 1.78125 c 0.05859,0 0.08203,-0.011719 0.09375,-0.035156 0.02344,-0.035156 0,-0.070312 -0.03516,-0.09375 l -0.632813,-0.609375 -0.433593,0.5039062 h -0.773438 v -0.984375 h 1.921875 c 0.07031,0 0.105469,-0.011719 0.117188,-0.035156 0,-0.023437 -0.02344,-0.058594 -0.08203,-0.1171875 l -0.644531,-0.5625 -0.386719,0.4921875 -0.925781,0.011719 v -0.5625 l 0.246094,-0.140625 c 0.08203,-0.046875 0.128906,-0.09375 0.117187,-0.1054687 0,-0.023437 -0.05859,-0.058594 -0.140625,-0.082031 l -0.808593,-0.2929687 0.03516,0.75 v 0.4335937 h -1.792969 l -0.01172,-0.4921875 0.28125,-0.1757812 c 0.04687,-0.023437 0.05859,-0.046875 0.08203,-0.058594 0,-0.023437 -0.02344,-0.046875 -0.08203,-0.070312 l -0.867187,-0.3164062 0.03516,0.7851562 v 0.328125 l -1.101562,-0.011719 -0.609375,-0.023437 0.398437,0.4335937 c 0.128906,-0.058594 0.234375,-0.09375 0.316406,-0.1054687 0.07031,-0.023437 0.164063,-0.035156 0.292969,-0.058594 0.128906,-0.011719 0.199219,-0.023437 0.234375,-0.023437 h 0.46875 v 0.984375 h -1.183594 l -0.597656,-0.011719 0.375,0.421875 c 0.269531,-0.1171875 0.539063,-0.1757813 0.796875,-0.1757813 h 0.609375 v 0.9609375 h -2.238281 l -0.714844,-0.023437 0.410156,0.4335938 c 0.210938,-0.09375 0.363282,-0.1523438 0.46875,-0.1640625 0.105469,-0.011719 0.246094,-0.023437 0.445313,-0.023437 z m 1.007812,-0.2226563 v -0.9609375 h 1.792969 v 0.9609375 z m 0,-1.1953125 v -0.984375 h 1.792969 v 0.984375 z m -2.121094,-2.8125 -0.01172,-0.1757812 c 0,-0.023437 0,-0.082031 -0.02344,-0.1992188 h -0.08203 l -0.08203,0.3398438 c -0.02344,0.1289062 -0.07031,0.2578125 -0.152344,0.3867187 -0.07031,0.140625 -0.1875,0.28125 -0.339844,0.421875 -0.152344,0.1289063 -0.246094,0.2226563 -0.28125,0.2578125 -0.03516,0.046875 -0.04687,0.09375 -0.03516,0.1523438 0,0.058594 0.02344,0.1171875 0.07031,0.1757812 0.05859,0.058594 0.140625,0.09375 0.269532,0.09375 0.117187,0 0.210937,-0.035156 0.316406,-0.1171875 0.08203,-0.082031 0.152344,-0.1875 0.210937,-0.3164062 0.05859,-0.1289063 0.09375,-0.2695313 0.117188,-0.3867188 0.01172,-0.1171875 0.02344,-0.2578125 0.03516,-0.4101562 h 6.492188 c -0.07031,0.1289062 -0.140625,0.2695312 -0.222657,0.4335937 -0.08203,0.1640625 -0.152343,0.2929688 -0.199218,0.3867188 l 0.08203,0.058594 c 0.269531,-0.2695312 0.492187,-0.4335937 0.65625,-0.515625 0.164062,-0.082031 0.316406,-0.1289062 0.46875,-0.140625 l 0.339844,-0.023437 c 0.05859,0 0.08203,-0.023437 0.105468,-0.046875 0.01172,-0.023437 0,-0.070312 -0.03516,-0.09375 l -0.9375,-0.7148437 -0.28125,0.4335937 h -3.304687 c 0.175781,-0.1875 0.269531,-0.328125 0.269531,-0.4453125 0.02344,-0.09375 -0.03516,-0.2226562 -0.152344,-0.375 -0.117187,-0.1523437 -0.433594,-0.3164062 -0.914062,-0.4921875 l -0.05859,0.09375 0.175781,0.1523438 c 0.08203,0.070312 0.152344,0.1640625 0.210938,0.2929687 0.05859,0.1289063 0.09375,0.2578125 0.128906,0.375 0.01172,0.1054688 0.03516,0.1875 0.03516,0.2226563 0.02344,0.023437 0.04687,0.082031 0.07031,0.1757812 z m -0.609375,7.546875 0.328125,0.3867188 0.152344,-0.046875 0.316406,-0.035156 c 0.140625,-0.035156 0.222657,-0.046875 0.257813,-0.046875 h 6.011719 c 0.07031,0 0.117187,-0.011719 0.140625,-0.035156 0.01172,-0.035156 -0.01172,-0.070312 -0.05859,-0.1171875 L 17.777688,0.56292187 17.262063,1.1371406 h -2.074219 v -1.38281248 h 1.839844 c 0.04687,0 0.07031,-0.0117188 0.08203,-0.0585938 0.01172,-0.0117188 -0.01172,-0.0585938 -0.03516,-0.0820313 l -0.632813,-0.609375 -0.457031,0.4921875 h -0.79687 V -1.3003594 L 15.4105,-1.4527031 c 0.07031,-0.046875 0.09375,-0.09375 0.09375,-0.1171875 0,-0.035156 -0.03516,-0.058594 -0.117187,-0.09375 l -0.808594,-0.2929688 0.04687,0.703125 v 0.75000002 h -1.453125 l -0.539063,-0.0117188 0.292969,0.3515625 c 0.07031,-0.0234375 0.1875,-0.046875 0.328125,-0.0585938 0.140625,-0.0117188 0.234375,-0.0234375 0.257813,-0.0234375 h 1.113281 V 1.1371406 H 11.89487 Z m 0,0" style="fill:#000000;fill-opacity:1;fill-rule:nonzero;stroke:none" aria-label="活塞" transform="matrix(1.3333333,0,0,1.3333333,57.202667,42.976)"/>
    <path id="path9" d="m 2.4719922,-7.4637813 -0.09375,0.3164063 c -0.023437,0.140625 -0.2226563,0.5390625 -0.5859375,1.2070312 -0.3515625,0.6796875 -0.609375,1.125 -0.7617188,1.3242188 -0.16406246,0.1992187 -0.28124996,0.328125 -0.35156246,0.3867187 -0.0820313,0.046875 -0.1875,0.1054688 -0.31640625,0.1523438 l 0.328125,0.6210937 0.24609375,-0.1171875 C 1.1243359,-3.678625 1.6516797,-3.7958125 2.5188672,-3.9364375 2.2258984,-3.4208125 1.9680859,-3.0106563 1.7571484,-2.7059688 1.5462109,-2.413 1.3821484,-2.2255 1.2883984,-2.13175 1.1829297,-2.038 1.0305859,-1.9794063 0.80792969,-1.9325313 l 0.32812501,0.703125 0.2578125,-0.140625 C 1.6399609,-1.522375 2.5188672,-1.75675 4.0305859,-2.038 v -0.1640625 c -0.703125,0.070312 -1.5117187,0.140625 -2.4257812,0.2109375 0.3515625,-0.4335938 0.6914062,-0.8789063 1.0195312,-1.3125 0.328125,-0.4335938 0.7734375,-1.0429688 1.3359375,-1.8515625 l 0.2109375,-0.035156 c 0.082031,-0.023437 0.1171875,-0.035156 0.1289063,-0.070312 0.011719,-0.023437 -0.023437,-0.070312 -0.09375,-0.1171875 L 3.5266797,-5.88175 3.4094922,-5.5419063 c -0.058594,0.1757813 -0.2929688,0.609375 -0.7148438,1.3359375 l -1.6289062,0.035156 0.328125,-0.421875 1.0429687,-1.4414063 c 0.1171875,-0.1523437 0.28125,-0.3867187 0.515625,-0.703125 L 3.2219922,-6.81925 c 0.058594,-0.023437 0.082031,-0.046875 0.082031,-0.058594 0,-0.023437 -0.035156,-0.058594 -0.1054687,-0.1171875 z M 0.55011719,0.0010625 0.94855469,0.78621875 1.1829297,0.62215625 C 1.3118359,0.5166875 1.5110547,0.4229375 1.7805859,0.31746875 2.0501172,0.212 2.8118359,-0.06925 4.0305859,-0.5145625 L 3.9954297,-0.63175 c -1.1835938,0.28125 -1.96875,0.45703125 -2.3671875,0.50390625 -0.375,0.046875 -0.73828126,0.09375 -1.07812501,0.12890625 z m 2.87109371,-3.1523438 0.1054688,0.09375 c 0.2109375,-0.2226562 0.5507812,-0.5976562 1.0195312,-1.125 v 4.54687505 c 0,0.2578125 0,0.45703125 0.035156,0.59765625 0.035156,0.1523437 0.140625,0.2695312 0.3164062,0.3398437 0.1992188,0.070312 0.84375,0.1171875 1.9570313,0.1054688 l 1.265625,-0.046875 c 0.328125,0 0.5507812,-0.035156 0.703125,-0.082031 0.1523437,-0.046875 0.2695312,-0.1171875 0.3632812,-0.1992187 0.09375,-0.09375 0.1523438,-0.1640625 0.1757813,-0.22265625 0.035156,-0.046875 0.046875,-0.1171875 0.070312,-0.19921875 L 9.2102734,0.50496875 c -0.070312,-0.046875 -0.1289062,-0.140625 -0.1640625,-0.26953125 -0.046875,-0.12890625 -0.058594,-0.29296875 -0.070312,-0.46875 -0.011719,-0.1875 -0.023437,-0.41015625 -0.035156,-0.69140625 l -0.1054688,0.0234375 c -0.046875,0.328125 -0.1054687,0.59765625 -0.1289062,0.796875 -0.035156,0.2109375 -0.070312,0.38671875 -0.1171875,0.52734375 -0.058594,0.12890625 -0.09375,0.2109375 -0.140625,0.26953125 -0.058594,0.046875 -0.140625,0.0703125 -0.2460938,0.0703125 -0.1171875,0 -0.3515625,0.0117188 -0.6914062,0.046875 -0.3515625,0.0234375 -0.75,0.0351563 -1.171875,0.0234375 -0.4453125,0 -0.7265625,0 -0.84375,0 -0.1054695,0 -0.1992195,-0.0117188 -0.269532,-0.0585938 C 5.1555859,0.73934375 5.1204297,0.69246875 5.0969922,0.62215625 5.0735547,0.55184375 5.0618359,0.3760625 5.0618359,0.0948125 v -1.96875 h 2.9648438 v 0.4335937 c 0.09375,-0.035156 0.1875,-0.058594 0.3046875,-0.1171875 0.09375,-0.035156 0.1875,-0.070312 0.2695312,-0.1054687 L 8.5657422,-2.4950313 V -3.959875 l 0.234375,-0.2109375 c 0.082031,-0.082031 0.1289062,-0.1171875 0.1289062,-0.1289063 0,0 -0.058594,-0.046875 -0.1640625,-0.1289062 L 8.2610547,-4.7919063 7.9563672,-4.3583125 h -1.21875 C 7.2649609,-5.0262813 7.6048047,-5.4247188 7.7923047,-5.553625 7.9563672,-5.69425 8.0852734,-5.7762813 8.1673047,-5.788 l 0.1757812,-0.023437 c 0.058594,0 0.082031,-0.023437 0.09375,-0.070312 0.011719,-0.011719 -0.023437,-0.070312 -0.1054687,-0.1640625 L 7.7337109,-6.6200313 7.3352734,-6.1864375 h -1.453125 l 0.4570313,-0.8203125 0.1875,-0.070312 c 0.070312,-0.011719 0.1054687,-0.035156 0.1054687,-0.058594 0.011719,-0.023437 -0.046875,-0.070312 -0.1523437,-0.140625 L 5.7415234,-7.698156 5.6360547,-7.2997185 c -0.035156,0.1875 -0.1171875,0.421875 -0.234375,0.7265625 -0.1171875,0.3046875 -0.234375,0.5742188 -0.3398438,0.8203125 -0.1171875,0.2226563 -0.3164062,0.5742188 -0.5742187,1.03125 -0.2695313,0.4453125 -0.6210938,0.9726563 -1.0664063,1.5703122 z M 4.8508984,-4.616125 c 0.3164063,-0.4570313 0.6210938,-0.9023438 0.890625,-1.3359375 h 1.6523438 l -0.4453125,0.8085937 c -0.046875,0.09375 -0.1992188,0.3515625 -0.4570313,0.7851563 H 5.2141797 Z m 0.2109375,2.5195312 v -2.0273437 h 1.1835938 v 2.0273437 z m 1.6992188,0 v -2.0273437 h 1.265625 l -0.011719,2.0273437 z m 3.7294923,-1.5 0.421875,0.7265625 c 0.351562,-0.2226562 0.621094,-0.375 0.832031,-0.4804687 0.210938,-0.082031 0.46875,-0.1992188 0.773438,-0.3164063 V -2.038 c 0,0.1054687 -0.02344,0.1757812 -0.08203,0.2109375 -0.05859,0.023437 -0.1875,0.023437 -0.386718,0.011719 -0.199219,0 -0.480469,-0.046875 -0.855469,-0.1171875 l -0.01172,0.1289063 0.222656,0.09375 0.28125,0.09375 c 0.234375,0.1171875 0.375,0.2109375 0.433594,0.3164062 0.04687,0.1054688 0.08203,0.2109375 0.117188,0.3398438 0.222656,-0.0703125 0.410156,-0.140625 0.539062,-0.2109375 0.128906,-0.070312 0.210938,-0.140625 0.246094,-0.2460938 0.03516,-0.082031 0.04687,-0.1757812 0.04687,-0.28125 V -3.913 l 0.199219,-0.09375 0.820312,-0.375 c 0.09375,-0.035156 0.222656,-0.1054688 0.398438,-0.1992188 l -0.03516,-0.140625 c -0.140625,0.046875 -0.339843,0.1171875 -0.644531,0.2226563 -0.292969,0.082031 -0.550781,0.1640625 -0.738281,0.234375 v -1.3007813 h 1.523437 c 0.105469,0 0.164063,-0.011719 0.175782,-0.035156 0.01172,-0.011719 -0.02344,-0.070312 -0.09375,-0.1523438 L 14.123359,-6.3505 13.654609,-5.788 h -0.585937 v -1.078125 l 0.28125,-0.1875 c 0.09375,-0.058594 0.128906,-0.09375 0.128906,-0.1171875 0,-0.023437 -0.03516,-0.046875 -0.128906,-0.09375 l -0.878906,-0.3398438 0.04687,0.7382813 V -5.788 h -1.300782 l -0.492187,-0.023437 0.351562,0.4453125 c 0.257813,-0.1289063 0.585938,-0.1992188 0.984375,-0.1992188 h 0.457032 v 1.4765625 c -0.738282,0.2226563 -1.417969,0.3984375 -2.027344,0.4921875 z m 1.347656,2.8476563 -0.05859,0.36328125 c -0.01172,0.046875 -0.05859,0.1875 -0.164062,0.41015625 -0.09375,0.2109375 -0.234375,0.41015625 -0.421875,0.57421875 l -0.304688,0.234375 c -0.117187,0.1171875 -0.175781,0.19921875 -0.164062,0.25781245 0,0.058594 0.02344,0.1171875 0.07031,0.1640625 0.07031,0.046875 0.140625,0.082031 0.257813,0.082031 0.1875,0.011719 0.351562,-0.058594 0.492187,-0.1757813 0.140625,-0.140625 0.234375,-0.25781245 0.28125,-0.3867187 0.04687,-0.10546875 0.09375,-0.24609375 0.105469,-0.3984375 0.04687,-0.140625 0.05859,-0.26953125 0.05859,-0.375 0.01172,-0.12890625 0,-0.2578125 0,-0.375 -0.01172,-0.1171875 -0.02344,-0.24609375 -0.04687,-0.38671875 z m 1.21875,-0.24609375 0.05859,0.10546875 c 1.160156,-0.5390625 1.863281,-1.0078125 2.085937,-1.40625 0.234375,-0.4101563 0.375,-0.6796875 0.445313,-0.8085938 l 0.28125,0.328125 c 0.04687,0.046875 0.117187,0.1523438 0.210937,0.2929688 0.09375,0.1523437 0.164063,0.2460937 0.199219,0.2695312 0.128906,0.1289063 0.246094,0.070312 0.363281,-0.1523437 0.04687,-0.1171875 0.07031,-0.1992188 0.05859,-0.28125 0,-0.082031 -0.03516,-0.1640625 -0.08203,-0.2578125 -0.05859,-0.082031 -0.164063,-0.1875 -0.292969,-0.28125 -0.128906,-0.1054688 -0.316406,-0.234375 -0.5625,-0.3984375 0.07031,-0.234375 0.117188,-0.46875 0.140625,-0.6796875 0.03516,-0.2109375 0.07031,-0.5507813 0.117188,-1.0195313 l 1.21875,-0.2226562 -0.01172,0.6210937 c -0.01172,0.3867188 0,0.75 0.01172,1.1132813 0,0.3515625 0.03516,0.6445312 0.07031,0.8789062 0.02344,0.2226563 0.09375,0.46875 0.1875,0.7265625 0.08203,0.2695313 0.246094,0.46875 0.457031,0.6328125 0.222657,0.1757813 0.398438,0.28125 0.515625,0.328125 0.128907,0.046875 0.269532,0.09375 0.421875,0.1171875 0.140625,0.035156 0.234375,0.046875 0.292969,0.046875 0.117188,-0.011719 0.1875,-0.058594 0.1875,-0.1757812 0.01172,-0.046875 -0.01172,-0.140625 -0.07031,-0.2460938 -0.05859,-0.1054687 -0.09375,-0.234375 -0.128907,-0.3515625 -0.02344,-0.140625 -0.04687,-0.28125 -0.03516,-0.421875 0.01172,-0.140625 0.02344,-0.28125 0.03516,-0.4335937 0,-0.1523438 0.02344,-0.3515625 0.05859,-0.609375 l -0.128906,-0.023437 c -0.117188,0.421875 -0.1875,0.6796875 -0.199219,0.75 l -0.128906,0.375 c -0.05859,0.1640625 -0.105469,0.2578125 -0.152344,0.28125 -0.117187,0.023437 -0.246094,-0.035156 -0.386719,-0.1992188 -0.128906,-0.1640625 -0.234375,-0.328125 -0.304687,-0.4804687 -0.07031,-0.1640625 -0.105469,-0.375 -0.140625,-0.6328125 -0.01172,-0.2578125 -0.02344,-0.5390625 -0.02344,-0.8554688 -0.01172,-0.328125 -0.01172,-0.5742187 0.01172,-0.7382812 0,-0.1757813 0.01172,-0.3515625 0.03516,-0.5507813 l 0.257813,-0.234375 c 0.07031,-0.046875 0.105469,-0.082031 0.105469,-0.1054687 0,-0.035156 -0.07031,-0.09375 -0.210938,-0.1875 l -0.5625,-0.328125 -0.234375,0.5039062 -1.136719,0.2109375 0.04687,-0.65625 c 0.01172,-0.1289062 0.02344,-0.421875 0.03516,-0.9140625 l 0.222656,-0.140625 c 0.07031,-0.046875 0.105469,-0.070312 0.105469,-0.1054687 0,-0.023437 -0.03516,-0.046875 -0.105469,-0.082031 l -0.855469,-0.328125 0.02344,0.4570313 v 1.5117187 c 0,0.1289063 0,0.234375 -0.01172,0.3398438 l -0.679688,0.1054687 -0.492187,0.058594 0.363281,0.2578125 c 0.234375,-0.09375 0.386719,-0.140625 0.46875,-0.1523438 l 0.328125,-0.046875 c -0.03516,0.4804688 -0.08203,0.796875 -0.117187,0.9492188 -0.03516,0.1523437 -0.07031,0.2929687 -0.105469,0.3984375 -0.199219,-0.082031 -0.421875,-0.1757813 -0.679688,-0.3046875 l -0.05859,0.1289062 0.199218,0.140625 0.269532,0.1992188 c 0.04687,0.035156 0.105468,0.09375 0.199218,0.1757812 -0.105468,0.3164063 -0.210937,0.5742188 -0.339843,0.7617188 -0.128907,0.1875 -0.304688,0.421875 -0.527344,0.6796875 -0.234375,0.2578125 -0.46875,0.46875 -0.679688,0.6328125 -0.222656,0.140625 -0.445312,0.2929687 -0.644531,0.43359375 z m 0.222656,0.421875 c 0.105469,0.19921875 0.175782,0.33984375 0.1875,0.4453125 0.03516,0.09375 0.04687,0.2109375 0.07031,0.328125 0.02344,0.10546875 0.03516,0.2109375 0.04687,0.3046875 v 0.3984375 c 0,0.11718745 0.02344,0.17578125 0.05859,0.19921875 0.04687,0.035156 0.117187,0.023437 0.222656,-0.023437 0.105469,-0.046875 0.1875,-0.1171875 0.246094,-0.1875 0.07031,-0.1171875 0.117187,-0.24609375 0.117187,-0.375 0,-0.140625 -0.08203,-0.31640625 -0.246094,-0.5390625 -0.152343,-0.2109375 -0.363281,-0.421875 -0.609375,-0.62109375 z m 2.039063,-0.09375 c 0.1875,0.24609375 0.316406,0.45703125 0.386719,0.6328125 0.07031,0.1640625 0.117187,0.33984375 0.140625,0.5390625 0.02344,0.19921875 0.05859,0.33984375 0.08203,0.41015625 0.03516,0.0703125 0.08203,0.1171875 0.128906,0.1289062 0.05859,0.011719 0.117188,-0.011719 0.199219,-0.046875 0.0586,-0.0585937 0.117188,-0.1289062 0.175782,-0.2226562 0.05859,-0.10546875 0.08203,-0.19921875 0.08203,-0.26953125 -0.01172,-0.09375 -0.03516,-0.19921875 -0.105468,-0.3046875 -0.07031,-0.1171875 -0.164063,-0.2578125 -0.316407,-0.421875 -0.152343,-0.140625 -0.386718,-0.33984375 -0.703125,-0.55078125 z m 1.957031,-0.0117188 c 0.246094,0.26953125 0.421875,0.4453125 0.515625,0.5625 0.09375,0.10546875 0.175781,0.22265625 0.246094,0.3515625 0.07031,0.12890625 0.152344,0.29296875 0.222656,0.46875 l 0.128906,0.39843745 c 0.03516,0.1171875 0.07031,0.1875 0.117188,0.1992187 0.05859,0.046875 0.128906,0.046875 0.199219,0 0.07031,-0.035156 0.140625,-0.1289062 0.210937,-0.2460937 0.07031,-0.14062495 0.105469,-0.25781245 0.117188,-0.37499995 0,-0.09375 -0.02344,-0.1875 -0.08203,-0.3046875 C 18.904616,0.2705937 18.717111,0.1065312 18.412424,-0.13956255 18.096018,-0.3622188 17.732736,-0.5731563 17.32258,-0.77237505 Z m 0,0" style="fill:#000000;fill-opacity:1;fill-rule:nonzero;stroke:none" aria-label="绝热" transform="matrix(1.3333333,0,0,1.3333333,4.4266667,14.717333)"/>
    <path id="path10" d="M -3.04474,91.12569 9.25943,66.52014" style="fill:none;stroke:#000000;stroke-width:0.3985;stroke-linecap:butt;stroke-linejoin:miter;stroke-miterlimit:10;stroke-dasharray:none;stroke-opacity:1" transform="matrix(1.3333333,0,0,-1.3333333,27.16,142.79733)"/>
    <path id="path11" d="M 4.21463,0 0.64343,1.34572 1.8178,0 0.64343,-1.34572 Z" style="fill:#000000;fill-opacity:1;fill-rule:nonzero;stroke:#000000;stroke-width:0.3985;stroke-linecap:butt;stroke-linejoin:miter;stroke-miterlimit:10;stroke-dasharray:none;stroke-opacity:1" transform="matrix(0.59626667,1.19248,1.19248,-0.59626667,38.481387,52.054907)"/>
    <path id="path12" d="M -7.08713,91.12569 C -7.08711,72.997 -9.32275,60.55177 -1.46822,45.21538" style="fill:none;stroke:#000000;stroke-width:0.3985;stroke-linecap:butt;stroke-linejoin:miter;stroke-miterlimit:10;stroke-dasharray:none;stroke-opacity:1" transform="matrix(1.3333333,0,0,-1.3333333,27.16,142.79733)"/>
    <path id="path13" d="M 4.21463,0 0.64343,1.34572 1.8178,0 0.64343,-1.34572 Z" style="fill:#000000;fill-opacity:1;fill-rule:nonzero;stroke:#000000;stroke-width:0.3985;stroke-linecap:butt;stroke-linejoin:miter;stroke-miterlimit:10;stroke-dasharray:none;stroke-opacity:1" transform="matrix(0.63626667,1.1716267,1.1716267,-0.63626667,24.117293,80.500293)"/>
    <path id="path14" d="M 7.1362109,0.0011875 V -0.3035 H 6.9604297 c -0.5976563,0 -0.7382813,-0.0703125 -0.84375,-0.3984375 l -2.15625,-6.234375 c -0.046875,-0.1289063 -0.070312,-0.1992188 -0.2226563,-0.1992188 -0.1640625,0 -0.1875,0.058594 -0.2460937,0.1992188 l -2.0625,5.96484375 C 1.2533984,-0.4675625 0.85496094,-0.31521875 0.31589844,-0.3035 V 0.0011875 L 1.3354297,-0.03396875 2.4838672,0.0011875 V -0.3035 c -0.5039063,0 -0.75,-0.2578125 -0.75,-0.515625 0,-0.0234375 0.011719,-0.12890625 0.023437,-0.140625 l 0.4570312,-1.3125 h 2.4609375 l 0.5273438,1.5234375 c 0.011719,0.046875 0.023437,0.10546875 0.023437,0.140625 0,0.3046875 -0.5507813,0.3046875 -0.8203125,0.3046875 v 0.3046875 c 0.3515625,-0.03515625 1.0546875,-0.03515625 1.4296875,-0.03515625 z m -2.578125,-2.578125 H 2.3198047 l 1.1132812,-3.234375 z m 0,0" style="fill:#000000;fill-opacity:1;fill-rule:nonzero;stroke:none" aria-label="A" transform="matrix(1.3333333,0,0,1.3333333,59.973333,128.65467)"/>
    <path id="path15" d="m 6.4808984,-1.8295781 c 0,-0.8671875 -0.8085937,-1.6054688 -1.921875,-1.7226563 0.9726563,-0.1992187 1.6523438,-0.8320312 1.6523438,-1.5703125 0,-0.8671875 -0.9140625,-1.6875 -2.203125,-1.6875 H 0.36371094 v 0.3164063 h 0.234375 c 0.76171876,0 0.78515626,0.1054687 0.78515626,0.46875 v 5.24999997 c 0,0.3515625 -0.023437,0.46875 -0.78515626,0.46875 h -0.234375 v 0.3046875 H 4.2660547 c 1.3242187,0 2.2148437,-0.890625 2.2148437,-1.82812497 z M 5.2504297,-5.1225469 c 0,0.6328125 -0.4921875,1.4765625 -1.59375,1.4765625 H 2.2152734 v -2.4492187 c 0,-0.328125 0.011719,-0.3984375 0.4804688,-0.3984375 h 1.2421875 c 0.9609375,0 1.3125,0.84375 1.3125,1.3710937 z m 0.234375,3.2929688 c 0,0.703125 -0.515625,1.52343747 -1.5351563,1.52343747 H 2.6957422 c -0.46875,0 -0.4804688,-0.0703125 -0.4804688,-0.3984375 V -3.4233281 h 1.875 c 0.984375,0 1.3945313,0.9257812 1.3945313,1.59375 z m 0,0" style="fill:#000000;fill-opacity:1;fill-rule:nonzero;stroke:none" aria-label="B" transform="matrix(1.3333333,0,0,1.3333333,60.253333,85.916)"/>
  </g>
</svg>