<?xml version="1.0" encoding="UTF-8" standalone="no"?>
<!-- Created with Inkscape (http://www.inkscape.org/) -->

<svg
   version="1.1"
   id="svg1"
   width="246.58667"
   height="190.62666"
   viewBox="0 0 246.58667 190.62666"
   sodipodi:docname="24-25-2-计算机组成与系统结构-期末-题图8.pdf"
   xmlns:inkscape="http://www.inkscape.org/namespaces/inkscape"
   xmlns:sodipodi="http://sodipodi.sourceforge.net/DTD/sodipodi-0.dtd"
   xmlns="http://www.w3.org/2000/svg"
   xmlns:svg="http://www.w3.org/2000/svg">
  <defs
     id="defs1" />
  <sodipodi:namedview
     id="namedview1"
     pagecolor="#ffffff"
     bordercolor="#000000"
     borderopacity="0.25"
     inkscape:showpageshadow="2"
     inkscape:pageopacity="0.0"
     inkscape:pagecheckerboard="0"
     inkscape:deskcolor="#d1d1d1">
    <inkscape:page
       x="0"
       y="0"
       inkscape:label="1"
       id="page1"
       width="246.58667"
       height="190.62666"
       margin="0"
       bleed="0" />
  </sodipodi:namedview>
  <g
     id="g1"
     inkscape:groupmode="layer"
     inkscape:label="1">
    <path
       id="path1"
       d="m -35.4335,0 v 14.17317 h 70.867 V 0 Z"
       style="fill:none;stroke:#000000;stroke-width:0.3985;stroke-linecap:butt;stroke-linejoin:miter;stroke-miterlimit:10;stroke-dasharray:none;stroke-opacity:1"
       transform="matrix(1.3333333,0,0,-1.3333333,113.65067,20.282667)" />
    <g
       id="g2"
       aria-label="主存储器M"
       transform="matrix(1.3333333,0,0,1.3333333,78.781333,14.798667)">
      <path
         id="path2"
         d="M 4.6522813,1.0299062 H 0.92571875 L 0.44525,1.0181875 0.92571875,1.4400625 1.1249375,1.3463125 C 1.2304063,1.2994375 1.429625,1.2642812 1.7460313,1.2642812 h 7.6640625 c 0.082031,0 0.1289062,-0.011719 0.1289062,-0.035156 0.023437,-0.035156 0,-0.070312 -0.046875,-0.1289063 L 8.6718125,0.30334375 8.085875,1.0299062 h -2.8125 V -2.00525 h 3.1992188 c 0.058594,0 0.1054687,-0.011719 0.1171875,-0.023437 C 8.6015,-2.052125 8.5663438,-2.099 8.4843125,-2.1693125 l -0.7851562,-0.75 -0.4921875,0.6796875 H 5.273375 V -5.00525 h 3.8320313 c 0.046875,0 0.09375,-0.011719 0.09375,-0.023437 0.011719,-0.023437 -0.011719,-0.070312 -0.09375,-0.140625 L 8.273375,-5.94275 7.7343125,-5.2279063 H 1.5819688 l -0.515625,-0.023437 0.4921875,0.4335938 c 0.1992187,-0.09375 0.3164062,-0.1523438 0.375,-0.1640625 0.070312,-0.011719 0.1640625,-0.023437 0.28125,-0.023437 h 2.4375 v 2.765625 H 1.992125 l -0.5390625,-0.023437 0.4335938,0.4335937 0.1640625,-0.070312 C 2.1679063,-1.9700938 2.4022813,-2.00525 2.742125,-2.00525 H 4.6522813 Z M 3.9374375,-7.489625 c 0.1875,0.1523437 0.3515625,0.3164062 0.4453125,0.4804687 0.1171875,0.140625 0.2226563,0.328125 0.3046875,0.5507813 0.082031,0.2226562 0.140625,0.3867187 0.1757813,0.5039062 0.023437,0.1054688 0.058594,0.1992188 0.082031,0.234375 0.035156,0.058594 0.082031,0.09375 0.140625,0.1054688 0.058594,0.011719 0.1757813,-0.070312 0.328125,-0.2460938 0.140625,-0.1640625 0.1992188,-0.328125 0.1992188,-0.4804687 C 5.6015,-6.4818125 5.554625,-6.6107188 5.4960313,-6.7161875 5.4257188,-6.8216563 5.2850938,-6.9388438 5.0624375,-7.0794688 4.8515,-7.208375 4.4999375,-7.3841563 4.0194688,-7.6068125 Z m 8.3466795,3.796875 c -0.632812,0.9492187 -1.371094,1.8632812 -2.203125,2.77734375 l 0.09375,0.0820313 0.820313,-0.73828135 c 0.140625,-0.1289062 0.5625,-0.5625 1.253906,-1.3242187 v 3.39843755 l -0.05859,1.27734365 c 0.07031,-0.011719 0.1875,-0.046875 0.328125,-0.1054687 0.152344,-0.070312 0.269531,-0.1289063 0.363281,-0.1757813 L 12.846617,0.5963125 V -3.69275 c 0.386719,-0.5507813 0.65625,-0.9726563 0.808594,-1.2539063 0.164062,-0.2695312 0.363281,-0.6210937 0.597656,-1.0546875 h 5.179688 c 0.05859,0 0.09375,-0.011719 0.117187,-0.011719 0,-0.023437 -0.03516,-0.070312 -0.105469,-0.140625 l -0.75,-0.7148438 L 18.120055,-6.224 h -3.75 l 0.363281,-0.7148438 0.28125,-0.1171875 c 0.09375,-0.035156 0.140625,-0.070312 0.152344,-0.082031 0.01172,-0.023437 -0.04687,-0.070312 -0.140625,-0.1289063 l -0.890625,-0.4804687 -0.04687,0.2929687 c -0.01172,0.070312 -0.05859,0.2226563 -0.140625,0.4804688 -0.08203,0.234375 -0.128907,0.3984375 -0.164063,0.46875 -0.02344,0.070312 -0.07031,0.1640625 -0.117187,0.28125 h -2.449219 l -0.855469,-0.023437 0.386719,0.3867187 c 0.246094,-0.082031 0.515625,-0.140625 0.820312,-0.140625 h 1.992188 c -0.140625,0.3515625 -0.269531,0.6445313 -0.410156,0.8789063 -0.117188,0.2226562 -0.257813,0.4335937 -0.386719,0.6445312 l -0.515625,-0.2578125 0.03516,0.7382813 z m 0.820313,1.640625 0.410156,0.421875 c 0.246094,-0.1171875 0.515625,-0.1757813 0.796875,-0.1757813 h 1.816406 v 2.4492188 c 0,0.09375 -0.02344,0.15234375 -0.07031,0.19921875 -0.03516,0.0585938 -0.128907,0.0703125 -0.269532,0.0703125 -0.140625,0.0117188 -0.550781,-0.0234375 -1.242187,-0.09375 l -0.03516,0.10546875 0.421875,0.1289062 c 0.292968,0.09375 0.480468,0.1757813 0.5625,0.2578125 0.08203,0.082031 0.128906,0.1640625 0.164062,0.2226563 0.02344,0.082031 0.05859,0.1640625 0.09375,0.2929687 0.503906,-0.1054687 0.808594,-0.2226562 0.878906,-0.375 0.07031,-0.140625 0.105469,-0.2929687 0.105469,-0.4453125 v -2.8125 h 2.929688 c 0.05859,0 0.09375,-0.011719 0.09375,-0.023437 0.02344,0 0,-0.058594 -0.07031,-0.1289062 l -0.65625,-0.6679688 -0.480469,0.5976563 h -1.816406 v -0.6679688 l 0.234375,-0.140625 c 0.07031,-0.046875 0.105469,-0.070312 0.105469,-0.1171875 0.01172,-0.011719 -0.04687,-0.058594 -0.175781,-0.09375 L 16.538023,-3.1536875 17.147398,-3.599 c 0.492188,-0.3515625 0.75,-0.5507813 0.808594,-0.5625 0.05859,-0.035156 0.152344,-0.082031 0.316406,-0.1523438 L 18.577086,-4.349 c 0.128906,0 0.1875,-0.023437 0.210937,-0.058594 0,-0.023437 -0.03516,-0.082031 -0.140625,-0.1757812 l -0.65625,-0.5859375 -0.480468,0.4804687 h -2.730469 l -0.914063,-0.011719 0.375,0.4101562 c 0.164063,-0.058594 0.28125,-0.1054687 0.386719,-0.1289062 0.08203,-0.011719 0.199219,-0.023437 0.328125,-0.023437 h 2.542969 l -0.351563,0.4101562 c -0.03516,0.023437 -0.152343,0.1523438 -0.363281,0.3632813 -0.210937,0.2226562 -0.351562,0.375 -0.421875,0.4453125 l -0.292969,-0.09375 0.05859,0.890625 v 0.3984375 h -2.015625 z m 7.183593,-0.6679688 0.105469,0.046875 c 0.375,-0.4921875 0.632813,-0.84375 0.761719,-1.03125 0.128906,-0.1992187 0.269531,-0.4570312 0.46875,-0.7851562 v 4.46484375 L 21.577086,1.4400625 C 21.72943,1.4049062 21.91693,1.3111562 22.163023,1.1705312 L 22.139586,0.4088125 V -4.44275 l 0.152344,-0.1523438 0.117187,-0.09375 -0.08203,-0.046875 -0.433594,-0.28125 0.363281,-0.7382812 c 0.08203,-0.1523438 0.257813,-0.5507813 0.550782,-1.1953125 l 0.222656,-0.1289063 c 0.07031,-0.035156 0.117187,-0.058594 0.128906,-0.09375 0.01172,-0.023437 -0.02344,-0.058594 -0.128906,-0.1171875 L 22.432555,-7.6536875 22.280211,-7.724 l -0.03516,0.1992187 -0.105469,0.4921875 c -0.03516,0.1289063 -0.117188,0.421875 -0.257813,0.8789063 -0.140625,0.46875 -0.351562,0.9960937 -0.632812,1.59375 -0.28125,0.5859375 -0.597656,1.2070312 -0.960938,1.8398437 z m 2.003907,-1.2421875 0.328125,0.3398438 0.09375,-0.046875 c 0.05859,-0.035156 0.222656,-0.058594 0.480468,-0.058594 h 0.199219 V -0.599 c 0,0.10546875 -0.01172,0.19921875 -0.02344,0.26953125 -0.02344,0.0703125 -0.03516,0.1171875 -0.08203,0.15234375 -0.01172,0.0234375 -0.09375,0.08203125 -0.210937,0.15234375 l 0.5625,0.57421875 c 0.128906,-0.1875 0.234375,-0.33984375 0.339844,-0.4453125 0.09375,-0.10546875 0.222656,-0.22265625 0.351562,-0.36328125 0.128906,-0.12890625 0.421875,-0.4453125 0.878906,-0.90234375 l -0.03516,-0.1289063 c -0.46875,0.32812505 -0.902344,0.63281255 -1.289062,0.9023438 v -3.234375 l 0.234375,-0.1875 c 0.04687,-0.035156 0.08203,-0.058594 0.08203,-0.082031 0,0 -0.02344,-0.023437 -0.05859,-0.058594 l -0.585937,-0.4101563 -0.304688,0.4101563 h -0.46875 z m 0.890625,-2.6015625 c 0.140625,0.1523438 0.234375,0.28125 0.304687,0.3867188 0.07031,0.1054687 0.128906,0.234375 0.1875,0.3984375 0.07031,0.1640625 0.105469,0.2929687 0.117188,0.4335937 0.02344,0.1289063 0.04687,0.1992188 0.08203,0.2460938 0.117187,0.1054687 0.199219,0.09375 0.292969,-0.023437 0.08203,-0.1054688 0.128906,-0.1992188 0.164062,-0.2460938 0.04687,-0.1171875 0.07031,-0.1992187 0.05859,-0.2695312 -0.01172,-0.058594 -0.04687,-0.1171875 -0.08203,-0.1992188 -0.03516,-0.058594 -0.164063,-0.1875 -0.410157,-0.3632812 -0.234375,-0.1640625 -0.445312,-0.3164063 -0.632812,-0.4335938 z m 2.34375,3.5507813 0.01172,0.3164062 v 0.070312 l -0.433593,0.3984375 c -0.08203,0.070312 -0.421875,0.328125 -1.03125,0.7734375 l 0.07031,0.1171875 c 0.398438,-0.234375 0.867188,-0.5390625 1.394531,-0.9023437 V 0.44396875 L 25.502867,1.55725 c 0.199219,-0.035156 0.316406,-0.058594 0.375,-0.09375 0.04687,-0.035156 0.105469,-0.058594 0.152344,-0.1054688 V 0.61975 h 2.085937 v 0.8085937 c 0.03516,0 0.117188,-0.023437 0.257813,-0.058594 0.117187,-0.035156 0.199219,-0.070312 0.222656,-0.070312 0.02344,-0.011719 0.05859,-0.046875 0.09375,-0.070312 L 28.655211,0.30334375 V -2.2982188 l 0.222656,-0.1992187 c 0.08203,-0.070312 0.117188,-0.1289063 0.117188,-0.1289063 0,-0.023437 -0.04687,-0.070312 -0.117188,-0.1171875 l -0.5625,-0.3984375 -0.339844,0.4453125 h -1.886718 c 0.375,-0.3632812 0.773437,-0.7734375 1.207031,-1.21875 h 2.097656 c 0.128906,0 0.199219,-0.011719 0.199219,-0.035156 0,0 -0.02344,-0.035156 -0.07031,-0.082031 l -0.597656,-0.6679687 -0.503906,0.5507812 h -0.914063 l 1.03125,-1.3828125 c 0.03516,-0.023437 0.164063,-0.2109375 0.386719,-0.5742187 l 0.257813,-0.082031 c 0.08203,-0.023437 0.128906,-0.058594 0.128906,-0.070312 0,-0.023437 -0.03516,-0.046875 -0.08203,-0.09375 l -0.5625,-0.4570312 c -0.04687,-0.035156 -0.08203,-0.058594 -0.105469,-0.046875 l -0.07031,0.1757812 -0.09375,0.2460938 c -0.140625,0.2929687 -0.28125,0.5625 -0.457031,0.8320312 -0.164062,0.28125 -0.503906,0.7734375 -1.007812,1.453125 H 26.66303 v -1.40625 h 1.054688 c 0.08203,0 0.117187,-0.011719 0.117187,-0.035156 0.01172,-0.023437 -0.02344,-0.058594 -0.07031,-0.1171875 L 27.26068,-6.224 26.862242,-5.7786875 h -0.199219 v -1.2773438 l 0.269532,-0.2226562 c 0.07031,-0.058594 0.09375,-0.09375 0.08203,-0.1054688 0,-0.011719 -0.03516,-0.035156 -0.105469,-0.070312 l -0.820312,-0.328125 0.04687,0.84375 v 1.1601563 h -0.75 l -0.644532,-0.023437 0.363282,0.3984375 c 0.164062,-0.070312 0.304687,-0.1171875 0.375,-0.140625 0.08203,0 0.1875,-0.011719 0.328125,-0.011719 h 0.328125 v 1.40625 h -0.925782 l -0.738281,-0.011719 0.386719,0.3867187 c 0.175781,-0.09375 0.421875,-0.140625 0.75,-0.140625 h 1.125 l -0.410156,0.4921875 c -0.05859,0.070312 -0.234375,0.2695313 -0.515625,0.5507813 z m 0.503906,3.421875 v -1.359375 h 2.085937 v 1.359375 z m 0,-1.5703125 v -1.3242188 h 2.085937 V -1.1615 Z m 7.291992,-2.1914063 -0.28125,0.3164063 c -0.246094,0.28125 -0.644531,0.6328125 -1.195312,1.03125 -0.539063,0.3984375 -1.136719,0.7382812 -1.769532,1.03125 l 0.02344,0.140625 c 0.351562,-0.10546875 0.621094,-0.1992188 0.820312,-0.28125 0.199219,-0.09375 0.433594,-0.1875 0.679688,-0.3164063 V 0.760375 l -0.04687,0.9257812 0.328125,-0.1171875 c 0.08203,-0.011719 0.117187,-0.011719 0.140625,-0.035156 0.02344,0 0.07031,-0.035156 0.117187,-0.070312 V 0.7369375 h 1.464844 v 0.7148437 c 0.222656,-0.046875 0.351563,-0.082031 0.386719,-0.09375 0.04687,0 0.117187,-0.035156 0.222656,-0.070312 L 34.165953,0.526 l -0.01172,-1.7695313 0.210938,-0.1875 c 0.04687,-0.046875 0.07031,-0.070312 0.07031,-0.082031 0,-0.023437 -0.04687,-0.058594 -0.128906,-0.1171875 l -0.527344,-0.3632813 -0.304687,0.4101563 -1.265625,-0.011719 -0.140625,-0.082031 0.246094,-0.1757813 0.492187,-0.328125 c 0.339844,-0.2578125 0.75,-0.65625 1.21875,-1.1835937 l 1.757813,0.011719 0.421875,0.5507813 c 0.03516,0.058594 0.164062,0.1757812 0.375,0.375 0.210937,0.1757812 0.527343,0.3867187 0.9375,0.6328125 l -0.175779,0.164062 h -1.3125 l -0.644531,-0.3398438 0.04687,0.9375 v 1.61718755 l -0.04687,1.04296875 c 0.269531,-0.070312 0.445313,-0.140625 0.550781,-0.234375 v -0.65625 h 1.546875 V 1.416625 l 0.08203,-0.046875 0.234375,-0.070312 c 0.07031,-0.035156 0.164062,-0.070312 0.269531,-0.140625 l -0.04687,-0.703125 v -1.664063 l 0.117187,-0.09375 c 0.02344,-0.023437 0.04687,-0.046875 0.05859,-0.058594 0.01172,-0.023437 -0.03516,-0.070312 -0.105469,-0.1171875 0.117188,0.046875 0.339844,0.140625 0.703125,0.2929688 0.09375,-0.1757813 0.164063,-0.2929688 0.222657,-0.328125 L 39.263609,-1.63025 c 0.09375,-0.046875 0.199219,-0.070312 0.292969,-0.070312 l 0.02344,-0.1289063 c -0.667969,-0.070312 -1.300782,-0.2109375 -1.898438,-0.4453125 -0.609375,-0.234375 -1.007812,-0.4453125 -1.195312,-0.6210937 -0.1875,-0.1757813 -0.351563,-0.328125 -0.457032,-0.4570313 h 3.128907 c 0.09375,0 0.128906,-0.011719 0.152343,-0.046875 0,-0.023437 -0.02344,-0.070312 -0.08203,-0.1171875 L 38.4433,-4.2083745 37.97455,-3.5872808 h -0.996094 c 0.117188,-0.1640625 0.1875,-0.3046875 0.1875,-0.4335937 0,-0.082031 -0.04687,-0.1875 -0.140625,-0.328125 -0.08203,-0.1171875 -0.433594,-0.2460938 -1.054687,-0.3632813 l -0.07031,0.09375 c 0.210938,0.1757813 0.375,0.3164063 0.480469,0.4453125 0.117187,0.1289063 0.222656,0.3164063 0.328125,0.5859375 h -2.496094 l 0.304688,-0.421875 0.28125,-0.3515625 c 0.03516,-0.058594 0.09375,-0.1289062 0.175781,-0.2226562 l 0.257812,-0.058594 c 0.08203,-0.011719 0.128907,-0.035156 0.140625,-0.046875 0,-0.023437 -0.04687,-0.058594 -0.140625,-0.1171875 l -0.738281,-0.46875 -0.128906,0.328125 c -0.03516,0.1054688 -0.128906,0.28125 -0.316406,0.5625 -0.152344,0.2578125 -0.339844,0.5273438 -0.539063,0.796875 h -2.601562 l -0.738282,-0.035156 0.339844,0.421875 c 0.246094,-0.1054688 0.585938,-0.1523438 0.996094,-0.1523438 z M 32.138609,0.526 v -1.8867188 h 1.464844 V 0.526 Z m 3.796875,-0.0234375 v -1.9101563 h 1.546875 V 0.5025625 Z M 31.529234,-7.349 l 0.04687,0.7382812 v 1.5351563 l -0.04687,0.75 0.152344,-0.035156 0.175781,-0.058594 c 0.08203,-0.035156 0.164063,-0.070312 0.246094,-0.140625 v -0.5507813 h 1.5 v 0.4921875 c 0.292969,-0.070312 0.503906,-0.140625 0.609375,-0.2109375 l -0.04687,-0.65625 v -1.1484375 l 0.210938,-0.2109375 c 0.05859,-0.035156 0.08203,-0.058594 0.08203,-0.09375 l -0.117188,-0.082031 -0.527343,-0.4101563 -0.304688,0.4335938 h -1.347656 z m 0.574219,2.0039062 v -1.4179687 h 1.5 v 1.4179687 z m 3.515625,-2.0625 0.04687,0.6914063 v 1.3125 l -0.04687,0.7148437 c 0.1875,-0.058594 0.375,-0.1289062 0.550781,-0.2109375 v -0.2109375 h 1.640625 v 0.421875 c 0.292969,-0.1054687 0.457032,-0.1640625 0.480469,-0.1757812 0.03516,-0.011719 0.07031,-0.023437 0.09375,-0.058594 l -0.04687,-0.644531 v -1.1132813 l 0.222656,-0.1875 c 0.05859,-0.035156 0.08203,-0.070312 0.07031,-0.09375 0,-0.035156 -0.03516,-0.070312 -0.117188,-0.1289062 l -0.539062,-0.3632813 -0.292969,0.4453125 -1.347656,-0.011719 z m 0.550781,2.0625 v -1.453125 h 1.640625 v 1.453125 z m 0,0"
         style="fill:#000000;fill-opacity:1;fill-rule:nonzero;stroke:none" />
      <path
         id="path3"
         d="m 51.922789,-0.00134375 v -0.3046875 h -0.234375 c -0.773437,0 -0.785156,-0.1171875 -0.785156,-0.46875 V -6.0247813 c 0,-0.3632812 0.01172,-0.46875 0.785156,-0.46875 h 0.234375 v -0.3164062 h -1.675781 c -0.269531,0 -0.269531,0.011719 -0.339844,0.1992187 l -2.179687,5.6015625 -2.15625,-5.578125 c -0.09375,-0.2226562 -0.117188,-0.2226562 -0.351563,-0.2226562 h -1.6875 v 0.3164062 h 0.246094 c 0.761719,0 0.785156,0.1054688 0.785156,0.46875 v 4.9804688 c 0,0.26953125 0,0.73828125 -1.03125,0.73828125 v 0.3046875 L 44.704039,-0.0365 l 1.160156,0.03515625 v -0.3046875 c -1.019531,0 -1.019531,-0.46875 -1.019531,-0.73828125 V -6.4115 h 0.01172 l 2.402344,6.1875 c 0.04687,0.12890625 0.09375,0.22265625 0.199218,0.22265625 0.105469,0 0.128907,-0.08203125 0.175782,-0.1875 l 2.449218,-6.30468755 h 0.01172 v 5.71875005 c 0,0.3515625 -0.02344,0.46875 -0.785156,0.46875 h -0.246094 v 0.3046875 C 49.438414,-0.0365 50.106383,-0.0365 50.50482,-0.0365 c 0.386719,0 1.054688,0 1.417969,0.03515625 z m 0,0"
         style="fill:#000000;fill-opacity:1;fill-rule:nonzero;stroke:none" />
    </g>
    <path
       id="path4"
       d="m -35.4335,-35.4335 v 14.17319 h 21.26033 V -35.4335 Z"
       style="fill:none;stroke:#000000;stroke-width:0.3985;stroke-linecap:butt;stroke-linejoin:miter;stroke-miterlimit:10;stroke-dasharray:none;stroke-opacity:1"
       transform="matrix(1.3333333,0,0,-1.3333333,113.65067,20.282667)" />
    <path
       id="path5"
       d="M 4.8167656,-0.89027344 V -1.4410547 H 4.5589531 v 0.55078126 c 0,0.5859375 -0.2460937,0.64453125 -0.3515625,0.64453125 -0.328125,0 -0.375,-0.45703125 -0.375,-0.50390625 V -2.7418359 c 0,-0.4101563 0,-0.8085938 -0.3515625,-1.171875 -0.3867187,-0.3867188 -0.890625,-0.5507813 -1.3710937,-0.5507813 -0.8085938,0 -1.50000002,0.46875 -1.50000002,1.125 0,0.3046875 0.19921875,0.46875 0.45703122,0.46875 0.28125,0 0.4570313,-0.1992187 0.4570313,-0.4570312 0,-0.1171875 -0.046875,-0.4453125 -0.5039063,-0.4570313 0.2695313,-0.3515625 0.75,-0.4570312 1.078125,-0.4570312 0.4804688,0 1.0546875,0.3867187 1.0546875,1.2773437 v 0.3632813 c -0.515625,0.035156 -1.2070312,0.058594 -1.8398437,0.3632812 -0.75000002,0.3398438 -0.99609377,0.8554688 -0.99609377,1.28906251 0,0.80859375 0.97265627,1.0546875 1.59374997,1.0546875 0.65625,0 1.1132813,-0.3984375 1.3125,-0.8671875 0.035156,0.3984375 0.3046875,0.8203125 0.7734375,0.8203125 0.2109375,0 0.8203125,-0.140625 0.8203125,-0.94921875 z M 3.1527031,-1.3941797 c 0,0.94921876 -0.7265625,1.28906251 -1.171875,1.28906251 -0.4804687,0 -0.890625,-0.3515625 -0.890625,-0.85546875 0,-0.53906246 0.4101563,-1.37109376 2.0625,-1.42968746 z m 0,0"
       style="fill:#000000;fill-opacity:1;fill-rule:nonzero;stroke:none"
       aria-label="a"
       transform="matrix(1.3333333,0,0,1.3333333,77.257333,60.98)" />
    <path
       id="path6"
       d="m 35.4335,-35.4335 v 14.17319 H 14.17317 V -35.4335 Z"
       style="fill:none;stroke:#000000;stroke-width:0.3985;stroke-linecap:butt;stroke-linejoin:miter;stroke-miterlimit:10;stroke-dasharray:none;stroke-opacity:1"
       transform="matrix(1.3333333,0,0,-1.3333333,113.65067,20.282667)" />
    <path
       id="path7"
       d="m 4.1367969,-1.1832422 c 0,-0.1054687 -0.1054688,-0.1054687 -0.1289063,-0.1054687 -0.09375,0 -0.1171875,0.046875 -0.1289062,0.1054687 -0.2929688,0.92578126 -0.9375,1.04296876 -1.3125,1.04296876 -0.5273438,0 -1.40625,-0.421875 -1.40625,-2.02734376 0,-1.6289062 0.8203125,-2.0507812 1.3476562,-2.0507812 0.09375,0 0.7148438,0.011719 1.0664063,0.375 -0.4101563,0.023437 -0.46875,0.328125 -0.46875,0.4570312 0,0.2578125 0.1875,0.4570313 0.4570312,0.4570313 0.2578125,0 0.4570313,-0.1640625 0.4570313,-0.46875 0,-0.6796875 -0.75,-1.0664063 -1.5234375,-1.0664063 -1.2421875,0 -2.15625002,1.078125 -2.15625002,2.3085938 0,1.27734371 0.98437502,2.26171871 2.14453122,2.26171871 1.3359375,0 1.6523438,-1.19531251 1.6523438,-1.28906251 z m 0,0"
       style="fill:#000000;fill-opacity:1;fill-rule:nonzero;stroke:none"
       aria-label="c"
       transform="matrix(1.3333333,0,0,1.3333333,143.77333,60.98)" />
    <path
       id="path8"
       d="m 63.77989,-35.4335 v 14.17319 H 85.04022 V -35.4335 Z"
       style="fill:none;stroke:#000000;stroke-width:0.3985;stroke-linecap:butt;stroke-linejoin:miter;stroke-miterlimit:10;stroke-dasharray:none;stroke-opacity:1"
       transform="matrix(1.3333333,0,0,-1.3333333,113.65067,20.282667)" />
    <path
       id="path9"
       d="m 5.1913125,-2.1572891 c 0,-1.265625 -0.9726562,-2.25 -2.109375,-2.25 -0.7851562,0 -1.2070312,0.46875 -1.3710937,0.65625 v -3.1640625 l -1.42968755,0.1054688 v 0.3164062 c 0.69140625,0 0.77343755,0.070312 0.77343755,0.5507813 v 5.94140624 h 0.2460937 l 0.3632813,-0.62109375 c 0.1523437,0.234375 0.5625,0.7265625 1.3007812,0.7265625 1.1835938,0 2.2265625,-0.97265625 2.2265625,-2.26171879 z m -0.8320312,0 c 0,0.3632813 -0.011719,0.9609375 -0.3046875,1.40625004 -0.2109375,0.31640625 -0.5859375,0.64453125 -1.125,0.64453125 -0.4453125,0 -0.8085938,-0.24609375 -1.0429688,-0.609375 C 1.746,-0.92682031 1.746,-0.96197656 1.746,-1.1377578 v -2.0507813 c 0,-0.1875 0,-0.1992187 0.1054688,-0.3632812 0.3867187,-0.5507813 0.9375,-0.6328125 1.171875,-0.6328125 0.4570312,0 0.8085937,0.2578125 1.0546875,0.6328125 0.2578125,0.4101562 0.28125,0.984375 0.28125,1.3945312 z m 0,0"
       style="fill:#000000;fill-opacity:1;fill-rule:nonzero;stroke:none"
       aria-label="b"
       transform="matrix(1.3333333,0,0,1.3333333,209.172,62.614667)" />
    <path
       id="path10"
       d="M -28.34637,-0.3985 V -21.26031"
       style="fill:none;stroke:#000000;stroke-width:0.3985;stroke-linecap:butt;stroke-linejoin:miter;stroke-miterlimit:10;stroke-dasharray:none;stroke-opacity:1"
       transform="matrix(1.3333333,0,0,-1.3333333,113.65067,20.282667)" />
    <path
       id="path11"
       d="M -2.07224,2.39104 C -1.69365,0.95639 -0.84999,0.27895 0,0 -0.84999,-0.27895 -1.69365,-0.95639 -2.07224,-2.39104"
       style="fill:none;stroke:#000000;stroke-width:0.3985;stroke-linecap:round;stroke-linejoin:round;stroke-miterlimit:10;stroke-dasharray:none;stroke-opacity:1"
       transform="matrix(0,-1.3333333,-1.3333333,0,75.855507,20.548333)" />
    <path
       id="path12"
       d="M -21.26031,0 V -20.8618"
       style="fill:none;stroke:#000000;stroke-width:0.3985;stroke-linecap:butt;stroke-linejoin:miter;stroke-miterlimit:10;stroke-dasharray:none;stroke-opacity:1"
       transform="matrix(1.3333333,0,0,-1.3333333,113.65067,20.282667)" />
    <path
       id="path13"
       d="M -2.07224,2.39104 C -1.69365,0.95639 -0.84999,0.27895 0,0 -0.84999,-0.27895 -1.69365,-0.95639 -2.07224,-2.39104"
       style="fill:none;stroke:#000000;stroke-width:0.3985;stroke-linecap:round;stroke-linejoin:round;stroke-miterlimit:10;stroke-dasharray:none;stroke-opacity:1"
       transform="matrix(0,1.3333333,1.3333333,0,85.303587,48.364067)" />
    <path
       id="path14"
       d="M -21.26031,-14.17317 H 74.41061 V -20.8618"
       style="fill:none;stroke:#000000;stroke-width:0.3985;stroke-linecap:butt;stroke-linejoin:miter;stroke-miterlimit:10;stroke-dasharray:none;stroke-opacity:1"
       transform="matrix(1.3333333,0,0,-1.3333333,113.65067,20.282667)" />
    <path
       id="path15"
       d="M -2.07224,2.39104 C -1.69365,0.95639 -0.84999,0.27895 0,0 -0.84999,-0.27895 -1.69365,-0.95639 -2.07224,-2.39104"
       style="fill:none;stroke:#000000;stroke-width:0.3985;stroke-linecap:round;stroke-linejoin:round;stroke-miterlimit:10;stroke-dasharray:none;stroke-opacity:1"
       transform="matrix(0,1.3333333,1.3333333,0,212.86481,48.364067)" />
    <path
       id="path16"
       d="M 24.8039,-0.3985 V -21.26031"
       style="fill:none;stroke:#000000;stroke-width:0.3985;stroke-linecap:butt;stroke-linejoin:miter;stroke-miterlimit:10;stroke-dasharray:none;stroke-opacity:1"
       transform="matrix(1.3333333,0,0,-1.3333333,113.65067,20.282667)" />
    <path
       id="path17"
       d="M -2.07224,2.39104 C -1.69365,0.95639 -0.84999,0.27895 0,0 -0.84999,-0.27895 -1.69365,-0.95639 -2.07224,-2.39104"
       style="fill:none;stroke:#000000;stroke-width:0.3985;stroke-linecap:round;stroke-linejoin:round;stroke-miterlimit:10;stroke-dasharray:none;stroke-opacity:1"
       transform="matrix(0,-1.3333333,-1.3333333,0,146.72253,20.548333)" />
    <path
       id="path18"
       d="M 35.4335,-56.69385 V -70.86703 H 14.17317 v 14.17318 z"
       style="fill:none;stroke:#000000;stroke-width:0.3985;stroke-linecap:butt;stroke-linejoin:miter;stroke-miterlimit:10;stroke-dasharray:none;stroke-opacity:1"
       transform="matrix(1.3333333,0,0,-1.3333333,113.65067,20.282667)" />
    <path
       id="path19"
       d="m 5.2514375,5.3125e-4 v -0.3046875 c -0.703125,0 -0.7734375,-0.0703125 -0.7734375,-0.5625 V -6.9135313 l -1.4414063,0.1054688 v 0.3164062 c 0.703125,0 0.7851563,0.070312 0.7851563,0.5507813 v 2.15625 C 3.5287812,-4.1479063 3.0951875,-4.4057188 2.556125,-4.4057188 c -1.171875,0 -2.21484375,0.984375 -2.21484375,2.2617188 0,1.265625 0.97265625,2.25 2.10937495,2.25 0.6445313,0 1.0898438,-0.33984375 1.3359375,-0.65625 V 0.106 Z M 3.7865937,-1.1713438 c 0,0.1757813 0,0.1992188 -0.1054687,0.3632813 -0.3046875,0.48046875 -0.75,0.703125 -1.1835938,0.703125 -0.4453125,0 -0.796875,-0.2578125 -1.0429687,-0.64453125 C 1.19675,-1.159625 1.1615937,-1.722125 1.1615937,-2.1322813 c 0,-0.3632812 0.023437,-0.9609375 0.3164063,-1.4179687 0.2109375,-0.3046875 0.5859375,-0.6328125 1.125,-0.6328125 0.3515625,0 0.7617187,0.1523437 1.078125,0.5976562 0.1054687,0.1640625 0.1054687,0.1875 0.1054687,0.3632813 z m 0,0"
       style="fill:#000000;fill-opacity:1;fill-rule:nonzero;stroke:none"
       aria-label="d"
       transform="matrix(1.3333333,0,0,1.3333333,143.02933,109.85867)" />
    <path
       id="path20"
       d="m 24.8039,-56.69385 v 20.86182"
       style="fill:none;stroke:#000000;stroke-width:0.3985;stroke-linecap:butt;stroke-linejoin:miter;stroke-miterlimit:10;stroke-dasharray:none;stroke-opacity:1"
       transform="matrix(1.3333333,0,0,-1.3333333,113.65067,20.282667)" />
    <path
       id="path21"
       d="M -2.07224,2.39104 C -1.69365,0.95639 -0.84999,0.27895 0,0 -0.84999,-0.27895 -1.69365,-0.95639 -2.07224,-2.39104"
       style="fill:none;stroke:#000000;stroke-width:0.3985;stroke-linecap:round;stroke-linejoin:round;stroke-miterlimit:10;stroke-dasharray:none;stroke-opacity:1"
       transform="matrix(0,-1.3333333,-1.3333333,0,146.72253,67.79304)" />
    <path
       id="path22"
       d="M -31.88994,-35.83202 V -77.55565"
       style="fill:none;stroke:#000000;stroke-width:0.3985;stroke-linecap:butt;stroke-linejoin:miter;stroke-miterlimit:10;stroke-dasharray:none;stroke-opacity:1"
       transform="matrix(1.3333333,0,0,-1.3333333,113.65067,20.282667)" />
    <path
       id="path23"
       d="M -2.07224,2.39104 C -1.69365,0.95639 -0.84999,0.27895 0,0 -0.84999,-0.27895 -1.69365,-0.95639 -2.07224,-2.39104"
       style="fill:none;stroke:#000000;stroke-width:0.3985;stroke-linecap:round;stroke-linejoin:round;stroke-miterlimit:10;stroke-dasharray:none;stroke-opacity:1"
       transform="matrix(0,-1.3333333,-1.3333333,0,71.130747,67.793027)" />
    <path
       id="path24"
       d="M -2.07224,2.39104 C -1.69365,0.95639 -0.84999,0.27895 0,0 -0.84999,-0.27895 -1.69365,-0.95639 -2.07224,-2.39104"
       style="fill:none;stroke:#000000;stroke-width:0.3985;stroke-linecap:round;stroke-linejoin:round;stroke-miterlimit:10;stroke-dasharray:none;stroke-opacity:1"
       transform="matrix(0,1.3333333,1.3333333,0,71.130747,123.95587)" />
    <path
       id="path25"
       d="M -17.71674,-35.4335 V -77.55565"
       style="fill:none;stroke:#000000;stroke-width:0.3985;stroke-linecap:butt;stroke-linejoin:miter;stroke-miterlimit:10;stroke-dasharray:none;stroke-opacity:1"
       transform="matrix(1.3333333,0,0,-1.3333333,113.65067,20.282667)" />
    <path
       id="path26"
       d="M -2.07224,2.39104 C -1.69365,0.95639 -0.84999,0.27895 0,0 -0.84999,-0.27895 -1.69365,-0.95639 -2.07224,-2.39104"
       style="fill:none;stroke:#000000;stroke-width:0.3985;stroke-linecap:round;stroke-linejoin:round;stroke-miterlimit:10;stroke-dasharray:none;stroke-opacity:1"
       transform="matrix(0,1.3333333,1.3333333,0,90.028347,123.95587)" />
    <path
       id="path27"
       d="m -31.88994,-77.95418 7.08604,-7.08604 7.08716,7.08604 h 14.17318 l -14.17318,-14.17317 h -14.1732 l -14.17319,14.17317 z"
       style="fill:none;stroke:#000000;stroke-width:0.3985;stroke-linecap:butt;stroke-linejoin:miter;stroke-miterlimit:10;stroke-dasharray:none;stroke-opacity:1"
       transform="matrix(1.3333333,0,0,-1.3333333,113.65067,20.282667)" />
    <path
       id="path28"
       d="M 4.5239531,4.140625e-4 V -0.22224219 H 4.3950469 c -0.3046875,0 -0.375,-0.0234375 -0.4453125,-0.1640625 L 2.6137969,-3.4331797 c -0.035156,-0.09375 -0.058594,-0.1289062 -0.1757813,-0.1289062 -0.082031,0 -0.1289062,0.011719 -0.1757812,0.1171875 l -1.27734378,2.92968746 c -0.1171875,0.24609375 -0.38671875,0.29296875 -0.6328125,0.29296875 V 4.140625e-4 c 0.1875,-0.0117187525 0.3984375,-0.0234375025 0.57421875,-0.0234375025 0.0703125,0 0.42187503,0.01171875 0.65625003,0.0234375025 V -0.22224219 c -0.28125,0 -0.3867188,-0.1171875 -0.3867188,-0.2109375 0,-0.0351563 0.011719,-0.046875 0.035156,-0.09375 L 1.4887969,-1.1128672 h 1.59375 l 0.3046875,0.70312501 c 0.035156,0.0585938 0.035156,0.0703125 0.035156,0.0703125 0,0.1171875 -0.2929687,0.1171875 -0.4335937,0.1171875 V 4.140625e-4 L 3.7973906,-0.02302344 Z M 2.9887969,-1.3238047 h -1.40625 l 0.703125,-1.6054687 z m 5.6367187,-0.023437 H 8.4145781 c -0.070312,0.57421876 -0.2109375,1.12500001 -1.171875,1.12500001 H 6.6216094 c -0.234375,0 -0.234375,-0.0351563 -0.234375,-0.1875 V -2.9761484 c 0,-0.1523438 0,-0.2109375 0.46875,-0.2109375 h 0.2226562 v -0.2109375 c -0.28125,0.011719 -0.65625,0.011719 -0.9375,0.011719 l -0.84375,-0.011719 v 0.2109375 h 0.1523438 c 0.3984375,0 0.3984375,0.058594 0.3984375,0.2109375 v 2.55468746 c 0,0.15234375 0,0.19921875 -0.3984375,0.19921875 H 5.2973906 V 4.140625e-4 h 3.1640625 z m 4.8662114,-1.8398437 v -0.2109375 c -0.246094,0.011719 -0.585938,0.011719 -0.65625,0.011719 -0.117188,0 -0.445313,0 -0.667969,-0.011719 v 0.2109375 c 0.550781,0 0.550781,0.2109375 0.550781,0.3398437 v 1.6875 c 0,0.65625001 -0.550781,1.05468751 -1.171875,1.05468751 -0.328125,0 -1.019531,-0.15234375 -1.019531,-1.03125001 v -1.8398437 c 0,-0.1523438 0,-0.2109375 0.398437,-0.2109375 h 0.152344 v -0.2109375 l -0.820312,0.011719 -0.8203129,-0.011719 v 0.2109375 h 0.1523437 c 0.3984375,0 0.3984375,0.058594 0.3984375,0.2109375 v 1.828125 c 0,0.72656246 0.7265627,1.25390621 1.5468747,1.25390621 0.785157,0 1.40625,-0.55078125 1.40625,-1.25390621 v -1.6992188 c 0,-0.1289062 0,-0.3398437 0.550782,-0.3398437 z m 0,0"
       style="fill:#000000;fill-opacity:1;fill-rule:nonzero;stroke:none"
       aria-label="ALU"
       transform="matrix(1.3333333,0,0,1.3333333,71.304,140.69867)" />
    <path
       id="path29"
       d="m -70.86703,-42.52065 v -14.1732 h 21.26033 v 14.1732 z"
       style="fill:none;stroke:#000000;stroke-width:0.3985;stroke-linecap:butt;stroke-linejoin:miter;stroke-miterlimit:10;stroke-dasharray:none;stroke-opacity:1"
       transform="matrix(1.3333333,0,0,-1.3333333,113.65067,20.282667)" />
    <path
       id="path30"
       d="M 7.1363594,3.671875e-4 V -0.30432031 H 6.9605781 c -0.5976562,0 -0.7382812,-0.0703125 -0.84375,-0.3984375 l -2.15625,-6.23437499 c -0.046875,-0.1289063 -0.070312,-0.1992188 -0.2226562,-0.1992188 -0.1640625,0 -0.1875,0.058594 -0.2460938,0.1992188 l -2.0625,5.96484374 c -0.1757812,0.50390625 -0.57421872,0.65625 -1.11328122,0.66796875 V 3.671875e-4 L 1.3355781,-0.03478906 2.4840156,3.671875e-4 V -0.30432031 c -0.5039062,0 -0.75,-0.2578125 -0.75,-0.515625 0,-0.0234375 0.011719,-0.12890625 0.023437,-0.140625 L 2.2144844,-2.2730703 h 2.4609375 l 0.5273437,1.52343749 c 0.011719,0.046875 0.023437,0.10546875 0.023437,0.140625 0,0.3046875 -0.5507812,0.3046875 -0.8203125,0.3046875 V 3.671875e-4 C 4.7574531,-0.03478906 5.4605781,-0.03478906 5.8355781,-0.03478906 Z M 4.5582344,-2.5777578 H 2.3199531 l 1.1132813,-3.234375 z m 9.2666016,0.2578125 c 0,-0.1054688 0,-0.1757813 -0.128906,-0.1757813 -0.105469,0 -0.105469,0.070312 -0.117188,0.1640625 -0.08203,1.42968754 -1.148437,2.23828129 -2.226562,2.23828129 -0.609375,0 -2.5664066,-0.33984375 -2.5664066,-3.30468749 0,-2.9765625 1.9453126,-3.3164063 2.5546876,-3.3164063 1.078125,0 1.96875,0.9023438 2.167969,2.3671875 0.02344,0.1289063 0.02344,0.1640625 0.164062,0.1640625 0.152344,0 0.152344,-0.035156 0.152344,-0.234375 v -2.3671875 c 0,-0.1640625 0,-0.234375 -0.105469,-0.234375 -0.03516,0 -0.08203,0 -0.164062,0.1171875 l -0.492188,0.7382813 c -0.375,-0.3632813 -0.878906,-0.8554688 -1.839844,-0.8554688 -1.8632808,0 -3.4570308,1.5820313 -3.4570308,3.609375 0,2.0625 1.6054687,3.63281254 3.4570308,3.63281254 1.628907,0 2.601563,-1.38281254 2.601563,-2.54296874 z m 0,0"
       style="fill:#000000;fill-opacity:1;fill-rule:nonzero;stroke:none"
       aria-label="AC"
       transform="matrix(1.3333333,0,0,1.3333333,23.742667,91.034667)" />
    <path
       id="path31"
       d="m -60.23741,-56.69385 v -7.08713 h 27.94789"
       style="fill:none;stroke:#000000;stroke-width:0.3985;stroke-linecap:butt;stroke-linejoin:miter;stroke-miterlimit:10;stroke-dasharray:none;stroke-opacity:1"
       transform="matrix(1.3333333,0,0,-1.3333333,113.65067,20.282667)" />
    <path
       id="path32"
       d="M -2.07224,2.39104 C -1.69365,0.95639 -0.84999,0.27895 0,0 -0.84999,-0.27895 -1.69365,-0.95639 -2.07224,-2.39104"
       style="fill:none;stroke:#000000;stroke-width:0.3985;stroke-linecap:round;stroke-linejoin:round;stroke-miterlimit:10;stroke-dasharray:none;stroke-opacity:1"
       transform="matrix(1.3333333,0,0,-1.3333333,70.86364,105.32397)" />
    <path
       id="path33"
       d="m -60.23741,-42.12213 v 6.68863 h -17.71675 v -63.77991 h 53.15028"
       style="fill:none;stroke:#000000;stroke-width:0.3985;stroke-linecap:butt;stroke-linejoin:miter;stroke-miterlimit:10;stroke-dasharray:none;stroke-opacity:1"
       transform="matrix(1.3333333,0,0,-1.3333333,113.65067,20.282667)" />
    <path
       id="path34"
       d="M -2.07224,2.39104 C -1.69365,0.95639 -0.84999,0.27895 0,0 -0.84999,-0.27895 -1.69365,-0.95639 -2.07224,-2.39104"
       style="fill:none;stroke:#000000;stroke-width:0.3985;stroke-linecap:round;stroke-linejoin:round;stroke-miterlimit:10;stroke-dasharray:none;stroke-opacity:1"
       transform="matrix(0,1.3333333,1.3333333,0,33.33412,76.711173)" />
    <path
       id="path35"
       d="M -24.8039,-92.12735 V -109.4456"
       style="fill:none;stroke:#000000;stroke-width:0.3985;stroke-linecap:butt;stroke-linejoin:miter;stroke-miterlimit:10;stroke-dasharray:none;stroke-opacity:1"
       transform="matrix(1.3333333,0,0,-1.3333333,113.65067,20.282667)" />
    <path
       id="path36"
       d="M -2.07224,2.39104 C -1.69365,0.95639 -0.84999,0.27895 0,0 -0.84999,-0.27895 -1.69365,-0.95639 -2.07224,-2.39104"
       style="fill:none;stroke:#000000;stroke-width:0.3985;stroke-linecap:round;stroke-linejoin:round;stroke-miterlimit:10;stroke-dasharray:none;stroke-opacity:1"
       transform="matrix(0,1.3333333,1.3333333,0,80.5788,166.4758)" />
    <path
       id="path37"
       d="M -14.17317,-88.58379 H 0 v -20.86181"
       style="fill:none;stroke:#000000;stroke-width:0.3985;stroke-linecap:butt;stroke-linejoin:miter;stroke-miterlimit:10;stroke-dasharray:none;stroke-opacity:1"
       transform="matrix(1.3333333,0,0,-1.3333333,113.65067,20.282667)" />
    <path
       id="path38"
       d="M -2.07224,2.39104 C -1.69365,0.95639 -0.84999,0.27895 0,0 -0.84999,-0.27895 -1.69365,-0.95639 -2.07224,-2.39104"
       style="fill:none;stroke:#000000;stroke-width:0.3985;stroke-linecap:round;stroke-linejoin:round;stroke-miterlimit:10;stroke-dasharray:none;stroke-opacity:1"
       transform="matrix(0,1.3333333,1.3333333,0,113.65067,166.4758)" />
    <path
       id="path39"
       d="m 14.17317,-109.84412 v -14.1732 h -56.69382 v 14.1732 z"
       style="fill:none;stroke:#000000;stroke-width:0.3985;stroke-linecap:butt;stroke-linejoin:miter;stroke-miterlimit:10;stroke-dasharray:none;stroke-opacity:1"
       transform="matrix(1.3333333,0,0,-1.3333333,113.65067,20.282667)" />
    <path
       id="path40"
       d="m 0.13985156,-1.0795156 0.65625,0.57421873 C 0.94844531,-0.72795312 1.0890703,-0.91545312 1.2179766,-1.0795156 c 0.1289062,-0.1523438 0.28125,-0.3398438 0.46875,-0.5390625 0.1875,-0.2109375 0.5390625,-0.5625 1.0429687,-1.0898438 v 2.54296878 L 2.6711016,1.4517344 c 0.328125,-0.1523438 0.5625,-0.3046875 0.6914062,-0.4453125 L 3.2921953,-0.56389062 V -6.8802969 l 0.28125,-0.1757812 c 0.070312,-0.046875 0.1171875,-0.082031 0.1171875,-0.09375 0.011719,-0.023437 -0.046875,-0.058594 -0.1640625,-0.1054688 l -0.8554687,-0.3515625 0.058594,1.5351563 v 2.9882812 c -0.5625,0.4804688 -0.9726562,0.8320313 -1.2304687,1.0546875 -0.2695313,0.1992188 -0.50390629,0.3867188 -0.70312504,0.5273438 -0.1875,0.140625 -0.41015625,0.2695312 -0.6562503,0.421875 z m 0.609375,-4.8515625 -0.10546875,0.1171875 c 0.1875,0.28125 0.31640625,0.515625 0.37499999,0.6679687 0.058594,0.1757813 0.1054688,0.328125 0.140625,0.46875 0.023437,0.1523438 0.058594,0.28125 0.070312,0.3984375 l 0.035156,0.3867188 c 0.011719,0.140625 0.035156,0.2109375 0.082031,0.2460937 0.035156,0.023437 0.082031,0.046875 0.1289063,0.058594 0.1054687,0.011719 0.2226562,-0.035156 0.328125,-0.1640625 0.1054687,-0.1289063 0.1640625,-0.2695313 0.1640625,-0.4101563 0.011719,-0.1640625 -0.023437,-0.328125 -0.1054688,-0.5039062 -0.082031,-0.1523438 -0.2226562,-0.3515625 -0.4101562,-0.5507813 z m 2.37890624,7.5351562 0.09375,0.1054688 c 0.375,-0.2695313 0.6914063,-0.4921875 0.9375,-0.6914063 0.2578125,-0.18749997 0.5507813,-0.49218747 0.890625,-0.87890622 0.3398438,-0.3984375 0.5859375,-0.85546875 0.75,-1.38281248 0.140625,-0.5273438 0.2460938,-0.9140625 0.2929688,-1.1484375 0.046875,-0.234375 0.070312,-0.4921875 0.1054687,-0.7382813 0.023437,-0.2578125 0.082031,-0.5976562 0.1289063,-1.0195312 h 0.1523437 l 0.082031,0.9492187 c 0.011719,0.1171875 0.035156,0.3046875 0.082031,0.5742188 0.046875,0.2695312 0.09375,0.46875 0.1289063,0.6210937 0.035156,0.1523438 0.1171875,0.4453125 0.2578125,0.84375 0.140625,0.41015628 0.3398437,0.79687503 0.5976562,1.14843753 0.2460938,0.3515625 0.609375,0.76171875 1.0546875,1.23046877 0.1757813,-0.1757813 0.3046875,-0.28125002 0.4101563,-0.33984377 0.1054687,-0.046875 0.2109375,-0.0703125 0.3046875,-0.0703125 0.082031,0 0.1757812,0 0.2578125,-0.0117188 v -0.1054687 c -0.4101563,-0.1875 -0.7382813,-0.375 -0.9726563,-0.5625 -0.2226562,-0.1875 -0.4804687,-0.43359375 -0.7382812,-0.75 -0.2578125,-0.3046875 -0.46875,-0.67968753 -0.65625,-1.07812503 -0.1757813,-0.4101562 -0.2929688,-0.7617187 -0.3515625,-1.0546875 -0.070312,-0.28125 -0.1171875,-0.5273437 -0.140625,-0.7265625 -0.035156,-0.1992187 -0.058594,-0.421875 -0.09375,-0.6679687 h 2.7773437 c 0.046875,0 0.09375,-0.011719 0.1054688,-0.023437 0.011719,-0.011719 -0.023437,-0.058594 -0.1054688,-0.140625 l -0.6914057,-0.679688 -0.5273438,0.609375 H 6.3273516 c 0.035156,-0.5390625 0.070312,-0.9609375 0.082031,-1.2773438 0.011719,-0.3046875 0.035156,-0.6914062 0.070312,-1.1484375 l 0.2460938,-0.1640625 c 0.082031,-0.046875 0.1171875,-0.09375 0.1054687,-0.1054687 0,-0.023437 -0.035156,-0.058594 -0.1289062,-0.09375 l -0.9140625,-0.3515625 0.035156,0.7265625 -0.011719,0.984375 c 0,0.234375 -0.011719,0.7148437 -0.046875,1.4296875 H 3.9484453 l -0.421875,-0.035156 0.3867188,0.3867188 c 0.1875,-0.082031 0.375,-0.1171875 0.5390625,-0.1171875 h 1.2890625 l -0.070312,0.8671875 c -0.046875,0.515625 -0.1289063,1.0078125 -0.2578125,1.4882812 -0.1289063,0.46875 -0.2695313,0.89062503 -0.4101563,1.28906253 -0.164063,0.38671845 -0.445313,0.76171845 -0.820313,1.13671845 -0.3984375,0.37500002 -0.75,0.70312502 -1.0546875,0.97265622 z m 3.8085938,-8.1328125 c 0.1992187,0.1875 0.3515625,0.3398438 0.4570312,0.4335938 0.082031,0.082031 0.1757813,0.2109375 0.28125,0.375 0.082031,0.1640625 0.1757813,0.328125 0.2578125,0.5039062 0.070312,0.1757813 0.1289063,0.2695313 0.1523438,0.2695313 0.082031,0.011719 0.1640625,-0.070312 0.2460937,-0.2695313 0.070312,-0.1875 0.1171875,-0.328125 0.1054688,-0.3984375 -0.011719,-0.1054687 -0.035156,-0.1875 -0.09375,-0.2695312 -0.035156,-0.09375 -0.1289063,-0.1757813 -0.234375,-0.2578125 -0.1054688,-0.070312 -0.4804688,-0.2460938 -1.1015625,-0.5273438 z m 3.3544924,3.6328125 0.05859,0.1757813 c 0.398438,-0.09375 0.808594,-0.1992188 1.207032,-0.3515625 0.421875,-0.140625 0.773437,-0.3164063 1.101562,-0.5390625 0.328125,-0.2109375 0.65625,-0.4570313 0.996094,-0.7265625 l 0.433594,0.3398437 c 0.152343,0.1054688 0.28125,0.2460938 0.410156,0.4335938 0.128906,0.1757812 0.210937,0.3398437 0.28125,0.4570312 0.07031,0.140625 0.128906,0.2109375 0.164062,0.2695313 0.04687,0.046875 0.117188,0.070312 0.199219,0.082031 0.09375,0 0.152344,-0.046875 0.175781,-0.1640625 0.04687,-0.1171875 0.05859,-0.234375 0.04687,-0.3398437 -0.01172,-0.1054688 -0.07031,-0.2226563 -0.1875,-0.3515625 -0.09375,-0.1171875 -0.222656,-0.2226563 -0.398437,-0.3398438 -0.152344,-0.09375 -0.292969,-0.1757812 -0.421875,-0.2460937 -0.128906,-0.070312 -0.304688,-0.1523438 -0.5625,-0.28125 0.257812,-0.28125 0.433594,-0.4921875 0.527344,-0.6210938 0.09375,-0.1289062 0.234375,-0.3632812 0.410156,-0.6679687 h 0.550781 l 0.09375,0.1640625 0.1875,0.3398437 c 0.04687,0.1054688 0.140625,0.2460938 0.28125,0.4453125 0.128906,0.1757813 0.292969,0.3867188 0.492188,0.609375 0.175781,0.2226563 0.503906,0.4804688 0.960937,0.796875 0.46875,0.3046875 0.878906,0.5390625 1.253906,0.6914063 l 0.152344,-0.1992188 c 0.05859,-0.070312 0.128906,-0.1171875 0.222656,-0.1523437 0.105469,-0.023437 0.316407,-0.082031 0.644532,-0.140625 l 0.01172,-0.140625 C 19.138875,-3.4232656 18.717,-3.5287344 18.353719,-3.6224844 17.967,-3.7513906 17.592,-3.9271719 17.193562,-4.1849844 c -0.375,-0.2578125 -0.679687,-0.4804687 -0.878906,-0.6679687 -0.1875,-0.1875 -0.433594,-0.4921875 -0.726562,-0.9140625 h 3.304687 c 0.05859,0 0.09375,-0.011719 0.117188,-0.035156 0.01172,-0.011719 -0.01172,-0.046875 -0.07031,-0.1171875 l -0.691406,-0.6679687 -0.480469,0.5742187 h -2.917969 c 0.128907,-0.3046875 0.257813,-0.5976562 0.398438,-0.890625 l 0.339844,-0.1054687 c 0.07031,-0.035156 0.117187,-0.070312 0.117187,-0.082031 0.01172,-0.035156 -0.01172,-0.070312 -0.07031,-0.1054687 l -0.902344,-0.4804688 -0.07031,0.3398438 c -0.02344,0.1289062 -0.08203,0.328125 -0.152343,0.5859375 -0.09375,0.2695312 -0.1875,0.515625 -0.28125,0.7382812 h -2.765625 l -0.796875,-0.011719 0.445312,0.4101562 c 0.164063,-0.046875 0.28125,-0.070312 0.328125,-0.082031 0.04687,0 0.152344,-0.023437 0.304688,-0.046875 0.152343,-0.011719 0.246093,-0.023437 0.28125,-0.023437 h 2.074218 c -0.1875,0.3515625 -0.398437,0.6445312 -0.609375,0.8789062 -0.222656,0.2226563 -0.46875,0.46875 -0.738281,0.6796875 -0.269531,0.2460938 -0.5625,0.4453125 -0.867187,0.6210938 -0.304688,0.1640625 -0.832032,0.4101562 -1.59375,0.6914062 z m 1.617187,1.0195313 c -0.117187,0.4453125 -0.234375,0.8203125 -0.375,1.11328123 -0.140625,0.28125 -0.304687,0.515625 -0.515625,0.6796875 -0.210937,0.1875 -0.328125,0.29296875 -0.375,0.33984375 -0.04687,0.046875 -0.05859,0.10546875 -0.05859,0.17578125 -0.01172,0.0703125 0.01172,0.12890625 0.08203,0.1875 0.05859,0.046875 0.175781,0.0703125 0.363281,0.0585938 0.1875,-0.0117188 0.375,-0.1875 0.5625,-0.5390625 0.199219,-0.33984375 0.328125,-0.69140625 0.375,-1.04296875 0.04687,-0.35156248 0.09375,-0.67968748 0.117187,-0.97265618 z m 0.925781,-0.703125 0.03516,0.9960937 v 1.88671878 c 0,0.22265625 0.02344,0.3984375 0.08203,0.52734375 0.03516,0.12890625 0.140625,0.22265627 0.257812,0.28124997 0.140625,0.070312 0.386719,0.1171875 0.761719,0.1289063 0.375,0.023437 0.761719,0.035156 1.171875,0.046875 l 1.441406,-0.035156 c 0.292969,0 0.527344,-0.023437 0.703125,-0.082031 0.164063,-0.058594 0.28125,-0.140625 0.328125,-0.24609377 0.05859,-0.10546875 0.08203,-0.19921875 0.117188,-0.26953125 -0.128906,-0.0820313 -0.234375,-0.1640625 -0.28125,-0.28125 -0.05859,-0.09375 -0.09375,-0.19921875 -0.117188,-0.29296875 -0.01172,-0.10546875 -0.02344,-0.26953125 -0.03516,-0.515625 l -0.03516,-0.57421873 c -0.01172,-0.070312 -0.01172,-0.1640625 -0.01172,-0.3046875 h -0.164062 l -0.03516,0.37499998 -0.03516,0.703125 c -0.01172,0.1875 -0.04687,0.33984375 -0.05859,0.4921875 -0.04687,0.140625 -0.08203,0.24609375 -0.164062,0.3046875 -0.05859,0.0703125 -0.152344,0.1171875 -0.292969,0.140625 -0.128906,0.0351563 -0.574219,0.046875 -1.347656,0.0585938 -0.902344,0 -1.429688,-0.046875 -1.546875,-0.140625 -0.105469,-0.09375 -0.164063,-0.2578125 -0.164063,-0.50390625 V -1.8060781 l 0.222657,-0.1054688 c 0.08203,-0.046875 0.117187,-0.070312 0.117187,-0.1054687 0,-0.023437 -0.03516,-0.058594 -0.117187,-0.1054688 z m 1.417969,0.2929687 0.08203,0.1054688 0.28125,0.28125 c 0.09375,0.1289062 0.199219,0.2695312 0.292969,0.4101562 0.09375,0.1523438 0.164063,0.2929688 0.210938,0.4101563 l 0.128906,0.42187498 c 0.05859,0.10546875 0.128906,0.1640625 0.234375,0.15234375 0.07031,0 0.140625,-0.046875 0.222656,-0.12890625 0.07031,-0.09375 0.117188,-0.2109375 0.128906,-0.36328125 0,-0.12890623 -0.05859,-0.30468753 -0.1875,-0.50390623 -0.140625,-0.2109375 -0.574218,-0.5039063 -1.335937,-0.890625 z m 3.210938,0.1289063 c 0.234375,0.3046875 0.386718,0.5273437 0.46875,0.65625 0.105468,0.1289062 0.222656,0.3398437 0.375,0.62109373 0.164062,0.28125 0.304687,0.62109375 0.433593,1.01953125 l 0.08203,0.28125 c 0.01172,0.046875 0.02344,0.0820313 0.03516,0.0820313 0.02344,0.0351563 0.05859,0.0585938 0.128906,0.0585938 0.07031,-0.0117188 0.152344,-0.0703125 0.246094,-0.1875 0.08203,-0.1171875 0.128906,-0.234375 0.128906,-0.3515625 -0.01172,-0.12890625 -0.04687,-0.2578125 -0.09375,-0.38671875 -0.04687,-0.140625 -0.246094,-0.3984375 -0.597656,-0.79687503 -0.339844,-0.375 -0.703125,-0.7382812 -1.101563,-1.0898437 z m 3,-0.9140625 0.421875,0.4453125 c 0.269531,-0.070312 0.714843,-0.1289063 1.335937,-0.1875 h 4.722656 v 3.39843748 c 0,0.1640625 -0.02344,0.26953125 -0.08203,0.328125 -0.05859,0.046875 -0.164062,0.0703125 -0.316406,0.046875 l -1.21875,-0.17578125 -0.03516,0.12890625 0.644531,0.21093752 c 0.128906,0.035156 0.222656,0.1054687 0.304687,0.2109375 0.09375,0.09375 0.140625,0.1757812 0.164063,0.234375 0.02344,0.082031 0.04687,0.1523437 0.07031,0.2460937 l 0.457032,-0.1523437 c 0.1875,-0.058594 0.316406,-0.1171875 0.386718,-0.1640625 0.07031,-0.058594 0.128907,-0.140625 0.152344,-0.234375 0.04687,-0.1054688 0.05859,-0.26953127 0.05859,-0.50390627 l 0.01172,-3.57421873 h 1.980468 c 0.04687,0 0.07031,-0.011719 0.105469,-0.058594 0.02344,-0.035156 0.01172,-0.082031 -0.03516,-0.1171875 l -0.714844,-0.6796875 -0.515625,0.6210938 h -1.183594 l 0.08203,-0.234375 c 0.04687,-0.082031 0.07031,-0.1757813 0.05859,-0.2695313 0,-0.082031 -0.04687,-0.1875 -0.128906,-0.3164062 -0.09375,-0.1289063 -0.339844,-0.234375 -0.75,-0.3398438 -0.421875,-0.1054687 -0.902344,-0.2109375 -1.464844,-0.3164062 l -0.05859,0.140625 c 0.703125,0.2929687 1.183593,0.5390625 1.417968,0.7382812 0.222657,0.1875 0.457032,0.3867188 0.667969,0.5976563 h -4.453125 c 0.539063,-0.1992188 0.984375,-0.4101563 1.300781,-0.6210938 0.304688,-0.2109375 0.527344,-0.4101562 0.644532,-0.5976562 0.117187,-0.1757813 0.222656,-0.3515625 0.316406,-0.515625 h 3.046875 c 0.328125,0 0.503906,0 0.515625,-0.023437 0.02344,0 0.03516,-0.011719 0.03516,-0.058594 0.02344,-0.023437 -0.01172,-0.070312 -0.08203,-0.1289062 L 27.91621,-5.3334218 c 0.363281,-0.28125 0.644531,-0.4804687 0.832031,-0.5507812 0.1875,-0.058594 0.351562,-0.1054688 0.480469,-0.1171875 0.117187,0 0.199218,0 0.234375,-0.011719 0.03516,0 0.05859,-0.023437 0.05859,-0.070312 0.02344,-0.011719 -0.01172,-0.070312 -0.08203,-0.140625 l -0.832031,-0.6914062 -0.410156,0.4921875 H 24.98652 l 0.128906,-0.1992188 c 0.03516,-0.070312 0.04687,-0.1523437 0.04687,-0.2578125 -0.01172,-0.09375 -0.04687,-0.1992187 -0.117187,-0.3164062 -0.07031,-0.1171875 -0.210938,-0.2109375 -0.433594,-0.3164063 -0.222656,-0.082031 -0.410156,-0.1640625 -0.585937,-0.234375 l -0.07031,0.082031 c 0.257813,0.2929687 0.398438,0.5039062 0.457031,0.6328125 0.05859,0.140625 0.105469,0.2460937 0.128907,0.3164062 0.01172,0.082031 0.03516,0.1757813 0.05859,0.2929688 h -2.859375 l -0.04687,-0.3632813 h -0.128906 l -0.08203,0.4101563 c 0,0.09375 -0.04687,0.2109375 -0.117188,0.3632812 -0.07031,0.1523438 -0.175781,0.2929688 -0.328125,0.4335938 -0.152343,0.1171875 -0.257812,0.234375 -0.28125,0.3164062 -0.03516,0.09375 -0.02344,0.1757813 0.04687,0.2578125 0.07031,0.09375 0.152344,0.1289063 0.234375,0.1171875 0.105469,0 0.1875,-0.011719 0.257813,-0.058594 0.08203,-0.058594 0.152344,-0.1289063 0.222656,-0.2226563 0.05859,-0.1054687 0.105469,-0.1875 0.117188,-0.2929687 0.03516,-0.082031 0.04687,-0.1757813 0.05859,-0.28125 0.01172,-0.09375 0.03516,-0.2460938 0.05859,-0.4335938 h 6.503906 l -0.515625,0.7617188 -0.140625,-0.140625 -0.492187,0.5390625 h -2.179688 l 0.164063,-0.46875 0.269531,-0.1171875 c 0.04687,-0.011719 0.07031,-0.023437 0.07031,-0.070312 0,-0.035156 -0.04687,-0.070312 -0.140625,-0.1171875 l -0.726563,-0.3398438 -0.05859,0.3867188 c -0.01172,0.1289062 -0.07031,0.375 -0.175781,0.7265625 h -1.277344 l -1.171875,-0.023437 0.457032,0.3867187 c 0.28125,-0.070312 0.644531,-0.1054687 1.078125,-0.1289062 h 0.820312 c -0.09375,0.1992187 -0.246094,0.4101562 -0.421875,0.6328125 -0.199219,0.2226562 -0.421875,0.3984375 -0.679687,0.5390625 -0.257813,0.1289062 -0.457032,0.234375 -0.597657,0.3046875 -0.152343,0.070312 -0.316406,0.1523437 -0.527343,0.2578125 h -0.457032 z m 1.617187,0.9492187 0.05859,0.9960938 v 0.83203123 l -0.05859,1.13671875 c 0.140625,-0.0351563 0.339844,-0.10546875 0.609375,-0.2109375 v -0.6796875 h 2.003906 v 0.5625 c 0.210938,-0.0703125 0.410157,-0.140625 0.574219,-0.22265625 l -0.03516,-0.84375 V -1.4076406 l 0.28125,-0.1875 c 0.04687,-0.035156 0.08203,-0.082031 0.09375,-0.1054688 0,-0.023437 -0.04687,-0.070312 -0.117188,-0.1289062 l -0.621093,-0.3867188 -0.316407,0.4453125 h -1.734375 z m 2.613281,1.83984378 H 22.689656 V -1.5248281 h 2.003906 z m 7.514649,-3.41015628 c -0.632813,0.9492188 -1.371094,1.8632813 -2.203125,2.77734378 l 0.09375,0.0820313 0.820312,-0.73828118 c 0.140625,-0.1289063 0.5625,-0.5625 1.253907,-1.3242188 v 3.39843748 l -0.05859,1.27734382 c 0.07031,-0.011719 0.1875,-0.046875 0.328125,-0.1054688 0.152344,-0.070312 0.269531,-0.1289062 0.363281,-0.1757812 L 32.770711,0.59626563 V -3.6927969 c 0.386719,-0.5507812 0.65625,-0.9726562 0.808594,-1.2539062 0.164062,-0.2695313 0.363281,-0.6210938 0.597656,-1.0546875 h 5.179687 c 0.05859,0 0.09375,-0.011719 0.117188,-0.011719 0,-0.023437 -0.03516,-0.070312 -0.105469,-0.140625 l -0.75,-0.7148437 -0.574219,0.6445312 h -3.75 l 0.363282,-0.7148437 0.28125,-0.1171875 c 0.09375,-0.035156 0.140625,-0.070312 0.152343,-0.082031 0.01172,-0.023437 -0.04687,-0.070312 -0.140625,-0.1289062 l -0.890625,-0.4804688 -0.04687,0.2929688 c -0.01172,0.070312 -0.05859,0.2226562 -0.140625,0.4804687 -0.08203,0.234375 -0.128906,0.3984375 -0.164062,0.46875 -0.02344,0.070312 -0.07031,0.1640625 -0.117188,0.28125 H 31.14181 l -0.855469,-0.023437 0.386719,0.3867188 c 0.246093,-0.082031 0.515625,-0.140625 0.820312,-0.140625 h 1.992188 c -0.140625,0.3515625 -0.269532,0.6445312 -0.410157,0.8789062 -0.117187,0.2226563 -0.257812,0.4335938 -0.386718,0.6445313 l -0.515625,-0.2578125 0.03516,0.7382812 z m 0.820312,1.640625 0.410157,0.421875 c 0.246093,-0.1171875 0.515625,-0.1757812 0.796875,-0.1757812 h 1.816406 v 2.44921873 c 0,0.09375 -0.02344,0.15234375 -0.07031,0.19921875 -0.03516,0.0585938 -0.128906,0.0703125 -0.269531,0.0703125 -0.140625,0.0117188 -0.550781,-0.0234375 -1.242187,-0.09375 l -0.03516,0.10546875 0.421875,0.12890627 c 0.292969,0.09375 0.480469,0.1757812 0.5625,0.2578125 0.08203,0.082031 0.128907,0.1640625 0.164063,0.2226562 0.02344,0.082031 0.05859,0.1640625 0.09375,0.2929688 0.503906,-0.1054688 0.808594,-0.2226563 0.878906,-0.375 0.07031,-0.140625 0.105469,-0.2929688 0.105469,-0.4453125 v -2.8125 h 2.929687 c 0.05859,0 0.09375,-0.011719 0.09375,-0.023437 0.02344,0 0,-0.058594 -0.07031,-0.1289063 l -0.65625,-0.6679687 -0.480469,0.5976562 h -1.816406 v -0.6679687 l 0.234375,-0.140625 c 0.07031,-0.046875 0.105469,-0.070312 0.105469,-0.1171875 0.01172,-0.011719 -0.04687,-0.058594 -0.175782,-0.09375 l -0.363281,-0.1054688 0.609375,-0.4453125 c 0.492188,-0.3515625 0.75,-0.5507812 0.808594,-0.5625 0.05859,-0.035156 0.152344,-0.082031 0.316406,-0.1523437 l 0.304688,-0.035156 c 0.128906,0 0.1875,-0.023437 0.210937,-0.058594 0,-0.023437 -0.03516,-0.082031 -0.140625,-0.1757813 l -0.65625,-0.5859375 -0.480469,0.4804688 h -2.730468 l -0.914063,-0.011719 0.375,0.4101563 c 0.164063,-0.058594 0.28125,-0.1054688 0.386719,-0.1289063 0.08203,-0.011719 0.199219,-0.023437 0.328125,-0.023437 h 2.542969 l -0.351563,0.4101563 c -0.03516,0.023437 -0.152344,0.1523437 -0.363281,0.3632812 -0.210938,0.2226563 -0.351563,0.375 -0.421875,0.4453125 l -0.292969,-0.09375 0.05859,0.890625 v 0.3984375 h -2.015625 z m 10.256836,-1.3007812 -0.28125,0.3164062 c -0.246093,0.28125 -0.644531,0.6328125 -1.195312,1.03125 -0.539063,0.3984375 -1.136719,0.7382813 -1.769531,1.03125003 l 0.02344,0.140625 c 0.351563,-0.10546875 0.621094,-0.19921873 0.820313,-0.28125003 0.199218,-0.09375 0.433593,-0.1875 0.679687,-0.3164062 v 2.19140623 l -0.04687,0.92578127 0.328125,-0.1171875 c 0.08203,-0.011719 0.117188,-0.011719 0.140625,-0.035156 0.02344,0 0.07031,-0.035156 0.117188,-0.070312 V 0.73689063 h 1.464843 V 1.4517344 c 0.222657,-0.046875 0.351563,-0.082031 0.386719,-0.09375 0.04687,0 0.117188,-0.035156 0.222656,-0.070312 l -0.04687,-0.76171877 -0.01172,-1.76953123 0.210937,-0.1875 c 0.04687,-0.046875 0.07031,-0.070312 0.07031,-0.082031 0,-0.023437 -0.04687,-0.058594 -0.128907,-0.1171875 l -0.527343,-0.3632812 -0.304688,0.4101562 -1.265625,-0.011719 -0.140625,-0.082031 0.246094,-0.1757812 0.492187,-0.328125 c 0.339844,-0.2578125 0.75,-0.65625 1.21875,-1.1835938 l 1.757813,0.011719 0.421875,0.5507812 c 0.03516,0.058594 0.164062,0.1757813 0.375,0.375 0.210937,0.1757813 0.527344,0.3867188 0.9375,0.6328125 l -0.175781,0.1640625 h -1.3125 l -0.644532,-0.3398437 0.04687,0.9375 v 1.61718748 l -0.04687,1.04296872 c 0.269532,-0.070312 0.445313,-0.140625 0.550782,-0.234375 V 0.73689063 h 1.546875 V 1.4165781 l 0.08203,-0.046875 0.234375,-0.070312 c 0.07031,-0.035156 0.164062,-0.070312 0.269531,-0.140625 L 47.984578,0.45564063 V -1.2084219 l 0.117188,-0.09375 c 0.02344,-0.023437 0.04687,-0.046875 0.05859,-0.058594 0.01172,-0.023437 -0.03516,-0.070312 -0.105468,-0.1171875 0.117187,0.046875 0.339843,0.140625 0.703125,0.2929687 0.09375,-0.1757812 0.164062,-0.2929687 0.222656,-0.328125 l 0.246094,-0.1171875 c 0.09375,-0.046875 0.199218,-0.070312 0.292968,-0.070312 l 0.02344,-0.1289062 c -0.667969,-0.070312 -1.300781,-0.2109375 -1.898438,-0.4453125 -0.609375,-0.234375 -1.007812,-0.4453125 -1.195312,-0.6210938 -0.1875,-0.1757812 -0.351563,-0.328125 -0.457031,-0.4570312 h 3.128906 c 0.09375,0 0.128906,-0.011719 0.152344,-0.046875 0,-0.023437 -0.02344,-0.070312 -0.08203,-0.1171875 l -0.785156,-0.6914063 -0.46875,0.6210938 H 46.94161 c 0.117188,-0.1640625 0.1875,-0.3046875 0.1875,-0.4335938 0,-0.082031 -0.04687,-0.1875 -0.140625,-0.328125 -0.08203,-0.1171875 -0.433593,-0.2460937 -1.054687,-0.3632812 l -0.07031,0.09375 c 0.210938,0.1757812 0.375,0.3164062 0.480469,0.4453125 0.117188,0.1289062 0.222656,0.3164062 0.328125,0.5859375 h -2.496094 l 0.304688,-0.421875 0.28125,-0.3515625 c 0.03516,-0.058594 0.09375,-0.1289063 0.175781,-0.2226563 l 0.257813,-0.058594 c 0.08203,-0.011719 0.128906,-0.035156 0.140625,-0.046875 0,-0.023437 -0.04687,-0.058594 -0.140625,-0.1171875 l -0.738282,-0.46875 -0.128906,0.328125 c -0.03516,0.1054687 -0.128906,0.28125 -0.316406,0.5625 -0.152344,0.2578125 -0.339844,0.5273437 -0.539063,0.796875 h -2.601562 l -0.738281,-0.035156 0.339843,0.421875 c 0.246094,-0.1054687 0.585938,-0.1523437 0.996094,-0.1523437 z M 42.101766,0.52595313 V -1.3607656 h 1.464843 v 1.88671873 z m 3.796875,-0.0234375 V -1.4076406 h 1.546875 v 1.91015623 z m -4.40625,-7.85156253 0.04687,0.7382813 v 1.5351562 l -0.04687,0.75 0.152343,-0.035156 0.175782,-0.058594 c 0.08203,-0.035156 0.164062,-0.070312 0.246093,-0.140625 v -0.5507812 h 1.5 v 0.4921875 c 0.292969,-0.070312 0.503907,-0.140625 0.609375,-0.2109375 l -0.04687,-0.65625 v -1.1484375 l 0.210938,-0.2109375 c 0.05859,-0.035156 0.08203,-0.058594 0.08203,-0.09375 l -0.117187,-0.082031 -0.527344,-0.4101562 -0.304688,0.4335937 h -1.347656 z m 0.574218,2.0039063 v -1.4179688 h 1.5 v 1.4179688 z m 3.515625,-2.0625 0.04687,0.6914062 v 1.3125 l -0.04687,0.7148438 c 0.1875,-0.058594 0.375,-0.1289063 0.550782,-0.2109375 v -0.2109375 h 1.640625 v 0.421875 c 0.292968,-0.1054688 0.457031,-0.1640625 0.480468,-0.1757813 0.03516,-0.011719 0.07031,-0.023437 0.09375,-0.058594 l -0.04687,-0.6445313 v -1.1132812 l 0.222657,-0.1875 c 0.05859,-0.035156 0.08203,-0.070312 0.07031,-0.09375 0,-0.035156 -0.03516,-0.070312 -0.117187,-0.1289063 l -0.539063,-0.3632812 -0.292969,0.4453125 -1.347656,-0.011719 z m 0.550782,2.0625 v -1.453125 h 1.640625 v 1.453125 z m 0,0"
       style="fill:#000000;fill-opacity:1;fill-rule:nonzero;stroke:none"
       aria-label="状态寄存器"
       transform="matrix(1.3333333,0,0,1.3333333,61.544,180.13467)" />
    <path
       id="path41"
       d="m -17.71674,-42.52065 h 35.43349 v 6.68863"
       style="fill:none;stroke:#000000;stroke-width:0.3985;stroke-linecap:butt;stroke-linejoin:miter;stroke-miterlimit:10;stroke-dasharray:none;stroke-opacity:1"
       transform="matrix(1.3333333,0,0,-1.3333333,113.65067,20.282667)" />
    <path
       id="path42"
       d="M -2.07224,2.39104 C -1.69365,0.95639 -0.84999,0.27895 0,0 -0.84999,-0.27895 -1.69365,-0.95639 -2.07224,-2.39104"
       style="fill:none;stroke:#000000;stroke-width:0.3985;stroke-linecap:round;stroke-linejoin:round;stroke-miterlimit:10;stroke-dasharray:none;stroke-opacity:1"
       transform="matrix(0,-1.3333333,-1.3333333,0,137.273,67.793027)" />
    <path
       id="path43"
       d="M 81.49666,-42.52065 H 31.88994 v 6.68863"
       style="fill:none;stroke:#000000;stroke-width:0.3985;stroke-linecap:butt;stroke-linejoin:miter;stroke-miterlimit:10;stroke-dasharray:none;stroke-opacity:1"
       transform="matrix(1.3333333,0,0,-1.3333333,113.65067,20.282667)" />
    <path
       id="path44"
       d="M -2.07224,2.39104 C -1.69365,0.95639 -0.84999,0.27895 0,0 -0.84999,-0.27895 -1.69365,-0.95639 -2.07224,-2.39104"
       style="fill:none;stroke:#000000;stroke-width:0.3985;stroke-linecap:round;stroke-linejoin:round;stroke-miterlimit:10;stroke-dasharray:none;stroke-opacity:1"
       transform="matrix(0,-1.3333333,-1.3333333,0,156.17059,67.793027)" />
    <path
       id="path45"
       d="M 81.49666,-35.4335 V -77.95416 H 24.80281 v 6.68863"
       style="fill:none;stroke:#000000;stroke-width:0.3985;stroke-linecap:butt;stroke-linejoin:miter;stroke-miterlimit:10;stroke-dasharray:none;stroke-opacity:1"
       transform="matrix(1.3333333,0,0,-1.3333333,113.65067,20.282667)" />
    <path
       id="path46"
       d="M -2.07224,2.39104 C -1.69365,0.95639 -0.84999,0.27895 0,0 -0.84999,-0.27895 -1.69365,-0.95639 -2.07224,-2.39104"
       style="fill:none;stroke:#000000;stroke-width:0.3985;stroke-linecap:round;stroke-linejoin:round;stroke-miterlimit:10;stroke-dasharray:none;stroke-opacity:1"
       transform="matrix(0,-1.3333333,-1.3333333,0,146.72108,115.03771)" />
    <path
       id="path47"
       d="M 67.32346,-35.4335 V -91.72885"
       style="fill:none;stroke:#000000;stroke-width:0.3985;stroke-linecap:butt;stroke-linejoin:miter;stroke-miterlimit:10;stroke-dasharray:none;stroke-opacity:1"
       transform="matrix(1.3333333,0,0,-1.3333333,113.65067,20.282667)" />
    <path
       id="path48"
       d="M -2.07224,2.39104 C -1.69365,0.95639 -0.84999,0.27895 0,0 -0.84999,-0.27895 -1.69365,-0.95639 -2.07224,-2.39104"
       style="fill:none;stroke:#000000;stroke-width:0.3985;stroke-linecap:round;stroke-linejoin:round;stroke-miterlimit:10;stroke-dasharray:none;stroke-opacity:1"
       transform="matrix(0,1.3333333,1.3333333,0,203.41528,142.85347)" />
    <path
       id="path49"
       d="M 67.32346,-63.77989 H 35.83202"
       style="fill:none;stroke:#000000;stroke-width:0.3985;stroke-linecap:butt;stroke-linejoin:miter;stroke-miterlimit:10;stroke-dasharray:none;stroke-opacity:1"
       transform="matrix(1.3333333,0,0,-1.3333333,113.65067,20.282667)" />
    <path
       id="path50"
       d="M -2.07224,2.39104 C -1.69365,0.95639 -0.84999,0.27895 0,0 -0.84999,-0.27895 -1.69365,-0.95639 -2.07224,-2.39104"
       style="fill:none;stroke:#000000;stroke-width:0.3985;stroke-linecap:round;stroke-linejoin:round;stroke-miterlimit:10;stroke-dasharray:none;stroke-opacity:1"
       transform="matrix(-1.3333333,0,0,1.3333333,161.16103,105.32252)" />
    <path
       id="path51"
       d="m 7.1841641,-2.4955859 c 0,-0.1992188 -0.1875,-0.1992188 -0.328125,-0.1992188 H 4.0786953 v -2.7890625 c 0,-0.1289062 0,-0.328125 -0.1992187,-0.328125 -0.1992188,0 -0.1992188,0.1992188 -0.1992188,0.328125 v 2.7890625 H 0.89119531 c -0.140625,0 -0.328125,0 -0.328125,0.1992188 0,0.1992187 0.1875,0.1992187 0.328125,0.1992187 H 3.6802578 v 2.80078126 c 0,0.12890625 0,0.328125 0.1992188,0.328125 0.1992187,0 0.1992187,-0.19921875 0.1992187,-0.328125 V -2.2963672 h 2.7773438 c 0.140625,0 0.328125,0 0.328125,-0.1992187 z M 11.921469,5.078125e-4 V -0.30417969 h -0.316406 c -0.902344,0 -0.925782,-0.1171875 -0.925782,-0.48046875 V -6.3744922 c 0,-0.234375 0,-0.2578125 -0.234375,-0.2578125 -0.6093747,0.6328125 -1.488281,0.6328125 -1.8046872,0.6328125 v 0.3164063 c 0.1992187,0 0.7851562,0 1.3007812,-0.2578125 v 5.15624996 c 0,0.3515625 -0.035156,0.48046875 -0.9257812,0.48046875 H 8.6988125 V 5.078125e-4 C 9.050375,-0.03464844 9.9058438,-0.03464844 10.304281,-0.03464844 c 0.398438,0 1.265625,0 1.617188,0.0351562525 z m 0,0"
       style="fill:#000000;fill-opacity:1;fill-rule:nonzero;stroke:none"
       aria-label="+1"
       transform="matrix(1.3333333,0,0,1.3333333,181.74533,99.526667)" />
    <path
       id="path52"
       d="m 46.06313,-92.12735 v -21.26035 h 49.60781 v 21.26035 z"
       style="fill:none;stroke:#000000;stroke-width:0.3985;stroke-linecap:butt;stroke-linejoin:miter;stroke-miterlimit:10;stroke-dasharray:none;stroke-opacity:1"
       transform="matrix(1.3333333,0,0,-1.3333333,113.65067,20.282667)" />
    <path
       id="path53"
       d="m 1.8529922,-4.9819297 -0.035156,0.1523438 c -0.023437,0.070312 -0.082031,0.234375 -0.1875,0.4804687 -0.1054687,0.2460938 -0.1992187,0.4804688 -0.3046875,0.6914063 -0.082031,0.2109375 -0.2109375,0.46875 -0.37499996,0.7734375 -0.1640625,0.3046875 -0.3046875,0.5390625 -0.3984375,0.7148437 -0.10546875,0.1640625 -0.1640625,0.2695313 -0.17578125,0.3046875 -0.0117188,0.011719 -0.0351563,0.058594 -0.046875,0.1054688 l 0.0820313,0.058594 0.09375,-0.070312 c 0.0820313,-0.082031 0.26953125,-0.3515625 0.56249991,-0.7851562 l 0.3164063,-0.4570313 c 0.011719,-0.023437 0.046875,-0.082031 0.09375,-0.1523437 V 0.18603906 L 1.4193984,1.5336953 C 1.6772109,1.4868203 1.8647109,1.4047891 1.9701797,1.2758828 L 1.9233047,0.18603906 V -2.8491172 l 0.140625,-0.09375 c 0.058594,-0.046875 0.09375,-0.070312 0.09375,-0.09375 0,-0.023437 -0.035156,-0.046875 -0.082031,-0.070312 l -0.4570312,-0.2460937 0.609375,-0.984375 0.1523437,-0.070312 c 0.082031,-0.023437 0.1171875,-0.046875 0.1289063,-0.058594 0.011719,-0.011719 -0.035156,-0.046875 -0.1171875,-0.1054687 z m -1.32421876,0.2460938 0.09375,0.058594 C 1.0678359,-5.0053672 1.5951797,-5.4741172 2.2045547,-6.0717734 l 0.2109375,-0.023437 c 0.046875,-0.011719 0.082031,-0.023437 0.082031,-0.035156 0,-0.023437 -0.011719,-0.046875 -0.035156,-0.070312 l -0.515625,-0.4570312 -0.046875,0.1171875 c -0.023437,0.058594 -0.1289063,0.2226562 -0.3164063,0.515625 -0.1875,0.2695312 -0.3046875,0.4453125 -0.3632812,0.515625 -0.058594,0.082031 -0.1757813,0.2226562 -0.33984376,0.4101562 -0.17578125,0.1875 -0.29296875,0.3046875 -0.3515625,0.3632813 z m 1.54687496,5.7421875 0.1054688,0.082031 c 0.4921875,-0.35156249 0.8203125,-0.69140624 0.9375,-1.03124999 0.140625,-0.33984375 0.2226562,-0.69140625 0.2578125,-1.04296875 l 0.058594,-0.71484376 0.023437,-0.2109375 H 4.196742 v 1.40625001 c -0.011719,0.17578125 -0.070312,0.33984375 -0.1992188,0.4921875 l 0.4453125,0.375 C 4.6068982,0.11572636 4.759242,-0.08349239 4.899867,-0.24755489 L 5.602992,-1.1381799 c 0.046875,-0.046875 0.1054687,-0.1054687 0.1757812,-0.2109375 0,0 -0.070312,-0.082031 -0.070312,-0.082031 0,0 -0.1054687,0.082031 -0.1054687,0.082031 L 4.87643,-0.70458614 c -0.058594,0.0351563 -0.1523438,0.1171875 -0.28125,0.2109375 V -1.8178672 l 0.1171875,-0.082031 c 0.09375,-0.070312 0.140625,-0.1054688 0.1289062,-0.1054688 0,-0.023437 -0.011719,-0.035156 -0.046875,-0.070312 l -0.421875,-0.375 -0.2695312,0.328125 H 3.4701797 L 2.9662734,-2.3452109 c 0.035156,0.2695312 0.058594,0.4570312 0.070312,0.5742187 0,0.1289063 -0.011719,0.3398438 -0.035156,0.6328125 -0.035156,0.29296876 -0.058594,0.51562501 -0.09375,0.69140626 -0.035156,0.1640625 -0.1054688,0.3515625 -0.1757813,0.57421875 -0.09375,0.22265625 -0.1640625,0.36328125 -0.2226562,0.421875 -0.058594,0.0820313 -0.1289063,0.15234375 -0.2226563,0.2578125 z m 0.4335938,-5.1914063 0.4335937,0.3515625 0.1992188,-0.2929687 h 1.9335937 l -0.011719,0.2578125 c 0.1757812,-0.070312 0.3398437,-0.140625 0.46875,-0.234375 l -0.035156,-0.5742188 v -0.84375 l 0.1640625,-0.140625 c 0.046875,-0.035156 0.082031,-0.058594 0.082031,-0.082031 -0.011719,0 -0.058594,-0.035156 -0.140625,-0.070312 l -0.5742188,-0.234375 0.035156,0.8203125 0.011719,0.9375 H 4.2904922 v -2.0625 l 0.2109375,-0.1171875 c 0.046875,-0.035156 0.058594,-0.058594 0.058594,-0.070312 0,0 -0.035156,-0.023437 -0.082031,-0.046875 l -0.6445313,-0.2695313 0.058594,0.9375 v 1.6289063 h -0.75 v -1.171875 l 0.1640625,-0.1171875 c 0.035156,-0.023437 0.070312,-0.046875 0.070312,-0.070312 -0.011719,-0.011719 -0.035156,-0.023437 -0.09375,-0.058594 l -0.609375,-0.2460937 0.046875,0.703125 v 0.6914062 c 0,0.082031 -0.011719,0.1523438 -0.035156,0.1875 -0.011719,0.023437 -0.035156,0.058594 -0.082031,0.09375 z m 0.058594,0.9609375 0.3164063,0.3632813 0.09375,-0.070312 c 0.035156,-0.023437 0.1757812,-0.046875 0.4335937,-0.046875 h 1.734375 c 0.023437,0 0.046875,-0.011719 0.058594,-0.035156 0.011719,-0.023437 0,-0.046875 -0.035156,-0.082031 l -0.4921875,-0.46875 -0.3867187,0.375 H 3.2240859 Z m 3.3984375,-0.3867187 0.035156,0.6210937 c 0.011719,0.2226563 0.035156,0.4921875 0.082031,0.8203125 0.035156,0.328125 0.070312,0.5859375 0.1054688,0.75 0.046875,0.1757813 0.1171875,0.44531251 0.234375,0.82031251 -0.3398438,0.421875 -0.7265625,0.78515625 -1.1484375,1.078125 -0.4335938,0.28125 -0.7851563,0.4921875 -1.0429688,0.60937499 l -0.503906,0.2226563 c -0.023437,0 -0.046875,0.023437 -0.09375,0.046875 l 0.011719,0.140625 c 0.609375,-0.1875 1.1015625,-0.3867188 1.4296875,-0.58593754 0.328125,-0.1875 0.6328125,-0.38671875 0.890625,-0.57421875 0.2695313,-0.19921875 0.4921875,-0.38671875 0.65625,-0.5625 0.09375,0.15234375 0.2226563,0.3515625 0.421875,0.62109375 0.1875,0.24609375 0.3164063,0.43359375 0.4101563,0.5390625 0.082031,0.10546874 0.1992187,0.22265624 0.3515625,0.33984374 0.1523437,-0.1171875 0.2929687,-0.1875 0.4101562,-0.2226562 0.1171875,-0.011719 0.28125,0 0.5039063,0.023437 V 0.97119531 C 8.4975234,0.85400781 8.2865859,0.73682031 8.0873672,0.63135156 7.8998672,0.50244531 7.6889297,0.32666406 7.4545547,0.09228906 c -0.2226563,-0.234375 -0.4101563,-0.48046875 -0.5390625,-0.7265625 0.09375,-0.2109375 0.1992187,-0.45703126 0.2929687,-0.74999996 0.09375,-0.28125 0.1757813,-0.5507813 0.234375,-0.7851563 0.058594,-0.2578125 0.1054688,-0.5390625 0.1523438,-0.890625 0.046875,-0.3515625 0.082031,-0.5859375 0.09375,-0.7382812 0.011719,-0.1523438 0.035156,-0.3046875 0.035156,-0.4335938 h 0.8203125 c 0.035156,0 0.058594,-0.011719 0.070312,-0.023437 0.011719,-0.011719 0,-0.035156 -0.023437,-0.082031 L 8.087367,-4.8530227 7.7006482,-4.4428665 h -1.40625 L 6.493617,-4.9702102 c 0,-0.011719 0.046875,-0.1640625 0.140625,-0.4570313 0.09375,-0.2929687 0.1757812,-0.5507812 0.2578125,-0.7734375 l 0.2226562,-0.1054687 c 0.023437,-0.011719 0.035156,-0.023437 0.035156,-0.058594 0.011719,-0.023437 -0.011719,-0.046875 -0.070312,-0.070312 l -0.6914063,-0.3398437 -0.035156,0.2695312 c -0.023437,0.1757813 -0.082031,0.4570313 -0.1523438,0.8554688 -0.082031,0.4101562 -0.1757812,0.7851562 -0.2695312,1.1601562 -0.1054688,0.3632813 -0.1992188,0.6914063 -0.3164063,0.9726563 -0.1054687,0.2929687 -0.2695312,0.6914062 -0.4804687,1.21875 l 0.09375,0.082031 c 0.1171875,-0.1523437 0.2226562,-0.3398437 0.328125,-0.5507812 0.1054687,-0.1992188 0.2460937,-0.4921875 0.4101563,-0.8437508 z m 1.2304688,-0.6210938 -0.046875,0.65625 c 0,0.234375 -0.035156,0.5039063 -0.070312,0.8320313 -0.046875,0.3164062 -0.082031,0.5273437 -0.1054688,0.6210937 -0.011719,0.1054688 -0.046875,0.2695313 -0.1054687,0.46875 -0.058594,0.2226563 -0.09375,0.3398438 -0.1171875,0.3984375 -0.023437,0.035156 -0.058594,0.09375 -0.082031,0.1289063 -0.082031,-0.1875 -0.1523437,-0.421875 -0.1992187,-0.6679688 C 6.4115868,-2.0405234 6.364712,-2.2866172 6.3295558,-2.5327109 6.2826808,-2.7788047 6.2475248,-3.0717734 6.224087,-3.3881797 6.188931,-3.7163047 6.165493,-3.9272422 6.165493,-3.9975547 c 0.011719,-0.09375 0.011719,-0.1640625 0.023437,-0.234375 z m 2.1328125,2.0742188 0.5039062,0.6445312 0.2226558,-0.2460937 c 0.09375,-0.1289063 0.339844,-0.328125 0.703125,-0.6210938 v 2.73046876 c 0,0.1640625 -0.02344,0.28125 -0.05859,0.31640625 -0.03516,0.046875 -0.128906,0.0703125 -0.28125,0.0703125 -0.140625,0 -0.4218743,-0.0234375 -0.8320305,-0.0820313 l -0.023437,0.1171875 0.5273435,0.1640625 c 0.164063,0.046875 0.269532,0.11718749 0.328125,0.23437499 0.05859,0.1171875 0.09375,0.2226562 0.117188,0.3398437 0.246094,-0.082031 0.410156,-0.1523437 0.492187,-0.234375 0.08203,-0.070312 0.140625,-0.1523437 0.164063,-0.2578125 0.03516,-0.0820311 0.04687,-0.24609369 0.04687,-0.48046869 V -2.6850547 l 0.972656,-0.8085937 -0.05859,-0.1171875 -0.914062,0.5390625 v -1.5 h 1.160156 c 0.04687,0 0.08203,-0.011719 0.08203,-0.035156 0.01172,-0.023437 0,-0.046875 -0.02344,-0.082031 l -0.609375,-0.5976563 -0.386719,0.4921875 h -0.222656 v -1.5234375 l 0.199219,-0.1757812 c 0.07031,-0.058594 0.105468,-0.09375 0.105468,-0.1054688 0,-0.023437 -0.04687,-0.046875 -0.128906,-0.082031 l -0.714844,-0.28125 0.05859,1.2421875 v 0.9257812 h -0.75 l -0.609375,-0.011719 0.3164062,0.3984375 0.140625,-0.09375 c 0.070312,-0.046875 0.1992188,-0.070312 0.3867188,-0.070312 h 0.515625 v 1.7695312 C 10.431113,-2.6381788 9.9389255,-2.4155225 9.3295505,-2.15771 Z m 2.132812,3.3984375 c 0.527344,-0.29296879 0.925781,-0.53906254 1.195313,-0.73828129 0.28125,-0.2109375 0.527343,-0.41015625 0.75,-0.62109375 0.234375,-0.2109375 0.527343,-0.50390625 0.878906,-0.87890625 v 1.59375 l -0.05859,0.97265629 c 0.175781,-0.046875 0.363281,-0.1289063 0.597656,-0.2460938 L 14.755336,0.56103906 V -1.2084922 h 0.105469 l 0.210937,0.41015626 c 0.04687,0.10546875 0.128906,0.24609375 0.246094,0.38671875 0.105469,0.1640625 0.222656,0.3046875 0.351562,0.4453125 0.140625,0.140625 0.316407,0.29296875 0.539063,0.46875 0.222656,0.1640625 0.410156,0.3046875 0.5625,0.38671875 0.105469,-0.15234375 0.199219,-0.2578125 0.292969,-0.31640625 0.08203,-0.0585938 0.28125,-0.09375 0.5625,-0.10546875 v -0.1171875 c -0.363282,-0.0703125 -0.773438,-0.17578125 -1.242188,-0.3515625 -0.445312,-0.17578125 -0.761719,-0.3984375 -0.960937,-0.66796875 -0.1875,-0.28125 -0.304688,-0.45703121 -0.351563,-0.53906251 h 2.460938 c 0.05859,0 0.08203,0 0.09375,-0.023437 0.01172,-0.011719 -0.01172,-0.046875 -0.05859,-0.09375 l -0.585938,-0.6445312 -0.421875,0.5625 H 14.75534 v -0.328125 l 0.152344,-0.140625 c 0.07031,-0.058594 0.09375,-0.09375 0.09375,-0.09375 0,-0.011719 -0.04687,-0.035156 -0.140625,-0.070312 l -0.632813,-0.2460938 0.03516,0.5507813 v 0.328125 h -2.109375 l -0.65625,-0.023437 0.328125,0.375 0.140625,-0.070312 c 0.05859,-0.046875 0.234375,-0.082031 0.527344,-0.082031 h 1.242188 c -0.199219,0.32812501 -0.457032,0.65625001 -0.785157,1.00781251 -0.328125,0.3515625 -0.609375,0.62109375 -0.878906,0.80859375 -0.257812,0.19921875 -0.492187,0.36328125 -0.679687,0.50390624 z m 0.808594,-5.625 0.03516,0.7382812 v 0.8203125 l -0.03516,0.8320313 c 0.199219,-0.046875 0.328125,-0.082031 0.351562,-0.1054688 0.02344,-0.011719 0.07031,-0.035156 0.128907,-0.058594 v -0.375 h 0.949218 v 0.2460937 c 0.222657,-0.09375 0.375,-0.1757812 0.46875,-0.234375 l -0.03516,-0.6210937 V -3.716305 l 0.175781,-0.1054687 c 0.04687,-0.023437 0.07031,-0.046875 0.07031,-0.070312 0,-0.011719 -0.03516,-0.046875 -0.09375,-0.1054688 l -0.398438,-0.328125 -0.257812,0.2578125 H 12.77486 Z m 0.480469,1.6289062 v -1.1015625 h 0.949218 v 1.1015625 z m 0.316406,-4.0078125 0.05859,0.7382813 v 0.8203125 l -0.05859,0.796875 c 0.210937,-0.070312 0.375,-0.140625 0.503906,-0.234375 v -0.2460938 h 1.945313 v 0.4804688 c 0.1875,-0.070312 0.363281,-0.1523438 0.515625,-0.234375 l -0.05859,-0.5507813 v -0.8671875 l 0.1875,-0.1523437 c 0.05859,-0.046875 0.08203,-0.070312 0.08203,-0.082031 0.01172,-0.023437 -0.01172,-0.046875 -0.08203,-0.09375 l -0.421875,-0.375 -0.328125,0.375 h -1.769531 z m 2.449219,1.6640625 h -1.945313 v -1.078125 h 1.945313 z m -0.550782,0.7734375 0.04687,0.7851563 v 0.5859375 l -0.04687,0.6796875 0.128907,-0.035156 0.222656,-0.070312 c 0.02344,-0.011719 0.04687,-0.023437 0.09375,-0.046875 v -0.1640625 h 1.148437 v 0.2695313 c 0.234375,-0.082031 0.398438,-0.140625 0.503907,-0.1757813 l -0.07031,-0.6679687 v -0.5859375 l 0.1875,-0.1523438 c 0.05859,-0.046875 0.04687,-0.1054687 -0.02344,-0.1757812 l -0.386719,-0.3515625 -0.292969,0.3515625 H 15.47018 Z m 0.445313,1.5234375 v -1.0664062 h 1.148437 v 1.0664062 z m 4.59668,-1.59375 0.269531,-0.4921875 c 0.02344,-0.023437 0.105469,-0.1992187 0.257812,-0.515625 0.140625,-0.3046875 0.28125,-0.5976562 0.398438,-0.8320312 l 0.222656,-0.140625 c 0.09375,-0.046875 0.140625,-0.070312 0.128906,-0.082031 0,0 -0.04687,-0.023437 -0.128906,-0.070312 l -0.820312,-0.3867187 -0.08203,0.4804687 c -0.02344,0.1640625 -0.105468,0.4570313 -0.257812,0.890625 -0.152344,0.4335938 -0.28125,0.7734375 -0.386719,1.0195313 -0.105469,0.234375 -0.246094,0.5390625 -0.421875,0.9023437 -0.175781,0.3515625 -0.316406,0.6210938 -0.433594,0.8085938 -0.105468,0.1992187 -0.269531,0.4335937 -0.480468,0.7382812 l 0.08203,0.070312 c 0.269531,-0.2929687 0.46875,-0.5273437 0.597656,-0.703125 0.128906,-0.1640625 0.410156,-0.5507812 0.832031,-1.1601562 V 0.17432061 L 19.75045,1.5219769 c 0.257813,-0.09375 0.46875,-0.1992188 0.609375,-0.3164063 L 20.312953,0.15088281 V -3.8569297 l 0.199219,-0.1289062 c 0.03516,-0.035156 0.07031,-0.058594 0.07031,-0.082031 0,-0.011719 -0.03516,-0.035156 -0.09375,-0.070312 z m 2.601562,-2.5898437 c -0.128906,0.4453125 -0.246094,0.8203125 -0.363281,1.1367187 -0.117188,0.3164063 -0.328125,0.8085938 -0.667969,1.4765625 -0.328125,0.65625 -0.703125,1.2539063 -1.148437,1.7929688 l 0.08203,0.09375 c 0.269531,-0.28125 0.457031,-0.46875 0.574219,-0.609375 0.105468,-0.1289063 0.257812,-0.3046875 0.410156,-0.515625 0.164062,-0.2226563 0.457031,-0.6445313 0.902344,-1.2890625 h 0.433593 v 5.05078121 l -0.07031,1.37109379 c 0.304687,-0.058594 0.503906,-0.1640625 0.632812,-0.28125 l -0.04687,-1.14843754 v -1.01953125 h 3.046875 c 0.02344,0 0.03516,-0.0117188 0.04687,-0.0117188 0.01172,-0.0117188 -0.02344,-0.046875 -0.05859,-0.09375 l -0.714844,-0.5976563 -0.46875,0.5039063 h -1.851563 v -1.7695313 h 2.660157 c 0.07031,0 0.105468,-0.011719 0.117187,-0.023437 0,-0.023437 -0.01172,-0.046875 -0.05859,-0.082031 l -0.714843,-0.609375 -0.398438,0.5039062 h -1.605469 v -1.6640625 l 0.117188,-0.1289062 h 3.09375 c 0.05859,0 0.08203,0 0.09375,-0.023437 0,-0.023437 -0.03516,-0.058594 -0.08203,-0.09375 l -0.667969,-0.6445313 -0.515625,0.5625 H 22.49265 l 0.597656,-1.2070312 0.316406,-0.1289063 c 0.04687,-0.023437 0.08203,-0.035156 0.08203,-0.035156 0,-0.011719 -0.02344,-0.035156 -0.08203,-0.070312 z m 4.570313,4.5585937 0.05859,0.058594 c 0.117188,-0.082031 0.246094,-0.2109375 0.410157,-0.3984375 0.152343,-0.1757813 0.46875,-0.5742188 0.9375,-1.1835938 V 0.05713301 L 28.516078,1.463383 c 0.152344,-0.035156 0.28125,-0.070312 0.351563,-0.1171875 0.09375,-0.035156 0.1875,-0.1054687 0.292968,-0.1875 L 29.113734,0.17432031 V -4.1967734 l 0.246094,-0.1171875 c 0.04687,-0.023437 0.07031,-0.046875 0.07031,-0.070312 0,-0.023437 -0.02344,-0.058594 -0.07031,-0.082031 l -0.386719,-0.1875 0.28125,-0.4804687 0.398438,-0.75 c 0.04687,-0.1054688 0.140625,-0.2695313 0.257812,-0.4804688 l 0.246094,-0.082031 c 0.07031,-0.023437 0.09375,-0.035156 0.09375,-0.058594 -0.01172,-0.011719 -0.04687,-0.035156 -0.105469,-0.082031 l -0.738281,-0.4101563 c -0.1875,0.6796875 -0.421875,1.3359375 -0.691406,1.96875 -0.28125,0.6328125 -0.585938,1.1953125 -0.925781,1.6640625 -0.316407,0.4804688 -0.527344,0.7851563 -0.609375,0.9375 z m 2.660156,-3.0117187 0.28125,0.3515625 c 0.257812,-0.082031 0.539062,-0.1171875 0.84375,-0.1171875 h 4.535156 c 0.09375,0 0.152344,-0.011719 0.152344,-0.046875 0.01172,-0.023437 -0.01172,-0.070312 -0.08203,-0.140625 l -0.609375,-0.5625 -0.445313,0.5390625 h -1.839844 l 0.152344,-0.1757813 c 0.04687,-0.035156 0.08203,-0.1523437 0.09375,-0.3398437 0,-0.1757813 -0.105469,-0.3515625 -0.339844,-0.5273438 -0.246093,-0.1640625 -0.503906,-0.328125 -0.785156,-0.4804687 l -0.04687,0.058594 c 0.175781,0.2226563 0.304688,0.375 0.363281,0.4921875 0.07031,0.1054688 0.117188,0.2460938 0.140625,0.421875 l 0.05859,0.375 c 0,0.046875 0.01172,0.082031 0.02344,0.1054688 0,0.011719 0.03516,0.046875 0.07031,0.070312 h -1.78125 z m 0.445312,1.265625 0.316407,0.3632812 c 0.28125,-0.09375 0.550781,-0.140625 0.832031,-0.140625 h 3.351562 c 0.07031,0 0.105469,0 0.105469,-0.011719 0.01172,-0.023437 -0.02344,-0.058594 -0.105469,-0.140625 l -0.515625,-0.515625 -0.433593,0.46875 h -2.894532 z m 0.398438,1.6640625 c 0.164062,-0.058594 0.328125,-0.09375 0.515625,-0.1171875 0.1875,-0.023437 0.328125,-0.035156 0.410156,-0.035156 h 3.175781 c 0.04687,0 0.08203,-0.011719 0.09375,-0.035156 0.01172,-0.035156 0,-0.058594 -0.04687,-0.1054688 l -0.621093,-0.515625 -0.386719,0.4570313 h -2.671875 l -0.796875,-0.035156 z m 0.597656,0.8671875 -0.679687,-0.3984375 0.04687,0.7148437 v 1.71093751 l -0.04687,1.06640629 0.140625,-0.023437 0.152343,-0.070312 c 0.117188,-0.035156 0.175782,-0.058594 0.199219,-0.070312 0.01172,-0.011719 0.03516,-0.046875 0.08203,-0.082031 V 0.38525781 H 33.83639 V 1.3227578 c 0.234375,-0.011719 0.375,-0.035156 0.445312,-0.082031 0.05859,-0.035156 0.117188,-0.082031 0.152344,-0.1289063 L 34.387172,0.24463281 V -1.2788047 l 0.234375,-0.1523437 c 0.05859,-0.046875 0.09375,-0.082031 0.09375,-0.1171875 0,-0.011719 -0.02344,-0.035156 -0.09375,-0.082031 l -0.539063,-0.4101562 -0.316406,0.3984375 z M 31.176234,0.17432031 V -1.4311484 h 2.660157 v 1.60546871 z m 8.323243,-3.07031251 h 4.933593 c 0.04687,0 0.07031,-0.011719 0.08203,-0.023437 0.01172,-0.023437 -0.01172,-0.046875 -0.03516,-0.082031 l -0.65625,-0.65625 -0.492187,0.5390625 H 37.02682 l -0.984375,-0.023437 0.421875,0.3984375 0.199219,-0.082031 c 0.09375,-0.046875 0.269531,-0.070312 0.550781,-0.070312 h 1.664063 l -0.164063,0.3632813 c -0.117187,0.234375 -0.199218,0.4101562 -0.28125,0.5039062 -0.08203,0.1054688 -0.152343,0.1757813 -0.234375,0.2226563 -0.08203,0.046875 -0.175781,0.1054687 -0.28125,0.140625 l 0.632813,0.5273437 0.328125,-0.3398437 h 3.433594 l -0.28125,0.73828121 c 0,0.046875 -0.08203,0.22265625 -0.210938,0.52734375 -0.140625,0.29296875 -0.257812,0.515625 -0.386719,0.65625 -0.128906,0.140625 -0.328125,0.22265625 -0.621093,0.234375 -0.08203,0 -0.269532,-0.0117188 -0.539063,-0.0585938 -0.257812,-0.046875 -0.539062,-0.10546875 -0.832031,-0.1875 l -0.02344,0.140625 0.398438,0.15234375 c 0.304687,0.1171875 0.480469,0.2109375 0.527344,0.29296869 0.07031,0.082031 0.105468,0.1523438 0.128906,0.234375 0.02344,0.070312 0.03516,0.1523438 0.05859,0.2460938 0.457031,-0.140625 0.773437,-0.2578125 0.960937,-0.375 0.1875,-0.1171875 0.375,-0.28124999 0.5625,-0.51562499 0.175781,-0.24609375 0.457031,-0.8671875 0.832031,-1.88671881 l 0.28125,-0.1523437 c 0.07031,-0.035156 0.09375,-0.070312 0.105469,-0.082031 0,0 -0.02344,-0.035156 -0.07031,-0.070312 l -0.632813,-0.5039063 -0.316406,0.3867188 h -3.339844 z m -1.699219,-0.5273437 c 0.257812,-0.09375 0.445312,-0.1875 0.574219,-0.2578125 v -0.46875 h 3.703125 v 0.5859375 c 0.257812,-0.082031 0.46875,-0.1875 0.632812,-0.28125 l -0.05859,-0.8320313 v -1.3828125 l 0.210938,-0.1640625 c 0.07031,-0.046875 0.105469,-0.09375 0.117187,-0.09375 0,-0.011719 -0.03516,-0.046875 -0.128906,-0.1289062 l -0.457031,-0.3984375 -0.363281,0.4101562 h -3.574219 l -0.65625,-0.328125 0.04687,0.8085938 v 1.5585937 z m 0.574219,-0.9375 v -1.8632813 h 3.703125 v 1.8632813 z M 9.5170547,11.837406 l 0.082031,0.09375 C 10.020961,11.61475 10.419398,11.286625 10.78268,10.899906 11.15768,10.548344 11.462367,10.11475 11.731898,9.646 12.00143,9.1655312 12.259242,8.6499062 12.493617,8.1108437 h 0.257813 l 0.140625,0.3984375 0.09375,0.28125 c 0.04687,0.1289063 0.117187,0.3046875 0.234375,0.5507813 0.117187,0.234375 0.210937,0.421875 0.292968,0.5390625 0.08203,0.128906 0.175782,0.269531 0.304688,0.421875 l -0.375,0.375 c -0.105469,0.117187 -0.375,0.304687 -0.796875,0.527344 -0.421875,0.234375 -0.796875,0.421875 -1.136719,0.550781 -0.339844,0.140625 -0.738281,0.257812 -1.207031,0.386719 l 0.04687,0.140625 c 0.65625,-0.128907 1.253906,-0.292969 1.769531,-0.46875 0.539063,-0.175782 0.949219,-0.375 1.253906,-0.574219 0.316407,-0.210938 0.585938,-0.398438 0.808594,-0.5625 0.363281,0.269531 0.667969,0.46875 0.914063,0.609375 0.257812,0.128906 0.796875,0.339844 1.628906,0.644531 l 0.07031,-0.140625 c 0.02344,-0.08203 0.09375,-0.152344 0.199219,-0.222656 0.117188,-0.08203 0.292969,-0.128906 0.539063,-0.175781 v -0.128907 c -0.433594,-0.02344 -0.773438,-0.05859 -1.019532,-0.105468 -0.246093,-0.07031 -0.574218,-0.152344 -0.984375,-0.292969 -0.398437,-0.128906 -0.75,-0.304688 -1.054687,-0.539063 L 15.024867,9.505375 C 15.130336,9.36475 15.352992,8.9663125 15.704555,8.3217812 L 15.962367,8.192875 C 16.067836,8.1577187 16.114711,8.1342812 16.12643,8.1225625 16.138148,8.1108437 16.079555,8.05225 15.985805,7.9585 l -0.539063,-0.4570313 -0.375,0.3984375 H 12.575648 C 12.681117,7.536625 12.810023,7.1264687 12.93893,6.7045937 h 4.359375 c 0.05859,0 0.09375,-0.011719 0.117187,-0.046875 0.01172,-0.023437 -0.02344,-0.082031 -0.117187,-0.1757812 l -0.621094,-0.609375 -0.5625,0.6210937 H 12.985805 L 13.12643,5.9663125 13.325648,5.0639687 c 0.02344,-0.082031 0.05859,-0.2109375 0.105469,-0.375 l 0.1875,-0.1640625 C 13.712367,4.4545937 13.759242,4.4194375 13.759242,4.396 13.747523,4.3725625 13.700648,4.3374062 13.618617,4.30225 L 12.810023,4.0092812 12.798305,4.442875 c -0.01172,0.1523437 -0.03516,0.3515625 -0.05859,0.6210937 -0.02344,0.2460938 -0.05859,0.4804688 -0.09375,0.6914063 -0.04687,0.1992187 -0.105469,0.4570312 -0.1875,0.7382812 H 10.81784 l 0.550781,-1.3710937 0.234375,-0.1289063 c 0.09375,-0.070312 0.140625,-0.09375 0.140625,-0.1171875 -0.01172,0 -0.04687,-0.035156 -0.128906,-0.082031 l -0.679688,-0.3632813 -0.04687,0.234375 c -0.01172,0.058594 -0.04687,0.1875 -0.09375,0.375 -0.0586,0.1757811 -0.117196,0.3867186 -0.199227,0.6328123 -0.07031,0.234375 -0.140625,0.4101563 -0.234375,0.515625 -0.07031,0.1054688 -0.152344,0.1757813 -0.210938,0.1992188 -0.05859,0.035156 -0.128906,0.046875 -0.2109373,0.070312 l 0.5742183,0.5976562 0.339844,-0.3515625 h 1.570313 l -0.08203,0.3046875 C 12.212367,7.48975 12.048305,7.9585 11.849086,8.42725 11.649867,8.8842812 11.415492,9.3530312 11.15768,9.8452187 c -0.269532,0.4804683 -0.527344,0.8671873 -0.808594,1.1718753 -0.28125,0.28125 -0.5507813,0.5625 -0.8320313,0.820312 z M 14.06393,9.9858437 13.829555,9.7163125 C 13.735805,9.6342812 13.606898,9.4585 13.466273,9.2124062 13.31393,8.9545937 13.22018,8.7670937 13.138148,8.61475 13.091273,8.4624062 13.020961,8.2983437 12.950648,8.1108437 h 2.15625 c -0.105468,0.28125 -0.246093,0.5859375 -0.433593,0.9257813 -0.175782,0.328125 -0.304688,0.5507812 -0.386719,0.65625 -0.07031,0.1054687 -0.152344,0.2109375 -0.222656,0.2929687 z m 0.292968,-5.5664062 -0.03516,0.1054687 0.375,0.2695313 c 0.05859,0.046875 0.152344,0.1171875 0.269531,0.2578125 0.117188,0.1289062 0.199219,0.2460937 0.257813,0.3515625 L 15.399867,5.7085 c 0.07031,0.1054687 0.117188,0.1523437 0.164063,0.140625 0.04687,0 0.09375,-0.023437 0.128906,-0.058594 0.04687,-0.035156 0.08203,-0.09375 0.117187,-0.1757812 0.07031,-0.1640625 0.07031,-0.3164063 0,-0.4453125 C 15.739713,5.0288123 15.587367,4.9116248 15.364711,4.806156 15.130336,4.7006873 14.802211,4.571781 14.356898,4.4194375 Z m 7.819336,7.2421875 h -3.257812 l -0.65625,-0.01172 0.339844,0.339844 c 0.117187,-0.03516 0.246093,-0.05859 0.386718,-0.08203 0.128907,-0.01172 0.222657,-0.02344 0.257813,-0.02344 h 7.019531 c 0.04687,0 0.07031,-0.01172 0.08203,-0.03516 0,-0.02344 -0.02344,-0.05859 -0.07031,-0.105469 l -0.644532,-0.6914 -0.503907,0.609375 H 22.703578 V 9.2124062 h 2.53125 c 0.08203,0 0.128906,-0.011719 0.140625,-0.023437 0.01172,-0.035156 -0.01172,-0.070312 -0.07031,-0.1289062 l -0.5625,-0.609375 -0.457032,0.5390625 H 22.70358 v -2.25 h 3 c 0.07031,0 0.105469,-0.011719 0.117188,-0.035156 0.02344,-0.023437 0,-0.070312 -0.04687,-0.1289062 L 25.18796,5.978032 l -0.445312,0.5625 h -2.039063 l 0.01172,-1.8046875 0.234375,-0.1757812 c 0.105469,-0.082031 0.152344,-0.1289063 0.152344,-0.140625 -0.01172,0 -0.05859,-0.035156 -0.152344,-0.070312 L 22.152797,4.0444375 22.176234,5.005375 V 6.5405312 H 20.102016 L 20.359828,5.98975 c 0.03516,-0.058594 0.105469,-0.28125 0.246094,-0.6210938 l 0.234375,-0.1171875 c 0.04687,-0.023437 0.07031,-0.035156 0.09375,-0.070312 0,-0.011719 -0.03516,-0.035156 -0.105469,-0.082031 L 20.066859,4.7006875 19.914516,5.521 c -0.01172,0.082031 -0.08203,0.3046875 -0.1875,0.65625 -0.117188,0.3632812 -0.210938,0.6445312 -0.28125,0.8320312 -0.08203,0.2109375 -0.1875,0.4453125 -0.304688,0.7265625 -0.117187,0.2695313 -0.234375,0.4921875 -0.351562,0.6796875 -0.09375,0.1640625 -0.222657,0.3867188 -0.398438,0.6445313 l 0.09375,0.1054687 0.351563,-0.421875 c 0.175781,-0.1875 0.351562,-0.4335937 0.527343,-0.7617187 0.199219,-0.3164063 0.421875,-0.7265625 0.65625,-1.2421875 h 2.15625 v 2.25 h -1.875 l -0.679687,-0.011719 0.316406,0.328125 c 0.269531,-0.058594 0.480469,-0.09375 0.632813,-0.09375 h 1.605468 z M 29.992641,7.9350625 29.746547,8.2280312 C 29.512172,8.4858437 29.160609,8.80225 28.656703,9.1538125 28.176234,9.5170937 27.637172,9.8217812 27.074672,10.079594 l 0.01172,0.140625 c 0.316406,-0.105469 0.550781,-0.1875 0.75,-0.2695315 0.175781,-0.082031 0.375,-0.1640625 0.609375,-0.28125 v 1.9687495 l -0.04687,0.832032 0.292968,-0.09375 c 0.07031,-0.01172 0.105469,-0.02344 0.128907,-0.03516 0.02344,0 0.05859,-0.02344 0.105468,-0.07031 v -0.644531 h 1.3125 V 12.271 c 0.199219,-0.04687 0.316407,-0.07031 0.351563,-0.08203 0.04687,-0.01172 0.105469,-0.03516 0.199219,-0.07031 l -0.04687,-0.679687 -0.01172,-1.605469 0.1875,-0.1640625 c 0.04687,-0.035156 0.07031,-0.070312 0.07031,-0.070312 0,-0.023437 -0.03516,-0.058594 -0.105468,-0.1054688 L 30.402805,9.1655357 30.121555,9.528817 H 28.984828 L 28.867641,9.4467812 29.090297,9.2944375 29.523891,8.98975 c 0.304687,-0.2226563 0.679687,-0.5859375 1.089843,-1.0664063 l 1.59375,0.011719 0.375,0.5039062 c 0.03516,0.058594 0.152344,0.1640625 0.339844,0.328125 0.1875,0.1640625 0.480469,0.3515625 0.84375,0.5742188 l -0.164062,0.1523437 h -1.183594 l -0.574219,-0.3046875 0.04687,0.8437501 v 1.453125 l -0.04687,0.9375 c 0.246094,-0.05859 0.410156,-0.128907 0.492188,-0.210938 v -0.585937 h 1.394531 v 0.609375 l 0.08203,-0.03516 0.199219,-0.08203 c 0.07031,-0.02344 0.152344,-0.05859 0.246094,-0.105469 l -0.04687,-0.644531 V 9.8686562 l 0.105468,-0.070312 c 0.03516,-0.035156 0.04687,-0.046875 0.05859,-0.070312 0.01172,-0.011719 -0.02344,-0.046875 -0.09375,-0.09375 0.105469,0.046875 0.304688,0.1171875 0.632813,0.2578125 0.08203,-0.1640625 0.152343,-0.2578125 0.210937,-0.2929687 l 0.210938,-0.1054688 c 0.09375,-0.046875 0.175781,-0.058594 0.269531,-0.058594 L 35.617641,9.317875 C 35.019984,9.2592812 34.445766,9.1186562 33.906703,8.9194375 33.367641,8.6967812 33.004359,8.5092812 32.828578,8.3569375 32.664516,8.192875 32.523891,8.05225 32.418422,7.9350625 h 2.824219 c 0.08203,0 0.117187,-0.011719 0.140625,-0.035156 0,-0.023437 -0.02344,-0.058594 -0.07031,-0.1054687 l -0.714844,-0.6210938 -0.421875,0.5625 h -0.890625 c 0.105469,-0.1523437 0.152344,-0.28125 0.152344,-0.3984375 0,-0.070312 -0.03516,-0.1640625 -0.105469,-0.2929687 C 33.250457,6.938969 32.93405,6.8217815 32.37155,6.7163128 l -0.05859,0.09375 c 0.1875,0.1523437 0.328125,0.28125 0.433594,0.3867187 0.105469,0.1171875 0.199219,0.2929688 0.292969,0.5390625 h -2.25 L 31.070766,7.349125 31.316859,7.0327187 C 31.340297,6.9858437 31.398891,6.92725 31.469203,6.8335 l 0.246094,-0.046875 c 0.07031,-0.011719 0.105469,-0.035156 0.117187,-0.046875 0,-0.023437 -0.03516,-0.058594 -0.117187,-0.1054688 l -0.679688,-0.421875 -0.117187,0.3046875 c -0.02344,0.082031 -0.105469,0.2460938 -0.269531,0.4921875 -0.140625,0.234375 -0.316407,0.4804688 -0.492188,0.7265625 h -2.34375 l -0.667969,-0.035156 0.304688,0.375 c 0.234375,-0.09375 0.539062,-0.140625 0.902344,-0.140625 z M 28.926234,11.438969 V 9.7280312 h 1.3125 v 1.7109378 z m 3.410157,-0.02344 V 9.692875 h 1.394531 v 1.722656 z m -3.960938,-7.0781248 0.03516,0.6796875 v 1.3828125 l -0.03516,0.6679688 0.140625,-0.035156 0.152344,-0.058594 c 0.08203,-0.023437 0.152344,-0.058594 0.222656,-0.1171875 V 6.36475 h 1.347656 v 0.4453125 c 0.269532,-0.070312 0.457032,-0.140625 0.550782,-0.1992188 l -0.04687,-0.5859375 v -1.03125 l 0.199218,-0.1992187 c 0.04687,-0.023437 0.07031,-0.046875 0.07031,-0.070312 l -0.105469,-0.082031 -0.480469,-0.375 -0.269531,0.3984375 h -1.21875 z m 0.515625,1.8164063 V 4.8764687 h 1.347656 v 1.2773438 z m 3.164063,-1.8632813 0.04687,0.6210938 V 6.0952187 L 32.055141,6.73975 c 0.164062,-0.046875 0.339843,-0.1054688 0.503906,-0.1875 v -0.1875 h 1.464844 v 0.375 c 0.269531,-0.09375 0.410156,-0.1523438 0.445312,-0.1523438 0.02344,-0.011719 0.04687,-0.035156 0.08203,-0.058594 L 34.504359,5.942875 V 4.9467812 l 0.199219,-0.1640625 c 0.04687,-0.035156 0.07031,-0.058594 0.07031,-0.09375 0,-0.023437 -0.03516,-0.058594 -0.117188,-0.1171875 L 34.176234,4.255375 33.906703,4.6420937 h -1.207031 z m 0.503906,1.8632813 v -1.3125 h 1.464844 v 1.3125 z m 0,0"
       style="fill:#000000;fill-opacity:1;fill-rule:nonzero;stroke:none"
       aria-label="微操作信号&#10;发生器"
       transform="matrix(1.3333333,0,0,1.3333333,178.252,153.63867)" />
    <path
       id="path54"
       d="M -85.04022,-7.08713 V -127.56088 H 99.21342 V -7.08713 Z"
       style="fill:none;stroke:#000000;stroke-width:0.3985;stroke-linecap:butt;stroke-linejoin:miter;stroke-miterlimit:10;stroke-dasharray:2.98883, 2.98883;stroke-dashoffset:0;stroke-opacity:1"
       transform="matrix(1.3333333,0,0,-1.3333333,113.65067,20.282667)" />
  </g>
</svg>
