<?xml version="1.0" encoding="UTF-8" standalone="no"?>
<!-- Created with Inkscape (http://www.inkscape.org/) -->

<svg
   version="1.1"
   id="svg1"
   width="238.30667"
   height="189.86667"
   viewBox="0 0 238.30667 189.86667"
   sodipodi:docname="23-24-1-信号与系统-期中-解答6a.pdf"
   xmlns:inkscape="http://www.inkscape.org/namespaces/inkscape"
   xmlns:sodipodi="http://sodipodi.sourceforge.net/DTD/sodipodi-0.dtd"
   xmlns="http://www.w3.org/2000/svg"
   xmlns:svg="http://www.w3.org/2000/svg">
  <defs
     id="defs1" />
  <sodipodi:namedview
     id="namedview1"
     pagecolor="#ffffff"
     bordercolor="#000000"
     borderopacity="0.25"
     inkscape:showpageshadow="2"
     inkscape:pageopacity="0.0"
     inkscape:pagecheckerboard="0"
     inkscape:deskcolor="#d1d1d1">
    <inkscape:page
       x="0"
       y="0"
       inkscape:label="1"
       id="page1"
       width="238.30667"
       height="189.86667"
       margin="0"
       bleed="0" />
  </sodipodi:namedview>
  <g
     id="g1"
     inkscape:groupmode="layer"
     inkscape:label="1">
    <path
       id="path1"
       d="M -19.01045,-66.8561 V 75.54596 H 159.72208 V -66.8561 Z"
       style="fill:#ffffff;fill-opacity:1;fill-rule:nonzero;stroke:none"
       transform="matrix(1.3333333,0,0,-1.3333333,25.346667,100.72667)" />
    <path
       id="path2"
       d="M -8.5039,0 H 63.38182"
       style="fill:none;stroke:#000000;stroke-width:0.3985;stroke-linecap:butt;stroke-linejoin:miter;stroke-miterlimit:10;stroke-dasharray:none;stroke-opacity:1"
       transform="matrix(1.3333333,0,0,-1.3333333,25.346667,100.72667)" />
    <path
       id="path3"
       d="M -2.07224,2.39104 C -1.69365,0.95639 -0.84999,0.27895 0,0 -0.84999,-0.27895 -1.69365,-0.95639 -2.07224,-2.39104"
       style="fill:none;stroke:#000000;stroke-width:0.3985;stroke-linecap:round;stroke-linejoin:round;stroke-miterlimit:10;stroke-dasharray:none;stroke-opacity:1"
       transform="matrix(1.3333333,0,0,-1.3333333,110.12143,100.72667)" />
    <path
       id="path4"
       d="m 6.0241563,-3.7045859 c 0,-0.4453125 -0.1757813,-0.703125 -0.3984375,-0.703125 -0.2578125,0 -0.5273438,0.2460937 -0.5273438,0.46875 0,0.1054687 0.046875,0.2109375 0.1523438,0.3046875 0.1640625,0.140625 0.3515625,0.4101562 0.3515625,0.8320312 0,0.3984375 -0.1875,0.9726563 -0.5039063,1.4296875 -0.2929687,0.42187501 -0.6679687,0.76171876 -1.1367187,0.76171876 -0.5625,0 -0.8671875,-0.3515625 -0.9609375,-0.89062496 0.1054687,-0.2578125 0.3398437,-0.9023438 0.3398437,-1.1835938 0,-0.1171875 -0.046875,-0.2109375 -0.1875,-0.2109375 -0.070312,0 -0.1875,0.011719 -0.2578125,0.1640625 -0.1171875,0.1992188 -0.234375,0.84375 -0.234375,1.2070313 -0.328125,0.46875 -0.7265625,0.91406246 -1.359375,0.91406246 -0.65625,0 -0.8671875,-0.58593746 -0.8671875,-1.14843746 0,-1.2421875 1.0195313,-2.2851563 1.0195313,-2.4140625 0,-0.1171875 -0.082031,-0.1875 -0.1875,-0.1875 -0.1289063,0 -0.1992188,0.1289062 -0.2578125,0.2109375 -0.5039063,0.7382812 -0.89062505,1.921875 -0.89062505,2.8359375 0,0.67968746 0.234375,1.41796871 1.04296875,1.41796871 0.7148438,0 1.1835938,-0.4921875 1.5351563,-1.04296875 0.09375,0.57421875 0.4804687,1.04296875 1.1015625,1.04296875 0.7734375,0 1.2539062,-0.609375 1.6171875,-1.34765621 0.234375,-0.4921875 0.609375,-1.8515625 0.609375,-2.4609375 z m 0,0"
       style="fill:#000000;fill-opacity:1;fill-rule:nonzero;stroke:none"
       aria-label="ω"
       transform="matrix(1.3333333,0,0,1.3333333,106.01467,111.13867)" />
    <path
       id="path5"
       d="M 0,-8.5039 V 63.38182"
       style="fill:none;stroke:#000000;stroke-width:0.3985;stroke-linecap:butt;stroke-linejoin:miter;stroke-miterlimit:10;stroke-dasharray:none;stroke-opacity:1"
       transform="matrix(1.3333333,0,0,-1.3333333,25.346667,100.72667)" />
    <path
       id="path6"
       d="M -2.07224,2.39104 C -1.69365,0.95639 -0.84999,0.27895 0,0 -0.84999,-0.27895 -1.69365,-0.95639 -2.07224,-2.39104"
       style="fill:none;stroke:#000000;stroke-width:0.3985;stroke-linecap:round;stroke-linejoin:round;stroke-miterlimit:10;stroke-dasharray:none;stroke-opacity:1"
       transform="matrix(0,-1.3333333,-1.3333333,0,25.346667,15.951907)" />
    <g
       id="g6"
       aria-label="C&#10;n"
       transform="matrix(1.3333333,0,0,1.3333333,30.04,19.228)">
      <path
         id="path7"
         d="m 7.5696094,-6.9268594 c 0,-0.023437 -0.023437,-0.09375 -0.1054688,-0.09375 -0.035156,0 -0.046875,0.011719 -0.1523437,0.1171875 l -0.703125,0.7617188 c -0.082031,-0.140625 -0.5390625,-0.8789063 -1.6523438,-0.8789063 -2.2148437,0 -4.45312497,2.203125 -4.45312497,4.5117188 0,1.64062497 1.17187497,2.73046872 2.69531247,2.73046872 0.8671875,0 1.6171875,-0.3984375 2.1445313,-0.85546875 0.9375,-0.82031247 1.1015625,-1.72265627 1.1015625,-1.75781247 0,-0.1054688 -0.1054688,-0.1054688 -0.1171875,-0.1054688 -0.058594,0 -0.1171875,0.023437 -0.1289063,0.1054688 -0.09375,0.2929687 -0.3164062,0.9960937 -1.0078125,1.57031247 -0.6914062,0.5625 -1.3125,0.7265625 -1.8398437,0.7265625 -0.890625,0 -1.9453125,-0.515625 -1.9453125,-2.06249997 0,-0.5742188 0.2109375,-2.1914063 1.2070312,-3.3515625 0.609375,-0.703125 1.5351563,-1.2070313 2.4257813,-1.2070313 1.0195312,0 1.6054687,0.7734375 1.6054687,1.921875 0,0.3984375 -0.035156,0.4101563 -0.035156,0.5039063 0,0.1054687 0.1171875,0.1054687 0.1523437,0.1054687 0.1289063,0 0.1289063,-0.023437 0.1757813,-0.1992187 z m 0,0"
         style="fill:#000000;fill-opacity:1;fill-rule:nonzero;stroke:none" />
      <path
         id="path8"
         d="m 7.9768359,1.0594687 c -0.035156,0.082031 -0.070312,0.2578125 -0.070312,0.28125 0,0.1523438 0.1171875,0.2226563 0.234375,0.2226563 0.1289063,0 0.234375,-0.09375 0.2695313,-0.1523438 0.035156,-0.058594 0.09375,-0.2929687 0.1289062,-0.4335937 C 8.5744922,0.84853125 8.6448047,0.52040625 8.6916797,0.344625 8.7268359,0.19228125 8.7737109,0.0399375 8.8088672,-0.11240625 8.8908984,-0.405375 8.9026172,-0.46396875 9.1018359,-0.74521875 9.3010547,-1.0264688 9.6291797,-1.38975 10.144805,-1.38975 c 0.410156,0 0.410156,0.3632812 0.410156,0.4921875 0,0.421875 -0.292969,1.1953125 -0.410156,1.48828125 -0.07031,0.1875 -0.105469,0.2578125 -0.105469,0.375 0,0.36328125 0.304687,0.59765625 0.667969,0.59765625 0.691406,0 1.007812,-0.9609375 1.007812,-1.06640625 0,-0.09375 -0.09375,-0.09375 -0.117187,-0.09375 -0.09375,0 -0.105469,0.046875 -0.128907,0.1171875 -0.164062,0.56249995 -0.46875,0.84374995 -0.738281,0.84374995 -0.152344,0 -0.175781,-0.09375 -0.175781,-0.2460937 0,-0.15234375 0.03516,-0.24609375 0.152344,-0.5625 0.09375,-0.2109375 0.375,-0.94921875 0.375,-1.34765625 0,-0.66796875 -0.539063,-0.78515625 -0.902344,-0.78515625 -0.5859376,0 -0.9726563,0.3515625 -1.1835938,0.6328125 -0.046875,-0.4804688 -0.4570313,-0.6328125 -0.75,-0.6328125 -0.2929688,0 -0.4570313,0.2109375 -0.5507813,0.375 -0.1523437,0.2578125 -0.2460937,0.65625 -0.2460937,0.69140625 0,0.0820313 0.09375,0.0820313 0.1171875,0.0820313 0.09375,0 0.1054687,-0.0117188 0.1523437,-0.19921875 0.1054688,-0.4218751 0.234375,-0.7617188 0.515625,-0.7617188 0.1757813,0 0.2226563,0.1523437 0.2226563,0.3398437 0,0.14062505 -0.058594,0.39843755 -0.1054688,0.58593755 -0.046875,0.1875 -0.1171875,0.46875 -0.1523437,0.62109375 z m 0,0"
         style="fill:#000000;fill-opacity:1;fill-rule:nonzero;stroke:none" />
    </g>
    <path
       id="path9"
       d="m 7.3713516,-4.3485859 c 0,-1.59375 -1.0546875,-2.671875 -2.5429688,-2.671875 -2.1445312,0 -4.33593749,2.2617187 -4.33593749,4.5820312 0,1.65234376 1.11328129,2.66015626 2.54296879,2.66015626 2.109375,0 4.3359375,-2.17968746 4.3359375,-4.57031246 z m -4.2773438,4.31249996 c -0.984375,0 -1.6757812,-0.80859375 -1.6757812,-2.12109376 0,-0.4453125 0.140625,-1.8984375 0.9023437,-3.0585937 0.6914063,-1.0429688 1.6640625,-1.5585938 2.4492188,-1.5585938 0.8203125,0 1.7109375,0.5625 1.7109375,2.0390625 0,0.7148438 -0.2695313,2.2734375 -1.2539063,3.5039063 -0.4804687,0.59765621 -1.2890625,1.19531246 -2.1328125,1.19531246 z m 0,0"
       style="fill:#000000;fill-opacity:1;fill-rule:nonzero;stroke:none"
       aria-label="O"
       transform="matrix(1.3333333,0,0,1.3333333,10.152,114.49733)" />
    <path
       id="path10"
       d="m 2.1681406,-2.5318437 h 0.8320313 c -0.1054688,0.421875 -0.2578125,1.0546875 -0.2578125,1.6054687 0,0.28125 0.035156,0.46875 0.070312,0.62109375 0.1171875,0.3515625 0.2109375,0.375 0.3164062,0.375 0.1640625,0 0.328125,-0.15234375 0.328125,-0.31640625 0,-0.0585938 -0.011719,-0.0820313 -0.058594,-0.15234375 C 3.2697031,-0.65684375 3.1407969,-1.0552812 3.1407969,-1.6295 c 0,-0.1289062 0,-0.4101562 0.1054687,-0.9023437 h 0.8671875 c 0.1289063,0 0.1875,0 0.2578125,-0.058594 0.09375,-0.070312 0.1171875,-0.1757812 0.1171875,-0.2109375 0,-0.1992187 -0.1757812,-0.1992187 -0.2929687,-0.1992187 H 1.5587656 c -0.28125,0 -0.4804687,0.058594 -0.79687497,0.3515625 -0.17578125,0.1640625 -0.4453125,0.5390625 -0.4453125,0.5976562 0,0.082031 0.09375,0.082031 0.1171875,0.082031 0.0703125,0 0.0820313,-0.011719 0.12890625,-0.070312 0.3515625,-0.4921875 0.78515622,-0.4921875 0.93750002,-0.4921875 h 0.421875 c -0.2109375,0.7617187 -0.5859375,1.59374995 -0.796875,2.0039062 -0.046875,0.09375 -0.1171875,0.24609375 -0.14062502,0.26953125 0,0.0234375 -0.0117188,0.0585938 -0.0117188,0.10546875 0,0.10546875 0.0820313,0.22265625 0.24609382,0.22265625 0.2695312,0 0.3515624,-0.31640625 0.5156249,-0.9375 z m 0,0"
       style="fill:#000000;fill-opacity:1;fill-rule:nonzero;stroke:none"
       aria-label="π"
       transform="matrix(1.3333333,0,0,1.3333333,66.601333,109.42267)" />
    <path
       id="path11"
       d="m -51.794,-1.054 h 4.909"
       style="fill:none;stroke:#000000;stroke-width:0.3985;stroke-linecap:butt;stroke-linejoin:miter;stroke-miterlimit:10;stroke-dasharray:none;stroke-opacity:1"
       transform="matrix(1.3333333,0,0,-1.3333333,135.66,109.92667)" />
    <path
       id="path12"
       d="M 3.6913281,-1.1486563 V -1.39475 H 2.9178906 v -3.1054688 c 0,-0.1523437 0,-0.1992187 -0.1523437,-0.1992187 -0.09375,0 -0.1171875,0 -0.1875,0.09375 L 0.26945313,-1.39475 v 0.2460937 H 2.3202344 v 0.5742188 c 0,0.234375 0,0.328125 -0.5625,0.328125 h -0.1875 v 0.24609375 c 0.3515625,-0.01171875 0.796875,-0.0234375 1.0429687,-0.0234375 0.2578125,0 0.703125,0.01171875 1.0546875,0.0234375 V -0.2463125 h -0.1875 c -0.5625,0 -0.5625,-0.09375 -0.5625,-0.328125 V -1.1486563 Z M 2.3671094,-3.9494375 V -1.39475 H 0.52726563 Z m 0,0"
       style="fill:#000000;fill-opacity:1;fill-rule:nonzero;stroke:none"
       aria-label="4"
       transform="matrix(1.3333333,0,0,1.3333333,67.226667,119.23467)" />
    <path
       id="path13"
       d="m 2.1689531,-2.5318437 h 0.8320313 c -0.1054688,0.421875 -0.2578125,1.0546875 -0.2578125,1.6054687 0,0.28125 0.035156,0.46875 0.070312,0.62109375 0.1171875,0.3515625 0.2109375,0.375 0.3164062,0.375 0.1640625,0 0.328125,-0.15234375 0.328125,-0.31640625 0,-0.0585938 -0.011719,-0.0820313 -0.058594,-0.15234375 C 3.2705156,-0.65684375 3.1416094,-1.0552812 3.1416094,-1.6295 c 0,-0.1289062 0,-0.4101562 0.1054687,-0.9023437 h 0.8671875 c 0.1289063,0 0.1875,0 0.2578125,-0.058594 0.09375,-0.070312 0.1171875,-0.1757812 0.1171875,-0.2109375 0,-0.1992187 -0.1757812,-0.1992187 -0.2929687,-0.1992187 H 1.5595781 c -0.28125,0 -0.4804687,0.058594 -0.79687497,0.3515625 -0.17578125,0.1640625 -0.4453125,0.5390625 -0.4453125,0.5976562 0,0.082031 0.09375,0.082031 0.1171875,0.082031 0.0703125,0 0.0820313,-0.011719 0.12890625,-0.070312 0.3515625,-0.4921875 0.78515622,-0.4921875 0.93750002,-0.4921875 h 0.421875 c -0.2109375,0.7617187 -0.5859375,1.59374995 -0.796875,2.0039062 -0.046875,0.09375 -0.1171875,0.24609375 -0.14062502,0.26953125 0,0.0234375 -0.0117188,0.0585938 -0.0117188,0.10546875 0,0.10546875 0.0820313,0.22265625 0.24609372,0.22265625 0.2695312,0 0.3515625,-0.31640625 0.515625,-0.9375 z m 0,0"
       style="fill:#000000;fill-opacity:1;fill-rule:nonzero;stroke:none"
       aria-label="π"
       transform="matrix(1.3333333,0,0,1.3333333,81.444,109.42267)" />
    <path
       id="path14"
       d="m -51.794,-1.054 h 4.909"
       style="fill:none;stroke:#000000;stroke-width:0.3985;stroke-linecap:butt;stroke-linejoin:miter;stroke-miterlimit:10;stroke-dasharray:none;stroke-opacity:1"
       transform="matrix(1.3333333,0,0,-1.3333333,150.50267,109.92667)" />
    <path
       id="path15"
       d="m 1.8991719,-2.33225 c 0.5507812,0 0.9375,0.375 0.9375,1.125 0,0.8671875 -0.5039063,1.125 -0.9023438,1.125 -0.28125,0 -0.890625,-0.08203125 -1.18359372,-0.4921875 0.32812502,-0.0117188 0.39843752,-0.24609375 0.39843752,-0.38671875 0,-0.22265625 -0.16406252,-0.38671875 -0.38671877,-0.38671875 -0.1875,0 -0.38671875,0.1171875 -0.38671875,0.41015625 0,0.65625 0.72656252,1.078125 1.57031252,1.078125 0.9726562,0 1.640625,-0.64453125 1.640625,-1.34765625 0,-0.5390625 -0.4453125,-1.0898438 -1.21875,-1.2421875 0.7382812,-0.2695313 0.9960937,-0.796875 0.9960937,-1.21875 0,-0.5507813 -0.6328125,-0.9609375 -1.40625,-0.9609375 -0.7734375,0 -1.35937497,0.375 -1.35937497,0.9375 0,0.234375 0.15234375,0.3632812 0.36328125,0.3632812 0.21093752,0 0.35156252,-0.1640625 0.35156252,-0.3515625 0,-0.1992187 -0.140625,-0.3515625 -0.35156252,-0.3632812 0.23437502,-0.3046875 0.71484372,-0.3867188 0.97265622,-0.3867188 0.3164063,0 0.7617188,0.1523438 0.7617188,0.7617188 0,0.2929687 -0.1054688,0.609375 -0.28125,0.8320312 -0.234375,0.2578125 -0.421875,0.28125 -0.7734375,0.2929688 -0.1757813,0.023437 -0.1875,0.023437 -0.2226563,0.023437 -0.011719,0 -0.070312,0.011719 -0.070312,0.09375 0,0.09375 0.058594,0.09375 0.1757813,0.09375 z m 0,0"
       style="fill:#000000;fill-opacity:1;fill-rule:nonzero;stroke:none"
       aria-label="3"
       transform="matrix(1.3333333,0,0,1.3333333,82.069333,119.23467)" />
    <path
       id="path16"
       d="m 0,0 v 42.52022 m 0.85057,0 c 0,0.46975 -0.38083,0.85057 -0.85057,0.85057 -0.46974,0 -0.85057,-0.38082 -0.85057,-0.85057 0,-0.46976 0.38083,-0.85059 0.85057,-0.85059 0.46974,0 0.85057,0.38083 0.85057,0.85059 z"
       style="fill:#000000;fill-opacity:1;fill-rule:nonzero;stroke:#000000;stroke-width:0.3985;stroke-linecap:butt;stroke-linejoin:miter;stroke-miterlimit:10;stroke-dasharray:none;stroke-opacity:1"
       transform="matrix(1.3333333,0,0,-1.3333333,25.346667,100.72667)" />
    <path
       id="path17"
       d="M 4.1711719,-1.171875e-4 V -0.30480469 H 3.8547656 c -0.9023437,0 -0.9257812,-0.1171875 -0.9257812,-0.48046875 V -6.3751172 c 0,-0.234375 0,-0.2578125 -0.234375,-0.2578125 -0.609375,0.6328125 -1.4882813,0.6328125 -1.80468752,0.6328125 v 0.3164063 c 0.19921872,0 0.78515622,0 1.30078122,-0.2578125 v 5.15624996 c 0,0.3515625 -0.035156,0.48046875 -0.9257812,0.48046875 H 0.94851563 V -1.171875e-4 C 1.3000781,-0.03527344 2.1555469,-0.03527344 2.5539844,-0.03527344 c 0.3984375,0 1.265625,0 1.6171875,0.0351562525 z m 0,0"
       style="fill:#000000;fill-opacity:1;fill-rule:nonzero;stroke:none"
       aria-label="1"
       transform="matrix(1.3333333,0,0,1.3333333,30.04,39.34)" />
    <path
       id="path18"
       d="m 33.39474,0 v 21.2601 m 0.85058,0 c 0,0.46976 -0.38082,0.85057 -0.85058,0.85057 -0.46975,0 -0.85058,-0.38081 -0.85058,-0.85057 0,-0.46976 0.38083,-0.85058 0.85058,-0.85058 0.46976,0 0.85058,0.38082 0.85058,0.85058 z"
       style="fill:#000000;fill-opacity:1;fill-rule:nonzero;stroke:#000000;stroke-width:0.3985;stroke-linecap:butt;stroke-linejoin:miter;stroke-miterlimit:10;stroke-dasharray:none;stroke-opacity:1"
       transform="matrix(1.3333333,0,0,-1.3333333,25.346667,100.72667)" />
    <path
       id="path19"
       d="m 2.3311484,-4.4304375 c 0,-0.1875 -0.011719,-0.1992188 -0.2109375,-0.1992188 -0.4453125,0.4335938 -1.078125,0.4453125 -1.35937496,0.4453125 V -3.93825 c 0.1640625,0 0.62109376,0 1.00781246,-0.1875 v 3.55078125 c 0,0.234375 0,0.328125 -0.6914062,0.328125 H 0.80771094 V -7.5e-4 c 0.12890625,-0.01171875 0.98437496,-0.0234375 1.24218746,-0.0234375 0.2109375,0 1.0898438,0.01171875 1.2421875,0.0234375 V -0.24684375 H 3.0342734 c -0.703125,0 -0.703125,-0.09375 -0.703125,-0.328125 z m 0,0"
       style="fill:#000000;fill-opacity:1;fill-rule:nonzero;stroke:none"
       aria-label="1"
       transform="matrix(1.3333333,0,0,1.3333333,76.161333,57.876)" />
    <path
       id="path20"
       d="m -51.794,-1.054 h 3.971"
       style="fill:none;stroke:#000000;stroke-width:0.3985;stroke-linecap:butt;stroke-linejoin:miter;stroke-miterlimit:10;stroke-dasharray:none;stroke-opacity:1"
       transform="matrix(1.3333333,0,0,-1.3333333,145.22,58.38)" />
    <path
       id="path21"
       d="m 3.5147422,-1.266 h -0.234375 c -0.023437,0.1523437 -0.082031,0.5625 -0.1757813,0.6328125 -0.058594,0.0351563 -0.5976562,0.0351563 -0.6914062,0.0351563 H 1.1241172 c 0.7382812,-0.6445312 0.984375,-0.84375 1.3945312,-1.171875 0.515625,-0.4101563 0.9960938,-0.8437501 0.9960938,-1.5000001 0,-0.8437499 -0.7382813,-1.3593749 -1.6289063,-1.3593749 -0.8671875,0 -1.45312496,0.609375 -1.45312496,1.2421874 0,0.3632813 0.3046875,0.3984375 0.375,0.3984375 0.1640625,0 0.37499996,-0.1171875 0.37499996,-0.375 0,-0.1289062 -0.058594,-0.3632812 -0.42187496,-0.3632812 0.22265625,-0.5039062 0.69140626,-0.6562499 1.01953126,-0.6562499 0.703125,0 1.0664062,0.5507812 1.0664062,1.1132812 0,0.609375 -0.4335937,1.0898438 -0.65625,1.3359375 l -1.68749996,1.6640625 c -0.0703125,0.0585938 -0.0703125,0.0703125 -0.0703125,0.26953125 H 3.3155234 Z m 0,0"
       style="fill:#000000;fill-opacity:1;fill-rule:nonzero;stroke:none"
       aria-label="2"
       transform="matrix(1.3333333,0,0,1.3333333,76.161333,67.688)" />
    <path
       id="path22"
       d="m 44.52696,0 v 10.63004 m 0.85059,0 c 0,0.46976 -0.38083,0.85058 -0.85059,0.85058 -0.46976,0 -0.85057,-0.38082 -0.85057,-0.85058 0,-0.46976 0.38081,-0.85059 0.85057,-0.85059 0.46976,0 0.85059,0.38083 0.85059,0.85059 z"
       style="fill:#000000;fill-opacity:1;fill-rule:nonzero;stroke:#000000;stroke-width:0.3985;stroke-linecap:butt;stroke-linejoin:miter;stroke-miterlimit:10;stroke-dasharray:none;stroke-opacity:1"
       transform="matrix(1.3333333,0,0,-1.3333333,25.346667,100.72667)" />
    <path
       id="path23"
       d="m 2.3319609,-4.4286016 c 0,-0.1875 -0.011719,-0.1992187 -0.2109375,-0.1992187 -0.4453125,0.4335937 -1.078125,0.4453125 -1.35937496,0.4453125 v 0.2460937 c 0.1640625,0 0.62109376,0 1.00781246,-0.1875 v 3.55078129 c 0,0.234375 0,0.328125 -0.6914062,0.328125 H 0.80852344 v 0.24609375 c 0.12890625,-0.01171875 0.98437496,-0.0234375 1.24218746,-0.0234375 0.2109375,0 1.0898438,0.01171875 1.2421875,0.0234375 V -0.24500781 H 3.0350859 c -0.703125,0 -0.703125,-0.09375 -0.703125,-0.328125 z m 0,0"
       style="fill:#000000;fill-opacity:1;fill-rule:nonzero;stroke:none"
       aria-label="1"
       transform="matrix(1.3333333,0,0,1.3333333,91.004,72.049333)" />
    <path
       id="path24"
       d="m -51.794,-1.054 h 3.971"
       style="fill:none;stroke:#000000;stroke-width:0.3985;stroke-linecap:butt;stroke-linejoin:miter;stroke-miterlimit:10;stroke-dasharray:none;stroke-opacity:1"
       transform="matrix(1.3333333,0,0,-1.3333333,160.06267,72.553333)" />
    <path
       id="path25"
       d="M 3.6913359,-1.1469766 V -1.3930703 H 2.9178984 v -3.1054688 c 0,-0.1523437 0,-0.1992187 -0.1523437,-0.1992187 -0.09375,0 -0.1171875,0 -0.1875,0.09375 l -2.30859376,3.2109375 v 0.2460937 H 2.3202422 v 0.57421879 c 0,0.234375 0,0.328125 -0.5625,0.328125 h -0.1875 v 0.24609375 c 0.3515625,-0.01171875 0.796875,-0.0234375 1.0429687,-0.0234375 0.2578125,0 0.703125,0.01171875 1.0546875,0.0234375 v -0.24609375 h -0.1875 c -0.5625,0 -0.5625,-0.09375 -0.5625,-0.328125 V -1.1469766 Z M 2.3671172,-3.9477578 v 2.5546875 H 0.52727344 Z m 0,0"
       style="fill:#000000;fill-opacity:1;fill-rule:nonzero;stroke:none"
       aria-label="4"
       transform="matrix(1.3333333,0,0,1.3333333,91.004,81.861333)" />
    <path
       id="path26"
       d="m 76.53653,0 h 71.88573"
       style="fill:none;stroke:#000000;stroke-width:0.3985;stroke-linecap:butt;stroke-linejoin:miter;stroke-miterlimit:10;stroke-dasharray:none;stroke-opacity:1"
       transform="matrix(1.3333333,0,0,-1.3333333,25.346667,100.72667)" />
    <path
       id="path27"
       d="M -2.07224,2.39104 C -1.69365,0.95639 -0.84999,0.27895 0,0 -0.84999,-0.27895 -1.69365,-0.95639 -2.07224,-2.39104"
       style="fill:none;stroke:#000000;stroke-width:0.3985;stroke-linecap:round;stroke-linejoin:round;stroke-miterlimit:10;stroke-dasharray:none;stroke-opacity:1"
       transform="matrix(1.3333333,0,0,-1.3333333,223.50867,100.72667)" />
    <path
       id="path28"
       d="m 6.0241953,-3.7045859 c 0,-0.4453125 -0.1757812,-0.703125 -0.3984375,-0.703125 -0.2578125,0 -0.5273437,0.2460937 -0.5273437,0.46875 0,0.1054687 0.046875,0.2109375 0.1523437,0.3046875 0.1640625,0.140625 0.3515625,0.4101562 0.3515625,0.8320312 0,0.3984375 -0.1875,0.9726563 -0.5039062,1.4296875 -0.2929688,0.42187501 -0.6679688,0.76171876 -1.1367188,0.76171876 -0.5625,0 -0.8671875,-0.3515625 -0.9609375,-0.89062496 0.1054688,-0.2578125 0.3398438,-0.9023438 0.3398438,-1.1835938 0,-0.1171875 -0.046875,-0.2109375 -0.1875,-0.2109375 -0.070312,0 -0.1875,0.011719 -0.2578125,0.1640625 -0.1171875,0.1992188 -0.234375,0.84375 -0.234375,1.2070313 -0.328125,0.46875 -0.7265625,0.91406246 -1.359375,0.91406246 -0.65625004,0 -0.86718754,-0.58593746 -0.86718754,-1.14843746 0,-1.2421875 1.01953124,-2.2851563 1.01953124,-2.4140625 0,-0.1171875 -0.082031,-0.1875 -0.1875,-0.1875 -0.1289062,0 -0.1992187,0.1289062 -0.2578125,0.2109375 -0.50390624,0.7382812 -0.89062499,1.921875 -0.89062499,2.8359375 0,0.67968746 0.234375,1.41796871 1.04296879,1.41796871 0.7148437,0 1.1835937,-0.4921875 1.5351562,-1.04296875 0.09375,0.57421875 0.4804688,1.04296875 1.1015625,1.04296875 0.7734375,0 1.2539063,-0.609375 1.6171875,-1.34765621 0.234375,-0.4921875 0.609375,-1.8515625 0.609375,-2.4609375 z m 0,0"
       style="fill:#000000;fill-opacity:1;fill-rule:nonzero;stroke:none"
       aria-label="ω"
       transform="matrix(1.3333333,0,0,1.3333333,219.40133,111.13867)" />
    <path
       id="path29"
       d="M 85.04044,-62.36288 V 61.96439"
       style="fill:none;stroke:#000000;stroke-width:0.3985;stroke-linecap:butt;stroke-linejoin:miter;stroke-miterlimit:10;stroke-dasharray:none;stroke-opacity:1"
       transform="matrix(1.3333333,0,0,-1.3333333,25.346667,100.72667)" />
    <path
       id="path30"
       d="M -2.07224,2.39104 C -1.69365,0.95639 -0.84999,0.27895 0,0 -0.84999,-0.27895 -1.69365,-0.95639 -2.07224,-2.39104"
       style="fill:none;stroke:#000000;stroke-width:0.3985;stroke-linecap:round;stroke-linejoin:round;stroke-miterlimit:10;stroke-dasharray:none;stroke-opacity:1"
       transform="matrix(0,-1.3333333,-1.3333333,0,138.73392,17.841813)" />
    <path
       id="path31"
       d="m 1.6985547,1.6996172 c -0.046875,0.1289062 -0.058594,0.140625 -0.058594,0.1992187 0,0.2109375 0.1875,0.2695313 0.2929688,0.2695313 0.046875,0 0.2695312,-0.023437 0.3632812,-0.2578125 0.035156,-0.082031 0.082031,-0.4101563 0.3515625,-1.81640626 0.09375,0.01171875 0.1640625,0.01171875 0.328125,0.01171875 1.6523438,0 3.1875,-1.55859379 3.1875,-3.12890629 0,-0.7851562 -0.3867187,-1.3828125 -1.1367187,-1.3828125 -1.4414063,0 -2.0390625,1.9335938 -2.6367188,3.87890629 -1.078125,-0.19921875 -1.62890621,-0.76171879 -1.62890621,-1.47656249 0,-0.28125 0.22265625,-1.3710938 0.82031251,-2.0625 0.082031,-0.082031 0.082031,-0.1054688 0.082031,-0.1289063 0,-0.035156 -0.023437,-0.09375 -0.1171875,-0.09375 -0.28125,0 -1.04296871,1.4414063 -1.04296871,2.390625 0,0.93750004 0.65625001,1.66406254 1.72265621,1.92187504 z m 1.3710937,-2.16796876 c -0.082031,0 -0.1054687,0 -0.1757812,-0.0117188 -0.1289063,0 -0.140625,-0.0117188 -0.140625,-0.0351563 0,-0.0234375 0.1757812,-0.92578124 0.1992187,-1.07812504 0.3164063,-1.2773437 1.0898438,-2.2265625 1.9804688,-2.2265625 0.6796875,0 0.9492187,0.5273438 0.9492187,1.0078125 0,1.125 -1.2773437,2.34375004 -2.8125,2.34375014 z m 0,0"
       style="fill:#000000;fill-opacity:1;fill-rule:nonzero;stroke:none"
       aria-label="φ"
       transform="matrix(1.3333333,0,0,1.3333333,143.42667,19.144)" />
    <path
       id="path32"
       d="m 7.3713906,-4.3485859 c 0,-1.59375 -1.0546875,-2.671875 -2.5429687,-2.671875 -2.1445313,0 -4.33593752,2.2617187 -4.33593752,4.5820312 0,1.65234376 1.11328122,2.66015626 2.54296872,2.66015626 2.109375,0 4.3359375,-2.17968746 4.3359375,-4.57031246 z m -4.2773437,4.31249996 c -0.984375,0 -1.6757813,-0.80859375 -1.6757813,-2.12109376 0,-0.4453125 0.140625,-1.8984375 0.9023438,-3.0585937 0.6914062,-1.0429688 1.6640625,-1.5585938 2.4492187,-1.5585938 0.8203125,0 1.7109375,0.5625 1.7109375,2.0390625 0,0.7148438 -0.2695312,2.2734375 -1.2539062,3.5039063 -0.4804688,0.59765621 -1.2890625,1.19531246 -2.1328125,1.19531246 z m 0,0"
       style="fill:#000000;fill-opacity:1;fill-rule:nonzero;stroke:none"
       aria-label="O"
       transform="matrix(1.3333333,0,0,1.3333333,123.53867,114.49733)" />
    <path
       id="path33"
       d="m 2.1681797,-2.5318437 h 0.8320312 c -0.1054687,0.421875 -0.2578125,1.0546875 -0.2578125,1.6054687 0,0.28125 0.035156,0.46875 0.070312,0.62109375 0.1171875,0.3515625 0.2109375,0.375 0.3164063,0.375 0.1640625,0 0.328125,-0.15234375 0.328125,-0.31640625 0,-0.0585938 -0.011719,-0.0820313 -0.058594,-0.15234375 C 3.2697422,-0.65684375 3.1408359,-1.0552812 3.1408359,-1.6295 c 0,-0.1289062 0,-0.4101562 0.1054688,-0.9023437 h 0.8671875 c 0.1289062,0 0.1875,0 0.2578125,-0.058594 0.09375,-0.070312 0.1171875,-0.1757812 0.1171875,-0.2109375 0,-0.1992187 -0.1757813,-0.1992187 -0.2929688,-0.1992187 H 1.5588047 c -0.28125,0 -0.4804688,0.058594 -0.79687501,0.3515625 -0.17578125,0.1640625 -0.4453125,0.5390625 -0.4453125,0.5976562 0,0.082031 0.09375,0.082031 0.1171875,0.082031 0.0703125,0 0.0820313,-0.011719 0.12890625,-0.070312 0.3515625,-0.4921875 0.78515626,-0.4921875 0.93749996,-0.4921875 h 0.421875 c -0.2109375,0.7617187 -0.5859375,1.59374995 -0.796875,2.0039062 -0.046875,0.09375 -0.1171875,0.24609375 -0.14062496,0.26953125 0,0.0234375 -0.0117188,0.0585938 -0.0117188,0.10546875 0,0.10546875 0.0820312,0.22265625 0.24609366,0.22265625 0.2695313,0 0.3515625,-0.31640625 0.515625,-0.9375 z m 0,0"
       style="fill:#000000;fill-opacity:1;fill-rule:nonzero;stroke:none"
       aria-label="π"
       transform="matrix(1.3333333,0,0,1.3333333,179.988,109.42267)" />
    <path
       id="path34"
       d="m -51.794,-1.054 h 4.909"
       style="fill:none;stroke:#000000;stroke-width:0.3985;stroke-linecap:butt;stroke-linejoin:miter;stroke-miterlimit:10;stroke-dasharray:none;stroke-opacity:1"
       transform="matrix(1.3333333,0,0,-1.3333333,249.04667,109.92667)" />
    <path
       id="path35"
       d="M 3.6913672,-1.1486563 V -1.39475 H 2.9179297 v -3.1054688 c 0,-0.1523437 0,-0.1992187 -0.1523438,-0.1992187 -0.09375,0 -0.1171875,0 -0.1875,0.09375 L 0.26949219,-1.39475 v 0.2460937 H 2.3202734 v 0.5742188 c 0,0.234375 0,0.328125 -0.5625,0.328125 h -0.1875 v 0.24609375 c 0.3515625,-0.01171875 0.796875,-0.0234375 1.0429688,-0.0234375 0.2578125,0 0.703125,0.01171875 1.0546875,0.0234375 V -0.2463125 h -0.1875 c -0.5625,0 -0.5625,-0.09375 -0.5625,-0.328125 V -1.1486563 Z M 2.3671484,-3.9494375 V -1.39475 H 0.52730469 Z m 0,0"
       style="fill:#000000;fill-opacity:1;fill-rule:nonzero;stroke:none"
       aria-label="4"
       transform="matrix(1.3333333,0,0,1.3333333,180.61333,119.23467)" />
    <path
       id="path36"
       d="m 2.1689922,-2.5312578 h 0.8320312 c -0.1054687,0.421875 -0.2578125,1.0546875 -0.2578125,1.60546874 0,0.28125 0.035156,0.46875 0.070312,0.62109375 0.1171875,0.3515625 0.2109375,0.375 0.3164063,0.375 0.1640625,0 0.328125,-0.15234375 0.328125,-0.31640625 0,-0.0585938 -0.011719,-0.0820313 -0.058594,-0.15234375 C 3.270554,-0.65625781 3.1416477,-1.0546953 3.1416477,-1.6289141 c 0,-0.1289062 0,-0.4101562 0.1054688,-0.9023437 H 4.114304 c 0.1289062,0 0.1875,0 0.2578125,-0.058594 0.09375,-0.070312 0.1171875,-0.1757812 0.1171875,-0.2109375 0,-0.1992187 -0.1757813,-0.1992187 -0.2929688,-0.1992187 h -2.636718 c -0.28125,0 -0.4804688,0.058594 -0.79687501,0.3515625 -0.17578125,0.1640625 -0.4453125,0.5390625 -0.4453125,0.5976562 0,0.082031 0.09375,0.082031 0.1171875,0.082031 0.0703125,0 0.0820313,-0.011719 0.12890625,-0.070313 0.3515625,-0.4921875 0.78515626,-0.4921875 0.93749996,-0.4921875 h 0.421875 c -0.2109375,0.7617187 -0.5859375,1.59374999 -0.796875,2.00390624 -0.046875,0.09375 -0.1171875,0.24609375 -0.14062496,0.26953125 0,0.0234375 -0.0117188,0.0585938 -0.0117188,0.10546875 0,0.10546875 0.0820312,0.22265625 0.24609366,0.22265625 0.2695313,0 0.3515625,-0.31640625 0.515625,-0.9375 z m 0,0"
       style="fill:#000000;fill-opacity:1;fill-rule:nonzero;stroke:none"
       aria-label="π"
       transform="matrix(1.3333333,0,0,1.3333333,194.83067,86.222667)" />
    <path
       id="path37"
       d="m -51.794,-1.054 h 4.909"
       style="fill:none;stroke:#000000;stroke-width:0.3985;stroke-linecap:butt;stroke-linejoin:miter;stroke-miterlimit:10;stroke-dasharray:none;stroke-opacity:1"
       transform="matrix(1.3333333,0,0,-1.3333333,263.88933,86.726667)" />
    <path
       id="path38"
       d="m 1.8992109,-2.3316641 c 0.5507813,0 0.9375,0.375 0.9375,1.125 0,0.86718754 -0.5039062,1.12500004 -0.9023437,1.12500004 -0.28125,0 -0.890625,-0.08203125 -1.18359376,-0.4921875 0.32812496,-0.0117188 0.39843746,-0.24609375 0.39843746,-0.38671875 0,-0.22265629 -0.16406246,-0.38671879 -0.38671871,-0.38671879 -0.1875,0 -0.38671875,0.1171875 -0.38671875,0.41015629 0,0.65625 0.72656246,1.078125 1.57031246,1.078125 0.9726563,0 1.640625,-0.64453125 1.640625,-1.34765629 0,-0.5390625 -0.4453125,-1.0898437 -1.21875,-1.2421875 0.7382813,-0.2695312 0.9960938,-0.796875 0.9960938,-1.21875 0,-0.5507812 -0.6328125,-0.9609375 -1.40625,-0.9609375 -0.7734375,0 -1.35937501,0.375 -1.35937501,0.9375 0,0.234375 0.15234375,0.3632813 0.36328125,0.3632813 0.21093746,0 0.35156246,-0.1640625 0.35156246,-0.3515625 0,-0.1992188 -0.140625,-0.3515625 -0.35156246,-0.3632813 0.23437496,-0.3046875 0.71484376,-0.3867187 0.97265626,-0.3867187 0.3164062,0 0.7617187,0.1523437 0.7617187,0.7617187 0,0.2929688 -0.1054687,0.609375 -0.28125,0.8320313 -0.234375,0.2578125 -0.421875,0.28125 -0.7734375,0.2929687 -0.1757812,0.023437 -0.1875,0.023437 -0.2226562,0.023437 -0.011719,0 -0.070312,0.011719 -0.070312,0.09375 0,0.09375 0.058594,0.09375 0.1757812,0.09375 z m 0,0"
       style="fill:#000000;fill-opacity:1;fill-rule:nonzero;stroke:none"
       aria-label="3"
       transform="matrix(1.3333333,0,0,1.3333333,195.456,96.034667)" />
    <path
       id="path39"
       d="m 85.04044,0 v 0 m 0.85058,0 c 0,0.31317 -0.38082,0.56705 -0.85058,0.56705 -0.46976,0 -0.85059,-0.25388 -0.85059,-0.56705 0,-0.31317 0.38083,-0.56705 0.85059,-0.56705 0.46976,0 0.85058,0.25388 0.85058,0.56705 z"
       style="fill:#000000;fill-opacity:1;fill-rule:nonzero;stroke:#000000;stroke-width:0.3985;stroke-linecap:butt;stroke-linejoin:miter;stroke-miterlimit:10;stroke-dasharray:none;stroke-opacity:1"
       transform="matrix(1.3333333,0,0,-1.3333333,25.346667,100.72667)" />
    <path
       id="path40"
       d="m 4.5813672,-3.1868594 c 0,-0.796875 -0.046875,-1.59375 -0.3984375,-2.3320312 -0.4570313,-0.9609375 -1.2773438,-1.1132813 -1.6875,-1.1132813 -0.5976563,0 -1.3359375,0.2578125 -1.73437501,1.1835938 -0.328125,0.6914062 -0.375,1.4648437 -0.375,2.2617187 0,0.75 0.046875,1.640625 0.4453125,2.40234378 0.43359371,0.80859375 1.16015621,1.0078125 1.65234371,1.0078125 0.5390625,0 1.2890625,-0.2109375 1.734375,-1.16015625 C 4.5344922,-1.6282656 4.5813672,-2.4017031 4.5813672,-3.1868594 Z M 3.7493359,-3.3040469 c 0,0.75 0,1.4179688 -0.1054687,2.0625 -0.1523438,0.93750003 -0.7148438,1.242187525 -1.1601563,1.242187525 -0.3867187,0 -0.984375,-0.246093745 -1.1601562,-1.207031225 -0.1054688,-0.5976563 -0.1054688,-1.5117188 -0.1054688,-2.0976563 0,-0.6445312 0,-1.3007812 0.082031,-1.8398437 0.1875,-1.1835938 0.9257812,-1.265625 1.1835937,-1.265625 0.328125,0 0.984375,0.1757812 1.171875,1.1601562 0.09375,0.5625 0.09375,1.3125 0.09375,1.9453125 z m 0,0"
       style="fill:#000000;fill-opacity:1;fill-rule:nonzero;stroke:none"
       aria-label="0"
       transform="matrix(1.3333333,0,0,1.3333333,143.42667,95.741333)" />
    <path
       id="path41"
       d="m 118.43518,0 v 29.68463 m 0.85059,0 c 0,0.31319 -0.38083,0.56707 -0.85059,0.56707 -0.46976,0 -0.85057,-0.25388 -0.85057,-0.56707 0,-0.31317 0.38081,-0.56705 0.85057,-0.56705 0.46976,0 0.85059,0.25388 0.85059,0.56705 z"
       style="fill:#000000;fill-opacity:1;fill-rule:nonzero;stroke:#000000;stroke-width:0.3985;stroke-linecap:butt;stroke-linejoin:miter;stroke-miterlimit:10;stroke-dasharray:none;stroke-opacity:1"
       transform="matrix(1.3333333,0,0,-1.3333333,25.346667,100.72667)" />
    <path
       id="path42"
       d="m 2.167125,-2.5298516 h 0.8320312 c -0.1054687,0.421875 -0.2578125,1.0546875 -0.2578125,1.60546879 0,0.28125 0.035156,0.46875 0.070312,0.62109375 0.1171875,0.3515625 0.2109375,0.375 0.3164063,0.375 0.1640625,0 0.328125,-0.15234375 0.328125,-0.31640625 0,-0.0585938 -0.011719,-0.0820313 -0.058594,-0.15234375 -0.1289062,-0.2578125 -0.2578125,-0.65625004 -0.2578125,-1.23046874 0,-0.1289063 0,-0.4101563 0.1054688,-0.9023438 h 0.8671875 c 0.1289062,0 0.1875,0 0.2578125,-0.058594 0.09375,-0.070312 0.1171875,-0.1757813 0.1171875,-0.2109375 0,-0.1992188 -0.1757813,-0.1992188 -0.2929688,-0.1992188 H 1.55775 c -0.28125,0 -0.4804688,0.058594 -0.796875,0.3515625 -0.17578125,0.1640625 -0.4453125,0.5390625 -0.4453125,0.5976563 0,0.082031 0.09375,0.082031 0.1171875,0.082031 0.0703125,0 0.0820312,-0.011719 0.12890625,-0.070313 0.3515625,-0.4921875 0.78515625,-0.4921875 0.93749995,-0.4921875 h 0.421875 c -0.2109375,0.7617188 -0.5859375,1.59375004 -0.796875,2.00390629 -0.046875,0.09375 -0.1171875,0.24609375 -0.14062495,0.26953125 0,0.0234375 -0.0117188,0.0585938 -0.0117188,0.10546875 0,0.10546875 0.0820311,0.22265625 0.24609365,0.22265625 0.2695313,0 0.3515625,-0.31640625 0.515625,-0.9375 z m 0,0"
       style="fill:#000000;fill-opacity:1;fill-rule:nonzero;stroke:none"
       aria-label="π"
       transform="matrix(1.3333333,0,0,1.3333333,189.548,46.642667)" />
    <path
       id="path43"
       d="m -51.794,-1.054 h 4.909"
       style="fill:none;stroke:#000000;stroke-width:0.3985;stroke-linecap:butt;stroke-linejoin:miter;stroke-miterlimit:10;stroke-dasharray:none;stroke-opacity:1"
       transform="matrix(1.3333333,0,0,-1.3333333,258.60667,47.146667)" />
    <path
       id="path44"
       d="m 1.8973438,-2.3331875 c 0.5507812,0 0.9375,0.375 0.9375,1.125 0,0.8671875 -0.5039063,1.125 -0.9023438,1.125 -0.28125,0 -0.890625,-0.08203125 -1.18359375,-0.4921875 0.32812505,-0.0117188 0.39843755,-0.24609375 0.39843755,-0.38671875 0,-0.22265625 -0.16406255,-0.38671875 -0.3867188,-0.38671875 -0.1875,0 -0.38671875,0.1171875 -0.38671875,0.41015625 0,0.65625 0.72656255,1.078125 1.57031255,1.078125 0.9726562,0 1.640625,-0.64453125 1.640625,-1.34765625 0,-0.5390625 -0.4453125,-1.0898438 -1.21875,-1.2421875 0.7382812,-0.2695313 0.9960937,-0.796875 0.9960937,-1.21875 0,-0.5507813 -0.6328125,-0.9609375 -1.40625,-0.9609375 -0.7734375,0 -1.359375,0.375 -1.359375,0.9375 0,0.234375 0.15234375,0.3632812 0.36328125,0.3632812 0.21093755,0 0.35156255,-0.1640625 0.35156255,-0.3515625 0,-0.1992187 -0.140625,-0.3515625 -0.35156255,-0.3632812 C 1.1942188,-4.3488125 1.6746875,-4.4308438 1.9325,-4.4308438 c 0.3164063,0 0.7617188,0.1523438 0.7617188,0.7617188 0,0.2929687 -0.1054688,0.609375 -0.28125,0.8320312 -0.234375,0.2578125 -0.421875,0.28125 -0.7734375,0.2929688 -0.1757813,0.023437 -0.1875,0.023437 -0.2226563,0.023437 -0.011719,0 -0.070312,0.011719 -0.070312,0.09375 0,0.09375 0.058594,0.09375 0.1757813,0.09375 z m 0,0"
       style="fill:#000000;fill-opacity:1;fill-rule:nonzero;stroke:none"
       aria-label="3"
       transform="matrix(1.3333333,0,0,1.3333333,190.17333,56.454667)" />
    <path
       id="path45"
       d="m 129.56741,0 v -59.36928 m 0.85059,0 c 0,0.31318 -0.38083,0.56705 -0.85059,0.56705 -0.46975,0 -0.85058,-0.25387 -0.85058,-0.56705 0,-0.31318 0.38083,-0.56705 0.85058,-0.56705 0.46976,0 0.85059,0.25387 0.85059,0.56705 z"
       style="fill:#000000;fill-opacity:1;fill-rule:nonzero;stroke:#000000;stroke-width:0.3985;stroke-linecap:butt;stroke-linejoin:miter;stroke-miterlimit:10;stroke-dasharray:none;stroke-opacity:1"
       transform="matrix(1.3333333,0,0,-1.3333333,25.346667,100.72667)" />
    <g
       id="g45"
       aria-label="−&#10;2π"
       transform="matrix(1.3333333,0,0,1.3333333,202.796,170.612)">
      <path
         id="path46"
         d="m 6.5631562,-2.2959141 c 0.1757813,0 0.3515625,0 0.3515625,-0.1992187 0,-0.1992188 -0.1757812,-0.1992188 -0.3515625,-0.1992188 h -5.390625 c -0.1640625,0 -0.3398437,0 -0.3398437,0.1992188 0,0.1992187 0.1757812,0.1992187 0.3398437,0.1992187 z m 0,0"
         style="fill:#000000;fill-opacity:1;fill-rule:nonzero;stroke:none" />
      <path
         id="path47"
         d="m 12.460617,-5.1875156 h -0.234375 c -0.02344,0.1523437 -0.08203,0.5625 -0.175781,0.6328125 -0.05859,0.035156 -0.597656,0.035156 -0.691406,0.035156 h -1.289063 c 0.738281,-0.6445312 0.984375,-0.84375 1.394531,-1.171875 0.515625,-0.4101562 0.996094,-0.84375 0.996094,-1.5 0,-0.84375 -0.738281,-1.359375 -1.628906,-1.359375 -0.8671876,0 -1.4531251,0.609375 -1.4531251,1.2421875 0,0.3632813 0.3046875,0.3984375 0.375,0.3984375 0.1640625,0 0.3750001,-0.1171875 0.3750001,-0.375 0,-0.1289062 -0.05859,-0.3632812 -0.4218751,-0.3632812 0.2226563,-0.5039063 0.6914061,-0.65625 1.0195311,-0.65625 0.703125,0 1.066406,0.5507812 1.066406,1.1132812 0,0.609375 -0.433593,1.0898438 -0.65625,1.3359375 l -1.6874996,1.6640625 c -0.070312,0.058594 -0.070312,0.070312 -0.070312,0.2695313 h 2.8828116 z m 0,0"
         style="fill:#000000;fill-opacity:1;fill-rule:nonzero;stroke:none" />
      <path
         id="path48"
         d="m 15.082687,-6.4531406 h 0.832032 c -0.105469,0.421875 -0.257813,1.0546875 -0.257813,1.6054687 0,0.28125 0.03516,0.46875 0.07031,0.6210938 0.117187,0.3515625 0.210937,0.375 0.316406,0.375 0.164062,0 0.328125,-0.1523438 0.328125,-0.3164063 0,-0.058594 -0.01172,-0.082031 -0.05859,-0.1523437 -0.128906,-0.2578125 -0.257812,-0.65625 -0.257812,-1.2304688 0,-0.1289062 0,-0.4101562 0.105468,-0.9023437 H 17.028 c 0.128906,0 0.1875,0 0.257812,-0.058594 0.09375,-0.070312 0.117188,-0.1757812 0.117188,-0.2109375 0,-0.1992187 -0.175781,-0.1992187 -0.292969,-0.1992187 h -2.636719 c -0.28125,0 -0.480468,0.058594 -0.796875,0.3515625 -0.175781,0.1640625 -0.445312,0.5390625 -0.445312,0.5976562 0,0.082031 0.09375,0.082031 0.117187,0.082031 0.07031,0 0.08203,-0.011719 0.128907,-0.070312 0.351562,-0.4921875 0.785156,-0.4921875 0.9375,-0.4921875 h 0.421875 c -0.210938,0.7617187 -0.585938,1.59375 -0.796875,2.0039062 -0.04687,0.09375 -0.117188,0.2460938 -0.140625,0.2695313 0,0.023437 -0.01172,0.058594 -0.01172,0.1054687 0,0.1054688 0.08203,0.2226563 0.246094,0.2226563 0.269531,0 0.351562,-0.3164063 0.515625,-0.9375 z m 0,0"
         style="fill:#000000;fill-opacity:1;fill-rule:nonzero;stroke:none" />
    </g>
    <path
       id="path49"
       d="m -44.046,-1.054 h 8.881"
       style="fill:none;stroke:#000000;stroke-width:0.3985;stroke-linecap:butt;stroke-linejoin:miter;stroke-miterlimit:10;stroke-dasharray:none;stroke-opacity:1"
       transform="matrix(1.3333333,0,0,-1.3333333,273.44933,165.88533)" />
    <path
       id="path50"
       d="m 1.8995078,-2.3334766 c 0.5507813,0 0.9375,0.375 0.9375,1.125 0,0.86718754 -0.5039062,1.12500004 -0.9023437,1.12500004 -0.28125,0 -0.890625,-0.08203125 -1.18359379,-0.4921875 0.32812499,-0.0117188 0.39843749,-0.24609375 0.39843749,-0.38671875 0,-0.22265629 -0.16406249,-0.38671879 -0.38671874,-0.38671879 -0.1875,0 -0.38671875,0.1171875 -0.38671875,0.41015629 0,0.65625 0.72656249,1.078125 1.57031249,1.078125 0.9726563,0 1.640625,-0.64453125 1.640625,-1.34765629 0,-0.5390625 -0.4453125,-1.0898437 -1.21875,-1.2421875 0.7382813,-0.2695312 0.9960938,-0.796875 0.9960938,-1.21875 0,-0.5507812 -0.6328125,-0.9609375 -1.40625,-0.9609375 -0.7734375,0 -1.35937504,0.375 -1.35937504,0.9375 0,0.234375 0.15234375,0.3632813 0.36328125,0.3632813 0.21093749,0 0.35156249,-0.1640625 0.35156249,-0.3515625 0,-0.1992188 -0.140625,-0.3515625 -0.35156249,-0.3632813 0.23437499,-0.3046875 0.71484379,-0.3867187 0.97265629,-0.3867187 0.3164062,0 0.7617187,0.1523437 0.7617187,0.7617187 0,0.2929688 -0.1054687,0.609375 -0.28125,0.8320313 -0.234375,0.2578125 -0.421875,0.28125 -0.7734375,0.2929687 -0.1757812,0.023437 -0.1875,0.023437 -0.2226562,0.023437 -0.011719,0 -0.070312,0.011719 -0.070312,0.09375 0,0.09375 0.058594,0.09375 0.1757812,0.09375 z m 0,0"
       style="fill:#000000;fill-opacity:1;fill-rule:nonzero;stroke:none"
       aria-label="3"
       transform="matrix(1.3333333,0,0,1.3333333,217.99467,175.19333)" />
  </g>
</svg>
