<?xml version="1.0" encoding="UTF-8" standalone="no"?>
<!-- Created with Inkscape (http://www.inkscape.org/) -->

<svg
   version="1.1"
   id="svg1"
   width="157.75999"
   height="126.26667"
   viewBox="0 0 157.75999 126.26667"
   sodipodi:docname="23-24-1-信号与系统-期中-解答3-1.pdf"
   xmlns:inkscape="http://www.inkscape.org/namespaces/inkscape"
   xmlns:sodipodi="http://sodipodi.sourceforge.net/DTD/sodipodi-0.dtd"
   xmlns="http://www.w3.org/2000/svg"
   xmlns:svg="http://www.w3.org/2000/svg">
  <defs
     id="defs1" />
  <sodipodi:namedview
     id="namedview1"
     pagecolor="#ffffff"
     bordercolor="#000000"
     borderopacity="0.25"
     inkscape:showpageshadow="2"
     inkscape:pageopacity="0.0"
     inkscape:pagecheckerboard="0"
     inkscape:deskcolor="#d1d1d1">
    <inkscape:page
       x="0"
       y="0"
       inkscape:label="1"
       id="page1"
       width="157.75999"
       height="126.26667"
       margin="0"
       bleed="0" />
  </sodipodi:namedview>
  <g
     id="g1"
     inkscape:groupmode="layer"
     inkscape:label="1">
    <path
       id="path1"
       d="M -23.86456,-39.58665 V 55.11319 H 94.45358 v -94.69984 z"
       style="fill:#ffffff;fill-opacity:1;fill-rule:nonzero;stroke:none"
       transform="matrix(1.3333333,0,0,-1.3333333,31.818667,73.484)" />
    <path
       id="path2"
       d="M -14.17317,0 H 84.64172"
       style="fill:none;stroke:#000000;stroke-width:0.3985;stroke-linecap:butt;stroke-linejoin:miter;stroke-miterlimit:10;stroke-dasharray:none;stroke-opacity:1"
       transform="matrix(1.3333333,0,0,-1.3333333,31.818667,73.484)" />
    <path
       id="path3"
       d="M -2.07224,2.39104 C -1.69365,0.95639 -0.84999,0.27895 0,0 -0.84999,-0.27895 -1.69365,-0.95639 -2.07224,-2.39104"
       style="fill:none;stroke:#000000;stroke-width:0.3985;stroke-linecap:round;stroke-linejoin:round;stroke-miterlimit:10;stroke-dasharray:none;stroke-opacity:1"
       transform="matrix(1.3333333,0,0,-1.3333333,144.93996,73.484)" />
    <path
       id="path4"
       d="m 2.0522266,-3.9846328 h 0.9375 c 0.1992187,0 0.3046875,0 0.3046875,-0.1992188 0,-0.1054687 -0.1054688,-0.1054687 -0.28125,-0.1054687 H 2.1342578 c 0.3632813,-1.4179688 0.4101563,-1.6171875 0.4101563,-1.6757813 0,-0.1757812 -0.1171875,-0.2695312 -0.2929688,-0.2695312 -0.023437,0 -0.3046875,0.011719 -0.3984375,0.3515625 l -0.3867187,1.59375 H 0.52878906 c -0.19921875,0 -0.29296875,0 -0.29296875,0.1875 0,0.1171875 0.0703125,0.1171875 0.26953125,0.1171875 H 1.3842578 c -0.71484374,2.8242187 -0.74999999,2.99999999 -0.74999999,3.17578124 0,0.5390625 0.37499999,0.9140625 0.91406249,0.9140625 1.0078125,0 1.5820313,-1.45312504 1.5820313,-1.53515624 0,-0.09375 -0.082031,-0.09375 -0.1171875,-0.09375 -0.09375,0 -0.1054688,0.023437 -0.1523438,0.140625 -0.4335937,1.03124999 -0.9609375,1.27734374 -1.3007812,1.27734374 -0.1992188,0 -0.3046875,-0.12890625 -0.3046875,-0.45703125 0,-0.24609375 0.023437,-0.31640625 0.058594,-0.48046879 z m 0,0"
       style="fill:#000000;fill-opacity:1;fill-rule:nonzero;stroke:none"
       aria-label="t"
       transform="matrix(1.3333333,0,0,1.3333333,142.80667,86.348)" />
    <path
       id="path5"
       d="M 0,-34.01608 V 33.61757"
       style="fill:none;stroke:#000000;stroke-width:0.3985;stroke-linecap:butt;stroke-linejoin:miter;stroke-miterlimit:10;stroke-dasharray:none;stroke-opacity:1"
       transform="matrix(1.3333333,0,0,-1.3333333,31.818667,73.484)" />
    <path
       id="path6"
       d="M -2.07224,2.39104 C -1.69365,0.95639 -0.84999,0.27895 0,0 -0.84999,-0.27895 -1.69365,-0.95639 -2.07224,-2.39104"
       style="fill:none;stroke:#000000;stroke-width:0.3985;stroke-linecap:round;stroke-linejoin:round;stroke-miterlimit:10;stroke-dasharray:none;stroke-opacity:1"
       transform="matrix(0,-1.3333333,-1.3333333,0,31.818667,28.394907)" />
    <g
       id="g6"
       aria-label="x&#10;2&#10;(t)"
       transform="matrix(1.3333333,0,0,1.3333333,17.478667,20.114667)">
      <path
         id="path7"
         d="m 3.3294766,-3.0127578 c 0.058594,-0.2578125 0.2929687,-1.171875 0.984375,-1.171875 0.046875,0 0.2929687,0 0.5039062,0.1289062 -0.28125,0.046875 -0.4804687,0.3046875 -0.4804687,0.5390625 0,0.1640625 0.1054687,0.3515625 0.375,0.3515625 0.2226562,0 0.5390625,-0.1875 0.5390625,-0.5859375 0,-0.515625 -0.5859375,-0.65625 -0.9257813,-0.65625 -0.5742187,0 -0.9257812,0.5273438 -1.0429687,0.7617188 -0.2578125,-0.65625 -0.7851563,-0.7617188 -1.078125,-0.7617188 -1.0429688,0 -1.60546879,1.2890625 -1.60546879,1.5351563 0,0.1054687 0.10546875,0.1054687 0.1171875,0.1054687 0.0820313,0 0.1171875,-0.023437 0.12890625,-0.1171875 0.33984374,-1.0546875 0.99609374,-1.3007812 1.33593754,-1.3007812 0.1875,0 0.5390625,0.09375 0.5390625,0.6679687 0,0.3046875 -0.1640625,0.9726563 -0.5390625,2.3671875 -0.1523438,0.62109379 -0.5039063,1.04296879 -0.9492188,1.04296879 -0.058594,0 -0.28124999,0 -0.49218749,-0.12890625 0.24609375,-0.0585937 0.46874999,-0.26953125 0.46874999,-0.5390625 0,-0.26953124 -0.22265624,-0.35156254 -0.37499999,-0.35156254 -0.29296875,0 -0.5390625,0.25781254 -0.5390625,0.57421879 0,0.45703125 0.4921875,0.65625 0.93749999,0.65625 0.65625,0 1.0078125,-0.69140625 1.0429688,-0.75 0.1171875,0.36328125 0.4804687,0.75 1.078125,0.75 1.0195312,0 1.59375,-1.27734379 1.59375,-1.53515629 0,-0.09375 -0.09375,-0.09375 -0.1289063,-0.09375 -0.082031,0 -0.1054687,0.035156 -0.1289062,0.1054688 -0.328125,1.06640624 -0.9960938,1.31249999 -1.3242188,1.31249999 -0.3867187,0 -0.5390625,-0.328125 -0.5390625,-0.65625 0,-0.22265625 0.058594,-0.44531249 0.1640625,-0.87890629 z m 0,0"
         style="fill:#000000;fill-opacity:1;fill-rule:nonzero;stroke:none" />
      <path
         id="path8"
         d="M 9.2093594,0.23040625 H 8.9749844 C 8.9515469,0.38275 8.8929531,0.79290625 8.7992031,0.86321875 8.7406094,0.898375 8.2015469,0.898375 8.1077969,0.898375 H 6.8187344 c 0.7382812,-0.64453125 0.984375,-0.84375 1.3945312,-1.171875 0.515625,-0.41015625 0.9960938,-0.84375 0.9960938,-1.5 0,-0.84375 -0.7382813,-1.359375 -1.6289063,-1.359375 -0.8671875,0 -1.453125,0.609375 -1.453125,1.2421875 0,0.3632812 0.3046875,0.3984375 0.375,0.3984375 0.1640625,0 0.375,-0.1171875 0.375,-0.375 0,-0.1289063 -0.058594,-0.3632813 -0.421875,-0.3632813 0.2226563,-0.5039062 0.6914063,-0.65625 1.0195313,-0.65625 0.703125,0 1.0664062,0.5507813 1.0664062,1.1132813 0,0.609375 -0.4335937,1.08984375 -0.65625,1.3359375 L 6.1976406,1.2265 c -0.070312,0.058594 -0.070312,0.070312 -0.070312,0.2695312 h 2.8828125 z m 0,0"
         style="fill:#000000;fill-opacity:1;fill-rule:nonzero;stroke:none" />
      <path
         id="path9"
         d="m 13.457406,2.3895859 c 0,-0.035156 0,-0.046875 -0.164062,-0.2226562 -1.242188,-1.25390626 -1.570313,-3.12890626 -1.570313,-4.6640625 0,-1.7226563 0.386719,-3.4570313 1.605469,-4.7109375 0.128906,-0.1171875 0.128906,-0.1289063 0.128906,-0.1640625 0,-0.070312 -0.03516,-0.1054688 -0.09375,-0.1054688 -0.105469,0 -0.996094,0.6796875 -1.582031,1.9453125 -0.515625,1.1015625 -0.632813,2.203125 -0.632813,3.0351563 0,0.7851562 0.117188,1.99218749 0.65625,3.11718749 0.597657,1.21875001 1.453125,1.87500001 1.558594,1.87500001 0.05859,0 0.09375,-0.035156 0.09375,-0.1054688 z m 0,0"
         style="fill:#000000;fill-opacity:1;fill-rule:nonzero;stroke:none" />
      <path
         id="path10"
         d="m 16.088266,-3.9854141 h 0.9375 c 0.199218,0 0.304687,0 0.304687,-0.1992187 0,-0.1054688 -0.105469,-0.1054688 -0.28125,-0.1054688 h -0.878906 c 0.363281,-1.4179687 0.410156,-1.6171875 0.410156,-1.6757812 0,-0.1757813 -0.117187,-0.2695313 -0.292969,-0.2695313 -0.02344,0 -0.304687,0.011719 -0.398437,0.3515625 l -0.386719,1.59375 h -0.9375 c -0.199219,0 -0.292969,0 -0.292969,0.1875 0,0.1171875 0.07031,0.1171875 0.269532,0.1171875 h 0.878906 c -0.714844,2.8242188 -0.75,3.00000004 -0.75,3.17578129 0,0.5390625 0.375,0.9140625 0.914062,0.9140625 1.007813,0 1.582032,-1.45312499 1.582032,-1.53515629 0,-0.09375 -0.08203,-0.09375 -0.117188,-0.09375 -0.09375,0 -0.105469,0.023437 -0.152344,0.140625 -0.433593,1.03125004 -0.960937,1.27734379 -1.300781,1.27734379 -0.199219,0 -0.304687,-0.12890625 -0.304687,-0.45703125 0,-0.24609375 0.02344,-0.31640625 0.05859,-0.48046874 z m 0,0"
         style="fill:#000000;fill-opacity:1;fill-rule:nonzero;stroke:none" />
      <path
         id="path11"
         d="m 20.517953,-2.4971328 c 0,-0.7734375 -0.117187,-1.9804688 -0.65625,-3.1054688 -0.597656,-1.21875 -1.464844,-1.875 -1.558594,-1.875 -0.05859,0 -0.105468,0.046875 -0.105468,0.1054688 0,0.035156 0,0.046875 0.199218,0.234375 0.972657,0.984375 1.535157,2.5664062 1.535157,4.640625 0,1.71093749 -0.363282,3.45703124 -1.59375,4.7226562 -0.140625,0.1171875 -0.140625,0.1289063 -0.140625,0.1640625 0,0.058594 0.04687,0.1054688 0.105468,0.1054688 0.09375,0 0.996094,-0.6796875 1.582032,-1.94531251 0.503906,-1.1015625 0.632812,-2.20312499 0.632812,-3.04687499 z m 0,0"
         style="fill:#000000;fill-opacity:1;fill-rule:nonzero;stroke:none" />
    </g>
    <path
       id="path12"
       d="m 7.3718437,-4.3482266 c 0,-1.59375 -1.0546875,-2.671875 -2.5429687,-2.671875 -2.1445313,0 -4.3359375,2.2617188 -4.3359375,4.5820313 0,1.65234374 1.1132812,2.66015624 2.5429687,2.66015624 2.109375,0 4.3359375,-2.17968754 4.3359375,-4.57031254 z M 3.0945,-0.03572656 c -0.984375,0 -1.6757813,-0.80859375 -1.6757813,-2.12109374 0,-0.4453125 0.140625,-1.8984375 0.9023438,-3.0585938 0.6914062,-1.0429687 1.6640625,-1.5585937 2.4492187,-1.5585937 0.8203125,0 1.7109375,0.5625 1.7109375,2.0390625 0,0.7148437 -0.2695312,2.2734375 -1.2539062,3.5039062 C 4.7468437,-0.63338281 3.93825,-0.03572656 3.0945,-0.03572656 Z m 0,0"
       style="fill:#000000;fill-opacity:1;fill-rule:nonzero;stroke:none"
       aria-label="O"
       transform="matrix(1.3333333,0,0,1.3333333,16.624,87.254667)" />
    <path
       id="path13"
       d="m 2.9299687,-6.3744375 c 0,-0.234375 0,-0.2578125 -0.234375,-0.2578125 -0.609375,0.6328125 -1.4882812,0.6328125 -1.80468745,0.6328125 v 0.3164062 c 0.19921875,0 0.78515625,0 1.30078125,-0.2578125 v 5.15625005 c 0,0.3515625 -0.035156,0.48046875 -0.9257813,0.48046875 H 0.9495 V 5.625e-4 c 0.3515625,-0.03515625 1.2070312,-0.03515625 1.6054687,-0.03515625 0.3984375,0 1.265625,0 1.6171875,0.03515625 V -0.304125 H 3.85575 c -0.9023438,0 -0.9257813,-0.1171875 -0.9257813,-0.48046875 z m 0,0"
       style="fill:#000000;fill-opacity:1;fill-rule:nonzero;stroke:none"
       aria-label="1"
       transform="matrix(1.3333333,0,0,1.3333333,20.484,39.968)" />
    <g
       id="g13"
       aria-label="−1"
       transform="matrix(1.3333333,0,0,1.3333333,10.152,115.00667)">
      <path
         id="path14"
         d="m 6.5627578,-2.2960156 c 0.1757813,0 0.3515625,0 0.3515625,-0.1992188 0,-0.1992187 -0.1757812,-0.1992187 -0.3515625,-0.1992187 h -5.390625 c -0.1640625,0 -0.33984374,0 -0.33984374,0.1992187 0,0.1992188 0.17578124,0.1992188 0.33984374,0.1992188 z m 0,0"
         style="fill:#000000;fill-opacity:1;fill-rule:nonzero;stroke:none" />
      <path
         id="path15"
         d="m 10.678969,-6.3741406 c 0,-0.234375 0,-0.2578125 -0.234375,-0.2578125 -0.6093753,0.6328125 -1.4882815,0.6328125 -1.8046878,0.6328125 v 0.3164062 c 0.1992188,0 0.7851563,0 1.3007813,-0.2578125 v 5.15625002 c 0,0.3515625 -0.035156,0.48046875 -0.9257813,0.48046875 H 8.6985 V 8.59375e-4 c 0.3515625,-0.035156255 1.2070312,-0.035156255 1.605469,-0.035156255 0.398437,0 1.265625,0 1.617187,0.035156255 V -0.30382813 H 11.60475 c -0.902344,0 -0.925781,-0.1171875 -0.925781,-0.48046875 z m 0,0"
         style="fill:#000000;fill-opacity:1;fill-rule:nonzero;stroke:none" />
    </g>
    <path
       id="path16"
       d="m 2.9308984,-6.3762031 c 0,-0.234375 0,-0.2578125 -0.234375,-0.2578125 -0.609375,0.6328125 -1.4882812,0.6328125 -1.80468746,0.6328125 v 0.3164062 c 0.19921876,0 0.78515626,0 1.30078126,-0.2578125 v 5.15625002 c 0,0.3515625 -0.035156,0.48046875 -0.9257813,0.48046875 H 0.95042969 v 0.3046875 C 1.3019922,-0.03635938 2.1574609,-0.03635938 2.5558984,-0.03635938 c 0.3984375,0 1.265625,0 1.6171875,0.03515625 v -0.3046875 H 3.8566797 c -0.9023438,0 -0.9257813,-0.1171875 -0.9257813,-0.48046875 z m 0,0"
       style="fill:#000000;fill-opacity:1;fill-rule:nonzero;stroke:none"
       aria-label="1"
       transform="matrix(1.3333333,0,0,1.3333333,122.98667,68.790667)" />
    <path
       id="path17"
       d="m 2.3313828,-4.4287812 c 0,-0.1875 -0.011719,-0.1992188 -0.2109375,-0.1992188 -0.4453125,0.4335938 -1.078125,0.4453125 -1.35937499,0.4453125 v 0.2460937 c 0.1640625,0 0.62109379,0 1.00781249,-0.1874999 v 3.5507812 c 0,0.234375 0,0.328125 -0.6914062,0.328125 H 0.80794531 V 9.0625e-4 c 0.12890625,-0.01171875 0.98437499,-0.0234375 1.24218749,-0.0234375 0.2109375,0 1.0898438,0.01171875 1.2421875,0.0234375 V -0.2451875 H 3.0345078 c -0.703125,0 -0.703125,-0.09375 -0.703125,-0.328125 z m 0,0"
       style="fill:#000000;fill-opacity:1;fill-rule:nonzero;stroke:none"
       aria-label="1"
       transform="matrix(1.3333333,0,0,1.3333333,67.481333,84.170667)" />
    <path
       id="path18"
       d="m -46.94,19.378 h 3.971"
       style="fill:none;stroke:#000000;stroke-width:0.3985;stroke-linecap:butt;stroke-linejoin:miter;stroke-miterlimit:10;stroke-dasharray:none;stroke-opacity:1"
       transform="matrix(1.3333333,0,0,-1.3333333,130.068,111.91733)" />
    <path
       id="path19"
       d="m 3.5149766,-1.2662734 h -0.234375 c -0.023437,0.1523437 -0.082031,0.56249996 -0.1757813,0.63281246 -0.058594,0.0351563 -0.5976562,0.0351563 -0.6914062,0.0351563 H 1.1243516 c 0.7382812,-0.64453116 0.984375,-0.84374996 1.3945312,-1.17187496 0.515625,-0.4101562 0.9960938,-0.84375 0.9960938,-1.5 0,-0.84375 -0.7382813,-1.359375 -1.6289063,-1.359375 -0.8671875,0 -1.45312499,0.609375 -1.45312499,1.2421875 0,0.3632813 0.3046875,0.3984375 0.375,0.3984375 0.1640625,0 0.37499999,-0.1171875 0.37499999,-0.375 0,-0.1289062 -0.058594,-0.3632812 -0.42187499,-0.3632812 0.22265625,-0.5039063 0.69140629,-0.65625 1.01953129,-0.65625 0.703125,0 1.0664062,0.5507812 1.0664062,1.1132812 0,0.609375 -0.4335937,1.0898438 -0.65625,1.3359375 l -1.68749999,1.66406246 c -0.0703125,0.0585937 -0.0703125,0.0703125 -0.0703125,0.2695312525 H 3.3157578 Z m 0,0"
       style="fill:#000000;fill-opacity:1;fill-rule:nonzero;stroke:none"
       aria-label="2"
       transform="matrix(1.3333333,0,0,1.3333333,67.481333,93.981333)" />
    <path
       id="path20"
       d="m 0,0 0.47469,1.19206 0.47471,1.19078 0.47472,1.18645 0.4747,1.17996 0.47472,1.17174 0.47471,1.16093 0.47472,1.14884 0.4747,1.13411 0.47471,1.1168 0.47471,1.09908 0.47471,1.07832 0.4747,1.05626 0.47472,1.0316 0.47472,1.00524 0.47471,0.97752 0.4747,0.94812 0.47472,0.9174 0.47471,0.88282 0.47472,0.84952 0.47469,0.81317 0.47471,0.77554 0.47472,0.7379 0.4747,0.69553 0.47472,0.65658 0.47471,0.61247 0.47472,0.56923 0.4747,0.52553 0.47472,0.4784 0.4747,0.4334 0.47471,0.38538 0.4747,0.33739 0.47472,0.28979 0.47472,0.24007 0.47471,0.1916 0.4747,0.14058 0.47472,0.09169 0.47472,0.04154 0.47471,-0.0095 0.47469,-0.05882 0.47471,-0.10944 0.47472,-0.15918 0.4747,-0.20889 0.47472,-0.2578 0.47471,-0.30625 0.47472,-0.35554 0.4747,-0.40184 0.47472,-0.45068 0.47471,-0.49528 0.4747,-0.54067 0.4747,-0.58521 0.47472,-0.6272 0.47472,-0.67128 0.47471,-0.7111 0.4747,-0.75131 0.47472,-0.78939 0.47472,-0.82573 0.47471,-0.86204 0.47469,-0.89578 0.47471,-0.9278 0.47472,-0.95937 0.47472,-0.98704 0.4747,-1.01518 0.47471,-1.04068 0.47472,-1.06447 0.4747,-1.08568 0.47472,-1.10556 0.47471,-1.12373 0.4747,-1.13932 0.4747,-1.15399 0.47472,-1.1644 0.47472,-1.17479 0.47471,-1.18298 0.4747,-1.18774 0.47472,-1.19208 0.47472,-1.19205 0.47471,-1.19208 0.47469,-1.18904 0.47471,-1.18429 0.47472,-1.17736 0.47472,-1.16828 0.4747,-1.15662 0.47471,-1.14363 0.47472,-1.1285 0.4747,-1.11076 0.47472,-1.09215 0.47471,-1.0701 0.4747,-1.04803 0.4747,-1.02252 0.47472,-0.99527 0.47472,-0.96802 0.47471,-0.93602 0.47471,-0.90573 0.47471,-0.87114 0.47472,-0.83609 0.47471,-0.80106 0.4747,-0.76126 0.4747,-0.7232 0.47472,-0.68169 0.47472,-0.64058 0.4747,-0.59778 0.47472,-0.5532 0.47471,-0.50911 0.4747,-0.46195 0.47472,-0.41653 0.47471,-0.36809 0.4747,-0.32051 0.4747,-0.27294 0.47472,-0.22189 0.47472,-0.17387 0.47471,-0.12285 0.47471,-0.07309 0.47471,-0.02466 0.47472,0.02811 0.47471,0.07657 0.4747,0.12716 0.4747,0.17692 0.47472,0.2262 0.47472,0.27596 0.4747,0.32354 0.47472,0.37241 0.47471,0.41957 0.47472,0.46584 0.4747,0.51213 0.47471,0.55625 0.47472,0.60122 0.47468,0.64275 0.47472,0.68557 0.47472,0.72579 0.47472,0.7643 0.4747,0.80366 0.47471,0.83869 0.47472,0.87416 0.47471,0.90746 0.4747,0.93905 0.4747,0.96974 0.47472,0.99701 0.47472,1.02467 0.4747,1.04935 0.47472,1.07227 0.47471,1.09301 0.47472,1.11205 0.4747,1.1298 0.47471,1.14449 0.47472,1.15791 0.47469,1.16915 0.47471,1.1778 0.47472,1.18472 0.47472,1.18948 0.4747,1.19208"
       style="fill:none;stroke:#000000;stroke-width:0.3985;stroke-linecap:butt;stroke-linejoin:miter;stroke-miterlimit:10;stroke-dasharray:none;stroke-opacity:1"
       transform="matrix(1.3333333,0,0,-1.3333333,31.818667,73.484)" />
    <path
       id="path21"
       d="M 0,28.3468 H 17.71674"
       style="fill:none;stroke:#000000;stroke-width:0.3985;stroke-linecap:butt;stroke-linejoin:miter;stroke-miterlimit:10;stroke-dasharray:2.98883, 2.98883;stroke-dashoffset:0;stroke-opacity:1"
       transform="matrix(1.3333333,0,0,-1.3333333,31.818667,73.484)" />
    <path
       id="path22"
       d="M 0,-28.3468 H 53.15027"
       style="fill:none;stroke:#000000;stroke-width:0.3985;stroke-linecap:butt;stroke-linejoin:miter;stroke-miterlimit:10;stroke-dasharray:2.98883, 2.98883;stroke-dashoffset:0;stroke-opacity:1"
       transform="matrix(1.3333333,0,0,-1.3333333,31.818667,73.484)" />
  </g>
</svg>
