<?xml version="1.0" encoding="UTF-8" standalone="no"?>
<!-- Created with Inkscape (http://www.inkscape.org/) -->

<svg
   version="1.1"
   id="svg1"
   width="455.92001"
   height="198.94667"
   viewBox="0 0 455.92001 198.94667"
   sodipodi:docname="23-24-1-信号与系统-期中-解答6b.pdf"
   xmlns:inkscape="http://www.inkscape.org/namespaces/inkscape"
   xmlns:sodipodi="http://sodipodi.sourceforge.net/DTD/sodipodi-0.dtd"
   xmlns="http://www.w3.org/2000/svg"
   xmlns:svg="http://www.w3.org/2000/svg">
  <defs
     id="defs1" />
  <sodipodi:namedview
     id="namedview1"
     pagecolor="#ffffff"
     bordercolor="#000000"
     borderopacity="0.25"
     inkscape:showpageshadow="2"
     inkscape:pageopacity="0.0"
     inkscape:pagecheckerboard="0"
     inkscape:deskcolor="#d1d1d1">
    <inkscape:page
       x="0"
       y="0"
       inkscape:label="1"
       id="page1"
       width="455.92001"
       height="198.94667"
       margin="0"
       bleed="0" />
  </sodipodi:namedview>
  <g
     id="g1"
     inkscape:groupmode="layer"
     inkscape:label="1">
    <path
       id="path1"
       d="M -81.02959,-66.8561 V 82.35616 H 260.9125 V -66.8561 Z"
       style="fill:#ffffff;fill-opacity:1;fill-rule:nonzero;stroke:none"
       transform="matrix(1.3333333,0,0,-1.3333333,108.03867,109.80667)" />
    <path
       id="path2"
       d="M -76.53639,0 H 76.13788"
       style="fill:none;stroke:#000000;stroke-width:0.3985;stroke-linecap:butt;stroke-linejoin:miter;stroke-miterlimit:10;stroke-dasharray:none;stroke-opacity:1"
       transform="matrix(1.3333333,0,0,-1.3333333,108.03867,109.80667)" />
    <path
       id="path3"
       d="M -2.07224,2.39104 C -1.69365,0.95639 -0.84999,0.27895 0,0 -0.84999,-0.27895 -1.69365,-0.95639 -2.07224,-2.39104"
       style="fill:none;stroke:#000000;stroke-width:0.3985;stroke-linecap:round;stroke-linejoin:round;stroke-miterlimit:10;stroke-dasharray:none;stroke-opacity:1"
       transform="matrix(1.3333333,0,0,-1.3333333,209.82152,109.80667)" />
    <path
       id="path4"
       d="m 6.0235703,-3.7030625 c 0,-0.4453125 -0.1757812,-0.703125 -0.3984375,-0.703125 -0.2578125,0 -0.5273437,0.2460938 -0.5273437,0.46875 0,0.1054688 0.046875,0.2109375 0.1523437,0.3046875 0.1640625,0.140625 0.3515625,0.4101563 0.3515625,0.8320313 0,0.3984375 -0.1875,0.9726562 -0.5039062,1.4296875 -0.2929688,0.42187495 -0.6679688,0.7617187 -1.1367188,0.7617187 -0.5625,0 -0.8671875,-0.3515625 -0.9609375,-0.890625 0.1054688,-0.2578125 0.3398438,-0.9023437 0.3398438,-1.1835937 0,-0.1171875 -0.046875,-0.2109375 -0.1875,-0.2109375 -0.070312,0 -0.1875,0.011719 -0.2578125,0.1640625 -0.1171875,0.1992187 -0.234375,0.84375 -0.234375,1.2070312 -0.328125,0.46875 -0.7265625,0.9140625 -1.359375,0.9140625 -0.65625004,0 -0.86718754,-0.5859375 -0.86718754,-1.1484375 0,-1.2421875 1.01953124,-2.2851562 1.01953124,-2.4140625 0,-0.1171875 -0.082031,-0.1875 -0.1875,-0.1875 -0.1289062,0 -0.1992187,0.1289063 -0.2578125,0.2109375 -0.50390624,0.7382813 -0.89062499,1.921875 -0.89062499,2.8359375 0,0.6796875 0.234375,1.41796875 1.04296879,1.41796875 0.7148437,0 1.1835937,-0.4921875 1.5351562,-1.04296875 0.09375,0.57421875 0.4804688,1.04296875 1.1015625,1.04296875 0.7734375,0 1.2539063,-0.609375 1.6171875,-1.34765625 0.234375,-0.4921875 0.609375,-1.8515625 0.609375,-2.4609375 z m 0,0"
       style="fill:#000000;fill-opacity:1;fill-rule:nonzero;stroke:none"
       aria-label="ω"
       transform="matrix(1.3333333,0,0,1.3333333,205.71467,120.21867)" />
    <path
       id="path5"
       d="M 0,-8.5039 V 63.38182"
       style="fill:none;stroke:#000000;stroke-width:0.3985;stroke-linecap:butt;stroke-linejoin:miter;stroke-miterlimit:10;stroke-dasharray:none;stroke-opacity:1"
       transform="matrix(1.3333333,0,0,-1.3333333,108.03867,109.80667)" />
    <path
       id="path6"
       d="M -2.07224,2.39104 C -1.69365,0.95639 -0.84999,0.27895 0,0 -0.84999,-0.27895 -1.69365,-0.95639 -2.07224,-2.39104"
       style="fill:none;stroke:#000000;stroke-width:0.3985;stroke-linecap:round;stroke-linejoin:round;stroke-miterlimit:10;stroke-dasharray:none;stroke-opacity:1"
       transform="matrix(0,-1.3333333,-1.3333333,0,108.03867,25.031907)" />
    <g
       id="g6"
       aria-label="C&#10;n"
       transform="matrix(1.3333333,0,0,1.3333333,112.732,28.308)">
      <path
         id="path7"
         d="m 7.5691641,-6.9253359 c 0,-0.023437 -0.023437,-0.09375 -0.1054688,-0.09375 -0.035156,0 -0.046875,0.011719 -0.1523437,0.1171875 l -0.703125,0.7617187 c -0.082031,-0.140625 -0.5390625,-0.8789062 -1.6523438,-0.8789062 -2.2148437,0 -4.45312499,2.203125 -4.45312499,4.5117187 0,1.64062501 1.17187499,2.73046876 2.69531249,2.73046876 0.8671875,0 1.6171875,-0.3984375 2.1445313,-0.85546875 0.9375,-0.82031251 1.1015625,-1.72265621 1.1015625,-1.75781251 0,-0.1054687 -0.1054688,-0.1054687 -0.1171875,-0.1054687 -0.058594,0 -0.1171875,0.023437 -0.1289063,0.1054687 -0.09375,0.2929688 -0.3164062,0.9960938 -1.0078125,1.57031251 -0.6914062,0.5625 -1.3125,0.7265625 -1.8398437,0.7265625 -0.890625,0 -1.9453125,-0.515625 -1.9453125,-2.06250001 0,-0.5742187 0.2109375,-2.1914062 1.2070312,-3.3515625 0.609375,-0.703125 1.5351563,-1.2070312 2.4257813,-1.2070312 1.0195312,0 1.6054687,0.7734375 1.6054687,1.921875 0,0.3984375 -0.035156,0.4101562 -0.035156,0.5039062 0,0.1054688 0.1171875,0.1054688 0.1523437,0.1054688 0.1289063,0 0.1289063,-0.023437 0.1757813,-0.1992188 z m 0,0"
         style="fill:#000000;fill-opacity:1;fill-rule:nonzero;stroke:none" />
      <path
         id="path8"
         d="m 7.9763906,1.0609922 c -0.035156,0.082031 -0.070312,0.2578125 -0.070312,0.28125 0,0.1523437 0.1171875,0.2226562 0.234375,0.2226562 0.1289063,0 0.234375,-0.09375 0.2695313,-0.1523437 0.035156,-0.058594 0.09375,-0.2929688 0.1289062,-0.43359376 0.035156,-0.12890625 0.1054688,-0.45703125 0.1523438,-0.6328125 0.035156,-0.15234375 0.082031,-0.3046875 0.1171875,-0.45703125 0.082031,-0.29296875 0.09375,-0.3515625 0.2929687,-0.6328125 0.1992188,-0.28124999 0.5273438,-0.64453129 1.0429689,-0.64453129 0.410157,0 0.410157,0.3632813 0.410157,0.49218754 0,0.421875 -0.292969,1.1953125 -0.410157,1.48828125 -0.07031,0.1875 -0.105468,0.2578125 -0.105468,0.375 0,0.36328121 0.304687,0.59765621 0.667968,0.59765621 0.691407,0 1.007813,-0.96093746 1.007813,-1.06640621 0,-0.09375 -0.09375,-0.09375 -0.117188,-0.09375 -0.09375,0 -0.105468,0.046875 -0.128906,0.1171875 -0.164062,0.56250001 -0.46875,0.84375001 -0.738282,0.84375001 -0.152343,0 -0.175781,-0.09375 -0.175781,-0.2460938 0,-0.15234371 0.03516,-0.24609371 0.152343,-0.56249996 0.09375,-0.2109375 0.375,-0.94921875 0.375,-1.34765625 0,-0.66796879 -0.539062,-0.78515629 -0.902343,-0.78515629 -0.5859374,0 -0.9726561,0.3515625 -1.1835936,0.63281254 -0.046875,-0.48046874 -0.4570313,-0.63281254 -0.75,-0.63281254 -0.2929688,0 -0.4570313,0.2109375 -0.5507813,0.375 -0.1523437,0.25781254 -0.2460937,0.65625004 -0.2460937,0.69140629 0,0.0820313 0.09375,0.0820313 0.1171875,0.0820313 0.09375,0 0.1054687,-0.0117188 0.1523437,-0.19921875 0.1054688,-0.42187494 0.234375,-0.76171874 0.515625,-0.76171874 0.1757813,0 0.2226563,0.1523438 0.2226563,0.3398438 0,0.14062494 -0.058594,0.39843744 -0.1054688,0.58593744 -0.046875,0.1875 -0.1171875,0.46875 -0.1523437,0.62109375 z m 0,0"
         style="fill:#000000;fill-opacity:1;fill-rule:nonzero;stroke:none" />
    </g>
    <path
       id="path9"
       d="m 7.3709062,-4.3470625 c 0,-1.59375 -1.0546875,-2.671875 -2.5429687,-2.671875 -2.1445313,0 -4.3359375,2.2617188 -4.3359375,4.5820313 0,1.6523437 1.1132812,2.6601562 2.5429687,2.6601562 2.109375,0 4.3359375,-2.1796875 4.3359375,-4.5703125 z m -4.2773437,4.3125 c -0.984375,0 -1.6757813,-0.80859375 -1.6757813,-2.1210937 0,-0.4453125 0.140625,-1.8984375 0.9023438,-3.0585938 0.6914062,-1.0429687 1.6640625,-1.5585937 2.4492187,-1.5585937 0.8203125,0 1.7109375,0.5625 1.7109375,2.0390625 0,0.7148437 -0.2695312,2.2734375 -1.2539062,3.5039062 -0.4804688,0.59765625 -1.2890625,1.1953125 -2.1328125,1.1953125 z m 0,0"
       style="fill:#000000;fill-opacity:1;fill-rule:nonzero;stroke:none"
       aria-label="O"
       transform="matrix(1.3333333,0,0,1.3333333,92.844,123.57733)" />
    <g
       id="g9"
       aria-label="−&#10;π"
       transform="matrix(1.3333333,0,0,1.3333333,26.762667,123.73333)">
      <path
         id="path10"
         d="m 6.5617891,-2.2960937 c 0.1757812,0 0.3515625,0 0.3515625,-0.1992188 0,-0.1992187 -0.1757813,-0.1992187 -0.3515625,-0.1992187 h -5.390625 c -0.1640625,0 -0.33984379,0 -0.33984379,0.1992187 0,0.1992188 0.17578129,0.1992188 0.33984379,0.1992188 z m 0,0"
         style="fill:#000000;fill-opacity:1;fill-rule:nonzero;stroke:none" />
      <path
         id="path11"
         d="m 11.111594,-6.4533203 h 0.832031 c -0.105469,0.421875 -0.257813,1.0546875 -0.257813,1.6054687 0,0.28125 0.03516,0.46875 0.07031,0.6210938 0.117187,0.3515625 0.210937,0.375 0.316406,0.375 0.164063,0 0.328125,-0.1523438 0.328125,-0.3164063 0,-0.058594 -0.01172,-0.082031 -0.05859,-0.1523437 -0.128906,-0.2578125 -0.257812,-0.65625 -0.257812,-1.2304688 0,-0.1289062 0,-0.4101562 0.105469,-0.9023437 h 0.867187 c 0.128906,0 0.1875,0 0.257813,-0.058594 0.09375,-0.070312 0.117187,-0.1757812 0.117187,-0.2109375 0,-0.1992187 -0.175781,-0.1992187 -0.292969,-0.1992187 H 10.50222 c -0.28125,0 -0.480469,0.058594 -0.7968753,0.3515625 -0.1757812,0.1640625 -0.4453125,0.5390625 -0.4453125,0.5976562 0,0.082031 0.09375,0.082031 0.1171875,0.082031 0.070312,0 0.082031,-0.011719 0.1289063,-0.070312 0.3515625,-0.4921875 0.785156,-0.4921875 0.9375,-0.4921875 H 10.8655 c -0.210938,0.7617187 -0.585938,1.59375 -0.796875,2.0039062 -0.04687,0.09375 -0.1171875,0.2460938 -0.140625,0.2695313 0,0.023437 -0.011719,0.058594 -0.011719,0.1054687 0,0.1054688 0.082031,0.2226563 0.246094,0.2226563 0.269531,0 0.351562,-0.3164063 0.515625,-0.9375 z m 0,0"
         style="fill:#000000;fill-opacity:1;fill-rule:nonzero;stroke:none" />
    </g>
    <path
       id="path12"
       d="m 17.973,-7.864 h 4.909"
       style="fill:none;stroke:#000000;stroke-width:0.3985;stroke-linecap:butt;stroke-linejoin:miter;stroke-miterlimit:10;stroke-dasharray:none;stroke-opacity:1"
       transform="matrix(1.3333333,0,0,-1.3333333,14.724,109.92667)" />
    <path
       id="path13"
       d="m 1.8978125,-2.3307266 c 0.5507812,0 0.9375,0.375 0.9375,1.125 0,0.86718754 -0.5039063,1.12500004 -0.9023438,1.12500004 -0.28125,0 -0.890625,-0.08203125 -1.1835937,-0.4921875 0.328125,-0.0117188 0.3984375,-0.24609375 0.3984375,-0.38671875 0,-0.22265629 -0.1640625,-0.38671879 -0.38671875,-0.38671879 -0.1875,0 -0.38671875,0.1171875 -0.38671875,0.41015629 0,0.65625 0.7265625,1.078125 1.5703125,1.078125 0.9726562,0 1.640625,-0.64453125 1.640625,-1.34765629 0,-0.5390625 -0.4453125,-1.0898437 -1.21875,-1.2421875 0.7382812,-0.2695312 0.9960937,-0.796875 0.9960937,-1.21875 0,-0.5507812 -0.6328125,-0.9609375 -1.40625,-0.9609375 -0.7734375,0 -1.35937495,0.375 -1.35937495,0.9375 0,0.234375 0.15234375,0.3632813 0.36328125,0.3632813 0.2109375,0 0.3515625,-0.1640625 0.3515625,-0.3515625 0,-0.1992188 -0.140625,-0.3515625 -0.3515625,-0.3632813 0.234375,-0.3046875 0.7148437,-0.3867187 0.9726562,-0.3867187 0.3164063,0 0.7617188,0.1523437 0.7617188,0.7617187 0,0.2929688 -0.1054688,0.609375 -0.28125,0.8320313 -0.234375,0.2578125 -0.421875,0.28125 -0.7734375,0.2929687 -0.1757813,0.023437 -0.1875,0.023437 -0.2226563,0.023437 -0.011719,0 -0.070312,0.011719 -0.070312,0.09375 0,0.09375 0.058594,0.09375 0.1757813,0.09375 z m 0,0"
       style="fill:#000000;fill-opacity:1;fill-rule:nonzero;stroke:none"
       aria-label="3"
       transform="matrix(1.3333333,0,0,1.3333333,39.313333,128.31467)" />
    <g
       id="g13"
       aria-label="−&#10;π"
       transform="matrix(1.3333333,0,0,1.3333333,44.574667,123.73333)">
      <path
         id="path14"
         d="m 6.5621641,-2.2960937 c 0.1757812,0 0.3515625,0 0.3515625,-0.1992188 0,-0.1992187 -0.1757813,-0.1992187 -0.3515625,-0.1992187 h -5.390625 c -0.1640625,0 -0.33984379,0 -0.33984379,0.1992187 0,0.1992188 0.17578129,0.1992188 0.33984379,0.1992188 z m 0,0"
         style="fill:#000000;fill-opacity:1;fill-rule:nonzero;stroke:none" />
      <path
         id="path15"
         d="M 11.111969,-6.4533203 H 11.944 c -0.105469,0.421875 -0.257812,1.0546875 -0.257812,1.6054687 0,0.28125 0.03516,0.46875 0.07031,0.6210938 0.117188,0.3515625 0.210938,0.375 0.316406,0.375 0.164063,0 0.328125,-0.1523438 0.328125,-0.3164063 0,-0.058594 -0.01172,-0.082031 -0.05859,-0.1523437 -0.128907,-0.2578125 -0.257813,-0.65625 -0.257813,-1.2304688 0,-0.1289062 0,-0.4101562 0.105469,-0.9023437 h 0.867187 c 0.128907,0 0.1875,0 0.257813,-0.058594 0.09375,-0.070312 0.117187,-0.1757812 0.117187,-0.2109375 0,-0.1992187 -0.175781,-0.1992187 -0.292968,-0.1992187 h -2.636719 c -0.28125,0 -0.480469,0.058594 -0.7968752,0.3515625 -0.1757813,0.1640625 -0.4453125,0.5390625 -0.4453125,0.5976562 0,0.082031 0.09375,0.082031 0.1171875,0.082031 0.070312,0 0.082031,-0.011719 0.1289062,-0.070312 0.3515625,-0.4921875 0.785156,-0.4921875 0.9375,-0.4921875 h 0.421875 c -0.210937,0.7617187 -0.585937,1.59375 -0.796875,2.0039062 -0.04687,0.09375 -0.1171875,0.2460938 -0.140625,0.2695313 0,0.023437 -0.011719,0.058594 -0.011719,0.1054687 0,0.1054688 0.082031,0.2226563 0.246094,0.2226563 0.269531,0 0.351563,-0.3164063 0.515625,-0.9375 z m 0,0"
         style="fill:#000000;fill-opacity:1;fill-rule:nonzero;stroke:none" />
    </g>
    <path
       id="path16"
       d="m 17.973,-7.864 h 4.909"
       style="fill:none;stroke:#000000;stroke-width:0.3985;stroke-linecap:butt;stroke-linejoin:miter;stroke-miterlimit:10;stroke-dasharray:none;stroke-opacity:1"
       transform="matrix(1.3333333,0,0,-1.3333333,32.536,109.92667)" />
    <path
       id="path17"
       d="M 3.6911563,-1.1471328 V -1.3932266 H 2.9177188 v -3.1054687 c 0,-0.1523438 0,-0.1992188 -0.1523438,-0.1992188 -0.09375,0 -0.1171875,0 -0.1875,0.09375 l -2.30859375,3.2109375 v 0.2460938 H 2.3200625 v 0.57421874 c 0,0.234375 0,0.328125 -0.5625,0.328125 h -0.1875 v 0.24609375 c 0.3515625,-0.01171875 0.796875,-0.0234375 1.0429688,-0.0234375 0.2578125,0 0.703125,0.01171875 1.0546875,0.0234375 v -0.24609375 h -0.1875 c -0.5625,0 -0.5625,-0.09375 -0.5625,-0.328125 V -1.1471328 Z M 2.3669375,-3.9479141 v 2.5546875 H 0.52709375 Z m 0,0"
       style="fill:#000000;fill-opacity:1;fill-rule:nonzero;stroke:none"
       aria-label="4"
       transform="matrix(1.3333333,0,0,1.3333333,57.125333,128.31467)" />
    <path
       id="path18"
       d="m 2.1693828,-2.5303203 h 0.8320313 c -0.1054688,0.421875 -0.2578125,1.0546875 -0.2578125,1.60546874 0,0.28125 0.035156,0.46875 0.070312,0.62109375 0.1171875,0.3515625 0.2109375,0.375 0.3164062,0.375 0.1640625,0 0.328125,-0.15234375 0.328125,-0.31640625 0,-0.0585938 -0.011719,-0.0820313 -0.058594,-0.15234375 -0.1289063,-0.2578125 -0.2578125,-0.65624999 -0.2578125,-1.23046879 0,-0.1289062 0,-0.4101562 0.1054687,-0.9023437 h 0.8671875 c 0.1289063,0 0.1875,0 0.2578125,-0.058594 0.09375,-0.070312 0.1171875,-0.1757812 0.1171875,-0.2109375 0,-0.1992187 -0.1757812,-0.1992187 -0.2929687,-0.1992187 h -2.636718 c -0.28125,0 -0.4804687,0.058594 -0.79687499,0.3515625 -0.17578125,0.1640625 -0.4453125,0.5390625 -0.4453125,0.5976562 0,0.082031 0.09375,0.082031 0.1171875,0.082031 0.0703125,0 0.0820313,-0.011719 0.12890625,-0.070312 0.3515625,-0.4921875 0.78515624,-0.4921875 0.93750004,-0.4921875 h 0.421875 c -0.2109375,0.7617187 -0.5859375,1.59374999 -0.796875,2.00390624 -0.046875,0.09375 -0.1171875,0.24609375 -0.14062504,0.26953125 0,0.0234375 -0.0117188,0.0585938 -0.0117188,0.10546875 0,0.10546875 0.0820313,0.22265625 0.24609374,0.22265625 0.2695312,0 0.3515625,-0.31640625 0.515625,-0.9375 z m 0,0"
       style="fill:#000000;fill-opacity:1;fill-rule:nonzero;stroke:none"
       aria-label="π"
       transform="matrix(1.3333333,0,0,1.3333333,158.19733,118.50267)" />
    <path
       id="path19"
       d="m 10.224,-7.864 h 4.909"
       style="fill:none;stroke:#000000;stroke-width:0.3985;stroke-linecap:butt;stroke-linejoin:miter;stroke-miterlimit:10;stroke-dasharray:none;stroke-opacity:1"
       transform="matrix(1.3333333,0,0,-1.3333333,144.56533,109.92667)" />
    <path
       id="path20"
       d="M 3.6925703,-1.1471328 V -1.3932266 H 2.9191328 v -3.1054687 c 0,-0.1523438 0,-0.1992188 -0.1523437,-0.1992188 -0.09375,0 -0.1171875,0 -0.1875,0.09375 l -2.30859379,3.2109375 v 0.2460938 H 2.3214766 v 0.57421874 c 0,0.234375 0,0.328125 -0.5625,0.328125 h -0.1875 v 0.24609375 c 0.3515625,-0.01171875 0.796875,-0.0234375 1.0429687,-0.0234375 0.2578125,0 0.703125,0.01171875 1.0546875,0.0234375 v -0.24609375 h -0.1875 c -0.5625,0 -0.5625,-0.09375 -0.5625,-0.328125 V -1.1471328 Z M 2.3683516,-3.9479141 v 2.5546875 H 0.52850781 Z m 0,0"
       style="fill:#000000;fill-opacity:1;fill-rule:nonzero;stroke:none"
       aria-label="4"
       transform="matrix(1.3333333,0,0,1.3333333,158.82267,128.31467)" />
    <path
       id="path21"
       d="m 2.1678281,-2.5303203 h 0.8320313 c -0.1054688,0.421875 -0.2578125,1.0546875 -0.2578125,1.60546874 0,0.28125 0.035156,0.46875 0.070312,0.62109375 0.1171875,0.3515625 0.2109375,0.375 0.3164062,0.375 0.1640625,0 0.328125,-0.15234375 0.328125,-0.31640625 0,-0.0585938 -0.011719,-0.0820313 -0.058594,-0.15234375 -0.1289063,-0.2578125 -0.2578125,-0.65624999 -0.2578125,-1.23046879 0,-0.1289062 0,-0.4101562 0.1054687,-0.9023437 h 0.8671875 c 0.1289063,0 0.1875,0 0.2578125,-0.058594 0.09375,-0.070312 0.1171875,-0.1757812 0.1171875,-0.2109375 0,-0.1992187 -0.1757812,-0.1992187 -0.2929687,-0.1992187 h -2.636718 c -0.28125,0 -0.4804687,0.058594 -0.79687498,0.3515625 -0.17578125,0.1640625 -0.4453125,0.5390625 -0.4453125,0.5976562 0,0.082031 0.09375,0.082031 0.1171875,0.082031 0.0703125,0 0.0820313,-0.011719 0.12890625,-0.070312 0.3515625,-0.4921875 0.78515623,-0.4921875 0.93750003,-0.4921875 h 0.421875 c -0.2109375,0.7617187 -0.5859375,1.59374999 -0.796875,2.00390624 -0.046875,0.09375 -0.1171875,0.24609375 -0.14062503,0.26953125 0,0.0234375 -0.0117188,0.0585938 -0.0117188,0.10546875 0,0.10546875 0.0820313,0.22265625 0.24609373,0.22265625 0.2695312,0 0.3515625,-0.31640625 0.515625,-0.9375 z m 0,0"
       style="fill:#000000;fill-opacity:1;fill-rule:nonzero;stroke:none"
       aria-label="π"
       transform="matrix(1.3333333,0,0,1.3333333,176.008,118.50267)" />
    <path
       id="path22"
       d="m 10.224,-7.864 h 4.909"
       style="fill:none;stroke:#000000;stroke-width:0.3985;stroke-linecap:butt;stroke-linejoin:miter;stroke-miterlimit:10;stroke-dasharray:none;stroke-opacity:1"
       transform="matrix(1.3333333,0,0,-1.3333333,162.376,109.92667)" />
    <path
       id="path23"
       d="m 1.8980469,-2.3307266 c 0.5507812,0 0.9375,0.375 0.9375,1.125 0,0.86718754 -0.5039063,1.12500004 -0.9023438,1.12500004 -0.28125,0 -0.890625,-0.08203125 -1.18359372,-0.4921875 0.32812502,-0.0117188 0.39843752,-0.24609375 0.39843752,-0.38671875 0,-0.22265629 -0.16406252,-0.38671879 -0.38671877,-0.38671879 -0.1875,0 -0.38671875,0.1171875 -0.38671875,0.41015629 0,0.65625 0.72656252,1.078125 1.57031252,1.078125 0.9726562,0 1.640625,-0.64453125 1.640625,-1.34765629 0,-0.5390625 -0.4453125,-1.0898437 -1.21875,-1.2421875 0.7382812,-0.2695312 0.9960937,-0.796875 0.9960937,-1.21875 0,-0.5507812 -0.6328125,-0.9609375 -1.40625,-0.9609375 -0.7734375,0 -1.35937497,0.375 -1.35937497,0.9375 0,0.234375 0.15234375,0.3632813 0.36328125,0.3632813 0.21093752,0 0.35156252,-0.1640625 0.35156252,-0.3515625 0,-0.1992188 -0.140625,-0.3515625 -0.35156252,-0.3632813 0.23437502,-0.3046875 0.71484372,-0.3867187 0.97265622,-0.3867187 0.3164063,0 0.7617188,0.1523437 0.7617188,0.7617187 0,0.2929688 -0.1054688,0.609375 -0.28125,0.8320313 -0.234375,0.2578125 -0.421875,0.28125 -0.7734375,0.2929687 -0.1757813,0.023437 -0.1875,0.023437 -0.2226563,0.023437 -0.011719,0 -0.070312,0.011719 -0.070312,0.09375 0,0.09375 0.058594,0.09375 0.1757813,0.09375 z m 0,0"
       style="fill:#000000;fill-opacity:1;fill-rule:nonzero;stroke:none"
       aria-label="3"
       transform="matrix(1.3333333,0,0,1.3333333,176.63333,128.31467)" />
    <path
       id="path24"
       d="m 0,0 v 42.52022 m 1.02069,0 c 0,0.46975 -0.457,0.85057 -1.02069,0.85057 -0.56369,0 -1.02069,-0.38082 -1.02069,-0.85057 0,-0.46976 0.457,-0.85059 1.02069,-0.85059 0.56369,0 1.02069,0.38083 1.02069,0.85059 z"
       style="fill:#000000;fill-opacity:1;fill-rule:nonzero;stroke:#000000;stroke-width:0.3985;stroke-linecap:butt;stroke-linejoin:miter;stroke-miterlimit:10;stroke-dasharray:none;stroke-opacity:1"
       transform="matrix(1.3333333,0,0,-1.3333333,108.03867,109.80667)" />
    <path
       id="path25"
       d="m 4.1707266,0.00140625 v -0.3046875 H 3.8543203 c -0.9023437,0 -0.9257812,-0.1171875 -0.9257812,-0.48046875 v -5.5898437 c 0,-0.234375 0,-0.2578125 -0.234375,-0.2578125 -0.609375,0.6328125 -1.4882813,0.6328125 -1.80468754,0.6328125 v 0.3164062 c 0.19921874,0 0.78515624,0 1.30078124,-0.2578125 v 5.15625 c 0,0.3515625 -0.035156,0.48046875 -0.9257812,0.48046875 H 0.94807031 v 0.3046875 C 1.2996328,-0.03375 2.1551016,-0.03375 2.5535391,-0.03375 c 0.3984375,0 1.265625,0 1.6171875,0.03515625 z m 0,0"
       style="fill:#000000;fill-opacity:1;fill-rule:nonzero;stroke:none"
       aria-label="1"
       transform="matrix(1.3333333,0,0,1.3333333,112.732,48.42)" />
    <path
       id="path26"
       d="m -53.43236,0 v 5.31502 m 1.02069,0 c 0,0.46975 -0.45698,0.85057 -1.02069,0.85057 -0.5637,0 -1.02069,-0.38082 -1.02069,-0.85057 0,-0.46976 0.45699,-0.85059 1.02069,-0.85059 0.56371,0 1.02069,0.38083 1.02069,0.85059 z"
       style="fill:#000000;fill-opacity:1;fill-rule:nonzero;stroke:#000000;stroke-width:0.3985;stroke-linecap:butt;stroke-linejoin:miter;stroke-miterlimit:10;stroke-dasharray:none;stroke-opacity:1"
       transform="matrix(1.3333333,0,0,-1.3333333,108.03867,109.80667)" />
    <path
       id="path27"
       d="m 2.3325547,-4.4305547 c 0,-0.1875 -0.011719,-0.1992187 -0.2109375,-0.1992187 -0.4453125,0.4335937 -1.078125,0.4453125 -1.35937501,0.4453125 v 0.2460937 c 0.1640625,0 0.62109371,0 1.00781251,-0.1875 v 3.55078126 c 0,0.234375 0,0.328125 -0.6914063,0.328125 H 0.80911719 V -8.671875e-4 C 0.93802344,-0.01258594 1.7934922,-0.02430469 2.0513047,-0.02430469 c 0.2109375,0 1.0898437,0.01171875 1.2421875,0.0234375025 V -0.24696094 H 3.0356797 c -0.703125,0 -0.703125,-0.09375 -0.703125,-0.328125 z m 0,0"
       style="fill:#000000;fill-opacity:1;fill-rule:nonzero;stroke:none"
       aria-label="1"
       transform="matrix(1.3333333,0,0,1.3333333,43.081333,88.216)" />
    <path
       id="path28"
       d="m 10.224,-7.864 h 3.971"
       style="fill:none;stroke:#000000;stroke-width:0.3985;stroke-linecap:butt;stroke-linejoin:miter;stroke-miterlimit:10;stroke-dasharray:none;stroke-opacity:1"
       transform="matrix(1.3333333,0,0,-1.3333333,29.449333,79.64)" />
    <path
       id="path29"
       d="m 2.4731797,-2.5200234 c 0.5507812,-0.2578125 0.890625,-0.5859375 0.890625,-1.0664063 0,-0.6796875 -0.703125,-1.0429687 -1.3710938,-1.0429687 -0.7734375,0 -1.39453121,0.5039062 -1.39453121,1.1601562 0,0.328125 0.15234375,0.5625 0.26953125,0.703125 0.12890625,0.1523438 0.17578126,0.1757813 0.58593746,0.421875 -0.3867187,0.1640625 -1.07812496,0.5390625 -1.07812496,1.2773438 0,0.77343746 0.80859376,1.20703121 1.59374996,1.20703121 0.890625,0 1.6171875,-0.5625 1.6171875,-1.32421871 0,-0.4570313 -0.2695312,-0.84375 -0.6796875,-1.078125 -0.09375,-0.058594 -0.328125,-0.1992188 -0.4335937,-0.2578125 z m -1.1367188,-0.65625 C 1.1606797,-3.2817422 0.96146094,-3.4692422 0.96146094,-3.7270547 c 0,-0.4453125 0.51562496,-0.703125 1.00781246,-0.703125 0.5507813,0 1.03125,0.3398438 1.03125,0.84375 0,0.6210938 -0.7265625,0.9257813 -0.7382812,0.9257813 -0.011719,0 -0.035156,0 -0.082031,-0.035156 z m 0.3398438,0.9609375 0.9609375,0.5507812 c 0.1757812,0.1054688 0.5273437,0.3164063 0.5273437,0.72656251 0,0.52734375 -0.5742187,0.85546875 -1.171875,0.85546875 -0.6445312,0 -1.19531246,-0.41015625 -1.19531246,-0.98437496 0,-0.515625 0.38671876,-0.9140625 0.87890626,-1.1484375 z m 0,0"
       style="fill:#000000;fill-opacity:1;fill-rule:nonzero;stroke:none"
       aria-label="8"
       transform="matrix(1.3333333,0,0,1.3333333,43.081333,98.028)" />
    <path
       id="path30"
       d="m -40.07368,0 v 10.63004 m 1.02068,0 c 0,0.46976 -0.45698,0.85058 -1.02068,0.85058 -0.56371,0 -1.0207,-0.38082 -1.0207,-0.85058 0,-0.46976 0.45699,-0.85059 1.0207,-0.85059 0.5637,0 1.02068,0.38083 1.02068,0.85059 z"
       style="fill:#000000;fill-opacity:1;fill-rule:nonzero;stroke:#000000;stroke-width:0.3985;stroke-linecap:butt;stroke-linejoin:miter;stroke-miterlimit:10;stroke-dasharray:none;stroke-opacity:1"
       transform="matrix(1.3333333,0,0,-1.3333333,108.03867,109.80667)" />
    <path
       id="path31"
       d="m 2.3329297,-4.4300078 c 0,-0.1875 -0.011719,-0.1992188 -0.2109375,-0.1992188 -0.4453125,0.4335938 -1.078125,0.4453125 -1.35937501,0.4453125 v 0.2460938 c 0.1640625,0 0.62109371,0 1.00781251,-0.1875 v 3.55078124 c 0,0.234375 0,0.328125 -0.6914063,0.328125 H 0.80949219 V -3.203125e-4 C 0.93839844,-0.01203906 1.7938672,-0.02375781 2.0516797,-0.02375781 c 0.2109375,0 1.0898437,0.01171875 1.2421875,0.0234374975 V -0.24641406 H 3.0360547 c -0.703125,0 -0.703125,-0.09375 -0.703125,-0.328125 z m 0,0"
       style="fill:#000000;fill-opacity:1;fill-rule:nonzero;stroke:none"
       aria-label="1"
       transform="matrix(1.3333333,0,0,1.3333333,60.893333,81.129333)" />
    <path
       id="path32"
       d="m 10.224,-7.864 h 3.971"
       style="fill:none;stroke:#000000;stroke-width:0.3985;stroke-linecap:butt;stroke-linejoin:miter;stroke-miterlimit:10;stroke-dasharray:none;stroke-opacity:1"
       transform="matrix(1.3333333,0,0,-1.3333333,47.261333,72.553333)" />
    <path
       id="path33"
       d="M 3.6923047,-1.1483828 V -1.3944766 H 2.9188672 v -3.1054687 c 0,-0.1523438 0,-0.1992188 -0.1523438,-0.1992188 -0.09375,0 -0.1171875,0 -0.1875,0.09375 l -2.30859371,3.2109375 v 0.2460938 H 2.3212109 v 0.57421874 c 0,0.234375 0,0.328125 -0.5625,0.328125 h -0.1875 V 5.46875e-5 C 1.9227734,-0.01166406 2.3680859,-0.02338281 2.6141797,-0.02338281 c 0.2578125,0 0.703125,0.01171875 1.0546875,0.0234374975 V -0.24603906 h -0.1875 c -0.5625,0 -0.5625,-0.09375 -0.5625,-0.328125 V -1.1483828 Z M 2.3680859,-3.9491641 v 2.5546875 H 0.52824219 Z m 0,0"
       style="fill:#000000;fill-opacity:1;fill-rule:nonzero;stroke:none"
       aria-label="4"
       transform="matrix(1.3333333,0,0,1.3333333,60.893333,90.941333)" />
    <path
       id="path34"
       d="m 40.07368,0 v 10.63004 m 1.0207,0 c 0,0.46976 -0.45699,0.85058 -1.0207,0.85058 -0.5637,0 -1.02068,-0.38082 -1.02068,-0.85058 0,-0.46976 0.45698,-0.85059 1.02068,-0.85059 0.56371,0 1.0207,0.38083 1.0207,0.85059 z"
       style="fill:#000000;fill-opacity:1;fill-rule:nonzero;stroke:#000000;stroke-width:0.3985;stroke-linecap:butt;stroke-linejoin:miter;stroke-miterlimit:10;stroke-dasharray:none;stroke-opacity:1"
       transform="matrix(1.3333333,0,0,-1.3333333,108.03867,109.80667)" />
    <path
       id="path35"
       d="m 2.3333906,-4.4300078 c 0,-0.1875 -0.011719,-0.1992188 -0.2109375,-0.1992188 -0.4453125,0.4335938 -1.078125,0.4453125 -1.35937498,0.4453125 v 0.2460938 c 0.1640625,0 0.62109378,0 1.00781248,-0.1875 v 3.55078124 c 0,0.234375 0,0.328125 -0.6914062,0.328125 H 0.80995312 V -3.203125e-4 C 0.93885937,-0.01203906 1.7943281,-0.02375781 2.0521406,-0.02375781 c 0.2109375,0 1.0898438,0.01171875 1.2421875,0.0234374975 V -0.24641406 H 3.0365156 c -0.703125,0 -0.703125,-0.09375 -0.703125,-0.328125 z m 0,0"
       style="fill:#000000;fill-opacity:1;fill-rule:nonzero;stroke:none"
       aria-label="1"
       transform="matrix(1.3333333,0,0,1.3333333,167.756,81.129333)" />
    <path
       id="path36"
       d="m 10.224,-7.864 h 3.971"
       style="fill:none;stroke:#000000;stroke-width:0.3985;stroke-linecap:butt;stroke-linejoin:miter;stroke-miterlimit:10;stroke-dasharray:none;stroke-opacity:1"
       transform="matrix(1.3333333,0,0,-1.3333333,154.124,72.553333)" />
    <path
       id="path37"
       d="M 3.6927656,-1.1483828 V -1.3944766 H 2.9193281 v -3.1054687 c 0,-0.1523438 0,-0.1992188 -0.1523437,-0.1992188 -0.09375,0 -0.1171875,0 -0.1875,0.09375 l -2.30859378,3.2109375 v 0.2460938 H 2.3216719 v 0.57421874 c 0,0.234375 0,0.328125 -0.5625,0.328125 h -0.1875 V 5.46875e-5 C 1.9232344,-0.01166406 2.3685469,-0.02338281 2.6146406,-0.02338281 c 0.2578125,0 0.703125,0.01171875 1.0546875,0.0234374975 V -0.24603906 h -0.1875 c -0.5625,0 -0.5625,-0.09375 -0.5625,-0.328125 V -1.1483828 Z M 2.3685469,-3.9491641 v 2.5546875 H 0.52870312 Z m 0,0"
       style="fill:#000000;fill-opacity:1;fill-rule:nonzero;stroke:none"
       aria-label="4"
       transform="matrix(1.3333333,0,0,1.3333333,167.756,90.941333)" />
    <path
       id="path38"
       d="m 53.43236,0 v 5.31502 m 1.02069,0 c 0,0.46975 -0.45699,0.85057 -1.02069,0.85057 -0.56371,0 -1.02069,-0.38082 -1.02069,-0.85057 0,-0.46976 0.45698,-0.85059 1.02069,-0.85059 0.5637,0 1.02069,0.38083 1.02069,0.85059 z"
       style="fill:#000000;fill-opacity:1;fill-rule:nonzero;stroke:#000000;stroke-width:0.3985;stroke-linecap:butt;stroke-linejoin:miter;stroke-miterlimit:10;stroke-dasharray:none;stroke-opacity:1"
       transform="matrix(1.3333333,0,0,-1.3333333,108.03867,109.80667)" />
    <path
       id="path39"
       d="m 2.3308359,-4.4305547 c 0,-0.1875 -0.011719,-0.1992187 -0.2109375,-0.1992187 -0.4453125,0.4335937 -1.078125,0.4453125 -1.35937496,0.4453125 v 0.2460937 c 0.1640625,0 0.62109376,0 1.00781246,-0.1875 v 3.55078126 c 0,0.234375 0,0.328125 -0.6914062,0.328125 H 0.80739844 V -8.671875e-4 C 0.93630469,-0.01258594 1.7917734,-0.02430469 2.0495859,-0.02430469 c 0.2109375,0 1.0898438,0.01171875 1.2421875,0.0234375025 V -0.24696094 H 3.0339609 c -0.703125,0 -0.703125,-0.09375 -0.703125,-0.328125 z m 0,0"
       style="fill:#000000;fill-opacity:1;fill-rule:nonzero;stroke:none"
       aria-label="1"
       transform="matrix(1.3333333,0,0,1.3333333,185.568,88.216)" />
    <path
       id="path40"
       d="m 10.224,-7.864 h 3.971"
       style="fill:none;stroke:#000000;stroke-width:0.3985;stroke-linecap:butt;stroke-linejoin:miter;stroke-miterlimit:10;stroke-dasharray:none;stroke-opacity:1"
       transform="matrix(1.3333333,0,0,-1.3333333,171.936,79.64)" />
    <path
       id="path41"
       d="m 2.4714609,-2.5200234 c 0.5507813,-0.2578125 0.890625,-0.5859375 0.890625,-1.0664063 0,-0.6796875 -0.703125,-1.0429687 -1.3710937,-1.0429687 -0.7734375,0 -1.39453126,0.5039062 -1.39453126,1.1601562 0,0.328125 0.15234375,0.5625 0.26953125,0.703125 0.12890625,0.1523438 0.17578121,0.1757813 0.58593751,0.421875 -0.3867188,0.1640625 -1.07812501,0.5390625 -1.07812501,1.2773438 0,0.77343746 0.80859371,1.20703121 1.59375001,1.20703121 0.890625,0 1.6171875,-0.5625 1.6171875,-1.32421871 0,-0.4570313 -0.2695313,-0.84375 -0.6796875,-1.078125 -0.09375,-0.058594 -0.328125,-0.1992188 -0.4335938,-0.2578125 z m -1.1367187,-0.65625 C 1.1589609,-3.2817422 0.95974219,-3.4692422 0.95974219,-3.7270547 c 0,-0.4453125 0.51562501,-0.703125 1.00781251,-0.703125 0.5507812,0 1.03125,0.3398438 1.03125,0.84375 0,0.6210938 -0.7265625,0.9257813 -0.7382813,0.9257813 -0.011719,0 -0.035156,0 -0.082031,-0.035156 z m 0.3398437,0.9609375 0.9609375,0.5507812 c 0.1757813,0.1054688 0.5273438,0.3164063 0.5273438,0.72656251 0,0.52734375 -0.5742188,0.85546875 -1.171875,0.85546875 -0.6445313,0 -1.19531251,-0.41015625 -1.19531251,-0.98437496 0,-0.515625 0.38671871,-0.9140625 0.87890621,-1.1484375 z m 0,0"
       style="fill:#000000;fill-opacity:1;fill-rule:nonzero;stroke:none"
       aria-label="8"
       transform="matrix(1.3333333,0,0,1.3333333,185.568,98.028)" />
    <path
       id="path42"
       d="m 96.94579,0 h 152.6743"
       style="fill:none;stroke:#000000;stroke-width:0.3985;stroke-linecap:butt;stroke-linejoin:miter;stroke-miterlimit:10;stroke-dasharray:none;stroke-opacity:1"
       transform="matrix(1.3333333,0,0,-1.3333333,108.03867,109.80667)" />
    <path
       id="path43"
       d="M -2.07224,2.39104 C -1.69365,0.95639 -0.84999,0.27895 0,0 -0.84999,-0.27895 -1.69365,-0.95639 -2.07224,-2.39104"
       style="fill:none;stroke:#000000;stroke-width:0.3985;stroke-linecap:round;stroke-linejoin:round;stroke-miterlimit:10;stroke-dasharray:none;stroke-opacity:1"
       transform="matrix(1.3333333,0,0,-1.3333333,441.13112,109.80667)" />
    <path
       id="path44"
       d="m 6.0230156,-3.7030625 c 0,-0.4453125 -0.1757812,-0.703125 -0.3984375,-0.703125 -0.2578125,0 -0.5273437,0.2460938 -0.5273437,0.46875 0,0.1054688 0.046875,0.2109375 0.1523437,0.3046875 0.1640625,0.140625 0.3515625,0.4101563 0.3515625,0.8320313 0,0.3984375 -0.1875,0.9726562 -0.5039062,1.4296875 -0.2929688,0.42187495 -0.6679688,0.7617187 -1.1367188,0.7617187 -0.5625,0 -0.8671875,-0.3515625 -0.9609375,-0.890625 0.1054688,-0.2578125 0.3398438,-0.9023437 0.3398438,-1.1835937 0,-0.1171875 -0.046875,-0.2109375 -0.1875,-0.2109375 -0.070312,0 -0.1875,0.011719 -0.2578125,0.1640625 -0.1171875,0.1992187 -0.234375,0.84375 -0.234375,1.2070312 -0.328125,0.46875 -0.7265625,0.9140625 -1.359375,0.9140625 -0.65625002,0 -0.86718752,-0.5859375 -0.86718752,-1.1484375 0,-1.2421875 1.01953122,-2.2851562 1.01953122,-2.4140625 0,-0.1171875 -0.082031,-0.1875 -0.1875,-0.1875 -0.1289062,0 -0.1992187,0.1289063 -0.2578125,0.2109375 -0.50390622,0.7382813 -0.89062497,1.921875 -0.89062497,2.8359375 0,0.6796875 0.234375,1.41796875 1.04296877,1.41796875 0.7148437,0 1.1835937,-0.4921875 1.5351562,-1.04296875 0.09375,0.57421875 0.4804688,1.04296875 1.1015625,1.04296875 0.7734375,0 1.2539063,-0.609375 1.6171875,-1.34765625 0.234375,-0.4921875 0.609375,-1.8515625 0.609375,-2.4609375 z m 0,0"
       style="fill:#000000;fill-opacity:1;fill-rule:nonzero;stroke:none"
       aria-label="ω"
       transform="matrix(1.3333333,0,0,1.3333333,437.024,120.21867)" />
    <path
       id="path45"
       d="M 173.4822,-62.36288 V 61.96439"
       style="fill:none;stroke:#000000;stroke-width:0.3985;stroke-linecap:butt;stroke-linejoin:miter;stroke-miterlimit:10;stroke-dasharray:none;stroke-opacity:1"
       transform="matrix(1.3333333,0,0,-1.3333333,108.03867,109.80667)" />
    <path
       id="path46"
       d="M -2.07224,2.39104 C -1.69365,0.95639 -0.84999,0.27895 0,0 -0.84999,-0.27895 -1.69365,-0.95639 -2.07224,-2.39104"
       style="fill:none;stroke:#000000;stroke-width:0.3985;stroke-linecap:round;stroke-linejoin:round;stroke-miterlimit:10;stroke-dasharray:none;stroke-opacity:1"
       transform="matrix(0,-1.3333333,-1.3333333,0,339.34827,26.921813)" />
    <path
       id="path47"
       d="m 1.7004453,1.6982109 c -0.046875,0.1289063 -0.058594,0.140625 -0.058594,0.1992188 0,0.2109375 0.1875,0.2695312 0.2929687,0.2695312 0.046875,0 0.2695313,-0.023437 0.3632813,-0.2578125 0.035156,-0.082031 0.082031,-0.4101562 0.3515625,-1.81640621 0.09375,0.01171875 0.1640625,0.01171875 0.328125,0.01171875 1.6523437,0 3.1875,-1.55859374 3.1875,-3.12890624 0,-0.7851563 -0.3867188,-1.3828125 -1.1367188,-1.3828125 -1.4414062,0 -2.0390625,1.9335937 -2.6367187,3.87890624 -1.078125,-0.19921875 -1.62890629,-0.76171874 -1.62890629,-1.47656254 0,-0.28125 0.22265625,-1.3710937 0.82031249,-2.0625 0.082031,-0.082031 0.082031,-0.1054687 0.082031,-0.1289062 0,-0.035156 -0.023437,-0.09375 -0.1171875,-0.09375 -0.28125,0 -1.04296879,1.4414062 -1.04296879,2.390625 0,0.93749999 0.65624999,1.66406249 1.72265629,1.92187499 z m 1.3710938,-2.16796871 c -0.082031,0 -0.1054688,0 -0.1757813,-0.0117188 -0.1289062,0 -0.140625,-0.0117188 -0.140625,-0.0351563 0,-0.0234375 0.1757813,-0.92578129 0.1992188,-1.07812499 0.3164062,-1.2773438 1.0898437,-2.2265625 1.9804687,-2.2265625 0.6796875,0 0.9492188,0.5273437 0.9492188,1.0078125 0,1.125 -1.2773438,2.34374999 -2.8125,2.34375009 z m 0,0"
       style="fill:#000000;fill-opacity:1;fill-rule:nonzero;stroke:none"
       aria-label="φ"
       transform="matrix(1.3333333,0,0,1.3333333,344.04133,28.224)" />
    <path
       id="path48"
       d="m 7.3703516,-4.3470625 c 0,-1.59375 -1.0546875,-2.671875 -2.5429688,-2.671875 -2.1445312,0 -4.33593749,2.2617188 -4.33593749,4.5820313 0,1.6523437 1.11328129,2.6601562 2.54296879,2.6601562 2.109375,0 4.3359375,-2.1796875 4.3359375,-4.5703125 z m -4.2773438,4.3125 c -0.984375,0 -1.6757812,-0.80859375 -1.6757812,-2.1210937 0,-0.4453125 0.140625,-1.8984375 0.9023437,-3.0585938 0.6914063,-1.0429687 1.6640625,-1.5585937 2.4492188,-1.5585937 0.8203125,0 1.7109375,0.5625 1.7109375,2.0390625 0,0.7148437 -0.2695313,2.2734375 -1.2539063,3.5039062 -0.4804687,0.59765625 -1.2890625,1.1953125 -2.1328125,1.1953125 z m 0,0"
       style="fill:#000000;fill-opacity:1;fill-rule:nonzero;stroke:none"
       aria-label="O"
       transform="matrix(1.3333333,0,0,1.3333333,324.15333,123.57733)" />
    <path
       id="path49"
       d="m 2.1688281,-2.5303203 h 0.8320313 c -0.1054688,0.421875 -0.2578125,1.0546875 -0.2578125,1.60546874 0,0.28125 0.035156,0.46875 0.070312,0.62109375 0.1171875,0.3515625 0.2109375,0.375 0.3164062,0.375 0.1640625,0 0.328125,-0.15234375 0.328125,-0.31640625 0,-0.0585938 -0.011719,-0.0820313 -0.058594,-0.15234375 -0.1289063,-0.2578125 -0.2578125,-0.65624999 -0.2578125,-1.23046879 0,-0.1289062 0,-0.4101562 0.1054687,-0.9023437 h 0.8671875 c 0.1289063,0 0.1875,0 0.2578125,-0.058594 0.09375,-0.070312 0.1171875,-0.1757812 0.1171875,-0.2109375 0,-0.1992187 -0.1757812,-0.1992187 -0.2929687,-0.1992187 h -2.636718 c -0.28125,0 -0.4804687,0.058594 -0.79687497,0.3515625 -0.17578125,0.1640625 -0.4453125,0.5390625 -0.4453125,0.5976562 0,0.082031 0.09375,0.082031 0.1171875,0.082031 0.0703125,0 0.0820312,-0.011719 0.12890625,-0.070312 0.3515625,-0.4921875 0.78515622,-0.4921875 0.93750002,-0.4921875 h 0.421875 c -0.2109375,0.7617187 -0.5859375,1.59374999 -0.796875,2.00390624 -0.046875,0.09375 -0.1171875,0.24609375 -0.14062502,0.26953125 0,0.0234375 -0.0117188,0.0585938 -0.0117188,0.10546875 0,0.10546875 0.0820313,0.22265625 0.24609372,0.22265625 0.2695312,0 0.3515625,-0.31640625 0.515625,-0.9375 z m 0,0"
       style="fill:#000000;fill-opacity:1;fill-rule:nonzero;stroke:none"
       aria-label="π"
       transform="matrix(1.3333333,0,0,1.3333333,389.50667,118.50267)" />
    <path
       id="path50"
       d="m 10.224,-7.864 h 4.909"
       style="fill:none;stroke:#000000;stroke-width:0.3985;stroke-linecap:butt;stroke-linejoin:miter;stroke-miterlimit:10;stroke-dasharray:none;stroke-opacity:1"
       transform="matrix(1.3333333,0,0,-1.3333333,375.87467,109.92667)" />
    <path
       id="path51"
       d="M 3.6920156,-1.1471328 V -1.3932266 H 2.9185781 v -3.1054687 c 0,-0.1523438 0,-0.1992188 -0.1523437,-0.1992188 -0.09375,0 -0.1171875,0 -0.1875,0.09375 l -2.30859377,3.2109375 v 0.2460938 H 2.3209219 v 0.57421874 c 0,0.234375 0,0.328125 -0.5625,0.328125 h -0.1875 v 0.24609375 c 0.3515625,-0.01171875 0.796875,-0.0234375 1.0429687,-0.0234375 0.2578125,0 0.703125,0.01171875 1.0546875,0.0234375 v -0.24609375 h -0.1875 c -0.5625,0 -0.5625,-0.09375 -0.5625,-0.328125 V -1.1471328 Z M 2.3677969,-3.9479141 v 2.5546875 H 0.52795313 Z m 0,0"
       style="fill:#000000;fill-opacity:1;fill-rule:nonzero;stroke:none"
       aria-label="4"
       transform="matrix(1.3333333,0,0,1.3333333,390.132,128.31467)" />
    <path
       id="path52"
       d="m 2.1672734,-2.5326641 h 0.8320313 c -0.1054688,0.421875 -0.2578125,1.0546875 -0.2578125,1.60546879 0,0.28125 0.035156,0.46875 0.070312,0.62109375 0.1171875,0.3515625 0.2109375,0.375 0.3164062,0.375 0.1640625,0 0.328125,-0.15234375 0.328125,-0.31640625 0,-0.0585938 -0.011719,-0.0820313 -0.058594,-0.15234375 -0.1289063,-0.2578125 -0.2578125,-0.65625004 -0.2578125,-1.23046874 0,-0.1289063 0,-0.4101563 0.1054687,-0.9023438 h 0.8671875 c 0.1289063,0 0.1875,0 0.2578125,-0.058594 0.09375,-0.070312 0.1171875,-0.1757813 0.1171875,-0.2109375 0,-0.1992188 -0.1757812,-0.1992188 -0.2929687,-0.1992188 h -2.636718 c -0.28125,0 -0.4804687,0.058594 -0.79687496,0.3515625 -0.17578125,0.1640625 -0.4453125,0.5390625 -0.4453125,0.5976563 0,0.082031 0.09375,0.082031 0.1171875,0.082031 0.0703125,0 0.0820313,-0.011719 0.12890625,-0.070312 0.3515625,-0.4921875 0.78515621,-0.4921875 0.93750001,-0.4921875 h 0.421875 c -0.2109375,0.7617188 -0.5859375,1.59375004 -0.796875,2.00390629 -0.046875,0.09375 -0.1171875,0.24609375 -0.14062501,0.26953125 0,0.0234375 -0.0117188,0.0585938 -0.0117188,0.10546875 0,0.10546875 0.0820313,0.22265625 0.24609381,0.22265625 0.2695312,0 0.3515625,-0.31640625 0.515625,-0.9375 z m 0,0"
       style="fill:#000000;fill-opacity:1;fill-rule:nonzero;stroke:none"
       aria-label="π"
       transform="matrix(1.3333333,0,0,1.3333333,407.31733,95.302667)" />
    <path
       id="path53"
       d="m 10.224,-7.864 h 4.909"
       style="fill:none;stroke:#000000;stroke-width:0.3985;stroke-linecap:butt;stroke-linejoin:miter;stroke-miterlimit:10;stroke-dasharray:none;stroke-opacity:1"
       transform="matrix(1.3333333,0,0,-1.3333333,393.68533,86.726667)" />
    <path
       id="path54"
       d="m 1.8974922,-2.3330703 c 0.5507812,0 0.9375,0.375 0.9375,1.125 0,0.86718749 -0.5039063,1.12499999 -0.9023438,1.12499999 -0.28125,0 -0.890625,-0.08203125 -1.18359371,-0.4921875 0.32812501,-0.0117188 0.39843751,-0.24609375 0.39843751,-0.38671875 0,-0.22265624 -0.16406251,-0.38671874 -0.38671876,-0.38671874 -0.1875,0 -0.38671875,0.1171875 -0.38671875,0.41015624 0,0.65625 0.72656251,1.078125 1.57031251,1.078125 0.9726562,0 1.640625,-0.64453125 1.640625,-1.34765624 0,-0.5390625 -0.4453125,-1.0898438 -1.21875,-1.2421875 0.7382812,-0.2695313 0.9960937,-0.796875 0.9960937,-1.21875 0,-0.5507813 -0.6328125,-0.9609375 -1.40625,-0.9609375 -0.7734375,0 -1.35937496,0.375 -1.35937496,0.9375 0,0.234375 0.15234375,0.3632812 0.36328125,0.3632812 0.21093751,0 0.35156251,-0.1640625 0.35156251,-0.3515625 0,-0.1992187 -0.140625,-0.3515625 -0.35156251,-0.3632812 0.23437501,-0.3046875 0.71484371,-0.3867188 0.97265621,-0.3867188 0.3164063,0 0.7617188,0.1523438 0.7617188,0.7617188 0,0.2929687 -0.1054688,0.609375 -0.28125,0.8320312 -0.234375,0.2578125 -0.421875,0.28125 -0.7734375,0.2929688 -0.1757813,0.023437 -0.1875,0.023437 -0.2226563,0.023437 -0.011719,0 -0.070312,0.011719 -0.070312,0.09375 0,0.09375 0.058594,0.09375 0.1757813,0.09375 z m 0,0"
       style="fill:#000000;fill-opacity:1;fill-rule:nonzero;stroke:none"
       aria-label="3"
       transform="matrix(1.3333333,0,0,1.3333333,407.94267,105.11467)" />
    <path
       id="path55"
       d="m 120.04982,0 v 59.36928 m 1.02069,0 c 0,0.31318 -0.45698,0.56705 -1.02069,0.56705 -0.56371,0 -1.02069,-0.25387 -1.02069,-0.56705 0,-0.31318 0.45698,-0.56705 1.02069,-0.56705 0.56371,0 1.02069,0.25387 1.02069,0.56705 z"
       style="fill:#000000;fill-opacity:1;fill-rule:nonzero;stroke:#000000;stroke-width:0.3985;stroke-linecap:butt;stroke-linejoin:miter;stroke-miterlimit:10;stroke-dasharray:none;stroke-opacity:1"
       transform="matrix(1.3333333,0,0,-1.3333333,108.03867,109.80667)" />
    <g
       id="g55"
       aria-label="2π"
       transform="matrix(1.3333333,0,0,1.3333333,274.392,16.142667)">
      <path
         id="path56"
         d="m 3.5145938,-1.2642266 h -0.234375 c -0.023437,0.1523438 -0.082031,0.56250004 -0.1757813,0.63281254 -0.058594,0.0351563 -0.5976562,0.0351563 -0.6914062,0.0351563 H 1.1239688 C 1.86225,-1.2407891 2.1083438,-1.4400078 2.5185,-1.7681328 c 0.515625,-0.4101563 0.9960938,-0.84375 0.9960938,-1.5 0,-0.84375 -0.7382813,-1.359375 -1.6289063,-1.359375 -0.8671875,0 -1.453125,0.609375 -1.453125,1.2421875 0,0.3632812 0.3046875,0.3984375 0.375,0.3984375 0.1640625,0 0.375,-0.1171875 0.375,-0.375 0,-0.1289063 -0.058594,-0.3632813 -0.421875,-0.3632813 0.22265625,-0.5039062 0.6914063,-0.65625 1.0195313,-0.65625 0.703125,0 1.0664062,0.5507813 1.0664062,1.1132813 0,0.609375 -0.4335937,1.0898437 -0.65625,1.3359375 l -1.6875,1.66406249 c -0.0703125,0.0585938 -0.0703125,0.0703125 -0.0703125,0.26953125 H 3.315375 Z m 0,0"
         style="fill:#000000;fill-opacity:1;fill-rule:nonzero;stroke:none" />
      <path
         id="path57"
         d="M 6.1395938,-2.5298516 H 6.971625 c -0.1054687,0.421875 -0.2578125,1.0546875 -0.2578125,1.60546879 0,0.28125 0.035156,0.46875 0.070312,0.62109375 0.1171875,0.3515625 0.2109375,0.375 0.3164063,0.375 0.1640625,0 0.328125,-0.15234375 0.328125,-0.31640625 0,-0.0585938 -0.011719,-0.0820313 -0.058594,-0.15234375 C 7.2411563,-0.65485156 7.11225,-1.0532891 7.11225,-1.6275078 c 0,-0.1289063 0,-0.4101563 0.1054688,-0.9023438 h 0.8671875 c 0.1289062,0 0.1875,0 0.2578125,-0.058594 0.09375,-0.070312 0.1171875,-0.1757813 0.1171875,-0.2109375 0,-0.1992188 -0.1757813,-0.1992188 -0.2929688,-0.1992188 H 5.5302188 c -0.28125,0 -0.4804688,0.058594 -0.796875,0.3515625 -0.1757813,0.1640625 -0.4453125,0.5390625 -0.4453125,0.5976563 0,0.082031 0.09375,0.082031 0.1171875,0.082031 0.070312,0 0.082031,-0.011719 0.1289062,-0.070313 0.3515625,-0.4921875 0.7851563,-0.4921875 0.9375,-0.4921875 H 5.8935 c -0.2109375,0.7617188 -0.5859375,1.59375004 -0.796875,2.00390629 -0.046875,0.09375 -0.1171875,0.24609375 -0.140625,0.26953125 0,0.0234375 -0.011719,0.0585938 -0.011719,0.10546875 0,0.10546875 0.082031,0.22265625 0.2460937,0.22265625 0.2695313,0 0.3515625,-0.31640625 0.515625,-0.9375 z m 0,0"
         style="fill:#000000;fill-opacity:1;fill-rule:nonzero;stroke:none" />
    </g>
    <path
       id="path58"
       d="m 10.224,-7.864 h 8.88"
       style="fill:none;stroke:#000000;stroke-width:0.3985;stroke-linecap:butt;stroke-linejoin:miter;stroke-miterlimit:10;stroke-dasharray:none;stroke-opacity:1"
       transform="matrix(1.3333333,0,0,-1.3333333,260.76,7.5666667)" />
    <path
       id="path59"
       d="m 1.8974844,-2.3331875 c 0.5507812,0 0.9375,0.375 0.9375,1.125 0,0.8671875 -0.5039063,1.125 -0.9023438,1.125 -0.28125,0 -0.890625,-0.08203125 -1.18359372,-0.4921875 0.32812502,-0.0117188 0.39843752,-0.24609375 0.39843752,-0.38671875 0,-0.22265625 -0.16406252,-0.38671875 -0.38671877,-0.38671875 -0.1875,0 -0.38671875,0.1171875 -0.38671875,0.41015625 0,0.65625 0.72656252,1.078125 1.57031252,1.078125 0.9726562,0 1.640625,-0.64453125 1.640625,-1.34765625 0,-0.5390625 -0.4453125,-1.0898437 -1.21875,-1.2421875 0.7382812,-0.2695312 0.9960937,-0.796875 0.9960937,-1.21875 0,-0.5507812 -0.6328125,-0.9609375 -1.40625,-0.9609375 -0.7734375,0 -1.35937497,0.375 -1.35937497,0.9375 0,0.234375 0.15234375,0.3632813 0.36328125,0.3632813 0.21093752,0 0.35156252,-0.1640625 0.35156252,-0.3515625 0,-0.1992188 -0.140625,-0.3515625 -0.35156252,-0.3632813 0.23437502,-0.3046875 0.71484372,-0.3867187 0.97265622,-0.3867187 0.3164063,0 0.7617188,0.1523437 0.7617188,0.7617187 0,0.2929688 -0.1054688,0.609375 -0.28125,0.8320313 -0.234375,0.2578125 -0.421875,0.28125 -0.7734375,0.2929687 -0.1757813,0.023437 -0.1875,0.023437 -0.2226563,0.023437 -0.011719,0 -0.070312,0.011719 -0.070312,0.09375 0,0.09375 0.058594,0.09375 0.1757813,0.09375 z m 0,0"
       style="fill:#000000;fill-opacity:1;fill-rule:nonzero;stroke:none"
       aria-label="3"
       transform="matrix(1.3333333,0,0,1.3333333,277.66533,25.954667)" />
    <path
       id="path60"
       d="m 133.4085,0 v -29.68463 m 1.02068,0 c 0,0.31317 -0.45698,0.56705 -1.02068,0.56705 -0.56371,0 -1.0207,-0.25388 -1.0207,-0.56705 0,-0.31319 0.45699,-0.56707 1.0207,-0.56707 0.5637,0 1.02068,0.25388 1.02068,0.56707 z"
       style="fill:#000000;fill-opacity:1;fill-rule:nonzero;stroke:#000000;stroke-width:0.3985;stroke-linecap:butt;stroke-linejoin:miter;stroke-miterlimit:10;stroke-dasharray:none;stroke-opacity:1"
       transform="matrix(1.3333333,0,0,-1.3333333,108.03867,109.80667)" />
    <g
       id="g60"
       aria-label="−&#10;π"
       transform="matrix(1.3333333,0,0,1.3333333,290.60933,140.112)">
      <path
         id="path61"
         d="m 6.5625313,-2.2959141 c 0.1757812,0 0.3515625,0 0.3515625,-0.1992187 0,-0.1992188 -0.1757813,-0.1992188 -0.3515625,-0.1992188 h -5.390625 c -0.1640625,0 -0.3398438,0 -0.3398438,0.1992188 0,0.1992187 0.1757813,0.1992187 0.3398438,0.1992187 z m 0,0"
         style="fill:#000000;fill-opacity:1;fill-rule:nonzero;stroke:none" />
      <path
         id="path62"
         d="m 11.112336,-6.4531406 h 0.832031 c -0.105469,0.421875 -0.257812,1.0546875 -0.257812,1.6054687 0,0.28125 0.03516,0.46875 0.07031,0.6210938 0.117188,0.3515625 0.210938,0.375 0.316406,0.375 0.164063,0 0.328125,-0.1523438 0.328125,-0.3164063 0,-0.058594 -0.01172,-0.082031 -0.05859,-0.1523437 -0.128907,-0.2578125 -0.257813,-0.65625 -0.257813,-1.2304688 0,-0.1289062 0,-0.4101562 0.105469,-0.9023437 h 0.867187 c 0.128907,0 0.1875,0 0.257813,-0.058594 0.09375,-0.070312 0.117187,-0.1757812 0.117187,-0.2109375 0,-0.1992187 -0.175781,-0.1992187 -0.292968,-0.1992187 h -2.636719 c -0.28125,0 -0.480469,0.058594 -0.7968751,0.3515625 -0.1757812,0.1640625 -0.4453125,0.5390625 -0.4453125,0.5976562 0,0.082031 0.09375,0.082031 0.1171875,0.082031 0.070312,0 0.082031,-0.011719 0.1289063,-0.070312 0.3515625,-0.4921875 0.7851558,-0.4921875 0.9374998,-0.4921875 h 0.421875 c -0.210937,0.7617187 -0.585937,1.59375 -0.796875,2.0039062 -0.04687,0.09375 -0.1171873,0.2460938 -0.1406248,0.2695313 0,0.023437 -0.011719,0.058594 -0.011719,0.1054687 0,0.1054688 0.082031,0.2226563 0.2460938,0.2226563 0.269531,0 0.351563,-0.3164063 0.515625,-0.9375 z m 0,0"
         style="fill:#000000;fill-opacity:1;fill-rule:nonzero;stroke:none" />
    </g>
    <path
       id="path63"
       d="m 17.973,-7.864 h 4.909"
       style="fill:none;stroke:#000000;stroke-width:0.3985;stroke-linecap:butt;stroke-linejoin:miter;stroke-miterlimit:10;stroke-dasharray:none;stroke-opacity:1"
       transform="matrix(1.3333333,0,0,-1.3333333,278.57067,126.30533)" />
    <path
       id="path64"
       d="m 1.8985547,-2.3334766 c 0.5507812,0 0.9375,0.375 0.9375,1.125 0,0.86718754 -0.5039063,1.12500004 -0.9023438,1.12500004 -0.28125,0 -0.890625,-0.08203125 -1.18359371,-0.4921875 0.32812501,-0.0117188 0.39843751,-0.24609375 0.39843751,-0.38671875 0,-0.22265629 -0.16406251,-0.38671879 -0.38671876,-0.38671879 -0.1875,0 -0.38671875,0.1171875 -0.38671875,0.41015629 0,0.65625 0.72656251,1.078125 1.57031251,1.078125 0.9726562,0 1.640625,-0.64453125 1.640625,-1.34765629 0,-0.5390625 -0.4453125,-1.0898437 -1.21875,-1.2421875 0.7382812,-0.2695312 0.9960937,-0.796875 0.9960937,-1.21875 0,-0.5507812 -0.6328125,-0.9609375 -1.40625,-0.9609375 -0.7734375,0 -1.35937496,0.375 -1.35937496,0.9375 0,0.234375 0.15234375,0.3632813 0.36328125,0.3632813 0.21093751,0 0.35156251,-0.1640625 0.35156251,-0.3515625 0,-0.1992188 -0.140625,-0.3515625 -0.35156251,-0.3632813 0.23437501,-0.3046875 0.71484371,-0.3867187 0.97265621,-0.3867187 0.3164063,0 0.7617188,0.1523437 0.7617188,0.7617187 0,0.2929688 -0.1054688,0.609375 -0.28125,0.8320313 -0.234375,0.2578125 -0.421875,0.28125 -0.7734375,0.2929687 -0.1757813,0.023437 -0.1875,0.023437 -0.2226563,0.023437 -0.011719,0 -0.070312,0.011719 -0.070312,0.09375 0,0.09375 0.058594,0.09375 0.1757813,0.09375 z m 0,0"
       style="fill:#000000;fill-opacity:1;fill-rule:nonzero;stroke:none"
       aria-label="3"
       transform="matrix(1.3333333,0,0,1.3333333,303.16,144.69333)" />
    <path
       id="path65"
       d="m 173.4822,0 v 0 m 1.02068,0 c 0,0.31317 -0.45698,0.56705 -1.02068,0.56705 -0.56371,0 -1.0207,-0.25388 -1.0207,-0.56705 0,-0.31317 0.45699,-0.56705 1.0207,-0.56705 0.5637,0 1.02068,0.25388 1.02068,0.56705 z"
       style="fill:#000000;fill-opacity:1;fill-rule:nonzero;stroke:#000000;stroke-width:0.3985;stroke-linecap:butt;stroke-linejoin:miter;stroke-miterlimit:10;stroke-dasharray:none;stroke-opacity:1"
       transform="matrix(1.3333333,0,0,-1.3333333,108.03867,109.80667)" />
    <path
       id="path66"
       d="m 4.5832578,-3.1882656 c 0,-0.796875 -0.046875,-1.59375 -0.3984375,-2.3320313 -0.4570312,-0.9609375 -1.2773437,-1.1132812 -1.6875,-1.1132812 -0.5976562,0 -1.3359375,0.2578125 -1.73437499,1.1835937 -0.328125,0.6914063 -0.375,1.4648438 -0.375,2.2617188 0,0.75 0.046875,1.640625 0.4453125,2.40234373 0.43359379,0.80859375 1.16015629,1.0078125 1.65234379,1.0078125 0.5390625,0 1.2890625,-0.2109375 1.734375,-1.16015625 C 4.5363828,-1.6296719 4.5832578,-2.4031094 4.5832578,-3.1882656 Z M 3.7512266,-3.3054531 c 0,0.75 0,1.4179687 -0.1054688,2.0625 -0.1523437,0.93749998 -0.7148437,1.242187475 -1.1601562,1.242187475 -0.3867188,0 -0.984375,-0.246093745 -1.1601563,-1.207031275 -0.1054687,-0.5976562 -0.1054687,-1.5117187 -0.1054687,-2.0976562 0,-0.6445313 0,-1.3007813 0.082031,-1.8398438 0.1875,-1.1835937 0.9257813,-1.265625 1.1835938,-1.265625 0.328125,0 0.984375,0.1757813 1.171875,1.1601563 0.09375,0.5625 0.09375,1.3125 0.09375,1.9453125 z m 0,0"
       style="fill:#000000;fill-opacity:1;fill-rule:nonzero;stroke:none"
       aria-label="0"
       transform="matrix(1.3333333,0,0,1.3333333,344.04133,104.82133)" />
    <path
       id="path67"
       d="m 213.55588,0 v 29.68463 m 1.02069,0 c 0,0.31319 -0.45699,0.56707 -1.02069,0.56707 -0.56371,0 -1.02069,-0.25388 -1.02069,-0.56707 0,-0.31317 0.45698,-0.56705 1.02069,-0.56705 0.5637,0 1.02069,0.25388 1.02069,0.56705 z"
       style="fill:#000000;fill-opacity:1;fill-rule:nonzero;stroke:#000000;stroke-width:0.3985;stroke-linecap:butt;stroke-linejoin:miter;stroke-miterlimit:10;stroke-dasharray:none;stroke-opacity:1"
       transform="matrix(1.3333333,0,0,-1.3333333,108.03867,109.80667)" />
    <path
       id="path68"
       d="m 2.1677734,-2.5312578 h 0.8320313 c -0.1054688,0.421875 -0.2578125,1.0546875 -0.2578125,1.60546874 0,0.28125 0.035156,0.46875 0.070312,0.62109375 0.1171875,0.3515625 0.2109375,0.375 0.3164062,0.375 0.1640625,0 0.328125,-0.15234375 0.328125,-0.31640625 0,-0.0585938 -0.011719,-0.0820313 -0.058594,-0.15234375 -0.1289063,-0.2578125 -0.2578125,-0.65624999 -0.2578125,-1.23046879 0,-0.1289062 0,-0.4101562 0.1054687,-0.9023437 h 0.8671875 c 0.1289063,0 0.1875,0 0.2578125,-0.058594 0.09375,-0.070312 0.1171875,-0.1757812 0.1171875,-0.2109375 0,-0.1992187 -0.1757812,-0.1992187 -0.2929687,-0.1992187 h -2.636718 c -0.28125,0 -0.4804687,0.058594 -0.79687496,0.3515625 -0.17578125,0.1640625 -0.4453125,0.5390625 -0.4453125,0.5976562 0,0.082031 0.09375,0.082031 0.1171875,0.082031 0.0703125,0 0.0820313,-0.011719 0.12890625,-0.070313 0.3515625,-0.4921875 0.78515621,-0.4921875 0.93750001,-0.4921875 h 0.421875 c -0.2109375,0.7617187 -0.5859375,1.59374999 -0.796875,2.00390624 -0.046875,0.09375 -0.1171875,0.24609375 -0.14062501,0.26953125 0,0.0234375 -0.0117188,0.0585938 -0.0117188,0.10546875 0,0.10546875 0.0820313,0.22265625 0.24609371,0.22265625 0.2695312,0 0.3515625,-0.31640625 0.515625,-0.9375 z m 0,0"
       style="fill:#000000;fill-opacity:1;fill-rule:nonzero;stroke:none"
       aria-label="π"
       transform="matrix(1.3333333,0,0,1.3333333,399.06667,55.722667)" />
    <path
       id="path69"
       d="m 10.224,-7.864 h 4.909"
       style="fill:none;stroke:#000000;stroke-width:0.3985;stroke-linecap:butt;stroke-linejoin:miter;stroke-miterlimit:10;stroke-dasharray:none;stroke-opacity:1"
       transform="matrix(1.3333333,0,0,-1.3333333,385.43467,47.146667)" />
    <path
       id="path70"
       d="m 1.8979922,-2.3316641 c 0.5507812,0 0.9375,0.375 0.9375,1.125 0,0.86718754 -0.5039063,1.12500004 -0.9023438,1.12500004 -0.28125,0 -0.890625,-0.08203125 -1.18359371,-0.4921875 0.32812501,-0.0117188 0.39843751,-0.24609375 0.39843751,-0.38671875 0,-0.22265629 -0.16406251,-0.38671879 -0.38671876,-0.38671879 -0.1875,0 -0.38671875,0.1171875 -0.38671875,0.41015629 0,0.65625 0.72656251,1.078125 1.57031251,1.078125 0.9726562,0 1.640625,-0.64453125 1.640625,-1.34765629 0,-0.5390625 -0.4453125,-1.0898437 -1.21875,-1.2421875 0.7382812,-0.2695312 0.9960937,-0.796875 0.9960937,-1.21875 0,-0.5507812 -0.6328125,-0.9609375 -1.40625,-0.9609375 -0.7734375,0 -1.35937496,0.375 -1.35937496,0.9375 0,0.234375 0.15234375,0.3632813 0.36328125,0.3632813 0.21093751,0 0.35156251,-0.1640625 0.35156251,-0.3515625 0,-0.1992188 -0.140625,-0.3515625 -0.35156251,-0.3632813 0.23437501,-0.3046875 0.71484371,-0.3867187 0.97265621,-0.3867187 0.3164063,0 0.7617188,0.1523437 0.7617188,0.7617187 0,0.2929688 -0.1054688,0.609375 -0.28125,0.8320313 -0.234375,0.2578125 -0.421875,0.28125 -0.7734375,0.2929687 -0.1757813,0.023437 -0.1875,0.023437 -0.2226563,0.023437 -0.011719,0 -0.070312,0.011719 -0.070312,0.09375 0,0.09375 0.058594,0.09375 0.1757813,0.09375 z m 0,0"
       style="fill:#000000;fill-opacity:1;fill-rule:nonzero;stroke:none"
       aria-label="3"
       transform="matrix(1.3333333,0,0,1.3333333,399.692,65.534667)" />
    <path
       id="path71"
       d="m 226.91455,0 v -59.36928 m 1.02069,0 c 0,0.31318 -0.45698,0.56705 -1.02069,0.56705 -0.5637,0 -1.02069,-0.25387 -1.02069,-0.56705 0,-0.31318 0.45699,-0.56705 1.02069,-0.56705 0.56371,0 1.02069,0.25387 1.02069,0.56705 z"
       style="fill:#000000;fill-opacity:1;fill-rule:nonzero;stroke:#000000;stroke-width:0.3985;stroke-linecap:butt;stroke-linejoin:miter;stroke-miterlimit:10;stroke-dasharray:none;stroke-opacity:1"
       transform="matrix(1.3333333,0,0,-1.3333333,108.03867,109.80667)" />
    <g
       id="g71"
       aria-label="−&#10;2π"
       transform="matrix(1.3333333,0,0,1.3333333,415.284,179.692)">
      <path
         id="path72"
         d="m 6.5633672,-2.2973203 c 0.1757812,0 0.3515625,0 0.3515625,-0.1992188 0,-0.1992187 -0.1757813,-0.1992187 -0.3515625,-0.1992187 h -5.390625 c -0.1640625,0 -0.33984376,0 -0.33984376,0.1992187 0,0.1992188 0.17578126,0.1992188 0.33984376,0.1992188 z m 0,0"
         style="fill:#000000;fill-opacity:1;fill-rule:nonzero;stroke:none" />
      <path
         id="path73"
         d="m 12.460828,-5.1889219 h -0.234375 c -0.02344,0.1523438 -0.08203,0.5625 -0.175781,0.6328125 -0.05859,0.035156 -0.597656,0.035156 -0.691406,0.035156 h -1.289063 c 0.738281,-0.6445313 0.984375,-0.84375 1.394531,-1.171875 0.515625,-0.4101563 0.996094,-0.84375 0.996094,-1.5 0,-0.84375 -0.738281,-1.359375 -1.628906,-1.359375 -0.8671876,0 -1.4531251,0.609375 -1.4531251,1.2421875 0,0.3632812 0.3046875,0.3984375 0.375,0.3984375 0.1640625,0 0.3750001,-0.1171875 0.3750001,-0.375 0,-0.1289063 -0.05859,-0.3632813 -0.4218751,-0.3632813 0.2226562,-0.5039062 0.6914061,-0.65625 1.0195311,-0.65625 0.703125,0 1.066406,0.5507813 1.066406,1.1132813 0,0.609375 -0.433593,1.0898437 -0.65625,1.3359375 l -1.6874996,1.6640625 c -0.070312,0.058594 -0.070312,0.070312 -0.070312,0.2695312 h 2.8828116 z m 0,0"
         style="fill:#000000;fill-opacity:1;fill-rule:nonzero;stroke:none" />
      <path
         id="path74"
         d="m 15.082898,-6.4545469 h 0.832032 c -0.105469,0.421875 -0.257813,1.0546875 -0.257813,1.6054688 0,0.28125 0.03516,0.46875 0.07031,0.6210937 0.117187,0.3515625 0.210937,0.375 0.316406,0.375 0.164062,0 0.328125,-0.1523437 0.328125,-0.3164062 0,-0.058594 -0.01172,-0.082031 -0.05859,-0.1523438 -0.128906,-0.2578125 -0.257812,-0.65625 -0.257812,-1.2304687 0,-0.1289063 0,-0.4101563 0.105468,-0.9023438 h 0.867188 c 0.128906,0 0.1875,0 0.257812,-0.058594 0.09375,-0.070312 0.117188,-0.1757813 0.117188,-0.2109375 0,-0.1992188 -0.175781,-0.1992188 -0.292969,-0.1992188 h -2.636719 c -0.28125,0 -0.480468,0.058594 -0.796875,0.3515625 -0.175781,0.1640625 -0.445312,0.5390625 -0.445312,0.5976563 0,0.082031 0.09375,0.082031 0.117187,0.082031 0.07031,0 0.08203,-0.011719 0.128907,-0.070312 0.351562,-0.4921875 0.785156,-0.4921875 0.9375,-0.4921875 h 0.421875 c -0.210938,0.7617188 -0.585938,1.59375 -0.796875,2.0039063 -0.04687,0.09375 -0.117188,0.2460937 -0.140625,0.2695312 0,0.023437 -0.01172,0.058594 -0.01172,0.1054688 0,0.1054687 0.08203,0.2226562 0.246094,0.2226562 0.269531,0 0.351562,-0.3164062 0.515625,-0.9375 z m 0,0"
         style="fill:#000000;fill-opacity:1;fill-rule:nonzero;stroke:none" />
    </g>
    <path
       id="path75"
       d="m 17.973,-7.864 h 8.88"
       style="fill:none;stroke:#000000;stroke-width:0.3985;stroke-linecap:butt;stroke-linejoin:miter;stroke-miterlimit:10;stroke-dasharray:none;stroke-opacity:1"
       transform="matrix(1.3333333,0,0,-1.3333333,403.24533,165.88533)" />
    <path
       id="path76"
       d="m 1.8977891,-2.3319531 c 0.5507812,0 0.9375,0.375 0.9375,1.125 0,0.86718748 -0.5039063,1.12499998 -0.9023438,1.12499998 -0.28125,0 -0.890625,-0.08203125 -1.18359374,-0.4921875 0.32812504,-0.0117188 0.39843754,-0.24609375 0.39843754,-0.38671875 0,-0.22265623 -0.16406254,-0.38671873 -0.38671879,-0.38671873 -0.1875,0 -0.38671875,0.1171875 -0.38671875,0.41015623 0,0.65625 0.72656254,1.078125 1.57031254,1.078125 0.9726562,0 1.640625,-0.64453125 1.640625,-1.34765623 0,-0.5390625 -0.4453125,-1.0898438 -1.21875,-1.2421875 0.7382812,-0.2695313 0.9960937,-0.796875 0.9960937,-1.21875 0,-0.5507813 -0.6328125,-0.9609375 -1.40625,-0.9609375 -0.7734375,0 -1.35937499,0.375 -1.35937499,0.9375 0,0.234375 0.15234375,0.3632812 0.36328125,0.3632812 0.21093754,0 0.35156254,-0.1640625 0.35156254,-0.3515625 0,-0.1992187 -0.140625,-0.3515625 -0.35156254,-0.3632812 0.23437504,-0.3046875 0.71484374,-0.3867188 0.97265624,-0.3867188 0.3164063,0 0.7617188,0.1523438 0.7617188,0.7617188 0,0.2929687 -0.1054688,0.609375 -0.28125,0.8320312 -0.234375,0.2578125 -0.421875,0.28125 -0.7734375,0.2929688 -0.1757813,0.023437 -0.1875,0.023437 -0.2226563,0.023437 -0.011719,0 -0.070312,0.011719 -0.070312,0.09375 0,0.09375 0.058594,0.09375 0.1757813,0.09375 z m 0,0"
       style="fill:#000000;fill-opacity:1;fill-rule:nonzero;stroke:none"
       aria-label="3"
       transform="matrix(1.3333333,0,0,1.3333333,430.48133,184.27333)" />
  </g>
</svg>
