<?xml version="1.0" encoding="UTF-8" standalone="no"?>
<!-- Created with Inkscape (http://www.inkscape.org/) -->
<svg version="1.1" id="svg1" width="634.77332" height="216.28" viewBox="0 0 634.77332 216.28" sodipodi:docname="23-24-1-信号与系统-期中-题图8b.pdf" xmlns:inkscape="http://www.inkscape.org/namespaces/inkscape" xmlns:sodipodi="http://sodipodi.sourceforge.net/DTD/sodipodi-0.dtd" xmlns="http://www.w3.org/2000/svg" xmlns:svg="http://www.w3.org/2000/svg">
  <defs id="defs1"/>
  <sodipodi:namedview id="namedview1" pagecolor="#ffffff" bordercolor="#000000" borderopacity="0.25" inkscape:showpageshadow="2" inkscape:pageopacity="0.0" inkscape:pagecheckerboard="0" inkscape:deskcolor="#d1d1d1">
    <inkscape:page x="0" y="0" inkscape:label="1" id="page1" width="634.77332" height="216.28" margin="0" bleed="0"/>
  </sodipodi:namedview>
  <g id="g1" inkscape:groupmode="layer" inkscape:label="1">
    <path id="path1" d="M -33.88129,-94.68942 V 67.51836 h 476.0864 V -94.68942 Z" style="fill:#ffffff;fill-opacity:1;fill-rule:nonzero;stroke:none" transform="matrix(1.3333333,0,0,-1.3333333,45.174667,90.028)"/>
    <path id="path2" d="M 0,-56.69363 V 56.69363 H 226.77444 V -56.69363 Z" style="fill:none;stroke:#000000;stroke-width:0.3985;stroke-linecap:butt;stroke-linejoin:miter;stroke-miterlimit:10;stroke-dasharray:none;stroke-opacity:1" transform="matrix(1.3333333,0,0,-1.3333333,45.174667,90.028)"/>
    <path id="path3" d="M 0,0 H 226.77444" style="fill:none;stroke:#000000;stroke-width:0.3985;stroke-linecap:butt;stroke-linejoin:miter;stroke-miterlimit:10;stroke-dasharray:none;stroke-opacity:1" transform="matrix(1.3333333,0,0,-1.3333333,45.174667,90.028)"/>
    <g id="g3" aria-label="单位：&#xA;1&#xA;×&#xA;10&#xA;−3&#xA;s" transform="matrix(1.3333333,0,0,1.3333333,148.604,203.80267)">
      <path id="path4" d="M 4.6300078,-0.92719531 H 1.6886016 l -1.12500004,-0.0351563 0.421875,0.45703125 0.23437504,-0.09375 c 0.058594,-0.0117188 0.1992187,-0.0351563 0.4101562,-0.046875 0.2226563,-0.0234375 0.3867188,-0.0351563 0.4921875,-0.0351563 h 2.5078125 v 1.078125 L 4.5714141,1.7446797 C 4.8878203,1.6626484 5.0987578,1.5688984 5.2393828,1.4868672 L 5.1807891,0.30327344 v -0.984375 h 4.3242187 c 0.09375,0.0117188 0.140625,0 0.1523438,-0.0351563 0.011719,-0.0234375 -0.011719,-0.0585938 -0.046875,-0.1171875 L 8.9307891,-1.5248516 8.4268828,-0.92719531 H 5.1807891 V -2.0990703 h 2.4960937 v 0.5273437 c 0.1875,-0.082031 0.3046875,-0.140625 0.375,-0.1640625 0.058594,-0.035156 0.140625,-0.09375 0.2460938,-0.1757812 l -0.070312,-1.21875 v -2.0859375 l 0.28125,-0.234375 c 0.046875,-0.046875 0.082031,-0.09375 0.082031,-0.1054688 0.011719,-0.011719 -0.035156,-0.058594 -0.1171875,-0.1289062 L 7.8761016,-6.1068828 7.5362578,-5.6146953 H 5.9659453 c 0.1875,-0.1757813 0.4335938,-0.3984375 0.7382813,-0.6914063 0.3046875,-0.2929687 0.515625,-0.4921875 0.6445312,-0.609375 l 0.3046875,-0.035156 c 0.070312,-0.011719 0.1054688,-0.035156 0.1171875,-0.058594 0.011719,-0.046875 -0.023437,-0.082031 -0.09375,-0.1523437 L 7.0089141,-7.7357891 6.8331328,-7.3373516 c -0.046875,0.1054688 -0.1640625,0.2929688 -0.3515625,0.5859375 -0.1757812,0.2695313 -0.328125,0.4921875 -0.4335937,0.6328125 -0.1054688,0.1640625 -0.234375,0.3164063 -0.3867188,0.5039063 H 2.4386016 l -0.75,-0.5742188 0.058594,1.1601563 v 2.34375 l -0.035156,1.2539062 c 0.234375,-0.070312 0.375,-0.1171875 0.421875,-0.140625 0.046875,-0.046875 0.09375,-0.082031 0.1523437,-0.1289062 v -0.3984375 h 2.34375 z m -2.34375,-3.02343749 v -1.4414063 h 2.34375 v 1.4414063 z m 0,1.6171875 v -1.3710938 h 2.34375 v 1.3710938 z m 2.8945313,0 v -1.3710938 h 2.4960937 v 1.3710938 z m 0,-1.6171875 v -1.4414063 h 2.4960937 v 1.4414063 z m -2.7421875,-3.5625 c 0.3632812,0.375 0.609375,0.6445312 0.7265625,0.8203125 0.140625,0.1640625 0.2460937,0.328125 0.328125,0.4921875 0.070312,0.1875 0.1289062,0.2929687 0.1757812,0.3398437 0.023437,0.046875 0.082031,0.082031 0.140625,0.082031 0.046875,0.011719 0.1054688,-0.035156 0.1757813,-0.1054688 0.070312,-0.058594 0.1054687,-0.1757812 0.1054687,-0.3164062 0,-0.1289063 -0.070312,-0.28125 -0.1992187,-0.4570313 -0.140625,-0.1757812 -0.5976563,-0.4921875 -1.3710938,-0.9492187 z m 7.8867184,5.015625 0.07031,0.082031 c 0.117187,-0.082031 0.269531,-0.2109375 0.445312,-0.4101562 0.164063,-0.2109375 0.375,-0.46875 0.609375,-0.7734375 0.222657,-0.3046875 0.386719,-0.4921875 0.457032,-0.5859375 v 4.37109374 l -0.07031,1.46484376 c 0.316406,-0.1171875 0.492188,-0.1992188 0.539063,-0.2226563 0.04687,-0.035156 0.08203,-0.070312 0.128906,-0.09375 L 12.446414,0.03374219 V -4.4779766 l 0.1875,-0.1523437 c 0.07031,-0.070312 0.105469,-0.1171875 0.105469,-0.1289063 0,-0.011719 -0.02344,-0.046875 -0.08203,-0.070312 l -0.269532,-0.2109375 0.128907,-0.2226562 0.632812,-1.21875 c 0.04687,-0.09375 0.117188,-0.2226563 0.222656,-0.3984375 l 0.175782,-0.023437 c 0.08203,-0.011719 0.128906,-0.035156 0.140625,-0.046875 0.01172,-0.035156 -0.04687,-0.09375 -0.175782,-0.1875 l -0.726562,-0.5390625 -0.09375,0.3632812 c -0.04687,0.2109375 -0.140625,0.515625 -0.304688,0.9257813 -0.128906,0.4101562 -0.292968,0.796875 -0.46875,1.1835937 -0.164062,0.3867188 -0.304687,0.65625 -0.398437,0.84375 -0.08203,0.1640625 -0.257813,0.4570313 -0.503906,0.8554688 -0.257813,0.3867187 -0.421875,0.6445312 -0.515625,0.7734375 -0.08203,0.1171875 -0.140625,0.1992187 -0.175782,0.234375 z m 2.484375,3.07031249 0.375,0.421875 0.128907,-0.0703125 c 0.105468,-0.0585938 0.46875,-0.09375 1.078125,-0.09375 h 5.144531 c 0.07031,0 0.105469,0 0.128906,-0.0351563 0,-0.0351563 -0.03516,-0.09375 -0.128906,-0.17578125 l -0.609375,-0.6210937 -0.632813,0.62109375 h -1.722656 c 0.152344,-0.33984375 0.328125,-0.78515625 0.539063,-1.3359375 0.210937,-0.55078129 0.351562,-0.94921879 0.433593,-1.18359379 0.08203,-0.2226562 0.175782,-0.5273437 0.292969,-0.8789062 0.117188,-0.3632813 0.222656,-0.6796875 0.316406,-0.9492188 l 0.328125,-0.1640625 c 0.07031,-0.023437 0.105469,-0.058594 0.09375,-0.070312 -0.01172,-0.011719 -0.02344,-0.035156 -0.07031,-0.058594 l -0.914063,-0.5859375 -0.07031,0.4921875 c -0.07031,0.46875 -0.1875,1.0546875 -0.363281,1.78125 -0.175782,0.7265625 -0.457032,1.69921874 -0.832032,2.95312499 h -2.8125 z m 0.574219,-5.98828129 0.445313,0.4101563 c 0.292968,-0.1289063 0.597656,-0.1875 0.902343,-0.1875 h 4.417969 c 0.08203,0 0.140625,-0.023437 0.152344,-0.058594 0.03516,-0.035156 0,-0.09375 -0.07031,-0.1640625 l -0.703125,-0.5976562 -0.5625,0.5976562 z m 0.738281,1.0429688 c 0.328125,0.8671875 0.539063,1.4414062 0.597657,1.7460937 0.08203,0.3164063 0.128906,0.5976563 0.164062,0.890625 0.02344,0.2460938 0.03516,0.4570313 0.03516,0.609375 l -0.02344,0.55078129 c 0.01172,0.19921875 0.09375,0.29296875 0.246094,0.3046875 0.04687,0 0.117187,-0.0351563 0.222656,-0.10546875 0.08203,-0.0820313 0.140625,-0.17578125 0.175781,-0.28125 0.03516,-0.10546875 0.05859,-0.2109375 0.07031,-0.328125 0.03516,-0.46875004 -0.09375,-0.97265624 -0.363282,-1.53515624 -0.269531,-0.5625 -0.609375,-1.1953125 -1.019531,-1.9101563 z m 1.042969,-3.3984375 -0.05859,0.070312 0.08203,0.1289062 0.28125,0.3984375 c 0.08203,0.1523438 0.152343,0.3164063 0.222656,0.515625 0.07031,0.1875 0.105469,0.375 0.117187,0.515625 0.01172,0.1523438 0.03516,0.2578125 0.07031,0.328125 0.03516,0.070312 0.09375,0.1171875 0.164062,0.1289063 0.05859,0 0.152344,-0.046875 0.269532,-0.1523438 0.117187,-0.1054687 0.1875,-0.3046875 0.1875,-0.5976562 0.01172,-0.3046875 -0.433594,-0.7382813 -1.335938,-1.3359375 z m 6.717774,3.1640625 c 0,0.28125 0.246093,0.515625 0.539062,0.515625 0.28125,0 0.527344,-0.234375 0.527344,-0.515625 0,-0.2929688 -0.246094,-0.5390625 -0.527344,-0.5390625 -0.292969,0 -0.539062,0.2460937 -0.539062,0.5390625 z m 0,3.234375 c 0,0.2929687 0.246093,0.53906249 0.539062,0.53906249 0.28125,0 0.527344,-0.24609379 0.527344,-0.53906249 0,-0.28125 -0.246094,-0.5273438 -0.527344,-0.5273438 -0.292969,0 -0.539062,0.2460938 -0.539062,0.5273438 z m 0,0" style="fill:#000000;fill-opacity:1;fill-rule:nonzero;stroke:none"/>
      <path id="path5" d="m 32.816531,-6.3734844 c 0,-0.234375 0,-0.2578125 -0.234375,-0.2578125 -0.609375,0.6328125 -1.488281,0.6328125 -1.804687,0.6328125 v 0.3164063 c 0.199219,0 0.785156,0 1.300781,-0.2578125 v 5.15624998 c 0,0.3515625 -0.03516,0.48046875 -0.925781,0.48046875 h -0.316406 v 0.3046875 c 0.351562,-0.03515625 1.207031,-0.03515625 1.605468,-0.03515625 0.398438,0 1.265625,0 1.617188,0.03515625 v -0.3046875 h -0.316406 c -0.902344,0 -0.925782,-0.1171875 -0.925782,-0.48046875 z m 0,0" style="fill:#000000;fill-opacity:1;fill-rule:nonzero;stroke:none"/>
      <path id="path6" d="m 40.961063,-2.7670391 -1.992188,-1.9804687 c -0.128906,-0.1289063 -0.140625,-0.140625 -0.222656,-0.140625 -0.105469,0 -0.199219,0.082031 -0.199219,0.1992187 0,0.070312 0.02344,0.082031 0.128906,0.1992188 l 1.992188,1.9921875 -1.992188,2.00390624 c -0.105468,0.1171875 -0.128906,0.12890625 -0.128906,0.19921875 0,0.1171875 0.09375,0.19921875 0.199219,0.19921875 0.08203,0 0.09375,-0.01171875 0.222656,-0.140625 l 1.980469,-1.98046874 2.0625,2.06249999 c 0.01172,0.0117188 0.08203,0.05859375 0.152344,0.05859375 0.117187,0 0.199218,-0.08203125 0.199218,-0.19921875 0,-0.0117188 0,-0.0585938 -0.03516,-0.10546875 -0.01172,-0.0234375 -1.59375,-1.58203124 -2.097656,-2.09765624 l 1.828125,-1.8164063 c 0.04687,-0.058594 0.199219,-0.1875 0.246094,-0.2460937 0.01172,-0.023437 0.05859,-0.058594 0.05859,-0.1289063 0,-0.1171875 -0.08203,-0.1992187 -0.199218,-0.1992187 -0.08203,0 -0.128907,0.035156 -0.234375,0.140625 z m 0,0" style="fill:#000000;fill-opacity:1;fill-rule:nonzero;stroke:none"/>
      <path id="path7" d="m 49.975711,-6.3734844 c 0,-0.234375 0,-0.2578125 -0.234375,-0.2578125 -0.609375,0.6328125 -1.488281,0.6328125 -1.804688,0.6328125 v 0.3164063 c 0.199219,0 0.785157,0 1.300782,-0.2578125 v 5.15624998 c 0,0.3515625 -0.03516,0.48046875 -0.925782,0.48046875 h -0.316406 v 0.3046875 c 0.351563,-0.03515625 1.207031,-0.03515625 1.605469,-0.03515625 0.398437,0 1.265625,0 1.617187,0.03515625 v -0.3046875 h -0.316406 c -0.902344,0 -0.925781,-0.1171875 -0.925781,-0.48046875 z m 6.632812,3.1875 c 0,-0.796875 -0.04687,-1.59375 -0.398437,-2.3320312 -0.457031,-0.9609375 -1.277344,-1.1132813 -1.6875,-1.1132813 -0.597656,0 -1.335938,0.2578125 -1.734375,1.1835938 -0.328125,0.6914062 -0.375,1.4648437 -0.375,2.2617187 0,0.75 0.04687,1.640625 0.445312,2.40234378 0.433594,0.80859375 1.160157,1.0078125 1.652344,1.0078125 0.539063,0 1.289063,-0.2109375 1.734375,-1.16015625 0.316406,-0.69140623 0.363281,-1.46484373 0.363281,-2.25000003 z m -2.097656,3.18750003 c -0.386719,0 -0.984375,-0.24609375 -1.160156,-1.20703123 -0.105469,-0.5976563 -0.105469,-1.5117188 -0.105469,-2.0976563 0,-0.6445312 0,-1.3007812 0.08203,-1.8398437 0.1875,-1.1835938 0.925782,-1.265625 1.183594,-1.265625 0.328125,0 0.984375,0.1757812 1.171875,1.1601562 0.09375,0.5625 0.09375,1.3125 0.09375,1.9453125 0,0.75 0,1.4179688 -0.105469,2.0625 -0.152343,0.93750003 -0.714843,1.24218753 -1.160155,1.24218753 z m 0,0" style="fill:#000000;fill-opacity:1;fill-rule:nonzero;stroke:none"/>
      <path id="path8" d="m 62.198367,-5.1840312 c 0.105469,0 0.269531,0 0.269531,-0.1757813 0,-0.1757812 -0.152343,-0.1757812 -0.269531,-0.1757812 h -4.160156 c -0.105469,0 -0.28125,0 -0.28125,0.1757812 0,0.1757813 0.164062,0.1757813 0.28125,0.1757813 z m 0,0" style="fill:#000000;fill-opacity:1;fill-rule:nonzero;stroke:none"/>
      <path id="path9" d="m 65.133914,-5.94575 c 0.550781,0 0.9375,0.375 0.9375,1.125 0,0.8671875 -0.503906,1.125 -0.902344,1.125 -0.28125,0 -0.890625,-0.082031 -1.183593,-0.4921875 0.328125,-0.011719 0.398437,-0.2460937 0.398437,-0.3867187 0,-0.2226563 -0.164062,-0.3867188 -0.386719,-0.3867188 -0.1875,0 -0.386718,0.1171875 -0.386718,0.4101563 0,0.65625 0.726562,1.078125 1.570312,1.078125 0.972656,0 1.640625,-0.6445313 1.640625,-1.3476563 0,-0.5390625 -0.445312,-1.0898437 -1.21875,-1.2421875 0.738281,-0.2695312 0.996094,-0.796875 0.996094,-1.21875 0,-0.5507812 -0.632813,-0.9609375 -1.40625,-0.9609375 -0.773438,0 -1.359375,0.375 -1.359375,0.9375 0,0.234375 0.152344,0.3632813 0.363281,0.3632813 0.210938,0 0.351563,-0.1640625 0.351563,-0.3515625 0,-0.1992188 -0.140625,-0.3515625 -0.351563,-0.3632813 0.234375,-0.3046875 0.714844,-0.3867187 0.972656,-0.3867187 0.316407,0 0.761719,0.1523437 0.761719,0.7617187 0,0.2929688 -0.105469,0.609375 -0.28125,0.8320313 -0.234375,0.2578125 -0.421875,0.28125 -0.773437,0.2929687 -0.175782,0.023437 -0.1875,0.023437 -0.222657,0.023437 -0.01172,0 -0.07031,0.011719 -0.07031,0.09375 0,0.09375 0.05859,0.09375 0.175781,0.09375 z m 0,0" style="fill:#000000;fill-opacity:1;fill-rule:nonzero;stroke:none"/>
      <path id="path10" d="m 71.289188,-1.2758281 c 0,-0.5273438 -0.292969,-0.8203125 -0.421875,-0.9492188 -0.328125,-0.3164062 -0.714844,-0.3984375 -1.136719,-0.46875 -0.550781,-0.1171875 -1.21875,-0.2460937 -1.21875,-0.8203125 0,-0.3515625 0.257812,-0.7617187 1.113281,-0.7617187 1.101563,0 1.148438,0.9023437 1.171875,1.2070312 0,0.09375 0.117188,0.09375 0.117188,0.09375 0.128906,0 0.128906,-0.046875 0.128906,-0.2460937 v -0.9960938 c 0,-0.1757812 0,-0.2460937 -0.117188,-0.2460937 -0.04687,0 -0.07031,0 -0.199218,0.1171875 -0.02344,0.046875 -0.128907,0.1289062 -0.164063,0.1640625 -0.375,-0.28125 -0.785156,-0.28125 -0.9375,-0.28125 -1.21875,0 -1.59375,0.6679687 -1.59375,1.2304687 0,0.3398438 0.164063,0.6210938 0.433594,0.84375 0.316406,0.2578125 0.597656,0.3164063 1.3125,0.4570313 0.222656,0.035156 1.03125,0.1992187 1.03125,0.9140625 0,0.51562498 -0.351563,0.91406248 -1.125,0.91406248 -0.832031,0 -1.195313,-0.57421875 -1.382813,-1.41796878 -0.03516,-0.1289062 -0.03516,-0.1757812 -0.140625,-0.1757812 -0.128906,0 -0.128906,0.070312 -0.128906,0.2578125 v 1.31249998 c 0,0.1640625 0,0.234375 0.105469,0.234375 0.05859,0 0.07031,0 0.257812,-0.19921875 0.01172,-0.01171875 0.01172,-0.03515625 0.199219,-0.22265625 0.433594,0.421875 0.878906,0.421875 1.089844,0.421875 1.148437,0 1.605469,-0.66796875 1.605469,-1.38281248 z m 0,0" style="fill:#000000;fill-opacity:1;fill-rule:nonzero;stroke:none"/>
    </g>
    <path id="path11" d="m 0,-56.69363 v -2.83484" style="fill:none;stroke:#000000;stroke-width:0.3985;stroke-linecap:butt;stroke-linejoin:miter;stroke-miterlimit:10;stroke-dasharray:none;stroke-opacity:1" transform="matrix(1.3333333,0,0,-1.3333333,45.174667,90.028)"/>
    <path id="path12" d="m 4.5807031,-3.1882422 c 0,-0.796875 -0.046875,-1.59375 -0.3984375,-2.3320312 -0.4570312,-0.9609375 -1.2773437,-1.1132813 -1.6875,-1.1132813 -0.5976562,0 -1.3359375,0.2578125 -1.73437498,1.1835938 -0.328125,0.6914062 -0.375,1.4648437 -0.375,2.2617187 0,0.75 0.046875,1.640625 0.4453125,2.40234376 0.43359378,0.80859375 1.16015628,1.0078125 1.65234378,1.0078125 0.5390625,0 1.2890625,-0.2109375 1.734375,-1.16015625 C 4.5338281,-1.6296484 4.5807031,-2.4030859 4.5807031,-3.1882422 Z M 2.4830469,-7.421875e-4 c -0.3867188,0 -0.984375,-0.2460937525 -1.1601563,-1.2070312125 -0.1054687,-0.5976563 -0.1054687,-1.5117188 -0.1054687,-2.0976563 0,-0.6445312 0,-1.3007812 0.082031,-1.8398437 0.1875,-1.1835938 0.9257813,-1.265625 1.1835938,-1.265625 0.328125,0 0.984375,0.1757812 1.171875,1.1601562 0.09375,0.5625 0.09375,1.3125 0.09375,1.9453125 0,0.75 0,1.4179688 -0.1054688,2.0625 -0.1523437,0.93750001 -0.7148437,1.2421875125 -1.160156,1.2421875125 z m 0,0" style="fill:#000000;fill-opacity:1;fill-rule:nonzero;stroke:none" aria-label="0" transform="matrix(1.3333333,0,0,1.3333333,41.853333,182.65333)"/>
    <path id="path13" d="m 45.35419,-56.69363 v -2.83484" style="fill:none;stroke:#000000;stroke-width:0.3985;stroke-linecap:butt;stroke-linejoin:miter;stroke-miterlimit:10;stroke-dasharray:none;stroke-opacity:1" transform="matrix(1.3333333,0,0,-1.3333333,45.174667,90.028)"/>
    <g id="g13" aria-label="0&#xA;.&#xA;2" transform="matrix(1.3333333,0,0,1.3333333,97.16,182.65333)">
      <path id="path14" d="m 4.5821484,-3.1882422 c 0,-0.796875 -0.046875,-1.59375 -0.3984375,-2.3320312 -0.4570312,-0.9609375 -1.2773437,-1.1132813 -1.6875,-1.1132813 -0.5976562,0 -1.3359375,0.2578125 -1.73437496,1.1835938 -0.328125,0.6914062 -0.375,1.4648437 -0.375,2.2617187 0,0.75 0.046875,1.640625 0.4453125,2.40234376 0.43359376,0.80859375 1.16015626,1.0078125 1.65234376,1.0078125 0.5390625,0 1.2890625,-0.2109375 1.734375,-1.16015625 C 4.5352734,-1.6296484 4.5821484,-2.4030859 4.5821484,-3.1882422 Z M 2.4844922,-7.421875e-4 c -0.3867188,0 -0.984375,-0.2460937525 -1.1601563,-1.2070312125 -0.1054687,-0.5976563 -0.1054687,-1.5117188 -0.1054687,-2.0976563 0,-0.6445312 0,-1.3007812 0.082031,-1.8398437 0.1875,-1.1835938 0.9257813,-1.265625 1.1835938,-1.265625 0.328125,0 0.984375,0.1757812 1.171875,1.1601562 0.09375,0.5625 0.09375,1.3125 0.09375,1.9453125 0,0.75 0,1.4179688 -0.1054688,2.0625 -0.1523437,0.93750001 -0.7148437,1.2421875125 -1.160156,1.2421875125 z m 0,0" style="fill:#000000;fill-opacity:1;fill-rule:nonzero;stroke:none"/>
      <path id="path15" d="M 6.8907422,-0.52515625 C 6.8907422,-0.818125 6.6563672,-1.0525 6.3633984,-1.0525 c -0.28125,0 -0.5273437,0.234375 -0.5273437,0.52734375 0,0.29296875 0.2460937,0.52734375 0.5273437,0.52734375 0.2929688,0 0.5273438,-0.234375 0.5273438,-0.52734375 z m 0,0" style="fill:#000000;fill-opacity:1;fill-rule:nonzero;stroke:none"/>
      <path id="path16" d="M 9.0147656,-0.76246094 10.069453,-1.7937109 c 1.558594,-1.3710938 2.15625,-1.9101563 2.15625,-2.90625 0,-1.1367188 -0.902344,-1.9335938 -2.121094,-1.9335938 -1.1249996,0 -1.8515621,0.9140625 -1.8515621,1.8046875 0,0.5507813 0.4921875,0.5507813 0.5273437,0.5507813 0.1640625,0 0.515625,-0.1171875 0.515625,-0.5273438 0,-0.2578125 -0.1875,-0.515625 -0.5273437,-0.515625 -0.082031,0 -0.1054688,0 -0.1289063,0.011719 0.2226563,-0.6445313 0.7617188,-1.0195313 1.3359375,-1.0195313 0.9140629,0 1.3359379,0.8085938 1.3359379,1.6289063 0,0.796875 -0.492188,1.5820312 -1.042969,2.203125 L 8.3585156,-0.36402344 C 8.2530469,-0.25855469 8.2530469,-0.23511719 8.2530469,-7.421875e-4 H 11.944453 L 12.225703,-1.7351172 h -0.257812 c -0.04687,0.3046875 -0.117188,0.73828126 -0.210938,0.89062501 -0.07031,0.0820313 -0.726562,0.0820313 -0.949219,0.0820313 z m 0,0" style="fill:#000000;fill-opacity:1;fill-rule:nonzero;stroke:none"/>
    </g>
    <path id="path17" d="m 90.70837,-56.69363 v -2.83484" style="fill:none;stroke:#000000;stroke-width:0.3985;stroke-linecap:butt;stroke-linejoin:miter;stroke-miterlimit:10;stroke-dasharray:none;stroke-opacity:1" transform="matrix(1.3333333,0,0,-1.3333333,45.174667,90.028)"/>
    <g id="g17" aria-label="0&#xA;.&#xA;4" transform="matrix(1.3333333,0,0,1.3333333,157.632,182.65333)">
      <path id="path18" d="m 4.5826406,-3.1882422 c 0,-0.796875 -0.046875,-1.59375 -0.3984375,-2.3320312 -0.4570312,-0.9609375 -1.2773437,-1.1132813 -1.6875,-1.1132813 -0.5976562,0 -1.3359375,0.2578125 -1.73437498,1.1835938 -0.328125,0.6914062 -0.375,1.4648437 -0.375,2.2617187 0,0.75 0.046875,1.640625 0.4453125,2.40234376 0.43359378,0.80859375 1.16015628,1.0078125 1.65234378,1.0078125 0.5390625,0 1.2890625,-0.2109375 1.734375,-1.16015625 C 4.5357656,-1.6296484 4.5826406,-2.4030859 4.5826406,-3.1882422 Z M 2.4849844,-7.421875e-4 c -0.3867188,0 -0.984375,-0.2460937525 -1.1601563,-1.2070312125 -0.1054687,-0.5976563 -0.1054687,-1.5117188 -0.1054687,-2.0976563 0,-0.6445312 0,-1.3007812 0.082031,-1.8398437 0.1875,-1.1835938 0.9257813,-1.265625 1.1835938,-1.265625 0.328125,0 0.984375,0.1757812 1.171875,1.1601562 0.09375,0.5625 0.09375,1.3125 0.09375,1.9453125 0,0.75 0,1.4179688 -0.1054688,2.0625 -0.1523437,0.93750001 -0.7148437,1.2421875125 -1.160156,1.2421875125 z m 0,0" style="fill:#000000;fill-opacity:1;fill-rule:nonzero;stroke:none"/>
      <path id="path19" d="M 6.8912344,-0.52515625 C 6.8912344,-0.818125 6.6568594,-1.0525 6.3638906,-1.0525 c -0.28125,0 -0.5273437,0.234375 -0.5273437,0.52734375 0,0.29296875 0.2460937,0.52734375 0.5273437,0.52734375 0.2929688,0 0.5273438,-0.234375 0.5273438,-0.52734375 z m 0,0" style="fill:#000000;fill-opacity:1;fill-rule:nonzero;stroke:none"/>
      <path id="path20" d="m 10.67932,-1.6413672 v 0.86718751 c 0,0.3515625 -0.02344,0.46875 -0.7617184,0.46875 H 9.7066641 V -7.421875e-4 C 10.11682,-0.03589844 10.644164,-0.03589844 11.05432,-0.03589844 c 0.421875,0 0.949219,0 1.359375,0.0351562525 V -0.30542969 h -0.210937 c -0.738281,0 -0.761719,-0.1171875 -0.761719,-0.46875 V -1.6413672 h 0.996094 v -0.3164062 h -0.996094 v -4.5234375 c 0,-0.1992188 0,-0.2578125 -0.152344,-0.2578125 -0.09375,0 -0.117187,0 -0.199218,0.1171875 l -3.0585942,4.6640625 v 0.3164062 z m 0.05859,-0.3164062 H 8.3121328 l 2.4257812,-3.7148438 z m 0,0" style="fill:#000000;fill-opacity:1;fill-rule:nonzero;stroke:none"/>
    </g>
    <path id="path21" d="m 136.06604,-56.69363 v -2.83484" style="fill:none;stroke:#000000;stroke-width:0.3985;stroke-linecap:butt;stroke-linejoin:miter;stroke-miterlimit:10;stroke-dasharray:none;stroke-opacity:1" transform="matrix(1.3333333,0,0,-1.3333333,45.174667,90.028)"/>
    <g id="g21" aria-label="0&#xA;.&#xA;6" transform="matrix(1.3333333,0,0,1.3333333,218.10933,182.65333)">
      <path id="path22" d="m 4.5820625,-3.1882422 c 0,-0.796875 -0.046875,-1.59375 -0.3984375,-2.3320312 -0.4570312,-0.9609375 -1.2773437,-1.1132813 -1.6875,-1.1132813 -0.5976562,0 -1.3359375,0.2578125 -1.734375,1.1835938 -0.328125,0.6914062 -0.375,1.4648437 -0.375,2.2617187 0,0.75 0.046875,1.640625 0.4453125,2.40234376 0.4335938,0.80859375 1.1601563,1.0078125 1.6523438,1.0078125 0.5390625,0 1.2890625,-0.2109375 1.734375,-1.16015625 C 4.5351875,-1.6296484 4.5820625,-2.4030859 4.5820625,-3.1882422 Z M 2.4844063,-7.421875e-4 c -0.3867188,0 -0.984375,-0.2460937525 -1.1601563,-1.2070312125 -0.1054687,-0.5976563 -0.1054687,-1.5117188 -0.1054687,-2.0976563 0,-0.6445312 0,-1.3007812 0.082031,-1.8398437 0.1875,-1.1835938 0.9257813,-1.265625 1.1835938,-1.265625 0.328125,0 0.984375,0.1757812 1.171875,1.1601562 0.09375,0.5625 0.09375,1.3125 0.09375,1.9453125 0,0.75 0,1.4179688 -0.1054688,2.0625 -0.1523437,0.93750001 -0.7148437,1.2421875125 -1.160156,1.2421875125 z m 0,0" style="fill:#000000;fill-opacity:1;fill-rule:nonzero;stroke:none"/>
      <path id="path23" d="M 6.8906563,-0.52515625 C 6.8906563,-0.818125 6.6562813,-1.0525 6.3633125,-1.0525 c -0.28125,0 -0.5273437,0.234375 -0.5273437,0.52734375 0,0.29296875 0.2460937,0.52734375 0.5273437,0.52734375 0.2929688,0 0.5273438,-0.234375 0.5273438,-0.52734375 z m 0,0" style="fill:#000000;fill-opacity:1;fill-rule:nonzero;stroke:none"/>
      <path id="path24" d="m 9.0615547,-3.2702734 v -0.234375 c 0,-2.5195313 1.2421873,-2.8828125 1.7460933,-2.8828125 0.234375,0 0.65625,0.058594 0.878907,0.3984375 -0.152344,0 -0.550782,0 -0.550782,0.4453125 0,0.3164062 0.234375,0.4570312 0.457032,0.4570312 0.164062,0 0.457031,-0.082031 0.457031,-0.46875 0,-0.5976562 -0.433594,-1.078125 -1.265625,-1.078125 -1.2773438,0 -2.6132813,1.2890625 -2.6132813,3.4804688 0,2.66015621 1.1484375,3.37499996 2.0742183,3.37499996 1.113282,0 2.050782,-0.9375 2.050782,-2.24999996 0,-1.265625 -0.878907,-2.2265625 -1.992188,-2.2265625 -0.6679686,0 -1.0429686,0.5039062 -1.2421873,0.984375 z m 1.1835933,3.21093746 c -0.6210933,0 -0.9257808,-0.59765625 -0.9843746,-0.75 C 9.0849922,-1.2780859 9.0849922,-2.0749609 9.0849922,-2.2507422 c 0,-0.7734375 0.3164062,-1.7695312 1.2187498,-1.7695312 0.152344,0 0.609375,0 0.925781,0.609375 0.175782,0.375 0.175782,0.8789062 0.175782,1.3710937 0,0.4804688 0,0.9726563 -0.164063,1.33593751 -0.304687,0.59765625 -0.761719,0.64453125 -0.996094,0.64453125 z m 0,0" style="fill:#000000;fill-opacity:1;fill-rule:nonzero;stroke:none"/>
    </g>
    <path id="path25" d="m 181.42024,-56.69363 v -2.83484" style="fill:none;stroke:#000000;stroke-width:0.3985;stroke-linecap:butt;stroke-linejoin:miter;stroke-miterlimit:10;stroke-dasharray:none;stroke-opacity:1" transform="matrix(1.3333333,0,0,-1.3333333,45.174667,90.028)"/>
    <g id="g25" aria-label="0&#xA;.&#xA;8" transform="matrix(1.3333333,0,0,1.3333333,278.58133,182.65333)">
      <path id="path26" d="m 4.5825547,-3.1882422 c 0,-0.796875 -0.046875,-1.59375 -0.3984375,-2.3320312 -0.4570313,-0.9609375 -1.2773438,-1.1132813 -1.6875,-1.1132813 -0.5976563,0 -1.3359375,0.2578125 -1.73437501,1.1835938 -0.328125,0.6914062 -0.375,1.4648437 -0.375,2.2617187 0,0.75 0.046875,1.640625 0.4453125,2.40234376 0.43359371,0.80859375 1.16015621,1.0078125 1.65234371,1.0078125 0.5390625,0 1.2890625,-0.2109375 1.734375,-1.16015625 C 4.5356797,-1.6296484 4.5825547,-2.4030859 4.5825547,-3.1882422 Z M 2.4848984,-7.421875e-4 c -0.3867187,0 -0.984375,-0.2460937525 -1.1601562,-1.2070312125 -0.1054688,-0.5976563 -0.1054688,-1.5117188 -0.1054688,-2.0976563 0,-0.6445312 0,-1.3007812 0.082031,-1.8398437 0.1875,-1.1835938 0.9257812,-1.265625 1.1835937,-1.265625 0.328125,0 0.984375,0.1757812 1.171875,1.1601562 0.09375,0.5625 0.09375,1.3125 0.09375,1.9453125 0,0.75 0,1.4179688 -0.1054687,2.0625 -0.1523438,0.93750001 -0.7148438,1.2421875125 -1.160156,1.2421875125 z m 0,0" style="fill:#000000;fill-opacity:1;fill-rule:nonzero;stroke:none"/>
      <path id="path27" d="M 6.8911484,-0.52515625 C 6.8911484,-0.818125 6.6567734,-1.0525 6.3638047,-1.0525 c -0.28125,0 -0.5273438,0.234375 -0.5273438,0.52734375 0,0.29296875 0.2460938,0.52734375 0.5273438,0.52734375 0.2929687,0 0.5273437,-0.234375 0.5273437,-0.52734375 z m 0,0" style="fill:#000000;fill-opacity:1;fill-rule:nonzero;stroke:none"/>
      <path id="path28" d="m 9.3784531,-4.5476172 c -0.46875,-0.3046875 -0.5039062,-0.6445312 -0.5039062,-0.8085937 0,-0.609375 0.6445312,-1.03125 1.3593751,-1.03125 0.726562,0 1.359375,0.515625 1.359375,1.2421875 0,0.5625 -0.386719,1.0429687 -0.984375,1.3945312 z m 1.4531249,0.9375 c 0.714844,-0.3632812 1.207031,-0.8789062 1.207031,-1.5351562 0,-0.9257813 -0.890625,-1.4882813 -1.792968,-1.4882813 -0.9960941,0 -1.8046879,0.7382813 -1.8046879,1.6640625 0,0.1757813 0.011719,0.6210938 0.4335938,1.0898438 0.1054687,0.1289062 0.4804687,0.375 0.7265625,0.5390625 -0.5742188,0.2929687 -1.4296875,0.84375 -1.4296875,1.8398437 0,1.05468751 1.0078125,1.72265626 2.0625001,1.72265626 1.125,0 2.0625,-0.83203125 2.0625,-1.89843746 0,-0.3515625 -0.105469,-0.8085938 -0.480469,-1.21875 -0.1875,-0.2109375 -0.351562,-0.3164063 -0.984375,-0.7148438 z m -0.9960936,0.421875 1.2187496,0.7734375 c 0.28125,0.1875 0.75,0.4921875 0.75,1.1015625 0,0.73828126 -0.75,1.25390626 -1.558593,1.25390626 -0.8671879,0 -1.5820316,-0.62109375 -1.5820316,-1.44140626 0,-0.5859375 0.3164062,-1.21875 1.171875,-1.6875 z m 0,0" style="fill:#000000;fill-opacity:1;fill-rule:nonzero;stroke:none"/>
    </g>
    <path id="path29" d="m 226.77444,-56.69363 v -2.83484" style="fill:none;stroke:#000000;stroke-width:0.3985;stroke-linecap:butt;stroke-linejoin:miter;stroke-miterlimit:10;stroke-dasharray:none;stroke-opacity:1" transform="matrix(1.3333333,0,0,-1.3333333,45.174667,90.028)"/>
    <path id="path30" d="m 2.92875,-6.3757422 c 0,-0.234375 0,-0.2578125 -0.234375,-0.2578125 C 2.085,-6.0007422 1.2060938,-6.0007422 0.8896875,-6.0007422 v 0.3164063 c 0.1992188,0 0.7851563,0 1.3007813,-0.2578125 v 5.15624996 c 0,0.3515625 -0.035156,0.48046875 -0.9257813,0.48046875 H 0.94828125 V -7.421875e-4 C 1.2998438,-0.03589844 2.1553125,-0.03589844 2.55375,-0.03589844 c 0.3984375,0 1.265625,0 1.6171875,0.0351562525 V -0.30542969 H 3.8545313 c -0.9023438,0 -0.9257813,-0.1171875 -0.9257813,-0.48046875 z m 0,0" style="fill:#000000;fill-opacity:1;fill-rule:nonzero;stroke:none" aria-label="1" transform="matrix(1.3333333,0,0,1.3333333,344.22,182.65333)"/>
    <path id="path31" d="M 0,-56.69363 H -2.26787" style="fill:none;stroke:#000000;stroke-width:0.3985;stroke-linecap:butt;stroke-linejoin:miter;stroke-miterlimit:10;stroke-dasharray:none;stroke-opacity:1" transform="matrix(1.3333333,0,0,-1.3333333,45.174667,90.028)"/>
    <g id="g31" aria-label="−&#xA;1" transform="matrix(1.3333333,0,0,1.3333333,20.484,169.34667)">
      <path id="path32" d="m 6.5627812,-2.2961328 c 0.1757813,0 0.3515625,0 0.3515625,-0.1992188 0,-0.1992187 -0.1757812,-0.1992187 -0.3515625,-0.1992187 h -5.390625 c -0.1640625,0 -0.3398437,0 -0.3398437,0.1992187 0,0.1992188 0.1757812,0.1992188 0.3398437,0.1992188 z m 0,0" style="fill:#000000;fill-opacity:1;fill-rule:nonzero;stroke:none"/>
      <path id="path33" d="m 10.678992,-6.3742578 c 0,-0.234375 0,-0.2578125 -0.234375,-0.2578125 -0.6093748,0.6328125 -1.4882811,0.6328125 -1.8046873,0.6328125 v 0.3164062 c 0.1992187,0 0.7851562,0 1.3007812,-0.2578125 v 5.15625004 c 0,0.3515625 -0.035156,0.48046875 -0.9257812,0.48046875 H 8.6985234 V 7.421875e-4 C 9.0500859,-0.03441406 9.9055547,-0.03441406 10.303992,-0.03441406 c 0.398438,0 1.265625,0 1.617188,0.0351562475 V -0.30394531 h -0.316407 c -0.902343,0 -0.925781,-0.1171875 -0.925781,-0.48046875 z m 0,0" style="fill:#000000;fill-opacity:1;fill-rule:nonzero;stroke:none"/>
    </g>
    <path id="path34" d="M 0,-28.3468 H -2.26787" style="fill:none;stroke:#000000;stroke-width:0.3985;stroke-linecap:butt;stroke-linejoin:miter;stroke-miterlimit:10;stroke-dasharray:none;stroke-opacity:1" transform="matrix(1.3333333,0,0,-1.3333333,45.174667,90.028)"/>
    <g id="g34" aria-label="−&#xA;0&#xA;.&#xA;5" transform="matrix(1.3333333,0,0,1.3333333,10.152,131.55067)">
      <path id="path35" d="m 6.5627578,-2.2967891 c 0.1757813,0 0.3515625,0 0.3515625,-0.1992187 0,-0.1992188 -0.1757812,-0.1992188 -0.3515625,-0.1992188 h -5.390625 c -0.1640625,0 -0.33984374,0 -0.33984374,0.1992188 0,0.1992187 0.17578124,0.1992187 0.33984374,0.1992187 z m 0,0" style="fill:#000000;fill-opacity:1;fill-rule:nonzero;stroke:none"/>
      <path id="path36" d="m 12.331312,-3.1874141 c 0,-0.796875 -0.04687,-1.59375 -0.398437,-2.3320312 -0.457031,-0.9609375 -1.277344,-1.1132813 -1.6875,-1.1132813 -0.5976563,0 -1.3359375,0.2578125 -1.734375,1.1835938 -0.328125,0.6914062 -0.375,1.4648437 -0.375,2.2617187 0,0.75 0.046875,1.640625 0.4453125,2.40234379 0.4335937,0.80859375 1.1601562,1.0078125 1.6523435,1.0078125 0.539063,0 1.289063,-0.2109375 1.734375,-1.16015625 0.316406,-0.69140624 0.363281,-1.46484374 0.363281,-2.25000004 z M 10.233656,8.59375e-5 C 9.8469375,8.59375e-5 9.2492812,-0.24600781 9.0735,-1.2069453 8.9680312,-1.8046016 8.9680312,-2.7186641 8.9680312,-3.3046016 c 0,-0.6445312 0,-1.3007812 0.082031,-1.8398437 0.1875,-1.1835938 0.9257812,-1.265625 1.1835938,-1.265625 0.328125,0 0.984375,0.1757812 1.171875,1.1601562 0.09375,0.5625 0.09375,1.3125 0.09375,1.9453125 0,0.75 0,1.4179688 -0.105469,2.0625 C 11.241469,-0.30460156 10.678969,8.59375e-5 10.233656,8.59375e-5 Z m 0,0" style="fill:#000000;fill-opacity:1;fill-rule:nonzero;stroke:none"/>
      <path id="path37" d="m 14.639906,-0.52725781 c 0,-0.29296875 -0.234375,-0.52734379 -0.527344,-0.52734379 -0.28125,0 -0.527343,0.23437504 -0.527343,0.52734379 0,0.29296875 0.246093,0.5273437475 0.527343,0.5273437475 0.292969,0 0.527344,-0.2343749975 0.527344,-0.5273437475 z m 0,0" style="fill:#000000;fill-opacity:1;fill-rule:nonzero;stroke:none"/>
      <path id="path38" d="m 19.974867,-2.0038203 c 0,-1.1835938 -0.820312,-2.1796875 -1.898437,-2.1796875 -0.480469,0 -0.902344,0.1640625 -1.265625,0.5039062 v -1.9335937 c 0.199218,0.058594 0.527343,0.1289062 0.84375,0.1289062 1.230468,0 1.933593,-0.9140625 1.933593,-1.0429687 0,-0.058594 -0.03516,-0.1054688 -0.105468,-0.1054688 -0.01172,0 -0.03516,0 -0.08203,0.023437 -0.199218,0.09375 -0.679687,0.2929688 -1.347656,0.2929688 -0.398437,0 -0.855469,-0.070312 -1.324219,-0.28125 -0.08203,-0.023437 -0.105468,-0.023437 -0.128906,-0.023437 -0.09375,0 -0.09375,0.082031 -0.09375,0.234375 v 2.953125 c 0,0.1757812 0,0.2578125 0.140625,0.2578125 0.07031,0 0.08203,-0.035156 0.128906,-0.09375 0.105469,-0.1523438 0.480469,-0.6914063 1.277344,-0.6914063 0.527344,0 0.773438,0.4570313 0.855469,0.6328125 0.152344,0.375 0.175781,0.7617188 0.175781,1.2539063 0,0.3515625 0,0.9492187 -0.234375,1.37109374 -0.246094,0.38671875 -0.609375,0.64453125 -1.066406,0.64453125 -0.726563,0 -1.300781,-0.52734375 -1.464844,-1.11328129 0.02344,0.011719 0.05859,0.011719 0.164063,0.011719 0.328125,0 0.503906,-0.2460938 0.503906,-0.4804688 0,-0.2460937 -0.175781,-0.4921875 -0.503906,-0.4921875 -0.140625,0 -0.480469,0.070312 -0.480469,0.5273438 0,0.85546874 0.679687,1.82812499 1.792969,1.82812499 1.160156,0 2.179687,-0.9609375 2.179687,-2.22656249 z m 0,0" style="fill:#000000;fill-opacity:1;fill-rule:nonzero;stroke:none"/>
    </g>
    <path id="path39" d="M 0,0 H -2.26787" style="fill:none;stroke:#000000;stroke-width:0.3985;stroke-linecap:butt;stroke-linejoin:miter;stroke-miterlimit:10;stroke-dasharray:none;stroke-opacity:1" transform="matrix(1.3333333,0,0,-1.3333333,45.174667,90.028)"/>
    <path id="path40" d="m 4.5823359,-3.1870547 c 0,-0.796875 -0.046875,-1.59375 -0.3984375,-2.3320312 -0.4570312,-0.9609375 -1.2773437,-1.1132813 -1.6875,-1.1132813 -0.5976562,0 -1.3359375,0.2578125 -1.73437496,1.1835938 -0.328125,0.6914062 -0.375,1.4648437 -0.375,2.2617187 0,0.75 0.046875,1.640625 0.4453125,2.40234376 0.43359376,0.80859375 1.16015626,1.0078125 1.65234376,1.0078125 0.5390625,0 1.2890625,-0.2109375 1.734375,-1.16015625 C 4.5354609,-1.6284609 4.5823359,-2.4018984 4.5823359,-3.1870547 Z M 2.4846797,4.453125e-4 c -0.3867188,0 -0.984375,-0.2460937525 -1.1601563,-1.2070312125 -0.1054687,-0.5976563 -0.1054687,-1.5117188 -0.1054687,-2.0976563 0,-0.6445312 0,-1.3007812 0.082031,-1.8398437 0.1875,-1.1835938 0.9257813,-1.265625 1.1835938,-1.265625 0.328125,0 0.984375,0.1757812 1.171875,1.1601562 0.09375,0.5625 0.09375,1.3125 0.09375,1.9453125 0,0.75 0,1.4179688 -0.1054688,2.0625 C 3.4924922,-0.30424219 2.9299922,4.453125e-4 2.4846797,4.453125e-4 Z m 0,0" style="fill:#000000;fill-opacity:1;fill-rule:nonzero;stroke:none" aria-label="0" transform="matrix(1.3333333,0,0,1.3333333,30.816,94.308)"/>
    <path id="path41" d="M 0,28.3468 H -2.26787" style="fill:none;stroke:#000000;stroke-width:0.3985;stroke-linecap:butt;stroke-linejoin:miter;stroke-miterlimit:10;stroke-dasharray:none;stroke-opacity:1" transform="matrix(1.3333333,0,0,-1.3333333,45.174667,90.028)"/>
    <g id="g41" aria-label="0&#xA;.&#xA;5" transform="matrix(1.3333333,0,0,1.3333333,20.484,56.512)">
      <path id="path42" d="m 4.5823125,-3.1877109 c 0,-0.796875 -0.046875,-1.59375 -0.3984375,-2.3320313 -0.4570313,-0.9609375 -1.2773438,-1.1132812 -1.6875,-1.1132812 -0.5976563,0 -1.3359375,0.2578125 -1.734375,1.1835937 -0.328125,0.6914063 -0.375,1.4648438 -0.375,2.2617188 0,0.75 0.046875,1.640625 0.4453125,2.40234371 0.4335937,0.80859375 1.1601562,1.0078125 1.6523437,1.0078125 0.5390625,0 1.2890625,-0.2109375 1.734375,-1.16015625 C 4.5354375,-1.6291172 4.5823125,-2.4025547 4.5823125,-3.1877109 Z M 2.4846562,-2.109375e-4 c -0.3867187,0 -0.984375,-0.2460937525 -1.1601562,-1.2070312625 -0.1054688,-0.5976562 -0.1054688,-1.5117187 -0.1054688,-2.0976562 0,-0.6445313 0,-1.3007813 0.082031,-1.8398438 0.1875,-1.1835937 0.9257812,-1.265625 1.1835937,-1.265625 0.328125,0 0.984375,0.1757813 1.171875,1.1601563 0.09375,0.5625 0.09375,1.3125 0.09375,1.9453125 0,0.75 0,1.4179687 -0.1054687,2.0625 -0.1523438,0.93749996 -0.7148438,1.2421874625 -1.160156,1.2421874625 z m 0,0" style="fill:#000000;fill-opacity:1;fill-rule:nonzero;stroke:none"/>
      <path id="path43" d="m 6.8909062,-0.52755469 c 0,-0.29296875 -0.234375,-0.52734371 -0.5273437,-0.52734371 -0.28125,0 -0.5273438,0.23437496 -0.5273438,0.52734371 0,0.29296875 0.2460938,0.5273437525 0.5273438,0.5273437525 0.2929687,0 0.5273437,-0.2343750025 0.5273437,-0.5273437525 z m 0,0" style="fill:#000000;fill-opacity:1;fill-rule:nonzero;stroke:none"/>
      <path id="path44" d="m 12.225867,-2.0041172 c 0,-1.1835937 -0.820312,-2.1796875 -1.898437,-2.1796875 -0.4804691,0 -0.9023441,0.1640625 -1.2656253,0.5039063 v -1.9335938 c 0.1992187,0.058594 0.5273437,0.1289063 0.84375,0.1289063 1.2304683,0 1.9335933,-0.9140625 1.9335933,-1.0429688 0,-0.058594 -0.03516,-0.1054687 -0.105468,-0.1054687 -0.01172,0 -0.03516,0 -0.08203,0.023437 -0.199218,0.09375 -0.679687,0.2929687 -1.347656,0.2929687 -0.3984373,0 -0.8554686,-0.070312 -1.3242186,-0.28125 -0.082031,-0.023437 -0.1054687,-0.023437 -0.1289062,-0.023437 -0.09375,0 -0.09375,0.082031 -0.09375,0.234375 v 2.953125 c 0,0.1757813 0,0.2578125 0.140625,0.2578125 0.070312,0 0.082031,-0.035156 0.1289062,-0.09375 0.1054688,-0.1523437 0.4804688,-0.6914062 1.2773436,-0.6914062 0.527344,0 0.773438,0.4570312 0.855469,0.6328125 0.152344,0.375 0.175781,0.7617187 0.175781,1.2539062 0,0.3515625 0,0.9492188 -0.234375,1.37109376 -0.246094,0.38671875 -0.609375,0.64453125 -1.066406,0.64453125 -0.7265626,0 -1.3007813,-0.52734375 -1.4648438,-1.11328121 0.023437,0.011719 0.058594,0.011719 0.1640625,0.011719 0.328125,0 0.5039062,-0.2460937 0.5039062,-0.4804687 0,-0.2460938 -0.1757812,-0.4921875 -0.5039062,-0.4921875 -0.140625,0 -0.4804688,0.070312 -0.4804688,0.5273437 0,0.85546876 0.6796875,1.82812501 1.7929691,1.82812501 1.160156,0 2.179687,-0.9609375 2.179687,-2.22656251 z m 0,0" style="fill:#000000;fill-opacity:1;fill-rule:nonzero;stroke:none"/>
    </g>
    <path id="path45" d="M 0,56.69363 H -2.26787" style="fill:none;stroke:#000000;stroke-width:0.3985;stroke-linecap:butt;stroke-linejoin:miter;stroke-miterlimit:10;stroke-dasharray:none;stroke-opacity:1" transform="matrix(1.3333333,0,0,-1.3333333,45.174667,90.028)"/>
    <path id="path46" d="m 2.9299922,-6.3739375 c 0,-0.234375 0,-0.2578125 -0.234375,-0.2578125 -0.609375,0.6328125 -1.4882813,0.6328125 -1.80468751,0.6328125 v 0.3164063 c 0.19921871,0 0.78515621,0 1.30078121,-0.2578125 v 5.15624995 c 0,0.3515625 -0.035156,0.48046875 -0.9257812,0.48046875 H 0.94952344 V 0.0010625 C 1.3010859,-0.03409375 2.1565547,-0.03409375 2.5549922,-0.03409375 c 0.3984375,0 1.265625,0 1.6171875,0.03515625 V -0.303625 H 3.8557734 c -0.9023437,0 -0.9257812,-0.1171875 -0.9257812,-0.48046875 z m 0,0" style="fill:#000000;fill-opacity:1;fill-rule:nonzero;stroke:none" aria-label="1" transform="matrix(1.3333333,0,0,1.3333333,30.816,18.717333)"/>
    <path id="path47" d="m 0,0 9.44868,14.67168 9.4487,13.67425 9.44872,11.74169 9.4487,9.00889 9.44872,5.66454 9.44869,1.93171 9.4487,-1.93084 9.44872,-5.66367 9.4487,-9.00804 9.44872,-11.74081 9.44868,-13.6734 9.4487,-14.6717 9.44872,-14.67251 9.4487,-13.6734 9.44871,-11.74254 9.4487,-9.01065 9.4487,-5.66451 9.44872,-1.93345 9.4487,1.93 9.44871,5.66191 9.44869,9.00805 9.4487,11.73994 9.44871,13.67166 9.4487,14.67256" style="fill:none;stroke:#000000;stroke-width:0.3985;stroke-linecap:butt;stroke-linejoin:miter;stroke-miterlimit:10;stroke-dasharray:2.98883, 1.99255;stroke-dashoffset:0;stroke-opacity:1" transform="matrix(1.3333333,0,0,-1.3333333,45.174667,90.028)"/>
    <path id="path48" d="M 0,0 V 0 M 2.83466,0 C 2.83466,1.56555 1.56555,2.83466 0,2.83466 -1.56555,2.83466 -2.83466,1.56555 -2.83466,0 c 0,-1.56555 1.26911,-2.83466 2.83466,-2.83466 1.56555,0 2.83466,1.26911 2.83466,2.83466 z" style="fill:#000000;fill-opacity:1;fill-rule:nonzero;stroke:#000000;stroke-width:0.3985;stroke-linecap:butt;stroke-linejoin:miter;stroke-miterlimit:10;stroke-dasharray:none;stroke-opacity:1" transform="matrix(1.3333333,0,0,-1.3333333,45.174667,90.028)"/>
    <path id="path49" d="m 28.34679,0 v 40.08847 m 2.83467,0 c 0,1.56557 -1.26911,2.83467 -2.83467,2.83467 -1.56557,0 -2.83467,-1.2691 -2.83467,-2.83467 0,-1.56555 1.2691,-2.83466 2.83467,-2.83466 1.56556,0 2.83467,1.26911 2.83467,2.83466 z" style="fill:#000000;fill-opacity:1;fill-rule:nonzero;stroke:#000000;stroke-width:0.3985;stroke-linecap:butt;stroke-linejoin:miter;stroke-miterlimit:10;stroke-dasharray:none;stroke-opacity:1" transform="matrix(1.3333333,0,0,-1.3333333,45.174667,90.028)"/>
    <path id="path50" d="m 56.6936,0 v 56.69363 m 2.83466,0 c 0,1.56556 -1.2691,2.83466 -2.83466,2.83466 -1.56556,0 -2.83467,-1.2691 -2.83467,-2.83466 0,-1.56556 1.26911,-2.83467 2.83467,-2.83467 1.56556,0 2.83466,1.26911 2.83466,2.83467 z" style="fill:#000000;fill-opacity:1;fill-rule:nonzero;stroke:#000000;stroke-width:0.3985;stroke-linecap:butt;stroke-linejoin:miter;stroke-miterlimit:10;stroke-dasharray:none;stroke-opacity:1" transform="matrix(1.3333333,0,0,-1.3333333,45.174667,90.028)"/>
    <path id="path51" d="m 85.0404,0 v 40.08847 m 2.83468,0 c 0,1.56557 -1.26911,2.83467 -2.83468,2.83467 -1.56555,0 -2.83467,-1.2691 -2.83467,-2.83467 0,-1.56555 1.26912,-2.83466 2.83467,-2.83466 1.56557,0 2.83468,1.26911 2.83468,2.83466 z" style="fill:#000000;fill-opacity:1;fill-rule:nonzero;stroke:#000000;stroke-width:0.3985;stroke-linecap:butt;stroke-linejoin:miter;stroke-miterlimit:10;stroke-dasharray:none;stroke-opacity:1" transform="matrix(1.3333333,0,0,-1.3333333,45.174667,90.028)"/>
    <path id="path52" d="m 113.38722,0 v 0 m 2.83466,0 c 0,1.56555 -1.26911,2.83466 -2.83466,2.83466 -1.56556,0 -2.83467,-1.26911 -2.83467,-2.83466 0,-1.56555 1.26911,-2.83466 2.83467,-2.83466 1.56555,0 2.83466,1.26911 2.83466,2.83466 z" style="fill:#000000;fill-opacity:1;fill-rule:nonzero;stroke:#000000;stroke-width:0.3985;stroke-linecap:butt;stroke-linejoin:miter;stroke-miterlimit:10;stroke-dasharray:none;stroke-opacity:1" transform="matrix(1.3333333,0,0,-1.3333333,45.174667,90.028)"/>
    <path id="path53" d="m 141.73401,0 v -40.08847 m 2.83467,0 c 0,1.56555 -1.2691,2.83466 -2.83467,2.83466 -1.56555,0 -2.83467,-1.26911 -2.83467,-2.83466 0,-1.56557 1.26912,-2.83467 2.83467,-2.83467 1.56557,0 2.83467,1.2691 2.83467,2.83467 z" style="fill:#000000;fill-opacity:1;fill-rule:nonzero;stroke:#000000;stroke-width:0.3985;stroke-linecap:butt;stroke-linejoin:miter;stroke-miterlimit:10;stroke-dasharray:none;stroke-opacity:1" transform="matrix(1.3333333,0,0,-1.3333333,45.174667,90.028)"/>
    <path id="path54" d="m 170.08083,0 v -56.69363 m 2.83465,0 c 0,1.56556 -1.2691,2.83467 -2.83465,2.83467 -1.56557,0 -2.83468,-1.26911 -2.83468,-2.83467 0,-1.56556 1.26911,-2.83466 2.83468,-2.83466 1.56555,0 2.83465,1.2691 2.83465,2.83466 z" style="fill:#000000;fill-opacity:1;fill-rule:nonzero;stroke:#000000;stroke-width:0.3985;stroke-linecap:butt;stroke-linejoin:miter;stroke-miterlimit:10;stroke-dasharray:none;stroke-opacity:1" transform="matrix(1.3333333,0,0,-1.3333333,45.174667,90.028)"/>
    <path id="path55" d="m 198.42763,0 v -40.08847 m 2.83467,0 c 0,1.56555 -1.2691,2.83466 -2.83467,2.83466 -1.56555,0 -2.83467,-1.26911 -2.83467,-2.83466 0,-1.56557 1.26912,-2.83467 2.83467,-2.83467 1.56557,0 2.83467,1.2691 2.83467,2.83467 z" style="fill:#000000;fill-opacity:1;fill-rule:nonzero;stroke:#000000;stroke-width:0.3985;stroke-linecap:butt;stroke-linejoin:miter;stroke-miterlimit:10;stroke-dasharray:none;stroke-opacity:1" transform="matrix(1.3333333,0,0,-1.3333333,45.174667,90.028)"/>
    <path id="path56" d="m 226.77444,0 v 0 m 2.83468,0 c 0,1.56555 -1.26912,2.83466 -2.83468,2.83466 -1.56556,0 -2.83467,-1.26911 -2.83467,-2.83466 0,-1.56555 1.26911,-2.83466 2.83467,-2.83466 1.56556,0 2.83468,1.26911 2.83468,2.83466 z" style="fill:#000000;fill-opacity:1;fill-rule:nonzero;stroke:#000000;stroke-width:0.3985;stroke-linecap:butt;stroke-linejoin:miter;stroke-miterlimit:10;stroke-dasharray:none;stroke-opacity:1" transform="matrix(1.3333333,0,0,-1.3333333,45.174667,90.028)"/>
    <path id="path57" d="M 272.32858,-31.43549 H 437.7119 V 31.43548 H 272.32858 Z" style="fill:none;stroke:#000000;stroke-width:0.3985;stroke-linecap:butt;stroke-linejoin:miter;stroke-miterlimit:10;stroke-dasharray:none;stroke-opacity:1" transform="matrix(1.3333333,0,0,-1.3333333,45.174667,90.028)"/>
    <path id="path58" d="m 4.6526172,-0.30517187 c 0,-0.3046875 -0.234375,-0.3046875 -0.3984375,-0.3046875 H 2.9533984 V -5.6840781 c 0,-0.3046875 -0.058594,-0.3984375 -0.3984375,-0.3984375 H 0.98464844 c -0.15234375,0 -0.41015625,0 -0.41015625,0.3046875 0,0.2929687 0.2578125,0.2929687 0.3984375,0.2929687 H 2.2737109 v 4.87500003 H 0.98464844 c -0.15234375,0 -0.41015625,0 -0.41015625,0.3046875 0,0.304687495 0.2578125,0.304687495 0.3984375,0.304687495 H 4.2541797 c 0.1523437,0 0.3984375,0 0.3984375,-0.304687495 z M 9.8469531,-1.0903281 c 0,-0.2695313 -0.28125,-0.2695313 -0.3398437,-0.2695313 -0.1875,0 -0.2578125,0.023437 -0.328125,0.2109375 -0.2226563,0.51562503 -0.7617188,0.59765628 -1.0429688,0.59765628 -0.75,0 -1.4882812,-0.49218748 -1.6523437,-1.34765628 h 2.9648437 c 0.2109375,0 0.3984375,0 0.3984375,-0.375 0,-1.1367187 -0.6328125,-2.109375 -1.921875,-2.109375 -1.1953125,0 -2.1445312,0.9960938 -2.1445312,2.2265625 0,1.20703128 1.0078125,2.21484378 2.2851562,2.21484378 1.3125,0 1.78125,-0.890625 1.78125,-1.14843748 z m -0.703125,-1.40625 H 6.4953906 c 0.140625,-0.7265625 0.7265625,-1.2773438 1.4296875,-1.2773438 0.515625,0 1.125,0.2460938 1.21875,1.2773438 z m 6.4160159,2.19140623 c 0,-0.3046875 -0.246094,-0.3046875 -0.410157,-0.3046875 H 14.716094 V -2.9184531 c 0,-1.0078125 -0.503907,-1.4296875 -1.300782,-1.4296875 -0.65625,0 -1.113281,0.328125 -1.300781,0.5273437 0,-0.328125 0,-0.46875 -0.398437,-0.46875 h -0.726563 c -0.164062,0 -0.410156,0 -0.410156,0.3046875 0,0.2929688 0.257812,0.2929688 0.398437,0.2929688 h 0.445313 v 3.08203123 h -0.433594 c -0.164062,0 -0.410156,0 -0.410156,0.3046875 0,0.304687495 0.257812,0.304687495 0.398437,0.304687495 h 1.582032 c 0.140625,0 0.398437,0 0.398437,-0.304687495 0,-0.3046875 -0.246094,-0.3046875 -0.398437,-0.3046875 H 12.114531 V -2.3676719 c 0,-0.9960937 0.738281,-1.3828125 1.242188,-1.3828125 0.527343,0 0.667968,0.28125 0.667968,0.8789063 v 2.26171873 h -0.386718 c -0.152344,0 -0.410157,0 -0.410157,0.3046875 0,0.304687495 0.269532,0.304687495 0.410157,0.304687495 h 1.523437 c 0.140625,0 0.398438,0 0.398438,-0.304687495 z m 5.206054,-3.56250003 c 0,-0.2226562 -0.1875,-0.5390625 -0.726562,-0.5390625 -0.117188,0 -0.597656,0.011719 -1.054688,0.3515625 -0.164062,-0.1054687 -0.515625,-0.2929687 -0.972656,-0.2929687 -0.9375,0 -1.640625,0.7382812 -1.640625,1.59375 0,0.421875 0.164063,0.75 0.316406,0.9375 -0.105468,0.1640625 -0.199218,0.3867187 -0.199218,0.6796875 0,0.35156248 0.140625,0.59765623 0.234375,0.71484373 -0.738282,0.45703125 -0.738282,1.125 -0.738282,1.2421875 0,0.85546877 1.042969,1.46484377 2.320313,1.46484377 1.277344,0 2.320312,-0.6210938 2.320312,-1.46484377 0,-0.375 -0.1875,-0.8671875 -0.691406,-1.13671875 -0.128906,-0.0703125 -0.550781,-0.29296875 -1.441406,-0.29296875 h -0.703125 c -0.07031,0 -0.199219,0 -0.28125,-0.0234375 -0.152344,0 -0.210938,0 -0.328125,-0.12890625 -0.117188,-0.140625 -0.128906,-0.36328128 -0.128906,-0.36328128 0,-0.035156 0.02344,-0.1757812 0.07031,-0.28125 0.02344,0.023437 0.398438,0.2460938 0.890625,0.2460938 0.914063,0 1.640625,-0.7148438 1.640625,-1.59375 0,-0.3046875 -0.08203,-0.5976563 -0.257812,-0.8671875 0.210937,-0.1289063 0.445312,-0.1640625 0.585937,-0.1757813 0.05859,0.2695313 0.28125,0.3398438 0.386719,0.3398438 0.164062,0 0.398437,-0.1171875 0.398437,-0.4101563 z m -1.792968,1.1132813 c 0,0.5625 -0.445313,0.9960937 -0.960938,0.9960937 -0.539062,0 -0.960937,-0.46875 -0.960937,-0.9960937 0,-0.5625 0.445312,-0.9960938 0.960937,-0.9960938 0.539063,0 0.960938,0.4570313 0.960938,0.9960938 z m 1.066406,3.57421873 c 0,0.43359377 -0.738281,0.86718747 -1.734375,0.86718747 -0.996094,0 -1.746094,-0.4335937 -1.746094,-0.86718747 0,-0.1875 0.09375,-0.50390625 0.410156,-0.703125 0.246094,-0.15234375 0.339844,-0.15234375 1.066407,-0.15234375 0.878906,0 2.003906,0 2.003906,0.85546875 z m 5.358398,-2.07421873 c 0,-0.1757813 0,-0.3867188 -0.351562,-0.3867188 -0.328125,0 -0.339844,0.2109375 -0.339844,0.375 -0.01172,0.62109378 -0.574219,0.71484378 -0.808594,0.71484378 -0.761718,0 -0.761718,-0.51562498 -0.761718,-0.76171878 v -2.3789062 h 1.628906 c 0.152344,0 0.398437,0 0.398437,-0.2929688 0,-0.3046875 -0.234375,-0.3046875 -0.398437,-0.3046875 h -1.628906 v -0.8203125 c 0,-0.1875 0,-0.4101562 -0.339844,-0.4101562 -0.351563,0 -0.351563,0.2109375 -0.351563,0.4101562 v 0.8203125 h -0.867187 c -0.152344,0 -0.410156,0 -0.410156,0.3046875 0,0.2929688 0.257812,0.2929688 0.398437,0.2929688 h 0.878906 v 2.4375 c 0,0.94921873 0.679688,1.31249998 1.40625,1.31249998 0.738282,0 1.546875,-0.421875 1.546875,-1.31249998 z m 5.850586,0.94921873 c 0,-0.3046875 -0.246093,-0.3046875 -0.410156,-0.3046875 H 30.40457 V -2.9184531 c 0,-1.0078125 -0.503906,-1.4296875 -1.300781,-1.4296875 -0.65625,0 -1.113281,0.328125 -1.300781,0.5273437 v -1.8632812 c 0,-0.3046875 -0.05859,-0.3984375 -0.398438,-0.3984375 h -0.726562 c -0.164063,0 -0.410156,0 -0.410156,0.3046875 0,0.2929687 0.257812,0.2929687 0.398437,0.2929687 h 0.445313 v 4.87500003 h -0.433594 c -0.164063,0 -0.410156,0 -0.410156,0.3046875 0,0.304687495 0.257812,0.304687495 0.398437,0.304687495 h 1.582031 c 0.140625,0 0.398438,0 0.398438,-0.304687495 0,-0.3046875 -0.246094,-0.3046875 -0.398438,-0.3046875 H 27.803008 V -2.3676719 c 0,-0.9960937 0.738281,-1.3828125 1.242187,-1.3828125 0.527344,0 0.667969,0.28125 0.667969,0.8789063 v 2.26171873 h -0.386719 c -0.152343,0 -0.410156,0 -0.410156,0.3046875 0,0.304687495 0.269531,0.304687495 0.410156,0.304687495 h 1.523438 c 0.140625,0 0.398437,0 0.398437,-0.304687495 z m 0,0" style="fill:#008000;fill-opacity:1;fill-rule:nonzero;stroke:none" aria-label="length" transform="matrix(1.3333333,0,0,1.3333333,412.70667,60.805333)"/>
    <path id="path59" d="m 4.8394219,-3.8090781 c 0,-0.3398438 -0.3632813,-0.3398438 -0.5039063,-0.3398438 H 0.89020312 c -0.140625,0 -0.515625,0 -0.515625,0.3398438 0,0.3515625 0.328125,0.3515625 0.45703125,0.3515625 H 4.3941094 c 0.1171875,0 0.4453125,0 0.4453125,-0.3515625 z m 0,1.5117187 c 0,-0.3398437 -0.328125,-0.3398437 -0.4453125,-0.3398437 H 0.83160937 c -0.12890625,0 -0.45703125,0 -0.45703125,0.3398437 0,0.3515625 0.375,0.3515625 0.515625,0.3515625 H 4.3355156 c 0.140625,0 0.5039063,0 0.5039063,-0.3515625 z m 0,0" style="fill:#000000;fill-opacity:1;fill-rule:nonzero;stroke:none" aria-label="=" transform="matrix(1.3333333,0,0,1.3333333,461.524,60.805333)"/>
    <path id="path60" d="m 4.4048125,-0.30517187 c 0,-0.3046875 -0.2460938,-0.3046875 -0.3984375,-0.3046875 H 3.0923125 V -5.7895469 c 0,-0.1523437 0,-0.4101562 -0.2929688,-0.4101562 -0.1875,0 -0.2460937,0.1171875 -0.3046875,0.2460937 -0.375,0.84375 -0.890625,0.9492188 -1.078125,0.9726563 -0.1640625,0.011719 -0.375,0.035156 -0.375,0.3046875 0,0.2578125 0.1875,0.3046875 0.328125,0.3046875 0.1875,0 0.5976563,-0.058594 1.0429688,-0.4453125 v 4.20703123 H 1.4985625 c -0.1523438,0 -0.3984375,0 -0.3984375,0.3046875 0,0.304687495 0.2578125,0.304687495 0.3984375,0.304687495 H 4.006375 c 0.140625,0 0.3984375,0 0.3984375,-0.304687495 z m 0,0" style="fill:#666666;fill-opacity:1;fill-rule:nonzero;stroke:none" aria-label="1" transform="matrix(1.3333333,0,0,1.3333333,475.47067,60.805333)"/>
    <path id="path61" d="m 3.2343594,-3.6684531 c 0,-0.3632813 -0.2929688,-0.6210938 -0.609375,-0.6210938 -0.3867188,0 -0.6328125,0.3046875 -0.6328125,0.609375 0,0.375 0.3046875,0.6328125 0.6210937,0.6328125 0.375,0 0.6210938,-0.3046875 0.6210938,-0.6210937 z m 0.058594,3.39843748 c 0,-0.65625 -0.3046875,-0.97265628 -0.6796875,-0.97265628 -0.3632812,0 -0.6210937,0.28125003 -0.6210937,0.60937503 0,0.28125 0.1640625,0.632812495 0.65625,0.632812495 -0.1289063,0.539062505 -0.5039063,0.726562505 -0.65625,0.808593755 -0.058594,0.0234375 -0.1992188,0.09375 -0.1992188,0.25781252 0,0.1523437 0.1523438,0.3164062 0.3164063,0.3164062 0.2226562,0 1.1835937,-0.53906247 1.1835937,-1.65234372 z M -47.95607,6.4126016 c 0,-0.5976563 -0.796875,-0.5976563 -0.949219,-0.5976563 -0.796875,0 -1.570313,0.4570313 -1.570313,1.3242188 v 0.5273437 h -0.996093 c -0.152344,0 -0.398438,0 -0.398438,0.3046875 0,0.2929688 0.246094,0.2929688 0.398438,0.2929688 h 0.996093 v 3.0820309 h -0.996093 c -0.152344,0 -0.410157,0 -0.410157,0.304688 0,0.304687 0.257813,0.304687 0.410157,0.304687 h 2.695312 c 0.152344,0 0.410156,0 0.410156,-0.304687 0,-0.304688 -0.257812,-0.304688 -0.410156,-0.304688 h -1.007812 V 8.2641641 h 1.21875 c 0.152343,0 0.398437,0 0.398437,-0.2929688 0,-0.3046875 -0.246094,-0.3046875 -0.398437,-0.3046875 h -1.21875 v -0.46875 c 0,-0.7851562 0.667968,-0.7851562 0.972656,-0.7851562 0,0.046875 0.08203,0.4335937 0.433594,0.4335937 0.199218,0 0.421875,-0.1640625 0.421875,-0.4335937 z m 0,0" style="fill:#000000;fill-opacity:1;fill-rule:nonzero;stroke:none" aria-label=";&#xA;f" transform="matrix(1.3333333,0,0,1.3333333,482.44533,60.805333)"/>
    <path id="path62" d="m 4.8410313,-3.8080234 c 0,-0.3398438 -0.3632813,-0.3398438 -0.5039063,-0.3398438 H 0.8918125 c -0.140625,0 -0.515625,0 -0.515625,0.3398438 0,0.3515625 0.328125,0.3515625 0.45703125,0.3515625 H 4.3957188 c 0.1171875,0 0.4453125,0 0.4453125,-0.3515625 z m 0,1.5117187 c 0,-0.3398437 -0.328125,-0.3398437 -0.4453125,-0.3398437 H 0.83321875 c -0.12890625,0 -0.45703125,0 -0.45703125,0.3398437 0,0.3515625 0.375,0.3515625 0.515625,0.3515625 H 4.337125 c 0.140625,0 0.5039063,0 0.5039063,-0.3515625 z m 0,0" style="fill:#000000;fill-opacity:1;fill-rule:nonzero;stroke:none" aria-label="=" transform="matrix(1.3333333,0,0,1.3333333,426.65467,76.745333)"/>
    <path id="path63" d="m 4.4064219,-0.30411719 c 0,-0.3046875 -0.2460938,-0.3046875 -0.3984375,-0.3046875 H 3.0939219 V -5.7884922 c 0,-0.1523437 0,-0.4101562 -0.2929688,-0.4101562 -0.1875,0 -0.2460937,0.1171875 -0.3046875,0.2460937 -0.375,0.84375 -0.890625,0.9492188 -1.078125,0.9726563 -0.1640625,0.011719 -0.375,0.035156 -0.375,0.3046875 0,0.2578125 0.1875,0.3046875 0.328125,0.3046875 0.1875,0 0.5976563,-0.058594 1.0429688,-0.4453125 v 4.20703121 H 1.5001719 c -0.1523438,0 -0.3984375,0 -0.3984375,0.3046875 0,0.3046875025 0.2578125,0.3046875025 0.3984375,0.3046875025 h 2.5078125 c 0.140625,0 0.3984375,0 0.3984375,-0.3046875025 z M 9.9523203,-3.0345859 c 0,-1.8515625 -1.0195312,-3.1640625 -2.109375,-3.1640625 -1.1132812,0 -2.109375,1.3359375 -2.109375,3.1523437 0,1.8515625 1.0078125,3.15234376 2.109375,3.15234376 1.1132813,0 2.109375,-1.33593746 2.109375,-3.14062496 z M 9.2609141,-3.1517734 c 0,1.4765625 -0.6445313,2.64843746 -1.4179688,2.64843746 -0.7851562,0 -1.4296875,-1.17187496 -1.4296875,-2.64843746 0,-1.453125 0.6914063,-2.4375 1.4296875,-2.4375 0.7265625,0 1.4179688,0.9726562 1.4179688,2.4375 z m 5.9238279,0.1171875 c 0,-1.8515625 -1.019531,-3.1640625 -2.109375,-3.1640625 -1.113281,0 -2.109375,1.3359375 -2.109375,3.1523437 0,1.8515625 1.007813,3.15234376 2.109375,3.15234376 1.113281,0 2.109375,-1.33593746 2.109375,-3.14062496 z m -0.691406,-0.1171875 c 0,1.4765625 -0.644531,2.64843746 -1.417969,2.64843746 -0.785156,0 -1.429687,-1.17187496 -1.429687,-2.64843746 0,-1.453125 0.691406,-2.4375 1.429687,-2.4375 0.726563,0 1.417969,0.9726562 1.417969,2.4375 z m 5.920898,0.1171875 c 0,-1.8515625 -1.019531,-3.1640625 -2.109375,-3.1640625 -1.113281,0 -2.109375,1.3359375 -2.109375,3.1523437 0,1.8515625 1.007813,3.15234376 2.109375,3.15234376 1.113282,0 2.109375,-1.33593746 2.109375,-3.14062496 z m -0.691406,-0.1171875 c 0,1.4765625 -0.644531,2.64843746 -1.417969,2.64843746 -0.785156,0 -1.429687,-1.17187496 -1.429687,-2.64843746 0,-1.453125 0.691406,-2.4375 1.429687,-2.4375 0.726563,0 1.417969,0.9726562 1.417969,2.4375 z m 0,0" style="fill:#666666;fill-opacity:1;fill-rule:nonzero;stroke:none" aria-label="1000" transform="matrix(1.3333333,0,0,1.3333333,440.60133,76.745333)"/>
    <path id="path64" d="m 3.2334453,-3.6673984 c 0,-0.3632813 -0.2929687,-0.6210938 -0.609375,-0.6210938 -0.3867187,0 -0.6328125,0.3046875 -0.6328125,0.609375 0,0.375 0.3046875,0.6328125 0.6210938,0.6328125 0.375,0 0.6210937,-0.3046875 0.6210937,-0.6210937 z m 0.058594,3.39843746 c 0,-0.65625 -0.3046875,-0.97265626 -0.6796875,-0.97265626 -0.3632813,0 -0.6210938,0.28125001 -0.6210938,0.60937501 0,0.28125 0.1640625,0.6328125025 0.65625,0.6328125025 C 2.5186016,0.53963281 2.1436016,0.72713281 1.9912578,0.80916406 c -0.058594,0.0234375 -0.1992187,0.09375 -0.1992187,0.25781254 0,0.1523437 0.1523437,0.3164062 0.3164062,0.3164062 0.2226563,0 1.1835938,-0.53906249 1.183594,-1.65234374 z M -37.49507,6.4107266 c 0,-0.5976563 -0.796875,-0.5976563 -0.949219,-0.5976563 -0.796875,0 -1.570313,0.4570313 -1.570313,1.3242188 v 0.5273437 h -0.996093 c -0.152344,0 -0.398438,0 -0.398438,0.3046875 0,0.2929688 0.246094,0.2929688 0.398438,0.2929688 h 0.996093 V 11.34432 h -0.996093 c -0.152344,0 -0.410157,0 -0.410157,0.304688 0,0.304687 0.257813,0.304687 0.410157,0.304687 h 2.695312 c 0.152344,0 0.410156,0 0.410156,-0.304687 0,-0.304688 -0.257812,-0.304688 -0.410156,-0.304688 h -1.007812 V 8.2622891 h 1.21875 c 0.152343,0 0.398437,0 0.398437,-0.2929688 0,-0.3046875 -0.246094,-0.3046875 -0.398437,-0.3046875 h -1.21875 v -0.46875 c 0,-0.7851562 0.667968,-0.7851562 0.972656,-0.7851562 0,0.046875 0.08203,0.4335937 0.433594,0.4335937 0.199218,0 0.421875,-0.1640625 0.421875,-0.4335937 z m 5.452148,4.3007814 c 0,-1.0429689 -1.277344,-1.2539064 -1.605469,-1.3007814 l -0.667968,-0.1171875 c -0.292969,-0.035156 -0.972657,-0.1640625 -0.972657,-0.5507813 0,-0.2578125 0.316407,-0.5625 1.265625,-0.5625 0.832032,0 0.960938,0.2929688 0.996094,0.5507813 0.01172,0.1757812 0.03516,0.3398437 0.339844,0.3398437 0.351562,0 0.351562,-0.2109375 0.351562,-0.4101562 V 7.9810391 c 0,-0.1640625 0,-0.4101563 -0.304687,-0.4101563 -0.234375,0 -0.28125,0.140625 -0.292969,0.2109375 -0.445312,-0.2109375 -0.878906,-0.2109375 -1.066406,-0.2109375 -1.664063,0 -1.898438,0.8203125 -1.898438,1.171875 0,0.9140625 1.042969,1.0898438 1.96875,1.2304688 0.480469,0.082031 1.277344,0.2109374 1.277344,0.7382814 0,0.363281 -0.363281,0.691406 -1.265625,0.691406 -0.46875,0 -1.03125,-0.105469 -1.277344,-0.878906 -0.05859,-0.1875 -0.09375,-0.292969 -0.351562,-0.292969 -0.351563,0 -0.351563,0.210938 -0.351563,0.410156 v 0.960938 c 0,0.164062 0,0.410156 0.304688,0.410156 0.08203,0 0.246094,-0.01172 0.363281,-0.375 0.492188,0.351563 1.019531,0.375 1.300781,0.375 1.570313,0 1.886719,-0.820312 1.886719,-1.300781 z m 0,0" style="fill:#000000;fill-opacity:1;fill-rule:nonzero;stroke:none" aria-label=";&#xA;fs" transform="matrix(1.3333333,0,0,1.3333333,468.49733,76.745333)"/>
    <path id="path65" d="m 4.8405234,-3.8098984 c 0,-0.3398438 -0.3632812,-0.3398438 -0.5039062,-0.3398438 H 0.89130469 c -0.140625,0 -0.515625,0 -0.515625,0.3398438 0,0.3515625 0.328125,0.3515625 0.45703125,0.3515625 H 4.3952109 c 0.1171875,0 0.4453125,0 0.4453125,-0.3515625 z m 0,1.5117187 c 0,-0.3398437 -0.328125,-0.3398437 -0.4453125,-0.3398437 H 0.83271094 c -0.12890625,0 -0.45703125,0 -0.45703125,0.3398437 0,0.3515625 0.375,0.3515625 0.515625,0.3515625 H 4.3366172 c 0.140625,0 0.5039062,0 0.5039062,-0.3515625 z m 0,0" style="fill:#000000;fill-opacity:1;fill-rule:nonzero;stroke:none" aria-label="=" transform="matrix(1.3333333,0,0,1.3333333,433.628,92.685333)"/>
    <path id="path66" d="m 4.7799141,-1.7356797 c 0,-0.75 -0.6445313,-1.3359375 -1.3828125,-1.546875 0.796875,-0.2695312 1.2421875,-0.75 1.2421875,-1.3242187 0,-0.8085938 -0.84375,-1.59375 -2.0273438,-1.59375 -1.1953125,0 -2.03906249,0.7851562 -2.03906249,1.59375 0,0.5742187 0.45703129,1.0664062 1.25390629,1.3242187 -0.75,0.2109375 -1.39453129,0.796875 -1.39453129,1.546875 0,0.97265626 0.92578129,1.83984376 2.17968749,1.83984376 1.2539063,0 2.1679688,-0.8671875 2.1679688,-1.83984376 z m -0.8320313,-2.859375 c 0,0.5742188 -0.609375,1.0078125 -1.3359375,1.0078125 -0.7265625,0 -1.3476562,-0.4453125 -1.3476562,-1.0078125 0,-0.515625 0.5625,-0.9960937 1.3476562,-0.9960937 0.7734375,0 1.3359375,0.4804687 1.3359375,0.9960937 z m 0.140625,2.8476563 c 0,0.6914062 -0.65625,1.24218746 -1.4765625,1.24218746 -0.8320312,0 -1.4882812,-0.55078126 -1.4882812,-1.24218746 0,-0.609375 0.5742187,-1.2304688 1.4882812,-1.2304688 0.9140625,0 1.4765625,0.6210938 1.4765625,1.2304688 z m 5.8652344,-1.2890625 c 0,-1.8515625 -1.0195313,-3.1640625 -2.109375,-3.1640625 -1.1132813,0 -2.109375,1.3359375 -2.109375,3.1523437 0,1.8515625 1.0078125,3.15234376 2.109375,3.15234376 1.1132812,0 2.109375,-1.33593746 2.109375,-3.14062496 z M 9.2623359,-3.1536484 c 0,1.4765625 -0.6445312,2.64843746 -1.4179687,2.64843746 -0.7851563,0 -1.4296875,-1.17187496 -1.4296875,-2.64843746 0,-1.453125 0.6914062,-2.4375 1.4296875,-2.4375 0.7265625,0 1.4179687,0.9726562 1.4179687,2.4375 z m 5.9208981,0.1171875 c 0,-1.8515625 -1.019531,-3.1640625 -2.109375,-3.1640625 -1.113281,0 -2.109375,1.3359375 -2.109375,3.1523437 0,1.8515625 1.007813,3.15234376 2.109375,3.15234376 1.113282,0 2.109375,-1.33593746 2.109375,-3.14062496 z m -0.691406,-0.1171875 c 0,1.4765625 -0.644531,2.64843746 -1.417969,2.64843746 -0.785156,0 -1.429687,-1.17187496 -1.429687,-2.64843746 0,-1.453125 0.691406,-2.4375 1.429687,-2.4375 0.726563,0 1.417969,0.9726562 1.417969,2.4375 z m 5.920899,0.1171875 c 0,-1.8515625 -1.019532,-3.1640625 -2.109375,-3.1640625 -1.113282,0 -2.109375,1.3359375 -2.109375,3.1523437 0,1.8515625 1.007812,3.15234376 2.109375,3.15234376 1.113281,0 2.109375,-1.33593746 2.109375,-3.14062496 z M 19.72132,-3.1536484 c 0,1.4765625 -0.644531,2.64843746 -1.417968,2.64843746 -0.785157,0 -1.429688,-1.17187496 -1.429688,-2.64843746 0,-1.453125 0.691406,-2.4375 1.429688,-2.4375 0.726562,0 1.417968,0.9726562 1.417968,2.4375 z m 0,0" style="fill:#666666;fill-opacity:1;fill-rule:nonzero;stroke:none" aria-label="8000" transform="matrix(1.3333333,0,0,1.3333333,447.576,92.685333)"/>
    <path id="path67" d="m 3.2329375,-3.6692734 c 0,-0.3632813 -0.2929688,-0.6210938 -0.609375,-0.6210938 -0.3867188,0 -0.6328125,0.3046875 -0.6328125,0.609375 0,0.375 0.3046875,0.6328125 0.6210937,0.6328125 0.375,0 0.6210938,-0.3046875 0.6210938,-0.6210937 z m 0.058594,3.39843746 c 0,-0.65625 -0.3046875,-0.97265626 -0.6796875,-0.97265626 -0.3632812,0 -0.6210937,0.28125001 -0.6210937,0.60937501 0,0.28125 0.1640625,0.6328125 0.65625,0.6328125 -0.1289063,0.5390625 -0.5039063,0.7265625 -0.65625,0.80859375 -0.058594,0.0234375 -0.1992188,0.09375 -0.1992188,0.25781254 0,0.1523437 0.1523438,0.3164062 0.3164063,0.3164062 0.2226562,0 1.1835937,-0.53906249 1.1835937,-1.65234374 z M -41.97507,11.650063 c 0,-0.304688 -0.246094,-0.304688 -0.410157,-0.304688 H -42.81882 V 9.0367813 c 0,-1.0078125 -0.503907,-1.4296875 -1.300782,-1.4296875 -0.65625,0 -1.113281,0.328125 -1.300781,0.5273437 0,-0.328125 0,-0.46875 -0.398437,-0.46875 h -0.726563 c -0.164062,0 -0.410156,0 -0.410156,0.3046875 0,0.2929688 0.257812,0.2929688 0.398437,0.2929688 h 0.445313 v 3.0820312 h -0.433594 c -0.164062,0 -0.410156,0 -0.410156,0.304688 0,0.304687 0.257812,0.304687 0.398437,0.304687 h 1.582032 c 0.140625,0 0.398437,0 0.398437,-0.304687 0,-0.304688 -0.246094,-0.304688 -0.398437,-0.304688 h -0.445313 V 9.5875625 c 0,-0.9960937 0.738281,-1.3828125 1.242188,-1.3828125 0.527343,0 0.667968,0.28125 0.667968,0.8789063 v 2.2617187 h -0.386718 c -0.152344,0 -0.410157,0 -0.410157,0.304688 0,0.304687 0.269532,0.304687 0.410157,0.304687 h 1.523437 c 0.140625,0 0.398438,0 0.398438,-0.304687 z m 0,0" style="fill:#000000;fill-opacity:1;fill-rule:nonzero;stroke:none" aria-label=";&#xA;n" transform="matrix(1.3333333,0,0,1.3333333,475.47067,92.685333)"/>
    <path id="path68" d="m 4.8410313,-3.8098437 c 0,-0.3398438 -0.3632813,-0.3398438 -0.5039063,-0.3398438 H 0.8918125 c -0.140625,0 -0.515625,0 -0.515625,0.3398438 0,0.3515625 0.328125,0.3515625 0.45703125,0.3515625 H 4.3957188 c 0.1171875,0 0.4453125,0 0.4453125,-0.3515625 z m 0,1.5117187 c 0,-0.3398437 -0.328125,-0.3398437 -0.4453125,-0.3398437 H 0.83321875 c -0.12890625,0 -0.45703125,0 -0.45703125,0.3398437 0,0.3515625 0.375,0.3515625 0.515625,0.3515625 H 4.337125 c 0.140625,0 0.5039063,0 0.5039063,-0.3515625 z m 0,0" style="fill:#000000;fill-opacity:1;fill-rule:nonzero;stroke:none" aria-label="=" transform="matrix(1.3333333,0,0,1.3333333,426.65467,108.62667)"/>
    <path id="path69" d="m 4.7228281,-3.0364062 c 0,-1.8515625 -1.0195312,-3.1640625 -2.109375,-3.1640625 -1.1132812,0 -2.10937498,1.3359375 -2.10937498,3.1523437 0,1.8515625 1.00781248,3.15234375 2.10937498,3.15234375 1.1132813,0 2.109375,-1.33593745 2.109375,-3.14062495 z M 4.0314219,-3.1535937 c 0,1.4765625 -0.6445313,2.64843745 -1.4179688,2.64843745 -0.7851562,0 -1.4296875,-1.17187495 -1.4296875,-2.64843745 0,-1.453125 0.6914063,-2.4375 1.4296875,-2.4375 0.7265625,0 1.4179688,0.9726562 1.4179688,2.4375 z m 0,0" style="fill:#666666;fill-opacity:1;fill-rule:nonzero;stroke:none" aria-label="0" transform="matrix(1.3333333,0,0,1.3333333,440.60133,108.62667)"/>
    <path id="path70" d="m 3.2354609,-3.6692187 c 0,-0.3632813 -0.2929687,-0.6210938 -0.609375,-0.6210938 -0.3867187,0 -0.6328125,0.3046875 -0.6328125,0.609375 0,0.375 0.3046875,0.6328125 0.6210938,0.6328125 0.375,0 0.6210937,-0.3046875 0.6210937,-0.6210937 z m 0,3.04687495 c 0,-0.36328125 -0.2929687,-0.62109375 -0.609375,-0.62109375 -0.3867187,0 -0.6328125,0.3046875 -0.6328125,0.609375 0,0.375 0.3046875,0.6328125 0.6210938,0.6328125 0.375,0 0.6210937,-0.3046875 0.6210937,-0.62109375 z m 0,0" style="fill:#000000;fill-opacity:1;fill-rule:nonzero;stroke:none" aria-label=":" transform="matrix(1.3333333,0,0,1.3333333,454.54933,108.62667)"/>
    <path id="path71" d="m 4.3467266,-5.5442187 c 0,-0.5976563 -0.796875,-0.5976563 -0.9492188,-0.5976563 -0.796875,0 -1.5703125,0.4570313 -1.5703125,1.3242188 v 0.5273437 H 0.83110156 c -0.15234375,0 -0.3984375,0 -0.3984375,0.3046875 0,0.2929688 0.24609375,0.2929688 0.3984375,0.2929688 H 1.8271953 V -0.610625 H 0.83110156 c -0.15234375,0 -0.41015625,0 -0.41015625,0.3046875 0,0.3046875 0.2578125,0.3046875 0.41015625,0.3046875 H 3.5264141 c 0.1523437,0 0.4101562,0 0.4101562,-0.3046875 0,-0.3046875 -0.2578125,-0.3046875 -0.4101562,-0.3046875 H 2.5186016 v -3.0820312 h 1.21875 c 0.1523437,0 0.3984375,0 0.3984375,-0.2929688 0,-0.3046875 -0.2460938,-0.3046875 -0.3984375,-0.3046875 h -1.21875 v -0.46875 c 0,-0.7851562 0.6679687,-0.7851562 0.9726562,-0.7851562 0,0.046875 0.082031,0.4335937 0.4335938,0.4335937 0.1992187,0 0.421875,-0.1640625 0.421875,-0.4335937 z m 5.4550781,4.3007812 c 0,-1.0429687 -1.2773438,-1.2539062 -1.6054688,-1.3007812 L 7.5283672,-2.6614062 c -0.2929688,-0.035156 -0.9726563,-0.1640625 -0.9726563,-0.5507813 0,-0.2578125 0.3164063,-0.5625 1.265625,-0.5625 0.8320313,0 0.9609375,0.2929688 0.9960938,0.5507813 0.011719,0.1757812 0.035156,0.3398437 0.3398437,0.3398437 0.3515625,0 0.3515625,-0.2109375 0.3515625,-0.4101562 v -0.6796875 c 0,-0.1640625 0,-0.4101563 -0.3046875,-0.4101563 -0.234375,0 -0.28125,0.140625 -0.2929687,0.2109375 -0.4453125,-0.2109375 -0.8789063,-0.2109375 -1.0664063,-0.2109375 -1.6640625,0 -1.8984375,0.8203125 -1.8984375,1.171875 0,0.9140625 1.0429688,1.0898438 1.96875,1.2304688 0.4804688,0.082031 1.2773438,0.2109375 1.2773438,0.7382812 0,0.36328125 -0.3632813,0.69140625 -1.265625,0.69140625 -0.46875,0 -1.03125,-0.10546875 -1.2773438,-0.87890625 -0.058594,-0.1875 -0.09375,-0.2929687 -0.3515625,-0.2929687 -0.3515625,0 -0.3515625,0.2109375 -0.3515625,0.4101562 v 0.9609375 c 0,0.1640625 0,0.41015625 0.3046875,0.41015625 0.082031,0 0.2460938,-0.01171875 0.3632813,-0.375 0.4921875,0.3515625 1.0195312,0.375 1.3007812,0.375 1.5703125,0 1.8867188,-0.8203125 1.8867188,-1.30078125 z m 0,0" style="fill:#000000;fill-opacity:1;fill-rule:nonzero;stroke:none" aria-label="fs" transform="matrix(1.3333333,0,0,1.3333333,468.49733,108.62667)"/>
    <path id="path72" d="m 4.5463516,-2.1340625 c 0,-0.1640625 -0.1289063,-0.2578125 -0.140625,-0.2695312 C 4.1479141,-2.5676562 3.4799453,-2.8957812 3.2221328,-3.0364062 l 1.0664063,-0.5859375 c 0.1289062,-0.070312 0.2578125,-0.140625 0.2578125,-0.328125 0,-0.046875 0,-0.3398438 -0.3984375,-0.3398438 L 2.9057266,-3.56375 c 0.023437,-0.2578125 0.035156,-0.9257812 0.035156,-1.2070312 0,-0.09375 0,-0.421875 -0.328125,-0.421875 -0.328125,0 -0.328125,0.328125 -0.328125,0.421875 0,0.28125 0.011719,0.9492187 0.023437,1.2070312 l -1.078125,-0.6328125 c -0.1289062,-0.09375 -0.1523437,-0.09375 -0.2226562,-0.09375 -0.19921879,0 -0.32812504,0.1875 -0.32812504,0.3398438 0,0.1875 0.10546875,0.2460937 0.234375,0.3164062 L 2.0033828,-3.048125 0.92525781,-2.4621875 c -0.1171875,0.070312 -0.24609375,0.1289063 -0.24609375,0.328125 0,0.035156 0,0.328125 0.39843754,0.328125 l 1.2304687,-0.7148437 c -0.011719,0.2578125 -0.023437,0.9140625 -0.023437,1.2070312 0,0.082031 0,0.41015625 0.328125,0.41015625 0.328125,0 0.328125,-0.32812495 0.328125,-0.41015625 0,-0.2929687 -0.011719,-0.9492187 -0.035156,-1.2070312 0.609375,0.3398437 0.2460937,0.140625 0.9375,0.5625 0.2695312,0.1523437 0.2929687,0.1523437 0.375,0.1523437 0.1992187,0 0.328125,-0.1757812 0.3281243,-0.328125 z m 0,0" style="fill:#666666;fill-opacity:1;fill-rule:nonzero;stroke:none" aria-label="*" transform="matrix(1.3333333,0,0,1.3333333,489.41867,108.62667)"/>
    <path id="path73" d="m 4.6527344,-0.3059375 c 0,-0.3046875 -0.234375,-0.3046875 -0.3984375,-0.3046875 H 2.9535156 v -5.0742187 c 0,-0.3046875 -0.058594,-0.3984375 -0.3984375,-0.3984375 H 0.98476563 c -0.15234375,0 -0.41015625,0 -0.41015625,0.3046875 0,0.2929687 0.2578125,0.2929687 0.3984375,0.2929687 H 2.2738281 v 4.875 H 0.98476563 c -0.15234375,0 -0.41015625,0 -0.41015625,0.3046875 0,0.3046875 0.2578125,0.3046875 0.3984375,0.3046875 H 4.2542969 c 0.1523437,0 0.3984375,0 0.3984375,-0.3046875 z m 5.1943359,-0.7851562 c 0,-0.2695313 -0.28125,-0.2695313 -0.3398437,-0.2695313 -0.1875,0 -0.2578125,0.023437 -0.328125,0.2109375 -0.2226563,0.515625 -0.7617188,0.59765625 -1.0429688,0.59765625 -0.75,0 -1.4882812,-0.49218745 -1.6523437,-1.34765625 h 2.9648437 c 0.2109375,0 0.3984375,0 0.3984375,-0.375 0,-1.1367187 -0.6328125,-2.109375 -1.921875,-2.109375 -1.1953125,0 -2.1445312,0.9960938 -2.1445312,2.2265625 0,1.20703125 1.0078125,2.21484375 2.2851562,2.21484375 1.3125,0 1.78125,-0.890625 1.78125,-1.14843745 z m -0.703125,-1.40625 H 6.4955078 c 0.140625,-0.7265625 0.7265625,-1.2773438 1.4296875,-1.2773438 0.515625,0 1.125,0.2460938 1.21875,1.2773438 z m 6.4130857,2.1914062 c 0,-0.3046875 -0.246093,-0.3046875 -0.410156,-0.3046875 h -0.433594 v -2.3085937 c 0,-1.0078125 -0.503906,-1.4296875 -1.300781,-1.4296875 -0.65625,0 -1.113281,0.328125 -1.300781,0.5273437 0,-0.328125 0,-0.46875 -0.398438,-0.46875 h -0.726562 c -0.164063,0 -0.410156,0 -0.410156,0.3046875 0,0.2929688 0.257812,0.2929688 0.398437,0.2929688 h 0.445313 v 3.0820312 h -0.433594 c -0.164063,0 -0.410156,0 -0.410156,0.3046875 0,0.3046875 0.257812,0.3046875 0.398437,0.3046875 h 1.582031 c 0.140625,0 0.398438,0 0.398438,-0.3046875 0,-0.3046875 -0.246094,-0.3046875 -0.398438,-0.3046875 h -0.445312 v -1.7578125 c 0,-0.9960937 0.738281,-1.3828125 1.242187,-1.3828125 0.527344,0 0.667969,0.28125 0.667969,0.8789063 v 2.2617187 h -0.386719 c -0.152343,0 -0.410156,0 -0.410156,0.3046875 0,0.3046875 0.269531,0.3046875 0.410156,0.3046875 h 1.523438 c 0.140625,0 0.398437,0 0.398437,-0.3046875 z m 5.208985,-3.5625 c 0,-0.2226562 -0.1875,-0.5390625 -0.726563,-0.5390625 -0.117187,0 -0.597656,0.011719 -1.054687,0.3515625 -0.164063,-0.1054687 -0.515625,-0.2929687 -0.972657,-0.2929687 -0.9375,0 -1.640625,0.7382812 -1.640625,1.59375 0,0.421875 0.164063,0.75 0.316407,0.9375 -0.105469,0.1640625 -0.199219,0.3867187 -0.199219,0.6796875 0,0.35156245 0.140625,0.5976562 0.234375,0.7148437 -0.738281,0.45703125 -0.738281,1.125 -0.738281,1.2421875 0,0.8554688 1.042968,1.4648438 2.320312,1.4648438 1.277344,0 2.320313,-0.6210938 2.320313,-1.4648438 0,-0.375 -0.1875,-0.8671875 -0.691407,-1.13671875 C 19.805078,-0.38796875 19.383203,-0.610625 18.492578,-0.610625 h -0.703125 c -0.07031,0 -0.199219,0 -0.28125,-0.0234375 -0.152344,0 -0.210937,0 -0.328125,-0.12890625 -0.117187,-0.140625 -0.128906,-0.36328125 -0.128906,-0.36328125 0,-0.035156 0.02344,-0.1757812 0.07031,-0.28125 0.02344,0.023437 0.398438,0.2460938 0.890625,0.2460938 0.914063,0 1.640625,-0.7148438 1.640625,-1.59375 0,-0.3046875 -0.08203,-0.5976563 -0.257812,-0.8671875 0.210937,-0.1289063 0.445312,-0.1640625 0.585937,-0.1757813 0.05859,0.2695313 0.28125,0.3398438 0.386719,0.3398438 0.164063,0 0.398438,-0.1171875 0.398438,-0.4101563 z m -1.792969,1.1132813 c 0,0.5625 -0.445313,0.9960937 -0.960938,0.9960937 -0.539062,0 -0.960937,-0.46875 -0.960937,-0.9960937 0,-0.5625 0.445312,-0.9960938 0.960937,-0.9960938 0.539063,0 0.960938,0.4570313 0.960938,0.9960938 z m 1.066406,3.5742187 c 0,0.4335938 -0.738281,0.8671875 -1.734375,0.8671875 -0.996094,0 -1.746094,-0.4335937 -1.746094,-0.8671875 0,-0.1875 0.09375,-0.50390625 0.410157,-0.703125 0.246093,-0.15234375 0.339843,-0.15234375 1.066406,-0.15234375 0.878906,0 2.003906,0 2.003906,0.85546875 z m 5.358399,-2.0742187 c 0,-0.1757813 0,-0.3867188 -0.351563,-0.3867188 -0.328125,0 -0.339844,0.2109375 -0.339844,0.375 -0.01172,0.62109375 -0.574218,0.71484375 -0.808593,0.71484375 -0.761719,0 -0.761719,-0.51562495 -0.761719,-0.76171875 v -2.3789062 h 1.628906 c 0.152344,0 0.398438,0 0.398438,-0.2929688 0,-0.3046875 -0.234375,-0.3046875 -0.398438,-0.3046875 H 23.136133 V -5.110625 c 0,-0.1875 0,-0.4101562 -0.339844,-0.4101562 -0.351562,0 -0.351562,0.2109375 -0.351562,0.4101562 v 0.8203125 h -0.867188 c -0.152344,0 -0.410156,0 -0.410156,0.3046875 0,0.2929688 0.257812,0.2929688 0.398437,0.2929688 h 0.878907 v 2.4375 c 0,0.9492187 0.679687,1.31249995 1.40625,1.31249995 0.738281,0 1.546875,-0.421875 1.546875,-1.31249995 z m 5.850586,0.9492187 c 0,-0.3046875 -0.246094,-0.3046875 -0.410157,-0.3046875 h -0.433593 v -2.3085937 c 0,-1.0078125 -0.503907,-1.4296875 -1.300782,-1.4296875 -0.65625,0 -1.113281,0.328125 -1.300781,0.5273437 v -1.8632812 c 0,-0.3046875 -0.05859,-0.3984375 -0.398437,-0.3984375 h -0.726563 c -0.164062,0 -0.410156,0 -0.410156,0.3046875 0,0.2929687 0.257812,0.2929687 0.398437,0.2929687 h 0.445313 v 4.875 h -0.433594 c -0.164062,0 -0.410156,0 -0.410156,0.3046875 0,0.3046875 0.257812,0.3046875 0.398437,0.3046875 h 1.582032 c 0.140625,0 0.398437,0 0.398437,-0.3046875 0,-0.3046875 -0.246094,-0.3046875 -0.398437,-0.3046875 h -0.445313 v -1.7578125 c 0,-0.9960937 0.738281,-1.3828125 1.242188,-1.3828125 0.527343,0 0.667968,0.28125 0.667968,0.8789063 v 2.2617187 h -0.386718 c -0.152344,0 -0.410157,0 -0.410157,0.3046875 0,0.3046875 0.269532,0.3046875 0.410157,0.3046875 H 30.85 c 0.140625,0 0.398438,0 0.398438,-0.3046875 z m 0,0" style="fill:#008000;fill-opacity:1;fill-rule:nonzero;stroke:none" aria-label="length" transform="matrix(1.3333333,0,0,1.3333333,503.36667,108.62667)"/>
    <path id="path74" d="m 3.2355781,-3.6692187 c 0,-0.3632813 -0.2929687,-0.6210938 -0.609375,-0.6210938 -0.3867187,0 -0.6328125,0.3046875 -0.6328125,0.609375 0,0.375 0.3046875,0.6328125 0.6210938,0.6328125 0.375,0 0.6210937,-0.3046875 0.6210937,-0.6210937 z m 0.058594,3.39843745 c 0,-0.65625 -0.3046875,-0.97265625 -0.6796875,-0.97265625 -0.3632813,0 -0.6210938,0.28125 -0.6210938,0.609375 0,0.28125 0.1640625,0.6328125 0.65625,0.6328125 -0.1289062,0.5390625 -0.5039062,0.7265625 -0.65625,0.80859375 -0.058594,0.0234375 -0.1992187,0.09375 -0.1992187,0.25781255 0,0.1523437 0.1523437,0.3164062 0.3164062,0.3164062 0.2226563,0 1.1835938,-0.5390625 1.1835938,-1.65234375 z M -95.02907,6.4118359 c 0,-0.5976562 -0.796875,-0.5976562 -0.949219,-0.5976562 -0.796875,0 -1.570313,0.4570312 -1.570313,1.3242187 v 0.5273438 h -0.996093 c -0.152344,0 -0.398438,0 -0.398438,0.3046875 0,0.2929687 0.246094,0.2929687 0.398438,0.2929687 h 0.996093 V 11.34543 h -0.996093 c -0.152344,0 -0.410157,0 -0.410157,0.304687 0,0.304688 0.257813,0.304688 0.410157,0.304688 h 2.695312 c 0.152344,0 0.410156,0 0.410156,-0.304688 0,-0.304687 -0.257812,-0.304687 -0.410156,-0.304687 h -1.007812 V 8.2633984 h 1.21875 c 0.152343,0 0.398437,0 0.398437,-0.2929687 0,-0.3046875 -0.246094,-0.3046875 -0.398437,-0.3046875 h -1.21875 v -0.46875 c 0,-0.7851563 0.667968,-0.7851563 0.972656,-0.7851563 0,0.046875 0.08203,0.4335938 0.433594,0.4335938 0.199218,0 0.421875,-0.1640625 0.421875,-0.4335938 z m 5.358398,4.2890621 c 0,-0.175781 0,-0.386718 -0.351562,-0.386718 -0.328125,0 -0.339844,0.210937 -0.339844,0.375 -0.01172,0.621093 -0.574219,0.714843 -0.808594,0.714843 -0.761719,0 -0.761719,-0.515625 -0.761719,-0.761718 V 8.2633984 h 1.628907 c 0.152343,0 0.398437,0 0.398437,-0.2929687 0,-0.3046875 -0.234375,-0.3046875 -0.398437,-0.3046875 h -1.628907 V 6.8454297 c 0,-0.1875 0,-0.4101563 -0.339843,-0.4101563 -0.351563,0 -0.351563,0.2109375 -0.351563,0.4101563 v 0.8203125 h -0.867187 c -0.152344,0 -0.410157,0 -0.410157,0.3046875 0,0.2929687 0.257813,0.2929687 0.398438,0.2929687 h 0.878906 v 2.4374996 c 0,0.949219 0.679688,1.3125 1.40625,1.3125 0.738281,0 1.546875,-0.421875 1.546875,-1.3125 z m 0,0" style="fill:#000000;fill-opacity:1;fill-rule:nonzero;stroke:none" aria-label=";&#xA;ft" transform="matrix(1.3333333,0,0,1.3333333,545.20933,108.62667)"/>
    <path id="path75" d="m 4.8405234,-3.8087891 c 0,-0.3398437 -0.3632812,-0.3398437 -0.5039062,-0.3398437 H 0.89130469 c -0.140625,0 -0.515625,0 -0.515625,0.3398437 0,0.3515625 0.328125,0.3515625 0.45703125,0.3515625 H 4.3952109 c 0.1171875,0 0.4453125,0 0.4453125,-0.3515625 z m 0,1.5117188 c 0,-0.3398438 -0.328125,-0.3398438 -0.4453125,-0.3398438 H 0.83271094 c -0.12890625,0 -0.45703125,0 -0.45703125,0.3398438 0,0.3515625 0.375,0.3515625 0.515625,0.3515625 H 4.3366172 c 0.140625,0 0.5039062,0 0.5039062,-0.3515625 z m 0,0" style="fill:#000000;fill-opacity:1;fill-rule:nonzero;stroke:none" aria-label="=" transform="matrix(1.3333333,0,0,1.3333333,433.628,124.56667)"/>
    <path id="path76" d="m 4.5689766,-1.2423828 c 0,-1.0429688 -1.2773438,-1.2539063 -1.6054688,-1.3007813 L 2.2955391,-2.6603516 c -0.2929688,-0.035156 -0.9726563,-0.1640625 -0.9726563,-0.5507812 0,-0.2578125 0.3164063,-0.5625 1.265625,-0.5625 0.8320313,0 0.9609375,0.2929687 0.9960938,0.5507812 0.011719,0.1757813 0.035156,0.3398438 0.3398437,0.3398438 0.3515625,0 0.3515625,-0.2109375 0.3515625,-0.4101563 v -0.6796875 c 0,-0.1640625 0,-0.4101562 -0.3046875,-0.4101562 -0.234375,0 -0.28125,0.140625 -0.2929687,0.2109375 -0.4453125,-0.2109375 -0.8789063,-0.2109375 -1.0664063,-0.2109375 -1.66406249,0 -1.89843749,0.8203125 -1.89843749,1.171875 0,0.9140625 1.04296879,1.0898437 1.96874999,1.2304687 0.4804688,0.082031 1.2773438,0.2109375 1.2773438,0.7382813 0,0.36328124 -0.3632813,0.69140624 -1.265625,0.69140624 -0.46875,0 -1.03125,-0.10546875 -1.2773438,-0.87890624 -0.058594,-0.1875 -0.09375,-0.2929688 -0.3515625,-0.2929688 -0.35156249,0 -0.35156249,0.2109375 -0.35156249,0.4101563 v 0.96093749 c 0,0.1640625 0,0.41015625 0.30468749,0.41015625 0.082031,0 0.2460938,-0.01171875 0.3632813,-0.375 0.4921875,0.3515625 1.0195312,0.375 1.3007812,0.375 1.5703125,0 1.8867188,-0.8203125 1.8867188,-1.30078124 z m 5.1972656,0.93749999 c 0,-0.3046875 -0.2578125,-0.3046875 -0.4101563,-0.3046875 H 8.3131172 V -3.8908203 c 0,-0.3046875 -0.058594,-0.3984375 -0.3984375,-0.3984375 H 6.4967109 c -0.1523437,0 -0.4101562,0 -0.4101562,0.2929687 0,0.3046875 0.2578125,0.3046875 0.4101562,0.3046875 h 1.125 v 3.08203129 H 6.4146797 c -0.1523438,0 -0.4101563,0 -0.4101563,0.3046875 0,0.3046874975 0.2578125,0.3046874975 0.4101563,0.3046874975 h 2.9414062 c 0.1523438,0 0.4101563,0 0.4101563,-0.3046874975 z M 8.3482734,-5.5314453 c 0,-0.28125 -0.2226562,-0.4921875 -0.4921875,-0.4921875 -0.28125,0 -0.5039062,0.2109375 -0.5039062,0.4921875 0,0.28125 0.2226562,0.5039062 0.5039062,0.5039062 0.2695313,0 0.4921875,-0.2226562 0.4921875,-0.5039062 z m 7.2099606,5.22656249 c 0,-0.3046875 -0.246093,-0.3046875 -0.410156,-0.3046875 H 14.714484 V -2.9181641 c 0,-1.0078125 -0.503906,-1.4296875 -1.300781,-1.4296875 -0.65625,0 -1.113281,0.328125 -1.300781,0.5273438 0,-0.328125 0,-0.46875 -0.398438,-0.46875 h -0.726562 c -0.164063,0 -0.410156,0 -0.410156,0.3046875 0,0.2929687 0.257812,0.2929687 0.398437,0.2929687 h 0.445313 v 3.08203129 h -0.433594 c -0.164063,0 -0.410156,0 -0.410156,0.3046875 0,0.3046874975 0.257812,0.3046874975 0.398437,0.3046874975 h 1.582031 c 0.140625,0 0.398438,0 0.398438,-0.3046874975 0,-0.3046875 -0.246094,-0.3046875 -0.398438,-0.3046875 H 12.112922 V -2.3673828 c 0,-0.9960938 0.738281,-1.3828125 1.242187,-1.3828125 0.527344,0 0.667969,0.28125 0.667969,0.8789062 v 2.26171879 h -0.386719 c -0.152343,0 -0.410156,0 -0.410156,0.3046875 0,0.3046874975 0.269531,0.3046874975 0.410156,0.3046874975 h 1.523438 c 0.140625,0 0.398437,0 0.398437,-0.3046874975 z m 0,0" style="fill:#008000;fill-opacity:1;fill-rule:nonzero;stroke:none" aria-label="sin" transform="matrix(1.3333333,0,0,1.3333333,447.576,124.56667)"/>
    <path id="path77" d="m 4.3467266,0.53886719 c 0,-0.15234375 -0.058594,-0.1875 -0.2460938,-0.3046875 -1.2304687,-0.84375 -1.6875,-2.16796879 -1.6875,-3.28124999 0,-0.9960938 0.375,-2.3789063 1.7109375,-3.2929688 0.1640625,-0.1054687 0.2226563,-0.140625 0.2226563,-0.2929687 0,-0.082031 -0.046875,-0.28125 -0.3046875,-0.28125 -0.2929688,0 -2.3203125,1.3125 -2.3203125,3.8671875 0,1.1835937 0.4570312,2.08593749 0.8085937,2.57812499 0.5273438,0.7265625 1.2773438,1.2890625 1.5117188,1.2890625 0.2578125,0 0.3046875,-0.19921875 0.3046875,-0.28125 z m 0,0" style="fill:#000000;fill-opacity:1;fill-rule:nonzero;stroke:none" aria-label="(" transform="matrix(1.3333333,0,0,1.3333333,468.49733,124.56667)"/>
    <path id="path78" d="m 4.6977812,-0.41035156 v -0.2578125 c 0,-0.1875 0,-0.41015624 -0.3398437,-0.41015624 -0.3398438,0 -0.3398438,0.18749999 -0.3398438,0.46874999 H 1.6391875 C 2.225125,-1.1134766 3.1860625,-1.8634766 3.6196562,-2.2619141 c 0.6210938,-0.5625 1.078125,-1.1953125 1.078125,-1.9921875 0,-1.1953125 -1.0078125,-1.9453125 -2.2148437,-1.9453125 -1.1835938,0 -1.96875,0.8203125 -1.96875,1.6640625 0,0.375 0.28125,0.4804688 0.4453125,0.4804688 0.2109375,0 0.4453125,-0.1640625 0.4453125,-0.4453125 0,-0.1171875 -0.046875,-0.2460938 -0.140625,-0.3164063 0.1523437,-0.46875 0.6210937,-0.7734375 1.1601562,-0.7734375 0.8203125,0 1.59375,0.4570313 1.59375,1.3359375 0,0.703125 -0.4921875,1.2773438 -1.1484375,1.828125 l -2.20312495,1.85156254 c -0.09375,0.0703125 -0.15234375,0.12890625 -0.15234375,0.26953125 0,0.3046874975 0.24609375,0.3046874975 0.41015625,0.3046874975 H 4.2993437 c 0.328125,0 0.3984375,-0.0937499975 0.3984375,-0.4101562475 z m 0,0" style="fill:#666666;fill-opacity:1;fill-rule:nonzero;stroke:none" aria-label="2" transform="matrix(1.3333333,0,0,1.3333333,475.47067,124.56667)"/>
    <path id="path79" d="m 4.5463516,-2.1330078 c 0,-0.1640625 -0.1289063,-0.2578125 -0.140625,-0.2695313 C 4.1479141,-2.5666016 3.4799453,-2.8947266 3.2221328,-3.0353516 l 1.0664063,-0.5859375 c 0.1289062,-0.070312 0.2578125,-0.140625 0.2578125,-0.328125 0,-0.046875 0,-0.3398437 -0.3984375,-0.3398437 l -1.2421875,0.7265625 c 0.023437,-0.2578125 0.035156,-0.9257813 0.035156,-1.2070313 0,-0.09375 0,-0.421875 -0.328125,-0.421875 -0.328125,0 -0.328125,0.328125 -0.328125,0.421875 0,0.28125 0.011719,0.9492188 0.023437,1.2070313 l -1.078125,-0.6328125 c -0.1289062,-0.09375 -0.1523437,-0.09375 -0.2226562,-0.09375 -0.19921879,0 -0.32812504,0.1875 -0.32812504,0.3398437 0,0.1875 0.10546875,0.2460938 0.234375,0.3164063 l 1.08984374,0.5859375 -1.07812499,0.5859375 c -0.1171875,0.070312 -0.24609375,0.1289062 -0.24609375,0.328125 0,0.035156 0,0.328125 0.39843754,0.328125 l 1.2304687,-0.7148438 c -0.011719,0.2578125 -0.023437,0.9140625 -0.023437,1.2070313 0,0.082031 0,0.41015624 0.328125,0.41015624 0.328125,0 0.328125,-0.32812504 0.328125,-0.41015624 0,-0.2929688 -0.011719,-0.9492188 -0.035156,-1.2070313 0.609375,0.3398438 0.2460937,0.140625 0.9375,0.5625 0.2695312,0.1523438 0.2929687,0.1523438 0.375,0.1523438 0.1992187,0 0.328125,-0.1757813 0.328125,-0.328125 z m 0,0" style="fill:#666666;fill-opacity:1;fill-rule:nonzero;stroke:none" aria-label="*" transform="matrix(1.3333333,0,0,1.3333333,489.41867,124.56667)"/>
    <path id="path80" d="m 4.8636719,-2.1564453 c 0,-1.21875 -0.890625,-2.1914063 -1.9453125,-2.1914063 -0.4804688,0 -0.9257813,0.1757813 -1.265625,0.4804688 0,-0.28125 -0.023437,-0.421875 -0.3984375,-0.421875 H 0.52773438 c -0.1640625,0 -0.41015625,0 -0.41015625,0.3046875 0,0.2929687 0.2578125,0.2929687 0.3984375,0.2929687 h 0.4453125 v 5.296875 H 0.52773438 c -0.1640625,0 -0.41015625,0 -0.41015625,0.3046875 0,0.3046875 0.2578125,0.3046875 0.3984375,0.3046875 H 2.0980469 c 0.140625,0 0.3984375,0 0.3984375,-0.3046875 0,-0.3046875 -0.2460938,-0.3046875 -0.3984375,-0.3046875 H 1.6527344 v -2.05078121 c 0.4101562,0.41015625 0.84375,0.50390625 1.1601562,0.50390625 1.078125,0 2.0507813,-0.94921875 2.0507813,-2.21484374 z m -0.6914063,0 c 0,0.9609375 -0.6914062,1.60546874 -1.3945312,1.60546874 -0.7734375,0 -1.125,-0.87890624 -1.125,-1.34765624 v -0.7265625 c 0,-0.5976563 0.5742187,-1.125 1.2070312,-1.125 0.7382813,0 1.3125,0.7265625 1.3125,1.59375 z m 5.5927735,1.85156249 c 0,-0.3046875 -0.2578125,-0.3046875 -0.4101563,-0.3046875 H 8.3119141 V -3.8908203 c 0,-0.3046875 -0.058594,-0.3984375 -0.3984375,-0.3984375 H 6.4955078 c -0.1523437,0 -0.4101562,0 -0.4101562,0.2929687 0,0.3046875 0.2578125,0.3046875 0.4101562,0.3046875 h 1.125 v 3.08203129 H 6.4134766 c -0.1523438,0 -0.4101563,0 -0.4101563,0.3046875 0,0.3046874975 0.2578125,0.3046874975 0.4101563,0.3046874975 h 2.9414062 c 0.1523438,0 0.4101563,0 0.4101563,-0.3046874975 z M 8.3470703,-5.5314453 c 0,-0.28125 -0.2226562,-0.4921875 -0.4921875,-0.4921875 -0.28125,0 -0.5039062,0.2109375 -0.5039062,0.4921875 0,0.28125 0.2226562,0.5039062 0.5039062,0.5039062 0.2695313,0 0.4921875,-0.2226562 0.4921875,-0.5039062 z m 0,0" style="fill:#008000;fill-opacity:1;fill-rule:nonzero;stroke:none" aria-label="pi" transform="matrix(1.3333333,0,0,1.3333333,503.36667,124.56667)"/>
    <path id="path81" d="m 4.5476719,-2.1330078 c 0,-0.1640625 -0.1289063,-0.2578125 -0.140625,-0.2695313 C 4.1492344,-2.5666016 3.4812656,-2.8947266 3.2234531,-3.0353516 l 1.0664063,-0.5859375 c 0.1289062,-0.070312 0.2578125,-0.140625 0.2578125,-0.328125 0,-0.046875 0,-0.3398437 -0.3984375,-0.3398437 l -1.2421875,0.7265625 c 0.023437,-0.2578125 0.035156,-0.9257813 0.035156,-1.2070313 0,-0.09375 0,-0.421875 -0.328125,-0.421875 -0.328125,0 -0.328125,0.328125 -0.328125,0.421875 0,0.28125 0.011719,0.9492188 0.023437,1.2070313 l -1.078125,-0.6328125 c -0.1289062,-0.09375 -0.1523437,-0.09375 -0.2226562,-0.09375 -0.19921878,0 -0.32812503,0.1875 -0.32812503,0.3398437 0,0.1875 0.10546875,0.2460938 0.234375,0.3164063 l 1.08984373,0.5859375 -1.07812498,0.5859375 c -0.1171875,0.070312 -0.24609375,0.1289062 -0.24609375,0.328125 0,0.035156 0,0.328125 0.39843753,0.328125 l 1.2304687,-0.7148438 c -0.011719,0.2578125 -0.023437,0.9140625 -0.023437,1.2070313 0,0.082031 0,0.41015624 0.328125,0.41015624 0.328125,0 0.328125,-0.32812504 0.328125,-0.41015624 0,-0.2929688 -0.011719,-0.9492188 -0.035156,-1.2070313 0.609375,0.3398438 0.2460937,0.140625 0.9375,0.5625 0.2695312,0.1523438 0.2929687,0.1523438 0.375,0.1523438 0.1992187,0 0.328125,-0.1757813 0.328125,-0.328125 z m 0,0" style="fill:#666666;fill-opacity:1;fill-rule:nonzero;stroke:none" aria-label="*" transform="matrix(1.3333333,0,0,1.3333333,524.288,124.56667)"/>
    <path id="path82" d="m 4.3464375,-5.5431641 c 0,-0.5976562 -0.796875,-0.5976562 -0.9492188,-0.5976562 -0.796875,0 -1.5703125,0.4570312 -1.5703125,1.3242187 v 0.5273438 H 0.8308125 c -0.15234375,0 -0.3984375,0 -0.3984375,0.3046875 0,0.2929687 0.24609375,0.2929687 0.3984375,0.2929687 h 0.9960937 v 3.08203129 H 0.8308125 c -0.15234375,0 -0.41015625,0 -0.41015625,0.3046875 0,0.3046874975 0.2578125,0.3046874975 0.41015625,0.3046874975 H 3.526125 c 0.1523437,0 0.4101562,0 0.4101562,-0.3046874975 0,-0.3046875 -0.2578125,-0.3046875 -0.4101562,-0.3046875 H 2.5183125 V -3.6916016 h 1.21875 c 0.1523437,0 0.3984375,0 0.3984375,-0.2929687 0,-0.3046875 -0.2460938,-0.3046875 -0.3984375,-0.3046875 h -1.21875 v -0.46875 c 0,-0.7851563 0.6679687,-0.7851563 0.9726562,-0.7851563 0,0.046875 0.082031,0.4335938 0.4335938,0.4335938 0.1992187,0 0.421875,-0.1640625 0.421875,-0.4335938 z m 0,0" style="fill:#000000;fill-opacity:1;fill-rule:nonzero;stroke:none" aria-label="f" transform="matrix(1.3333333,0,0,1.3333333,538.236,124.56667)"/>
    <path id="path83" d="m 4.6403203,-6.5626953 c 0,-0.1757813 -0.1523437,-0.3515625 -0.3515625,-0.3515625 -0.2109375,0 -0.28125,0.1523437 -0.3398437,0.28125 L 0.65594531,0.23417969 c -0.0703125,0.1640625 -0.0820313,0.1640625 -0.0820313,0.24609375 0,0.17578125 0.15234375,0.3515625 0.3515625,0.3515625 0.22265619,0 0.29296869,-0.15234375 0.35156249,-0.28125 l 3.28125,-6.87890624 c 0.070312,-0.1523438 0.082031,-0.1523438 0.082031,-0.234375 z m 0,0" style="fill:#666666;fill-opacity:1;fill-rule:nonzero;stroke:none" aria-label="/" transform="matrix(1.3333333,0,0,1.3333333,552.184,124.56667)"/>
    <path id="path84" d="m 4.3463359,-5.5431641 c 0,-0.5976562 -0.796875,-0.5976562 -0.9492187,-0.5976562 -0.796875,0 -1.5703125,0.4570312 -1.5703125,1.3242187 v 0.5273438 H 0.83071094 c -0.15234375,0 -0.3984375,0 -0.3984375,0.3046875 0,0.2929687 0.24609375,0.2929687 0.3984375,0.2929687 H 1.8268047 v 3.08203129 H 0.83071094 c -0.15234375,0 -0.41015625,0 -0.41015625,0.3046875 0,0.3046874975 0.2578125,0.3046874975 0.41015625,0.3046874975 H 3.5260234 c 0.1523438,0 0.4101563,0 0.4101563,-0.3046874975 0,-0.3046875 -0.2578125,-0.3046875 -0.4101563,-0.3046875 H 2.5182109 V -3.6916016 h 1.21875 c 0.1523438,0 0.3984375,0 0.3984375,-0.2929687 0,-0.3046875 -0.2460937,-0.3046875 -0.3984375,-0.3046875 h -1.21875 v -0.46875 c 0,-0.7851563 0.6679688,-0.7851563 0.9726563,-0.7851563 0,0.046875 0.082031,0.4335938 0.4335937,0.4335938 0.1992188,0 0.421875,-0.1640625 0.421875,-0.4335938 z m 5.4550782,4.3007813 c 0,-1.0429688 -1.2773438,-1.2539063 -1.6054688,-1.3007813 L 7.5279766,-2.6603516 c -0.2929688,-0.035156 -0.9726563,-0.1640625 -0.9726563,-0.5507812 0,-0.2578125 0.3164063,-0.5625 1.265625,-0.5625 0.8320313,0 0.9609375,0.2929687 0.9960938,0.5507812 0.011719,0.1757813 0.035156,0.3398438 0.3398437,0.3398438 0.3515625,0 0.3515625,-0.2109375 0.3515625,-0.4101563 v -0.6796875 c 0,-0.1640625 0,-0.4101562 -0.3046875,-0.4101562 -0.234375,0 -0.28125,0.140625 -0.2929687,0.2109375 -0.4453125,-0.2109375 -0.8789063,-0.2109375 -1.0664063,-0.2109375 -1.6640625,0 -1.8984375,0.8203125 -1.8984375,1.171875 0,0.9140625 1.0429688,1.0898437 1.96875,1.2304687 0.4804688,0.082031 1.2773438,0.2109375 1.2773438,0.7382813 0,0.36328124 -0.3632813,0.69140624 -1.265625,0.69140624 -0.46875,0 -1.03125,-0.10546875 -1.2773438,-0.87890624 -0.058594,-0.1875 -0.09375,-0.2929688 -0.3515625,-0.2929688 -0.3515625,0 -0.3515625,0.2109375 -0.3515625,0.4101563 v 0.96093749 c 0,0.1640625 0,0.41015625 0.3046875,0.41015625 0.082031,0 0.2460938,-0.01171875 0.3632813,-0.375 0.4921875,0.3515625 1.0195312,0.375 1.3007812,0.375 1.5703125,0 1.8867188,-0.8203125 1.8867188,-1.30078124 z m 0,0" style="fill:#000000;fill-opacity:1;fill-rule:nonzero;stroke:none" aria-label="fs" transform="matrix(1.3333333,0,0,1.3333333,566.13067,124.56667)"/>
    <path id="path85" d="m 4.5459609,-2.1330078 c 0,-0.1640625 -0.1289062,-0.2578125 -0.140625,-0.2695313 C 4.1475234,-2.5666016 3.4795547,-2.8947266 3.2217422,-3.0353516 l 1.0664062,-0.5859375 c 0.1289063,-0.070312 0.2578125,-0.140625 0.2578125,-0.328125 0,-0.046875 0,-0.3398437 -0.3984375,-0.3398437 l -1.2421875,0.7265625 c 0.023437,-0.2578125 0.035156,-0.9257813 0.035156,-1.2070313 0,-0.09375 0,-0.421875 -0.328125,-0.421875 -0.328125,0 -0.328125,0.328125 -0.328125,0.421875 0,0.28125 0.011719,0.9492188 0.023437,1.2070313 l -1.078125,-0.6328125 c -0.1289063,-0.09375 -0.1523438,-0.09375 -0.2226563,-0.09375 -0.19921871,0 -0.32812496,0.1875 -0.32812496,0.3398437 0,0.1875 0.10546875,0.2460938 0.234375,0.3164063 l 1.08984376,0.5859375 -1.07812501,0.5859375 c -0.1171875,0.070312 -0.24609375,0.1289062 -0.24609375,0.328125 0,0.035156 0,0.328125 0.39843746,0.328125 l 1.2304688,-0.7148438 c -0.011719,0.2578125 -0.023437,0.9140625 -0.023437,1.2070313 0,0.082031 0,0.41015624 0.328125,0.41015624 0.328125,0 0.328125,-0.32812504 0.328125,-0.41015624 0,-0.2929688 -0.011719,-0.9492188 -0.035156,-1.2070313 0.609375,0.3398438 0.2460938,0.140625 0.9375,0.5625 0.2695313,0.1523438 0.2929688,0.1523438 0.375,0.1523438 0.1992188,0 0.328125,-0.1757813 0.328125,-0.328125 z m 0,0" style="fill:#666666;fill-opacity:1;fill-rule:nonzero;stroke:none" aria-label="*" transform="matrix(1.3333333,0,0,1.3333333,587.052,124.56667)"/>
    <path id="path86" d="m 5.0976562,-0.30488281 c 0,-0.3046875 -0.2460937,-0.3046875 -0.4101562,-0.3046875 H 4.2539062 V -2.9181641 c 0,-1.0078125 -0.5039062,-1.4296875 -1.3007812,-1.4296875 -0.65625,0 -1.1132813,0.328125 -1.3007813,0.5273438 0,-0.328125 0,-0.46875 -0.3984375,-0.46875 H 0.52734375 c -0.1640625,0 -0.41015625,0 -0.41015625,0.3046875 0,0.2929687 0.2578125,0.2929687 0.3984375,0.2929687 h 0.4453125 v 3.08203129 H 0.52734375 c -0.1640625,0 -0.41015625,0 -0.41015625,0.3046875 0,0.3046874975 0.2578125,0.3046874975 0.3984375,0.3046874975 h 1.5820313 c 0.140625,0 0.3984375,0 0.3984375,-0.3046874975 0,-0.3046875 -0.2460938,-0.3046875 -0.3984375,-0.3046875 H 1.6523437 V -2.3673828 c 0,-0.9960938 0.7382813,-1.3828125 1.2421876,-1.3828125 0.5273437,0 0.6679687,0.28125 0.6679687,0.8789062 v 2.26171879 H 3.1757813 c -0.1523438,0 -0.4101563,0 -0.4101563,0.3046875 0,0.3046874975 0.2695313,0.3046874975 0.4101563,0.3046874975 h 1.5234374 c 0.140625,0 0.3984375,0 0.3984375,-0.3046874975 z M 8.7333984,-3.0470703 c 0,-1.1835938 -0.4570312,-2.0859375 -0.8085937,-2.578125 -0.5273438,-0.7265625 -1.265625,-1.2890625 -1.5117188,-1.2890625 -0.2460937,0 -0.3046875,0.1992187 -0.3046875,0.28125 0,0.1523437 0.1054688,0.2226562 0.1523438,0.2460937 1.640625,1.0898438 1.7929687,2.6953125 1.7929687,3.3398438 0,0.9960937 -0.375,2.37890624 -1.7226562,3.28124999 -0.140625,0.10546875 -0.2226563,0.15234375 -0.2226563,0.3046875 0,0.0820313 0.058594,0.28125 0.3046875,0.28125 0.2929688,0 2.3203125,-1.32421875 2.3203125,-3.86718749 z m 4.9628906,-0.6210938 c 0,-0.3632812 -0.292969,-0.6210937 -0.609375,-0.6210937 -0.386719,0 -0.632812,0.3046875 -0.632812,0.609375 0,0.375 0.304687,0.6328125 0.621093,0.6328125 0.375,0 0.621094,-0.3046875 0.621094,-0.6210938 z m 0.05859,3.39843754 c 0,-0.65625 -0.304688,-0.97265624 -0.679688,-0.97265624 -0.363281,0 -0.621093,0.28124999 -0.621093,0.60937499 0,0.28125 0.164062,0.6328124975 0.65625,0.6328124975 C 12.981445,0.53886719 12.606445,0.72636719 12.454102,0.80839844 c -0.05859,0.0234375 -0.199219,0.09375 -0.199219,0.25781246 0,0.1523438 0.152344,0.3164063 0.316406,0.3164063 0.222656,0 1.183594,-0.53906251 1.183594,-1.65234376 z m 0,0" style="fill:#000000;fill-opacity:1;fill-rule:nonzero;stroke:none" aria-label="n);" transform="matrix(1.3333333,0,0,1.3333333,601,124.56667)"/>
  </g>
</svg>