<?xml version="1.0" encoding="UTF-8" standalone="no"?>
<!-- Created with Inkscape (http://www.inkscape.org/) -->
<svg version="1.1" id="svg1" width="358.69333" height="181.52" viewBox="0 0 358.69333 181.52" sodipodi:docname="23-24-1-信号与系统-题图2-3.pdf" xmlns:inkscape="http://www.inkscape.org/namespaces/inkscape" xmlns:sodipodi="http://sodipodi.sourceforge.net/DTD/sodipodi-0.dtd" xmlns="http://www.w3.org/2000/svg" xmlns:svg="http://www.w3.org/2000/svg">
  <defs id="defs1"/>
  <sodipodi:namedview id="namedview1" pagecolor="#ffffff" bordercolor="#000000" borderopacity="0.25" inkscape:showpageshadow="2" inkscape:pageopacity="0.0" inkscape:pagecheckerboard="0" inkscape:deskcolor="#d1d1d1">
    <inkscape:page x="0" y="0" inkscape:label="1" id="page1" width="358.69333" height="181.52" margin="0" bleed="0"/>
  </sodipodi:namedview>
  <g id="g1" inkscape:groupmode="layer" inkscape:label="1">
    <path id="path1" d="M -146.22728,-38.50972 V 97.63634 H 122.80061 V -38.50972 Z" style="fill:#ffffff;fill-opacity:1;fill-rule:nonzero;stroke:none" transform="matrix(1.3333333,0,0,-1.3333333,194.96667,130.17467)"/>
    <path id="path2" d="M -141.73407,0 H 112.98875" style="fill:none;stroke:#000000;stroke-width:0.3985;stroke-linecap:butt;stroke-linejoin:miter;stroke-miterlimit:10;stroke-dasharray:none;stroke-opacity:1" transform="matrix(1.3333333,0,0,-1.3333333,194.96667,130.17467)"/>
    <path id="path3" d="M -2.07224,2.39104 C -1.69365,0.95639 -0.84999,0.27895 0,0 -0.84999,-0.27895 -1.69365,-0.95639 -2.07224,-2.39104" style="fill:none;stroke:#000000;stroke-width:0.3985;stroke-linecap:round;stroke-linejoin:round;stroke-miterlimit:10;stroke-dasharray:none;stroke-opacity:1" transform="matrix(1.3333333,0,0,-1.3333333,345.884,130.17467)"/>
    <path id="path4" d="m 2.0502813,-3.9840781 h 0.9375 c 0.1992187,0 0.3046875,0 0.3046875,-0.1992188 0,-0.1054687 -0.1054688,-0.1054687 -0.28125,-0.1054687 H 2.1323125 c 0.3632813,-1.4179688 0.4101563,-1.6171875 0.4101563,-1.6757813 0,-0.1757812 -0.1171875,-0.2695312 -0.2929688,-0.2695312 -0.023437,0 -0.3046875,0.011719 -0.3984375,0.3515625 l -0.3867187,1.59375 H 0.52684375 c -0.19921875,0 -0.29296875,0 -0.29296875,0.1875 0,0.1171875 0.0703125,0.1171875 0.26953125,0.1171875 H 1.3823125 c -0.71484375,2.8242187 -0.75,2.99999998 -0.75,3.17578123 0,0.5390625 0.375,0.9140625 0.9140625,0.9140625 1.0078125,0 1.5820313,-1.45312503 1.5820313,-1.53515623 0,-0.09375 -0.082031,-0.09375 -0.1171875,-0.09375 -0.09375,0 -0.1054688,0.023437 -0.1523438,0.140625 -0.4335937,1.03124998 -0.9609375,1.27734373 -1.3007812,1.27734373 -0.1992188,0 -0.3046875,-0.12890625 -0.3046875,-0.45703125 0,-0.24609375 0.023437,-0.31640625 0.058594,-0.48046878 z m 0,0" style="fill:#000000;fill-opacity:1;fill-rule:nonzero;stroke:none" aria-label="t" transform="matrix(1.3333333,0,0,1.3333333,343.75067,143.03867)"/>
    <path id="path5" d="M 0,-34.01651 V 84.64194" style="fill:none;stroke:#000000;stroke-width:0.3985;stroke-linecap:butt;stroke-linejoin:miter;stroke-miterlimit:10;stroke-dasharray:none;stroke-opacity:1" transform="matrix(1.3333333,0,0,-1.3333333,194.96667,130.17467)"/>
    <path id="path6" d="M -2.07224,2.39104 C -1.69365,0.95639 -0.84999,0.27895 0,0 -0.84999,-0.27895 -1.69365,-0.95639 -2.07224,-2.39104" style="fill:none;stroke:#000000;stroke-width:0.3985;stroke-linecap:round;stroke-linejoin:round;stroke-miterlimit:10;stroke-dasharray:none;stroke-opacity:1" transform="matrix(0,-1.3333333,-1.3333333,0,194.96667,17.05308)"/>
    <g id="g6" aria-label="f(t)" transform="matrix(1.3333333,0,0,1.3333333,199.66,20.108)">
      <path id="path7" d="m 3.6563672,-3.9833437 h 0.8554687 c 0.1992188,0 0.3046875,0 0.3046875,-0.1992188 0,-0.1054687 -0.1054687,-0.1054687 -0.2695312,-0.1054687 H 3.7149609 L 3.9258984,-5.42475 c 0.035156,-0.2109375 0.1757813,-0.9140625 0.234375,-1.0429687 0.09375,-0.1875 0.2578125,-0.3398438 0.46875,-0.3398438 0.046875,0 0.3046875,0 0.4921875,0.1875 -0.4335937,0.035156 -0.5390625,0.3867188 -0.5390625,0.5390625 0,0.2226563 0.1757813,0.3398438 0.3632813,0.3398438 0.2695312,0 0.5507812,-0.2109375 0.5507812,-0.5976563 0,-0.4570312 -0.4570312,-0.6796875 -0.8671875,-0.6796875 -0.3398437,0 -0.9609375,0.1757813 -1.265625,1.1601563 -0.058594,0.2109375 -0.082031,0.3164062 -0.328125,1.5703125 H 2.3555859 c -0.1992187,0 -0.3046875,0 -0.3046875,0.1875 0,0.1171875 0.09375,0.1171875 0.28125,0.1171875 h 0.65625 l -0.75,3.93749995 C 2.0626172,0.91509375 1.8985547,1.8291563 1.3712109,1.8291563 c -0.035156,0 -0.28125,0 -0.46874996,-0.1875 C 1.3594922,1.6182188 1.4415234,1.2549375 1.4415234,1.1025938 1.4415234,0.8799375 1.2657422,0.76275 1.0782422,0.76275 c -0.25781251,0 -0.55078126,0.2109375 -0.55078126,0.5976563 0,0.4453125 0.43359375,0.6796875 0.84374996,0.6796875 0.5507813,0 0.9492188,-0.5859375 1.125,-0.9609375 0.328125,-0.63281255 0.5507813,-1.8398438 0.5625,-1.9101563 z m 0,0" style="fill:#000000;fill-opacity:1;fill-rule:nonzero;stroke:none"/>
      <path id="path8" d="m 9.2432813,2.3916563 c 0,-0.035156 0,-0.046875 -0.1640625,-0.2226563 -1.2421875,-1.25390625 -1.5703125,-3.12890625 -1.5703125,-4.6640625 0,-1.7226562 0.3867187,-3.4570312 1.6054687,-4.7109375 0.1289063,-0.1171875 0.1289063,-0.1289062 0.1289063,-0.1640625 0,-0.070312 -0.035156,-0.1054687 -0.09375,-0.1054687 -0.1054688,0 -0.9960938,0.6796875 -1.5820313,1.9453125 -0.515625,1.1015625 -0.6328125,2.203125 -0.6328125,3.0351562 0,0.7851563 0.1171875,1.9921875 0.65625,3.1171875 0.5976563,1.21875 1.453125,1.875 1.5585938,1.875 0.058594,0 0.09375,-0.035156 0.09375,-0.1054687 z m 0,0" style="fill:#000000;fill-opacity:1;fill-rule:nonzero;stroke:none"/>
      <path id="path9" d="m 11.87707,-3.9833437 h 0.9375 c 0.199219,0 0.304688,0 0.304688,-0.1992188 0,-0.1054687 -0.105469,-0.1054687 -0.28125,-0.1054687 h -0.878906 c 0.363281,-1.4179688 0.410156,-1.6171875 0.410156,-1.6757813 0,-0.1757812 -0.117188,-0.2695312 -0.292969,-0.2695312 -0.02344,0 -0.304687,0.011719 -0.398437,0.3515625 l -0.386719,1.59375 h -0.9375 c -0.199219,0 -0.292969,0 -0.292969,0.1875 0,0.1171875 0.07031,0.1171875 0.269531,0.1171875 h 0.878907 c -0.714844,2.8242187 -0.75,2.99999995 -0.75,3.1757812 0,0.5390625 0.375,0.9140625 0.914062,0.9140625 1.007813,0 1.582031,-1.453125 1.582031,-1.5351562 0,-0.09375 -0.08203,-0.09375 -0.117187,-0.09375 -0.09375,0 -0.105469,0.023437 -0.152344,0.140625 -0.433594,1.03124995 -0.960937,1.2773437 -1.300781,1.2773437 -0.199219,0 -0.304688,-0.12890625 -0.304688,-0.45703125 0,-0.24609375 0.02344,-0.31640625 0.05859,-0.48046875 z m 0,0" style="fill:#000000;fill-opacity:1;fill-rule:nonzero;stroke:none"/>
      <path id="path10" d="m 16.303828,-2.4950625 c 0,-0.7734375 -0.117187,-1.9804687 -0.65625,-3.1054687 -0.597656,-1.21875 -1.464844,-1.875 -1.558594,-1.875 -0.05859,0 -0.105468,0.046875 -0.105468,0.1054687 0,0.035156 0,0.046875 0.199218,0.234375 0.972657,0.984375 1.535157,2.5664063 1.535157,4.640625 0,1.7109375 -0.363282,3.45703125 -1.59375,4.7226563 -0.140625,0.1171875 -0.140625,0.1289062 -0.140625,0.1640625 0,0.058594 0.04687,0.1054687 0.105468,0.1054687 0.09375,0 0.996094,-0.6796875 1.582032,-1.9453125 0.503906,-1.1015625 0.632812,-2.203125 0.632812,-3.046875 z m 0,0" style="fill:#000000;fill-opacity:1;fill-rule:nonzero;stroke:none"/>
    </g>
    <path id="path11" d="m 7.3721719,-4.3476719 c 0,-1.59375 -1.0546875,-2.671875 -2.5429688,-2.671875 -2.1445312,0 -4.33593748,2.2617188 -4.33593748,4.5820313 0,1.65234373 1.11328128,2.66015623 2.54296878,2.66015623 2.109375,0 4.3359375,-2.17968753 4.3359375,-4.57031253 z m -4.2773438,4.31250003 c -0.984375,0 -1.6757812,-0.80859375 -1.6757812,-2.12109373 0,-0.4453125 0.140625,-1.8984375 0.9023437,-3.0585938 0.6914063,-1.0429687 1.6640625,-1.5585937 2.4492188,-1.5585937 0.8203125,0 1.7109375,0.5625 1.7109375,2.0390625 0,0.7148437 -0.2695313,2.2734375 -1.2539063,3.5039062 -0.4804687,0.59765628 -1.2890625,1.19531253 -2.1328125,1.19531253 z m 0,0" style="fill:#000000;fill-opacity:1;fill-rule:nonzero;stroke:none" aria-label="O" transform="matrix(1.3333333,0,0,1.3333333,179.772,143.94533)"/>
    <g id="g11" aria-label="−2" transform="matrix(1.3333333,0,0,1.3333333,35.297333,143.428)">
      <path id="path12" d="m 6.5621563,-2.2956094 c 0.1757812,0 0.3515625,0 0.3515625,-0.1992187 0,-0.1992188 -0.1757813,-0.1992188 -0.3515625,-0.1992188 h -5.390625 c -0.1640625,0 -0.3398438,0 -0.3398438,0.1992188 0,0.1992187 0.1757813,0.1992187 0.3398438,0.1992187 z m 0,0" style="fill:#000000;fill-opacity:1;fill-rule:nonzero;stroke:none"/>
      <path id="path13" d="M 9.0143047,-0.76045312 10.068992,-1.7917031 c 1.558594,-1.3710938 2.15625,-1.9101563 2.15625,-2.90625 0,-1.1367188 -0.902344,-1.9335938 -2.121094,-1.9335938 -1.1249996,0 -1.8515621,0.9140625 -1.8515621,1.8046875 0,0.5507813 0.4921875,0.5507813 0.5273438,0.5507813 0.1640625,0 0.515625,-0.1171875 0.515625,-0.5273438 0,-0.2578125 -0.1875,-0.515625 -0.5273438,-0.515625 -0.082031,0 -0.1054687,0 -0.1289062,0.011719 0.2226562,-0.6445313 0.7617187,-1.0195313 1.3359375,-1.0195313 0.9140628,0 1.3359378,0.8085938 1.3359378,1.6289063 0,0.796875 -0.492188,1.5820312 -1.042969,2.203125 L 8.3580547,-0.36201562 C 8.2525859,-0.25654687 8.2525859,-0.23310937 8.2525859,0.00126563 h 3.6914061 l 0.28125,-1.73437503 H 11.96743 c -0.04687,0.3046875 -0.117188,0.73828128 -0.210938,0.89062503 -0.07031,0.0820313 -0.726562,0.0820313 -0.949219,0.0820313 z m 0,0" style="fill:#000000;fill-opacity:1;fill-rule:nonzero;stroke:none"/>
    </g>
    <g id="g13" aria-label="−1" transform="matrix(1.3333333,0,0,1.3333333,110.888,143.428)">
      <path id="path14" d="m 6.5615391,-2.2956094 c 0.1757812,0 0.3515625,0 0.3515625,-0.1992187 0,-0.1992188 -0.1757813,-0.1992188 -0.3515625,-0.1992188 h -5.390625 c -0.1640625,0 -0.33984379,0 -0.33984379,0.1992188 0,0.1992187 0.17578129,0.1992187 0.33984379,0.1992187 z m 0,0" style="fill:#000000;fill-opacity:1;fill-rule:nonzero;stroke:none"/>
      <path id="path15" d="m 10.67775,-6.3737344 c 0,-0.234375 0,-0.2578125 -0.234375,-0.2578125 C 9.834,-5.9987344 8.9550938,-5.9987344 8.6386875,-5.9987344 v 0.3164063 c 0.1992188,0 0.7851563,0 1.3007813,-0.2578125 v 5.15624998 c 0,0.3515625 -0.035156,0.48046875 -0.9257813,0.48046875 H 8.6972813 v 0.3046875 c 0.3515625,-0.03515625 1.2070312,-0.03515625 1.6054687,-0.03515625 0.398438,0 1.265625,0 1.617188,0.03515625 v -0.3046875 h -0.316407 c -0.902343,0 -0.925781,-0.1171875 -0.925781,-0.48046875 z m 0,0" style="fill:#000000;fill-opacity:1;fill-rule:nonzero;stroke:none"/>
    </g>
    <path id="path16" d="m 2.9303984,-6.3737344 c 0,-0.234375 0,-0.2578125 -0.234375,-0.2578125 -0.609375,0.6328125 -1.4882812,0.6328125 -1.80468746,0.6328125 v 0.3164063 c 0.19921876,0 0.78515626,0 1.30078126,-0.2578125 v 5.15624998 c 0,0.3515625 -0.035156,0.48046875 -0.9257813,0.48046875 H 0.94992969 v 0.3046875 C 1.3014922,-0.03389062 2.1569609,-0.03389062 2.5553984,-0.03389062 c 0.3984375,0 1.265625,0 1.6171875,0.03515625 v -0.3046875 H 3.8561797 c -0.9023438,0 -0.9257813,-0.1171875 -0.9257813,-0.48046875 z m 0,0" style="fill:#000000;fill-opacity:1;fill-rule:nonzero;stroke:none" aria-label="1" transform="matrix(1.3333333,0,0,1.3333333,267.23733,143.428)"/>
    <path id="path17" d="m 2.9302969,-6.3750312 c 0,-0.234375 0,-0.2578125 -0.234375,-0.2578125 -0.609375,0.6328125 -1.4882813,0.6328125 -1.80468752,0.6328125 v 0.3164062 c 0.19921872,0 0.78515622,0 1.30078122,-0.2578125 v 5.15625 c 0,0.3515625 -0.035156,0.48046875 -0.9257812,0.48046875 H 0.94982813 V -3.125e-5 C 1.3013906,-0.0351875 2.1568594,-0.0351875 2.5552969,-0.0351875 c 0.3984375,0 1.265625,0 1.6171875,0.03515625 v -0.3046875 H 3.8560781 c -0.9023437,0 -0.9257812,-0.1171875 -0.9257812,-0.48046875 z m 0,0" style="fill:#000000;fill-opacity:1;fill-rule:nonzero;stroke:none" aria-label="1" transform="matrix(1.3333333,0,0,1.3333333,183.632,49.890667)"/>
    <path id="path18" d="M -113.38727,0 V 56.69363 H 0 L 56.69363,0" style="fill:none;stroke:#000000;stroke-width:0.3985;stroke-linecap:butt;stroke-linejoin:miter;stroke-miterlimit:10;stroke-dasharray:none;stroke-opacity:1" transform="matrix(1.3333333,0,0,-1.3333333,194.96667,130.17467)"/>
  </g>
</svg>