<?xml version="1.0" encoding="UTF-8" standalone="no"?>
<!-- Created with Inkscape (http://www.inkscape.org/) -->
<svg version="1.1" id="svg1" width="585.46667" height="173.96001" viewBox="0 0 585.46667 173.96001" sodipodi:docname="23-24-1-信号与系统-期中-题图4.pdf" xmlns:inkscape="http://www.inkscape.org/namespaces/inkscape" xmlns:sodipodi="http://sodipodi.sourceforge.net/DTD/sodipodi-0.dtd" xmlns="http://www.w3.org/2000/svg" xmlns:svg="http://www.w3.org/2000/svg">
  <defs id="defs1"/>
  <sodipodi:namedview id="namedview1" pagecolor="#ffffff" bordercolor="#000000" borderopacity="0.25" inkscape:showpageshadow="2" inkscape:pageopacity="0.0" inkscape:pagecheckerboard="0" inkscape:deskcolor="#d1d1d1">
    <inkscape:page x="0" y="0" inkscape:label="1" id="page1" width="585.46667" height="173.96001" margin="0" bleed="0"/>
  </sodipodi:namedview>
  <g id="g1" inkscape:groupmode="layer" inkscape:label="1">
    <path id="path1" d="M -32.84001,-32.84001 V 97.63634 H 406.26877 V -32.84001 Z" style="fill:#ffffff;fill-opacity:1;fill-rule:nonzero;stroke:none" transform="matrix(1.3333333,0,0,-1.3333333,43.786667,130.17333)"/>
    <path id="path2" d="M -28.3468,0 H 141.33557" style="fill:none;stroke:#000000;stroke-width:0.3985;stroke-linecap:butt;stroke-linejoin:miter;stroke-miterlimit:10;stroke-dasharray:none;stroke-opacity:1" transform="matrix(1.3333333,0,0,-1.3333333,43.786667,130.17333)"/>
    <path id="path3" d="M -2.07224,2.39104 C -1.69365,0.95639 -0.84999,0.27895 0,0 -0.84999,-0.27895 -1.69365,-0.95639 -2.07224,-2.39104" style="fill:none;stroke:#000000;stroke-width:0.3985;stroke-linecap:round;stroke-linejoin:round;stroke-miterlimit:10;stroke-dasharray:none;stroke-opacity:1" transform="matrix(1.3333333,0,0,-1.3333333,232.49976,130.17333)"/>
    <path id="path4" d="m 2.0511719,-3.9830781 h 0.9375 c 0.1992187,0 0.3046875,0 0.3046875,-0.1992188 0,-0.1054687 -0.1054688,-0.1054687 -0.28125,-0.1054687 H 2.1332031 c 0.3632813,-1.4179688 0.4101563,-1.6171875 0.4101563,-1.6757813 0,-0.1757812 -0.1171875,-0.2695312 -0.2929688,-0.2695312 -0.023437,0 -0.3046875,0.011719 -0.3984375,0.3515625 l -0.3867187,1.59375 H 0.52773438 c -0.19921875,0 -0.29296875,0 -0.29296875,0.1875 0,0.1171875 0.0703125,0.1171875 0.26953125,0.1171875 H 1.3832031 c -0.71484372,2.8242187 -0.74999997,2.99999998 -0.74999997,3.17578123 0,0.5390625 0.37499997,0.9140625 0.91406247,0.9140625 1.0078125,0 1.5820313,-1.45312503 1.5820313,-1.53515623 0,-0.09375 -0.082031,-0.09375 -0.1171875,-0.09375 -0.09375,0 -0.1054688,0.023437 -0.1523438,0.140625 -0.4335937,1.03124998 -0.9609375,1.27734373 -1.3007812,1.27734373 -0.1992188,0 -0.3046875,-0.12890625 -0.3046875,-0.45703125 0,-0.24609375 0.023437,-0.31640625 0.058594,-0.48046878 z m 0,0" style="fill:#000000;fill-opacity:1;fill-rule:nonzero;stroke:none" aria-label="t" transform="matrix(1.3333333,0,0,1.3333333,230.36667,143.03733)"/>
    <path id="path5" d="M 0,-28.3468 V 84.64194" style="fill:none;stroke:#000000;stroke-width:0.3985;stroke-linecap:butt;stroke-linejoin:miter;stroke-miterlimit:10;stroke-dasharray:none;stroke-opacity:1" transform="matrix(1.3333333,0,0,-1.3333333,43.786667,130.17333)"/>
    <path id="path6" d="M -2.07224,2.39104 C -1.69365,0.95639 -0.84999,0.27895 0,0 -0.84999,-0.27895 -1.69365,-0.95639 -2.07224,-2.39104" style="fill:none;stroke:#000000;stroke-width:0.3985;stroke-linecap:round;stroke-linejoin:round;stroke-miterlimit:10;stroke-dasharray:none;stroke-opacity:1" transform="matrix(0,-1.3333333,-1.3333333,0,43.786667,17.051747)"/>
    <g id="g6" aria-label="e(t)" transform="matrix(1.3333333,0,0,1.3333333,48.48,20.106667)">
      <path id="path7" d="m 1.8636328,-2.2977734 c 0.2929688,0 1.03125,-0.023437 1.5234375,-0.234375 0.703125,-0.2929688 0.75,-0.890625 0.75,-1.0195313 0,-0.4453125 -0.3867187,-0.8554687 -1.0664062,-0.8554687 -1.1132813,0 -2.61328129,0.9726562 -2.61328129,2.7070312 0,1.01953126 0.58593749,1.80468751 1.57031249,1.80468751 1.4179688,0 2.2617188,-1.0546875 2.2617188,-1.17187501 0,-0.058594 -0.070312,-0.1289062 -0.1289063,-0.1289062 -0.046875,0 -0.070312,0.023437 -0.1289062,0.09375 -0.7851563,0.99609371 -1.875,0.99609371 -1.9921875,0.99609371 -0.7734375,0 -0.8671875,-0.84375 -0.8671875,-1.16015621 0,-0.1171875 0.011719,-0.4335938 0.1640625,-1.03125 z m -0.46875,-0.2226563 c 0.3867188,-1.5117187 1.4179688,-1.6640625 1.6757813,-1.6640625 0.46875,0 0.7382812,0.2929688 0.7382812,0.6328125 0,1.03125 -1.59375,1.03125 -2.0039062,1.03125 z m 0,0" style="fill:#000000;fill-opacity:1;fill-rule:nonzero;stroke:none"/>
      <path id="path8" d="m 7.9310156,2.3897266 c 0,-0.035156 0,-0.046875 -0.1640625,-0.2226563 -1.2421875,-1.25390624 -1.5703125,-3.12890624 -1.5703125,-4.6640625 0,-1.7226562 0.3867188,-3.4570312 1.6054688,-4.7109375 0.1289062,-0.1171875 0.1289062,-0.1289062 0.1289062,-0.1640625 0,-0.070312 -0.035156,-0.1054687 -0.09375,-0.1054687 -0.1054687,0 -0.9960937,0.6796875 -1.5820312,1.9453125 -0.515625,1.1015625 -0.6328125,2.203125 -0.6328125,3.0351562 0,0.7851563 0.1171875,1.99218751 0.65625,3.11718751 0.5976562,1.21874999 1.453125,1.87499999 1.5585937,1.87499999 0.058594,0 0.09375,-0.035156 0.09375,-0.1054687 z m 0,0" style="fill:#000000;fill-opacity:1;fill-rule:nonzero;stroke:none"/>
      <path id="path9" d="m 10.564805,-3.9852734 h 0.9375 c 0.199218,0 0.304687,0 0.304687,-0.1992188 0,-0.1054687 -0.105469,-0.1054687 -0.28125,-0.1054687 h -0.878906 c 0.363281,-1.4179688 0.410156,-1.6171875 0.410156,-1.6757813 0,-0.1757812 -0.117187,-0.2695312 -0.292969,-0.2695312 -0.02344,0 -0.304687,0.011719 -0.398437,0.3515625 l -0.3867188,1.59375 h -0.9375 c -0.1992188,0 -0.2929688,0 -0.2929688,0.1875 0,0.1171875 0.070312,0.1171875 0.2695313,0.1171875 h 0.8789062 c -0.7148437,2.8242187 -0.75,2.99999996 -0.75,3.17578121 0,0.5390625 0.375,0.9140625 0.9140621,0.9140625 1.007813,0 1.582032,-1.45312501 1.582032,-1.53515621 0,-0.09375 -0.08203,-0.09375 -0.117188,-0.09375 -0.09375,0 -0.105469,0.023437 -0.152344,0.140625 -0.433593,1.03124996 -0.960937,1.27734371 -1.300781,1.27734371 -0.1992186,0 -0.3046873,-0.12890625 -0.3046873,-0.45703125 0,-0.24609375 0.023437,-0.31640625 0.058594,-0.48046876 z m 0,0" style="fill:#000000;fill-opacity:1;fill-rule:nonzero;stroke:none"/>
      <path id="path10" d="m 14.991563,-2.4969922 c 0,-0.7734375 -0.117188,-1.9804687 -0.65625,-3.1054687 -0.597657,-1.21875 -1.464844,-1.875 -1.558594,-1.875 -0.05859,0 -0.105469,0.046875 -0.105469,0.1054687 0,0.035156 0,0.046875 0.199219,0.234375 0.972656,0.984375 1.535156,2.5664063 1.535156,4.640625 0,1.71093751 -0.363281,3.45703126 -1.59375,4.7226563 -0.140625,0.1171875 -0.140625,0.1289062 -0.140625,0.1640625 0,0.058594 0.04687,0.1054687 0.105469,0.1054687 0.09375,0 0.996094,-0.6796875 1.582031,-1.94531249 0.503906,-1.1015625 0.632813,-2.20312501 0.632813,-3.04687501 z m 0,0" style="fill:#000000;fill-opacity:1;fill-rule:nonzero;stroke:none"/>
    </g>
    <path id="path11" d="m 7.3724063,-4.3466719 c 0,-1.59375 -1.0546875,-2.671875 -2.5429688,-2.671875 -2.1445312,0 -4.3359375,2.2617188 -4.3359375,4.5820313 0,1.65234373 1.1132813,2.66015623 2.5429688,2.66015623 2.109375,0 4.3359375,-2.17968753 4.3359375,-4.57031253 z m -4.2773438,4.31250003 c -0.984375,0 -1.6757812,-0.80859375 -1.6757812,-2.12109373 0,-0.4453125 0.140625,-1.8984375 0.9023437,-3.0585938 0.6914063,-1.0429687 1.6640625,-1.5585937 2.4492188,-1.5585937 0.8203125,0 1.7109375,0.5625 1.7109375,2.0390625 0,0.7148437 -0.2695313,2.2734375 -1.2539063,3.5039062 -0.4804687,0.59765628 -1.2890625,1.19531253 -2.1328125,1.19531253 z m 0,0" style="fill:#000000;fill-opacity:1;fill-rule:nonzero;stroke:none" aria-label="O" transform="matrix(1.3333333,0,0,1.3333333,28.592,143.944)"/>
    <path id="path12" d="m 2.9306328,-6.3756641 c 0,-0.234375 0,-0.2578125 -0.234375,-0.2578125 -0.609375,0.6328125 -1.4882812,0.6328125 -1.80468749,0.6328125 v 0.3164063 c 0.19921879,0 0.78515629,0 1.30078129,-0.2578125 v 5.15624999 c 0,0.3515625 -0.035156,0.48046875 -0.9257813,0.48046875 H 0.95016406 V -6.640625e-4 C 1.3017266,-0.03582031 2.1571953,-0.03582031 2.5556328,-0.03582031 c 0.3984375,0 1.265625,0 1.6171875,0.0351562475 V -0.30535156 H 3.8564141 c -0.9023438,0 -0.9257813,-0.1171875 -0.9257813,-0.48046875 z m 0,0" style="fill:#000000;fill-opacity:1;fill-rule:nonzero;stroke:none" aria-label="1" transform="matrix(1.3333333,0,0,1.3333333,116.05733,143.42667)"/>
    <path id="path13" d="M 1.2649531,-0.76238281 2.3196406,-1.7936328 c 1.5585938,-1.3710938 2.15625,-1.9101563 2.15625,-2.90625 0,-1.1367188 -0.9023437,-1.9335938 -2.1210937,-1.9335938 -1.125,0 -1.85156252,0.9140625 -1.85156252,1.8046875 0,0.5507813 0.4921875,0.5507813 0.52734372,0.5507813 0.1640625,0 0.515625,-0.1171875 0.515625,-0.5273438 0,-0.2578125 -0.1875,-0.515625 -0.5273437,-0.515625 -0.0820313,0 -0.10546877,0 -0.12890627,0.011719 0.22265627,-0.6445313 0.76171877,-1.0195313 1.33593747,-1.0195313 0.9140625,0 1.3359375,0.8085938 1.3359375,1.6289063 0,0.796875 -0.4921875,1.5820312 -1.0429687,2.203125 L 0.60870313,-0.36394531 C 0.50323438,-0.25847656 0.50323438,-0.23503906 0.50323438,-6.640625e-4 H 4.1946406 L 4.4758906,-1.7350391 H 4.2180781 c -0.046875,0.3046875 -0.1171875,0.73828129 -0.2109375,0.89062504 -0.070312,0.0820313 -0.7265625,0.0820313 -0.9492187,0.0820313 z m 0,0" style="fill:#000000;fill-opacity:1;fill-rule:nonzero;stroke:none" aria-label="2" transform="matrix(1.3333333,0,0,1.3333333,191.64933,143.42667)"/>
    <path id="path14" d="m 2.9305313,-6.3745391 c 0,-0.234375 0,-0.2578125 -0.234375,-0.2578125 -0.609375,0.6328125 -1.4882813,0.6328125 -1.80468755,0.6328125 v 0.3164063 c 0.19921875,0 0.78515625,0 1.30078125,-0.2578125 v 5.15624999 c 0,0.3515625 -0.035156,0.48046875 -0.9257812,0.48046875 H 0.9500625 V 4.609375e-4 C 1.301625,-0.03469531 2.1570938,-0.03469531 2.5555313,-0.03469531 c 0.3984375,0 1.265625,0 1.6171875,0.0351562475 V -0.30422656 H 3.8563125 c -0.9023437,0 -0.9257812,-0.1171875 -0.9257812,-0.48046875 z m 0,0" style="fill:#000000;fill-opacity:1;fill-rule:nonzero;stroke:none" aria-label="1" transform="matrix(1.3333333,0,0,1.3333333,32.452,58.862667)"/>
    <path id="path15" d="M 0,56.69363 H 113.38727 V 0" style="fill:none;stroke:#000000;stroke-width:0.3985;stroke-linecap:butt;stroke-linejoin:miter;stroke-miterlimit:10;stroke-dasharray:none;stroke-opacity:1" transform="matrix(1.3333333,0,0,-1.3333333,43.786667,130.17333)"/>
    <path id="path16" d="M 170.0809,0 H 396.45692" style="fill:none;stroke:#000000;stroke-width:0.3985;stroke-linecap:butt;stroke-linejoin:miter;stroke-miterlimit:10;stroke-dasharray:none;stroke-opacity:1" transform="matrix(1.3333333,0,0,-1.3333333,43.786667,130.17333)"/>
    <path id="path17" d="M -2.07224,2.39104 C -1.69365,0.95639 -0.84999,0.27895 0,0 -0.84999,-0.27895 -1.69365,-0.95639 -2.07224,-2.39104" style="fill:none;stroke:#000000;stroke-width:0.3985;stroke-linecap:round;stroke-linejoin:round;stroke-miterlimit:10;stroke-dasharray:none;stroke-opacity:1" transform="matrix(1.3333333,0,0,-1.3333333,572.66156,130.17333)"/>
    <path id="path18" d="m 2.0522188,-3.9830781 h 0.9375 c 0.1992187,0 0.3046875,0 0.3046875,-0.1992188 0,-0.1054687 -0.1054688,-0.1054687 -0.28125,-0.1054687 H 2.13425 c 0.3632813,-1.4179688 0.4101563,-1.6171875 0.4101563,-1.6757813 0,-0.1757812 -0.1171875,-0.2695312 -0.2929688,-0.2695312 -0.023437,0 -0.3046875,0.011719 -0.3984375,0.3515625 l -0.3867187,1.59375 H 0.52878125 c -0.19921875,0 -0.29296875,0 -0.29296875,0.1875 0,0.1171875 0.0703125,0.1171875 0.26953125,0.1171875 H 1.38425 c -0.71484375,2.8242187 -0.75,2.99999998 -0.75,3.17578123 0,0.5390625 0.375,0.9140625 0.9140625,0.9140625 1.0078125,0 1.5820313,-1.45312503 1.5820313,-1.53515623 0,-0.09375 -0.082031,-0.09375 -0.1171875,-0.09375 -0.09375,0 -0.1054688,0.023437 -0.1523438,0.140625 -0.4335937,1.03124998 -0.9609375,1.27734373 -1.3007812,1.27734373 -0.1992188,0 -0.3046875,-0.12890625 -0.3046875,-0.45703125 0,-0.24609375 0.023437,-0.31640625 0.058594,-0.48046878 z m 0,0" style="fill:#000000;fill-opacity:1;fill-rule:nonzero;stroke:none" aria-label="t" transform="matrix(1.3333333,0,0,1.3333333,570.52933,143.03733)"/>
    <path id="path19" d="M 198.4277,-28.3468 V 84.64194" style="fill:none;stroke:#000000;stroke-width:0.3985;stroke-linecap:butt;stroke-linejoin:miter;stroke-miterlimit:10;stroke-dasharray:none;stroke-opacity:1" transform="matrix(1.3333333,0,0,-1.3333333,43.786667,130.17333)"/>
    <path id="path20" d="M -2.07224,2.39104 C -1.69365,0.95639 -0.84999,0.27895 0,0 -0.84999,-0.27895 -1.69365,-0.95639 -2.07224,-2.39104" style="fill:none;stroke:#000000;stroke-width:0.3985;stroke-linecap:round;stroke-linejoin:round;stroke-miterlimit:10;stroke-dasharray:none;stroke-opacity:1" transform="matrix(0,-1.3333333,-1.3333333,0,308.35693,17.051747)"/>
    <g id="g20" aria-label="r(t)" transform="matrix(1.3333333,0,0,1.3333333,313.05067,20.106667)">
      <path id="path21" d="m 0.87899219,-0.58683594 c -0.0351563,0.15234375 -0.09375,0.375 -0.09375,0.421875 0,0.1875 0.140625,0.26953125 0.29296871,0.26953125 0.1171875,0 0.2929688,-0.0703125 0.3632813,-0.26953125 0.023437,-0.046875 0.3632812,-1.39453126 0.3984375,-1.58203126 0.082031,-0.328125 0.2578125,-1.0195312 0.3164062,-1.2890625 0.046875,-0.1289062 0.328125,-0.5976562 0.5625,-0.8203125 0.082031,-0.070312 0.375,-0.328125 0.796875,-0.328125 0.2578125,0 0.4101563,0.1171875 0.421875,0.1171875 -0.3046875,0.046875 -0.515625,0.2929688 -0.515625,0.5507813 0,0.1640625 0.1054688,0.3515625 0.375,0.3515625 0.2695313,0 0.5507813,-0.234375 0.5507813,-0.5859375 0,-0.3515625 -0.328125,-0.65625 -0.8320313,-0.65625 -0.6445312,0 -1.0898437,0.4921875 -1.2773437,0.7734375 -0.082031,-0.4570313 -0.4335938,-0.7734375 -0.9023438,-0.7734375 -0.45703121,0 -0.64453121,0.3867187 -0.73828121,0.5742187 -0.17578125,0.3398438 -0.3046875,0.9375 -0.3046875,0.9609375 0,0.1054688 0.09375,0.1054688 0.1171875,0.1054688 0.09375,0 0.10546875,-0.011719 0.1640625,-0.234375 0.17578125,-0.703125 0.375,-1.1835938 0.72656251,-1.1835938 0.1757812,0 0.3164062,0.082031 0.3164062,0.4570313 0,0.2109375 -0.035156,0.3164062 -0.1640625,0.8320312 z m 0,0" style="fill:#000000;fill-opacity:1;fill-rule:nonzero;stroke:none"/>
      <path id="path22" d="m 8.0625859,2.3897266 c 0,-0.035156 0,-0.046875 -0.1640625,-0.2226563 -1.2421875,-1.25390624 -1.5703125,-3.12890624 -1.5703125,-4.6640625 0,-1.7226562 0.3867188,-3.4570312 1.6054688,-4.7109375 0.1289062,-0.1171875 0.1289062,-0.1289062 0.1289062,-0.1640625 0,-0.070312 -0.035156,-0.1054687 -0.09375,-0.1054687 -0.1054687,0 -0.9960937,0.6796875 -1.5820312,1.9453125 -0.515625,1.1015625 -0.6328125,2.203125 -0.6328125,3.0351562 0,0.7851563 0.1171875,1.99218751 0.65625,3.11718751 0.5976562,1.21874999 1.453125,1.87499999 1.5585937,1.87499999 0.058594,0 0.09375,-0.035156 0.09375,-0.1054687 z m 0,0" style="fill:#000000;fill-opacity:1;fill-rule:nonzero;stroke:none"/>
      <path id="path23" d="m 10.696375,-3.9852734 h 0.9375 c 0.199219,0 0.304688,0 0.304688,-0.1992188 0,-0.1054687 -0.105469,-0.1054687 -0.28125,-0.1054687 h -0.878907 c 0.363282,-1.4179688 0.410157,-1.6171875 0.410157,-1.6757813 0,-0.1757812 -0.117188,-0.2695312 -0.292969,-0.2695312 -0.02344,0 -0.304688,0.011719 -0.398438,0.3515625 l -0.386718,1.59375 H 9.1729375 c -0.1992187,0 -0.2929687,0 -0.2929687,0.1875 0,0.1171875 0.070312,0.1171875 0.2695312,0.1171875 h 0.878906 c -0.7148435,2.8242187 -0.7499997,2.99999996 -0.7499997,3.17578121 0,0.5390625 0.375,0.9140625 0.9140627,0.9140625 1.007812,0 1.582031,-1.45312501 1.582031,-1.53515621 0,-0.09375 -0.08203,-0.09375 -0.117187,-0.09375 -0.09375,0 -0.105469,0.023437 -0.152344,0.140625 -0.433594,1.03124996 -0.960938,1.27734371 -1.300781,1.27734371 -0.199219,0 -0.304688,-0.12890625 -0.304688,-0.45703125 0,-0.24609375 0.023437,-0.31640625 0.058594,-0.48046876 z m 0,0" style="fill:#000000;fill-opacity:1;fill-rule:nonzero;stroke:none"/>
      <path id="path24" d="m 15.126063,-2.4969922 c 0,-0.7734375 -0.117188,-1.9804687 -0.65625,-3.1054687 -0.597657,-1.21875 -1.464844,-1.875 -1.558594,-1.875 -0.05859,0 -0.105469,0.046875 -0.105469,0.1054687 0,0.035156 0,0.046875 0.199219,0.234375 0.972656,0.984375 1.535156,2.5664063 1.535156,4.640625 0,1.71093751 -0.363281,3.45703126 -1.59375,4.7226563 -0.140625,0.1171875 -0.140625,0.1289062 -0.140625,0.1640625 0,0.058594 0.04687,0.1054687 0.105469,0.1054687 0.09375,0 0.996094,-0.6796875 1.582031,-1.94531249 0.503906,-1.1015625 0.632813,-2.20312501 0.632813,-3.04687501 z m 0,0" style="fill:#000000;fill-opacity:1;fill-rule:nonzero;stroke:none"/>
    </g>
    <path id="path25" d="m 198.4277,0 56.69364,56.69363 h 56.69363 L 368.5086,0" style="fill:none;stroke:#000000;stroke-width:0.3985;stroke-linecap:butt;stroke-linejoin:miter;stroke-miterlimit:10;stroke-dasharray:none;stroke-opacity:1" transform="matrix(1.3333333,0,0,-1.3333333,43.786667,130.17333)"/>
    <path id="path26" d="m 7.3721406,-4.3466719 c 0,-1.59375 -1.0546875,-2.671875 -2.5429687,-2.671875 -2.1445313,0 -4.33593752,2.2617188 -4.33593752,4.5820313 0,1.65234373 1.11328122,2.66015623 2.54296872,2.66015623 2.109375,0 4.3359375,-2.17968753 4.3359375,-4.57031253 z m -4.2773437,4.31250003 c -0.984375,0 -1.6757813,-0.80859375 -1.6757813,-2.12109373 0,-0.4453125 0.140625,-1.8984375 0.9023438,-3.0585938 0.6914062,-1.0429687 1.6640625,-1.5585937 2.4492187,-1.5585937 0.8203125,0 1.7109375,0.5625 1.7109375,2.0390625 0,0.7148437 -0.2695312,2.2734375 -1.2539062,3.5039062 -0.4804688,0.59765628 -1.2890625,1.19531253 -2.1328125,1.19531253 z m 0,0" style="fill:#000000;fill-opacity:1;fill-rule:nonzero;stroke:none" aria-label="O" transform="matrix(1.3333333,0,0,1.3333333,293.16267,143.944)"/>
    <path id="path27" d="m 2.9303672,-6.3756641 c 0,-0.234375 0,-0.2578125 -0.234375,-0.2578125 -0.609375,0.6328125 -1.4882813,0.6328125 -1.80468751,0.6328125 v 0.3164063 c 0.19921871,0 0.78515621,0 1.30078121,-0.2578125 v 5.15624999 c 0,0.3515625 -0.035156,0.48046875 -0.9257812,0.48046875 H 0.94989844 V -6.640625e-4 C 1.3014609,-0.03582031 2.1569297,-0.03582031 2.5553672,-0.03582031 c 0.3984375,0 1.265625,0 1.6171875,0.0351562475 V -0.30535156 H 3.8561484 c -0.9023437,0 -0.9257812,-0.1171875 -0.9257812,-0.48046875 z m 0,0" style="fill:#000000;fill-opacity:1;fill-rule:nonzero;stroke:none" aria-label="1" transform="matrix(1.3333333,0,0,1.3333333,380.628,143.42667)"/>
    <path id="path28" d="M 1.2656875,-0.76238281 2.320375,-1.7936328 c 1.5585938,-1.3710938 2.15625,-1.9101563 2.15625,-2.90625 0,-1.1367188 -0.9023437,-1.9335938 -2.1210937,-1.9335938 -1.125,0 -1.85156255,0.9140625 -1.85156255,1.8046875 0,0.5507813 0.4921875,0.5507813 0.52734375,0.5507813 0.1640625,0 0.515625,-0.1171875 0.515625,-0.5273438 0,-0.2578125 -0.1875,-0.515625 -0.5273437,-0.515625 -0.0820313,0 -0.1054688,0 -0.1289063,0.011719 0.2226563,-0.6445313 0.7617188,-1.0195313 1.3359375,-1.0195313 0.9140625,0 1.3359375,0.8085938 1.3359375,1.6289063 0,0.796875 -0.4921875,1.5820312 -1.0429687,2.203125 L 0.6094375,-0.36394531 C 0.50396875,-0.25847656 0.50396875,-0.23503906 0.50396875,-6.640625e-4 H 4.195375 L 4.476625,-1.7350391 H 4.2188125 c -0.046875,0.3046875 -0.1171875,0.73828129 -0.2109375,0.89062504 -0.070313,0.0820313 -0.7265625,0.0820313 -0.9492187,0.0820313 z m 0,0" style="fill:#000000;fill-opacity:1;fill-rule:nonzero;stroke:none" aria-label="2" transform="matrix(1.3333333,0,0,1.3333333,456.21867,143.42667)"/>
    <path id="path29" d="M 2.8959063,-3.5045703 C 3.7045,-3.7741016 4.2904375,-4.4772266 4.2904375,-5.2623828 c 0,-0.8203125 -0.8789062,-1.3710938 -1.8398437,-1.3710938 -1.0078125,0 -1.75781255,0.5976563 -1.75781255,1.3476563 0,0.3398437 0.2109375,0.5273437 0.50390625,0.5273437 0.3046875,0 0.5039063,-0.2226562 0.5039063,-0.515625 0,-0.4921875 -0.46875,-0.4921875 -0.609375,-0.4921875 0.3046875,-0.4921875 0.9609375,-0.6210937 1.3242187,-0.6210937 0.4101563,0 0.9492188,0.2226562 0.9492188,1.1132812 0,0.1289063 -0.011719,0.703125 -0.2695313,1.1367188 -0.3046875,0.4804687 -0.6445312,0.515625 -0.890625,0.515625 -0.082031,0.011719 -0.3164062,0.035156 -0.3867187,0.035156 -0.082031,0.011719 -0.1523438,0.023437 -0.1523438,0.1171875 0,0.1171875 0.070312,0.1171875 0.234375,0.1171875 H 2.345125 c 0.8085938,0 1.1835938,0.6679688 1.1835938,1.6523438 0,1.34765624 -0.6914063,1.64062499 -1.125,1.64062499 -0.4335938,0 -1.171875,-0.17578125 -1.52343755,-0.76171875 0.35156255,0.0585938 0.65625005,-0.1640625 0.65625005,-0.53906254 0,-0.3632812 -0.2695313,-0.5625 -0.56250005,-0.5625 -0.234375,0 -0.55078125,0.140625 -0.55078125,0.5742188 0,0.91406249 0.9257813,1.57031249 2.0039063,1.57031249 1.21875,0 2.1210937,-0.9140625 2.1210937,-1.92187499 0,-0.8203125 -0.6210937,-1.59375 -1.6523437,-1.8046873 z m 0,0" style="fill:#000000;fill-opacity:1;fill-rule:nonzero;stroke:none" aria-label="3" transform="matrix(1.3333333,0,0,1.3333333,531.81067,143.42667)"/>
    <path id="path30" d="m 2.9302656,-6.3745391 c 0,-0.234375 0,-0.2578125 -0.234375,-0.2578125 -0.609375,0.6328125 -1.4882812,0.6328125 -1.80468747,0.6328125 v 0.3164063 c 0.19921877,0 0.78515627,0 1.30078127,-0.2578125 v 5.15624999 c 0,0.3515625 -0.035156,0.48046875 -0.9257813,0.48046875 H 0.94979688 V 4.609375e-4 C 1.3013594,-0.03469531 2.1568281,-0.03469531 2.5552656,-0.03469531 c 0.3984375,0 1.265625,0 1.6171875,0.0351562475 V -0.30422656 H 3.8560469 c -0.9023438,0 -0.9257813,-0.1171875 -0.9257813,-0.48046875 z m 0,0" style="fill:#000000;fill-opacity:1;fill-rule:nonzero;stroke:none" aria-label="1" transform="matrix(1.3333333,0,0,1.3333333,297.02267,58.862667)"/>
    <path id="path31" d="M 255.12134,0 V 56.69363 H 198.4277" style="fill:none;stroke:#000000;stroke-width:0.3985;stroke-linecap:butt;stroke-linejoin:miter;stroke-miterlimit:10;stroke-dasharray:2.98883, 2.98883;stroke-dashoffset:0;stroke-opacity:1" transform="matrix(1.3333333,0,0,-1.3333333,43.786667,130.17333)"/>
    <path id="path32" d="M 311.81497,0 V 56.69363" style="fill:none;stroke:#000000;stroke-width:0.3985;stroke-linecap:butt;stroke-linejoin:miter;stroke-miterlimit:10;stroke-dasharray:2.98883, 2.98883;stroke-dashoffset:0;stroke-opacity:1" transform="matrix(1.3333333,0,0,-1.3333333,43.786667,130.17333)"/>
  </g>
</svg>