<?xml version="1.0" encoding="UTF-8" standalone="no"?>
<!-- Created with Inkscape (http://www.inkscape.org/) -->
<svg version="1.1" id="svg1" width="295.44" height="109.70667" viewBox="0 0 295.44 109.70667" sodipodi:docname="23-24-1-信号与系统-期中-题图5.pdf" xmlns:inkscape="http://www.inkscape.org/namespaces/inkscape" xmlns:sodipodi="http://sodipodi.sourceforge.net/DTD/sodipodi-0.dtd" xmlns="http://www.w3.org/2000/svg" xmlns:svg="http://www.w3.org/2000/svg">
  <defs id="defs1"/>
  <sodipodi:namedview id="namedview1" pagecolor="#ffffff" bordercolor="#000000" borderopacity="0.25" inkscape:showpageshadow="2" inkscape:pageopacity="0.0" inkscape:pagecheckerboard="0" inkscape:deskcolor="#d1d1d1">
    <inkscape:page x="0" y="0" inkscape:label="1" id="page1" width="295.44" height="109.70667" margin="0" bleed="0"/>
  </sodipodi:namedview>
  <g id="g1" inkscape:groupmode="layer" inkscape:label="1">
    <path id="path1" d="m -47.01341,-41.14195 v 82.2839 H 174.5741 v -82.2839 z" style="fill:#ffffff;fill-opacity:1;fill-rule:nonzero;stroke:none" transform="matrix(1.3333333,0,0,-1.3333333,62.684,54.850667)"/>
    <path id="path2" d="M -15.28976,-8.30194 H 15.28977 V 8.30196 H -15.28976 Z" style="fill:none;stroke:#000000;stroke-width:0.3985;stroke-linecap:butt;stroke-linejoin:miter;stroke-miterlimit:10;stroke-dasharray:none;stroke-opacity:1" transform="matrix(1.3333333,0,0,-1.3333333,62.684,54.850667)"/>
    <g id="g2" aria-label="h&#xA;1&#xA;(n)" transform="matrix(1.3333333,0,0,1.3333333,46.725333,58.172)">
      <path id="path3" d="m 2.8602969,-6.8086875 c 0,0 0,-0.1054687 -0.1289063,-0.1054687 -0.234375,0 -0.9609375,0.082031 -1.21875,0.1054687 -0.082031,0 -0.1875,0.011719 -0.1875,0.1992188 0,0.1171875 0.09375,0.1171875 0.234375,0.1171875 0.4804688,0 0.5039063,0.070312 0.5039063,0.1640625 L 2.0282656,-6.129 0.58685938,-0.3868125 c -0.0351563,0.140625 -0.0351563,0.15234375 -0.0351563,0.22265625 0,0.22265625 0.19921875,0.26953125 0.28125,0.26953125 0.1640625,0 0.32812492,-0.1171875 0.37499992,-0.2578125 l 0.1875,-0.75 0.2226563,-0.9023437 c 0.058594,-0.2226563 0.1171875,-0.4335938 0.1640625,-0.6679688 0.023437,-0.058594 0.1054687,-0.3867187 0.1171875,-0.4453125 0.023437,-0.09375 0.3281251,-0.6445312 0.6679688,-0.9140625 0.2226563,-0.1640625 0.5273438,-0.3515625 0.9609375,-0.3515625 0.421875,0 0.5390625,0.3398438 0.5390625,0.6914063 0,0.5390625 -0.375,1.6289062 -0.6210937,2.2382812 -0.082031,0.2226563 -0.1289063,0.3515625 -0.1289063,0.55078125 0,0.46875 0.3515625,0.80859375 0.8203125,0.80859375 0.9375,0 1.3007812,-1.453125 1.3007812,-1.5351562 0,-0.09375 -0.09375,-0.09375 -0.1171875,-0.09375 -0.1054687,0 -0.1054687,0.023437 -0.1523437,0.1757812 -0.1523438,0.52734375 -0.46875,1.2421875 -1.0195313,1.2421875 -0.1640624,0 -0.2343749,-0.10546875 -0.2343749,-0.328125 0,-0.2578125 0.09375,-0.4921875 0.1757812,-0.7148437 0.1640625,-0.421875 0.609375,-1.6054688 0.609375,-2.1914063 0,-0.6445312 -0.3984375,-1.0664062 -1.1484375,-1.0664062 -0.6210937,0 -1.1015625,0.3164062 -1.4648437,0.7734375 z m 0,0" style="fill:#000000;fill-opacity:1;fill-rule:nonzero;stroke:none"/>
      <path id="path4" d="m 8.0722109,-2.9356406 c 0,-0.1875 -0.011719,-0.1992188 -0.2109375,-0.1992188 -0.4453125,0.4335938 -1.078125,0.4453125 -1.359375,0.4453125 v 0.2460938 c 0.1640625,0 0.6210938,0 1.0078125,-0.1875 v 3.55078123 c 0,0.23437497 0,0.32812497 -0.6914062,0.32812497 H 6.5487734 v 0.2460938 c 0.1289063,-0.011719 0.984375,-0.023437 1.2421875,-0.023437 0.2109375,0 1.0898438,0.011719 1.2421875,0.023437 V 1.2479531 H 8.7753359 c -0.703125,0 -0.703125,-0.09375 -0.703125,-0.32812497 z m 0,0" style="fill:#000000;fill-opacity:1;fill-rule:nonzero;stroke:none"/>
      <path id="path5" d="m 13.500922,2.3905313 c 0,-0.035156 0,-0.046875 -0.164063,-0.2226563 -1.242187,-1.25390625 -1.570312,-3.12890625 -1.570312,-4.6640625 0,-1.7226562 0.386719,-3.4570312 1.605469,-4.7109375 0.128906,-0.1171875 0.128906,-0.1289062 0.128906,-0.1640625 0,-0.070312 -0.03516,-0.1054687 -0.09375,-0.1054687 -0.105469,0 -0.996094,0.6796875 -1.582031,1.9453125 -0.515625,1.1015625 -0.632813,2.203125 -0.632813,3.0351562 0,0.7851563 0.117188,1.9921875 0.65625,3.1171875 0.597656,1.21875 1.453125,1.875 1.558594,1.875 0.05859,0 0.09375,-0.035156 0.09375,-0.1054687 z m 0,0" style="fill:#000000;fill-opacity:1;fill-rule:nonzero;stroke:none"/>
      <path id="path6" d="m 14.962836,-0.58603125 c -0.03516,0.15234375 -0.09375,0.375 -0.09375,0.421875 0,0.1875 0.140625,0.26953125 0.292969,0.26953125 0.117187,0 0.292968,-0.0703125 0.363281,-0.26953125 0.01172,-0.0234375 0.128906,-0.4921875 0.1875,-0.73828125 l 0.222656,-0.9023437 c 0.05859,-0.2226563 0.117188,-0.4335938 0.175781,-0.6679688 0.03516,-0.1640625 0.117188,-0.4570312 0.128907,-0.4921875 0.140625,-0.3164062 0.667968,-1.21875 1.617187,-1.21875 0.445313,0 0.539063,0.3632813 0.539063,0.6914063 0,0.6210937 -0.492188,1.8984375 -0.644532,2.3320312 -0.09375,0.22265625 -0.105468,0.33984375 -0.105468,0.45703125 0,0.46875 0.351562,0.80859375 0.820312,0.80859375 0.9375,0 1.300781,-1.453125 1.300781,-1.5351562 0,-0.09375 -0.08203,-0.09375 -0.117187,-0.09375 -0.09375,0 -0.09375,0.023437 -0.152344,0.1757812 -0.199219,0.6796875 -0.527344,1.2421875 -1.007812,1.2421875 -0.175782,0 -0.246094,-0.10546875 -0.246094,-0.328125 0,-0.2578125 0.09375,-0.4921875 0.1875,-0.7148437 0.1875,-0.5273438 0.597656,-1.6171875 0.597656,-2.1914063 0,-0.6679687 -0.421875,-1.0664062 -1.136719,-1.0664062 -0.902343,0 -1.382812,0.6445312 -1.558593,0.8671875 -0.04687,-0.5507813 -0.457032,-0.8671875 -0.914063,-0.8671875 -0.457031,0 -0.644531,0.3867187 -0.75,0.5742187 -0.152344,0.3398438 -0.292969,0.9257813 -0.292969,0.9609375 0,0.1054688 0.09375,0.1054688 0.117188,0.1054688 0.09375,0 0.105469,-0.011719 0.164062,-0.234375 0.175782,-0.703125 0.375,-1.1835938 0.726563,-1.1835938 0.199219,0 0.316406,0.1289063 0.316406,0.4570313 0,0.2109375 -0.03516,0.3164062 -0.164062,0.8320312 z m 0,0" style="fill:#000000;fill-opacity:1;fill-rule:nonzero;stroke:none"/>
      <path id="path7" d="m 22.946234,-2.4961875 c 0,-0.7734375 -0.117187,-1.9804687 -0.65625,-3.1054687 -0.597656,-1.21875 -1.464843,-1.875 -1.558593,-1.875 -0.05859,0 -0.105469,0.046875 -0.105469,0.1054687 0,0.035156 0,0.046875 0.199219,0.234375 0.972656,0.984375 1.535156,2.5664063 1.535156,4.640625 0,1.7109375 -0.363281,3.45703125 -1.59375,4.7226563 -0.140625,0.1171875 -0.140625,0.1289062 -0.140625,0.1640625 0,0.058594 0.04687,0.1054687 0.105469,0.1054687 0.09375,0 0.996093,-0.6796875 1.582031,-1.9453125 0.503906,-1.1015625 0.632812,-2.203125 0.632812,-3.046875 z m 0,0" style="fill:#000000;fill-opacity:1;fill-rule:nonzero;stroke:none"/>
    </g>
    <path id="path8" d="m 69.75069,20.04485 h 30.57953 v 16.6039 H 69.75069 Z" style="fill:none;stroke:#000000;stroke-width:0.3985;stroke-linecap:butt;stroke-linejoin:miter;stroke-miterlimit:10;stroke-dasharray:none;stroke-opacity:1" transform="matrix(1.3333333,0,0,-1.3333333,62.684,54.850667)"/>
    <g id="g8" aria-label="h&#xA;1&#xA;(n)" transform="matrix(1.3333333,0,0,1.3333333,160.112,20.376)">
      <path id="path9" d="m 2.8603359,-6.8093437 c 0,0 0,-0.1054688 -0.1289062,-0.1054688 -0.234375,0 -0.9609375,0.082031 -1.21875,0.1054688 -0.082031,0 -0.1875,0.011719 -0.1875,0.1992187 0,0.1171875 0.09375,0.1171875 0.234375,0.1171875 0.4804687,0 0.5039062,0.070312 0.5039062,0.1640625 l -0.035156,0.1992188 -1.44140626,5.74218745 c -0.0351563,0.140625 -0.0351563,0.15234375 -0.0351563,0.22265625 0,0.22265625 0.19921875,0.26953125 0.28125,0.26953125 0.1640625,0 0.32812496,-0.1171875 0.37499996,-0.2578125 l 0.1875,-0.75 0.2226562,-0.90234375 c 0.058594,-0.2226562 0.1171875,-0.4335937 0.1640625,-0.6679687 0.023437,-0.058594 0.1054688,-0.3867188 0.1171875,-0.4453125 0.023437,-0.09375 0.3281251,-0.6445313 0.6679689,-0.9140625 0.2226562,-0.1640625 0.5273437,-0.3515625 0.9609375,-0.3515625 0.421875,0 0.5390624,0.3398437 0.5390624,0.6914062 0,0.5390625 -0.375,1.6289063 -0.6210938,2.2382813 -0.082031,0.2226562 -0.1289062,0.35156245 -0.1289062,0.5507812 0,0.46875 0.3515625,0.80859375 0.8203125,0.80859375 0.9375,0 1.3007812,-1.45312495 1.3007812,-1.53515625 0,-0.09375 -0.09375,-0.09375 -0.1171875,-0.09375 -0.1054687,0 -0.1054687,0.023437 -0.1523437,0.1757813 -0.1523438,0.5273437 -0.46875,1.24218745 -1.0195313,1.24218745 -0.1640625,0 -0.234375,-0.10546875 -0.234375,-0.328125 0,-0.2578125 0.09375,-0.4921875 0.1757813,-0.71484375 0.1640625,-0.421875 0.609375,-1.6054687 0.609375,-2.1914062 0,-0.6445313 -0.3984375,-1.0664063 -1.1484375,-1.0664063 -0.6210938,0 -1.1015625,0.3164063 -1.4648437,0.7734375 z m 0,0" style="fill:#000000;fill-opacity:1;fill-rule:nonzero;stroke:none"/>
      <path id="path10" d="m 8.07225,-2.9333672 c 0,-0.1875 -0.011719,-0.1992187 -0.2109375,-0.1992187 -0.4453125,0.4335937 -1.078125,0.4453125 -1.359375,0.4453125 v 0.2460937 c 0.1640625,0 0.6210937,0 1.0078125,-0.1875 v 3.55078126 c 0,0.23437504 0,0.32812504 -0.6914063,0.32812504 H 6.5488125 V 1.4963203 C 6.6777187,1.4846016 7.5331875,1.4728828 7.791,1.4728828 c 0.2109375,0 1.0898437,0.011719 1.2421875,0.023437 V 1.2502266 H 8.775375 c -0.703125,0 -0.703125,-0.09375 -0.703125,-0.32812504 z m 0,0" style="fill:#000000;fill-opacity:1;fill-rule:nonzero;stroke:none"/>
      <path id="path11" d="m 13.500961,2.389875 c 0,-0.035156 0,-0.046875 -0.164063,-0.2226562 -1.242187,-1.2539063 -1.570312,-3.1289063 -1.570312,-4.6640625 0,-1.7226563 0.386719,-3.4570313 1.605469,-4.7109375 0.128906,-0.1171875 0.128906,-0.1289063 0.128906,-0.1640625 0,-0.070312 -0.03516,-0.1054688 -0.09375,-0.1054688 -0.105469,0 -0.996094,0.6796875 -1.582031,1.9453125 -0.515625,1.1015625 -0.632813,2.203125 -0.632813,3.0351563 0,0.7851562 0.117188,1.99218745 0.65625,3.11718745 0.597656,1.21875005 1.453125,1.87500005 1.558594,1.87500005 0.05859,0 0.09375,-0.035156 0.09375,-0.1054688 z m 0,0" style="fill:#000000;fill-opacity:1;fill-rule:nonzero;stroke:none"/>
      <path id="path12" d="m 14.962875,-0.5866875 c -0.03516,0.15234375 -0.09375,0.375 -0.09375,0.421875 0,0.1875 0.140625,0.26953125 0.292969,0.26953125 0.117187,0 0.292968,-0.0703125 0.363281,-0.26953125 0.01172,-0.0234375 0.128906,-0.4921875 0.1875,-0.73828125 l 0.222656,-0.90234375 c 0.05859,-0.2226562 0.117188,-0.4335937 0.175781,-0.6679687 0.03516,-0.1640625 0.117188,-0.4570313 0.128907,-0.4921875 0.140625,-0.3164063 0.667968,-1.21875 1.617187,-1.21875 0.445313,0 0.539063,0.3632812 0.539063,0.6914062 0,0.6210938 -0.492188,1.8984375 -0.644532,2.3320313 -0.09375,0.2226562 -0.105468,0.3398437 -0.105468,0.4570312 0,0.46875 0.351562,0.80859375 0.820312,0.80859375 0.9375,0 1.300781,-1.45312495 1.300781,-1.53515625 0,-0.09375 -0.08203,-0.09375 -0.117187,-0.09375 -0.09375,0 -0.09375,0.023437 -0.152344,0.1757813 -0.199219,0.67968745 -0.527344,1.24218745 -1.007812,1.24218745 -0.175782,0 -0.246094,-0.10546875 -0.246094,-0.328125 0,-0.2578125 0.09375,-0.4921875 0.1875,-0.71484375 0.1875,-0.5273437 0.597656,-1.6171875 0.597656,-2.1914062 0,-0.6679688 -0.421875,-1.0664063 -1.136719,-1.0664063 -0.902343,0 -1.382812,0.6445313 -1.558593,0.8671875 C 16.287094,-4.0905937 15.876937,-4.407 15.419906,-4.407 c -0.457031,0 -0.644531,0.3867188 -0.75,0.5742188 -0.152344,0.3398437 -0.292969,0.9257812 -0.292969,0.9609375 0,0.1054687 0.09375,0.1054687 0.117188,0.1054687 0.09375,0 0.105469,-0.011719 0.164062,-0.234375 0.175782,-0.703125 0.375,-1.1835937 0.726563,-1.1835937 0.199219,0 0.316406,0.1289062 0.316406,0.4570312 0,0.2109375 -0.03516,0.3164063 -0.164062,0.8320313 z m 0,0" style="fill:#000000;fill-opacity:1;fill-rule:nonzero;stroke:none"/>
      <path id="path13" d="m 22.946273,-2.4968437 c 0,-0.7734375 -0.117187,-1.9804688 -0.65625,-3.1054688 -0.597656,-1.21875 -1.464843,-1.875 -1.558593,-1.875 -0.05859,0 -0.105469,0.046875 -0.105469,0.1054688 0,0.035156 0,0.046875 0.199219,0.234375 0.972656,0.984375 1.535156,2.5664062 1.535156,4.640625 0,1.71093745 -0.363281,3.4570312 -1.59375,4.7226562 C 20.625961,2.343 20.625961,2.3547188 20.625961,2.389875 c 0,0.058594 0.04687,0.1054688 0.105469,0.1054688 0.09375,0 0.996093,-0.6796875 1.582031,-1.94531255 0.503906,-1.1015625 0.632812,-2.20312495 0.632812,-3.04687495 z m 0,0" style="fill:#000000;fill-opacity:1;fill-rule:nonzero;stroke:none"/>
    </g>
    <path id="path14" d="m 69.75069,-36.64876 h 30.57953 v 16.6039 H 69.75069 Z" style="fill:none;stroke:#000000;stroke-width:0.3985;stroke-linecap:butt;stroke-linejoin:miter;stroke-miterlimit:10;stroke-dasharray:none;stroke-opacity:1" transform="matrix(1.3333333,0,0,-1.3333333,62.684,54.850667)"/>
    <g id="g14" aria-label="h&#xA;2&#xA;(n)" transform="matrix(1.3333333,0,0,1.3333333,160.112,95.966667)">
      <path id="path15" d="m 2.8603359,-6.8099609 c 0,0 0,-0.1054688 -0.1289062,-0.1054688 -0.234375,0 -0.9609375,0.082031 -1.21875,0.1054688 -0.082031,0 -0.1875,0.011719 -0.1875,0.1992187 0,0.1171875 0.09375,0.1171875 0.234375,0.1171875 0.4804687,0 0.5039062,0.070312 0.5039062,0.1640625 l -0.035156,0.1992188 -1.44140626,5.74218746 c -0.0351563,0.140625 -0.0351563,0.15234375 -0.0351563,0.22265625 0,0.22265625 0.19921875,0.26953125 0.28125,0.26953125 0.1640625,0 0.32812496,-0.1171875 0.37499996,-0.2578125 l 0.1875,-0.75 0.2226562,-0.90234376 c 0.058594,-0.2226562 0.1171875,-0.4335937 0.1640625,-0.6679687 0.023437,-0.058594 0.1054688,-0.3867188 0.1171875,-0.4453125 0.023437,-0.09375 0.3281251,-0.6445313 0.6679689,-0.9140625 0.2226562,-0.1640625 0.5273437,-0.3515625 0.9609375,-0.3515625 0.421875,0 0.5390624,0.3398437 0.5390624,0.6914062 0,0.5390625 -0.375,1.6289063 -0.6210938,2.2382813 -0.082031,0.2226562 -0.1289062,0.35156246 -0.1289062,0.55078121 0,0.46875 0.3515625,0.80859375 0.8203125,0.80859375 0.9375,0 1.3007812,-1.45312496 1.3007812,-1.53515626 0,-0.09375 -0.09375,-0.09375 -0.1171875,-0.09375 -0.1054687,0 -0.1054687,0.023437 -0.1523437,0.1757813 -0.1523438,0.52734371 -0.46875,1.24218746 -1.0195313,1.24218746 -0.1640625,0 -0.234375,-0.10546875 -0.234375,-0.328125 0,-0.2578125 0.09375,-0.4921875 0.1757813,-0.71484376 0.1640625,-0.421875 0.609375,-1.6054687 0.609375,-2.1914062 0,-0.6445313 -0.3984375,-1.0664063 -1.1484375,-1.0664063 -0.6210938,0 -1.1015625,0.3164063 -1.4648437,0.7734375 z m 0,0" style="fill:#000000;fill-opacity:1;fill-rule:nonzero;stroke:none"/>
      <path id="path16" d="m 9.2558437,0.23007813 h -0.234375 c -0.023437,0.15234375 -0.082031,0.5625 -0.1757812,0.6328125 -0.058594,0.0351563 -0.5976563,0.0351563 -0.6914063,0.0351563 H 6.8652187 C 7.6035,0.25351563 7.8495937,0.05429688 8.25975,-0.27382812 8.775375,-0.68398437 9.2558437,-1.1175781 9.2558437,-1.7738281 c 0,-0.84375 -0.7382812,-1.359375 -1.6289062,-1.359375 -0.8671875,0 -1.453125,0.609375 -1.453125,1.2421875 0,0.3632812 0.3046875,0.3984375 0.375,0.3984375 0.1640625,0 0.375,-0.1171875 0.375,-0.375 0,-0.1289063 -0.058594,-0.3632813 -0.421875,-0.3632813 0.2226562,-0.5039062 0.6914062,-0.65625 1.0195312,-0.65625 0.703125,0 1.0664063,0.5507813 1.0664063,1.1132813 0,0.609375 -0.4335938,1.08984373 -0.65625,1.33593748 L 6.244125,1.2261719 C 6.173813,1.2847659 6.173813,1.2964839 6.173813,1.4957031 h 2.882812 z m 0,0" style="fill:#000000;fill-opacity:1;fill-rule:nonzero;stroke:none"/>
      <path id="path17" d="m 13.500961,2.3892578 c 0,-0.035156 0,-0.046875 -0.164063,-0.2226562 -1.242187,-1.25390629 -1.570312,-3.12890629 -1.570312,-4.6640625 0,-1.7226563 0.386719,-3.4570313 1.605469,-4.7109375 0.128906,-0.1171875 0.128906,-0.1289063 0.128906,-0.1640625 0,-0.070312 -0.03516,-0.1054688 -0.09375,-0.1054688 -0.105469,0 -0.996094,0.6796875 -1.582031,1.9453125 -0.515625,1.1015625 -0.632813,2.203125 -0.632813,3.0351563 0,0.7851562 0.117188,1.99218746 0.65625,3.11718746 0.597656,1.21875004 1.453125,1.87500004 1.558594,1.87500004 0.05859,0 0.09375,-0.035156 0.09375,-0.1054688 z m 0,0" style="fill:#000000;fill-opacity:1;fill-rule:nonzero;stroke:none"/>
      <path id="path18" d="m 14.962875,-0.58730469 c -0.03516,0.15234375 -0.09375,0.375 -0.09375,0.421875 0,0.1875 0.140625,0.26953125 0.292969,0.26953125 0.117187,0 0.292968,-0.0703125 0.363281,-0.26953125 0.01172,-0.0234375 0.128906,-0.4921875 0.1875,-0.73828125 l 0.222656,-0.90234376 c 0.05859,-0.2226562 0.117188,-0.4335937 0.175781,-0.6679687 0.03516,-0.1640625 0.117188,-0.4570313 0.128907,-0.4921875 0.140625,-0.3164063 0.667968,-1.21875 1.617187,-1.21875 0.445313,0 0.539063,0.3632812 0.539063,0.6914062 0,0.6210938 -0.492188,1.8984375 -0.644532,2.3320313 -0.09375,0.22265621 -0.105468,0.33984371 -0.105468,0.45703121 0,0.46875 0.351562,0.80859375 0.820312,0.80859375 0.9375,0 1.300781,-1.45312496 1.300781,-1.53515626 0,-0.09375 -0.08203,-0.09375 -0.117187,-0.09375 -0.09375,0 -0.09375,0.023437 -0.152344,0.1757813 -0.199219,0.67968746 -0.527344,1.24218746 -1.007812,1.24218746 -0.175782,0 -0.246094,-0.10546875 -0.246094,-0.328125 0,-0.2578125 0.09375,-0.4921875 0.1875,-0.71484376 0.1875,-0.5273437 0.597656,-1.6171875 0.597656,-2.1914062 0,-0.6679688 -0.421875,-1.0664063 -1.136719,-1.0664063 -0.902343,0 -1.382812,0.6445313 -1.558593,0.8671875 -0.04687,-0.5507812 -0.457032,-0.8671875 -0.914063,-0.8671875 -0.457031,0 -0.644531,0.3867188 -0.75,0.5742188 -0.152344,0.3398437 -0.292969,0.9257812 -0.292969,0.9609375 0,0.1054687 0.09375,0.1054687 0.117188,0.1054687 0.09375,0 0.105469,-0.011719 0.164062,-0.234375 0.175782,-0.703125 0.375,-1.1835937 0.726563,-1.1835937 0.199219,0 0.316406,0.1289062 0.316406,0.4570312 0,0.2109375 -0.03516,0.3164063 -0.164062,0.8320313 z m 0,0" style="fill:#000000;fill-opacity:1;fill-rule:nonzero;stroke:none"/>
      <path id="path19" d="m 22.946273,-2.4974609 c 0,-0.7734375 -0.117187,-1.9804688 -0.65625,-3.1054688 -0.597656,-1.21875 -1.464843,-1.875 -1.558593,-1.875 -0.05859,0 -0.105469,0.046875 -0.105469,0.1054688 0,0.035156 0,0.046875 0.199219,0.234375 0.972656,0.984375 1.535156,2.5664062 1.535156,4.640625 0,1.71093746 -0.363281,3.45703121 -1.59375,4.7226562 -0.140625,0.1171875 -0.140625,0.1289063 -0.140625,0.1640625 0,0.058594 0.04687,0.1054688 0.105469,0.1054688 0.09375,0 0.996093,-0.6796875 1.582031,-1.94531254 0.503906,-1.1015625 0.632812,-2.20312496 0.632812,-3.04687496 z m 0,0" style="fill:#000000;fill-opacity:1;fill-rule:nonzero;stroke:none"/>
    </g>
    <path id="path20" d="m 137.18584,0 c 0,5.31589 -4.30928,9.62515 -9.62517,9.62515 -5.31589,0 -9.62515,-4.30926 -9.62515,-9.62515 0,-5.31589 4.30926,-9.62515 9.62515,-9.62515 5.31589,0 9.62517,4.30926 9.62517,9.62515 z" style="fill:none;stroke:#000000;stroke-width:0.3985;stroke-linecap:butt;stroke-linejoin:miter;stroke-miterlimit:10;stroke-dasharray:none;stroke-opacity:1" transform="matrix(1.3333333,0,0,-1.3333333,62.684,54.850667)"/>
    <path id="path21" d="m 3.7036875,-3.245125 c 0.09375,-0.1054688 0.09375,-0.140625 0.09375,-0.1640625 0,-0.046875 -0.046875,-0.09375 -0.070312,-0.140625 l -2.039063,-2.9414063 h 2.296875 c 1.6875,0 2.1796875,0.3515625 2.390625,1.9335938 h 0.2460938 l -0.28125,-2.25 H 0.820875 c -0.24609375,0 -0.2578125,0 -0.2578125,0.234375 l 2.4726563,3.609375 -2.36718755,2.6953125 C 0.5630625,-0.16309375 0.5630625,-0.13965625 0.5630625,-0.1045 c 0,0.10546875 0.10546875,0.10546875 0.2578125,0.10546875 H 6.3404063 L 6.6216563,-2.3545 H 6.3755625 C 6.1997813,-0.6904375 5.5200938,-0.42090625 3.9497813,-0.42090625 H 1.2075938 Z m 0,0" style="fill:#000000;fill-opacity:1;fill-rule:nonzero;stroke:none" aria-label="Σ" transform="matrix(1.3333333,0,0,1.3333333,227.968,59.389333)"/>
    <path id="path22" d="m -42.52022,0 h 26.63271" style="fill:none;stroke:#000000;stroke-width:0.3985;stroke-linecap:butt;stroke-linejoin:miter;stroke-miterlimit:10;stroke-dasharray:none;stroke-opacity:1" transform="matrix(1.3333333,0,0,-1.3333333,62.684,54.850667)"/>
    <path id="path23" d="M -2.07224,2.39104 C -1.69365,0.95639 -0.84999,0.27895 0,0 -0.84999,-0.27895 -1.69365,-0.95639 -2.07224,-2.39104" style="fill:none;stroke:#000000;stroke-width:0.3985;stroke-linecap:round;stroke-linejoin:round;stroke-miterlimit:10;stroke-dasharray:none;stroke-opacity:1" transform="matrix(1.3333333,0,0,-1.3333333,41.76632,54.850667)"/>
    <g id="g23" aria-label="x(n)" transform="matrix(1.3333333,0,0,1.3333333,11.062667,46.836)">
      <path id="path24" d="m 3.328,-3.0117656 c 0.058594,-0.2578125 0.2929687,-1.171875 0.984375,-1.171875 0.046875,0 0.2929687,0 0.5039062,0.1289062 -0.28125,0.046875 -0.4804687,0.3046875 -0.4804687,0.5390625 0,0.1640625 0.1054687,0.3515625 0.375,0.3515625 0.2226562,0 0.5390625,-0.1875 0.5390625,-0.5859375 0,-0.515625 -0.5859375,-0.65625 -0.9257813,-0.65625 -0.5742187,0 -0.9257812,0.5273438 -1.0429687,0.7617188 -0.2578125,-0.65625 -0.7851563,-0.7617188 -1.078125,-0.7617188 -1.0429688,0 -1.60546875,1.2890625 -1.60546875,1.5351563 0,0.1054687 0.10546875,0.1054687 0.1171875,0.1054687 0.0820313,0 0.1171875,-0.023437 0.12890625,-0.1171875 0.3398437,-1.0546875 0.9960937,-1.3007812 1.3359375,-1.3007812 0.1875,0 0.5390625,0.09375 0.5390625,0.6679687 0,0.3046875 -0.1640625,0.9726563 -0.5390625,2.3671875 -0.1523438,0.62109378 -0.5039063,1.04296878 -0.9492188,1.04296878 -0.058594,0 -0.28124995,0 -0.49218745,-0.12890625 0.24609375,-0.0585937 0.46874995,-0.26953125 0.46874995,-0.5390625 0,-0.26953123 -0.2226562,-0.35156253 -0.37499995,-0.35156253 -0.29296875,0 -0.5390625,0.25781253 -0.5390625,0.57421878 0,0.45703125 0.4921875,0.65625 0.93749995,0.65625 0.65625,0 1.0078125,-0.69140625 1.0429688,-0.75 0.1171875,0.36328125 0.4804687,0.75 1.078125,0.75 1.0195312,0 1.59375,-1.27734378 1.59375,-1.53515628 0,-0.09375 -0.09375,-0.09375 -0.1289063,-0.09375 -0.082031,0 -0.1054687,0.035156 -0.1289062,0.1054688 -0.328125,1.06640623 -0.9960938,1.31249998 -1.3242188,1.31249998 -0.3867187,0 -0.5390625,-0.328125 -0.5390625,-0.65625 0,-0.22265625 0.058594,-0.44531248 0.1640625,-0.87890628 z m 0,0" style="fill:#000000;fill-opacity:1;fill-rule:nonzero;stroke:none"/>
      <path id="path25" d="m 8.9881562,2.3905781 c 0,-0.035156 0,-0.046875 -0.1640625,-0.2226562 -1.2421875,-1.25390627 -1.5703125,-3.12890627 -1.5703125,-4.6640625 0,-1.7226563 0.3867188,-3.4570313 1.6054688,-4.7109375 0.1289062,-0.1171875 0.1289062,-0.1289063 0.1289062,-0.1640625 0,-0.070312 -0.035156,-0.1054688 -0.09375,-0.1054688 -0.1054687,0 -0.9960937,0.6796875 -1.5820312,1.9453125 -0.515625,1.1015625 -0.6328125,2.203125 -0.6328125,3.0351563 0,0.7851562 0.1171875,1.99218748 0.65625,3.11718748 0.5976562,1.21875002 1.453125,1.87500002 1.5585937,1.87500002 0.058594,0 0.09375,-0.035156 0.09375,-0.1054688 z m 0,0" style="fill:#000000;fill-opacity:1;fill-rule:nonzero;stroke:none"/>
      <path id="path26" d="m 10.447141,-0.58598437 c -0.03516,0.15234375 -0.09375,0.375 -0.09375,0.421875 0,0.1875 0.140625,0.26953125 0.292968,0.26953125 0.117188,0 0.292969,-0.0703125 0.363282,-0.26953125 0.01172,-0.0234375 0.128906,-0.4921875 0.1875,-0.73828125 l 0.222656,-0.90234378 c 0.05859,-0.2226562 0.117187,-0.4335937 0.175781,-0.6679687 0.03516,-0.1640625 0.117188,-0.4570313 0.128906,-0.4921875 0.140625,-0.3164063 0.667969,-1.21875 1.617188,-1.21875 0.445312,0 0.539062,0.3632812 0.539062,0.6914062 0,0.6210938 -0.492187,1.8984375 -0.644531,2.3320313 -0.09375,0.22265623 -0.105469,0.33984373 -0.105469,0.45703123 0,0.46875 0.351563,0.80859375 0.820313,0.80859375 0.9375,0 1.300781,-1.45312498 1.300781,-1.53515628 0,-0.09375 -0.08203,-0.09375 -0.117187,-0.09375 -0.09375,0 -0.09375,0.023437 -0.152344,0.1757813 -0.199219,0.67968748 -0.527344,1.24218748 -1.007813,1.24218748 -0.175781,0 -0.246093,-0.10546875 -0.246093,-0.328125 0,-0.2578125 0.09375,-0.4921875 0.1875,-0.71484378 0.1875,-0.5273437 0.597656,-1.6171875 0.597656,-2.1914062 0,-0.6679688 -0.421875,-1.0664063 -1.136719,-1.0664063 -0.902344,0 -1.382812,0.6445313 -1.558594,0.8671875 -0.04687,-0.5507812 -0.457031,-0.8671875 -0.914062,-0.8671875 -0.457031,0 -0.644531,0.3867188 -0.75,0.5742188 -0.152344,0.3398437 -0.2929689,0.9257812 -0.2929689,0.9609375 0,0.1054687 0.09375,0.1054687 0.1171875,0.1054687 0.09375,0 0.1054684,-0.011719 0.1640624,-0.234375 0.175781,-0.703125 0.375,-1.1835937 0.726563,-1.1835937 0.199218,0 0.316406,0.1289062 0.316406,0.4570312 0,0.2109375 -0.03516,0.3164063 -0.164063,0.8320313 z m 0,0" style="fill:#000000;fill-opacity:1;fill-rule:nonzero;stroke:none"/>
      <path id="path27" d="m 18.430539,-2.4961406 c 0,-0.7734375 -0.117187,-1.9804688 -0.65625,-3.1054688 -0.597656,-1.21875 -1.464844,-1.875 -1.558594,-1.875 -0.05859,0 -0.105468,0.046875 -0.105468,0.1054688 0,0.035156 0,0.046875 0.199218,0.234375 0.972657,0.984375 1.535157,2.5664062 1.535157,4.640625 0,1.71093748 -0.363282,3.45703123 -1.59375,4.7226562 -0.140625,0.1171875 -0.140625,0.1289063 -0.140625,0.1640625 0,0.058594 0.04687,0.1054688 0.105468,0.1054688 0.09375,0 0.996094,-0.6796875 1.582032,-1.94531252 0.503906,-1.1015625 0.632812,-2.20312498 0.632812,-3.04687498 z m 0,0" style="fill:#000000;fill-opacity:1;fill-rule:nonzero;stroke:none"/>
    </g>
    <path id="path28" d="M 15.48901,0 H 42.1217" style="fill:none;stroke:#000000;stroke-width:0.3985;stroke-linecap:butt;stroke-linejoin:miter;stroke-miterlimit:10;stroke-dasharray:none;stroke-opacity:1" transform="matrix(1.3333333,0,0,-1.3333333,62.684,54.850667)"/>
    <path id="path29" d="M -2.07224,2.39104 C -1.69365,0.95639 -0.84999,0.27895 0,0 -0.84999,-0.27895 -1.69365,-0.95639 -2.07224,-2.39104" style="fill:none;stroke:#000000;stroke-width:0.3985;stroke-linecap:round;stroke-linejoin:round;stroke-miterlimit:10;stroke-dasharray:none;stroke-opacity:1" transform="matrix(1.3333333,0,0,-1.3333333,119.11196,54.850667)"/>
    <path id="path30" d="m 42.52022,0 v 28.3468 h 26.6327" style="fill:none;stroke:#000000;stroke-width:0.3985;stroke-linecap:butt;stroke-linejoin:miter;stroke-miterlimit:10;stroke-dasharray:none;stroke-opacity:1" transform="matrix(1.3333333,0,0,-1.3333333,62.684,54.850667)"/>
    <path id="path31" d="M -2.07224,2.39104 C -1.69365,0.95639 -0.84999,0.27895 0,0 -0.84999,-0.27895 -1.69365,-0.95639 -2.07224,-2.39104" style="fill:none;stroke:#000000;stroke-width:0.3985;stroke-linecap:round;stroke-linejoin:round;stroke-miterlimit:10;stroke-dasharray:none;stroke-opacity:1" transform="matrix(1.3333333,0,0,-1.3333333,155.15356,17.054933)"/>
    <path id="path32" d="m 42.52022,0 v -28.3468 h 26.6327" style="fill:none;stroke:#000000;stroke-width:0.3985;stroke-linecap:butt;stroke-linejoin:miter;stroke-miterlimit:10;stroke-dasharray:none;stroke-opacity:1" transform="matrix(1.3333333,0,0,-1.3333333,62.684,54.850667)"/>
    <path id="path33" d="M -2.07224,2.39104 C -1.69365,0.95639 -0.84999,0.27895 0,0 -0.84999,-0.27895 -1.69365,-0.95639 -2.07224,-2.39104" style="fill:none;stroke:#000000;stroke-width:0.3985;stroke-linecap:round;stroke-linejoin:round;stroke-miterlimit:10;stroke-dasharray:none;stroke-opacity:1" transform="matrix(1.3333333,0,0,-1.3333333,155.15356,92.6464)"/>
    <path id="path34" d="m 100.52948,28.3468 h 27.03119 V 10.22292" style="fill:none;stroke:#000000;stroke-width:0.3985;stroke-linecap:butt;stroke-linejoin:miter;stroke-miterlimit:10;stroke-dasharray:none;stroke-opacity:1" transform="matrix(1.3333333,0,0,-1.3333333,62.684,54.850667)"/>
    <path id="path35" d="M -2.07224,2.39104 C -1.69365,0.95639 -0.84999,0.27895 0,0 -0.84999,-0.27895 -1.69365,-0.95639 -2.07224,-2.39104" style="fill:none;stroke:#000000;stroke-width:0.3985;stroke-linecap:round;stroke-linejoin:round;stroke-miterlimit:10;stroke-dasharray:none;stroke-opacity:1" transform="matrix(0,1.3333333,1.3333333,0,232.76489,41.485773)"/>
    <path id="path36" d="m 4.0778984,-2.2978828 h 2.7773438 c 0.140625,0 0.328125,0 0.328125,-0.1992188 0,-0.1992187 -0.1875,-0.1992187 -0.328125,-0.1992187 H 4.0778984 v -2.7890625 c 0,-0.1289063 0,-0.328125 -0.1992187,-0.328125 -0.1992188,0 -0.1992188,0.1992187 -0.1992188,0.328125 v 2.7890625 H 0.89039844 c -0.140625,0 -0.328125,0 -0.328125,0.1992187 0,0.1992188 0.1875,0.1992188 0.328125,0.1992188 H 3.6794609 v 2.80078124 c 0,0.12890625 0,0.328125 0.1992188,0.328125 0.1992187,0 0.1992187,-0.19921875 0.1992187,-0.328125 z m 0,0" style="fill:#000000;fill-opacity:1;fill-rule:nonzero;stroke:none" aria-label="+" transform="matrix(1.3333333,0,0,1.3333333,237.45733,32.724)"/>
    <path id="path37" d="m 100.52948,-28.3468 h 27.03119 v 18.12388" style="fill:none;stroke:#000000;stroke-width:0.3985;stroke-linecap:butt;stroke-linejoin:miter;stroke-miterlimit:10;stroke-dasharray:none;stroke-opacity:1" transform="matrix(1.3333333,0,0,-1.3333333,62.684,54.850667)"/>
    <path id="path38" d="M -2.07224,2.39104 C -1.69365,0.95639 -0.84999,0.27895 0,0 -0.84999,-0.27895 -1.69365,-0.95639 -2.07224,-2.39104" style="fill:none;stroke:#000000;stroke-width:0.3985;stroke-linecap:round;stroke-linejoin:round;stroke-miterlimit:10;stroke-dasharray:none;stroke-opacity:1" transform="matrix(0,-1.3333333,-1.3333333,0,232.76489,68.21556)"/>
    <path id="path39" d="m 4.0778984,-2.2979844 h 2.7773438 c 0.140625,0 0.328125,0 0.328125,-0.1992187 0,-0.1992188 -0.1875,-0.1992188 -0.328125,-0.1992188 H 4.0778984 v -2.7890625 c 0,-0.1289062 0,-0.328125 -0.1992187,-0.328125 -0.1992188,0 -0.1992188,0.1992188 -0.1992188,0.328125 v 2.7890625 H 0.89039844 c -0.140625,0 -0.328125,0 -0.328125,0.1992188 0,0.1992187 0.1875,0.1992187 0.328125,0.1992187 H 3.6794609 v 2.80078128 c 0,0.12890625 0,0.328125 0.1992188,0.328125 0.1992187,0 0.1992187,-0.19921875 0.1992187,-0.328125 z m 0,0" style="fill:#000000;fill-opacity:1;fill-rule:nonzero;stroke:none" aria-label="+" transform="matrix(1.3333333,0,0,1.3333333,237.45733,83.618667)"/>
    <path id="path40" d="m 137.38509,0 h 32.2973" style="fill:none;stroke:#000000;stroke-width:0.3985;stroke-linecap:butt;stroke-linejoin:miter;stroke-miterlimit:10;stroke-dasharray:none;stroke-opacity:1" transform="matrix(1.3333333,0,0,-1.3333333,62.684,54.850667)"/>
    <path id="path41" d="M -2.07224,2.39104 C -1.69365,0.95639 -0.84999,0.27895 0,0 -0.84999,-0.27895 -1.69365,-0.95639 -2.07224,-2.39104" style="fill:none;stroke:#000000;stroke-width:0.3985;stroke-linecap:round;stroke-linejoin:round;stroke-miterlimit:10;stroke-dasharray:none;stroke-opacity:1" transform="matrix(1.3333333,0,0,-1.3333333,289.19285,54.850667)"/>
    <g id="g41" aria-label="y(n)" transform="matrix(1.3333333,0,0,1.3333333,255.01467,46.836)">
      <path id="path42" d="m 4.8405625,-3.7969219 c 0.046875,-0.140625 0.046875,-0.1523437 0.046875,-0.2226562 0,-0.1875 -0.140625,-0.2695313 -0.2929687,-0.2695313 -0.1054688,0 -0.2578125,0.058594 -0.3515625,0.1992188 -0.023437,0.058594 -0.09375,0.3632812 -0.140625,0.5390625 -0.070312,0.2578125 -0.140625,0.5273437 -0.1992188,0.796875 L 3.45775,-0.96098437 c -0.035156,0.15234375 -0.46875,0.85546875 -1.125,0.85546875 -0.5039062,0 -0.6210937,-0.4453125 -0.6210937,-0.80859375 0,-0.45703123 0.1757812,-1.07812503 0.515625,-1.95703123 C 2.379625,-3.2812969 2.4265,-3.3867656 2.4265,-3.5859844 c 0,-0.4453125 -0.328125,-0.8203125 -0.8203125,-0.8203125 -0.94921875,0 -1.3125,1.453125 -1.3125,1.5351563 0,0.1054687 0.09375,0.1054687 0.1171875,0.1054687 0.09375,0 0.10546875,-0.023437 0.15234375,-0.1875 0.26953125,-0.9375 0.66796875,-1.2304687 1.00781255,-1.2304687 0.082031,0 0.2578125,0 0.2578125,0.3164062 0,0.2460938 -0.1054688,0.515625 -0.1757813,0.703125 -0.3984375,1.0546875 -0.5742187,1.6171875 -0.5742187,2.0859375 0,0.89062503 0.6210937,1.18359378 1.21875,1.18359378 0.3867187,0 0.7265625,-0.1640625 0.9960937,-0.4453125 -0.1289062,0.515625 -0.2460937,1.0078125 -0.6445312,1.53515622 -0.2578125,0.3398438 -0.6328125,0.6328125 -1.0898438,0.6328125 -0.140625,0 -0.59765625,-0.035156 -0.76171875,-0.421875 0.1640625,0 0.29296875,0 0.43359375,-0.1171875 0.09375,-0.09375 0.1992188,-0.2226562 0.1992188,-0.41015622 0,-0.31640625 -0.2695313,-0.3515625 -0.375,-0.3515625 -0.2226563,0 -0.5507813,0.1640625 -0.5507813,0.64453122 0,0.5039063 0.43359375,0.8671875 1.0546875,0.8671875 1.0195313,0 2.0507813,-0.9023437 2.3320313,-2.02734372 z m 0,0" style="fill:#000000;fill-opacity:1;fill-rule:nonzero;stroke:none"/>
      <path id="path43" d="m 8.5348984,2.3905781 c 0,-0.035156 0,-0.046875 -0.1640625,-0.2226562 -1.2421875,-1.25390627 -1.5703125,-3.12890627 -1.5703125,-4.6640625 0,-1.7226563 0.3867188,-3.4570313 1.6054688,-4.7109375 0.1289062,-0.1171875 0.1289062,-0.1289063 0.1289062,-0.1640625 0,-0.070312 -0.035156,-0.1054688 -0.09375,-0.1054688 -0.1054687,0 -0.9960937,0.6796875 -1.5820312,1.9453125 -0.515625,1.1015625 -0.6328125,2.203125 -0.6328125,3.0351563 0,0.7851562 0.1171875,1.99218748 0.65625,3.11718748 0.5976562,1.21875002 1.453125,1.87500002 1.5585937,1.87500002 0.058594,0 0.09375,-0.035156 0.09375,-0.1054688 z m 0,0" style="fill:#000000;fill-opacity:1;fill-rule:nonzero;stroke:none"/>
      <path id="path44" d="m 9.9938828,-0.58598437 c -0.035156,0.15234375 -0.09375,0.375 -0.09375,0.421875 0,0.1875 0.1406252,0.26953125 0.2929692,0.26953125 0.117187,0 0.292968,-0.0703125 0.363281,-0.26953125 0.01172,-0.0234375 0.128906,-0.4921875 0.1875,-0.73828125 l 0.222656,-0.90234378 c 0.05859,-0.2226562 0.117188,-0.4335937 0.175781,-0.6679687 0.03516,-0.1640625 0.117188,-0.4570313 0.128907,-0.4921875 0.140625,-0.3164063 0.667968,-1.21875 1.617187,-1.21875 0.445313,0 0.539063,0.3632812 0.539063,0.6914062 0,0.6210938 -0.492188,1.8984375 -0.644532,2.3320313 -0.09375,0.22265623 -0.105468,0.33984373 -0.105468,0.45703123 0,0.46875 0.351562,0.80859375 0.820312,0.80859375 0.9375,0 1.300781,-1.45312498 1.300781,-1.53515628 0,-0.09375 -0.08203,-0.09375 -0.117187,-0.09375 -0.09375,0 -0.09375,0.023437 -0.152344,0.1757813 -0.199219,0.67968748 -0.527344,1.24218748 -1.007812,1.24218748 -0.175782,0 -0.246094,-0.10546875 -0.246094,-0.328125 0,-0.2578125 0.09375,-0.4921875 0.1875,-0.71484378 0.1875,-0.5273437 0.597656,-1.6171875 0.597656,-2.1914062 0,-0.6679688 -0.421875,-1.0664063 -1.136719,-1.0664063 -0.902343,0 -1.382812,0.6445313 -1.558593,0.8671875 -0.04687,-0.5507812 -0.457032,-0.8671875 -0.914063,-0.8671875 -0.4570312,0 -0.6445312,0.3867188 -0.7499999,0.5742188 -0.1523438,0.3398437 -0.2929688,0.9257812 -0.2929688,0.9609375 0,0.1054687 0.09375,0.1054687 0.1171875,0.1054687 0.09375,0 0.1054688,-0.011719 0.1640625,-0.234375 0.1757813,-0.703125 0.3749997,-1.1835937 0.7265627,-1.1835937 0.199219,0 0.316406,0.1289062 0.316406,0.4570312 0,0.2109375 -0.03516,0.3164063 -0.164062,0.8320313 z m 0,0" style="fill:#000000;fill-opacity:1;fill-rule:nonzero;stroke:none"/>
      <path id="path45" d="m 17.980211,-2.4961406 c 0,-0.7734375 -0.117188,-1.9804688 -0.65625,-3.1054688 -0.597656,-1.21875 -1.464844,-1.875 -1.558594,-1.875 -0.05859,0 -0.105469,0.046875 -0.105469,0.1054688 0,0.035156 0,0.046875 0.199219,0.234375 0.972656,0.984375 1.535156,2.5664062 1.535156,4.640625 0,1.71093748 -0.363281,3.45703123 -1.59375,4.7226562 -0.140625,0.1171875 -0.140625,0.1289063 -0.140625,0.1640625 0,0.058594 0.04687,0.1054688 0.105469,0.1054688 0.09375,0 0.996094,-0.6796875 1.582031,-1.94531252 0.503907,-1.1015625 0.632813,-2.20312498 0.632813,-3.04687498 z m 0,0" style="fill:#000000;fill-opacity:1;fill-rule:nonzero;stroke:none"/>
    </g>
  </g>
</svg>