<?xml version="1.0" encoding="UTF-8" standalone="no"?>
<!-- Created with Inkscape (http://www.inkscape.org/) -->

<svg
   version="1.1"
   id="svg1"
   width="115.69333"
   height="104.53333"
   viewBox="0 0 115.69333 104.53333"
   sodipodi:docname="24-25-2-高等数学A（下）-期中-题图6.pdf"
   xmlns:inkscape="http://www.inkscape.org/namespaces/inkscape"
   xmlns:sodipodi="http://sodipodi.sourceforge.net/DTD/sodipodi-0.dtd"
   xmlns="http://www.w3.org/2000/svg"
   xmlns:svg="http://www.w3.org/2000/svg">
  <defs
     id="defs1" />
  <sodipodi:namedview
     id="namedview1"
     pagecolor="#ffffff"
     bordercolor="#000000"
     borderopacity="0.25"
     inkscape:showpageshadow="2"
     inkscape:pageopacity="0.0"
     inkscape:pagecheckerboard="0"
     inkscape:deskcolor="#d1d1d1">
    <inkscape:page
       x="0"
       y="0"
       inkscape:label="1"
       id="page1"
       width="115.69333"
       height="104.53333"
       margin="0"
       bleed="0" />
  </sodipodi:namedview>
  <g
     id="g1"
     inkscape:groupmode="layer"
     inkscape:label="1">
    <path
       id="path1"
       d="M -11.64285,-17.9422 V 60.46243 H 75.13087 V -17.9422 Z"
       style="fill:#ffffff;fill-opacity:1;fill-rule:nonzero;stroke:none"
       transform="matrix(1.3333333,0,0,-1.3333333,15.524,80.610667)" />
    <path
       id="path2"
       d="m 0,0 h 42.52022 l 21.2601,42.52022 z"
       style="fill:none;stroke:#000000;stroke-width:0.3985;stroke-linecap:butt;stroke-linejoin:miter;stroke-miterlimit:10;stroke-dasharray:none;stroke-opacity:1"
       transform="matrix(1.3333333,0,0,-1.3333333,15.524,80.610667)" />
    <path
       id="path3"
       d="m 1.5930078,-0.77232813 c -0.09375,0.38671875 -0.1171875,0.46875 -0.90234374,0.46875 -0.17578125,0 -0.26953125,0 -0.26953125,0.19921875 0,0.10546875 0.0820313,0.10546875 0.26953125,0.10546875 H 4.2414453 c 1.5703125,0 2.7539063,-1.17187497 2.7539063,-2.15624997 0,-0.7148438 -0.5859375,-1.2890625 -1.546875,-1.3945313 1.03125,-0.1992187 2.0859375,-0.9375 2.0859375,-1.875 0,-0.7382812 -0.65625,-1.3828125 -1.8515625,-1.3828125 H 2.3312891 c -0.1875,0 -0.2929688,0 -0.2929688,0.1992188 0,0.1171875 0.09375,0.1171875 0.28125,0.1171875 0.023437,0 0.2109375,0 0.375,0.011719 0.1875,0.023437 0.2695313,0.035156 0.2695313,0.1640625 0,0.035156 -0.011719,0.070312 -0.035156,0.1875 z m 1.5,-2.87109377 0.6210938,-2.4726562 c 0.09375,-0.3515625 0.1054687,-0.375 0.5390625,-0.375 h 1.2890625 c 0.8671875,0 1.078125,0.5859375 1.078125,1.0195312 0,0.8789063 -0.8554688,1.828125 -2.0742188,1.828125 z m -0.4453125,3.33984377 c -0.140625,0 -0.1523437,0 -0.2226562,-0.0117188 -0.09375,-0.0117188 -0.1289063,-0.0234375 -0.1289063,-0.10546875 0,-0.0234375 0,-0.046875 0.058594,-0.22265625 L 3.0344141,-3.4207656 h 1.8867187 c 0.9609375,0 1.1484375,0.7265625 1.1484375,1.1601562 0,0.984375 -0.890625,1.95703127 -2.0625,1.95703127 z m 0,0"
       style="fill:#000000;fill-opacity:1;fill-rule:nonzero;stroke:none"
       aria-label="B"
       transform="matrix(1.3333333,0,0,1.3333333,10.153333,94.381333)" />
    <path
       id="path4"
       d="m 7.5699297,-6.9264531 c 0,-0.023437 -0.023437,-0.09375 -0.1054688,-0.09375 -0.035156,0 -0.046875,0.011719 -0.1523437,0.1171875 l -0.703125,0.7617187 c -0.082031,-0.140625 -0.5390625,-0.8789062 -1.6523438,-0.8789062 -2.2148437,0 -4.45312496,2.203125 -4.45312496,4.5117187 0,1.64062503 1.17187496,2.73046878 2.69531246,2.73046878 0.8671875,0 1.6171875,-0.3984375 2.1445313,-0.85546875 0.9375,-0.82031253 1.1015625,-1.72265623 1.1015625,-1.75781253 0,-0.1054687 -0.1054688,-0.1054687 -0.1171875,-0.1054687 -0.058594,0 -0.1171875,0.023437 -0.1289063,0.1054687 -0.09375,0.2929688 -0.3164062,0.9960938 -1.0078125,1.57031253 -0.6914062,0.5625 -1.3125,0.7265625 -1.8398437,0.7265625 -0.890625,0 -1.9453125,-0.515625 -1.9453125,-2.06250003 0,-0.5742187 0.2109375,-2.1914062 1.2070312,-3.3515625 0.609375,-0.703125 1.5351563,-1.2070312 2.4257813,-1.2070312 1.0195312,0 1.6054687,0.7734375 1.6054687,1.921875 0,0.3984375 -0.035156,0.4101562 -0.035156,0.5039062 0,0.1054688 0.1171875,0.1054688 0.1523437,0.1054688 0.1289063,0 0.1289063,-0.023437 0.1757813,-0.1992188 z m 0,0"
       style="fill:#000000;fill-opacity:1;fill-rule:nonzero;stroke:none"
       aria-label="C"
       transform="matrix(1.3333333,0,0,1.3333333,76.910667,85.149333)" />
    <path
       id="path5"
       d="m 1.7807734,-1.1494453 c -0.3984375,0.66796874 -0.78515621,0.80859374 -1.21874996,0.84374999 -0.12890625,0 -0.2109375,0 -0.2109375,0.19921875 0,0.05859375 0.046875,0.10546875 0.12890625,0.10546875 0.26953125,0 0.57421871,-0.03515625 0.85546871,-0.03515625 0.328125,0 0.6796875,0.03515625 0.9960938,0.03515625 0.058594,0 0.1875,0 0.1875,-0.1875 0,-0.1171875 -0.09375,-0.1171875 -0.1640625,-0.1171875 -0.2226563,-0.0234375 -0.4570313,-0.10546875 -0.4570313,-0.3515625 0,-0.1171875 0.058594,-0.234375 0.1289063,-0.37499999 l 0.7617187,-1.265625 h 2.4960938 c 0.023437,0.1992187 0.1640625,1.55859374 0.1640625,1.66406249 0,0.29296875 -0.515625,0.328125 -0.7148438,0.328125 -0.140625,0 -0.2460937,0 -0.2460937,0.19921875 0,0.10546875 0.1289062,0.10546875 0.140625,0.10546875 0.4101562,0 0.84375,-0.03515625 1.2539062,-0.03515625 0.2460938,0 0.8671875,0.03515625 1.125,0.03515625 0.058594,0 0.1757813,0 0.1757813,-0.19921875 0,-0.10546875 -0.1054688,-0.10546875 -0.234375,-0.10546875 -0.609375,0 -0.609375,-0.0703125 -0.6445313,-0.36328125 L 5.6948359,-6.8916328 c -0.011719,-0.1992188 -0.011719,-0.2460938 -0.1875,-0.2460938 -0.1640625,0 -0.1992187,0.070312 -0.2578125,0.1757813 z m 1.1953125,-1.4648438 1.96875,-3.28125 0.3164063,3.28125 z m 0,0"
       style="fill:#000000;fill-opacity:1;fill-rule:nonzero;stroke:none"
       aria-label="A"
       transform="matrix(1.3333333,0,0,1.3333333,95.582667,19.224)" />
    <path
       id="path6"
       d="M 38.26793,0 V 12.75618 L 31.89015,21.2601"
       style="fill:none;stroke:#000000;stroke-width:0.3985;stroke-linecap:butt;stroke-linejoin:miter;stroke-miterlimit:10;stroke-dasharray:none;stroke-opacity:1"
       transform="matrix(1.3333333,0,0,-1.3333333,15.524,80.610667)" />
    <path
       id="path7"
       d="m 3.0227891,-3.152875 h 1.6875 c 1.4179687,0 2.8007812,-1.03125 2.8007812,-2.1445312 0,-0.7734375 -0.65625,-1.5117188 -1.96875,-1.5117188 H 2.3196641 c -0.1875,0 -0.2929688,0 -0.2929688,0.1992188 0,0.1171875 0.082031,0.1171875 0.28125,0.1171875 0.1289063,0 0.3164063,0.011719 0.4335938,0.011719 0.1523437,0.023437 0.2109375,0.058594 0.2109375,0.1640625 0,0.035156 0,0.070312 -0.035156,0.1875 l -1.3359375,5.35546875 c -0.09375,0.38671875 -0.1171875,0.46875 -0.90234374,0.46875 -0.17578125,0 -0.28125,0 -0.28125,0.1875 0,0.1171875 0.1171875,0.1171875 0.15234375,0.1171875 0.28125,0 0.98437499,-0.03515625 1.26562499,-0.03515625 0.2109375,0 0.421875,0.01171875 0.6328125,0.01171875 0.2226563,0 0.4453125,0.0234375 0.6445313,0.0234375 0.070312,0 0.1992187,0 0.1992187,-0.19921875 0,-0.10546875 -0.082031,-0.10546875 -0.2695312,-0.10546875 -0.375,0 -0.65625,0 -0.65625,-0.1875 0,-0.0585938 0.023437,-0.10546875 0.035156,-0.1640625 z m 0.7148437,-2.9648437 c 0.082031,-0.3515625 0.1054688,-0.375 0.5390625,-0.375 h 0.9492188 c 0.8320312,0 1.359375,0.2695312 1.359375,0.9492187 0,0.3984375 -0.1992188,1.2539063 -0.5859375,1.6054688 -0.5039063,0.4453125 -1.1015625,0.5273437 -1.5351563,0.5273437 h -1.40625 z m 0,0"
       style="fill:#000000;fill-opacity:1;fill-rule:nonzero;stroke:none"
       aria-label="P"
       transform="matrix(1.3333333,0,0,1.3333333,51.481333,68.141333)" />
    <path
       id="path8"
       d="M 38.26793,12.75618 46.77248,8.5039"
       style="fill:none;stroke:#000000;stroke-width:0.3985;stroke-linecap:butt;stroke-linejoin:miter;stroke-miterlimit:10;stroke-dasharray:none;stroke-opacity:1"
       transform="matrix(1.3333333,0,0,-1.3333333,15.524,80.610667)" />
  </g>
</svg>
