<?xml version="1.0" encoding="UTF-8" standalone="no"?>
<!-- Created with Inkscape (http://www.inkscape.org/) -->

<svg
   version="1.1"
   id="svg1"
   width="177.74667"
   height="121.86667"
   viewBox="0 0 177.74667 121.86667"
   sodipodi:docname="24-25-2-电磁场与电磁波-期中-题图5.pdf"
   xmlns:inkscape="http://www.inkscape.org/namespaces/inkscape"
   xmlns:sodipodi="http://sodipodi.sourceforge.net/DTD/sodipodi-0.dtd"
   xmlns="http://www.w3.org/2000/svg"
   xmlns:svg="http://www.w3.org/2000/svg">
  <defs
     id="defs1" />
  <sodipodi:namedview
     id="namedview1"
     pagecolor="#ffffff"
     bordercolor="#000000"
     borderopacity="0.25"
     inkscape:showpageshadow="2"
     inkscape:pageopacity="0.0"
     inkscape:pagecheckerboard="0"
     inkscape:deskcolor="#d1d1d1">
    <inkscape:page
       x="0"
       y="0"
       inkscape:label="1"
       id="page1"
       width="177.74667"
       height="121.86667"
       margin="0"
       bleed="0" />
  </sodipodi:namedview>
  <g
     id="g1"
     inkscape:groupmode="layer"
     inkscape:label="1">
    <path
       id="path1"
       d="M -35.3131,-19.44666 V 71.95682 H 97.99562 v -91.40348 z"
       style="fill:#ffffff;fill-opacity:1;fill-rule:nonzero;stroke:none"
       transform="matrix(1.3333333,0,0,-1.3333333,47.084,95.938667)" />
    <path
       id="path2"
       d="M 0,0 H 81.24063"
       style="fill:none;stroke:#000000;stroke-width:0.3985;stroke-linecap:butt;stroke-linejoin:miter;stroke-miterlimit:10;stroke-dasharray:none;stroke-opacity:1"
       transform="matrix(1.3333333,0,0,-1.3333333,47.084,95.938667)" />
    <path
       id="path3"
       d="M -2.07224,2.39104 C -1.69365,0.95639 -0.84999,0.27895 0,0 -0.84999,-0.27895 -1.69365,-0.95639 -2.07224,-2.39104"
       style="fill:none;stroke:#000000;stroke-width:0.3985;stroke-linecap:round;stroke-linejoin:round;stroke-miterlimit:10;stroke-dasharray:none;stroke-opacity:1"
       transform="matrix(1.3333333,0,0,-1.3333333,155.67051,95.938667)" />
    <path
       id="path4"
       d="m 3.3285938,-3.0111484 c 0.058594,-0.2578125 0.2929687,-1.171875 0.984375,-1.171875 0.046875,0 0.2929687,0 0.5039062,0.1289062 -0.28125,0.046875 -0.4804687,0.3046875 -0.4804687,0.5390625 0,0.1640625 0.1054687,0.3515625 0.375,0.3515625 0.2226562,0 0.5390625,-0.1875 0.5390625,-0.5859375 0,-0.515625 -0.5859375,-0.65625 -0.9257813,-0.65625 -0.5742187,0 -0.9257812,0.5273438 -1.0429687,0.7617188 -0.2578125,-0.65625 -0.7851563,-0.7617188 -1.078125,-0.7617188 -1.0429688,0 -1.6054688,1.2890625 -1.6054688,1.5351563 0,0.1054687 0.10546875,0.1054687 0.1171875,0.1054687 0.0820313,0 0.1171875,-0.023437 0.12890625,-0.1171875 0.33984375,-1.0546875 0.99609375,-1.3007812 1.33593755,-1.3007812 0.1875,0 0.5390625,0.09375 0.5390625,0.6679687 0,0.3046875 -0.1640625,0.9726563 -0.5390625,2.3671875 -0.1523438,0.62109376 -0.5039063,1.04296876 -0.9492188,1.04296876 -0.058594,0 -0.28125,0 -0.4921875,-0.12890625 0.24609375,-0.0585937 0.46875,-0.26953125 0.46875,-0.5390625 0,-0.26953121 -0.22265625,-0.35156251 -0.375,-0.35156251 -0.29296875,0 -0.5390625,0.25781251 -0.5390625,0.57421876 0,0.45703125 0.4921875,0.65625 0.9375,0.65625 0.65625,0 1.0078125,-0.69140625 1.0429688,-0.75 0.1171875,0.36328125 0.4804687,0.75 1.078125,0.75 1.0195312,0 1.59375,-1.27734376 1.59375,-1.53515626 0,-0.09375 -0.09375,-0.09375 -0.1289063,-0.09375 -0.082031,0 -0.1054687,0.035156 -0.1289062,0.1054688 -0.328125,1.06640621 -0.9960938,1.31249996 -1.3242188,1.31249996 -0.3867187,0 -0.5390625,-0.328125 -0.5390625,-0.65625 0,-0.22265625 0.058594,-0.44531246 0.1640625,-0.87890626 z m 0,0"
       style="fill:#000000;fill-opacity:1;fill-rule:nonzero;stroke:none"
       aria-label="x"
       transform="matrix(1.3333333,0,0,1.3333333,152.14,91.245333)" />
    <path
       id="path5"
       d="M 0,0 V 60.83044"
       style="fill:none;stroke:#000000;stroke-width:0.3985;stroke-linecap:butt;stroke-linejoin:miter;stroke-miterlimit:10;stroke-dasharray:none;stroke-opacity:1"
       transform="matrix(1.3333333,0,0,-1.3333333,47.084,95.938667)" />
    <path
       id="path6"
       d="M -2.07224,2.39104 C -1.69365,0.95639 -0.84999,0.27895 0,0 -0.84999,-0.27895 -1.69365,-0.95639 -2.07224,-2.39104"
       style="fill:none;stroke:#000000;stroke-width:0.3985;stroke-linecap:round;stroke-linejoin:round;stroke-miterlimit:10;stroke-dasharray:none;stroke-opacity:1"
       transform="matrix(0,-1.3333333,-1.3333333,0,47.084,14.56572)" />
    <path
       id="path7"
       d="m 4.8398516,-3.7974844 c 0.046875,-0.140625 0.046875,-0.1523437 0.046875,-0.2226562 0,-0.1875 -0.140625,-0.2695313 -0.2929688,-0.2695313 -0.1054687,0 -0.2578125,0.058594 -0.3515625,0.1992188 -0.023437,0.058594 -0.09375,0.3632812 -0.140625,0.5390625 -0.070312,0.2578125 -0.140625,0.5273437 -0.1992187,0.796875 l -0.4453125,1.79296872 c -0.035156,0.15234375 -0.46875,0.85546875 -1.125,0.85546875 -0.5039063,0 -0.6210938,-0.4453125 -0.6210938,-0.80859375 0,-0.45703122 0.1757813,-1.07812502 0.515625,-1.95703122 0.1523438,-0.4101563 0.1992188,-0.515625 0.1992188,-0.7148438 0,-0.4453125 -0.328125,-0.8203125 -0.8203125,-0.8203125 -0.94921879,0 -1.31250004,1.453125 -1.31250004,1.5351563 0,0.1054687 0.09375,0.1054687 0.1171875,0.1054687 0.09375,0 0.10546875,-0.023437 0.15234375,-0.1875 0.26953125,-0.9375 0.66796879,-1.2304687 1.00781249,-1.2304687 0.082031,0 0.2578125,0 0.2578125,0.3164062 0,0.2460938 -0.1054687,0.515625 -0.1757812,0.703125 -0.3984375,1.0546875 -0.5742188,1.6171875 -0.5742188,2.0859375 0,0.89062502 0.6210938,1.18359377 1.21875,1.18359377 0.3867188,0 0.7265625,-0.1640625 0.9960938,-0.4453125 -0.1289063,0.515625 -0.2460938,1.0078125 -0.6445313,1.53515623 -0.2578125,0.3398438 -0.6328125,0.6328125 -1.0898437,0.6328125 -0.140625,0 -0.59765629,-0.035156 -0.76171879,-0.421875 0.1640625,0 0.29296879,0 0.43359379,-0.1171875 0.09375,-0.09375 0.1992187,-0.2226562 0.1992187,-0.41015623 0,-0.31640625 -0.2695312,-0.3515625 -0.375,-0.3515625 -0.22265624,0 -0.55078124,0.1640625 -0.55078124,0.64453123 0,0.5039063 0.43359375,0.8671875 1.05468754,0.8671875 1.0195312,0 2.0507812,-0.9023437 2.3320312,-2.02734373 z m 0,0"
       style="fill:#000000;fill-opacity:1;fill-rule:nonzero;stroke:none"
       aria-label="y"
       transform="matrix(1.3333333,0,0,1.3333333,51.777333,15.868)" />
    <path
       id="path8"
       d="M 0,0 V 40.81955 H 61.22896 V 0 Z"
       style="fill:none;stroke:#000000;stroke-width:0.3985;stroke-linecap:butt;stroke-linejoin:miter;stroke-miterlimit:10;stroke-dasharray:none;stroke-opacity:1"
       transform="matrix(1.3333333,0,0,-1.3333333,47.084,95.938667)" />
    <path
       id="path9"
       d="m 4.5813203,-3.1869219 c 0,-0.796875 -0.046875,-1.59375 -0.3984375,-2.3320312 -0.4570312,-0.9609375 -1.2773437,-1.1132813 -1.6875,-1.1132813 -0.5976562,0 -1.3359375,0.2578125 -1.73437499,1.1835938 -0.328125,0.6914062 -0.375,1.4648437 -0.375,2.2617187 0,0.75 0.046875,1.640625 0.4453125,2.40234377 0.43359379,0.80859375 1.16015629,1.0078125 1.65234379,1.0078125 0.5390625,0 1.2890625,-0.2109375 1.734375,-1.16015625 C 4.5344453,-1.6283281 4.5813203,-2.4017656 4.5813203,-3.1869219 Z M 2.4836641,5.78125e-4 c -0.3867188,0 -0.984375,-0.246093755 -1.1601563,-1.207031225 -0.1054687,-0.5976563 -0.1054687,-1.5117188 -0.1054687,-2.0976563 0,-0.6445312 0,-1.3007812 0.082031,-1.8398437 0.1875,-1.1835938 0.9257813,-1.265625 1.1835938,-1.265625 0.328125,0 0.984375,0.1757812 1.171875,1.1601562 0.09375,0.5625 0.09375,1.3125 0.09375,1.9453125 0,0.75 0,1.4179688 -0.1054688,2.0625 C 3.4914766,-0.30410938 2.9289766,5.78125e-4 2.4836641,5.78125e-4 Z m 0,0"
       style="fill:#000000;fill-opacity:1;fill-rule:nonzero;stroke:none"
       aria-label="0"
       transform="matrix(1.3333333,0,0,1.3333333,43.762667,107.02267)" />
    <g
       id="g9"
       aria-label="φ=0"
       transform="matrix(1.3333333,0,0,1.3333333,64.578667,109.132)">
      <path
         id="path10"
         d="m 1.6988125,1.6998281 c -0.046875,0.1289063 -0.058594,0.140625 -0.058594,0.1992188 0,0.2109375 0.1875,0.2695312 0.2929687,0.2695312 0.046875,0 0.2695313,-0.023437 0.3632813,-0.2578125 0.035156,-0.082031 0.082031,-0.4101562 0.3515625,-1.81640623 0.09375,0.01171875 0.1640625,0.01171875 0.328125,0.01171875 1.6523437,0 3.1875,-1.55859372 3.1875,-3.12890622 0,-0.7851563 -0.3867188,-1.3828125 -1.1367188,-1.3828125 -1.4414062,0 -2.0390625,1.9335937 -2.6367187,3.87890622 -1.078125,-0.19921875 -1.6289063,-0.76171872 -1.6289063,-1.47656252 0,-0.28125 0.22265625,-1.3710937 0.8203125,-2.0625 0.082031,-0.082031 0.082031,-0.1054687 0.082031,-0.1289062 0,-0.035156 -0.023437,-0.09375 -0.1171875,-0.09375 -0.28125,0 -1.0429688,1.4414062 -1.0429688,2.390625 0,0.93749997 0.65625,1.66406247 1.7226563,1.92187497 z m 1.3710938,-2.16796873 c -0.082031,0 -0.1054688,0 -0.1757813,-0.0117188 -0.1289062,0 -0.140625,-0.0117188 -0.140625,-0.0351562 0,-0.0234375 0.1757813,-0.92578127 0.1992188,-1.07812497 0.3164062,-1.2773438 1.0898437,-2.2265625 1.9804687,-2.2265625 0.6796875,0 0.9492188,0.5273437 0.9492188,1.0078125 0,1.125 -1.2773438,2.34374997 -2.8125,2.34374997 z m 0,0"
         style="fill:#000000;fill-opacity:1;fill-rule:nonzero;stroke:none" />
      <path
         id="path11"
         d="m 16.127523,-3.2572031 c 0.152344,0 0.339844,0 0.339844,-0.1992188 0,-0.1992187 -0.1875,-0.1992187 -0.328125,-0.1992187 h -5.964844 c -0.140625,0 -0.3281246,0 -0.3281246,0.1992187 0,0.1992188 0.1874996,0.1992188 0.3398436,0.1992188 z m 0.01172,1.9335937 c 0.140625,0 0.328125,0 0.328125,-0.1992187 0,-0.1992188 -0.1875,-0.1992188 -0.339844,-0.1992188 h -5.941406 c -0.152344,0 -0.3398436,0 -0.3398436,0.1992188 0,0.1992187 0.1874996,0.1992187 0.3281246,0.1992187 z m 8.226563,-1.8632812 c 0,-0.796875 -0.04687,-1.59375 -0.398438,-2.3320313 -0.457031,-0.9609375 -1.277344,-1.1132812 -1.6875,-1.1132812 -0.597656,0 -1.335937,0.2578125 -1.734375,1.1835937 -0.328125,0.6914063 -0.375,1.4648438 -0.375,2.2617188 0,0.75 0.04687,1.640625 0.445313,2.40234372 0.433593,0.80859375 1.160156,1.0078125 1.652343,1.0078125 0.539063,0 1.289063,-0.2109375 1.734375,-1.16015625 0.316407,-0.69140627 0.363282,-1.46484377 0.363282,-2.24999997 z M 22.268148,6.09375e-4 c -0.386718,0 -0.984375,-0.246093755 -1.160156,-1.207031275 -0.105469,-0.5976562 -0.105469,-1.5117187 -0.105469,-2.0976562 0,-0.6445313 0,-1.3007813 0.08203,-1.8398438 0.1875,-1.1835937 0.925781,-1.265625 1.183593,-1.265625 0.328125,0 0.984375,0.1757813 1.171875,1.1601563 0.09375,0.5625 0.09375,1.3125 0.09375,1.9453125 0,0.75 0,1.4179687 -0.105468,2.0625 -0.152344,0.93749997 -0.714844,1.242187475 -1.160157,1.242187475 z m 0,0"
         style="fill:#000000;fill-opacity:1;fill-rule:nonzero;stroke:none" />
    </g>
    <g
       id="g11"
       aria-label="φ=0"
       transform="matrix(1.3333333,0,0,1.3333333,64.578667,34.297333)">
      <path
         id="path12"
         d="m 1.6988125,1.698875 c -0.046875,0.1289062 -0.058594,0.140625 -0.058594,0.1992187 0,0.2109375 0.1875,0.2695313 0.2929687,0.2695313 0.046875,0 0.2695313,-0.023437 0.3632813,-0.2578125 C 2.331625,1.8277812 2.3785,1.4996562 2.6480313,0.09340625 2.7417813,0.105125 2.8120938,0.105125 2.9761563,0.105125 c 1.6523437,0 3.1875,-1.5585938 3.1875,-3.1289063 0,-0.7851562 -0.3867188,-1.3828125 -1.1367188,-1.3828125 -1.4414062,0 -2.0390625,1.9335938 -2.6367187,3.8789063 -1.078125,-0.19921875 -1.6289063,-0.7617188 -1.6289063,-1.4765625 0,-0.28125 0.22265625,-1.3710938 0.8203125,-2.0625 0.082031,-0.082031 0.082031,-0.1054688 0.082031,-0.1289063 0,-0.035156 -0.023437,-0.09375 -0.1171875,-0.09375 -0.28125,0 -1.0429688,1.4414063 -1.0429688,2.390625 0,0.93750005 0.65625,1.66406255 1.7226563,1.92187505 z m 1.3710938,-2.16796875 c -0.082031,0 -0.1054688,0 -0.1757813,-0.0117188 -0.1289062,0 -0.140625,-0.0117188 -0.140625,-0.0351563 0,-0.0234375 0.1757813,-0.92578125 0.1992188,-1.07812505 0.3164062,-1.2773437 1.0898437,-2.2265625 1.9804687,-2.2265625 0.6796875,0 0.9492188,0.5273438 0.9492188,1.0078125 0,1.125 -1.2773438,2.34375005 -2.8125,2.34375015 z m 0,0"
         style="fill:#000000;fill-opacity:1;fill-rule:nonzero;stroke:none" />
      <path
         id="path13"
         d="m 16.127523,-3.2581563 c 0.152344,0 0.339844,0 0.339844,-0.1992187 0,-0.1992188 -0.1875,-0.1992188 -0.328125,-0.1992188 h -5.964844 c -0.140625,0 -0.3281246,0 -0.3281246,0.1992188 0,0.1992187 0.1874996,0.1992187 0.3398436,0.1992187 z m 0.01172,1.9335938 c 0.140625,0 0.328125,0 0.328125,-0.1992188 0,-0.1992187 -0.1875,-0.1992187 -0.339844,-0.1992187 h -5.941406 c -0.152344,0 -0.3398436,0 -0.3398436,0.1992187 0,0.1992188 0.1874996,0.1992188 0.3281246,0.1992188 z m 8.226563,-1.8632813 c 0,-0.796875 -0.04687,-1.59375 -0.398438,-2.3320312 -0.457031,-0.9609375 -1.277344,-1.1132813 -1.6875,-1.1132813 -0.597656,0 -1.335937,0.2578125 -1.734375,1.1835938 -0.328125,0.6914062 -0.375,1.4648437 -0.375,2.2617187 0,0.75 0.04687,1.640625 0.445313,2.4023438 0.433593,0.80859375 1.160156,1.0078125 1.652343,1.0078125 0.539063,0 1.289063,-0.2109375 1.734375,-1.16015625 C 24.31893,-1.62925 24.365805,-2.4026875 24.365806,-3.1878438 Z m -2.097657,3.18750005 c -0.386718,0 -0.984375,-0.24609375 -1.160156,-1.20703125 -0.105469,-0.5976563 -0.105469,-1.5117188 -0.105469,-2.0976563 0,-0.6445312 0,-1.3007812 0.08203,-1.8398437 0.1875,-1.1835938 0.925781,-1.265625 1.183593,-1.265625 0.328125,0 0.984375,0.1757812 1.171875,1.1601562 0.09375,0.5625 0.09375,1.3125 0.09375,1.9453125 0,0.75 0,1.4179688 -0.105468,2.0625 -0.152344,0.93750005 -0.714844,1.24218755 -1.160157,1.24218755 z m 0,0"
         style="fill:#000000;fill-opacity:1;fill-rule:nonzero;stroke:none" />
    </g>
    <g
       id="g13"
       aria-label="φ=0"
       transform="matrix(1.3333333,0,0,1.3333333,10.152,71.714667)">
      <path
         id="path14"
         d="m 1.6994766,1.6993516 c -0.046875,0.1289062 -0.058594,0.140625 -0.058594,0.1992187 0,0.2109375 0.1875,0.2695313 0.2929688,0.2695313 0.046875,0 0.2695312,-0.023437 0.3632812,-0.2578125 0.035156,-0.082031 0.082031,-0.4101563 0.3515625,-1.81640629 0.09375,0.01171875 0.1640625,0.01171875 0.328125,0.01171875 1.6523438,0 3.1875,-1.55859376 3.1875,-3.12890626 0,-0.7851562 -0.3867187,-1.3828125 -1.1367187,-1.3828125 -1.4414063,0 -2.0390625,1.9335938 -2.6367188,3.87890626 -1.078125,-0.19921875 -1.62890624,-0.76171876 -1.62890624,-1.47656246 0,-0.28125 0.22265625,-1.3710938 0.82031254,-2.0625 0.082031,-0.082031 0.082031,-0.1054688 0.082031,-0.1289063 0,-0.035156 -0.023437,-0.09375 -0.1171875,-0.09375 -0.28125,0 -1.04296874,1.4414063 -1.04296874,2.390625 0,0.93750001 0.65625004,1.66406251 1.72265624,1.92187501 z m 1.3710937,-2.16796879 c -0.082031,0 -0.1054687,0 -0.1757812,-0.0117188 -0.1289063,0 -0.140625,-0.0117188 -0.140625,-0.0351563 0,-0.0234375 0.1757812,-0.92578121 0.1992187,-1.07812501 0.3164063,-1.2773437 1.0898438,-2.2265625 1.9804688,-2.2265625 0.6796875,0 0.9492187,0.5273438 0.9492187,1.0078125 0,1.125 -1.2773437,2.34375001 -2.8125,2.34375011 z m 0,0"
         style="fill:#000000;fill-opacity:1;fill-rule:nonzero;stroke:none" />
      <path
         id="path15"
         d="m 16.128187,-3.2576797 c 0.152344,0 0.339844,0 0.339844,-0.1992187 0,-0.1992188 -0.1875,-0.1992188 -0.328125,-0.1992188 h -5.964844 c -0.140625,0 -0.3281245,0 -0.3281245,0.1992188 0,0.1992187 0.1874995,0.1992187 0.3398435,0.1992187 z m 0.01172,1.9335938 c 0.140625,0 0.328125,0 0.328125,-0.1992188 0,-0.1992187 -0.1875,-0.1992187 -0.339844,-0.1992187 h -5.941406 c -0.152344,0 -0.3398435,0 -0.3398435,0.1992187 0,0.1992188 0.1874995,0.1992188 0.3281245,0.1992188 z m 8.226563,-1.8632813 c 0,-0.796875 -0.04687,-1.59375 -0.398438,-2.3320312 -0.457031,-0.9609375 -1.277344,-1.1132813 -1.6875,-1.1132813 -0.597656,0 -1.335937,0.2578125 -1.734375,1.1835938 -0.328125,0.6914062 -0.375,1.4648437 -0.375,2.2617187 0,0.75 0.04687,1.640625 0.445313,2.40234376 0.433593,0.80859375 1.160156,1.0078125 1.652343,1.0078125 0.539063,0 1.289063,-0.2109375 1.734375,-1.16015625 C 24.319595,-1.6287734 24.36647,-2.4022109 24.36647,-3.1873672 Z M 22.268812,1.328125e-4 c -0.386718,0 -0.984375,-0.2460937525 -1.160156,-1.2070312125 -0.105469,-0.5976563 -0.105469,-1.5117188 -0.105469,-2.0976563 0,-0.6445312 0,-1.3007812 0.08203,-1.8398437 0.1875,-1.1835938 0.925781,-1.265625 1.183593,-1.265625 0.328125,0 0.984375,0.1757812 1.171875,1.1601562 0.09375,0.5625 0.09375,1.3125 0.09375,1.9453125 0,0.75 0,1.4179688 -0.105468,2.0625 -0.152344,0.93750001 -0.714844,1.2421875125 -1.160157,1.2421875125 z m 0,0"
         style="fill:#000000;fill-opacity:1;fill-rule:nonzero;stroke:none" />
    </g>
    <g
       id="g15"
       aria-label="φ=U"
       transform="matrix(1.3333333,0,0,1.3333333,130.67333,71.973333)">
      <path
         id="path16"
         d="M 1.698125,1.6987109 C 1.65125,1.8276172 1.639531,1.8393359 1.639531,1.8979297 c 0,0.2109375 0.1875,0.2695312 0.2929688,0.2695312 0.046875,0 0.2695312,-0.023437 0.3632812,-0.2578125 0.035156,-0.082031 0.082031,-0.4101562 0.3515625,-1.81640621 0.09375,0.01171875 0.1640625,0.01171875 0.328125,0.01171875 1.6523438,0 3.1875,-1.55859374 3.1875,-3.12890624 0,-0.7851563 -0.3867187,-1.3828125 -1.1367187,-1.3828125 -1.4414063,0 -2.0390625,1.9335937 -2.6367188,3.87890624 C 1.3114062,-0.72707031 0.760625,-1.2895703 0.760625,-2.0044141 c 0,-0.28125 0.22265625,-1.3710937 0.8203125,-2.0625 0.082031,-0.082031 0.082031,-0.1054687 0.082031,-0.1289062 0,-0.035156 -0.023437,-0.09375 -0.1171875,-0.09375 -0.28125,0 -1.0429687,1.4414062 -1.0429687,2.390625 0,0.93749999 0.65625,1.66406249 1.7226562,1.92187499 z m 1.3710937,-2.16796871 c -0.082031,0 -0.1054687,0 -0.1757812,-0.0117188 -0.1289063,0 -0.140625,-0.0117188 -0.140625,-0.0351563 0,-0.0234375 0.1757812,-0.92578129 0.1992187,-1.07812499 0.3164063,-1.2773438 1.0898438,-2.2265625 1.9804688,-2.2265625 0.6796875,0 0.9492187,0.5273437 0.9492187,1.0078125 0,1.125 -1.2773437,2.34374999 -2.8125,2.34375009 z m 0,0"
         style="fill:#000000;fill-opacity:1;fill-rule:nonzero;stroke:none" />
      <path
         id="path17"
         d="m 16.126836,-3.2583203 c 0.152344,0 0.339844,0 0.339844,-0.1992188 0,-0.1992187 -0.1875,-0.1992187 -0.328125,-0.1992187 h -5.964844 c -0.140625,0 -0.3281251,0 -0.3281251,0.1992187 0,0.1992188 0.1875001,0.1992188 0.3398441,0.1992188 z m 0.01172,1.9335937 c 0.140625,0 0.328125,0 0.328125,-0.1992187 0,-0.1992188 -0.1875,-0.1992188 -0.339844,-0.1992188 H 10.18543 c -0.152344,0 -0.3398441,0 -0.3398441,0.1992188 0,0.1992187 0.1875001,0.1992187 0.3281251,0.1992187 z m 0,0"
         style="fill:#000000;fill-opacity:1;fill-rule:nonzero;stroke:none" />
      <path
         id="path18"
         d="m 26.128789,-5.7544141 c 0.09375,-0.4101562 0.28125,-0.7148437 1.078125,-0.7382812 0.04687,0 0.164063,-0.011719 0.164063,-0.1992188 0,-0.011719 0,-0.1171875 -0.128907,-0.1171875 -0.328125,0 -0.679687,0.035156 -1.019531,0.035156 -0.339844,0 -0.703125,-0.035156 -1.03125,-0.035156 -0.05859,0 -0.175781,0 -0.175781,0.1992188 0,0.1171875 0.09375,0.1171875 0.175781,0.1171875 0.5625,0.011719 0.679688,0.2109375 0.679688,0.4335937 0,0.035156 -0.02344,0.1757813 -0.03516,0.2109375 l -0.890625,3.5507813 c -0.339843,1.33593749 -1.488281,2.20312499 -2.484375,2.20312499 -0.679687,0 -1.21875,-0.43359375 -1.21875,-1.28906249 0,-0.023437 0,-0.3398438 0.117188,-0.7734375 l 0.960937,-3.8789063 c 0.09375,-0.3632812 0.105469,-0.4570312 0.832032,-0.4570312 0.269531,0 0.339843,0 0.339843,-0.1992188 0,-0.1171875 -0.105468,-0.1171875 -0.140625,-0.1171875 -0.269531,0 -0.996093,0.035156 -1.265625,0.035156 -0.292968,0 -0.996093,-0.035156 -1.289062,-0.035156 -0.08203,0 -0.1875,0 -0.1875,0.1992188 0,0.1171875 0.09375,0.1171875 0.28125,0.1171875 0.01172,0 0.210937,0 0.375,0.011719 0.175781,0.023437 0.269531,0.035156 0.269531,0.1640625 0,0.058594 -0.105469,0.4804688 -0.175781,0.703125 l -0.210938,0.8789063 c -0.09375,0.3867187 -0.574218,2.2734375 -0.609375,2.4609375 -0.07031,0.28125 -0.07031,0.4335937 -0.07031,0.5742187 0,1.21875004 0.902344,1.92187504 1.957031,1.92187504 1.253906,0 2.484375,-1.125 2.8125,-2.44921874 z m 0,0"
         style="fill:#000000;fill-opacity:1;fill-rule:nonzero;stroke:none" />
    </g>
    <path
       id="path19"
       d="m 3.7140469,-3.7615469 c -0.1757813,-0.375 -0.46875,-0.6445312 -0.9140625,-0.6445312 -1.171875,0 -2.40234377,1.4648437 -2.40234377,2.9179687 0,0.93750002 0.55078125,1.59375002 1.32421877,1.59375002 0.1992187,0 0.703125,-0.03515625 1.3007812,-0.73828125 0.070312,0.41015625 0.421875,0.73828125 0.9023438,0.73828125 0.3515625,0 0.5742187,-0.22265625 0.7382812,-0.5390625 0.1640625,-0.36328125 0.2929688,-0.97265622 0.2929688,-0.99609372 0,-0.09375 -0.082031,-0.09375 -0.1171875,-0.09375 -0.09375,0 -0.1054688,0.035156 -0.140625,0.1757812 -0.1640625,0.64453127 -0.3515625,1.24218752 -0.75,1.24218752 -0.2695313,0 -0.3046875,-0.2578125 -0.3046875,-0.45703125 0,-0.22265625 0.023437,-0.3046875 0.1289062,-0.73828127 0.1171875,-0.421875 0.1289063,-0.5273437 0.2226563,-0.9023437 l 0.3515625,-1.3945313 c 0.070312,-0.28125 0.070312,-0.2929687 0.070312,-0.3398437 0,-0.1640625 -0.1171875,-0.2695313 -0.28125,-0.2695313 -0.2460938,0 -0.3867188,0.2226563 -0.4218745,0.4453125 z m -0.6445313,2.578125 c -0.046875,0.1757813 -0.046875,0.19921877 -0.1992187,0.36328127 -0.4453125,0.55078125 -0.84375,0.71484375 -1.125,0.71484375 -0.5039063,0 -0.6445313,-0.55078125 -0.6445313,-0.93750002 0,-0.5039062 0.328125,-1.7226562 0.5507813,-2.1796875 0.3046875,-0.5976562 0.7617187,-0.9609375 1.1601562,-0.9609375 0.6445313,0 0.7851563,0.8203125 0.7851563,0.8789063 0,0.058594 -0.023437,0.1171875 -0.035156,0.1640625 z m 0,0"
       style="fill:#000000;fill-opacity:1;fill-rule:nonzero;stroke:none"
       aria-label="a"
       transform="matrix(1.3333333,0,0,1.3333333,125.212,105.60133)" />
    <path
       id="path20"
       d="m 2.3791719,-6.8088438 c 0,0 0,-0.1054687 -0.1289063,-0.1054687 -0.2226562,0 -0.9492187,0.082031 -1.21875,0.1054687 -0.0703125,0 -0.18749997,0.011719 -0.18749997,0.1992188 0,0.1171875 0.09375,0.1171875 0.24609377,0.1171875 0.46875,0 0.4921875,0.070312 0.4921875,0.1640625 0,0.070312 -0.082031,0.4101562 -0.140625,0.6210937 l -0.80859377,3.2460938 c -0.12890625,0.5039062 -0.1640625,0.65625 -0.1640625,1.0078125 0,0.94921875 0.52734375,1.55859375 1.26562497,1.55859375 1.171875,0 2.4023438,-1.47656255 2.4023438,-2.91796875 0,-0.9023438 -0.5273438,-1.59375 -1.3242188,-1.59375 -0.4570312,0 -0.8671875,0.2929687 -1.171875,0.5976562 z m -0.9375,3.7734375 c 0.058594,-0.2226562 0.058594,-0.2460937 0.1523437,-0.3515625 0.4921875,-0.6445312 0.9375,-0.796875 1.1953125,-0.796875 0.3632813,0 0.6328125,0.2929688 0.6328125,0.9375 0,0.5859375 -0.328125,1.734375 -0.515625,2.109375 -0.328125,0.6679688 -0.7851562,1.03125005 -1.171875,1.03125005 -0.3398437,0 -0.6679687,-0.26953125 -0.6679687,-1.00781255 0,-0.1875 0,-0.3867187 0.1640625,-1.0078125 z m 0,0"
       style="fill:#000000;fill-opacity:1;fill-rule:nonzero;stroke:none"
       aria-label="b"
       transform="matrix(1.3333333,0,0,1.3333333,37.429333,46.125333)" />
  </g>
</svg>
