<?xml version="1.0" encoding="UTF-8" standalone="no"?>
<!-- Created with Inkscape (http://www.inkscape.org/) -->
<svg version="1.1" id="svg1" width="181.94667" height="110.13333" viewBox="0 0 181.94667 110.13333" sodipodi:docname="23-24-1-大学物理（下）-期末-题图2.pdf" xmlns:inkscape="http://www.inkscape.org/namespaces/inkscape" xmlns:sodipodi="http://sodipodi.sourceforge.net/DTD/sodipodi-0.dtd" xmlns="http://www.w3.org/2000/svg" xmlns:svg="http://www.w3.org/2000/svg">
  <defs id="defs1"/>
  <sodipodi:namedview id="namedview1" pagecolor="#ffffff" bordercolor="#000000" borderopacity="0.25" inkscape:showpageshadow="2" inkscape:pageopacity="0.0" inkscape:pagecheckerboard="0" inkscape:deskcolor="#d1d1d1">
    <inkscape:page x="0" y="0" inkscape:label="1" id="page1" width="181.94667" height="110.13333" margin="0" bleed="0"/>
  </sodipodi:namedview>
  <g id="g1" inkscape:groupmode="layer" inkscape:label="1">
    <path id="path1" d="M -14.17339,-14.17339 V 68.03217 H 121.89136 V -14.17339 Z" style="fill:#ffffff;fill-opacity:1;fill-rule:nonzero;stroke:#ffffff;stroke-width:0.3985;stroke-linecap:butt;stroke-linejoin:miter;stroke-miterlimit:10;stroke-dasharray:none;stroke-opacity:1" transform="matrix(1.3333333,0,0,-1.3333333,19.162667,90.970667)"/>
    <path id="path2" d="M 0,56.69362 V 0 h 90.7097 22.67754" style="fill:none;stroke:#000000;stroke-width:0.3985;stroke-linecap:butt;stroke-linejoin:miter;stroke-miterlimit:10;stroke-dasharray:none;stroke-opacity:1" transform="matrix(1.3333333,0,0,-1.3333333,19.162667,90.970667)"/>
    <g id="g2" aria-label="F(v)" transform="matrix(1.3333333,0,0,1.3333333,23.856,18.7)">
      <path id="path3" d="m 3.0230391,-3.2349609 h 0.9609375 c 0.75,0 0.8320312,0.1523437 0.8320312,0.4453125 0,0.070312 0,0.1875 -0.070312,0.4921875 -0.023437,0.046875 -0.035156,0.082031 -0.035156,0.1054687 0,0.082031 0.058594,0.1171875 0.1171875,0.1171875 0.1054687,0 0.1054687,-0.023437 0.1523437,-0.2109375 l 0.5507813,-2.15625 c 0.023437,-0.1054687 0.023437,-0.1289062 0.023437,-0.1640625 0,-0.011719 -0.011719,-0.1054687 -0.1171875,-0.1054687 -0.09375,0 -0.1054688,0.046875 -0.1523438,0.2109375 -0.1992187,0.7734375 -0.4335937,0.9492187 -1.2773437,0.9492187 H 3.0933516 l 0.6445312,-2.53125 c 0.082031,-0.3398437 0.09375,-0.3867187 0.5390625,-0.3867187 h 1.3125 c 1.21875,0 1.453125,0.328125 1.453125,1.1015625 0,0.2226562 0,0.2695312 -0.035156,0.5390625 -0.011719,0.1289062 -0.011719,0.140625 -0.011719,0.1757812 0,0.046875 0.023437,0.1171875 0.1171875,0.1171875 0.1054688,0 0.1171875,-0.058594 0.140625,-0.2460937 L 7.4527266,-6.5044922 C 7.4761641,-6.7740234 7.4292891,-6.7740234 7.1831953,-6.7740234 H 2.2964766 c -0.1992188,0 -0.2929688,0 -0.2929688,0.1992187 0,0.1054688 0.09375,0.1054688 0.28125,0.1054688 0.3632813,0 0.6445313,0 0.6445313,0.1875 0,0.035156 0,0.058594 -0.046875,0.234375 l -1.3242188,5.27343746 c -0.09375,0.38671875 -0.1171875,0.46875 -0.90234374,0.46875 -0.1640625,0 -0.28125,0 -0.28125,0.1875 0,0.1171875025 0.12890625,0.1171875025 0.15234375,0.1171875025 0.29296875,0 1.03124999,-0.0351562525 1.31249999,-0.0351562525 0.328125,0 1.1601563,0.0351562525 1.4882813,0.0351562525 0.09375,0 0.2109375,0 0.2109375,-0.1875000025 0,-0.0820313 -0.058594,-0.10546875 -0.058594,-0.1171875 -0.035156,0 -0.058594,0 -0.28125,0 -0.2226562,0 -0.2695312,0 -0.515625,-0.0234375 -0.2929687,-0.0351563 -0.328125,-0.0703125 -0.328125,-0.19921875 0,-0.0234375 0,-0.0820313 0.046875,-0.234375 z m 0,0" style="fill:#000000;fill-opacity:1;fill-rule:nonzero;stroke:none"/>
      <path id="path4" d="m 11.082609,2.3900391 c 0,-0.035156 0,-0.046875 -0.164062,-0.2226563 -1.2421876,-1.25390624 -1.5703126,-3.12890624 -1.5703126,-4.6640625 0,-1.7226562 0.3867187,-3.4570312 1.6054686,-4.7109375 0.128906,-0.1171875 0.128906,-0.1289062 0.128906,-0.1640625 0,-0.070312 -0.03516,-0.1054687 -0.09375,-0.1054687 -0.105468,0 -0.9960934,0.6796875 -1.5820309,1.9453125 -0.515625,1.1015625 -0.6328125,2.203125 -0.6328125,3.0351562 0,0.7851563 0.1171875,1.99218751 0.65625,3.11718751 0.5976564,1.21874999 1.4531254,1.87499999 1.5585934,1.87499999 0.05859,0 0.09375,-0.035156 0.09375,-0.1054687 z m 0,0" style="fill:#000000;fill-opacity:1;fill-rule:nonzero;stroke:none"/>
      <path id="path5" d="m 16.32968,-3.7037109 c 0,-0.5390625 -0.257813,-0.703125 -0.445313,-0.703125 -0.246094,0 -0.480469,0.2578125 -0.480469,0.4804687 0,0.1289063 0.04687,0.1875 0.152344,0.3046875 0.210938,0.1992188 0.339844,0.4570313 0.339844,0.8085938 0,0.421875 -0.609375,2.70703121 -1.769531,2.70703121 -0.503907,0 -0.738282,-0.3515625 -0.738282,-0.8671875 0,-0.56250001 0.269532,-1.28906251 0.574219,-2.12109371 0.07031,-0.1640625 0.128906,-0.3046875 0.128906,-0.4921875 0,-0.4453125 -0.328125,-0.8203125 -0.820312,-0.8203125 -0.9375,0 -1.3125,1.453125 -1.3125,1.5351562 0,0.1054688 0.09375,0.1054688 0.117187,0.1054688 0.09375,0 0.105469,-0.023437 0.152344,-0.1875 0.292969,-0.9960938 0.726563,-1.2304688 1.007813,-1.2304688 0.08203,0 0.257812,0 0.257812,0.3164063 0,0.2460937 -0.105469,0.515625 -0.175781,0.703125 -0.433594,1.1484375 -0.5625,1.6054687 -0.5625,2.0390625 0,1.07812496 0.867187,1.23046871 1.335937,1.23046871 1.664063,0 2.238282,-3.29296871 2.238282,-3.80859371 z m 0,0" style="fill:#000000;fill-opacity:1;fill-rule:nonzero;stroke:none"/>
      <path id="path6" d="m 19.733977,-2.4966797 c 0,-0.7734375 -0.117188,-1.9804687 -0.65625,-3.1054687 -0.597657,-1.21875 -1.464844,-1.875 -1.558594,-1.875 -0.05859,0 -0.105469,0.046875 -0.105469,0.1054687 0,0.035156 0,0.046875 0.199219,0.234375 0.972656,0.984375 1.535156,2.5664063 1.535156,4.640625 0,1.71093751 -0.363281,3.45703126 -1.59375,4.7226563 -0.140625,0.1171875 -0.140625,0.1289062 -0.140625,0.1640625 0,0.058594 0.04687,0.1054687 0.105469,0.1054687 0.09375,0 0.996094,-0.6796875 1.582031,-1.94531249 0.503906,-1.1015625 0.632813,-2.20312501 0.632813,-3.04687501 z m 0,0" style="fill:#000000;fill-opacity:1;fill-rule:nonzero;stroke:none"/>
    </g>
    <path id="path7" d="m 4.582125,-3.1885078 c 0,-0.796875 -0.046875,-1.59375 -0.3984375,-2.3320313 -0.4570313,-0.9609375 -1.2773438,-1.1132812 -1.6875,-1.1132812 -0.5976563,0 -1.3359375,0.2578125 -1.734375,1.1835937 -0.328125,0.6914063 -0.375,1.4648438 -0.375,2.2617188 0,0.75 0.046875,1.640625 0.4453125,2.40234374 0.4335937,0.80859375 1.1601562,1.0078125 1.6523437,1.0078125 0.5390625,0 1.2890625,-0.2109375 1.734375,-1.16015625 C 4.53525,-1.6299141 4.582125,-2.4033516 4.582125,-3.1885078 Z m -2.0976563,3.18749999 c -0.3867187,0 -0.984375,-0.24609375 -1.1601562,-1.20703129 -0.1054688,-0.5976562 -0.1054688,-1.5117187 -0.1054688,-2.0976562 0,-0.6445313 0,-1.3007813 0.082031,-1.8398438 0.1875,-1.1835937 0.9257812,-1.265625 1.1835937,-1.265625 0.328125,0 0.984375,0.1757813 1.171875,1.1601563 0.09375,0.5625 0.09375,1.3125 0.09375,1.9453125 0,0.75 0,1.4179687 -0.1054687,2.0625 -0.1523438,0.93749999 -0.7148438,1.24218749 -1.160156,1.24218749 z m 0,0" style="fill:#000000;fill-opacity:1;fill-rule:nonzero;stroke:none" aria-label="0" transform="matrix(1.3333333,0,0,1.3333333,7.828,104.224)"/>
    <g id="g7" aria-label="v&#xA;0" transform="matrix(1.3333333,0,0,1.3333333,133.90933,101.38267)">
      <path id="path8" d="m 4.6646797,-3.7030156 c 0,-0.5390625 -0.2578125,-0.703125 -0.4453125,-0.703125 -0.2460938,0 -0.4804688,0.2578125 -0.4804688,0.4804687 0,0.1289063 0.046875,0.1875 0.1523438,0.3046875 0.2109375,0.1992188 0.3398437,0.4570313 0.3398437,0.8085938 0,0.421875 -0.609375,2.70703123 -1.7695312,2.70703123 -0.5039063,0 -0.7382813,-0.3515625 -0.7382813,-0.8671875 0,-0.56250003 0.2695313,-1.28906253 0.5742188,-2.12109373 0.070312,-0.1640625 0.1289062,-0.3046875 0.1289062,-0.4921875 0,-0.4453125 -0.328125,-0.8203125 -0.8203125,-0.8203125 -0.93749996,0 -1.31249996,1.453125 -1.31249996,1.5351562 0,0.1054688 0.09375,0.1054688 0.1171875,0.1054688 0.09375,0 0.10546875,-0.023437 0.15234375,-0.1875 0.29296875,-0.9960938 0.72656251,-1.2304688 1.00781251,-1.2304688 0.082031,0 0.2578125,0 0.2578125,0.3164063 0,0.2460937 -0.1054688,0.515625 -0.1757813,0.703125 -0.4335937,1.1484375 -0.5625,1.6054687 -0.5625,2.0390625 0,1.07812498 0.8671875,1.23046873 1.3359375,1.23046873 1.6640625,0 2.2382813,-3.29296873 2.2382813,-3.80859373 z m 0,0" style="fill:#000000;fill-opacity:1;fill-rule:nonzero;stroke:none"/>
      <path id="path9" d="m 8.4263984,-0.7323125 c 0,-0.7617187 -0.09375,-1.3125 -0.4101562,-1.8046875 -0.2226563,-0.3164062 -0.6445313,-0.5976562 -1.2070313,-0.5976562 -1.6171875,0 -1.6171875,1.8984375 -1.6171875,2.4023437 0,0.50390625 0,2.3671875 1.6171875,2.3671875 1.6171875,0 1.6171875,-1.86328125 1.6171875,-2.3671875 z M 6.8092109,1.4356563 c -0.3164062,0 -0.75,-0.1875 -0.890625,-0.7617188 -0.09375,-0.41015625 -0.09375,-0.984375 -0.09375,-1.5 0,-0.5039062 0,-1.03125 0.1054688,-1.4179687 0.1523437,-0.5507813 0.5976562,-0.6914063 0.8789062,-0.6914063 0.375,0 0.7382813,0.2226563 0.8671875,0.6328125 0.1054688,0.375 0.1171875,0.8789063 0.1171875,1.4765625 0,0.515625 0,1.04296875 -0.09375,1.4765625 -0.140625,0.6328125 -0.609375,0.7851563 -0.890625,0.7851563 z m 0,0" style="fill:#000000;fill-opacity:1;fill-rule:nonzero;stroke:none"/>
    </g>
    <path id="path10" d="m 4.6631016,-3.7030156 c 0,-0.5390625 -0.2578125,-0.703125 -0.4453125,-0.703125 -0.2460938,0 -0.4804688,0.2578125 -0.4804688,0.4804687 0,0.1289063 0.046875,0.1875 0.1523438,0.3046875 0.2109375,0.1992188 0.3398437,0.4570313 0.3398437,0.8085938 0,0.421875 -0.609375,2.70703123 -1.7695312,2.70703123 -0.5039063,0 -0.7382813,-0.3515625 -0.7382813,-0.8671875 0,-0.56250003 0.2695313,-1.28906253 0.5742188,-2.12109373 0.070312,-0.1640625 0.1289062,-0.3046875 0.1289062,-0.4921875 0,-0.4453125 -0.328125,-0.8203125 -0.8203125,-0.8203125 -0.93749999,0 -1.31249999,1.453125 -1.31249999,1.5351562 0,0.1054688 0.09375,0.1054688 0.1171875,0.1054688 0.09375,0 0.10546875,-0.023437 0.15234375,-0.1875 0.29296875,-0.9960938 0.72656254,-1.2304688 1.00781254,-1.2304688 0.082031,0 0.2578125,0 0.2578125,0.3164063 0,0.2460937 -0.1054688,0.515625 -0.1757813,0.703125 -0.4335937,1.1484375 -0.5625,1.6054687 -0.5625,2.0390625 0,1.07812498 0.8671875,1.23046873 1.3359375,1.23046873 1.6640625,0 2.2382813,-3.29296873 2.2382813,-3.80859373 z m 0,0" style="fill:#000000;fill-opacity:1;fill-rule:nonzero;stroke:none" aria-label="v" transform="matrix(1.3333333,0,0,1.3333333,166.888,101.38267)"/>
    <path id="path11" d="m 0,0 3.77951,0.0627 3.77951,0.18902 3.77953,0.3149 3.77951,0.44118 3.77951,0.56662 3.77953,0.69293 3.7795,0.8188 3.77951,0.94508 3.77953,1.07097 3.77951,1.19684 3.77951,1.32269 3.77953,1.44858 3.77951,1.57486 3.77952,1.70075 3.77953,1.82704 3.77951,1.95247 3.77951,2.07878 3.77953,2.20465 3.7795,2.3305 3.77953,2.45684 3.77951,2.58267 3.77951,2.70856 3.77953,2.83442 3.77951,2.96071" style="fill:none;stroke:#bf0040;stroke-width:1.59404;stroke-linecap:butt;stroke-linejoin:miter;stroke-miterlimit:10;stroke-dasharray:none;stroke-opacity:1" transform="matrix(1.3333333,0,0,-1.3333333,19.162667,90.970667)"/>
    <path id="path12" d="m 90.7097,0 h 0.94464 0.94467 0.94468 0.94465 0.94467 0.94465 0.94467 0.94467 0.94465 0.94468 0.94465 0.94466 0.94467 0.94467 0.94464 0.94468 0.94467 0.94465 0.94468 0.94464 0.94466 0.94468 0.94466 0.94466" style="fill:none;stroke:#bf0040;stroke-width:1.59404;stroke-linecap:butt;stroke-linejoin:miter;stroke-miterlimit:10;stroke-dasharray:none;stroke-opacity:1" transform="matrix(1.3333333,0,0,-1.3333333,19.162667,90.970667)"/>
    <path id="path13" d="M 90.7097,0 V 36.28386" style="fill:none;stroke:#000000;stroke-width:0.3985;stroke-linecap:butt;stroke-linejoin:miter;stroke-miterlimit:10;stroke-dasharray:2.98883, 2.98883;stroke-dashoffset:0;stroke-opacity:1" transform="matrix(1.3333333,0,0,-1.3333333,19.162667,90.970667)"/>
    <path id="path14" d="m 92.1271,0 c 0,0.78282 -0.63458,1.4174 -1.4174,1.4174 -0.78284,0 -1.41742,-0.63458 -1.41742,-1.4174 0,-0.78282 0.63458,-1.4174 1.41742,-1.4174 0.78282,0 1.4174,0.63458 1.4174,1.4174 z" style="fill:#ffffff;fill-opacity:1;fill-rule:nonzero;stroke:#000000;stroke-width:0.3985;stroke-linecap:butt;stroke-linejoin:miter;stroke-miterlimit:10;stroke-dasharray:none;stroke-opacity:1" transform="matrix(1.3333333,0,0,-1.3333333,19.162667,90.970667)"/>
  </g>
</svg>