<?xml version="1.0" encoding="UTF-8" standalone="no"?>
<!-- Created with Inkscape (http://www.inkscape.org/) -->
<svg version="1.1" id="svg1" width="276.54666" height="315.81332" viewBox="0 0 276.54666 315.81332" sodipodi:docname="23-24-1-大学物理（下）-期末-题图3.pdf" xmlns:inkscape="http://www.inkscape.org/namespaces/inkscape" xmlns:sodipodi="http://sodipodi.sourceforge.net/DTD/sodipodi-0.dtd" xmlns="http://www.w3.org/2000/svg" xmlns:svg="http://www.w3.org/2000/svg">
  <defs id="defs1"/>
  <sodipodi:namedview id="namedview1" pagecolor="#ffffff" bordercolor="#000000" borderopacity="0.25" inkscape:showpageshadow="2" inkscape:pageopacity="0.0" inkscape:pagecheckerboard="0" inkscape:deskcolor="#d1d1d1">
    <inkscape:page x="0" y="0" inkscape:label="1" id="page1" width="276.54666" height="315.81332" margin="0" bleed="0"/>
  </sodipodi:namedview>
  <g id="g1" inkscape:groupmode="layer" inkscape:label="1">
    <path id="path1" d="M -49.84808,-139.42421 V 97.44206 h 207.41409 v -236.86627 z" style="fill:#ffffff;fill-opacity:1;fill-rule:nonzero;stroke:none" transform="matrix(1.3333333,0,0,-1.3333333,66.462667,129.91733)"/>
    <path id="path2" d="M -45.35489,-34.01616 56.327,42.24522" style="fill:none;stroke:#000000;stroke-width:0.3985;stroke-linecap:butt;stroke-linejoin:miter;stroke-miterlimit:10;stroke-dasharray:none;stroke-opacity:1" transform="matrix(1.3333333,0,0,-1.3333333,66.462667,129.91733)"/>
    <path id="path3" d="M -1.19551,1.59401 C -1.09587,0.99626 0,0.09961 0.29886,0 0,-0.09961 -1.09587,-0.99626 -1.19551,-1.59401" style="fill:none;stroke:#000000;stroke-width:0.31879;stroke-linecap:round;stroke-linejoin:round;stroke-miterlimit:10;stroke-dasharray:none;stroke-opacity:1" transform="matrix(1.0666267,-0.79998667,-0.79998667,-1.0666267,141.56531,73.590387)"/>
    <path id="path4" d="m 3.2921172,-3.4922266 v 0.1992188 l -0.023437,0.6679687 c -0.011719,0.28125 -0.046875,0.6328125 -0.1054688,1.0546875 -0.035156,0.4101563 -0.2109375,0.90234379 -0.515625,1.46484379 -0.2929687,0.57421875 -1.1015625,1.078125 -2.44921871,1.53515621 l 0.0234375,0.140625 C 0.83117969,1.4062109 1.3585234,1.2304297 1.7803984,1.0663672 2.2139922,0.90230469 2.6007109,0.63277344 2.9522734,0.28121094 c 0.3515625,-0.3515625 0.5976563,-0.7734375 0.7148438,-1.25390625 0.1171875,-0.48046879 0.1992187,-0.94921879 0.234375,-1.39453129 0.035156,-0.4570312 0.070312,-0.8320312 0.1054687,-1.125 h 1.5234375 v 3.96093754 c 0,0.29296875 0.046875,0.52734375 0.1523438,0.66796876 0.09375,0.1640625 0.5273437,0.2226562 1.3242187,0.2226562 0.8085938,-0.011719 1.3710938,-0.046875 1.6757813,-0.09375 0.3164062,-0.046875 0.515625,-0.1289062 0.6445312,-0.234375 0.1171875,-0.11718746 0.2226563,-0.29296871 0.328125,-0.53906246 -0.2226562,-0.09375 -0.3632812,-0.1875 -0.4335937,-0.31640625 -0.070312,-0.12890625 -0.09375,-0.29296875 -0.1171875,-0.52734375 0,-0.22265625 -0.011719,-0.41015625 -0.023437,-0.52734375 C 9.0694609,-1.0195703 9.0694609,-1.2187891 9.0694609,-1.5000391 h -0.140625 l -0.023437,0.328125 c -0.023437,0.26953129 -0.046875,0.53906254 -0.1054687,0.80859379 -0.035156,0.28125 -0.070312,0.4921875 -0.1054688,0.64453125 -0.023437,0.140625 -0.082031,0.234375 -0.1289062,0.28125 -0.058594,0.0585938 -0.1992188,0.09375 -0.4101563,0.1171875 -0.2109375,0.0234375 -0.5859375,0.0351563 -1.1367187,0.0234375 -0.4804688,0 -0.7734375,-0.046875 -0.84375,-0.1171875 -0.070312,-0.0703125 -0.1054688,-0.2578125 -0.1054688,-0.5625 V -3.4922266 h 3.3867188 c 0.046875,0 0.070312,-0.011719 0.082031,-0.035156 0.011719,-0.011719 -0.011719,-0.046875 -0.046875,-0.09375 l -0.6914062,-0.75 -0.515625,0.6328125 H 5.9991484 l 0.4804688,-0.5390625 c 0.2460937,-0.2695313 0.7265625,-0.8671875 1.40625,-1.7578125 l 0.2929687,-0.1171875 c 0.046875,-0.023437 0.082031,-0.046875 0.09375,-0.058594 0,-0.035156 -0.035156,-0.070312 -0.09375,-0.1171875 L 7.3468047,-6.8789453 c -0.1757813,0.5742187 -0.3515625,1.03125 -0.5390625,1.3828125 -0.1757813,0.3515625 -0.515625,0.9492187 -1.0195313,1.7578125 H 5.2139922 v -3.1289063 l 0.3632812,-0.234375 c 0.035156,-0.035156 0.058594,-0.046875 0.070312,-0.070312 0.011719,-0.035156 -0.035156,-0.058594 -0.1171875,-0.09375 l -0.9726562,-0.3984375 0.058594,1.2304688 v 2.6953125 h -3.316406 l -0.93750001,-0.011719 0.41015625,0.4570313 c 0.23437496,-0.1054688 0.41015626,-0.1757813 0.55078126,-0.1875 0.140625,-0.011719 0.28125,-0.011719 0.421875,-0.011719 z m -1.4648438,-3.09375 c 0.234375,0.2695313 0.4101563,0.4804688 0.5273438,0.6445313 0.1289062,0.1523437 0.2578125,0.3515625 0.375,0.5976562 0.140625,0.2460938 0.2226562,0.46875 0.2578125,0.6796875 0.046875,0.2109375 0.082031,0.3398438 0.1054687,0.375 0,0.023437 0.023437,0.058594 0.035156,0.070312 0.011719,0.011719 0.023437,0.023437 0.058594,0.035156 0.070312,0.023437 0.1640625,-0.035156 0.28125,-0.1757813 0.1171875,-0.1289062 0.1875,-0.2695312 0.1992188,-0.3984375 0.023437,-0.2695312 -0.1640625,-0.5859375 -0.5390625,-0.9375 -0.3867188,-0.3632812 -0.796875,-0.6914062 -1.2421875,-0.9960937 z m 8.4052736,0.6445313 0.351562,0.3984375 c 0.105469,-0.070312 0.1875,-0.1054688 0.257813,-0.1171875 0.08203,-0.011719 0.175781,-0.023437 0.304687,-0.023437 h 0.433594 l -0.210937,0.6914062 c -0.105469,0.3164063 -0.175782,0.515625 -0.199219,0.5859375 l -0.1875,0.4921875 c -0.09375,0.2460938 -0.164063,0.4101563 -0.222656,0.4921875 -0.05859,0.070312 -0.164063,0.1289063 -0.304688,0.1640625 l 0.574219,0.5390625 0.316406,-0.3515625 h 1.078125 v 1.6640625 c -0.726562,0.1523438 -1.441406,0.28125 -2.132812,0.3984375 l 0.46875,0.69140629 0.503906,-0.234375 c 0.08203,-0.046875 0.46875,-0.1875 1.160156,-0.421875 v 1.1015625 l -0.05859,1.68750001 c 0.234375,-0.046875 0.457032,-0.1171875 0.667969,-0.2460938 l -0.0586,-1.34765671 V -1.1953516 l 0.738282,-0.28125 0.375,-0.140625 c 0.04687,-0.011719 0.128906,-0.046875 0.222656,-0.09375 l -0.05859,-0.1289062 c -0.445312,0.1289062 -0.867187,0.234375 -1.277344,0.328125 v -1.5585938 h 1.277344 c 0.05859,0 0.09375,-0.023437 0.117188,-0.035156 0.01172,-0.046875 0,-0.082031 -0.05859,-0.1289063 l -0.574219,-0.6210937 -0.46875,0.5507812 h -0.292969 v -1.0195312 l 0.246094,-0.1640625 0.128906,-0.082031 -0.164062,-0.058594 -0.820313,-0.3984375 0.05859,1.1132812 v 0.609375 h -1.113281 l 0.410156,-1.1835937 c 0.04687,-0.1289063 0.164063,-0.5273438 0.351563,-1.1953125 h 2.179687 c 0.07031,0 0.128906,-0.011719 0.140625,-0.046875 0.02344,-0.023437 -0.01172,-0.082031 -0.08203,-0.1523438 l -0.609375,-0.5859375 -0.480469,0.5507813 h -1.066406 l 0.363281,-1.0898438 0.269531,-0.140625 c 0.04687,-0.035156 0.07031,-0.058594 0.07031,-0.070312 0,-0.011719 -0.01172,-0.035156 -0.05859,-0.058594 l -0.761719,-0.46875 -0.128906,0.65625 c -0.03516,0.1757812 -0.07031,0.3515625 -0.117187,0.5507812 -0.05859,0.1875 -0.105469,0.3984375 -0.175782,0.6210938 h -0.925781 z m 4.195312,7.5703125 c 0.05859,-0.011719 0.152344,-0.070312 0.304688,-0.1289063 l 0.175781,-0.082031 c 0.02344,-0.011719 0.05859,-0.046875 0.105469,-0.082031 V 0.56246094 h 3.351562 V 1.4296484 c 0.269532,-0.082031 0.480469,-0.1992187 0.667969,-0.328125 L 18.963016,-3.90625e-5 V -4.8867578 l 0.257812,-0.1992188 c 0,0 0.09375,-0.09375 0.09375,-0.09375 0,0 -0.09375,-0.070312 -0.09375,-0.070312 l -0.632812,-0.5273437 -0.339844,0.4921875 h -1.242188 v -1.78125 l 0.269532,-0.1875 c 0.08203,-0.046875 0.08203,-0.082031 0,-0.1171875 l -0.902344,-0.3632813 0.05859,1.6875 v 0.7617188 h -1.324219 l -0.679688,-0.4101563 0.04687,1.03125 V 0.15230469 Z M 15.013797,0.32808594 V -2.2851953 h 1.417969 v 2.61328124 z m 0,-2.84765624 v -2.5429688 h 1.417969 v 2.5429688 z m 1.992187,2.84765624 V -2.2851953 h 1.359375 v 2.61328124 z m 0,-2.84765624 v -2.5429688 h 1.359375 v 2.5429688 z m 0,0" style="fill:#000000;fill-opacity:1;fill-rule:nonzero;stroke:none" aria-label="光轴" transform="matrix(1.3333333,0,0,1.3333333,128.77067,66.113333)"/>
    <path id="path5" d="m 36.28424,-83.90672 101.6819,76.2614" style="fill:none;stroke:#000000;stroke-width:0.3985;stroke-linecap:butt;stroke-linejoin:miter;stroke-miterlimit:10;stroke-dasharray:none;stroke-opacity:1" transform="matrix(1.3333333,0,0,-1.3333333,66.462667,129.91733)"/>
    <path id="path6" d="M -1.19551,1.59401 C -1.09587,0.99626 0,0.09961 0.29886,0 0,-0.09961 -1.09587,-0.99626 -1.19551,-1.59401" style="fill:none;stroke:#000000;stroke-width:0.31879;stroke-linecap:round;stroke-linejoin:round;stroke-miterlimit:10;stroke-dasharray:none;stroke-opacity:1" transform="matrix(1.0666267,-0.79998667,-0.79998667,-1.0666267,250.41751,140.11112)"/>
    <path id="path7" d="m 0.56132031,-4.5807578 0.33984375,0.3867187 c 0.0820313,-0.023437 0.18750004,-0.070312 0.31640624,-0.09375 0.1289063,-0.035156 0.1992188,-0.046875 0.2226563,-0.046875 h 1.5820312 l -0.2578125,1.0429688 c -0.070312,0.328125 -0.1992187,0.703125 -0.3867187,1.1484375 -0.1875,0.4453125 -0.3984375,0.84375 -0.609375,1.17187499 -0.2109375,0.33984375 -0.3984375,0.609375 -0.5507813,0.796875 -0.1757812,0.19921875 -0.50390624,0.5390625 -1.00781249,1.0078125 l 0.0703125,0.09375 c 0.515625,-0.36328125 0.89062499,-0.64453125 1.13671879,-0.8671875 0.2226562,-0.22265625 0.46875,-0.4921875 0.7148437,-0.83203125 0.234375,-0.32812504 0.4335938,-0.64453124 0.5859375,-0.92578124 0.1523438,-0.2929688 0.2929688,-0.5976563 0.4335938,-0.9257813 0.1171875,-0.328125 0.2929687,-0.8320312 0.515625,-1.5 l 0.28125,-0.1757812 c 0.082031,-0.046875 0.140625,-0.082031 0.140625,-0.1054688 0.011719,-0.035156 -0.035156,-0.082031 -0.1289063,-0.1523437 l -0.6796875,-0.5390625 -0.4101562,0.5273437 -1.640625,0.011719 z M 2.8933516,0.78642969 c 0.6445312,0.09375 1.0195312,0.23437501 1.125,0.42187501 0.09375,0.1875 0.1640625,0.3632812 0.1992187,0.515625 0.421875,-0.1640625 0.6796875,-0.3046875 0.7851563,-0.4101563 0.082031,-0.082031 0.140625,-0.1992187 0.1992187,-0.33984371 0.035156,-0.1171875 0.058594,-0.2578125 0.058594,-0.41015625 l 0.011719,-5.53125004 0.3984375,1.4414063 c 0.070312,0.2460937 0.1757813,0.5742187 0.328125,0.9609375 0.1523438,0.3984375 0.3046875,0.703125 0.4453125,0.9492187 0.140625,0.2578125 0.3164063,0.515625 0.5273438,0.78515629 0.2109375,0.28125 0.4101562,0.515625 0.5742187,0.6796875 0.1757813,0.17578125 0.4570313,0.3984375 0.8320313,0.6796875 0.1875,-0.2109375 0.3398437,-0.33984375 0.4453125,-0.38671875 0.1054687,-0.046875 0.3632812,-0.05859375 0.7382812,-0.046875 l 0.023437,-0.1171875 c -0.4570312,-0.140625 -0.796875,-0.28125 -1.078125,-0.41015625 -0.2578125,-0.15234375 -0.515625,-0.328125 -0.7617187,-0.5390625 C 7.5222578,-1.1706016 7.2527266,-1.4752891 6.9363203,-1.8737266 6.6316328,-2.2487266 6.4089766,-2.5885703 6.2917891,-2.8463828 6.1746016,-3.1276328 6.0691328,-3.3620078 5.9753828,-3.5846641 l 0.6679688,-0.3867187 c 0.2695312,-0.1757813 0.8203125,-0.5390625 1.640625,-1.125 h 0.3867187 c 0.058594,0 0.09375,-0.011719 0.1171875,-0.046875 0.011719,-0.023437 -0.011719,-0.070312 -0.082031,-0.1289063 L 7.9089768,-5.9870078 7.522258,-5.4127891 c -0.046875,0.070312 -0.1757812,0.2109375 -0.3867187,0.4570313 -0.1992188,0.2226562 -0.3984375,0.4101562 -0.5507813,0.5742187 -0.1640625,0.140625 -0.375,0.3398438 -0.6679687,0.5625 L 5.6941328,-4.3229453 c -0.082031,-0.1640625 -0.2109375,-0.703125 -0.421875,-1.6054688 v -0.9726562 l 0.2695313,-0.1757813 c 0.070312,-0.058594 0.1054687,-0.09375 0.1054687,-0.1289062 0,-0.023437 -0.035156,-0.058594 -0.1171875,-0.09375 l -0.9140625,-0.3984375 0.070312,1.6171875 v 6.25781249 c 0,0.2578125 -0.035156,0.421875 -0.1054687,0.52734375 C 4.5105391,0.77471094 4.3581953,0.80986719 4.1472578,0.77471094 3.9128828,0.75127344 3.7136641,0.71611719 3.5261641,0.70439844 3.3503828,0.68096094 3.1394453,0.64580469 2.8933516,0.62236719 Z m 7.4208984,-3.89062499 0.375,0.4570312 0.292969,-0.1054687 c 0.164062,-0.070312 0.480469,-0.09375 0.960937,-0.09375 h 2.601563 v 2.71874999 l -0.07031,1.82812501 c 0.351563,-0.1054688 0.585938,-0.1992188 0.726563,-0.2695313 l -0.05859,-1.53515621 V -2.8463828 h 4.371094 c 0.08203,0 0.128906,-0.023437 0.152344,-0.046875 0.02344,-0.035156 -0.03516,-0.1054688 -0.140625,-0.1992188 l -0.738282,-0.6328125 -0.550781,0.6328125 h -3.09375 v -3.6328125 h 3.46875 c 0.08203,0 0.140625,-0.011719 0.152344,-0.023437 0,-0.035156 -0.03516,-0.082031 -0.128906,-0.1757812 l -0.738282,-0.65625 -0.539062,0.6328125 h -5.554688 l -0.820312,-0.023437 0.339844,0.421875 0.210937,-0.1054688 c 0.09375,-0.046875 0.375,-0.070312 0.832031,-0.070312 h 2.179688 v 3.6328125 h -3.421875 z m 1.546875,-2.9765625 c 0.351563,0.4570312 0.574219,0.796875 0.667969,1.0664062 0.09375,0.234375 0.164062,0.46875 0.210937,0.6679688 0.04687,0.2109375 0.07031,0.3867187 0.07031,0.5273437 0.01172,0.1289063 0.03516,0.2109375 0.07031,0.2460938 0.117188,0.09375 0.234375,0.082031 0.351563,-0.070312 0.09375,-0.140625 0.175781,-0.2460938 0.210937,-0.3046875 0.03516,-0.1054688 0.05859,-0.1992188 0.04687,-0.3164063 -0.01172,-0.1054687 -0.03516,-0.2226562 -0.105468,-0.3398437 -0.05859,-0.1054688 -0.152344,-0.2578125 -0.28125,-0.421875 -0.128907,-0.1757813 -0.269532,-0.328125 -0.386719,-0.46875 -0.140625,-0.1289063 -0.398438,-0.3632813 -0.761719,-0.6679688 z m 5.320313,-0.2695313 -0.152344,0.4570313 c -0.07031,0.2109375 -0.222656,0.5390625 -0.445313,0.9726562 -0.210937,0.4570313 -0.457031,0.9023438 -0.714843,1.3242188 l 0.117187,0.082031 c 0.457031,-0.5507812 0.996094,-1.2304687 1.617188,-2.0273437 l 0.292968,-0.058594 c 0.07031,0 0.117188,-0.011719 0.140625,-0.046875 0,-0.035156 -0.03516,-0.09375 -0.140625,-0.1757812 z m 0,0" style="fill:#000000;fill-opacity:1;fill-rule:nonzero;stroke:none" aria-label="水平" transform="matrix(1.3333333,0,0,1.3333333,237.62267,154.70533)"/>
    <path id="path8" d="M 0,-85.04044 V 84.58215" style="fill:none;stroke:#000000;stroke-width:0.3985;stroke-linecap:butt;stroke-linejoin:miter;stroke-miterlimit:10;stroke-dasharray:none;stroke-opacity:1" transform="matrix(1.3333333,0,0,-1.3333333,66.462667,129.91733)"/>
    <path id="path9" d="M -1.19551,1.59401 C -1.09587,0.99626 0,0.09961 0.29886,0 0,-0.09961 -1.09587,-0.99626 -1.19551,-1.59401" style="fill:none;stroke:#000000;stroke-width:0.31879;stroke-linecap:round;stroke-linejoin:round;stroke-miterlimit:10;stroke-dasharray:none;stroke-opacity:1" transform="matrix(0,-1.3333333,-1.3333333,0,66.462667,17.141133)"/>
    <path id="path10" d="m 1.1019062,-5.096375 -0.046875,0.3046875 c -0.011719,0.140625 -0.0585937,0.328125 -0.14062495,0.5507812 -0.0820313,0.234375 -0.2109375,0.4335938 -0.38671875,0.609375 -0.17578125,0.1640625 -0.26953125,0.2929688 -0.26953125,0.3632813 -0.0117187,0.058594 0.0117188,0.1171875 0.0585938,0.1757812 0.046875,0.070312 0.1171875,0.1054688 0.22265625,0.1171875 0.09375,0.011719 0.2109375,-0.035156 0.33984375,-0.1171875 C 1.019875,-3.1627808 1.1019063,-3.3034063 1.1605,-3.4909063 1.195656,-3.690125 1.230812,-3.877625 1.230812,-4.0416875 1.254249,-4.3112188 1.265968,-4.5221563 1.254249,-4.6393438 1.24253,-4.7799688 1.230812,-4.9205938 1.219093,-5.0846563 Z m 1.4296875,-0.3867188 v -1.40625 l 0.2695313,-0.1875 C 2.848,-7.1002813 2.8714375,-7.1354375 2.8597187,-7.1471563 2.848,-7.1823125 2.801125,-7.2174688 2.6956562,-7.252625 l -0.8203125,-0.2578125 0.070312,1.6523437 V 0.0364375 L 1.8753437,1.7005 C 2.1214375,1.6301875 2.3675312,1.5012812 2.613625,1.3020625 L 2.5315937,0.09503125 V -5.283875 L 2.75425,-5.1198125 c 0.070312,0.046875 0.140625,0.140625 0.234375,0.28125 0.1054687,0.1289062 0.1640625,0.234375 0.1992187,0.3164062 0.035156,0.070312 0.09375,0.1757813 0.1523438,0.3164063 0.058594,0.140625 0.1054687,0.2226562 0.1523437,0.2460937 0.023437,0.011719 0.058594,0.023437 0.070312,0.023437 0.058594,0.011719 0.1054688,-0.023437 0.1757813,-0.082031 0.070312,-0.082031 0.1171875,-0.1757813 0.1523437,-0.2929688 0.023437,-0.070312 0.035156,-0.1523437 0.035156,-0.2226562 C 3.9144062,-4.6041875 3.87925,-4.7096563 3.7855,-4.8502813 3.69175,-4.9909063 3.2815937,-5.2018438 2.5315937,-5.4830938 Z m 2.6953125,3.1640625 -0.046875,0.3398438 c -0.046875,0.2929687 -0.1171875,0.5859375 -0.2109375,0.8789062 -0.082031,0.28125005 -0.2226562,0.60937505 -0.421875,0.96093755 -0.1875,0.3515625 -0.4570312,0.6796875 -0.8320312,0.99609375 -0.3632813,0.3046875 -0.7382813,0.5859375 -1.125,0.84375 l 0.082031,0.1289062 C 3.3987812,1.4309687 3.9964375,1.0208125 4.4534687,0.5989375 4.9105,0.1770625 5.2151875,-0.2448125 5.37925,-0.67840625 5.5433125,-1.1002813 5.6370625,-1.440125 5.6839375,-1.6862188 c 0.058594,-0.234375 0.09375,-0.4453125 0.1289062,-0.6328125 h 0.2929688 l 0.070312,0.3515625 c 0.058594,0.3046875 0.1640625,0.6679688 0.3164062,1.10156255 0.140625,0.43359375 0.421875,0.83203125 0.796875,1.23046875 0.3984375,0.38671875 0.796875,0.7382812 1.2304688,1.0664062 L 8.7308125,1.23175 C 8.7776875,1.184875 8.8714375,1.1497187 9.0237812,1.1145625 9.176125,1.0794062 9.363625,1.0676875 9.5745625,1.0794062 L 9.6097187,0.9505 C 8.9300312,0.763 8.3440937,0.4583125 7.8519062,0.059875 7.3714375,-0.3385625 7.019875,-0.72528125 6.8089375,-1.112 6.6097187,-1.4987188 6.4808125,-1.7565313 6.4339375,-1.908875 6.3870625,-2.0495 6.3401875,-2.190125 6.3050312,-2.3190313 h 3.0820313 c 0.1875,0 0.28125,-0.011719 0.28125,-0.035156 C 9.6800312,-2.3893438 9.644875,-2.4362188 9.551125,-2.51825 L 8.9534687,-3.0690313 8.519875,-2.565125 H 8.2972187 l 0.058594,-2.53125 0.2929687,-0.1992188 c 0.082031,-0.046875 0.1171875,-0.09375 0.1171875,-0.1171875 0.011719,-0.023437 -0.046875,-0.070312 -0.1640625,-0.1640625 L 8.0276875,-6.0104375 7.62925,-5.5768438 H 6.0003437 l 0.011719,-0.5859375 c 0,-0.1171875 0.023437,-0.3984375 0.058594,-0.84375 L 6.293313,-7.1471563 C 6.363625,-7.20575 6.4105,-7.2291875 6.4105,-7.2291875 c 0,-0.023437 -0.070312,-0.046875 -0.1992188,-0.1054688 L 5.4026875,-7.6745 5.4495625,-6.9479375 C 5.473,-6.737 5.4612812,-6.2799688 5.4144062,-5.5768438 H 4.44175 L 3.5745625,-5.612 4.019875,-5.190125 C 4.25425,-5.283875 4.5355,-5.3424688 4.863625,-5.3424688 h 0.5507812 l -0.046875,0.6210938 -0.070312,1.5820312 -0.023437,0.5742188 H 4.019875 l -1.0664063,-0.035156 0.421875,0.4453125 0.234375,-0.082031 c 0.140625,-0.058594 0.4101563,-0.082031 0.8320313,-0.082031 z m 0.609375,-0.2460937 0.046875,-0.5039063 0.082031,-1.7226562 c 0.011719,-0.1289063 0.023437,-0.3046875 0.035156,-0.5507813 H 7.769875 L 7.699563,-2.565125 Z m 4.3945308,-3.375 0.351563,0.3984375 c 0.105469,-0.070312 0.1875,-0.1054688 0.257812,-0.1171875 0.08203,-0.011719 0.175782,-0.023437 0.304688,-0.023437 h 0.433594 l -0.210938,0.6914062 c -0.105469,0.3164063 -0.175781,0.515625 -0.199219,0.5859375 l -0.1875,0.4921875 c -0.09375,0.2460938 -0.164062,0.4101563 -0.222656,0.4921875 -0.05859,0.070312 -0.164062,0.1289063 -0.304687,0.1640625 l 0.574218,0.5390625 0.316407,-0.3515625 h 1.078125 v 1.6640625 c -0.726563,0.1523438 -1.441407,0.28125 -2.132813,0.3984375 l 0.46875,0.6914063 0.503906,-0.234375 c 0.08203,-0.046875 0.46875,-0.1875 1.160157,-0.421875 V 0.130188 l -0.05859,1.6875 C 12.598,1.7708125 12.820656,1.7005 13.031594,1.5715937 L 12.973,0.2239375 v -1.4179688 l 0.738281,-0.28125 0.375,-0.140625 c 0.04687,-0.011719 0.128906,-0.046875 0.222656,-0.09375 l -0.05859,-0.1289062 c -0.445313,0.1289062 -0.867188,0.234375 -1.277344,0.328125 v -1.5585938 h 1.277344 c 0.05859,0 0.09375,-0.023437 0.117187,-0.035156 0.01172,-0.046875 0,-0.082031 -0.05859,-0.1289063 l -0.574218,-0.6210937 -0.46875,0.5507812 H 12.973 V -4.3229375 L 13.219094,-4.487 13.348,-4.5690313 l -0.164063,-0.058594 -0.820312,-0.3984375 0.05859,1.1132812 v 0.609375 H 11.308937 L 11.719094,-4.487 c 0.04687,-0.1289063 0.164062,-0.5273438 0.351562,-1.1953125 h 2.179688 c 0.07031,0 0.128906,-0.011719 0.140625,-0.046875 0.02344,-0.023437 -0.01172,-0.082031 -0.08203,-0.1523438 l -0.609375,-0.5859375 -0.480468,0.5507813 h -1.066407 l 0.363282,-1.0898438 0.269531,-0.140625 c 0.04687,-0.035156 0.07031,-0.058594 0.07031,-0.070312 0,-0.011719 -0.01172,-0.035156 -0.05859,-0.058594 l -0.761719,-0.46875 -0.128906,0.65625 c -0.03516,0.1757812 -0.07031,0.3515625 -0.117188,0.5507812 -0.05859,0.1875 -0.105469,0.3984375 -0.175781,0.6210938 h -0.925781 z m 4.195313,7.5703125 c 0.05859,-0.011719 0.152344,-0.070312 0.304687,-0.1289063 L 14.906594,1.41925 c 0.02344,-0.011719 0.05859,-0.046875 0.105468,-0.082031 V 0.56378125 h 3.351563 V 1.4309687 C 18.633156,1.3489375 18.844094,1.23175 19.031594,1.1028437 L 18.961281,0.00128125 V -4.8854375 l 0.257813,-0.1992188 c 0,0 0.09375,-0.09375 0.09375,-0.09375 0,0 -0.09375,-0.070312 -0.09375,-0.070312 L 18.586281,-5.7760625 18.246437,-5.283875 H 17.00425 v -1.78125 l 0.269531,-0.1875 c 0.08203,-0.046875 0.08203,-0.082031 0,-0.1171875 l -0.902344,-0.3632813 0.05859,1.6875 v 0.7617188 h -1.324219 l -0.679687,-0.4101563 0.04687,1.03125 V 0.153625 Z M 15.012062,0.32940625 V -2.283875 h 1.417969 v 2.61328125 z m 0,-2.84765625 v -2.5429688 h 1.417969 V -2.51825 Z M 17.00425,0.32940625 V -2.283875 h 1.359375 v 2.61328125 z m 0,-2.84765625 v -2.5429688 h 1.359375 V -2.51825 Z m 0,0" style="fill:#000000;fill-opacity:1;fill-rule:nonzero;stroke:none" aria-label="快轴" transform="matrix(1.3333333,0,0,1.3333333,35.202667,20.482667)"/>
    <path id="path11" d="M 81.63913,-134.931 V 34.69159" style="fill:none;stroke:#000000;stroke-width:0.3985;stroke-linecap:butt;stroke-linejoin:miter;stroke-miterlimit:10;stroke-dasharray:none;stroke-opacity:1" transform="matrix(1.3333333,0,0,-1.3333333,66.462667,129.91733)"/>
    <path id="path12" d="M -1.19551,1.59401 C -1.09587,0.99626 0,0.09961 0.29886,0 0,-0.09961 -1.09587,-0.99626 -1.19551,-1.59401" style="fill:none;stroke:#000000;stroke-width:0.31879;stroke-linecap:round;stroke-linejoin:round;stroke-miterlimit:10;stroke-dasharray:none;stroke-opacity:1" transform="matrix(0,-1.3333333,-1.3333333,0,175.31484,83.66188)"/>
    <path id="path13" d="M 0,0 152.6818,-93.30553" style="fill:none;stroke:#000000;stroke-width:0.3985;stroke-linecap:butt;stroke-linejoin:miter;stroke-miterlimit:10;stroke-dasharray:none;stroke-opacity:1" transform="matrix(1.3333333,0,0,-1.3333333,66.462667,129.91733)"/>
    <path id="path14" d="M -1.19551,1.59401 C -1.09587,0.99626 0,0.09961 0.29886,0 0,-0.09961 -1.09587,-0.99626 -1.19551,-1.59401" style="fill:none;stroke:#000000;stroke-width:0.31879;stroke-linecap:round;stroke-linejoin:round;stroke-miterlimit:10;stroke-dasharray:none;stroke-opacity:1" transform="matrix(1.13764,0.69522667,0.69522667,-1.13764,270.0384,254.32468)"/>
    <path id="path15" d="M -27.78017,-56.40996 V 28.63048 L 17.5747,62.64664 M -17.5747,-62.64664 V 22.3938 l 45.35487,34.01616 v -85.04044 z" style="fill:none;stroke:#000000;stroke-width:0.3985;stroke-linecap:butt;stroke-linejoin:miter;stroke-miterlimit:10;stroke-dasharray:none;stroke-opacity:1" transform="matrix(1.3333333,0,0,-1.3333333,66.462667,129.91733)"/>
    <path id="path16" d="m -27.78017,-56.40996 10.20547,-6.23668" style="fill:none;stroke:#000000;stroke-width:0.3985;stroke-linecap:butt;stroke-linejoin:miter;stroke-miterlimit:10;stroke-dasharray:none;stroke-opacity:1" transform="matrix(1.3333333,0,0,-1.3333333,66.462667,129.91733)"/>
    <path id="path17" d="M -27.78017,28.63048 -17.5747,22.3938" style="fill:none;stroke:#000000;stroke-width:0.3985;stroke-linecap:butt;stroke-linejoin:miter;stroke-miterlimit:10;stroke-dasharray:none;stroke-opacity:1" transform="matrix(1.3333333,0,0,-1.3333333,66.462667,129.91733)"/>
    <path id="path18" d="M 17.5747,62.64664 27.78017,56.40996" style="fill:none;stroke:#000000;stroke-width:0.3985;stroke-linecap:butt;stroke-linejoin:miter;stroke-miterlimit:10;stroke-dasharray:none;stroke-opacity:1" transform="matrix(1.3333333,0,0,-1.3333333,66.462667,129.91733)"/>
    <path id="path19" d="M 17.5747,62.64664 27.78017,56.40996" style="fill:none;stroke:#000000;stroke-width:0.3985;stroke-linecap:butt;stroke-linejoin:miter;stroke-miterlimit:10;stroke-dasharray:none;stroke-opacity:1" transform="matrix(1.3333333,0,0,-1.3333333,66.462667,129.91733)"/>
    <path id="path20" d="M 92.71121,-4.83817 C 83.93347,5.32681 69.576,-5.2064 60.64357,-28.36401 54.86626,-43.34198 52.5551,-60.6973 54.58318,-73.8808 c 1.52253,-9.8969 5.34895,-16.4653 10.61554,-18.21643 m 39.11785,59.21475 c 0,23.48355 -10.15287,34.90555 -22.67744,25.51215 -12.52455,-9.39343 -22.67744,-36.04475 -22.67744,-59.52831 0,-23.48356 10.15289,-34.90556 22.67744,-25.51214 12.52457,9.39342 22.67744,36.04474 22.67744,59.5283 z" style="fill:none;stroke:#000000;stroke-width:0.3985;stroke-linecap:butt;stroke-linejoin:miter;stroke-miterlimit:10;stroke-dasharray:none;stroke-opacity:1" transform="matrix(1.3333333,0,0,-1.3333333,66.462667,129.91733)"/>
    <path id="path21" d="M 45.35509,-94.1114 136.06487,16.44109" style="fill:none;stroke:#000000;stroke-width:0.3985;stroke-linecap:butt;stroke-linejoin:miter;stroke-miterlimit:10;stroke-dasharray:2.98883, 2.98883;stroke-dashoffset:0;stroke-opacity:1" transform="matrix(1.3333333,0,0,-1.3333333,66.462667,129.91733)"/>
    <path id="path22" d="m 3.0229219,-3.1537578 h 1.6875 c 1.4179687,0 2.8007812,-1.03125 2.8007812,-2.1445313 0,-0.7734375 -0.65625,-1.5117187 -1.96875,-1.5117187 H 2.3197969 c -0.1875,0 -0.2929688,0 -0.2929688,0.1992187 0,0.1171875 0.082031,0.1171875 0.28125,0.1171875 0.1289063,0 0.3164063,0.011719 0.4335938,0.011719 0.1523437,0.023437 0.2109375,0.058594 0.2109375,0.1640625 0,0.035156 0,0.070312 -0.035156,0.1875 l -1.3359375,5.35546874 c -0.09375,0.38671875 -0.1171875,0.46875 -0.90234372,0.46875 -0.17578125,0 -0.28125,0 -0.28125,0.1875 0,0.1171875 0.1171875,0.1171875 0.15234375,0.1171875 0.28125,0 0.98437497,-0.03515625 1.26562497,-0.03515625 0.2109375,0 0.421875,0.01171875 0.6328125,0.01171875 0.2226563,0 0.4453125,0.0234375 0.6445313,0.0234375 0.070312,0 0.1992187,0 0.1992187,-0.19921875 0,-0.10546875 -0.082031,-0.10546875 -0.2695312,-0.10546875 -0.375,0 -0.65625,0 -0.65625,-0.1875 0,-0.0585938 0.023437,-0.10546875 0.035156,-0.1640625 z m 0.7148437,-2.9648438 c 0.082031,-0.3515625 0.1054688,-0.375 0.5390625,-0.375 h 0.9492188 c 0.8320312,0 1.359375,0.2695313 1.359375,0.9492188 0,0.3984375 -0.1992188,1.2539062 -0.5859375,1.6054687 -0.5039063,0.4453125 -1.1015625,0.5273438 -1.5351563,0.5273438 h -1.40625 z m 0,0" style="fill:#000000;fill-opacity:1;fill-rule:nonzero;stroke:none" aria-label="P" transform="matrix(1.3333333,0,0,1.3333333,242.696,103.30267)"/>
  </g>
</svg>