<?xml version="1.0" encoding="UTF-8" standalone="no"?>
<!-- Created with Inkscape (http://www.inkscape.org/) -->

<svg
   version="1.1"
   id="svg1"
   width="269.23999"
   height="115.14667"
   viewBox="0 0 269.23999 115.14667"
   sodipodi:docname="24-25-2-编译原理与技术-期中-解答1.pdf"
   xmlns:inkscape="http://www.inkscape.org/namespaces/inkscape"
   xmlns:sodipodi="http://sodipodi.sourceforge.net/DTD/sodipodi-0.dtd"
   xmlns="http://www.w3.org/2000/svg"
   xmlns:svg="http://www.w3.org/2000/svg">
  <defs
     id="defs1" />
  <sodipodi:namedview
     id="namedview1"
     pagecolor="#ffffff"
     bordercolor="#000000"
     borderopacity="0.25"
     inkscape:showpageshadow="2"
     inkscape:pageopacity="0.0"
     inkscape:pagecheckerboard="0"
     inkscape:deskcolor="#d1d1d1">
    <inkscape:page
       x="0"
       y="0"
       inkscape:label="1"
       id="page1"
       width="269.23999"
       height="115.14667"
       margin="0"
       bleed="0" />
  </sodipodi:namedview>
  <g
     id="g1"
     inkscape:groupmode="layer"
     inkscape:label="1">
    <path
       id="path1"
       d="M 9.20801,0 C 9.20801,5.0855 5.0855,9.20801 0,9.20801 -5.0855,9.20801 -9.20801,5.0855 -9.20801,0 c 0,-5.0855 4.12251,-9.20801 9.20801,-9.20801 5.0855,0 9.20801,4.12251 9.20801,9.20801 z"
       style="fill:none;stroke:#000000;stroke-width:0.3985;stroke-linecap:butt;stroke-linejoin:miter;stroke-miterlimit:10;stroke-dasharray:none;stroke-opacity:1"
       transform="matrix(1.3333333,0,0,-1.3333333,75.856,57.574667)" />
    <path
       id="path2"
       d="m 4.9697969,-1.8525313 c 0,-0.9960937 -0.65625,-1.8164062 -1.4882813,-2.015625 L 2.2041719,-4.1728438 C 1.5830781,-4.3251875 1.1963594,-4.86425 1.1963594,-5.4384688 c 0,-0.703125 0.5390625,-1.3007812 1.3125,-1.3007812 1.6640625,0 1.8867187,1.6289062 1.9453125,2.0742187 0.011719,0.058594 0.011719,0.1171875 0.1171875,0.1171875 0.1289062,0 0.1289062,-0.046875 0.1289062,-0.234375 V -6.786125 c 0,-0.1640625 0,-0.234375 -0.1054687,-0.234375 -0.070312,0 -0.082031,0.011719 -0.1523438,0.1289062 l -0.3515625,0.5625 C 3.7979219,-6.6103438 3.3877656,-7.0205 2.4971406,-7.0205 c -1.1015625,0 -1.93359372,0.8789062 -1.93359372,1.9335937 0,0.8203125 0.52734372,1.546875 1.30078122,1.8164063 0.1054688,0.046875 0.6210938,0.1640625 1.3125,0.328125 0.2695313,0.070312 0.5742188,0.140625 0.84375,0.515625 0.2109375,0.2578125 0.3164063,0.5859375 0.3164063,0.9140625 0,0.703125 -0.5039063,1.41796875 -1.3359375,1.41796875 -0.2929688,0 -1.0429688,-0.046875 -1.5703125,-0.5390625 C 0.84479688,-1.161125 0.82135938,-1.8056563 0.80964063,-2.1572188 c -0.0117188,-0.1054687 -0.09375,-0.1054687 -0.1171875,-0.1054687 -0.12890625,0 -0.12890625,0.070312 -0.12890625,0.2460937 v 1.99218755 c 0,0.17578125 0,0.24609375 0.10546875,0.24609375 0.0703125,0 0.0820313,-0.0234375 0.15234375,-0.12890625 0,0 0.0234375,-0.046875 0.35156252,-0.57421875 0.3164062,0.33984375 0.9492187,0.703125 1.8398437,0.703125 1.1601563,0 1.9570313,-0.984375 1.9570313,-2.0742188 z m 0,0"
       style="fill:#000000;fill-opacity:1;fill-rule:nonzero;stroke:none"
       aria-label="S"
       transform="matrix(1.3333333,0,0,1.3333333,72.162667,62.110667)" />
    <path
       id="path3"
       d="m 66.56494,0 c 0,5.45183 -4.41948,9.8713 -9.87131,9.8713 -5.45184,0 -9.87132,-4.41947 -9.87132,-9.8713 0,-5.45183 4.41948,-9.8713 9.87132,-9.8713 5.45183,0 9.87131,4.41947 9.87131,9.8713 z"
       style="fill:none;stroke:#000000;stroke-width:0.3985;stroke-linecap:butt;stroke-linejoin:miter;stroke-miterlimit:10;stroke-dasharray:none;stroke-opacity:1"
       transform="matrix(1.3333333,0,0,-1.3333333,75.856,57.574667)" />
    <path
       id="path4"
       d="m 7.1353516,0.00102344 v -0.3046875 H 6.9595703 c -0.5976562,0 -0.7382812,-0.0703125 -0.84375,-0.3984375 l -2.15625,-6.23437504 c -0.046875,-0.1289062 -0.070312,-0.1992187 -0.2226562,-0.1992187 -0.1640625,0 -0.1875,0.058594 -0.2460938,0.1992187 l -2.0625,5.96484379 c -0.1757812,0.50390625 -0.57421874,0.65625 -1.11328124,0.66796875 v 0.3046875 L 1.3345703,-0.03413281 2.4830078,0.00102344 v -0.3046875 c -0.5039062,0 -0.75,-0.2578125 -0.75,-0.515625 0,-0.0234375 0.011719,-0.12890625 0.023437,-0.140625 L 2.2134766,-2.2724141 h 2.4609375 l 0.5273437,1.52343754 c 0.011719,0.046875 0.023437,0.10546875 0.023437,0.140625 0,0.3046875 -0.5507812,0.3046875 -0.8203125,0.3046875 v 0.3046875 c 0.351563,-0.03515625 1.054688,-0.03515625 1.429688,-0.03515625 z M 4.5572266,-2.5771016 H 2.3189453 l 1.1132813,-3.234375 z m 0,0"
       style="fill:#000000;fill-opacity:1;fill-rule:nonzero;stroke:none"
       aria-label="A"
       transform="matrix(1.3333333,0,0,1.3333333,146.46667,62.330667)" />
    <path
       id="path5"
       d="m 122.96597,0 c 0,5.29022 -4.28848,9.5787 -9.5787,9.5787 -5.29024,0 -9.57871,-4.28848 -9.57871,-9.5787 0,-5.29022 4.28847,-9.5787 9.57871,-9.5787 5.29022,0 9.5787,4.28848 9.5787,9.5787 z"
       style="fill:none;stroke:#000000;stroke-width:1.39478;stroke-linecap:butt;stroke-linejoin:miter;stroke-miterlimit:10;stroke-dasharray:none;stroke-opacity:1"
       transform="matrix(1.3333333,0,0,-1.3333333,75.856,57.574667)" />
    <path
       id="path6"
       d="m 122.96597,0 c 0,5.29022 -4.28848,9.5787 -9.5787,9.5787 -5.29024,0 -9.57871,-4.28848 -9.57871,-9.5787 0,-5.29022 4.28847,-9.5787 9.57871,-9.5787 5.29022,0 9.5787,4.28848 9.5787,9.5787 z"
       style="fill:none;stroke:#ffffff;stroke-width:0.59776;stroke-linecap:butt;stroke-linejoin:miter;stroke-miterlimit:10;stroke-dasharray:none;stroke-opacity:1"
       transform="matrix(1.3333333,0,0,-1.3333333,75.856,57.574667)" />
    <path
       id="path7"
       d="m 6.4804219,-1.8290938 c 0,-0.8671875 -0.8085938,-1.6054687 -1.921875,-1.7226562 0.9726562,-0.1992188 1.6523437,-0.8320313 1.6523437,-1.5703125 0,-0.8671875 -0.9140625,-1.6875 -2.203125,-1.6875 H 0.36323438 v 0.3164062 h 0.234375 c 0.76171872,0 0.78515622,0.1054688 0.78515622,0.46875 v 5.25000005 c 0,0.3515625 -0.023437,0.46875 -0.78515622,0.46875 h -0.234375 v 0.3046875 H 4.2655781 c 1.3242188,0 2.2148438,-0.890625 2.2148438,-1.82812505 z M 5.2499531,-5.1220625 c 0,0.6328125 -0.4921875,1.4765625 -1.59375,1.4765625 H 2.2147969 v -2.4492188 c 0,-0.328125 0.011719,-0.3984375 0.4804687,-0.3984375 h 1.2421875 c 0.9609375,0 1.3125,0.84375 1.3125,1.3710938 z m 0.234375,3.2929687 c 0,0.703125 -0.515625,1.52343755 -1.5351562,1.52343755 H 2.6952656 c -0.46875,0 -0.4804687,-0.0703125 -0.4804687,-0.3984375 V -3.4228438 h 1.875 c 0.984375,0 1.3945312,0.9257813 1.3945312,1.59375 z m 0,0"
       style="fill:#000000;fill-opacity:1;fill-rule:nonzero;stroke:none"
       aria-label="B"
       transform="matrix(1.3333333,0,0,1.3333333,222.336,62.110667)" />
    <path
       id="path8"
       d="M -56.69363,0 H -9.80577"
       style="fill:none;stroke:#000000;stroke-width:0.3985;stroke-linecap:butt;stroke-linejoin:miter;stroke-miterlimit:10;stroke-dasharray:none;stroke-opacity:1"
       transform="matrix(1.3333333,0,0,-1.3333333,75.856,57.574667)" />
    <path
       id="path9"
       d="M -2.07224,2.39104 C -1.69365,0.95639 -0.84999,0.27895 0,0 -0.84999,-0.27895 -1.69365,-0.95639 -2.07224,-2.39104"
       style="fill:none;stroke:#000000;stroke-width:0.3985;stroke-linecap:round;stroke-linejoin:round;stroke-miterlimit:10;stroke-dasharray:none;stroke-opacity:1"
       transform="matrix(1.3333333,0,0,-1.3333333,63.047307,57.574667)" />
    <path
       id="path10"
       d="m 4.9686797,-1.8511797 c 0,-0.9960937 -0.65625,-1.8164062 -1.4882813,-2.015625 L 2.2030547,-4.1714922 c -0.6210938,-0.1523437 -1.0078125,-0.6914062 -1.0078125,-1.265625 0,-0.703125 0.5390625,-1.3007812 1.3125,-1.3007812 1.6640625,0 1.8867187,1.6289062 1.9453125,2.0742187 0.011719,0.058594 0.011719,0.1171875 0.1171875,0.1171875 0.1289062,0 0.1289062,-0.046875 0.1289062,-0.234375 v -2.0039062 c 0,-0.1640625 0,-0.234375 -0.1054687,-0.234375 -0.070312,0 -0.082031,0.011719 -0.1523438,0.1289062 l -0.3515625,0.5625 c -0.2929687,-0.28125 -0.703125,-0.6914062 -1.59375,-0.6914062 -1.1015625,0 -1.93359371,0.8789062 -1.93359371,1.9335937 0,0.8203125 0.52734371,1.546875 1.30078121,1.8164063 0.1054688,0.046875 0.6210938,0.1640625 1.3125,0.328125 0.2695313,0.070312 0.5742188,0.140625 0.84375,0.515625 0.2109375,0.2578125 0.3164063,0.5859375 0.3164063,0.9140625 0,0.70312496 -0.5039063,1.41796871 -1.3359375,1.41796871 -0.2929688,0 -1.0429688,-0.046875 -1.5703125,-0.5390625 C 0.84367969,-1.1597734 0.82024219,-1.8043047 0.80852344,-2.1558672 c -0.0117188,-0.1054687 -0.09375,-0.1054687 -0.1171875,-0.1054687 -0.12890625,0 -0.12890625,0.070312 -0.12890625,0.2460937 v 1.99218751 c 0,0.17578125 0,0.24609375 0.10546875,0.24609375 0.0703125,0 0.0820313,-0.0234375 0.15234375,-0.12890625 0,0 0.0234375,-0.046875 0.35156251,-0.57421875 0.3164062,0.33984375 0.9492187,0.703125 1.8398437,0.703125 1.1601563,0 1.9570313,-0.984375 1.9570313,-2.07421876 z m 3.8759766,0.6210938 V -1.8043047 H 8.5985625 v 0.5507813 c 0,0.73828121 -0.3046875,1.11328121 -0.6679687,1.11328121 -0.6679688,0 -0.6679688,-0.90234371 -0.6679688,-1.07812501 v -2.765625 H 8.6923125 V -4.2886797 H 7.262625 V -6.1285234 H 7.0165313 c -0.011719,0.8203125 -0.3164063,1.8867187 -1.2890625,1.921875 v 0.2226562 h 0.84375 v 2.7539063 c 0,1.21874996 0.9257812,1.33593746 1.2890625,1.33593746 0.703125,0 0.984375,-0.703125 0.984375,-1.33593746 z m 5.3876957,0.33984371 V -1.4410234 h -0.257813 v 0.55078121 c 0,0.5859375 -0.246094,0.64453125 -0.351562,0.64453125 -0.328125,0 -0.375,-0.45703125 -0.375,-0.50390625 V -2.7418047 c 0,-0.4101562 0,-0.8085937 -0.351563,-1.171875 -0.386719,-0.3867187 -0.890625,-0.5507812 -1.371094,-0.5507812 -0.808593,0 -1.5,0.46875 -1.5,1.125 0,0.3046875 0.199219,0.46875 0.457032,0.46875 0.28125,0 0.457031,-0.1992188 0.457031,-0.4570313 0,-0.1171875 -0.04687,-0.4453125 -0.503906,-0.4570312 0.269531,-0.3515625 0.75,-0.4570313 1.078125,-0.4570313 0.480468,0 1.054687,0.3867188 1.054687,1.2773438 v 0.3632812 c -0.515625,0.035156 -1.207031,0.058594 -1.839844,0.3632813 -0.7499997,0.3398437 -0.9960934,0.8554687 -0.9960934,1.28906246 0,0.80859375 0.9726564,1.0546875 1.5937504,1.0546875 0.65625,0 1.113281,-0.3984375 1.3125,-0.8671875 0.03516,0.3984375 0.304687,0.8203125 0.773437,0.8203125 0.210938,0 0.820313,-0.140625 0.820313,-0.94921875 z M 12.568289,-1.3941484 c 0,0.94921871 -0.726562,1.28906246 -1.171875,1.28906246 -0.480469,0 -0.890625,-0.3515625 -0.890625,-0.85546875 0,-0.53906251 0.410156,-1.37109371 2.0625,-1.42968751 z m 5.449219,-2.4023438 c 0,-0.3164062 -0.304688,-0.609375 -0.726563,-0.609375 -0.738281,0 -1.089843,0.6679688 -1.230468,1.1015625 v -1.1015625 l -1.382813,0.1171875 v 0.3046875 c 0.691406,0 0.773438,0.070312 0.773438,0.5625 v 2.66015626 c 0,0.45703125 -0.105469,0.45703125 -0.773438,0.45703125 V 3.828125e-4 L 15.814383,-0.03477344 c 0.398437,0 0.867187,0 1.265625,0.0351562525 V -0.30430469 H 16.86907 c -0.738281,0 -0.761718,-0.1171875 -0.761718,-0.46875 V -2.3082109 c 0,-0.984375 0.421875,-1.875 1.183593,-1.875 0.05859,0 0.08203,0 0.105469,0.011719 -0.03516,0.011719 -0.234375,0.1289063 -0.234375,0.3867188 0,0.28125 0.210938,0.4335937 0.433594,0.4335937 0.175781,0 0.421875,-0.1289062 0.421875,-0.4453128 z m 3.588867,2.5664063 v -0.5742188 h -0.246094 v 0.5507813 c 0,0.73828121 -0.304687,1.11328121 -0.667969,1.11328121 -0.667968,0 -0.667968,-0.90234371 -0.667968,-1.07812501 v -2.765625 h 1.429687 V -4.2886797 H 20.024344 V -6.1285234 H 19.77825 c -0.01172,0.8203125 -0.316406,1.8867187 -1.289063,1.921875 v 0.2226562 h 0.84375 v 2.7539063 c 0,1.21874996 0.925782,1.33593746 1.289063,1.33593746 0.703125,0 0.984375,-0.703125 0.984375,-1.33593746 z m 0,0"
       style="fill:#000000;fill-opacity:1;fill-rule:nonzero;stroke:none"
       aria-label="Start"
       transform="matrix(1.3333333,0,0,1.3333333,17.004,52.589333)" />
    <path
       id="path11"
       d="M 9.40727,0 H 46.22456"
       style="fill:none;stroke:#000000;stroke-width:0.3985;stroke-linecap:butt;stroke-linejoin:miter;stroke-miterlimit:10;stroke-dasharray:none;stroke-opacity:1"
       transform="matrix(1.3333333,0,0,-1.3333333,75.856,57.574667)" />
    <path
       id="path12"
       d="M -2.07224,2.39104 C -1.69365,0.95639 -0.84999,0.27895 0,0 -0.84999,-0.27895 -1.69365,-0.95639 -2.07224,-2.39104"
       style="fill:none;stroke:#000000;stroke-width:0.3985;stroke-linecap:round;stroke-linejoin:round;stroke-miterlimit:10;stroke-dasharray:none;stroke-opacity:1"
       transform="matrix(1.3333333,0,0,-1.3333333,137.75441,57.574667)" />
    <path
       id="path13"
       d="m 4.1709141,0.00110937 v -0.3046875 H 3.8545078 c -0.9023437,0 -0.9257812,-0.1171875 -0.9257812,-0.48046875 V -6.3738906 c 0,-0.234375 0,-0.2578125 -0.234375,-0.2578125 -0.609375,0.6328125 -1.4882813,0.6328125 -1.80468754,0.6328125 v 0.3164062 c 0.19921874,0 0.78515624,0 1.30078124,-0.2578125 v 5.15625002 c 0,0.3515625 -0.035156,0.48046875 -0.9257812,0.48046875 H 0.94825781 v 0.3046875 C 1.2998203,-0.03404688 2.1552891,-0.03404688 2.5537266,-0.03404688 c 0.3984375,0 1.265625,0 1.6171875,0.03515625 z m 0,0"
       style="fill:#000000;fill-opacity:1;fill-rule:nonzero;stroke:none"
       aria-label="1"
       transform="matrix(1.3333333,0,0,1.3333333,109.888,52.881333)" />
    <path
       id="path14"
       d="M 51.65851,8.72122 C 39.27283,30.17427 73.80344,30.2908 61.92747,9.07079"
       style="fill:none;stroke:#000000;stroke-width:0.3985;stroke-linecap:butt;stroke-linejoin:miter;stroke-miterlimit:10;stroke-dasharray:none;stroke-opacity:1"
       transform="matrix(1.3333333,0,0,-1.3333333,75.856,57.574667)" />
    <path
       id="path15"
       d="M -2.07224,2.39104 C -1.69365,0.95639 -0.84999,0.27895 0,0 -0.84999,-0.27895 -1.69365,-0.95639 -2.07224,-2.39104"
       style="fill:none;stroke:#000000;stroke-width:0.3985;stroke-linecap:round;stroke-linejoin:round;stroke-miterlimit:10;stroke-dasharray:none;stroke-opacity:1"
       transform="matrix(-0.66664,1.15468,1.15468,0.66664,158.29383,45.716333)" />
    <path
       id="path16"
       d="M 4.170625,6.953125e-4 V -0.30399219 H 3.8542188 c -0.9023438,0 -0.9257813,-0.1171875 -0.9257813,-0.48046875 V -6.3743047 c 0,-0.234375 0,-0.2578125 -0.234375,-0.2578125 -0.609375,0.6328125 -1.4882812,0.6328125 -1.8046875,0.6328125 v 0.3164063 c 0.1992188,0 0.7851563,0 1.3007813,-0.2578125 v 5.15624996 c 0,0.3515625 -0.035156,0.48046875 -0.9257813,0.48046875 H 0.94796875 V 6.953125e-4 C 1.2995313,-0.03446094 2.155,-0.03446094 2.5534375,-0.03446094 c 0.3984375,0 1.265625,0 1.6171875,0.0351562525 z m 0,0"
       style="fill:#000000;fill-opacity:1;fill-rule:nonzero;stroke:none"
       aria-label="1"
       transform="matrix(1.3333333,0,0,1.3333333,148.12667,19.682667)" />
    <path
       id="path17"
       d="m 66.1569,3.44408 c 13.86931,5.04789 23.86591,4.99498 37.66561,0.03601"
       style="fill:none;stroke:#000000;stroke-width:0.3985;stroke-linecap:butt;stroke-linejoin:miter;stroke-miterlimit:10;stroke-dasharray:none;stroke-opacity:1"
       transform="matrix(1.3333333,0,0,-1.3333333,75.856,57.574667)" />
    <path
       id="path18"
       d="M -2.07224,2.39104 C -1.69365,0.95639 -0.84999,0.27895 0,0 -0.84999,-0.27895 -1.69365,-0.95639 -2.07224,-2.39104"
       style="fill:none;stroke:#000000;stroke-width:0.3985;stroke-linecap:round;stroke-linejoin:round;stroke-miterlimit:10;stroke-dasharray:none;stroke-opacity:1"
       transform="matrix(1.2529333,0.456,0.456,-1.2529333,214.53829,53.025147)" />
    <path
       id="path19"
       d="m 4.5821328,-3.1889375 c 0,-0.796875 -0.046875,-1.59375 -0.3984375,-2.3320313 -0.4570312,-0.9609375 -1.2773437,-1.1132812 -1.6875,-1.1132812 -0.5976562,0 -1.3359375,0.2578125 -1.73437499,1.1835937 -0.328125,0.6914063 -0.375,1.4648438 -0.375,2.2617188 0,0.75 0.046875,1.640625 0.4453125,2.40234375 C 1.2657266,0.022 1.9922891,0.22121875 2.4844766,0.22121875 c 0.5390625,0 1.2890625,-0.2109375 1.734375,-1.16015625 0.3164062,-0.6914063 0.3632812,-1.4648438 0.3632812,-2.25 z M 3.7501016,-3.306125 c 0,0.75 0,1.4179687 -0.1054688,2.0625 -0.1523437,0.9375 -0.7148437,1.2421875 -1.1601562,1.2421875 -0.3867188,0 -0.984375,-0.24609375 -1.1601563,-1.2070313 C 1.2188516,-1.806125 1.2188516,-2.7201875 1.2188516,-3.306125 c 0,-0.6445313 0,-1.3007813 0.082031,-1.8398438 0.1875,-1.1835937 0.9257813,-1.265625 1.1835938,-1.265625 0.328125,0 0.984375,0.1757813 1.171875,1.1601563 0.09375,0.5625 0.09375,1.3125 0.09375,1.9453125 z m 0,0"
       style="fill:#000000;fill-opacity:1;fill-rule:nonzero;stroke:none"
       aria-label="0"
       transform="matrix(1.3333333,0,0,1.3333333,186.10533,42.970667)" />
    <path
       id="path20"
       d="M 104.19894,-3.34401 C 90.32962,-8.39189 80.33296,-8.53554 66.53323,-3.58011"
       style="fill:none;stroke:#000000;stroke-width:0.3985;stroke-linecap:butt;stroke-linejoin:miter;stroke-miterlimit:10;stroke-dasharray:none;stroke-opacity:1"
       transform="matrix(1.3333333,0,0,-1.3333333,75.856,57.574667)" />
    <path
       id="path21"
       d="M -2.07224,2.39104 C -1.69365,0.95639 -0.84999,0.27895 0,0 -0.84999,-0.27895 -1.69365,-0.95639 -2.07224,-2.39104"
       style="fill:none;stroke:#000000;stroke-width:0.3985;stroke-linecap:round;stroke-linejoin:round;stroke-miterlimit:10;stroke-dasharray:none;stroke-opacity:1"
       transform="matrix(-1.2529333,-0.456,-0.456,1.2529333,164.31484,62.2576)" />
    <path
       id="path22"
       d="m 4.1719766,7.8125e-4 v -0.3046875 H 3.8555703 c -0.9023437,0 -0.9257812,-0.1171875 -0.9257812,-0.48046875 v -5.5898437 c 0,-0.234375 0,-0.2578125 -0.234375,-0.2578125 -0.609375,0.6328125 -1.4882813,0.6328125 -1.80468754,0.6328125 v 0.3164062 c 0.19921874,0 0.78515624,0 1.30078124,-0.2578125 v 5.15625 c 0,0.3515625 -0.035156,0.48046875 -0.9257812,0.48046875 H 0.94932031 V 7.8125e-4 C 1.3008828,-0.034375 2.1563516,-0.034375 2.5547891,-0.034375 c 0.3984375,0 1.265625,0 1.6171875,0.03515625 z m 0,0"
       style="fill:#000000;fill-opacity:1;fill-rule:nonzero;stroke:none"
       aria-label="1"
       transform="matrix(1.3333333,0,0,1.3333333,186.10533,80.733333)" />
    <path
       id="path23"
       d="m 118.27608,8.46782 c 19.85818,34.39589 19.92512,-50.86954 0.20085,-17.28062"
       style="fill:none;stroke:#000000;stroke-width:0.3985;stroke-linecap:butt;stroke-linejoin:miter;stroke-miterlimit:10;stroke-dasharray:none;stroke-opacity:1"
       transform="matrix(1.3333333,0,0,-1.3333333,75.856,57.574667)" />
    <path
       id="path24"
       d="M -2.07224,2.39104 C -1.69365,0.95639 -0.84999,0.27895 0,0 -0.84999,-0.27895 -1.69365,-0.95639 -2.07224,-2.39104"
       style="fill:none;stroke:#000000;stroke-width:0.3985;stroke-linecap:round;stroke-linejoin:round;stroke-miterlimit:10;stroke-dasharray:none;stroke-opacity:1"
       transform="matrix(-0.66664,-1.15468,-1.15468,0.66664,233.69027,69.095133)" />
    <path
       id="path25"
       d="m 4.5818672,-3.1878281 c 0,-0.796875 -0.046875,-1.59375 -0.3984375,-2.3320313 -0.4570313,-0.9609375 -1.2773438,-1.1132812 -1.6875,-1.1132812 -0.5976563,0 -1.3359375,0.2578125 -1.73437501,1.1835937 -0.328125,0.6914063 -0.375,1.4648438 -0.375,2.2617188 0,0.75 0.046875,1.640625 0.4453125,2.40234372 0.43359371,0.80859375 1.16015621,1.0078125 1.65234371,1.0078125 0.5390625,0 1.2890625,-0.2109375 1.734375,-1.16015625 C 4.5349922,-1.6292344 4.5818672,-2.4026719 4.5818672,-3.1878281 Z M 3.7498359,-3.3050156 c 0,0.75 0,1.4179687 -0.1054687,2.0625 -0.1523438,0.93749997 -0.7148438,1.242187475 -1.1601563,1.242187475 -0.3867187,0 -0.984375,-0.246093755 -1.1601562,-1.207031275 -0.1054688,-0.5976562 -0.1054688,-1.5117187 -0.1054688,-2.0976562 0,-0.6445313 0,-1.3007813 0.082031,-1.8398438 0.1875,-1.1835937 0.9257812,-1.265625 1.1835937,-1.265625 0.328125,0 0.984375,0.1757813 1.171875,1.1601563 0.09375,0.5625 0.09375,1.3125 0.09375,1.9453125 z m 0,0"
       style="fill:#000000;fill-opacity:1;fill-rule:nonzero;stroke:none"
       aria-label="0"
       transform="matrix(1.3333333,0,0,1.3333333,258.176,61.852)" />
  </g>
</svg>
