<svg viewBox="0 0 360.071629921 345.458721824" width="360.071629921pt" height="345.458721824pt" xmlns="http://www.w3.org/2000/svg" xmlns:xlink="http://www.w3.org/1999/xlink" xmlns:h5="http://www.w3.org/1999/xhtml"><path fill="#ffffff" fill-rule="nonzero" d="M 0 0v 345.458721824h 360.071629921v -345.458721824Z "/><g><path fill="none" stroke="#000000" stroke-width="1" stroke-linecap="butt" stroke-linejoin="miter" stroke-miterlimit="4" transform="translate(0 9.348)" d="M 0 0m 0 0h 346.960629921"/><path fill="none" transform="translate(315.253098425)" d="M 0 0m 0 0h 28.719v 9.348h -28.719v -9.348Z "/><g transform="translate(315.253098425 -4.7e-8)"><g transform="matrix(1 0 0 -1 1 8.238)"><use xlink:href="#g84F48CC5C28ECD53CE9DCB7E35F9E04A" x="0" y="0" fill="#000000" fill-rule="nonzero"/><use xlink:href="#gF110087D0967D51B93062FFC3887FC46" x="7.645" y="0" fill="#000000" fill-rule="nonzero"/><use xlink:href="#g31F7C94EB04815C2108183C45B49E8BA" x="14.113" y="0" fill="#000000" fill-rule="nonzero"/><use xlink:href="#gD355BF4F81D64465081A1B40E1986DB4" x="21.384" y="0" fill="#000000" fill-rule="nonzero"/></g></g><path fill="none" stroke="#000000" stroke-width="1" stroke-linecap="butt" stroke-linejoin="miter" stroke-miterlimit="4" transform="translate(0 43.363748031)" d="M 0 0m 0 0h 346.960629921"/><path fill="none" transform="translate(315.220098425 34.015748031)" d="M 0 0m 0 0h 28.785v 9.348h -28.785v -9.348Z "/><g transform="translate(315.220098331 34.015747984)"><g transform="matrix(1 0 0 -1 1 8.238)"><use xlink:href="#gF697F4206A782C3B42F4E05D5EA9B2A0" x="0" y="0" fill="#000000" fill-rule="nonzero"/><use xlink:href="#gF110087D0967D51B93062FFC3887FC46" x="7.711" y="0" fill="#000000" fill-rule="nonzero"/><use xlink:href="#g31F7C94EB04815C2108183C45B49E8BA" x="14.179" y="0" fill="#000000" fill-rule="nonzero"/><use xlink:href="#gD355BF4F81D64465081A1B40E1986DB4" x="21.45" y="0" fill="#000000" fill-rule="nonzero"/></g></g><path fill="none" stroke="#000000" stroke-width="1" stroke-linecap="butt" stroke-linejoin="miter" stroke-miterlimit="4" transform="translate(23.811023622 77.379496063)" d="M 0 0m 0 0v 34.015748031h 51.023622047v -34.015748031h -51.023622047Z "/><path fill="none" transform="translate(36.657334646 89.713370079)" d="M 0 0m 0 0h 25.331v 9.348h -25.331v -9.348Z "/><g transform="translate(36.65733463 89.713370031)"><g transform="matrix(1 0 0 -1 1 8.238)"><use xlink:href="#g5A92E01899F34F07E07504597D398CD0" x="0" y="0" fill="#000000" fill-rule="nonzero"/><use xlink:href="#g84F48CC5C28ECD53CE9DCB7E35F9E04A" x="9.229" y="0" fill="#000000" fill-rule="nonzero"/><use xlink:href="#gB7A7981F9D6FEBAF4A3C34CF9A3FA37" x="16.874" y="0" fill="#000000" fill-rule="nonzero"/></g></g><path fill="none" stroke="#000000" stroke-width="1" stroke-linecap="butt" stroke-linejoin="miter" stroke-miterlimit="4" transform="translate(108.850393701 77.379496063)" d="M 0 0m 0 0v 34.015748031h 51.023622047v -34.015748031h -51.023622047Z "/><path fill="none" transform="translate(121.663704724 89.713370079)" d="M 0 0m 0 0h 25.397v 9.348h -25.397v -9.348Z "/><g transform="translate(121.663704614 89.713370031)"><g transform="matrix(1 0 0 -1 1 8.238)"><use xlink:href="#g5A92E01899F34F07E07504597D398CD0" x="0" y="0" fill="#000000" fill-rule="nonzero"/><use xlink:href="#gF697F4206A782C3B42F4E05D5EA9B2A0" x="9.229" y="0" fill="#000000" fill-rule="nonzero"/><use xlink:href="#gB7A7981F9D6FEBAF4A3C34CF9A3FA37" x="16.94" y="0" fill="#000000" fill-rule="nonzero"/></g></g><path fill="none" stroke="#000000" stroke-width="1" stroke-linecap="butt" stroke-linejoin="miter" stroke-miterlimit="4" transform="translate(210.897637795 77.379496063)" d="M 0 0m 0 0v 34.015748031h 68.031496063v -34.015748031h -68.031496063Z "/><path fill="none" transform="translate(232.599885827 89.713370079)" d="M 0 0m 0 0h 24.627v 9.348h -24.627v -9.348Z "/><g transform="translate(232.599885732 89.713370031)"><g transform="matrix(1 0 0 -1 1 8.238)"><use xlink:href="#g5A92E01899F34F07E07504597D398CD0" x="0" y="0" fill="#000000" fill-rule="nonzero"/><use xlink:href="#g14CB754CE297B694D18D364D9C1BAD84" x="9.229" y="0" fill="#000000" fill-rule="nonzero"/><use xlink:href="#g31F7C94EB04815C2108183C45B49E8BA" x="15.356" y="0" fill="#000000" fill-rule="nonzero"/></g></g><path fill="none" stroke="#000000" stroke-width="1" stroke-linecap="butt" stroke-linejoin="miter" stroke-miterlimit="4" transform="translate(0 145.410992126)" d="M 0 0m 0 0h 346.960629921"/><path fill="none" transform="translate(317.442098425 136.062992126)" d="M 0 0m 0 0h 24.341v 9.348h -24.341v -9.348Z "/><g transform="translate(317.442098409 136.062992079)"><g transform="matrix(1 0 0 -1 1 8.238)"><use xlink:href="#g21CC2BA9157DFD492B07A3D0DECDE432" x="0" y="0" fill="#000000" fill-rule="nonzero"/><use xlink:href="#gF110087D0967D51B93062FFC3887FC46" x="3.267" y="0" fill="#000000" fill-rule="nonzero"/><use xlink:href="#g31F7C94EB04815C2108183C45B49E8BA" x="9.735" y="0" fill="#000000" fill-rule="nonzero"/><use xlink:href="#gD355BF4F81D64465081A1B40E1986DB4" x="17.006" y="0" fill="#000000" fill-rule="nonzero"/></g></g><path fill="none" stroke="#000000" stroke-width="1" stroke-linecap="butt" stroke-linejoin="miter" stroke-miterlimit="4" transform="translate(57.826771654 179.426740157)" d="M 0 0m 0 0v 34.015748031h 34.015748031v -34.015748031h -34.015748031Z "/><path fill="none" transform="translate(67.993645669 191.804614173)" d="M 0 0m 0 0h 13.682v 9.26h -13.682v -9.26Z "/><g transform="translate(67.993645606 191.804614063)"><g transform="matrix(1 0 0 -1 1 8.238)"><use xlink:href="#g6553513FE64203BDE37F7BF6C55D1886" x="0" y="0" fill="#000000" fill-rule="nonzero"/><use xlink:href="#g38178746B45E40B27C1ECDAD3F62C0A9" x="6.567" y="0" fill="#000000" fill-rule="nonzero"/></g></g><path fill="none" stroke="#000000" stroke-width="1" stroke-linecap="butt" stroke-linejoin="miter" stroke-miterlimit="4" transform="translate(125.858267717 179.426740157)" d="M 0 0m 0 0v 34.015748031h 34.015748031v -34.015748031h -34.015748031Z "/><path fill="none" transform="translate(136.025141732 191.804614173)" d="M 0 0m 0 0h 13.682v 9.26h -13.682v -9.26Z "/><g transform="translate(136.025141669 191.804614063)"><g transform="matrix(1 0 0 -1 1 8.238)"><use xlink:href="#g6553513FE64203BDE37F7BF6C55D1886" x="0" y="0" fill="#000000" fill-rule="nonzero"/><use xlink:href="#g5BA3B744496DE638A69C45D17B8B8178" x="6.567" y="0" fill="#000000" fill-rule="nonzero"/></g></g><path fill="none" stroke="#000000" stroke-width="1" stroke-linecap="butt" stroke-linejoin="miter" stroke-miterlimit="4" transform="translate(227.905511811 230.450362205)" d="M 0 0m 0 0v 34.015748031h 51.023622047v -34.015748031h -51.023622047Z "/><path fill="none" transform="translate(247.555322835 242.78423622)" d="M 0 0h 11.724v 9.348h -11.724v -9.348Z "/><g transform="translate(247.555322787 242.784236173)"><g transform="matrix(1 0 0 -1 1 8.238)"><use xlink:href="#g21CC2BA9157DFD492B07A3D0DECDE432" x="0" y="0" fill="#000000" fill-rule="nonzero"/><use xlink:href="#gB7A7981F9D6FEBAF4A3C34CF9A3FA37" x="3.267" y="0" fill="#000000" fill-rule="nonzero"/></g></g><path fill="none" stroke="#000000" stroke-width="1" stroke-linecap="butt" stroke-linejoin="miter" stroke-miterlimit="4" transform="translate(261.921259843 179.426740157)" d="M 0 0m 0 0v 34.015748031h 51.023622047v -34.015748031h -51.023622047Z "/><path fill="none" transform="translate(279.904570866 191.760614173)" d="M 0 0m 0 0h 15.057v 9.348h -15.057v -9.348Z "/><g transform="translate(279.904570866 191.760614126)"><g transform="matrix(1 0 0 -1 1 8.238)"><use xlink:href="#g5D279FAE8446F75B298AD3FAD5B8DC82" x="0" y="0" fill="#000000" fill-rule="nonzero"/><use xlink:href="#g56988988A1B18AD1D268C4FF00F68428" x="5.951" y="0" fill="#000000" fill-rule="nonzero"/></g></g><path fill="none" stroke="#000000" stroke-width="1" stroke-linecap="butt" stroke-linejoin="miter" stroke-miterlimit="4" transform="translate(57.826771654 247.45823622)" d="M 0 0l 17.007874016 51.023622047h 68.031496063l 17.007874016 -51.023622047h -34.015748031l -6.803149606 17.007874016h -20.409448819l -6.803149606 -17.007874016h -34.015748031Z "/><path fill="none" transform="translate(97.488393701 268.507587966)" d="M 0 0h 22.724v 9.348h -22.724v -9.348Z "/><g transform="translate(97.488393591 268.507587918)"><g transform="matrix(1 0 0 -1 1 8.238)"><use xlink:href="#g84F48CC5C28ECD53CE9DCB7E35F9E04A" x="0" y="0" fill="#000000" fill-rule="nonzero"/><use xlink:href="#gDAEF01F2D8957876B63D52895EE853E4" x="7.645" y="0" fill="#000000" fill-rule="nonzero"/><use xlink:href="#g31F7C94EB04815C2108183C45B49E8BA" x="13.453" y="0" fill="#000000" fill-rule="nonzero"/></g></g><path fill="none" stroke="#000000" stroke-width="1" stroke-linecap="butt" stroke-linejoin="miter" stroke-miterlimit="4" transform="translate(49.322834646 16.441291963)" d="M 0 0m 0 60.9382041v -60.9382041"/><path fill="#000000" fill-rule="nonzero" stroke="#000000" stroke-width="1" stroke-linecap="butt" stroke-linejoin="miter" stroke-miterlimit="4" stroke-dashoffset="0" stroke-dasharray="" transform="translate(47.196850394 10.772000625)" d="M 0 0m 2.125984252 0l 2.125984252 5.669291339h -4.251968504l 2.125984252 -5.669291339Z "/><path fill="#ffffff" fill-rule="nonzero" stroke="#000000" stroke-width="1" stroke-linecap="butt" stroke-linejoin="miter" stroke-miterlimit="4" transform="translate(45.921259843 56.970047244)" d="M 0 0m 3.401574803 0c -1.876934551 0 -3.401574803 1.524640252 -3.401574803 3.401574803c 0 1.876934551 1.524640252 3.401574803 3.401574803 3.401574803c 1.876934551 0 3.401574803 -1.524640252 3.401574803 -3.401574803c 0 -1.876934551 -1.524640252 -3.401574803 -3.401574803 -3.401574803Z "/><path fill="none" transform="translate(1.362259843 55.697622047)" d="M 0 0m 0 0h 44.559v 9.348h -44.559v -9.348Z "/><g transform="translate(1.362259843 55.697622)"><g transform="matrix(1 0 0 -1 1 8.238)"><use xlink:href="#g5A92E01899F34F07E07504597D398CD0" x="0" y="0" fill="#000000" fill-rule="nonzero"/><use xlink:href="#g84F48CC5C28ECD53CE9DCB7E35F9E04A" x="9.229" y="0" fill="#000000" fill-rule="nonzero"/><use xlink:href="#gB7A7981F9D6FEBAF4A3C34CF9A3FA37" x="16.874" y="0" fill="#000000" fill-rule="nonzero"/><use xlink:href="#g5BA3B744496DE638A69C45D17B8B8178" x="23.331" y="0" fill="#000000" fill-rule="nonzero"/><use xlink:href="#g84F48CC5C28ECD53CE9DCB7E35F9E04A" x="28.446" y="0" fill="#000000" fill-rule="nonzero"/><use xlink:href="#gF110087D0967D51B93062FFC3887FC46" x="36.091" y="0" fill="#000000" fill-rule="nonzero"/></g></g><path fill="none" stroke="#000000" stroke-width="1" stroke-linecap="butt" stroke-linejoin="miter" stroke-miterlimit="4" transform="translate(127.559055118 50.457039994)" d="M 0 0m 0 26.922456069v -26.922456069"/><path fill="#000000" fill-rule="nonzero" stroke="#000000" stroke-width="1" stroke-linecap="butt" stroke-linejoin="miter" stroke-miterlimit="4" stroke-dashoffset="0" stroke-dasharray="" transform="translate(125.433070866 44.787748656)" d="M 0 0m 2.125984252 0l 2.125984252 5.669291339h -4.251968504l 2.125984252 -5.669291339Z "/><path fill="#ffffff" fill-rule="nonzero" stroke="#000000" stroke-width="1" stroke-linecap="butt" stroke-linejoin="miter" stroke-miterlimit="4" transform="translate(124.157480315 56.970047244)" d="M 0 0m 3.401574803 0c -1.876934551 0 -3.401574803 1.524640252 -3.401574803 3.401574803c 0 1.876934551 1.524640252 3.401574803 3.401574803 3.401574803c 1.876934551 0 3.401574803 -1.524640252 3.401574803 -3.401574803c 0 -1.876934551 -1.524640252 -3.401574803 -3.401574803 -3.401574803Z "/><path fill="none" transform="translate(79.466480315 55.697622047)" d="M 0 0m 0 0h 44.691v 9.348h -44.691v -9.348Z "/><g transform="translate(79.466480268 55.697622)"><g transform="matrix(1 0 0 -1 1 8.238)"><use xlink:href="#g5A92E01899F34F07E07504597D398CD0" x="0" y="0" fill="#000000" fill-rule="nonzero"/><use xlink:href="#gF697F4206A782C3B42F4E05D5EA9B2A0" x="9.229" y="0" fill="#000000" fill-rule="nonzero"/><use xlink:href="#gB7A7981F9D6FEBAF4A3C34CF9A3FA37" x="16.94" y="0" fill="#000000" fill-rule="nonzero"/><use xlink:href="#g5BA3B744496DE638A69C45D17B8B8178" x="23.397" y="0" fill="#000000" fill-rule="nonzero"/><use xlink:href="#gF697F4206A782C3B42F4E05D5EA9B2A0" x="28.512" y="0" fill="#000000" fill-rule="nonzero"/><use xlink:href="#gF110087D0967D51B93062FFC3887FC46" x="36.223" y="0" fill="#000000" fill-rule="nonzero"/></g></g><path fill="none" stroke="#000000" stroke-width="1" stroke-linecap="butt" stroke-linejoin="miter" stroke-miterlimit="4" transform="translate(141.165354331 43.363748031)" d="M 0 0m 0 26.922456069v -26.922456069"/><path fill="#000000" fill-rule="nonzero" stroke="#000000" stroke-width="1" stroke-linecap="butt" stroke-linejoin="miter" stroke-miterlimit="4" stroke-dashoffset="0" stroke-dasharray="" transform="translate(139.039370079 70.2862041)" d="M 0 0m 2.125984252 5.669291339l -2.125984252 -5.669291339h 4.251968504l -2.125984252 5.669291339Z "/><path fill="#ffffff" fill-rule="nonzero" stroke="#000000" stroke-width="1" stroke-linecap="butt" stroke-linejoin="miter" stroke-miterlimit="4" transform="translate(137.763779528 56.970047244)" d="M 0 0m 3.401574803 0c -1.876934551 0 -3.401574803 1.524640252 -3.401574803 3.401574803c 0 1.876934551 1.524640252 3.401574803 3.401574803 3.401574803c 1.876934551 0 3.401574803 -1.524640252 3.401574803 -3.401574803c 0 -1.876934551 -1.524640252 -3.401574803 -3.401574803 -3.401574803Z "/><path fill="none" transform="translate(144.566929134 55.697622047)" d="M 0 0m 0 0h 44.691v 9.348h -44.691v -9.348Z "/><g transform="translate(144.566929087 55.697622)"><g transform="matrix(1 0 0 -1 1 8.238)"><use xlink:href="#gF697F4206A782C3B42F4E05D5EA9B2A0" x="0" y="0" fill="#000000" fill-rule="nonzero"/><use xlink:href="#gF110087D0967D51B93062FFC3887FC46" x="7.711" y="0" fill="#000000" fill-rule="nonzero"/><use xlink:href="#g5BA3B744496DE638A69C45D17B8B8178" x="14.179" y="0" fill="#000000" fill-rule="nonzero"/><use xlink:href="#g5A92E01899F34F07E07504597D398CD0" x="19.294" y="0" fill="#000000" fill-rule="nonzero"/><use xlink:href="#gF697F4206A782C3B42F4E05D5EA9B2A0" x="28.523" y="0" fill="#000000" fill-rule="nonzero"/><use xlink:href="#gB7A7981F9D6FEBAF4A3C34CF9A3FA37" x="36.234" y="0" fill="#000000" fill-rule="nonzero"/></g></g><path fill="none" stroke="#000000" stroke-width="1" stroke-linecap="butt" stroke-linejoin="miter" stroke-miterlimit="4" transform="translate(224.503937008 14.599968504)" d="M 0 0m 0 62.779527559v -62.779527559"/><path fill="#000000" fill-rule="nonzero" stroke="#000000" stroke-width="1" stroke-linecap="butt" stroke-linejoin="miter" stroke-miterlimit="4" stroke-dashoffset="0" stroke-dasharray="" transform="translate(222.377952756 9.848)" d="M 0 0m 4.251968504 2.125984252c 0 1.173084094 -0.952900157 2.125984252 -2.125984252 2.125984252c -1.173084094 0 -2.125984252 -0.952900157 -2.125984252 -2.125984252c 0 -1.173084094 0.952900157 -2.125984252 2.125984252 -2.125984252c 1.173084094 0 2.125984252 0.952900157 2.125984252 2.125984252Z "/><path fill="none" stroke="#000000" stroke-width="1" stroke-linecap="butt" stroke-linejoin="miter" stroke-miterlimit="4" transform="translate(238.11023622 48.615716535)" d="M 0 0m 0 28.763779528v -28.763779528"/><path fill="#000000" fill-rule="nonzero" stroke="#000000" stroke-width="1" stroke-linecap="butt" stroke-linejoin="miter" stroke-miterlimit="4" stroke-dashoffset="0" stroke-dasharray="" transform="translate(235.984251969 43.863748032)" d="M 0 0m 4.251968504 2.125984252c 0 1.173084094 -0.952900157 2.125984252 -2.125984252 2.125984252c -1.173084094 0 -2.125984252 -0.952900157 -2.125984252 -2.125984252c 0 -1.173084094 0.952900157 -2.125984252 2.125984252 -2.125984252c 1.173084094 0 2.125984252 0.952900157 2.125984252 2.125984252Z "/><path fill="none" transform="translate(247.034110236 48.894472441)" d="M 0 0m 0 0h 16.168v 9.348h -16.168v -9.348Z "/><g transform="translate(247.03411011 48.894472394)"><g transform="matrix(1 0 0 -1 1 8.238)"><use xlink:href="#gB7A7981F9D6FEBAF4A3C34CF9A3FA37" x="0" y="0" fill="#000000" fill-rule="nonzero"/><use xlink:href="#gF697F4206A782C3B42F4E05D5EA9B2A0" x="6.457" y="0" fill="#000000" fill-rule="nonzero"/></g></g><path fill="none" stroke="#000000" stroke-width="1" stroke-linecap="butt" stroke-linejoin="miter" stroke-miterlimit="4" transform="translate(255.118110236 58.242472441)" d="M 0 0m 0 0v 12.043731659"/><path fill="#000000" fill-rule="nonzero" stroke="#000000" stroke-width="1" stroke-linecap="butt" stroke-linejoin="miter" stroke-miterlimit="4" stroke-dashoffset="0" stroke-dasharray="" transform="translate(252.992125984 70.2862041)" d="M 0 0m 2.125984252 5.669291339l -2.125984252 -5.669291339h 4.251968504l -2.125984252 5.669291339Z "/><path fill="none" transform="translate(265.881559055 48.883472441)" d="M 0 0m 0 0h 19.292v 9.37h -19.292v -9.37Z "/><g transform="translate(265.881559039 48.883472409)"><g transform="matrix(1 0 0 -1 1 8.238)"><use xlink:href="#g3119527852ABF6F397DFE5CA87E4182A" x="0" y="0" fill="#000000" fill-rule="nonzero"/><use xlink:href="#g6553513FE64203BDE37F7BF6C55D1886" x="10.725" y="0" fill="#000000" fill-rule="nonzero"/></g></g><path fill="none" stroke="#000000" stroke-width="1" stroke-linecap="butt" stroke-linejoin="miter" stroke-miterlimit="4" transform="translate(275.527559055 58.253472441)" d="M 0 0m 0 0v 12.032731659"/><path fill="#000000" fill-rule="nonzero" stroke="#000000" stroke-width="1" stroke-linecap="butt" stroke-linejoin="miter" stroke-miterlimit="4" stroke-dashoffset="0" stroke-dasharray="" transform="translate(273.401574803 70.2862041)" d="M 0 0m 2.125984252 5.669291339l -2.125984252 -5.669291339h 4.251968504l -2.125984252 5.669291339Z "/><path fill="none" stroke="#000000" stroke-width="1" stroke-linecap="butt" stroke-linejoin="miter" stroke-miterlimit="4" transform="translate(49.322834646 118.488536057)" d="M 0 0m 0 0v 26.922456069"/><path fill="#000000" fill-rule="nonzero" stroke="#000000" stroke-width="1" stroke-linecap="butt" stroke-linejoin="miter" stroke-miterlimit="4" stroke-dashoffset="0" stroke-dasharray="" transform="translate(47.196850394 112.819244719)" d="M 0 0m 2.125984252 0l 2.125984252 5.669291339h -4.251968504l 2.125984252 -5.669291339Z "/><path fill="none" transform="translate(9.141834646 123.72911811)" d="M 0 0m 0 0h 40.181v 9.348h -40.181v -9.348Z "/><g transform="translate(9.14183463 123.729118063)"><g transform="matrix(1 0 0 -1 1 8.238)"><use xlink:href="#g21CC2BA9157DFD492B07A3D0DECDE432" x="0" y="0" fill="#000000" fill-rule="nonzero"/><use xlink:href="#gF110087D0967D51B93062FFC3887FC46" x="3.267" y="0" fill="#000000" fill-rule="nonzero"/><use xlink:href="#g5BA3B744496DE638A69C45D17B8B8178" x="9.735" y="0" fill="#000000" fill-rule="nonzero"/><use xlink:href="#g5A92E01899F34F07E07504597D398CD0" x="14.85" y="0" fill="#000000" fill-rule="nonzero"/><use xlink:href="#g84F48CC5C28ECD53CE9DCB7E35F9E04A" x="24.079" y="0" fill="#000000" fill-rule="nonzero"/><use xlink:href="#gB7A7981F9D6FEBAF4A3C34CF9A3FA37" x="31.724" y="0" fill="#000000" fill-rule="nonzero"/></g></g><path fill="none" stroke="#000000" stroke-width="1" stroke-linecap="butt" stroke-linejoin="miter" stroke-miterlimit="4" transform="translate(124.157480315 118.488536057)" d="M 0 0m 0 0v 26.922456069"/><path fill="#000000" fill-rule="nonzero" stroke="#000000" stroke-width="1" stroke-linecap="butt" stroke-linejoin="miter" stroke-miterlimit="4" stroke-dashoffset="0" stroke-dasharray="" transform="translate(122.031496063 112.819244719)" d="M 0 0m 2.125984252 0l 2.125984252 5.669291339h -4.251968504l 2.125984252 -5.669291339Z "/><path fill="none" transform="translate(83.910480315 123.72911811)" d="M 0 0m 0 0h 40.247v 9.348h -40.247v -9.348Z "/><g transform="translate(83.910480205 123.729118063)"><g transform="matrix(1 0 0 -1 1 8.238)"><use xlink:href="#g21CC2BA9157DFD492B07A3D0DECDE432" x="0" y="0" fill="#000000" fill-rule="nonzero"/><use xlink:href="#gF110087D0967D51B93062FFC3887FC46" x="3.267" y="0" fill="#000000" fill-rule="nonzero"/><use xlink:href="#g5BA3B744496DE638A69C45D17B8B8178" x="9.735" y="0" fill="#000000" fill-rule="nonzero"/><use xlink:href="#g5A92E01899F34F07E07504597D398CD0" x="14.85" y="0" fill="#000000" fill-rule="nonzero"/><use xlink:href="#gF697F4206A782C3B42F4E05D5EA9B2A0" x="24.079" y="0" fill="#000000" fill-rule="nonzero"/><use xlink:href="#gB7A7981F9D6FEBAF4A3C34CF9A3FA37" x="31.79" y="0" fill="#000000" fill-rule="nonzero"/></g></g><path fill="none" stroke="#000000" stroke-width="1" stroke-linecap="butt" stroke-linejoin="miter" stroke-miterlimit="4" transform="translate(144.566929134 111.395244094)" d="M 0 0m 0 0v 26.922456069"/><path fill="#000000" fill-rule="nonzero" stroke="#000000" stroke-width="1" stroke-linecap="butt" stroke-linejoin="miter" stroke-miterlimit="4" stroke-dashoffset="0" stroke-dasharray="" transform="translate(142.440944882 138.317700163)" d="M 0 0m 2.125984252 5.669291339l -2.125984252 -5.669291339h 4.251968504l -2.125984252 5.669291339Z "/><path fill="#ffffff" fill-rule="nonzero" stroke="#000000" stroke-width="1" stroke-linecap="butt" stroke-linejoin="miter" stroke-miterlimit="4" transform="translate(141.165354331 125.001543307)" d="M 0 0m 3.401574803 0c -1.876934551 0 -3.401574803 1.524640252 -3.401574803 3.401574803c 0 1.876934551 1.524640252 3.401574803 3.401574803 3.401574803c 1.876934551 0 3.401574803 -1.524640252 3.401574803 -3.401574803c 0 -1.876934551 -1.524640252 -3.401574803 -3.401574803 -3.401574803Z "/><path fill="none" transform="translate(147.968503937 123.72911811)" d="M 0 0m 0 0h 40.247v 9.348h -40.247v -9.348Z "/><g transform="translate(147.968503827 123.729118063)"><g transform="matrix(1 0 0 -1 1 8.238)"><use xlink:href="#g5A92E01899F34F07E07504597D398CD0" x="0" y="0" fill="#000000" fill-rule="nonzero"/><use xlink:href="#gF697F4206A782C3B42F4E05D5EA9B2A0" x="9.229" y="0" fill="#000000" fill-rule="nonzero"/><use xlink:href="#gB7A7981F9D6FEBAF4A3C34CF9A3FA37" x="16.94" y="0" fill="#000000" fill-rule="nonzero"/><use xlink:href="#g5BA3B744496DE638A69C45D17B8B8178" x="23.397" y="0" fill="#000000" fill-rule="nonzero"/><use xlink:href="#g21CC2BA9157DFD492B07A3D0DECDE432" x="28.512" y="0" fill="#000000" fill-rule="nonzero"/><use xlink:href="#gF110087D0967D51B93062FFC3887FC46" x="31.779" y="0" fill="#000000" fill-rule="nonzero"/></g></g><path fill="none" stroke="#000000" stroke-width="1" stroke-linecap="butt" stroke-linejoin="miter" stroke-miterlimit="4" transform="translate(74.834645669 145.410992126)" d="M 0 0m 0 26.922456069v -26.922456069"/><path fill="#000000" fill-rule="nonzero" stroke="#000000" stroke-width="1" stroke-linecap="butt" stroke-linejoin="miter" stroke-miterlimit="4" stroke-dashoffset="0" stroke-dasharray="" transform="translate(72.708661417 172.333448194)" d="M 0 0m 2.125984252 5.669291339l -2.125984252 -5.669291339h 4.251968504l -2.125984252 5.669291339Z "/><path fill="none" transform="translate(74.834645669 157.788866142)" d="M 0 0m 0 0h 28.532v 9.26h -28.532v -9.26Z "/><g transform="translate(74.834645606 157.788866031)"><g transform="matrix(1 0 0 -1 1 8.238)"><use xlink:href="#g21CC2BA9157DFD492B07A3D0DECDE432" x="0" y="0" fill="#000000" fill-rule="nonzero"/><use xlink:href="#gF110087D0967D51B93062FFC3887FC46" x="3.267" y="0" fill="#000000" fill-rule="nonzero"/><use xlink:href="#g5BA3B744496DE638A69C45D17B8B8178" x="9.735" y="0" fill="#000000" fill-rule="nonzero"/><use xlink:href="#g6553513FE64203BDE37F7BF6C55D1886" x="14.85" y="0" fill="#000000" fill-rule="nonzero"/><use xlink:href="#g38178746B45E40B27C1ECDAD3F62C0A9" x="21.417" y="0" fill="#000000" fill-rule="nonzero"/></g></g><path fill="none" stroke="#000000" stroke-width="1" stroke-linecap="butt" stroke-linejoin="miter" stroke-miterlimit="4" transform="translate(142.866141732 145.410992126)" d="M 0 0m 0 26.922456069v -26.922456069"/><path fill="#000000" fill-rule="nonzero" stroke="#000000" stroke-width="1" stroke-linecap="butt" stroke-linejoin="miter" stroke-miterlimit="4" stroke-dashoffset="0" stroke-dasharray="" transform="translate(140.74015748 172.333448194)" d="M 0 0m 2.125984252 5.669291339l -2.125984252 -5.669291339h 4.251968504l -2.125984252 5.669291339Z "/><path fill="none" transform="translate(114.334141732 157.788866142)" d="M 0 0m 0 0h 28.532v 9.26h -28.532v -9.26Z "/><g transform="translate(114.334141669 157.788866031)"><g transform="matrix(1 0 0 -1 1 8.238)"><use xlink:href="#g21CC2BA9157DFD492B07A3D0DECDE432" x="0" y="0" fill="#000000" fill-rule="nonzero"/><use xlink:href="#gF110087D0967D51B93062FFC3887FC46" x="3.267" y="0" fill="#000000" fill-rule="nonzero"/><use xlink:href="#g5BA3B744496DE638A69C45D17B8B8178" x="9.735" y="0" fill="#000000" fill-rule="nonzero"/><use xlink:href="#g6553513FE64203BDE37F7BF6C55D1886" x="14.85" y="0" fill="#000000" fill-rule="nonzero"/><use xlink:href="#g5BA3B744496DE638A69C45D17B8B8178" x="21.417" y="0" fill="#000000" fill-rule="nonzero"/></g></g><path fill="none" stroke="#000000" stroke-width="1" stroke-linecap="butt" stroke-linejoin="miter" stroke-miterlimit="4" transform="translate(74.834645669 213.442488189)" d="M 0 0m 0 0v 34.227288753"/><path fill="none" stroke="#000000" stroke-width="1" stroke-linecap="butt" stroke-linejoin="miter" stroke-miterlimit="4" transform="translate(142.866141732 213.442488189)" d="M 0 0m 0 0v 34.227288753"/><path fill="none" stroke="#000000" stroke-width="1" stroke-linecap="butt" stroke-linejoin="miter" stroke-miterlimit="4" transform="translate(6.803149606 152.504284089)" d="M 0 0m 102.047244094 146.189114901v 34.015748031h -102.047244094v -180.204862932"/><path fill="#000000" fill-rule="nonzero" stroke="#000000" stroke-width="1" stroke-linecap="butt" stroke-linejoin="miter" stroke-miterlimit="4" stroke-dashoffset="0" stroke-dasharray="" transform="translate(4.677165354 146.834992751)" d="M 0 0m 2.125984252 0l 2.125984252 5.669291339h -4.251968504l 2.125984252 -5.669291339Z "/><path fill="#ffffff" fill-rule="nonzero" stroke="#000000" stroke-width="1" stroke-linecap="butt" stroke-linejoin="miter" stroke-miterlimit="4" transform="translate(54.42519685 329.307572218)" d="M 0 0m 3.401574803 0c -1.876934551 0 -3.401574803 1.524640252 -3.401574803 3.401574803c 0 1.876934551 1.524640252 3.401574803 3.401574803 3.401574803c 1.876934551 0 3.401574803 -1.524640252 3.401574803 -3.401574803c 0 -1.876934551 -1.524640252 -3.401574803 -3.401574803 -3.401574803Z "/><path fill="none" transform="translate(39.039771654 336.110721824)" d="M 0 0h 37.574v 9.348h -37.574v -9.348Z "/><g transform="translate(39.039771543 336.110721777)"><g transform="matrix(1 0 0 -1 1 8.238)"><use xlink:href="#g84F48CC5C28ECD53CE9DCB7E35F9E04A" x="0" y="0" fill="#000000" fill-rule="nonzero"/><use xlink:href="#gDAEF01F2D8957876B63D52895EE853E4" x="7.645" y="0" fill="#000000" fill-rule="nonzero"/><use xlink:href="#g31F7C94EB04815C2108183C45B49E8BA" x="13.453" y="0" fill="#000000" fill-rule="nonzero"/><use xlink:href="#g5BA3B744496DE638A69C45D17B8B8178" x="20.724" y="0" fill="#000000" fill-rule="nonzero"/><use xlink:href="#g21CC2BA9157DFD492B07A3D0DECDE432" x="25.839" y="0" fill="#000000" fill-rule="nonzero"/><use xlink:href="#gF110087D0967D51B93062FFC3887FC46" x="29.106" y="0" fill="#000000" fill-rule="nonzero"/></g></g><path fill="none" stroke="#000000" stroke-width="1" stroke-linecap="butt" stroke-linejoin="miter" stroke-miterlimit="4" transform="translate(210.897637795 152.504284089)" d="M 0 0m 17.007874016 91.552377329h -17.007874016v -91.552377329"/><path fill="#000000" fill-rule="nonzero" stroke="#000000" stroke-width="1" stroke-linecap="butt" stroke-linejoin="miter" stroke-miterlimit="4" stroke-dashoffset="0" stroke-dasharray="" transform="translate(208.771653543 146.834992751)" d="M 0 0m 2.125984252 0l 2.125984252 5.669291339h -4.251968504l 2.125984252 -5.669291339Z "/><path fill="#ffffff" fill-rule="nonzero" stroke="#000000" stroke-width="1" stroke-linecap="butt" stroke-linejoin="miter" stroke-miterlimit="4" transform="translate(207.496062992 193.03303937)" d="M 0 0m 3.401574803 0c -1.876934551 0 -3.401574803 1.524640252 -3.401574803 3.401574803c 0 1.876934551 1.524640252 3.401574803 3.401574803 3.401574803c 1.876934551 0 3.401574803 -1.524640252 3.401574803 -3.401574803c 0 -1.876934551 -1.524640252 -3.401574803 -3.401574803 -3.401574803Z "/><path fill="none" transform="translate(193.788137795 183.68503937)" d="M 0 0m 0 0h 34.219v 9.348h -34.219v -9.348Z "/><g transform="translate(193.788137764 183.685039323)"><g transform="matrix(1 0 0 -1 1 8.238)"><use xlink:href="#g21CC2BA9157DFD492B07A3D0DECDE432" x="0" y="0" fill="#000000" fill-rule="nonzero"/><use xlink:href="#gB7A7981F9D6FEBAF4A3C34CF9A3FA37" x="3.267" y="0" fill="#000000" fill-rule="nonzero"/><use xlink:href="#g84F48CC5C28ECD53CE9DCB7E35F9E04A" x="9.724" y="0" fill="#000000" fill-rule="nonzero"/><use xlink:href="#g5BA3B744496DE638A69C45D17B8B8178" x="17.369" y="0" fill="#000000" fill-rule="nonzero"/><use xlink:href="#g21CC2BA9157DFD492B07A3D0DECDE432" x="22.484" y="0" fill="#000000" fill-rule="nonzero"/><use xlink:href="#gF110087D0967D51B93062FFC3887FC46" x="25.751" y="0" fill="#000000" fill-rule="nonzero"/></g></g><path fill="none" stroke="#000000" stroke-width="1" stroke-linecap="butt" stroke-linejoin="miter" stroke-miterlimit="4" transform="translate(185.385826772 152.504284089)" d="M 0 0m 42.519685039 101.757101738h -42.519685039v -101.757101738"/><path fill="#000000" fill-rule="nonzero" stroke="#000000" stroke-width="1" stroke-linecap="butt" stroke-linejoin="miter" stroke-miterlimit="4" stroke-dashoffset="0" stroke-dasharray="" transform="translate(183.25984252 146.834992751)" d="M 0 0m 2.125984252 0l 2.125984252 5.669291339h -4.251968504l 2.125984252 -5.669291339Z "/><path fill="#ffffff" fill-rule="nonzero" stroke="#000000" stroke-width="1" stroke-linecap="butt" stroke-linejoin="miter" stroke-miterlimit="4" transform="translate(181.984251969 193.03303937)" d="M 0 0m 3.401574803 0c -1.876934551 0 -3.401574803 1.524640252 -3.401574803 3.401574803c 0 1.876934551 1.524640252 3.401574803 3.401574803 3.401574803c 1.876934551 0 3.401574803 -1.524640252 3.401574803 -3.401574803c 0 -1.876934551 -1.524640252 -3.401574803 -3.401574803 -3.401574803Z "/><path fill="none" transform="translate(168.864826772 199.836188976)" d="M 0 0m 0 0h 33.042v 9.348h -33.042v -9.348Z "/><g transform="translate(168.864826677 199.836188929)"><g transform="matrix(1 0 0 -1 1 8.238)"><use xlink:href="#g21CC2BA9157DFD492B07A3D0DECDE432" x="0" y="0" fill="#000000" fill-rule="nonzero"/><use xlink:href="#gB7A7981F9D6FEBAF4A3C34CF9A3FA37" x="3.267" y="0" fill="#000000" fill-rule="nonzero"/><use xlink:href="#gF110087D0967D51B93062FFC3887FC46" x="9.724" y="0" fill="#000000" fill-rule="nonzero"/><use xlink:href="#g5BA3B744496DE638A69C45D17B8B8178" x="16.192" y="0" fill="#000000" fill-rule="nonzero"/><use xlink:href="#g21CC2BA9157DFD492B07A3D0DECDE432" x="21.307" y="0" fill="#000000" fill-rule="nonzero"/><use xlink:href="#gF110087D0967D51B93062FFC3887FC46" x="24.574" y="0" fill="#000000" fill-rule="nonzero"/></g></g><path fill="none" stroke="#000000" stroke-width="1" stroke-linecap="butt" stroke-linejoin="miter" stroke-miterlimit="4" transform="translate(253.417322835 145.410992126)" d="M 0 0m 0 77.946078116v -77.946078116"/><path fill="#000000" fill-rule="nonzero" stroke="#000000" stroke-width="1" stroke-linecap="butt" stroke-linejoin="miter" stroke-miterlimit="4" stroke-dashoffset="0" stroke-dasharray="" transform="translate(251.291338583 223.357070241)" d="M 0 0m 2.125984252 5.669291339l -2.125984252 -5.669291339h 4.251968504l -2.125984252 5.669291339Z "/><path fill="none" transform="translate(253.417322835 213.020456693)" d="M 0 0m 0 0h 26.574v 9.348h -26.574v -9.348Z "/><g transform="translate(253.417322787 213.020456646)"><g transform="matrix(1 0 0 -1 1 8.238)"><use xlink:href="#g21CC2BA9157DFD492B07A3D0DECDE432" x="0" y="0" fill="#000000" fill-rule="nonzero"/><use xlink:href="#gF110087D0967D51B93062FFC3887FC46" x="3.267" y="0" fill="#000000" fill-rule="nonzero"/><use xlink:href="#g5BA3B744496DE638A69C45D17B8B8178" x="9.735" y="0" fill="#000000" fill-rule="nonzero"/><use xlink:href="#g21CC2BA9157DFD492B07A3D0DECDE432" x="14.85" y="0" fill="#000000" fill-rule="nonzero"/><use xlink:href="#gB7A7981F9D6FEBAF4A3C34CF9A3FA37" x="18.117" y="0" fill="#000000" fill-rule="nonzero"/></g></g><path fill="none" stroke="#000000" stroke-width="1" stroke-linecap="butt" stroke-linejoin="miter" stroke-miterlimit="4" transform="translate(280.62992126 145.410992126)" d="M 0 0m 0 34.015748031v -34.015748031"/><path fill="#ffffff" fill-rule="nonzero" stroke="#000000" stroke-width="1" stroke-linecap="butt" stroke-linejoin="miter" stroke-miterlimit="4" transform="translate(277.228346457 159.017291339)" d="M 0 0m 3.401574803 0c -1.876934551 0 -3.401574803 1.524640252 -3.401574803 3.401574803c 0 1.876934551 1.524640252 3.401574803 3.401574803 3.401574803c 1.876934551 0 3.401574803 -1.524640252 3.401574803 -3.401574803c 0 -1.876934551 -1.524640252 -3.401574803 -3.401574803 -3.401574803Z "/><path fill="none" transform="translate(265.67642126 149.669291339)" d="M 0 0m 0 0h 29.907v 9.348h -29.907v -9.348Z "/><g transform="translate(265.676421118 149.669291291)"><g transform="matrix(1 0 0 -1 1 8.238)"><use xlink:href="#g5D279FAE8446F75B298AD3FAD5B8DC82" x="0" y="0" fill="#000000" fill-rule="nonzero"/><use xlink:href="#g56988988A1B18AD1D268C4FF00F68428" x="5.951" y="0" fill="#000000" fill-rule="nonzero"/><use xlink:href="#g5BA3B744496DE638A69C45D17B8B8178" x="13.057" y="0" fill="#000000" fill-rule="nonzero"/><use xlink:href="#g21CC2BA9157DFD492B07A3D0DECDE432" x="18.172" y="0" fill="#000000" fill-rule="nonzero"/><use xlink:href="#gF110087D0967D51B93062FFC3887FC46" x="21.439" y="0" fill="#000000" fill-rule="nonzero"/></g></g><path fill="none" stroke="#000000" stroke-width="1" stroke-linecap="butt" stroke-linejoin="miter" stroke-miterlimit="4" transform="translate(294.236220472 145.410992126)" d="M 0 0m 0 26.922456069v -26.922456069"/><path fill="#000000" fill-rule="nonzero" stroke="#000000" stroke-width="1" stroke-linecap="butt" stroke-linejoin="miter" stroke-miterlimit="4" stroke-dashoffset="0" stroke-dasharray="" transform="translate(292.11023622 172.333448194)" d="M 0 0m 2.125984252 5.669291339l -2.125984252 -5.669291339h 4.251968504l -2.125984252 5.669291339Z "/><path fill="none" transform="translate(294.236220472 157.744866142)" d="M 0 0m 0 0h 29.907v 9.348h -29.907v -9.348Z "/><g transform="translate(294.236220472 157.744866094)"><g transform="matrix(1 0 0 -1 1 8.238)"><use xlink:href="#g21CC2BA9157DFD492B07A3D0DECDE432" x="0" y="0" fill="#000000" fill-rule="nonzero"/><use xlink:href="#gF110087D0967D51B93062FFC3887FC46" x="3.267" y="0" fill="#000000" fill-rule="nonzero"/><use xlink:href="#g5BA3B744496DE638A69C45D17B8B8178" x="9.735" y="0" fill="#000000" fill-rule="nonzero"/><use xlink:href="#g5D279FAE8446F75B298AD3FAD5B8DC82" x="14.85" y="0" fill="#000000" fill-rule="nonzero"/><use xlink:href="#g56988988A1B18AD1D268C4FF00F68428" x="20.801" y="0" fill="#000000" fill-rule="nonzero"/></g></g><path fill="none" transform="translate(333.849629921 198.56376378)" d="M 0 0m 0 0h 26.222v 9.348h -26.222v -9.348Z "/><g transform="translate(333.849629906 198.563763732)"><g transform="matrix(1 0 0 -1 1 8.238)"><use xlink:href="#g5D279FAE8446F75B298AD3FAD5B8DC82" x="0" y="0" fill="#000000" fill-rule="nonzero"/><use xlink:href="#g56988988A1B18AD1D268C4FF00F68428" x="5.951" y="0" fill="#000000" fill-rule="nonzero"/><use xlink:href="#gFFE2DEAAE06F2A8E873F596F20DAEEAB" x="13.057" y="0" fill="#000000" fill-rule="nonzero"/><use xlink:href="#g38178746B45E40B27C1ECDAD3F62C0A9" x="19.107" y="0" fill="#000000" fill-rule="nonzero"/></g></g><path fill="none" stroke="#000000" stroke-width="1" stroke-linecap="butt" stroke-linejoin="miter" stroke-miterlimit="4" transform="translate(320.038173853 203.23776378)" d="M 0 0m 13.811456069 0h -13.811456069"/><path fill="#000000" fill-rule="nonzero" stroke="#000000" stroke-width="1" stroke-linecap="butt" stroke-linejoin="miter" stroke-miterlimit="4" stroke-dashoffset="0" stroke-dasharray="" transform="translate(314.368882515 201.111779528)" d="M 0 0m 0 2.125984252l 5.669291339 -2.125984252v 4.251968504l -5.669291339 -2.125984252Z "/><path fill="none" transform="translate(19.78146063 268.551587966)" d="M 0 0h 25.067v 9.26h -25.067v -9.26Z "/><g transform="translate(19.781460567 268.551587855)"><g transform="matrix(1 0 0 -1 1 8.238)"><use xlink:href="#g84F48CC5C28ECD53CE9DCB7E35F9E04A" x="0" y="0" fill="#000000" fill-rule="nonzero"/><use xlink:href="#gF697F4206A782C3B42F4E05D5EA9B2A0" x="7.645" y="0" fill="#000000" fill-rule="nonzero"/><use xlink:href="#gF697F4206A782C3B42F4E05D5EA9B2A0" x="15.356" y="0" fill="#000000" fill-rule="nonzero"/></g></g><path fill="none" stroke="#000000" stroke-width="1" stroke-linecap="butt" stroke-linejoin="miter" stroke-miterlimit="4" transform="translate(44.84846063 273.181587966)" d="M 0 0h 14.459469643"/><path fill="#000000" fill-rule="nonzero" stroke="#000000" stroke-width="1" stroke-linecap="butt" stroke-linejoin="miter" stroke-miterlimit="4" stroke-dashoffset="0" stroke-dasharray="" transform="translate(59.307930272 271.055603715)" d="M 0 0m 5.669291339 2.125984252l -5.669291339 2.125984252v -4.251968504l 5.669291339 2.125984252Z "/></g><defs><symbol id="g84F48CC5C28ECD53CE9DCB7E35F9E04A" overflow="visible"><path d="M 0 0m 1.705 0.869l 0.605 1.595c 0.055 0.143 0.121 0.187 0.385 0.187h 2.321l 0.638 -1.859c 0.132 -0.374 -0.286 -0.418 -0.814 -0.451c -0.066 -0.066 -0.066 -0.297 0 -0.363c 0.407 0.011 1.012 0.022 1.441 0.022c 0.451 0 0.869 -0.011 1.254 -0.022c 0.066 0.066 0.066 0.297 0 0.363c -0.429 0.044 -0.803 0.077 -0.99 0.605l -2.266 6.292c -0.165 -0.099 -0.462 -0.22 -0.605 -0.22l -2.497 -5.896c -0.286 -0.682 -0.616 -0.748 -1.1 -0.781c -0.066 -0.066 -0.066 -0.297 0 -0.363c 0.286 0.011 0.649 0.022 0.979 0.022c 0.451 0 1.001 -0.011 1.408 -0.022c 0.066 0.066 0.066 0.297 0 0.363c -0.418 0.033 -0.935 0.077 -0.759 0.528Z m 1.188 2.244c -0.242 0 -0.319 0.033 -0.275 0.143l 1.122 2.849h 0.066l 1.034 -2.992Z "/></symbol><symbol id="gF110087D0967D51B93062FFC3887FC46" overflow="visible"><path d="M 0 0m 1.628 7.095c -0.396 0 -0.99 0.011 -1.419 0.022c -0.066 -0.066 -0.066 -0.297 0 -0.363c 0.77 -0.033 0.957 -0.088 0.957 -1.001v -4.411c 0 -0.913 -0.187 -0.968 -0.957 -1.001c -0.066 -0.066 -0.066 -0.297 0 -0.363c 0.429 0.011 1.023 0.022 1.43 0.022c 0.396 0 0.682 -0.022 1.606 -0.022c 2.189 0 2.772 1.1 2.772 2.046c 0 1.056 -0.737 1.661 -1.694 1.936v 0.022c 0.55 0.275 1.045 0.847 1.045 1.441c 0 0.737 -0.319 1.694 -2.365 1.694c -0.385 0 -0.979 -0.022 -1.375 -0.022Z m 0.473 -3.443h 0.759c 1.507 0 2.134 -0.847 2.134 -1.837c 0 -0.803 -0.308 -1.474 -1.98 -1.474c -0.77 0 -0.913 0.286 -0.913 0.957Z m 0 2.398c 0 0.583 0 0.693 0.957 0.693c 0.616 0 1.419 -0.33 1.419 -1.452c 0 -0.935 -0.649 -1.265 -1.562 -1.265h -0.814Z "/></symbol><symbol id="g31F7C94EB04815C2108183C45B49E8BA" overflow="visible"><path d="M 0 0m 1.892 5.753c 0 0.913 0.165 0.968 1.012 1.001c 0.066 0.066 0.066 0.297 0 0.363c -0.517 -0.011 -1.056 -0.022 -1.485 -0.022c -0.429 0 -0.88 0.011 -1.309 0.022c -0.066 -0.066 -0.066 -0.297 0 -0.363c 0.66 -0.033 0.847 -0.088 0.847 -1.001v -3.19c 0 -2.244 1.452 -2.673 2.574 -2.673c 2.255 0 2.794 1.397 2.794 3.355v 2.508c 0 0.88 0.187 0.924 0.847 1.001c 0.066 0.066 0.066 0.297 0 0.363c -0.418 -0.011 -0.869 -0.022 -1.122 -0.022c -0.231 0 -0.77 0.011 -1.276 0.022c -0.066 -0.066 -0.066 -0.297 0 -0.363c 0.825 -0.077 1.012 -0.11 1.012 -1.001v -2.706c 0 -1.232 -0.165 -2.706 -2.024 -2.706c -0.528 0 -0.979 0.198 -1.309 0.517c -0.539 0.517 -0.561 1.353 -0.561 2.068Z "/></symbol><symbol id="gD355BF4F81D64465081A1B40E1986DB4" overflow="visible"><path d="M 0 0m 4.345 6.941c -0.638 0.088 -0.616 0.297 -1.694 0.297c -1.111 0 -2.09 -0.737 -2.09 -1.903c 0 -1.155 0.957 -1.683 1.925 -2.057c 0.66 -0.253 1.474 -0.561 1.474 -1.639c 0 -0.891 -0.495 -1.353 -1.375 -1.353c -1.023 0 -1.683 0.473 -1.925 1.562c -0.143 0.044 -0.253 0.022 -0.363 -0.033c 0.044 -0.847 0.088 -1.133 0.22 -1.672c 0.693 0 1.001 -0.253 1.98 -0.253c 0.495 0 0.968 0.121 1.353 0.363c 0.638 0.396 1.034 1.067 1.034 1.771c 0 1.166 -0.88 1.683 -1.782 2.024c -0.66 0.242 -1.76 0.66 -1.76 1.584c 0 0.616 0.561 1.232 1.21 1.232c 1.067 0 1.408 -0.682 1.628 -1.408c 0.121 -0.022 0.264 -0.011 0.363 0.066c -0.044 0.528 -0.088 0.836 -0.198 1.419Z "/></symbol><symbol id="gF697F4206A782C3B42F4E05D5EA9B2A0" overflow="visible"><path d="M 0 0m 1.628 7.095c -0.396 0 -0.979 0.011 -1.419 0.022c -0.066 -0.066 -0.066 -0.297 0 -0.363c 0.77 -0.033 0.957 -0.088 0.957 -1.001v -4.411c 0 -0.913 -0.187 -0.968 -0.957 -1.001c -0.066 -0.066 -0.066 -0.297 0 -0.363c 0.429 0.011 1.012 0.022 1.43 0.022c 0.407 0 0.869 -0.022 2.002 -0.022c 1.551 0 3.597 0.704 3.597 3.41c 0 2.046 -1.683 3.729 -3.795 3.729c -0.781 0 -1.386 -0.022 -1.815 -0.022Z m 0.473 -6.171v 5.28c 0 0.385 0.385 0.539 0.924 0.539c 2.376 0 3.157 -1.925 3.157 -3.619c 0 -2.222 -1.331 -2.772 -2.882 -2.772c -1.078 0 -1.199 0.22 -1.199 0.572Z "/></symbol><symbol id="g5A92E01899F34F07E07504597D398CD0" overflow="visible"><path d="M 0 0m 7.293 1.276c 0.055 -0.891 0.011 -0.902 -0.704 -0.935c -0.066 -0.066 -0.066 -0.297 0 -0.363c 0.407 0.011 0.847 0.022 1.177 0.022c 0.33 0 0.836 -0.011 1.199 -0.022c 0.066 0.066 0.066 0.297 0 0.363c -0.748 0.033 -0.781 0.077 -0.847 0.99l -0.33 4.631c -0.044 0.594 0.011 0.748 0.759 0.792c 0.066 0.066 0.066 0.297 0 0.363l -1.441 -0.022l -2.332 -5.577c -0.044 -0.11 -0.077 -0.154 -0.099 -0.154c -0.022 0 -0.055 0.055 -0.088 0.143l -2.255 5.588l -1.595 0.022c -0.066 -0.066 -0.066 -0.297 0 -0.363c 0.759 -0.044 0.825 -0.066 0.748 -0.891l -0.44 -4.532c -0.066 -0.66 -0.198 -0.935 -0.825 -0.99c -0.066 -0.066 -0.066 -0.297 0 -0.363c 0.33 0.011 0.682 0.022 0.946 0.022c 0.264 0 0.704 -0.011 1.034 -0.022c 0.066 0.066 0.066 0.297 0 0.363c -0.726 0.055 -0.781 0.396 -0.726 1.012l 0.418 4.411h 0.022l 2.277 -5.709c 0.033 -0.077 0.099 -0.165 0.165 -0.165c 0.066 0 0.11 0.077 0.154 0.165l 2.475 5.819h 0.022Z "/></symbol><symbol id="gB7A7981F9D6FEBAF4A3C34CF9A3FA37" overflow="visible"><path d="M 0 0m 2.079 1.342v 1.859c 0.924 0 1.133 -0.165 1.287 -0.418l 1.177 -1.914c 0.319 -0.517 0.792 -0.979 1.452 -0.979c 0.165 0 0.352 0.022 0.462 0.077c 0.044 0.077 0.033 0.176 -0.011 0.264c -0.495 0 -0.77 0.374 -1.056 0.847l -1.386 2.31c 0.473 0.154 1.463 0.726 1.463 1.881c 0 0.55 -0.187 1.001 -0.583 1.375c -0.528 0.495 -1.21 0.528 -1.903 0.528c -0.517 0 -0.979 -0.077 -1.375 -0.077c -0.385 0 -0.902 0.011 -1.419 0.022c -0.066 -0.066 -0.066 -0.297 0 -0.363c 0.77 -0.033 0.957 -0.088 0.957 -1.001v -4.411c 0 -0.913 -0.187 -0.968 -0.957 -1.001c -0.066 -0.066 -0.066 -0.297 0 -0.363c 0.495 0.011 1.012 0.022 1.43 0.022c 0.418 0 0.935 -0.011 1.419 -0.022c 0.066 0.066 0.066 0.297 0 0.363c -0.77 0.033 -0.957 0.088 -0.957 1.001Z m 0.913 5.456c 0.671 0 1.463 -0.242 1.463 -1.54c 0 -1.375 -0.781 -1.683 -1.848 -1.683h -0.528v 2.519c 0 0.319 0.132 0.704 0.913 0.704Z "/></symbol><symbol id="g14CB754CE297B694D18D364D9C1BAD84" overflow="visible"><path d="M 0 0m 3.091 3.971h -1.001v 1.98c 0 0.484 0.132 0.704 0.726 0.704h 0.825c 0.825 0 1.001 -0.44 1.243 -1.199c 0.132 -0.022 0.253 0 0.363 0.055c -0.055 0.451 -0.22 1.507 -0.242 1.595c 0 0.022 -0.011 0.033 -0.044 0.033c -0.187 -0.033 -0.275 -0.044 -0.539 -0.044h -2.805c -0.33 0 -0.979 0.011 -1.419 0.022c -0.066 -0.066 -0.066 -0.297 0 -0.363c 0.77 -0.033 0.957 -0.088 0.957 -1.001v -4.411c 0 -0.913 -0.187 -0.968 -0.957 -1.001c -0.066 -0.066 -0.066 -0.297 0 -0.363c 0.407 0.011 1.067 0.022 1.43 0.022h 2.365c 0.528 0 1.408 -0.022 1.408 -0.022c 0.154 0.55 0.319 1.276 0.407 1.837c -0.11 0.066 -0.242 0.088 -0.385 0.055c -0.22 -0.792 -0.605 -1.441 -1.441 -1.441h -1.276c -0.462 0 -0.616 0.176 -0.616 0.693v 2.431h 1.001c 0.935 0 0.968 -0.253 1.001 -0.748c 0.066 -0.066 0.297 -0.066 0.363 0c -0.011 0.286 -0.022 0.594 -0.022 0.968c 0 0.308 0.011 0.682 0.022 0.946c -0.066 0.066 -0.297 0.066 -0.363 0c -0.033 -0.605 -0.066 -0.748 -1.001 -0.748Z "/></symbol><symbol id="g21CC2BA9157DFD492B07A3D0DECDE432" overflow="visible"><path d="M 0 0m 2.101 1.342v 4.411c 0 0.913 0.187 0.968 0.957 1.001c 0.066 0.066 0.066 0.297 0 0.363c -0.484 -0.011 -1.001 -0.022 -1.43 -0.022c -0.363 0 -0.902 0.011 -1.419 0.022c -0.066 -0.066 -0.066 -0.297 0 -0.363c 0.77 -0.033 0.957 -0.088 0.957 -1.001v -4.411c 0 -0.913 -0.187 -0.968 -0.957 -1.001c -0.066 -0.066 -0.066 -0.297 0 -0.363c 0.495 0.011 1.034 0.022 1.43 0.022c 0.396 0 0.924 -0.011 1.419 -0.022c 0.066 0.066 0.066 0.297 0 0.363c -0.77 0.033 -0.957 0.088 -0.957 1.001Z "/></symbol><symbol id="g6553513FE64203BDE37F7BF6C55D1886" overflow="visible"><path d="M 0 0m 3.85 1.342v 4.202c 0 0.704 0.11 1.122 0.506 1.122h 0.242c 0.825 0 1.342 -0.286 1.529 -1.133c 0.121 0 0.275 0.011 0.374 0.055c -0.077 0.506 -0.132 1.067 -0.143 1.562c 0 0.011 -0.022 0.033 -0.033 0.033c -0.374 -0.033 -1.595 -0.088 -2.464 -0.088h -0.946c -0.847 0 -2.145 0.055 -2.563 0.088c -0.022 0 -0.044 -0.022 -0.044 -0.033c -0.044 -0.495 -0.154 -1.067 -0.275 -1.595c 0.11 -0.044 0.242 -0.055 0.374 -0.055c 0.22 0.88 0.726 1.166 1.452 1.166h 0.539c 0.407 0 0.517 -0.418 0.517 -1.089v -4.235c 0 -0.913 -0.187 -0.968 -1.067 -1.001c -0.066 -0.066 -0.066 -0.297 0 -0.363c 0.539 0.011 1.1 0.022 1.54 0.022c 0.418 0 0.979 -0.011 1.529 -0.022c 0.066 0.066 0.066 0.297 0 0.363c -0.88 0.033 -1.067 0.088 -1.067 1.001Z "/></symbol><symbol id="g38178746B45E40B27C1ECDAD3F62C0A9" overflow="visible"><path d="M 0 0m 3.168 1.342v 3.817c 0 0.66 0.011 1.331 0.033 1.474c 0 0.055 -0.022 0.055 -0.066 0.055c -0.605 -0.374 -1.188 -0.649 -2.156 -1.1c 0.022 -0.121 0.066 -0.231 0.165 -0.297c 0.506 0.209 0.748 0.275 0.957 0.275c 0.187 0 0.22 -0.264 0.22 -0.638v -3.586c 0 -0.913 -0.297 -0.968 -1.067 -1.001c -0.066 -0.066 -0.066 -0.297 0 -0.363c 0.539 0.011 0.935 0.022 1.529 0.022c 0.528 0 0.792 -0.011 1.342 -0.022c 0.066 0.066 0.066 0.297 0 0.363c -0.77 0.033 -0.957 0.088 -0.957 1.001Z "/></symbol><symbol id="g5BA3B744496DE638A69C45D17B8B8178" overflow="visible"><path d="M 0 0m 0.671 5.148c 0 -0.231 0.209 -0.429 0.44 -0.429c 0.187 0 0.517 0.198 0.517 0.44c 0 0.088 -0.022 0.154 -0.044 0.231c -0.022 0.077 -0.088 0.176 -0.088 0.264c 0 0.275 0.286 0.671 1.089 0.671c 0.396 0 0.957 -0.275 0.957 -1.331c 0 -0.704 -0.253 -1.276 -0.902 -1.936l -0.814 -0.803c -1.078 -1.1 -1.254 -1.628 -1.254 -2.277c 0 0 0.561 0.022 0.913 0.022h 1.925c 0.352 0 0.858 -0.022 0.858 -0.022c 0.143 0.583 0.253 1.408 0.264 1.738c -0.066 0.055 -0.209 0.077 -0.319 0.055c -0.187 -0.781 -0.374 -1.056 -0.77 -1.056h -1.958c 0 0.528 0.759 1.276 0.814 1.331l 1.111 1.067c 0.627 0.605 1.1 1.089 1.1 1.925c 0 1.188 -0.968 1.672 -1.859 1.672c -1.221 0 -1.98 -0.902 -1.98 -1.562Z "/></symbol><symbol id="g5D279FAE8446F75B298AD3FAD5B8DC82" overflow="visible"><path d="M 0 0m 1.144 5.753v -4.411c 0 -0.913 -0.187 -0.968 -0.957 -1.001c -0.066 -0.066 -0.066 -0.297 0 -0.363c 0.495 0.011 1.034 0.022 1.43 0.022c 0.385 0 1.034 -0.011 1.584 -0.022c 0.066 0.066 0.066 0.297 0 0.363c -0.858 0.044 -1.122 0.088 -1.122 1.001v 1.87c 0.242 -0.077 0.506 -0.11 0.891 -0.11c 2.002 0 2.607 1.309 2.607 2.244c 0 0.649 -0.429 1.826 -2.464 1.826c -0.418 0 -1.067 -0.077 -1.507 -0.077c -0.407 0 -0.979 0.011 -1.419 0.022c -0.066 -0.066 -0.066 -0.297 0 -0.363c 0.77 -0.033 0.957 -0.088 0.957 -1.001Z m 0.935 0.341c 0 0.319 0.165 0.704 0.957 0.704c 0.759 0 1.518 -0.253 1.518 -1.65c 0 -1.188 -0.572 -1.672 -1.639 -1.672c -0.275 0 -0.715 0.022 -0.836 0.055Z "/></symbol><symbol id="g56988988A1B18AD1D268C4FF00F68428" overflow="visible"><path d="M 0 0m 3.927 -0.11c 1.067 0 2.046 0.506 2.794 1.485c -0.055 0.099 -0.132 0.165 -0.253 0.165c -0.781 -0.858 -1.529 -1.199 -2.552 -1.199c -1.485 0 -2.508 1.672 -2.508 3.278c 0 0.946 0.253 1.738 0.649 2.233c 0.55 0.671 1.188 0.979 1.76 0.979c 1.518 0 2.123 -0.902 2.409 -1.848c 0.132 -0.044 0.242 -0.011 0.363 0.055c -0.055 0.572 -0.132 1.1 -0.242 1.705c -0.561 0.055 -1.056 0.495 -2.409 0.495c -0.935 0 -1.716 -0.341 -2.365 -0.935c -0.726 -0.671 -1.166 -1.749 -1.166 -2.893c 0 -1.914 1.155 -3.52 3.52 -3.52Z "/></symbol><symbol id="gDAEF01F2D8957876B63D52895EE853E4" overflow="visible"><path d="M 0 0m 1.639 0h 2.343c 0.297 0 1.309 -0.022 1.309 -0.022c 0.11 0.55 0.22 1.265 0.286 1.837c -0.11 0.055 -0.231 0.077 -0.363 0.055c -0.22 -0.792 -0.627 -1.441 -1.793 -1.441h -0.693c -0.429 0 -0.627 0.209 -0.627 0.77v 4.554c 0 0.913 0.187 0.968 0.957 1.001c 0.066 0.066 0.066 0.297 0 0.363c -0.495 -0.011 -1.012 -0.022 -1.43 -0.022c -0.396 0 -0.913 0.011 -1.419 0.022c -0.066 -0.066 -0.066 -0.297 0 -0.363c 0.77 -0.033 0.957 -0.088 0.957 -1.001v -4.411c 0 -0.913 -0.187 -0.968 -0.957 -1.001c -0.066 -0.066 -0.066 -0.297 0 -0.363c 0.429 0.011 1.056 0.022 1.43 0.022Z "/></symbol><symbol id="g3119527852ABF6F397DFE5CA87E4182A" overflow="visible"><path d="M 0 0m 8.91 6.215l -1.716 -4.774l -0.033 0.011l -1.518 4.642c -0.187 0.594 0.198 0.627 0.572 0.66c 0.066 0.066 0.066 0.297 0 0.363c -0.451 -0.011 -0.935 -0.022 -1.375 -0.022c -0.363 0 -0.748 0.011 -1.1 0.022c -0.066 -0.066 -0.066 -0.297 0 -0.363c 0.583 -0.033 0.825 -0.374 0.924 -0.66l 0.253 -0.726c 0.044 -0.132 0.077 -0.242 0.077 -0.341c 0 -0.11 -0.011 -0.198 -0.099 -0.385l -1.419 -3.223l -0.055 0.011l -1.606 4.862c -0.132 0.385 0.165 0.44 0.55 0.462c 0.066 0.066 0.066 0.297 0 0.363c -0.363 -0.011 -0.847 -0.022 -1.276 -0.022c -0.385 0 -0.704 0.011 -1.023 0.022c -0.066 -0.066 -0.066 -0.297 0 -0.363c 0.495 -0.033 0.572 -0.044 0.781 -0.638l 2.068 -5.951c 0.055 -0.176 0.121 -0.297 0.242 -0.297c 0.143 0 0.209 0.11 0.286 0.297l 1.639 3.685c 0.099 0.22 0.132 0.275 0.187 0.275c 0.044 0 0.088 -0.121 0.154 -0.308l 1.265 -3.652c 0.066 -0.187 0.121 -0.297 0.253 -0.297c 0.121 0 0.198 0.121 0.253 0.286l 2.211 5.929c 0.143 0.385 0.341 0.638 0.946 0.671c 0.066 0.066 0.066 0.297 0 0.363c -0.319 -0.011 -0.671 -0.022 -0.957 -0.022c -0.286 0 -0.77 0.011 -1.21 0.022c -0.066 -0.066 -0.066 -0.297 0 -0.363c 0.451 -0.033 0.891 -0.066 0.726 -0.539Z "/></symbol><symbol id="gFFE2DEAAE06F2A8E873F596F20DAEEAB" overflow="visible"><path d="M 0 0m 2.75 4.785v -1.749h -1.815c -0.132 0 -0.275 -0.209 -0.275 -0.374c 0 -0.088 0.066 -0.176 0.165 -0.176h 1.925v -1.87c 0 -0.099 0.088 -0.165 0.176 -0.165c 0.165 0 0.374 0.143 0.374 0.275v 1.76h 1.793c 0.143 0 0.297 0.253 0.297 0.363c 0 0.088 -0.044 0.187 -0.154 0.187h -1.936v 1.892c 0 0.11 -0.099 0.154 -0.187 0.154c -0.11 0 -0.363 -0.154 -0.363 -0.297Z "/></symbol></defs></svg>