<?xml version="1.0" encoding="UTF-8" standalone="no"?>
<!-- Created with Inkscape (http://www.inkscape.org/) -->

<svg
   version="1.1"
   id="svg1"
   width="490.26666"
   height="325.16"
   viewBox="0 0 490.26666 325.16"
   sodipodi:docname="24-25-1-基础物理学-期末-题图3.pdf"
   xmlns:inkscape="http://www.inkscape.org/namespaces/inkscape"
   xmlns:sodipodi="http://sodipodi.sourceforge.net/DTD/sodipodi-0.dtd"
   xmlns="http://www.w3.org/2000/svg"
   xmlns:svg="http://www.w3.org/2000/svg">
  <defs
     id="defs1" />
  <sodipodi:namedview
     id="namedview1"
     pagecolor="#ffffff"
     bordercolor="#000000"
     borderopacity="0.25"
     inkscape:showpageshadow="2"
     inkscape:pageopacity="0.0"
     inkscape:pagecheckerboard="0"
     inkscape:deskcolor="#d1d1d1">
    <inkscape:page
       x="0"
       y="0"
       inkscape:label="1"
       id="page1"
       width="490.26666"
       height="325.16"
       margin="0"
       bleed="0" />
  </sodipodi:namedview>
  <g
     id="g1"
     inkscape:groupmode="layer"
     inkscape:label="1">
    <path
       id="path1"
       d="M -31.73611,-117.88739 V 125.9901 h 367.70454 v -243.87749 z"
       style="fill:#ffffff;fill-opacity:1;fill-rule:nonzero;stroke:none"
       transform="matrix(1.3333333,0,0,-1.3333333,42.314667,167.97867)" />
    <path
       id="path2"
       d="M 0,0 H 317.02472"
       style="fill:none;stroke:#000000;stroke-width:0.3985;stroke-linecap:butt;stroke-linejoin:miter;stroke-miterlimit:10;stroke-dasharray:none;stroke-opacity:1"
       transform="matrix(1.3333333,0,0,-1.3333333,42.314667,167.97867)" />
    <path
       id="path3"
       d="M -1.19551,1.59401 C -1.09587,0.99626 0,0.09961 0.29886,0 0,-0.09961 -1.09587,-0.99626 -1.19551,-1.59401"
       style="fill:none;stroke:#000000;stroke-width:0.31879;stroke-linecap:round;stroke-linejoin:round;stroke-miterlimit:10;stroke-dasharray:none;stroke-opacity:1"
       transform="matrix(1.3333333,0,0,-1.3333333,465.01429,167.97867)" />
    <g
       id="g3"
       aria-label="x(m)"
       transform="matrix(1.3333333,0,0,1.3333333,451.13067,159.964)">
      <path
         id="path4"
         d="m 3.3268047,-3.0110859 c 0.058594,-0.2578125 0.2929687,-1.171875 0.984375,-1.171875 0.046875,0 0.2929687,0 0.5039062,0.1289062 -0.28125,0.046875 -0.4804687,0.3046875 -0.4804687,0.5390625 0,0.1640625 0.1054687,0.3515625 0.375,0.3515625 0.2226562,0 0.5390625,-0.1875 0.5390625,-0.5859375 0,-0.515625 -0.5859375,-0.65625 -0.9257813,-0.65625 -0.5742187,0 -0.9257812,0.5273438 -1.0429687,0.7617188 -0.2578125,-0.65625 -0.7851563,-0.7617188 -1.078125,-0.7617188 -1.0429688,0 -1.60546876,1.2890625 -1.60546876,1.5351563 0,0.1054687 0.10546875,0.1054687 0.1171875,0.1054687 0.0820313,0 0.1171875,-0.023437 0.12890625,-0.1171875 0.33984371,-1.0546875 0.99609371,-1.3007812 1.33593751,-1.3007812 0.1875,0 0.5390625,0.09375 0.5390625,0.6679687 0,0.3046875 -0.1640625,0.9726563 -0.5390625,2.3671875 -0.1523438,0.62109376 -0.5039063,1.04296876 -0.9492188,1.04296876 -0.058594,0 -0.28124996,0 -0.49218746,-0.12890625 0.24609375,-0.0585938 0.46874996,-0.26953125 0.46874996,-0.5390625 0,-0.26953121 -0.22265621,-0.35156251 -0.37499996,-0.35156251 -0.29296875,0 -0.5390625,0.25781251 -0.5390625,0.57421876 0,0.45703125 0.4921875,0.65625 0.93749996,0.65625 0.65625,0 1.0078125,-0.69140625 1.0429688,-0.75 0.1171875,0.36328125 0.4804687,0.75 1.078125,0.75 1.0195312,0 1.59375,-1.27734376 1.59375,-1.53515626 0,-0.09375 -0.09375,-0.09375 -0.1289063,-0.09375 -0.082031,0 -0.1054687,0.035156 -0.1289062,0.1054688 -0.328125,1.06640621 -0.9960938,1.31249996 -1.3242188,1.31249996 -0.3867187,0 -0.5390625,-0.328125 -0.5390625,-0.65625 0,-0.22265625 0.058594,-0.44531246 0.1640625,-0.87890626 z m 0,0"
         style="fill:#000000;fill-opacity:1;fill-rule:nonzero;stroke:none" />
      <path
         id="path5"
         d="m 8.9869609,2.3912578 c 0,-0.035156 0,-0.046875 -0.1640625,-0.2226562 -1.2421875,-1.25390629 -1.5703125,-3.12890629 -1.5703125,-4.6640625 0,-1.7226563 0.3867188,-3.4570313 1.6054688,-4.7109375 0.1289062,-0.1171875 0.1289062,-0.1289063 0.1289062,-0.1640625 0,-0.070312 -0.035156,-0.1054688 -0.09375,-0.1054688 -0.1054687,0 -0.9960937,0.6796875 -1.5820312,1.9453125 -0.515625,1.1015625 -0.6328125,2.203125 -0.6328125,3.0351563 0,0.7851562 0.1171875,1.99218746 0.65625,3.11718746 0.5976562,1.21875004 1.453125,1.87500004 1.5585937,1.87500004 0.058594,0 0.09375,-0.035156 0.09375,-0.1054688 z m 0,0"
         style="fill:#000000;fill-opacity:1;fill-rule:nonzero;stroke:none" />
      <path
         id="path6"
         d="M 17.664695,6.328125e-4 V -0.30405469 c -0.515625,0 -0.761718,0 -0.773437,-0.3046875 V -2.5071797 c 0,-0.8554687 0,-1.171875 -0.316406,-1.5234375 -0.128907,-0.1757812 -0.46875,-0.375 -1.042969,-0.375 -0.832031,0 -1.277344,0.5976563 -1.441406,0.984375 -0.140625,-0.8671875 -0.878907,-0.984375 -1.324219,-0.984375 -0.726563,0 -1.195313,0.4335938 -1.476563,1.0546875 v -1.0546875 l -1.4062497,0.1171875 v 0.3046875 c 0.7031247,0 0.7851567,0.070312 0.7851567,0.5625 v 2.66015626 c 0,0.45703125 -0.117188,0.45703125 -0.7851567,0.45703125 V 6.328125e-4 L 11.008445,-0.03452344 12.121727,6.328125e-4 V -0.30405469 c -0.65625,0 -0.773438,0 -0.773438,-0.45703125 V -2.5892109 c 0,-1.03125 0.714844,-1.59375 1.347656,-1.59375 0.621094,0 0.738282,0.5390625 0.738282,1.1015625 v 2.32031246 c 0,0.45703125 -0.117188,0.45703125 -0.773438,0.45703125 V 6.328125e-4 l 1.125,-0.0351562525 1.113281,0.0351562525 V -0.30405469 c -0.667968,0 -0.785156,0 -0.785156,-0.45703125 V -2.5892109 c 0,-1.03125 0.714844,-1.59375 1.347656,-1.59375 0.632813,0 0.738282,0.5390625 0.738282,1.1015625 v 2.32031246 c 0,0.45703125 -0.105469,0.45703125 -0.773438,0.45703125 V 6.328125e-4 l 1.125,-0.0351562525 z m 0,0"
         style="fill:#000000;fill-opacity:1;fill-rule:nonzero;stroke:none" />
      <path
         id="path7"
         d="m 20.749656,-2.4954609 c 0,-0.7734375 -0.117187,-1.9804688 -0.65625,-3.1054688 -0.597656,-1.21875 -1.464844,-1.875 -1.558594,-1.875 -0.05859,0 -0.105468,0.046875 -0.105468,0.1054688 0,0.035156 0,0.046875 0.199218,0.234375 0.972657,0.984375 1.535157,2.5664062 1.535157,4.640625 0,1.71093746 -0.363282,3.45703121 -1.59375,4.7226562 -0.140625,0.1171875 -0.140625,0.1289063 -0.140625,0.1640625 0,0.058594 0.04687,0.1054688 0.105468,0.1054688 0.09375,0 0.996094,-0.6796875 1.582032,-1.94531254 0.503906,-1.1015625 0.632812,-2.20312496 0.632812,-3.04687496 z m 0,0"
         style="fill:#000000;fill-opacity:1;fill-rule:nonzero;stroke:none" />
    </g>
    <path
       id="path8"
       d="M 0,-113.3942 V 112.93591"
       style="fill:none;stroke:#000000;stroke-width:0.3985;stroke-linecap:butt;stroke-linejoin:miter;stroke-miterlimit:10;stroke-dasharray:none;stroke-opacity:1"
       transform="matrix(1.3333333,0,0,-1.3333333,42.314667,167.97867)" />
    <path
       id="path9"
       d="M -1.19551,1.59401 C -1.09587,0.99626 0,0.09961 0.29886,0 0,-0.09961 -1.09587,-0.99626 -1.19551,-1.59401"
       style="fill:none;stroke:#000000;stroke-width:0.31879;stroke-linecap:round;stroke-linejoin:round;stroke-miterlimit:10;stroke-dasharray:none;stroke-opacity:1"
       transform="matrix(0,-1.3333333,-1.3333333,0,42.314667,17.397453)" />
    <g
       id="g9"
       aria-label="y(m)"
       transform="matrix(1.3333333,0,0,1.3333333,47.008,20.108)">
      <path
         id="path10"
         d="m 4.8397031,-3.7958437 c 0.046875,-0.140625 0.046875,-0.1523438 0.046875,-0.2226563 0,-0.1875 -0.140625,-0.2695312 -0.2929687,-0.2695312 -0.1054688,0 -0.2578125,0.058594 -0.3515625,0.1992187 -0.023437,0.058594 -0.09375,0.3632813 -0.140625,0.5390625 -0.070312,0.2578125 -0.140625,0.5273438 -0.1992188,0.796875 l -0.4453125,1.79296875 c -0.035156,0.15234375 -0.46875,0.85546875 -1.125,0.85546875 -0.5039062,0 -0.6210937,-0.4453125 -0.6210937,-0.80859375 0,-0.45703125 0.1757812,-1.07812495 0.515625,-1.95703125 0.1523437,-0.4101562 0.1992187,-0.515625 0.1992187,-0.7148437 0,-0.4453125 -0.328125,-0.8203125 -0.8203125,-0.8203125 -0.94921873,0 -1.31249998,1.453125 -1.31249998,1.5351562 0,0.1054688 0.09375,0.1054688 0.1171875,0.1054688 0.09375,0 0.10546875,-0.023437 0.15234375,-0.1875 0.26953125,-0.9375 0.66796873,-1.2304688 1.00781253,-1.2304688 0.082031,0 0.2578125,0 0.2578125,0.3164063 0,0.2460937 -0.1054688,0.515625 -0.1757813,0.703125 -0.3984375,1.0546875 -0.5742187,1.6171875 -0.5742187,2.0859375 0,0.89062495 0.6210937,1.1835937 1.21875,1.1835937 0.3867187,0 0.7265625,-0.1640625 0.9960937,-0.4453125 C 3.1639219,0.1768125 3.0467344,0.669 2.6482969,1.1963438 2.3904844,1.5361875 2.0154844,1.8291563 1.5584531,1.8291563 c -0.140625,0 -0.59765623,-0.035156 -0.76171873,-0.421875 0.1640625,0 0.29296873,0 0.43359373,-0.1171875 0.09375,-0.09375 0.1992188,-0.2226563 0.1992188,-0.4101563 0,-0.31640625 -0.2695313,-0.3515625 -0.375,-0.3515625 -0.22265628,0 -0.55078128,0.1640625 -0.55078128,0.6445313 0,0.5039062 0.43359375,0.8671875 1.05468748,0.8671875 1.0195313,0 2.0507813,-0.9023438 2.3320313,-2.0273438 z m 0,0"
         style="fill:#000000;fill-opacity:1;fill-rule:nonzero;stroke:none" />
      <path
         id="path11"
         d="m 8.5340391,2.3916563 c 0,-0.035156 0,-0.046875 -0.1640625,-0.2226563 -1.2421875,-1.25390625 -1.5703125,-3.12890625 -1.5703125,-4.6640625 0,-1.7226562 0.3867187,-3.4570312 1.6054687,-4.7109375 0.1289063,-0.1171875 0.1289063,-0.1289062 0.1289063,-0.1640625 0,-0.070312 -0.035156,-0.1054687 -0.09375,-0.1054687 -0.1054688,0 -0.9960938,0.6796875 -1.5820313,1.9453125 -0.515625,1.1015625 -0.6328125,2.203125 -0.6328125,3.0351562 0,0.7851563 0.1171875,1.9921875 0.65625,3.1171875 0.5976563,1.21875 1.453125,1.875 1.5585938,1.875 0.058594,0 0.09375,-0.035156 0.09375,-0.1054687 z m 0,0"
         style="fill:#000000;fill-opacity:1;fill-rule:nonzero;stroke:none" />
      <path
         id="path12"
         d="m 17.214703,0.00103125 v -0.3046875 c -0.515625,0 -0.761719,0 -0.773437,-0.3046875 V -2.5067812 c 0,-0.8554688 0,-1.171875 -0.316407,-1.5234375 -0.128906,-0.1757813 -0.46875,-0.375 -1.042968,-0.375 -0.832032,0 -1.277344,0.5976562 -1.441407,0.984375 -0.140625,-0.8671875 -0.878906,-0.984375 -1.324218,-0.984375 -0.726563,0 -1.195313,0.4335937 -1.476563,1.0546875 v -1.0546875 l -1.4062499,0.1171875 v 0.3046875 c 0.7031249,0 0.7851559,0.070312 0.7851559,0.5625 v 2.6601562 c 0,0.45703125 -0.117187,0.45703125 -0.7851559,0.45703125 v 0.3046875 L 10.558453,-0.034125 11.671734,0.00103125 v -0.3046875 c -0.65625,0 -0.773437,0 -0.773437,-0.45703125 v -1.828125 c 0,-1.03125 0.714844,-1.59375 1.347656,-1.59375 0.621094,0 0.738281,0.5390625 0.738281,1.1015625 v 2.3203125 c 0,0.45703125 -0.117187,0.45703125 -0.773437,0.45703125 v 0.3046875 l 1.125,-0.03515625 1.113281,0.03515625 v -0.3046875 c -0.667969,0 -0.785156,0 -0.785156,-0.45703125 v -1.828125 c 0,-1.03125 0.714844,-1.59375 1.347656,-1.59375 0.632813,0 0.738281,0.5390625 0.738281,1.1015625 v 2.3203125 c 0,0.45703125 -0.105468,0.45703125 -0.773437,0.45703125 v 0.3046875 l 1.125,-0.03515625 z m 0,0"
         style="fill:#000000;fill-opacity:1;fill-rule:nonzero;stroke:none" />
      <path
         id="path13"
         d="m 20.296734,-2.4950625 c 0,-0.7734375 -0.117187,-1.9804687 -0.65625,-3.1054687 -0.597656,-1.21875 -1.464843,-1.875 -1.558593,-1.875 -0.05859,0 -0.105469,0.046875 -0.105469,0.1054687 0,0.035156 0,0.046875 0.199219,0.234375 0.972656,0.984375 1.535156,2.5664063 1.535156,4.640625 0,1.7109375 -0.363281,3.45703125 -1.59375,4.7226563 -0.140625,0.1171875 -0.140625,0.1289062 -0.140625,0.1640625 0,0.058594 0.04687,0.1054687 0.105469,0.1054687 0.09375,0 0.996093,-0.6796875 1.582031,-1.9453125 0.503906,-1.1015625 0.632812,-2.203125 0.632812,-3.046875 z m 0,0"
         style="fill:#000000;fill-opacity:1;fill-rule:nonzero;stroke:none" />
    </g>
    <path
       id="path14"
       d="m 0,0 c 0,0 0.71002,-2.22507 0.98271,-3.07965 0.27269,-0.8546 0.71004,-2.22508 0.98273,-3.07968 0.27269,-0.8546 0.71002,-2.22987 0.98271,-3.07967 0.27271,-0.84979 0.71005,-2.20009 0.98275,-3.04507 0.27268,-0.84499 0.71003,-2.20008 0.98272,-3.04506 0.27269,-0.84499 0.71002,-2.2049 0.98271,-3.04507 0.27271,-0.8402 0.71005,-2.1799 0.98274,-3.01047 0.27269,-0.8306 0.71004,-2.15009 0.98273,-2.97586 0.27269,-0.8258 0.71002,-2.15969 0.98271,-2.97587 0.27271,-0.81619 0.71004,-2.10008 0.98275,-2.90666 0.27269,-0.80656 0.71004,-2.10968 0.98272,-2.90666 0.27269,-0.79698 0.71002,-2.05008 0.98272,-2.83745 0.2727,-0.78737 0.71003,-2.05967 0.98274,-2.83745 0.27269,-0.77775 0.71003,-2.00967 0.98272,-2.76823 0.27269,-0.75856 0.71003,-1.95488 0.98272,-2.69905 0.27269,-0.74417 0.71003,-1.92987 0.98274,-2.66443 0.27268,-0.73456 0.71003,-1.90967 0.98272,-2.62982 0.27269,-0.72017 0.71003,-1.85968 0.98272,-2.56064 0.27269,-0.70096 0.71004,-1.80968 0.98274,-2.49142 0.27269,-0.68175 0.71004,-1.75966 0.98273,-2.42221 0.27269,-0.66254 0.71002,-1.70487 0.98271,-2.353 0.27269,-0.64815 0.71003,-1.68948 0.98274,-2.31842 0.27269,-0.62894 0.71004,-1.60965 0.98272,-2.21459 0.2727,-0.60493 0.71003,-1.55966 0.98272,-2.1454 0.27269,-0.58572 0.71004,-1.50966 0.98273,-2.07617 0.2727,-0.56653 0.71005,-1.46448 0.98274,-2.00699 0.27269,-0.54251 0.71002,-1.38466 0.98271,-1.90317 0.27269,-0.5185 0.71004,-1.33944 0.98273,-1.83395 0.2727,-0.49449 0.71005,-1.25964 0.98274,-1.73015 0.27269,-0.4705 0.71002,-1.20965 0.98271,-1.66094 0.27269,-0.4513 0.71004,-1.16926 0.98273,-1.59174 0.2727,-0.4225 0.71004,-1.05965 0.98274,-1.45333 0.27269,-0.39369 0.71002,-1.01445 0.98271,-1.38412 0.27269,-0.36969 0.71004,-0.93463 0.98273,-1.28032 0.27271,-0.34567 0.71004,-0.89424 0.98274,-1.21111 0.27269,-0.31686 0.71002,-0.78463 0.98271,-1.07269 0.27269,-0.28807 0.71004,-0.73942 0.98273,-1.00349 0.27271,-0.26406 0.71003,-0.66443 0.98274,-0.89968 0.27269,-0.23526 0.71002,-0.58943 0.98271,-0.79586 0.27269,-0.20646 0.71004,-0.51444 0.98273,-0.69208 0.27269,-0.17763 0.71004,-0.43941 0.98275,-0.58824 0.27268,-0.14882 0.71002,-0.36443 0.9827,-0.48444 0.2727,-0.12003 0.71004,-0.28943 0.98273,-0.38065 0.27269,-0.09121 0.71004,-0.21441 0.98274,-0.27682 0.27269,-0.06241 0.71003,-0.13942 0.98272,-0.17302 0.27269,-0.0336 0.71003,-0.06441 0.98272,-0.0692 0.27269,-0.0048 0.71003,0.01061 0.98272,0.03461 0.2727,0.024 0.71005,0.0856 0.98274,0.13841 0.27269,0.05281 0.71003,0.16062 0.98273,0.24223 0.27268,0.08161 0.71002,0.23562 0.9827,0.34603 0.27271,0.11041 0.71006,0.31062 0.98275,0.44984 0.27269,0.13921 0.71004,0.38561 0.98273,0.55364 0.27269,0.16803 0.71002,0.45581 0.98271,0.65745 0.27271,0.20165 0.71004,0.56542 0.98274,0.79587 0.27269,0.23045 0.71004,0.61543 0.98273,0.86508 0.27269,0.24965 0.71002,0.65584 0.98271,0.93428 0.2727,0.27846 0.71003,0.76064 0.98274,1.07271 0.27269,0.31206 0.71004,0.84042 0.98273,1.1765 0.27269,0.33606 0.71002,0.88564 0.98271,1.2457 0.27271,0.36007 0.71004,0.96064 0.98275,1.34953 0.27268,0.38888 0.71003,1.03563 0.98272,1.45332 0.27269,0.41769 0.71002,1.11545 0.98271,1.55715 0.27269,0.44168 0.71004,1.16543 0.98274,1.62632 0.27269,0.4609 0.71004,1.20586 0.98273,1.69556 0.27269,0.4897 0.71002,1.32026 0.98271,1.83397 0.27269,0.5137 0.71004,1.33565 0.98274,1.86856 0.27269,0.53293 0.71004,1.41545 0.98273,1.97237 0.27269,0.55693 0.71002,1.46064 0.98272,2.04158 0.27268,0.58093 0.71003,1.54046 0.98272,2.1454 0.27271,0.60493 0.71005,1.59526 0.98274,2.21458 0.27269,0.61934 0.71003,1.61066 0.98271,2.24921 0.27269,0.63853 0.71004,1.69046 0.98273,2.35299 0.2727,0.66256 0.71005,1.74529 0.98274,2.42223 0.27269,0.67694 0.71003,1.76065 0.98272,2.4568 0.27269,0.69617 0.71004,1.84528 0.98272,2.56064 0.27271,0.71537 0.71004,1.87027 0.98275,2.59523 0.27269,0.72495 0.71002,1.89048 0.98271,2.62984 0.27269,0.73935 0.71003,1.94046 0.98272,2.69902 0.27271,0.75858 0.71004,1.99529 0.98274,2.76826 0.2727,0.77297 0.71003,2.02028 0.98272,2.80285 0.27269,0.78256 0.71004,2.04527 0.98273,2.83744 0.2727,0.79218 0.71003,2.07027 0.98274,2.87206 0.27269,0.80177 0.71002,2.09048 0.98271,2.90666 0.27269,0.81618 0.71004,2.15007 0.98273,2.97586 0.27269,0.82579 0.71003,2.15007 0.98274,2.97586 0.27269,0.82579 0.71002,2.14047 0.98271,2.97585 0.27269,0.83539 0.71004,2.2001 0.98273,3.04509 0.27269,0.84498 0.71003,2.20007 0.98274,3.04506 0.27269,0.84498 0.71002,2.19528 0.98271,3.04507 0.27269,0.84979 0.71004,2.22507 0.98273,3.07967 0.27269,0.8546 0.71002,2.22508 0.98271,3.07968 0.2727,0.85458 0.71005,2.22987 0.98274,3.07966 0.27269,0.8498 0.71004,2.19045 0.98273,3.04505 0.27269,0.85458 0.71002,2.25488 0.98271,3.11427 0.27271,0.85938 0.71005,2.22988 0.98274,3.07967 0.27269,0.84978 0.71004,2.19528 0.98273,3.04508 0.27269,0.84978 0.71002,2.23467 0.98271,3.07966 0.27271,0.84498 0.71006,2.17029 0.98274,3.01047 0.2727,0.84017 0.71004,2.20968 0.98273,3.04506 0.27269,0.83538 0.71002,2.15008 0.98271,2.97587 0.27271,0.82578 0.71004,2.15488 0.98275,2.97586 0.27269,0.82098 0.71003,2.12988 0.98272,2.94126 0.27269,0.81138 0.71003,2.10968 0.98272,2.90666 0.2727,0.79696 0.71003,2.05008 0.98274,2.83745 0.27269,0.78736 0.71003,2.05966 0.98273,2.83744 0.27268,0.77777 0.71002,2.00489 0.9827,2.76825 0.2727,0.76337 0.71004,1.97986 0.98275,2.73363 0.27269,0.75379 0.71004,1.95969 0.98273,2.69905 0.27269,0.73937 0.71002,1.90967 0.98271,2.62982 0.27269,0.72017 0.71003,1.85489 0.98274,2.56064 0.27269,0.70575 0.71004,1.83468 0.98273,2.52602 0.27269,0.69136 0.71002,1.78465 0.98271,2.45682 0.27269,0.67214 0.71003,1.73468 0.98274,2.38761 0.27269,0.65294 0.71004,1.68465 0.98273,2.31839 0.27269,0.63375 0.71002,1.63948 0.98271,2.24921 0.27269,0.60974 0.71004,1.55484 0.98273,2.14539 0.2727,0.59053 0.71005,1.53947 0.98274,2.11079 0.27269,0.57132 0.71002,1.45965 0.98271,2.00697 0.27269,0.54732 0.71004,1.40966 0.98273,1.93778 0.2727,0.5281 0.71005,1.36445 0.98274,1.86856 0.27269,0.50412 0.71002,1.28465 0.98271,1.76475 0.27269,0.48011 0.71004,1.23945 0.98273,1.69556 0.2727,0.4561 0.71004,1.15965 0.98274,1.59173 0.27269,0.43209 0.71002,1.11925 0.98272,1.52254 0.27268,0.40329 0.71003,1.00965 0.98272,1.38413 0.27271,0.37448 0.71004,0.95964 0.98274,1.31491 0.27269,0.35527 0.71002,0.91925 0.98271,1.24571 0.27269,0.32646 0.71004,0.80965 0.98273,1.1073 0.27269,0.29766 0.71004,0.76444 0.98274,1.03809 0.27269,0.27365 0.71003,0.69422 0.98272,0.93429 0.27269,0.24006 0.71004,0.58461 0.98272,0.79587 0.27269,0.21124 0.71004,0.53943 0.98274,0.72666 0.27269,0.18722 0.71003,0.46441 0.98272,0.62284 0.27269,0.15844 0.71003,0.38942 0.98272,0.51905 0.27269,0.12962 0.71004,0.31442 0.98274,0.41523 0.2727,0.10083 0.71003,0.23943 0.98272,0.31144 0.27269,0.072 0.71004,0.16441 0.98272,0.20761 0.27269,0.04321 0.71003,0.08941 0.98272,0.10382 0.2727,0.01439 0.71005,0.01439 0.98274,0 0.27269,-0.01441 0.71004,-0.06061 0.98273,-0.10382 0.27269,-0.0432 0.71002,-0.1308 0.98271,-0.20761 0.2727,-0.07682 0.71005,-0.24041 0.98274,-0.34603 0.27269,-0.10562 0.71004,-0.28561 0.98272,-0.41523 0.2727,-0.12964 0.71003,-0.36062 0.98272,-0.51905 0.2727,-0.15845 0.71004,-0.43083 0.98274,-0.62286 0.27269,-0.19203 0.71004,-0.54042 0.98273,-0.76126 0.27269,-0.22084 0.71002,-0.58563 0.98271,-0.83048 0.2727,-0.24484 0.71004,-0.66063 0.98274,-0.93428 0.27269,-0.27365 0.71004,-0.74045 0.98273,-1.0381 0.27269,-0.29765 0.71002,-0.78084 0.98271,-1.1073 0.27271,-0.32646 0.71004,-0.89044 0.98274,-1.24571 0.27269,-0.35527 0.71004,-0.93564 0.98273,-1.31491 0.27269,-0.37927 0.71002,-1.01064 0.98271,-1.41872 0.27269,-0.40808 0.71004,-1.09045 0.98274,-1.52253 0.2727,-0.43209 0.71004,-1.13564 0.98273,-1.59174 0.27269,-0.45612 0.71002,-1.21546 0.98271,-1.69556 0.27269,-0.48012 0.71004,-1.26063 0.98275,-1.76475 0.27269,-0.50411 0.71003,-1.33565 0.98272,-1.86856 0.27269,-0.53293 0.71002,-1.42025 0.98271,-1.97237 0.27269,-0.55212 0.71004,-1.43567 0.98273,-2.00699 0.27271,-0.57132 0.71005,-1.51547 0.98275,-2.11079 0.27268,-0.59532 0.71002,-1.56545 0.9827,-2.18 0.2727,-0.61453 0.71004,-1.61544 0.98273,-2.24919 0.27271,-0.63374 0.71006,-1.66546 0.98275,-2.3184 0.27269,-0.65294 0.71002,-1.71545 0.98271,-2.38761 0.27269,-0.67216 0.71003,-1.76547 0.98272,-2.45683 0.27271,-0.69134 0.71004,-1.81546 0.98275,-2.52601 0.27269,-0.71056 0.71002,-1.87027 0.98271,-2.59522 0.27269,-0.72496 0.71003,-1.89528 0.98273,-2.62984 0.2727,-0.73457 0.71003,-1.91546 0.98274,-2.66444 0.27269,-0.74896 0.71002,-1.96547 0.98271,-2.73363 0.27269,-0.76817 0.71004,-2.02029 0.98273,-2.80285 0.2727,-0.78257 0.71003,-2.04528 0.98274,-2.83745 0.27269,-0.79218 0.71002,-2.07028 0.98271,-2.87207 0.27269,-0.80178 0.71004,-2.09526 0.98273,-2.90665 0.27269,-0.81137 0.71004,-2.12508 0.98274,-2.94125 0.27269,-0.81618 0.71002,-2.11548 0.98271,-2.94127 0.27269,-0.82579 0.71004,-2.17508 0.98273,-3.01047 0.27269,-0.83537 0.71004,-2.17027 0.98274,-3.01045 0.27269,-0.8402 0.71002,-2.20009 0.98272,-3.04508 0.27268,-0.84498 0.71003,-2.19528 0.98272,-3.04507 0.27269,-0.84979 0.71002,-2.22507 0.98271,-3.07966 0.27271,-0.85459 0.71005,-2.22509 0.98274,-3.07967 0.27269,-0.8546 0.71004,-2.22989 0.98273,-3.07968 0.27269,-0.8498 0.71002,-2.19524 0.98271,-3.04503 0.27271,-0.8498 0.71006,-2.22031 0.98275,-3.07968 0.27268,-0.85939 0.71004,-2.25968 0.98272,-3.11426 0.27269,-0.8546 0.71002,-2.1953 0.98272,-3.04509 0.2727,-0.84978 0.71005,-2.22986 0.98274,-3.07965 0.27269,-0.8498 0.71003,-2.2049 0.98272,-3.04509 0.27269,-0.84018 0.71003,-2.17508 0.98272,-3.01045 0.2727,-0.8354 0.71003,-2.17988 0.98274,-3.01047 0.27268,-0.8306 0.71003,-2.15488 0.98272,-2.97586 0.27269,-0.82099 0.71003,-2.1299 0.98272,-2.94127 0.2727,-0.81137 0.71004,-2.10486 0.98274,-2.90665 0.27269,-0.80179 0.71004,-2.07989 0.98273,-2.87207 0.27269,-0.79218 0.71002,-2.05487 0.98271,-2.83745 0.27269,-0.78256 0.71003,-2.03467 0.98274,-2.80284 0.27269,-0.76817 0.71004,-1.97507 0.98272,-2.73364 0.2727,-0.75856 0.71003,-1.98947 0.98272,-2.73365 0.27269,-0.74416 0.71004,-1.90487 0.98274,-2.62982 0.27269,-0.72496 0.71004,-1.88468 0.98273,-2.59523 0.27269,-0.71055 0.71002,-1.83467 0.98271,-2.52603 0.27269,-0.69136 0.71004,-1.77987 0.98273,-2.45682 0.2727,-0.67694 0.71005,-1.76446 0.98274,-2.4222 0.27269,-0.65775 0.71002,-1.67986 0.98271,-2.31841 0.27269,-0.63855 0.71004,-1.65967 0.98273,-2.2838 0.2727,-0.62413 0.71005,-1.61445 0.98274,-2.21459 0.27269,-0.60012 0.71002,-1.53468 0.98271,-2.11079 0.27269,-0.57612 0.71004,-1.48466 0.98273,-2.04158 0.27271,-0.55693 0.71005,-1.43945 0.98274,-1.97236 0.27269,-0.53293 0.71002,-1.35965 0.98271,-1.86858 0.27269,-0.50891 0.71004,-1.31445 0.98273,-1.79936 0.27271,-0.48491 0.71003,-1.23467 0.98274,-1.69556 0.27269,-0.46089 0.71002,-1.18465 0.98271,-1.62633 0.27269,-0.44169 0.71004,-1.14425 0.98273,-1.55714 0.27271,-0.41289 0.71004,-1.03465 0.98275,-1.41873 0.27268,-0.38408 0.71002,-0.98944 0.9827,-1.34952 0.2727,-0.36008 0.71004,-0.90962 0.98273,-1.2457 0.27269,-0.33607 0.71004,-0.86925 0.98274,-1.17651 0.27269,-0.30727 0.71003,-0.75964 0.98272,-1.0381 0.27269,-0.27844 0.71003,-0.71444 0.98272,-0.96887 0.27269,-0.25446 0.71004,-0.64424 0.98275,-0.86509 0.27269,-0.22082 0.71002,-0.53463 0.98271,-0.72666 0.27269,-0.19204 0.71003,-0.48943 0.98273,-0.65746 0.27268,-0.16801 0.71003,-0.41443 0.98274,-0.55365 0.27269,-0.13922 0.71002,-0.33941 0.98271,-0.44983 0.27269,-0.11041 0.71004,-0.26443 0.98273,-0.34604 0.27269,-0.0816 0.71002,-0.1942 0.98271,-0.24222 0.27271,-0.048 0.71005,-0.08461 0.98274,-0.1038 0.27269,-0.01921 0.71004,-0.0394 0.98273,-0.03461 0.27269,0.0048 0.71002,0.0356 0.98271,0.0692 0.2727,0.0336 0.71005,0.1058 0.98274,0.17302 0.27269,0.0672 0.71004,0.21541 0.98273,0.31143 0.27269,0.09601 0.71002,0.26062 0.98271,0.38063 0.27271,0.12003 0.71004,0.33562 0.98275,0.48445 0.27268,0.14882 0.71003,0.40581 0.98272,0.58826 0.27269,0.18243 0.71002,0.5154 0.98271,0.72665 0.27271,0.21125 0.71004,0.56061 0.98274,0.79587 0.27269,0.23525 0.71004,0.63562 0.98273,0.89968 0.27269,0.26406 0.71002,0.71063 0.98271,1.0035 0.27269,0.29287 0.71004,0.78563 0.98274,1.10729 0.27269,0.32167 0.71004,0.86543 0.98273,1.21111 0.27269,0.34567 0.71002,0.91062 0.98272,1.2803 0.27268,0.36969 0.71003,0.98564 0.98274,1.38412 0.27269,0.3985 0.71003,1.06066 0.98272,1.48795 0.27269,0.42729 0.71002,1.14044 0.98271,1.59173 0.27269,0.45131 0.71004,1.18564 0.98275,1.66094 0.27268,0.47531 0.71003,1.26546 0.98272,1.76477 0.27269,0.49931 0.71003,1.31544 0.98272,1.83395 0.27269,0.51851 0.71004,1.36068 0.98272,1.90319 0.27271,0.54251 0.71006,1.44044 0.98275,2.00695 0.27269,0.56653 0.71002,1.48566 0.98271,2.0762 0.27269,0.59054 0.71003,1.57024 0.98272,2.17998 0.27271,0.60975 0.71006,1.58568 0.98274,2.21462 0.2727,0.62892 0.71003,1.67024 0.98272,2.31839 0.27269,0.64813 0.71004,1.69046 0.98273,2.353 0.2727,0.66255 0.71003,1.73567 0.98274,2.42222 0.27269,0.68656 0.71002,1.82027 0.98271,2.52603 0.27269,0.70576 0.71004,1.84526 0.98273,2.56061 0.2727,0.71536 0.71003,1.86069 0.98274,2.59525 0.27269,0.73456 0.71002,1.95005 0.98271,2.69903 0.27269,0.74897 0.71004,1.94048 0.98272,2.69904 0.27271,0.75856 0.71004,1.99046 0.98275,2.76825 0.27269,0.77777 0.71002,2.05008 0.98271,2.83745 0.27269,0.78736 0.71004,2.04046 0.98273,2.83744 0.27269,0.79699 0.71004,2.09528 0.98274,2.90665 0.27269,0.81137 0.71002,2.12509 0.98271,2.94127 0.27269,0.81617 0.71004,2.11548 0.98273,2.94125 0.27269,0.82579 0.71003,2.1751 0.98274,3.01047 0.27269,0.83537 0.71002,2.17508 0.98271,3.01047 0.27269,0.83537 0.71004,2.17027 0.98273,3.01045 0.27269,0.8402 0.71002,2.1953 0.98271,3.04509 0.27271,0.84979 0.71006,2.22507 0.98274,3.07965 0.2727,0.8546 0.71004,2.22509 0.98273,3.07969 0.27269,0.85459 0.71002,2.22988 0.98271,3.07967 0.27271,0.8498 0.71006,2.19526 0.98275,3.04503 0.27269,0.8498 0.71003,2.22509 0.98272,3.07968 0.27269,0.8546 0.71003,2.22507 0.98272,3.07967 0.2727,0.85458 0.71003,2.22508 0.98274,3.07967 0.27269,0.8546 0.71003,2.22988 0.98273,3.07968 0.27268,0.84979 0.71002,2.20007 0.9827,3.04506 0.27271,0.84498 0.71004,2.20968 0.98275,3.04507 0.27269,0.83537 0.71004,2.14527 0.98273,2.97586 0.27269,0.83058 0.71002,2.18468 0.98271,3.01047 0.27271,0.82577 0.71003,2.12508 0.98274,2.94125 0.27269,0.81618 0.71004,2.13469 0.98273,2.94127 0.27269,0.80657 0.71002,2.07987 0.98271,2.87204 0.27269,0.79218 0.71003,2.05008 0.98274,2.83745 0.27269,0.78738 0.71004,2.06448 0.98273,2.83746 0.27269,0.77297 0.71002,1.97509 0.98271,2.73365 0.27269,0.75856 0.71004,1.98466 0.98274,2.73364 0.27269,0.74896 0.71004,1.93468 0.98273,2.66443 0.27269,0.72975 0.71002,1.87988 0.98271,2.59523 0.27269,0.71536 0.71004,1.85968 0.98273,2.56062 0.2727,0.70096 0.71005,1.80968 0.98274,2.49143 0.27269,0.68174 0.71002,1.75965 0.98271,2.42221 0.27269,0.66255 0.71004,1.70965 0.98273,2.35301 0.2727,0.64334 0.98274,2.2838 0.98274,2.2838"
       style="fill:none;stroke:#000000;stroke-width:0.3985;stroke-linecap:butt;stroke-linejoin:miter;stroke-miterlimit:10;stroke-dasharray:none;stroke-opacity:1"
       transform="matrix(1.3333333,0,0,-1.3333333,42.314667,167.97867)" />
    <path
       id="path15"
       d="M 0,-90.69458 H 45.35767"
       style="fill:none;stroke:#000000;stroke-width:0.3985;stroke-linecap:butt;stroke-linejoin:miter;stroke-miterlimit:10;stroke-dasharray:2.98883, 1.99255;stroke-dashoffset:0;stroke-opacity:1"
       transform="matrix(1.3333333,0,0,-1.3333333,42.314667,167.97867)" />
    <path
       id="path16"
       d="m 4.5814219,-3.1869141 c 0,-0.796875 -0.046875,-1.59375 -0.3984375,-2.3320312 -0.4570313,-0.9609375 -1.2773438,-1.1132813 -1.6875,-1.1132813 -0.5976563,0 -1.3359375,0.2578125 -1.73437502,1.1835938 -0.328125,0.6914062 -0.375,1.4648437 -0.375,2.2617187 0,0.75 0.046875,1.640625 0.4453125,2.40234379 0.43359372,0.80859375 1.16015622,1.0078125 1.65234372,1.0078125 0.5390625,0 1.2890625,-0.2109375 1.734375,-1.16015625 C 4.5345469,-1.6283203 4.5814219,-2.4017578 4.5814219,-3.1869141 Z M 3.7493906,-3.3041016 c 0,0.75 0,1.4179688 -0.1054687,2.0625 -0.1523438,0.93750004 -0.7148438,1.2421875375 -1.1601563,1.2421875375 -0.3867187,0 -0.984375,-0.2460937475 -1.1601562,-1.2070312375 -0.1054688,-0.5976563 -0.1054688,-1.5117188 -0.1054688,-2.0976563 0,-0.6445312 0,-1.3007812 0.082031,-1.8398437 0.1875,-1.1835938 0.9257812,-1.265625 1.1835937,-1.265625 0.328125,0 0.984375,0.1757812 1.171875,1.1601562 0.09375,0.5625 0.09375,1.3125 0.09375,1.9453125 z m 3.140625,2.77734379 c 0,-0.29296875 -0.234375,-0.52734379 -0.5273437,-0.52734379 -0.28125,0 -0.5273438,0.23437504 -0.5273438,0.52734379 0,0.29296875 0.2460938,0.5273437475 0.5273438,0.5273437475 0.2929687,0 0.5273437,-0.2343749975 0.5273437,-0.5273437475 z M 12.227906,-1.7337891 h -0.257812 c -0.04687,0.3046875 -0.117188,0.73828129 -0.210938,0.89062504 -0.07031,0.0820313 -0.726562,0.0820313 -0.949218,0.0820313 H 9.0169688 L 10.071656,-1.7923828 c 1.558594,-1.3710938 2.15625,-1.9101563 2.15625,-2.90625 0,-1.1367188 -0.902343,-1.9335938 -2.121093,-1.9335938 -1.1250005,0 -1.851563,0.9140625 -1.851563,1.8046875 0,0.5507813 0.4921875,0.5507813 0.5273438,0.5507813 0.1640625,0 0.515625,-0.1171875 0.515625,-0.5273438 0,-0.2578125 -0.1875,-0.515625 -0.5273438,-0.515625 -0.082031,0 -0.1054687,0 -0.1289062,0.011719 0.2226562,-0.6445313 0.7617187,-1.0195313 1.3359375,-1.0195313 0.9140627,0 1.3359377,0.8085938 1.3359377,1.6289063 0,0.796875 -0.492188,1.5820312 -1.042969,2.203125 L 8.3607188,-0.36269531 C 8.25525,-0.25722656 8.25525,-0.23378906 8.25525,5.859375e-4 h 3.691406 z m 0,0"
       style="fill:#000000;fill-opacity:1;fill-rule:nonzero;stroke:none"
       aria-label="0.2"
       transform="matrix(1.3333333,0,0,1.3333333,166.868,178.3)" />
    <path
       id="path17"
       d="m 4.5814063,-3.18625 c 0,-0.796875 -0.046875,-1.59375 -0.3984375,-2.3320312 -0.4570313,-0.9609375 -1.2773438,-1.1132813 -1.6875,-1.1132813 -0.5976563,0 -1.3359375,0.2578125 -1.73437505,1.1835938 -0.328125,0.6914062 -0.375,1.4648437 -0.375,2.2617187 0,0.75 0.046875,1.640625 0.4453125,2.40234375 C 1.265,0.0246875 1.9915625,0.22390625 2.48375,0.22390625 c 0.5390625,0 1.2890625,-0.2109375 1.734375,-1.16015625 0.3164063,-0.6914062 0.3632813,-1.4648437 0.3632813,-2.25 z M 3.749375,-3.3034375 c 0,0.75 0,1.4179688 -0.1054687,2.0625 C 3.4915625,-0.3034375 2.9290625,0.00125 2.48375,0.00125 2.0970313,0.00125 1.499375,-0.24484375 1.3235938,-1.2057812 1.218125,-1.8034375 1.218125,-2.7175 1.218125,-3.3034375 c 0,-0.6445312 0,-1.3007812 0.082031,-1.8398437 0.1875,-1.1835938 0.9257812,-1.265625 1.1835937,-1.265625 0.328125,0 0.984375,0.1757812 1.171875,1.1601562 0.09375,0.5625 0.09375,1.3125 0.09375,1.9453125 z M 6.89,-0.52609375 c 0,-0.29296875 -0.234375,-0.52734375 -0.5273437,-0.52734375 -0.28125,0 -0.5273438,0.234375 -0.5273438,0.52734375 0,0.29296875 0.2460938,0.52734375 0.5273438,0.52734375 C 6.655625,0.00125 6.89,-0.233125 6.89,-0.52609375 Z M 12.438828,-1.639375 v -0.3164062 h -0.996094 v -4.5234375 c 0,-0.1992188 0,-0.2578125 -0.152343,-0.2578125 -0.09375,0 -0.117188,0 -0.199219,0.1171875 l -3.0585939,4.6640625 v 0.3164062 h 2.6484379 v 0.8671875 c 0,0.3515625 -0.02344,0.46875 -0.7617191,0.46875 H 9.7083594 V 0.00125 c 0.4101566,-0.03515625 0.9374996,-0.03515625 1.3476566,-0.03515625 0.421875,0 0.949218,0 1.359375,0.03515625 v -0.3046875 h -0.210938 c -0.738281,0 -0.761719,-0.1171875 -0.761719,-0.46875 V -1.639375 Z M 10.739609,-1.9557812 H 8.3138281 L 10.739609,-5.670625 Z m 0,0"
       style="fill:#000000;fill-opacity:1;fill-rule:nonzero;stroke:none"
       aria-label="0.4"
       transform="matrix(1.3333333,0,0,1.3333333,287.81333,178.37333)" />
    <path
       id="path18"
       d="m 4.58125,-3.1869141 c 0,-0.796875 -0.046875,-1.59375 -0.3984375,-2.3320312 -0.4570312,-0.9609375 -1.2773437,-1.1132813 -1.6875,-1.1132813 -0.5976562,0 -1.3359375,0.2578125 -1.734375,1.1835938 -0.328125,0.6914062 -0.375,1.4648437 -0.375,2.2617187 0,0.75 0.046875,1.640625 0.4453125,2.40234379 0.4335938,0.80859375 1.1601563,1.0078125 1.6523438,1.0078125 0.5390625,0 1.2890625,-0.2109375 1.734375,-1.16015625 C 4.534375,-1.6283203 4.58125,-2.4017578 4.58125,-3.1869141 Z M 3.7492188,-3.3041016 c 0,0.75 0,1.4179688 -0.1054688,2.0625 C 3.4914063,-0.30410156 2.9289063,5.859375e-4 2.4835938,5.859375e-4 2.096875,5.859375e-4 1.4992188,-0.24550781 1.3234375,-1.2064453 1.2179688,-1.8041016 1.2179688,-2.7181641 1.2179688,-3.3041016 c 0,-0.6445312 0,-1.3007812 0.082031,-1.8398437 0.1875,-1.1835938 0.9257813,-1.265625 1.1835938,-1.265625 0.328125,0 0.984375,0.1757812 1.171875,1.1601562 0.09375,0.5625 0.09375,1.3125 0.09375,1.9453125 z m 3.1435546,2.77734379 c 0,-0.29296875 -0.234375,-0.52734379 -0.5273437,-0.52734379 -0.28125,0 -0.5273438,0.23437504 -0.5273438,0.52734379 0,0.29296875 0.2460938,0.5273437475 0.5273438,0.5273437475 0.2929687,0 0.5273437,-0.2343749975 0.5273437,-0.5273437475 z M 12.298047,-2.0267578 c 0,-1.265625 -0.878906,-2.2265625 -1.992188,-2.2265625 -0.6679684,0 -1.0429684,0.5039062 -1.2421871,0.984375 v -0.234375 c 0,-2.5195313 1.2421871,-2.8828125 1.7460941,-2.8828125 0.234375,0 0.65625,0.058594 0.878906,0.3984375 -0.152344,0 -0.550781,0 -0.550781,0.4453125 0,0.3164062 0.234375,0.4570312 0.457031,0.4570312 0.164062,0 0.457031,-0.082031 0.457031,-0.46875 0,-0.5976562 -0.433594,-1.078125 -1.265625,-1.078125 -1.2773436,0 -2.6132811,1.2890625 -2.6132811,3.4804688 0,2.66015624 1.1484375,3.37499999 2.0742191,3.37499999 1.113281,0 2.050781,-0.9375 2.050781,-2.24999999 z m -0.890625,-0.011719 c 0,0.4804688 0,0.9726563 -0.164063,1.33593754 -0.304687,0.59765625 -0.761718,0.64453125 -0.996093,0.64453125 -0.6210941,0 -0.9257816,-0.59765625 -0.9843754,-0.75 C 9.0871094,-1.2767578 9.0871094,-2.0736328 9.0871094,-2.2494141 c 0,-0.7734375 0.3164062,-1.7695312 1.2187496,-1.7695312 0.152344,0 0.609375,0 0.925782,0.609375 0.175781,0.375 0.175781,0.8789062 0.175781,1.3710935 z m 0,0"
       style="fill:#000000;fill-opacity:1;fill-rule:nonzero;stroke:none"
       aria-label="0.6"
       transform="matrix(1.3333333,0,0,1.3333333,408.76667,178.3)" />
    <path
       id="path19"
       d="M 2.7541641,-1.8638516 V -2.4380703 H 0.10572656 v 0.5742187 z m 5.1445312,-1.3242187 c 0,-0.796875 -0.046875,-1.59375 -0.3984375,-2.3320313 -0.4570312,-0.9609375 -1.2773437,-1.1132812 -1.6875,-1.1132812 -0.5976562,0 -1.3359375,0.2578125 -1.734375,1.1835937 -0.328125,0.6914063 -0.375,1.4648438 -0.375,2.2617188 0,0.75 0.046875,1.640625 0.4453125,2.40234374 0.4335938,0.80859375 1.1601563,1.0078125 1.6523438,1.0078125 0.5390625,0 1.2890625,-0.2109375 1.734375,-1.16015625 C 7.8518203,-1.6294766 7.8986953,-2.4029141 7.8986953,-3.1880703 Z M 7.0666641,-3.3052578 c 0,0.75 0,1.4179687 -0.1054688,2.0625 -0.1523437,0.93749999 -0.7148437,1.2421874875 -1.1601562,1.2421874875 -0.3867188,0 -0.984375,-0.2460937475 -1.1601563,-1.2070312875 -0.1054687,-0.5976562 -0.1054687,-1.5117187 -0.1054687,-2.0976562 0,-0.6445313 0,-1.3007813 0.082031,-1.8398438 0.1875,-1.1835937 0.9257813,-1.265625 1.1835938,-1.265625 0.328125,0 0.984375,0.1757813 1.171875,1.1601563 0.09375,0.5625 0.09375,1.3125 0.09375,1.9453125 z m 3.1435549,2.77734374 c 0,-0.29296875 -0.2343753,-0.52734374 -0.527344,-0.52734374 -0.28125,0 -0.5273438,0.23437499 -0.5273438,0.52734374 0,0.29296875 0.2460938,0.5273437475 0.5273438,0.5273437475 0.2929687,0 0.527344,-0.2343749975 0.527344,-0.5273437475 z m 5.440429,-2.66015624 c 0,-0.796875 -0.04687,-1.59375 -0.398437,-2.3320313 -0.457031,-0.9609375 -1.277344,-1.1132812 -1.6875,-1.1132812 -0.597656,0 -1.335938,0.2578125 -1.734375,1.1835937 -0.328125,0.6914063 -0.375,1.4648438 -0.375,2.2617188 0,0.75 0.04687,1.640625 0.445312,2.40234374 0.433594,0.80859375 1.160157,1.0078125 1.652344,1.0078125 0.539063,0 1.289063,-0.2109375 1.734375,-1.16015625 0.316406,-0.69140629 0.363281,-1.46484379 0.363281,-2.24999999 z m -0.832031,-0.1171875 c 0,0.75 0,1.4179687 -0.105469,2.0625 -0.152343,0.93749999 -0.714843,1.2421874875 -1.160156,1.2421874875 -0.386719,0 -0.984375,-0.2460937475 -1.160156,-1.2070312875 -0.105469,-0.5976562 -0.105469,-1.5117187 -0.105469,-2.0976562 0,-0.6445313 0,-1.3007813 0.08203,-1.8398438 0.1875,-1.1835937 0.925782,-1.265625 1.183594,-1.265625 0.328125,0 0.984375,0.1757813 1.171875,1.1601563 0.09375,0.5625 0.09375,1.3125 0.09375,1.9453125 z m 5.917969,1.6640625 v -0.3164063 h -0.996094 v -4.5234375 c 0,-0.1992187 0,-0.2578125 -0.152344,-0.2578125 -0.09375,0 -0.117187,0 -0.199218,0.1171875 l -3.058594,4.6640625 v 0.3164063 h 2.648437 v 0.86718749 c 0,0.3515625 -0.02344,0.46875 -0.761718,0.46875 h -0.210938 v 0.3046874975 c 0.410156,-0.0351562475 0.9375,-0.0351562475 1.347656,-0.0351562475 0.421875,0 0.949219,0 1.359375,0.0351562475 V -0.30525781 h -0.210937 c -0.738281,0 -0.761719,-0.1171875 -0.761719,-0.46875 V -1.6411953 Z m -1.699219,-0.3164063 h -2.425781 l 2.425781,-3.7148437 z m 0,0"
       style="fill:#000000;fill-opacity:1;fill-rule:nonzero;stroke:none"
       aria-label="-0.04"
       transform="matrix(1.3333333,0,0,1.3333333,10.152,293.25467)" />
    <path
       id="path20"
       d="m 204.09572,90.69458 h 44.8994"
       style="fill:none;stroke:#000000;stroke-width:0.3985;stroke-linecap:butt;stroke-linejoin:miter;stroke-miterlimit:10;stroke-dasharray:none;stroke-opacity:1"
       transform="matrix(1.3333333,0,0,-1.3333333,42.314667,167.97867)" />
    <path
       id="path21"
       d="M -1.19551,1.59401 C -1.09587,0.99626 0,0.09961 0.29886,0 0,-0.09961 -1.09587,-0.99626 -1.19551,-1.59401"
       style="fill:none;stroke:#000000;stroke-width:0.31879;stroke-linecap:round;stroke-linejoin:round;stroke-miterlimit:10;stroke-dasharray:none;stroke-opacity:1"
       transform="matrix(1.3333333,0,0,-1.3333333,374.30816,47.05256)" />
    <g
       id="g21"
       aria-label="v=0.08m/s"
       transform="matrix(1.3333333,0,0,1.3333333,307.98267,39.038667)">
      <path
         id="path22"
         d="m 4.6653438,-3.7028281 c 0,-0.5390625 -0.2578125,-0.703125 -0.4453125,-0.703125 -0.2460938,0 -0.4804688,0.2578125 -0.4804688,0.4804687 0,0.1289063 0.046875,0.1875 0.1523438,0.3046875 0.2109375,0.1992188 0.3398437,0.4570313 0.3398437,0.8085938 0,0.421875 -0.609375,2.70703123 -1.7695312,2.70703123 -0.5039063,0 -0.7382813,-0.3515625 -0.7382813,-0.8671875 0,-0.56250003 0.2695313,-1.28906253 0.5742188,-2.12109373 0.070312,-0.1640625 0.1289062,-0.3046875 0.1289062,-0.4921875 0,-0.4453125 -0.328125,-0.8203125 -0.8203125,-0.8203125 -0.9375,0 -1.3125,1.453125 -1.3125,1.5351562 0,0.1054688 0.09375,0.1054688 0.1171875,0.1054688 0.09375,0 0.10546875,-0.023437 0.15234375,-0.1875 C 0.85675,-3.9489219 1.2903438,-4.1832969 1.5715938,-4.1832969 c 0.082031,0 0.2578125,0 0.2578125,0.3164063 0,0.2460937 -0.1054688,0.515625 -0.1757813,0.703125 -0.4335937,1.1484375 -0.5625,1.6054687 -0.5625,2.0390625 0,1.07812498 0.8671875,1.23046873 1.3359375,1.23046873 1.6640625,0 2.2382813,-3.29296873 2.2382813,-3.80859373 z m 0,0"
         style="fill:#000000;fill-opacity:1;fill-rule:nonzero;stroke:none" />
      <path
         id="path23"
         d="m 14.799133,-3.2575156 c 0.152344,0 0.339844,0 0.339844,-0.1992188 0,-0.1992187 -0.1875,-0.1992187 -0.328125,-0.1992187 H 8.8460078 c -0.140625,0 -0.328125,0 -0.328125,0.1992187 0,0.1992188 0.1875,0.1992188 0.3398438,0.1992188 z m 0.01172,1.9335937 c 0.140625,0 0.328125,0 0.328125,-0.1992187 0,-0.1992188 -0.1875,-0.1992188 -0.339844,-0.1992188 H 8.8577266 c -0.1523438,0 -0.3398438,0 -0.3398438,0.1992188 0,0.1992187 0.1875,0.1992187 0.328125,0.1992187 z m 8.226562,-1.8632812 c 0,-0.796875 -0.04687,-1.59375 -0.398437,-2.3320313 -0.457032,-0.9609375 -1.277344,-1.1132812 -1.6875,-1.1132812 -0.597657,0 -1.335938,0.2578125 -1.734375,1.1835937 -0.328125,0.6914063 -0.375,1.4648438 -0.375,2.2617188 0,0.75 0.04687,1.640625 0.445312,2.40234373 0.433594,0.80859375 1.160156,1.0078125 1.652344,1.0078125 0.539062,0 1.289062,-0.2109375 1.734375,-1.16015625 0.316406,-0.69140628 0.363281,-1.46484378 0.363281,-2.24999998 z M 20.939758,2.96875e-4 c -0.386719,0 -0.984375,-0.246093745 -1.160156,-1.207031275 -0.105469,-0.5976562 -0.105469,-1.5117187 -0.105469,-2.0976562 0,-0.6445313 0,-1.3007813 0.08203,-1.8398438 0.1875,-1.1835937 0.925781,-1.265625 1.183594,-1.265625 0.328125,0 0.984375,0.1757813 1.171875,1.1601563 0.09375,0.5625 0.09375,1.3125 0.09375,1.9453125 0,0.75 0,1.4179687 -0.105469,2.0625 C 21.94757,-0.30439062 21.38507,2.96875e-4 20.939758,2.96875e-4 Z m 0,0"
         style="fill:#000000;fill-opacity:1;fill-rule:nonzero;stroke:none" />
      <path
         id="path24"
         d="m 25.360656,-0.52704687 c 0,-0.29296875 -0.234375,-0.52734373 -0.527343,-0.52734373 -0.28125,0 -0.527344,0.23437498 -0.527344,0.52734373 0,0.29296875 0.246094,0.527343745 0.527344,0.527343745 0.292968,0 0.527343,-0.234374995 0.527343,-0.527343745 z m 0,0"
         style="fill:#000000;fill-opacity:1;fill-rule:nonzero;stroke:none" />
      <path
         id="path25"
         d="m 30.801086,-3.1872031 c 0,-0.796875 -0.04687,-1.59375 -0.398438,-2.3320313 -0.457031,-0.9609375 -1.277343,-1.1132812 -1.6875,-1.1132812 -0.597656,0 -1.335937,0.2578125 -1.734375,1.1835937 -0.328125,0.6914063 -0.375,1.4648438 -0.375,2.2617188 0,0.75 0.04687,1.640625 0.445313,2.40234373 0.433594,0.80859375 1.160156,1.0078125 1.652344,1.0078125 0.539062,0 1.289062,-0.2109375 1.734375,-1.16015625 0.316406,-0.69140628 0.363281,-1.46484378 0.363281,-2.24999998 z M 28.70343,2.96875e-4 c -0.386719,0 -0.984375,-0.246093745 -1.160157,-1.207031275 -0.105468,-0.5976562 -0.105468,-1.5117187 -0.105468,-2.0976562 0,-0.6445313 0,-1.3007813 0.08203,-1.8398438 0.1875,-1.1835937 0.925781,-1.265625 1.183594,-1.265625 0.328125,0 0.984375,0.1757813 1.171875,1.1601563 0.09375,0.5625 0.09375,1.3125 0.09375,1.9453125 0,0.75 0,1.4179687 -0.105469,2.0625 -0.152344,0.93749998 -0.714844,1.242187475 -1.160156,1.242187475 z m 4.125,-4.546874975 c -0.46875,-0.3046875 -0.503907,-0.6445313 -0.503907,-0.8085938 0,-0.609375 0.644532,-1.03125 1.359375,-1.03125 0.726563,0 1.359375,0.515625 1.359375,1.2421875 0,0.5625 -0.386718,1.0429688 -0.984375,1.3945313 z m 1.453125,0.9375 c 0.714843,-0.3632813 1.207031,-0.8789063 1.207031,-1.5351563 0,-0.9257812 -0.890625,-1.4882812 -1.792969,-1.4882812 -0.996094,0 -1.804687,0.7382812 -1.804687,1.6640625 0,0.1757812 0.01172,0.6210937 0.433593,1.0898437 0.105469,0.1289063 0.480469,0.375 0.726563,0.5390625 -0.574219,0.2929688 -1.429688,0.84375 -1.429688,1.8398438 0,1.05468748 1.007813,1.72265623 2.0625,1.72265623 1.125,0 2.0625,-0.83203125 2.0625,-1.89843753 0,-0.3515625 -0.105468,-0.8085937 -0.480468,-1.21875 -0.1875,-0.2109375 -0.351563,-0.3164062 -0.984375,-0.7148437 z m -0.996094,0.421875 1.21875,0.7734375 c 0.28125,0.1875 0.75,0.4921875 0.75,1.1015625 0,0.73828123 -0.75,1.25390623 -1.558594,1.25390623 -0.867187,0 -1.582031,-0.62109375 -1.582031,-1.44140623 0,-0.5859375 0.316406,-1.21875 1.171875,-1.6875 z m 0,0"
         style="fill:#000000;fill-opacity:1;fill-rule:nonzero;stroke:none" />
      <path
         id="path26"
         d="M 45.938781,2.96875e-4 V -0.30439062 c -0.515625,0 -0.761718,0 -0.773437,-0.3046875 V -2.5075156 c 0,-0.8554688 0,-1.171875 -0.316406,-1.5234375 -0.128907,-0.1757813 -0.46875,-0.375 -1.042969,-0.375 -0.832031,0 -1.277344,0.5976562 -1.441406,0.984375 -0.140625,-0.8671875 -0.878907,-0.984375 -1.324219,-0.984375 -0.726563,0 -1.195313,0.4335937 -1.476563,1.0546875 v -1.0546875 l -1.40625,0.1171875 v 0.3046875 c 0.703125,0 0.785157,0.070312 0.785157,0.5625 v 2.66015623 c 0,0.45703125 -0.117188,0.45703125 -0.785157,0.45703125 V 2.96875e-4 l 1.125,-0.035156245 1.113282,0.035156245 V -0.30439062 c -0.65625,0 -0.773438,0 -0.773438,-0.45703125 V -2.5895469 c 0,-1.03125 0.714844,-1.59375 1.347656,-1.59375 0.621094,0 0.738282,0.5390625 0.738282,1.1015625 v 2.32031253 c 0,0.45703125 -0.117188,0.45703125 -0.773438,0.45703125 V 2.96875e-4 l 1.125,-0.035156245 1.113281,0.035156245 V -0.30439062 c -0.667968,0 -0.785156,0 -0.785156,-0.45703125 V -2.5895469 c 0,-1.03125 0.714844,-1.59375 1.347656,-1.59375 0.632813,0 0.738282,0.5390625 0.738282,1.1015625 v 2.32031253 c 0,0.45703125 -0.105469,0.45703125 -0.773438,0.45703125 V 2.96875e-4 l 1.125,-0.035156245 z m 0,0"
         style="fill:#000000;fill-opacity:1;fill-rule:nonzero;stroke:none" />
      <path
         id="path27"
         d="m 50.500305,-7.0895469 c 0.05859,-0.1289062 0.05859,-0.1640625 0.05859,-0.1875 0,-0.1054687 -0.09375,-0.1992187 -0.199218,-0.1992187 -0.140625,0 -0.1875,0.1054687 -0.210938,0.1992187 l -3.398437,9.3867188 c -0.04687,0.1289062 -0.04687,0.1640625 -0.04687,0.1875 0,0.1054687 0.08203,0.1992187 0.199218,0.1992187 0.140625,0 0.175782,-0.1054687 0.199219,-0.1992187 z m 0,0"
         style="fill:#000000;fill-opacity:1;fill-rule:nonzero;stroke:none" />
      <path
         id="path28"
         d="m 54.707336,-1.2770469 c 0,-0.5273437 -0.292969,-0.8203125 -0.421875,-0.9492187 -0.328125,-0.3164063 -0.714844,-0.3984375 -1.136719,-0.46875 -0.550781,-0.1171875 -1.21875,-0.2460938 -1.21875,-0.8203125 0,-0.3515625 0.257813,-0.7617188 1.113281,-0.7617188 1.101563,0 1.148438,0.9023438 1.171875,1.2070313 0,0.09375 0.117188,0.09375 0.117188,0.09375 0.128906,0 0.128906,-0.046875 0.128906,-0.2460938 v -0.9960937 c 0,-0.1757813 0,-0.2460938 -0.117187,-0.2460938 -0.04687,0 -0.07031,0 -0.199219,0.1171875 -0.02344,0.046875 -0.128906,0.1289063 -0.164063,0.1640625 -0.375,-0.28125 -0.785156,-0.28125 -0.9375,-0.28125 -1.21875,0 -1.59375,0.6679688 -1.59375,1.2304688 0,0.3398437 0.164063,0.6210937 0.433594,0.84375 0.316406,0.2578125 0.597656,0.3164062 1.3125,0.4570312 0.222656,0.035156 1.03125,0.1992188 1.03125,0.9140625 0,0.51562503 -0.351562,0.91406253 -1.125,0.91406253 -0.832031,0 -1.195312,-0.57421875 -1.382812,-1.41796873 -0.03516,-0.1289063 -0.03516,-0.1757813 -0.140625,-0.1757813 -0.128907,0 -0.128907,0.070312 -0.128907,0.2578125 v 1.31250003 c 0,0.1640625 0,0.234375 0.105469,0.234375 0.05859,0 0.07031,0 0.257813,-0.19921875 0.01172,-0.01171875 0.01172,-0.03515625 0.199218,-0.22265625 0.433594,0.421875 0.878907,0.421875 1.089844,0.421875 1.148438,0 1.605469,-0.66796875 1.605469,-1.38281253 z m 0,0"
         style="fill:#000000;fill-opacity:1;fill-rule:nonzero;stroke:none" />
    </g>
  </g>
</svg>
