<?xml version="1.0" encoding="UTF-8" standalone="no"?>
<!-- Created with Inkscape (http://www.inkscape.org/) -->

<svg
   version="1.1"
   id="svg1"
   width="284.10666"
   height="284.10666"
   viewBox="0 0 284.10666 284.10666"
   sodipodi:docname="23-24-2-电磁场与微波-期中-题图4.pdf"
   xmlns:inkscape="http://www.inkscape.org/namespaces/inkscape"
   xmlns:sodipodi="http://sodipodi.sourceforge.net/DTD/sodipodi-0.dtd"
   xmlns="http://www.w3.org/2000/svg"
   xmlns:svg="http://www.w3.org/2000/svg">
  <defs
     id="defs1" />
  <sodipodi:namedview
     id="namedview1"
     pagecolor="#ffffff"
     bordercolor="#000000"
     borderopacity="0.25"
     inkscape:showpageshadow="2"
     inkscape:pageopacity="0.0"
     inkscape:pagecheckerboard="0"
     inkscape:deskcolor="#d1d1d1">
    <inkscape:page
       x="0"
       y="0"
       inkscape:label="1"
       id="page1"
       width="284.10666"
       height="284.10666"
       margin="0"
       bleed="0" />
  </sodipodi:namedview>
  <g
     id="g1"
     inkscape:groupmode="layer"
     inkscape:label="1">
    <path
       id="path1"
       d="M -106.54172,-106.54172 V 106.54172 H 106.54172 V -106.54172 Z"
       style="fill:#ffffff;fill-opacity:1;fill-rule:nonzero;stroke:none"
       transform="matrix(1.3333333,0,0,-1.3333333,142.05333,142.052)" />
    <path
       id="path2"
       d="M -102.04852,0 H 102.04852"
       style="fill:none;stroke:#000000;stroke-width:0.3985;stroke-linecap:butt;stroke-linejoin:miter;stroke-miterlimit:10;stroke-dasharray:none;stroke-opacity:1"
       transform="matrix(1.3333333,0,0,-1.3333333,142.05333,142.052)" />
    <path
       id="path3"
       d="M 0,-102.04852 V 102.04852"
       style="fill:none;stroke:#000000;stroke-width:0.3985;stroke-linecap:butt;stroke-linejoin:miter;stroke-miterlimit:10;stroke-dasharray:none;stroke-opacity:1"
       transform="matrix(1.3333333,0,0,-1.3333333,142.05333,142.052)" />
    <path
       id="path4"
       d="M 85.04042,0 C 85.04042,46.96713 46.96713,85.04042 0,85.04042 -46.96713,85.04042 -85.04042,46.96713 -85.04042,0 c 0,-46.96713 38.07329,-85.04042 85.04042,-85.04042 46.96713,0 85.04042,38.07329 85.04042,85.04042 z"
       style="fill:none;stroke:#000000;stroke-width:0.3985;stroke-linecap:butt;stroke-linejoin:miter;stroke-miterlimit:10;stroke-dasharray:none;stroke-opacity:1"
       transform="matrix(1.3333333,0,0,-1.3333333,142.05333,142.052)" />
    <path
       id="path5"
       d="m 61.2292,0 c 0,18.78683 -15.22932,34.01617 -34.01617,34.01617 C 8.42618,34.01617 -6.80313,18.78683 -6.80313,0 c 0,-18.78683 15.22931,-34.01617 34.01616,-34.01617 18.78685,0 34.01617,15.22934 34.01617,34.01617 z"
       style="fill:none;stroke:#000000;stroke-width:0.3985;stroke-linecap:butt;stroke-linejoin:miter;stroke-miterlimit:10;stroke-dasharray:none;stroke-opacity:1"
       transform="matrix(1.3333333,0,0,-1.3333333,142.05333,142.052)" />
    <path
       id="path6"
       d="M 0.32874219,1.7223125 C 0.30530469,1.8395 0.30530469,1.8629375 0.30530469,1.886375 c 0,0.140625 0.10546875,0.2695312 0.26953125,0.2695312 0.2109375,0 0.328125,-0.1875 0.3515625,-0.2109375 0.046875,-0.09375 0.37499996,-1.42968745 0.63281246,-2.50781245 0.1992188,0.3984375 0.5273438,0.66796875 0.9960938,0.66796875 1.1601562,0 2.4492187,-1.40625 2.4492187,-2.8828125 0,-1.0546875 -0.65625,-1.6289063 -1.3828125,-1.6289063 -0.9726562,0 -2.015625,0.9960938 -2.3203125,2.2148438 z m 2.21484371,-1.828125 c -0.703125,0 -0.8554687,-0.796875 -0.8554687,-0.890625 0,-0.0351563 0.046875,-0.234375 0.070312,-0.3632813 0.28125,-1.125 0.3867187,-1.4765625 0.5976562,-1.875 0.4335938,-0.7265625 0.9375,-0.9492187 1.2421875,-0.9492187 0.3632813,0 0.6914063,0.2929687 0.6914063,0.9726562 0,0.5507813 -0.2929688,1.6640625 -0.5625,2.15625 -0.328125,0.6210938 -0.8085938,0.9492188 -1.1835933,0.9492188 z m 0,0"
       style="fill:#000000;fill-opacity:1;fill-rule:nonzero;stroke:none"
       aria-label="ρ"
       transform="matrix(1.3333333,0,0,1.3333333,47.909333,166.29733)" />
    <path
       id="path7"
       d="M 1.7009,0 C 1.7009,0.93938 0.93938,1.7009 0,1.7009 -0.93938,1.7009 -1.7009,0.93938 -1.7009,0 c 0,-0.93938 0.76152,-1.7009 1.7009,-1.7009 0.93938,0 1.7009,0.76152 1.7009,1.7009 z m 27.21303,0 c 0,0.93938 -0.76151,1.7009 -1.7009,1.7009 -0.93939,0 -1.70091,-0.76152 -1.70091,-1.7009 0,-0.93938 0.76152,-1.7009 1.70091,-1.7009 0.93939,0 1.7009,0.76152 1.7009,1.7009 z M 15.30716,20.4099 c 0,0.93939 -0.76152,1.7009 -1.70091,1.7009 -0.9394,0 -1.7009,-0.76151 -1.7009,-1.7009 0,-0.9394 0.7615,-1.70092 1.7009,-1.70092 0.93939,0 1.70091,0.76152 1.70091,1.70092 z"
       style="fill:#000000;fill-opacity:1;fill-rule:nonzero;stroke:none"
       transform="matrix(1.3333333,0,0,-1.3333333,142.05333,142.052)" />
    <path
       id="path8"
       d="m 16.3276,20.4099 c 0,1.50297 -1.21838,2.72134 -2.72135,2.72134 -1.50298,0 -2.72135,-1.21837 -2.72135,-2.72134 0,-1.50298 1.21837,-2.72136 2.72135,-2.72136 1.50297,0 2.72135,1.21838 2.72135,2.72136 z"
       style="fill:none;stroke:#000000;stroke-width:0.3985;stroke-linecap:butt;stroke-linejoin:miter;stroke-miterlimit:10;stroke-dasharray:0.3985, 0.99628;stroke-dashoffset:0;stroke-opacity:1"
       transform="matrix(1.3333333,0,0,-1.3333333,142.05333,142.052)" />
    <path
       id="path9"
       d="m 3.0224766,-3.1511641 h 1.6875 c 1.4179687,0 2.8007812,-1.03125 2.8007812,-2.1445312 0,-0.7734375 -0.65625,-1.5117188 -1.96875,-1.5117188 H 2.3193516 c -0.1875,0 -0.2929688,0 -0.2929688,0.1992188 0,0.1171875 0.082031,0.1171875 0.28125,0.1171875 0.1289063,0 0.3164063,0.011719 0.4335938,0.011719 0.1523437,0.023437 0.2109375,0.058594 0.2109375,0.1640625 0,0.035156 0,0.070312 -0.035156,0.1875 l -1.3359375,5.35546879 c -0.09375,0.38671875 -0.1171875,0.46875 -0.90234374,0.46875 -0.17578125,0 -0.28125,0 -0.28125,0.1875 0,0.1171875 0.1171875,0.1171875 0.15234375,0.1171875 0.28125,0 0.98437499,-0.03515625 1.26562499,-0.03515625 0.2109375,0 0.421875,0.01171875 0.6328125,0.01171875 0.2226563,0 0.4453125,0.0234375 0.6445313,0.0234375 0.070312,0 0.1992187,0 0.1992187,-0.19921875 0,-0.10546875 -0.082031,-0.10546875 -0.2695312,-0.10546875 -0.375,0 -0.65625,0 -0.65625,-0.1875 0,-0.0585938 0.023437,-0.10546875 0.035156,-0.1640625 z m 0.7148437,-2.9648437 c 0.082031,-0.3515625 0.1054688,-0.375 0.5390625,-0.375 h 0.9492188 c 0.8320312,0 1.359375,0.2695312 1.359375,0.9492187 0,0.3984375 -0.1992188,1.2539063 -0.5859375,1.6054688 -0.5039063,0.4453125 -1.1015625,0.5273437 -1.5351563,0.5273437 h -1.40625 z m 0,0"
       style="fill:#000000;fill-opacity:1;fill-rule:nonzero;stroke:none"
       aria-label="P"
       transform="matrix(1.3333333,0,0,1.3333333,164.888,119.37733)" />
    <path
       id="path10"
       d="m 27.21303,0 23.7713,23.7713"
       style="fill:none;stroke:#000000;stroke-width:0.3985;stroke-linecap:butt;stroke-linejoin:miter;stroke-miterlimit:10;stroke-dasharray:none;stroke-opacity:1"
       transform="matrix(1.3333333,0,0,-1.3333333,142.05333,142.052)" />
    <path
       id="path11"
       d="M -2.07224,2.39104 C -1.69365,0.95639 -0.84999,0.27895 0,0 -0.84999,-0.27895 -1.69365,-0.95639 -2.07224,-2.39104"
       style="fill:none;stroke:#000000;stroke-width:0.3985;stroke-linecap:round;stroke-linejoin:round;stroke-miterlimit:10;stroke-dasharray:none;stroke-opacity:1"
       transform="matrix(0.9428,-0.9428,-0.9428,-0.9428,210.22028,110.16908)" />
    <path
       id="path12"
       d="M 3.7134531,-3.7624688 C 3.5376719,-4.1374688 3.2447031,-4.407 2.7993906,-4.407 c -1.171875,0 -2.40234373,1.4648437 -2.40234373,2.9179687 0,0.93750005 0.55078125,1.59375005 1.32421873,1.59375005 0.1992188,0 0.703125,-0.03515625 1.3007813,-0.73828125 0.070312,0.41015625 0.421875,0.73828125 0.9023437,0.73828125 0.3515625,0 0.5742188,-0.22265625 0.7382813,-0.5390625 C 4.8267344,-0.797625 4.9556406,-1.407 4.9556406,-1.4304375 c 0,-0.09375 -0.082031,-0.09375 -0.1171875,-0.09375 -0.09375,0 -0.1054687,0.035156 -0.140625,0.1757812 -0.1640625,0.6445313 -0.3515625,1.24218755 -0.75,1.24218755 -0.2695312,0 -0.3046875,-0.2578125 -0.3046875,-0.45703125 0,-0.22265625 0.023437,-0.3046875 0.1289063,-0.7382813 0.1171875,-0.421875 0.1289062,-0.5273437 0.2226562,-0.9023437 l 0.3515625,-1.3945313 c 0.070312,-0.28125 0.070312,-0.2929687 0.070312,-0.3398437 0,-0.1640625 -0.1171875,-0.2695313 -0.28125,-0.2695313 -0.2460937,0 -0.3867187,0.2226563 -0.4218745,0.4453125 z m -0.6445312,2.578125 c -0.046875,0.1757813 -0.046875,0.1992188 -0.1992188,0.3632813 -0.4453125,0.55078125 -0.84375,0.71484375 -1.125,0.71484375 -0.5039062,0 -0.6445312,-0.55078125 -0.6445312,-0.93750005 0,-0.5039062 0.328125,-1.7226562 0.5507812,-2.1796875 0.3046875,-0.5976562 0.7617188,-0.9609375 1.1601563,-0.9609375 0.6445312,0 0.7851562,0.8203125 0.7851562,0.8789063 0,0.058594 -0.023437,0.1171875 -0.035156,0.1640625 z m 0,0"
       style="fill:#000000;fill-opacity:1;fill-rule:nonzero;stroke:none"
       aria-label="a"
       transform="matrix(1.3333333,0,0,1.3333333,179.63467,128.876)" />
    <path
       id="path13"
       d="M 0,0 -69.33469,48.54874"
       style="fill:none;stroke:#000000;stroke-width:0.3985;stroke-linecap:butt;stroke-linejoin:miter;stroke-miterlimit:10;stroke-dasharray:none;stroke-opacity:1"
       transform="matrix(1.3333333,0,0,-1.3333333,142.05333,142.052)" />
    <path
       id="path14"
       d="M -2.07224,2.39104 C -1.69365,0.95639 -0.84999,0.27895 0,0 -0.84999,-0.27895 -1.69365,-0.95639 -2.07224,-2.39104"
       style="fill:none;stroke:#000000;stroke-width:0.3985;stroke-linecap:round;stroke-linejoin:round;stroke-miterlimit:10;stroke-dasharray:none;stroke-opacity:1"
       transform="matrix(-1.0921867,-0.76474667,-0.76474667,1.0921867,49.389467,77.167973)" />
    <path
       id="path15"
       d="m 2.3793906,-6.8072656 c 0,0 0,-0.1054688 -0.1289062,-0.1054688 -0.2226563,0 -0.9492188,0.082031 -1.21875,0.1054688 -0.0703125,0 -0.18750003,0.011719 -0.18750003,0.1992187 0,0.1171875 0.09375,0.1171875 0.24609373,0.1171875 0.46875,0 0.4921875,0.070312 0.4921875,0.1640625 0,0.070312 -0.082031,0.4101563 -0.140625,0.6210938 l -0.80859373,3.2460937 c -0.12890625,0.5039063 -0.1640625,0.65625 -0.1640625,1.0078125 0,0.94921877 0.52734375,1.55859377 1.26562503,1.55859377 1.171875,0 2.4023437,-1.47656247 2.4023437,-2.91796877 0,-0.9023437 -0.5273437,-1.59375 -1.3242187,-1.59375 -0.4570313,0 -0.8671875,0.2929688 -1.171875,0.5976563 z m -0.9375,3.7734375 c 0.058594,-0.2226563 0.058594,-0.2460938 0.1523438,-0.3515625 0.4921875,-0.6445313 0.9375,-0.796875 1.1953125,-0.796875 0.3632812,0 0.6328125,0.2929687 0.6328125,0.9375 0,0.5859375 -0.328125,1.734375 -0.515625,2.109375 -0.328125,0.66796872 -0.7851563,1.03124997 -1.171875,1.03124997 -0.3398438,0 -0.6679688,-0.26953125 -0.6679688,-1.00781247 0,-0.1875 0,-0.3867188 0.1640625,-1.0078125 z m 0,0"
       style="fill:#000000;fill-opacity:1;fill-rule:nonzero;stroke:none"
       aria-label="b"
       transform="matrix(1.3333333,0,0,1.3333333,82.194667,114.14667)" />
    <path
       id="path16"
       d="M 0.3985,-6.80312 H 26.81451"
       style="fill:none;stroke:#000000;stroke-width:0.3985;stroke-linecap:butt;stroke-linejoin:miter;stroke-miterlimit:10;stroke-dasharray:none;stroke-opacity:1"
       transform="matrix(1.3333333,0,0,-1.3333333,142.05333,142.052)" />
    <path
       id="path17"
       d="M -2.07224,2.39104 C -1.69365,0.95639 -0.84999,0.27895 0,0 -0.84999,-0.27895 -1.69365,-0.95639 -2.07224,-2.39104"
       style="fill:none;stroke:#000000;stroke-width:0.3985;stroke-linecap:round;stroke-linejoin:round;stroke-miterlimit:10;stroke-dasharray:none;stroke-opacity:1"
       transform="matrix(-1.3333333,0,0,1.3333333,142.319,151.12283)" />
    <path
       id="path18"
       d="M -2.07224,2.39104 C -1.69365,0.95639 -0.84999,0.27895 0,0 -0.84999,-0.27895 -1.69365,-0.95639 -2.07224,-2.39104"
       style="fill:none;stroke:#000000;stroke-width:0.3985;stroke-linecap:round;stroke-linejoin:round;stroke-miterlimit:10;stroke-dasharray:none;stroke-opacity:1"
       transform="matrix(1.3333333,0,0,-1.3333333,178.07171,151.12283)" />
    <path
       id="path19"
       d="m 3.9484531,-3.7847891 c -0.1640625,0 -0.3046875,0 -0.4453125,0.140625 -0.1523437,0.1523438 -0.1757812,0.3164063 -0.1757812,0.3867188 0,0.234375 0.1757812,0.3515625 0.3632812,0.3515625 0.2929688,0 0.5625,-0.2460938 0.5625,-0.6445313 0,-0.4804687 -0.46875,-0.8554687 -1.171875,-0.8554687 -1.3476562,0 -2.67187498,1.4296875 -2.67187498,2.8359375 0,0.89062499 0.57421875,1.67578124 1.61718748,1.67578124 1.4179688,0 2.2617188,-1.0546875 2.2617188,-1.17187504 0,-0.058594 -0.070312,-0.1289062 -0.1289063,-0.1289062 -0.046875,0 -0.070312,0.023437 -0.1289062,0.09375 -0.7851563,0.99609374 -1.875,0.99609374 -1.9921875,0.99609374 -0.6210938,0 -0.890625,-0.4921875 -0.890625,-1.08984374 0,-0.4101563 0.1992187,-1.3710938 0.5390625,-1.9921875 0.3046875,-0.5625 0.8554687,-0.9960938 1.40625,-0.9960938 0.328125,0 0.7148437,0.1289063 0.8554687,0.3984375 z m 0,0"
       style="fill:#000000;fill-opacity:1;fill-rule:nonzero;stroke:none"
       aria-label="c"
       transform="matrix(1.3333333,0,0,1.3333333,157.32133,161.53467)" />
    <path
       id="path20"
       d="M 27.21303,0 V -10.20494"
       style="fill:none;stroke:#000000;stroke-width:0.3985;stroke-linecap:butt;stroke-linejoin:miter;stroke-miterlimit:10;stroke-dasharray:none;stroke-opacity:1"
       transform="matrix(1.3333333,0,0,-1.3333333,142.05333,142.052)" />
  </g>
</svg>
