<?xml version="1.0" encoding="UTF-8" standalone="no"?>
<!-- Created with Inkscape (http://www.inkscape.org/) -->

<svg
   version="1.1"
   id="svg1"
   width="324.58667"
   height="163.16"
   viewBox="0 0 324.58667 163.16"
   sodipodi:docname="24-25-2-电磁场与微波-题图5.pdf"
   xmlns:inkscape="http://www.inkscape.org/namespaces/inkscape"
   xmlns:sodipodi="http://sodipodi.sourceforge.net/DTD/sodipodi-0.dtd"
   xmlns="http://www.w3.org/2000/svg"
   xmlns:svg="http://www.w3.org/2000/svg">
  <defs
     id="defs1" />
  <sodipodi:namedview
     id="namedview1"
     pagecolor="#ffffff"
     bordercolor="#000000"
     borderopacity="0.25"
     inkscape:showpageshadow="2"
     inkscape:pageopacity="0.0"
     inkscape:pagecheckerboard="0"
     inkscape:deskcolor="#d1d1d1">
    <inkscape:page
       x="0"
       y="0"
       inkscape:label="1"
       id="page1"
       width="324.58667"
       height="163.16"
       margin="0"
       bleed="0" />
  </sodipodi:namedview>
  <g
     id="g1"
     inkscape:groupmode="layer"
     inkscape:label="1">
    <path
       id="path1"
       d="M -125.5594,-61.18683 V 61.18683 H 117.88046 V -61.18683 Z"
       style="fill:#ffffff;fill-opacity:1;fill-rule:nonzero;stroke:none"
       transform="matrix(1.3333333,0,0,-1.3333333,167.41067,81.578667)" />
    <path
       id="path2"
       d="M -113.38727,0 H 113.38727"
       style="fill:none;stroke:#000000;stroke-width:0.3985;stroke-linecap:butt;stroke-linejoin:miter;stroke-miterlimit:10;stroke-dasharray:none;stroke-opacity:1"
       transform="matrix(1.3333333,0,0,-1.3333333,167.41067,81.578667)" />
    <path
       id="path3"
       d="M 56.69363,0 C 56.69363,31.31142 31.31142,56.69363 0,56.69363 -31.31142,56.69363 -56.69363,31.31142 -56.69363,0 c 0,-31.31142 25.38221,-56.69363 56.69363,-56.69363 31.31142,0 56.69363,25.38221 56.69363,56.69363 z"
       style="fill:none;stroke:#000000;stroke-width:0.3985;stroke-linecap:butt;stroke-linejoin:miter;stroke-miterlimit:10;stroke-dasharray:none;stroke-opacity:1"
       transform="matrix(1.3333333,0,0,-1.3333333,167.41067,81.578667)" />
    <path
       id="path4"
       d="m 7.3712109,-4.3489141 c 0,-1.59375 -1.0546875,-2.671875 -2.5429687,-2.671875 -2.1445313,0 -4.33593751,2.2617188 -4.33593751,4.5820313 0,1.65234374 1.11328121,2.66015624 2.54296871,2.66015624 2.109375,0 4.3359375,-2.17968754 4.3359375,-4.57031254 z m -4.2773437,4.31250004 c -0.984375,0 -1.6757813,-0.80859375 -1.6757813,-2.12109374 0,-0.4453125 0.140625,-1.8984375 0.9023438,-3.0585938 0.6914062,-1.0429687 1.6640625,-1.5585937 2.4492187,-1.5585937 0.8203125,0 1.7109375,0.5625 1.7109375,2.0390625 0,0.7148437 -0.2695312,2.2734375 -1.2539062,3.5039062 -0.4804688,0.59765629 -1.2890625,1.19531254 -2.1328125,1.19531254 z m 0,0"
       style="fill:#000000;fill-opacity:1;fill-rule:nonzero;stroke:none"
       aria-label="O"
       transform="matrix(1.3333333,0,0,1.3333333,162.16,95.349333)" />
    <path
       id="path5"
       d="m 4.4986563,-4.2883906 c 0,-0.046875 -0.023437,-0.1054688 -0.09375,-0.1054688 -0.1171875,0 -0.515625,0.3984375 -0.6796875,0.6914063 -0.2226563,-0.5390625 -0.609375,-0.703125 -0.9257813,-0.703125 -1.171875,0 -2.40234375,1.4765625 -2.40234375,2.9179687 0,0.98437503 0.5859375,1.59375003 1.31250005,1.59375003 0.4335937,0 0.8203125,-0.234375 1.1835937,-0.59765625 -0.09375,0.3515625 -0.421875,1.69921872 -0.4570312,1.79296872 -0.082031,0.2695313 -0.1523438,0.3164063 -0.7148438,0.328125 -0.1289062,0 -0.2226562,0 -0.2226562,0.1992188 0,0 0,0.1054687 0.1289062,0.1054687 0.3164063,0 0.6679688,-0.035156 0.9960938,-0.035156 0.328125,0 0.6914062,0.035156 1.0195312,0.035156 0.046875,0 0.1757813,0 0.1757813,-0.1992187 0,-0.1054688 -0.09375,-0.1054688 -0.2578125,-0.1054688 -0.46875,0 -0.46875,-0.070312 -0.46875,-0.1640625 0,-0.070312 0.011719,-0.1289062 0.035156,-0.2226562 z M 1.74475,-0.10479687 c -0.5976562,0 -0.6445312,-0.7734375 -0.6445312,-0.93750003 0,-0.4804687 0.2929687,-1.5703125 0.4570312,-1.9804687 0.3164063,-0.7382813 0.8320313,-1.1601563 1.2421875,-1.1601563 0.6445313,0 0.7851563,0.8085938 0.7851563,0.8789063 0,0.058594 -0.5507813,2.2382812 -0.5742188,2.2734375 -0.1523437,0.28124998 -0.7148437,0.92578123 -1.265625,0.92578123 z m 0,0"
       style="fill:#000000;fill-opacity:1;fill-rule:nonzero;stroke:none"
       aria-label="q"
       transform="matrix(1.3333333,0,0,1.3333333,239.79867,45.350667)" />
    <path
       id="path6"
       d="M 0,0 -28.14757,48.75314"
       style="fill:none;stroke:#000000;stroke-width:0.3985;stroke-linecap:butt;stroke-linejoin:miter;stroke-miterlimit:10;stroke-dasharray:none;stroke-opacity:1"
       transform="matrix(1.3333333,0,0,-1.3333333,167.41067,81.578667)" />
    <path
       id="path7"
       d="M -2.07224,2.39104 C -1.69365,0.95639 -0.84999,0.27895 0,0 -0.84999,-0.27895 -1.69365,-0.95639 -2.07224,-2.39104"
       style="fill:none;stroke:#000000;stroke-width:0.3985;stroke-linecap:round;stroke-linejoin:round;stroke-miterlimit:10;stroke-dasharray:none;stroke-opacity:1"
       transform="matrix(-0.66664,-1.15468,-1.15468,0.66664,129.74776,16.344413)" />
    <path
       id="path8"
       d="m 3.7161172,-3.7614453 c -0.1757813,-0.375 -0.46875,-0.6445313 -0.9140625,-0.6445313 -1.171875,0 -2.40234376,1.4648438 -2.40234376,2.9179688 0,0.93749999 0.55078125,1.59374999 1.32421876,1.59374999 0.1992187,0 0.703125,-0.03515625 1.3007812,-0.73828125 0.070312,0.41015625 0.421875,0.73828125 0.9023438,0.73828125 0.3515625,0 0.5742187,-0.22265625 0.7382812,-0.5390625 0.1640625,-0.36328125 0.2929688,-0.97265629 0.2929688,-0.99609379 0,-0.09375 -0.082031,-0.09375 -0.1171875,-0.09375 -0.09375,0 -0.1054688,0.035156 -0.140625,0.1757813 -0.1640625,0.64453124 -0.3515625,1.24218749 -0.75,1.24218749 -0.2695313,0 -0.3046875,-0.2578125 -0.3046875,-0.45703125 0,-0.22265625 0.023437,-0.3046875 0.1289062,-0.73828124 0.1171875,-0.421875 0.1289063,-0.5273438 0.2226563,-0.9023438 l 0.3515625,-1.3945312 c 0.070312,-0.28125 0.070312,-0.2929688 0.070312,-0.3398438 0,-0.1640625 -0.1171875,-0.2695312 -0.28125,-0.2695312 -0.2460938,0 -0.3867188,0.2226562 -0.4218745,0.4453125 z m -0.6445313,2.578125 c -0.046875,0.1757812 -0.046875,0.19921874 -0.1992187,0.36328124 -0.4453125,0.55078125 -0.84375,0.71484375 -1.125,0.71484375 -0.5039063,0 -0.6445313,-0.55078125 -0.6445313,-0.93749999 0,-0.5039063 0.328125,-1.7226563 0.5507813,-2.1796875 0.3046875,-0.5976563 0.7617187,-0.9609375 1.1601562,-0.9609375 0.6445313,0 0.7851563,0.8203125 0.7851563,0.8789062 0,0.058594 -0.023437,0.1171875 -0.035156,0.1640625 z m 0,0"
       style="fill:#000000;fill-opacity:1;fill-rule:nonzero;stroke:none"
       aria-label="a"
       transform="matrix(1.3333333,0,0,1.3333333,153.20533,51.706667)" />
    <g
       id="g8"
       aria-label="ε&#10;1"
       transform="matrix(1.3333333,0,0,1.3333333,10.150667,53.205333)">
      <path
         id="path9"
         d="m 1.4075078,-2.2604453 c 0.328125,0.140625 0.6210938,0.140625 0.8554688,0.140625 0.2578125,0 0.8085937,0 0.8085937,-0.3046875 0,-0.2460938 -0.3515625,-0.2695313 -0.7265625,-0.2695313 -0.2109375,0 -0.5625,0.011719 -0.9257812,0.1875 -0.234375,-0.1171875 -0.3984375,-0.3164062 -0.3984375,-0.5859375 0,-0.5976562 0.9726562,-0.9609375 1.875,-0.9609375 0.1523437,0 0.515625,0 0.9140625,0.28125 0.1054687,0.082031 0.1289062,0.09375 0.1992187,0.09375 0.1289063,0 0.2695313,-0.1289062 0.2695313,-0.2695312 0,-0.1875 -0.609375,-0.5625 -1.2890625,-0.5625 -1.1484375,0 -2.22656254,0.6679687 -2.22656254,1.4179687 0,0.4335938 0.36328124,0.6796875 0.39843754,0.7148438 -0.58593754,0.328125 -0.90234379,0.8789062 -0.90234379,1.3476562 0,0.64453129 0.57421875,1.25390629 1.62890629,1.25390629 1.3125,0 1.8632812,-0.87890625 1.8632812,-1.03125 0,-0.0585938 -0.046875,-0.09375 -0.1054687,-0.09375 -0.046875,0 -0.082031,0.0351563 -0.09375,0.0703125 -0.140625,0.22265625 -0.3867188,0.59765625 -1.5820313,0.59765625 -0.609375,0 -1.45312499,-0.15234375 -1.45312499,-0.86718754 0,-0.328125 0.28125,-0.8554687 0.89062499,-1.1601562 z m 0.328125,-0.1289063 c 0.2226563,-0.082031 0.4335938,-0.09375 0.609375,-0.09375 0.2460938,0 0.28125,0.011719 0.46875,0.058594 -0.1523437,0.070312 -0.1757812,0.082031 -0.5507812,0.082031 -0.2226563,0 -0.3398438,0 -0.5273438,-0.046875 z m 0,0"
         style="fill:#000000;fill-opacity:1;fill-rule:nonzero;stroke:none" />
      <path
         id="path10"
         d="m 6.9768438,-2.9342734 c 0,-0.1875 -0.011719,-0.1992188 -0.2109375,-0.1992188 -0.4453125,0.4335938 -1.078125,0.4453125 -1.359375,0.4453125 v 0.2460938 c 0.1640625,0 0.6210937,0 1.0078125,-0.1875 v 3.55078121 c 0,0.23437499 0,0.32812499 -0.6914063,0.32812499 H 5.4534063 v 0.2460938 c 0.1289062,-0.011719 0.984375,-0.023437 1.2421875,-0.023437 0.2109375,0 1.0898437,0.011719 1.2421875,0.023437 V 1.2493203 H 7.6799688 c -0.703125,0 -0.703125,-0.09375 -0.703125,-0.32812499 z m 0,0"
         style="fill:#000000;fill-opacity:1;fill-rule:nonzero;stroke:none" />
    </g>
    <g
       id="g10"
       aria-label="ε&#10;2"
       transform="matrix(1.3333333,0,0,1.3333333,10.150667,113.67867)">
      <path
         id="path11"
         d="m 1.4075078,-2.2609531 c 0.328125,0.140625 0.6210938,0.140625 0.8554688,0.140625 0.2578125,0 0.8085937,0 0.8085937,-0.3046875 0,-0.2460938 -0.3515625,-0.2695313 -0.7265625,-0.2695313 -0.2109375,0 -0.5625,0.011719 -0.9257812,0.1875 -0.234375,-0.1171875 -0.3984375,-0.3164062 -0.3984375,-0.5859375 0,-0.5976562 0.9726562,-0.9609375 1.875,-0.9609375 0.1523437,0 0.515625,0 0.9140625,0.28125 0.1054687,0.082031 0.1289062,0.09375 0.1992187,0.09375 0.1289063,0 0.2695313,-0.1289062 0.2695313,-0.2695312 0,-0.1875 -0.609375,-0.5625 -1.2890625,-0.5625 -1.1484375,0 -2.22656254,0.6679687 -2.22656254,1.4179687 0,0.4335938 0.36328124,0.6796875 0.39843754,0.7148438 -0.58593754,0.328125 -0.90234379,0.8789062 -0.90234379,1.3476562 0,0.64453128 0.57421875,1.25390628 1.62890629,1.25390628 1.3125,0 1.8632812,-0.87890625 1.8632812,-1.03125 0,-0.0585938 -0.046875,-0.09375 -0.1054687,-0.09375 -0.046875,0 -0.082031,0.0351563 -0.09375,0.0703125 -0.140625,0.22265625 -0.3867188,0.59765625 -1.5820313,0.59765625 -0.609375,0 -1.45312499,-0.15234375 -1.45312499,-0.86718753 0,-0.328125 0.28125,-0.8554687 0.89062499,-1.1601562 z m 0.328125,-0.1289063 c 0.2226563,-0.082031 0.4335938,-0.09375 0.609375,-0.09375 0.2460938,0 0.28125,0.011719 0.46875,0.058594 -0.1523437,0.070312 -0.1757812,0.082031 -0.5507812,0.082031 -0.2226563,0 -0.3398438,0 -0.5273438,-0.046875 z m 0,0"
         style="fill:#000000;fill-opacity:1;fill-rule:nonzero;stroke:none" />
      <path
         id="path12"
         d="M 8.1604375,0.22928125 H 7.9260625 C 7.902625,0.381625 7.8440313,0.79178125 7.7502813,0.86209375 7.6916875,0.89725 7.152625,0.89725 7.058875,0.89725 H 5.7698125 c 0.7382813,-0.64453125 0.984375,-0.84375 1.3945313,-1.171875 0.515625,-0.41015625 0.9960937,-0.84375 0.9960937,-1.5 0,-0.84375 -0.7382812,-1.359375 -1.6289062,-1.359375 -0.8671875,0 -1.453125,0.609375 -1.453125,1.2421875 0,0.3632813 0.3046875,0.3984375 0.375,0.3984375 0.1640625,0 0.375,-0.1171875 0.375,-0.375 0,-0.1289062 -0.058594,-0.3632812 -0.421875,-0.3632812 0.2226562,-0.5039063 0.6914062,-0.65625 1.0195312,-0.65625 0.703125,0 1.0664063,0.5507812 1.0664063,1.1132812 0,0.609375 -0.4335938,1.08984375 -0.65625,1.3359375 l -1.6875,1.6640625 c -0.070312,0.058594 -0.070312,0.070312 -0.070312,0.2695313 h 2.8828125 z m 0,0"
         style="fill:#000000;fill-opacity:1;fill-rule:nonzero;stroke:none" />
    </g>
    <path
       id="path13"
       d="m -102.0487,0 -5.66971,-5.6697"
       style="fill:none;stroke:#000000;stroke-width:0.3985;stroke-linecap:butt;stroke-linejoin:miter;stroke-miterlimit:10;stroke-dasharray:none;stroke-opacity:1"
       transform="matrix(1.3333333,0,0,-1.3333333,167.41067,81.578667)" />
    <path
       id="path14"
       d="m -90.71016,0 -5.66969,-5.6697"
       style="fill:none;stroke:#000000;stroke-width:0.3985;stroke-linecap:butt;stroke-linejoin:miter;stroke-miterlimit:10;stroke-dasharray:none;stroke-opacity:1"
       transform="matrix(1.3333333,0,0,-1.3333333,167.41067,81.578667)" />
    <path
       id="path15"
       d="m -79.37073,0 -5.66971,-5.6697"
       style="fill:none;stroke:#000000;stroke-width:0.3985;stroke-linecap:butt;stroke-linejoin:miter;stroke-miterlimit:10;stroke-dasharray:none;stroke-opacity:1"
       transform="matrix(1.3333333,0,0,-1.3333333,167.41067,81.578667)" />
    <path
       id="path16"
       d="m -68.03218,0 -5.66971,-5.6697"
       style="fill:none;stroke:#000000;stroke-width:0.3985;stroke-linecap:butt;stroke-linejoin:miter;stroke-miterlimit:10;stroke-dasharray:none;stroke-opacity:1"
       transform="matrix(1.3333333,0,0,-1.3333333,167.41067,81.578667)" />
    <path
       id="path17"
       d="M 79.37073,0 73.70102,-5.6697"
       style="fill:none;stroke:#000000;stroke-width:0.3985;stroke-linecap:butt;stroke-linejoin:miter;stroke-miterlimit:10;stroke-dasharray:none;stroke-opacity:1"
       transform="matrix(1.3333333,0,0,-1.3333333,167.41067,81.578667)" />
    <path
       id="path18"
       d="M 90.71016,0 85.04044,-5.6697"
       style="fill:none;stroke:#000000;stroke-width:0.3985;stroke-linecap:butt;stroke-linejoin:miter;stroke-miterlimit:10;stroke-dasharray:none;stroke-opacity:1"
       transform="matrix(1.3333333,0,0,-1.3333333,167.41067,81.578667)" />
    <path
       id="path19"
       d="M 102.0487,0 96.37898,-5.6697"
       style="fill:none;stroke:#000000;stroke-width:0.3985;stroke-linecap:butt;stroke-linejoin:miter;stroke-miterlimit:10;stroke-dasharray:none;stroke-opacity:1"
       transform="matrix(1.3333333,0,0,-1.3333333,167.41067,81.578667)" />
    <path
       id="path20"
       d="m 113.38727,0 -5.66973,-5.6697"
       style="fill:none;stroke:#000000;stroke-width:0.3985;stroke-linecap:butt;stroke-linejoin:miter;stroke-miterlimit:10;stroke-dasharray:none;stroke-opacity:1"
       transform="matrix(1.3333333,0,0,-1.3333333,167.41067,81.578667)" />
  </g>
</svg>
