<?xml version="1.0" encoding="UTF-8" standalone="no"?>
<!-- Created with Inkscape (http://www.inkscape.org/) -->
<svg version="1.1" id="svg1" width="174.96001" height="88" viewBox="0 0 174.96001 88" sodipodi:docname="24-25-1-信号与系统-期中-解答4.pdf" xmlns:inkscape="http://www.inkscape.org/namespaces/inkscape" xmlns:sodipodi="http://sodipodi.sourceforge.net/DTD/sodipodi-0.dtd" xmlns="http://www.w3.org/2000/svg" xmlns:svg="http://www.w3.org/2000/svg">
  <defs id="defs1"/>
  <sodipodi:namedview id="namedview1" pagecolor="#ffffff" bordercolor="#000000" borderopacity="0.25" inkscape:showpageshadow="2" inkscape:pageopacity="0.0" inkscape:pagecheckerboard="0" inkscape:deskcolor="#d1d1d1">
    <inkscape:page x="0" y="0" inkscape:label="1" id="page1" width="174.96001" height="88" margin="0" bleed="0"/>
  </sodipodi:namedview>
  <g id="g1" inkscape:groupmode="layer" inkscape:label="1">
    <path id="path1" d="M -62.36288,-14.17339 V 51.02432 H 68.03217 v -65.19771 z" style="fill:#ffffff;fill-opacity:1;fill-rule:nonzero;stroke:#ffffff;stroke-width:0.3985;stroke-linecap:butt;stroke-linejoin:miter;stroke-miterlimit:10;stroke-dasharray:none;stroke-opacity:1" transform="matrix(1.3333333,0,0,-1.3333333,83.414667,68.837333)"/>
    <path id="path2" d="m -51.0238,-1.99255 v 3.9851" style="fill:none;stroke:#000000;stroke-width:0.3985;stroke-linecap:round;stroke-linejoin:miter;stroke-miterlimit:10;stroke-dasharray:none;stroke-opacity:1" transform="matrix(1.3333333,0,0,-1.3333333,83.414667,68.837333)"/>
    <path id="path3" d="m -17.00793,-1.99255 v 3.9851" style="fill:none;stroke:#000000;stroke-width:0.3985;stroke-linecap:round;stroke-linejoin:miter;stroke-miterlimit:10;stroke-dasharray:none;stroke-opacity:1" transform="matrix(1.3333333,0,0,-1.3333333,83.414667,68.837333)"/>
    <path id="path4" d="m 17.00793,-1.99255 v 3.9851" style="fill:none;stroke:#000000;stroke-width:0.3985;stroke-linecap:round;stroke-linejoin:miter;stroke-miterlimit:10;stroke-dasharray:none;stroke-opacity:1" transform="matrix(1.3333333,0,0,-1.3333333,83.414667,68.837333)"/>
    <path id="path5" d="m 51.0238,-1.99255 v 3.9851" style="fill:none;stroke:#000000;stroke-width:0.3985;stroke-linecap:round;stroke-linejoin:miter;stroke-miterlimit:10;stroke-dasharray:none;stroke-opacity:1" transform="matrix(1.3333333,0,0,-1.3333333,83.414667,68.837333)"/>
    <path id="path6" d="m -1.99255,28.34666 h 3.9851" style="fill:none;stroke:#000000;stroke-width:0.3985;stroke-linecap:round;stroke-linejoin:miter;stroke-miterlimit:10;stroke-dasharray:none;stroke-opacity:1" transform="matrix(1.3333333,0,0,-1.3333333,83.414667,68.837333)"/>
    <path id="path7" d="M -58.49588,0 H 58.0376" style="fill:none;stroke:#000000;stroke-width:0.3985;stroke-linecap:butt;stroke-linejoin:miter;stroke-miterlimit:10;stroke-dasharray:none;stroke-opacity:1" transform="matrix(1.3333333,0,0,-1.3333333,83.414667,68.837333)"/>
    <path id="path8" d="M -1.19551,1.59401 C -1.09587,0.99626 0,0.09961 0.29886,0 0,-0.09961 -1.09587,-0.99626 -1.19551,-1.59401" style="fill:none;stroke:#000000;stroke-width:0.31879;stroke-linecap:round;stroke-linejoin:round;stroke-miterlimit:10;stroke-dasharray:none;stroke-opacity:1" transform="matrix(1.3333333,0,0,-1.3333333,160.79813,68.837333)"/>
    <path id="path9" d="M 0,-7.47208 V 35.36046" style="fill:none;stroke:#000000;stroke-width:0.3985;stroke-linecap:butt;stroke-linejoin:miter;stroke-miterlimit:10;stroke-dasharray:none;stroke-opacity:1" transform="matrix(1.3333333,0,0,-1.3333333,83.414667,68.837333)"/>
    <path id="path10" d="M -1.19551,1.59401 C -1.09587,0.99626 0,0.09961 0.29886,0 0,-0.09961 -1.09587,-0.99626 -1.19551,-1.59401" style="fill:none;stroke:#000000;stroke-width:0.31879;stroke-linecap:round;stroke-linejoin:round;stroke-miterlimit:10;stroke-dasharray:none;stroke-opacity:1" transform="matrix(0,-1.3333333,-1.3333333,0,83.414667,21.690053)"/>
    <path id="path11" d="m -51.0238,0 34.01587,28.34666 H 17.00793 L 51.0238,0" style="fill:none;stroke:#0019ff;stroke-width:0.59776;stroke-linecap:butt;stroke-linejoin:miter;stroke-miterlimit:10;stroke-dasharray:none;stroke-opacity:1" transform="matrix(1.3333333,0,0,-1.3333333,83.414667,68.837333)"/>
    <g id="g11" aria-label="−3" transform="matrix(1.3333333,0,0,1.3333333,8.1693333,81.884)">
      <path id="path12" d="m 5.5653828,-1.8055781 c 0.1289063,0 0.3046875,0 0.3046875,-0.1875 0,-0.1875 -0.1757812,-0.1875 -0.3046875,-0.1875 H 1.0067891 c -0.12890629,0 -0.30468754,0 -0.30468754,0.1875 0,0.1875 0.17578125,0.1875 0.30468754,0.1875 z m 0,0" style="fill:#000000;fill-opacity:1;fill-rule:nonzero;stroke:none"/>
      <path id="path13" d="m 8.6034687,-2.6610469 c 0.6328125,0 1.03125,0.4570313 1.03125,1.3007813 0,0.99609373 -0.5742187,1.28906248 -0.9960937,1.28906248 -0.4335938,0 -1.03125,-0.1640625 -1.3125,-0.5859375 0.2929687,0 0.4921875,-0.17578125 0.4921875,-0.44531248 0,-0.2578125 -0.1875,-0.4335938 -0.4453125,-0.4335938 -0.2109375,0 -0.4335938,0.1289063 -0.4335938,0.4570313 0,0.74999998 0.8085938,1.24218748 1.7226563,1.24218748 1.0546875,0 1.7929685,-0.7265625 1.7929685,-1.52343748 0,-0.6679688 -0.5156248,-1.265625 -1.3359373,-1.4414063 0.6328125,-0.2226562 1.1015623,-0.7734375 1.1015623,-1.40625 0,-0.6328125 -0.7148435,-1.0898437 -1.5468748,-1.0898437 -0.8554687,0 -1.5,0.4570312 -1.5,1.0664062 0,0.2929688 0.1992188,0.421875 0.4101563,0.421875 0.2460937,0 0.4101562,-0.1757812 0.4101562,-0.4101562 0,-0.2929688 -0.2578125,-0.3984375 -0.4335937,-0.4101563 0.3398437,-0.4335937 0.9492187,-0.46875 1.0898437,-0.46875 0.2109375,0 0.8085938,0.070312 0.8085938,0.890625 0,0.5625 -0.2226563,0.890625 -0.3398438,1.0195313 -0.234375,0.2460937 -0.421875,0.2578125 -0.9023437,0.2929687 -0.1523438,0.011719 -0.2226563,0.023437 -0.2226563,0.1171875 0,0.1171875 0.070313,0.1171875 0.2109375,0.1171875 z m 0,0" style="fill:#000000;fill-opacity:1;fill-rule:nonzero;stroke:none"/>
    </g>
    <g id="g13" aria-label="−1" transform="matrix(1.3333333,0,0,1.3333333,53.524,81.884)">
      <path id="path14" d="m 5.5659844,-1.8055781 c 0.1289062,0 0.3046875,0 0.3046875,-0.1875 0,-0.1875 -0.1757813,-0.1875 -0.3046875,-0.1875 H 1.0073906 c -0.12890623,0 -0.30468748,0 -0.30468748,0.1875 0,0.1875 0.17578125,0.1875 0.30468748,0.1875 z m 0,0" style="fill:#000000;fill-opacity:1;fill-rule:nonzero;stroke:none"/>
      <path id="path15" d="m 9.0962578,-5.0751094 c 0,-0.2226562 -0.023437,-0.2226562 -0.234375,-0.2226562 -0.328125,0.3164062 -0.75,0.5039062 -1.5117187,0.5039062 v 0.2695313 c 0.2226562,0 0.6445312,0 1.1132812,-0.2226563 v 4.08984378 c 0,0.29296875 -0.023437,0.3984375 -0.7851562,0.3984375 h -0.28125 v 0.257812495 c 0.328125,-0.023437495 1.0195312,-0.023437495 1.3710937,-0.023437495 0.3632813,0 1.0546875,0 1.3828122,0.023437495 V -0.25870312 H 9.8696953 c -0.75,0 -0.7734375,-0.10546875 -0.7734375,-0.3984375 z m 0,0" style="fill:#000000;fill-opacity:1;fill-rule:nonzero;stroke:none"/>
    </g>
    <path id="path16" d="m 2.5079609,-5.0751094 c 0,-0.2226562 -0.023437,-0.2226562 -0.234375,-0.2226562 -0.328125,0.3164062 -0.75,0.5039062 -1.51171871,0.5039062 v 0.2695313 c 0.22265625,0 0.64453121,0 1.11328121,-0.2226563 v 4.08984378 c 0,0.29296875 -0.023437,0.3984375 -0.7851562,0.3984375 H 0.80874219 V -8.90625e-4 C 1.1368672,-0.02432812 1.8282734,-0.02432812 2.1798359,-0.02432812 c 0.3632813,0 1.0546875,0 1.3828125,0.023437495 V -0.25870312 h -0.28125 c -0.75,0 -0.7734375,-0.10546875 -0.7734375,-0.3984375 z m 0,0" style="fill:#000000;fill-opacity:1;fill-rule:nonzero;stroke:none" aria-label="1" transform="matrix(1.3333333,0,0,1.3333333,103.26933,81.884)"/>
    <path id="path17" d="m 2.016375,-2.6610469 c 0.6328125,0 1.03125,0.4570313 1.03125,1.3007813 0,0.99609373 -0.5742187,1.28906248 -0.9960937,1.28906248 -0.4335938,0 -1.03125,-0.1640625 -1.31250005,-0.5859375 0.29296875,0 0.49218755,-0.17578125 0.49218755,-0.44531248 0,-0.2578125 -0.1875,-0.4335938 -0.44531255,-0.4335938 -0.2109375,0 -0.43359375,0.1289063 -0.43359375,0.4570313 0,0.74999998 0.8085938,1.24218748 1.7226563,1.24218748 1.0546875,0 1.7929687,-0.7265625 1.7929687,-1.52343748 0,-0.6679688 -0.515625,-1.265625 -1.3359375,-1.4414063 0.6328125,-0.2226562 1.1015625,-0.7734375 1.1015625,-1.40625 0,-0.6328125 -0.7148437,-1.0898437 -1.546875,-1.0898437 -0.8554687,0 -1.5,0.4570312 -1.5,1.0664062 0,0.2929688 0.19921875,0.421875 0.41015625,0.421875 0.24609375,0 0.41015625,-0.1757812 0.41015625,-0.4101562 0,-0.2929688 -0.2578125,-0.3984375 -0.43359375,-0.4101563 0.33984375,-0.4335937 0.94921875,-0.46875 1.08984375,-0.46875 0.2109375,0 0.8085938,0.070312 0.8085938,0.890625 0,0.5625 -0.2226563,0.890625 -0.3398438,1.0195313 C 2.297625,-2.9422969 2.110125,-2.9305781 1.6296563,-2.8954219 1.4773125,-2.8837031 1.407,-2.8719844 1.407,-2.7782344 c 0,0.1171875 0.070312,0.1171875 0.2109375,0.1171875 z m 0,0" style="fill:#000000;fill-opacity:1;fill-rule:nonzero;stroke:none" aria-label="3" transform="matrix(1.3333333,0,0,1.3333333,148.624,81.884)"/>
    <path id="path18" d="m 3.9012656,-2.5430469 c 0,-0.8554687 -0.09375,-1.3710937 -0.3515625,-1.875 -0.3515625,-0.703125 -0.9960937,-0.8789062 -1.4414062,-0.8789062 -0.9960938,0 -1.37109377,0.75 -1.47656252,0.9726562 -0.29296875,0.5742188 -0.3046875,1.3710938 -0.3046875,1.78125 0,0.5273438 0.0234375,1.3359375 0.41015625,1.96875003 0.36328127,0.5859375 0.94921877,0.73828125 1.37109377,0.73828125 0.3867187,0 1.0664062,-0.1171875 1.4648437,-0.90234375 0.2929688,-0.57421873 0.328125,-1.28906253 0.328125,-1.80468753 z m -1.7929687,2.48437503 c -0.2695313,0 -0.8203125,-0.12890625 -0.984375,-0.96093753 -0.09375,-0.4570312 -0.09375,-1.2070312 -0.09375,-1.6171875 0,-0.5507812 0,-1.1132812 0.09375,-1.546875 0.1640625,-0.8085937 0.7851562,-0.890625 0.984375,-0.890625 0.2695312,0 0.8203125,0.1289063 0.984375,0.8554688 0.09375,0.4453125 0.09375,1.0429687 0.09375,1.5820312 0,0.46875 0,1.1835938 -0.09375,1.6289063 -0.1640625,0.84374998 -0.7148438,0.94921873 -0.984375,0.94921873 z m 0,0" style="fill:#000000;fill-opacity:1;fill-rule:nonzero;stroke:none" aria-label="0" transform="matrix(1.3333333,0,0,1.3333333,74.228,79.226667)"/>
    <path id="path19" d="m 2.5075469,-5.0755859 c 0,-0.2226563 -0.023437,-0.2226563 -0.234375,-0.2226563 -0.328125,0.3164063 -0.75,0.5039063 -1.51171877,0.5039063 v 0.2695312 c 0.22265625,0 0.64453127,0 1.11328127,-0.2226562 v 4.08984371 c 0,0.29296875 -0.023437,0.3984375 -0.7851563,0.3984375 H 0.80832813 v 0.2578125 c 0.32812497,-0.0234375 1.01953127,-0.0234375 1.37109377,-0.0234375 0.3632812,0 1.0546875,0 1.3828125,0.0234375 v -0.2578125 h -0.28125 c -0.75,0 -0.7734375,-0.10546875 -0.7734375,-0.3984375 z m 0,0" style="fill:#000000;fill-opacity:1;fill-rule:nonzero;stroke:none" aria-label="1" transform="matrix(1.3333333,0,0,1.3333333,71.570667,34.466667)"/>
    <path id="path20" d="m 1.9093281,-3.5852188 h 0.8554688 c 0.1523437,0 0.2695312,0 0.2695312,-0.1640625 0,-0.1171875 -0.09375,-0.1171875 -0.2578125,-0.1171875 H 1.9796406 L 2.3429219,-5.35475 c 0,-0.140625 -0.1171875,-0.2578125 -0.2695313,-0.2578125 -0.2929687,0 -0.3632812,0.2578125 -0.375,0.3515625 L 1.3351094,-3.8664688 H 0.49135938 c -0.1640625,0 -0.28125,0 -0.28125,0.1640625 0,0.1171875 0.10546875,0.1171875 0.26953125,0.1171875 H 1.2765156 l -0.60937497,2.4375 c -0.0820313,0.2695313 -0.0820313,0.2929688 -0.0820313,0.4101563 0,0.52734375 0.41015625,0.83203125 0.87890617,0.83203125 0.9257814,0 1.4531251,-1.28906255 1.4531251,-1.37109375 0,-0.046875 -0.023437,-0.1171875 -0.1171875,-0.1171875 -0.082031,0 -0.09375,0.035156 -0.1523437,0.1875 -0.28125,0.64453125 -0.7265625,1.078125 -1.171875,1.078125 -0.1757813,0 -0.28125,-0.1171875 -0.28125,-0.41015625 0,-0.19921875 0.023437,-0.3046875 0.058594,-0.43359375 z m 0,0" style="fill:#000000;fill-opacity:1;fill-rule:nonzero;stroke:none" aria-label="t" transform="matrix(1.3333333,0,0,1.3333333,166.10267,72.514667)"/>
    <g id="g20" aria-label="f(t)" transform="matrix(1.3333333,0,0,1.3333333,72.785333,13.397333)">
      <path id="path21" d="m 3.3514297,-3.5851094 h 0.8085937 c 0.1757813,0 0.2695313,0 0.2695313,-0.1640625 0,-0.1171875 -0.09375,-0.1171875 -0.2578125,-0.1171875 H 3.4100234 c 0.09375,-0.5390625 0.2226563,-1.265625 0.3398438,-1.7578125 0.082031,-0.3398437 0.2929687,-0.46875 0.46875,-0.46875 0.058594,0 0.2578125,0.011719 0.421875,0.1289063 -0.1875,0.035156 -0.4453125,0.1875 -0.4453125,0.4921875 0,0.2226562 0.1757812,0.3164062 0.3398437,0.3164062 0.2460938,0 0.4921875,-0.1992187 0.4921875,-0.5390625 0,-0.3984375 -0.3867187,-0.6210937 -0.8085937,-0.6210937 -0.4101563,0 -0.8085938,0.28125 -0.9960938,0.65625 -0.1992187,0.375 -0.2695312,0.7265625 -0.4570312,1.7929687 H 2.1209609 c -0.1640625,0 -0.2695312,0 -0.2695312,0.1640625 0,0.1171875 0.09375,0.1171875 0.2578125,0.1171875 h 0.609375 C 2.4608047,-2.2843281 2.1561172,-0.49135937 1.9568984,0.43442188 1.8514297,0.93832813 1.6990859,1.6180156 1.2772109,1.6180156 c -0.140625,0 -0.31640621,-0.058594 -0.41015621,-0.1289062 C 1.0897109,1.4539531 1.3123672,1.2664531 1.3123672,0.99692188 c 0,-0.22265625 -0.1640625,-0.328125 -0.33984376,-0.328125 -0.234375,0 -0.4921875,0.19921875 -0.4921875,0.53906252 0,0.4101562 0.41015625,0.6328125 0.79687496,0.6328125 0.9140625,0 1.3359375,-1.48828127 1.4765625,-2.26171877 z m 0,0" style="fill:#000000;fill-opacity:1;fill-rule:nonzero;stroke:none"/>
      <path id="path22" d="m 8.5076797,2.1336406 c 0,-0.046875 -0.023437,-0.070312 -0.082031,-0.1289062 C 7.2654925,0.93832813 6.91393,-0.66714062 6.91393,-2.2374531 c 0,-1.3945313 0.2695312,-3.0820313 1.5351562,-4.2773438 0.035156,-0.035156 0.058594,-0.070312 0.058594,-0.1054687 0,-0.070312 -0.046875,-0.1054688 -0.1054688,-0.1054688 -0.1054687,0 -0.9140625,0.6445313 -1.40625,1.6289063 -0.421875,0.8554687 -0.6445312,1.78125 -0.6445312,2.8476562 0,0.6445313 0.082031,1.66406253 0.5742187,2.73046878 0.5273438,1.10156252 1.3710938,1.74609372 1.4765625,1.74609372 0.058594,0 0.1054688,-0.035156 0.1054683,-0.09375 z m 0,0" style="fill:#000000;fill-opacity:1;fill-rule:nonzero;stroke:none"/>
      <path id="path23" d="m 10.94225,-3.5851094 h 0.855469 c 0.152344,0 0.269531,0 0.269531,-0.1640625 0,-0.1171875 -0.09375,-0.1171875 -0.257812,-0.1171875 h -0.796875 l 0.363281,-1.4882812 c 0,-0.140625 -0.117188,-0.2578125 -0.269531,-0.2578125 -0.292969,0 -0.363282,0.2578125 -0.375,0.3515625 l -0.363282,1.3945312 H 9.5242813 c -0.1640625,0 -0.28125,0 -0.28125,0.1640625 0,0.1171875 0.1054687,0.1171875 0.2695312,0.1171875 h 0.7968755 l -0.6093755,2.4375 c -0.082031,0.26953128 -0.082031,0.29296878 -0.082031,0.41015628 0,0.52734375 0.4101565,0.83203125 0.8789065,0.83203125 0.925781,0 1.453125,-1.28906253 1.453125,-1.37109373 0,-0.046875 -0.02344,-0.1171875 -0.117188,-0.1171875 -0.08203,0 -0.09375,0.035156 -0.152344,0.1875 -0.28125,0.64453123 -0.726562,1.07812498 -1.171875,1.07812498 -0.175781,0 -0.28125,-0.1171875 -0.28125,-0.41015625 0,-0.19921875 0.02344,-0.3046875 0.05859,-0.43359375 z m 0,0" style="fill:#000000;fill-opacity:1;fill-rule:nonzero;stroke:none"/>
      <path id="path24" d="m 15.032094,-2.2491719 c 0,-0.7382812 -0.105469,-1.7226562 -0.574219,-2.71875 -0.527344,-1.1015625 -1.359375,-1.7578125 -1.464844,-1.7578125 -0.09375,0 -0.117187,0.070312 -0.117187,0.1054688 0,0.035156 0.02344,0.070312 0.08203,0.1289062 0.527344,0.46875 1.511719,1.6875 1.511719,4.2421875 0,1.27734378 -0.234375,3.07031253 -1.535156,4.2773438 -0.02344,0.023437 -0.05859,0.058594 -0.05859,0.1054687 0,0.023437 0.02344,0.09375 0.117187,0.09375 0.105469,0 0.914063,-0.6445312 1.394532,-1.61718747 0.433593,-0.85546875 0.644531,-1.78125003 0.644531,-2.85937503 z m 0,0" style="fill:#000000;fill-opacity:1;fill-rule:nonzero;stroke:none"/>
    </g>
  </g>
</svg>