<?xml version="1.0" encoding="UTF-8" standalone="no"?>
<!-- Created with Inkscape (http://www.inkscape.org/) -->
<svg version="1.1" id="svg1" width="341.26666" height="151.70667" viewBox="0 0 341.26666 151.70667" sodipodi:docname="24-25-1-信号与系统-期中-解答3-2.pdf" xmlns:inkscape="http://www.inkscape.org/namespaces/inkscape" xmlns:sodipodi="http://sodipodi.sourceforge.net/DTD/sodipodi-0.dtd" xmlns="http://www.w3.org/2000/svg" xmlns:svg="http://www.w3.org/2000/svg">
  <defs id="defs1"/>
  <sodipodi:namedview id="namedview1" pagecolor="#ffffff" bordercolor="#000000" borderopacity="0.25" inkscape:showpageshadow="2" inkscape:pageopacity="0.0" inkscape:pagecheckerboard="0" inkscape:deskcolor="#d1d1d1">
    <inkscape:page x="0" y="0" inkscape:label="1" id="page1" width="341.26666" height="151.70667" margin="0" bleed="0"/>
  </sodipodi:namedview>
  <g id="g1" inkscape:groupmode="layer" inkscape:label="1">
    <path id="path1" d="M -39.68535,-51.02432 V 62.36288 H 215.43591 V -51.02432 Z" style="fill:#ffffff;fill-opacity:1;fill-rule:nonzero;stroke:#ffffff;stroke-width:0.3985;stroke-linecap:butt;stroke-linejoin:miter;stroke-miterlimit:10;stroke-dasharray:none;stroke-opacity:1" transform="matrix(1.3333333,0,0,-1.3333333,53.178667,83.409333)"/>
    <path id="path2" d="m -28.34666,-1.99255 v 3.9851" style="fill:none;stroke:#000000;stroke-width:0.3985;stroke-linecap:round;stroke-linejoin:miter;stroke-miterlimit:10;stroke-dasharray:none;stroke-opacity:1" transform="matrix(1.3333333,0,0,-1.3333333,53.178667,83.409333)"/>
    <path id="path3" d="m 28.34666,-1.99255 v 3.9851" style="fill:none;stroke:#000000;stroke-width:0.3985;stroke-linecap:round;stroke-linejoin:miter;stroke-miterlimit:10;stroke-dasharray:none;stroke-opacity:1" transform="matrix(1.3333333,0,0,-1.3333333,53.178667,83.409333)"/>
    <path id="path4" d="m -1.99255,28.34666 h 3.9851" style="fill:none;stroke:#000000;stroke-width:0.3985;stroke-linecap:round;stroke-linejoin:miter;stroke-miterlimit:10;stroke-dasharray:none;stroke-opacity:1" transform="matrix(1.3333333,0,0,-1.3333333,53.178667,83.409333)"/>
    <path id="path5" d="m -35.81874,0 h 71.1758" style="fill:none;stroke:#000000;stroke-width:0.3985;stroke-linecap:butt;stroke-linejoin:miter;stroke-miterlimit:10;stroke-dasharray:none;stroke-opacity:1" transform="matrix(1.3333333,0,0,-1.3333333,53.178667,83.409333)"/>
    <path id="path6" d="M -1.19551,1.59401 C -1.09587,0.99626 0,0.09961 0.29886,0 0,-0.09961 -1.09587,-0.99626 -1.19551,-1.59401" style="fill:none;stroke:#000000;stroke-width:0.31879;stroke-linecap:round;stroke-linejoin:round;stroke-miterlimit:10;stroke-dasharray:none;stroke-opacity:1" transform="matrix(1.3333333,0,0,-1.3333333,100.32141,83.409333)"/>
    <path id="path7" d="M 0,-7.47208 V 35.35988" style="fill:none;stroke:#000000;stroke-width:0.3985;stroke-linecap:butt;stroke-linejoin:miter;stroke-miterlimit:10;stroke-dasharray:none;stroke-opacity:1" transform="matrix(1.3333333,0,0,-1.3333333,53.178667,83.409333)"/>
    <path id="path8" d="M -1.19551,1.59401 C -1.09587,0.99626 0,0.09961 0.29886,0 0,-0.09961 -1.09587,-0.99626 -1.19551,-1.59401" style="fill:none;stroke:#000000;stroke-width:0.31879;stroke-linecap:round;stroke-linejoin:round;stroke-miterlimit:10;stroke-dasharray:none;stroke-opacity:1" transform="matrix(0,-1.3333333,-1.3333333,0,53.178667,36.262827)"/>
    <path id="path9" d="m 56.69376,-1.99255 v 3.9851" style="fill:none;stroke:#000000;stroke-width:0.3985;stroke-linecap:round;stroke-linejoin:miter;stroke-miterlimit:10;stroke-dasharray:none;stroke-opacity:1" transform="matrix(1.3333333,0,0,-1.3333333,53.178667,83.409333)"/>
    <path id="path10" d="m 113.3871,-1.99255 v 3.9851" style="fill:none;stroke:#000000;stroke-width:0.3985;stroke-linecap:round;stroke-linejoin:miter;stroke-miterlimit:10;stroke-dasharray:none;stroke-opacity:1" transform="matrix(1.3333333,0,0,-1.3333333,53.178667,83.409333)"/>
    <path id="path11" d="m 83.04787,35.62135 h 3.9851" style="fill:none;stroke:#000000;stroke-width:0.3985;stroke-linecap:round;stroke-linejoin:miter;stroke-miterlimit:10;stroke-dasharray:none;stroke-opacity:1" transform="matrix(1.3333333,0,0,-1.3333333,53.178667,83.409333)"/>
    <path id="path12" d="m 83.04787,-35.62135 h 3.9851" style="fill:none;stroke:#000000;stroke-width:0.3985;stroke-linecap:round;stroke-linejoin:miter;stroke-miterlimit:10;stroke-dasharray:none;stroke-opacity:1" transform="matrix(1.3333333,0,0,-1.3333333,53.178667,83.409333)"/>
    <path id="path13" d="m 49.22168,0 h 71.17581" style="fill:none;stroke:#000000;stroke-width:0.3985;stroke-linecap:butt;stroke-linejoin:miter;stroke-miterlimit:10;stroke-dasharray:none;stroke-opacity:1" transform="matrix(1.3333333,0,0,-1.3333333,53.178667,83.409333)"/>
    <path id="path14" d="M -1.19551,1.59401 C -1.09587,0.99626 0,0.09961 0.29886,0 0,-0.09961 -1.09587,-0.99626 -1.19551,-1.59401" style="fill:none;stroke:#000000;stroke-width:0.31879;stroke-linecap:round;stroke-linejoin:round;stroke-miterlimit:10;stroke-dasharray:none;stroke-opacity:1" transform="matrix(1.3333333,0,0,-1.3333333,213.70865,83.409333)"/>
    <path id="path15" d="m 85.04042,-43.09274 v 85.7279" style="fill:none;stroke:#000000;stroke-width:0.3985;stroke-linecap:butt;stroke-linejoin:miter;stroke-miterlimit:10;stroke-dasharray:none;stroke-opacity:1" transform="matrix(1.3333333,0,0,-1.3333333,53.178667,83.409333)"/>
    <path id="path16" d="M -1.19551,1.59401 C -1.09587,0.99626 0,0.09961 0.29886,0 0,-0.09961 -1.09587,-0.99626 -1.19551,-1.59401" style="fill:none;stroke:#000000;stroke-width:0.31879;stroke-linecap:round;stroke-linejoin:round;stroke-miterlimit:10;stroke-dasharray:none;stroke-opacity:1" transform="matrix(0,-1.3333333,-1.3333333,0,166.56589,26.562453)"/>
    <path id="path17" d="m 141.73418,-1.99255 v 3.9851" style="fill:none;stroke:#000000;stroke-width:0.3985;stroke-linecap:round;stroke-linejoin:miter;stroke-miterlimit:10;stroke-dasharray:none;stroke-opacity:1" transform="matrix(1.3333333,0,0,-1.3333333,53.178667,83.409333)"/>
    <path id="path18" d="m 198.42752,-1.99255 v 3.9851" style="fill:none;stroke:#000000;stroke-width:0.3985;stroke-linecap:round;stroke-linejoin:miter;stroke-miterlimit:10;stroke-dasharray:none;stroke-opacity:1" transform="matrix(1.3333333,0,0,-1.3333333,53.178667,83.409333)"/>
    <path id="path19" d="m 168.0883,-34.97073 h 3.98511" style="fill:none;stroke:#000000;stroke-width:0.3985;stroke-linecap:round;stroke-linejoin:miter;stroke-miterlimit:10;stroke-dasharray:none;stroke-opacity:1" transform="matrix(1.3333333,0,0,-1.3333333,53.178667,83.409333)"/>
    <path id="path20" d="m 134.2621,0 h 71.17581" style="fill:none;stroke:#000000;stroke-width:0.3985;stroke-linecap:butt;stroke-linejoin:miter;stroke-miterlimit:10;stroke-dasharray:none;stroke-opacity:1" transform="matrix(1.3333333,0,0,-1.3333333,53.178667,83.409333)"/>
    <path id="path21" d="M -1.19551,1.59401 C -1.09587,0.99626 0,0.09961 0.29886,0 0,-0.09961 -1.09587,-0.99626 -1.19551,-1.59401" style="fill:none;stroke:#000000;stroke-width:0.31879;stroke-linecap:round;stroke-linejoin:round;stroke-miterlimit:10;stroke-dasharray:none;stroke-opacity:1" transform="matrix(1.3333333,0,0,-1.3333333,327.09588,83.409333)"/>
    <path id="path22" d="M 170.08086,-42.44237 V 42.44687" style="fill:none;stroke:#000000;stroke-width:0.3985;stroke-linecap:butt;stroke-linejoin:miter;stroke-miterlimit:10;stroke-dasharray:none;stroke-opacity:1" transform="matrix(1.3333333,0,0,-1.3333333,53.178667,83.409333)"/>
    <path id="path23" d="M -1.19551,1.59401 C -1.09587,0.99626 0,0.09961 0.29886,0 0,-0.09961 -1.09587,-0.99626 -1.19551,-1.59401" style="fill:none;stroke:#000000;stroke-width:0.31879;stroke-linecap:round;stroke-linejoin:round;stroke-miterlimit:10;stroke-dasharray:none;stroke-opacity:1" transform="matrix(0,-1.3333333,-1.3333333,0,279.95315,26.813507)"/>
    <path id="path24" d="m -28.34666,0 c 0,0 1.70665,2.68169 2.36212,3.6995 0.65548,1.01782 1.70669,2.64472 2.36214,3.63632 0.65542,0.99159 1.7064,2.5619 2.36183,3.51046 0.65544,0.94857 1.70666,2.43708 2.36215,3.32617 0.65547,0.88912 1.70663,2.26738 2.3621,3.08188 0.65549,0.81449 1.70665,2.0625 2.36214,2.78846 0.65548,0.72595 1.70665,1.81872 2.36212,2.44375 0.65549,0.62503 1.7067,1.54773 2.36214,2.0611 0.65542,0.51338 1.70642,1.24602 2.36185,1.63901 0.65544,0.39299 1.70665,0.92761 2.36213,1.1934 0.65547,0.26579 1.70664,0.58823 2.36211,0.72226 0.65549,0.13403 1.70666,0.24367 2.36215,0.24377 0.65546,1.1e-4 1.70662,-0.10903 2.36209,-0.2429 0.65549,-0.13388 1.7067,-0.45638 2.36214,-0.722 0.65543,-0.26564 1.70641,-0.79978 2.36183,-1.19255 0.65544,-0.39279 1.70665,-1.12531 2.36214,-1.63844 0.65547,-0.51314 1.70665,-1.43512 2.36212,-2.05996 0.65549,-0.62483 1.70665,-1.7176 2.36214,-2.44348 0.65547,-0.72587 1.70669,-1.97381 2.36212,-2.78817 0.65544,-0.81438 1.70636,-2.19227 2.36184,-3.08129 0.65548,-0.88901 1.70694,-2.37767 2.36242,-3.3262 0.65548,-0.94853 1.7064,-2.51862 2.36184,-3.51016 0.65543,-0.99156 1.70665,-2.61847 2.36212,-3.63631 0.65549,-1.01784 2.36214,-3.69954 2.36214,-3.69954" style="fill:none;stroke:#000000;stroke-width:0.59776;stroke-linecap:butt;stroke-linejoin:miter;stroke-miterlimit:10;stroke-dasharray:none;stroke-opacity:1" transform="matrix(1.3333333,0,0,-1.3333333,53.178667,83.409333)"/>
    <g id="g24" aria-label="−1" transform="matrix(1.3333333,0,0,1.3333333,8.1693333,96.456)">
      <path id="path25" d="m 5.5653828,-1.8039141 c 0.1289063,0 0.3046875,0 0.3046875,-0.1875 0,-0.1875 -0.1757812,-0.1875 -0.3046875,-0.1875 H 1.0067891 c -0.12890629,0 -0.30468754,0 -0.30468754,0.1875 0,0.1875 0.17578125,0.1875 0.30468754,0.1875 z m 0,0" style="fill:#000000;fill-opacity:1;fill-rule:nonzero;stroke:none"/>
      <path id="path26" d="m 9.0956562,-5.0734453 c 0,-0.2226563 -0.023437,-0.2226563 -0.234375,-0.2226563 -0.328125,0.3164063 -0.75,0.5039063 -1.5117187,0.5039063 v 0.2695312 c 0.2226562,0 0.6445312,0 1.1132812,-0.2226562 v 4.08984374 c 0,0.29296875 -0.023437,0.3984375 -0.7851562,0.3984375 h -0.28125 V 7.734375e-4 C 7.7245625,-0.02266406 8.4159687,-0.02266406 8.7675312,-0.02266406 c 0.3632813,0 1.0546875,0 1.3828128,0.0234374975 V -0.25703906 H 9.8690937 c -0.75,0 -0.7734375,-0.10546875 -0.7734375,-0.3984375 z m 0,0" style="fill:#000000;fill-opacity:1;fill-rule:nonzero;stroke:none"/>
    </g>
    <path id="path27" d="m 2.5080703,-5.0734453 c 0,-0.2226563 -0.023437,-0.2226563 -0.234375,-0.2226563 -0.328125,0.3164063 -0.75,0.5039063 -1.51171874,0.5039063 v 0.2695312 c 0.22265625,0 0.64453124,0 1.11328124,-0.2226562 v 4.08984374 c 0,0.29296875 -0.023437,0.3984375 -0.7851562,0.3984375 H 0.80885156 V 7.734375e-4 C 1.1369766,-0.02266406 1.8283828,-0.02266406 2.1799453,-0.02266406 c 0.3632813,0 1.0546875,0 1.3828125,0.0234374975 V -0.25703906 h -0.28125 c -0.75,0 -0.7734375,-0.10546875 -0.7734375,-0.3984375 z m 0,0" style="fill:#000000;fill-opacity:1;fill-rule:nonzero;stroke:none" aria-label="1" transform="matrix(1.3333333,0,0,1.3333333,88.152,96.456)"/>
    <path id="path28" d="m 3.9024844,-2.5443125 c 0,-0.8554687 -0.09375,-1.3710937 -0.3515625,-1.875 -0.3515625,-0.703125 -0.9960938,-0.8789062 -1.4414063,-0.8789062 -0.9960937,0 -1.37109372,0.75 -1.47656247,0.9726562 -0.29296875,0.5742188 -0.3046875,1.3710938 -0.3046875,1.78125 0,0.5273438 0.0234375,1.3359375 0.41015625,1.96875 0.36328122,0.5859375 0.94921872,0.73828125 1.37109372,0.73828125 0.3867188,0 1.0664063,-0.1171875 1.4648438,-0.90234375 0.2929687,-0.5742187 0.328125,-1.2890625 0.328125,-1.8046875 z m -1.7929688,2.484375 c -0.2695312,0 -0.8203125,-0.12890625 -0.984375,-0.9609375 -0.09375,-0.4570312 -0.09375,-1.2070312 -0.09375,-1.6171875 0,-0.5507812 0,-1.1132812 0.09375,-1.546875 0.1640625,-0.8085937 0.7851563,-0.890625 0.984375,-0.890625 0.2695313,0 0.8203125,0.1289063 0.984375,0.8554688 0.09375,0.4453125 0.09375,1.0429687 0.09375,1.5820312 0,0.46875 0,1.1835938 -0.09375,1.6289063 -0.1640625,0.84374995 -0.7148437,0.9492187 -0.984375,0.9492187 z m 0,0" style="fill:#000000;fill-opacity:1;fill-rule:nonzero;stroke:none" aria-label="0" transform="matrix(1.3333333,0,0,1.3333333,43.992,93.798667)"/>
    <path id="path29" d="m 2.5087656,-5.0739219 c 0,-0.2226562 -0.023437,-0.2226562 -0.234375,-0.2226562 -0.328125,0.3164062 -0.75,0.5039062 -1.51171873,0.5039062 v 0.2695313 c 0.22265625,0 0.64453123,0 1.11328123,-0.2226563 v 4.08984378 c 0,0.29296875 -0.023437,0.3984375 -0.7851562,0.3984375 H 0.80954687 V 2.96875e-4 C 1.1376719,-0.02314062 1.8290781,-0.02314062 2.1806406,-0.02314062 c 0.3632813,0 1.0546875,0 1.3828125,0.023437495 V -0.25751562 h -0.28125 c -0.75,0 -0.7734375,-0.10546875 -0.7734375,-0.3984375 z m 0,0" style="fill:#000000;fill-opacity:1;fill-rule:nonzero;stroke:none" aria-label="1" transform="matrix(1.3333333,0,0,1.3333333,41.334667,49.038667)"/>
    <path id="path30" d="M 1.9099063,-3.5864844 H 2.765375 c 0.1523438,0 0.2695313,0 0.2695313,-0.1640625 0,-0.1171875 -0.09375,-0.1171875 -0.2578125,-0.1171875 H 1.9802188 L 2.3435,-5.3560156 c 0,-0.140625 -0.1171875,-0.2578125 -0.2695312,-0.2578125 -0.2929688,0 -0.3632813,0.2578125 -0.375,0.3515625 l -0.3632813,1.3945312 h -0.84375 c -0.1640625,0 -0.28125,0 -0.28125,0.1640625 0,0.1171875 0.10546875,0.1171875 0.26953125,0.1171875 H 1.2770938 l -0.60937505,2.4375 c -0.0820313,0.26953128 -0.0820313,0.29296878 -0.0820313,0.41015628 0,0.52734375 0.41015625,0.83203125 0.87890635,0.83203125 0.9257812,0 1.453125,-1.28906253 1.453125,-1.37109373 0,-0.046875 -0.023437,-0.1171875 -0.1171875,-0.1171875 -0.082031,0 -0.09375,0.035156 -0.1523438,0.1875 -0.28125,0.64453123 -0.7265626,1.07812498 -1.1718751,1.07812498 -0.1757812,0 -0.28125,-0.1171875 -0.28125,-0.41015625 0,-0.19921875 0.023437,-0.3046875 0.058594,-0.43359375 z m 0,0" style="fill:#000000;fill-opacity:1;fill-rule:nonzero;stroke:none" aria-label="t" transform="matrix(1.3333333,0,0,1.3333333,105.62533,87.086667)"/>
    <g id="g30" aria-label="x(t)=cos(0.5πt)" transform="matrix(1.3333333,0,0,1.3333333,7.704,27.969333)">
      <path id="path31" d="m 4.4055937,-3.6215312 c -0.328125,0.058594 -0.421875,0.3515625 -0.421875,0.4804687 0,0.1757813 0.1171875,0.328125 0.3398438,0.328125 0.2578125,0 0.5039062,-0.2226562 0.5039062,-0.5273437 0,-0.421875 -0.4570312,-0.6210938 -0.8789062,-0.6210938 -0.5390625,0 -0.84375,0.46875 -0.9492188,0.65625 -0.1757812,-0.4335937 -0.5742187,-0.65625 -0.9960937,-0.65625 -0.9609375,0 -1.48828125,1.1484375 -1.48828125,1.3828125 0,0.082031 0.0703125,0.1054688 0.12890625,0.1054688 0.0820313,0 0.10546875,-0.046875 0.12890625,-0.1054688 0.28124995,-0.8789062 0.86718745,-1.1601562 1.20703125,-1.1601562 0.2578125,0 0.4921875,0.1757812 0.4921875,0.5859375 0,0.328125 -0.3867188,1.7578125 -0.5039063,2.1914062 -0.070312,0.28125 -0.3398437,0.83203125 -0.8320312,0.83203125 -0.17578125,0 -0.36328125,-0.0585938 -0.45703125,-0.1171875 C 0.925125,-0.2816875 1.1009062,-0.492625 1.1009062,-0.727 c 0,-0.22265625 -0.16406245,-0.328125 -0.3398437,-0.328125 -0.2578125,0 -0.4921875,0.234375 -0.4921875,0.5390625 0,0.43359375 0.48046875,0.609375 0.8554687,0.609375 0.5273438,0 0.8320313,-0.421875 0.9609375,-0.66796875 C 2.3079375,0.023 2.847,0.0933125 3.081375,0.0933125 c 0.9726562,0 1.4765625,-1.1601562 1.4765625,-1.3710937 0,-0.046875 -0.023437,-0.1171875 -0.1171875,-0.1171875 -0.09375,0 -0.1054688,0.035156 -0.1523438,0.1757812 -0.1875,0.64453125 -0.7148437,1.08984375 -1.1835937,1.08984375 -0.2578125,0 -0.4921875,-0.15234375 -0.4921875,-0.5859375 0,-0.19921875 0.1171875,-0.69140625 0.1992187,-1.03124995 C 2.847,-1.9105937 3.0930937,-2.88325 3.1048125,-2.9418437 3.222,-3.25825 3.4915312,-3.7387187 3.9485625,-3.7387187 c 0.1523437,0 0.328125,0.023437 0.4570312,0.1171875 z m 0,0" style="fill:#000000;fill-opacity:1;fill-rule:nonzero;stroke:none"/>
      <path id="path32" d="m 8.2815703,2.132375 c 0,-0.046875 -0.023437,-0.070312 -0.082031,-0.1289062 C 7.039383,0.9370625 6.6878205,-0.66840625 6.6878205,-2.2387187 c 0,-1.3945313 0.2695313,-3.0820313 1.5351563,-4.2773438 0.035156,-0.035156 0.058594,-0.070312 0.058594,-0.1054687 0,-0.070312 -0.046875,-0.1054688 -0.1054687,-0.1054688 -0.1054688,0 -0.9140625,0.6445313 -1.40625,1.6289063 -0.421875,0.8554687 -0.6445313,1.78125 -0.6445313,2.8476562 0,0.6445313 0.082031,1.6640625 0.5742188,2.73046875 0.5273432,1.10156255 1.3710932,1.74609375 1.476562,1.74609375 0.058594,0 0.1054687,-0.035156 0.1054687,-0.09375 z m 0,0" style="fill:#000000;fill-opacity:1;fill-rule:nonzero;stroke:none"/>
      <path id="path33" d="m 10.716141,-3.586375 h 0.855468 c 0.152344,0 0.269532,0 0.269532,-0.1640625 0,-0.1171875 -0.09375,-0.1171875 -0.257813,-0.1171875 h -0.796875 l 0.363281,-1.4882812 c 0,-0.140625 -0.117187,-0.2578125 -0.269531,-0.2578125 -0.292969,0 -0.363281,0.2578125 -0.375,0.3515625 L 10.141922,-3.867625 H 9.2981719 c -0.1640625,0 -0.28125,0 -0.28125,0.1640625 0,0.1171875 0.1054687,0.1171875 0.2695312,0.1171875 h 0.7968749 l -0.6093749,2.4375 c -0.082031,0.26953125 -0.082031,0.29296875 -0.082031,0.41015625 0,0.52734375 0.4101562,0.83203125 0.8789059,0.83203125 0.925781,0 1.453125,-1.2890625 1.453125,-1.3710937 0,-0.046875 -0.02344,-0.1171875 -0.117187,-0.1171875 -0.08203,0 -0.09375,0.035156 -0.152344,0.1875 -0.28125,0.6445312 -0.726563,1.07812495 -1.171875,1.07812495 -0.175781,0 -0.28125,-0.1171875 -0.28125,-0.41015625 0,-0.19921875 0.02344,-0.3046875 0.05859,-0.43359375 z m 0,0" style="fill:#000000;fill-opacity:1;fill-rule:nonzero;stroke:none"/>
      <path id="path34" d="m 14.805984,-2.2504375 c 0,-0.7382812 -0.105468,-1.7226562 -0.574218,-2.71875 C 13.704422,-6.07075 12.872391,-6.727 12.766922,-6.727 c -0.09375,0 -0.117188,0.070312 -0.117188,0.1054688 0,0.035156 0.02344,0.070312 0.08203,0.1289062 0.527343,0.46875 1.511718,1.6875 1.511718,4.2421875 0,1.27734375 -0.234375,3.0703125 -1.535156,4.2773438 -0.02344,0.023437 -0.05859,0.058594 -0.05859,0.1054687 0,0.023437 0.02344,0.09375 0.117188,0.09375 0.105469,0 0.914062,-0.6445312 1.394531,-1.6171875 0.433594,-0.85546875 0.644531,-1.78125 0.644531,-2.859375 z m 9.814453,-0.7148437 c 0.117188,0 0.292969,0 0.292969,-0.1875 C 24.913406,-3.352 24.714187,-3.352 24.585281,-3.352 h -5.472656 c -0.140625,0 -0.328125,0 -0.328125,0.1992188 0,0.1875 0.175781,0.1875 0.292969,0.1875 z m -0.03516,1.828125 c 0.128906,0 0.328125,0 0.328125,-0.1992188 0,-0.1875 -0.175781,-0.1875 -0.292969,-0.1875 h -5.542968 c -0.117188,0 -0.292969,0 -0.292969,0.1875 0,0.1992188 0.1875,0.1992188 0.328125,0.1992188 z m 6.65918,-2.390625 c -0.1875,0.035156 -0.363281,0.1640625 -0.363281,0.421875 0,0.234375 0.175781,0.421875 0.410156,0.421875 0.234375,0 0.421875,-0.1640625 0.421875,-0.4335938 0,-0.5625 -0.621094,-0.9023437 -1.417969,-0.9023437 -1.148437,0 -2.003906,0.9609375 -2.003906,2.0859375 0,1.14843745 0.9375,2.0273437 1.992187,2.0273437 1.242188,0 1.535157,-1.078125 1.535157,-1.1601562 0,-0.1054688 -0.105469,-0.1054688 -0.128907,-0.1054688 -0.09375,0 -0.09375,0.011719 -0.152343,0.1640625 -0.210938,0.62109375 -0.703125,0.85546875 -1.171875,0.85546875 -0.5625,0 -1.300782,-0.46875 -1.300782,-1.79296875 0,-1.3945312 0.714844,-1.8164062 1.253907,-1.8164062 0.117187,0 0.597656,0.011719 0.925781,0.234375 z m 5.167969,1.6171875 c 0,-1.171875 -0.925782,-2.109375 -2.027344,-2.109375 -1.148438,0 -2.050781,0.9609375 -2.050781,2.109375 0,1.12499995 0.9375,2.0039062 2.039062,2.0039062 1.136719,0 2.039063,-0.90234375 2.039063,-2.0039062 z m -2.027344,1.75781245 c -0.457031,0 -0.832031,-0.22265625 -1.03125,-0.57421875 -0.234375,-0.375 -0.246094,-0.8554687 -0.246094,-1.265625 0,-0.328125 0,-0.84375 0.222656,-1.2070312 0.269532,-0.4570313 0.714844,-0.5976563 1.042969,-0.5976563 0.503906,0 0.878906,0.2929688 1.054688,0.5976563 0.210937,0.375 0.210937,0.8320312 0.210937,1.2070312 0,0.328125 0,0.8554688 -0.222656,1.25390625 -0.246094,0.41015625 -0.65625,0.5859375 -1.03125,0.5859375 z m 5.373047,-3.63281245 c 0,-0.1523438 0,-0.234375 -0.105469,-0.234375 -0.04687,0 -0.05859,0 -0.175781,0.1054687 -0.02344,0.023437 -0.105469,0.1054688 -0.152344,0.1523438 -0.28125,-0.1992188 -0.5625,-0.2578125 -0.867187,-0.2578125 -1.183594,0 -1.476563,0.65625 -1.476563,1.1132812 0,0.2929688 0.128906,0.5273438 0.328125,0.7148438 0.304688,0.28125 0.644531,0.3398437 1.101563,0.421875 0.457031,0.09375 0.609375,0.1171875 0.808593,0.2695312 0.09375,0.070312 0.316407,0.2460938 0.316407,0.5859375 0,0.78515625 -0.902344,0.78515625 -1.03125,0.78515625 -0.914063,0 -1.148438,-0.76171875 -1.253907,-1.24218745 -0.02344,-0.09375 -0.03516,-0.140625 -0.140625,-0.140625 -0.128906,0 -0.128906,0.070312 -0.128906,0.234375 v 1.14843745 c 0,0.15234375 0,0.22265625 0.105469,0.22265625 0.05859,0 0.07031,0 0.222656,-0.17578125 0.03516,-0.046875 0.140625,-0.1640625 0.1875,-0.2109375 0.375,0.36328125 0.785156,0.38671875 1.007813,0.38671875 1.101562,0 1.488281,-0.64453125 1.488281,-1.2421875 0,-0.3984375 -0.175781,-0.6445312 -0.375,-0.8554687 -0.304688,-0.2929688 -0.632813,-0.3515625 -1.289063,-0.4804688 -0.234375,-0.046875 -0.890625,-0.1640625 -0.890625,-0.6679687 0,-0.2929688 0.210938,-0.6679688 1.019532,-0.6679688 0.972656,0 1.03125,0.75 1.054687,0.9726563 0.01172,0.1054687 0.01172,0.1640625 0.117188,0.1640625 0.128906,0 0.128906,-0.070312 0.128906,-0.234375 z m 3.606445,5.9179687 c 0,-0.046875 -0.02344,-0.070312 -0.08203,-0.1289062 -1.160156,-1.0664063 -1.511719,-2.67187505 -1.511719,-4.2421875 0,-1.3945313 0.269531,-3.0820313 1.535156,-4.2773438 0.03516,-0.035156 0.05859,-0.070312 0.05859,-0.1054687 0,-0.070312 -0.04687,-0.1054688 -0.105469,-0.1054688 -0.105468,0 -0.914062,0.6445313 -1.40625,1.6289063 -0.421875,0.8554687 -0.644531,1.78125 -0.644531,2.8476562 0,0.6445313 0.08203,1.6640625 0.574219,2.73046875 0.527344,1.10156255 1.371094,1.74609375 1.476562,1.74609375 0.05859,0 0.105469,-0.035156 0.105469,-0.09375 z m 4.763672,-5.0039062 c 0,-0.5976563 -0.02344,-1.3710938 -0.339844,-2.0390625 -0.398437,-0.84375 -1.078125,-1.0546875 -1.59375,-1.0546875 -0.539062,0 -1.21875,0.2109375 -1.617187,1.0664062 -0.292969,0.6210938 -0.328125,1.3476563 -0.328125,2.0273438 0,0.5859375 0.01172,1.453125 0.398437,2.1679687 0.421875,0.76171875 1.125,0.90234375 1.535156,0.90234375 0.585938,0 1.242188,-0.2578125 1.617188,-1.078125 C 48.069656,-1.477 48.12825,-2.1566875 48.12825,-2.8715312 Z m -1.933594,2.8476562 c -0.269531,0 -0.914062,-0.12890625 -1.089844,-1.1367187 -0.09375,-0.5390625 -0.09375,-1.3007813 -0.09375,-1.8164063 0,-0.609375 0,-1.3125 0.117188,-1.8164062 0.175781,-0.796875 0.75,-0.9492188 1.054687,-0.9492188 0.339844,0 0.902344,0.1757813 1.078125,1.0078125 0.09375,0.4921875 0.09375,1.1953125 0.09375,1.7578125 0,0.5507813 0,1.3125 -0.09375,1.8398438 -0.1875,1.0195312 -0.84375,1.1132812 -1.066406,1.1132812 z m 0,0" style="fill:#000000;fill-opacity:1;fill-rule:nonzero;stroke:none"/>
      <path id="path35" d="m 50.293289,-0.48090625 c 0,-0.2578125 -0.210937,-0.4921875 -0.480469,-0.4921875 -0.28125,0 -0.492187,0.234375 -0.492187,0.4921875 0,0.2578125 0.210937,0.48046875 0.492187,0.48046875 0.269532,0 0.480469,-0.22265625 0.480469,-0.48046875 z m 0,0" style="fill:#000000;fill-opacity:1;fill-rule:nonzero;stroke:none"/>
      <path id="path36" d="m 52.033523,-3.0941875 c 0,0.1640625 0,0.2578125 0.117188,0.2578125 0.07031,0 0.105469,-0.035156 0.152344,-0.1171875 0.269531,-0.375 0.703125,-0.5859375 1.171875,-0.5859375 0.960937,0 0.960937,1.3828125 0.960937,1.6992188 0,0.28125 0,0.8320312 -0.257812,1.24218745 -0.234375,0.375 -0.621094,0.5390625 -0.960938,0.5390625 -0.539062,0 -1.136719,-0.328125 -1.347656,-0.99609375 0.01172,0 0.05859,0.023437 0.117187,0.023437 0.1875,0 0.445313,-0.1171875 0.445313,-0.4335937 0,-0.28125 -0.199219,-0.4453125 -0.445313,-0.4453125 -0.1875,0 -0.433593,0.1054687 -0.433593,0.46875 0,0.8085937 0.679687,1.64062495 1.675781,1.64062495 1.089844,0 2.003906,-0.87890625 2.003906,-1.99218745 0,-1.0898438 -0.761719,-1.96875 -1.746094,-1.96875 -0.421875,0 -0.867187,0.140625 -1.183593,0.4570312 V -5.062938 c 0.269531,0.082031 0.550781,0.1171875 0.832031,0.1171875 1.101562,0 1.746094,-0.796875 1.746094,-0.9140625 0,-0.070312 -0.05859,-0.1054687 -0.105469,-0.1054687 -0.01172,0 -0.03516,0 -0.117188,0.035156 -0.410156,0.1757813 -0.832031,0.2460938 -1.207031,0.2460938 -0.386719,0 -0.785156,-0.070312 -1.195312,-0.2460938 -0.09375,-0.035156 -0.105469,-0.035156 -0.117188,-0.035156 -0.105469,0 -0.105469,0.082031 -0.105469,0.234375 z m 0,0" style="fill:#000000;fill-opacity:1;fill-rule:nonzero;stroke:none"/>
      <path id="path37" d="m 58.153641,-3.305125 h 1.019531 c -0.128906,0.5625 -0.363281,1.4882813 -0.363281,2.2382813 0,0.058594 0,0.39843745 0.08203,0.7148437 0.08203,0.33984375 0.164062,0.4453125 0.339844,0.4453125 0.1875,0 0.386718,-0.15234375 0.386718,-0.36328125 0,-0.0585938 0,-0.09375 -0.05859,-0.2109375 -0.28125,-0.62109375 -0.28125,-1.28906245 -0.28125,-1.48828125 0,-0.2226562 0,-0.6210937 0.152343,-1.3359375 h 1.054688 c 0.117187,0 0.445312,0 0.445312,-0.328125 0,-0.234375 -0.199218,-0.234375 -0.363281,-0.234375 h -3.105469 c -0.210937,0 -0.527343,0 -0.949218,0.421875 -0.246094,0.2460938 -0.5625,0.7382813 -0.5625,0.8085938 0,0.1054687 0.09375,0.1054687 0.117187,0.1054687 0.07031,0 0.09375,-0.023437 0.152344,-0.1171875 0.433594,-0.65625 0.984375,-0.65625 1.160156,-0.65625 h 0.515625 c -0.386719,1.3476563 -1.007812,2.625 -1.066406,2.75390625 -0.07031,0.12890625 -0.152344,0.31640625 -0.152344,0.38671875 0,0.1171875 0.08203,0.2578125 0.269531,0.2578125 0.328125,0 0.410157,-0.31640625 0.597657,-1.04296875 z m 5.044921,-0.28125 h 0.855469 c 0.152344,0 0.269531,0 0.269531,-0.1640625 0,-0.1171875 -0.09375,-0.1171875 -0.257812,-0.1171875 h -0.796875 l 0.363281,-1.4882812 c 0,-0.140625 -0.117187,-0.2578125 -0.269531,-0.2578125 -0.292969,0 -0.363281,0.2578125 -0.375,0.3515625 l -0.363281,1.3945312 h -0.84375 c -0.164063,0 -0.28125,0 -0.28125,0.1640625 0,0.1171875 0.105468,0.1171875 0.269531,0.1171875 h 0.796875 l -0.609375,2.4375 c -0.08203,0.26953125 -0.08203,0.29296875 -0.08203,0.41015625 0,0.52734375 0.410156,0.83203125 0.878906,0.83203125 0.925781,0 1.453125,-1.2890625 1.453125,-1.3710937 0,-0.046875 -0.02344,-0.1171875 -0.117188,-0.1171875 -0.08203,0 -0.09375,0.035156 -0.152343,0.1875 -0.28125,0.6445312 -0.726563,1.07812495 -1.171875,1.07812495 -0.175782,0 -0.28125,-0.1171875 -0.28125,-0.41015625 0,-0.19921875 0.02344,-0.3046875 0.05859,-0.43359375 z m 0,0" style="fill:#000000;fill-opacity:1;fill-rule:nonzero;stroke:none"/>
      <path id="path38" d="m 67.300125,-2.2504375 c 0,-0.7382812 -0.105469,-1.7226562 -0.574219,-2.71875 C 66.198562,-6.07075 65.366531,-6.727 65.261062,-6.727 c -0.09375,0 -0.117187,0.070312 -0.117187,0.1054688 0,0.035156 0.02344,0.070312 0.08203,0.1289062 0.527344,0.46875 1.511719,1.6875 1.511719,4.2421875 0,1.27734375 -0.234375,3.0703125 -1.535156,4.2773438 -0.02344,0.023437 -0.05859,0.058594 -0.05859,0.1054687 0,0.023437 0.02344,0.09375 0.117187,0.09375 0.105469,0 0.914063,-0.6445312 1.394532,-1.6171875 0.433593,-0.85546875 0.644531,-1.78125 0.644531,-2.859375 z m 0,0" style="fill:#000000;fill-opacity:1;fill-rule:nonzero;stroke:none"/>
    </g>
    <path id="path39" d="m 56.69376,35.62135 c 0,0 1.70664,-0.1382 2.36212,-0.30661 0.65547,-0.16842 1.70669,-0.57342 2.36213,-0.90728 0.65543,-0.33388 1.70641,-1.00528 2.36184,-1.49901 0.65544,-0.49373 1.70666,-1.41452 2.36215,-2.05956 0.65547,-0.64503 1.70663,-1.80414 2.3621,-2.58952 0.65548,-0.78537 1.70665,-2.15881 2.36214,-3.07095 0.65547,-0.91216 1.70665,-2.47979 2.36212,-3.50321 0.65547,-1.02344 1.7067,-2.75577 2.36212,-3.87306 0.65545,-1.1173 1.70644,-2.98778 2.36187,-4.17967 0.65544,-1.1919 1.70665,-3.16474 2.36213,-4.41075 0.65548,-1.24602 1.70664,-3.29067 2.36211,-4.56972 0.65547,-1.27905 1.70667,-3.35886 2.36215,-4.64885 0.65547,-1.28998 1.70664,-3.36958 2.36211,-4.64861 0.65547,-1.27902 1.70669,-3.32364 2.36212,-4.56971 0.65544,-1.24607 1.70642,-3.21921 2.36185,-4.4112 0.65544,-1.19198 1.70665,-3.06247 2.36213,-4.1799 0.65548,-1.11742 1.70665,-2.85005 2.36213,-3.87374 0.65547,-1.02367 1.70665,-2.59202 2.36212,-3.50433 0.65548,-0.91229 1.70671,-2.28546 2.36213,-3.07095 0.65543,-0.78551 1.70637,-1.94528 2.36185,-2.59045 0.65547,-0.64517 1.70692,-1.56565 2.36241,-2.05954 0.65547,-0.4939 1.70641,-1.1659 2.36185,-1.50014 0.65543,-0.33424 1.70665,-0.74027 2.36212,-0.90888 0.65547,-0.16859 2.36212,-0.30638 2.36212,-0.30638" style="fill:none;stroke:#000000;stroke-width:0.59776;stroke-linecap:butt;stroke-linejoin:miter;stroke-miterlimit:10;stroke-dasharray:none;stroke-opacity:1" transform="matrix(1.3333333,0,0,-1.3333333,53.178667,83.409333)"/>
    <g id="g39" aria-label="−1" transform="matrix(1.3333333,0,0,1.3333333,121.556,96.456)">
      <path id="path40" d="m 5.5654219,-1.8039141 c 0.1289062,0 0.3046875,0 0.3046875,-0.1875 0,-0.1875 -0.1757813,-0.1875 -0.3046875,-0.1875 H 1.0068281 c -0.12890623,0 -0.30468748,0 -0.30468748,0.1875 0,0.1875 0.17578125,0.1875 0.30468748,0.1875 z m 0,0" style="fill:#000000;fill-opacity:1;fill-rule:nonzero;stroke:none"/>
      <path id="path41" d="m 9.0956953,-5.0734453 c 0,-0.2226563 -0.023437,-0.2226563 -0.234375,-0.2226563 -0.328125,0.3164063 -0.75,0.5039063 -1.5117187,0.5039063 v 0.2695312 c 0.2226562,0 0.6445312,0 1.1132812,-0.2226562 v 4.08984374 c 0,0.29296875 -0.023437,0.3984375 -0.7851562,0.3984375 h -0.28125 V 7.734375e-4 C 7.7246016,-0.02266406 8.4160078,-0.02266406 8.7675703,-0.02266406 c 0.3632813,0 1.0546875,0 1.3828127,0.0234374975 V -0.25703906 H 9.8691328 c -0.75,0 -0.7734375,-0.10546875 -0.7734375,-0.3984375 z m 0,0" style="fill:#000000;fill-opacity:1;fill-rule:nonzero;stroke:none"/>
    </g>
    <path id="path42" d="m 2.5081094,-5.0734453 c 0,-0.2226563 -0.023437,-0.2226563 -0.234375,-0.2226563 -0.328125,0.3164063 -0.75,0.5039063 -1.51171877,0.5039063 v 0.2695312 c 0.22265625,0 0.64453127,0 1.11328127,-0.2226562 v 4.08984374 c 0,0.29296875 -0.023437,0.3984375 -0.7851563,0.3984375 H 0.80889063 V 7.734375e-4 C 1.1370156,-0.02266406 1.8284219,-0.02266406 2.1799844,-0.02266406 c 0.3632812,0 1.0546875,0 1.3828125,0.0234374975 V -0.25703906 h -0.28125 c -0.75,0 -0.7734375,-0.10546875 -0.7734375,-0.3984375 z m 0,0" style="fill:#000000;fill-opacity:1;fill-rule:nonzero;stroke:none" aria-label="1" transform="matrix(1.3333333,0,0,1.3333333,201.53867,96.456)"/>
    <path id="path43" d="m 2.0268281,-2.156 h 0.7382813 c -0.1289063,0.5273438 -0.1992188,0.9140625 -0.1992188,1.3125 0,0.3046875 0.082031,0.90234375 0.3632813,0.90234375 0.1523437,0 0.2929687,-0.140625 0.2929687,-0.26953125 0,-0.0585938 -0.035156,-0.10546875 -0.046875,-0.140625 -0.2226562,-0.38671875 -0.2578125,-0.7734375 -0.2578125,-1.078125 0,-0.09375 0,-0.3515625 0.082031,-0.7265625 h 0.7851562 c 0.070312,0 0.328125,0 0.328125,-0.2460937 0,-0.1757813 -0.1640625,-0.1757813 -0.2695312,-0.1757813 h -2.378906 c -0.1171875,0 -0.3867187,0 -0.70312497,0.3046875 -0.1875,0.1640625 -0.3984375,0.4570313 -0.3984375,0.515625 0,0.082031 0.0820313,0.082031 0.10546875,0.082031 0.0585937,0 0.0703125,-0.011719 0.1171875,-0.058594 C 0.69089063,-1.8864687 0.92526563,-2.156 1.4057344,-2.156 h 0.3984375 c -0.2109375,0.75 -0.6210938,1.546875 -0.6914063,1.7109375 -0.058594,0.09375 -0.12890622,0.24609375 -0.12890622,0.3046875 0,0.1171875 0.09375,0.19921875 0.21093752,0.19921875 0.2109375,0 0.28125,-0.2109375 0.3515625,-0.3984375 0.1171875,-0.375 0.1171875,-0.38671875 0.1992187,-0.71484375 z m 0,0" style="fill:#000000;fill-opacity:1;fill-rule:nonzero;stroke:none" aria-label="π" transform="matrix(1.3333333,0,0,1.3333333,152.696,33.374667)"/>
    <path id="path44" d="m -30.92,11.431 h 4.558" style="fill:none;stroke:#000000;stroke-width:0.3587;stroke-linecap:butt;stroke-linejoin:miter;stroke-miterlimit:10;stroke-dasharray:none;stroke-opacity:1" transform="matrix(1.3333333,0,0,-1.3333333,193.92267,50.304)"/>
    <path id="path45" d="M 3.2095938,-1.1132422 H 2.9986563 c -0.023437,0.082031 -0.082031,0.46875001 -0.1640625,0.53906251 -0.046875,0.0351563 -0.5273438,0.0351563 -0.609375,0.0351563 h -1.125 L 1.8736563,-1.1601172 c 0.1992187,-0.1640625 0.7265625,-0.5390625 0.9140625,-0.7265625 0.1757812,-0.1757812 0.421875,-0.4804687 0.421875,-0.9023437 0,-0.75 -0.6679688,-1.1835938 -1.4765625,-1.1835938 -0.7617188,0 -1.3007813,0.5039063 -1.3007813,1.0664063 0,0.3046875 0.2578125,0.3398437 0.31640625,0.3398437 0.15234375,0 0.32812505,-0.1054687 0.32812505,-0.3164062 0,-0.140625 -0.0820313,-0.328125 -0.3398438,-0.328125 0.12890625,-0.3046875 0.5039063,-0.5273438 0.9140625,-0.5273438 0.6210938,0 0.9609375,0.46875 0.9609375,0.9492188 0,0.421875 -0.28125,0.8554687 -0.703125,1.2421875 L 0.49084375,-0.24605469 C 0.43225,-0.18746094 0.43225,-0.18746094 0.43225,3.90625e-5 h 2.6015625 z m 0,0" style="fill:#000000;fill-opacity:1;fill-rule:nonzero;stroke:none" aria-label="2" transform="matrix(1.3333333,0,0,1.3333333,153.29867,41.886667)"/>
    <g id="g45" aria-label="−&#xA;π" transform="matrix(1.3333333,0,0,1.3333333,142.32,132.70933)">
      <path id="path46" d="m 5.5666406,-1.8034844 c 0.1289063,0 0.3046875,0 0.3046875,-0.1875 0,-0.1875 -0.1757812,-0.1875 -0.3046875,-0.1875 H 1.0080469 c -0.12890627,0 -0.30468752,0 -0.30468752,0.1875 0,0.1875 0.17578125,0.1875 0.30468752,0.1875 z m 0,0" style="fill:#000000;fill-opacity:1;fill-rule:nonzero;stroke:none"/>
      <path id="path47" d="m 9.8088281,-5.4128594 h 0.7382809 c -0.128906,0.5273438 -0.199218,0.9140625 -0.199218,1.3125 0,0.3046875 0.08203,0.9023438 0.363281,0.9023438 0.152344,0 0.292969,-0.140625 0.292969,-0.2695313 0,-0.058594 -0.03516,-0.1054687 -0.04687,-0.140625 -0.222657,-0.3867187 -0.257813,-0.7734375 -0.257813,-1.078125 0,-0.09375 0,-0.3515625 0.08203,-0.7265625 h 0.785157 c 0.07031,0 0.328125,0 0.328125,-0.2460937 0,-0.1757813 -0.164063,-0.1757813 -0.269532,-0.1757813 H 9.2463281 c -0.1171875,0 -0.3867187,0 -0.703125,0.3046875 -0.1875,0.1640625 -0.3984375,0.4570313 -0.3984375,0.515625 0,0.082031 0.082031,0.082031 0.1054688,0.082031 0.058594,0 0.070312,-0.011719 0.1171875,-0.058594 0.1054687,-0.1523437 0.3398437,-0.421875 0.8203125,-0.421875 h 0.3984375 c -0.2109375,0.75 -0.6210938,1.546875 -0.6914063,1.7109375 -0.058594,0.09375 -0.1289062,0.2460938 -0.1289062,0.3046875 0,0.1171875 0.09375,0.1992188 0.2109375,0.1992188 0.2109375,0 0.28125,-0.2109375 0.3515625,-0.3984375 0.1171875,-0.375 0.1171875,-0.3867188 0.1992187,-0.7148438 z m 0,0" style="fill:#000000;fill-opacity:1;fill-rule:nonzero;stroke:none"/>
    </g>
    <path id="path48" d="m -24.334,11.431 h 4.559" style="fill:none;stroke:#000000;stroke-width:0.3587;stroke-linecap:butt;stroke-linejoin:miter;stroke-miterlimit:10;stroke-dasharray:none;stroke-opacity:1" transform="matrix(1.3333333,0,0,-1.3333333,185.14133,145.29467)"/>
    <path id="path49" d="M 3.2115234,-1.1121016 H 3.0005859 c -0.023437,0.082031 -0.082031,0.46875004 -0.1640625,0.53906254 -0.046875,0.0351563 -0.5273437,0.0351563 -0.609375,0.0351563 h -1.125 L 1.8755859,-1.1589766 c 0.1992188,-0.1640625 0.7265625,-0.5390625 0.9140625,-0.7265625 0.1757813,-0.1757812 0.421875,-0.4804687 0.421875,-0.9023437 0,-0.75 -0.6679687,-1.1835938 -1.4765625,-1.1835938 -0.76171871,0 -1.30078121,0.5039063 -1.30078121,1.0664063 0,0.3046875 0.2578125,0.3398437 0.31640625,0.3398437 0.15234375,0 0.32812496,-0.1054687 0.32812496,-0.3164062 0,-0.140625 -0.0820312,-0.328125 -0.33984371,-0.328125 0.12890625,-0.3046875 0.50390621,-0.5273438 0.91406251,-0.5273438 0.6210937,0 0.9609375,0.46875 0.9609375,0.9492188 0,0.421875 -0.28125,0.8554687 -0.703125,1.2421875 l -1.41796876,1.30078124 c -0.0585938,0.0585938 -0.0585938,0.0585938 -0.0585938,0.24609375 H 3.0357422 Z m 0,0" style="fill:#000000;fill-opacity:1;fill-rule:nonzero;stroke:none" aria-label="2" transform="matrix(1.3333333,0,0,1.3333333,153.3,136.87733)"/>
    <path id="path50" d="m 1.9089453,-3.5864844 h 0.8554688 c 0.1523437,0 0.2695312,0 0.2695312,-0.1640625 0,-0.1171875 -0.09375,-0.1171875 -0.2578125,-0.1171875 h -0.796875 l 0.3632813,-1.4882812 c 0,-0.140625 -0.1171875,-0.2578125 -0.2695313,-0.2578125 -0.2929687,0 -0.3632812,0.2578125 -0.375,0.3515625 L 1.3347266,-3.8677344 H 0.49097656 c -0.1640625,0 -0.28125,0 -0.28125,0.1640625 0,0.1171875 0.10546875,0.1171875 0.26953125,0.1171875 H 1.2761328 l -0.60937499,2.4375 c -0.0820313,0.26953128 -0.0820313,0.29296878 -0.0820313,0.41015628 0,0.52734375 0.41015625,0.83203125 0.87890619,0.83203125 0.9257814,0 1.4531251,-1.28906253 1.4531251,-1.37109373 0,-0.046875 -0.023437,-0.1171875 -0.1171875,-0.1171875 -0.082031,0 -0.09375,0.035156 -0.1523437,0.1875 -0.28125,0.64453123 -0.7265626,1.07812498 -1.1718751,1.07812498 -0.1757812,0 -0.28125,-0.1171875 -0.28125,-0.41015625 0,-0.19921875 0.023437,-0.3046875 0.058594,-0.43359375 z m 0,0" style="fill:#000000;fill-opacity:1;fill-rule:nonzero;stroke:none" aria-label="t" transform="matrix(1.3333333,0,0,1.3333333,219.01333,87.086667)"/>
    <g id="g50" aria-label="x&#xA;′&#xA;(t)" transform="matrix(1.3333333,0,0,1.3333333,154.29733,18.269333)">
      <path id="path51" d="m 4.4059063,-3.6209453 c -0.328125,0.058594 -0.421875,0.3515625 -0.421875,0.4804687 0,0.1757813 0.1171875,0.328125 0.3398437,0.328125 0.2578125,0 0.5039063,-0.2226562 0.5039063,-0.5273437 0,-0.421875 -0.4570313,-0.6210938 -0.8789063,-0.6210938 -0.5390625,0 -0.84375,0.46875 -0.9492187,0.65625 -0.1757813,-0.4335937 -0.5742188,-0.65625 -0.9960938,-0.65625 -0.9609375,0 -1.48828125,1.1484375 -1.48828125,1.3828125 0,0.082031 0.0703125,0.1054688 0.12890625,0.1054688 0.0820313,0 0.10546875,-0.046875 0.12890625,-0.1054688 0.28125005,-0.8789062 0.86718755,-1.1601562 1.20703125,-1.1601562 0.2578125,0 0.4921875,0.1757812 0.4921875,0.5859375 0,0.328125 -0.3867187,1.7578125 -0.5039062,2.19140624 -0.070312,0.28125 -0.3398438,0.83203125 -0.8320313,0.83203125 -0.17578125,0 -0.36328125,-0.0585938 -0.45703125,-0.1171875 0.24609375,-0.0351562 0.42187505,-0.24609375 0.42187505,-0.48046875 0,-0.22265625 -0.16406255,-0.32812504 -0.3398438,-0.32812504 -0.2578125,0 -0.4921875,0.23437504 -0.4921875,0.53906254 0,0.43359375 0.48046875,0.609375 0.8554688,0.609375 0.5273437,0 0.8320312,-0.421875 0.9609375,-0.66796875 0.2226562,0.59765625 0.7617187,0.66796875 0.9960937,0.66796875 0.9726563,0 1.4765625,-1.16015624 1.4765625,-1.37109374 0,-0.046875 -0.023437,-0.1171875 -0.1171875,-0.1171875 -0.09375,0 -0.1054687,0.035156 -0.1523437,0.1757812 -0.1875,0.64453129 -0.7148438,1.08984379 -1.1835938,1.08984379 -0.2578125,0 -0.4921875,-0.15234375 -0.4921875,-0.5859375 0,-0.19921875 0.1171875,-0.69140629 0.1992188,-1.03124999 0.035156,-0.1640625 0.28125,-1.1367188 0.2929687,-1.1953125 0.1171875,-0.3164063 0.3867188,-0.796875 0.84375,-0.796875 0.1523438,0 0.328125,0.023437 0.4570313,0.1171875 z m 0,0" style="fill:#000000;fill-opacity:1;fill-rule:nonzero;stroke:none"/>
      <path id="path52" d="m 7.0982891,-6.6209453 c 0.046875,-0.082031 0.058594,-0.1523438 0.058594,-0.1875 0,-0.1875 -0.1757812,-0.3398438 -0.3632812,-0.3398438 -0.2460938,0 -0.3164063,0.2109375 -0.3398438,0.2929688 l -0.8320312,2.5546875 c -0.011719,0.035156 -0.035156,0.082031 -0.035156,0.1054687 0,0.1054688 0.2460938,0.1523438 0.2460938,0.1523438 0.058594,0 0.082031,-0.046875 0.1054687,-0.1054688 z m 0,0" style="fill:#000000;fill-opacity:1;fill-rule:nonzero;stroke:none"/>
      <path id="path53" d="m 10.965477,2.1329609 c 0,-0.046875 -0.02344,-0.070312 -0.08203,-0.1289062 -1.1601559,-1.06640626 -1.5117184,-2.67187501 -1.5117184,-4.2421875 0,-1.3945313 0.2695312,-3.0820313 1.5351564,-4.2773438 0.03516,-0.035156 0.05859,-0.070312 0.05859,-0.1054687 0,-0.070312 -0.04687,-0.1054688 -0.105469,-0.1054688 -0.105469,0 -0.9140627,0.6445313 -1.4062502,1.6289063 -0.421875,0.8554687 -0.6445312,1.78125 -0.6445312,2.8476562 0,0.6445313 0.082031,1.66406254 0.5742187,2.73046879 0.5273438,1.10156251 1.3710937,1.74609371 1.4765627,1.74609371 0.05859,0 0.105469,-0.035156 0.105469,-0.09375 z m 0,0" style="fill:#000000;fill-opacity:1;fill-rule:nonzero;stroke:none"/>
      <path id="path54" d="m 13.402977,-3.5857891 h 0.855468 c 0.152344,0 0.269532,0 0.269532,-0.1640625 0,-0.1171875 -0.09375,-0.1171875 -0.257813,-0.1171875 h -0.796875 l 0.363281,-1.4882812 c 0,-0.140625 -0.117187,-0.2578125 -0.269531,-0.2578125 -0.292969,0 -0.363281,0.2578125 -0.375,0.3515625 l -0.363281,1.3945312 h -0.84375 c -0.164063,0 -0.28125,0 -0.28125,0.1640625 0,0.1171875 0.105469,0.1171875 0.269531,0.1171875 h 0.796875 l -0.609375,2.4375 c -0.08203,0.26953129 -0.08203,0.29296879 -0.08203,0.41015629 0,0.52734375 0.410156,0.83203125 0.878906,0.83203125 0.925781,0 1.453125,-1.28906254 1.453125,-1.37109374 0,-0.046875 -0.02344,-0.1171875 -0.117187,-0.1171875 -0.08203,0 -0.09375,0.035156 -0.152344,0.1875 -0.28125,0.64453124 -0.726563,1.07812499 -1.171875,1.07812499 -0.175781,0 -0.28125,-0.1171875 -0.28125,-0.41015625 0,-0.19921875 0.02344,-0.3046875 0.05859,-0.43359375 z m 0,0" style="fill:#000000;fill-opacity:1;fill-rule:nonzero;stroke:none"/>
      <path id="path55" d="m 17.489891,-2.2498516 c 0,-0.7382812 -0.105469,-1.7226562 -0.574219,-2.71875 -0.527344,-1.1015625 -1.359375,-1.7578125 -1.464844,-1.7578125 -0.09375,0 -0.117187,0.070312 -0.117187,0.1054688 0,0.035156 0.02344,0.070312 0.08203,0.1289062 0.527344,0.46875 1.511719,1.6875 1.511719,4.2421875 0,1.27734379 -0.234375,3.07031254 -1.535157,4.2773438 -0.02344,0.023437 -0.05859,0.058594 -0.05859,0.1054687 0,0.023437 0.02344,0.09375 0.117187,0.09375 0.105469,0 0.914063,-0.6445312 1.394531,-1.61718746 0.433594,-0.85546875 0.644532,-1.78125004 0.644532,-2.85937504 z m 0,0" style="fill:#000000;fill-opacity:1;fill-rule:nonzero;stroke:none"/>
    </g>
    <path id="path56" d="m 141.73418,0 c 0,0 1.70665,-3.3081 2.36213,-4.56377 0.65548,-1.25564 1.7067,-3.26278 2.36213,-4.48611 0.65544,-1.22333 1.7064,-3.16066 2.36184,-4.3309 0.65543,-1.17026 1.70667,-3.00659 2.36214,-4.10344 0.65548,-1.09687 1.70663,-2.79715 2.36212,-3.80198 0.65547,-1.00482 1.70665,-2.54449 2.36212,-3.44012 0.65549,-0.89561 1.70665,-2.24382 2.36214,-3.01492 0.65547,-0.7711 1.7067,-1.90936 2.36212,-2.5427 0.65544,-0.63331 1.70642,-1.5371 2.36186,-2.02192 0.65543,-0.48484 1.70665,-1.14444 2.36212,-1.47234 0.65549,-0.3279 1.70664,-0.72552 2.36213,-0.89093 0.65547,-0.16539 1.70666,-0.30101 2.36213,-0.30116 0.65549,-1.5e-4 1.70664,0.13484 2.36212,0.30003 0.65548,0.16518 1.7067,0.56282 2.36212,0.89052 0.65545,0.32768 1.70641,0.98674 2.36185,1.47131 0.65543,0.48459 1.70665,1.38817 2.36212,2.02124 0.65549,0.63308 1.70665,1.77069 2.36214,2.54155 0.65547,0.77086 1.70665,2.11889 2.36212,3.01436 0.65549,0.8955 1.7067,2.435 2.36214,3.4397 0.65543,1.0047 1.70636,2.70476 2.36183,3.80154 0.65549,1.09679 1.70694,2.93329 2.36243,4.10343 0.65547,1.17013 1.7064,3.10696 2.36183,4.33021 0.65544,1.22324 1.70665,3.23043 2.36214,4.48612 0.65547,1.25568 2.36212,4.56405 2.36212,4.56405" style="fill:none;stroke:#000000;stroke-width:0.59776;stroke-linecap:butt;stroke-linejoin:miter;stroke-miterlimit:10;stroke-dasharray:none;stroke-opacity:1" transform="matrix(1.3333333,0,0,-1.3333333,53.178667,83.409333)"/>
    <g id="g56" aria-label="−1" transform="matrix(1.3333333,0,0,1.3333333,234.944,96.456)">
      <path id="path57" d="m 5.5673906,-1.8039141 c 0.1289063,0 0.3046875,0 0.3046875,-0.1875 0,-0.1875 -0.1757812,-0.1875 -0.3046875,-0.1875 H 1.0087969 c -0.12890628,0 -0.30468753,0 -0.30468753,0.1875 0,0.1875 0.17578125,0.1875 0.30468753,0.1875 z m 0,0" style="fill:#000000;fill-opacity:1;fill-rule:nonzero;stroke:none"/>
      <path id="path58" d="m 9.0947344,-5.0734453 c 0,-0.2226563 -0.023437,-0.2226563 -0.234375,-0.2226563 -0.328125,0.3164063 -0.75,0.5039063 -1.5117188,0.5039063 v 0.2695312 c 0.2226563,0 0.6445313,0 1.1132813,-0.2226562 v 4.08984374 c 0,0.29296875 -0.023437,0.3984375 -0.7851563,0.3984375 h -0.28125 V 7.734375e-4 C 7.7236406,-0.02266406 8.4150469,-0.02266406 8.7666094,-0.02266406 c 0.3632812,0 1.0546875,0 1.3828126,0.0234374975 V -0.25703906 H 9.8681719 c -0.75,0 -0.7734375,-0.10546875 -0.7734375,-0.3984375 z m 0,0" style="fill:#000000;fill-opacity:1;fill-rule:nonzero;stroke:none"/>
    </g>
    <path id="path59" d="m 2.5081484,-5.0734453 c 0,-0.2226563 -0.023437,-0.2226563 -0.234375,-0.2226563 -0.328125,0.3164063 -0.75,0.5039063 -1.51171871,0.5039063 v 0.2695312 c 0.22265625,0 0.64453121,0 1.11328121,-0.2226562 v 4.08984374 c 0,0.29296875 -0.023437,0.3984375 -0.7851562,0.3984375 H 0.80892969 V 7.734375e-4 C 1.1370547,-0.02266406 1.8284609,-0.02266406 2.1800234,-0.02266406 c 0.3632813,0 1.0546875,0 1.3828125,0.0234374975 V -0.25703906 h -0.28125 c -0.75,0 -0.7734375,-0.10546875 -0.7734375,-0.3984375 z m 0,0" style="fill:#000000;fill-opacity:1;fill-rule:nonzero;stroke:none" aria-label="1" transform="matrix(1.3333333,0,0,1.3333333,314.92533,96.456)"/>
    <g id="g59" aria-label="−&#xA;π&#xA;2" transform="matrix(1.3333333,0,0,1.3333333,250.52267,133.93733)">
      <path id="path60" d="m 5.5669844,-1.8045625 c 0.1289062,0 0.3046875,0 0.3046875,-0.1875 0,-0.1875 -0.1757813,-0.1875 -0.3046875,-0.1875 H 1.0083906 c -0.12890622,0 -0.30468747,0 -0.30468747,0.1875 0,0.1875 0.17578125,0.1875 0.30468747,0.1875 z m 0,0" style="fill:#000000;fill-opacity:1;fill-rule:nonzero;stroke:none"/>
      <path id="path61" d="m 9.8091719,-5.4139375 h 0.7382811 c -0.128906,0.5273437 -0.199219,0.9140625 -0.199219,1.3125 0,0.3046875 0.08203,0.9023437 0.363282,0.9023437 0.152343,0 0.292968,-0.140625 0.292968,-0.2695312 0,-0.058594 -0.03516,-0.1054688 -0.04687,-0.140625 -0.222656,-0.3867188 -0.257812,-0.7734375 -0.257812,-1.078125 0,-0.09375 0,-0.3515625 0.08203,-0.7265625 h 0.785156 c 0.07031,0 0.328125,0 0.328125,-0.2460938 0,-0.1757812 -0.164062,-0.1757812 -0.269531,-0.1757812 H 9.2466719 c -0.1171875,0 -0.3867188,0 -0.703125,0.3046875 -0.1875,0.1640625 -0.3984375,0.4570312 -0.3984375,0.515625 0,0.082031 0.082031,0.082031 0.1054687,0.082031 0.058594,0 0.070312,-0.011719 0.1171875,-0.058594 0.1054688,-0.1523438 0.3398438,-0.421875 0.8203125,-0.421875 h 0.3984375 c -0.2109375,0.75 -0.6210937,1.546875 -0.6914062,1.7109375 -0.058594,0.09375 -0.1289063,0.2460937 -0.1289063,0.3046875 0,0.1171875 0.09375,0.1992187 0.2109375,0.1992187 0.2109375,0 0.28125,-0.2109375 0.3515625,-0.3984375 0.1171875,-0.375 0.1171875,-0.3867187 0.1992188,-0.7148437 z m 0,0" style="fill:#000000;fill-opacity:1;fill-rule:nonzero;stroke:none"/>
      <path id="path62" d="m 15.270109,-6.7293672 h -0.210937 c -0.01172,0.09375 -0.05859,0.3984375 -0.140625,0.4570313 -0.03516,0.023437 -0.457031,0.023437 -0.527344,0.023437 h -0.984375 c 0.328125,-0.2460938 0.703125,-0.515625 0.996094,-0.7148438 0.457031,-0.3164062 0.867187,-0.5976562 0.867187,-1.125 0,-0.6445312 -0.597656,-0.9960937 -1.3125,-0.9960937 -0.667968,0 -1.160156,0.3867187 -1.160156,0.8789062 0,0.2578125 0.210938,0.3046875 0.28125,0.3046875 0.140625,0 0.292969,-0.09375 0.292969,-0.2929687 0,-0.1875 -0.128906,-0.28125 -0.28125,-0.2929688 0.140625,-0.234375 0.433594,-0.375 0.761719,-0.375 0.480468,0 0.890625,0.28125 0.890625,0.7734375 0,0.421875 -0.292969,0.7382813 -0.679688,1.0546875 l -1.207031,1.03125 c -0.04687,0.046875 -0.05859,0.046875 -0.05859,0.082031 v 0.1523437 h 2.308594 z m 0,0" style="fill:#000000;fill-opacity:1;fill-rule:nonzero;stroke:none"/>
    </g>
    <path id="path63" d="m -24.334,11.431 h 8.447" style="fill:none;stroke:#000000;stroke-width:0.3587;stroke-linecap:butt;stroke-linejoin:miter;stroke-miterlimit:10;stroke-dasharray:none;stroke-opacity:1" transform="matrix(1.3333333,0,0,-1.3333333,293.344,146.52267)"/>
    <path id="path64" d="M 3.3743125,-0.98427344 V -1.2186484 h -0.703125 v -2.6367188 c 0,-0.140625 0,-0.1757812 -0.1523438,-0.1757812 -0.1054687,0 -0.1171875,0.011719 -0.1757812,0.082031 l -2.07421875,2.7304688 v 0.23437496 H 2.132125 v 0.48046875 c 0,0.19921875 0,0.26953125 -0.5039063,0.26953125 H 1.4524375 V 1.015625e-4 C 1.5813437,-0.01161719 2.1438437,-0.02333594 2.4016562,-0.02333594 c 0.2578125,0 0.8203125,0.01171875 0.9492188,0.0234375025 V -0.23427344 H 3.1750937 c -0.5039062,0 -0.5039062,-0.0703125 -0.5039062,-0.26953125 V -0.98427344 Z M 2.179,-3.3866172 v 2.1679688 H 0.52665625 Z m 0,0" style="fill:#000000;fill-opacity:1;fill-rule:nonzero;stroke:none" aria-label="4" transform="matrix(1.3333333,0,0,1.3333333,264.09467,138.10533)"/>
    <path id="path65" d="m 1.9089844,-3.5864844 h 0.8554687 c 0.1523438,0 0.2695313,0 0.2695313,-0.1640625 0,-0.1171875 -0.09375,-0.1171875 -0.2578125,-0.1171875 h -0.796875 l 0.3632812,-1.4882812 c 0,-0.140625 -0.1171875,-0.2578125 -0.2695312,-0.2578125 -0.2929688,0 -0.3632813,0.2578125 -0.375,0.3515625 L 1.3347656,-3.8677344 H 0.49101563 c -0.1640625,0 -0.28125,0 -0.28125,0.1640625 0,0.1171875 0.10546875,0.1171875 0.26953125,0.1171875 H 1.2761719 l -0.60937502,2.4375 c -0.0820313,0.26953128 -0.0820313,0.29296878 -0.0820313,0.41015628 0,0.52734375 0.41015625,0.83203125 0.87890622,0.83203125 0.9257812,0 1.453125,-1.28906253 1.453125,-1.37109373 0,-0.046875 -0.023437,-0.1171875 -0.1171874,-0.1171875 -0.082031,0 -0.09375,0.035156 -0.1523439,0.1875 -0.28125,0.64453123 -0.7265625,1.07812498 -1.171875,1.07812498 -0.1757812,0 -0.28125,-0.1171875 -0.28125,-0.41015625 0,-0.19921875 0.023437,-0.3046875 0.058594,-0.43359375 z m 0,0" style="fill:#000000;fill-opacity:1;fill-rule:nonzero;stroke:none" aria-label="t" transform="matrix(1.3333333,0,0,1.3333333,332.4,87.086667)"/>
    <g id="g65" aria-label="x&#xA;′′&#xA;(t)" transform="matrix(1.3333333,0,0,1.3333333,266.22667,18.52)">
      <path id="path66" d="m 4.4061719,-3.6214453 c -0.328125,0.058594 -0.421875,0.3515625 -0.421875,0.4804687 0,0.1757813 0.1171875,0.328125 0.3398437,0.328125 0.2578125,0 0.5039063,-0.2226562 0.5039063,-0.5273437 0,-0.421875 -0.4570313,-0.6210938 -0.8789063,-0.6210938 -0.5390625,0 -0.84375,0.46875 -0.9492187,0.65625 -0.1757813,-0.4335937 -0.5742188,-0.65625 -0.9960938,-0.65625 -0.9609375,0 -1.48828123,1.1484375 -1.48828123,1.3828125 0,0.082031 0.0703125,0.1054688 0.12890625,0.1054688 0.0820313,0 0.10546875,-0.046875 0.12890625,-0.1054688 0.28125003,-0.8789062 0.86718753,-1.1601562 1.20703123,-1.1601562 0.2578125,0 0.4921875,0.1757812 0.4921875,0.5859375 0,0.328125 -0.3867187,1.7578125 -0.5039062,2.19140624 -0.070312,0.28125 -0.3398438,0.83203125 -0.8320313,0.83203125 -0.17578123,0 -0.36328123,-0.0585938 -0.45703123,-0.1171875 0.24609375,-0.0351562 0.42187503,-0.24609375 0.42187503,-0.48046875 0,-0.22265625 -0.16406253,-0.32812504 -0.33984378,-0.32812504 -0.2578125,0 -0.4921875,0.23437504 -0.4921875,0.53906254 0,0.43359375 0.48046875,0.609375 0.85546878,0.609375 0.5273437,0 0.8320312,-0.421875 0.9609375,-0.66796875 0.2226562,0.59765625 0.7617187,0.66796875 0.9960937,0.66796875 0.9726563,0 1.4765625,-1.16015624 1.4765625,-1.37109374 0,-0.046875 -0.023437,-0.1171875 -0.1171875,-0.1171875 -0.09375,0 -0.1054687,0.035156 -0.1523437,0.1757812 -0.1875,0.64453129 -0.7148438,1.08984379 -1.1835938,1.08984379 -0.2578125,0 -0.4921875,-0.15234375 -0.4921875,-0.5859375 0,-0.19921875 0.1171875,-0.69140629 0.1992188,-1.03124999 0.035156,-0.1640625 0.28125,-1.1367188 0.2929687,-1.1953125 0.1171875,-0.3164063 0.3867188,-0.796875 0.84375,-0.796875 0.1523438,0 0.328125,0.023437 0.4570313,0.1171875 z m 0,0" style="fill:#000000;fill-opacity:1;fill-rule:nonzero;stroke:none"/>
      <path id="path67" d="m 7.0985547,-6.6214453 c 0.046875,-0.082031 0.058594,-0.1523438 0.058594,-0.1875 0,-0.1875 -0.1757812,-0.3398438 -0.3632812,-0.3398438 -0.2460938,0 -0.3164063,0.2109375 -0.3398438,0.2929688 l -0.8320312,2.5546875 c -0.011719,0.035156 -0.035156,0.082031 -0.035156,0.1054687 0,0.1054688 0.2460938,0.1523438 0.2460938,0.1523438 0.058594,0 0.082031,-0.046875 0.1054687,-0.1054688 z m 2.1826172,0 c 0.046875,-0.082031 0.058594,-0.1523438 0.058594,-0.1875 0,-0.1875 -0.1757812,-0.3398438 -0.3632812,-0.3398438 -0.2460938,0 -0.3164063,0.2109375 -0.3398438,0.2929688 l -0.8320312,2.5546875 c -0.011719,0.035156 -0.035156,0.082031 -0.035156,0.1054687 0,0.1054688 0.2460938,0.1523438 0.2460938,0.1523438 0.058594,0 0.082031,-0.046875 0.1054687,-0.1054688 z m 0,0" style="fill:#000000;fill-opacity:1;fill-rule:nonzero;stroke:none"/>
      <path id="path68" d="m 13.151289,2.1324609 c 0,-0.046875 -0.02344,-0.070312 -0.08203,-0.1289062 -1.160156,-1.06640626 -1.511719,-2.67187501 -1.511719,-4.2421875 0,-1.3945313 0.269531,-3.0820313 1.535156,-4.2773438 0.03516,-0.035156 0.05859,-0.070312 0.05859,-0.1054687 0,-0.070312 -0.04687,-0.1054688 -0.105469,-0.1054688 -0.105468,0 -0.914062,0.6445313 -1.40625,1.6289063 -0.421875,0.8554687 -0.644531,1.78125 -0.644531,2.8476562 0,0.6445313 0.08203,1.66406254 0.574219,2.73046879 0.527344,1.10156251 1.371094,1.74609371 1.476562,1.74609371 0.05859,0 0.105469,-0.035156 0.105469,-0.09375 z m 0,0" style="fill:#000000;fill-opacity:1;fill-rule:nonzero;stroke:none"/>
      <path id="path69" d="m 15.588789,-3.5862891 h 0.855469 c 0.152344,0 0.269531,0 0.269531,-0.1640625 0,-0.1171875 -0.09375,-0.1171875 -0.257812,-0.1171875 h -0.796875 l 0.363281,-1.4882812 c 0,-0.140625 -0.117188,-0.2578125 -0.269531,-0.2578125 -0.292969,0 -0.363282,0.2578125 -0.375,0.3515625 l -0.363282,1.3945312 h -0.84375 c -0.164062,0 -0.28125,0 -0.28125,0.1640625 0,0.1171875 0.105469,0.1171875 0.269532,0.1171875 h 0.796875 l -0.609375,2.4375 c -0.08203,0.26953129 -0.08203,0.29296879 -0.08203,0.41015629 0,0.52734375 0.410157,0.83203125 0.878907,0.83203125 0.925781,0 1.453125,-1.28906254 1.453125,-1.37109374 0,-0.046875 -0.02344,-0.1171875 -0.117188,-0.1171875 -0.08203,0 -0.09375,0.035156 -0.152344,0.1875 -0.28125,0.64453124 -0.726562,1.07812499 -1.171875,1.07812499 -0.175781,0 -0.28125,-0.1171875 -0.28125,-0.41015625 0,-0.19921875 0.02344,-0.3046875 0.05859,-0.43359375 z m 0,0" style="fill:#000000;fill-opacity:1;fill-rule:nonzero;stroke:none"/>
      <path id="path70" d="m 19.678633,-2.2503516 c 0,-0.7382812 -0.105469,-1.7226562 -0.574219,-2.71875 -0.527344,-1.1015625 -1.359375,-1.7578125 -1.464844,-1.7578125 -0.09375,0 -0.117187,0.070312 -0.117187,0.1054688 0,0.035156 0.02344,0.070312 0.08203,0.1289062 0.527344,0.46875 1.511719,1.6875 1.511719,4.2421875 0,1.27734379 -0.234375,3.07031254 -1.535156,4.2773438 -0.02344,0.023437 -0.05859,0.058594 -0.05859,0.1054687 0,0.023437 0.02344,0.09375 0.117187,0.09375 0.105469,0 0.914063,-0.6445312 1.394532,-1.61718746 0.433593,-0.85546875 0.644531,-1.78125004 0.644531,-2.85937504 z m 0,0" style="fill:#000000;fill-opacity:1;fill-rule:nonzero;stroke:none"/>
    </g>
    <path id="path71" d="M 198.42766,0 V 27.88852" style="fill:none;stroke:#000000;stroke-width:0.3985;stroke-linecap:butt;stroke-linejoin:miter;stroke-miterlimit:10;stroke-dasharray:none;stroke-opacity:1" transform="matrix(1.3333333,0,0,-1.3333333,53.178667,83.409333)"/>
    <path id="path72" d="M -1.19551,1.59401 C -1.09587,0.99626 0,0.09961 0.29886,0 0,-0.09961 -1.09587,-0.99626 -1.19551,-1.59401" style="fill:none;stroke:#000000;stroke-width:0.31879;stroke-linecap:round;stroke-linejoin:round;stroke-miterlimit:10;stroke-dasharray:none;stroke-opacity:1" transform="matrix(0,-1.3333333,-1.3333333,0,317.74888,46.22464)"/>
    <path id="path73" d="M 141.73404,0 V 27.88852" style="fill:none;stroke:#000000;stroke-width:0.3985;stroke-linecap:butt;stroke-linejoin:miter;stroke-miterlimit:10;stroke-dasharray:none;stroke-opacity:1" transform="matrix(1.3333333,0,0,-1.3333333,53.178667,83.409333)"/>
    <path id="path74" d="M -1.19551,1.59401 C -1.09587,0.99626 0,0.09961 0.29886,0 0,-0.09961 -1.09587,-0.99626 -1.19551,-1.59401" style="fill:none;stroke:#000000;stroke-width:0.31879;stroke-linecap:round;stroke-linejoin:round;stroke-miterlimit:10;stroke-dasharray:none;stroke-opacity:1" transform="matrix(0,-1.3333333,-1.3333333,0,242.15739,46.22464)"/>
    <path id="path75" d="M 5.0616016,-2.6957656 C 4.5225391,-3.3754531 4.4053516,-3.5277969 4.0889453,-3.7738906 3.5381641,-4.2192031 2.9756641,-4.4067031 2.4717578,-4.4067031 c -1.171875,0 -1.92187499,1.1015625 -1.92187499,2.2617187 0,1.14843753 0.73828129,2.25000003 1.87499999,2.25000003 1.1484375,0 1.9804688,-0.90234375 2.4609375,-1.69921873 0.5390625,0.67968748 0.65625,0.83203123 0.9726563,1.07812498 0.5507812,0.4453125 1.1132812,0.62109375 1.6171875,0.62109375 1.171875,0 1.921875,-1.08984375 1.921875,-2.26171873 0,-1.1367188 -0.7265625,-2.25 -1.875,-2.25 -1.1484375,0 -1.9804688,0.9140625 -2.4609375,1.7109375 z m 0.2578125,0.3398437 c 0.4101562,-0.7265625 1.1484375,-1.734375 2.2734375,-1.734375 1.0546875,0 1.59375,1.0429688 1.59375,1.9335938 0,0.984375 -0.6679688,1.79296873 -1.546875,1.79296873 -0.5742188,0 -1.03125,-0.421875 -1.2304688,-0.6328125 C 6.1514453,-1.2660781 5.9287891,-1.5707656 5.3194141,-2.3559219 Z m -0.6914063,0.421875 c -0.4101562,0.7148438 -1.1367187,1.72265628 -2.2734375,1.72265628 -1.0546875,0 -1.59374999,-1.03124998 -1.59374999,-1.93359378 0,-0.9726562 0.66796879,-1.78125 1.54687499,-1.78125 0.5859375,0 1.03125,0.421875 1.2421875,0.6328125 0.2460938,0.2695313 0.46875,0.5742188 1.078125,1.359375 z m 0,0" style="fill:#000000;fill-opacity:1;fill-rule:nonzero;stroke:none" aria-label="∞" transform="matrix(1.3333333,0,0,1.3333333,311.10667,40.914667)"/>
    <path id="path76" d="M 5.0622188,-2.6957656 C 4.5231563,-3.3754531 4.4059688,-3.5277969 4.0895625,-3.7738906 3.5387813,-4.2192031 2.9762813,-4.4067031 2.472375,-4.4067031 c -1.171875,0 -1.921875,1.1015625 -1.921875,2.2617187 0,1.14843753 0.7382813,2.25000003 1.875,2.25000003 1.1484375,0 1.9804688,-0.90234375 2.4609375,-1.69921873 0.5390625,0.67968748 0.65625,0.83203123 0.9726563,1.07812498 0.5507812,0.4453125 1.1132812,0.62109375 1.6171875,0.62109375 1.171875,0 1.921875,-1.08984375 1.921875,-2.26171873 0,-1.1367188 -0.7265625,-2.25 -1.875,-2.25 -1.1484375,0 -1.9804688,0.9140625 -2.4609375,1.7109375 z m 0.2578125,0.3398437 c 0.4101562,-0.7265625 1.1484375,-1.734375 2.2734375,-1.734375 1.0546875,0 1.59375,1.0429688 1.59375,1.9335938 0,0.984375 -0.6679688,1.79296873 -1.546875,1.79296873 -0.5742188,0 -1.03125,-0.421875 -1.2304688,-0.6328125 C 6.1520625,-1.2660781 5.9294063,-1.5707656 5.3200313,-2.3559219 Z m -0.6914063,0.421875 c -0.4101562,0.7148438 -1.1367187,1.72265628 -2.2734375,1.72265628 -1.0546875,0 -1.59375,-1.03124998 -1.59375,-1.93359378 0,-0.9726562 0.6679688,-1.78125 1.546875,-1.78125 0.5859375,0 1.03125,0.421875 1.2421875,0.6328125 0.2460938,0.2695313 0.46875,0.5742188 1.078125,1.359375 z m 0,0" style="fill:#000000;fill-opacity:1;fill-rule:nonzero;stroke:none" aria-label="∞" transform="matrix(1.3333333,0,0,1.3333333,235.516,40.914667)"/>
    <g id="g76" aria-label="(&#xA;π" transform="matrix(1.3333333,0,0,1.3333333,243.464,74.761333)">
      <path id="path77" d="m 3.2936016,2.3909141 c 0,-0.035156 0,-0.046875 -0.1640625,-0.2226563 -1.2421875,-1.25390624 -1.5703125,-3.12890624 -1.5703125,-4.6640625 0,-1.7226562 0.3867187,-3.4570312 1.6054687,-4.7109375 0.1289063,-0.1171875 0.1289063,-0.1289062 0.1289063,-0.1640625 0,-0.070312 -0.035156,-0.1054687 -0.09375,-0.1054687 -0.1054688,0 -0.9960938,0.6796875 -1.5820313,1.9453125 -0.515625,1.1015625 -0.63281249,2.203125 -0.63281249,3.0351562 0,0.7851563 0.11718749,1.99218751 0.65624999,3.11718751 0.5976563,1.21874999 1.453125,1.87499999 1.5585938,1.87499999 0.058594,0 0.09375,-0.035156 0.09375,-0.1054687 z m 0,0" style="fill:#000000;fill-opacity:1;fill-rule:nonzero;stroke:none"/>
      <path id="path78" d="m 7.2369609,-6.4538125 h 0.8320313 c -0.1054688,0.421875 -0.2578125,1.0546875 -0.2578125,1.6054688 0,0.28125 0.035156,0.46875 0.070312,0.6210937 0.1171875,0.3515625 0.2109375,0.375 0.3164062,0.375 0.1640625,0 0.328125,-0.1523437 0.328125,-0.3164062 0,-0.058594 -0.011719,-0.082031 -0.058594,-0.1523438 -0.1289063,-0.2578125 -0.2578125,-0.65625 -0.2578125,-1.2304687 0,-0.1289063 0,-0.4101563 0.1054687,-0.9023438 h 0.8671875 c 0.1289063,0 0.1875,0 0.2578125,-0.058594 0.09375,-0.070312 0.1171875,-0.1757813 0.1171875,-0.2109375 0,-0.1992188 -0.1757812,-0.1992188 -0.2929687,-0.1992188 h -2.636718 c -0.28125,0 -0.4804687,0.058594 -0.796875,0.3515625 -0.1757812,0.1640625 -0.4453125,0.5390625 -0.4453125,0.5976563 0,0.082031 0.09375,0.082031 0.1171875,0.082031 0.070312,0 0.082031,-0.011719 0.1289063,-0.070312 0.3515625,-0.4921875 0.7851562,-0.4921875 0.9375,-0.4921875 h 0.421875 c -0.2109375,0.7617188 -0.5859375,1.59375 -0.796875,2.0039063 -0.046875,0.09375 -0.1171875,0.2460937 -0.140625,0.2695312 0,0.023437 -0.011719,0.058594 -0.011719,0.1054688 0,0.1054687 0.082031,0.2226562 0.2460938,0.2226562 0.2695312,0 0.3515625,-0.3164062 0.515625,-0.9375 z m 0,0" style="fill:#000000;fill-opacity:1;fill-rule:nonzero;stroke:none"/>
    </g>
    <path id="path79" d="m -27.046,11.929 h 4.909" style="fill:none;stroke:#000000;stroke-width:0.3985;stroke-linecap:butt;stroke-linejoin:miter;stroke-miterlimit:10;stroke-dasharray:none;stroke-opacity:1" transform="matrix(1.3333333,0,0,-1.3333333,286.28533,87.346667)"/>
    <g id="g79" aria-label="2&#xA;)" transform="matrix(1.3333333,0,0,1.3333333,250.84933,79.342667)">
      <path id="path80" d="m 3.5143672,-1.2648125 h -0.234375 c -0.023437,0.1523438 -0.082031,0.5625 -0.1757813,0.6328125 -0.058594,0.0351563 -0.5976562,0.0351563 -0.6914062,0.0351563 H 1.1237422 c 0.7382812,-0.6445313 0.984375,-0.84375 1.3945312,-1.171875 0.515625,-0.4101563 0.9960938,-0.84375 0.9960938,-1.5 0,-0.84375 -0.7382813,-1.359375 -1.6289063,-1.359375 -0.8671875,0 -1.45312496,0.609375 -1.45312496,1.2421875 0,0.3632812 0.3046875,0.3984375 0.375,0.3984375 0.1640625,0 0.37499996,-0.1171875 0.37499996,-0.375 0,-0.1289063 -0.058594,-0.3632813 -0.42187496,-0.3632813 C 0.98311719,-4.2296562 1.4518672,-4.382 1.7799922,-4.382 c 0.703125,0 1.0664062,0.5507813 1.0664062,1.1132813 0,0.609375 -0.4335937,1.0898437 -0.65625,1.3359375 L 0.50264844,-0.26871875 C 0.43233594,-0.210125 0.43233594,-0.19840625 0.43233594,8.125e-4 H 3.3151484 Z m 0,0" style="fill:#000000;fill-opacity:1;fill-rule:nonzero;stroke:none"/>
      <path id="path81" d="m 8.5182734,-5.9318047 c 0,-0.7734375 -0.1171875,-1.9804687 -0.65625,-3.1054687 -0.5976562,-1.2187496 -1.4648437,-1.8749996 -1.5585937,-1.8749996 -0.058594,0 -0.1054688,0.04687 -0.1054688,0.105468 0,0.03516 0,0.04687 0.1992188,0.234375 0.9726562,0.9843753 1.5351562,2.5664066 1.5351562,4.6406253 0,1.7109375 -0.3632812,3.4570313 -1.59375,4.7226563 -0.140625,0.1171875 -0.140625,0.1289062 -0.140625,0.1640625 0,0.0585937 0.046875,0.10546871 0.1054688,0.10546871 0.09375,0 0.9960937,-0.67968751 1.5820312,-1.94531251 0.5039063,-1.1015625 0.6328125,-2.203125 0.6328125,-3.046875 z m 0,0" style="fill:#000000;fill-opacity:1;fill-rule:nonzero;stroke:none"/>
    </g>
    <g id="g81" aria-label="(&#xA;π" transform="matrix(1.3333333,0,0,1.3333333,296.37733,74.761333)">
      <path id="path82" d="m 3.2941484,2.3909141 c 0,-0.035156 0,-0.046875 -0.1640625,-0.2226563 -1.2421875,-1.25390624 -1.5703125,-3.12890624 -1.5703125,-4.6640625 0,-1.7226562 0.3867188,-3.4570312 1.6054688,-4.7109375 0.1289062,-0.1171875 0.1289062,-0.1289062 0.1289062,-0.1640625 0,-0.070312 -0.035156,-0.1054687 -0.09375,-0.1054687 -0.1054687,0 -0.9960937,0.6796875 -1.5820312,1.9453125 -0.515625,1.1015625 -0.63281251,2.203125 -0.63281251,3.0351562 0,0.7851563 0.11718751,1.99218751 0.65625001,3.11718751 0.5976562,1.21874999 1.453125,1.87499999 1.5585937,1.87499999 0.058594,0 0.09375,-0.035156 0.09375,-0.1054687 z m 0,0" style="fill:#000000;fill-opacity:1;fill-rule:nonzero;stroke:none"/>
      <path id="path83" d="m 7.2375078,-6.4538125 h 0.8320313 c -0.1054688,0.421875 -0.2578125,1.0546875 -0.2578125,1.6054688 0,0.28125 0.035156,0.46875 0.070312,0.6210937 0.1171875,0.3515625 0.2109375,0.375 0.3164062,0.375 0.1640625,0 0.328125,-0.1523437 0.328125,-0.3164062 0,-0.058594 -0.011719,-0.082031 -0.058594,-0.1523438 -0.1289063,-0.2578125 -0.2578125,-0.65625 -0.2578125,-1.2304687 0,-0.1289063 0,-0.4101563 0.1054687,-0.9023438 h 0.8671875 c 0.1289063,0 0.1875,0 0.2578125,-0.058594 0.09375,-0.070312 0.1171875,-0.1757813 0.1171875,-0.2109375 0,-0.1992188 -0.1757812,-0.1992188 -0.2929687,-0.1992188 h -2.636718 c -0.28125,0 -0.4804687,0.058594 -0.796875,0.3515625 -0.1757812,0.1640625 -0.4453125,0.5390625 -0.4453125,0.5976563 0,0.082031 0.09375,0.082031 0.1171875,0.082031 0.070312,0 0.082031,-0.011719 0.1289063,-0.070312 0.3515625,-0.4921875 0.7851562,-0.4921875 0.9375,-0.4921875 h 0.421875 c -0.2109375,0.7617188 -0.5859375,1.59375 -0.796875,2.0039063 -0.046875,0.09375 -0.1171875,0.2460937 -0.140625,0.2695312 0,0.023437 -0.011719,0.058594 -0.011719,0.1054688 0,0.1054687 0.082031,0.2226562 0.2460938,0.2226562 0.2695312,0 0.3515625,-0.3164062 0.515625,-0.9375 z m 0,0" style="fill:#000000;fill-opacity:1;fill-rule:nonzero;stroke:none"/>
    </g>
    <path id="path84" d="m -27.046,11.929 h 4.909" style="fill:none;stroke:#000000;stroke-width:0.3985;stroke-linecap:butt;stroke-linejoin:miter;stroke-miterlimit:10;stroke-dasharray:none;stroke-opacity:1" transform="matrix(1.3333333,0,0,-1.3333333,339.19867,87.346667)"/>
    <g id="g84" aria-label="2&#xA;)" transform="matrix(1.3333333,0,0,1.3333333,303.76267,79.342667)">
      <path id="path85" d="m 3.5149141,-1.2648125 h -0.234375 c -0.023437,0.1523438 -0.082031,0.5625 -0.1757813,0.6328125 -0.058594,0.0351563 -0.5976562,0.0351563 -0.6914062,0.0351563 H 1.1242891 c 0.7382812,-0.6445313 0.984375,-0.84375 1.3945312,-1.171875 0.515625,-0.4101563 0.9960938,-0.84375 0.9960938,-1.5 0,-0.84375 -0.7382813,-1.359375 -1.6289063,-1.359375 -0.8671875,0 -1.45312499,0.609375 -1.45312499,1.2421875 0,0.3632812 0.3046875,0.3984375 0.375,0.3984375 0.1640625,0 0.37499999,-0.1171875 0.37499999,-0.375 0,-0.1289063 -0.058594,-0.3632813 -0.42187499,-0.3632813 C 0.98366406,-4.2296562 1.4524141,-4.382 1.7805391,-4.382 c 0.703125,0 1.0664062,0.5507813 1.0664062,1.1132813 0,0.609375 -0.4335937,1.0898437 -0.65625,1.3359375 L 0.50319531,-0.26871875 C 0.43288281,-0.210125 0.43288281,-0.19840625 0.43288281,8.125e-4 H 3.3156953 Z m 0,0" style="fill:#000000;fill-opacity:1;fill-rule:nonzero;stroke:none"/>
      <path id="path86" d="m 8.5188203,-5.9318047 c 0,-0.7734375 -0.1171875,-1.9804687 -0.65625,-3.1054687 -0.5976562,-1.2187496 -1.4648437,-1.8749996 -1.5585937,-1.8749996 -0.058594,0 -0.1054688,0.04687 -0.1054688,0.105468 0,0.03516 0,0.04687 0.1992188,0.234375 0.9726562,0.9843753 1.5351562,2.5664066 1.5351562,4.6406253 0,1.7109375 -0.3632812,3.4570313 -1.59375,4.7226563 -0.140625,0.1171875 -0.140625,0.1289062 -0.140625,0.1640625 0,0.0585937 0.046875,0.10546871 0.1054688,0.10546871 0.09375,0 0.9960937,-0.67968751 1.5820312,-1.94531251 0.5039063,-1.1015625 0.6328125,-2.203125 0.6328125,-3.046875 z m 0,0" style="fill:#000000;fill-opacity:1;fill-rule:nonzero;stroke:none"/>
    </g>
  </g>
</svg>