<?xml version="1.0" encoding="UTF-8" standalone="no"?>
<!-- Created with Inkscape (http://www.inkscape.org/) -->
<svg version="1.1" id="svg1" width="193.29333" height="129.03999" viewBox="0 0 193.29333 129.03999" sodipodi:docname="24-25-1-信号与系统-期中-解答3-1.pdf" xmlns:inkscape="http://www.inkscape.org/namespaces/inkscape" xmlns:sodipodi="http://sodipodi.sourceforge.net/DTD/sodipodi-0.dtd" xmlns="http://www.w3.org/2000/svg" xmlns:svg="http://www.w3.org/2000/svg">
  <defs id="defs1"/>
  <sodipodi:namedview id="namedview1" pagecolor="#ffffff" bordercolor="#000000" borderopacity="0.25" inkscape:showpageshadow="2" inkscape:pageopacity="0.0" inkscape:pagecheckerboard="0" inkscape:deskcolor="#d1d1d1">
    <inkscape:page x="0" y="0" inkscape:label="1" id="page1" width="193.29333" height="129.03999" margin="0" bleed="0"/>
  </sodipodi:namedview>
  <g id="g1" inkscape:groupmode="layer" inkscape:label="1">
    <path id="path1" d="M -39.68535,-14.17339 V 82.20555 H 104.88309 V -14.17339 Z" style="fill:#ffffff;fill-opacity:1;fill-rule:nonzero;stroke:#ffffff;stroke-width:0.3985;stroke-linecap:butt;stroke-linejoin:miter;stroke-miterlimit:10;stroke-dasharray:none;stroke-opacity:1" transform="matrix(1.3333333,0,0,-1.3333333,53.178667,109.87733)"/>
    <path id="path2" d="m -28.34666,-1.99255 v 3.9851" style="fill:none;stroke:#000000;stroke-width:0.3985;stroke-linecap:round;stroke-linejoin:miter;stroke-miterlimit:10;stroke-dasharray:none;stroke-opacity:1" transform="matrix(1.3333333,0,0,-1.3333333,53.178667,109.87733)"/>
    <path id="path3" d="m 28.34666,-1.99255 v 3.9851" style="fill:none;stroke:#000000;stroke-width:0.3985;stroke-linecap:round;stroke-linejoin:miter;stroke-miterlimit:10;stroke-dasharray:none;stroke-opacity:1" transform="matrix(1.3333333,0,0,-1.3333333,53.178667,109.87733)"/>
    <path id="path4" d="m 56.69334,-1.99255 v 3.9851" style="fill:none;stroke:#000000;stroke-width:0.3985;stroke-linecap:round;stroke-linejoin:miter;stroke-miterlimit:10;stroke-dasharray:none;stroke-opacity:1" transform="matrix(1.3333333,0,0,-1.3333333,53.178667,109.87733)"/>
    <path id="path5" d="m 85.04,-1.99255 v 3.9851" style="fill:none;stroke:#000000;stroke-width:0.3985;stroke-linecap:round;stroke-linejoin:miter;stroke-miterlimit:10;stroke-dasharray:none;stroke-opacity:1" transform="matrix(1.3333333,0,0,-1.3333333,53.178667,109.87733)"/>
    <path id="path6" d="m -1.99255,28.34666 h 3.9851" style="fill:none;stroke:#000000;stroke-width:0.3985;stroke-linecap:round;stroke-linejoin:miter;stroke-miterlimit:10;stroke-dasharray:none;stroke-opacity:1" transform="matrix(1.3333333,0,0,-1.3333333,53.178667,109.87733)"/>
    <path id="path7" d="m -1.99255,56.69334 h 3.9851" style="fill:none;stroke:#000000;stroke-width:0.3985;stroke-linecap:round;stroke-linejoin:miter;stroke-miterlimit:10;stroke-dasharray:none;stroke-opacity:1" transform="matrix(1.3333333,0,0,-1.3333333,53.178667,109.87733)"/>
    <path id="path8" d="M -35.81874,0 H 92.05379" style="fill:none;stroke:#000000;stroke-width:0.3985;stroke-linecap:butt;stroke-linejoin:miter;stroke-miterlimit:10;stroke-dasharray:none;stroke-opacity:1" transform="matrix(1.3333333,0,0,-1.3333333,53.178667,109.87733)"/>
    <path id="path9" d="M -1.19551,1.59401 C -1.09587,0.99626 0,0.09961 0.29886,0 0,-0.09961 -1.09587,-0.99626 -1.19551,-1.59401" style="fill:none;stroke:#000000;stroke-width:0.31879;stroke-linecap:round;stroke-linejoin:round;stroke-miterlimit:10;stroke-dasharray:none;stroke-opacity:1" transform="matrix(1.3333333,0,0,-1.3333333,175.91705,109.87733)"/>
    <path id="path10" d="M 0,-7.47208 V 63.70714" style="fill:none;stroke:#000000;stroke-width:0.3985;stroke-linecap:butt;stroke-linejoin:miter;stroke-miterlimit:10;stroke-dasharray:none;stroke-opacity:1" transform="matrix(1.3333333,0,0,-1.3333333,53.178667,109.87733)"/>
    <path id="path11" d="M -1.19551,1.59401 C -1.09587,0.99626 0,0.09961 0.29886,0 0,-0.09961 -1.09587,-0.99626 -1.19551,-1.59401" style="fill:none;stroke:#000000;stroke-width:0.31879;stroke-linecap:round;stroke-linejoin:round;stroke-miterlimit:10;stroke-dasharray:none;stroke-opacity:1" transform="matrix(0,-1.3333333,-1.3333333,0,53.178667,24.93448)"/>
    <path id="path12" d="M 85.04,0 43.53763,56.69334 H -28.34666 V 0" style="fill:none;stroke:#000000;stroke-width:0.59776;stroke-linecap:butt;stroke-linejoin:miter;stroke-miterlimit:10;stroke-dasharray:none;stroke-opacity:1" transform="matrix(1.3333333,0,0,-1.3333333,53.178667,109.87733)"/>
    <g id="g12" aria-label="−1" transform="matrix(1.3333333,0,0,1.3333333,8.1693333,122.924)">
      <path id="path13" d="m 5.5653828,-1.8033516 c 0.1289063,0 0.3046875,0 0.3046875,-0.1875 0,-0.1875 -0.1757812,-0.1875 -0.3046875,-0.1875 H 1.0067891 c -0.12890629,0 -0.30468754,0 -0.30468754,0.1875 0,0.1875 0.17578125,0.1875 0.30468754,0.1875 z m 0,0" style="fill:#000000;fill-opacity:1;fill-rule:nonzero;stroke:none"/>
      <path id="path14" d="m 9.0956562,-5.0728828 c 0,-0.2226563 -0.023437,-0.2226563 -0.234375,-0.2226563 -0.328125,0.3164063 -0.75,0.5039063 -1.5117187,0.5039063 v 0.2695312 c 0.2226562,0 0.6445312,0 1.1132812,-0.2226562 v 4.08984374 c 0,0.29296875 -0.023437,0.3984375 -0.7851562,0.3984375 h -0.28125 v 0.2578125 c 0.328125,-0.0234375 1.0195312,-0.0234375 1.3710937,-0.0234375 0.3632813,0 1.0546875,0 1.3828128,0.0234375 v -0.2578125 H 9.8690937 c -0.75,0 -0.7734375,-0.10546875 -0.7734375,-0.3984375 z m 0,0" style="fill:#000000;fill-opacity:1;fill-rule:nonzero;stroke:none"/>
    </g>
    <path id="path15" d="m 2.5080703,-5.0728828 c 0,-0.2226563 -0.023437,-0.2226563 -0.234375,-0.2226563 -0.328125,0.3164063 -0.75,0.5039063 -1.51171874,0.5039063 v 0.2695312 c 0.22265625,0 0.64453124,0 1.11328124,-0.2226562 v 4.08984374 c 0,0.29296875 -0.023437,0.3984375 -0.7851562,0.3984375 H 0.80885156 v 0.2578125 c 0.32812504,-0.0234375 1.01953124,-0.0234375 1.37109374,-0.0234375 0.3632813,0 1.0546875,0 1.3828125,0.0234375 v -0.2578125 h -0.28125 c -0.75,0 -0.7734375,-0.10546875 -0.7734375,-0.3984375 z m 0,0" style="fill:#000000;fill-opacity:1;fill-rule:nonzero;stroke:none" aria-label="1" transform="matrix(1.3333333,0,0,1.3333333,88.152,122.924)"/>
    <path id="path16" d="m 2.2489844,-1.6275703 c 0.1289062,-0.1171875 0.4570312,-0.375 0.5859375,-0.4921875 0.4921875,-0.4570313 0.9609375,-0.890625 0.9609375,-1.6171875 0,-0.9492188 -0.796875,-1.5585938 -1.7929688,-1.5585938 -0.9492187,0 -1.58203123,0.7265625 -1.58203123,1.4296875 0,0.3984375 0.31640625,0.4453125 0.421875,0.4453125 0.16406253,0 0.41015623,-0.1171875 0.41015623,-0.421875 0,-0.4101562 -0.39843748,-0.4101562 -0.49218748,-0.4101562 0.234375,-0.5859375 0.77343748,-0.7851563 1.16015628,-0.7851563 0.7382812,0 1.125,0.6328125 1.125,1.3007813 0,0.8320312 -0.5859375,1.4296875 -1.5234375,2.4023437 l -1.00781253,1.03125004 c -0.09375,0.09375 -0.09375,0.10546875 -0.09375,0.3046875 H 3.5732031 L 3.7958594,-1.4283516 H 3.5497656 c -0.023437,0.1640625 -0.082031,0.56250004 -0.1757812,0.71484379 -0.046875,0.0585938 -0.65625,0.0585938 -0.7851563,0.0585938 H 1.1708594 Z m 0,0" style="fill:#000000;fill-opacity:1;fill-rule:nonzero;stroke:none" aria-label="2" transform="matrix(1.3333333,0,0,1.3333333,125.94667,122.924)"/>
    <path id="path17" d="m 2.0152656,-2.6588203 c 0.6328125,0 1.03125,0.4570312 1.03125,1.3007812 0,0.99609379 -0.5742187,1.28906254 -0.9960937,1.28906254 -0.4335938,0 -1.03125,-0.1640625 -1.31250002,-0.5859375 0.29296872,0 0.49218752,-0.17578125 0.49218752,-0.44531254 0,-0.2578125 -0.1875,-0.4335937 -0.44531252,-0.4335937 -0.2109375,0 -0.43359375,0.1289062 -0.43359375,0.4570312 0,0.75000004 0.80859377,1.24218754 1.72265627,1.24218754 1.0546875,0 1.7929687,-0.7265625 1.7929687,-1.52343754 0,-0.6679687 -0.515625,-1.265625 -1.3359375,-1.4414062 0.6328125,-0.2226563 1.1015625,-0.7734375 1.1015625,-1.40625 0,-0.6328125 -0.7148437,-1.0898438 -1.546875,-1.0898438 -0.8554687,0 -1.49999997,0.4570313 -1.49999997,1.0664063 0,0.2929687 0.19921875,0.421875 0.41015625,0.421875 0.24609372,0 0.41015622,-0.1757813 0.41015622,-0.4101563 0,-0.2929687 -0.2578125,-0.3984375 -0.43359372,-0.4101562 0.33984372,-0.4335938 0.94921872,-0.46875 1.08984372,-0.46875 0.2109375,0 0.8085938,0.070312 0.8085938,0.890625 0,0.5625 -0.2226563,0.890625 -0.3398438,1.0195312 -0.234375,0.2460938 -0.421875,0.2578125 -0.9023437,0.2929688 -0.1523438,0.011719 -0.2226563,0.023437 -0.2226563,0.1171875 0,0.1171875 0.070312,0.1171875 0.2109375,0.1171875 z m 0,0" style="fill:#000000;fill-opacity:1;fill-rule:nonzero;stroke:none" aria-label="3" transform="matrix(1.3333333,0,0,1.3333333,163.74267,122.924)"/>
    <path id="path18" d="m 3.9024844,-2.54375 c 0,-0.8554688 -0.09375,-1.3710938 -0.3515625,-1.875 -0.3515625,-0.703125 -0.9960938,-0.8789063 -1.4414063,-0.8789063 -0.9960937,0 -1.37109372,0.75 -1.47656247,0.9726563 -0.29296875,0.5742187 -0.3046875,1.3710937 -0.3046875,1.78125 0,0.5273437 0.0234375,1.3359375 0.41015625,1.96875 0.36328122,0.5859375 0.94921872,0.73828125 1.37109372,0.73828125 0.3867188,0 1.0664063,-0.1171875 1.4648438,-0.90234375 0.2929687,-0.5742188 0.328125,-1.2890625 0.328125,-1.8046875 z m -1.7929688,2.484375 c -0.2695312,0 -0.8203125,-0.12890625 -0.984375,-0.9609375 -0.09375,-0.4570313 -0.09375,-1.2070313 -0.09375,-1.6171875 0,-0.5507813 0,-1.1132813 0.09375,-1.546875 C 1.2892031,-4.9929688 1.9102969,-5.075 2.1095156,-5.075 c 0.2695313,0 0.8203125,0.1289062 0.984375,0.8554687 0.09375,0.4453125 0.09375,1.0429688 0.09375,1.5820313 0,0.46875 0,1.1835937 -0.09375,1.6289062 -0.1640625,0.84375005 -0.7148437,0.9492188 -0.984375,0.9492188 z m 0,0" style="fill:#000000;fill-opacity:1;fill-rule:nonzero;stroke:none" aria-label="0" transform="matrix(1.3333333,0,0,1.3333333,43.992,120.26667)"/>
    <path id="path19" d="m 2.5087656,-5.0733594 c 0,-0.2226562 -0.023437,-0.2226562 -0.234375,-0.2226562 -0.328125,0.3164062 -0.75,0.5039062 -1.51171873,0.5039062 v 0.2695313 c 0.22265625,0 0.64453123,0 1.11328123,-0.2226563 v 4.08984378 c 0,0.29296875 -0.023437,0.3984375 -0.7851562,0.3984375 H 0.80954687 V 8.59375e-4 C 1.1376719,-0.02257812 1.8290781,-0.02257812 2.1806406,-0.02257812 c 0.3632813,0 1.0546875,0 1.3828125,0.023437495 V -0.25695312 h -0.28125 c -0.75,0 -0.7734375,-0.10546875 -0.7734375,-0.3984375 z m 0,0" style="fill:#000000;fill-opacity:1;fill-rule:nonzero;stroke:none" aria-label="1" transform="matrix(1.3333333,0,0,1.3333333,41.334667,75.506667)"/>
    <path id="path20" d="m 2.2509531,-1.6287031 c 0.1289063,-0.1171875 0.4570313,-0.375 0.5859375,-0.4921875 0.4921875,-0.4570313 0.9609375,-0.890625 0.9609375,-1.6171875 0,-0.9492188 -0.796875,-1.5585938 -1.7929687,-1.5585938 -0.9492188,0 -1.58203128,0.7265625 -1.58203128,1.4296875 0,0.3984375 0.31640625,0.4453125 0.421875,0.4453125 0.16406248,0 0.41015628,-0.1171875 0.41015628,-0.421875 0,-0.4101562 -0.39843753,-0.4101562 -0.49218753,-0.4101562 0.234375,-0.5859375 0.77343753,-0.7851563 1.16015623,-0.7851563 0.7382813,0 1.125,0.6328125 1.125,1.3007813 0,0.8320312 -0.5859375,1.4296875 -1.5234375,2.4023437 l -1.00781248,1.03125003 c -0.09375,0.09375 -0.09375,0.10546875 -0.09375,0.304687495 H 3.5751719 L 3.7978281,-1.4294844 H 3.5517344 c -0.023437,0.1640625 -0.082031,0.56250003 -0.1757813,0.71484378 -0.046875,0.0585938 -0.65625,0.0585938 -0.7851562,0.0585938 H 1.1728281 Z m 0,0" style="fill:#000000;fill-opacity:1;fill-rule:nonzero;stroke:none" aria-label="2" transform="matrix(1.3333333,0,0,1.3333333,41.334667,37.710667)"/>
    <path id="path21" d="m 1.9111484,-3.5859219 h 0.8554688 c 0.1523437,0 0.2695312,0 0.2695312,-0.1640625 0,-0.1171875 -0.09375,-0.1171875 -0.2578125,-0.1171875 h -0.796875 l 0.3632813,-1.4882812 c 0,-0.140625 -0.1171875,-0.2578125 -0.2695313,-0.2578125 -0.2929687,0 -0.3632812,0.2578125 -0.375,0.3515625 L 1.3369297,-3.8671719 H 0.49317969 c -0.1640625,0 -0.28125,0 -0.28125,0.1640625 0,0.1171875 0.10546875,0.1171875 0.26953125,0.1171875 H 1.2783359 l -0.60937496,2.4375 c -0.0820313,0.26953128 -0.0820313,0.29296878 -0.0820313,0.41015628 0,0.52734375 0.41015625,0.83203125 0.87890616,0.83203125 0.9257814,0 1.4531251,-1.28906253 1.4531251,-1.37109373 0,-0.046875 -0.023437,-0.1171875 -0.1171875,-0.1171875 -0.082031,0 -0.09375,0.035156 -0.1523437,0.1875 -0.28125,0.64453123 -0.7265626,1.07812498 -1.1718751,1.07812498 -0.1757812,0 -0.28125,-0.1171875 -0.28125,-0.41015625 0,-0.19921875 0.023437,-0.3046875 0.058594,-0.43359375 z m 0,0" style="fill:#000000;fill-opacity:1;fill-rule:nonzero;stroke:none" aria-label="t" transform="matrix(1.3333333,0,0,1.3333333,181.22133,113.55467)"/>
    <g id="g21" aria-label="f(t)" transform="matrix(1.3333333,0,0,1.3333333,42.549333,16.641333)">
      <path id="path22" d="m 3.3526484,-3.5864687 h 0.8085938 c 0.1757812,0 0.2695312,0 0.2695312,-0.1640625 0,-0.1171875 -0.09375,-0.1171875 -0.2578125,-0.1171875 H 3.4112422 c 0.09375,-0.5390625 0.2226562,-1.265625 0.3398437,-1.7578125 0.082031,-0.3398438 0.2929688,-0.46875 0.46875,-0.46875 0.058594,0 0.2578125,0.011719 0.421875,0.1289062 -0.1875,0.035156 -0.4453125,0.1875 -0.4453125,0.4921875 0,0.2226563 0.1757813,0.3164063 0.3398438,0.3164063 0.2460937,0 0.4921875,-0.1992188 0.4921875,-0.5390625 0,-0.3984375 -0.3867188,-0.6210938 -0.8085938,-0.6210938 -0.4101562,0 -0.8085937,0.28125 -0.9960937,0.65625 -0.1992188,0.375 -0.2695313,0.7265625 -0.4570313,1.7929688 H 2.1221797 c -0.1640625,0 -0.2695313,0 -0.2695313,0.1640625 0,0.1171875 0.09375,0.1171875 0.2578125,0.1171875 h 0.609375 C 2.4620234,-2.2856875 2.1573359,-0.49271875 1.9581172,0.4330625 1.8526484,0.93696875 1.7003047,1.6166563 1.2784297,1.6166563 1.1378047,1.6166563 0.96202344,1.5580625 0.86827344,1.48775 1.0909297,1.4525938 1.3135859,1.2650938 1.3135859,0.9955625 c 0,-0.22265625 -0.1640625,-0.328125 -0.33984371,-0.328125 -0.234375,0 -0.4921875,0.19921875 -0.4921875,0.5390625 0,0.4101563 0.41015625,0.6328125 0.79687501,0.6328125 0.9140625,0 1.3359375,-1.48828125 1.4765625,-2.26171875 z m 0,0" style="fill:#000000;fill-opacity:1;fill-rule:nonzero;stroke:none"/>
      <path id="path23" d="m 8.5059687,2.1322813 c 0,-0.046875 -0.023437,-0.070312 -0.082031,-0.1289063 -1.1601565,-1.06640625 -1.511719,-2.671875 -1.511719,-4.2421875 0,-1.3945312 0.2695313,-3.0820312 1.5351563,-4.2773437 0.035156,-0.035156 0.058594,-0.070312 0.058594,-0.1054688 0,-0.070312 -0.046875,-0.1054687 -0.1054687,-0.1054687 -0.1054688,0 -0.9140625,0.6445312 -1.40625,1.6289062 -0.421875,0.8554688 -0.6445313,1.78125 -0.6445313,2.8476563 0,0.6445312 0.082031,1.66406245 0.5742188,2.7304687 C 7.4512812,1.5815 8.2950312,2.2260313 8.4005,2.2260313 c 0.058594,0 0.1054687,-0.035156 0.1054687,-0.09375 z m 0,0" style="fill:#000000;fill-opacity:1;fill-rule:nonzero;stroke:none"/>
      <path id="path24" d="m 10.943469,-3.5864687 h 0.855468 c 0.152344,0 0.269532,0 0.269532,-0.1640625 0,-0.1171875 -0.09375,-0.1171875 -0.257813,-0.1171875 H 11.013781 L 11.377062,-5.356 c 0,-0.140625 -0.117187,-0.2578125 -0.269531,-0.2578125 -0.292969,0 -0.363281,0.2578125 -0.375,0.3515625 L 10.36925,-3.8677187 H 9.5255 c -0.1640625,0 -0.28125,0 -0.28125,0.1640625 0,0.1171875 0.1054687,0.1171875 0.2695312,0.1171875 h 0.7968748 l -0.6093748,2.4375 C 9.61925,-0.8794375 9.61925,-0.856 9.61925,-0.7388125 c 0,0.52734375 0.410156,0.83203125 0.878906,0.83203125 0.925781,0 1.453125,-1.28906245 1.453125,-1.37109375 0,-0.046875 -0.02344,-0.1171875 -0.117187,-0.1171875 -0.08203,0 -0.09375,0.035156 -0.152344,0.1875 -0.28125,0.64453125 -0.726563,1.078125 -1.171875,1.078125 -0.175781,0 -0.28125,-0.1171875 -0.28125,-0.41015625 0,-0.19921875 0.02344,-0.3046875 0.05859,-0.43359375 z m 0,0" style="fill:#000000;fill-opacity:1;fill-rule:nonzero;stroke:none"/>
      <path id="path25" d="m 15.033312,-2.2505312 c 0,-0.7382813 -0.105468,-1.7226563 -0.574218,-2.71875 -0.527344,-1.1015625 -1.359375,-1.7578125 -1.464844,-1.7578125 -0.09375,0 -0.117188,0.070312 -0.117188,0.1054687 0,0.035156 0.02344,0.070312 0.08203,0.1289063 0.527343,0.46875 1.511718,1.6875 1.511718,4.2421875 0,1.2773437 -0.234375,3.07031245 -1.535156,4.2773437 -0.02344,0.023437 -0.05859,0.058594 -0.05859,0.1054688 0,0.023437 0.02344,0.09375 0.117188,0.09375 0.105469,0 0.914062,-0.6445313 1.394531,-1.61718755 0.433594,-0.85546875 0.644531,-1.78124995 0.644531,-2.85937495 z m 0,0" style="fill:#000000;fill-opacity:1;fill-rule:nonzero;stroke:none"/>
    </g>
  </g>
</svg>