<?xml version="1.0" encoding="UTF-8" standalone="no"?>
<!-- Created with Inkscape (http://www.inkscape.org/) -->
<svg version="1.1" id="svg1" width="340.69333" height="106.36" viewBox="0 0 340.69333 106.36" sodipodi:docname="24-25-1-信号与系统-期中-题图5.pdf" xmlns:inkscape="http://www.inkscape.org/namespaces/inkscape" xmlns:sodipodi="http://sodipodi.sourceforge.net/DTD/sodipodi-0.dtd" xmlns="http://www.w3.org/2000/svg" xmlns:svg="http://www.w3.org/2000/svg">
  <defs id="defs1"/>
  <sodipodi:namedview id="namedview1" pagecolor="#ffffff" bordercolor="#000000" borderopacity="0.25" inkscape:showpageshadow="2" inkscape:pageopacity="0.0" inkscape:pagecheckerboard="0" inkscape:deskcolor="#d1d1d1">
    <inkscape:page x="0" y="0" inkscape:label="1" id="page1" width="340.69333" height="106.36" margin="0" bleed="0"/>
  </sodipodi:namedview>
  <g id="g1" inkscape:groupmode="layer" inkscape:label="1">
    <path id="path1" d="M -127.56062,-56.69362 V 22.67752 H 127.56062 V -56.69362 Z" style="fill:#ffffff;fill-opacity:1;fill-rule:nonzero;stroke:#ffffff;stroke-width:0.3985;stroke-linecap:butt;stroke-linejoin:miter;stroke-miterlimit:10;stroke-dasharray:none;stroke-opacity:1" transform="matrix(1.3333333,0,0,-1.3333333,170.344,30.502667)"/>
    <path id="path2" d="M -14.0986,-8.30194 H 14.0986 V 8.30196 H -14.0986 Z" style="fill:none;stroke:#000000;stroke-width:0.3985;stroke-linecap:butt;stroke-linejoin:miter;stroke-miterlimit:10;stroke-dasharray:none;stroke-opacity:1" transform="matrix(1.3333333,0,0,-1.3333333,170.344,30.502667)"/>
    <g id="g2" aria-label="h&#xA;1&#xA;(t)" transform="matrix(1.3333333,0,0,1.3333333,155.97333,33.824)">
      <path id="path3" d="m 2.8588672,-6.8084297 c 0,0 0,-0.1054687 -0.1289063,-0.1054687 -0.234375,0 -0.9609375,0.082031 -1.21875,0.1054687 -0.082031,0 -0.1875,0.011719 -0.1875,0.1992188 0,0.1171875 0.09375,0.1171875 0.234375,0.1171875 0.4804688,0 0.5039063,0.070312 0.5039063,0.1640625 l -0.035156,0.1992187 -1.44140621,5.74218751 c -0.0351563,0.140625 -0.0351563,0.15234375 -0.0351563,0.22265625 0,0.22265625 0.19921875,0.26953125 0.28125,0.26953125 0.1640625,0 0.32812491,-0.1171875 0.37499991,-0.2578125 l 0.1875,-0.75 0.2226563,-0.90234371 c 0.058594,-0.2226563 0.1171875,-0.4335938 0.1640625,-0.6679688 0.023437,-0.058594 0.1054687,-0.3867187 0.1171875,-0.4453125 0.023437,-0.09375 0.3281251,-0.6445312 0.6679687,-0.9140625 0.2226564,-0.1640625 0.5273439,-0.3515625 0.9609375,-0.3515625 0.421875,0 0.5390625,0.3398438 0.5390625,0.6914063 0,0.5390625 -0.375,1.6289062 -0.6210937,2.2382812 -0.082031,0.2226563 -0.1289063,0.35156251 -0.1289063,0.55078126 0,0.46875 0.3515625,0.80859375 0.8203125,0.80859375 0.9375,0 1.3007813,-1.45312501 1.3007813,-1.53515621 0,-0.09375 -0.09375,-0.09375 -0.1171875,-0.09375 -0.1054688,0 -0.1054688,0.023437 -0.1523438,0.1757812 -0.1523437,0.52734376 -0.46875,1.24218751 -1.0195312,1.24218751 -0.1640625,0 -0.234375,-0.10546875 -0.234375,-0.328125 0,-0.2578125 0.09375,-0.4921875 0.1757812,-0.71484371 0.1640625,-0.421875 0.609375,-1.6054688 0.609375,-2.1914063 0,-0.6445312 -0.3984375,-1.0664062 -1.1484375,-1.0664062 -0.6210937,0 -1.1015625,0.3164062 -1.4648437,0.7734375 z m 0,0" style="fill:#000000;fill-opacity:1;fill-rule:nonzero;stroke:none"/>
      <path id="path4" d="m 8.0707813,-2.9353828 c 0,-0.1875 -0.011719,-0.1992188 -0.2109375,-0.1992188 -0.4453125,0.4335938 -1.078125,0.4453125 -1.359375,0.4453125 v 0.2460938 c 0.1640625,0 0.6210937,0 1.0078125,-0.1875 v 3.55078124 c 0,0.23437496 0,0.32812496 -0.6914063,0.32812496 H 6.5473438 v 0.2460938 c 0.1289062,-0.011719 0.984375,-0.023437 1.2421875,-0.023437 0.2109375,0 1.0898437,0.011719 1.2421875,0.023437 V 1.2482109 H 8.7739063 c -0.703125,0 -0.703125,-0.09375 -0.703125,-0.32812496 z m 0,0" style="fill:#000000;fill-opacity:1;fill-rule:nonzero;stroke:none"/>
      <path id="path5" d="m 13.502422,2.3907891 c 0,-0.035156 0,-0.046875 -0.164063,-0.2226563 -1.242187,-1.25390624 -1.570312,-3.12890624 -1.570312,-4.6640625 0,-1.7226562 0.386719,-3.4570312 1.605469,-4.7109375 0.128906,-0.1171875 0.128906,-0.1289062 0.128906,-0.1640625 0,-0.070312 -0.03516,-0.1054687 -0.09375,-0.1054687 -0.105469,0 -0.996094,0.6796875 -1.582031,1.9453125 -0.515625,1.1015625 -0.632813,2.203125 -0.632813,3.0351562 0,0.7851563 0.117188,1.99218751 0.65625,3.11718751 0.597656,1.21874999 1.453125,1.87499999 1.558594,1.87499999 0.05859,0 0.09375,-0.035156 0.09375,-0.1054687 z m 0,0" style="fill:#000000;fill-opacity:1;fill-rule:nonzero;stroke:none"/>
      <path id="path6" d="m 16.136211,-3.9842109 h 0.9375 c 0.199219,0 0.304687,0 0.304687,-0.1992188 0,-0.1054687 -0.105468,-0.1054687 -0.28125,-0.1054687 h -0.878906 c 0.363281,-1.4179688 0.410156,-1.6171875 0.410156,-1.6757813 0,-0.1757812 -0.117187,-0.2695312 -0.292968,-0.2695312 -0.02344,0 -0.304688,0.011719 -0.398438,0.3515625 l -0.386719,1.59375 h -0.9375 c -0.199218,0 -0.292968,0 -0.292968,0.1875 0,0.1171875 0.07031,0.1171875 0.269531,0.1171875 h 0.878906 c -0.714844,2.8242187 -0.75,2.99999996 -0.75,3.17578121 0,0.5390625 0.375,0.9140625 0.914063,0.9140625 1.007812,0 1.582031,-1.45312501 1.582031,-1.53515621 0,-0.09375 -0.08203,-0.09375 -0.117188,-0.09375 -0.09375,0 -0.105468,0.023437 -0.152343,0.140625 -0.433594,1.03124996 -0.960938,1.27734371 -1.300782,1.27734371 -0.199218,0 -0.304687,-0.12890625 -0.304687,-0.45703125 0,-0.24609375 0.02344,-0.31640625 0.05859,-0.48046876 z m 0,0" style="fill:#000000;fill-opacity:1;fill-rule:nonzero;stroke:none"/>
      <path id="path7" d="m 20.565898,-2.4959297 c 0,-0.7734375 -0.117187,-1.9804687 -0.65625,-3.1054687 -0.597656,-1.21875 -1.464843,-1.875 -1.558593,-1.875 -0.05859,0 -0.105469,0.046875 -0.105469,0.1054687 0,0.035156 0,0.046875 0.199219,0.234375 0.972656,0.984375 1.535156,2.5664063 1.535156,4.640625 0,1.71093751 -0.363281,3.45703126 -1.59375,4.7226563 -0.140625,0.1171875 -0.140625,0.1289062 -0.140625,0.1640625 0,0.058594 0.04687,0.1054687 0.105469,0.1054687 0.09375,0 0.996093,-0.6796875 1.582031,-1.94531249 0.503906,-1.1015625 0.632812,-2.20312501 0.632812,-3.04687501 z m 0,0" style="fill:#000000;fill-opacity:1;fill-rule:nonzero;stroke:none"/>
    </g>
    <path id="path8" d="m -70.79222,-8.30194 h 28.1972 v 16.6039 h -28.1972 z" style="fill:none;stroke:#000000;stroke-width:0.3985;stroke-linecap:butt;stroke-linejoin:miter;stroke-miterlimit:10;stroke-dasharray:none;stroke-opacity:1" transform="matrix(1.3333333,0,0,-1.3333333,170.344,30.502667)"/>
    <g id="g8" aria-label="h&#xA;2&#xA;(t)" transform="matrix(1.3333333,0,0,1.3333333,80.381333,33.824)">
      <path id="path9" d="m 2.8604844,-6.8084297 c 0,0 0,-0.1054687 -0.1289063,-0.1054687 -0.234375,0 -0.9609375,0.082031 -1.21875,0.1054687 -0.082031,0 -0.1875,0.011719 -0.1875,0.1992188 0,0.1171875 0.09375,0.1171875 0.234375,0.1171875 0.4804688,0 0.5039063,0.070312 0.5039063,0.1640625 l -0.035156,0.1992187 -1.44140623,5.74218751 c -0.0351563,0.140625 -0.0351563,0.15234375 -0.0351563,0.22265625 0,0.22265625 0.19921875,0.26953125 0.28125,0.26953125 0.1640625,0 0.32812493,-0.1171875 0.37499993,-0.2578125 l 0.1875,-0.75 0.2226563,-0.90234371 c 0.058594,-0.2226563 0.1171875,-0.4335938 0.1640625,-0.6679688 0.023437,-0.058594 0.1054687,-0.3867187 0.1171875,-0.4453125 0.023437,-0.09375 0.328125,-0.6445312 0.6679687,-0.9140625 0.2226563,-0.1640625 0.5273438,-0.3515625 0.9609375,-0.3515625 0.421875,0 0.5390625,0.3398438 0.5390625,0.6914063 0,0.5390625 -0.375,1.6289062 -0.6210937,2.2382812 -0.082031,0.2226563 -0.1289063,0.35156251 -0.1289063,0.55078126 0,0.46875 0.3515625,0.80859375 0.8203125,0.80859375 0.9375,0 1.3007813,-1.45312501 1.3007813,-1.53515621 0,-0.09375 -0.09375,-0.09375 -0.1171875,-0.09375 -0.1054688,0 -0.1054688,0.023437 -0.1523438,0.1757812 -0.1523437,0.52734376 -0.46875,1.24218751 -1.0195312,1.24218751 -0.1640625,0 -0.234375,-0.10546875 -0.234375,-0.328125 0,-0.2578125 0.09375,-0.4921875 0.1757812,-0.71484371 0.1640625,-0.421875 0.609375,-1.6054688 0.609375,-2.1914063 0,-0.6445312 -0.3984375,-1.0664062 -1.1484375,-1.0664062 -0.6210937,0 -1.1015625,0.3164062 -1.4648437,0.7734375 z m 0,0" style="fill:#000000;fill-opacity:1;fill-rule:nonzero;stroke:none"/>
      <path id="path10" d="m 9.2559922,0.22867969 h -0.234375 c -0.023437,0.15234375 -0.082031,0.5625 -0.1757813,0.6328125 -0.058594,0.0351563 -0.5976562,0.0351563 -0.6914062,0.0351563 H 6.8653672 c 0.7382812,-0.64453125 0.984375,-0.84375 1.3945312,-1.171875 0.515625,-0.41015625 0.9960938,-0.84374999 0.9960938,-1.49999999 0,-0.8437501 -0.7382813,-1.3593751 -1.6289063,-1.3593751 -0.8671875,0 -1.453125,0.609375 -1.453125,1.2421875 0,0.3632813 0.3046875,0.3984375 0.375,0.3984375 0.1640625,0 0.375,-0.1171875 0.375,-0.375 0,-0.1289062 -0.058594,-0.3632812 -0.421875,-0.3632812 0.2226563,-0.5039063 0.6914063,-0.65625 1.0195313,-0.65625 0.703125,0 1.0664062,0.5507812 1.0664062,1.1132813 0,0.609375 -0.4335937,1.08984374 -0.65625,1.33593749 l -1.6875,1.66406241 c -0.070312,0.058594 -0.070312,0.070312 -0.070312,0.2695313 h 2.8828125 z m 0,0" style="fill:#000000;fill-opacity:1;fill-rule:nonzero;stroke:none"/>
      <path id="path11" d="m 13.504039,2.3907891 c 0,-0.035156 0,-0.046875 -0.164062,-0.2226563 -1.242188,-1.25390624 -1.570313,-3.12890624 -1.570313,-4.6640625 0,-1.7226562 0.386719,-3.4570312 1.605469,-4.7109375 0.128906,-0.1171875 0.128906,-0.1289062 0.128906,-0.1640625 0,-0.070312 -0.03516,-0.1054687 -0.09375,-0.1054687 -0.105469,0 -0.996094,0.6796875 -1.582031,1.9453125 -0.515625,1.1015625 -0.632813,2.203125 -0.632813,3.0351562 0,0.7851563 0.117188,1.99218751 0.65625,3.11718751 0.597657,1.21874999 1.453125,1.87499999 1.558594,1.87499999 0.05859,0 0.09375,-0.035156 0.09375,-0.1054687 z m 0,0" style="fill:#000000;fill-opacity:1;fill-rule:nonzero;stroke:none"/>
      <path id="path12" d="m 16.134898,-3.9842109 h 0.9375 c 0.199219,0 0.304688,0 0.304688,-0.1992188 0,-0.1054687 -0.105469,-0.1054687 -0.28125,-0.1054687 H 16.21693 c 0.363281,-1.4179688 0.410156,-1.6171875 0.410156,-1.6757813 0,-0.1757812 -0.117188,-0.2695312 -0.292969,-0.2695312 -0.02344,0 -0.304687,0.011719 -0.398437,0.3515625 l -0.386719,1.59375 h -0.9375 c -0.199219,0 -0.292969,0 -0.292969,0.1875 0,0.1171875 0.07031,0.1171875 0.269531,0.1171875 h 0.878907 c -0.714844,2.8242187 -0.75,2.99999996 -0.75,3.17578121 0,0.5390625 0.375,0.9140625 0.914062,0.9140625 1.007813,0 1.582031,-1.45312501 1.582031,-1.53515621 0,-0.09375 -0.08203,-0.09375 -0.117187,-0.09375 -0.09375,0 -0.105469,0.023437 -0.152344,0.140625 -0.433594,1.03124996 -0.960937,1.27734371 -1.300781,1.27734371 -0.199219,0 -0.304688,-0.12890625 -0.304688,-0.45703125 0,-0.24609375 0.02344,-0.31640625 0.05859,-0.48046876 z m 0,0" style="fill:#000000;fill-opacity:1;fill-rule:nonzero;stroke:none"/>
      <path id="path13" d="m 20.564586,-2.4959297 c 0,-0.7734375 -0.117188,-1.9804687 -0.65625,-3.1054687 -0.597656,-1.21875 -1.464844,-1.875 -1.558594,-1.875 -0.05859,0 -0.105469,0.046875 -0.105469,0.1054687 0,0.035156 0,0.046875 0.199219,0.234375 0.972656,0.984375 1.535156,2.5664063 1.535156,4.640625 0,1.71093751 -0.363281,3.45703126 -1.59375,4.7226563 -0.140625,0.1171875 -0.140625,0.1289062 -0.140625,0.1640625 0,0.058594 0.04687,0.1054687 0.105469,0.1054687 0.09375,0 0.996094,-0.6796875 1.582031,-1.94531249 0.503907,-1.1015625 0.632813,-2.20312501 0.632813,-3.04687501 z m 0,0" style="fill:#000000;fill-opacity:1;fill-rule:nonzero;stroke:none"/>
    </g>
    <path id="path14" d="M 42.595,-8.30194 H 70.7922 V 8.30196 H 42.595 Z" style="fill:none;stroke:#000000;stroke-width:0.3985;stroke-linecap:butt;stroke-linejoin:miter;stroke-miterlimit:10;stroke-dasharray:none;stroke-opacity:1" transform="matrix(1.3333333,0,0,-1.3333333,170.344,30.502667)"/>
    <g id="g14" aria-label="h&#xA;3&#xA;(t)" transform="matrix(1.3333333,0,0,1.3333333,231.56533,33.824)">
      <path id="path15" d="m 2.8601797,-6.8084297 c 0,0 0,-0.1054687 -0.1289063,-0.1054687 -0.234375,0 -0.9609375,0.082031 -1.21875,0.1054687 -0.082031,0 -0.1875,0.011719 -0.1875,0.1992188 0,0.1171875 0.09375,0.1171875 0.234375,0.1171875 0.4804688,0 0.5039063,0.070312 0.5039063,0.1640625 l -0.035156,0.1992187 -1.44140621,5.74218751 c -0.0351563,0.140625 -0.0351563,0.15234375 -0.0351563,0.22265625 0,0.22265625 0.19921875,0.26953125 0.28125,0.26953125 0.1640625,0 0.32812491,-0.1171875 0.37499991,-0.2578125 l 0.1875,-0.75 0.2226563,-0.90234371 c 0.058594,-0.2226563 0.1171875,-0.4335938 0.1640625,-0.6679688 0.023437,-0.058594 0.1054687,-0.3867187 0.1171875,-0.4453125 0.023437,-0.09375 0.3281251,-0.6445312 0.6679688,-0.9140625 0.2226563,-0.1640625 0.5273438,-0.3515625 0.9609375,-0.3515625 0.421875,0 0.5390625,0.3398438 0.5390625,0.6914063 0,0.5390625 -0.375,1.6289062 -0.6210937,2.2382812 -0.082031,0.2226563 -0.1289063,0.35156251 -0.1289063,0.55078126 0,0.46875 0.3515625,0.80859375 0.8203125,0.80859375 0.9375,0 1.3007812,-1.45312501 1.3007812,-1.53515621 0,-0.09375 -0.09375,-0.09375 -0.1171875,-0.09375 -0.1054687,0 -0.1054687,0.023437 -0.1523437,0.1757812 -0.1523438,0.52734376 -0.46875,1.24218751 -1.0195313,1.24218751 -0.1640624,0 -0.2343749,-0.10546875 -0.2343749,-0.328125 0,-0.2578125 0.09375,-0.4921875 0.1757812,-0.71484371 0.1640625,-0.421875 0.609375,-1.6054688 0.609375,-2.1914063 0,-0.6445312 -0.3984375,-1.0664062 -1.1484375,-1.0664062 -0.6210937,0 -1.1015625,0.3164062 -1.4648437,0.7734375 z m 0,0" style="fill:#000000;fill-opacity:1;fill-rule:nonzero;stroke:none"/>
      <path id="path16" d="m 7.6385,-0.83772656 c 0.5507813,0 0.9375,0.375 0.9375,1.125 0,0.86718746 -0.5039062,1.12499996 -0.9023437,1.12499996 -0.28125,0 -0.890625,-0.082031 -1.1835938,-0.49218746 C 6.8181875,0.90836719 6.8885,0.67399219 6.8885,0.53336719 c 0,-0.22265625 -0.1640625,-0.38671875 -0.3867187,-0.38671875 -0.1875,0 -0.3867188,0.1171875 -0.3867188,0.41015625 0,0.65625001 0.7265625,1.07812501 1.5703125,1.07812501 0.9726563,0 1.640625,-0.64453126 1.640625,-1.34765626 0,-0.5390625 -0.4453125,-1.08984375 -1.21875,-1.2421875 0.7382813,-0.26953124 0.9960938,-0.79687504 0.9960938,-1.21875004 0,-0.5507812 -0.6328125,-0.9609375 -1.40625,-0.9609375 -0.7734375,0 -1.359375,0.375 -1.359375,0.9375 0,0.234375 0.1523437,0.3632813 0.3632812,0.3632813 0.2109375,0 0.3515625,-0.1640625 0.3515625,-0.3515625 0,-0.1992188 -0.140625,-0.3515625 -0.3515625,-0.3632813 0.234375,-0.3046875 0.7148438,-0.3867187 0.9726563,-0.3867187 0.3164062,0 0.7617187,0.1523437 0.7617187,0.7617187 0,0.2929688 -0.1054687,0.609375 -0.28125,0.8320313 -0.234375,0.2578125 -0.421875,0.28125 -0.7734375,0.2929687 -0.1757812,0.023437 -0.1875,0.023437 -0.2226562,0.023437 -0.011719,0 -0.070312,0.011719 -0.070312,0.09375 0,0.09375 0.058594,0.09375 0.1757812,0.09375 z m 0,0" style="fill:#000000;fill-opacity:1;fill-rule:nonzero;stroke:none"/>
      <path id="path17" d="m 13.503734,2.3907891 c 0,-0.035156 0,-0.046875 -0.164062,-0.2226563 -1.242188,-1.25390624 -1.570313,-3.12890624 -1.570313,-4.6640625 0,-1.7226562 0.386719,-3.4570312 1.605469,-4.7109375 0.128906,-0.1171875 0.128906,-0.1289062 0.128906,-0.1640625 0,-0.070312 -0.03516,-0.1054687 -0.09375,-0.1054687 -0.105468,0 -0.996093,0.6796875 -1.582031,1.9453125 -0.515625,1.1015625 -0.632812,2.203125 -0.632812,3.0351562 0,0.7851563 0.117187,1.99218751 0.65625,3.11718751 0.597656,1.21874999 1.453125,1.87499999 1.558593,1.87499999 0.05859,0 0.09375,-0.035156 0.09375,-0.1054687 z m 0,0" style="fill:#000000;fill-opacity:1;fill-rule:nonzero;stroke:none"/>
      <path id="path18" d="m 16.134594,-3.9842109 h 0.9375 c 0.199219,0 0.304687,0 0.304687,-0.1992188 0,-0.1054687 -0.105468,-0.1054687 -0.28125,-0.1054687 h -0.878906 c 0.363281,-1.4179688 0.410156,-1.6171875 0.410156,-1.6757813 0,-0.1757812 -0.117187,-0.2695312 -0.292968,-0.2695312 -0.02344,0 -0.304688,0.011719 -0.398438,0.3515625 l -0.386719,1.59375 h -0.9375 c -0.199218,0 -0.292968,0 -0.292968,0.1875 0,0.1171875 0.07031,0.1171875 0.269531,0.1171875 h 0.878906 c -0.714844,2.8242187 -0.75,2.99999996 -0.75,3.17578121 0,0.5390625 0.375,0.9140625 0.914063,0.9140625 1.007812,0 1.582031,-1.45312501 1.582031,-1.53515621 0,-0.09375 -0.08203,-0.09375 -0.117188,-0.09375 -0.09375,0 -0.105468,0.023437 -0.152343,0.140625 -0.433594,1.03124996 -0.960938,1.27734371 -1.300782,1.27734371 -0.199218,0 -0.304687,-0.12890625 -0.304687,-0.45703125 0,-0.24609375 0.02344,-0.31640625 0.05859,-0.48046876 z m 0,0" style="fill:#000000;fill-opacity:1;fill-rule:nonzero;stroke:none"/>
      <path id="path19" d="m 20.564281,-2.4959297 c 0,-0.7734375 -0.117187,-1.9804687 -0.65625,-3.1054687 -0.597656,-1.21875 -1.464843,-1.875 -1.558593,-1.875 -0.05859,0 -0.105469,0.046875 -0.105469,0.1054687 0,0.035156 0,0.046875 0.199219,0.234375 0.972656,0.984375 1.535156,2.5664063 1.535156,4.640625 0,1.71093751 -0.363281,3.45703126 -1.59375,4.7226563 -0.140625,0.1171875 -0.140625,0.1289062 -0.140625,0.1640625 0,0.058594 0.04687,0.1054687 0.105469,0.1054687 0.09375,0 0.996093,-0.6796875 1.582031,-1.94531249 0.503906,-1.1015625 0.632812,-2.20312501 0.632812,-3.04687501 z m 0,0" style="fill:#000000;fill-opacity:1;fill-rule:nonzero;stroke:none"/>
    </g>
    <path id="path20" d="m -14.0986,-50.82216 h 28.1972 v 16.6039 h -28.1972 z" style="fill:none;stroke:#000000;stroke-width:0.3985;stroke-linecap:butt;stroke-linejoin:miter;stroke-miterlimit:10;stroke-dasharray:none;stroke-opacity:1" transform="matrix(1.3333333,0,0,-1.3333333,170.344,30.502667)"/>
    <g id="g20" aria-label="h&#xA;1&#xA;(t)" transform="matrix(1.3333333,0,0,1.3333333,155.97333,90.517333)">
      <path id="path21" d="m 2.8588672,-6.809875 c 0,0 0,-0.1054687 -0.1289063,-0.1054687 -0.234375,0 -0.9609375,0.082031 -1.21875,0.1054687 -0.082031,0 -0.1875,0.011719 -0.1875,0.1992188 0,0.1171875 0.09375,0.1171875 0.234375,0.1171875 0.4804688,0 0.5039063,0.070312 0.5039063,0.1640625 L 2.0268359,-6.1301875 0.58542969,-0.388 c -0.0351563,0.140625 -0.0351563,0.15234375 -0.0351563,0.22265625 0,0.22265625 0.19921875,0.26953125 0.28125,0.26953125 0.1640625,0 0.32812491,-0.1171875 0.37499991,-0.2578125 l 0.1875,-0.75 0.2226563,-0.9023437 C 1.6752734,-2.028625 1.7338672,-2.2395625 1.7807422,-2.4739375 1.8041797,-2.5325312 1.8862109,-2.8606562 1.8979297,-2.91925 1.9213672,-3.013 2.2260547,-3.5637812 2.5658984,-3.8333125 2.7885547,-3.997375 3.0932422,-4.184875 3.5268359,-4.184875 c 0.421875,0 0.5390625,0.3398438 0.5390625,0.6914063 0,0.5390625 -0.375,1.6289062 -0.6210937,2.2382812 -0.082031,0.2226563 -0.1289063,0.3515625 -0.1289063,0.55078125 0,0.46875 0.3515625,0.80859375 0.8203125,0.80859375 0.9375,0 1.3007813,-1.453125 1.3007813,-1.5351562 0,-0.09375 -0.09375,-0.09375 -0.1171875,-0.09375 -0.1054688,0 -0.1054688,0.023437 -0.1523438,0.1757812 -0.1523437,0.52734375 -0.46875,1.2421875 -1.0195312,1.2421875 -0.1640625,0 -0.234375,-0.10546875 -0.234375,-0.328125 0,-0.2578125 0.09375,-0.4921875 0.1757812,-0.7148437 0.1640625,-0.421875 0.609375,-1.6054688 0.609375,-2.1914063 0,-0.6445312 -0.3984375,-1.0664062 -1.1484375,-1.0664062 -0.6210937,0 -1.1015625,0.3164062 -1.4648437,0.7734375 z m 0,0" style="fill:#000000;fill-opacity:1;fill-rule:nonzero;stroke:none"/>
      <path id="path22" d="m 8.0707813,-2.9338984 c 0,-0.1875 -0.011719,-0.1992188 -0.2109375,-0.1992188 -0.4453125,0.4335938 -1.078125,0.4453125 -1.359375,0.4453125 v 0.2460938 c 0.1640625,0 0.6210937,0 1.0078125,-0.1875 v 3.55078121 c 0,0.23437499 0,0.32812499 -0.6914063,0.32812499 H 6.5473438 v 0.2460938 c 0.1289062,-0.011719 0.984375,-0.023437 1.2421875,-0.023437 0.2109375,0 1.0898437,0.011719 1.2421875,0.023437 V 1.2496953 H 8.7739063 c -0.703125,0 -0.703125,-0.09375 -0.703125,-0.32812499 z m 0,0" style="fill:#000000;fill-opacity:1;fill-rule:nonzero;stroke:none"/>
      <path id="path23" d="m 13.502422,2.3893438 c 0,-0.035156 0,-0.046875 -0.164063,-0.2226563 -1.242187,-1.25390625 -1.570312,-3.12890625 -1.570312,-4.6640625 0,-1.7226562 0.386719,-3.4570312 1.605469,-4.7109375 0.128906,-0.1171875 0.128906,-0.1289062 0.128906,-0.1640625 0,-0.070312 -0.03516,-0.1054687 -0.09375,-0.1054687 -0.105469,0 -0.996094,0.6796875 -1.582031,1.9453125 -0.515625,1.1015625 -0.632813,2.203125 -0.632813,3.0351562 0,0.7851563 0.117188,1.9921875 0.65625,3.1171875 0.597656,1.21875 1.453125,1.875 1.558594,1.875 0.05859,0 0.09375,-0.035156 0.09375,-0.1054687 z m 0,0" style="fill:#000000;fill-opacity:1;fill-rule:nonzero;stroke:none"/>
      <path id="path24" d="m 16.136211,-3.9856562 h 0.9375 c 0.199219,0 0.304687,0 0.304687,-0.1992188 0,-0.1054687 -0.105468,-0.1054687 -0.28125,-0.1054687 h -0.878906 c 0.363281,-1.4179688 0.410156,-1.6171875 0.410156,-1.6757813 0,-0.1757812 -0.117187,-0.2695312 -0.292968,-0.2695312 -0.02344,0 -0.304688,0.011719 -0.398438,0.3515625 l -0.386719,1.59375 h -0.9375 c -0.199218,0 -0.292968,0 -0.292968,0.1875 0,0.1171875 0.07031,0.1171875 0.269531,0.1171875 h 0.878906 c -0.714844,2.8242187 -0.75,2.99999995 -0.75,3.1757812 0,0.5390625 0.375,0.9140625 0.914063,0.9140625 1.007812,0 1.582031,-1.453125 1.582031,-1.5351562 0,-0.09375 -0.08203,-0.09375 -0.117188,-0.09375 -0.09375,0 -0.105468,0.023437 -0.152343,0.140625 -0.433594,1.03124995 -0.960938,1.2773437 -1.300782,1.2773437 -0.199218,0 -0.304687,-0.12890625 -0.304687,-0.45703125 0,-0.24609375 0.02344,-0.31640625 0.05859,-0.48046875 z m 0,0" style="fill:#000000;fill-opacity:1;fill-rule:nonzero;stroke:none"/>
      <path id="path25" d="m 20.565898,-2.497375 c 0,-0.7734375 -0.117187,-1.9804687 -0.65625,-3.1054687 -0.597656,-1.21875 -1.464843,-1.875 -1.558593,-1.875 -0.05859,0 -0.105469,0.046875 -0.105469,0.1054687 0,0.035156 0,0.046875 0.199219,0.234375 0.972656,0.984375 1.535156,2.5664063 1.535156,4.640625 0,1.7109375 -0.363281,3.45703125 -1.59375,4.7226563 -0.140625,0.1171875 -0.140625,0.1289062 -0.140625,0.1640625 0,0.058594 0.04687,0.1054687 0.105469,0.1054687 0.09375,0 0.996093,-0.6796875 1.582031,-1.9453125 0.503906,-1.1015625 0.632812,-2.203125 0.632812,-3.046875 z m 0,0" style="fill:#000000;fill-opacity:1;fill-rule:nonzero;stroke:none"/>
    </g>
    <g id="g25" aria-label="e(t)" transform="matrix(1.3333333,0,0,1.3333333,8.504,22.485333)">
      <path id="path26" d="m 1.8632109,-2.2975937 c 0.2929688,0 1.03125,-0.023437 1.5234375,-0.234375 0.703125,-0.2929688 0.75,-0.890625 0.75,-1.0195313 0,-0.4453125 -0.3867187,-0.8554687 -1.0664062,-0.8554687 -1.1132813,0 -2.61328126,0.9726562 -2.61328126,2.7070312 0,1.01953125 0.58593746,1.8046875 1.57031246,1.8046875 1.4179688,0 2.2617188,-1.0546875 2.2617188,-1.171875 0,-0.058594 -0.070312,-0.1289062 -0.1289063,-0.1289062 -0.046875,0 -0.070312,0.023437 -0.1289062,0.09375 -0.7851563,0.9960937 -1.875,0.9960937 -1.9921875,0.9960937 -0.7734375,0 -0.8671875,-0.84375 -0.8671875,-1.1601562 0,-0.1171875 0.011719,-0.4335938 0.1640625,-1.03125 z M 1.3944609,-2.52025 c 0.3867188,-1.5117187 1.4179688,-1.6640625 1.6757813,-1.6640625 0.46875,0 0.7382812,0.2929688 0.7382812,0.6328125 0,1.03125 -1.59375,1.03125 -2.0039062,1.03125 z m 0,0" style="fill:#000000;fill-opacity:1;fill-rule:nonzero;stroke:none"/>
      <path id="path27" d="m 7.9305937,2.3899063 c 0,-0.035156 0,-0.046875 -0.1640625,-0.2226563 -1.2421875,-1.25390625 -1.5703125,-3.12890625 -1.5703125,-4.6640625 0,-1.7226562 0.3867188,-3.4570312 1.6054688,-4.7109375 0.1289062,-0.1171875 0.1289062,-0.1289062 0.1289062,-0.1640625 0,-0.070312 -0.035156,-0.1054687 -0.09375,-0.1054687 -0.1054687,0 -0.9960937,0.6796875 -1.5820312,1.9453125 C 5.7391875,-4.4304062 5.622,-3.3288437 5.622,-2.4968125 c 0,0.7851563 0.1171875,1.9921875 0.65625,3.1171875 0.5976562,1.21875 1.453125,1.875 1.5585937,1.875 0.058594,0 0.09375,-0.035156 0.09375,-0.1054687 z m 0,0" style="fill:#000000;fill-opacity:1;fill-rule:nonzero;stroke:none"/>
      <path id="path28" d="m 10.564383,-3.9850937 h 0.9375 c 0.199219,0 0.304687,0 0.304687,-0.1992188 0,-0.1054687 -0.105468,-0.1054687 -0.28125,-0.1054687 h -0.878906 c 0.363281,-1.4179688 0.410156,-1.6171875 0.410156,-1.6757813 0,-0.1757812 -0.117187,-0.2695312 -0.292968,-0.2695312 -0.02344,0 -0.304688,0.011719 -0.398438,0.3515625 l -0.3867187,1.59375 h -0.9375 c -0.1992187,0 -0.2929687,0 -0.2929687,0.1875 0,0.1171875 0.070312,0.1171875 0.2695312,0.1171875 h 0.8789063 c -0.7148438,2.8242187 -0.75,2.99999995 -0.75,3.1757812 0,0.5390625 0.375,0.9140625 0.9140629,0.9140625 1.007812,0 1.582031,-1.453125 1.582031,-1.5351562 0,-0.09375 -0.08203,-0.09375 -0.117188,-0.09375 -0.09375,0 -0.105468,0.023437 -0.152343,0.140625 -0.433594,1.03124995 -0.960938,1.2773437 -1.300782,1.2773437 -0.1992184,0 -0.3046872,-0.12890625 -0.3046872,-0.45703125 0,-0.24609375 0.023437,-0.31640625 0.058594,-0.48046875 z m 0,0" style="fill:#000000;fill-opacity:1;fill-rule:nonzero;stroke:none"/>
      <path id="path29" d="m 14.99407,-2.4968125 c 0,-0.7734375 -0.117187,-1.9804687 -0.65625,-3.1054687 -0.597656,-1.21875 -1.464843,-1.875 -1.558593,-1.875 -0.05859,0 -0.105469,0.046875 -0.105469,0.1054687 0,0.035156 0,0.046875 0.199219,0.234375 0.972656,0.984375 1.535156,2.5664063 1.535156,4.640625 0,1.7109375 -0.363281,3.45703125 -1.59375,4.7226563 -0.140625,0.1171875 -0.140625,0.1289062 -0.140625,0.1640625 0,0.058594 0.04687,0.1054687 0.105469,0.1054687 0.09375,0 0.996093,-0.6796875 1.582031,-1.9453125 0.503906,-1.1015625 0.632812,-2.203125 0.632812,-3.046875 z m 0,0" style="fill:#000000;fill-opacity:1;fill-rule:nonzero;stroke:none"/>
    </g>
    <g id="g29" aria-label="r(t)" transform="matrix(1.3333333,0,0,1.3333333,310.78133,22.485333)">
      <path id="path30" d="m 0.87884375,-0.58665625 c -0.0351563,0.15234375 -0.09375,0.375 -0.09375,0.421875 0,0.1875 0.140625,0.26953125 0.29296875,0.26953125 0.1171875,0 0.2929688,-0.0703125 0.3632813,-0.26953125 0.023437,-0.046875 0.3632812,-1.39453125 0.3984375,-1.58203125 0.082031,-0.328125 0.2578125,-1.0195312 0.3164062,-1.2890625 0.046875,-0.1289062 0.328125,-0.5976562 0.5625,-0.8203125 0.082031,-0.070312 0.375,-0.328125 0.796875,-0.328125 0.2578125,0 0.4101563,0.1171875 0.421875,0.1171875 -0.3046875,0.046875 -0.515625,0.2929688 -0.515625,0.5507813 0,0.1640625 0.1054688,0.3515625 0.375,0.3515625 0.2695313,0 0.5507813,-0.234375 0.5507813,-0.5859375 0,-0.3515625 -0.328125,-0.65625 -0.8320313,-0.65625 -0.6445312,0 -1.0898437,0.4921875 -1.2773437,0.7734375 -0.082031,-0.4570313 -0.4335938,-0.7734375 -0.9023438,-0.7734375 -0.45703125,0 -0.64453125,0.3867187 -0.73828125,0.5742187 -0.17578125,0.3398438 -0.3046875,0.9375 -0.3046875,0.9609375 0,0.1054688 0.09375,0.1054688 0.1171875,0.1054688 0.09375,0 0.10546875,-0.011719 0.1640625,-0.234375 0.17578125,-0.703125 0.375,-1.1835938 0.72656255,-1.1835938 0.1757812,0 0.3164062,0.082031 0.3164062,0.4570313 0,0.2109375 -0.035156,0.3164062 -0.1640625,0.8320312 z m 0,0" style="fill:#000000;fill-opacity:1;fill-rule:nonzero;stroke:none"/>
      <path id="path31" d="m 8.0653672,2.3899063 c 0,-0.035156 0,-0.046875 -0.1640625,-0.2226563 -1.2421875,-1.25390625 -1.5703125,-3.12890625 -1.5703125,-4.6640625 0,-1.7226562 0.3867187,-3.4570312 1.6054687,-4.7109375 0.1289063,-0.1171875 0.1289063,-0.1289062 0.1289063,-0.1640625 0,-0.070312 -0.035156,-0.1054687 -0.09375,-0.1054687 -0.1054688,0 -0.9960938,0.6796875 -1.5820313,1.9453125 -0.515625,1.1015625 -0.6328125,2.203125 -0.6328125,3.0351562 0,0.7851563 0.1171875,1.9921875 0.65625,3.1171875 0.5976563,1.21875 1.453125,1.875 1.5585938,1.875 0.058594,0 0.09375,-0.035156 0.09375,-0.1054687 z m 0,0" style="fill:#000000;fill-opacity:1;fill-rule:nonzero;stroke:none"/>
      <path id="path32" d="m 10.696227,-3.9850937 h 0.9375 c 0.199218,0 0.304687,0 0.304687,-0.1992188 0,-0.1054687 -0.105469,-0.1054687 -0.28125,-0.1054687 h -0.878906 c 0.363281,-1.4179688 0.410156,-1.6171875 0.410156,-1.6757813 0,-0.1757812 -0.117187,-0.2695312 -0.292969,-0.2695312 -0.02344,0 -0.304687,0.011719 -0.398437,0.3515625 l -0.386719,1.59375 H 9.1727891 c -0.1992188,0 -0.2929688,0 -0.2929688,0.1875 0,0.1171875 0.070312,0.1171875 0.2695313,0.1171875 h 0.8789064 c -0.7148439,2.8242187 -0.7500002,2.99999995 -0.7500002,3.1757812 0,0.5390625 0.375,0.9140625 0.9140622,0.9140625 1.007813,0 1.582032,-1.453125 1.582032,-1.5351562 0,-0.09375 -0.08203,-0.09375 -0.117188,-0.09375 -0.09375,0 -0.105469,0.023437 -0.152344,0.140625 -0.433593,1.03124995 -0.960937,1.2773437 -1.300781,1.2773437 -0.199219,0 -0.3046874,-0.12890625 -0.3046874,-0.45703125 0,-0.24609375 0.023437,-0.31640625 0.058594,-0.48046875 z m 0,0" style="fill:#000000;fill-opacity:1;fill-rule:nonzero;stroke:none"/>
      <path id="path33" d="m 15.125914,-2.4968125 c 0,-0.7734375 -0.117187,-1.9804687 -0.65625,-3.1054687 -0.597656,-1.21875 -1.464844,-1.875 -1.558594,-1.875 -0.05859,0 -0.105468,0.046875 -0.105468,0.1054687 0,0.035156 0,0.046875 0.199218,0.234375 0.972657,0.984375 1.535157,2.5664063 1.535157,4.640625 0,1.7109375 -0.363282,3.45703125 -1.59375,4.7226563 -0.140625,0.1171875 -0.140625,0.1289062 -0.140625,0.1640625 0,0.058594 0.04687,0.1054687 0.105468,0.1054687 0.09375,0 0.996094,-0.6796875 1.582032,-1.9453125 0.503906,-1.1015625 0.632812,-2.203125 0.632812,-3.046875 z m 0,0" style="fill:#000000;fill-opacity:1;fill-rule:nonzero;stroke:none"/>
    </g>
    <path id="path34" d="m -113.38724,0 h 41.93749" style="fill:none;stroke:#000000;stroke-width:0.3985;stroke-linecap:butt;stroke-linejoin:miter;stroke-miterlimit:10;stroke-dasharray:none;stroke-opacity:1" transform="matrix(1.3333333,0,0,-1.3333333,170.344,30.502667)"/>
    <path id="path35" d="M -1.19551,1.59401 C -1.09587,0.99626 0,0.09961 0.29886,0 0,-0.09961 -1.09587,-0.99626 -1.19551,-1.59401" style="fill:none;stroke:#000000;stroke-width:0.31879;stroke-linecap:round;stroke-linejoin:round;stroke-miterlimit:10;stroke-dasharray:none;stroke-opacity:1" transform="matrix(1.3333333,0,0,-1.3333333,75.077667,30.502667)"/>
    <path id="path36" d="m -42.39575,0 h 27.63962" style="fill:none;stroke:#000000;stroke-width:0.3985;stroke-linecap:butt;stroke-linejoin:miter;stroke-miterlimit:10;stroke-dasharray:none;stroke-opacity:1" transform="matrix(1.3333333,0,0,-1.3333333,170.344,30.502667)"/>
    <path id="path37" d="M -1.19551,1.59401 C -1.09587,0.99626 0,0.09961 0.29886,0 0,-0.09961 -1.09587,-0.99626 -1.19551,-1.59401" style="fill:none;stroke:#000000;stroke-width:0.31879;stroke-linecap:round;stroke-linejoin:round;stroke-miterlimit:10;stroke-dasharray:none;stroke-opacity:1" transform="matrix(1.3333333,0,0,-1.3333333,150.66916,30.502667)"/>
    <path id="path38" d="M 14.29785,0 H 41.93748" style="fill:none;stroke:#000000;stroke-width:0.3985;stroke-linecap:butt;stroke-linejoin:miter;stroke-miterlimit:10;stroke-dasharray:none;stroke-opacity:1" transform="matrix(1.3333333,0,0,-1.3333333,170.344,30.502667)"/>
    <path id="path39" d="M -1.19551,1.59401 C -1.09587,0.99626 0,0.09961 0.29886,0 0,-0.09961 -1.09587,-0.99626 -1.19551,-1.59401" style="fill:none;stroke:#000000;stroke-width:0.31879;stroke-linecap:round;stroke-linejoin:round;stroke-miterlimit:10;stroke-dasharray:none;stroke-opacity:1" transform="matrix(1.3333333,0,0,-1.3333333,226.26064,30.502667)"/>
    <path id="path40" d="m 70.99147,0 h 41.93749" style="fill:none;stroke:#000000;stroke-width:0.3985;stroke-linecap:butt;stroke-linejoin:miter;stroke-miterlimit:10;stroke-dasharray:none;stroke-opacity:1" transform="matrix(1.3333333,0,0,-1.3333333,170.344,30.502667)"/>
    <path id="path41" d="M -1.19551,1.59401 C -1.09587,0.99626 0,0.09961 0.29886,0 0,-0.09961 -1.09587,-0.99626 -1.19551,-1.59401" style="fill:none;stroke:#000000;stroke-width:0.31879;stroke-linecap:round;stroke-linejoin:round;stroke-miterlimit:10;stroke-dasharray:none;stroke-opacity:1" transform="matrix(1.3333333,0,0,-1.3333333,320.91595,30.502667)"/>
    <path id="path42" d="M 56.69362,-8.50119 V -42.5202 m -70.99147,0 h -42.39577" style="fill:none;stroke:#000000;stroke-width:0.3985;stroke-linecap:butt;stroke-linejoin:miter;stroke-miterlimit:10;stroke-dasharray:none;stroke-opacity:1" transform="matrix(1.3333333,0,0,-1.3333333,170.344,30.502667)"/>
    <path id="path43" d="M 56.69362,-42.5202 H 14.75613" style="fill:none;stroke:#000000;stroke-width:0.3985;stroke-linecap:butt;stroke-linejoin:miter;stroke-miterlimit:10;stroke-dasharray:none;stroke-opacity:1" transform="matrix(1.3333333,0,0,-1.3333333,170.344,30.502667)"/>
    <path id="path44" d="M -1.19551,1.59401 C -1.09587,0.99626 0,0.09961 0.29886,0 0,-0.09961 -1.09587,-0.99626 -1.19551,-1.59401" style="fill:none;stroke:#000000;stroke-width:0.31879;stroke-linecap:round;stroke-linejoin:round;stroke-miterlimit:10;stroke-dasharray:none;stroke-opacity:1" transform="matrix(-1.3333333,0,0,1.3333333,190.01884,87.196267)"/>
    <path id="path45" d="M -56.69362,-42.5202 V -8.95947" style="fill:none;stroke:#000000;stroke-width:0.3985;stroke-linecap:butt;stroke-linejoin:miter;stroke-miterlimit:10;stroke-dasharray:none;stroke-opacity:1" transform="matrix(1.3333333,0,0,-1.3333333,170.344,30.502667)"/>
    <path id="path46" d="M -1.19551,1.59401 C -1.09587,0.99626 0,0.09961 0.29886,0 0,-0.09961 -1.09587,-0.99626 -1.19551,-1.59401" style="fill:none;stroke:#000000;stroke-width:0.31879;stroke-linecap:round;stroke-linejoin:round;stroke-miterlimit:10;stroke-dasharray:none;stroke-opacity:1" transform="matrix(0,-1.3333333,-1.3333333,0,94.752507,42.448627)"/>
  </g>
</svg>