<?xml version="1.0" encoding="UTF-8" standalone="no"?>
<!-- Created with Inkscape (http://www.inkscape.org/) -->
<svg version="1.1" id="svg1" width="170.61333" height="129.03999" viewBox="0 0 170.61333 129.03999" sodipodi:docname="24-25-1-信号与系统-期中-题图3-1.pdf" xmlns:inkscape="http://www.inkscape.org/namespaces/inkscape" xmlns:sodipodi="http://sodipodi.sourceforge.net/DTD/sodipodi-0.dtd" xmlns="http://www.w3.org/2000/svg" xmlns:svg="http://www.w3.org/2000/svg">
  <defs id="defs1"/>
  <sodipodi:namedview id="namedview1" pagecolor="#ffffff" bordercolor="#000000" borderopacity="0.25" inkscape:showpageshadow="2" inkscape:pageopacity="0.0" inkscape:pagecheckerboard="0" inkscape:deskcolor="#d1d1d1">
    <inkscape:page x="0" y="0" inkscape:label="1" id="page1" width="170.61333" height="129.03999" margin="0" bleed="0"/>
  </sodipodi:namedview>
  <g id="g1" inkscape:groupmode="layer" inkscape:label="1">
    <path id="path1" d="M -22.67752,-14.17339 V 82.20555 H 104.88309 V -14.17339 Z" style="fill:#ffffff;fill-opacity:1;fill-rule:nonzero;stroke:#ffffff;stroke-width:0.3985;stroke-linecap:butt;stroke-linejoin:miter;stroke-miterlimit:10;stroke-dasharray:none;stroke-opacity:1" transform="matrix(1.3333333,0,0,-1.3333333,30.501333,109.87733)"/>
    <path id="path2" d="m 28.34666,-1.99255 v 3.9851" style="fill:none;stroke:#000000;stroke-width:0.3985;stroke-linecap:round;stroke-linejoin:miter;stroke-miterlimit:10;stroke-dasharray:none;stroke-opacity:1" transform="matrix(1.3333333,0,0,-1.3333333,30.501333,109.87733)"/>
    <path id="path3" d="m 56.69334,-1.99255 v 3.9851" style="fill:none;stroke:#000000;stroke-width:0.3985;stroke-linecap:round;stroke-linejoin:miter;stroke-miterlimit:10;stroke-dasharray:none;stroke-opacity:1" transform="matrix(1.3333333,0,0,-1.3333333,30.501333,109.87733)"/>
    <path id="path4" d="m 85.04,-1.99255 v 3.9851" style="fill:none;stroke:#000000;stroke-width:0.3985;stroke-linecap:round;stroke-linejoin:miter;stroke-miterlimit:10;stroke-dasharray:none;stroke-opacity:1" transform="matrix(1.3333333,0,0,-1.3333333,30.501333,109.87733)"/>
    <path id="path5" d="m -1.99255,28.34666 h 3.9851" style="fill:none;stroke:#000000;stroke-width:0.3985;stroke-linecap:round;stroke-linejoin:miter;stroke-miterlimit:10;stroke-dasharray:none;stroke-opacity:1" transform="matrix(1.3333333,0,0,-1.3333333,30.501333,109.87733)"/>
    <path id="path6" d="m -1.99255,56.69334 h 3.9851" style="fill:none;stroke:#000000;stroke-width:0.3985;stroke-linecap:round;stroke-linejoin:miter;stroke-miterlimit:10;stroke-dasharray:none;stroke-opacity:1" transform="matrix(1.3333333,0,0,-1.3333333,30.501333,109.87733)"/>
    <path id="path7" d="M -7.47208,0 H 92.05379" style="fill:none;stroke:#000000;stroke-width:0.3985;stroke-linecap:butt;stroke-linejoin:miter;stroke-miterlimit:10;stroke-dasharray:none;stroke-opacity:1" transform="matrix(1.3333333,0,0,-1.3333333,30.501333,109.87733)"/>
    <path id="path8" d="M -1.19551,1.59401 C -1.09587,0.99626 0,0.09961 0.29886,0 0,-0.09961 -1.09587,-0.99626 -1.19551,-1.59401" style="fill:none;stroke:#000000;stroke-width:0.31879;stroke-linecap:round;stroke-linejoin:round;stroke-miterlimit:10;stroke-dasharray:none;stroke-opacity:1" transform="matrix(1.3333333,0,0,-1.3333333,153.23972,109.87733)"/>
    <path id="path9" d="M 0,-7.47208 V 63.70714" style="fill:none;stroke:#000000;stroke-width:0.3985;stroke-linecap:butt;stroke-linejoin:miter;stroke-miterlimit:10;stroke-dasharray:none;stroke-opacity:1" transform="matrix(1.3333333,0,0,-1.3333333,30.501333,109.87733)"/>
    <path id="path10" d="M -1.19551,1.59401 C -1.09587,0.99626 0,0.09961 0.29886,0 0,-0.09961 -1.09587,-0.99626 -1.19551,-1.59401" style="fill:none;stroke:#000000;stroke-width:0.31879;stroke-linecap:round;stroke-linejoin:round;stroke-miterlimit:10;stroke-dasharray:none;stroke-opacity:1" transform="matrix(0,-1.3333333,-1.3333333,0,30.501333,24.93448)"/>
    <path id="path11" d="M 28.34666,0 49.09784,56.69334 H 85.04 V 0" style="fill:none;stroke:#000000;stroke-width:0.59776;stroke-linecap:butt;stroke-linejoin:miter;stroke-miterlimit:10;stroke-dasharray:none;stroke-opacity:1" transform="matrix(1.3333333,0,0,-1.3333333,30.501333,109.87733)"/>
    <path id="path12" d="m 2.5092344,-5.0728828 c 0,-0.2226563 -0.023437,-0.2226563 -0.234375,-0.2226563 -0.328125,0.3164063 -0.75,0.5039063 -1.51171877,0.5039063 v 0.2695312 c 0.22265625,0 0.64453127,0 1.11328127,-0.2226562 v 4.08984374 c 0,0.29296875 -0.023437,0.3984375 -0.7851563,0.3984375 H 0.81001563 v 0.2578125 c 0.32812497,-0.0234375 1.01953127,-0.0234375 1.37109377,-0.0234375 0.3632812,0 1.0546875,0 1.3828125,0.0234375 v -0.2578125 h -0.28125 c -0.75,0 -0.7734375,-0.10546875 -0.7734375,-0.3984375 z m 0,0" style="fill:#000000;fill-opacity:1;fill-rule:nonzero;stroke:none" aria-label="1" transform="matrix(1.3333333,0,0,1.3333333,65.474667,122.924)"/>
    <path id="path13" d="m 2.2501484,-1.6275703 c 0.1289063,-0.1171875 0.4570313,-0.375 0.5859375,-0.4921875 0.4921875,-0.4570313 0.9609375,-0.890625 0.9609375,-1.6171875 0,-0.9492188 -0.796875,-1.5585938 -1.7929687,-1.5585938 -0.9492188,0 -1.58203126,0.7265625 -1.58203126,1.4296875 0,0.3984375 0.31640625,0.4453125 0.421875,0.4453125 0.16406246,0 0.41015626,-0.1171875 0.41015626,-0.421875 0,-0.4101562 -0.39843751,-0.4101562 -0.49218751,-0.4101562 0.234375,-0.5859375 0.77343751,-0.7851563 1.16015621,-0.7851563 0.7382813,0 1.125,0.6328125 1.125,1.3007813 0,0.8320312 -0.5859375,1.4296875 -1.5234375,2.4023437 l -1.00781246,1.03125004 c -0.09375,0.09375 -0.09375,0.10546875 -0.09375,0.3046875 H 3.5743672 L 3.7970234,-1.4283516 H 3.5509297 c -0.023437,0.1640625 -0.082031,0.56250004 -0.1757813,0.71484379 -0.046875,0.0585938 -0.65625,0.0585938 -0.7851562,0.0585938 H 1.1720234 Z m 0,0" style="fill:#000000;fill-opacity:1;fill-rule:nonzero;stroke:none" aria-label="2" transform="matrix(1.3333333,0,0,1.3333333,103.26933,122.924)"/>
    <path id="path14" d="m 2.0164297,-2.6588203 c 0.6328125,0 1.03125,0.4570312 1.03125,1.3007812 0,0.99609379 -0.5742188,1.28906254 -0.9960938,1.28906254 -0.4335937,0 -1.03125,-0.1640625 -1.31249996,-0.5859375 0.29296876,0 0.49218746,-0.17578125 0.49218746,-0.44531254 0,-0.2578125 -0.1875,-0.4335937 -0.44531246,-0.4335937 -0.2109375,0 -0.43359375,0.1289062 -0.43359375,0.4570312 0,0.75000004 0.80859371,1.24218754 1.72265621,1.24218754 1.0546875,0 1.7929688,-0.7265625 1.7929688,-1.52343754 0,-0.6679687 -0.515625,-1.265625 -1.3359375,-1.4414062 0.6328125,-0.2226563 1.1015625,-0.7734375 1.1015625,-1.40625 0,-0.6328125 -0.7148438,-1.0898438 -1.546875,-1.0898438 -0.8554688,0 -1.50000001,0.4570313 -1.50000001,1.0664063 0,0.2929687 0.19921875,0.421875 0.41015625,0.421875 0.24609376,0 0.41015626,-0.1757813 0.41015626,-0.4101563 0,-0.2929687 -0.2578125,-0.3984375 -0.43359376,-0.4101562 0.33984376,-0.4335938 0.94921876,-0.46875 1.08984376,-0.46875 0.2109375,0 0.8085937,0.070312 0.8085937,0.890625 0,0.5625 -0.2226562,0.890625 -0.3398437,1.0195312 -0.234375,0.2460938 -0.421875,0.2578125 -0.9023438,0.2929688 -0.1523437,0.011719 -0.2226562,0.023437 -0.2226562,0.1171875 0,0.1171875 0.070312,0.1171875 0.2109375,0.1171875 z m 0,0" style="fill:#000000;fill-opacity:1;fill-rule:nonzero;stroke:none" aria-label="3" transform="matrix(1.3333333,0,0,1.3333333,141.06533,122.924)"/>
    <path id="path15" d="m 3.9036484,-2.54375 c 0,-0.8554688 -0.09375,-1.3710938 -0.3515625,-1.875 -0.3515625,-0.703125 -0.9960937,-0.8789063 -1.4414062,-0.8789063 -0.9960938,0 -1.37109376,0.75 -1.47656251,0.9726563 -0.29296875,0.5742187 -0.3046875,1.3710937 -0.3046875,1.78125 0,0.5273437 0.0234375,1.3359375 0.41015625,1.96875 0.36328126,0.5859375 0.94921876,0.73828125 1.37109376,0.73828125 0.3867187,0 1.0664062,-0.1171875 1.4648437,-0.90234375 0.2929688,-0.5742188 0.328125,-1.2890625 0.328125,-1.8046875 z m -1.7929687,2.484375 c -0.2695313,0 -0.8203125,-0.12890625 -0.984375,-0.9609375 -0.09375,-0.4570313 -0.09375,-1.2070313 -0.09375,-1.6171875 0,-0.5507813 0,-1.1132813 0.09375,-1.546875 C 1.2903672,-4.9929688 1.9114609,-5.075 2.1106797,-5.075 c 0.2695312,0 0.8203125,0.1289062 0.984375,0.8554687 0.09375,0.4453125 0.09375,1.0429688 0.09375,1.5820313 0,0.46875 0,1.1835937 -0.09375,1.6289062 -0.1640625,0.84375005 -0.7148438,0.9492188 -0.984375,0.9492188 z m 0,0" style="fill:#000000;fill-opacity:1;fill-rule:nonzero;stroke:none" aria-label="0" transform="matrix(1.3333333,0,0,1.3333333,21.314667,120.26667)"/>
    <path id="path16" d="m 2.507,-5.0733594 c 0,-0.2226562 -0.023437,-0.2226562 -0.234375,-0.2226562 -0.328125,0.3164062 -0.75,0.5039062 -1.51171875,0.5039062 v 0.2695313 c 0.22265625,0 0.64453125,0 1.11328125,-0.2226563 v 4.08984378 c 0,0.29296875 -0.023437,0.3984375 -0.7851563,0.3984375 H 0.80778125 V 8.59375e-4 C 1.1359062,-0.02257812 1.8273125,-0.02257812 2.178875,-0.02257812 c 0.3632812,0 1.0546875,0 1.3828125,0.023437495 V -0.25695312 h -0.28125 c -0.75,0 -0.7734375,-0.10546875 -0.7734375,-0.3984375 z m 0,0" style="fill:#000000;fill-opacity:1;fill-rule:nonzero;stroke:none" aria-label="1" transform="matrix(1.3333333,0,0,1.3333333,18.657333,75.506667)"/>
    <path id="path17" d="m 2.2491875,-1.6287031 c 0.1289062,-0.1171875 0.4570312,-0.375 0.5859375,-0.4921875 0.4921875,-0.4570313 0.9609375,-0.890625 0.9609375,-1.6171875 0,-0.9492188 -0.796875,-1.5585938 -1.7929688,-1.5585938 -0.9492187,0 -1.5820312,0.7265625 -1.5820312,1.4296875 0,0.3984375 0.31640625,0.4453125 0.421875,0.4453125 0.1640625,0 0.4101562,-0.1171875 0.4101562,-0.421875 0,-0.4101562 -0.39843745,-0.4101562 -0.49218745,-0.4101562 0.234375,-0.5859375 0.77343745,-0.7851563 1.16015625,-0.7851563 0.7382812,0 1.125,0.6328125 1.125,1.3007813 0,0.8320312 -0.5859375,1.4296875 -1.5234375,2.4023437 l -1.0078125,1.03125003 c -0.09375,0.09375 -0.09375,0.10546875 -0.09375,0.304687495 H 3.5734062 L 3.7960625,-1.4294844 H 3.5499687 c -0.023437,0.1640625 -0.082031,0.56250003 -0.1757812,0.71484378 -0.046875,0.0585938 -0.65625,0.0585938 -0.7851563,0.0585938 H 1.1710625 Z m 0,0" style="fill:#000000;fill-opacity:1;fill-rule:nonzero;stroke:none" aria-label="2" transform="matrix(1.3333333,0,0,1.3333333,18.657333,37.710667)"/>
    <path id="path18" d="m 1.9093828,-3.5859219 h 0.8554688 c 0.1523437,0 0.2695312,0 0.2695312,-0.1640625 0,-0.1171875 -0.09375,-0.1171875 -0.2578125,-0.1171875 h -0.796875 l 0.3632813,-1.4882812 c 0,-0.140625 -0.1171875,-0.2578125 -0.2695313,-0.2578125 -0.2929687,0 -0.3632812,0.2578125 -0.375,0.3515625 L 1.3351641,-3.8671719 H 0.49141406 c -0.1640625,0 -0.28125,0 -0.28125,0.1640625 0,0.1171875 0.10546875,0.1171875 0.26953125,0.1171875 H 1.2765703 l -0.60937499,2.4375 c -0.0820313,0.26953128 -0.0820313,0.29296878 -0.0820313,0.41015628 0,0.52734375 0.41015625,0.83203125 0.87890619,0.83203125 0.9257814,0 1.453125,-1.28906253 1.453125,-1.37109373 0,-0.046875 -0.023437,-0.1171875 -0.1171875,-0.1171875 -0.082031,0 -0.09375,0.035156 -0.1523436,0.1875 -0.28125,0.64453123 -0.7265626,1.07812498 -1.1718751,1.07812498 -0.1757813,0 -0.28125,-0.1171875 -0.28125,-0.41015625 0,-0.19921875 0.023437,-0.3046875 0.058594,-0.43359375 z m 0,0" style="fill:#000000;fill-opacity:1;fill-rule:nonzero;stroke:none" aria-label="t" transform="matrix(1.3333333,0,0,1.3333333,158.544,113.55467)"/>
    <g id="g18" aria-label="f(5−2t)" transform="matrix(1.3333333,0,0,1.3333333,6.22,16.641333)">
      <path id="path19" d="m 3.350625,-3.5864687 h 0.8085938 c 0.1757812,0 0.2695312,0 0.2695312,-0.1640625 0,-0.1171875 -0.09375,-0.1171875 -0.2578125,-0.1171875 H 3.4092188 c 0.09375,-0.5390625 0.2226562,-1.265625 0.3398437,-1.7578125 0.082031,-0.3398438 0.2929688,-0.46875 0.46875,-0.46875 0.058594,0 0.2578125,0.011719 0.421875,0.1289062 -0.1875,0.035156 -0.4453125,0.1875 -0.4453125,0.4921875 0,0.2226563 0.1757813,0.3164063 0.3398438,0.3164063 0.2460937,0 0.4921875,-0.1992188 0.4921875,-0.5390625 0,-0.3984375 -0.3867188,-0.6210938 -0.8085938,-0.6210938 -0.4101562,0 -0.8085937,0.28125 -0.9960937,0.65625 -0.1992188,0.375 -0.2695313,0.7265625 -0.4570313,1.7929688 H 2.1201563 c -0.1640625,0 -0.2695313,0 -0.2695313,0.1640625 0,0.1171875 0.09375,0.1171875 0.2578125,0.1171875 h 0.609375 C 2.46,-2.2856875 2.1553125,-0.49271875 1.9560938,0.4330625 1.850625,0.93696875 1.6982813,1.6166563 1.2764063,1.6166563 1.1357813,1.6166563 0.96,1.5580625 0.86625,1.48775 1.0889063,1.4525938 1.3115625,1.2650938 1.3115625,0.9955625 c 0,-0.22265625 -0.1640625,-0.328125 -0.33984375,-0.328125 -0.234375,0 -0.4921875,0.19921875 -0.4921875,0.5390625 0,0.4101563 0.41015625,0.6328125 0.79687505,0.6328125 0.9140625,0 1.3359375,-1.48828125 1.4765625,-2.26171875 z m 0,0" style="fill:#000000;fill-opacity:1;fill-rule:nonzero;stroke:none"/>
      <path id="path20" d="m 8.506875,2.1322813 c 0,-0.046875 -0.023437,-0.070312 -0.082031,-0.1289063 C 7.2646875,0.93696875 6.913125,-0.6685 6.913125,-2.2388125 c 0,-1.3945312 0.2695313,-3.0820312 1.5351563,-4.2773437 0.035156,-0.035156 0.058594,-0.070312 0.058594,-0.1054688 0,-0.070312 -0.046875,-0.1054687 -0.1054687,-0.1054687 -0.1054688,0 -0.9140625,0.6445312 -1.40625,1.6289062 -0.421875,0.8554688 -0.6445313,1.78125 -0.6445313,2.8476563 0,0.6445312 0.082031,1.66406245 0.5742188,2.7304687 0.5273437,1.1015625 1.3710937,1.7460938 1.4765625,1.7460938 0.058594,0 0.1054687,-0.035156 0.1054684,-0.09375 z m 1.4560547,-5.2265625 c 0,0.1640625 0,0.2578125 0.1171873,0.2578125 0.07031,0 0.105469,-0.035156 0.152344,-0.1171875 0.269531,-0.375 0.703125,-0.5859375 1.171875,-0.5859375 0.960937,0 0.960937,1.3828125 0.960937,1.6992187 0,0.28125 0,0.8320313 -0.257812,1.2421875 -0.234375,0.375 -0.621094,0.5390625 -0.960938,0.5390625 -0.539062,0 -1.136718,-0.328125 -1.3476558,-0.9960937 0.011719,0 0.058594,0.023437 0.1171875,0.023437 0.1875003,0 0.4453123,-0.1171875 0.4453123,-0.4335938 0,-0.28125 -0.199219,-0.4453125 -0.4453123,-0.4453125 -0.1875,0 -0.4335938,0.1054688 -0.4335938,0.46875 0,0.80859375 0.6796871,1.640625 1.6757811,1.640625 1.089844,0 2.003906,-0.87890625 2.003906,-1.9921875 0,-1.0898437 -0.761718,-1.96875 -1.746093,-1.96875 -0.421875,0 -0.867188,0.140625 -1.183594,0.4570313 v -1.7578125 c 0.269531,0.082031 0.550781,0.1171875 0.832031,0.1171875 1.101563,0 1.746094,-0.796875 1.746094,-0.9140625 0,-0.070312 -0.05859,-0.1054688 -0.105469,-0.1054688 -0.01172,0 -0.03516,0 -0.117187,0.035156 -0.410157,0.1757812 -0.832032,0.2460937 -1.207032,0.2460937 -0.386718,0 -0.785156,-0.070312 -1.195312,-0.2460937 -0.09375,-0.035156 -0.105469,-0.035156 -0.117188,-0.035156 -0.1054683,0 -0.1054683,0.082031 -0.1054683,0.234375 z m 0,0" style="fill:#000000;fill-opacity:1;fill-rule:nonzero;stroke:none"/>
      <path id="path21" d="m 21.734414,-2.0513125 c 0.164063,0 0.339844,0 0.339844,-0.1992187 0,-0.1875 -0.1875,-0.1875 -0.339844,-0.1875 h -4.945312 c -0.152344,0 -0.328125,0 -0.328125,0.1875 0,0.1992187 0.164062,0.1992187 0.328125,0.1992187 z m 0,0" style="fill:#000000;fill-opacity:1;fill-rule:nonzero;stroke:none"/>
      <path id="path22" d="m 29.041055,-1.5825625 h -0.246094 c -0.02344,0.1171875 -0.09375,0.64453125 -0.210938,0.78515625 -0.04687,0.0820313 -0.667968,0.0820313 -0.84375,0.0820313 h -1.59375 L 27.02543,-1.559125 c 1.476562,-1.2773437 2.015625,-1.7460937 2.015625,-2.6601562 0,-1.03125 -0.84375,-1.7460937 -1.945313,-1.7460937 -1.03125,0 -1.734375,0.8085937 -1.734375,1.6289062 0,0.4453125 0.386719,0.4921875 0.46875,0.4921875 0.199219,0 0.46875,-0.140625 0.46875,-0.46875 0,-0.2695312 -0.1875,-0.46875 -0.46875,-0.46875 -0.04687,0 -0.07031,0 -0.105469,0.011719 0.210938,-0.6328125 0.785157,-0.9257813 1.265625,-0.9257813 0.914063,0 1.230469,0.8554688 1.230469,1.4765625 0,0.9140625 -0.691406,1.6523437 -1.125,2.1210937 l -1.640625,1.7695313 c -0.09375,0.10546875 -0.09375,0.1171875 -0.09375,0.328125 h 3.433594 z m 0,0" style="fill:#000000;fill-opacity:1;fill-rule:nonzero;stroke:none"/>
      <path id="path23" d="m 31.419961,-3.5864687 h 0.855469 c 0.152343,0 0.269531,0 0.269531,-0.1640625 0,-0.1171875 -0.09375,-0.1171875 -0.257813,-0.1171875 H 31.490273 L 31.853555,-5.356 c 0,-0.140625 -0.117188,-0.2578125 -0.269532,-0.2578125 -0.292968,0 -0.363281,0.2578125 -0.375,0.3515625 l -0.363281,1.3945313 h -0.84375 c -0.164062,0 -0.28125,0 -0.28125,0.1640625 0,0.1171875 0.105469,0.1171875 0.269531,0.1171875 h 0.796875 l -0.609375,2.4375 c -0.08203,0.2695312 -0.08203,0.2929687 -0.08203,0.4101562 0,0.52734375 0.410156,0.83203125 0.878906,0.83203125 0.925782,0 1.453125,-1.28906245 1.453125,-1.37109375 0,-0.046875 -0.02344,-0.1171875 -0.117187,-0.1171875 -0.08203,0 -0.09375,0.035156 -0.152344,0.1875 -0.28125,0.64453125 -0.726562,1.078125 -1.171875,1.078125 -0.175781,0 -0.28125,-0.1171875 -0.28125,-0.41015625 0,-0.19921875 0.02344,-0.3046875 0.05859,-0.43359375 z m 0,0" style="fill:#000000;fill-opacity:1;fill-rule:nonzero;stroke:none"/>
      <path id="path24" d="m 35.509805,-2.2505312 c 0,-0.7382813 -0.105469,-1.7226563 -0.574219,-2.71875 -0.527344,-1.1015625 -1.359375,-1.7578125 -1.464844,-1.7578125 -0.09375,0 -0.117187,0.070312 -0.117187,0.1054687 0,0.035156 0.02344,0.070312 0.08203,0.1289063 0.527344,0.46875 1.511719,1.6875 1.511719,4.2421875 0,1.2773437 -0.234375,3.07031245 -1.535157,4.2773437 -0.02344,0.023437 -0.05859,0.058594 -0.05859,0.1054688 0,0.023437 0.02344,0.09375 0.117187,0.09375 0.105469,0 0.914063,-0.6445313 1.394531,-1.61718755 0.433594,-0.85546875 0.644532,-1.78124995 0.644532,-2.85937495 z m 0,0" style="fill:#000000;fill-opacity:1;fill-rule:nonzero;stroke:none"/>
    </g>
  </g>
</svg>