<?xml version="1.0" encoding="UTF-8" standalone="no"?>
<!-- Created with Inkscape (http://www.inkscape.org/) -->
<svg version="1.1" id="svg1" width="363.35999" height="170.61333" viewBox="0 0 363.35999 170.61333" sodipodi:docname="24-25-1-信号与系统-期中-题图7.pdf" xmlns:inkscape="http://www.inkscape.org/namespaces/inkscape" xmlns:sodipodi="http://sodipodi.sourceforge.net/DTD/sodipodi-0.dtd" xmlns="http://www.w3.org/2000/svg" xmlns:svg="http://www.w3.org/2000/svg">
  <defs id="defs1"/>
  <sodipodi:namedview id="namedview1" pagecolor="#ffffff" bordercolor="#000000" borderopacity="0.25" inkscape:showpageshadow="2" inkscape:pageopacity="0.0" inkscape:pagecheckerboard="0" inkscape:deskcolor="#d1d1d1">
    <inkscape:page x="0" y="0" inkscape:label="1" id="page1" width="363.35999" height="170.61333" margin="0" bleed="0"/>
  </sodipodi:namedview>
  <g id="g1" inkscape:groupmode="layer" inkscape:label="1">
    <path id="path1" d="M -17.00824,-65.19774 V 62.36288 H 255.12128 V -65.19774 Z" style="fill:#ffffff;fill-opacity:1;fill-rule:nonzero;stroke:#ffffff;stroke-width:0.3985;stroke-linecap:butt;stroke-linejoin:miter;stroke-miterlimit:10;stroke-dasharray:none;stroke-opacity:1" transform="matrix(1.3333333,0,0,-1.3333333,22.942667,83.418667)"/>
    <path id="path2" d="m 34.0156,-1.99255 v 3.9851" style="fill:none;stroke:#000000;stroke-width:0.3985;stroke-linecap:round;stroke-linejoin:miter;stroke-miterlimit:10;stroke-dasharray:none;stroke-opacity:1" transform="matrix(1.3333333,0,0,-1.3333333,22.942667,83.418667)"/>
    <path id="path3" d="m 56.69266,-1.99255 v 3.9851" style="fill:none;stroke:#000000;stroke-width:0.3985;stroke-linecap:round;stroke-linejoin:miter;stroke-miterlimit:10;stroke-dasharray:none;stroke-opacity:1" transform="matrix(1.3333333,0,0,-1.3333333,22.942667,83.418667)"/>
    <path id="path4" d="m 79.36972,-1.99255 v 3.9851" style="fill:none;stroke:#000000;stroke-width:0.3985;stroke-linecap:round;stroke-linejoin:miter;stroke-miterlimit:10;stroke-dasharray:none;stroke-opacity:1" transform="matrix(1.3333333,0,0,-1.3333333,22.942667,83.418667)"/>
    <path id="path5" d="M -13.14133,0 H 97.72205" style="fill:none;stroke:#000000;stroke-width:0.3985;stroke-linecap:butt;stroke-linejoin:miter;stroke-miterlimit:10;stroke-dasharray:none;stroke-opacity:1" transform="matrix(1.3333333,0,0,-1.3333333,22.942667,83.418667)"/>
    <path id="path6" d="M -1.19551,1.59401 C -1.09587,0.99626 0,0.09961 0.29886,0 0,-0.09961 -1.09587,-0.99626 -1.19551,-1.59401" style="fill:none;stroke:#000000;stroke-width:0.31879;stroke-linecap:round;stroke-linejoin:round;stroke-miterlimit:10;stroke-dasharray:none;stroke-opacity:1" transform="matrix(1.3333333,0,0,-1.3333333,153.23873,83.418667)"/>
    <path id="path7" d="M 0,-7.47208 V 46.6987" style="fill:none;stroke:#000000;stroke-width:0.3985;stroke-linecap:butt;stroke-linejoin:miter;stroke-miterlimit:10;stroke-dasharray:none;stroke-opacity:1" transform="matrix(1.3333333,0,0,-1.3333333,22.942667,83.418667)"/>
    <path id="path8" d="M -1.19551,1.59401 C -1.09587,0.99626 0,0.09961 0.29886,0 0,-0.09961 -1.09587,-0.99626 -1.19551,-1.59401" style="fill:none;stroke:#000000;stroke-width:0.31879;stroke-linecap:round;stroke-linejoin:round;stroke-miterlimit:10;stroke-dasharray:none;stroke-opacity:1" transform="matrix(0,-1.3333333,-1.3333333,0,22.942667,21.153733)"/>
    <path id="path9" d="m 175.74963,-1.99255 v 3.9851" style="fill:none;stroke:#000000;stroke-width:0.3985;stroke-linecap:round;stroke-linejoin:miter;stroke-miterlimit:10;stroke-dasharray:none;stroke-opacity:1" transform="matrix(1.3333333,0,0,-1.3333333,22.942667,83.418667)"/>
    <path id="path10" d="m 198.4267,-1.99255 v 3.9851" style="fill:none;stroke:#000000;stroke-width:0.3985;stroke-linecap:round;stroke-linejoin:miter;stroke-miterlimit:10;stroke-dasharray:none;stroke-opacity:1" transform="matrix(1.3333333,0,0,-1.3333333,22.942667,83.418667)"/>
    <path id="path11" d="m 221.10378,-1.99255 v 3.9851" style="fill:none;stroke:#000000;stroke-width:0.3985;stroke-linecap:round;stroke-linejoin:miter;stroke-miterlimit:10;stroke-dasharray:none;stroke-opacity:1" transform="matrix(1.3333333,0,0,-1.3333333,22.942667,83.418667)"/>
    <path id="path12" d="M 128.59271,0 H 239.4561" style="fill:none;stroke:#000000;stroke-width:0.3985;stroke-linecap:butt;stroke-linejoin:miter;stroke-miterlimit:10;stroke-dasharray:none;stroke-opacity:1" transform="matrix(1.3333333,0,0,-1.3333333,22.942667,83.418667)"/>
    <path id="path13" d="M -1.19551,1.59401 C -1.09587,0.99626 0,0.09961 0.29886,0 0,-0.09961 -1.09587,-0.99626 -1.19551,-1.59401" style="fill:none;stroke:#000000;stroke-width:0.31879;stroke-linecap:round;stroke-linejoin:round;stroke-miterlimit:10;stroke-dasharray:none;stroke-opacity:1" transform="matrix(1.3333333,0,0,-1.3333333,342.21747,83.418667)"/>
    <path id="path14" d="M 141.73404,-7.47208 V 46.6987" style="fill:none;stroke:#000000;stroke-width:0.3985;stroke-linecap:butt;stroke-linejoin:miter;stroke-miterlimit:10;stroke-dasharray:none;stroke-opacity:1" transform="matrix(1.3333333,0,0,-1.3333333,22.942667,83.418667)"/>
    <path id="path15" d="M -1.19551,1.59401 C -1.09587,0.99626 0,0.09961 0.29886,0 0,-0.09961 -1.09587,-0.99626 -1.19551,-1.59401" style="fill:none;stroke:#000000;stroke-width:0.31879;stroke-linecap:round;stroke-linejoin:round;stroke-miterlimit:10;stroke-dasharray:none;stroke-opacity:1" transform="matrix(0,-1.3333333,-1.3333333,0,211.92139,21.153733)"/>
    <g id="g15" aria-label="3ω&#xA;1" transform="matrix(1.3333333,0,0,1.3333333,59.196,96.465333)">
      <path id="path16" d="m 2.0151094,-2.6605234 c 0.6328125,0 1.03125,0.4570312 1.03125,1.3007812 0,0.99609376 -0.5742188,1.28906251 -0.9960938,1.28906251 -0.4335937,0 -1.03125,-0.1640625 -1.31249997,-0.5859375 0.29296877,0 0.49218747,-0.17578125 0.49218747,-0.44531251 0,-0.2578125 -0.1875,-0.4335937 -0.44531247,-0.4335937 -0.2109375,0 -0.43359375,0.1289062 -0.43359375,0.4570312 0,0.75000001 0.80859372,1.24218751 1.72265622,1.24218751 1.0546875,0 1.7929688,-0.7265625 1.7929688,-1.52343751 0,-0.6679687 -0.515625,-1.265625 -1.3359375,-1.4414062 0.6328125,-0.2226563 1.1015625,-0.7734375 1.1015625,-1.40625 0,-0.6328125 -0.7148438,-1.0898438 -1.546875,-1.0898438 -0.8554688,0 -1.50000002,0.4570313 -1.50000002,1.0664063 0,0.2929687 0.19921875,0.421875 0.41015625,0.421875 0.24609377,0 0.41015627,-0.1757813 0.41015627,-0.4101563 0,-0.2929687 -0.2578125,-0.3984375 -0.43359377,-0.4101562 0.33984377,-0.4335938 0.94921877,-0.46875 1.08984377,-0.46875 0.2109375,0 0.8085937,0.070312 0.8085937,0.890625 0,0.5625 -0.2226562,0.890625 -0.3398437,1.0195312 -0.234375,0.2460938 -0.421875,0.2578125 -0.9023438,0.2929688 -0.1523437,0.011719 -0.2226562,0.023437 -0.2226562,0.1171875 0,0.1171875 0.070312,0.1171875 0.2109375,0.1171875 z m 0,0" style="fill:#000000;fill-opacity:1;fill-rule:nonzero;stroke:none"/>
      <path id="path17" d="m 9.3422578,-2.9183359 c 0,-0.2460938 -0.070312,-0.609375 -0.3867187,-0.609375 -0.2109375,0 -0.421875,0.1992187 -0.421875,0.421875 0,0.1289062 0.09375,0.1992187 0.1757812,0.28125 0.1171875,0.1171875 0.2460938,0.3164062 0.2460938,0.6210937 0,0.5273438 -0.5507813,1.66406251 -1.3476563,1.66406251 -0.421875,0 -0.703125,-0.24609375 -0.796875,-0.63281251 0.1289063,-0.2695312 0.2929688,-0.703125 0.2929688,-0.9375 0,-0.1289062 -0.070312,-0.234375 -0.2226563,-0.234375 -0.3515625,0 -0.3984375,0.890625 -0.3984375,1.1367188 -0.28125,0.33984371 -0.609375,0.66796871 -1.0664062,0.66796871 -0.515625,0 -0.75,-0.41015625 -0.75,-0.87890621 0,-0.375 0.1054687,-0.7148438 0.2578125,-1.0195313 0.234375,-0.46875 0.5390625,-0.7617187 0.5390625,-0.890625 0,-0.09375 -0.070312,-0.1523437 -0.1523438,-0.1523437 -0.1523437,0 -0.2695312,0.234375 -0.3632812,0.375 -0.3398438,0.5625 -0.5859375,1.3007812 -0.5859375,1.96875 0,0.60937496 0.234375,1.20703121 0.9257812,1.20703121 0.6914063,0 1.078125,-0.55078125 1.2539063,-0.7734375 0.1171875,0.4453125 0.4453125,0.78515625 0.9375,0.78515625 0.65625,0 0.9726562,-0.421875 1.3007812,-0.97265625 0.2578125,-0.42187501 0.5625,-1.52343751 0.5625,-2.02734371 z m 0,0" style="fill:#000000;fill-opacity:1;fill-rule:nonzero;stroke:none"/>
      <path id="path18" d="m 11.644992,-2.6898203 c 0,-0.1757813 -0.02344,-0.1757813 -0.199219,-0.1757813 -0.398437,0.375 -1.007812,0.375 -1.21875,0.375 v 0.234375 c 0.152344,0 0.550782,0 0.902344,-0.1640625 v 3.02343754 c 0,0.1875 0,0.26953125 -0.609375,0.26953125 H 10.26218 V 1.1070547 c 0.328125,-0.023437 0.796875,-0.023437 1.125,-0.023437 0.339843,0 0.796875,0 1.136718,0.023437 V 0.87267969 h -0.257812 c -0.621094,0 -0.621094,-0.0820313 -0.621094,-0.26953125 z m 0,0" style="fill:#000000;fill-opacity:1;fill-rule:nonzero;stroke:none"/>
    </g>
    <g id="g18" aria-label="5ω&#xA;1" transform="matrix(1.3333333,0,0,1.3333333,89.432,96.465333)">
      <path id="path19" d="m 1.1144766,-4.4769297 c 0.1054687,0.035156 0.421875,0.1054688 0.7617187,0.1054688 0.9960938,0 1.59375,-0.6914063 1.59375,-0.8203125 0,-0.082031 -0.046875,-0.1054688 -0.09375,-0.1054688 -0.011719,0 -0.023437,0 -0.1054687,0.035156 -0.3046875,0.1171875 -0.6679688,0.2226562 -1.1015625,0.2226562 -0.46875,0 -0.8554688,-0.1289062 -1.1132813,-0.2226562 -0.0703125,-0.035156 -0.09375,-0.035156 -0.09375,-0.035156 -0.10546875,0 -0.10546875,0.082031 -0.10546875,0.234375 v 2.3320313 c 0,0.140625 0,0.234375 0.12890625,0.234375 0.0585938,0 0.0820313,-0.035156 0.1289063,-0.09375 0.09375,-0.1171875 0.3984375,-0.5273438 1.0664062,-0.5273438 0.4453125,0 0.6679688,0.3632813 0.7382813,0.515625 0.1289062,0.2929688 0.1523437,0.65625 0.1523437,0.9726563 0,0.2929687 -0.011719,0.71484371 -0.234375,1.06640621 -0.1523437,0.24609375 -0.46875,0.4921875 -0.890625,0.4921875 -0.515625,0 -1.03125,-0.328125 -1.20703125,-0.84375 0.0234375,0 0.0703125,0 0.0703125,0 0.22265625,0 0.39843755,-0.14062501 0.39843755,-0.38671871 0,-0.2929688 -0.2226563,-0.3984375 -0.3867188,-0.3984375 -0.140625,0 -0.3984375,0.082031 -0.3984375,0.421875 0,0.71484371 0.6210938,1.44140621 1.5351563,1.44140621 0.9960937,0 1.8398437,-0.7734375 1.8398437,-1.75781251 0,-0.9257812 -0.6679687,-1.7460937 -1.6054687,-1.7460937 -0.3984375,0 -0.7734375,0.1289062 -1.078125,0.3984375 z m 0,0" style="fill:#000000;fill-opacity:1;fill-rule:nonzero;stroke:none"/>
      <path id="path20" d="m 9.3439688,-2.9183359 c 0,-0.2460938 -0.070312,-0.609375 -0.3867188,-0.609375 -0.2109375,0 -0.421875,0.1992187 -0.421875,0.421875 0,0.1289062 0.09375,0.1992187 0.1757813,0.28125 0.1171875,0.1171875 0.2460937,0.3164062 0.2460937,0.6210937 0,0.5273438 -0.5507812,1.66406251 -1.3476562,1.66406251 -0.421875,0 -0.703125,-0.24609375 -0.796875,-0.63281251 0.1289062,-0.2695312 0.2929687,-0.703125 0.2929687,-0.9375 0,-0.1289062 -0.070312,-0.234375 -0.2226562,-0.234375 -0.3515625,0 -0.3984375,0.890625 -0.3984375,1.1367188 -0.28125,0.33984371 -0.609375,0.66796871 -1.0664063,0.66796871 -0.515625,0 -0.75,-0.41015625 -0.75,-0.87890621 0,-0.375 0.1054688,-0.7148438 0.2578125,-1.0195313 0.234375,-0.46875 0.5390625,-0.7617187 0.5390625,-0.890625 0,-0.09375 -0.070312,-0.1523437 -0.1523437,-0.1523437 -0.1523438,0 -0.2695313,0.234375 -0.3632813,0.375 -0.3398437,0.5625 -0.5859375,1.3007812 -0.5859375,1.96875 0,0.60937496 0.234375,1.20703121 0.9257813,1.20703121 0.6914062,0 1.078125,-0.55078125 1.2539062,-0.7734375 0.1171875,0.4453125 0.4453125,0.78515625 0.9375,0.78515625 0.65625,0 0.9726563,-0.421875 1.3007813,-0.97265625 0.2578125,-0.42187501 0.5625,-1.52343751 0.5625,-2.02734371 z m 0,0" style="fill:#000000;fill-opacity:1;fill-rule:nonzero;stroke:none"/>
      <path id="path21" d="m 11.643773,-2.6898203 c 0,-0.1757813 -0.02344,-0.1757813 -0.199218,-0.1757813 -0.398438,0.375 -1.007813,0.375 -1.21875,0.375 v 0.234375 c 0.152343,0 0.550781,0 0.902343,-0.1640625 v 3.02343754 c 0,0.1875 0,0.26953125 -0.609375,0.26953125 H 10.260961 V 1.1070547 c 0.328125,-0.023437 0.796875,-0.023437 1.125,-0.023437 0.339844,0 0.796875,0 1.136719,0.023437 V 0.87267969 h -0.257813 c -0.621094,0 -0.621094,-0.0820313 -0.621094,-0.26953125 z m 0,0" style="fill:#000000;fill-opacity:1;fill-rule:nonzero;stroke:none"/>
    </g>
    <g id="g21" aria-label="7ω&#xA;1" transform="matrix(1.3333333,0,0,1.3333333,119.668,96.465333)">
      <path id="path22" d="m 4.0312266,-4.8519297 c 0.070312,-0.09375 0.070312,-0.1054687 0.070312,-0.28125 H 2.0741953 c -0.1992187,0 -0.4453125,-0.011719 -0.6445312,-0.023437 -0.4101563,-0.035156 -0.421875,-0.1054687 -0.44531254,-0.234375 H 0.73825781 l -0.26953125,1.6875 h 0.24609375 c 0.0234375,-0.1171875 0.10546875,-0.6679687 0.22265625,-0.7382812 0.0820312,-0.035156 0.67968754,-0.035156 0.79687504,-0.035156 h 1.6875 l -0.8203125,1.1015625 c -0.9023438,1.2070313 -1.0898438,2.46093751 -1.0898438,3.09375001 0,0.0820313 0,0.4453125 0.3632813,0.4453125 0.375,0 0.375,-0.3515625 0.375,-0.4453125 v -0.38671875 c 0,-1.14843746 0.1992187,-2.08593746 0.5859375,-2.60156246 z m 0,0" style="fill:#000000;fill-opacity:1;fill-rule:nonzero;stroke:none"/>
      <path id="path23" d="m 9.34275,-2.9183359 c 0,-0.2460938 -0.070312,-0.609375 -0.3867188,-0.609375 -0.2109375,0 -0.421875,0.1992187 -0.421875,0.421875 0,0.1289062 0.09375,0.1992187 0.1757813,0.28125 0.1171875,0.1171875 0.2460937,0.3164062 0.2460937,0.6210937 0,0.5273438 -0.5507812,1.66406251 -1.3476562,1.66406251 -0.421875,0 -0.703125,-0.24609375 -0.796875,-0.63281251 0.1289062,-0.2695312 0.2929687,-0.703125 0.2929687,-0.9375 0,-0.1289062 -0.070312,-0.234375 -0.2226562,-0.234375 -0.3515625,0 -0.3984375,0.890625 -0.3984375,1.1367188 -0.28125,0.33984371 -0.609375,0.66796871 -1.0664063,0.66796871 -0.515625,0 -0.75,-0.41015625 -0.75,-0.87890621 0,-0.375 0.1054688,-0.7148438 0.2578125,-1.0195313 0.234375,-0.46875 0.5390625,-0.7617187 0.5390625,-0.890625 0,-0.09375 -0.070312,-0.1523437 -0.1523437,-0.1523437 -0.1523438,0 -0.2695313,0.234375 -0.3632813,0.375 -0.3398437,0.5625 -0.5859375,1.3007812 -0.5859375,1.96875 0,0.60937496 0.234375,1.20703121 0.9257813,1.20703121 0.6914062,0 1.078125,-0.55078125 1.2539062,-0.7734375 0.1171875,0.4453125 0.4453125,0.78515625 0.9375,0.78515625 0.65625,0 0.9726563,-0.421875 1.3007813,-0.97265625 0.2578125,-0.42187501 0.5625,-1.52343751 0.5625,-2.02734371 z m 0,0" style="fill:#000000;fill-opacity:1;fill-rule:nonzero;stroke:none"/>
      <path id="path24" d="m 11.645484,-2.6898203 c 0,-0.1757813 -0.02344,-0.1757813 -0.199218,-0.1757813 -0.398438,0.375 -1.007813,0.375 -1.21875,0.375 v 0.234375 c 0.152343,0 0.550781,0 0.902343,-0.1640625 v 3.02343754 c 0,0.1875 0,0.26953125 -0.609375,0.26953125 H 10.262672 V 1.1070547 c 0.328125,-0.023437 0.796875,-0.023437 1.125,-0.023437 0.339844,0 0.796875,0 1.136719,0.023437 V 0.87267969 h -0.257813 c -0.621094,0 -0.621094,-0.0820313 -0.621094,-0.26953125 z m 0,0" style="fill:#000000;fill-opacity:1;fill-rule:nonzero;stroke:none"/>
    </g>
    <path id="path25" d="m 5.5783516,-3.3162656 c 0,-0.2578125 -0.09375,-0.6445313 -0.4101563,-0.6445313 -0.234375,0 -0.4570312,0.2226563 -0.4570312,0.4453125 0,0.140625 0.035156,0.1640625 0.1171875,0.234375 0.1171875,0.1171875 0.328125,0.3398438 0.328125,0.7851563 0,0.5507812 -0.5742188,1.93359372 -1.4882813,1.93359372 -0.5039062,0 -0.7851562,-0.36328125 -0.8789062,-0.73828122 0,-0.1171875 0.3164062,-0.7617188 0.3164062,-1.0898438 0,-0.1171875 -0.070312,-0.2226562 -0.1992187,-0.2226562 -0.070312,0 -0.1523438,0.035156 -0.2109375,0.09375 -0.1640625,0.2109375 -0.2460938,0.9375 -0.2460938,1.1601562 -0.2929687,0.42187502 -0.6796875,0.78515627 -1.2070312,0.78515627 -0.58593754,0 -0.79687504,-0.49218747 -0.79687504,-1.00781247 0,-0.6796875 0.28125,-1.2773438 0.84375004,-2.0273438 0.058594,-0.070312 0.058594,-0.1054687 0.058594,-0.1523437 0,-0.082031 -0.082031,-0.1523438 -0.1640625,-0.1523438 -0.09375,0 -0.1640625,0.070312 -0.21093749,0.140625 -0.4921875,0.6914063 -0.84375,1.6875 -0.84375,2.5429688 0,0.69140622 0.234375,1.32421872 1.03124999,1.32421872 0.5625,0 1.0664063,-0.48046875 1.3359375,-0.890625 0.1171875,0.36328125 0.3398438,0.890625 1.0546875,0.890625 0.6914063,0 1.1484375,-0.5625 1.4882813,-1.26562502 0.1640625,-0.3515625 0.28125,-0.7382812 0.3632812,-1.1015625 0.09375,-0.3984375 0.1757813,-0.7617187 0.175781,-1.0429687 z m 0,0" style="fill:#000000;fill-opacity:1;fill-rule:nonzero;stroke:none" aria-label="ω" transform="matrix(1.3333333,0,0,1.3333333,158.54267,85.992)"/>
    <g id="g25" aria-label="C&#xA;n" transform="matrix(1.3333333,0,0,1.3333333,15.158667,14.521333)">
      <path id="path26" d="m 6.9386172,-6.0833828 c 0.023437,-0.1054688 0.023437,-0.1171875 0.023437,-0.140625 0,-0.011719 0,-0.09375 -0.1054688,-0.09375 -0.046875,0 -0.082031,0.023437 -0.140625,0.09375 l -0.5507812,0.5976562 c -0.035156,0.046875 -0.070312,0.082031 -0.082031,0.082031 0,0 -0.011719,-0.011719 -0.070312,-0.070312 -0.1289062,-0.1757813 -0.5390625,-0.703125 -1.4648437,-0.703125 -2.0507813,0 -4.08984376,1.9921875 -4.08984376,4.03125 0,1.46484374 1.06640626,2.48437499 2.50781246,2.48437499 0.9375,0 1.6757813,-0.48046875 2.015625,-0.796875 0.8203125,-0.72656249 0.9726563,-1.52343749 0.9726563,-1.55859379 0,-0.035156 -0.023437,-0.09375 -0.1289063,-0.09375 -0.09375,0 -0.1171875,0.058594 -0.1171875,0.09375 -0.4453125,1.44140629 -1.7226562,2.07421879 -2.625,2.07421879 -0.8671875,0 -1.7929687,-0.52734375 -1.7929687,-1.88671879 0,-0.3984375 0.140625,-1.8164062 1.0429687,-2.9179687 0.5390625,-0.6445313 1.4179688,-1.1601563 2.2734375,-1.1601563 0.9960938,0 1.5234375,0.7617188 1.5234375,1.7578125 0,0.3046875 -0.023437,0.3632813 -0.023437,0.4335938 0,0.09375 0.1054688,0.09375 0.1289063,0.09375 0.1171875,0 0.1171875,-0.011719 0.1640625,-0.1875 z m 0,0" style="fill:#000000;fill-opacity:1;fill-rule:nonzero;stroke:none"/>
      <path id="path27" d="m 8.3243594,-1.0648281 c -0.023437,-0.4570313 -0.4453125,-0.5742188 -0.6679688,-0.5742188 -0.234375,0 -0.3867187,0.140625 -0.4921875,0.328125 -0.1523437,0.2460938 -0.2226562,0.56250002 -0.2226562,0.58593752 0,0.0703125 0.058594,0.09375 0.1054687,0.09375 0.09375,0 0.1054688,-0.046875 0.140625,-0.140625 0.1171875,-0.48046872 0.2578125,-0.66796872 0.4453125,-0.66796872 0.2226563,0 0.2226563,0.2460937 0.2226563,0.3046875 0,0.09375 -0.058594,0.32812497 -0.1054688,0.50390622 -0.046875,0.1640625 -0.1054687,0.3984375 -0.1289062,0.5390625 -0.046875,0.140625 -0.082031,0.3046875 -0.1171875,0.4453125 -0.046875,0.17578125 -0.1171875,0.46875 -0.1171875,0.50390625 0,0.12890625 0.1054687,0.19921873 0.2109375,0.19921873 0.1054687,0 0.2109375,-0.0703125 0.2578125,-0.16406248 0.011719,-0.0351563 0.058594,-0.24609375 0.09375,-0.36328125 l 0.1289062,-0.5390625 c 0.046875,-0.15234375 0.070312,-0.2578125 0.1054688,-0.3984375 0.046875,-0.19921875 0.2578125,-0.515625 0.4804687,-0.73828127 0.1171875,-0.1171875 0.375,-0.2929687 0.703125,-0.2929687 0.375,0 0.375,0.3046875 0.375,0.421875 0,0.35156247 -0.2578125,0.98437497 -0.3632812,1.25390622 -0.035156,0.10546875 -0.070312,0.19921875 -0.070312,0.3046875 0,0.3046875 0.2695312,0.51562498 0.5976562,0.51562498 0.6093759,0 0.9023439,-0.78515623 0.9023439,-0.91406248 0,-0.0117188 0,-0.09375 -0.117187,-0.09375 -0.08203,0 -0.08203,0.03515625 -0.117188,0.15234375 -0.09375,0.31640625 -0.339843,0.65625 -0.6445314,0.65625 -0.1171875,0 -0.1640625,-0.0820313 -0.1640625,-0.2109375 0,-0.1171875 0.035156,-0.22265625 0.09375,-0.3515625 0.09375,-0.234375 0.3632819,-0.90234375 0.3632819,-1.2421875 0,-0.49218747 -0.3750006,-0.69140627 -0.8320319,-0.69140627 -0.2929687,0 -0.6796875,0.09375 -1.0664067,0.5742188 z m 0,0" style="fill:#000000;fill-opacity:1;fill-rule:nonzero;stroke:none"/>
    </g>
    <path id="path28" d="m 1.4174,11.33855 c 0,0.78282 -0.63458,1.4174 -1.4174,1.4174 -0.78282,0 -1.4174,-0.63458 -1.4174,-1.4174 0,-0.78284 0.63458,-1.41742 1.4174,-1.41742 0.78282,0 1.4174,0.63458 1.4174,1.41742 z" style="fill:#ff0000;fill-opacity:1;fill-rule:nonzero;stroke:#ff0000;stroke-width:0.3985;stroke-linecap:butt;stroke-linejoin:miter;stroke-miterlimit:10;stroke-dasharray:none;stroke-opacity:1" transform="matrix(1.3333333,0,0,-1.3333333,22.942667,83.418667)"/>
    <path id="path29" d="M 4.4771016,-1.7353828 H 4.2192891 c -0.046875,0.3046875 -0.1171875,0.73828124 -0.2109375,0.89062499 -0.070312,0.0820313 -0.7265625,0.0820313 -0.9492188,0.0820313 H 1.2661641 L 2.3208516,-1.7939766 c 1.5585937,-1.3710937 2.15625,-1.9101562 2.15625,-2.90625 0,-1.1367187 -0.9023438,-1.9335937 -2.1210938,-1.9335937 -1.125,0 -1.85156249,0.9140625 -1.85156249,1.8046875 0,0.5507812 0.4921875,0.5507812 0.52734379,0.5507812 0.1640625,0 0.515625,-0.1171875 0.515625,-0.5273437 0,-0.2578125 -0.1875,-0.515625 -0.5273438,-0.515625 -0.0820312,0 -0.10546874,0 -0.12890624,0.011719 0.22265624,-0.6445312 0.76171874,-1.0195312 1.33593754,-1.0195312 0.9140625,0 1.3359375,0.8085937 1.3359375,1.6289062 0,0.796875 -0.4921875,1.5820313 -1.0429688,2.203125 L 0.60991406,-0.36428906 C 0.50444531,-0.25882031 0.50444531,-0.23538281 0.50444531,-0.00100781 H 4.1958516 Z m 0,0" style="fill:#ff0000;fill-opacity:1;fill-rule:nonzero;stroke:none" aria-label="2" transform="matrix(1.3333333,0,0,1.3333333,27.636,72.724)"/>
    <path id="path30" d="M 0,0 V 11.33855" style="fill:none;stroke:#ff0000;stroke-width:0.3985;stroke-linecap:butt;stroke-linejoin:miter;stroke-miterlimit:10;stroke-dasharray:none;stroke-opacity:1" transform="matrix(1.3333333,0,0,-1.3333333,22.942667,83.418667)"/>
    <path id="path31" d="m 35.43349,34.01608 c 0,0.78282 -0.63459,1.41741 -1.41741,1.41741 -0.78283,0 -1.41742,-0.63459 -1.41742,-1.41741 0,-0.78283 0.63459,-1.41742 1.41742,-1.41742 0.78282,0 1.41741,0.63459 1.41741,1.41742 z" style="fill:#ff0000;fill-opacity:1;fill-rule:nonzero;stroke:#ff0000;stroke-width:0.3985;stroke-linecap:butt;stroke-linejoin:miter;stroke-miterlimit:10;stroke-dasharray:none;stroke-opacity:1" transform="matrix(1.3333333,0,0,-1.3333333,22.942667,83.418667)"/>
    <path id="path32" d="m 4.5480156,-2.0284609 c 0,-1.265625 -0.8789062,-2.2265625 -1.9921875,-2.2265625 -0.6679687,0 -1.0429687,0.5039062 -1.2421875,0.984375 v -0.234375 c 0,-2.5195313 1.2421875,-2.8828125 1.7460938,-2.8828125 0.234375,0 0.65625,0.058594 0.8789062,0.3984375 -0.1523437,0 -0.5507812,0 -0.5507812,0.4453125 0,0.3164062 0.234375,0.4570312 0.4570312,0.4570312 0.1640625,0 0.4570313,-0.082031 0.4570313,-0.46875 0,-0.5976562 -0.4335938,-1.078125 -1.265625,-1.078125 -1.2773438,0 -2.61328128,1.2890625 -2.61328128,3.4804688 0,2.66015621 1.14843748,3.37499996 2.07421878,3.37499996 1.1132812,0 2.0507812,-0.9375 2.0507812,-2.24999996 z m -0.890625,-0.011719 c 0,0.4804688 0,0.9726563 -0.1640625,1.33593751 -0.3046875,0.59765625 -0.7617187,0.64453125 -0.9960937,0.64453125 -0.6210938,0 -0.9257813,-0.59765625 -0.984375,-0.75 C 1.3370781,-1.2784609 1.3370781,-2.0753359 1.3370781,-2.2511172 c 0,-0.7734375 0.3164063,-1.7695312 1.21875,-1.7695312 0.1523438,0 0.609375,0 0.9257813,0.609375 0.1757812,0.375 0.1757812,0.8789062 0.1757812,1.3710935 z m 0,0" style="fill:#ff0000;fill-opacity:1;fill-rule:nonzero;stroke:none" aria-label="6" transform="matrix(1.3333333,0,0,1.3333333,72.990667,42.341333)"/>
    <path id="path33" d="M 34.01608,0 V 34.01608" style="fill:none;stroke:#ff0000;stroke-width:0.3985;stroke-linecap:butt;stroke-linejoin:miter;stroke-miterlimit:10;stroke-dasharray:none;stroke-opacity:1" transform="matrix(1.3333333,0,0,-1.3333333,22.942667,83.418667)"/>
    <path id="path34" d="m 58.11102,22.67752 c 0,0.78282 -0.63458,1.4174 -1.4174,1.4174 -0.78284,0 -1.41742,-0.63458 -1.41742,-1.4174 0,-0.78284 0.63458,-1.41742 1.41742,-1.41742 0.78282,0 1.4174,0.63458 1.4174,1.41742 z" style="fill:#ff0000;fill-opacity:1;fill-rule:nonzero;stroke:#ff0000;stroke-width:0.3985;stroke-linecap:butt;stroke-linejoin:miter;stroke-miterlimit:10;stroke-dasharray:none;stroke-opacity:1" transform="matrix(1.3333333,0,0,-1.3333333,22.942667,83.418667)"/>
    <path id="path35" d="M 4.6874219,-1.6398594 V -1.9562656 H 3.6913281 v -4.5234375 c 0,-0.1992188 0,-0.2578125 -0.1523437,-0.2578125 -0.09375,0 -0.1171875,0 -0.1992188,0.1171875 l -3.05859372,4.6640625 v 0.3164062 H 2.9296094 v 0.86718752 c 0,0.3515625 -0.023437,0.46875 -0.7617188,0.46875 H 1.9569531 V 7.65625e-4 c 0.4101563,-0.035156255 0.9375,-0.035156255 1.3476563,-0.035156255 0.421875,0 0.9492187,0 1.359375,0.035156255 V -0.30392188 H 4.4530469 c -0.7382813,0 -0.7617188,-0.1171875 -0.7617188,-0.46875 V -1.6398594 Z M 2.9882031,-1.9562656 H 0.56242188 L 2.9882031,-5.6711094 Z m 0,0" style="fill:#ff0000;fill-opacity:1;fill-rule:nonzero;stroke:none" aria-label="4" transform="matrix(1.3333333,0,0,1.3333333,103.22667,57.678667)"/>
    <path id="path36" d="M 56.69362,0 V 22.67752" style="fill:none;stroke:#ff0000;stroke-width:0.3985;stroke-linecap:butt;stroke-linejoin:miter;stroke-miterlimit:10;stroke-dasharray:none;stroke-opacity:1" transform="matrix(1.3333333,0,0,-1.3333333,22.942667,83.418667)"/>
    <path id="path37" d="m 80.78854,11.33855 c 0,0.78282 -0.63458,1.4174 -1.4174,1.4174 -0.78284,0 -1.41742,-0.63458 -1.41742,-1.4174 0,-0.78284 0.63458,-1.41742 1.41742,-1.41742 0.78282,0 1.4174,0.63458 1.4174,1.41742 z" style="fill:#ff0000;fill-opacity:1;fill-rule:nonzero;stroke:#ff0000;stroke-width:0.3985;stroke-linecap:butt;stroke-linejoin:miter;stroke-miterlimit:10;stroke-dasharray:none;stroke-opacity:1" transform="matrix(1.3333333,0,0,-1.3333333,22.942667,83.418667)"/>
    <path id="path38" d="M 4.4771953,-1.7353828 H 4.2193828 c -0.046875,0.3046875 -0.1171875,0.73828124 -0.2109375,0.89062499 -0.070312,0.0820313 -0.7265625,0.0820313 -0.9492187,0.0820313 H 1.2662578 L 2.3209453,-1.7939766 c 1.5585938,-1.3710937 2.15625,-1.9101562 2.15625,-2.90625 0,-1.1367187 -0.9023437,-1.9335937 -2.1210937,-1.9335937 -1.125,0 -1.85156254,0.9140625 -1.85156254,1.8046875 0,0.5507812 0.4921875,0.5507812 0.52734374,0.5507812 0.1640625,0 0.515625,-0.1171875 0.515625,-0.5273437 0,-0.2578125 -0.1875,-0.515625 -0.5273437,-0.515625 -0.0820313,0 -0.10546879,0 -0.12890629,0.011719 0.22265629,-0.6445312 0.76171879,-1.0195312 1.33593749,-1.0195312 0.9140625,0 1.3359375,0.8085937 1.3359375,1.6289062 0,0.796875 -0.4921875,1.5820313 -1.0429687,2.203125 L 0.61000781,-0.36428906 C 0.50453906,-0.25882031 0.50453906,-0.23538281 0.50453906,-0.00100781 H 4.1959453 Z m 0,0" style="fill:#ff0000;fill-opacity:1;fill-rule:nonzero;stroke:none" aria-label="2" transform="matrix(1.3333333,0,0,1.3333333,133.464,72.724)"/>
    <path id="path39" d="M 79.37114,0 V 11.33855" style="fill:none;stroke:#ff0000;stroke-width:0.3985;stroke-linecap:butt;stroke-linejoin:miter;stroke-miterlimit:10;stroke-dasharray:none;stroke-opacity:1" transform="matrix(1.3333333,0,0,-1.3333333,22.942667,83.418667)"/>
    <path id="path40" d="m 3.2942344,2.3916484 c 0,-0.035156 0,-0.046875 -0.1640625,-0.2226562 -1.2421875,-1.25390626 -1.5703125,-3.12890626 -1.5703125,-4.6640625 0,-1.7226563 0.3867187,-3.4570313 1.6054687,-4.7109375 0.1289063,-0.1171875 0.1289063,-0.1289063 0.1289063,-0.1640625 0,-0.070312 -0.035156,-0.1054688 -0.09375,-0.1054688 -0.1054688,0 -0.9960938,0.6796875 -1.5820313,1.9453125 -0.515625,1.1015625 -0.63281247,2.203125 -0.63281247,3.0351563 0,0.7851562 0.11718747,1.99218749 0.65624997,3.11718749 0.5976563,1.21875001 1.453125,1.87500001 1.5585938,1.87500001 0.058594,0 0.09375,-0.035156 0.09375,-0.1054688 z M 8.6907188,-0.88960156 V -1.4403828 H 8.4329063 v 0.55078124 c 0,0.5859375 -0.2460938,0.64453125 -0.3515625,0.64453125 -0.328125,0 -0.375,-0.45703125 -0.375,-0.50390625 V -2.7411641 c 0,-0.4101562 0,-0.8085937 -0.3515625,-1.171875 -0.3867188,-0.3867187 -0.890625,-0.5507812 -1.3710938,-0.5507812 -0.8085937,0 -1.5,0.46875 -1.5,1.125 0,0.3046875 0.1992188,0.46875 0.4570313,0.46875 0.28125,0 0.4570312,-0.1992188 0.4570312,-0.4570313 0,-0.1171875 -0.046875,-0.4453125 -0.5039062,-0.4570312 0.2695312,-0.3515625 0.75,-0.4570313 1.078125,-0.4570313 0.4804687,0 1.0546875,0.3867188 1.0546875,1.2773438 v 0.3632812 c -0.515625,0.035156 -1.2070313,0.058594 -1.8398438,0.3632813 -0.75,0.3398437 -0.9960937,0.8554687 -0.9960937,1.28906249 0,0.80859375 0.9726562,1.0546875 1.59375,1.0546875 0.65625,0 1.1132812,-0.3984375 1.3125,-0.8671875 0.035156,0.3984375 0.3046875,0.8203125 0.7734375,0.8203125 0.2109375,0 0.8203125,-0.140625 0.8203125,-0.94921875 z M 7.0266563,-1.3935078 c 0,0.94921874 -0.7265625,1.28906249 -1.171875,1.28906249 -0.4804688,0 -0.890625,-0.3515625 -0.890625,-0.85546875 0,-0.53906254 0.4101562,-1.37109374 2.0625,-1.42968754 z m 4.7138667,-1.1015625 c 0,-0.7734375 -0.117187,-1.9804688 -0.65625,-3.1054688 -0.597656,-1.21875 -1.4648433,-1.875 -1.5585933,-1.875 -0.058594,0 -0.1054688,0.046875 -0.1054688,0.1054688 0,0.035156 0,0.046875 0.1992188,0.234375 0.9726563,0.984375 1.5351563,2.5664062 1.5351563,4.640625 0,1.71093749 -0.363281,3.45703124 -1.5937501,4.7226562 -0.140625,0.1171875 -0.140625,0.1289063 -0.140625,0.1640625 0,0.058594 0.046875,0.1054688 0.1054688,0.1054688 0.09375,0 0.9960933,-0.6796875 1.5820313,-1.94531251 0.503906,-1.1015625 0.632812,-2.20312499 0.632812,-3.04687499 z m 0,0" style="fill:#000000;fill-opacity:1;fill-rule:nonzero;stroke:none" aria-label="(a)" transform="matrix(1.3333333,0,0,1.3333333,74.928,162.33067)"/>
    <g id="g40" aria-label="3ω&#xA;1" transform="matrix(1.3333333,0,0,1.3333333,248.17467,96.465333)">
      <path id="path41" d="m 2.0164609,-2.6605234 c 0.6328125,0 1.03125,0.4570312 1.03125,1.3007812 0,0.99609376 -0.5742187,1.28906251 -0.9960937,1.28906251 -0.4335938,0 -1.03125,-0.1640625 -1.31250001,-0.5859375 0.29296871,0 0.49218751,-0.17578125 0.49218751,-0.44531251 0,-0.2578125 -0.1875,-0.4335937 -0.44531251,-0.4335937 -0.2109375,0 -0.43359375,0.1289062 -0.43359375,0.4570312 0,0.75000001 0.80859376,1.24218751 1.72265626,1.24218751 1.0546875,0 1.7929687,-0.7265625 1.7929687,-1.52343751 0,-0.6679687 -0.515625,-1.265625 -1.3359375,-1.4414062 0.6328125,-0.2226563 1.1015625,-0.7734375 1.1015625,-1.40625 0,-0.6328125 -0.7148437,-1.0898438 -1.546875,-1.0898438 -0.8554687,0 -1.49999996,0.4570313 -1.49999996,1.0664063 0,0.2929687 0.19921875,0.421875 0.41015625,0.421875 0.24609371,0 0.41015621,-0.1757813 0.41015621,-0.4101563 0,-0.2929687 -0.2578125,-0.3984375 -0.43359371,-0.4101562 0.33984371,-0.4335938 0.94921871,-0.46875 1.08984371,-0.46875 0.2109375,0 0.8085938,0.070312 0.8085938,0.890625 0,0.5625 -0.2226563,0.890625 -0.3398438,1.0195312 -0.234375,0.2460938 -0.421875,0.2578125 -0.9023437,0.2929688 -0.1523438,0.011719 -0.2226563,0.023437 -0.2226563,0.1171875 0,0.1171875 0.070312,0.1171875 0.2109375,0.1171875 z m 0,0" style="fill:#000000;fill-opacity:1;fill-rule:nonzero;stroke:none"/>
      <path id="path42" d="m 9.3436094,-2.9183359 c 0,-0.2460938 -0.070312,-0.609375 -0.3867188,-0.609375 -0.2109375,0 -0.421875,0.1992187 -0.421875,0.421875 0,0.1289062 0.09375,0.1992187 0.1757813,0.28125 0.1171875,0.1171875 0.2460937,0.3164062 0.2460937,0.6210937 0,0.5273438 -0.5507812,1.66406251 -1.3476562,1.66406251 -0.421875,0 -0.703125,-0.24609375 -0.796875,-0.63281251 0.1289062,-0.2695312 0.2929687,-0.703125 0.2929687,-0.9375 0,-0.1289062 -0.070312,-0.234375 -0.2226562,-0.234375 -0.3515625,0 -0.3984375,0.890625 -0.3984375,1.1367188 -0.28125,0.33984371 -0.609375,0.66796871 -1.0664063,0.66796871 -0.515625,0 -0.75,-0.41015625 -0.75,-0.87890621 0,-0.375 0.1054688,-0.7148438 0.2578125,-1.0195313 0.234375,-0.46875 0.5390625,-0.7617187 0.5390625,-0.890625 0,-0.09375 -0.070312,-0.1523437 -0.1523437,-0.1523437 -0.1523438,0 -0.2695313,0.234375 -0.3632813,0.375 -0.3398437,0.5625 -0.5859375,1.3007812 -0.5859375,1.96875 0,0.60937496 0.234375,1.20703121 0.9257813,1.20703121 0.6914062,0 1.078125,-0.55078125 1.2539062,-0.7734375 0.1171875,0.4453125 0.4453125,0.78515625 0.9375,0.78515625 0.65625,0 0.9726563,-0.421875 1.3007813,-0.97265625 0.2578125,-0.42187501 0.5625,-1.52343751 0.5625,-2.02734371 z m 0,0" style="fill:#000000;fill-opacity:1;fill-rule:nonzero;stroke:none"/>
      <path id="path43" d="m 11.643414,-2.6898203 c 0,-0.1757813 -0.02344,-0.1757813 -0.199219,-0.1757813 -0.398437,0.375 -1.007812,0.375 -1.21875,0.375 v 0.234375 c 0.152344,0 0.550782,0 0.902344,-0.1640625 v 3.02343754 c 0,0.1875 0,0.26953125 -0.609375,0.26953125 H 10.260602 V 1.1070547 c 0.328125,-0.023437 0.796875,-0.023437 1.125,-0.023437 0.339843,0 0.796875,0 1.136718,0.023437 V 0.87267969 h -0.257812 c -0.621094,0 -0.621094,-0.0820313 -0.621094,-0.26953125 z m 0,0" style="fill:#000000;fill-opacity:1;fill-rule:nonzero;stroke:none"/>
    </g>
    <g id="g43" aria-label="5ω&#xA;1" transform="matrix(1.3333333,0,0,1.3333333,278.41067,96.465333)">
      <path id="path44" d="m 1.1128984,-4.4769297 c 0.1054688,0.035156 0.421875,0.1054688 0.7617188,0.1054688 0.9960937,0 1.59375,-0.6914063 1.59375,-0.8203125 0,-0.082031 -0.046875,-0.1054688 -0.09375,-0.1054688 -0.011719,0 -0.023437,0 -0.1054688,0.035156 -0.3046875,0.1171875 -0.6679687,0.2226562 -1.1015625,0.2226562 -0.46875,0 -0.8554687,-0.1289062 -1.1132812,-0.2226562 -0.0703125,-0.035156 -0.09375,-0.035156 -0.09375,-0.035156 -0.10546875,0 -0.10546875,0.082031 -0.10546875,0.234375 v 2.3320313 c 0,0.140625 0,0.234375 0.12890625,0.234375 0.0585937,0 0.0820312,-0.035156 0.1289062,-0.09375 0.09375,-0.1171875 0.3984375,-0.5273438 1.0664063,-0.5273438 0.4453125,0 0.6679687,0.3632813 0.7382812,0.515625 0.1289063,0.2929688 0.1523438,0.65625 0.1523438,0.9726563 0,0.2929687 -0.011719,0.71484371 -0.234375,1.06640621 -0.1523438,0.24609375 -0.46875,0.4921875 -0.890625,0.4921875 -0.515625,0 -1.03125,-0.328125 -1.20703125,-0.84375 0.0234375,0 0.0703125,0 0.0703125,0 0.22265625,0 0.39843745,-0.14062501 0.39843745,-0.38671871 0,-0.2929688 -0.2226562,-0.3984375 -0.3867187,-0.3984375 -0.140625,0 -0.3984375,0.082031 -0.3984375,0.421875 0,0.71484371 0.6210937,1.44140621 1.5351562,1.44140621 0.9960938,0 1.8398438,-0.7734375 1.8398438,-1.75781251 0,-0.9257812 -0.6679688,-1.7460937 -1.6054688,-1.7460937 -0.3984375,0 -0.7734375,0.1289062 -1.078125,0.3984375 z m 0,0" style="fill:#000000;fill-opacity:1;fill-rule:nonzero;stroke:none"/>
      <path id="path45" d="m 9.3423906,-2.9183359 c 0,-0.2460938 -0.070312,-0.609375 -0.3867187,-0.609375 -0.2109375,0 -0.421875,0.1992187 -0.421875,0.421875 0,0.1289062 0.09375,0.1992187 0.1757812,0.28125 0.1171875,0.1171875 0.2460938,0.3164062 0.2460938,0.6210937 0,0.5273438 -0.5507813,1.66406251 -1.3476563,1.66406251 -0.421875,0 -0.703125,-0.24609375 -0.796875,-0.63281251 0.1289063,-0.2695312 0.2929688,-0.703125 0.2929688,-0.9375 0,-0.1289062 -0.070312,-0.234375 -0.2226563,-0.234375 -0.3515625,0 -0.3984375,0.890625 -0.3984375,1.1367188 -0.28125,0.33984371 -0.609375,0.66796871 -1.0664062,0.66796871 -0.515625,0 -0.75,-0.41015625 -0.75,-0.87890621 0,-0.375 0.1054687,-0.7148438 0.2578125,-1.0195313 0.234375,-0.46875 0.5390625,-0.7617187 0.5390625,-0.890625 0,-0.09375 -0.070312,-0.1523437 -0.1523438,-0.1523437 -0.1523437,0 -0.2695312,0.234375 -0.3632812,0.375 -0.3398438,0.5625 -0.5859375,1.3007812 -0.5859375,1.96875 0,0.60937496 0.234375,1.20703121 0.9257812,1.20703121 0.6914063,0 1.078125,-0.55078125 1.2539063,-0.7734375 0.1171875,0.4453125 0.4453125,0.78515625 0.9375,0.78515625 0.65625,0 0.9726562,-0.421875 1.3007812,-0.97265625 0.2578125,-0.42187501 0.5625,-1.52343751 0.5625,-2.02734371 z m 0,0" style="fill:#000000;fill-opacity:1;fill-rule:nonzero;stroke:none"/>
      <path id="path46" d="m 11.645125,-2.6898203 c 0,-0.1757813 -0.02344,-0.1757813 -0.199219,-0.1757813 -0.398437,0.375 -1.007812,0.375 -1.21875,0.375 v 0.234375 c 0.152344,0 0.550782,0 0.902344,-0.1640625 v 3.02343754 c 0,0.1875 0,0.26953125 -0.609375,0.26953125 H 10.262313 V 1.1070547 c 0.328125,-0.023437 0.796875,-0.023437 1.125,-0.023437 0.339843,0 0.796875,0 1.136718,0.023437 V 0.87267969 h -0.257812 c -0.621094,0 -0.621094,-0.0820313 -0.621094,-0.26953125 z m 0,0" style="fill:#000000;fill-opacity:1;fill-rule:nonzero;stroke:none"/>
    </g>
    <g id="g46" aria-label="7ω&#xA;1" transform="matrix(1.3333333,0,0,1.3333333,308.64667,96.465333)">
      <path id="path47" d="m 4.0325781,-4.8519297 c 0.070312,-0.09375 0.070312,-0.1054687 0.070312,-0.28125 H 2.0755469 c -0.1992188,0 -0.4453125,-0.011719 -0.6445313,-0.023437 -0.4101562,-0.035156 -0.421875,-0.1054687 -0.44531247,-0.234375 H 0.73960938 l -0.26953125,1.6875 h 0.24609375 c 0.0234375,-0.1171875 0.10546875,-0.6679687 0.22265625,-0.7382812 0.0820313,-0.035156 0.67968747,-0.035156 0.79687497,-0.035156 h 1.6875 l -0.8203125,1.1015625 c -0.9023437,1.2070313 -1.0898437,2.46093751 -1.0898437,3.09375001 0,0.0820313 0,0.4453125 0.3632812,0.4453125 0.375,0 0.375,-0.3515625 0.375,-0.4453125 v -0.38671875 c 0,-1.14843746 0.1992188,-2.08593746 0.5859375,-2.60156246 z m 0,0" style="fill:#000000;fill-opacity:1;fill-rule:nonzero;stroke:none"/>
      <path id="path48" d="m 9.3441016,-2.9183359 c 0,-0.2460938 -0.070312,-0.609375 -0.3867188,-0.609375 -0.2109375,0 -0.421875,0.1992187 -0.421875,0.421875 0,0.1289062 0.09375,0.1992187 0.1757813,0.28125 0.1171875,0.1171875 0.2460937,0.3164062 0.2460937,0.6210937 0,0.5273438 -0.5507812,1.66406251 -1.3476562,1.66406251 -0.421875,0 -0.703125,-0.24609375 -0.796875,-0.63281251 0.1289062,-0.2695312 0.2929687,-0.703125 0.2929687,-0.9375 0,-0.1289062 -0.070312,-0.234375 -0.2226562,-0.234375 -0.3515625,0 -0.3984375,0.890625 -0.3984375,1.1367188 -0.28125,0.33984371 -0.609375,0.66796871 -1.0664063,0.66796871 -0.515625,0 -0.75,-0.41015625 -0.75,-0.87890621 0,-0.375 0.1054688,-0.7148438 0.2578125,-1.0195313 0.234375,-0.46875 0.5390625,-0.7617187 0.5390625,-0.890625 0,-0.09375 -0.070312,-0.1523437 -0.1523437,-0.1523437 -0.1523438,0 -0.2695313,0.234375 -0.3632813,0.375 -0.3398437,0.5625 -0.5859375,1.3007812 -0.5859375,1.96875 0,0.60937496 0.234375,1.20703121 0.9257813,1.20703121 0.6914062,0 1.078125,-0.55078125 1.2539062,-0.7734375 0.1171875,0.4453125 0.4453125,0.78515625 0.9375,0.78515625 0.65625,0 0.9726563,-0.421875 1.3007813,-0.97265625 0.2578125,-0.42187501 0.5625,-1.52343751 0.5625,-2.02734371 z m 0,0" style="fill:#000000;fill-opacity:1;fill-rule:nonzero;stroke:none"/>
      <path id="path49" d="m 11.643906,-2.6898203 c 0,-0.1757813 -0.02344,-0.1757813 -0.199218,-0.1757813 -0.398438,0.375 -1.007813,0.375 -1.21875,0.375 v 0.234375 c 0.152343,0 0.550781,0 0.902343,-0.1640625 v 3.02343754 c 0,0.1875 0,0.26953125 -0.609375,0.26953125 H 10.261094 V 1.1070547 c 0.328125,-0.023437 0.796875,-0.023437 1.125,-0.023437 0.339844,0 0.796875,0 1.136719,0.023437 V 0.87267969 H 12.265 c -0.621094,0 -0.621094,-0.0820313 -0.621094,-0.26953125 z m 0,0" style="fill:#000000;fill-opacity:1;fill-rule:nonzero;stroke:none"/>
    </g>
    <path id="path50" d="m 5.5767734,-3.3162656 c 0,-0.2578125 -0.09375,-0.6445313 -0.4101562,-0.6445313 -0.234375,0 -0.4570313,0.2226563 -0.4570313,0.4453125 0,0.140625 0.035156,0.1640625 0.1171875,0.234375 0.1171875,0.1171875 0.328125,0.3398438 0.328125,0.7851563 0,0.5507812 -0.5742187,1.93359372 -1.4882812,1.93359372 -0.5039063,0 -0.7851563,-0.36328125 -0.8789063,-0.73828122 0,-0.1171875 0.3164063,-0.7617188 0.3164063,-1.0898438 0,-0.1171875 -0.070312,-0.2226562 -0.1992188,-0.2226562 -0.070312,0 -0.1523437,0.035156 -0.2109375,0.09375 -0.1640625,0.2109375 -0.2460937,0.9375 -0.2460937,1.1601562 -0.2929688,0.42187502 -0.6796875,0.78515627 -1.2070313,0.78515627 -0.58593746,0 -0.79687496,-0.49218747 -0.79687496,-1.00781247 0,-0.6796875 0.28125,-1.2773438 0.84374996,-2.0273438 0.058594,-0.070312 0.058594,-0.1054687 0.058594,-0.1523437 0,-0.082031 -0.082031,-0.1523438 -0.1640625,-0.1523438 -0.09375,0 -0.1640625,0.070312 -0.21093751,0.140625 -0.4921875,0.6914063 -0.84375,1.6875 -0.84375,2.5429688 0,0.69140622 0.234375,1.32421872 1.03125001,1.32421872 0.5625,0 1.0664062,-0.48046875 1.3359375,-0.890625 0.1171875,0.36328125 0.3398437,0.890625 1.0546875,0.890625 0.6914062,0 1.1484375,-0.5625 1.4882812,-1.26562502 0.1640625,-0.3515625 0.28125,-0.7382812 0.3632813,-1.1015625 0.09375,-0.3984375 0.1757812,-0.7617187 0.175781,-1.0429687 z m 0,0" style="fill:#000000;fill-opacity:1;fill-rule:nonzero;stroke:none" aria-label="ω" transform="matrix(1.3333333,0,0,1.3333333,347.52133,85.992)"/>
    <g id="g50" aria-label="φ&#xA;n" transform="matrix(1.3333333,0,0,1.3333333,204.51067,13.525333)">
      <path id="path51" d="m 2.4617266,0.08060937 c 0.070312,0.01171875 0.140625,0.01171875 0.3046875,0.01171875 1.5234375,0 2.9179687,-1.37109372 2.9179687,-2.78906252 0,-0.75 -0.3867187,-1.265625 -1.0664062,-1.265625 -1.3828125,0 -1.9804688,2.0390625 -2.4023438,3.44531252 -0.9375,-0.1640625 -1.49999999,-0.63281252 -1.49999999,-1.30078122 0,-0.234375 0.2109375,-1.21875 0.74999999,-1.828125 0.082031,-0.070312 0.082031,-0.09375 0.082031,-0.1171875 0,-0.011719 0,-0.1054688 -0.1171875,-0.1054688 -0.2929688,0 -0.97265629,1.3242188 -0.97265629,2.15625 0,0.97265627 0.78515629,1.54687502 1.58203129,1.73437502 C 1.86407,0.57279687 1.5242263,1.6157656 1.5242263,1.6977969 c 0,0.1523437 0.140625,0.2578125 0.28125,0.2578125 0.011719,0 0.3046875,0 0.375,-0.3398438 0.09375,-0.4101562 0.1992187,-1.05468748 0.2812503,-1.53515623 z m 0.1054687,-0.55078125 c 0.023437,-0.1171875 0.082031,-0.421875 0.09375,-0.55078122 0.082031,-0.4101563 0.1992188,-1.0898438 0.6679688,-1.6757813 0.3046875,-0.3984375 0.6914062,-0.7148437 1.2070312,-0.7148437 0.5039063,0 0.8671875,0.3398437 0.8671875,0.9023437 0,0.9960938 -1.1601562,2.05078127 -2.5546875,2.05078127 -0.09375,0 -0.1992187,0 -0.28125,-0.0117188 z m 0,0" style="fill:#000000;fill-opacity:1;fill-rule:nonzero;stroke:none"/>
      <path id="path52" d="m 7.7644609,-1.0648984 c -0.023437,-0.4570313 -0.4453125,-0.5742188 -0.6679687,-0.5742188 -0.234375,0 -0.3867188,0.140625 -0.4921875,0.328125 -0.1523438,0.2460938 -0.2226563,0.56250001 -0.2226563,0.58593751 0,0.0703125 0.058594,0.09375 0.1054688,0.09375 0.09375,0 0.1054687,-0.046875 0.140625,-0.140625 0.1171875,-0.48046871 0.2578125,-0.66796871 0.4453125,-0.66796871 0.2226562,0 0.2226562,0.2460937 0.2226562,0.3046875 0,0.09375 -0.058594,0.32812496 -0.1054687,0.50390621 -0.046875,0.1640625 -0.1054688,0.3984375 -0.1289063,0.5390625 -0.046875,0.140625 -0.082031,0.3046875 -0.1171875,0.4453125 -0.046875,0.17578125 -0.1171875,0.46875 -0.1171875,0.50390625 0,0.12890625 0.1054688,0.19921874 0.2109375,0.19921874 0.1054688,0 0.2109375,-0.0703125 0.2578125,-0.16406249 0.011719,-0.0351563 0.058594,-0.24609375 0.09375,-0.36328125 l 0.1289063,-0.5390625 c 0.046875,-0.15234375 0.070312,-0.2578125 0.1054687,-0.3984375 0.046875,-0.19921875 0.2578125,-0.515625 0.4804688,-0.73828126 0.1171875,-0.1171875 0.375,-0.2929687 0.703125,-0.2929687 0.375,0 0.375,0.3046875 0.375,0.421875 0,0.35156246 -0.2578125,0.98437496 -0.3632813,1.25390621 -0.035156,0.10546875 -0.070312,0.19921875 -0.070312,0.3046875 0,0.3046875 0.2695313,0.51562499 0.5976563,0.51562499 0.609375,0 0.9023443,-0.78515624 0.9023443,-0.91406249 0,-0.0117188 0,-0.09375 -0.117188,-0.09375 -0.08203,0 -0.08203,0.03515625 -0.117187,0.15234375 -0.093751,0.31640625 -0.3398443,0.65625 -0.6445318,0.65625 -0.1171875,0 -0.1640625,-0.0820313 -0.1640625,-0.2109375 0,-0.1171875 0.035156,-0.22265625 0.09375,-0.3515625 0.09375,-0.234375 0.3632812,-0.90234375 0.3632812,-1.2421875 0,-0.49218746 -0.375,-0.69140626 -0.8320312,-0.69140626 -0.2929688,0 -0.6796875,0.09375 -1.0664068,0.5742188 z m 0,0" style="fill:#000000;fill-opacity:1;fill-rule:nonzero;stroke:none"/>
    </g>
    <path id="path53" d="m 143.15146,0 c 0,0.78282 -0.6346,1.4174 -1.41742,1.4174 -0.78282,0 -1.41742,-0.63458 -1.41742,-1.4174 0,-0.78282 0.6346,-1.4174 1.41742,-1.4174 0.78282,0 1.41742,0.63458 1.41742,1.4174 z" style="fill:#ff0000;fill-opacity:1;fill-rule:nonzero;stroke:#ff0000;stroke-width:0.3985;stroke-linecap:butt;stroke-linejoin:miter;stroke-miterlimit:10;stroke-dasharray:none;stroke-opacity:1" transform="matrix(1.3333333,0,0,-1.3333333,22.942667,83.418667)"/>
    <path id="path54" d="M 141.73404,0 V 0" style="fill:none;stroke:#ff0000;stroke-width:0.3985;stroke-linecap:butt;stroke-linejoin:miter;stroke-miterlimit:10;stroke-dasharray:none;stroke-opacity:1" transform="matrix(1.3333333,0,0,-1.3333333,22.942667,83.418667)"/>
    <path id="path55" d="m 177.16754,-29.68463 c 0,0.78282 -0.6346,1.4174 -1.41742,1.4174 -0.78282,0 -1.41742,-0.63458 -1.41742,-1.4174 0,-0.78284 0.6346,-1.41742 1.41742,-1.41742 0.78282,0 1.41742,0.63458 1.41742,1.41742 z" style="fill:#ff0000;fill-opacity:1;fill-rule:nonzero;stroke:#ff0000;stroke-width:0.3985;stroke-linecap:butt;stroke-linejoin:miter;stroke-miterlimit:10;stroke-dasharray:none;stroke-opacity:1" transform="matrix(1.3333333,0,0,-1.3333333,22.942667,83.418667)"/>
    <g id="g55" aria-label="−&#xA;2π" transform="matrix(1.3333333,0,0,1.3333333,261.96933,126.31867)">
      <path id="path56" d="m 6.5620625,-2.2956406 c 0.1757812,0 0.3515625,0 0.3515625,-0.1992188 0,-0.1992187 -0.1757813,-0.1992187 -0.3515625,-0.1992187 h -5.390625 c -0.1640625,0 -0.33984375,0 -0.33984375,0.1992187 0,0.1992188 0.17578125,0.1992188 0.33984375,0.1992188 z m 0,0" style="fill:#ff0000;fill-opacity:1;fill-rule:nonzero;stroke:none"/>
      <path id="path57" d="m 12.459523,-5.1872422 h -0.234375 c -0.02344,0.1523438 -0.08203,0.5625 -0.175781,0.6328125 -0.05859,0.035156 -0.597656,0.035156 -0.691406,0.035156 h -1.289063 c 0.738282,-0.6445313 0.984375,-0.84375 1.394532,-1.171875 0.515625,-0.4101563 0.996093,-0.84375 0.996093,-1.5 0,-0.84375 -0.738281,-1.359375 -1.628906,-1.359375 -0.8671873,0 -1.4531248,0.609375 -1.4531248,1.2421875 0,0.3632812 0.3046875,0.3984375 0.375,0.3984375 0.1640625,0 0.3749998,-0.1171875 0.3749998,-0.375 0,-0.1289063 -0.05859,-0.3632813 -0.4218748,-0.3632813 0.2226562,-0.5039062 0.6914058,-0.65625 1.0195308,-0.65625 0.703125,0 1.066407,0.5507813 1.066407,1.1132813 0,0.609375 -0.433594,1.0898437 -0.65625,1.3359375 l -1.6875003,1.6640625 c -0.070312,0.058594 -0.070312,0.070312 -0.070312,0.2695312 h 2.8828123 z m 0,0" style="fill:#ff0000;fill-opacity:1;fill-rule:nonzero;stroke:none"/>
      <path id="path58" d="m 15.084523,-6.4528672 h 0.832032 c -0.105469,0.421875 -0.257813,1.0546875 -0.257813,1.6054688 0,0.28125 0.03516,0.46875 0.07031,0.6210937 0.117187,0.3515625 0.210937,0.375 0.316406,0.375 0.164062,0 0.328125,-0.1523437 0.328125,-0.3164062 0,-0.058594 -0.01172,-0.082031 -0.05859,-0.1523438 -0.128906,-0.2578125 -0.257812,-0.65625 -0.257812,-1.2304687 0,-0.1289063 0,-0.4101563 0.105468,-0.9023438 h 0.867188 c 0.128906,0 0.1875,0 0.257812,-0.058594 0.09375,-0.070312 0.117188,-0.1757813 0.117188,-0.2109375 0,-0.1992188 -0.175781,-0.1992188 -0.292969,-0.1992188 h -2.636719 c -0.28125,0 -0.480468,0.058594 -0.796875,0.3515625 -0.175781,0.1640625 -0.445312,0.5390625 -0.445312,0.5976563 0,0.082031 0.09375,0.082031 0.117187,0.082031 0.07031,0 0.08203,-0.011719 0.128907,-0.070312 0.351562,-0.4921875 0.785156,-0.4921875 0.9375,-0.4921875 h 0.421875 c -0.210938,0.7617188 -0.585938,1.59375 -0.796875,2.0039063 -0.04687,0.09375 -0.117188,0.2460937 -0.140625,0.2695312 0,0.023437 -0.01172,0.058594 -0.01172,0.1054688 0,0.1054687 0.08203,0.2226562 0.246094,0.2226562 0.269531,0 0.351562,-0.3164062 0.515625,-0.9375 z m 0,0" style="fill:#ff0000;fill-opacity:1;fill-rule:nonzero;stroke:none"/>
    </g>
    <path id="path59" d="m -45.848,11.929 h 8.88" style="fill:none;stroke:#ff0000;stroke-width:0.3985;stroke-linecap:butt;stroke-linejoin:miter;stroke-miterlimit:10;stroke-dasharray:none;stroke-opacity:1" transform="matrix(1.3333333,0,0,-1.3333333,335.02667,138.904)"/>
    <path id="path60" d="m 1.8984141,-2.3332031 c 0.5507812,0 0.9375,0.375 0.9375,1.125 0,0.86718747 -0.5039063,1.12499997 -0.9023438,1.12499997 -0.28125,0 -0.890625,-0.08203125 -1.18359374,-0.4921875 0.32812504,-0.0117188 0.39843754,-0.24609375 0.39843754,-0.38671875 0,-0.22265622 -0.16406254,-0.38671872 -0.38671879,-0.38671872 -0.1875,0 -0.38671875,0.1171875 -0.38671875,0.41015622 0,0.65625 0.72656254,1.078125 1.57031254,1.078125 0.9726562,0 1.640625,-0.64453125 1.640625,-1.34765622 0,-0.5390625 -0.4453125,-1.0898438 -1.21875,-1.2421875 0.7382812,-0.2695313 0.9960937,-0.796875 0.9960937,-1.21875 0,-0.5507813 -0.6328125,-0.9609375 -1.40625,-0.9609375 -0.7734375,0 -1.35937499,0.375 -1.35937499,0.9375 0,0.234375 0.15234375,0.3632812 0.36328125,0.3632812 0.21093754,0 0.35156254,-0.1640625 0.35156254,-0.3515625 0,-0.1992187 -0.140625,-0.3515625 -0.35156254,-0.3632812 0.23437504,-0.3046875 0.71484374,-0.3867188 0.97265624,-0.3867188 0.3164063,0 0.7617188,0.1523438 0.7617188,0.7617188 0,0.2929687 -0.1054688,0.609375 -0.28125,0.8320312 -0.234375,0.2578125 -0.421875,0.28125 -0.7734375,0.2929688 -0.1757813,0.023437 -0.1875,0.023437 -0.2226563,0.023437 -0.011719,0 -0.070312,0.011719 -0.070312,0.09375 0,0.09375 0.058594,0.09375 0.1757813,0.09375 z m 0,0" style="fill:#ff0000;fill-opacity:1;fill-rule:nonzero;stroke:none" aria-label="3" transform="matrix(1.3333333,0,0,1.3333333,277.168,130.9)"/>
    <path id="path61" d="M 175.75012,0 V -29.68463" style="fill:none;stroke:#ff0000;stroke-width:0.3985;stroke-linecap:butt;stroke-linejoin:miter;stroke-miterlimit:10;stroke-dasharray:none;stroke-opacity:1" transform="matrix(1.3333333,0,0,-1.3333333,22.942667,83.418667)"/>
    <path id="path62" d="m 199.84508,0 c 0,0.78282 -0.6346,1.4174 -1.41742,1.4174 -0.78282,0 -1.41742,-0.63458 -1.41742,-1.4174 0,-0.78282 0.6346,-1.4174 1.41742,-1.4174 0.78282,0 1.41742,0.63458 1.41742,1.4174 z" style="fill:#ff0000;fill-opacity:1;fill-rule:nonzero;stroke:#ff0000;stroke-width:0.3985;stroke-linecap:butt;stroke-linejoin:miter;stroke-miterlimit:10;stroke-dasharray:none;stroke-opacity:1" transform="matrix(1.3333333,0,0,-1.3333333,22.942667,83.418667)"/>
    <path id="path63" d="M 198.42766,0 V 0" style="fill:none;stroke:#ff0000;stroke-width:0.3985;stroke-linecap:butt;stroke-linejoin:miter;stroke-miterlimit:10;stroke-dasharray:none;stroke-opacity:1" transform="matrix(1.3333333,0,0,-1.3333333,22.942667,83.418667)"/>
    <path id="path64" d="m 222.5226,44.52718 c 0,0.78283 -0.6346,1.41742 -1.41742,1.41742 -0.78282,0 -1.41742,-0.63459 -1.41742,-1.41742 0,-0.78283 0.6346,-1.41742 1.41742,-1.41742 0.78282,0 1.41742,0.63459 1.41742,1.41742 z" style="fill:#ff0000;fill-opacity:1;fill-rule:nonzero;stroke:#ff0000;stroke-width:0.3985;stroke-linecap:butt;stroke-linejoin:miter;stroke-miterlimit:10;stroke-dasharray:none;stroke-opacity:1" transform="matrix(1.3333333,0,0,-1.3333333,22.942667,83.418667)"/>
    <path id="path65" d="m 2.6357734,-3.7142266 h 1.125 c -0.328125,1.4765625 -0.4101562,1.8984375 -0.4101562,2.5664063 0,0.15234374 0,0.42187499 0.070312,0.76171874 0.1054687,0.43359375 0.2109375,0.4921875 0.3632812,0.4921875 0.1992188,0 0.4101563,-0.17578125 0.4101563,-0.375 0,-0.0585938 0,-0.0820313 -0.058594,-0.22265625 -0.292968,-0.71484379 -0.292968,-1.35937499 -0.292968,-1.64062499 0,-0.5273438 0.070312,-1.0664063 0.1757812,-1.5820313 h 1.1367188 c 0.1289062,0 0.4921875,0 0.4921875,-0.3398437 0,-0.234375 -0.2109375,-0.234375 -0.3984375,-0.234375 H 1.9092109 c -0.2109375,0 -0.5976562,0 -1.03124996,0.46875 -0.3515625,0.3867187 -0.609375,0.84375 -0.609375,0.890625 0,0.011719 0,0.1054687 0.1171875,0.1054687 0.0820313,0 0.10546875,-0.046875 0.1640625,-0.1289062 C 1.0303047,-3.7142266 1.6162422,-3.7142266 1.8154609,-3.7142266 h 0.5625 c -0.3164062,1.2070313 -0.8554687,2.4140625 -1.2773437,3.31640629 -0.070312,0.15234375 -0.070312,0.1640625 -0.070312,0.234375 0,0.19921875 0.1523437,0.26953125 0.28125,0.26953125 0.3046875,0 0.3867187,-0.26953125 0.5039062,-0.64453125 0.140625,-0.45703125 0.140625,-0.48046879 0.2695313,-0.97265629 z m 0,0" style="fill:#ff0000;fill-opacity:1;fill-rule:nonzero;stroke:none" aria-label="π" transform="matrix(1.3333333,0,0,1.3333333,322.44267,26.909333)"/>
    <path id="path66" d="M 221.10518,0 V 44.52718" style="fill:none;stroke:#ff0000;stroke-width:0.3985;stroke-linecap:butt;stroke-linejoin:miter;stroke-miterlimit:10;stroke-dasharray:none;stroke-opacity:1" transform="matrix(1.3333333,0,0,-1.3333333,22.942667,83.418667)"/>
    <path id="path67" d="m 3.2933359,2.3916484 c 0,-0.035156 0,-0.046875 -0.1640625,-0.2226562 -1.2421875,-1.25390626 -1.5703125,-3.12890626 -1.5703125,-4.6640625 0,-1.7226563 0.3867188,-3.4570313 1.6054688,-4.7109375 0.1289062,-0.1171875 0.1289062,-0.1289063 0.1289062,-0.1640625 0,-0.070312 -0.035156,-0.1054688 -0.09375,-0.1054688 -0.1054687,0 -0.9960937,0.6796875 -1.5820312,1.9453125 -0.515625,1.1015625 -0.63281251,2.203125 -0.63281251,3.0351563 0,0.7851562 0.11718751,1.99218749 0.65625001,3.11718749 0.5976562,1.21875001 1.453125,1.87500001 1.5585937,1.87500001 0.058594,0 0.09375,-0.035156 0.09375,-0.1054688 z M 9.06775,-2.1552266 c 0,-1.265625 -0.9726563,-2.25 -2.109375,-2.25 -0.7851563,0 -1.2070313,0.46875 -1.3710938,0.65625 v -3.1640625 l -1.4296875,0.1054688 v 0.3164062 c 0.6914063,0 0.7734375,0.070312 0.7734375,0.5507813 V 0.00102344 H 5.177125 l 0.3632812,-0.62109375 c 0.1523438,0.234375 0.5625,0.7265625 1.3007813,0.7265625 1.1835937,0 2.2265625,-0.97265625 2.2265625,-2.26171879 z m -0.8320313,0 c 0,0.3632813 -0.011719,0.9609375 -0.3046875,1.40625004 -0.2109375,0.31640625 -0.5859375,0.64453125 -1.125,0.64453125 -0.4453125,0 -0.8085937,-0.24609375 -1.0429687,-0.609375 -0.140625,-0.2109375 -0.140625,-0.24609375 -0.140625,-0.42187499 v -2.0507813 c 0,-0.1875 0,-0.1992187 0.1054687,-0.3632812 0.3867188,-0.5507813 0.9375,-0.6328125 1.171875,-0.6328125 0.4570313,0 0.8085938,0.2578125 1.0546875,0.6328125 0.2578125,0.4101562 0.28125,0.984375 0.28125,1.3945312 z m 4.0605473,-0.3398437 c 0,-0.7734375 -0.117188,-1.9804688 -0.65625,-3.1054688 -0.597657,-1.21875 -1.464844,-1.875 -1.558594,-1.875 -0.05859,0 -0.1054689,0.046875 -0.1054689,0.1054688 0,0.035156 0,0.046875 0.1992189,0.234375 0.972656,0.984375 1.535156,2.5664062 1.535156,4.640625 0,1.71093749 -0.363281,3.45703124 -1.59375,4.7226562 -0.1406249,0.1171875 -0.1406249,0.1289063 -0.1406249,0.1640625 0,0.058594 0.046875,0.1054688 0.1054689,0.1054688 0.09375,0 0.996094,-0.6796875 1.582031,-1.94531251 0.503906,-1.1015625 0.632813,-2.20312499 0.632813,-3.04687499 z m 0,0" style="fill:#000000;fill-opacity:1;fill-rule:nonzero;stroke:none" aria-label="(b)" transform="matrix(1.3333333,0,0,1.3333333,263.53467,162.33067)"/>
  </g>
</svg>