<?xml version="1.0" encoding="UTF-8" standalone="no"?>
<!-- Created with Inkscape (http://www.inkscape.org/) -->
<svg version="1.1" id="svg1" width="167.34666" height="117.69333" viewBox="0 0 167.34666 117.69333" sodipodi:docname="24-25-1-信号与系统-期中-题图2-4.pdf" xmlns:inkscape="http://www.inkscape.org/namespaces/inkscape" xmlns:sodipodi="http://sodipodi.sourceforge.net/DTD/sodipodi-0.dtd" xmlns="http://www.w3.org/2000/svg" xmlns:svg="http://www.w3.org/2000/svg">
  <defs id="defs1"/>
  <sodipodi:namedview id="namedview1" pagecolor="#ffffff" bordercolor="#000000" borderopacity="0.25" inkscape:showpageshadow="2" inkscape:pageopacity="0.0" inkscape:pagecheckerboard="0" inkscape:deskcolor="#d1d1d1">
    <inkscape:page x="0" y="0" inkscape:label="1" id="page1" width="167.34666" height="117.69333" margin="0" bleed="0"/>
  </sodipodi:namedview>
  <g id="g1" inkscape:groupmode="layer" inkscape:label="1">
    <path id="path1" d="M -31.18166,-70.867 V 17.00824 H 85.04042 V -70.867 Z" style="fill:#ffffff;fill-opacity:1;fill-rule:nonzero;stroke:#ffffff;stroke-width:0.3985;stroke-linecap:butt;stroke-linejoin:miter;stroke-miterlimit:10;stroke-dasharray:none;stroke-opacity:1" transform="matrix(1.3333333,0,0,-1.3333333,53.694667,22.938667)"/>
    <path id="path2" d="M 9.62515,0 C 9.62515,5.31589 5.31589,9.62515 0,9.62515 -5.31589,9.62515 -9.62515,5.31589 -9.62515,0 c 0,-5.31589 4.30926,-9.62515 9.62515,-9.62515 5.31589,0 9.62515,4.30926 9.62515,9.62515 z" style="fill:none;stroke:#000000;stroke-width:0.3985;stroke-linecap:butt;stroke-linejoin:miter;stroke-miterlimit:10;stroke-dasharray:none;stroke-opacity:1" transform="matrix(1.3333333,0,0,-1.3333333,53.694667,22.938667)"/>
    <path id="path3" d="m 3.7039531,-3.2466719 c 0.09375,-0.1054687 0.09375,-0.140625 0.09375,-0.1640625 0,-0.046875 -0.046875,-0.09375 -0.070312,-0.140625 l -2.039063,-2.9414062 h 2.296875 c 1.6875,0 2.1796875,0.3515625 2.390625,1.9335937 h 0.2460938 l -0.28125,-2.25 H 0.82114062 c -0.24609375,0 -0.2578125,0 -0.2578125,0.234375 l 2.47265628,3.609375 -2.36718753,2.69531252 c -0.10546875,0.10546875 -0.10546875,0.12890625 -0.10546875,0.1640625 0,0.105468755 0.10546875,0.105468755 0.2578125,0.105468755 H 6.3406719 L 6.6219219,-2.3560469 H 6.3758281 C 6.2000469,-0.69198438 5.5203594,-0.42245313 3.9500469,-0.42245313 H 1.2078594 Z m 0,0" style="fill:#000000;fill-opacity:1;fill-rule:nonzero;stroke:none" aria-label="Σ" transform="matrix(1.3333333,0,0,1.3333333,48.897333,27.477333)"/>
    <path id="path4" d="m 31.31587,-30.05293 h 22.40865 v 14.75084 H 31.31587 Z" style="fill:none;stroke:#000000;stroke-width:0.3985;stroke-linecap:butt;stroke-linejoin:miter;stroke-miterlimit:10;stroke-dasharray:none;stroke-opacity:1" transform="matrix(1.3333333,0,0,-1.3333333,53.694667,22.938667)"/>
    <g id="g4" aria-label="z&#xA;−1" transform="matrix(1.3333333,0,0,1.3333333,99.876,58.581333)">
      <path id="path5" d="M 1.3234687,-0.83150781 C 1.8625312,-1.4057266 2.1555,-1.6518203 2.5070625,-1.9565078 c 0,-0.011719 0.6210937,-0.5390625 0.984375,-0.9023438 0.9375,-0.9257812 1.1601562,-1.40625 1.1601562,-1.4414062 0,-0.1054688 -0.09375,-0.1054688 -0.1054687,-0.1054688 -0.070312,0 -0.1054688,0.023437 -0.1523438,0.1171875 -0.3046875,0.46875 -0.5039062,0.6328125 -0.75,0.6328125 -0.234375,0 -0.3515625,-0.1523437 -0.5039062,-0.3164062 -0.1875,-0.234375 -0.3632813,-0.4335938 -0.6914063,-0.4335938 -0.75,0 -1.2070312,0.9257813 -1.2070312,1.1367188 0,0.046875 0.035156,0.1171875 0.1171875,0.1171875 0.09375,0 0.1171875,-0.058594 0.140625,-0.1171875 0.1875,-0.4570313 0.7617187,-0.46875 0.84375,-0.46875 0.2109375,0 0.3984375,0.070312 0.6210937,0.1523437 0.3984375,0.1523438 0.515625,0.1523438 0.7734375,0.1523438 -0.3632812,0.421875 -1.1953125,1.1367187 -1.3828125,1.3007812 L 1.452375,-1.3002578 c -0.6796875,0.66796874 -1.01953125,1.24218749 -1.01953125,1.31249999 0,0.09375 0.09375,0.09375 0.1171875,0.09375 0.0820313,0 0.09375,-0.01171875 0.15234375,-0.12890625 0.234375,-0.33984375 0.5273437,-0.609375 0.8554687,-0.609375 0.2226563,0 0.328125,0.0820313 0.5742188,0.375 0.1640625,0.2109375 0.3515625,0.36328125 0.6328125,0.36328125 0.984375,0 1.5703125,-1.26562499 1.5703125,-1.53515629 0,-0.046875 -0.046875,-0.09375 -0.1171875,-0.09375 -0.09375,0 -0.1171875,0.058594 -0.140625,0.1289063 -0.234375,0.64453124 -0.8671875,0.83203124 -1.1953125,0.83203124 -0.1992188,0 -0.3867188,-0.0585938 -0.5859375,-0.12890625 -0.3398438,-0.12890625 -0.4921875,-0.1640625 -0.703125,-0.1640625 -0.023437,0 -0.1757813,0 -0.2695313,0.0234375 z m 0,0" style="fill:#000000;fill-opacity:1;fill-rule:nonzero;stroke:none"/>
      <path id="path6" d="m 10.261945,-5.1850234 c 0.105469,0 0.269532,0 0.269532,-0.1757813 0,-0.1757812 -0.152344,-0.1757812 -0.269532,-0.1757812 H 6.1017891 c -0.1054688,0 -0.28125,0 -0.28125,0.1757812 0,0.1757813 0.1640625,0.1757813 0.28125,0.1757813 z m 0,0" style="fill:#000000;fill-opacity:1;fill-rule:nonzero;stroke:none"/>
      <path id="path7" d="m 13.631086,-8.0443984 c 0,-0.1875 -0.01172,-0.1992188 -0.210938,-0.1992188 -0.445312,0.4335938 -1.078125,0.4453125 -1.359375,0.4453125 v 0.2460938 c 0.164063,0 0.621094,0 1.007813,-0.1875 v 3.5507812 c 0,0.234375 0,0.328125 -0.691406,0.328125 h -0.269532 v 0.2460938 c 0.128907,-0.011719 0.984375,-0.023437 1.242188,-0.023437 0.210937,0 1.089844,0.011719 1.242187,0.023437 v -0.2460938 h -0.257812 c -0.703125,0 -0.703125,-0.09375 -0.703125,-0.328125 z m 0,0" style="fill:#000000;fill-opacity:1;fill-rule:nonzero;stroke:none"/>
    </g>
    <path id="path8" d="m 31.31587,-64.06903 h 22.40865 v 14.75084 H 31.31587 Z" style="fill:none;stroke:#000000;stroke-width:0.3985;stroke-linecap:butt;stroke-linejoin:miter;stroke-miterlimit:10;stroke-dasharray:none;stroke-opacity:1" transform="matrix(1.3333333,0,0,-1.3333333,53.694667,22.938667)"/>
    <g id="g8" aria-label="z&#xA;−1" transform="matrix(1.3333333,0,0,1.3333333,99.876,103.936)">
      <path id="path9" d="M 1.3234687,-0.83090625 C 1.8625312,-1.405125 2.1555,-1.6512187 2.5070625,-1.9559062 c 0,-0.011719 0.6210937,-0.5390625 0.984375,-0.9023438 0.9375,-0.9257812 1.1601562,-1.40625 1.1601562,-1.4414062 0,-0.1054688 -0.09375,-0.1054688 -0.1054687,-0.1054688 -0.070312,0 -0.1054688,0.023437 -0.1523438,0.1171875 -0.3046875,0.46875 -0.5039062,0.6328125 -0.75,0.6328125 -0.234375,0 -0.3515625,-0.1523437 -0.5039062,-0.3164062 -0.1875,-0.234375 -0.3632813,-0.4335938 -0.6914063,-0.4335938 -0.75,0 -1.2070312,0.9257813 -1.2070312,1.1367188 0,0.046875 0.035156,0.1171875 0.1171875,0.1171875 0.09375,0 0.1171875,-0.058594 0.140625,-0.1171875 0.1875,-0.4570313 0.7617187,-0.46875 0.84375,-0.46875 0.2109375,0 0.3984375,0.070312 0.6210937,0.1523437 0.3984375,0.1523438 0.515625,0.1523438 0.7734375,0.1523438 C 3.37425,-3.0105937 2.5422187,-2.29575 2.3547187,-2.1316875 L 1.452375,-1.2996562 c -0.6796875,0.6679687 -1.01953125,1.24218745 -1.01953125,1.31249995 0,0.09375 0.09375,0.09375 0.1171875,0.09375 0.0820313,0 0.09375,-0.01171875 0.15234375,-0.12890625 0.234375,-0.33984375 0.5273437,-0.609375 0.8554687,-0.609375 0.2226563,0 0.328125,0.0820313 0.5742188,0.375 0.1640625,0.2109375 0.3515625,0.36328125 0.6328125,0.36328125 0.984375,0 1.5703125,-1.26562495 1.5703125,-1.53515625 0,-0.046875 -0.046875,-0.09375 -0.1171875,-0.09375 -0.09375,0 -0.1171875,0.058594 -0.140625,0.1289063 C 3.843,-0.748875 3.2101875,-0.561375 2.8820625,-0.561375 2.6828437,-0.561375 2.4953437,-0.6199688 2.296125,-0.69028125 1.9562812,-0.8191875 1.8039375,-0.85434375 1.593,-0.85434375 c -0.023437,0 -0.1757813,0 -0.2695313,0.0234375 z m 0,0" style="fill:#000000;fill-opacity:1;fill-rule:nonzero;stroke:none"/>
      <path id="path10" d="m 10.261945,-5.1844219 c 0.105469,0 0.269532,0 0.269532,-0.1757812 0,-0.1757813 -0.152344,-0.1757813 -0.269532,-0.1757813 H 6.1017891 c -0.1054688,0 -0.28125,0 -0.28125,0.1757813 0,0.1757812 0.1640625,0.1757812 0.28125,0.1757812 z m 0,0" style="fill:#000000;fill-opacity:1;fill-rule:nonzero;stroke:none"/>
      <path id="path11" d="m 13.631086,-8.0437969 c 0,-0.1875 -0.01172,-0.1992187 -0.210938,-0.1992187 -0.445312,0.4335937 -1.078125,0.4453125 -1.359375,0.4453125 v 0.2460937 c 0.164063,0 0.621094,0 1.007813,-0.1875 v 3.5507813 c 0,0.234375 0,0.328125 -0.691406,0.328125 h -0.269532 v 0.2460937 c 0.128907,-0.011719 0.984375,-0.023437 1.242188,-0.023437 0.210937,0 1.089844,0.011719 1.242187,0.023437 v -0.2460937 h -0.257812 c -0.703125,0 -0.703125,-0.09375 -0.703125,-0.328125 z m 0,0" style="fill:#000000;fill-opacity:1;fill-rule:nonzero;stroke:none"/>
    </g>
    <path id="path12" d="m -28.3468,0 h 18.06412" style="fill:none;stroke:#000000;stroke-width:0.3985;stroke-linecap:butt;stroke-linejoin:miter;stroke-miterlimit:10;stroke-dasharray:none;stroke-opacity:1" transform="matrix(1.3333333,0,0,-1.3333333,53.694667,22.938667)"/>
    <path id="path13" d="M -1.19551,1.59401 C -1.09587,0.99626 0,0.09961 0.29886,0 0,-0.09961 -1.09587,-0.99626 -1.19551,-1.59401" style="fill:none;stroke:#000000;stroke-width:0.31879;stroke-linecap:round;stroke-linejoin:round;stroke-miterlimit:10;stroke-dasharray:none;stroke-opacity:1" transform="matrix(1.3333333,0,0,-1.3333333,39.984427,22.938667)"/>
    <g id="g13" aria-label="x[n]" transform="matrix(1.3333333,0,0,1.3333333,4.4266667,14.921333)">
      <path id="path14" d="m 3.3274609,-3.0113125 c 0.058594,-0.2578125 0.2929688,-1.171875 0.984375,-1.171875 0.046875,0 0.2929688,0 0.5039063,0.1289062 -0.28125,0.046875 -0.4804688,0.3046875 -0.4804688,0.5390625 0,0.1640625 0.1054688,0.3515625 0.375,0.3515625 0.2226563,0 0.5390625,-0.1875 0.5390625,-0.5859375 0,-0.515625 -0.5859375,-0.65625 -0.9257812,-0.65625 -0.5742188,0 -0.9257813,0.5273438 -1.0429688,0.7617188 -0.2578125,-0.65625 -0.7851562,-0.7617188 -1.078125,-0.7617188 -1.0429687,0 -1.60546871,1.2890625 -1.60546871,1.5351563 0,0.1054687 0.10546875,0.1054687 0.1171875,0.1054687 0.0820313,0 0.1171875,-0.023437 0.12890625,-0.1171875 0.33984376,-1.0546875 0.99609376,-1.3007812 1.33593746,-1.3007812 0.1875,0 0.5390625,0.09375 0.5390625,0.6679687 0,0.3046875 -0.1640625,0.9726563 -0.5390625,2.3671875 -0.1523437,0.6210938 -0.5039062,1.0429688 -0.9492187,1.0429688 -0.058594,0 -0.28125001,0 -0.49218751,-0.12890625 C 0.98371094,-0.2925625 1.2063672,-0.5035 1.2063672,-0.77303125 c 0,-0.26953125 -0.22265626,-0.35156255 -0.37500001,-0.35156255 -0.29296875,0 -0.5390625,0.25781255 -0.5390625,0.5742188 0,0.45703125 0.4921875,0.65625 0.93750001,0.65625 0.65625,0 1.0078125,-0.69140625 1.0429687,-0.75 0.1171875,0.36328125 0.4804688,0.75 1.078125,0.75 1.0195313,0 1.59375,-1.2773438 1.59375,-1.5351563 0,-0.09375 -0.09375,-0.09375 -0.1289062,-0.09375 -0.082031,0 -0.1054688,0.035156 -0.1289063,0.1054688 -0.328125,1.06640625 -0.9960937,1.3125 -1.3242187,1.3125 -0.3867188,0 -0.5390625,-0.328125 -0.5390625,-0.65625 0,-0.22265625 0.058594,-0.4453125 0.1640625,-0.8789063 z m 0,0" style="fill:#000000;fill-opacity:1;fill-rule:nonzero;stroke:none"/>
      <path id="path15" d="M 8.2376172,2.4965 V 2.0980625 H 7.2649609 V -7.0777188 H 8.2376172 V -7.4761563 H 6.8665234 V 2.4965 Z m 0,0" style="fill:#000000;fill-opacity:1;fill-rule:nonzero;stroke:none"/>
      <path id="path16" d="m 9.3421094,-0.58553125 c -0.035156,0.15234375 -0.09375,0.375 -0.09375,0.421875 0,0.1875 0.140625,0.26953125 0.2929687,0.26953125 0.1171875,0 0.2929688,-0.0703125 0.3632813,-0.26953125 0.011719,-0.0234375 0.1289066,-0.4921875 0.1874996,-0.73828125 l 0.222657,-0.9023438 c 0.05859,-0.2226562 0.117187,-0.4335937 0.175781,-0.6679687 0.03516,-0.1640625 0.117187,-0.4570313 0.128906,-0.4921875 0.140625,-0.3164063 0.667969,-1.21875 1.617188,-1.21875 0.445312,0 0.539062,0.3632812 0.539062,0.6914062 0,0.6210938 -0.492187,1.8984375 -0.644531,2.3320313 -0.09375,0.22265625 -0.105469,0.33984375 -0.105469,0.45703125 0,0.46875 0.351563,0.80859375 0.820313,0.80859375 0.9375,0 1.300781,-1.453125 1.300781,-1.5351563 0,-0.09375 -0.08203,-0.09375 -0.117188,-0.09375 -0.09375,0 -0.09375,0.023437 -0.152343,0.1757813 -0.199219,0.6796875 -0.527344,1.2421875 -1.007813,1.2421875 -0.175781,0 -0.246094,-0.10546875 -0.246094,-0.328125 0,-0.2578125 0.09375,-0.4921875 0.1875,-0.7148438 0.1875,-0.5273437 0.597657,-1.6171875 0.597657,-2.1914062 0,-0.6679688 -0.421875,-1.0664063 -1.136719,-1.0664063 -0.902344,0 -1.382813,0.6445313 -1.558594,0.8671875 -0.04687,-0.5507812 -0.457031,-0.8671875 -0.9140624,-0.8671875 -0.4570312,0 -0.6445312,0.3867188 -0.75,0.5742188 -0.1523437,0.3398437 -0.2929687,0.9257812 -0.2929687,0.9609375 0,0.1054687 0.09375,0.1054687 0.1171875,0.1054687 0.09375,0 0.1054687,-0.011719 0.1640625,-0.234375 0.1757812,-0.703125 0.375,-1.1835937 0.7265625,-1.1835937 0.1992187,0 0.3164066,0.1289062 0.3164066,0.4570312 0,0.2109375 -0.03516,0.3164063 -0.1640629,0.8320313 z m 0,0" style="fill:#000000;fill-opacity:1;fill-rule:nonzero;stroke:none"/>
      <path id="path17" d="m 16.024727,-7.4761563 h -1.359375 v 0.3984375 h 0.960937 V 2.0980625 H 14.665352 V 2.4965 h 1.359375 z m 0,0" style="fill:#000000;fill-opacity:1;fill-rule:nonzero;stroke:none"/>
    </g>
    <path id="path18" d="M 9.8244,0 H 70.40874" style="fill:none;stroke:#000000;stroke-width:0.3985;stroke-linecap:butt;stroke-linejoin:miter;stroke-miterlimit:10;stroke-dasharray:none;stroke-opacity:1" transform="matrix(1.3333333,0,0,-1.3333333,53.694667,22.938667)"/>
    <path id="path19" d="M -1.19551,1.59401 C -1.09587,0.99626 0,0.09961 0.29886,0 0,-0.09961 -1.09587,-0.99626 -1.19551,-1.59401" style="fill:none;stroke:#000000;stroke-width:0.31879;stroke-linecap:round;stroke-linejoin:round;stroke-miterlimit:10;stroke-dasharray:none;stroke-opacity:1" transform="matrix(1.3333333,0,0,-1.3333333,147.57299,22.938667)"/>
    <g id="g19" aria-label="y[n]" transform="matrix(1.3333333,0,0,1.3333333,137.01333,14.921333)">
      <path id="path20" d="m 4.8386328,-3.7964688 c 0.046875,-0.140625 0.046875,-0.1523437 0.046875,-0.2226562 0,-0.1875 -0.140625,-0.2695313 -0.2929687,-0.2695313 -0.1054688,0 -0.2578125,0.058594 -0.3515625,0.1992188 -0.023437,0.058594 -0.09375,0.3632812 -0.140625,0.5390625 -0.070312,0.2578125 -0.140625,0.5273437 -0.1992188,0.796875 l -0.4453125,1.79296875 c -0.035156,0.15234375 -0.46875,0.85546875 -1.125,0.85546875 -0.5039062,0 -0.6210937,-0.4453125 -0.6210937,-0.80859375 0,-0.45703125 0.1757812,-1.07812505 0.515625,-1.95703125 0.1523437,-0.4101563 0.1992187,-0.515625 0.1992187,-0.7148438 0,-0.4453125 -0.328125,-0.8203125 -0.8203125,-0.8203125 -0.94921874,0 -1.31249999,1.453125 -1.31249999,1.5351563 0,0.1054687 0.09375,0.1054687 0.1171875,0.1054687 0.09375,0 0.10546875,-0.023437 0.15234375,-0.1875 0.26953125,-0.9375 0.66796874,-1.2304687 1.00781254,-1.2304687 0.082031,0 0.2578125,0 0.2578125,0.3164062 0,0.2460938 -0.1054688,0.515625 -0.1757813,0.703125 -0.3984375,1.0546875 -0.5742187,1.6171875 -0.5742187,2.0859375 0,0.89062505 0.6210937,1.1835938 1.21875,1.1835938 0.3867187,0 0.7265625,-0.1640625 0.9960937,-0.4453125 C 3.1628516,0.1761875 3.0456641,0.668375 2.6472266,1.1957187 2.3894141,1.5355625 2.0144141,1.8285312 1.5573828,1.8285312 c -0.140625,0 -0.59765624,-0.035156 -0.76171874,-0.421875 0.1640625,0 0.29296874,0 0.43359374,-0.1171875 0.09375,-0.09375 0.1992188,-0.2226562 0.1992188,-0.4101562 0,-0.31640625 -0.2695313,-0.3515625 -0.375,-0.3515625 -0.22265629,0 -0.55078129,0.1640625 -0.55078129,0.6445312 0,0.5039063 0.43359375,0.8671875 1.05468749,0.8671875 1.0195313,0 2.0507813,-0.9023437 2.3320313,-2.0273437 z m 0,0" style="fill:#000000;fill-opacity:1;fill-rule:nonzero;stroke:none"/>
      <path id="path21" d="M 7.7858984,2.4965 V 2.0980625 H 6.8132422 V -7.0777188 H 7.7858984 V -7.4761563 H 6.4148047 V 2.4965 Z m 0,0" style="fill:#000000;fill-opacity:1;fill-rule:nonzero;stroke:none"/>
      <path id="path22" d="m 8.8874609,-0.58553125 c -0.035156,0.15234375 -0.09375,0.375 -0.09375,0.421875 0,0.1875 0.140625,0.26953125 0.2929688,0.26953125 0.1171875,0 0.2929687,-0.0703125 0.3632812,-0.26953125 0.011719,-0.0234375 0.1289063,-0.4921875 0.1875,-0.73828125 l 0.2226563,-0.9023438 c 0.058594,-0.2226562 0.1171875,-0.4335937 0.1757808,-0.6679687 0.03516,-0.1640625 0.117188,-0.4570313 0.128907,-0.4921875 0.140625,-0.3164063 0.667968,-1.21875 1.617187,-1.21875 0.445313,0 0.539063,0.3632812 0.539063,0.6914062 0,0.6210938 -0.492188,1.8984375 -0.644532,2.3320313 -0.09375,0.22265625 -0.105468,0.33984375 -0.105468,0.45703125 0,0.46875 0.351562,0.80859375 0.820312,0.80859375 0.9375,0 1.300781,-1.453125 1.300781,-1.5351563 0,-0.09375 -0.08203,-0.09375 -0.117187,-0.09375 -0.09375,0 -0.09375,0.023437 -0.152344,0.1757813 -0.199219,0.6796875 -0.527344,1.2421875 -1.007812,1.2421875 -0.175782,0 -0.246094,-0.10546875 -0.246094,-0.328125 0,-0.2578125 0.09375,-0.4921875 0.1875,-0.7148438 0.1875,-0.5273437 0.597656,-1.6171875 0.597656,-2.1914062 0,-0.6679688 -0.421875,-1.0664063 -1.136719,-1.0664063 -0.902343,0 -1.382812,0.6445313 -1.558593,0.8671875 -0.04687,-0.5507812 -0.4570316,-0.8671875 -0.9140628,-0.8671875 -0.4570313,0 -0.6445313,0.3867188 -0.75,0.5742188 -0.1523438,0.3398437 -0.2929688,0.9257812 -0.2929688,0.9609375 0,0.1054687 0.09375,0.1054687 0.1171875,0.1054687 0.09375,0 0.1054688,-0.011719 0.1640625,-0.234375 0.1757813,-0.703125 0.375,-1.1835937 0.7265625,-1.1835937 0.1992188,0 0.3164063,0.1289062 0.3164063,0.4570312 0,0.2109375 -0.035156,0.3164063 -0.1640625,0.8320313 z m 0,0" style="fill:#000000;fill-opacity:1;fill-rule:nonzero;stroke:none"/>
      <path id="path23" d="m 15.573008,-7.4761563 h -1.359375 v 0.3984375 H 15.17457 V 2.0980625 H 14.213633 V 2.4965 h 1.359375 z m 0,0" style="fill:#000000;fill-opacity:1;fill-rule:nonzero;stroke:none"/>
    </g>
    <path id="path24" d="m 42.5202,0 v -15.10284 m 0,-15.14934 v -9.43317 H 14.17339 L 3.45825,-9.68315" style="fill:none;stroke:#000000;stroke-width:0.3985;stroke-linecap:butt;stroke-linejoin:miter;stroke-miterlimit:10;stroke-dasharray:none;stroke-opacity:1" transform="matrix(1.3333333,0,0,-1.3333333,53.694667,22.938667)"/>
    <path id="path25" d="M -1.19551,1.59401 C -1.09587,0.99626 0,0.09961 0.29886,0 0,-0.09961 -1.09587,-0.99626 -1.19551,-1.59401" style="fill:none;stroke:#000000;stroke-width:0.31879;stroke-linecap:round;stroke-linejoin:round;stroke-miterlimit:10;stroke-dasharray:none;stroke-opacity:1" transform="matrix(-0.44842667,-1.2556,-1.2556,0.44842667,58.305693,35.849533)"/>
    <path id="path26" d="M 42.5202,-30.25218 V -49.11894 M 31.11662,-56.69362 H 0 v 46.41094" style="fill:none;stroke:#000000;stroke-width:0.3985;stroke-linecap:butt;stroke-linejoin:miter;stroke-miterlimit:10;stroke-dasharray:none;stroke-opacity:1" transform="matrix(1.3333333,0,0,-1.3333333,53.694667,22.938667)"/>
    <path id="path27" d="M -1.19551,1.59401 C -1.09587,0.99626 0,0.09961 0.29886,0 0,-0.09961 -1.09587,-0.99626 -1.19551,-1.59401" style="fill:none;stroke:#000000;stroke-width:0.31879;stroke-linecap:round;stroke-linejoin:round;stroke-miterlimit:10;stroke-dasharray:none;stroke-opacity:1" transform="matrix(0,-1.3333333,-1.3333333,0,53.694667,36.648907)"/>
    <g id="g27" aria-label="1.3" transform="matrix(1.3333333,0,0,1.3333333,73.554667,72.573333)">
      <path id="path28" d="m 2.9297031,-6.3743359 c 0,-0.234375 0,-0.2578125 -0.234375,-0.2578125 -0.609375,0.6328125 -1.4882812,0.6328125 -1.80468747,0.6328125 v 0.3164062 c 0.19921877,0 0.78515627,0 1.30078127,-0.2578125 v 5.15625001 c 0,0.3515625 -0.035156,0.48046875 -0.9257813,0.48046875 H 0.94923438 V 6.640625e-4 C 1.3007969,-0.03449219 2.1562656,-0.03449219 2.5547031,-0.03449219 c 0.3984375,0 1.265625,0 1.6171875,0.0351562525 V -0.30402344 H 3.8554844 c -0.9023438,0 -0.9257813,-0.1171875 -0.9257813,-0.48046875 z m 0,0" style="fill:#000000;fill-opacity:1;fill-rule:nonzero;stroke:none"/>
      <path id="path29" d="m 6.8935703,-0.52667969 c 0,-0.29296875 -0.234375,-0.52734371 -0.5273437,-0.52734371 -0.28125,0 -0.5273438,0.23437496 -0.5273438,0.52734371 0,0.29296875 0.2460938,0.5273437525 0.5273438,0.5273437525 0.2929687,0 0.5273437,-0.2343750025 0.5273437,-0.5273437525 z m 0,0" style="fill:#000000;fill-opacity:1;fill-rule:nonzero;stroke:none"/>
      <path id="path30" d="m 10.64357,-3.5032422 c 0.808594,-0.2695312 1.394532,-0.9726562 1.394532,-1.7578125 0,-0.8203125 -0.878907,-1.3710937 -1.839844,-1.3710937 -1.0078127,0 -1.7578127,0.5976562 -1.7578127,1.3476562 0,0.3398438 0.2109375,0.5273438 0.5039063,0.5273438 0.3046875,0 0.5039062,-0.2226563 0.5039062,-0.515625 0,-0.4921875 -0.46875,-0.4921875 -0.609375,-0.4921875 0.3046875,-0.4921875 0.9609375,-0.6210938 1.3242192,-0.6210938 0.410156,0 0.949218,0.2226563 0.949218,1.1132813 0,0.1289062 -0.01172,0.703125 -0.269531,1.1367187 -0.304687,0.4804688 -0.644531,0.515625 -0.8906249,0.515625 -0.082031,0.011719 -0.3164063,0.035156 -0.3867188,0.035156 -0.082031,0.011719 -0.1523437,0.023437 -0.1523437,0.1171875 0,0.1171875 0.070312,0.1171875 0.234375,0.1171875 h 0.4453124 c 0.808594,0 1.183594,0.6679687 1.183594,1.6523437 0,1.34765626 -0.691406,1.64062501 -1.125,1.64062501 -0.4335939,0 -1.1718752,-0.17578125 -1.5234377,-0.76171875 0.3515625,0.0585938 0.65625,-0.1640625 0.65625,-0.53906246 0,-0.3632813 -0.2695312,-0.5625 -0.5625,-0.5625 -0.234375,0 -0.5507812,0.140625 -0.5507812,0.5742187 0,0.91406251 0.9257812,1.57031251 2.0039059,1.57031251 1.21875,0 2.121094,-0.9140625 2.121094,-1.92187501 0,-0.8203125 -0.621094,-1.59375 -1.652344,-1.8046872 z m 0,0" style="fill:#000000;fill-opacity:1;fill-rule:nonzero;stroke:none"/>
    </g>
    <g id="g30" aria-label="−0.4" transform="matrix(1.3333333,0,0,1.3333333,21.144,83.358667)">
      <path id="path31" d="m 6.5628984,-2.2963437 c 0.1757813,0 0.3515625,0 0.3515625,-0.1992188 0,-0.1992187 -0.1757812,-0.1992187 -0.3515625,-0.1992187 h -5.390625 c -0.1640625,0 -0.33984371,0 -0.33984371,0.1992187 0,0.1992188 0.17578121,0.1992188 0.33984371,0.1992188 z m 0,0" style="fill:#000000;fill-opacity:1;fill-rule:nonzero;stroke:none"/>
      <path id="path32" d="m 12.331453,-3.1869687 c 0,-0.796875 -0.04687,-1.59375 -0.398437,-2.3320313 -0.457032,-0.9609375 -1.277344,-1.1132812 -1.6875,-1.1132812 -0.5976566,0 -1.3359379,0.2578125 -1.7343754,1.1835937 -0.328125,0.6914063 -0.375,1.4648438 -0.375,2.2617188 0,0.75 0.046875,1.640625 0.4453125,2.4023437 0.4335938,0.80859375 1.1601563,1.0078125 1.6523439,1.0078125 0.539062,0 1.289062,-0.2109375 1.734375,-1.16015625 0.316406,-0.69140625 0.363281,-1.46484375 0.363281,-2.24999995 z M 10.233797,5.3125e-4 C 9.8470781,5.3125e-4 9.2494219,-0.2455625 9.0736406,-1.2065 8.9681719,-1.8041562 8.9681719,-2.7182187 8.9681719,-3.3041562 c 0,-0.6445313 0,-1.3007813 0.082031,-1.8398438 0.1875,-1.1835937 0.9257813,-1.265625 1.1835941,-1.265625 0.328125,0 0.984375,0.1757813 1.171875,1.1601563 0.09375,0.5625 0.09375,1.3125 0.09375,1.9453125 0,0.75 0,1.4179687 -0.105469,2.0625 -0.152344,0.93749995 -0.714844,1.24218745 -1.160156,1.24218745 z m 0,0" style="fill:#000000;fill-opacity:1;fill-rule:nonzero;stroke:none"/>
      <path id="path33" d="m 14.640047,-0.5268125 c 0,-0.29296875 -0.234375,-0.5273437 -0.527344,-0.5273437 -0.28125,0 -0.527344,0.23437495 -0.527344,0.5273437 0,0.29296875 0.246094,0.52734375 0.527344,0.52734375 0.292969,0 0.527344,-0.234375 0.527344,-0.52734375 z m 0,0" style="fill:#000000;fill-opacity:1;fill-rule:nonzero;stroke:none"/>
      <path id="path34" d="m 18.428133,-1.6400937 v 0.86718745 c 0,0.3515625 -0.02344,0.46875 -0.761719,0.46875 h -0.210937 v 0.3046875 c 0.410156,-0.03515625 0.9375,-0.03515625 1.347656,-0.03515625 0.421875,0 0.949219,0 1.359375,0.03515625 v -0.3046875 H 19.95157 c -0.738281,0 -0.761718,-0.1171875 -0.761718,-0.46875 V -1.6400937 h 0.996093 V -1.9565 h -0.996093 v -4.5234375 c 0,-0.1992187 0,-0.2578125 -0.152344,-0.2578125 -0.09375,0 -0.117188,0 -0.199219,0.1171875 L 15.779695,-1.9565 v 0.3164063 z M 18.486727,-1.9565 h -2.425782 l 2.425782,-3.7148437 z m 0,0" style="fill:#000000;fill-opacity:1;fill-rule:nonzero;stroke:none"/>
    </g>
  </g>
</svg>