<?xml version="1.0" encoding="UTF-8" standalone="no"?>
<!-- Created with Inkscape (http://www.inkscape.org/) -->
<svg version="1.1" id="svg1" width="215.96001" height="231.08" viewBox="0 0 215.96001 231.08" sodipodi:docname="24-25-1-信号与系统-期中-题图2-2.pdf" xmlns:inkscape="http://www.inkscape.org/namespaces/inkscape" xmlns:sodipodi="http://sodipodi.sourceforge.net/DTD/sodipodi-0.dtd" xmlns="http://www.w3.org/2000/svg" xmlns:svg="http://www.w3.org/2000/svg">
  <defs id="defs1"/>
  <sodipodi:namedview id="namedview1" pagecolor="#ffffff" bordercolor="#000000" borderopacity="0.25" inkscape:showpageshadow="2" inkscape:pageopacity="0.0" inkscape:pagecheckerboard="0" inkscape:deskcolor="#d1d1d1">
    <inkscape:page x="0" y="0" inkscape:label="1" id="page1" width="215.96001" height="231.08" margin="0" bleed="0"/>
  </sodipodi:namedview>
  <g id="g1" inkscape:groupmode="layer" inkscape:label="1">
    <path id="path1" d="M -19.84267,-19.84267 V 153.07259 H 141.73404 V -19.84267 Z" style="fill:#ffffff;fill-opacity:1;fill-rule:nonzero;stroke:#ffffff;stroke-width:0.3985;stroke-linecap:butt;stroke-linejoin:miter;stroke-miterlimit:10;stroke-dasharray:none;stroke-opacity:1" transform="matrix(1.3333333,0,0,-1.3333333,26.722667,204.35733)"/>
    <path id="path2" d="m 28.34666,-1.99255 v 3.9851" style="fill:none;stroke:#000000;stroke-width:0.3985;stroke-linecap:round;stroke-linejoin:miter;stroke-miterlimit:10;stroke-dasharray:none;stroke-opacity:1" transform="matrix(1.3333333,0,0,-1.3333333,26.722667,204.35733)"/>
    <path id="path3" d="m 56.69334,-1.99255 v 3.9851" style="fill:none;stroke:#000000;stroke-width:0.3985;stroke-linecap:round;stroke-linejoin:miter;stroke-miterlimit:10;stroke-dasharray:none;stroke-opacity:1" transform="matrix(1.3333333,0,0,-1.3333333,26.722667,204.35733)"/>
    <path id="path4" d="m 85.04,-1.99255 v 3.9851" style="fill:none;stroke:#000000;stroke-width:0.3985;stroke-linecap:round;stroke-linejoin:miter;stroke-miterlimit:10;stroke-dasharray:none;stroke-opacity:1" transform="matrix(1.3333333,0,0,-1.3333333,26.722667,204.35733)"/>
    <path id="path5" d="m 113.38669,-1.99255 v 3.9851" style="fill:none;stroke:#000000;stroke-width:0.3985;stroke-linecap:round;stroke-linejoin:miter;stroke-miterlimit:10;stroke-dasharray:none;stroke-opacity:1" transform="matrix(1.3333333,0,0,-1.3333333,26.722667,204.35733)"/>
    <path id="path6" d="m -1.99255,28.34666 h 3.9851" style="fill:none;stroke:#000000;stroke-width:0.3985;stroke-linecap:round;stroke-linejoin:miter;stroke-miterlimit:10;stroke-dasharray:none;stroke-opacity:1" transform="matrix(1.3333333,0,0,-1.3333333,26.722667,204.35733)"/>
    <path id="path7" d="m -1.99255,56.69334 h 3.9851" style="fill:none;stroke:#000000;stroke-width:0.3985;stroke-linecap:round;stroke-linejoin:miter;stroke-miterlimit:10;stroke-dasharray:none;stroke-opacity:1" transform="matrix(1.3333333,0,0,-1.3333333,26.722667,204.35733)"/>
    <path id="path8" d="m -1.99255,85.04 h 3.9851" style="fill:none;stroke:#000000;stroke-width:0.3985;stroke-linecap:round;stroke-linejoin:miter;stroke-miterlimit:10;stroke-dasharray:none;stroke-opacity:1" transform="matrix(1.3333333,0,0,-1.3333333,26.722667,204.35733)"/>
    <path id="path9" d="m -1.99255,113.38669 h 3.9851" style="fill:none;stroke:#000000;stroke-width:0.3985;stroke-linecap:round;stroke-linejoin:miter;stroke-miterlimit:10;stroke-dasharray:none;stroke-opacity:1" transform="matrix(1.3333333,0,0,-1.3333333,26.722667,204.35733)"/>
    <path id="path10" d="M -13.1414,0 H 126.06982" style="fill:none;stroke:#000000;stroke-width:0.3985;stroke-linecap:butt;stroke-linejoin:miter;stroke-miterlimit:10;stroke-dasharray:none;stroke-opacity:1" transform="matrix(1.3333333,0,0,-1.3333333,26.722667,204.35733)"/>
    <path id="path11" d="M -1.19551,1.59401 C -1.09587,0.99626 0,0.09961 0.29886,0 0,-0.09961 -1.09587,-0.99626 -1.19551,-1.59401" style="fill:none;stroke:#000000;stroke-width:0.31879;stroke-linecap:round;stroke-linejoin:round;stroke-miterlimit:10;stroke-dasharray:none;stroke-opacity:1" transform="matrix(1.3333333,0,0,-1.3333333,194.81576,204.35733)"/>
    <path id="path12" d="M 0,-13.1414 V 134.57382" style="fill:none;stroke:#000000;stroke-width:0.3985;stroke-linecap:butt;stroke-linejoin:miter;stroke-miterlimit:10;stroke-dasharray:none;stroke-opacity:1" transform="matrix(1.3333333,0,0,-1.3333333,26.722667,204.35733)"/>
    <path id="path13" d="M -1.19551,1.59401 C -1.09587,0.99626 0,0.09961 0.29886,0 0,-0.09961 -1.09587,-0.99626 -1.19551,-1.59401" style="fill:none;stroke:#000000;stroke-width:0.31879;stroke-linecap:round;stroke-linejoin:round;stroke-miterlimit:10;stroke-dasharray:none;stroke-opacity:1" transform="matrix(0,-1.3333333,-1.3333333,0,26.722667,24.925573)"/>
    <path id="path14" d="m 2.5072969,-5.0754609 c 0,-0.2226563 -0.023437,-0.2226563 -0.234375,-0.2226563 -0.328125,0.3164063 -0.75,0.5039063 -1.51171877,0.5039063 v 0.2695312 c 0.22265625,0 0.64453127,0 1.11328127,-0.2226562 v 4.08984371 c 0,0.29296875 -0.023437,0.3984375 -0.7851563,0.3984375 H 0.80807813 v 0.2578125 c 0.32812497,-0.0234375 1.01953127,-0.0234375 1.37109377,-0.0234375 0.3632812,0 1.0546875,0 1.3828125,0.0234375 v -0.2578125 h -0.28125 c -0.75,0 -0.7734375,-0.10546875 -0.7734375,-0.3984375 z m 0,0" style="fill:#000000;fill-opacity:1;fill-rule:nonzero;stroke:none" aria-label="1" transform="matrix(1.3333333,0,0,1.3333333,61.696,217.404)"/>
    <path id="path15" d="m 2.2511406,-1.6301484 c 0.1289063,-0.1171875 0.4570313,-0.375 0.5859375,-0.4921875 0.4921875,-0.4570313 0.9609375,-0.890625 0.9609375,-1.6171875 0,-0.9492188 -0.796875,-1.5585938 -1.7929687,-1.5585938 -0.9492188,0 -1.58203127,0.7265625 -1.58203127,1.4296875 0,0.3984375 0.31640625,0.4453125 0.421875,0.4453125 0.16406247,0 0.41015627,-0.1171875 0.41015627,-0.421875 0,-0.4101562 -0.39843752,-0.4101562 -0.49218752,-0.4101562 0.234375,-0.5859375 0.77343752,-0.7851563 1.16015622,-0.7851563 0.7382813,0 1.125,0.6328125 1.125,1.3007813 0,0.8320312 -0.5859375,1.4296875 -1.5234375,2.4023437 l -1.00781247,1.03125001 c -0.09375,0.09375 -0.09375,0.10546875 -0.09375,0.3046875 H 3.5753594 L 3.7980156,-1.4309297 H 3.5519219 c -0.023437,0.1640625 -0.082031,0.56250001 -0.1757813,0.71484376 -0.046875,0.0585938 -0.65625,0.0585938 -0.7851562,0.0585938 H 1.1730156 Z m 0,0" style="fill:#000000;fill-opacity:1;fill-rule:nonzero;stroke:none" aria-label="2" transform="matrix(1.3333333,0,0,1.3333333,99.490667,217.404)"/>
    <path id="path16" d="m 2.0144922,-2.6613984 c 0.6328125,0 1.03125,0.4570312 1.03125,1.3007812 0,0.99609376 -0.5742188,1.28906251 -0.9960938,1.28906251 -0.4335937,0 -1.03125,-0.1640625 -1.31249996,-0.5859375 0.29296876,0 0.49218746,-0.17578125 0.49218746,-0.44531251 0,-0.2578125 -0.1875,-0.4335937 -0.44531246,-0.4335937 -0.2109375,0 -0.43359375,0.1289062 -0.43359375,0.4570312 0,0.75000001 0.80859371,1.24218751 1.72265621,1.24218751 1.0546875,0 1.7929688,-0.7265625 1.7929688,-1.52343751 0,-0.6679687 -0.515625,-1.265625 -1.3359375,-1.4414062 0.6328125,-0.2226563 1.1015625,-0.7734375 1.1015625,-1.40625 0,-0.6328125 -0.7148438,-1.0898438 -1.546875,-1.0898438 -0.8554688,0 -1.50000001,0.4570313 -1.50000001,1.0664063 0,0.2929687 0.19921875,0.421875 0.41015625,0.421875 0.24609376,0 0.41015626,-0.1757813 0.41015626,-0.4101563 0,-0.2929687 -0.2578125,-0.3984375 -0.43359376,-0.4101562 0.33984376,-0.4335938 0.94921876,-0.46875 1.08984376,-0.46875 0.2109375,0 0.8085937,0.070312 0.8085937,0.890625 0,0.5625 -0.2226562,0.890625 -0.3398437,1.0195312 -0.234375,0.2460938 -0.421875,0.2578125 -0.9023438,0.2929688 -0.1523437,0.011719 -0.2226562,0.023437 -0.2226562,0.1171875 0,0.1171875 0.070312,0.1171875 0.2109375,0.1171875 z m 0,0" style="fill:#000000;fill-opacity:1;fill-rule:nonzero;stroke:none" aria-label="3" transform="matrix(1.3333333,0,0,1.3333333,137.28667,217.404)"/>
    <path id="path17" d="m 3.1401484,-5.1574922 c 0,-0.1640625 0,-0.2226562 -0.1640625,-0.2226562 -0.1054687,0 -0.1171875,0.011719 -0.1992187,0.1171875 l -2.54296876,3.6914062 v 0.2578125 H 2.4838984 v 0.66796876 c 0,0.29296875 -0.023437,0.38671875 -0.6328125,0.38671875 h -0.1875 v 0.2578125 c 0.6796875,-0.0234375 0.6914063,-0.0234375 1.1484375,-0.0234375 0.4570313,0 0.46875,0 1.1484375,0.0234375 v -0.2578125 h -0.1875 c -0.609375,0 -0.6328125,-0.09375 -0.6328125,-0.38671875 V -1.3137422 h 0.84375 v -0.2578125 h -0.84375 z m -0.5976562,0.6445313 v 2.9414062 H 0.51514844 Z m 0,0" style="fill:#000000;fill-opacity:1;fill-rule:nonzero;stroke:none" aria-label="4" transform="matrix(1.3333333,0,0,1.3333333,175.08267,217.404)"/>
    <path id="path18" d="m 3.9017109,-2.5433984 c 0,-0.8554688 -0.09375,-1.3710938 -0.3515625,-1.875 -0.3515625,-0.703125 -0.9960937,-0.8789063 -1.4414062,-0.8789063 -0.9960938,0 -1.37109376,0.75 -1.47656251,0.9726563 -0.29296875,0.5742187 -0.3046875,1.3710937 -0.3046875,1.78125 0,0.5273437 0.0234375,1.3359375 0.41015625,1.96874996 0.36328126,0.5859375 0.94921876,0.73828125 1.37109376,0.73828125 0.3867187,0 1.0664062,-0.1171875 1.4648437,-0.90234375 0.2929688,-0.57421876 0.328125,-1.28906246 0.328125,-1.80468746 z m -1.7929687,2.48437496 c -0.2695313,0 -0.8203125,-0.12890625 -0.984375,-0.96093746 -0.09375,-0.4570313 -0.09375,-1.2070313 -0.09375,-1.6171875 0,-0.5507813 0,-1.1132813 0.09375,-1.546875 0.1640625,-0.8085938 0.7851562,-0.890625 0.984375,-0.890625 0.2695312,0 0.8203125,0.1289062 0.984375,0.8554687 0.09375,0.4453125 0.09375,1.0429688 0.09375,1.5820313 0,0.46875 0,1.1835937 -0.09375,1.6289062 -0.1640625,0.84375001 -0.7148438,0.94921876 -0.984375,0.94921876 z m 0,0" style="fill:#000000;fill-opacity:1;fill-rule:nonzero;stroke:none" aria-label="0" transform="matrix(1.3333333,0,0,1.3333333,17.536,214.74667)"/>
    <path id="path19" d="m 2.5079922,-5.0730078 c 0,-0.2226563 -0.023437,-0.2226563 -0.234375,-0.2226563 -0.328125,0.3164063 -0.75,0.5039063 -1.51171876,0.5039063 v 0.2695312 c 0.22265625,0 0.64453126,0 1.11328126,-0.2226562 v 4.08984374 c 0,0.29296875 -0.023437,0.3984375 -0.7851563,0.3984375 H 0.80877344 v 0.2578125 c 0.32812496,-0.0234375 1.01953126,-0.0234375 1.37109376,-0.0234375 0.3632812,0 1.0546875,0 1.3828125,0.0234375 v -0.2578125 h -0.28125 c -0.75,0 -0.7734375,-0.10546875 -0.7734375,-0.3984375 z m 0,0" style="fill:#000000;fill-opacity:1;fill-rule:nonzero;stroke:none" aria-label="1" transform="matrix(1.3333333,0,0,1.3333333,14.878667,169.98667)"/>
    <path id="path20" d="m 2.2501797,-1.6283516 c 0.1289062,-0.1171875 0.4570312,-0.375 0.5859375,-0.4921875 0.4921875,-0.4570312 0.9609375,-0.890625 0.9609375,-1.6171875 0,-0.9492187 -0.796875,-1.5585937 -1.7929688,-1.5585937 -0.9492187,0 -1.58203121,0.7265625 -1.58203121,1.4296875 0,0.3984375 0.31640625,0.4453125 0.421875,0.4453125 0.16406251,0 0.41015621,-0.1171875 0.41015621,-0.421875 0,-0.4101563 -0.39843746,-0.4101563 -0.49218746,-0.4101563 0.234375,-0.5859375 0.77343746,-0.7851562 1.16015626,-0.7851562 0.7382812,0 1.125,0.6328125 1.125,1.3007812 0,0.8320313 -0.5859375,1.4296875 -1.5234375,2.4023438 l -1.00781251,1.03124999 c -0.09375,0.09375 -0.09375,0.10546875 -0.09375,0.3046874975 H 3.5743984 L 3.7970547,-1.4291328 H 3.5509609 c -0.023437,0.1640625 -0.082031,0.56249999 -0.1757812,0.71484374 -0.046875,0.0585938 -0.65625,0.0585938 -0.7851563,0.0585938 H 1.1720547 Z m 0,0" style="fill:#000000;fill-opacity:1;fill-rule:nonzero;stroke:none" aria-label="2" transform="matrix(1.3333333,0,0,1.3333333,14.878667,132.19067)"/>
    <path id="path21" d="m 2.0158047,-2.6602578 c 0.6328125,0 1.03125,0.4570312 1.03125,1.3007812 0,0.99609379 -0.5742188,1.28906254 -0.9960938,1.28906254 -0.4335937,0 -1.03125,-0.1640625 -1.31249996,-0.5859375 0.29296876,0 0.49218746,-0.17578125 0.49218746,-0.44531254 0,-0.2578125 -0.1875,-0.4335937 -0.44531246,-0.4335937 -0.2109375,0 -0.43359375,0.1289062 -0.43359375,0.4570312 0,0.75000004 0.80859371,1.24218754 1.72265621,1.24218754 1.0546875,0 1.7929688,-0.7265625 1.7929688,-1.52343754 0,-0.6679687 -0.515625,-1.265625 -1.3359375,-1.4414062 0.6328125,-0.2226563 1.1015625,-0.7734375 1.1015625,-1.40625 0,-0.6328125 -0.7148438,-1.0898438 -1.546875,-1.0898438 -0.8554688,0 -1.50000001,0.4570313 -1.50000001,1.0664063 0,0.2929687 0.19921875,0.421875 0.41015625,0.421875 0.24609376,0 0.41015626,-0.1757813 0.41015626,-0.4101563 0,-0.2929687 -0.2578125,-0.3984375 -0.43359376,-0.4101562 0.33984376,-0.4335938 0.94921876,-0.46875 1.08984376,-0.46875 0.2109375,0 0.8085937,0.070312 0.8085937,0.890625 0,0.5625 -0.2226562,0.890625 -0.3398437,1.0195312 -0.234375,0.2460938 -0.421875,0.2578125 -0.9023438,0.2929688 -0.1523437,0.011719 -0.2226562,0.023437 -0.2226562,0.1171875 0,0.1171875 0.070312,0.1171875 0.2109375,0.1171875 z m 0,0" style="fill:#000000;fill-opacity:1;fill-rule:nonzero;stroke:none" aria-label="3" transform="matrix(1.3333333,0,0,1.3333333,14.878667,94.394667)"/>
    <path id="path22" d="m 3.1408047,-5.1570078 c 0,-0.1640625 0,-0.2226563 -0.1640625,-0.2226563 -0.1054688,0 -0.1171875,0.011719 -0.1992188,0.1171875 l -2.54296871,3.6914063 v 0.2578125 H 2.4845547 v 0.66796874 c 0,0.29296875 -0.023437,0.38671875 -0.6328125,0.38671875 h -0.1875 V -7.578125e-4 C 2.3439297,-0.02419531 2.3556484,-0.02419531 2.8126797,-0.02419531 c 0.4570312,0 0.46875,0 1.1484375,0.0234374975 V -0.25857031 h -0.1875 c -0.609375,0 -0.6328125,-0.09375 -0.6328125,-0.38671875 V -1.3132578 h 0.84375 v -0.2578125 h -0.84375 z m -0.5976563,0.6445312 v 2.9414063 H 0.51580469 Z m 0,0" style="fill:#000000;fill-opacity:1;fill-rule:nonzero;stroke:none" aria-label="4" transform="matrix(1.3333333,0,0,1.3333333,14.878667,56.598667)"/>
    <path id="path23" d="m 1.7000391,-1.4069844 c 0.09375,-0.421875 0.2695312,-1.078125 0.2695312,-1.1484375 0.023437,-0.058594 0.2460938,-0.4804687 0.5625,-0.796875 0.2695313,-0.2460937 0.609375,-0.3867187 0.9609375,-0.3867187 0.4804688,0 0.4804688,0.4804687 0.4804688,0.6328125 0,0.5390625 -0.421875,1.640625 -0.515625,1.9101562 -0.1171875,0.28125003 -0.1523438,0.37500003 -0.1523438,0.53906253 0,0.48046875 0.375,0.75 0.7734375,0.75 0.8671875,0 1.2070313,-1.27734373 1.2070313,-1.37109373 0,-0.046875 -0.023437,-0.1171875 -0.1171875,-0.1171875 -0.09375,0 -0.1054688,0.046875 -0.140625,0.1640625 -0.2226563,0.76171873 -0.5976563,1.10156248 -0.9257813,1.10156248 -0.058594,0 -0.2226562,0 -0.2226562,-0.28125 0,-0.22265625 0.09375,-0.45703125 0.1640625,-0.65624998 0.1757812,-0.4570313 0.5390625,-1.40625 0.5390625,-1.9101563 0,-0.796875 -0.5976563,-0.984375 -1.0664063,-0.984375 -0.8320312,0 -1.2773437,0.5859375 -1.4179687,0.7734375 -0.058594,-0.4804687 -0.421875,-0.7734375 -0.8671875,-0.7734375 -0.37500004,0 -0.56250004,0.28125 -0.69140629,0.515625 -0.15234375,0.3164063 -0.28125,0.8320313 -0.28125,0.8671875 0,0.082031 0.0703125,0.1054688 0.12890625,0.1054688 0.09375,0 0.1171875,-0.046875 0.1640625,-0.2226563 0.1640625,-0.7148437 0.3515625,-1.0429687 0.65625004,-1.0429687 0.2695312,0 0.2695312,0.28125 0.2695312,0.421875 0,0.1875 -0.070312,0.46875 -0.1171875,0.703125 -0.070312,0.234375 -0.1523437,0.609375 -0.1992187,0.7265625 l -0.35156254,1.46484373 c -0.0703125,0.2109375 -0.0703125,0.234375 -0.0703125,0.2578125 0,0.1171875 0.0820313,0.2578125 0.28125004,0.2578125 0.1289062,0 0.2578125,-0.0703125 0.328125,-0.1875 0.023437,-0.046875 0.09375,-0.33984375 0.140625,-0.515625 z m 0,0" style="fill:#000000;fill-opacity:1;fill-rule:nonzero;stroke:none" aria-label="n" transform="matrix(1.3333333,0,0,1.3333333,200.12,206.93067)"/>
    <g id="g23" aria-label="x[n]" transform="matrix(1.3333333,0,0,1.3333333,16.121333,16.632)">
      <path id="path24" d="m 4.4060703,-3.6204844 c -0.328125,0.058594 -0.421875,0.3515625 -0.421875,0.4804688 0,0.1757812 0.1171875,0.328125 0.3398438,0.328125 0.2578125,0 0.5039062,-0.2226563 0.5039062,-0.5273438 0,-0.421875 -0.4570312,-0.6210937 -0.8789062,-0.6210937 -0.5390625,0 -0.84375,0.46875 -0.9492188,0.65625 -0.1757812,-0.4335938 -0.5742187,-0.65625 -0.9960937,-0.65625 -0.9609375,0 -1.48828129,1.1484375 -1.48828129,1.3828125 0,0.082031 0.0703125,0.1054687 0.12890625,0.1054687 0.0820313,0 0.10546875,-0.046875 0.12890625,-0.1054687 0.28124999,-0.8789063 0.86718749,-1.1601563 1.20703129,-1.1601563 0.2578125,0 0.4921875,0.1757813 0.4921875,0.5859375 0,0.328125 -0.3867188,1.7578125 -0.5039063,2.19140627 -0.070312,0.28125 -0.3398437,0.83203125 -0.8320312,0.83203125 -0.17578129,0 -0.36328129,-0.0585938 -0.45703129,-0.1171875 0.24609375,-0.0351563 0.42187499,-0.24609375 0.42187499,-0.48046875 0,-0.22265625 -0.16406249,-0.32812497 -0.33984374,-0.32812497 -0.2578125,0 -0.4921875,0.23437497 -0.4921875,0.53906247 0,0.43359375 0.48046875,0.609375 0.85546874,0.609375 0.5273438,0 0.8320313,-0.421875 0.9609375,-0.66796875 0.2226563,0.59765625 0.7617188,0.66796875 0.9960938,0.66796875 0.9726562,0 1.4765625,-1.16015627 1.4765625,-1.37109377 0,-0.046875 -0.023437,-0.1171875 -0.1171875,-0.1171875 -0.09375,0 -0.1054688,0.035156 -0.1523438,0.1757813 -0.1875,0.64453122 -0.7148437,1.08984372 -1.1835937,1.08984372 -0.2578125,0 -0.4921875,-0.15234375 -0.4921875,-0.5859375 0,-0.19921875 0.1171875,-0.69140622 0.1992187,-1.03125002 0.035156,-0.1640625 0.28125,-1.1367187 0.2929688,-1.1953125 0.1171875,-0.3164062 0.3867187,-0.796875 0.84375,-0.796875 0.1523437,0 0.328125,0.023437 0.4570312,0.1171875 z m 0,0" style="fill:#000000;fill-opacity:1;fill-rule:nonzero;stroke:none"/>
      <path id="path25" d="M 7.5672031,2.2388906 V 1.8521719 H 6.6882969 v -8.1914063 h 0.8789062 v -0.3867187 h -1.265625 v 8.9648437 z m 0,0" style="fill:#000000;fill-opacity:1;fill-rule:nonzero;stroke:none"/>
      <path id="path26" d="m 9.4832187,-1.4056406 c 0.09375,-0.421875 0.2695313,-1.078125 0.2695313,-1.1484375 0.023437,-0.058594 0.2460937,-0.4804688 0.5625,-0.796875 0.269531,-0.2460938 0.609375,-0.3867188 0.960937,-0.3867188 0.480469,0 0.480469,0.4804688 0.480469,0.6328125 0,0.5390625 -0.421875,1.640625 -0.515625,1.9101563 -0.117187,0.28124997 -0.152344,0.37499997 -0.152344,0.53906247 0,0.48046875 0.375,0.75 0.773438,0.75 0.867187,0 1.207031,-1.27734377 1.207031,-1.37109377 0,-0.046875 -0.02344,-0.1171875 -0.117187,-0.1171875 -0.09375,0 -0.105469,0.046875 -0.140625,0.1640625 -0.222657,0.76171877 -0.597657,1.10156252 -0.925782,1.10156252 -0.05859,0 -0.222656,0 -0.222656,-0.28125 0,-0.22265625 0.09375,-0.45703125 0.164063,-0.65625002 0.175781,-0.4570312 0.539062,-1.40625 0.539062,-1.9101562 0,-0.796875 -0.597656,-0.984375 -1.066406,-0.984375 -0.832031,0 -1.277344,0.5859375 -1.4179688,0.7734375 -0.058594,-0.4804688 -0.421875,-0.7734375 -0.8671875,-0.7734375 -0.375,0 -0.5625,0.28125 -0.6914062,0.515625 -0.1523438,0.3164062 -0.28125,0.8320312 -0.28125,0.8671875 0,0.082031 0.070312,0.1054687 0.1289062,0.1054687 0.09375,0 0.1171875,-0.046875 0.1640625,-0.2226562 0.1640625,-0.7148438 0.3515625,-1.0429688 0.65625,-1.0429688 0.2695313,0 0.2695313,0.28125 0.2695313,0.421875 0,0.1875 -0.070312,0.46875 -0.1171875,0.703125 -0.070312,0.234375 -0.1523438,0.609375 -0.1992188,0.7265625 l -0.3515625,1.46484377 c -0.070312,0.2109375 -0.070312,0.234375 -0.070312,0.2578125 0,0.1171875 0.082031,0.2578125 0.28125,0.2578125 0.1289063,0 0.2578125,-0.0703125 0.328125,-0.1875 0.023437,-0.046875 0.09375,-0.33984375 0.140625,-0.515625 z m 0,0" style="fill:#000000;fill-opacity:1;fill-rule:nonzero;stroke:none"/>
      <path id="path27" d="m 14.806461,2.2388906 v -8.9648437 h -1.265625 v 0.3867187 h 0.890625 v 8.1914063 h -0.890625 v 0.3867187 z m 0,0" style="fill:#000000;fill-opacity:1;fill-rule:nonzero;stroke:none"/>
    </g>
    <path id="path28" d="m 1.4174,113.38724 c 0,0.78282 -0.63458,1.4174 -1.4174,1.4174 -0.78282,0 -1.4174,-0.63458 -1.4174,-1.4174 0,-0.78284 0.63458,-1.41742 1.4174,-1.41742 0.78282,0 1.4174,0.63458 1.4174,1.41742 z M 29.76422,85.04042 c 0,0.78282 -0.6346,1.41742 -1.41742,1.41742 -0.78282,0 -1.41742,-0.6346 -1.41742,-1.41742 0,-0.78282 0.6346,-1.41742 1.41742,-1.41742 0.78282,0 1.41742,0.6346 1.41742,1.41742 z m 28.3468,-28.3468 c 0,0.78282 -0.63458,1.4174 -1.4174,1.4174 -0.78284,0 -1.41742,-0.63458 -1.41742,-1.4174 0,-0.78284 0.63458,-1.41742 1.41742,-1.41742 0.78282,0 1.4174,0.63458 1.4174,1.41742 z M 86.45784,28.3468 c 0,0.78282 -0.6346,1.41742 -1.41742,1.41742 -0.78282,0 -1.41742,-0.6346 -1.41742,-1.41742 0,-0.78282 0.6346,-1.41742 1.41742,-1.41742 0.78282,0 1.41742,0.6346 1.41742,1.41742 z" style="fill:#000000;fill-opacity:1;fill-rule:nonzero;stroke:#000000;stroke-width:0.3985;stroke-linecap:butt;stroke-linejoin:miter;stroke-miterlimit:10;stroke-dasharray:none;stroke-opacity:1" transform="matrix(1.3333333,0,0,-1.3333333,26.722667,204.35733)"/>
    <path id="path29" d="M 28.3468,0 V 85.04042 M 56.69362,0 V 56.69362 M 85.04042,0 v 28.3468" style="fill:none;stroke:#000000;stroke-width:0.3985;stroke-linecap:butt;stroke-linejoin:miter;stroke-miterlimit:10;stroke-dasharray:none;stroke-opacity:1" transform="matrix(1.3333333,0,0,-1.3333333,26.722667,204.35733)"/>
    <path id="path30" d="M 0,85.04042 H 28.3468" style="fill:none;stroke:#000000;stroke-width:0.3985;stroke-linecap:butt;stroke-linejoin:miter;stroke-miterlimit:10;stroke-dasharray:2.98883, 2.98883;stroke-dashoffset:0;stroke-opacity:1" transform="matrix(1.3333333,0,0,-1.3333333,26.722667,204.35733)"/>
    <path id="path31" d="M 0,56.69362 H 56.69362" style="fill:none;stroke:#000000;stroke-width:0.3985;stroke-linecap:butt;stroke-linejoin:miter;stroke-miterlimit:10;stroke-dasharray:2.98883, 2.98883;stroke-dashoffset:0;stroke-opacity:1" transform="matrix(1.3333333,0,0,-1.3333333,26.722667,204.35733)"/>
    <path id="path32" d="M 0,28.3468 H 85.04042" style="fill:none;stroke:#000000;stroke-width:0.3985;stroke-linecap:butt;stroke-linejoin:miter;stroke-miterlimit:10;stroke-dasharray:2.98883, 2.98883;stroke-dashoffset:0;stroke-opacity:1" transform="matrix(1.3333333,0,0,-1.3333333,26.722667,204.35733)"/>
  </g>
</svg>