<?xml version="1.0" encoding="UTF-8" standalone="no"?>
<!-- Created with Inkscape (http://www.inkscape.org/) -->
<svg version="1.1" id="svg1" width="246.30667" height="106.36" viewBox="0 0 246.30667 106.36" sodipodi:docname="24-25-1-信号与系统-期中-题图2-3.pdf" xmlns:inkscape="http://www.inkscape.org/namespaces/inkscape" xmlns:sodipodi="http://sodipodi.sourceforge.net/DTD/sodipodi-0.dtd" xmlns="http://www.w3.org/2000/svg" xmlns:svg="http://www.w3.org/2000/svg">
  <defs id="defs1"/>
  <sodipodi:namedview id="namedview1" pagecolor="#ffffff" bordercolor="#000000" borderopacity="0.25" inkscape:showpageshadow="2" inkscape:pageopacity="0.0" inkscape:pagecheckerboard="0" inkscape:deskcolor="#d1d1d1">
    <inkscape:page x="0" y="0" inkscape:label="1" id="page1" width="246.30667" height="106.36" margin="0" bleed="0"/>
  </sodipodi:namedview>
  <g id="g1" inkscape:groupmode="layer" inkscape:label="1">
    <path id="path1" d="M -87.87527,-56.69362 V 22.67752 H 96.37897 v -79.37114 z" style="fill:#ffffff;fill-opacity:1;fill-rule:nonzero;stroke:#ffffff;stroke-width:0.3985;stroke-linecap:butt;stroke-linejoin:miter;stroke-miterlimit:10;stroke-dasharray:none;stroke-opacity:1" transform="matrix(1.3333333,0,0,-1.3333333,117.43067,30.502667)"/>
    <path id="path2" d="M 9.62515,0 C 9.62515,5.31589 5.31589,9.62515 0,9.62515 -5.31589,9.62515 -9.62515,5.31589 -9.62515,0 c 0,-5.31589 4.30926,-9.62515 9.62515,-9.62515 5.31589,0 9.62515,4.30926 9.62515,9.62515 z" style="fill:none;stroke:#000000;stroke-width:0.3985;stroke-linecap:butt;stroke-linejoin:miter;stroke-miterlimit:10;stroke-dasharray:none;stroke-opacity:1" transform="matrix(1.3333333,0,0,-1.3333333,117.43067,30.502667)"/>
    <path id="path3" d="m 3.7027344,-3.2448672 c 0.09375,-0.1054687 0.09375,-0.140625 0.09375,-0.1640625 0,-0.046875 -0.046875,-0.09375 -0.070312,-0.140625 l -2.039063,-2.9414062 h 2.296875 c 1.6875,0 2.1796875,0.3515625 2.390625,1.9335937 h 0.2460937 l -0.28125,-2.25 H 0.81992187 c -0.24609375,0 -0.2578125,0 -0.2578125,0.234375 l 2.47265623,3.609375 -2.36718748,2.69531251 c -0.10546875,0.10546875 -0.10546875,0.12890625 -0.10546875,0.1640625 0,0.10546875 0.10546875,0.10546875 0.2578125,0.10546875 H 6.3394531 l 0.28125,-2.35546876 H 6.3746094 C 6.1988281,-0.69017969 5.5191406,-0.42064844 3.9488281,-0.42064844 H 1.2066406 Z m 0,0" style="fill:#000000;fill-opacity:1;fill-rule:nonzero;stroke:none" aria-label="Σ" transform="matrix(1.3333333,0,0,1.3333333,112.63333,35.041333)"/>
    <path id="path4" d="m -49.16168,-51.37569 h 13.28296 v 17.71097 h -13.28296 z" style="fill:none;stroke:#000000;stroke-width:0.3985;stroke-linecap:butt;stroke-linejoin:miter;stroke-miterlimit:10;stroke-dasharray:none;stroke-opacity:1" transform="matrix(1.3333333,0,0,-1.3333333,117.43067,30.502667)"/>
    <path id="path5" d="M 2.7064766,8.7649297 C 2.5775703,10.393836 2.2260078,10.850867 1.6517891,10.850867 c -0.1289063,0 -0.421875,-0.03516 -0.6328125,-0.210937 0.28125,-0.04687 0.3632812,-0.269532 0.3632812,-0.410157 0,-0.2929683 -0.2226562,-0.4218746 -0.41015624,-0.4218746 -0.19921875,0 -0.41015625,0.1289063 -0.41015625,0.4335936 0,0.480469 0.49218749,0.820313 1.08984379,0.820313 0.9492187,0 1.4296875,-0.867188 1.640625,-1.7578128 0.1289062,-0.515625 0.4921875,-3.421875 0.5742187,-4.5234375 l 0.1875,-2.484375 c 0.140625,-1.82812501 0.4804688,-2.07421876 0.9257813,-2.07421876 0.1054687,0 0.4101562,0.0117188 0.6328125,0.2109375 -0.2929688,0.0351563 -0.375,0.26953125 -0.375,0.3984375 0,0.29296876 0.2226562,0.42187496 0.4101562,0.42187496 0.1992188,0 0.421875,-0.1289062 0.421875,-0.42187496 0,-0.48046875 -0.5039062,-0.8320312525 -1.1015625,-0.8320312525 -0.9492187,0 -1.3359375,0.9609375025 -1.5,1.7226562125 C 3.3510078,2.2727422 2.9877266,5.0852422 2.8939766,6.2805547 Z m 0,0" style="fill:#000000;fill-opacity:1;fill-rule:nonzero;stroke:none" aria-label="∫" transform="matrix(1.3333333,0,0,1.3333333,56.309333,79.817333)"/>
    <path id="path6" d="M 33.04387,-42.87157 H 46.32683 V -25.1606 H 33.04387 Z" style="fill:none;stroke:#000000;stroke-width:0.3985;stroke-linecap:butt;stroke-linejoin:miter;stroke-miterlimit:10;stroke-dasharray:none;stroke-opacity:1" transform="matrix(1.3333333,0,0,-1.3333333,117.43067,30.502667)"/>
    <path id="path7" d="M 2.7055781,8.7669766 C 2.5766719,10.395883 2.2251094,10.852914 1.6508906,10.852914 c -0.1289062,0 -0.421875,-0.03516 -0.6328125,-0.210937 0.28125,-0.04687 0.3632813,-0.269532 0.3632813,-0.410157 0,-0.2929684 -0.2226563,-0.4218747 -0.41015627,-0.4218747 -0.19921875,0 -0.41015625,0.1289063 -0.41015625,0.4335937 0,0.480469 0.49218752,0.820313 1.08984372,0.820313 0.9492188,0 1.4296875,-0.867188 1.640625,-1.7578129 0.1289063,-0.515625 0.4921875,-3.421875 0.5742188,-4.5234375 l 0.1875,-2.484375 c 0.140625,-1.82812504 0.4804687,-2.07421879 0.9257812,-2.07421879 0.1054688,0 0.4101563,0.0117188 0.6328125,0.2109375 -0.2929687,0.0351563 -0.375,0.26953125 -0.375,0.3984375 0,0.29296879 0.2226563,0.42187499 0.4101563,0.42187499 0.1992187,0 0.421875,-0.1289062 0.421875,-0.42187499 0,-0.48046875 -0.5039063,-0.83203125 -1.1015625,-0.83203125 -0.9492188,0 -1.3359375,0.9609375 -1.5,1.72265624 C 3.3501094,2.2747891 2.9868281,5.0872891 2.8930781,6.2826016 Z m 0,0" style="fill:#000000;fill-opacity:1;fill-rule:nonzero;stroke:none" aria-label="∫" transform="matrix(1.3333333,0,0,1.3333333,165.916,68.478667)"/>
    <path id="path8" d="m -85.04042,0 h 74.75774" style="fill:none;stroke:#000000;stroke-width:0.3985;stroke-linecap:butt;stroke-linejoin:miter;stroke-miterlimit:10;stroke-dasharray:none;stroke-opacity:1" transform="matrix(1.3333333,0,0,-1.3333333,117.43067,30.502667)"/>
    <path id="path9" d="M -1.19551,1.59401 C -1.09587,0.99626 0,0.09961 0.29886,0 0,-0.09961 -1.09587,-0.99626 -1.19551,-1.59401" style="fill:none;stroke:#000000;stroke-width:0.31879;stroke-linecap:round;stroke-linejoin:round;stroke-miterlimit:10;stroke-dasharray:none;stroke-opacity:1" transform="matrix(1.3333333,0,0,-1.3333333,103.72043,30.502667)"/>
    <path id="path10" d="m 4.0791641,-2.2975937 h 2.7773437 c 0.140625,0 0.328125,0 0.328125,-0.1992188 0,-0.1992187 -0.1875,-0.1992187 -0.328125,-0.1992187 H 4.0791641 v -2.7890625 c 0,-0.1289063 0,-0.328125 -0.1992188,-0.328125 -0.1992187,0 -0.1992187,0.1992187 -0.1992187,0.328125 v 2.7890625 H 0.89166406 c -0.140625,0 -0.328125,0 -0.328125,0.1992187 0,0.1992188 0.1875,0.1992188 0.328125,0.1992188 H 3.6807266 v 2.8007812 c 0,0.12890625 0,0.328125 0.1992187,0.328125 0.1992188,0 0.1992188,-0.19921875 0.1992188,-0.328125 z m 0,0" style="fill:#000000;fill-opacity:1;fill-rule:nonzero;stroke:none" aria-label="+" transform="matrix(1.3333333,0,0,1.3333333,95.385333,22.485333)"/>
    <path id="path11" d="M 9.8244,0 H 84.58214" style="fill:none;stroke:#000000;stroke-width:0.3985;stroke-linecap:butt;stroke-linejoin:miter;stroke-miterlimit:10;stroke-dasharray:none;stroke-opacity:1" transform="matrix(1.3333333,0,0,-1.3333333,117.43067,30.502667)"/>
    <path id="path12" d="M -1.19551,1.59401 C -1.09587,0.99626 0,0.09961 0.29886,0 0,-0.09961 -1.09587,-0.99626 -1.19551,-1.59401" style="fill:none;stroke:#000000;stroke-width:0.31879;stroke-linecap:round;stroke-linejoin:round;stroke-miterlimit:10;stroke-dasharray:none;stroke-opacity:1" transform="matrix(1.3333333,0,0,-1.3333333,230.20685,30.502667)"/>
    <g id="g12" aria-label="y(t)" transform="matrix(1.3333333,0,0,1.3333333,219.75867,22.485333)">
      <path id="path13" d="m 4.8392031,-3.7975937 c 0.046875,-0.140625 0.046875,-0.1523438 0.046875,-0.2226563 0,-0.1875 -0.140625,-0.2695312 -0.2929687,-0.2695312 -0.1054688,0 -0.2578125,0.058594 -0.3515625,0.1992187 -0.023437,0.058594 -0.09375,0.3632813 -0.140625,0.5390625 -0.070312,0.2578125 -0.140625,0.5273438 -0.1992188,0.796875 l -0.4453125,1.79296875 c -0.035156,0.15234375 -0.46875,0.85546875 -1.125,0.85546875 -0.5039062,0 -0.6210937,-0.4453125 -0.6210937,-0.80859375 0,-0.45703125 0.1757812,-1.07812495 0.515625,-1.95703125 0.1523437,-0.4101562 0.1992187,-0.515625 0.1992187,-0.7148437 0,-0.4453125 -0.328125,-0.8203125 -0.8203125,-0.8203125 -0.94921873,0 -1.31249998,1.453125 -1.31249998,1.5351562 0,0.1054688 0.09375,0.1054688 0.1171875,0.1054688 0.09375,0 0.10546875,-0.023437 0.15234375,-0.1875 0.26953125,-0.9375 0.66796873,-1.2304688 1.00781253,-1.2304688 0.082031,0 0.2578125,0 0.2578125,0.3164063 0,0.2460937 -0.1054688,0.515625 -0.1757813,0.703125 -0.3984375,1.0546875 -0.5742187,1.6171875 -0.5742187,2.0859375 0,0.89062495 0.6210937,1.1835937 1.21875,1.1835937 0.3867187,0 0.7265625,-0.1640625 0.9960937,-0.4453125 C 3.1634219,0.1750625 3.0462344,0.66725 2.6477969,1.1945938 2.3899844,1.5344375 2.0149844,1.8274063 1.5579531,1.8274063 c -0.140625,0 -0.59765623,-0.035156 -0.76171873,-0.421875 0.1640625,0 0.29296873,0 0.43359373,-0.1171875 0.09375,-0.09375 0.1992188,-0.2226563 0.1992188,-0.4101563 0,-0.31640625 -0.2695313,-0.3515625 -0.375,-0.3515625 -0.22265628,0 -0.55078128,0.1640625 -0.55078128,0.6445313 0,0.5039062 0.43359375,0.8671875 1.05468748,0.8671875 1.0195313,0 2.0507813,-0.9023438 2.3320313,-2.0273438 z m 0,0" style="fill:#000000;fill-opacity:1;fill-rule:nonzero;stroke:none"/>
      <path id="path14" d="m 8.5335391,2.3899063 c 0,-0.035156 0,-0.046875 -0.1640625,-0.2226563 -1.2421875,-1.25390625 -1.5703125,-3.12890625 -1.5703125,-4.6640625 0,-1.7226562 0.3867187,-3.4570312 1.6054687,-4.7109375 0.1289063,-0.1171875 0.1289063,-0.1289062 0.1289063,-0.1640625 0,-0.070312 -0.035156,-0.1054687 -0.09375,-0.1054687 -0.1054688,0 -0.9960938,0.6796875 -1.5820313,1.9453125 -0.515625,1.1015625 -0.6328125,2.203125 -0.6328125,3.0351562 0,0.7851563 0.1171875,1.9921875 0.65625,3.1171875 0.5976563,1.21875 1.453125,1.875 1.5585938,1.875 0.058594,0 0.09375,-0.035156 0.09375,-0.1054687 z m 0,0" style="fill:#000000;fill-opacity:1;fill-rule:nonzero;stroke:none"/>
      <path id="path15" d="m 11.167328,-3.9850937 h 0.9375 c 0.199219,0 0.304688,0 0.304688,-0.1992188 0,-0.1054687 -0.105469,-0.1054687 -0.28125,-0.1054687 h -0.878907 c 0.363282,-1.4179688 0.410157,-1.6171875 0.410157,-1.6757813 0,-0.1757812 -0.117188,-0.2695312 -0.292969,-0.2695312 -0.02344,0 -0.304688,0.011719 -0.398438,0.3515625 l -0.386718,1.59375 H 9.6438906 c -0.1992187,0 -0.2929687,0 -0.2929687,0.1875 0,0.1171875 0.070312,0.1171875 0.2695312,0.1171875 h 0.8789059 c -0.7148434,2.8242187 -0.7499996,2.99999995 -0.7499996,3.1757812 0,0.5390625 0.3749996,0.9140625 0.9140626,0.9140625 1.007812,0 1.582031,-1.453125 1.582031,-1.5351562 0,-0.09375 -0.08203,-0.09375 -0.117187,-0.09375 -0.09375,0 -0.105469,0.023437 -0.152344,0.140625 -0.433594,1.03124995 -0.960938,1.2773437 -1.300781,1.2773437 -0.199219,0 -0.304688,-0.12890625 -0.304688,-0.45703125 0,-0.24609375 0.02344,-0.31640625 0.05859,-0.48046875 z m 0,0" style="fill:#000000;fill-opacity:1;fill-rule:nonzero;stroke:none"/>
      <path id="path16" d="m 15.597016,-2.4968125 c 0,-0.7734375 -0.117188,-1.9804687 -0.65625,-3.1054687 -0.597657,-1.21875 -1.464844,-1.875 -1.558594,-1.875 -0.05859,0 -0.105469,0.046875 -0.105469,0.1054687 0,0.035156 0,0.046875 0.199219,0.234375 0.972656,0.984375 1.535156,2.5664063 1.535156,4.640625 0,1.7109375 -0.363281,3.45703125 -1.59375,4.7226563 -0.140625,0.1171875 -0.140625,0.1289062 -0.140625,0.1640625 0,0.058594 0.04687,0.1054687 0.105469,0.1054687 0.09375,0 0.996094,-0.6796875 1.582031,-1.9453125 0.503906,-1.1015625 0.632813,-2.203125 0.632813,-3.046875 z m 0,0" style="fill:#000000;fill-opacity:1;fill-rule:nonzero;stroke:none"/>
    </g>
    <path id="path17" d="m -56.69362,0 v -42.5202 h 7.33269 m 13.68147,0 h 21.50607 l 10.92194,32.76567" style="fill:none;stroke:#000000;stroke-width:0.3985;stroke-linecap:butt;stroke-linejoin:miter;stroke-miterlimit:10;stroke-dasharray:none;stroke-opacity:1" transform="matrix(1.3333333,0,0,-1.3333333,117.43067,30.502667)"/>
    <path id="path18" d="M -1.19551,1.59401 C -1.09587,0.99626 0,0.09961 0.29886,0 0,-0.09961 -1.09587,-0.99626 -1.19551,-1.59401" style="fill:none;stroke:#000000;stroke-width:0.31879;stroke-linecap:round;stroke-linejoin:round;stroke-miterlimit:10;stroke-dasharray:none;stroke-opacity:1" transform="matrix(0.42161333,-1.2648533,-1.2648533,-0.42161333,113.09539,43.508707)"/>
    <path id="path19" d="m 6.5635547,-2.2977031 c 0.1757812,0 0.3515625,0 0.3515625,-0.1992188 0,-0.1992187 -0.1757813,-0.1992187 -0.3515625,-0.1992187 h -5.390625 c -0.1640625,0 -0.33984376,0 -0.33984376,0.1992187 0,0.1992188 0.17578126,0.1992188 0.33984376,0.1992188 z m 0,0" style="fill:#000000;fill-opacity:1;fill-rule:nonzero;stroke:none" aria-label="−" transform="matrix(1.3333333,0,0,1.3333333,96.44,47.102667)"/>
    <path id="path20" d="M 39.68535,0 V -24.96133 M 32.8446,-34.01608 H 28.3468 L 6.58246,-7.89902" style="fill:none;stroke:#000000;stroke-width:0.3985;stroke-linecap:butt;stroke-linejoin:miter;stroke-miterlimit:10;stroke-dasharray:none;stroke-opacity:1" transform="matrix(1.3333333,0,0,-1.3333333,117.43067,30.502667)"/>
    <path id="path21" d="M -1.19551,1.59401 C -1.09587,0.99626 0,0.09961 0.29886,0 0,-0.09961 -1.09587,-0.99626 -1.19551,-1.59401" style="fill:none;stroke:#000000;stroke-width:0.31879;stroke-linecap:round;stroke-linejoin:round;stroke-miterlimit:10;stroke-dasharray:none;stroke-opacity:1" transform="matrix(-0.85353333,-1.0242267,-1.0242267,0.85353333,126.20728,41.034707)"/>
    <path id="path22" d="m 4.0769609,-2.2978359 h 2.7773438 c 0.140625,0 0.328125,0 0.328125,-0.1992188 0,-0.1992187 -0.1875,-0.1992187 -0.328125,-0.1992187 H 4.0769609 v -2.7890625 c 0,-0.1289063 0,-0.328125 -0.1992187,-0.328125 -0.1992188,0 -0.1992188,0.1992187 -0.1992188,0.328125 v 2.7890625 H 0.88946094 c -0.140625,0 -0.328125,0 -0.328125,0.1992187 0,0.1992188 0.1875,0.1992188 0.328125,0.1992188 H 3.6785234 v 2.80078121 c 0,0.12890625 0,0.328125 0.1992188,0.328125 0.1992187,0 0.1992187,-0.19921875 0.1992187,-0.328125 z m 0,0" style="fill:#000000;fill-opacity:1;fill-rule:nonzero;stroke:none" aria-label="+" transform="matrix(1.3333333,0,0,1.3333333,131.67733,40.888)"/>
    <path id="path23" d="M 4.47725,-1.7344922 H 4.2194375 C 4.1725625,-1.4298047 4.10225,-0.99621094 4.0085,-0.84386719 c -0.070312,0.0820313 -0.7265625,0.0820313 -0.9492188,0.0820313 H 1.2663125 L 2.321,-1.7930859 c 1.5585937,-1.3710938 2.15625,-1.9101563 2.15625,-2.90625 0,-1.1367188 -0.9023438,-1.9335938 -2.1210938,-1.9335938 -1.125,0 -1.85156245,0.9140625 -1.85156245,1.8046875 0,0.5507813 0.4921875,0.5507813 0.52734375,0.5507813 0.1640625,0 0.515625,-0.1171875 0.515625,-0.5273438 0,-0.2578125 -0.1875,-0.515625 -0.5273438,-0.515625 -0.0820312,0 -0.1054687,0 -0.1289062,0.011719 C 1.1139687,-5.953242 1.6530312,-6.328242 2.22725,-6.328242 c 0.9140625,0 1.3359375,0.8085938 1.3359375,1.6289063 0,0.796875 -0.4921875,1.5820312 -1.0429688,2.203125 L 0.6100625,-0.36339844 C 0.50459375,-0.25792969 0.50459375,-0.23449219 0.50459375,-1.171875e-4 H 4.196 Z m 0,0" style="fill:#000000;fill-opacity:1;fill-rule:nonzero;stroke:none" aria-label="2" transform="matrix(1.3333333,0,0,1.3333333,151.90533,87.84)"/>
  </g>
</svg>